<svg version="1.1" xmlns="http://www.w3.org/2000/svg" xmlns:xlink="http://www.w3.org/1999/xlink" width="630" height="390"  viewBox="0 0 630 390">
<style type="text/css">
	.st0{fill:#EAF1FC;}
	.st1{fill:#F8F8FF;}
	.st2{fill:#FFFFFF;}
	.st3{fill:#D6E0F0;}
	.st4{fill:#E9EDF4;}
	.st5{fill:#CDE4F7;}
	.st6{fill:#FCFBFC;}
	.st7{fill:#0B2B46;}
	.st8{fill:#DB3E3E;}
	.st9{fill:#C93D37;}
	.st10{fill:#FF524F;}
	.st11{fill:#FF8500;}
	.st12{fill:#AF7309;}
	.st13{fill:#A97000;}
	.st14{fill:#F4A721;}
	.st15{fill:#E5B571;}
	.st16{fill:#E4E6E6;}
	.st17{fill:#CE8D4D;}
	.st18{fill:#ECCF8E;}
	.st19{fill:#C07532;}
	.st20{fill:#DADCDC;}
	.st21{fill:#F8C47A;}
	.st22{fill:#E19A54;}
	.st23{fill:#FFDF9A;}
	.st24{fill:#ECCF8F;}
	.st25{fill:#C07632;}
	.st26{fill:#E8815F;}
	.st27{fill:#F09976;}
	.st28{fill:#FFDA35;}
	.st29{fill:#EF265B;}
	.st30{fill:#FB446C;}
	.st31{fill:#0A273A;}
	.st32{fill:#02819F;}
	.st33{fill:#4FA52B;}
	.st34{fill:#75C945;}
	.st35{fill:#E08F73;}
	.st36{fill:#047487;}
	.st37{fill:#05616B;}
	.st38{fill:#303D48;}
</style>
<path class="st0" d="M314.5,388c173.7,0,314.5-20.2,314.5-45.1c0-24.9-140.8-45.1-314.5-45.1S0,318,0,342.9
	C0,367.8,140.8,388,314.5,388z"/>
<path class="st1" d="M572.3,326.3C608.2,251.7,628,109,550.2,61.6c-50.9-31-103.8,8.8-158.2,10.7c-42.6,1.5-83.8-32.3-122.3-41.9
	C168.7,5.2,10,70.8,79.8,326.3C254.3,325.8,397.8,326.8,572.3,326.3L572.3,326.3z"/>
<path class="st2" d="M219,205.7H116.7c-0.7,0-1.3-0.3-1.8-0.7c-0.5-0.5-0.7-1.1-0.7-1.8V54.8c-3.9-55.5,18.3-53.6,53.6-53.6h0
	c56.1-3.6,53.7,24,53.7,53.7v148.4c0,0.7-0.3,1.3-0.7,1.8C220.3,205.4,219.6,205.7,219,205.7z"/>
<path class="st3" d="M219.5,207.9H115.1c-0.8,0-1.6-0.3-2.2-0.9c-0.6-0.6-0.9-1.4-0.9-2.2V32.6c0-8.6,3.4-16.9,9.5-23
	c6.1-6.1,14.3-9.5,23-9.5H190c8.6,0,16.9,3.4,23,9.5c6.1,6.1,9.5,14.4,9.6,23v172.2c0,0.8-0.3,1.6-0.9,2.2
	C221.1,207.5,220.3,207.9,219.5,207.9L219.5,207.9z M115.3,204.6h104v-172c0-7.8-3.1-15.2-8.6-20.7c-5.5-5.5-12.9-8.6-20.7-8.6
	h-45.6c-7.7,0-15.2,3.1-20.7,8.6c-5.5,5.5-8.6,12.9-8.6,20.7L115.3,204.6L115.3,204.6z"/>
<path class="st3" d="M167.3,206.5c-0.4,0-0.9-0.2-1.2-0.5c-0.3-0.3-0.5-0.7-0.5-1.2V1.6c0-0.4,0.2-0.9,0.5-1.2
	c0.3-0.3,0.7-0.5,1.2-0.5c0.4,0,0.9,0.2,1.2,0.5c0.3,0.3,0.5,0.7,0.5,1.2v203.2c0,0.4-0.2,0.9-0.5,1.2
	C168.1,206.4,167.7,206.5,167.3,206.5L167.3,206.5z"/>
<path class="st3" d="M220.9,159.6H113.6c-0.4,0-0.9-0.2-1.2-0.5c-0.3-0.3-0.5-0.7-0.5-1.2c0-0.4,0.2-0.9,0.5-1.2
	c0.3-0.3,0.7-0.5,1.2-0.5h107.3c0.4,0,0.9,0.2,1.2,0.5c0.3,0.3,0.5,0.7,0.5,1.2c0,0.4-0.2,0.9-0.5,1.2
	C221.8,159.4,221.4,159.6,220.9,159.6L220.9,159.6z M220.9,57.6H113.6c-0.4,0-0.9-0.2-1.2-0.5c-0.3-0.3-0.5-0.7-0.5-1.2
	c0-0.4,0.2-0.9,0.5-1.2c0.3-0.3,0.7-0.5,1.2-0.5h107.3c0.4,0,0.9,0.2,1.2,0.5c0.3,0.3,0.5,0.7,0.5,1.2c0,0.4-0.2,0.9-0.5,1.2
	C221.8,57.4,221.4,57.6,220.9,57.6L220.9,57.6z M220.9,108.6H113.6c-0.4,0-0.9-0.2-1.2-0.5c-0.3-0.3-0.5-0.7-0.5-1.2
	c0-0.4,0.2-0.9,0.5-1.2c0.3-0.3,0.7-0.5,1.2-0.5h107.3c0.4,0,0.9,0.2,1.2,0.5c0.3,0.3,0.5,0.7,0.5,1.2c0,0.4-0.2,0.9-0.5,1.2
	C221.8,108.4,221.4,108.6,220.9,108.6L220.9,108.6z"/>
<path class="st4" d="M424.6,211h5.1v28.6h-5.1V211z"/>
<path class="st3" d="M445.3,240.9H409c0-1.4,0.6-2.7,1.5-3.7c1-1,2.3-1.5,3.7-1.5H440c1.4,0,2.7,0.6,3.7,1.6
	C444.7,238.2,445.3,239.5,445.3,240.9L445.3,240.9z"/>
<path class="st5" d="M445.5,215.6h-36.7c-0.4,0-0.9-0.1-1.2-0.3c-0.4-0.2-0.7-0.5-0.9-0.9c-0.2-0.4-0.4-0.8-0.4-1.2
	c0-0.4,0-0.9,0.2-1.3l11.1-24.8c0.2-0.5,0.5-0.8,1-1.1c0.4-0.3,0.9-0.4,1.4-0.4h14.5c0.5,0,1,0.1,1.4,0.4c0.4,0.3,0.8,0.7,1,1.1
	l11.1,24.8c0.2,0.4,0.2,0.8,0.2,1.3c0,0.4-0.2,0.8-0.4,1.2c-0.2,0.4-0.6,0.7-0.9,0.9C446.3,215.5,445.9,215.6,445.5,215.6z"/>
<path class="st4" d="M365.6,240.9h101.9v90.2H365.6V240.9z"/>
<path class="st3" d="M374.5,247.8h83.4v31.6h-83.4V247.8z M374.5,286h83.4v36.6h-83.4V286z M369.9,331.1h9.1v7.9h-9.1V331.1z
	 M453.3,331.1h9.1v7.9h-9.1V331.1z"/>
<path class="st6" d="M382.8,297.6c2.5,0,4.5-2,4.5-4.5c0-2.5-2-4.5-4.5-4.5s-4.5,2-4.5,4.5C378.3,295.6,380.3,297.6,382.8,297.6z"/>
<path class="st4" d="M379.8,253.6l41.4,0l0,11l-41.4,0L379.8,253.6z"/>
<path class="st6" d="M388.3,265l45.7,0l0,14.4l-45.7,0L388.3,265z"/>
<path class="st4" d="M478.5,65.6c-5.5,2-2.9,9.5,0.6,13c3.8,3.7,9.7,5.8,13,1.7c0.2-0.2,0.4-0.5,0.4-0.9c0-0.3,0-0.6-0.2-0.9
	c-0.2-0.3-0.4-0.5-0.7-0.7c-0.3-0.1-0.6-0.2-0.9-0.2c-2.4,0.1-4.1-0.6-3.2-2.3c0.9-1.7,4.5,1.6,5.9,1.6c3,0.1,4.1-2.2,3.5-4.1
	c-0.6-1.5-4.7-2.1-3.7-3.3c1.5-1.8,3.6,1,5.1-0.3c2.4-1.9,1.9-5.7,0.9-7.1c-0.8-1.1-4.3-2.8-6.8-1.7c-2.4,1-1.7,6.4-2.9,6.5
	c-2.2,0.1-0.4-4.6-2.1-6c-1-0.8-4.1-0.3-4.8,1.7c-1,2.6,2.7,7.6,0,8c-2.4,0.3-1-2.5-1.8-4.1C480.4,66.2,479.5,65.2,478.5,65.6
	L478.5,65.6z"/>
<path class="st5" d="M461.2,108.8L461.2,108.8c-0.2-0.1-0.3-0.2-0.2-0.3c6-18.2,18.2-33.7,34.5-43.8c0.1-0.1,0.3-0.1,0.3,0.1
	c0.1,0.1,0.1,0.3-0.1,0.3c-16.2,10-28.3,25.5-34.3,43.6C461.4,108.8,461.3,108.8,461.2,108.8L461.2,108.8z"/>
<path class="st4" d="M463.1,49.9c-4,4.3,1.7,9.8,6.4,11.3c5.1,1.6,11.3,0.8,12.4-4.3c0.1-0.3,0.1-0.6,0-1c-0.1-0.3-0.3-0.6-0.6-0.8
	c-0.3-0.2-0.6-0.3-0.9-0.3c-0.3,0-0.6,0.1-0.9,0.3c-2.1,1.1-3.9,1.4-3.9-0.6c0-1.9,4.8-0.6,5.9-1.2c2.7-1.3,2.7-3.9,1.2-5.2
	c-1.2-1.1-5.1,0.2-4.8-1.3c0.5-2.3,3.7-0.7,4.4-2.5c1.2-2.8-0.8-6-2.4-6.8c-1.2-0.6-5-0.6-6.9,1.6c-1.7,2,1.4,6.5,0.3,7.1
	c-1.9,1.1-2.4-3.9-4.6-4.4c-1.3-0.3-3.8,1.6-3.5,3.7c0.3,2.8,5.8,5.6,3.6,7.1c-2,1.4-2.1-1.8-3.4-2.8
	C465.1,49.7,463.9,49.1,463.1,49.9L463.1,49.9z"/>
<path class="st5" d="M467,96.5C467,96.5,467,96.5,467,96.5c-0.1,0-0.1,0-0.2-0.1c0,0,0,0,0-0.1c0,0,0-0.1,0-0.1
	C464.1,77.3,468,58,478,41.7c0.1-0.1,0.2-0.1,0.3-0.1c0.1,0.1,0.1,0.2,0.1,0.3c-9.9,16.2-13.8,35.4-11.1,54.3
	C467.3,96.3,467.3,96.4,467,96.5L467,96.5z"/>
<path class="st4" d="M458.9,59.6c5,3,0.9,10-3.2,12.6c-4.5,2.8-10.7,3.7-13.1-0.9c-0.2-0.3-0.2-0.6-0.2-0.9c0-0.3,0.1-0.6,0.4-0.9
	c0.2-0.2,0.5-0.4,0.8-0.5c0.3-0.1,0.6-0.1,0.9,0c2.3,0.6,4.1,0.3,3.7-1.6c-0.5-1.9-4.8,0.6-6.1,0.4c-2.9-0.6-3.6-3-2.6-4.7
	c0.9-1.4,5-1.1,4.3-2.5c-1-2.1-3.7,0.3-5-1.2c-1.9-2.4-0.8-6,0.6-7.1c1-0.9,4.8-1.9,7-0.3c2.3,1.6,0.3,6.6,1.5,6.9
	c2.1,0.6,1.4-4.4,3.3-5.5c1.2-0.6,4.1,0.6,4.4,2.6c0.4,2.8-4.1,6.9-1.7,7.7c2.3,0.8,1.5-2.2,2.6-3.6C456.9,59.8,457.9,59,458.9,59.6
	z"/>
<path class="st5" d="M467,105.5C467,105.5,467,105.5,467,105.5c-0.1,0-0.1,0-0.2-0.1c0,0,0,0,0-0.1c0,0,0-0.1,0-0.1
	c-2.2-18.9-10.9-36.4-24.7-49.6c0,0-0.1-0.1-0.1-0.2s0-0.1,0.1-0.2c0,0,0.1-0.1,0.2-0.1s0.1,0,0.2,0.1
	c13.9,13.2,22.6,30.9,24.8,49.9C467.3,105.4,467.2,105.5,467,105.5z"/>
<path class="st2" d="M457.3,114.4h17.9l2.8-24.5h-23.5L457.3,114.4z"/>
<path class="st4" d="M478,94.2h-23.6c-0.2,0-0.3-0.1-0.4-0.2c-0.1-0.1-0.2-0.3-0.2-0.4l-0.3-3c0-0.1,0-0.2,0-0.3
	c0-0.1,0.1-0.2,0.1-0.2c0.1-0.1,0.1-0.1,0.2-0.2s0.2-0.1,0.3,0h24.2c0.1,0,0.2,0,0.3,0c0.1,0,0.2,0.1,0.2,0.2
	c0.1,0.1,0.1,0.1,0.1,0.2c0,0.1,0,0.2,0,0.3l-0.3,3c0,0.1,0,0.2,0,0.2c0,0.1-0.1,0.1-0.1,0.2c-0.1,0.1-0.1,0.1-0.2,0.1
	C478.2,94.2,478.1,94.2,478,94.2z"/>
<path class="st3" d="M432.5,114.7c-0.1,0-0.1,0-0.2,0c-0.1,0-0.1,0.1-0.2,0.1c-0.1,0.1-0.1,0.1-0.1,0.2c0,0.1,0,0.1,0,0.2v1.5
	c0,0.1,0,0.1,0,0.2c0,0.1,0.1,0.1,0.1,0.2c0.1,0.1,0.1,0.1,0.2,0.1c0.1,0,0.1,0,0.2,0h56.9c0.1,0,0.1,0,0.2,0c0.1,0,0.1-0.1,0.2-0.1
	c0.1-0.1,0.1-0.1,0.1-0.2c0-0.1,0-0.1,0-0.2v-1.5c0-0.1,0-0.1,0-0.2c0-0.1-0.1-0.1-0.1-0.2c-0.1-0.1-0.1-0.1-0.2-0.1
	c-0.1,0-0.1,0-0.2,0H432.5z M527.1,165.2c-0.1,0-0.1,0-0.2,0c-0.1,0-0.1,0.1-0.2,0.1c-0.1,0.1-0.1,0.1-0.1,0.2c0,0.1,0,0.1,0,0.2
	v1.5c0,0.1,0,0.1,0,0.2c0,0.1,0.1,0.1,0.1,0.2c0.1,0.1,0.1,0.1,0.2,0.1c0.1,0,0.1,0,0.2,0H584c0.1,0,0.1,0,0.2,0
	c0.1,0,0.1-0.1,0.2-0.1c0.1-0.1,0.1-0.1,0.1-0.2c0-0.1,0-0.1,0-0.2v-1.5c0-0.1,0-0.1,0-0.2c0-0.1-0.1-0.1-0.1-0.2
	c-0.1-0.1-0.1-0.1-0.2-0.1c-0.1,0-0.1,0-0.2,0H527.1z"/>
<path class="st3" d="M312.8,136.8c15.3,0,27.8-12.4,27.8-27.8c0-15.3-12.4-27.8-27.8-27.8S285,93.7,285,109.1
	C285,124.4,297.4,136.8,312.8,136.8z"/>
<path class="st6" d="M312.8,130.2c11.6,0,21.1-9.4,21.1-21.1c0-11.6-9.4-21.1-21.1-21.1c-11.6,0-21.1,9.4-21.1,21.1
	C291.7,120.7,301.1,130.2,312.8,130.2z"/>
<path class="st3" d="M300.5,102.5l11.7,9.3c0.3,0.2,0.6,0.3,1,0.3c0.4,0,0.7-0.2,1-0.4l11-10.8c0.3-0.3,0.4-0.6,0.4-1
	c0-0.4-0.1-0.7-0.4-1c-0.3-0.3-0.6-0.4-1-0.4s-0.7,0.1-1,0.4l-10.1,9.9l-10.6-8.6c-0.2-0.2-0.5-0.3-0.8-0.3c-0.3,0-0.6,0-0.9,0.2
	c-0.1,0.1-0.3,0.2-0.3,0.3c-0.1,0.1-0.2,0.3-0.3,0.5c-0.1,0.2-0.1,0.4-0.1,0.6c0,0.2,0.1,0.4,0.2,0.5
	C300.3,102.2,300.4,102.4,300.5,102.5L300.5,102.5z"/>
<path class="st3" d="M313,113.6c1.6,0,2.9-1.3,2.9-2.9c0-1.6-1.3-2.9-2.9-2.9c-1.6,0-2.9,1.3-2.9,2.9
	C310.1,112.3,311.4,113.6,313,113.6z"/>
<path class="st0" d="M384.6,34.3h2.8v45.1h-2.8V34.3z"/>
<path class="st3" d="M408,108.6c0-5.8-2.3-11.4-6.4-15.4c-4.1-4.1-9.7-6.4-15.4-6.4s-11.3,2.3-15.4,6.4c-4.1,4.1-6.4,9.7-6.4,15.4
	H408z"/>
<path class="st3" d="M393.9,86.9c0,6.4-3.6,11.6-8.1,11.6c-4.5,0-8.1-5.2-8.1-11.6s3.6-11.6,8.1-11.6
	C390.3,75.3,393.9,80.4,393.9,86.9z"/>
<path class="st4" d="M551,165.3h5.7v-32.5c-0.9-0.4-1.9-0.7-2.9-0.7s-2,0.2-2.9,0.7L551,165.3L551,165.3z"/>
<path class="st5" d="M533.6,165.2h4.9v-32.5c-0.8-0.4-1.6-0.7-2.5-0.7c-0.9,0-1.7,0.2-2.5,0.7V165.2z"/>
<path class="st2" d="M570.4,165.2l4.5-2.1l-13.6-29.5c-0.9-0.1-1.7,0.1-2.5,0.4c-0.8,0.4-1.5,0.9-2,1.7L570.4,165.2z M538.6,165.1
	h5.7v-32.5c-0.9-0.4-1.9-0.7-2.9-0.7s-2,0.2-2.9,0.7L538.6,165.1L538.6,165.1z"/>
<path class="st7" d="M117.3,346.6h5.9l-2.1-40.9h-12.9L117.3,346.6z M41.5,346.6h-5.9l2.1-40.9h12.9L41.5,346.6z"/>
<path class="st7" d="M131.3,307.4H25.4v10h105.9V307.4z"/>
<path class="st8" d="M32.9,278.3c0.1,3.7,1.6,7.3,4.2,9.9c2.6,2.6,6.2,4.1,10,4.2h67c3.7,0,7.2-1.6,9.8-4.2c2.6-2.6,4.1-6.2,4.1-9.9
	v-65.4c0-1.8-0.4-3.6-1.1-5.3c-0.7-1.7-1.7-3.2-3-4.5c-1.3-1.3-2.8-2.3-4.5-3c-1.7-0.7-3.5-1.1-5.3-1.1h-67
	c-7.7,0-14.2,6.2-14.2,13.9V278.3z"/>
<path class="st9" d="M110,299.2c-0.7,2.3-0.4,4.9,0.8,7c1.2,2.1,3.1,3.7,5.5,4.4l10,2.9c2.3,0.7,4.9,0.4,7-0.8
	c2.1-1.2,3.7-3.1,4.4-5.5l12.8-43.8c0.7-2.3,0.4-4.9-0.8-7s-3.1-3.7-5.5-4.4l-10-2.9c-2.3-0.7-4.9-0.4-7,0.8
	c-2.1,1.2-3.7,3.1-4.4,5.5L110,299.2z M49.7,299.2c0.7,2.3,0.4,4.9-0.8,7c-1.2,2.1-3.1,3.7-5.5,4.4l-10,2.9c-2.3,0.7-4.9,0.4-7-0.8
	c-2.1-1.2-3.7-3.1-4.4-5.5L9.4,263.4c-0.7-2.3-0.4-4.9,0.8-7c1.2-2.1,3.1-3.7,5.5-4.4l10-2.9c2.3-0.7,4.9-0.4,7,0.8s3.7,3.1,4.4,5.5
	L49.7,299.2z"/>
<path class="st10" d="M32.9,298.3c0,2,0.4,3.9,1.1,5.7c0.8,1.8,1.9,3.5,3.3,4.9c1.4,1.4,3,2.5,4.9,3.3c1.8,0.8,3.8,1.1,5.7,1.1H113
	c2,0,3.9-0.4,5.7-1.1c1.8-0.8,3.5-1.9,4.9-3.3c1.4-1.4,2.5-3,3.3-4.9c0.8-1.8,1.1-3.8,1.1-5.7c0-2-0.4-3.9-1.1-5.7
	c-0.8-1.8-1.9-3.5-3.3-4.9c-1.4-1.4-3-2.5-4.9-3.3c-1.8-0.8-3.8-1.1-5.7-1.1H47.9c-2,0-3.9,0.4-5.7,1.1c-1.8,0.8-3.5,1.9-4.9,3.3
	c-1.4,1.4-2.5,3-3.3,4.9C33.3,294.3,32.9,296.3,32.9,298.3L32.9,298.3z"/>
<path class="st11" d="M90.7,287.5c0,0,6.6-5.6,4.2-13.7c-2.4-8.1-13.3-14.4-26.6-11.8c-13.2,2.5-23.7,16.5-24.7,25.5H90.7z"/>
<path class="st12" d="M46.7,269.2c-2.3-2-5.2-3.1-8.3-3.1l2,8.4L46.7,269.2z M53.9,269.5l3.6-5.4c0,0,5.7,4.6,3.7,10.3
	C59.1,280.1,53.9,269.5,53.9,269.5L53.9,269.5z"/>
<path class="st11" d="M59.9,271.2c0,0,7.1,5.2,6.4,10.9c-0.7,5.7-8.5,6.7-19.6,6.1c-11.1-0.6-9.5-8-9.1-10.2
	C38.1,275.8,45.9,260.4,59.9,271.2z"/>
<path class="st13" d="M59,274.9c-0.6,1.6-2.2,2.6-3.9,2.6c-3.1,0.2-3.1-2.4-3.1-2.4S55.1,278.6,59,274.9z M48.4,275.3
	c-0.6,1.6-2.2,2.6-3.9,2.6c-3.1,0.2-3.1-2.4-3.1-2.4S44.7,279,48.4,275.3z M51.1,278.8c-0.8-0.1-1.6,0-2.3,0.3
	c-0.7,0.4,1.3,1.8,1.3,1.8S52.3,279.3,51.1,278.8z"/>
<path class="st14" d="M62.6,273.6c0,0,9.5,8.6-2,13.8C60.6,287.5,68.2,283,62.6,273.6z"/>
<path class="st12" d="M78,285.5c-7.4-1-9.5-2.2-10.5,0.8c-1,3,17,7.1,23.1,1.2c6-5.9,4.5-12.2,4.5-12.2S92.1,287.5,78,285.5
	L78,285.5z"/>
<path class="st15" d="M388,316H316v42.2H388V316z"/>
<path class="st16" d="M345.8,325h-24.2v11.1h24.2V325z"/>
<path class="st17" d="M279.4,309.1l36.7,7v42.1l-36.7-7V309.1z"/>
<path class="st18" d="M388,316l-36.2-6.9h-72.4l36.2,6.9H388z"/>
<path class="st19" d="M305,314v11.7l-11.1-2v-11.8L305,314z"/>
<path class="st17" d="M366.3,311.9l1.5,0.3l2.3,0.4l7.6,1.4h-72.8l-10.9-2.1H366.3z"/>
<path class="st19" d="M305,344.4v11.8l-11.1-2.1v-11.8L305,344.4z"/>
<path class="st15" d="M383.1,277.3h-64.3v37.3h64.3V277.3z"/>
<path class="st20" d="M345.8,281.5h-21.4v9h21.4V281.5z"/>
<path class="st17" d="M287,271.1l31.8,6.3v37.3l-31.8-6.2V271.1L287,271.1z"/>
<path class="st18" d="M383.1,277.3l-32-6.2H287l32,6.2H383.1z"/>
<path class="st19" d="M307,302.3v9.9l-9.7-1.8v-10L307,302.3z"/>
<path class="st19" d="M309.1,275.6v10l-9.7-1.8v-10L309.1,275.6z"/>
<path class="st17" d="M364,273.9l1.4,0.2l2,0.3l6.7,0.9h-65l-9.6-1.4H364z"/>
<path class="st21" d="M195.7,302.2h-73.3v74h73.3V302.2z"/>
<path class="st22" d="M86.4,290.5l36,12.3v73.5l-36-12.2V290.5z"/>
<path class="st23" d="M195.7,302.8l-36.5-12.2h-73l36.5,12.2H195.7z"/>
<path class="st16" d="M150.6,307.4h-24.8v10.7h24.8V307.4z"/>
<path class="st17" d="M135.3,290.6l30.2,12.2h-12.7l-29.3-12.2H135.3z M165.5,302.8v14.1H153l-0.1-14.1H165.5z M165.5,362v14.1H153
	l-0.1-14.1H165.5z"/>
<path class="st15" d="M183.4,247.4h-52.1v52.1h52.1V247.4z"/>
<path class="st17" d="M105.2,238.7l26.1,8.6v52.1l-26.1-8.6V238.7z"/>
<path class="st24" d="M183.4,247.4l-26.1-8.6h-52.1l26.1,8.6H183.4z"/>
<path class="st25" d="M123.3,282.2v14.5l-7.8-2.6v-14.5L123.3,282.2z M123.3,244.7v14.5l-7.8-2.6v-14.5L123.3,244.7z"/>
<path class="st17" d="M167.6,242.2l1.1,0.3l1.6,0.6l5.5,1.7h-52.4l-7.8-2.6H167.6z"/>
<path class="st16" d="M151.2,250.7h-17.7v7.7h17.7V250.7z"/>
<path class="st26" d="M137.4,171.2c1.2-1.2,2.3-2.5,3.4-3.9c0.1-0.2,0.3-0.3,0.5-0.4s0.4-0.1,0.6,0c0.2,0.1,0.4,0.2,0.5,0.3
	c0.1,0.2,0.2,0.4,0.3,0.6c0.1,1.7,0.8,3.4,2,3.6c1.7,0.2,3.1-0.9,4.6-1.7c0.9-0.6,2.1-0.9,3.2-0.8c0.6,0.1,1.2,0.5,1.6,1
	c0.8,1.3-0.1,2.9-1.2,3.9c-1.9,1.7-4.2,2.9-6.7,3.4c-2.5,0.5-5.1,0.3-7.4-0.6C138.3,174.8,137.8,173,137.4,171.2z"/>
<path class="st27" d="M160.4,192.8c0,0,7.2,26.8,7.3,45.4c0,0,3.1,9.1-1.2,12.8l-11.3-57.3L160.4,192.8z"/>
<path class="st7" d="M137.6,147.1c-1.1,0.5-2,1.4-2.6,2.5c-0.6,1.1-0.8,2.3-0.7,3.5c0.1,1.3,0.8,2.6,0.6,3.9
	c-0.1,1.6-1.3,2.9-2.4,4.1c-3.3,3.5-6,7.6-7.8,12.1c-1.7,4.5-2.4,9.5-1.1,14.2c1.2,4.6,4.5,8.9,8.9,10.8c4.4,1.9,9.4,1.3,14,0.1
	c3.8-1,7.5-2.7,10.7-5c3.1-2.5,5.5-5.9,6.2-9.8c0.7-3.9-0.5-8.2-3.5-10.9c-1.5-1.4-3.6-2.3-4.5-4.1c-1.2-2.6,0.3-5.5,0.7-8.2
	c0.2-1.6,0.1-3.1-0.3-4.6c-0.5-1.5-1.2-2.9-2.3-4.1c-2-2.3-4.8-3.3-7.7-3.7C143.2,147.2,140.1,145.9,137.6,147.1L137.6,147.1z"/>
<path class="st27" d="M173.7,255.8c0.1,0.8,0.2,1.5,0.3,2.3c1,7.7,2.1,15,3.3,21.6c1.1,6.6,2.2,12.7,3.1,17.6c0.3,1.6,0.6,3,0.8,4.4
	c0.3,1.2,0.5,2.4,0.7,3.5c1,1,2.2,1.7,3.6,1.9c0.1-1.5,0.3-3.2,0.5-5.1c0.1-1.6,0.3-3.3,0.4-5.2c0.4-5.1,0.8-11.2,1.2-18
	c0.4-6.8,0.8-14.2,1-22c0.1-4.6,0.1-9.1,0.1-13.3c-5-0.6-10-0.7-14.9-0.2c-0.4,0.1-0.9,0.1-1.3,0.1
	C172.8,247.6,173.3,251.6,173.7,255.8L173.7,255.8z M151.6,257.5c0.1,7.8,0.3,15.3,0.7,22.1c0.3,6.8,0.7,12.9,1,18
	c0.1,1.5,0.2,3,0.3,4.4c0.1,1.5,0.2,2.8,0.3,4c0.9,1,2,1.8,3.3,2.1c0.3-1.5,0.7-3.1,1-5c0.3-1.6,0.7-3.3,1-5.3
	c1-5,2.1-11.1,3.4-17.8c1.2-6.7,2.5-14.1,3.6-21.9c0.1-1,0.3-2,0.4-3c0.6-4.2,1.1-8.4,1.5-12.3h-2.1c-4.8,0-9.6,0.5-14.2,1.5
	C151.5,248.5,151.5,252.9,151.6,257.5L151.6,257.5z M141.6,181.4c1.6,1.1,3.5,1.8,5.5,1.9c2,0.1,3.9-0.4,5.6-1.4
	c-0.5-1.3-0.8-2.7-1-4.1c-0.1-0.4-0.1-0.8-0.1-1.2c0-0.2,0-0.5-0.1-0.7v-0.6c-3.4-0.5-6.7-1.7-9.7-3.5c0.1,1.3,0.2,2.7,0.2,4
	c0,0.7,0,1.4-0.1,2.1C142,179,141.9,180.2,141.6,181.4L141.6,181.4z"/>
<path class="st26" d="M142.1,175.8c0,0.7,0,1.4-0.1,2.1c1.5,0.6,3,1,4.6,1c1.7,0,3.5-0.4,5-1c-0.1-0.4-0.1-0.8-0.1-1.2
	c0-0.2,0-0.5-0.1-0.7v-0.6c-3.4-0.5-6.7-1.7-9.7-3.5C142.1,173.1,142.1,174.4,142.1,175.8L142.1,175.8z"/>
<path class="st27" d="M139.6,167.2c0.2,1,0.5,2,0.6,2.7c0.1,0.2,0.1,0.5,0.1,0.7c0.1,0.3,0.3,0.6,0.4,0.9c0.8,2,2.3,3.7,4.1,4.8
	c0.6,0.4,1.2,0.7,1.9,0.9c1.5,0.5,3.2,0.6,4.8,0.1h0.1c1.2-0.4,2.3-1.1,3.1-2c1.7-2.1,1.7-5,0.9-7.6c-0.1-0.2-0.1-0.5-0.2-0.7
	c-0.6-1.7-1.5-4-2.2-6.1c-1.8-0.6-3.3-1.9-4.2-3.5c-1.9,3.9-5,7.1-8.7,9.3C140.1,166.9,139.9,167.1,139.6,167.2z"/>
<path class="st27" d="M140,168c0-0.2-0.1-0.5-0.3-0.7c-0.2-0.2-0.4-0.3-0.7-0.3c-0.3,0-0.5,0.1-0.7,0.2c-0.2,0.1-0.4,0.3-0.5,0.5
	c-0.2,0.4-0.3,1-0.2,1.5c0.1,0.5,0.4,0.9,0.8,1.2c0.4,0.4,0.8,0.8,1.4,1c0.3,0.1,0.6,0.2,0.8,0.1c0.3,0,0.6-0.1,0.8-0.2
	C141.2,170.1,140.8,169,140,168L140,168z"/>
<path class="st28" d="M152.3,255.5l38.2-1.6c1.6-24.7-30.6-18-30.8-48.3l3.5-1.5c-1.9-18.1-9.4-21.6-9.7-21.6
	c-0.3-0.3-0.6-0.5-0.6-0.6l-11.1-0.5c0,0-0.3,0.1-0.9,0.2c-2.3,0.6-8.2,2.6-11.8,10.1c-1.8,4-2.8,8.3-2.9,12.7
	c1.2,1.2,2.7,2,4.3,2.4C129.6,223.2,136.7,253.7,152.3,255.5L152.3,255.5z"/>
<path class="st27" d="M125.1,214.3v0.9c0,1.2,0.1,2.5,0.1,3.7c0.1,0.8,0.1,1.5,0.2,2.1c0.1,0.5,0.1,1,0.1,1.5c0,0.3,0.1,0.6,0.1,0.9
	c0,0.3,0.1,0.6,0.1,0.9c0.1,0.6,0.2,1.2,0.3,1.8c0.1,0.6,0.2,1.2,0.3,1.7l0.4,1.7c0.3,1.1,0.5,2.2,0.8,3.3c0.6,2.1,1.2,4,1.9,5.8
	c0.3,0.9,0.7,1.7,1,2.6c0.3,0.8,0.7,1.5,1,2.1c-0.3,1.8-0.1,3.6,0.6,5.2c0.9,1.9,2.3,3.5,4.1,4.5c0.3,0.1,0.5,0.2,0.8,0.2
	c0.3,0,0.6-0.1,0.8-0.2c0.3-0.1,0.5-0.4,0.6-0.6c0.1-0.3,0.2-0.5,0.2-0.8v-7.1c0.5,0.2,1.3,0.6,2.1,1c0.1,0.1,0.3,0.1,0.4,0
	c0.1,0,0.2-0.1,0.3-0.2c0.1-0.1,0.1-0.2,0.1-0.4c0-0.1-0.1-0.3-0.2-0.3c-1.6-1.4-3.5-2.6-5.5-3.4c-0.1-0.4-0.1-0.9-0.2-1.3
	c-0.1-0.8-0.1-1.7-0.3-2.6c-0.2-1.7-0.3-3.7-0.3-5.6c-0.1-1,0-2-0.1-3v-1.5c0-0.6,0.1-1,0.1-1.6c0-0.5,0-1.1,0.1-1.6v-0.8
	c0-0.3,0.1-0.6,0.1-0.8l0.2-3.3c0.1-1.1,0.2-2.2,0.3-3.3c0-0.3,0.1-0.6,0.1-0.8c0-0.3,0.1-0.6,0.1-0.8c0.1-0.6,0.1-1,0.2-1.6
	c0.1-0.6,0.1-1,0.2-1.5c0.1-0.5,0.2-1,0.3-1.5c0-0.1,0-0.2,0.1-0.3c0.1-0.8,0.2-1.7,0.4-2.5c0.3-1.9,0.6-3.7,0.9-5.3
	c0.1-0.8,0.3-1.7,0.4-2.4c0.1-0.8,0.3-1.5,0.3-2.3c0.1-1.5,0.4-2.8,0.5-4c0.1-0.6,0.1-1.2,0.1-1.7v-1.5c-0.1-1.9-0.7-3.2-1.7-3.7
	c-1-0.5-2.3,0-3.8,1.3c-0.3,0.3-0.8,0.7-1.2,1.2c-0.4,0.5-0.8,1-1.1,1.5c-0.9,1.2-1.6,2.6-2.3,3.9c-0.3,0.8-0.7,1.6-1,2.4
	c-0.4,0.9-0.7,1.8-0.9,2.7c-0.6,2-1.1,4-1.5,6.1c-0.2,1.1-0.3,2.2-0.5,3.3c-0.1,0.6-0.1,1.2-0.2,1.7c-0.1,0.6-0.1,1.2-0.1,1.8
	c0,0.6-0.1,1.2-0.1,1.8C125.2,213.8,125.2,214,125.1,214.3L125.1,214.3z"/>
<path class="st28" d="M141.6,181.4c0,0-14.6,1.6-15.6,22.9c0,0,3.8,4.4,13.6,2.4L141.6,181.4z"/>
<path class="st27" d="M140.8,181.6c0.4,1.5,1.2,2.9,2.5,3.9c1,0.7,2.1,1.2,3.3,1.4c1.2,0.2,2.4,0.1,3.6-0.3c1.3-0.4,2.4-1.3,3-2.5
	c0.2-0.5,0.4-1.1,0.3-1.7c-0.3-0.3-0.6-0.5-0.6-0.6L152,181l-10-0.5l-0.3,0.9C141.6,181.4,141.4,181.5,140.8,181.6z"/>
<path class="st7" d="M202.2,314.1c0,0,0,0.1,0,0.1c0,0,0,0.1-0.1,0.1c0,0-0.1,0.1-0.1,0.1c0,0-0.1,0-0.1,0c-1.7,0.5-3.5,0.8-5.3,0.9
	c-4.1-0.1-16.3-0.2-16.3-0.2c0,0-0.1,0-0.1,0c0,0-0.1,0-0.1-0.1c0,0-0.1-0.1-0.1-0.1c0,0,0-0.1,0-0.1v-1.2c0,0,0-0.1,0-0.1
	c0,0,0-0.1,0.1-0.1c0,0,0.1-0.1,0.1-0.1c0,0,0.1,0,0.1,0c0,0,12.2,0.1,16.3,0.2c1.7-0.1,3.4-0.4,5-0.9c0,0,0.1,0,0.1,0
	c0,0,0.1,0,0.1,0.1c0,0,0.1,0.1,0.1,0.1c0,0,0,0.1,0,0.1L202.2,314.1z"/>
<path class="st2" d="M180.2,313.2c0,0-0.7-3.3,0.5-5.2c1.2-1.9-0.4-7.2-0.2-8.6c0.2-1.5,0.7-1.3,3.2-2.5c2.5-1.2,4.8-1.5,4.6,0.6
	c-0.2,2.1-0.1,11.8,8.6,13.7c2.1-0.4,5.2,0.6,4.6,1.4c-1.6,0.6-3.3,0.9-5,0.9C190,313.3,180.2,313.2,180.2,313.2L180.2,313.2z"/>
<path class="st29" d="M188.3,297.4c0.3-2.1-2.1-1.7-4.6-0.6c-2.5,1.2-3,1-3.2,2.5c-0.2,1.5,1.4,6.7,0.2,8.6
	c-1.2,1.9-0.5,5.2-0.5,5.2s9.8,0.1,16.3,0.2c0.8,0,1.5-0.1,2.3-0.2c-0.1-0.5-0.3-0.9-0.7-1.3s-0.7-0.6-1.2-0.8
	C188.1,309.3,188.1,299.6,188.3,297.4L188.3,297.4z"/>
<path class="st2" d="M195.2,311.9c0-0.1,0-0.2,0-0.3c0-0.1-0.1-0.2-0.2-0.2c-0.1-0.1-0.2-0.1-0.3-0.1c-0.1,0-0.2,0-0.3,0.1
	c-0.1,0-0.1,0.1-0.2,0.2c0,0.1-0.1,0.2,0,0.3c0,0.1,0.1,0.2,0.1,0.2c0.1,0.1,0.1,0.1,0.2,0.1c0.1,0,0.2,0,0.3-0.1
	C195.1,312.1,195.1,312,195.2,311.9z"/>
<path class="st2" d="M195.4,310.4c0.1-0.1-0.1-0.3-0.2-0.3c-0.1-0.1-0.3,0.1-0.3,0.2l-0.3,1.1c-0.1,0.1,0.1,0.3,0.2,0.3
	c0.1,0.1,0.3-0.1,0.3-0.2L195.4,310.4z M193.2,311.1c0-0.1,0.1-0.2,0.1-0.3c0-0.1,0-0.2-0.1-0.2c-0.1-0.1-0.1-0.1-0.2-0.2
	c-0.1,0-0.2,0-0.3,0c-0.1,0-0.2,0.1-0.2,0.1c-0.1,0.1-0.1,0.1-0.1,0.2c0,0.1,0,0.2,0,0.3c0,0.1,0.1,0.2,0.2,0.2
	c0.1,0,0.1,0.1,0.2,0.1c0.1,0,0.1,0,0.2,0s0.1,0,0.2-0.1C193.1,311.2,193.1,311.1,193.2,311.1z"/>
<path class="st2" d="M193.7,309.7c0-0.1,0-0.1,0-0.2c0-0.1,0-0.1-0.1-0.2c-0.1,0-0.1,0-0.2,0c-0.1,0-0.1,0-0.2,0.1l-0.6,1
	c0,0.1,0,0.1,0,0.2c0,0.1,0,0.1,0.1,0.2c0.1,0,0.1,0,0.2,0c0.1,0,0.1,0,0.2-0.1L193.7,309.7z M191.2,309.8c0.1-0.1,0.1-0.2,0.1-0.3
	c0-0.1,0-0.2,0-0.3c0-0.1-0.1-0.2-0.2-0.2c-0.1-0.1-0.2-0.1-0.3-0.1s-0.2,0-0.3,0.1c-0.1,0.1-0.1,0.1-0.2,0.2c0,0.1,0,0.2,0,0.3
	s0.1,0.2,0.1,0.3C190.8,310,191.1,310,191.2,309.8z"/>
<path class="st2" d="M192.2,308.7C192.2,308.7,192.3,308.7,192.2,308.7c0.1-0.1,0.1-0.1,0.1-0.2s0-0.1,0-0.1c0,0,0-0.1-0.1-0.1
	c0,0,0-0.1-0.1-0.1c0,0-0.1,0-0.1,0c0,0-0.1,0-0.1,0c0,0-0.1,0-0.1,0.1l-0.8,0.8c0,0-0.1,0-0.1,0.1c0,0,0,0.1,0,0.1c0,0,0,0.1,0,0.1
	c0,0,0,0.1,0.1,0.1c0,0,0,0.1,0.1,0.1c0,0,0.1,0,0.1,0c0,0,0.1,0,0.1,0c0,0,0.1,0,0.1-0.1L192.2,308.7z M189.7,308
	c0.1,0,0.1-0.1,0.2-0.2c0-0.1,0-0.2,0-0.3c0-0.1-0.1-0.2-0.1-0.2c-0.1-0.1-0.1-0.1-0.2-0.1c-0.1,0-0.2,0-0.3,0
	c-0.1,0-0.2,0.1-0.2,0.2c-0.1,0.1-0.1,0.2-0.1,0.2c0,0.1,0,0.2,0.1,0.3c0,0.1,0.1,0.1,0.1,0.1c0,0,0.1,0.1,0.2,0.1s0.1,0,0.2,0
	C189.6,308.1,189.7,308,189.7,308L189.7,308z"/>
<path class="st2" d="M190.8,307.1c0.1-0.1,0.1-0.2,0.1-0.3c-0.1-0.1-0.2-0.1-0.3-0.1l-1,0.6c-0.1,0.1-0.1,0.2-0.1,0.3
	c0.1,0.1,0.2,0.1,0.3,0.1L190.8,307.1z M188.5,305.8c0.1,0,0.2-0.1,0.2-0.2c0.1-0.1,0.1-0.2,0.1-0.3c0-0.1,0-0.2-0.1-0.3
	c-0.1-0.1-0.1-0.1-0.2-0.2s-0.2-0.1-0.3,0c-0.1,0-0.2,0.1-0.3,0.1c-0.1,0.1-0.1,0.2-0.1,0.2c0,0.1,0,0.2,0,0.3
	C188,305.8,188.3,305.9,188.5,305.8z"/>
<path class="st2" d="M189.8,305C189.8,305,189.8,305,189.8,305c0.1-0.1,0.1-0.1,0.1-0.1c0,0,0-0.1,0-0.1s0-0.1,0-0.1
	c0,0,0-0.1-0.1-0.1c0,0-0.1,0-0.1-0.1c0,0-0.1,0-0.1,0s-0.1,0-0.1,0l-1.1,0.4c0,0-0.1,0-0.1,0.1c0,0,0,0.1-0.1,0.1c0,0,0,0.1,0,0.1
	c0,0,0,0.1,0,0.1c0,0,0,0.1,0.1,0.1c0,0,0.1,0,0.1,0.1c0,0,0.1,0,0.1,0c0,0,0.1,0,0.1,0L189.8,305z M187.6,303.6
	c0.1,0,0.2-0.1,0.2-0.1c0.1-0.1,0.1-0.1,0.1-0.2c0-0.1,0-0.2,0-0.3c0-0.1-0.1-0.2-0.2-0.2c-0.1,0-0.2-0.1-0.3-0.1
	c-0.1,0-0.2,0-0.3,0.1c-0.1,0.1-0.1,0.1-0.2,0.2s0,0.2,0,0.3c0,0.1,0,0.1,0.1,0.2c0,0.1,0.1,0.1,0.1,0.1c0.1,0,0.1,0.1,0.2,0.1
	C187.5,303.6,187.6,303.6,187.6,303.6z"/>
<path class="st2" d="M189,303c0.1,0,0.2-0.2,0.2-0.3c0-0.1-0.2-0.2-0.3-0.2l-1.2,0.3c-0.1,0-0.2,0.2-0.2,0.3c0,0.1,0.2,0.2,0.3,0.2
	L189,303z M187.2,301.2c0.1,0,0.1,0,0.2,0c0.1,0,0.1-0.1,0.1-0.1c0,0,0.1-0.1,0.1-0.2c0-0.1,0-0.1,0-0.2c0-0.1,0-0.1,0-0.2
	c0-0.1-0.1-0.1-0.1-0.1c0,0-0.1-0.1-0.2-0.1c-0.1,0-0.1,0-0.2,0c-0.3,0-0.4,0.3-0.4,0.6C186.7,301.1,186.9,301.2,187.2,301.2z"/>
<path class="st2" d="M188.6,300.8c0.1,0,0.3-0.1,0.2-0.3c0-0.1-0.1-0.3-0.3-0.2l-1.2,0.1c-0.1,0-0.3,0.1-0.2,0.3
	c0,0.1,0.1,0.3,0.3,0.2L188.6,300.8z"/>
<path class="st7" d="M171.7,317.5c0,0,0,0.1,0,0.1c0,0-0.1,0.1-0.1,0.1c0,0-0.1,0-0.1,0c0,0-0.1,0-0.1,0c-1.8,0.3-3.6,0.4-5.4,0.1
	c-4-0.6-16.2-2.4-16.2-2.4c0,0-0.1,0-0.1,0c0,0-0.1-0.1-0.1-0.1c0,0,0-0.1,0-0.1c0,0,0-0.1,0-0.1l0.2-1.2c0,0,0-0.1,0-0.1
	c0,0,0.1-0.1,0.1-0.1c0,0,0.1,0,0.1,0c0,0,0.1,0,0.1,0c0,0,12.1,1.8,16.1,2.4c1.7,0.2,3.4,0.1,5.1-0.2c0,0,0.1,0,0.1,0
	c0,0,0.1,0.1,0.1,0.1c0,0,0,0.1,0,0.1c0,0,0,0.1,0,0.1L171.7,317.5z"/>
<path class="st2" d="M150.1,313.5c0,0-0.2-3.3,1.2-5c1.4-1.7,0.6-7.2,1-8.6c0.4-1.4,0.9-1.2,3.5-2c2.6-0.8,5-0.9,4.5,1.2
	c-0.6,2.1-1.8,11.7,6.7,14.7c2.1-0.1,5.1,1.2,4.4,1.9c-0.3-0.1-2.2,0.6-5.1,0.2C159.8,315.1,150.1,313.5,150.1,313.5L150.1,313.5z"
	/>
<path class="st30" d="M160.3,299.1c0.6-2.1-1.9-2-4.5-1.2c-2.6,0.8-3.1,0.6-3.5,2c-0.4,1.4,0.4,6.8-1,8.6c-1.4,1.7-1.2,5-1.2,5
	l16.1,2.4c0.8,0.1,1.5,0.2,2.3,0.1c0-0.5-0.2-0.9-0.5-1.3c-0.3-0.4-0.6-0.7-1-1C158.5,310.9,159.7,301.2,160.3,299.1L160.3,299.1z"
	/>
<path class="st2" d="M165.1,314.3c0-0.1,0-0.2,0-0.3c0-0.1-0.1-0.2-0.1-0.2c-0.1-0.1-0.2-0.1-0.3-0.1c-0.1,0-0.2,0-0.3,0
	s-0.2,0.1-0.2,0.2c-0.1,0.1-0.1,0.2-0.1,0.3c0,0.1,0,0.2,0.1,0.3s0.1,0.1,0.2,0.2c0.1,0,0.2,0,0.4,0
	C164.9,314.5,165,314.4,165.1,314.3z"/>
<path class="st2" d="M165.5,312.9C165.5,312.9,165.5,312.9,165.5,312.9c0-0.1,0-0.2,0-0.2c0,0,0-0.1-0.1-0.1c0,0-0.1,0-0.1-0.1
	c0,0-0.1,0-0.1,0s-0.1,0-0.1,0c0,0-0.1,0-0.1,0.1c0,0,0,0.1-0.1,0.1l-0.5,1.1c0,0,0,0.1,0,0.1c0,0,0,0.1,0,0.1c0,0,0,0.1,0.1,0.1
	c0,0,0.1,0,0.1,0.1c0,0,0.1,0,0.1,0c0,0,0.1,0,0.1,0c0,0,0.1,0,0.1-0.1c0,0,0-0.1,0.1-0.1L165.5,312.9z M163.2,313.2
	c0.1-0.1,0.1-0.2,0.1-0.3c0-0.1,0-0.2-0.1-0.3c0-0.1-0.1-0.2-0.2-0.2c-0.1,0-0.2-0.1-0.3-0.1c-0.1,0-0.2,0-0.3,0.1
	c-0.1,0.1-0.1,0.1-0.2,0.2c0,0.1,0,0.2,0,0.3c0,0.1,0.1,0.2,0.2,0.2c0,0,0.1,0.1,0.2,0.1c0.1,0,0.1,0,0.2,0c0.1,0,0.1,0,0.2-0.1
	C163.1,313.3,163.2,313.3,163.2,313.2z"/>
<path class="st2" d="M164,312c0.1-0.1,0.1-0.3-0.1-0.3c-0.1-0.1-0.3-0.1-0.3,0.1l-0.8,0.9c-0.1,0.1-0.1,0.3,0.1,0.3
	c0.1,0.1,0.3,0.1,0.3-0.1L164,312z M161.5,311.8c0.1,0,0.1-0.1,0.2-0.2c0-0.1,0-0.2,0-0.3c0-0.1-0.1-0.2-0.1-0.2
	c-0.1-0.1-0.1-0.1-0.2-0.1c-0.1,0-0.2,0-0.3,0c-0.1,0-0.2,0.1-0.2,0.2c-0.1,0.1-0.1,0.2-0.1,0.2c0,0.1,0,0.2,0.1,0.3
	c0,0.1,0.1,0.1,0.1,0.1c0,0,0.1,0.1,0.2,0.1c0.1,0,0.1,0,0.2,0C161.4,311.8,161.4,311.8,161.5,311.8z"/>
<path class="st2" d="M162.5,310.7C162.6,310.7,162.6,310.7,162.5,310.7c0.1-0.1,0.1-0.1,0.1-0.2c0,0,0-0.1,0-0.1c0,0,0-0.1,0-0.1
	c0,0,0-0.1-0.1-0.1c0,0-0.1,0-0.1,0c0,0-0.1,0-0.1,0c0,0-0.1,0-0.1,0l-1,0.7c0,0-0.1,0-0.1,0.1c0,0,0,0.1,0,0.1c0,0,0,0.1,0,0.1
	c0,0,0,0.1,0,0.1c0,0,0,0.1,0.1,0.1c0,0,0.1,0,0.1,0c0,0,0.1,0,0.1,0c0,0,0.1,0,0.1,0L162.5,310.7z M160.2,309.7
	c0.1,0,0.2-0.1,0.2-0.2c0.1-0.1,0.1-0.2,0.1-0.3c0-0.1,0-0.2-0.1-0.3c-0.1-0.1-0.1-0.1-0.2-0.2c-0.1,0-0.2-0.1-0.3,0
	c-0.1,0-0.2,0.1-0.3,0.1c-0.1,0.1-0.1,0.2-0.1,0.2c0,0.1,0,0.2,0,0.3C159.7,309.7,160,309.9,160.2,309.7z"/>
<path class="st2" d="M161.4,309C161.5,309,161.5,309,161.4,309c0.1-0.1,0.1-0.1,0.1-0.1c0,0,0-0.1,0-0.1c0,0,0-0.1,0-0.1
	c0,0,0-0.1-0.1-0.1c0,0-0.1,0-0.1-0.1c0,0-0.1,0-0.1,0c0,0-0.1,0-0.1,0l-1.1,0.5c0,0-0.1,0-0.1,0.1c0,0,0,0.1-0.1,0.1
	c0,0,0,0.1,0,0.1c0,0,0,0.1,0,0.1c0,0,0,0.1,0.1,0.1c0,0,0.1,0,0.1,0.1s0.1,0,0.1,0c0,0,0.1,0,0.1,0L161.4,309z M159.4,307.4
	c0.1,0,0.2-0.1,0.2-0.1c0.1-0.1,0.1-0.2,0.1-0.2c0-0.1,0-0.2,0-0.3c0-0.1-0.1-0.2-0.2-0.2c-0.1,0-0.2-0.1-0.3-0.1
	c-0.1,0-0.2,0-0.3,0.1c-0.1,0.1-0.1,0.1-0.2,0.2c0,0.1,0,0.2,0,0.3C158.8,307.3,159.1,307.5,159.4,307.4z"/>
<path class="st2" d="M160.7,306.8c0.1,0,0.1-0.1,0.2-0.1c0-0.1,0.1-0.1,0.1-0.2c0-0.1-0.1-0.1-0.1-0.2c-0.1,0-0.1-0.1-0.2-0.1
	l-1.1,0.3c-0.1,0-0.1,0.1-0.2,0.1c0,0.1-0.1,0.1-0.1,0.2c0,0.1,0.1,0.1,0.1,0.2c0.1,0,0.1,0.1,0.2,0.1L160.7,306.8z M158.7,305.1
	c0.1,0,0.2,0,0.2-0.1c0.1-0.1,0.1-0.1,0.1-0.2c0-0.1,0-0.2,0-0.3c0-0.1-0.1-0.2-0.1-0.2c-0.1-0.1-0.2-0.1-0.2-0.1
	c-0.1,0-0.2,0-0.3,0c-0.1,0-0.1,0.1-0.2,0.2c0,0.1-0.1,0.2-0.1,0.3C158.2,304.9,158.5,305.1,158.7,305.1z"/>
<path class="st2" d="M160.2,304.8c0.1,0,0.3-0.1,0.2-0.3c0-0.1-0.1-0.3-0.3-0.2l-1.2,0.1c-0.1,0-0.3,0.1-0.2,0.3
	c0,0.1,0.1,0.3,0.3,0.2L160.2,304.8z M158.6,302.6c0.1,0,0.2,0,0.3-0.1c0.1-0.1,0.1-0.1,0.2-0.2c0-0.1,0-0.2,0-0.3
	c0-0.1-0.1-0.2-0.1-0.2c-0.1-0.1-0.2-0.1-0.2-0.1c-0.1,0-0.2,0-0.3,0c-0.1,0-0.2,0.1-0.2,0.2c-0.1,0.1-0.1,0.2-0.1,0.3
	c0,0.1,0.1,0.2,0.2,0.3C158.4,302.5,158.5,302.6,158.6,302.6z"/>
<path class="st2" d="M160,302.5c0.1,0,0.1,0,0.2-0.1c0.1-0.1,0.1-0.1,0.1-0.2c0-0.1,0-0.1-0.1-0.2s-0.1-0.1-0.2-0.1h-1.2
	c-0.1,0-0.1,0-0.2,0.1s-0.1,0.1-0.1,0.2c0,0.1,0,0.1,0.1,0.2c0.1,0,0.1,0.1,0.2,0.1H160z"/>
<path class="st26" d="M257,166.2c0.3,1.4,0.6,2.9,1,4.3c0.5,1.7,1.2,3.3,1.9,4.9c0.8,1.9,1.8,3.7,2.8,5.4c1.1,1.9,2.2,3.8,3.6,5.7
	c0.6,0.9,1.2,1.7,1.9,2.6c0.8,1.1,1.6,2.2,2.5,3.2l1.1,1.5l1.5,0.4l2.4,0.6c9.9,2.6,19.1,4.5,25.7,5.6c6.7,1.1,10.9,1.5,11.2,0.6
	c0.3-0.9-3.5-2.9-9.7-5.7c-6.2-2.8-14.8-6.2-24.6-9.6l-0.5-0.2c-0.9-1.6-1.8-3.2-2.6-4.7l-3-5.5c-0.6-1.1-1.3-2.3-1.9-3.3
	c-0.3-0.5-0.6-1.1-0.9-1.6c-0.9-1.5-1.8-3-2.6-4.2c-0.8-1.3-1.7-2.4-2.4-3.4c-0.7-0.9-1.4-1.7-2.2-2.4c-0.6-0.6-1.3-1-2-1.3
	c-0.5-0.2-1.1-0.3-1.7-0.1c-0.5,0.2-0.9,0.7-1.1,1.2c-0.3,0.8-0.5,1.6-0.5,2.4C256.8,164,256.9,165.1,257,166.2L257,166.2z"/>
<path class="st27" d="M302.1,195.7c2.2-0.2,4.9-1.6,7-2.7c0.1,0,0.2,0,0.2,0c0.1,0,0.1,0.1,0.2,0.2c0,0,0,0.1,0,0.1c0,0,0,0.1,0,0.1
	c-0.2,0.6-0.6,1-1.1,1.4c-0.4,0.2-1,0.4-1.2,0.8c-0.1,0.2-0.1,0.5,0,0.7c0.1,0.2,0.2,0.4,0.4,0.6c0.4,0.3,0.8,0.5,1.3,0.5l3.1,0.8
	c0.9,0.2,1.9,0.6,2.1,1.6c0.1,0.5-0.1,1-0.3,1.5c-0.5,0.8-1.2,1.6-2,2.1c-0.8,0.5-1.8,0.8-2.7,0.8c-1.9,0-3.7-0.6-5.1-1.8
	c-1.4-1.2-2.5-2.7-3.3-4.4C301,197.2,301.7,196.5,302.1,195.7L302.1,195.7z"/>
<path class="st26" d="M246.1,340.5c-0.3-7.1-0.7-15.6-1-25c-0.3-9.4-0.6-19.7-0.6-30.5c-0.1-10.8,0.1-21.1,0.6-30.4
	c0.2-4.7,0.6-9.1,1-13.3c0.4-4.1,0.9-7.9,1.3-11.2c0.4-3.3,0.7-6.2,1-8.8c0.3-2.6,0.4-4.8,0.6-6.6c0.1-1.6,0.4-3.1,0.8-4.6
	c0.1-0.5,0.3-1,0.6-1.4s0.7-0.7,1.1-1c0.8-0.3,1.8-0.1,3,0.6c1.5,1.1,2.8,2.5,3.8,4.1c1.5,2.4,2.6,4.9,3.3,7.6
	c0.5,1.6,0.8,3.2,1.1,4.9c0.3,1.7,0.5,3.5,0.7,5.4c0.3,3.8,0.4,7.8,0.3,11.9c-0.1,4.1-0.2,8.6-0.5,13.3c-0.6,9.3-1.5,19.6-2.8,30.3
	c-1.3,10.7-2.7,21-4.1,30.3c-1.4,9.3-2.7,17.7-3.8,24.7c-1.1,7-2.1,12.7-2.8,16.6c-0.8,3.9-1.3,6.1-1.8,6.1c-0.4,0-0.8-2.2-1.1-6.2
	C246.7,353.4,246.4,347.6,246.1,340.5z"/>
<path class="st31" d="M247.9,366.1c0.5,1,1.1,1.9,2,2.7c0.8,0.7,1.8,1.3,2.9,1.6c2.2,0.7,4.7,0.6,7,0.5c1,0,2-0.2,2.9-0.5
	c0.9-0.4,1.6-1.3,1.4-2.1c-0.2-1.1-1.7-1.7-3-2.1c-3.5-1.1-6.8-2.5-9.9-4.4c-1.5-0.9-2.5-2.2-3.4-0.2
	C247.2,363,247.2,364.7,247.9,366.1L247.9,366.1z"/>
<path class="st27" d="M235.7,340.5c-0.3-7.1-0.7-15.6-1-25c-0.3-9.4-0.6-19.7-0.6-30.5c-0.1-10.8,0.1-21.1,0.6-30.4
	c0.2-4.7,0.6-9.1,1-13.3c0.4-4.1,0.9-7.9,1.3-11.2c0.4-3.3,0.7-6.2,1-8.8c0.3-2.6,0.4-4.8,0.6-6.6c0.1-1.6,0.4-3.1,0.8-4.6
	c0.1-0.5,0.3-1,0.6-1.4c0.3-0.4,0.7-0.7,1.1-1c0.8-0.3,1.8-0.1,3,0.6c1.5,1.1,2.8,2.5,3.8,4.1c1.5,2.4,2.6,4.9,3.3,7.6
	c0.5,1.6,0.8,3.2,1.1,4.9c0.3,1.7,0.5,3.5,0.7,5.4c0.3,3.8,0.4,7.8,0.3,11.9c-0.1,4.1-0.2,8.6-0.5,13.3c-0.6,9.3-1.5,19.6-2.8,30.3
	c-1.3,10.7-2.7,21-4.1,30.3c-1.4,9.3-2.7,17.7-3.8,24.7c-1.1,7-2.1,12.7-2.8,16.6c-0.8,3.9-1.3,6.1-1.8,6.1c-0.4,0-0.8-2.2-1.1-6.2
	C236.3,353.4,236,347.6,235.7,340.5L235.7,340.5z"/>
<path class="st7" d="M236.9,366.1c0.5,1,1.1,1.9,2,2.7c0.8,0.7,1.8,1.3,2.9,1.6c2.2,0.7,4.7,0.6,7,0.5c1,0,2-0.2,2.9-0.5
	c0.9-0.4,1.6-1.3,1.4-2.1c-0.2-1.1-1.7-1.7-3-2.1c-3.5-1.1-6.8-2.5-9.9-4.4c-1.5-0.9-2.5-2.2-3.4-0.2
	C236.3,363,236.3,364.7,236.9,366.1L236.9,366.1z M259.2,200.8c8.7,26.3,7.3,82.7,7.3,82.7c-15.6,4.7-26.4,3.8-32.5,2.3
	c-2.1-0.5-4.2-1.2-6.1-2.3c-2.2-48.2,12.1-83,12.1-83C240.1,200.2,254.4,199.2,259.2,200.8z M235.3,125.2c-0.7,2.5-0.2,5.2-1.1,7.6
	c-1.4,3.4-5.3,4.9-7.6,7.7c-2.9,3.4-3.1,8.6-1,12.5c2.1,3.9,6.1,6.6,10.5,7.6c4.3,1,8.9,0.6,13.2-0.6c2-0.5,3.9-1.3,5.6-2.5
	c0.8-0.6,1.6-1.4,2.1-2.2s0.9-1.9,1.1-2.9c0.4-3.6-2.3-7-1.7-10.5c0.4-2.8,2.7-4.8,4-7.3c0.9-1.8,1.4-3.9,1.2-6
	c-0.1-2.1-0.8-4.1-2-5.8C254.2,115.5,238.1,115.4,235.3,125.2L235.3,125.2z"/>
<path class="st32" d="M232,169.6c0.9,2.8,2.2,5.5,3.7,8c0.2,0,0.5,0,0.7-0.1c0,0,0,0.1,0,0.1c2.9,6.3,3.6,16.2,3.6,22.9
	c3.1,1.4,6.7,1.6,11,1.5c2.9,0,5.5-0.7,8.1-1.2l0.1-0.2c0-0.1,0.1-0.2,0.1-0.3c1-2.6,5.3-13.9,5.1-25.1c2-1.1,3.8-2.7,5.3-4.5
	c-1.1-2.3-2.5-4.5-4.1-6.5c-3.1-3.9-6.9-7.1-11.1-9.6l-0.1-0.1l-0.4-0.2c-0.8-0.3-1.6-0.5-2.4-0.7c-3-0.6-5.5-1.8-8.5-2.1
	c-0.9-0.1-1.8-0.1-2.7-0.1c-1.9,0.5-3.6,1.3-5.2,2.5C232.1,156.5,229.3,161.1,232,169.6L232,169.6z"/>
<path class="st27" d="M240.4,151.5c1.2,3.7,3.6,6.9,6.7,9.2c1,0.7,2,1.2,3.2,1.5c0.6,0.1,1.2,0.1,1.8,0c0.6-0.1,1.1-0.4,1.6-0.7
	c1.3-1,1.7-3,1.3-4.6c-0.2-0.9-0.6-1.8-1.1-2.6c-0.8-0.3-1.6-0.5-2.4-0.7c-3-0.6-5.4-1.8-8.5-2.1
	C242.2,151.5,241.3,151.4,240.4,151.5L240.4,151.5z"/>
<path class="st27" d="M253.2,159.7l-11.3-7.6c0.1-0.4,0.2-0.8,0.2-1.1c0.1-0.4,0.2-0.9,0.2-1.3c0.3-2,0.5-4,0.5-6v-2.1
	c0-1.9-0.2-3.9-0.4-5.8c3,1.7,6,3.5,8.2,6.2c-0.1,1.2-0.1,2.3,0,3.5v0.6c0,0.7,0.1,1.4,0.1,2.1v0.2c0,0.5,0.1,1,0.2,1.5l0.1,0.7
	l0.1,0.4v0.1C251.5,153.9,252.2,156.9,253.2,159.7z"/>
<path class="st26" d="M251,150.5c-1.3-0.4-2.5-0.9-3.6-1.7c-2-1.4-3.6-3.3-4.5-5.5v-1.7c0-1.9-0.2-3.9-0.4-5.8c3,1.7,6,3.5,8.2,6.2
	c-0.1,1.2-0.1,2.3,0,3.5v0.6c0,0.7,0.1,1.4,0.1,2.1v0.2c0,0.5,0.1,1,0.2,1.5C250.9,150,251,150.2,251,150.5L251,150.5z"/>
<path class="st27" d="M242.5,138.5c0.1,0.8,0.3,1.5,0.3,2.3v0.9l0.2,0.4c1.2,2.1,2.9,4,5.1,5c2.2,0.9,5.1,0.6,6.7-1.2
	c1.5-1.7,1.6-4.1,1.2-6.3c-0.5-2.2-1.5-4.2-2.1-6.4c-0.3-1.1-0.4-2.2-0.4-3.4c0-0.9,0.3-1.8,0.7-2.6c-0.9,0.7-1.8,1.2-2.8,1.6
	c-1.7,0.7-3.6,1.1-5.2,2c-1.7,0.8-3.2,2.2-3.8,4C242.2,135.9,242.2,137.2,242.5,138.5L242.5,138.5z"/>
<path class="st27" d="M242.6,137.2c0-0.2-0.1-0.5-0.2-0.7c-0.1-0.2-0.3-0.4-0.5-0.5c-0.2,0-0.5,0-0.7,0.1c-0.2,0.1-0.4,0.2-0.5,0.4
	c-0.4,0.5-0.6,1-0.7,1.6c0,0.6,0.1,1.2,0.4,1.7c0.3,0.5,0.8,0.9,1.3,1.2c0.6,0.2,1.2,0.3,1.8,0.2C243.3,140,242.9,138.6,242.6,137.2
	z"/>
<path class="st2" d="M243,141.2c0,0.2-0.1,0.4-0.3,0.6c-0.1,0.2-0.3,0.3-0.6,0.3c-0.2,0.1-0.4,0-0.6,0c-0.2-0.1-0.4-0.2-0.5-0.4
	c-0.1-0.2-0.2-0.4-0.2-0.6c0-0.2,0-0.4,0.2-0.6c0.1-0.2,0.3-0.3,0.5-0.4c0.2-0.1,0.4-0.1,0.6-0.1c0.3,0,0.5,0.2,0.7,0.4
	C243,140.6,243,140.9,243,141.2L243,141.2z"/>
<path class="st33" d="M274.9,174.1c-9-9.5-12.8-20.5-8.5-24.6c4.3-4.1,15.1,0.3,24.1,9.8c9,9.5,12.8,20.5,8.5,24.6
	C294.7,188,283.9,183.6,274.9,174.1z"/>
<path class="st33" d="M298.1,183.8c-4.3-4.1-0.4-15.1,8.7-24.5c9.1-9.4,19.9-13.7,24.2-9.6c4.3,4.1,0.4,15.1-8.7,24.5
	C313.3,183.7,302.4,188,298.1,183.8z"/>
<path class="st34" d="M298.7,184c-7.4,0-13.3-13.3-13.2-29.5c0.1-16.3,6.2-29.4,13.5-29.4c7.4,0,13.3,13.3,13.2,29.5
	C312.1,170.9,306.1,184.1,298.7,184z"/>
<path class="st28" d="M298,207.4c2.2,0,4.3-0.4,6.4-1.2c2-0.8,3.9-2,5.4-3.6c1.6-1.5,2.8-3.4,3.6-5.4c0.8-2,1.3-4.2,1.3-6.3v-2.8
	c0-0.7-0.1-1.4-0.4-2s-0.7-1.2-1.1-1.7c-0.5-0.5-1.1-0.9-1.7-1.2s-1.3-0.4-2-0.4l-22.6-0.1c-1.4,0-2.8,0.5-3.8,1.5
	c-1,1-1.6,2.3-1.6,3.7v2.8c0,2.2,0.4,4.3,1.2,6.4c0.8,2,2,3.9,3.6,5.4c1.5,1.6,3.4,2.8,5.4,3.6C293.7,207,295.8,207.4,298,207.4
	L298,207.4z"/>
<path class="st27" d="M236.1,177.4c0.4,0.9,0.8,1.8,1.3,2.7c1.1,2,2.2,4.1,3.6,6.2c1.3,2.1,2.8,4.2,4.4,6.3l1.1,1.6l1.4,0.5l2.6,0.9
	c10.3,3.4,19.8,6.1,26.7,7.8c7,1.7,11.4,2.4,11.7,1.5c0.3-0.9-3.5-3.2-9.9-6.5c-6.4-3.3-15.3-7.5-25.3-11.7l-0.6-0.2
	c-0.8-1.8-1.6-3.6-2.3-5.4c-0.9-2.1-1.8-4.2-2.6-6.1c-0.3-0.7-0.6-1.4-0.9-2.1l-0.6-1.4c-3.4,4.3-8.3,5.5-10.2,5.8L236.1,177.4z"/>
<path class="st27" d="M281.2,200.1c2.2-0.1,5-1.4,7.2-2.4c0,0,0.1,0,0.1,0c0,0,0.1,0,0.1,0c0,0,0.1,0,0.1,0.1c0,0,0,0.1,0.1,0.1
	c0,0,0,0.1,0,0.1c0,0,0,0.1,0,0.1c-0.3,0.6-0.7,1.1-1.2,1.4c-0.4,0.2-1,0.3-1.2,0.8c-0.1,0.2-0.1,0.4,0,0.7c0.1,0.2,0.2,0.4,0.4,0.6
	c0.4,0.3,0.8,0.5,1.2,0.6l3,1c0.9,0.3,1.9,0.7,2,1.7c0,0.5-0.1,1-0.4,1.4c-0.5,0.8-1.2,1.5-2.1,1.9c-0.8,0.5-1.8,0.7-2.8,0.7
	c-1.9,0-3.7-0.8-5-2c-1.4-1.3-2.4-2.8-3-4.6C280,201.6,280.8,200.9,281.2,200.1L281.2,200.1z"/>
<path class="st35" d="M527,157c-0.6-0.1-1.3,1-2.2,3.1c-0.4,1-0.9,2.3-1.6,3.7c-0.6,1.4-1.2,3-2,4.7c-0.8,1.7-1.7,3.4-2.7,5
	c-0.6,0.8-1.2,1.6-1.8,2.3c-0.6,0.8-1.3,1.5-2.1,2.2c-0.7,0.7-1.5,1.3-2.3,1.8c-0.8,0.5-1.7,1-2.6,1.4c-0.9,0.4-1.8,0.6-2.7,0.8
	c-0.2,0.1-0.4,0.1-0.7,0.1l-0.7,0.1c-0.4,0-0.9,0-1.3,0c-2,0-4-0.3-5.9-0.9c-1-0.3-1.9-0.6-2.9-1c-0.5-0.2-0.9-0.4-1.4-0.6
	c-0.4-0.2-0.9-0.4-1.3-0.6c-0.9-0.4-1.7-0.9-2.6-1.4c-0.8-0.5-1.6-1-2.4-1.6c-1.6-1-3.1-2.1-4.5-3.1c-1.3-1-2.7-1.9-4.1-2.7
	c-1.1-0.8-2.3-1.4-3.5-2c-0.9-0.4-1.9-0.7-2.9-0.8c-0.8-0.1-1.5,0.1-2.2,0.5c-0.6,0.4-1.1,1.1-1.2,1.9c-0.2,1-0.2,2.1,0,3.2
	c0.2,1.5,0.7,2.9,1.3,4.3c0.8,1.8,1.7,3.5,2.8,5.1c1.4,2,3,3.9,4.8,5.5c1,1,2.1,1.9,3.2,2.7c1.2,0.9,2.5,1.7,3.8,2.5
	c0.7,0.4,1.4,0.7,2.1,1.1c0.8,0.4,1.5,0.7,2.3,0.9c1.6,0.6,3.2,1.1,4.9,1.5c3.7,0.8,7.5,1,11.2,0.4c1-0.2,2-0.4,2.9-0.7l1.3-0.5
	c0.5-0.1,0.9-0.3,1.4-0.5c1.8-0.7,3.4-1.6,5-2.7c1.5-1,2.8-2.2,4.1-3.5c1.1-1.2,2.1-2.5,3-3.9c0.8-1.3,1.5-2.7,2.1-4.1
	c0.5-1.3,1-2.6,1.4-3.9c0.6-2.3,1-4.6,1.3-6.9c0.2-1.9,0.2-3.7,0.1-5.6c0-1.4-0.1-2.7-0.3-4.1C528,158.4,527.6,157.1,527,157
	L527,157z"/>
<path class="st2" d="M495.7,187c0.7,11.5,0.7,23,0,34.4c-11,3.6-22.6,4.6-34.1,2.8c-0.8-11.7-1.5-23.3-1.6-35
	c0-6.2,0.2-12.4,1.9-18.3c1.4-5.3,4.5-10,8.8-13.4c0.5-0.4,1-0.7,1.6-1c2.6,2.1,8,2.9,11,1.5c1.6,1.1,3,2.3,4.3,3.8
	c2.3,2.7,4,5.8,5.1,9.1C494.4,176.1,495.4,181.5,495.7,187L495.7,187z"/>
<path class="st27" d="M487.7,161.8c-2.9,0.8-5.9,0.8-8.8,0.1c-1.6-0.4-3-1-4.4-1.7c-1.1-0.6-2.2-1.3-3.1-2.2l-0.1-0.7V157l0.2-1
	c0.6-3.3,1-6.5,1.5-9.8c0.4-3,0.8-6.1,1.2-9.1c3.4,1.7,6.7,3.7,9.7,6c0,2.1,0.2,4.1,0.3,6.1c0.1,1.7,0.4,3.4,0.6,5.1
	c0.1,1,0.3,1.9,0.5,2.8c0.2,0.9,0.3,1.8,0.5,2.7C486.4,160.5,487.1,161.1,487.7,161.8L487.7,161.8z"/>
<path class="st26" d="M484.8,154.3c-3.6-3.2-7.6-6-11.9-8.1c0.4-3,0.8-6.1,1.2-9.1c3.4,1.7,6.7,3.7,9.7,6c0,2.1,0.2,4.1,0.3,6.1
	C484.3,150.9,484.5,152.6,484.8,154.3z"/>
<path class="st7" d="M421.3,323.6c0,0,0,8.1,7.3,7.8l1.4,28.9l-20-34.4L421.3,323.6z"/>
<path class="st2" d="M424.6,344c0-0.2,0.1-0.3,0.2-0.4c0.1-0.1,0.3-0.2,0.5-0.1c1.6,0.2,3.2,0.6,4.7,1.3c0.2,0.1,0.3,0.2,0.3,0.4
	c0.1,0.2,0.1,0.3,0,0.5c0,0.1-0.1,0.1-0.2,0.2c-0.1,0.1-0.1,0.1-0.2,0.1c-0.2,0-0.3,0-0.5,0c-1.3-0.6-2.8-1-4.2-1.1
	c-0.1,0-0.2-0.1-0.3-0.1c-0.1-0.1-0.2-0.1-0.3-0.3C424.6,344.3,424.6,344.2,424.6,344L424.6,344z M424.4,340.4c0-0.1,0-0.2,0.1-0.2
	c0-0.1,0.1-0.1,0.2-0.2c0.1-0.1,0.1-0.1,0.2-0.1c0.1,0,0.2,0,0.2,0c1.6,0.2,3.2,0.6,4.7,1.3c0.1,0,0.1,0.1,0.2,0.2
	c0.1,0.1,0.1,0.1,0.1,0.2c0.1,0.2,0.1,0.3,0,0.5c0,0.1-0.1,0.1-0.2,0.2c-0.1,0.1-0.1,0.1-0.2,0.1c-0.1,0-0.2,0-0.2,0
	c-0.1,0-0.2,0-0.2-0.1c-1.3-0.6-2.7-1-4.2-1.1c-0.1,0-0.2-0.1-0.3-0.1c-0.1-0.1-0.2-0.1-0.3-0.2
	C424.4,340.7,424.4,340.6,424.4,340.4L424.4,340.4z M424.1,336.8c0-0.1,0-0.2,0.1-0.2c0-0.1,0.1-0.1,0.2-0.2
	c0.1-0.1,0.3-0.1,0.4-0.1c1.6,0.2,3.2,0.6,4.7,1.3c0.2,0.1,0.3,0.2,0.3,0.4c0.1,0.2,0.1,0.3,0,0.5c-0.1,0.1-0.2,0.3-0.4,0.3
	c-0.2,0-0.3,0-0.5,0c-1.3-0.6-2.7-1-4.2-1.1c-0.1,0-0.2-0.1-0.3-0.1c-0.1-0.1-0.2-0.1-0.2-0.3C424.1,337.1,424.1,336.9,424.1,336.8
	L424.1,336.8z M426.4,361.2c0.1,0.1,0.2,0.2,0.3,0.3c0.1,0.1,0.2,0.1,0.4,0.2c0.1,0,0.3,0,0.4,0c0.1,0,0.3-0.1,0.4-0.1l2.1-1.2
	l-20-34.4l-2.1,1.2c-0.1,0.1-0.2,0.2-0.3,0.3c-0.1,0.1-0.1,0.2-0.2,0.4c0,0.1,0,0.3,0,0.4c0,0.1,0.1,0.3,0.1,0.4L426.4,361.2z"/>
<path class="st7" d="M501,353c0,0,7.2,3.7,10.3-2.8l26.2,12.3l-39.7,1.7L501,353z"/>
<path class="st2" d="M521.4,359.6c-0.1,0.1-0.2,0.1-0.3,0.1c-0.1,0-0.2,0-0.3-0.1c-0.1,0-0.1-0.1-0.2-0.2c0-0.1-0.1-0.1-0.1-0.2
	c0-0.1,0-0.2,0-0.2c0-0.1,0.1-0.2,0.1-0.2c0.9-1.3,2-2.5,3.3-3.5c0.1-0.1,0.3-0.1,0.5-0.1c0.2,0,0.3,0.1,0.4,0.3
	c0,0.1,0.1,0.1,0.1,0.2c0,0.1,0,0.2,0,0.2c0,0.1,0,0.2-0.1,0.2c0,0.1-0.1,0.1-0.2,0.2c-1.1,0.9-2.1,2-3,3.2
	C521.6,359.5,521.5,359.6,521.4,359.6L521.4,359.6z M518.1,358.2c-0.1,0.1-0.2,0.1-0.3,0.1c-0.1,0-0.2,0-0.3-0.1
	c-0.1,0-0.1-0.1-0.2-0.2c0-0.1-0.1-0.1-0.1-0.2c0-0.1,0-0.2,0-0.2c0-0.1,0.1-0.2,0.1-0.2c0.9-1.3,2-2.5,3.3-3.5
	c0.1-0.1,0.2-0.1,0.2-0.1c0.1,0,0.2,0,0.3,0c0.1,0,0.2,0,0.2,0.1c0.1,0,0.1,0.1,0.2,0.2c0.1,0.1,0.1,0.3,0.1,0.5
	c0,0.2-0.1,0.3-0.3,0.4c-1.2,0.9-2.2,2-3,3.2C518.3,358,518.2,358.1,518.1,358.2L518.1,358.2z M514.7,356.7c-0.1,0.1-0.3,0.1-0.4,0
	c-0.1,0-0.2-0.1-0.3-0.2c-0.1-0.1-0.1-0.2-0.2-0.4c0-0.1,0-0.3,0.1-0.4c0.9-1.3,2-2.5,3.3-3.5c0.1-0.1,0.3-0.1,0.5-0.1
	c0.2,0,0.3,0.1,0.4,0.3c0,0.1,0.1,0.1,0.1,0.2c0,0.1,0,0.2,0,0.2c0,0.2-0.1,0.3-0.3,0.4c-1.1,0.9-2.1,2-3,3.2
	C515,356.5,514.9,356.6,514.7,356.7L514.7,356.7z M536.9,365.9c0.3-0.2,0.6-0.4,0.7-0.7c0.1-0.2,0.1-0.3,0.1-0.5l-0.1-2.2l-39.7,1.7
	l0.1,2.2c0,0.2,0.1,0.3,0.1,0.5c0.1,0.2,0.2,0.3,0.3,0.4c0.3,0.2,0.6,0.4,0.9,0.4l37.1-1.6C536.6,366,536.7,365.9,536.9,365.9
	L536.9,365.9z"/>
<path class="st36" d="M460.7,230.9c0,0,9.1,53.9-45.5,92.3l14.7,16c0,0,61.1-42,54.9-96L460.7,230.9z"/>
<path class="st37" d="M458.7,262.2c0.8,1.1,1.7,2.2,2.5,3.4c2.1,3,3.8,6.3,5.3,9.6c2.7,5.6,4.8,11.4,6.5,17.3
	c8.3-14.3,13.9-31.2,11.8-49.4l-24-12.2C460.8,230.9,463.1,244.1,458.7,262.2L458.7,262.2z"/>
<path class="st32" d="M495.9,177.3c2.3,19.1,2.6,38.3,0.8,57.4c0,0,30.1,58.9,23.5,118.1l-23,5.7c0,0-5.2-77.7-36.4-117l-1.3-38.9
	l24.7-4.1l2.1-20.8L495.9,177.3z"/>
<path class="st36" d="M461.1,206.9c-0.2,0-0.4-0.2-0.7-0.8c-0.2-0.3-0.3-0.6-0.4-1c-0.1-0.4-0.3-0.9-0.4-1.4
	c-0.1-0.3-0.2-0.5-0.2-0.8s-0.1-0.6-0.2-0.9c-0.1-0.3-0.1-0.7-0.2-1c-0.1-0.4-0.1-0.7-0.2-1.1c-0.1-0.4-0.1-0.8-0.2-1.2l-0.2-1.3
	c-0.1-0.9-0.2-1.8-0.3-2.7c-0.1-2.1-0.1-4.2,0-6.4c0.1-2.4,0.3-4.9,0.7-7.3c0.4-2.7,1-5.3,1.7-7.9c0.7-2.9,1.9-5.7,3.5-8.3
	c0.9-1.4,2-2.6,3.2-3.7c1.2-1.1,2.6-1.9,4.2-2.5c0.8-0.3,1.6-0.5,2.4-0.6h2.4c1.5,0.1,3,0.5,4.3,1.2c1.2,0.6,2.4,1.4,3.4,2.3
	c0.2,0.2,0.5,0.4,0.7,0.7l0.7,0.7l0.6,0.7c0.2,0.2,0.4,0.5,0.6,0.8c0.7,1,1.3,2,1.8,3c0.4,1,0.8,2,1.1,3c0.5,1.7,0.8,3.4,0.9,5.2
	c0.1,1.3,0.2,2.6,0.2,3.9c0,2.1-0.2,3.3-0.4,3.3c-0.2,0-0.5-1.2-0.9-3.2c-0.2-1-0.4-2.3-0.7-3.7c-0.3-1.6-0.8-3.2-1.3-4.8
	c-0.7-1.8-1.7-3.5-2.9-4.9c-0.2-0.2-0.3-0.4-0.5-0.6l-0.5-0.6l-0.6-0.5c-0.2-0.2-0.4-0.3-0.6-0.5c-0.8-0.6-1.7-1.2-2.7-1.6
	c-1-0.4-2-0.6-3.1-0.7h-1.7c-0.5,0.1-1.1,0.2-1.6,0.4c-2.2,1-4,2.6-5.2,4.7c-1.3,2.3-2.3,4.7-2.9,7.2c-0.7,2.5-1.3,5-1.7,7.4
	c-0.4,2.4-0.7,4.7-0.9,6.8c-0.2,2.2-0.3,4.2-0.4,6v10.2c0,0.4,0,0.7-0.1,1.1C461.4,206.5,461.3,206.8,461.1,206.9L461.1,206.9z"/>
<path class="st21" d="M506.7,160.8h45.8v45.8h-45.8V160.8z"/>
<path class="st22" d="M575.4,153.2l-22.9,7.6v45.8l22.9-7.6V153.2z"/>
<path class="st23" d="M506.7,160.8l22.9-7.6h45.8l-22.9,7.6H506.7z"/>
<path class="st16" d="M535,163.7h15.5v6.7H535V163.7z"/>
<path class="st17" d="M533.6,198l-0.1,8.8h-7.9V198H533.6z M533.6,160.8l-0.1,8.9h-7.9v-8.9H533.6z M544.6,153.2h7.3l-18.4,7.6h-7.9
	L544.6,153.2L544.6,153.2z"/>
<path class="st27" d="M465.9,178.1v0.4c0,4.9,1.1,9.8,3.3,14.2c0.8,1.7,1.8,3.3,2.9,4.8c1.2,1.6,2.5,3.1,4.1,4.4
	c3.2,2.8,7,4.8,11.1,5.7c1.9,0.5,3.8,0.7,5.7,0.8c1.8,0.1,3.6-0.1,5.3-0.3c1.6-0.2,3.2-0.6,4.8-1.1c2.8-0.9,5.4-2.1,7.9-3.6
	c2.1-1.2,4-2.6,5.8-4.1c1.5-1.2,2.8-2.5,4.2-3.8l0.4-0.5c0.8,0.1,1.7,0,2.5-0.1c0.8-0.1,1.6-0.3,2.4-0.5c0.8-0.3,1.5-0.6,2.3-1
	c0.7-0.4,1.4-0.9,2-1.4c1.3-1.1,2.3-2.4,3-3.9c0.4-0.7,0.7-1.5,0.9-2.3c0.2-0.8,0.4-1.6,0.4-2.4c0-0.6,0-1.1,0-1.7
	c0-0.3-0.1-0.7-0.2-1c-0.1-0.3-0.4-0.6-0.6-0.8c-1.5-1.3-3.2,0-4.2,1.4c-1,1.4-1.6,2.6-3,3c-0.4,0.1-0.9,0.1-1.3,0.1
	c-0.4-0.1-0.8-0.3-1.2-0.5c-0.1-0.1-0.2-0.2-0.3-0.3c-0.1-0.2-0.3-0.3-0.5-0.4c-0.2-0.1-0.4-0.2-0.6-0.2c-0.2,0-0.4,0-0.6,0.1
	c-0.2,0.1-0.4,0.2-0.6,0.3c-0.1,0.1-0.2,0.3-0.3,0.4c-0.3,0.6-0.6,1.2-0.8,1.8c-0.4,1.3-0.7,2.7-0.8,4.1c-2,0.7-4.4,1.6-7.1,2.6
	c-1.9,0.6-3.8,1.2-5.8,1.6c-2,0.5-4.1,0.7-6.2,0.8c-1.1,0-2.1,0-3.2-0.1c-1-0.1-2.1-0.3-3.1-0.6c-0.9-0.3-1.8-0.6-2.7-1
	c-0.8-0.4-1.6-0.8-2.3-1.4c-0.7-0.5-1.3-1.1-1.9-1.8c-0.6-0.7-1.2-1.4-1.6-2.1c-1-1.6-1.8-3.2-2.4-5c-0.6-1.7-1-3.5-1.4-5.2
	c-0.3-1.3-0.5-2.7-0.7-4.1c-2.3,1.6-4.8,2.8-7.5,3.6C471.5,177.8,468.8,178.2,465.9,178.1L465.9,178.1z"/>
<path class="st32" d="M485.8,113.7c-0.4-1.2-1-2.4-1.8-3.3c-0.8-1-1.9-1.7-3.1-2.2c-2.4-1-5-1.2-7.5-0.5c-1.3,0.3-2.5,0.8-3.6,1.4
	c-1.1,0.7-2.2,1.5-3,2.5c-0.9,1-1.6,2.1-2.1,3.3c-0.5,1.2-0.8,2.5-0.8,3.8c-0.1,4.2,2.2,7.9,4.4,11.4
	C472.7,123.3,478.7,117.7,485.8,113.7z"/>
<path class="st37" d="M488.4,108.9c1.1-0.8,2.5-1.2,3.9-1.1c0.5,0.1,0.9,0.3,1.3,0.6c0.4,0.3,0.7,0.6,1,1c0.3,0.4,0.5,0.8,0.6,1.3
	c0.1,0.5,0.2,0.9,0.1,1.4c-0.1,0.9-0.4,1.9-0.9,2.7c-0.5,0.8-1.1,1.6-1.8,2.2c-0.5,0.5-1.1,1-1.7,1.5c-0.6,0.4-1.3,0.8-1.9,1.2
	c-1.3,0.7-2.8,1.2-4.3,1.5c-0.7,0.1-1.5,0.2-2.3,0.3c-1.5,0.1-3-0.1-4.5-0.5c-0.7-0.2-1.4-0.4-2.1-0.7c-0.7-0.3-2.6-0.9-3-1.6
	c-0.6-1.2,0.7-1.3,1.7-2C479.1,114.1,483.7,111.5,488.4,108.9L488.4,108.9z"/>
<path class="st7" d="M487.2,123.4c-0.3-0.1-0.6-0.1-0.9,0c-0.3,0.1-0.6,0.2-0.8,0.4c-0.2,0.3-0.3,0.6-0.4,0.9c-0.1,0.3,0,0.7,0.1,1
	c0.4,2.5,1.3,4.8,2.7,6.9c0.5-0.6,0.9-1.3,1.2-2c0.6-1.4,0.9-2.9,0.7-4.5c-0.1-0.8-0.3-1.5-0.5-2.2
	C488.6,124.2,487.9,123.5,487.2,123.4L487.2,123.4z M475.8,134.3c0.3-2.7,0.2-5.4-0.3-8.1c-0.6-2.9-1.8-5.7-3.4-8.2
	c-1.3,1.2-2.3,2.5-3.2,4c-0.7,1.7-1.1,3.5-1.2,5.3c-0.1,0.9-0.1,1.8,0,2.7c0.1,0.9,0.2,1.8,0.4,2.7c0.2,0.9,0.5,1.8,0.8,2.6
	c0.3,0.9,0.7,1.7,1.2,2.5c0.5,0.8,1,1.5,1.6,2.2c0.6,0.7,1.2,1.4,1.9,2C474.7,139.6,475.5,137,475.8,134.3L475.8,134.3z"/>
<path class="st27" d="M487.2,122.8c-0.6,3.3,0.9,6.5,2.2,9.6c1.3,3.1,2.5,6.6,1.2,9.7c-0.4,0.8-0.9,1.5-1.4,2.1
	c-0.6,0.6-1.3,1.1-2,1.6c-0.8,0.4-1.6,0.7-2.4,0.8c-0.9,0.2-1.7,0.2-2.6,0c-1.7-0.3-3.3-1-4.7-2.1c-1.4-1-2.5-2.4-3.3-4
	c-0.8-1.6-1.3-3.2-1.6-4.9c-0.3-1.7-0.3-3.5-0.1-5.2c0.4-3.4,1.1-6.8,2.2-10.2C478.7,118.3,483.6,119.8,487.2,122.8L487.2,122.8z"/>
<path class="st27" d="M473.2,131.6c-0.4-0.5-0.8-0.8-1.4-1.2c-0.3-0.2-0.6-0.3-0.9-0.3c-0.3,0-0.6,0-0.9,0.1c-0.4,0.1-0.7,0.4-1,0.7
	c-0.3,0.3-0.5,0.7-0.6,1.1c-0.1,0.4-0.2,0.7-0.2,1.1c0,0.4,0,0.8,0.2,1.1c0.1,0.4,0.3,0.7,0.5,1c0.2,0.3,0.5,0.6,0.8,0.8
	c0.3,0.2,0.6,0.4,1,0.6c0.4,0.1,0.7,0.2,1.1,0.3c0.4,0,0.8,0,1.1-0.1c0.4-0.1,0.7-0.2,1.1-0.4C473.6,134.9,473.3,133.3,473.2,131.6
	L473.2,131.6z"/>
<path class="st38" d="M489.6,125.4c-4.9,0.2-9.8-1.1-14-3.6c0.4,1.4,0.4,3,0,4.4c-0.3,1-0.7,2-1.4,2.9c-0.6,0.9-1.4,1.7-2.2,2.3
	c-2-2.8-2.9-6.2-2.5-9.6c0-0.4,0.1-0.8,0.3-1.2c0.7-0.9,1.4-1.8,2.3-2.6c1.3-1.2,2.9-2.2,4.5-2.8c1.1-0.4,2.3-0.7,3.4-0.8
	c2.4-0.3,4.7-0.1,7,0.7c1.1,0.4,2.2,0.9,3.2,1.5c0.3,0.3,0.7,0.6,1,0.9c0.8,0.8,1.4,1.8,1.8,2.8c0.1,0.2,0.1,0.5,0.2,0.7
	c0,0.3,0.1,0.5,0,0.8c0,0.2,0,0.5-0.1,0.7c-0.1,0.2-0.1,0.5-0.2,0.7c-0.1,0.2-0.2,0.4-0.4,0.6c-0.1,0.2-0.3,0.4-0.5,0.6
	c-0.2,0.2-0.4,0.3-0.6,0.5c-0.2,0.1-0.4,0.2-0.7,0.3C490.4,125.3,490,125.4,489.6,125.4L489.6,125.4z"/>
</svg>
