<svg version="1.1" xmlns="http://www.w3.org/2000/svg" xmlns:xlink="http://www.w3.org/1999/xlink" width="630" height="390" viewBox="0 0 630 390">
<style type="text/css">
	.st0{fill:#EAF1FC;}
	.st1{fill:#F8F8FF;}
	.st2{fill:#CDE4F7;}
	.st3{fill:#E9EDF4;}
	.st4{fill:#FFFFFF;}
	.st5{fill:#ECF7FE;}
	.st6{fill:#0F222C;}
	.st7{fill:#0B2B46;}
	.st8{fill:#1D4259;}
	.st9{fill:#8C8FAD;}
	.st10{fill:#448DCE;}
	.st11{fill:#F2F2F2;}
	.st12{fill:#F19100;}
	.st13{fill:#FFDA35;}
	.st14{fill:#FF524F;}
	.st15{fill:#2C6292;}
	.st16{fill:#3270A7;}
	.st17{fill:#1A568C;}
	.st18{fill:#114574;}
	.st19{fill:#164F83;}
	.st20{fill:#C07632;}
	.st21{fill:#0C3860;}
	.st22{fill:#11426D;}
	.st23{fill:#25649D;}
	.st24{fill:#3873A9;}
	.st25{fill:#164C7C;}
	.st26{fill:#3679B6;}
	.st27{fill:#2A6EAC;}
	.st28{fill:#23619A;}
	.st29{fill:#1B313C;}
	.st30{fill:#F9F8F9;}
	.st31{fill:#191F43;}
	.st32{fill:#2275BF;}
	.st33{fill:#203348;}
	.st34{opacity:0.62;fill:none;stroke:#FFFFFF;stroke-linecap:round;stroke-miterlimit:10;}
	.st35{fill:#337BBC;}
	.st36{fill:#20527F;}
	.st37{fill:#3075B2;}
	.st38{fill:#5996CC;}
	.st39{fill:#498CC7;}
	.st40{fill:#222846;}
	.st41{fill:#2F7CC0;}
	.st42{fill:#E08F73;}
	.st43{fill:#F09976;}
	.st44{fill:#E8815F;}
	.st45{fill:#047487;}
	.st46{fill:#05616B;}
	.st47{fill:#02819F;}
	.st48{fill:#F8C47A;}
	.st49{fill:#E19A54;}
	.st50{fill:#FFDF9A;}
	.st51{fill:#E4E6E6;}
	.st52{fill:#CE8D4D;}
</style>
<path class="st0" d="M311.1,363.4c171.8,0,311.1-20,311.1-44.6c0-24.6-139.3-44.6-311.1-44.6C139.3,274.2,0,294.2,0,318.8
	C0,343.4,139.3,363.4,311.1,363.4z"/>
<path class="st1" d="M575.4,301.2c35.9-74.7,55.7-217.5-22.1-265c-50.9-31-104,8.9-158.5,10.7c-42.8,1.5-84-32.2-122.5-41.9
	C171.3-20.3,12.3,45.5,82.2,301.2C257,300.7,400.6,301.7,575.4,301.2z"/>
<path class="st2" d="M376.7,114.3h118.1v200.4H376.7V114.3z"/>
<path class="st3" d="M376.7,114.3h36.8v200.4h-36.8V114.3z"/>
<path class="st4" d="M480.5,120h5.5v6h-5.5V120z M470.5,120h5.5v6h-5.5V120z M460.5,120h5.5v6h-5.5V120z M450.5,120h5.5v6h-5.5V120z
	 M440.5,120h5.5v6h-5.5V120z M430.5,120h5.5v6h-5.5V120z M420.4,120h5.5v6h-5.5V120z M402,120h5.5v6H402V120z M392,120h5.5v6H392
	V120z M382,120h5.5v6H382V120z M480.5,132.6h5.5v6h-5.5V132.6z M470.5,132.6h5.5v6h-5.5V132.6z M460.5,132.6h5.5v6h-5.5V132.6z
	 M450.5,132.6h5.5v6h-5.5V132.6z M440.5,132.6h5.5v6h-5.5V132.6z M430.5,132.6h5.5v6h-5.5V132.6z M420.4,132.6h5.5v6h-5.5V132.6z
	 M402,132.6h5.5v6H402V132.6z M392,132.6h5.5v6H392V132.6z M382,132.6h5.5v6H382V132.6z M480.5,145.1h5.5v6h-5.5V145.1z
	 M470.5,145.1h5.5v6h-5.5V145.1z M460.5,145.1h5.5v6h-5.5V145.1z M450.5,145.1h5.5v6h-5.5V145.1z M440.5,145.1h5.5v6h-5.5V145.1z
	 M430.5,145.1h5.5v6h-5.5V145.1z M420.4,145.1h5.5v6h-5.5V145.1z M402,145.1h5.5v6H402V145.1z M392,145.1h5.5v6H392V145.1z
	 M382,145.1h5.5v6H382V145.1z M480.5,157.7h5.5v6h-5.5V157.7z M470.5,157.7h5.5v6h-5.5V157.7z M460.5,157.7h5.5v6h-5.5V157.7z
	 M450.5,157.7h5.5v6h-5.5V157.7z M440.5,157.7h5.5v6h-5.5V157.7z M430.5,157.7h5.5v6h-5.5V157.7z M420.4,157.7h5.5v6h-5.5V157.7z
	 M402,157.7h5.5v6H402V157.7z M392,157.7h5.5v6H392V157.7z M382,157.7h5.5v6H382V157.7z M480.5,170.3h5.5v6h-5.5V170.3z
	 M470.5,170.3h5.5v6h-5.5V170.3z M460.5,170.3h5.5v6h-5.5V170.3z M450.5,170.3h5.5v6h-5.5V170.3z M440.5,170.3h5.5v6h-5.5V170.3z
	 M430.5,170.3h5.5v6h-5.5V170.3z M420.4,170.3h5.5v6h-5.5V170.3z M402,170.3h5.5v6H402V170.3z M392,170.3h5.5v6H392V170.3z
	 M382,170.3h5.5v6H382V170.3z M480.5,182.9h5.5v6h-5.5V182.9z M470.5,182.9h5.5v6h-5.5V182.9z M460.5,182.9h5.5v6h-5.5V182.9z
	 M450.5,182.9h5.5v6h-5.5V182.9z M440.5,182.9h5.5v6h-5.5V182.9z M430.5,182.9h5.5v6h-5.5V182.9z M420.4,182.9h5.5v6h-5.5V182.9z
	 M402,182.9h5.5v6H402V182.9z M392,182.9h5.5v6H392V182.9z M382,182.9h5.5v6H382V182.9z M480.5,195.4h5.5v6h-5.5V195.4z
	 M470.5,195.4h5.5v6h-5.5V195.4z M460.5,195.4h5.5v6h-5.5V195.4z M450.5,195.4h5.5v6h-5.5V195.4z M440.5,195.4h5.5v6h-5.5V195.4z
	 M430.5,195.4h5.5v6h-5.5V195.4z M420.4,195.4h5.5v6h-5.5V195.4z M402,195.4h5.5v6H402V195.4z M392,195.4h5.5v6H392V195.4z
	 M382,195.4h5.5v6H382V195.4z M480.5,208h5.5v6h-5.5V208z M470.5,208h5.5v6h-5.5V208z M460.5,208h5.5v6h-5.5V208z M450.5,208h5.5v6
	h-5.5V208z M440.5,208h5.5v6h-5.5V208z M430.5,208h5.5v6h-5.5V208z M420.4,208h5.5v6h-5.5V208z M402,208h5.5v6H402V208z M392,208
	h5.5v6H392V208z M382,208h5.5v6H382V208z M480.5,220.6h5.5v6h-5.5V220.6z M470.5,220.6h5.5v6h-5.5V220.6z M460.5,220.6h5.5v6h-5.5
	V220.6z M450.5,220.6h5.5v6h-5.5V220.6z M440.5,220.6h5.5v6h-5.5V220.6z M430.5,220.6h5.5v6h-5.5V220.6z M420.4,220.6h5.5v6h-5.5
	V220.6z M402,220.6h5.5v6H402V220.6z M392,220.6h5.5v6H392V220.6z M382,220.6h5.5v6H382V220.6z M480.5,233.2h5.5v6h-5.5V233.2z
	 M470.5,233.2h5.5v6h-5.5V233.2z M460.5,233.2h5.5v6h-5.5V233.2z M450.5,233.2h5.5v6h-5.5V233.2z M440.5,233.2h5.5v6h-5.5V233.2z
	 M430.5,233.2h5.5v6h-5.5V233.2z M420.4,233.2h5.5v6h-5.5V233.2z M402,233.2h5.5v6H402V233.2z M382,233.2h5.5v6H382V233.2z
	 M480.5,245.7h5.5v6h-5.5V245.7z M470.5,245.7h5.5v6h-5.5V245.7z M460.5,245.7h5.5v6h-5.5V245.7z M450.5,245.7h5.5v6h-5.5V245.7z
	 M440.5,245.7h5.5v6h-5.5V245.7z M430.5,245.7h5.5v6h-5.5V245.7z M420.4,245.7h5.5v6h-5.5V245.7z M402,245.7h5.5v6H402V245.7z
	 M382,245.7h5.5v6H382V245.7z M480.5,258.3h5.5v6h-5.5V258.3z M470.5,258.3h5.5v6h-5.5V258.3z M460.5,258.3h5.5v6h-5.5V258.3z
	 M450.5,258.3h5.5v6h-5.5V258.3z M440.5,258.3h5.5v6h-5.5V258.3z M430.5,258.3h5.5v6h-5.5V258.3z M420.4,258.3h5.5v6h-5.5V258.3z
	 M402,258.3h5.5v6H402V258.3z M382,258.3h5.5v6H382V258.3z M480.5,270.9h5.5v6h-5.5V270.9z M470.5,270.9h5.5v6h-5.5V270.9z
	 M460.5,270.9h5.5v6h-5.5V270.9z M450.5,270.9h5.5v6h-5.5V270.9z M440.5,270.9h5.5v6h-5.5V270.9z M430.5,270.9h5.5v6h-5.5V270.9z
	 M420.4,270.9h5.5v6h-5.5V270.9z M402,270.9h5.5v6H402V270.9z M382,270.9h5.5v6H382V270.9z M480.5,283.5h5.5v6h-5.5V283.5z
	 M470.5,283.5h5.5v6h-5.5V283.5z M460.5,283.5h5.5v6h-5.5V283.5z M450.5,283.5h5.5v6h-5.5V283.5z M440.5,283.5h5.5v6h-5.5V283.5z
	 M430.5,283.5h5.5v6h-5.5V283.5z M420.4,283.5h5.5v6h-5.5V283.5z M402,283.5h5.5v6H402V283.5z M382,283.5h5.5v6H382V283.5z
	 M480.5,296h5.5v6h-5.5V296z M470.5,296h5.5v6h-5.5V296z M460.5,296h5.5v6h-5.5V296z M450.5,296h5.5v6h-5.5V296z M440.5,296h5.5v6
	h-5.5V296z M430.5,296h5.5v6h-5.5V296z M420.4,296h5.5v6h-5.5V296z M402,296h5.5v6H402V296z M392.3,233.2h5.5v6h-5.5V233.2z
	 M392.3,245.7h5.5v6h-5.5V245.7z M392.3,258.3h5.5v6h-5.5V258.3z M392.3,270.9h5.5v6h-5.5V270.9z M392.3,283.5h5.5v6h-5.5V283.5z
	 M392.3,296h5.5v6h-5.5V296z M382,296h5.5v6H382V296z"/>
<path class="st2" d="M283.7,148.8h109.6v165.9H283.7V148.8z"/>
<path class="st3" d="M283.7,148.8h34.2v165.9h-34.2V148.8z"/>
<path class="st4" d="M380.9,153h5.1v27.9h-5.1V153z M371.7,153h5.1v27.9h-5.1V153z M362.4,153h5.1v27.9h-5.1V153z M353.2,153h5.1
	v27.9h-5.1V153z M343.9,153h5.1v27.9h-5.1V153z M334.7,153h5.1v27.9h-5.1V153z M325.4,153h5.1v27.9h-5.1V153z M308.5,153h5.1v27.9
	h-5.1V153z M299.2,153h5.1v27.9h-5.1V153z M290,153h5.1v27.9H290V153z M380.9,184.5h5.1v27.9h-5.1V184.5z M371.7,184.5h5.1v27.9
	h-5.1V184.5z M362.4,184.5h5.1v27.9h-5.1V184.5z M353.2,184.5h5.1v27.9h-5.1V184.5z M343.9,184.5h5.1v27.9h-5.1V184.5z M334.7,184.5
	h5.1v27.9h-5.1V184.5z M325.4,184.5h5.1v27.9h-5.1V184.5z M308.5,184.5h5.1v27.9h-5.1V184.5z M299.2,184.5h5.1v27.9h-5.1V184.5z
	 M290,184.5h5.1v27.9H290V184.5z M380.9,216.1h5.1V244h-5.1V216.1z M371.7,216.1h5.1V244h-5.1V216.1z M362.4,216.1h5.1V244h-5.1
	V216.1z M353.2,216.1h5.1V244h-5.1V216.1z M343.9,216.1h5.1V244h-5.1V216.1z M334.7,216.1h5.1V244h-5.1V216.1z M325.4,216.1h5.1V244
	h-5.1V216.1z M308.5,216.1h5.1V244h-5.1V216.1z M299.2,216.1h5.1V244h-5.1V216.1z M290,216.1h5.1V244H290V216.1z M380.9,247.6h5.1
	v27.9h-5.1V247.6z M371.7,247.6h5.1v27.9h-5.1V247.6z M362.4,247.6h5.1v27.9h-5.1V247.6z M353.2,247.6h5.1v27.9h-5.1V247.6z
	 M343.9,247.6h5.1v27.9h-5.1V247.6z M334.7,247.6h5.1v27.9h-5.1V247.6z M325.4,247.6h5.1v27.9h-5.1V247.6z M308.5,247.6h5.1v27.9
	h-5.1V247.6z M299.2,247.6h5.1v27.9h-5.1V247.6z M290,247.6h5.1v27.9H290V247.6z M380.9,279.1h5.1V307h-5.1V279.1z M371.7,279.1h5.1
	V307h-5.1V279.1z M362.4,279.1h5.1V307h-5.1V279.1z M353.2,279.1h5.1V307h-5.1V279.1z M343.9,279.1h5.1V307h-5.1V279.1z
	 M334.7,279.1h5.1V307h-5.1V279.1z M325.4,279.1h5.1V307h-5.1V279.1z M308.5,279.1h5.1V307h-5.1V279.1z M299.2,279.1h5.1V307h-5.1
	V279.1z M290,279.1h5.1V307H290V279.1z"/>
<path class="st2" d="M27.6,90.5h109.6v224.3H27.6V90.5z"/>
<path class="st3" d="M27.6,90.5h34.2v224.3H27.6V90.5z"/>
<path class="st4" d="M125.1,101.2h5.1v24.8h-5.1V101.2z M115.8,101.2h5.1v24.8h-5.1V101.2z M106.7,101.2h5.1v24.8h-5.1V101.2z
	 M97.4,101.2h5.1v24.8h-5.1V101.2z M88.3,101.2h5.1v24.8h-5.1V101.2z M79,101.2h5.1v24.8H79V101.2z M69.9,101.2h5.1v24.8h-5.1V101.2
	z M53,101.2h5.1v24.8H53V101.2z M43.8,101.2h5.1v24.8h-5.1V101.2z M34.6,101.2h5.1v24.8h-5.1V101.2z M125.1,129.1h5.1v24.8h-5.1
	V129.1z M115.8,129.1h5.1v24.8h-5.1V129.1z M106.7,129.1h5.1v24.8h-5.1V129.1z M97.4,129.1h5.1v24.8h-5.1V129.1z M88.3,129.1h5.1
	v24.8h-5.1V129.1z M79,129.1h5.1v24.8H79V129.1z M69.9,129.1h5.1v24.8h-5.1V129.1z M53,129.1h5.1v24.8H53V129.1z M43.8,129.1h5.1
	v24.8h-5.1V129.1z M34.6,129.1h5.1v24.8h-5.1V129.1z M125.1,157.1h5.1v24.8h-5.1V157.1z M115.8,157.1h5.1v24.8h-5.1V157.1z
	 M106.7,157.1h5.1v24.8h-5.1V157.1z M97.4,157.1h5.1v24.8h-5.1V157.1z M88.3,157.1h5.1v24.8h-5.1V157.1z M79,157.1h5.1v24.8H79
	V157.1z M69.9,157.1h5.1v24.8h-5.1V157.1z M53,157.1h5.1v24.8H53V157.1z M43.8,157.1h5.1v24.8h-5.1V157.1z M34.6,157.1h5.1v24.8
	h-5.1V157.1z M115.8,185.2h5.1V210h-5.1V185.2z M106.7,185.2h5.1V210h-5.1V185.2z M97.4,185.2h5.1V210h-5.1V185.2z M88.3,185.2h5.1
	V210h-5.1V185.2z M79,185.2h5.1V210H79V185.2z M69.9,185.2h5.1V210h-5.1V185.2z M53,185.2h5.1V210H53V185.2z M43.8,185.2h5.1V210
	h-5.1V185.2z M34.6,185.2h5.1V210h-5.1V185.2z M115.8,213.2h5.1V238h-5.1V213.2z M106.7,213.2h5.1V238h-5.1V213.2z M97.4,213.2h5.1
	V238h-5.1V213.2z M88.3,213.2h5.1V238h-5.1V213.2z M79,213.2h5.1V238H79V213.2z M69.9,213.2h5.1V238h-5.1V213.2z M53,213.2h5.1V238
	H53V213.2z M43.8,213.2h5.1V238h-5.1V213.2z M34.6,213.2h5.1V238h-5.1V213.2z M115.8,241.2h5.1V266h-5.1V241.2z M106.7,241.2h5.1
	V266h-5.1V241.2z M97.4,241.2h5.1V266h-5.1V241.2z M88.3,241.2h5.1V266h-5.1V241.2z M79,241.2h5.1V266H79V241.2z M69.9,241.2h5.1
	V266h-5.1V241.2z M53,241.2h5.1V266H53V241.2z M43.8,241.2h5.1V266h-5.1V241.2z M34.6,241.2h5.1V266h-5.1V241.2z M115.8,269.2h5.1
	V294h-5.1V269.2z M106.7,269.2h5.1V294h-5.1V269.2z M97.4,269.2h5.1V294h-5.1V269.2z M88.3,269.2h5.1V294h-5.1V269.2z M79,269.2h5.1
	V294H79V269.2z M69.9,269.2h5.1V294h-5.1V269.2z M53,269.2h5.1V294H53V269.2z M43.8,269.2h5.1V294h-5.1V269.2z M34.6,269.2h5.1V294
	h-5.1V269.2z"/>
<path class="st2" d="M229.4,109.1h76v205.6h-76V109.1z"/>
<path class="st5" d="M229.4,109.1h23.7v205.6h-23.7V109.1z"/>
<path class="st4" d="M229.4,120.3h76v1.7h-76V120.3z M229.4,133.9h76v1.7h-76V133.9z M229.4,147.5h76v1.7h-76V147.5z M229.4,161h76
	v1.7h-76V161z M229.4,174.6h76v1.7h-76V174.6z M229.4,188.2h76v1.7h-76V188.2z M229.4,201.8h76v1.7h-76V201.8z M229.4,215.3h76v1.7
	h-76V215.3z M229.4,228.9h76v1.7h-76V228.9z M229.4,242.5h76v1.7h-76V242.5z M229.4,256h76v1.7h-76V256z M229.4,269.6h76v1.7h-76
	V269.6z M229.4,283.2h76v1.7h-76V283.2z M229.4,296.8h76v1.7h-76V296.8z"/>
<path class="st2" d="M493.8,150h119.4v164.7H493.8V150z"/>
<path class="st3" d="M493.8,150H531v164.7h-37.2V150z"/>
<path class="st4" d="M493.8,159h119.4v1.4H493.8V159z M493.8,169.8h119.4v1.4H493.8V169.8z M493.8,180.7h119.4v1.4H493.8V180.7z
	 M493.8,191.6h119.4v1.4H493.8V191.6z M493.8,202.5h119.4v1.4H493.8V202.5z M493.8,213.3h119.4v1.4H493.8V213.3z M493.8,224.2h119.4
	v1.4H493.8V224.2z M493.8,235.1h119.4v1.4H493.8V235.1z M493.8,246h119.4v1.4H493.8V246z M493.8,256.9h119.4v1.4H493.8V256.9z
	 M493.8,267.7h119.4v1.4H493.8V267.7z M493.8,278.6h119.4v1.4H493.8V278.6z M493.8,289.4h119.4v1.4H493.8V289.4z M493.8,300.3h119.4
	v1.4H493.8V300.3z"/>
<path class="st2" d="M105.4,29.6h139.3v285.1H105.4V29.6z"/>
<path class="st5" d="M105.4,29.6h43.4v285.1h-43.4V29.6z"/>
<path class="st4" d="M229.4,43.2h6.4v8.2h-6.4V43.2z M217.7,43.2h6.4v8.2h-6.4V43.2z M206,43.2h6.4v8.2H206V43.2z M194.3,43.2h6.4
	v8.2h-6.4V43.2z M182.6,43.2h6.4v8.2h-6.4V43.2z M170.9,43.2h6.4v8.2h-6.4V43.2z M159.2,43.2h6.4v8.2h-6.4V43.2z M137.7,43.2h6.4
	v8.2h-6.4V43.2z M126.1,43.2h6.4v8.2h-6.4V43.2z M114.3,43.2h6.4v8.2h-6.4V43.2z M229.4,60.4h6.4v8.2h-6.4V60.4z M217.7,60.4h6.4
	v8.2h-6.4V60.4z M206,60.4h6.4v8.2H206V60.4z M194.3,60.4h6.4v8.2h-6.4V60.4z M182.6,60.4h6.4v8.2h-6.4V60.4z M170.9,60.4h6.4v8.2
	h-6.4V60.4z M159.2,60.4h6.4v8.2h-6.4V60.4z M137.7,60.4h6.4v8.2h-6.4V60.4z M126.1,60.4h6.4v8.2h-6.4V60.4z M114.3,60.4h6.4v8.2
	h-6.4V60.4z M229.4,77.5h6.4v8.2h-6.4V77.5z M217.7,77.5h6.4v8.2h-6.4V77.5z M206,77.5h6.4v8.2H206V77.5z M194.3,77.5h6.4v8.2h-6.4
	V77.5z M182.6,77.5h6.4v8.2h-6.4V77.5z M170.9,77.5h6.4v8.2h-6.4V77.5z M159.2,77.5h6.4v8.2h-6.4V77.5z M137.7,77.5h6.4v8.2h-6.4
	V77.5z M126.1,77.5h6.4v8.2h-6.4V77.5z M114.3,77.5h6.4v8.2h-6.4V77.5z M229.4,94.8h6.4v8.2h-6.4V94.8z M217.7,94.8h6.4v8.2h-6.4
	V94.8z M206,94.8h6.4v8.2H206V94.8z M194.3,94.8h6.4v8.2h-6.4V94.8z M182.6,94.8h6.4v8.2h-6.4V94.8z M170.9,94.8h6.4v8.2h-6.4V94.8z
	 M159.2,94.8h6.4v8.2h-6.4V94.8z M137.7,94.8h6.4v8.2h-6.4V94.8z M126.1,94.8h6.4v8.2h-6.4V94.8z M114.3,94.8h6.4v8.2h-6.4V94.8z
	 M229.4,111.9h6.4v8.2h-6.4V111.9z M217.7,111.9h6.4v8.2h-6.4V111.9z M206,111.9h6.4v8.2H206V111.9z M194.3,111.9h6.4v8.2h-6.4
	V111.9z M182.6,111.9h6.4v8.2h-6.4V111.9z M170.9,111.9h6.4v8.2h-6.4V111.9z M159.2,111.9h6.4v8.2h-6.4V111.9z M137.7,111.9h6.4v8.2
	h-6.4V111.9z M126.1,111.9h6.4v8.2h-6.4V111.9z M114.3,111.9h6.4v8.2h-6.4V111.9z M229.4,129.1h6.4v8.2h-6.4V129.1z M217.7,129.1
	h6.4v8.2h-6.4V129.1z M206,129.1h6.4v8.2H206V129.1z M194.3,129.1h6.4v8.2h-6.4V129.1z M182.6,129.1h6.4v8.2h-6.4V129.1z
	 M170.9,129.1h6.4v8.2h-6.4V129.1z M159.2,129.1h6.4v8.2h-6.4V129.1z M137.7,129.1h6.4v8.2h-6.4V129.1z M126.1,129.1h6.4v8.2h-6.4
	V129.1z M114.3,129.1h6.4v8.2h-6.4V129.1z M229.4,146.3h6.4v8.2h-6.4V146.3z M217.7,146.3h6.4v8.2h-6.4V146.3z M206,146.3h6.4v8.2
	H206V146.3z M194.3,146.3h6.4v8.2h-6.4V146.3z M182.6,146.3h6.4v8.2h-6.4V146.3z M170.9,146.3h6.4v8.2h-6.4V146.3z M159.2,146.3h6.4
	v8.2h-6.4V146.3z M137.7,146.3h6.4v8.2h-6.4V146.3z M126.1,146.3h6.4v8.2h-6.4V146.3z M114.3,146.3h6.4v8.2h-6.4V146.3z
	 M229.4,163.5h6.4v8.2h-6.4V163.5z M217.7,163.5h6.4v8.2h-6.4V163.5z M206,163.5h6.4v8.2H206V163.5z M194.3,163.5h6.4v8.2h-6.4
	V163.5z M182.6,163.5h6.4v8.2h-6.4V163.5z M170.9,163.5h6.4v8.2h-6.4V163.5z M159.2,163.5h6.4v8.2h-6.4V163.5z M137.7,163.5h6.4v8.2
	h-6.4V163.5z M126.1,163.5h6.4v8.2h-6.4V163.5z M114.3,163.5h6.4v8.2h-6.4V163.5z M229.4,180.7h6.4v8.2h-6.4V180.7z M217.7,180.7
	h6.4v8.2h-6.4V180.7z M206,180.7h6.4v8.2H206V180.7z M194.3,180.7h6.4v8.2h-6.4V180.7z M182.6,180.7h6.4v8.2h-6.4V180.7z
	 M170.9,180.7h6.4v8.2h-6.4V180.7z M159.2,180.7h6.4v8.2h-6.4V180.7z M137.7,180.7h6.4v8.2h-6.4V180.7z M126.1,180.7h6.4v8.2h-6.4
	V180.7z M114.3,180.7h6.4v8.2h-6.4V180.7z M229.4,197.9h6.4v8.2h-6.4V197.9z M217.7,197.9h6.4v8.2h-6.4V197.9z M206,197.9h6.4v8.2
	H206V197.9z M194.3,197.9h6.4v8.2h-6.4V197.9z M182.6,197.9h6.4v8.2h-6.4V197.9z M170.9,197.9h6.4v8.2h-6.4V197.9z M159.2,197.9h6.4
	v8.2h-6.4V197.9z M137.7,197.9h6.4v8.2h-6.4V197.9z M114.3,197.9h6.4v8.2h-6.4V197.9z M229.4,215.1h6.4v8.2h-6.4V215.1z
	 M217.7,215.1h6.4v8.2h-6.4V215.1z M206,215.1h6.4v8.2H206V215.1z M194.3,215.1h6.4v8.2h-6.4V215.1z M182.6,215.1h6.4v8.2h-6.4
	V215.1z M170.9,215.1h6.4v8.2h-6.4V215.1z M159.2,215.1h6.4v8.2h-6.4V215.1z M137.7,215.1h6.4v8.2h-6.4V215.1z M114.3,215.1h6.4v8.2
	h-6.4V215.1z M229.4,232.3h6.4v8.2h-6.4V232.3z M217.7,232.3h6.4v8.2h-6.4V232.3z M206,232.3h6.4v8.2H206V232.3z M194.3,232.3h6.4
	v8.2h-6.4V232.3z M182.6,232.3h6.4v8.2h-6.4V232.3z M170.9,232.3h6.4v8.2h-6.4V232.3z M159.2,232.3h6.4v8.2h-6.4V232.3z
	 M137.7,232.3h6.4v8.2h-6.4V232.3z M114.3,232.3h6.4v8.2h-6.4V232.3z M229.4,249.4h6.4v8.2h-6.4V249.4z M217.7,249.4h6.4v8.2h-6.4
	V249.4z M206,249.4h6.4v8.2H206V249.4z M194.3,249.4h6.4v8.2h-6.4V249.4z M182.6,249.4h6.4v8.2h-6.4V249.4z M170.9,249.4h6.4v8.2
	h-6.4V249.4z M159.2,249.4h6.4v8.2h-6.4V249.4z M137.7,249.4h6.4v8.2h-6.4V249.4z M114.3,249.4h6.4v8.2h-6.4V249.4z M229.4,266.7
	h6.4v8.2h-6.4V266.7z M217.7,266.7h6.4v8.2h-6.4V266.7z M206,266.7h6.4v8.2H206V266.7z M194.3,266.7h6.4v8.2h-6.4V266.7z
	 M182.6,266.7h6.4v8.2h-6.4V266.7z M170.9,266.7h6.4v8.2h-6.4V266.7z M159.2,266.7h6.4v8.2h-6.4V266.7z M137.7,266.7h6.4v8.2h-6.4
	V266.7z M114.3,266.7h6.4v8.2h-6.4V266.7z M229.4,283.8h6.4v8.2h-6.4V283.8z M217.7,283.8h6.4v8.2h-6.4V283.8z M206,283.8h6.4v8.2
	H206V283.8z M194.3,283.8h6.4v8.2h-6.4V283.8z M182.6,283.8h6.4v8.2h-6.4V283.8z M170.9,283.8h6.4v8.2h-6.4V283.8z M159.2,283.8h6.4
	v8.2h-6.4V283.8z M137.7,283.8h6.4v8.2h-6.4V283.8z M126.3,197.9h6.4v8.2h-6.4V197.9z M126.3,215.1h6.4v8.2h-6.4V215.1z
	 M126.3,232.3h6.4v8.2h-6.4V232.3z M126.3,249.4h6.4v8.2h-6.4V249.4z M126.3,266.7h6.4v8.2h-6.4V266.7z M126.3,283.8h6.4v8.2h-6.4
	V283.8z M114.3,283.8h6.4v8.2h-6.4V283.8z"/>
<path class="st5" d="M225.2,29.5H124.9V17.6c0-5.1,4.1-9.2,9.2-9.2H216c5.1,0,9.2,4.1,9.2,9.2V29.5z"/>
<path class="st3" d="M581.3,329.4h-18.5c0-1.9,1.5-3.4,3.4-3.4h11.7C579.9,326,581.4,327.6,581.3,329.4z"/>
<path class="st2" d="M523.3,228.1c3.4-0.6,5.7,2.9,6.4,6c0.3,1.7,0.3,3.6,1.7,4.6c0.6,0.4,1.2,0.8,1.8,1.1c3.7,1.9,4,5.5,4,9.1
	c-0.1,0.6,0.1,1.2,0.3,1.7c0.3,0.6,1,0.9,1.4,1.5c0.3,0.4,0.4,0.9,0.5,1.3c0.9,4.1,0.5,7.8,0.4,11.9c-0.2,29-16,27.7-16,27.7h-0.6
	c-3.8-0.2-7.3-2.5-9.5-5.5c-2.2-3.2-3.7-6.8-4.3-10.5c-0.5-2.8-0.9-5.6-1-8.4c-0.2-3.1-0.8-5.8,0.3-8.8c0.5-1.3,1.3-2.7,1.4-4.1
	c0-1.6-1-3.1-1-4.6c0-1,0.2-1.9,0.6-2.8c0.8-2.2,1.7-4.4,2.8-6.4c0.9-1.6,3-2.5,3.5-4.2c0.1-0.7,0.2-1.5,0.1-2.3
	c0.1-3.7,3.3-6.3,6.7-7.2L523.3,228.1z"/>
<path class="st4" d="M526,323h-4l1.3-46.9l0.6-1.1L526,323z"/>
<path class="st6" d="M352.8,320.9l8.4-12.5l-8.4-12.5h6.4c4.6,0,8.4,5.6,8.4,12.5s-3.8,12.5-8.4,12.5H352.8z"/>
<path class="st7" d="M352.8,295.8c4.6,0,8.4,5.6,8.4,12.5s-3.8,12.5-8.4,12.5c-4.6,0-8.4-5.6-8.4-12.5S348.2,295.8,352.8,295.8z"/>
<path class="st6" d="M311.9,319.4l8.4-12.5l-8.4-12.5h6.4c4.6,0,8.4,5.6,8.4,12.5s-3.8,12.5-8.4,12.5H311.9z"/>
<path class="st7" d="M311.9,294.4c4.6,0,8.4,5.6,8.4,12.5s-3.8,12.5-8.4,12.5s-8.4-5.6-8.4-12.5S307.3,294.4,311.9,294.4z"/>
<path class="st6" d="M281.3,319.4l8.4-12.5l-8.4-12.5h6.4c4.6,0,8.4,5.6,8.4,12.5s-3.8,12.5-8.4,12.5H281.3z"/>
<path class="st7" d="M281.3,294.4c4.6,0,8.4,5.6,8.4,12.5s-3.8,12.5-8.4,12.5c-4.6,0-8.4-5.6-8.4-12.5S276.6,294.4,281.3,294.4z"/>
<path class="st6" d="M179.7,317.2l8.4-12.5l-8.4-12.5h6.4c4.6,0,8.4,5.6,8.4,12.5c0,6.9-3.8,12.5-8.4,12.5H179.7z"/>
<path class="st7" d="M179.7,292.2c4.6,0,8.4,5.6,8.4,12.5c0,6.9-3.8,12.5-8.4,12.5s-8.4-5.6-8.4-12.5
	C171.3,297.8,175.1,292.2,179.7,292.2z"/>
<path class="st6" d="M143,317l8.4-12.5L143,292h6.4c4.6,0,8.4,5.6,8.4,12.5s-3.8,12.5-8.4,12.5H143z"/>
<path class="st7" d="M143,292c4.6,0,8.4,5.6,8.4,12.5S147.7,317,143,317c-4.6,0-8.4-5.6-8.4-12.5S138.4,292,143,292z"/>
<path class="st6" d="M79.1,317l8.4-12.5L79.1,292h6.4c4.6,0,8.4,5.6,8.4,12.5S90.1,317,85.5,317H79.1z"/>
<path class="st7" d="M79.1,292c4.6,0,8.4,5.6,8.4,12.5S83.7,317,79.1,317c-4.6,0-8.4-5.6-8.4-12.5S74.4,292,79.1,292z"/>
<path class="st8" d="M370.4,294.3H196.5l15,11c2.6,1.9,5.6,2.9,8.6,2.9h150.3V305V294.3z"/>
<path class="st9" d="M217.8,302h28.9c0.5,0,1,0.7,1,1.5v0.5c0,0.8-0.4,1.5-1,1.5h-28.9c-0.5,0-1-0.7-1-1.5v-0.5
	C216.9,302.6,217.3,302,217.8,302z"/>
<path class="st9" d="M217.8,296.4h28.9c0.5,0,1,0.7,1,1.5v0.5c0,0.8-0.4,1.5-1,1.5h-28.9c-0.5,0-1-0.7-1-1.5v-0.5
	C216.9,297.1,217.3,296.4,217.8,296.4z"/>
<path class="st8" d="M206.2,310.7v-10.2h2.7v10.2h0.8v2.1h-4.4v-2.1H206.2z"/>
<path class="st8" d="M358.5,301.3h-2.1v13.9h2.1V301.3z"/>
<rect x="181.2" y="297.8" class="st8" width="2.1" height="15.3"/>
<path class="st8" d="M186.7,294.3H25.4c-1.1,0-2.1,1.4-2.1,3.1v6.9c0,1.7,0.9,3.2,2.1,3.2h148.7c0,0,3.4,0,8.5,0
	S186.7,294.3,186.7,294.3z"/>
<path class="st7" d="M432.2,294.4v-1.5l-65.4,0.8l-0.6,0.7c-2.3,0-4.2,1.9-4.2,4.1v5.6c0,2.2,1.9,4.1,4.2,4.1h66
	c2.3,0,4.2-1.9,4.2-4.1v-5.6C436.5,296.3,434.6,294.5,432.2,294.4z"/>
<path class="st9" d="M103.7,307.5h10.5c1,0,1.7-0.8,1.7-1.7v-11.5h-14v11.5C101.9,306.8,102.7,307.5,103.7,307.5z"/>
<path class="st9" d="M92.5,307.5h6.4c0.9,0,1.7-0.8,1.7-1.7v-11.5h-9.8v11.5C90.8,306.8,91.6,307.5,92.5,307.5z"/>
<path class="st9" d="M81.5,307.5h6.4c0.9,0,1.7-0.8,1.7-1.7v-11.5h-9.8v11.5C79.8,306.8,80.6,307.5,81.5,307.5z"/>
<path class="st10" d="M367.8,206.7l-4.3-0.7L80,209.9V295h287.6L367.8,206.7z"/>
<path class="st11" d="M367.6,274.3l-289.7,6.6L77.4,295h290.3V274.3z"/>
<path class="st12" d="M80,280.9l285.6-4.5v-8.3L80,275.2V280.9z"/>
<path class="st13" d="M381,301.8c0,0.9,0.8,1.5,1.6,1.5s1.6-0.7,1.6-1.5c0-0.8-0.8-1.5-1.6-1.5C381.7,300.2,381,300.9,381,301.8
	C381,301.7,381,301.7,381,301.8z"/>
<path class="st14" d="M368.5,301.7c0,2.1,1.7,3.6,3.7,3.6c2,0,3.7-1.7,3.7-3.6c0-2-1.7-3.6-3.7-3.6
	C370.2,297.9,368.5,299.6,368.5,301.7C368.5,301.6,368.5,301.6,368.5,301.7z"/>
<path class="st13" d="M410.7,341c0,1.2,1,2.1,2.2,2.1c1.2,0,2.2-1,2.2-2.1c0-1.1-1-2.1-2.2-2.1C411.7,338.8,410.7,339.8,410.7,341
	C410.7,340.9,410.7,340.9,410.7,341z"/>
<path class="st14" d="M424.8,301.7c0,2.1,1.7,3.6,3.7,3.6c2,0,3.7-1.7,3.7-3.6c0-2-1.7-3.6-3.7-3.6
	C426.5,297.9,424.8,299.6,424.8,301.7C424.8,301.6,424.8,301.6,424.8,301.7z"/>
<path class="st15" d="M433.5,295.1h-70.1v-88.4h70.1V295.1z"/>
<path class="st16" d="M433.5,206l-70.1,0v2.2l70.1,0V206z"/>
<path class="st17" d="M430,274h-20.4v20.6H430V274z"/>
<path class="st18" d="M399.5,270.5l10.2,3.5v20.5l-10.2-3.4V270.5z"/>
<path class="st19" d="M430,274l-10.1-3.5h-20.4l10.2,3.5H430L430,274z"/>
<path class="st20" d="M406.6,287.7v5.7l-3-1v-5.8L406.6,287.7z"/>
<path class="st21" d="M406.6,272.9v5.8l-3-1v-5.8L406.6,272.9z"/>
<path class="st22" d="M423.9,271.9l0.4,0.1l0.6,0.2l2.2,0.7h-20.5l-3-1H423.9L423.9,271.9z"/>
<path class="st23" d="M417.5,282.4h-12v12.1h12V282.4z"/>
<path class="st17" d="M399.5,280.4l6,2v12.1l-6-2V280.4z"/>
<path class="st24" d="M417.5,282.4l-6-2h-12l6,2H417.5z"/>
<path class="st22" d="M403.7,290.5v3.4l-1.8-0.6v-3.4L403.7,290.5L403.7,290.5z M403.7,281.8v3.4l-1.8-0.6v-3.4L403.7,281.8
	L403.7,281.8z"/>
<path class="st25" d="M413.9,281.2l0.2,0.1l0.4,0.2l1.3,0.4h-12.1l-1.8-0.6H413.9z"/>
<path class="st26" d="M402.6,255.9h-26.1v38.6h26.1V255.9z"/>
<path class="st27" d="M363.4,255.4l13.1,0.5v38.6l-13.1,0.1V255.4z"/>
<path class="st28" d="M367.4,283.8v10.9h-3.9V282L367.4,283.8z"/>
<path class="st29" d="M348.1,308.2c0-13.6-9.1-19.5-17.1-19.5c-8,0-16.3,5.8-16.3,19.5"/>
<path class="st6" d="M327.7,321.8l9.7-14.4l-9.7-14.4h7.4c5.4,0,9.7,6.5,9.7,14.4s-4.3,14.4-9.7,14.4H327.7z"/>
<path class="st7" d="M327.7,292.9c5.4,0,9.7,6.5,9.7,14.4s-4.3,14.4-9.7,14.4s-9.7-6.5-9.7-14.4C318,299.4,322.4,292.9,327.7,292.9z
	"/>
<path class="st30" d="M322.3,307.3c0,4.5,2.5,8.2,5.5,8.2c3,0,5.5-3.7,5.5-8.2c0-4.5-2.5-8.2-5.5-8.2
	C324.7,299.1,322.3,302.8,322.3,307.3z"/>
<path class="st29" d="M316.1,308.2c0-13.4-9.1-19.5-17.1-19.5c-8,0-16.3,6-16.3,19.5"/>
<path class="st6" d="M296.4,321.8l9.7-14.4l-9.7-14.4h7.4c5.4,0,9.7,6.5,9.7,14.4s-4.3,14.4-9.7,14.4H296.4z"/>
<path class="st7" d="M296.4,292.9c5.4,0,9.7,6.5,9.7,14.4s-4.3,14.4-9.7,14.4s-9.7-6.5-9.7-14.4
	C286.7,299.4,291.1,292.9,296.4,292.9z"/>
<path class="st30" d="M291,307.3c0,4.5,2.5,8.2,5.5,8.2c3,0,5.5-3.7,5.5-8.2c0-4.5-2.5-8.2-5.5-8.2C293.4,299.1,291,302.8,291,307.3
	z"/>
<path class="st29" d="M284.9,308.2c0-13.4-9.1-19.1-17.1-19.1c-8,0-16.3,5.7-16.3,19.1"/>
<path class="st6" d="M264.5,321.8l9.7-14.4l-9.7-14.4h7.4c5.4,0,9.7,6.5,9.7,14.4s-4.3,14.4-9.7,14.4H264.5z"/>
<path class="st7" d="M264.5,292.9c5.4,0,9.7,6.5,9.7,14.4s-4.3,14.4-9.7,14.4c-5.4,0-9.7-6.5-9.7-14.4
	C254.7,299.4,259.1,292.9,264.5,292.9z"/>
<path class="st30" d="M259,307.3c0,4.5,2.5,8.2,5.5,8.2c3,0,5.5-3.7,5.5-8.2c0-4.5-2.5-8.2-5.5-8.2C261.4,299.1,259,302.8,259,307.3
	z"/>
<path class="st29" d="M179.8,307.5c0-13.2-9.1-19.5-17-19.5c-8,0-16.4,6.2-16.4,19.5"/>
<path class="st6" d="M159.4,319.3l9.7-14.4l-9.7-14.4h7.4c5.4,0,9.7,6.5,9.7,14.4c0,8-4.3,14.4-9.7,14.4H159.4z"/>
<path class="st7" d="M159.4,290.4c5.4,0,9.7,6.5,9.7,14.4c0,8-4.3,14.4-9.7,14.4c-5.4,0-9.7-6.5-9.7-14.4
	C149.7,296.9,154.1,290.4,159.4,290.4z"/>
<path class="st30" d="M153.9,304.9c0,4.5,2.5,8.2,5.5,8.2c3,0,5.5-3.7,5.5-8.2c0-4.5-2.5-8.2-5.5-8.2
	C156.4,296.7,153.9,300.4,153.9,304.9z"/>
<path class="st29" d="M149.9,307.5c0-13.4-9.1-19.1-17.1-19.1c-8,0-16.3,5.7-16.3,19.1"/>
<path class="st6" d="M129.5,319.3l9.7-14.4l-9.7-14.4h7.4c5.4,0,9.7,6.5,9.7,14.4c0,8-4.3,14.4-9.7,14.4H129.5z"/>
<path class="st7" d="M129.5,290.4c5.4,0,9.7,6.5,9.7,14.4c0,8-4.3,14.4-9.7,14.4c-5.4,0-9.7-6.5-9.7-14.4
	C119.8,296.9,124.2,290.4,129.5,290.4z"/>
<path class="st30" d="M124,304.9c0,4.5,2.5,8.2,5.5,8.2c3,0,5.5-3.7,5.5-8.2c0-4.5-2.5-8.2-5.5-8.2C126.5,296.7,124,300.4,124,304.9
	z"/>
<path class="st16" d="M80.4,222.3l-1.7,0.3l-1.4,0.4l-0.3,72l3.5,0V222.3z"/>
<path class="st16" d="M46.5,235.9l31.7,1.4c0.1,0,0.2-0.1,0.2-0.2v-3.9c0-0.1-0.1-0.2-0.3-0.2L47,235L46.5,235.9z"/>
<path class="st10" d="M78.2,235.9l-54.5,6.4c0,0-8.7,35.9-8.7,38.1l0.2,13.2c0,0,2.8,10.6,5,10.6H71c4.1,0,7.4-3,7.4-6.8v-61.3
	C78.4,236,78.3,235.9,78.2,235.9z"/>
<path class="st13" d="M20.6,286.9c0-1.4-0.5-2.7-1.5-3.7c-0.9-1-2.8-1.5-4.2-1.5l0.2,10.5c1.3,0,3.1-0.5,4-1.5
	C20.1,289.6,20.6,288.3,20.6,286.9z"/>
<path class="st11" d="M39.4,293.6l11.1-10.7l27.9-2.7v13.2c0,0.1-0.1,0.2-0.2,0.2L39.4,293.6z"/>
<path class="st10" d="M23.8,243.1h54.6v-7.2H35.3c-4.9,0-9.4,2.4-12,6.4C23.1,242.6,23.3,243.1,23.8,243.1z"/>
<path class="st10" d="M78.4,235.4H46.8c0,0,4.7-10,31.6-12.8V235.4z"/>
<path class="st16" d="M23.3,243.7l55.1-0.2c0,0,0-0.1,0-0.2v-0.2H23.5L23.3,243.7z"/>
<path class="st8" d="M78.5,307.5H55.2v-18.8h23.3V307.5z"/>
<path class="st10" d="M19.8,307.5h21.6l1.6-12.2H15.2v8.3C15.2,305.8,17.3,307.5,19.8,307.5z"/>
<path class="st8" d="M15.2,293.5h28.7v1.8H15.2V293.5z"/>
<path class="st15" d="M21.3,301.6h13.8v5.3H21.3V301.6z"/>
<path class="st15" d="M21.3,295.3h13.8v5.3H21.3V295.3z"/>
<path class="st6" d="M21.3,305.7h13.8v1.2H21.3V305.7z"/>
<path class="st6" d="M21.3,299.5h13.8v1.2H21.3V299.5z"/>
<path class="st6" d="M23.1,244.7h33.8c4,0,4,0,4,2.7v13.4c0,1.6-1.1,3-2.6,3.3l-40.6,3.4"/>
<path class="st31" d="M25.4,273.3c-1.5,0-2.8-1.2-2.8-2.7v-7.5h2.8V273.3z"/>
<path class="st10" d="M25.4,258.3v4.9h-2.8v-2.2C22.6,259.5,23.9,258.3,25.4,258.3z"/>
<path class="st32" d="M22.6,263.2h2.8v5.8h-2.8V263.2z"/>
<path class="st31" d="M22.6,267.5c-1,0-1.7,0.7-1.7,1.7c0,0.9,0.8,1.7,1.7,1.7"/>
<path class="st16" d="M74.6,265.5l-38.3,3.2c-1.7,0.2-3,1.6-2.9,3.3c0.1,1.7,1.4,3,3.2,3.1l38.5,0.5"/>
<path class="st33" d="M53.2,270.9h3c1,0,1.9-0.8,1.9-1.8h-3C54.1,269.1,53.2,269.9,53.2,270.9z"/>
<path class="st12" d="M78.4,275.2c0,0-33.4-1.2-40.7,18.3h6.2c0,0,3.5-12.6,34.5-12.6"/>
<path class="st34" d="M62.5,266.8v12.8c0,2.7-2.3,5-5.2,5h-5c-1.4,0-6,0.2-7.3,1.5c-1.7,1.7-4.2,4.2-4.2,4.2c-1,1-2.3,1.5-3.7,1.5
	H24.8c-1.7,0-3-1.3-3-2.9v-12.7"/>
<path class="st29" d="M72.5,307.5c0-13.5-9.1-20.1-17-20.1c-8,0-16.4,6.5-16.4,20.1"/>
<path class="st6" d="M52,318.3l9.7-14.4c0,0-9.7-14.4-9.7-14.4h7.4c5.4,0,9.7,6.5,9.7,14.4s-4.3,14.4-9.7,14.4H52z"/>
<path class="st7" d="M52,289.4c5.4,0,9.7,6.5,9.7,14.4s-4.3,14.4-9.7,14.4c-5.4,0-9.7-6.5-9.7-14.4C42.3,295.9,46.7,289.4,52,289.4z
	"/>
<path class="st30" d="M46.5,303.8c0,4.5,2.5,8.2,5.5,8.2c3,0,5.5-3.7,5.5-8.2c0-4.5-2.5-8.2-5.5-8.2C49,295.7,46.5,299.3,46.5,303.8
	z"/>
<path class="st6" d="M279.3,335.2l7.8-13.5l-7.8-13.5h6.9c5,0,9.1,6.1,9.1,13.5c0,7.5-4.1,13.5-9.1,13.5H279.3z"/>
<path class="st7" d="M279.3,308.1c5,0,9.1,6.1,9.1,13.5c0,7.5-4.1,13.5-9.1,13.5c-5,0-9.1-6.1-9.1-13.5
	C270.2,314.1,274.3,308.1,279.3,308.1z"/>
<path class="st8" d="M424.2,309.2H210.7c-1.6,0-2.8,1.4-2.8,3.2v6.9c0,1.7,1.2,3.2,2.8,3.2h213.5V309.2z"/>
<path class="st9" d="M317.6,322.5H329c1,0,1.9-0.7,1.9-1.5v-9.6h-15.1v9.6C315.7,321.8,316.5,322.5,317.6,322.5z"/>
<path class="st9" d="M305.5,322.5h6.9c1,0,1.9-0.6,1.9-1.5v-9.6h-10.6v9.6C303.7,321.9,304.5,322.5,305.5,322.5z"/>
<path class="st9" d="M293.7,322.5h6.9c1,0,1.9-0.7,1.9-1.5v-9.6h-10.6v9.6C291.8,321.8,292.6,322.5,293.7,322.5z"/>
<path class="st9" d="M281.8,322.5h6.9c1,0,1.9-0.7,1.9-1.5v-9.6H280v9.6C280,321.8,280.8,322.5,281.8,322.5z"/>
<path class="st35" d="M421.9,222l-152.6,3.9v85.5h152.6V222z"/>
<path class="st11" d="M421.9,287.5l-153.7,5.7l-0.3,18.2h154V287.5z"/>
<path class="st12" d="M269.3,294.4l151.5-4.9v-10.6l-151.5,9.4V294.4z"/>
<path class="st36" d="M496.3,311.4h-76.3V222h76.3V311.4z"/>
<rect x="420.1" y="222" class="st16" width="76.3" height="3.3"/>
<path class="st16" d="M269.3,233.1l-1.8,0.3l-1.5,0.3l-0.3,77.7h3.5V233.1z"/>
<path class="st16" d="M233,247.1l34.3,1.5c0.1,0,0.3-0.1,0.3-0.2v-4.1c0-0.1-0.1-0.3-0.3-0.2l-33.7,2.3L233,247.1z"/>
<path class="st35" d="M267.3,247.1l-58.9,6.7c0,0-9.4,37.9-9.4,40.2l0.2,14c0,0,3,11.1,5.4,11.1h55c4.4,0,8-3.2,8-7.1v-64.6
	C267.6,247.2,267.5,247.1,267.3,247.1z"/>
<path class="st13" d="M205.1,300.8c0-1.5-0.6-2.9-1.6-3.9c-1-1-3.1-1.6-4.5-1.6l0.2,11.1c1.4,0,3.3-0.6,4.3-1.6
	C204.5,303.7,205.1,302.3,205.1,300.8z"/>
<path class="st11" d="M225.4,307.9l12-11.3l30.2-2.8v13.9c0,0.1-0.1,0.2-0.3,0.2L225.4,307.9z"/>
<path class="st35" d="M208.5,254.6h59.1v-7.5H221c-5.3,0-10.2,2.5-13,6.7C207.8,254.2,208,254.6,208.5,254.6z"/>
<path class="st35" d="M267.6,246.6h-34.2c0,0,5.1-10.5,34.2-13.5V246.6z"/>
<path class="st16" d="M208,255.3l59.6-0.2c0,0,0-0.1,0-0.2v-0.2h-59.4L208,255.3z"/>
<path class="st8" d="M267.3,322.6h-24.4v-20.1h24.4c0.1,0,0.3,0.1,0.3,0.2v19.6C267.5,322.5,267.4,322.6,267.3,322.6z"/>
<path class="st35" d="M204.2,322.6h23.4l1.7-12.9h-30.1v8.8C199.2,320.8,201.4,322.6,204.2,322.6z"/>
<path class="st8" d="M199.2,307.8h31v1.9h-31V307.8z"/>
<path class="st36" d="M205.9,316.4h15v5.6h-15V316.4z"/>
<path class="st36" d="M205.9,309.8h15v5.6h-15V309.8z"/>
<path class="st6" d="M205.9,320.7h15v1.3h-15V320.7z"/>
<path class="st6" d="M205.9,314.1h15v1.3h-15V314.1z"/>
<path class="st6" d="M207.7,256.4h36.5c4.4,0,4.4,0,4.4,2.8v14.1c0,1.7-1.2,3.1-2.8,3.5l-43.9,3.6"/>
<path class="st31" d="M210.2,286.5c-1.6,0-3-1.3-3-2.8v-7.9h3V286.5z"/>
<path class="st35" d="M210.2,270.7v5.2h-3v-2.4C207.2,271.9,208.6,270.7,210.2,270.7z"/>
<path class="st32" d="M207.2,275.8h3v6.1h-3V275.8z"/>
<path class="st31" d="M207.2,280.4c-1,0-1.9,0.8-1.9,1.8c0,1,0.8,1.8,1.9,1.8"/>
<path class="st16" d="M263.5,278.3l-41.5,3.4c-1.9,0.2-3.2,1.7-3.2,3.5c0.1,1.8,1.6,3.2,3.4,3.3l41.6,0.6"/>
<path class="st33" d="M240.4,284h3.3c1.1,0,2-0.9,2-1.9h-3.3C241.3,282.1,240.4,283,240.4,284z"/>
<path class="st12" d="M267.6,288.5c0,0-36.2-1.2-44,19.3h6.7c0,0,3.8-13.3,37.3-13.3"/>
<path class="st34" d="M250.4,279.6v13.5c0,2.9-2.5,5.2-5.6,5.2h-5.4c-1.5,0-6.5,0.2-7.9,1.6c-1.9,1.8-4.6,4.4-4.6,4.4
	c-1,1-2.5,1.6-4,1.6h-13.3c-1.8,0-3.3-1.4-3.3-3.1v-13.4"/>
<path class="st29" d="M261,322.6c0-14.6-9.5-20.2-18.1-20.2c-8.7,0-18.1,5.4-18.1,20.2"/>
<path class="st6" d="M239.1,336.5l9.6-15.6l-9.6-15.6h8c5.8,0,10.5,7,10.5,15.6c0,8.6-4.7,15.6-10.5,15.6H239.1z"/>
<path class="st7" d="M239.1,305.3c5.8,0,10.5,7,10.5,15.6c0,8.6-4.7,15.6-10.5,15.6s-10.5-7-10.5-15.6
	C228.6,312.3,233.3,305.3,239.1,305.3z"/>
<path class="st30" d="M233.1,320.9c0,4.9,2.7,8.8,5.9,8.8c3.3,0,5.9-4,5.9-8.8c0-4.9-2.7-8.8-5.9-8.8
	C235.8,312.1,233.1,316.1,233.1,320.9z"/>
<path class="st6" d="M346.3,339.6c0-3.5,1-7,3-9.9c2-2.9,4.7-5.2,8-6.5c3.2-1.3,6.8-1.7,10.3-1c3.4,0.7,6.6,2.4,9.1,4.9
	c2.5,2.5,4.2,5.7,4.9,9.1c0.7,3.4,0.3,7-1,10.3c-1.3,3.2-3.6,6-6.5,8c-2.9,2-6.4,3-9.9,3c-4.7,0-9.2-1.9-12.6-5.2
	C348.2,348.9,346.3,344.4,346.3,339.6L346.3,339.6z M443.8,339.9c0-3.5,1-6.9,3-9.8c1.9-2.9,4.7-5.2,7.9-6.5c3.2-1.3,6.8-1.7,10.2-1
	c3.4,0.7,6.6,2.4,9,4.8c2.5,2.5,4.1,5.6,4.8,9c0.7,3.4,0.3,7-1,10.2c-1.3,3.2-3.6,6-6.5,7.9c-2.9,1.9-6.3,3-9.8,3
	c-4.7,0-9.1-1.9-12.4-5.2C445.6,349,443.8,344.5,443.8,339.9L443.8,339.9z"/>
<path class="st37" d="M517.7,249h-63.4v80.6h63.4V249z"/>
<path class="st8" d="M458,328.7H297.8c-1.6,0-2.8,1.4-2.8,3.1v6.7c0,1.7,1.2,3.1,2.8,3.1H458V328.7z"/>
<path class="st38" d="M299.2,328.7h72.1v-59.5h-36.2c-3.5,0-6.9,0.9-10,2.5c-3.1,1.6-5.7,4-7.6,6.9l-14.8,22
	c-2.4,3.6-3.6,7.7-3.6,12L299.2,328.7z"/>
<path class="st6" d="M354.7,304.4v-28.5h-19c-2.4,0-4.8,0.6-6.9,1.7c-2.1,1.1-4,2.8-5.3,4.8l-14.9,22.1L354.7,304.4z"/>
<path class="st39" d="M370.2,269.2h-6.7v59.5h6.7V269.2z"/>
<path class="st40" d="M346.8,309.1h6.4c0.4,0,0.8-0.2,1-0.4c0.3-0.3,0.4-0.6,0.4-1v-0.9h-9.4v0.9c0,0.4,0.2,0.8,0.5,1
	C346,309,346.4,309.1,346.8,309.1L346.8,309.1z"/>
<path class="st13" d="M304.9,321.1c0-1.5-0.6-2.9-1.7-4c-1.1-1.1-2.5-1.7-4-1.7v11.4c1.5,0,2.9-0.6,4-1.7
	C304.3,324.1,304.9,322.6,304.9,321.1L304.9,321.1z"/>
<path class="st7" d="M517.6,328.7H458c-0.5,0-1,0.1-1.5,0.3c-0.5,0.2-0.9,0.5-1.2,0.8c-0.4,0.4-0.6,0.8-0.8,1.2
	c-0.2,0.5-0.3,1-0.3,1.5v5.3c0,1,0.4,2,1.1,2.7c0.7,0.7,1.7,1.1,2.7,1.1h59.6c1,0,2-0.4,2.7-1.1s1.1-1.7,1.1-2.7v-5.3
	c0-1-0.4-2-1.1-2.7C519.6,329.1,518.7,328.7,517.6,328.7z"/>
<path class="st14" d="M465,335.2c0-0.5-0.2-1.1-0.5-1.5s-0.7-0.8-1.2-1c-0.5-0.2-1.1-0.3-1.6-0.2c-0.5,0.1-1,0.4-1.4,0.8
	c-0.4,0.4-0.6,0.9-0.8,1.4c-0.1,0.5-0.1,1.1,0.2,1.6c0.2,0.5,0.6,0.9,1,1.2s1,0.5,1.5,0.5c0.4,0,0.7-0.1,1-0.2
	c0.3-0.1,0.6-0.3,0.9-0.6c0.3-0.3,0.5-0.6,0.6-0.9C464.9,335.9,465,335.6,465,335.2L465,335.2z"/>
<path class="st13" d="M469.7,335.2c0-0.4-0.1-0.7-0.4-0.9s-0.6-0.4-0.9-0.4h0c-0.4,0-0.7,0.1-1,0.4c-0.3,0.3-0.4,0.6-0.4,1
	c0,0.2,0,0.4,0.1,0.5c0.1,0.2,0.2,0.3,0.3,0.4c0.1,0.1,0.3,0.2,0.4,0.3c0.2,0.1,0.3,0.1,0.5,0.1h0c0.3,0,0.7-0.1,0.9-0.3
	c0.3-0.2,0.4-0.5,0.4-0.9V335.2z"/>
<path class="st14" d="M512.4,335.2c0,0.5,0.2,1.1,0.5,1.5s0.7,0.8,1.2,1s1.1,0.3,1.6,0.2c0.5-0.1,1-0.4,1.4-0.8
	c0.4-0.4,0.6-0.9,0.8-1.4c0.1-0.5,0.1-1.1-0.2-1.6c-0.2-0.5-0.6-0.9-1-1.2s-1-0.5-1.5-0.5c-0.7,0-1.4,0.3-1.9,0.8
	C512.7,333.8,512.4,334.5,512.4,335.2z"/>
<path class="st13" d="M507.7,335.2c0,0.3,0.1,0.5,0.2,0.7c0.1,0.2,0.4,0.4,0.6,0.5s0.5,0.1,0.8,0.1c0.3-0.1,0.5-0.2,0.7-0.4
	c0.2-0.2,0.3-0.4,0.4-0.7c0.1-0.3,0-0.5-0.1-0.8c-0.1-0.2-0.3-0.5-0.5-0.6c-0.2-0.1-0.5-0.2-0.7-0.2c-0.3,0-0.7,0.1-0.9,0.4
	C507.8,334.4,507.7,334.8,507.7,335.2L507.7,335.2z"/>
<path class="st41" d="M517.7,249h-31.1h-15.5h-7.8h-3.9h-1.4l-2.5,3.7h62.1V249z"/>
<path class="st11" d="M363.3,314.8l-30.1,10.6c0,0,3,2.2,4,3.6h26.2V314.8z"/>
<path class="st12" d="M333.4,325.5l30-9.6v-6.5l-35.2,14C330.1,323.8,331.8,324.5,333.4,325.5L333.4,325.5z"/>
<path class="st38" d="M458.1,249h-87.9v79.7h87.9V249z"/>
<path class="st11" d="M458.1,312.6l-87.9,2.5v13.6h87.9V312.6z"/>
<path class="st6" d="M419.3,322.8c5,0,9.8,2,13.3,5.5c3.5,3.5,5.5,8.3,5.5,13.3h-37.6c0-2.5,0.5-4.9,1.4-7.2s2.3-4.4,4.1-6.1
	c1.7-1.7,3.8-3.1,6.1-4.1C414.3,323.3,416.8,322.8,419.3,322.8L419.3,322.8z"/>
<path class="st6" d="M421.8,325.7c4.1,0.1,7.9,1.7,10.8,4.6c2.9,2.9,4.6,6.7,4.7,10.8c0.1,4.1-1.3,8-4.1,11c-2.7,3-6.5,4.9-10.6,5.2
	h-5.3v-31.7L421.8,325.7L421.8,325.7z"/>
<path class="st7" d="M402.8,341.6c0-3.1,0.9-6.2,2.7-8.8c1.7-2.6,4.2-4.6,7.1-5.8c2.9-1.2,6.1-1.5,9.2-0.9c3.1,0.6,5.9,2.1,8.1,4.3
	c2.2,2.2,3.7,5,4.3,8.1c0.6,3.1,0.3,6.3-0.9,9.2c-1.2,2.9-3.2,5.4-5.8,7.1c-2.6,1.7-5.7,2.7-8.8,2.7c-4.2,0-8.2-1.7-11.2-4.6
	S402.8,345.8,402.8,341.6L402.8,341.6z"/>
<path class="st11" d="M418.6,349.3c-4.3,0-7.8-3.5-7.8-7.8s3.5-7.8,7.8-7.8c4.3,0,7.8,3.5,7.8,7.8S422.9,349.3,418.6,349.3z"/>
<path class="st12" d="M370.2,315.1l87.9-2.5v-8.1l-88,4L370.2,315.1L370.2,315.1z"/>
<path class="st6" d="M323.7,322.8c5,0,9.8,2,13.3,5.5c3.5,3.5,5.5,8.3,5.5,13.3h-37.6c0-2.5,0.5-4.9,1.4-7.2
	c0.9-2.3,2.3-4.4,4.1-6.1c1.7-1.7,3.8-3.1,6.1-4.1C318.7,323.3,321.1,322.8,323.7,322.8L323.7,322.8z"/>
<path class="st6" d="M326.2,325.7c4.1,0.1,7.9,1.7,10.8,4.6c2.9,2.9,4.6,6.7,4.7,10.8c0.1,4.1-1.3,8-4.1,11c-2.7,3-6.5,4.9-10.6,5.2
	h-5.2v-31.7L326.2,325.7L326.2,325.7z"/>
<path class="st7" d="M307.2,341.6c0-3.1,0.9-6.2,2.7-8.8c1.7-2.6,4.2-4.6,7.1-5.8c2.9-1.2,6.1-1.5,9.2-0.9c3.1,0.6,5.9,2.1,8.1,4.3
	c2.2,2.2,3.7,5,4.3,8.1c0.6,3.1,0.3,6.3-0.9,9.2c-1.2,2.9-3.2,5.4-5.8,7.1c-2.6,1.7-5.7,2.7-8.8,2.7c-4.2,0-8.2-1.7-11.2-4.6
	S307.2,345.8,307.2,341.6L307.2,341.6z"/>
<path class="st11" d="M323,349.3c-4.3,0-7.8-3.5-7.8-7.8s3.5-7.8,7.8-7.8c4.3,0,7.8,3.5,7.8,7.8S327.3,349.3,323,349.3z"/>
<path class="st42" d="M546.5,273.9c0.2,0,0.4,0.3,0.7,1c0.1,0.3,0.3,0.7,0.5,1.2c0.2,0.5,0.4,1,0.6,1.5c0.3,0.6,0.5,1.1,0.9,1.6
	c0.2,0.3,0.4,0.5,0.6,0.7c0.2,0.2,0.4,0.5,0.7,0.7c0.2,0.2,0.5,0.4,0.7,0.6c0.3,0.2,0.5,0.3,0.8,0.4c0.3,0.1,0.6,0.2,0.9,0.3
	c0.1,0,0.1,0,0.2,0l0.2,0c0.1,0,0.3,0,0.4,0c0.6,0,1.3-0.1,1.9-0.3c0.3-0.1,0.6-0.2,0.9-0.3c0.2-0.1,0.3-0.1,0.4-0.2
	c0.1-0.1,0.3-0.1,0.4-0.2c0.3-0.1,0.6-0.3,0.8-0.4c0.3-0.2,0.5-0.3,0.8-0.5c0.5-0.3,1-0.7,1.4-1c0.4-0.3,0.9-0.6,1.3-0.9
	c0.4-0.2,0.7-0.5,1.1-0.6c0.3-0.1,0.6-0.2,0.9-0.3c0.2,0,0.5,0,0.7,0.1c0.2,0.1,0.3,0.4,0.4,0.6c0.1,0.3,0.1,0.7,0,1
	c-0.1,0.5-0.2,0.9-0.4,1.4c-0.2,0.6-0.5,1.1-0.9,1.6c-0.4,0.6-1,1.2-1.5,1.8c-0.3,0.3-0.7,0.6-1,0.9c-0.4,0.3-0.8,0.6-1.2,0.8
	c-0.2,0.1-0.4,0.2-0.7,0.3c-0.2,0.1-0.5,0.2-0.7,0.3c-0.5,0.2-1,0.4-1.6,0.5c-1.2,0.3-2.4,0.3-3.6,0.1c-0.3-0.1-0.6-0.1-0.9-0.2
	l-0.4-0.1c-0.2,0-0.3-0.1-0.4-0.2c-0.6-0.2-1.1-0.5-1.6-0.9c-0.5-0.3-0.9-0.7-1.3-1.1c-0.4-0.4-0.7-0.8-1-1.2
	c-0.3-0.4-0.5-0.8-0.7-1.3c-0.2-0.4-0.3-0.8-0.4-1.2c-0.2-0.7-0.3-1.5-0.4-2.2c-0.1-0.6-0.1-1.2,0-1.8c0-0.4,0-0.9,0.1-1.3
	C546.1,274.4,546.3,274,546.5,273.9L546.5,273.9z"/>
<path class="st4" d="M556.5,283.5c-0.2,3.7-0.2,7.4,0,11c3.5,1.2,7.2,1.5,10.9,0.9c0.2-3.7,0.5-7.5,0.5-11.2c0-2-0.1-4-0.6-5.8
	c-0.4-1.7-1.4-3.2-2.8-4.3c-0.2-0.1-0.3-0.2-0.5-0.3c-0.8,0.7-2.6,0.9-3.5,0.5c-0.5,0.3-1,0.7-1.4,1.2c-0.7,0.9-1.3,1.9-1.6,2.9
	C556.9,280.1,556.6,281.8,556.5,283.5L556.5,283.5z"/>
<path class="st43" d="M559.1,275.5c0.9,0.2,1.9,0.3,2.8,0c0.5-0.1,1-0.3,1.4-0.6c0.4-0.2,0.7-0.4,1-0.7l0-0.2v-0.1l-0.1-0.3
	c-0.2-1-0.3-2.1-0.5-3.1c-0.1-1-0.3-1.9-0.4-2.9c-1.1,0.5-2.1,1.2-3.1,1.9c0,0.7-0.1,1.3-0.1,2c0,0.5-0.1,1.1-0.2,1.6
	c0,0.3-0.1,0.6-0.1,0.9c-0.1,0.3-0.1,0.6-0.2,0.9C559.5,275.1,559.3,275.3,559.1,275.5L559.1,275.5z"/>
<path class="st44" d="M560,273.1c1.1-1,2.4-1.9,3.8-2.6c-0.1-1-0.3-1.9-0.4-2.9c-1.1,0.5-2.1,1.2-3.1,1.9c0,0.7-0.1,1.3-0.1,2
	C560.1,272,560.1,272.5,560,273.1z"/>
<path class="st7" d="M580.3,327.3c0,0,0,2.6-2.3,2.5l-0.4,9.2l6.4-11L580.3,327.3z"/>
<path class="st4" d="M579.2,333.8c0-0.1,0-0.1-0.1-0.1c0,0-0.1,0-0.1,0c-0.5,0.1-1,0.2-1.5,0.4c0,0-0.1,0.1-0.1,0.1
	c0,0.1,0,0.1,0,0.2c0,0,0,0,0,0.1c0,0,0,0,0.1,0c0.1,0,0.1,0,0.2,0c0.4-0.2,0.9-0.3,1.3-0.4c0,0,0.1,0,0.1,0c0,0,0.1,0,0.1-0.1
	C579.2,333.9,579.2,333.8,579.2,333.8L579.2,333.8z M579.3,332.6C579.3,332.6,579.3,332.6,579.3,332.6c0-0.1-0.1-0.1-0.1-0.1
	c0,0,0,0-0.1,0c0,0-0.1,0-0.1,0c-0.5,0.1-1,0.2-1.5,0.4c0,0,0,0-0.1,0.1s0,0,0,0.1c0,0.1,0,0.1,0,0.2c0,0,0,0,0,0.1c0,0,0,0,0.1,0
	c0,0,0.1,0,0.1,0c0,0,0.1,0,0.1,0c0.4-0.2,0.9-0.3,1.3-0.4c0,0,0.1,0,0.1,0c0,0,0.1,0,0.1-0.1C579.3,332.7,579.3,332.7,579.3,332.6
	L579.3,332.6z M579.4,331.5C579.4,331.5,579.4,331.4,579.4,331.5c0-0.1-0.1-0.1-0.1-0.1c0,0-0.1,0-0.1,0c-0.5,0.1-1,0.2-1.5,0.4
	c0,0-0.1,0.1-0.1,0.1c0,0.1,0,0.1,0,0.2c0,0,0.1,0.1,0.1,0.1c0,0,0.1,0,0.2,0c0.4-0.2,0.9-0.3,1.3-0.4c0,0,0.1,0,0.1,0
	c0,0,0.1,0,0.1-0.1C579.4,331.6,579.4,331.5,579.4,331.5L579.4,331.5z M578.7,339.3c0,0-0.1,0.1-0.1,0.1c0,0-0.1,0-0.1,0.1
	c0,0-0.1,0-0.1,0c0,0-0.1,0-0.1,0l-0.7-0.4l6.4-11l0.7,0.4c0,0,0.1,0.1,0.1,0.1c0,0,0,0.1,0.1,0.1c0,0,0,0.1,0,0.1c0,0,0,0.1,0,0.1
	L578.7,339.3z"/>
<path class="st7" d="M554.8,336.7c0,0-2.3,1.2-3.3-0.9l-8.4,3.9l12.7,0.6L554.8,336.7z"/>
<path class="st4" d="M548.3,338.8c0,0,0.1,0,0.1,0c0,0,0.1,0,0.1,0c0,0,0,0,0.1-0.1s0,0,0-0.1c0,0,0-0.1,0-0.1c0,0,0,0,0-0.1
	c-0.3-0.4-0.6-0.8-1-1.1c0,0-0.1,0-0.2,0c-0.1,0-0.1,0-0.1,0.1c0,0,0,0,0,0.1c0,0,0,0.1,0,0.1c0,0,0,0,0,0.1s0,0,0.1,0.1
	C547.6,338,547.9,338.3,548.3,338.8C548.2,338.7,548.2,338.8,548.3,338.8L548.3,338.8z M549.3,338.3c0,0,0.1,0,0.1,0
	c0,0,0.1,0,0.1,0c0,0,0,0,0.1-0.1c0,0,0,0,0-0.1c0,0,0-0.1,0-0.1c0,0,0,0,0-0.1c-0.3-0.4-0.6-0.8-1-1.1c0,0,0,0-0.1,0
	c0,0-0.1,0-0.1,0c0,0-0.1,0-0.1,0c0,0,0,0-0.1,0.1c0,0,0,0.1,0,0.1c0,0,0,0.1,0.1,0.1C548.7,337.5,549,337.9,549.3,338.3
	C549.3,338.3,549.3,338.3,549.3,338.3L549.3,338.3z M550.4,337.8c0,0,0.1,0,0.1,0s0.1,0,0.1-0.1c0,0,0-0.1,0-0.1c0,0,0-0.1,0-0.1
	c-0.3-0.4-0.6-0.8-1-1.1c0,0-0.1,0-0.2,0c-0.1,0-0.1,0-0.1,0.1c0,0,0,0,0,0.1c0,0,0,0,0,0.1c0,0.1,0,0.1,0.1,0.1
	C549.7,337,550,337.4,550.4,337.8C550.3,337.8,550.4,337.8,550.4,337.8L550.4,337.8z M543.3,340.8c-0.1,0-0.2-0.1-0.2-0.2
	c0-0.1,0-0.1,0-0.2l0-0.7l12.7,0.6l0,0.7c0,0.1,0,0.1,0,0.2c0,0-0.1,0.1-0.1,0.1c-0.1,0.1-0.2,0.1-0.3,0.1l-11.9-0.5
	C543.4,340.8,543.4,340.8,543.3,340.8L543.3,340.8z"/>
<path class="st45" d="M567.7,297.6c0,0-2.9,17.2,14.6,29.5l-4.7,5.1c0,0-19.6-13.4-17.6-30.7L567.7,297.6z"/>
<path class="st46" d="M568.3,307.6c-0.3,0.4-0.5,0.7-0.8,1.1c-0.7,1-1.2,2-1.7,3.1c-0.8,1.8-1.5,3.6-2.1,5.5
	c-2.7-4.6-4.5-10-3.8-15.8l7.7-3.9C567.6,297.6,566.9,301.8,568.3,307.6L568.3,307.6z"/>
<path class="st47" d="M556.4,280.4c-0.7,6.1-0.8,12.3-0.3,18.4c0,0-9.6,18.9-7.5,37.8l7.3,1.8c0,0,1.7-24.9,11.6-37.4l0.4-12.5
	l-7.9-1.3l-0.7-6.7L556.4,280.4z"/>
<path class="st45" d="M567.6,289.9c0.1,0,0.1-0.1,0.2-0.2c0.1-0.1,0.1-0.2,0.1-0.3c0-0.1,0.1-0.3,0.1-0.4c0-0.1,0-0.2,0.1-0.3
	c0-0.1,0-0.2,0.1-0.3c0-0.1,0-0.2,0.1-0.3c0-0.1,0-0.2,0.1-0.3c0-0.1,0-0.2,0.1-0.4l0.1-0.4c0-0.3,0.1-0.6,0.1-0.9c0-0.7,0-1.4,0-2
	c0-0.8-0.1-1.6-0.2-2.3c-0.1-0.8-0.3-1.7-0.5-2.5c-0.2-0.9-0.6-1.8-1.1-2.6c-0.3-0.4-0.6-0.8-1-1.2c-0.4-0.3-0.8-0.6-1.3-0.8
	c-0.2-0.1-0.5-0.2-0.8-0.2h-0.8c-0.5,0-0.9,0.2-1.4,0.4c-0.4,0.2-0.8,0.4-1.1,0.7c-0.1,0.1-0.2,0.1-0.2,0.2l-0.2,0.2l-0.2,0.2
	c-0.1,0.1-0.1,0.2-0.2,0.2c-0.2,0.3-0.4,0.6-0.6,1c-0.1,0.3-0.2,0.6-0.3,1c-0.1,0.5-0.3,1.1-0.3,1.7c0,0.4-0.1,0.8,0,1.3
	c0,0.7,0.1,1.1,0.1,1.1s0.2-0.4,0.3-1c0.1-0.3,0.1-0.7,0.2-1.2c0.1-0.5,0.2-1,0.4-1.5c0.2-0.6,0.5-1.1,0.9-1.6
	c0.1-0.1,0.1-0.1,0.2-0.2l0.2-0.2l0.2-0.2c0.1-0.1,0.1-0.1,0.2-0.2c0.3-0.2,0.6-0.4,0.9-0.5c0.3-0.1,0.7-0.2,1-0.2h0.5
	c0.2,0,0.3,0.1,0.5,0.1c0.7,0.3,1.3,0.8,1.7,1.5c0.4,0.7,0.7,1.5,0.9,2.3c0.2,0.8,0.4,1.6,0.5,2.4c0.1,0.8,0.2,1.5,0.3,2.2
	s0.1,1.3,0.1,1.9v3.3c0,0.1,0,0.2,0,0.3C567.5,289.8,567.5,289.9,567.6,289.9L567.6,289.9z"/>
<path class="st48" d="M553,275.2h-14.6v14.6H553V275.2z"/>
<path class="st49" d="M531,272.7l7.3,2.4v14.6l-7.3-2.4V272.7z"/>
<path class="st50" d="M553,275.2l-7.3-2.4H531l7.3,2.4H553z"/>
<path class="st51" d="M543.9,276.1h-5v2.2h5V276.1z"/>
<path class="st52" d="M544.4,287l0,2.8h2.5V287H544.4z M544.4,275.2l0,2.8h2.5v-2.8H544.4z M540.9,272.7h-2.4l5.9,2.4h2.5
	L540.9,272.7L540.9,272.7z"/>
<path class="st43" d="M566,280.7v0.1c0,1.6-0.4,3.1-1.1,4.5c-0.3,0.5-0.6,1-0.9,1.5c-0.4,0.5-0.8,1-1.3,1.4c-1,0.9-2.2,1.5-3.5,1.8
	c-0.6,0.1-1.2,0.2-1.8,0.2c-0.6,0-1.1,0-1.7-0.1c-0.5-0.1-1-0.2-1.5-0.3c-0.9-0.3-1.7-0.7-2.5-1.1c-0.7-0.4-1.3-0.8-1.9-1.3
	c-0.5-0.4-0.9-0.8-1.3-1.2l-0.1-0.1c-0.3,0-0.5,0-0.8,0c-0.3,0-0.5-0.1-0.8-0.2c-0.3-0.1-0.5-0.2-0.7-0.3c-0.2-0.1-0.4-0.3-0.6-0.5
	c-0.4-0.3-0.7-0.8-1-1.2c-0.1-0.2-0.2-0.5-0.3-0.7c-0.1-0.3-0.1-0.5-0.1-0.8c0-0.2,0-0.4,0-0.5c0-0.1,0-0.2,0.1-0.3
	c0-0.1,0.1-0.2,0.2-0.3c0.5-0.4,1,0,1.3,0.4c0.3,0.4,0.5,0.8,1,1c0.1,0,0.3,0,0.4,0c0.1,0,0.3-0.1,0.4-0.2c0,0,0.1-0.1,0.1-0.1
	c0-0.1,0.1-0.1,0.2-0.1c0.1,0,0.1,0,0.2-0.1c0.1,0,0.1,0,0.2,0c0.1,0,0.1,0.1,0.2,0.1c0,0,0.1,0.1,0.1,0.1c0.1,0.2,0.2,0.4,0.2,0.6
	c0.1,0.4,0.2,0.9,0.2,1.3c0.6,0.2,1.4,0.5,2.3,0.8c0.6,0.2,1.2,0.4,1.8,0.5c0.7,0.1,1.3,0.2,2,0.2c0.3,0,0.7,0,1,0
	c0.3,0,0.7-0.1,1-0.2c0.3-0.1,0.6-0.2,0.9-0.3c0.3-0.1,0.5-0.3,0.7-0.4c0.2-0.2,0.4-0.4,0.6-0.6c0.2-0.2,0.4-0.4,0.5-0.7
	c0.3-0.5,0.6-1,0.8-1.6c0.2-0.5,0.3-1.1,0.4-1.7c0.1-0.4,0.1-0.9,0.2-1.3c0.7,0.5,1.5,0.9,2.4,1.2
	C564.2,280.6,565.1,280.7,566,280.7L566,280.7z"/>
<path class="st47" d="M559.7,260.1c0.1-0.4,0.3-0.8,0.6-1.1c0.3-0.3,0.6-0.5,1-0.7c0.8-0.3,1.6-0.4,2.4-0.2c0.4,0.1,0.8,0.3,1.2,0.5
	c0.4,0.2,0.7,0.5,1,0.8c0.3,0.3,0.5,0.7,0.7,1.1c0.2,0.4,0.3,0.8,0.3,1.2c0,1.3-0.7,2.5-1.4,3.7
	C563.9,263.2,561.9,261.4,559.7,260.1z"/>
<path class="st46" d="M558.8,258.6c-0.4-0.3-0.8-0.4-1.2-0.4c-0.1,0-0.3,0.1-0.4,0.2c-0.1,0.1-0.2,0.2-0.3,0.3
	c-0.1,0.1-0.2,0.3-0.2,0.4c0,0.1-0.1,0.3,0,0.4c0,0.3,0.1,0.6,0.3,0.9c0.1,0.3,0.3,0.5,0.6,0.7c0.2,0.2,0.4,0.3,0.6,0.5
	c0.2,0.1,0.4,0.3,0.6,0.4c0.4,0.2,0.9,0.4,1.4,0.5c0.2,0,0.5,0.1,0.7,0.1c0.5,0,1,0,1.4-0.1c0.2-0.1,0.5-0.1,0.7-0.2
	c0.2-0.1,0.8-0.3,1-0.5c0.2-0.4-0.2-0.4-0.5-0.6C561.8,260.2,560.3,259.4,558.8,258.6L558.8,258.6z"/>
<path class="st7" d="M559.2,263.2c0.1,0,0.2,0,0.3,0c0.1,0,0.2,0.1,0.3,0.1c0.1,0.1,0.1,0.2,0.1,0.3c0,0.1,0,0.2,0,0.3
	c-0.1,0.8-0.4,1.5-0.9,2.2c-0.2-0.2-0.3-0.4-0.4-0.6c-0.2-0.4-0.3-0.9-0.2-1.4c0-0.2,0.1-0.5,0.2-0.7
	C558.8,263.4,559,263.2,559.2,263.2L559.2,263.2z M562.9,266.7c-0.1-0.9-0.1-1.7,0.1-2.6c0.2-0.9,0.6-1.8,1.1-2.6
	c0.4,0.4,0.8,0.8,1,1.3c0.2,0.5,0.4,1.1,0.4,1.7c0,0.3,0,0.6,0,0.9c0,0.3-0.1,0.6-0.1,0.9c-0.1,0.3-0.2,0.6-0.3,0.8
	s-0.2,0.5-0.4,0.8c-0.1,0.3-0.3,0.5-0.5,0.7c-0.2,0.2-0.4,0.4-0.6,0.6C563.2,268.4,563,267.5,562.9,266.7L562.9,266.7z"/>
<path class="st43" d="M559.2,263c0.2,1-0.3,2.1-0.7,3.1c-0.4,1-0.8,2.1-0.4,3.1c0.1,0.3,0.3,0.5,0.5,0.7c0.2,0.2,0.4,0.4,0.7,0.5
	c0.2,0.1,0.5,0.2,0.8,0.3c0.3,0,0.5,0.1,0.8,0c0.5-0.1,1.1-0.3,1.5-0.7c0.4-0.3,0.8-0.8,1.1-1.3c0.2-0.5,0.4-1,0.5-1.6
	c0.1-0.5,0.1-1.1,0-1.7c-0.1-1.1-0.4-2.2-0.7-3.3C561.9,261.5,560.4,262,559.2,263L559.2,263z"/>
<path class="st43" d="M563.7,265.8c0.1-0.1,0.3-0.3,0.4-0.4c0.1-0.1,0.2-0.1,0.3-0.1c0.1,0,0.2,0,0.3,0c0.1,0,0.2,0.1,0.3,0.2
	c0.1,0.1,0.1,0.2,0.2,0.3c0,0.1,0.1,0.2,0.1,0.4c0,0.1,0,0.2-0.1,0.4c0,0.1-0.1,0.2-0.2,0.3c-0.1,0.1-0.2,0.2-0.2,0.3
	c-0.1,0.1-0.2,0.1-0.3,0.2c-0.1,0-0.2,0.1-0.4,0.1c-0.1,0-0.2,0-0.4,0c-0.1,0-0.2-0.1-0.3-0.1C563.6,266.9,563.7,266.3,563.7,265.8
	L563.7,265.8z"/>
<path class="st7" d="M558.5,263.8c1.6,0,3.1-0.4,4.5-1.2c-0.1,0.5-0.1,1,0,1.4c0.1,0.3,0.2,0.6,0.4,0.9c0.2,0.3,0.4,0.5,0.7,0.7
	c0.6-0.9,0.9-2,0.8-3.1c0-0.1,0-0.3-0.1-0.4c-0.2-0.3-0.5-0.6-0.7-0.8c-0.4-0.4-0.9-0.7-1.5-0.9c-0.4-0.1-0.7-0.2-1.1-0.3
	c-0.8-0.1-1.5,0-2.2,0.2c-0.4,0.1-0.7,0.3-1,0.5c-0.1,0.1-0.2,0.2-0.3,0.3c-0.2,0.3-0.4,0.6-0.6,0.9c0,0.1,0,0.2-0.1,0.2
	c0,0.1,0,0.2,0,0.2c0,0.1,0,0.2,0,0.2c0,0.1,0,0.2,0.1,0.2c0,0.1,0.1,0.1,0.1,0.2c0,0.1,0.1,0.1,0.2,0.2c0.1,0.1,0.1,0.1,0.2,0.1
	c0.1,0,0.1,0.1,0.2,0.1C558.2,263.8,558.3,263.8,558.5,263.8L558.5,263.8z"/>
</svg>
