<svg version="1.1" xmlns="http://www.w3.org/2000/svg" xmlns:xlink="http://www.w3.org/1999/xlink" width="630" height="384" viewBox="0 0 630 384">
<style type="text/css">
	.st0{fill:#EAF1FC;}
	.st1{fill:#F8F8FF;}
	.st2{fill:#FFFFFF;}
	.st3{fill:#D6E0F0;}
	.st4{fill:#FCFBFC;}
	.st5{fill:#E9EDF4;}
	.st6{fill:#CDE4F7;}
	.st7{fill:#BBD9EA;}
	.st8{fill:#F8C47A;}
	.st9{fill:#CE8D4D;}
	.st10{fill:#FFDA35;}
	.st11{fill:#FF8500;}
	.st12{fill:#AF7309;}
	.st13{fill:#A97000;}
	.st14{fill:#F4A721;}
	.st15{fill:#E08F73;}
	.st16{fill:#F09976;}
	.st17{fill:#E8815F;}
	.st18{fill:#02819F;}
	.st19{fill:#05616B;}
	.st20{fill:#0B2B46;}
	.st21{fill:#047487;}
	.st22{fill:#64CE38;}
	.st23{fill:#292929;}
	.st24{fill:#3A3A3A;}
</style>
<path class="st0" d="M315,384c174,0,315-20.5,315-45.7c0-25.2-141-45.7-315-45.7S0,313.1,0,338.3C0,363.5,141,384,315,384z"/>
<path class="st1" d="M573.4,321.1c35.9-75.6,55.7-220.2-22.1-268.2c-50.9-31.4-104,9-158.5,10.8c-42.8,1.4-84-32.7-122.6-42.5
	c-101-25.5-260,41-190.2,299.9C254.9,320.6,398.6,321.6,573.4,321.1z"/>
<path class="st2" d="M280.2,208.5H177.7c-1.4,0-2.5-1.2-2.5-2.5V55.5c-3.9-56.3,18.4-54.3,53.7-54.3h0.1
	c56.2-3.7,53.8,24.4,53.8,54.4V206C282.7,207.3,281.6,208.5,280.2,208.5z"/>
<path class="st3" d="M280.7,210.7H176.1c-1.7,0-3.1-1.4-3.1-3.2V33c0-18.2,14.6-33,32.6-33h45.6c18,0,32.6,14.8,32.6,33v174.6
	C283.8,209.3,282.4,210.7,280.7,210.7z M176.3,207.4h104.2V33c0-16.4-13.1-29.7-29.3-29.7h-45.6c-16.1,0-29.3,13.3-29.3,29.7V207.4z
	"/>
<path class="st3" d="M228.4,209.4c-0.9,0-1.6-0.7-1.6-1.7V1.7c0-0.9,0.7-1.7,1.6-1.7c0.9,0,1.6,0.7,1.6,1.7v206
	C230.1,208.6,229.3,209.4,228.4,209.4z"/>
<path class="st2" d="M471.9,208.5H369.4c-1.4,0-2.5-1.2-2.5-2.5V55.5C363-0.8,385.3,1.2,420.6,1.2h0.1c56.2-3.7,53.8,24.4,53.8,54.4
	V206C474.4,207.3,473.2,208.5,471.9,208.5z"/>
<path class="st3" d="M282.1,161.7H174.6c-0.9,0-1.6-0.7-1.6-1.7c0-0.9,0.7-1.7,1.6-1.7h107.5c0.9,0,1.6,0.7,1.6,1.7
	C283.8,161,283.1,161.7,282.1,161.7z M282.1,58.3H174.6c-0.9,0-1.6-0.7-1.6-1.7c0-0.9,0.7-1.7,1.6-1.7h107.5c0.9,0,1.6,0.7,1.6,1.7
	C283.8,57.6,283.1,58.3,282.1,58.3z M282.1,110.1H174.6c-0.9,0-1.6-0.7-1.6-1.7c0-0.9,0.7-1.7,1.6-1.7h107.5c0.9,0,1.6,0.7,1.6,1.7
	C283.8,109.3,283.1,110.1,282.1,110.1z"/>
<path class="st3" d="M472.9,210.7H368.3c-1.7,0-3.1-1.4-3.1-3.2V33c0-18.2,14.6-33,32.6-33h45.6c18,0,32.6,14.8,32.6,33v174.6
	C476,209.3,474.6,210.7,472.9,210.7z M368.5,207.4h104.2V33c0-16.4-13.1-29.7-29.3-29.7h-45.6c-16.1,0-29.3,13.3-29.3,29.7V207.4z"
	/>
<path class="st3" d="M420.5,209.4c-0.9,0-1.6-0.7-1.6-1.7V1.7c0-0.9,0.7-1.7,1.6-1.7s1.6,0.7,1.6,1.7v206
	C422.2,208.6,421.5,209.4,420.5,209.4z"/>
<path class="st3" d="M474.3,161.7H366.8c-0.9,0-1.6-0.7-1.6-1.7c0-0.9,0.7-1.7,1.6-1.7h107.5c0.9,0,1.6,0.7,1.6,1.7
	C475.9,161,475.2,161.7,474.3,161.7z M474.3,58.3H366.8c-0.9,0-1.6-0.7-1.6-1.7c0-0.9,0.7-1.7,1.6-1.7h107.5c0.9,0,1.6,0.7,1.6,1.7
	C476,57.6,475.2,58.3,474.3,58.3z M474.3,110.1H366.8c-0.9,0-1.6-0.7-1.6-1.7c0-0.9,0.7-1.7,1.6-1.7h107.5c0.9,0,1.6,0.7,1.6,1.7
	C476,109.3,475.2,110.1,474.3,110.1z"/>
<path class="st3" d="M328,154c11.6,0,21-9.4,21-21s-9.4-21-21-21s-21,9.4-21,21S316.4,154,328,154z"/>
<path class="st4" d="M327.5,149c8.6,0,15.5-7.2,15.5-16s-6.9-16-15.5-16s-15.5,7.2-15.5,16S318.9,149,327.5,149z"/>
<path class="st3" d="M318.4,127.9l9.1,6.9c0.2,0.2,0.5,0.3,0.8,0.2c0.3,0,0.5-0.1,0.7-0.3l8.6-7.9c0.2-0.2,0.3-0.5,0.3-0.7
	c0-0.3-0.1-0.5-0.3-0.7c-0.2-0.2-0.5-0.3-0.8-0.3s-0.6,0.1-0.8,0.3l-7.9,7.3l-8.3-6.3c-0.2-0.1-0.4-0.2-0.6-0.2
	c-0.2,0-0.5,0-0.7,0.1c-0.1,0.1-0.2,0.1-0.3,0.3c-0.1,0.1-0.2,0.2-0.2,0.3c-0.1,0.1-0.1,0.3-0.1,0.4c0,0.1,0.1,0.3,0.1,0.4
	C318.2,127.7,318.3,127.8,318.4,127.9L318.4,127.9z"/>
<path class="st3" d="M328,135c1.1,0,2-0.9,2-2s-0.9-2-2-2s-2,0.9-2,2S326.9,135,328,135z"/>
<path class="st0" d="M353.3,7h2.8v45.1h-2.8V7z"/>
<path class="st3" d="M376.7,81.3c0-5.8-2.3-11.4-6.4-15.4c-4.1-4.1-9.7-6.4-15.4-6.4s-11.3,2.3-15.4,6.4c-4.1,4.1-6.4,9.7-6.4,15.4
	H376.7z"/>
<path class="st3" d="M362.7,59.6c0,6.4-3.6,11.6-8.1,11.6c-4.5,0-8.1-5.2-8.1-11.6s3.6-11.6,8.1-11.6
	C359.1,48,362.7,53.2,362.7,59.6z"/>
<path class="st5" d="M142.9,144.1c-4.7,1.7-2.5,8.2,0.5,11.2c3.3,3.2,8.3,5,11.2,1.5c0.2-0.2,0.3-0.5,0.3-0.7c0-0.3,0-0.6-0.1-0.8
	c-0.1-0.2-0.3-0.4-0.6-0.6s-0.5-0.2-0.8-0.1c-2,0.1-3.6-0.5-2.8-1.9c0.8-1.5,3.9,1.4,5,1.4c2.6,0,3.6-1.9,3-3.5
	c-0.5-1.3-4-1.8-3.2-2.9c1.2-1.5,3.1,0.9,4.4-0.2c2-1.7,1.7-4.9,0.8-6.1c-0.7-0.9-3.7-2.4-5.9-1.5c-2.1,0.9-1.5,5.5-2.4,5.6
	c-1.9,0.1-0.4-3.9-1.8-5.2c-0.9-0.7-3.5-0.3-4.1,1.5c-0.8,2.3,2.3,6.5,0,6.8c-2.1,0.3-0.9-2.1-1.5-3.5
	C144.6,144.7,143.8,143.8,142.9,144.1z"/>
<path class="st6" d="M128.1,181.3L128.1,181.3c-0.1,0-0.1,0-0.1,0c0,0,0,0,0-0.1s0-0.1,0-0.1c0,0,0-0.1,0-0.1
	c5.2-15.6,15.7-28.9,29.6-37.6c0,0,0.1,0,0.2,0c0.1,0,0.1,0,0.1,0.1c0,0,0,0.1,0,0.2c0,0.1,0,0.1-0.1,0.1
	c-13.9,8.6-24.3,21.8-29.4,37.4c0,0,0,0.1-0.1,0.1C128.2,181.3,128.2,181.3,128.1,181.3z"/>
<path class="st5" d="M129.8,130.8c-3.5,3.7,1.4,8.5,5.5,9.7c4.4,1.4,9.7,0.7,10.7-3.7c0.1-0.3,0.1-0.6,0-0.8
	c-0.1-0.3-0.3-0.5-0.5-0.7c-0.2-0.2-0.5-0.3-0.8-0.3c-0.3,0-0.6,0.1-0.8,0.2c-1.8,1-3.4,1.2-3.4-0.5c0-1.7,4.1-0.5,5.1-1
	c2.3-1.1,2.3-3.3,1.1-4.5c-1-1-4.4,0.2-4.1-1.1c0.4-1.9,3.1-0.6,3.8-2.2c1.1-2.4-0.7-5.2-2.1-5.8c-1.1-0.5-4.4-0.5-5.9,1.4
	s1.2,5.6,0.3,6.1c-1.6,0.9-2.1-3.4-4-3.8c-1.1-0.2-3.3,1.3-3.1,3.2c0.3,2.4,5,4.8,3.1,6.1c-1.7,1.2-1.8-1.5-2.9-2.4
	C131.5,130.5,130.4,130.1,129.8,130.8z"/>
<path class="st6" d="M133.2,170.7c0,0-0.1,0-0.1-0.1c0,0-0.1-0.1-0.1-0.1c-2.4-16.3,1-32.8,9.6-46.9c0,0,0,0,0-0.1c0,0,0,0,0.1,0
	c0,0,0.1,0,0.1,0c0,0,0.1,0,0.1,0c0,0,0,0,0.1,0.1c0,0,0,0.1,0,0.1c0,0,0,0.1,0,0.1c0,0,0,0.1,0,0.1c-8.5,13.9-11.9,30.4-9.5,46.6
	c0,0.1,0,0.1,0,0.2S133.2,170.6,133.2,170.7L133.2,170.7z"/>
<path class="st5" d="M126.2,139c4.3,2.6,0.8,8.6-2.8,10.8c-3.9,2.4-9.2,3.2-11.2-0.8c-0.1-0.2-0.2-0.5-0.2-0.8
	c0-0.3,0.1-0.5,0.3-0.8s0.4-0.4,0.7-0.4c0.3-0.1,0.6-0.1,0.8,0c1.9,0.5,3.6,0.3,3.1-1.3s-4.1,0.6-5.2,0.3c-2.5-0.5-3.1-2.6-2.2-4
	c0.8-1.2,4.3-0.9,3.7-2.2c-0.9-1.8-3.2,0.2-4.2-1.1c-1.7-2.1-0.6-5.2,0.5-6.1c0.9-0.8,4.1-1.6,6.1-0.2c1.9,1.3,0.3,5.7,1.3,5.9
	c1.8,0.5,1.2-3.8,2.9-4.7c1-0.5,3.5,0.5,3.7,2.3c0.3,2.4-3.6,5.9-1.4,6.7c2,0.7,1.3-1.9,2.2-3.1C124.4,139.3,125.3,138.6,126.2,139z
	"/>
<path class="st6" d="M133.1,178.5c-0.1,0-0.1,0-0.1-0.1c0,0-0.1-0.1-0.1-0.1c-1.9-16.2-9.4-31.3-21.2-42.6c0,0-0.1-0.1-0.1-0.1
	c0-0.1,0-0.1,0.1-0.1c0,0,0.1-0.1,0.1-0.1c0.1,0,0.1,0,0.1,0.1c11.9,11.3,19.4,26.5,21.3,42.8c0,0.1,0,0.1,0,0.1
	C133.2,178.4,133.2,178.5,133.1,178.5L133.1,178.5z"/>
<path class="st3" d="M124.8,186.1h15.4l2.3-21.1h-20.2L124.8,186.1z"/>
<path class="st5" d="M142.6,168.8h-20.3c-0.1,0-0.3-0.1-0.4-0.1c-0.1-0.1-0.2-0.2-0.2-0.4l-0.3-2.6c0-0.1,0-0.2,0-0.2
	c0-0.1,0.1-0.1,0.1-0.2c0.1-0.1,0.1-0.1,0.2-0.1c0.1,0,0.1,0,0.2,0h20.8c0.1,0,0.2,0,0.2,0c0.1,0,0.1,0.1,0.2,0.1
	c0.1,0.1,0.1,0.1,0.1,0.2c0,0.1,0,0.2,0,0.2l-0.3,2.6c0,0.1-0.1,0.3-0.2,0.4C142.8,168.7,142.7,168.7,142.6,168.8z"/>
<path class="st3" d="M103.5,186c-0.1,0-0.3,0.1-0.4,0.1c-0.1,0.1-0.1,0.2-0.1,0.3v1.3c0,0.1,0.1,0.3,0.1,0.4
	c0.1,0.1,0.2,0.1,0.4,0.1h48.8c0.1,0,0.3-0.1,0.3-0.1c0.1-0.1,0.1-0.2,0.1-0.4v-1.3c0-0.1-0.1-0.3-0.1-0.3c-0.1-0.1-0.2-0.1-0.3-0.1
	H103.5z"/>
<path class="st5" d="M510.5,177.3h4.9v-27.9c-0.8-0.4-1.6-0.6-2.4-0.6c-0.8,0-1.7,0.2-2.4,0.6V177.3z"/>
<path class="st6" d="M495.6,177.3h4.2v-27.9c-0.6-0.4-1.4-0.6-2.1-0.6c-0.8,0-1.5,0.2-2.1,0.6L495.6,177.3L495.6,177.3z"/>
<path class="st2" d="M527.1,177.3l3.9-1.8l-11.7-25.4c-0.7-0.1-1.5,0.1-2.2,0.4c-0.7,0.3-1.3,0.8-1.7,1.4L527.1,177.3z M499.8,177.2
	h4.9v-27.9c-0.8-0.4-1.6-0.6-2.4-0.6s-1.7,0.2-2.4,0.6V177.2z"/>
<path class="st6" d="M504.7,177.3h5.8v-27.9c-1.9-0.8-3.9-0.8-5.8,0L504.7,177.3L504.7,177.3z"/>
<path class="st3" d="M488.5,177.5c-0.1,0-0.3,0.1-0.4,0.1c-0.1,0.1-0.1,0.2-0.1,0.3v1.3c0,0.1,0.1,0.3,0.1,0.3
	c0.1,0.1,0.2,0.1,0.4,0.1h48.8c0.1,0,0.3-0.1,0.3-0.1c0.1-0.1,0.1-0.2,0.1-0.3V178c0-0.1-0.1-0.3-0.1-0.3c-0.1-0.1-0.2-0.1-0.3-0.1
	H488.5z"/>
<path class="st5" d="M535.5,233.1h4.4v24.7h-4.4V233.1z"/>
<path class="st3" d="M553.4,258.9h-31.3c0-1.2,0.5-2.4,1.3-3.2c0.9-0.9,2-1.3,3.2-1.3h22.2c1.2,0,2.4,0.5,3.2,1.3
	C552.9,256.6,553.4,257.7,553.4,258.9z"/>
<path class="st6" d="M553.5,237.1h-31.6c-0.4,0-0.7-0.1-1.1-0.3c-0.3-0.2-0.6-0.4-0.8-0.8c-0.2-0.3-0.3-0.7-0.4-1
	c0-0.4,0-0.7,0.2-1.1l9.6-21.3c0.2-0.4,0.5-0.7,0.8-1c0.4-0.2,0.8-0.4,1.2-0.4h12.5c0.4,0,0.9,0.1,1.2,0.4c0.4,0.2,0.6,0.6,0.8,1
	l9.6,21.3c0.2,0.3,0.2,0.7,0.2,1.1c0,0.4-0.2,0.7-0.4,1c-0.2,0.3-0.5,0.6-0.8,0.7C554.3,237,553.9,237.1,553.5,237.1z"/>
<path class="st5" d="M484.8,258.9h87.8v77.6h-87.8V258.9z"/>
<path class="st3" d="M492.3,264.8h71.8v27.2h-71.8V264.8z M492.3,297.7h71.8v31.5h-71.8V297.7z M488.4,336.6h7.8v6.8h-7.8V336.6z
	 M560.3,336.6h7.8v6.8h-7.8V336.6z"/>
<path class="st4" d="M499.6,307.7c2.1,0,3.8-1.8,3.8-3.9c0-2.1-1.8-3.8-3.9-3.8c-2.1,0-3.8,1.8-3.8,3.9
	C495.7,306.1,497.4,307.8,499.6,307.7z"/>
<path class="st5" d="M496.9,269.9l35.7,0l0,9.5l-35.7,0L496.9,269.9z"/>
<path class="st4" d="M504,280.1h39.3v12.4H504V280.1z"/>
<path class="st6" d="M332.3,364.2c69.6,0,126-10.8,126-24.2s-56.4-24.2-126-24.2c-69.6,0-126,10.8-126,24.2S262.8,364.2,332.3,364.2
	z"/>
<path class="st7" d="M330.4,355.2c59.9,0,108.4-7.6,108.4-16.9c0-9.3-48.5-16.9-108.4-16.9c-59.9,0-108.4,7.6-108.4,16.9
	C221.9,347.6,270.5,355.2,330.4,355.2z"/>
<path class="st8" d="M216.9,304.3h230.3v22.6H216.9V304.3z"/>
<path class="st9" d="M221.9,233.1h221.7v45.5H221.9V233.1z M253.8,350.7h-5.9l-3-23.8h11.9L253.8,350.7z M416.8,350.7h-5.9l-3-23.8
	h11.9L416.8,350.7z"/>
<path class="st6" d="M447.3,304.3H217.4l4.5-25.7h221.7L447.3,304.3z"/>
<path class="st10" d="M430.6,297.3H236.1c-4.7,0-7.9-5.9-6.4-11.5l2.1-7.7c1-3.5,3.5-5.8,6.4-5.8h190.7c3.1,0,5.7,2.6,6.5,6.3
	l1.7,7.7C438.3,291.8,435.1,297.3,430.6,297.3z"/>
<path class="st2" d="M315.4,274.6H260c-3.1,0-6-1.2-8.2-3.4c-2.2-2.2-3.4-5.1-3.4-8.2c0-3.1,1.2-6,3.4-8.2c2.2-2.2,5.1-3.4,8.2-3.4
	h55.4c3.1,0,6,1.2,8.2,3.4c2.2,2.2,3.4,5.1,3.4,8.2c0,1.5-0.3,3-0.9,4.4c-0.6,1.4-1.4,2.7-2.5,3.8c-1.1,1.1-2.4,1.9-3.8,2.5
	C318.4,274.3,316.9,274.6,315.4,274.6z M406.8,274.6h-55.4c-3.1,0-6-1.2-8.2-3.4c-2.2-2.2-3.4-5.1-3.4-8.2c0-3.1,1.2-6,3.4-8.2
	c2.2-2.2,5.1-3.4,8.2-3.4h55.4c3.1,0,6,1.2,8.2,3.4c2.2,2.2,3.4,5.1,3.4,8.2c0,3.1-1.2,6-3.4,8.2
	C412.8,273.3,409.9,274.6,406.8,274.6z"/>
<path class="st5" d="M77,256.1h87.8v77.6H77V256.1z"/>
<path class="st3" d="M85.4,262h71.8v27.2H85.4V262z M85.4,295h71.8v31.5H85.4V295z M153.3,333.8h7.8v6.8h-7.8V333.8z M81.4,333.8
	h7.8v6.8h-7.8V333.8z"/>
<path class="st4" d="M105.9,289.2l0-12.4l39.3,0l0,12.4L105.9,289.2z"/>
<path class="st8" d="M236.2,230.8h207.5v5.2H239L236.2,230.8z"/>
<path class="st11" d="M428.1,304.4c0,0,5.1-4.4,3.3-10.7c-1.8-6.3-10.4-11.2-20.7-9.2c-10.3,2-18.5,12.9-19.2,19.9H428.1z"/>
<path class="st12" d="M393.7,290.2c-1.8-1.6-4.1-2.4-6.4-2.4l1.6,6.5L393.7,290.2z M399.4,290.4l2.8-4.2c0,0,4.5,3.6,2.9,8
	C403.5,298.6,399.4,290.4,399.4,290.4z"/>
<path class="st11" d="M404,291.7c0,0,5.5,4.1,5,8.5c-0.6,4.4-6.7,5.2-15.3,4.8c-8.6-0.4-7.4-6.2-7.1-7.9
	C387,295.4,393.1,283.3,404,291.7z"/>
<path class="st13" d="M403.3,294.6c-0.2,0.6-0.7,1.1-1.2,1.5c-0.5,0.4-1.2,0.5-1.8,0.5c-2.5,0.1-2.4-1.8-2.4-1.8
	S400.3,297.5,403.3,294.6z"/>
<path class="st14" d="M399.6,297.9c-0.5-0.4-1.1-0.6-1.7-0.7c-0.6-0.1-1.2-0.1-1.9,0c-2.3,0.3-3,1.7-3.1,2.2
	c-0.2,0.5,0.8,2.7,3.7,2.2C399.5,301.2,401.1,299.1,399.6,297.9z"/>
<path class="st13" d="M395.1,294.9c-0.2,0.6-0.7,1.1-1.2,1.5c-0.5,0.4-1.2,0.5-1.8,0.5c-2.5,0.1-2.4-1.8-2.4-1.8
	S392.1,297.8,395.1,294.9z M397.2,297.6c-0.6-0.1-1.2,0-1.8,0.3c-0.5,0.4,1,1.4,1,1.4S398.1,298,397.2,297.6z"/>
<path class="st14" d="M406.1,293.6c0,0,7.4,6.7-1.5,10.8C404.6,304.4,410.5,300.9,406.1,293.6z"/>
<path class="st12" d="M418.2,302.9c-5.8-0.8-7.4-1.7-8.1,0.6c-0.8,2.3,13.3,5.5,18,0.9c4.7-4.6,3.6-9.5,3.6-9.5
	S429.1,304.4,418.2,302.9z"/>
<path class="st15" d="M215.9,282.8c-0.7-0.6-1.4-1.3-2.5-2.1c-1-0.8-2-1.7-3.2-2.7c-1.2-1-2.5-2.1-4-3.2c-1.5-1.1-2.9-2.4-4.4-3.7
	s-3.1-2.7-4.7-4.1c-1.6-1.5-3.2-2.9-4.6-4.5c-1.5-1.6-2.9-3.1-4.2-4.7c-1.3-1.5-2.5-3.1-3.6-4.5c-0.5-0.7-1.1-1.4-1.6-2.2
	c-0.3-0.3-0.5-0.7-0.7-1.1c-0.3-0.3-0.5-0.7-0.7-1c-0.3-0.3-0.4-0.6-0.7-1c-0.3-0.4-0.4-0.6-0.6-1c-0.3-0.6-0.8-1.3-1.1-1.9
	c-0.7-1.2-1.4-2.3-2.1-3.2c-0.3-0.5-0.6-0.9-0.9-1.4c-0.2-0.4-0.5-0.8-0.8-1.1c-0.1-0.2-0.3-0.4-0.5-0.5l-0.4-0.5l-0.8-0.7
	c-0.5-0.4-1.1-0.6-1.7-0.5c-0.6,0.1-1.2,0.4-1.5,0.9c-0.3,0.3-0.4,0.6-0.6,0.9c-0.1,0.2-0.2,0.4-0.2,0.6l-0.2,0.7
	c-0.1,0.6-0.3,1.1-0.4,1.7c-0.1,0.6-0.1,1.3-0.1,2c0,1.6,0.2,3.2,0.6,4.8c0.2,0.9,0.5,1.8,0.8,2.7c0.1,0.5,0.3,0.9,0.5,1.3
	c0.2,0.5,0.3,0.9,0.6,1.4c0.2,0.4,0.4,0.9,0.6,1.4c0.2,0.5,0.5,1,0.7,1.4c0.5,1,1.1,2,1.8,2.9c1.4,2,2.9,3.9,4.5,5.6
	c1.8,1.8,3.6,3.5,5.6,5.1c2,1.5,4,2.9,6.1,4.3c2,1.2,4,2.4,5.9,3.3c1.9,0.9,3.7,1.8,5.5,2.5c1.8,0.8,3.4,1.4,4.9,1.9
	c1.3,0.5,2.7,1,4.1,1.4c1,0.4,2.1,0.6,3.2,0.9c1.8,0.4,2.8,0.4,3.1,0C217.8,284.9,217.2,284,215.9,282.8z"/>
<path class="st15" d="M224.9,288c0.4-1.1,0.3-2.3-0.2-3.4c-0.5-1.1-1.2-2.1-2.1-2.9c-3.2-3-7.5-4.3-11.5-3.4
	C214.2,283.3,219.3,286.9,224.9,288z"/>
<path class="st2" d="M166.3,284.7c2.6-10.5,5.1-20.9,6.3-31.7c0.7-5.1,1.1-10.1,0.4-15.3c-0.4-3.2-1.4-6.4-2.9-9.3
	c-0.9-1.6-1.9-3-3.1-4.3c-2.9,0.7-7.7-1-9.7-3.5c-0.5,0.1-1.1,0.4-1.7,0.6c-4.5,2-8.1,6.1-10.5,10.7c-2.7,5.1-4,10.8-5.1,16.4
	c-2.1,10.7-4.9,23.2,0.4,32.6C145.8,290.3,155.8,286.1,166.3,284.7z"/>
<path class="st16" d="M168.6,225.5v-2.5c0.1-0.9,0-1.7,0.1-2.6c0.1-1.6,0.3-3.2,0.5-4.7c0.2-1.8,0.5-3.7,0.8-5.5
	c-2.3-2.6-4.8-5-7.5-7.1c-0.9,2.6-1.8,5.2-2.8,7.8c-1,2.8-2,5.7-3.2,8.4l-0.3,0.8c-0.1,0.1,0,0.2-0.1,0.3c-0.1,0.1-0.1,0.5-0.1,0.6
	c0.7,0.9,1.5,1.7,2.4,2.5c1.1,1,2.3,1.7,3.6,2.4c2.5,1.2,5.1,1.7,7.8,1.6C169.6,226.9,169.1,226.2,168.6,225.5z"/>
<path class="st17" d="M169.2,216c0.2-1.8,0.5-3.7,0.8-5.6c-2.3-2.6-4.9-5-7.6-7.2c-0.9,2.6-1.8,5.3-2.8,7.9c2.7,6.3,6.2,7.9,9.1,9.5
	C168.9,219.1,169,217.6,169.2,216z"/>
<path class="st18" d="M158.1,198.6c-1.4-3.5-2.7-7.2-1.8-10.7c0.6-2.3,1.9-4.3,3.9-5.6c1.9-1.4,4.3-2.2,6.7-2.2
	c2.4-0.1,4.7,0.5,6.6,1.8c1.9,1.3,3.2,3.4,3.4,5.8C169.9,189.7,163.4,193.4,158.1,198.6z"/>
<path class="st19" d="M167.1,188.1c-0.9,0.3-2.1,0.3-1.7,1.5c0.2,0.7,1.7,1.6,2.1,1.9c1.6,1.1,3.4,1.9,5.2,2.3
	c3.2,0.6,6.5-0.2,9.2-1.9c1.4-0.8,2.4-2.2,3-3.8c0.4-1.6-0.3-3.7-1.7-4.3c-1.1-0.4-2.3-0.1-3.4,0.3
	C175.6,185.3,171.4,186.7,167.1,188.1z"/>
<path class="st20" d="M176.6,196.3c0.6,0.1,1,0.7,1.4,0.8c0.4,2.5-0.6,5.1-2.7,6.8c-0.8-1.9-1.2-3.9-1-6c-0.1-0.6,0.2-1.1,0.6-1.5
	C175.4,196.1,176,196,176.6,196.3z M165.9,196.5c0,4.5-1.6,8.9-4.5,12.6c-2.4-3-3.5-6.9-3-10.7c0.3-2.3,1.2-4.5,2.5-6.3
	c0.3-0.4,0.6-0.7,1-1c0.7-0.6,1.5-1.2,2.4-1.7C165.5,191.6,165.9,194,165.9,196.5z"/>
<path class="st16" d="M165.4,190.7c-1.4,2.7-2.9,5.3-3.9,8.2c-1,2.9-1.1,6-0.4,9c0.8,3,3.1,5.4,6.1,6.5c2.9,1,6.7,0.1,8.5-2.4
	c1.7-2.4,1.3-5.6,0.6-8.4c-0.6-2.9-1.3-5.9-0.2-8.6C173.6,191.8,169.5,189.7,165.4,190.7z"/>
<path class="st16" d="M162.9,204.3c-1.8,0.5-3.8-0.4-4.4-2.1c-0.3-0.8-0.1-1.7,0.3-2.4c0.4-0.6,0.9-1,1.6-1.1c0.6,0,1.1,0.1,1.5,0.4
	c0.4,0.3,0.8,0.7,1.1,1.1C162.8,201.5,162.7,202.8,162.9,204.3z"/>
<path class="st20" d="M181.4,193.9c-0.2-0.9-0.5-1.8-1-2.6c-0.3-0.3-0.5-0.6-0.7-0.9c-3.1-2.8-7.2-3.9-11.3-3.4
	c-1.6,0.3-3,0.8-4.3,1.6c-0.9,0.5-1.6,1.1-2.4,1.7c-0.1,0.3-0.3,0.6-0.4,0.9c-0.9,2.8-0.8,5.7,0.3,8.4c1.7-0.8,3.1-2.1,4-3.7
	c0.6-1.1,0.9-2.4,0.8-3.6c3.1,2.8,7.1,4.7,11.3,5.4c1.8,0.3,3.6-1,3.9-2.8C181.4,194.5,181.4,194.2,181.4,193.9z"/>
<path class="st18" d="M145,309.8c44.5,11.7,27.7-20.1,27.7-20.1c-5.1-14.8,0.9-46.3,0.9-46.3l-5.2-0.7l-20.9,21.2l-11-1.3
	C136.5,262.7,134.2,296.8,145,309.8z"/>
<path class="st21" d="M138.2,264c0.1-0.3,0.2-0.6,0.3-1c0.1-0.4,0.2-0.9,0.3-1.3c0.1-0.3,0.1-0.5,0.1-0.8l0.2-0.8l0.2-0.9
	c0.1-0.3,0.1-0.6,0.2-1c0.1-0.3,0.1-0.8,0.2-1.1c0.1-0.4,0.1-0.7,0.3-1.1c0.1-0.8,0.3-1.6,0.5-2.5c0.5-1.7,0.9-3.5,1.5-5.5
	c0.6-2,1.3-4,2.1-6.1c0.8-2.2,1.8-4.3,3-6.5c1.1-2.2,2.4-4.3,4-6.1c1.5-1.7,3.5-2.9,5.6-3.4c0.5-0.1,1-0.1,1.5-0.1h0.7
	c0.1,0.1,0.3,0,0.3,0l0.4,0.1c0.9,0.3,1.9,0.7,2.7,1.2c0.9,0.5,1.6,1.2,2.2,2c0.1,0.1,0.3,0.3,0.4,0.5c0.2,0.2,0.3,0.4,0.4,0.5
	c0.1,0.2,0.3,0.3,0.3,0.6c0.1,0.2,0.3,0.4,0.3,0.6c0.8,1.6,1.4,3.3,1.7,5.2c0.3,1.5,0.4,3.1,0.4,4.6v3.6c-0.1,2,0,3.1,0.1,3.1
	c0.1,0,0.6-1,1-3c0.2-1,0.4-2.2,0.6-3.7c0.1-1.7,0.2-3.3,0.1-5c-0.1-1-0.2-2-0.4-2.9c-0.2-1.1-0.6-2.1-1.1-3.1l-0.3-0.7
	c-0.1-0.2-0.3-0.5-0.4-0.8c-0.2-0.3-0.3-0.5-0.5-0.8c-0.2-0.3-0.4-0.5-0.5-0.8c-0.8-1-1.7-2-2.7-2.8c-1.1-0.9-2.4-1.6-3.8-2
	c-0.2,0-0.3-0.1-0.5-0.1s-0.4-0.1-0.6-0.1c-0.2,0-0.4-0.1-0.6-0.1h-0.5c-0.7-0.1-1.5-0.1-2.3,0.1c-1.5,0.2-2.9,0.7-4.3,1.5
	c-1.3,0.8-2.5,1.7-3.6,2.8c-1.9,2.1-3.6,4.5-4.8,7.1c-1.1,2.2-2.1,4.6-3,7c-0.9,2.3-1.5,4.5-2,6.6c-0.5,2-0.9,4-1.1,5.9
	c-0.1,0.9-0.3,1.8-0.3,2.6c0,0.4-0.1,0.8-0.1,1.2l-0.1,1.2v1c0,0.3,0,0.7,0.1,1v0.9l0.1,0.8c0.1,0.5,0.1,1,0.1,1.4
	c0.1,0.3,0.1,0.7,0.3,1c0.1,0.6,0.3,0.7,0.4,0.8C137.8,264.8,138,264.5,138.2,264z"/>
<path class="st20" d="M196.7,367.9l38.3,0.3l-24.6-12.8c-3.3,6-10,2.1-10,2.1L196.7,367.9z"/>
<path class="st2" d="M218.9,364.2c0.2,0.1,0.5,0.2,0.7,0.1c0.1,0,0.2-0.1,0.3-0.2c0.8-1.2,1.8-2.2,3-3.1c0.3-0.2,0.3-0.6,0.1-0.9
	c-0.2-0.2-0.5-0.3-0.8-0.1c-1.3,0.9-2.5,2-3.3,3.4C218.6,363.5,218.6,363.9,218.9,364.2z M215.8,362.6c0.2,0.1,0.5,0.2,0.7,0.1
	c0.1,0,0.2-0.1,0.3-0.2c0.8-1.2,1.8-2.2,3-3.1c0.3-0.2,0.3-0.6,0.1-0.9c-0.2-0.3-0.5-0.4-0.9-0.1c-1.3,0.9-2.5,2-3.3,3.4
	C215.6,361.9,215.6,362.3,215.8,362.6C215.8,362.5,215.8,362.5,215.8,362.6z M212.7,360.9c0.2,0.1,0.5,0.1,0.7,0.1
	c0.1,0,0.2-0.1,0.3-0.2c0.8-1.2,1.8-2.2,3-3.1c0.3-0.1,0.4-0.6,0.3-0.9c-0.1-0.3-0.5-0.4-0.8-0.3c-0.1,0-0.1,0.1-0.1,0.1
	c-1.3,0.9-2.5,2-3.3,3.4C212.4,360.3,212.4,360.7,212.7,360.9z M233.7,371.6l-35.8-0.3c-0.7,0-1.2-0.6-1.2-1.3l0.1-2.2l38.3,0.3
	l-0.1,2.2C234.9,371,234.4,371.5,233.7,371.6z"/>
<path class="st18" d="M207.5,293.3c-12.2-5.3-24.6-9.6-37.5-12.9c-0.5-0.5-0.9-1-1.3-1.6l-31.2,0.1c4.6,10.1,14.6,29.2,24.6,34.2
	c11.8-2,19.9-1.6,32.8,3c3,15.6,4,31.5,3.1,47.4l21-6.6c1-18,1.8-34.8-0.9-50.4C216.9,300.6,212.9,295.7,207.5,293.3z"/>
<path class="st20" d="M95.9,332.1l-0.3,38.3l12.8-24.6c-6-3.3-2.2-10-2.2-10L95.9,332.1z"/>
<path class="st2" d="M98.4,354.4c-0.1,0.2-0.2,0.5-0.1,0.7c0,0.1,0.1,0.2,0.2,0.3c1.2,0.8,2.2,1.8,3.1,3c0.2,0.3,0.6,0.3,0.9,0.1
	c0.3-0.2,0.4-0.5,0.1-0.9c-0.9-1.3-2-2.5-3.4-3.3C99.1,354.1,98.6,354.1,98.4,354.4z M100.1,351.3c-0.1,0.2-0.2,0.5-0.1,0.7
	c0,0.1,0.1,0.1,0.2,0.3c1.2,0.8,2.2,1.8,3.1,3c0.2,0.3,0.6,0.3,0.9,0.1c0.2-0.2,0.3-0.5,0.1-0.8c-0.9-1.3-2-2.4-3.4-3.3
	C100.7,351,100.3,351,100.1,351.3z M101.7,348.2c-0.1,0.2-0.1,0.5-0.1,0.7c0,0.1,0.1,0.1,0.2,0.3c1.2,0.8,2.2,1.8,3.1,3
	c0.1,0.3,0.6,0.4,0.9,0.3c0.3-0.1,0.4-0.5,0.3-0.8c0-0.1-0.1-0.1-0.1-0.1c-0.9-1.3-2-2.5-3.4-3.3
	C102.3,347.8,101.9,347.9,101.7,348.2z M91,369.2l0.3-35.8c0-0.7,0.6-1.2,1.3-1.2l2.2,0.1l-0.3,38.3l-2.2-0.1
	C91.6,370.5,91,369.8,91,369.2z"/>
<path class="st18" d="M152.2,298.5c-2.1,2.1-7.7,5.3-8.7,7.4c5.7,11.8,8.3,32.8,6.6,32.2c-24.8,4.8-49.8-4-49.8-4l6.6,21
	c10.9,4.8,39.9,5.4,56.5,4.5c3.5-0.2,6.2-5.2,8.6-10.6c8.3-19.1,0.4-42.3,0.4-42.3c0.5-0.5,8.6-0.9,9.2-1.3l-0.2-7H152.2z"/>
<path class="st19" d="M144.9,307.7c5,11.9,7.2,30.5,5.6,29.9c-2.8,0.5-5.6,0.9-8.4,1.1c7.9,6.6,16,12.9,24.3,18.9
	c2.2-1.9,4-5.5,5.6-9.2c5.7-13.2,3.7-28.2,1.9-36.2C164.1,311.8,154.4,310.3,144.9,307.7z"/>
<path class="st22" d="M205.3,289l0.3-0.5l0.7,0.3c0.3,0.2,0.6,0,0.8-0.3l0-0.1l0.4-0.8l-9.5-4.2l-1.1-0.6c0.8-0.6,1.4-1.3,1.8-2.1
	c0.9-1.8,1.4-3.5,0.3-4.2c-0.1,0-0.8-0.3-1-0.4c-1.7-0.8-3,0.5-4,2.4c-0.9,2-0.7,4,0.6,4.6c0.7,0.3,1.3,0.9,1.5,1.7
	c0.3,0.5,0.1,1.2-0.3,1.6c-1.4,1.4-2.6,3-3.6,4.7l-2,3.2l6.6,3.2c0,0,1.4-7.5,4.5-6.8c0.4,0.2,0.9,0.4,1.3,0.6
	c0.3,0.1,0.5-0.1,0.5-0.3C203.1,290,203.9,288.6,205.3,289z"/>
<path class="st23" d="M216.3,291.1c0.7,0.3,1.7-0.3,2.3-1.5c0.5-1.1,0.4-2.3-0.3-2.7c-0.7-0.3-1.7,0.3-2.3,1.5
	C215.4,289.5,215.6,290.7,216.3,291.1z"/>
<path class="st23" d="M211.1,288.6l5.3,2.4l1.7-3.7l-5-2.9c-0.4-0.2-0.9-0.1-1.1,0.3l0,0.1l-1.3,2.8
	C210.5,287.9,210.6,288.4,211.1,288.6L211.1,288.6z"/>
<path class="st23" d="M209.1,288.2c0.3,0.2,1.2-0.9,1.9-2.4c0.7-1.5,1-2.9,0.7-3c-0.3-0.2-1.2,0.9-1.9,2.4
	C209.1,286.7,208.8,288,209.1,288.2z"/>
<path class="st23" d="M205.7,286.9l4.2,1.4l2.6-5.5l-3.9-2.3c-0.5-0.3-1.1,0-1.3,0.6l-2,4.2C205,286,205.2,286.7,205.7,286.9z"/>
<path class="st23" d="M211.3,284.9l0.5,0.3L211,287l-0.5-0.3L211.3,284.9z"/>
<path class="st23" d="M198.3,280.4c-0.7,1.5-2,2.4-2.9,2c-0.9-0.4-1-1.9-0.2-3.5c1.2-2.4,2.4-3.2,3.3-2.8
	C199.3,276.6,199.1,278.9,198.3,280.4z"/>
<path class="st23" d="M197.8,276.7l0.7-0.7l1.8,1.3l0.9-0.1c0.3,0,0.5,0,0.7,0.1l6.5,3.2l-3.1,6.5l-10-4.5L197.8,276.7z"/>
<path class="st22" d="M206.5,283.3l0.2,0.1c0.2,0.1,0.3,0.4,0.1,0.6l-0.6,1.2c-0.1,0.3-0.4,0.4-0.6,0.3l-0.2-0.1
	c-0.2-0.1-0.3-0.4-0.2-0.6l0.6-1.2C206,283.3,206.2,283.2,206.5,283.3z"/>
<path class="st24" d="M197.1,281.6c0.8,0.4,1.8-0.3,2.4-1.4c0.5-1.1,0.4-2.4-0.4-2.7c-0.8-0.4-1.8,0.3-2.4,1.4
	C196.2,280,196.4,281.3,197.1,281.6z"/>
<path class="st23" d="M199.4,304.5c0.6-1.3,0-2.9-1.3-3.5c-0.2-0.1-0.4-0.1-0.5-0.2c0-0.6,0-1.2-0.2-1.9c-0.3-0.6-0.8-1.1-1.3-1.4
	l-6.2-3l-1.5-0.2c-0.8,0.1-1.2,1.4-1.2,1.4l-1,0.4c-0.7,0.2-1.2,0.8-1.5,1.4c-0.3,0.7-0.6,1.6-0.8,2.3l12.2,5.9
	C197.3,306.3,198.8,305.8,199.4,304.5z"/>
<path class="st24" d="M198.4,303.4c-0.3,0.8-1.3,1.2-2.1,0.9c-0.8-0.4-10.6-5.9-10.2-6.8c0.4-0.8,10.9,3.3,11.7,3.7
	C198.5,301.5,198.8,302.5,198.4,303.4z M212.1,286.1c0.1-0.2,0.4-0.4,0.7-0.2c0.2,0.1,3.8,2.1,3.6,2.3c-0.1,0.2-3.9-1.3-4.1-1.4
	C212.1,286.7,212,286.4,212.1,286.1z M212.7,284.8c0.1-0.2,0.4-0.4,0.7-0.2c0.2,0.1,3.6,2.4,3.5,2.6c-0.1,0.2-3.7-1.5-3.9-1.7
	C212.7,285.4,212.6,285.1,212.7,284.8z M211.4,287.5c0.1-0.2,0.4-0.4,0.7-0.2c0.2,0.1,3.9,1.7,3.8,2s-3.9-1-4.3-1.1
	C211.4,288.1,211.3,287.8,211.4,287.5z M195.2,292.8c0.4-0.8,0.1-1.8-0.6-2.2c-0.2-0.1-0.9-0.4-1.9-0.8c-0.2,0.3-0.4,0.6-0.6,0.9
	l-1.1,1.8l2.1,1.2C193.9,294,194.9,293.6,195.2,292.8z M197,289.1c0.4-0.8,0.1-1.8-0.7-2.2c-0.1-0.1-0.6-0.2-1.1-0.5
	c-0.8,0.8-1.5,1.7-2.1,2.6l1.7,1C195.7,290.4,196.6,290,197,289.1z"/>
<path class="st16" d="M191.9,284.7c0,0-15.7-11.6-16.8-12.9c-2.2-2.8-11.7-30-11.7-30l-15.5,2.8c0,0,8.6,26.9,15.7,32.3
	c10.2,7.7,29.1,16.9,29.1,16.9s2.9,2,5.7,3.8c2.8,1.9,4.4-0.3,6.5-6.1c2.3-6.2-3.9-6.5-6.7-6.2c-2.3,0.2-4.6,0-6.9-0.9"/>
</svg>
