<svg version="1.1" xmlns="http://www.w3.org/2000/svg" xmlns:xlink="http://www.w3.org/1999/xlink" width="630" height="390" viewBox="0 0 630 390">
<style type="text/css">
	.st0{fill:#EAF1FC;}
	.st1{fill:#F8F8FF;}
	.st2{fill:#CDE4F7;}
	.st3{fill:#E9EDF4;}
	.st4{fill:#FFFFFF;}
	.st5{fill:#ECF7FE;}
	.st6{fill:#0F222C;}
	.st7{fill:#2C6292;}
	.st8{fill:#4473CE;}
	.st9{fill:#1B4B76;}
	.st10{fill:#0F3456;}
	.st11{fill:#448DCE;}
	.st12{fill:#1D4259;}
	.st13{fill:#0B2B46;}
	.st14{fill:#FF524F;}
	.st15{fill:#FFDA35;}
	.st16{fill:#3270A7;}
	.st17{fill:#448DCE;}
	.st18{fill:#F2F2F2;}
	.st19{fill:#0B2B46;}
	.st20{fill:#F19100;}
	.st21{fill:#E08F73;}
	.st22{fill:#E8C997;}
	.st23{fill:#D3B589;}
	.st24{fill:#F4D59A;}
	.st25{fill:#F09976;}
	.st26{fill:#E8815F;}
	.st27{fill:#047487;}
	.st28{fill:#05616B;}
	.st29{fill:#02819F;}
	.st30{fill:#311649;}
	.st31{fill:#FB446C;}
	.st32{fill:#EDEDED;}
	.st33{fill:#F8C47A;}
	.st34{fill:#CE8D4D;}
	.st35{fill:#FAFAFA;}
	.st36{fill:#9EB7C7;}
	.st37{fill:#B6CAD5;}
	.st38{fill:#B1B8C0;}
	.st39{fill:#899BA3;}
</style>
<path class="st0" d="M309.6,388C482,388,610,347.7,610,298l-21.5-20l-54,20L6,298.5C6.1,330.3,137.1,388,309.6,388z"/>
<path class="st1" d="M606.2,302.3c29.2-76.2,48.2-229.4-40.1-277.8c-57.8-31.6-99.6,0-160.6,12.7C357.4,54.5,265,24.5,222,6.7
	C107.2-19-29,35.5,6.8,302.3C6.8,302.3,407.6,302.8,606.2,302.3z"/>
<path class="st2" d="M376,99h101v205H376V99z"/>
<path class="st3" d="M376,99h31v205h-31V99z"/>
<path class="st4" d="M465.3,107h4.7v6.9h-4.7V107z M456.8,107h4.7v6.9h-4.7V107z M448.3,107h4.7v6.9h-4.7V107z M439.9,107h4.7v6.9
	h-4.7V107z M431.4,107h4.7v6.9h-4.7V107z M422.9,107h4.7v6.9h-4.7V107z M414.5,107h4.7v6.9h-4.7V107z M398.9,107h4.7v6.9h-4.7V107z
	 M390.5,107h4.7v6.9h-4.7V107z M382,107h4.7v6.9H382V107z M465.3,121.4h4.7v6.9h-4.7V121.4z M456.8,121.4h4.7v6.9h-4.7V121.4z
	 M448.3,121.4h4.7v6.9h-4.7V121.4z M439.9,121.4h4.7v6.9h-4.7V121.4z M431.4,121.4h4.7v6.9h-4.7V121.4z M422.9,121.4h4.7v6.9h-4.7
	V121.4z M414.5,121.4h4.7v6.9h-4.7V121.4z M398.9,121.4h4.7v6.9h-4.7V121.4z M390.5,121.4h4.7v6.9h-4.7V121.4z M382,121.4h4.7v6.9
	H382V121.4z M465.3,135.7h4.7v6.9h-4.7V135.7z M456.8,135.7h4.7v6.9h-4.7V135.7z M448.3,135.7h4.7v6.9h-4.7V135.7z M439.9,135.7h4.7
	v6.9h-4.7V135.7z M431.4,135.7h4.7v6.9h-4.7V135.7z M422.9,135.7h4.7v6.9h-4.7V135.7z M414.5,135.7h4.7v6.9h-4.7V135.7z
	 M398.9,135.7h4.7v6.9h-4.7V135.7z M390.5,135.7h4.7v6.9h-4.7V135.7z M382,135.7h4.7v6.9H382V135.7z M465.3,149.9h4.7v6.9h-4.7
	V149.9z M456.8,149.9h4.7v6.9h-4.7V149.9z M448.3,149.9h4.7v6.9h-4.7V149.9z M439.9,149.9h4.7v6.9h-4.7V149.9z M431.4,149.9h4.7v6.9
	h-4.7V149.9z M422.9,149.9h4.7v6.9h-4.7V149.9z M414.5,149.9h4.7v6.9h-4.7V149.9z M398.9,149.9h4.7v6.9h-4.7V149.9z M390.5,149.9
	h4.7v6.9h-4.7V149.9z M382,149.9h4.7v6.9H382V149.9z M465.3,164.3h4.7v6.9h-4.7V164.3z M456.8,164.3h4.7v6.9h-4.7V164.3z
	 M448.3,164.3h4.7v6.9h-4.7V164.3z M439.9,164.3h4.7v6.9h-4.7V164.3z M431.4,164.3h4.7v6.9h-4.7V164.3z M422.9,164.3h4.7v6.9h-4.7
	V164.3z M414.5,164.3h4.7v6.9h-4.7V164.3z M398.9,164.3h4.7v6.9h-4.7V164.3z M390.5,164.3h4.7v6.9h-4.7V164.3z M382,164.3h4.7v6.9
	H382V164.3z M465.3,178.6h4.7v6.9h-4.7V178.6z M456.8,178.6h4.7v6.9h-4.7V178.6z M448.3,178.6h4.7v6.9h-4.7V178.6z M439.9,178.6h4.7
	v6.9h-4.7V178.6z M431.4,178.6h4.7v6.9h-4.7V178.6z M422.9,178.6h4.7v6.9h-4.7V178.6z M414.5,178.6h4.7v6.9h-4.7V178.6z
	 M398.9,178.6h4.7v6.9h-4.7V178.6z M390.5,178.6h4.7v6.9h-4.7V178.6z M382,178.6h4.7v6.9H382V178.6z M465.3,192.9h4.7v6.9h-4.7
	V192.9z M456.8,192.9h4.7v6.9h-4.7V192.9z M448.3,192.9h4.7v6.9h-4.7V192.9z M439.9,192.9h4.7v6.9h-4.7V192.9z M431.4,192.9h4.7v6.9
	h-4.7V192.9z M422.9,192.9h4.7v6.9h-4.7V192.9z M414.5,192.9h4.7v6.9h-4.7V192.9z M398.9,192.9h4.7v6.9h-4.7V192.9z M390.5,192.9
	h4.7v6.9h-4.7V192.9z M382,192.9h4.7v6.9H382V192.9z M465.3,207.2h4.7v6.9h-4.7V207.2z M456.8,207.2h4.7v6.9h-4.7V207.2z
	 M448.3,207.2h4.7v6.9h-4.7V207.2z M439.9,207.2h4.7v6.9h-4.7V207.2z M431.4,207.2h4.7v6.9h-4.7V207.2z M422.9,207.2h4.7v6.9h-4.7
	V207.2z M414.5,207.2h4.7v6.9h-4.7V207.2z M398.9,207.2h4.7v6.9h-4.7V207.2z M390.5,207.2h4.7v6.9h-4.7V207.2z M382,207.2h4.7v6.9
	H382V207.2z M465.3,221.5h4.7v6.9h-4.7V221.5z M456.8,221.5h4.7v6.9h-4.7V221.5z M448.3,221.5h4.7v6.9h-4.7V221.5z M439.9,221.5h4.7
	v6.9h-4.7V221.5z M431.4,221.5h4.7v6.9h-4.7V221.5z M422.9,221.5h4.7v6.9h-4.7V221.5z M414.5,221.5h4.7v6.9h-4.7V221.5z
	 M398.9,221.5h4.7v6.9h-4.7V221.5z M390.5,221.5h4.7v6.9h-4.7V221.5z M382,221.5h4.7v6.9H382V221.5z M465.3,235.8h4.7v6.9h-4.7
	V235.8z M456.8,235.8h4.7v6.9h-4.7V235.8z M448.3,235.8h4.7v6.9h-4.7V235.8z M439.9,235.8h4.7v6.9h-4.7V235.8z M431.4,235.8h4.7v6.9
	h-4.7V235.8z M422.9,235.8h4.7v6.9h-4.7V235.8z M414.5,235.8h4.7v6.9h-4.7V235.8z M398.9,235.8h4.7v6.9h-4.7V235.8z M390.5,235.8
	h4.7v6.9h-4.7V235.8z M382,235.8h4.7v6.9H382V235.8z M465.3,250.2h4.7v6.9h-4.7V250.2z M456.8,250.2h4.7v6.9h-4.7V250.2z
	 M448.3,250.2h4.7v6.9h-4.7V250.2z M439.9,250.2h4.7v6.9h-4.7V250.2z M431.4,250.2h4.7v6.9h-4.7V250.2z M422.9,250.2h4.7v6.9h-4.7
	V250.2z M414.5,250.2h4.7v6.9h-4.7V250.2z M398.9,250.2h4.7v6.9h-4.7V250.2z M390.5,250.2h4.7v6.9h-4.7V250.2z M382,250.2h4.7v6.9
	H382V250.2z M465.3,264.4h4.7v6.9h-4.7V264.4z M456.8,264.4h4.7v6.9h-4.7V264.4z M448.3,264.4h4.7v6.9h-4.7V264.4z M439.9,264.4h4.7
	v6.9h-4.7V264.4z M431.4,264.4h4.7v6.9h-4.7V264.4z M422.9,264.4h4.7v6.9h-4.7V264.4z M414.5,264.4h4.7v6.9h-4.7V264.4z
	 M398.9,264.4h4.7v6.9h-4.7V264.4z M390.5,264.4h4.7v6.9h-4.7V264.4z M382,264.4h4.7v6.9H382V264.4z M465.3,278.8h4.7v6.9h-4.7
	V278.8z M456.8,278.8h4.7v6.9h-4.7V278.8z M448.3,278.8h4.7v6.9h-4.7V278.8z M439.9,278.8h4.7v6.9h-4.7V278.8z M431.4,278.8h4.7v6.9
	h-4.7V278.8z M422.9,278.8h4.7v6.9h-4.7V278.8z M414.5,278.8h4.7v6.9h-4.7V278.8z M398.9,278.8h4.7v6.9h-4.7V278.8z M390.5,278.8
	h4.7v6.9h-4.7V278.8z M382,278.8h4.7v6.9H382V278.8z M465.3,293.1h4.7v6.9h-4.7V293.1z M456.8,293.1h4.7v6.9h-4.7V293.1z
	 M448.3,293.1h4.7v6.9h-4.7V293.1z M439.9,293.1h4.7v6.9h-4.7V293.1z M431.4,293.1h4.7v6.9h-4.7V293.1z M422.9,293.1h4.7v6.9h-4.7
	V293.1z M414.5,293.1h4.7v6.9h-4.7V293.1z M398.9,293.1h4.7v6.9h-4.7V293.1z M390.5,293.1h4.7v6.9h-4.7V293.1z M382,293.1h4.7v6.9
	H382V293.1z"/>
<path class="st2" d="M295.5,154.7h94.3v149.8h-94.3V154.7z"/>
<path class="st3" d="M295.5,154.7h29.4v149.8h-29.4V154.7z"/>
<path class="st4" d="M379.4,162.2h4.3v22.4h-4.3V162.2z M371.6,162.2h4.3v22.4h-4.3V162.2z M363.5,162.2h4.3v22.4h-4.3V162.2z
	 M355.7,162.2h4.3v22.4h-4.3V162.2z M347.8,162.2h4.3v22.4h-4.3V162.2z M339.9,162.2h4.3v22.4h-4.3V162.2z M331.9,162.2h4.3v22.4
	h-4.3V162.2z M317.4,162.2h4.3v22.4h-4.3V162.2z M309.5,162.2h4.3v22.4h-4.3V162.2z M301.5,162.2h4.3v22.4h-4.3V162.2z M379.4,187.4
	h4.3v22.4h-4.3V187.4z M371.6,187.4h4.3v22.4h-4.3V187.4z M363.5,187.4h4.3v22.4h-4.3V187.4z M355.7,187.4h4.3v22.4h-4.3V187.4z
	 M347.8,187.4h4.3v22.4h-4.3V187.4z M339.9,187.4h4.3v22.4h-4.3V187.4z M331.9,187.4h4.3v22.4h-4.3V187.4z M317.4,187.4h4.3v22.4
	h-4.3V187.4z M309.5,187.4h4.3v22.4h-4.3V187.4z M301.5,187.4h4.3v22.4h-4.3V187.4z M379.4,212.7h4.3V235h-4.3V212.7z M371.6,212.7
	h4.3V235h-4.3V212.7z M363.5,212.7h4.3V235h-4.3V212.7z M355.7,212.7h4.3V235h-4.3V212.7z M347.8,212.7h4.3V235h-4.3V212.7z
	 M339.9,212.7h4.3V235h-4.3V212.7z M331.9,212.7h4.3V235h-4.3V212.7z M317.4,212.7h4.3V235h-4.3V212.7z M309.5,212.7h4.3V235h-4.3
	V212.7z M301.5,212.7h4.3V235h-4.3V212.7z M379.4,237.9h4.3v22.4h-4.3V237.9z M371.6,237.9h4.3v22.4h-4.3V237.9z M363.5,237.9h4.3
	v22.4h-4.3V237.9z M355.7,237.9h4.3v22.4h-4.3V237.9z M347.8,237.9h4.3v22.4h-4.3V237.9z M339.9,237.9h4.3v22.4h-4.3V237.9z
	 M331.9,237.9h4.3v22.4h-4.3V237.9z M317.4,237.9h4.3v22.4h-4.3V237.9z M309.5,237.9h4.3v22.4h-4.3V237.9z M301.5,237.9h4.3v22.4
	h-4.3V237.9z M379.4,263.3h4.3v22.4h-4.3V263.3z M371.6,263.3h4.3v22.4h-4.3V263.3z M363.5,263.3h4.3v22.4h-4.3V263.3z M355.7,263.3
	h4.3v22.4h-4.3V263.3z M347.8,263.3h4.3v22.4h-4.3V263.3z M339.9,263.3h4.3v22.4h-4.3V263.3z M331.9,263.3h4.3v22.4h-4.3V263.3z
	 M317.4,263.3h4.3v22.4h-4.3V263.3z M309.5,263.3h4.3v22.4h-4.3V263.3z M301.5,263.3h4.3v22.4h-4.3V263.3z"/>
<path class="st2" d="M248.7,118.8h65.5v185.6h-65.5V118.8z"/>
<path class="st5" d="M248.7,118.8h20.4v185.6h-20.4V118.8L248.7,118.8z"/>
<path class="st4" d="M248.7,128.9h65.5v1.6h-65.5V128.9z M248.7,141.1h65.5v1.6h-65.5V141.1z M248.7,153.4h65.5v1.6h-65.5V153.4z
	 M248.7,165.6h65.5v1.6h-65.5V165.6z M248.7,177.9h65.5v1.6h-65.5V177.9z M248.7,190.1h65.5v1.6h-65.5V190.1z M248.7,202.4h65.5v1.6
	h-65.5V202.4z M248.7,214.7h65.5v1.6h-65.5V214.7z M248.7,226.9h65.5v1.6h-65.5V226.9z M248.7,239.1h65.5v1.6h-65.5V239.1z
	 M248.7,251.5h65.5v1.6h-65.5V251.5z M248.7,263.6h65.5v1.6h-65.5V263.6z M248.7,275.9h65.5v1.6h-65.5V275.9z M248.7,288.2h65.5v1.6
	h-65.5V288.2z"/>
<path class="st2" d="M476,132h103v172H476V132z"/>
<path class="st3" d="M476,132h32v172h-32V132z"/>
<path class="st4" d="M476,139h103v1.6H476V139z M476,150.7h103v1.6H476V150.7z M476,162.6h103v1.6H476V162.6z M476,174.2h103v1.6
	H476V174.2z M476,186h103v1.6H476V186z M476,197.7h103v1.6H476V197.7z M476,209.4h103v1.6H476V209.4z M476,221.1h103v1.6H476V221.1z
	 M476,232.9h103v1.6H476V232.9z M476,244.6h103v1.6H476V244.6z M476,256.3h103v1.6H476V256.3z M476,268h103v1.6H476V268z M476,279.7
	h103v1.6H476V279.7z M476,291.4h103v1.6H476V291.4z"/>
<path class="st2" d="M142,47.1h120v257.3H142V47.1z"/>
<path class="st5" d="M142,47.1h37.4v257.3H142V47.1z"/>
<path class="st4" d="M248.7,59.3h5.6v7.4h-5.6V59.3z M238.7,59.3h5.6v7.4h-5.6V59.3z M228.6,59.3h5.6v7.4h-5.6V59.3z M218.5,59.3
	h5.6v7.4h-5.6V59.3z M208.4,59.3h5.6v7.4h-5.6V59.3z M198.4,59.3h5.6v7.4h-5.6V59.3z M188.3,59.3h5.6v7.4h-5.6V59.3z M169.9,59.3
	h5.6v7.4h-5.6V59.3z M159.8,59.3h5.6v7.4h-5.6V59.3z M149.7,59.3h5.6v7.4h-5.6V59.3z M248.7,74.8h5.6v7.4h-5.6V74.8z M238.7,74.8
	h5.6v7.4h-5.6V74.8z M228.6,74.8h5.6v7.4h-5.6V74.8z M218.5,74.8h5.6v7.4h-5.6V74.8z M208.4,74.8h5.6v7.4h-5.6V74.8z M198.4,74.8
	h5.6v7.4h-5.6V74.8z M188.3,74.8h5.6v7.4h-5.6V74.8z M169.9,74.8h5.6v7.4h-5.6V74.8z M159.8,74.8h5.6v7.4h-5.6V74.8z M149.7,74.8
	h5.6v7.4h-5.6V74.8z M248.7,90.3h5.6v7.4h-5.6V90.3z M238.7,90.3h5.6v7.4h-5.6V90.3z M228.6,90.3h5.6v7.4h-5.6V90.3z M218.5,90.3
	h5.6v7.4h-5.6V90.3z M208.4,90.3h5.6v7.4h-5.6V90.3z M198.4,90.3h5.6v7.4h-5.6V90.3z M188.3,90.3h5.6v7.4h-5.6V90.3z M169.9,90.3
	h5.6v7.4h-5.6V90.3z M159.8,90.3h5.6v7.4h-5.6V90.3z M149.7,90.3h5.6v7.4h-5.6V90.3z M248.7,105.9h5.6v7.4h-5.6V105.9z M238.7,105.9
	h5.6v7.4h-5.6V105.9z M228.6,105.9h5.6v7.4h-5.6V105.9z M218.5,105.9h5.6v7.4h-5.6V105.9z M208.4,105.9h5.6v7.4h-5.6V105.9z
	 M198.4,105.9h5.6v7.4h-5.6V105.9z M188.3,105.9h5.6v7.4h-5.6V105.9z M169.9,105.9h5.6v7.4h-5.6V105.9z M159.8,105.9h5.6v7.4h-5.6
	V105.9z M149.7,105.9h5.6v7.4h-5.6V105.9z M248.7,121.4h5.6v7.4h-5.6V121.4z M238.7,121.4h5.6v7.4h-5.6V121.4z M228.6,121.4h5.6v7.4
	h-5.6V121.4z M218.5,121.4h5.6v7.4h-5.6V121.4z M208.4,121.4h5.6v7.4h-5.6V121.4z M198.4,121.4h5.6v7.4h-5.6V121.4z M188.3,121.4
	h5.6v7.4h-5.6V121.4z M169.9,121.4h5.6v7.4h-5.6V121.4z M159.8,121.4h5.6v7.4h-5.6V121.4z M149.7,121.4h5.6v7.4h-5.6V121.4z
	 M248.7,136.9h5.6v7.4h-5.6V136.9z M238.7,136.9h5.6v7.4h-5.6V136.9z M228.6,136.9h5.6v7.4h-5.6V136.9z M218.5,136.9h5.6v7.4h-5.6
	V136.9z M208.4,136.9h5.6v7.4h-5.6V136.9z M198.4,136.9h5.6v7.4h-5.6V136.9z M188.3,136.9h5.6v7.4h-5.6V136.9z M169.9,136.9h5.6v7.4
	h-5.6V136.9z M159.8,136.9h5.6v7.4h-5.6V136.9z M149.7,136.9h5.6v7.4h-5.6V136.9z M248.7,152.3h5.6v7.4h-5.6V152.3z M238.7,152.3
	h5.6v7.4h-5.6V152.3z M228.6,152.3h5.6v7.4h-5.6V152.3z M218.5,152.3h5.6v7.4h-5.6V152.3z M208.4,152.3h5.6v7.4h-5.6V152.3z
	 M198.4,152.3h5.6v7.4h-5.6V152.3z M188.3,152.3h5.6v7.4h-5.6V152.3z M169.9,152.3h5.6v7.4h-5.6V152.3z M159.8,152.3h5.6v7.4h-5.6
	V152.3z M149.7,152.3h5.6v7.4h-5.6V152.3z M248.7,167.9h5.6v7.4h-5.6V167.9z M238.7,167.9h5.6v7.4h-5.6V167.9z M228.6,167.9h5.6v7.4
	h-5.6V167.9z M218.5,167.9h5.6v7.4h-5.6V167.9z M208.4,167.9h5.6v7.4h-5.6V167.9z M198.4,167.9h5.6v7.4h-5.6V167.9z M188.3,167.9
	h5.6v7.4h-5.6V167.9z M169.9,167.9h5.6v7.4h-5.6V167.9z M159.8,167.9h5.6v7.4h-5.6V167.9z M149.7,167.9h5.6v7.4h-5.6V167.9z
	 M248.7,183.4h5.6v7.4h-5.6V183.4z M238.7,183.4h5.6v7.4h-5.6V183.4z M228.6,183.4h5.6v7.4h-5.6V183.4z M218.5,183.4h5.6v7.4h-5.6
	V183.4z M208.4,183.4h5.6v7.4h-5.6V183.4z M198.4,183.4h5.6v7.4h-5.6V183.4z M188.3,183.4h5.6v7.4h-5.6V183.4z M169.9,183.4h5.6v7.4
	h-5.6V183.4z M159.8,183.4h5.6v7.4h-5.6V183.4z M149.7,183.4h5.6v7.4h-5.6V183.4z M248.7,198.9h5.6v7.4h-5.6V198.9z M238.7,198.9
	h5.6v7.4h-5.6V198.9z M228.6,198.9h5.6v7.4h-5.6V198.9z M218.5,198.9h5.6v7.4h-5.6V198.9z M208.4,198.9h5.6v7.4h-5.6V198.9z
	 M198.4,198.9h5.6v7.4h-5.6V198.9z M188.3,198.9h5.6v7.4h-5.6V198.9z M169.9,198.9h5.6v7.4h-5.6V198.9z M159.8,198.9h5.6v7.4h-5.6
	V198.9z M149.7,198.9h5.6v7.4h-5.6V198.9z M248.7,214.4h5.6v7.4h-5.6V214.4z M238.7,214.4h5.6v7.4h-5.6V214.4z M228.6,214.4h5.6v7.4
	h-5.6V214.4z M218.5,214.4h5.6v7.4h-5.6V214.4z M208.4,214.4h5.6v7.4h-5.6V214.4z M198.4,214.4h5.6v7.4h-5.6V214.4z M188.3,214.4
	h5.6v7.4h-5.6V214.4z M169.9,214.4h5.6v7.4h-5.6V214.4z M159.8,214.4h5.6v7.4h-5.6V214.4z M149.7,214.4h5.6v7.4h-5.6V214.4z
	 M248.7,229.9h5.6v7.4h-5.6V229.9z M238.7,229.9h5.6v7.4h-5.6V229.9z M228.6,229.9h5.6v7.4h-5.6V229.9z M218.5,229.9h5.6v7.4h-5.6
	V229.9z M208.4,229.9h5.6v7.4h-5.6V229.9z M198.4,229.9h5.6v7.4h-5.6V229.9z M188.3,229.9h5.6v7.4h-5.6V229.9z M169.9,229.9h5.6v7.4
	h-5.6V229.9z M159.8,229.9h5.6v7.4h-5.6V229.9z M149.7,229.9h5.6v7.4h-5.6V229.9z M248.7,245.5h5.6v7.4h-5.6V245.5z M238.7,245.5
	h5.6v7.4h-5.6V245.5z M228.6,245.5h5.6v7.4h-5.6V245.5z M218.5,245.5h5.6v7.4h-5.6V245.5z M208.4,245.5h5.6v7.4h-5.6V245.5z
	 M198.4,245.5h5.6v7.4h-5.6V245.5z M188.3,245.5h5.6v7.4h-5.6V245.5z M169.9,245.5h5.6v7.4h-5.6V245.5z M159.8,245.5h5.6v7.4h-5.6
	V245.5z M149.7,245.5h5.6v7.4h-5.6V245.5z M248.7,261h5.6v7.4h-5.6V261z M238.7,261h5.6v7.4h-5.6V261z M228.6,261h5.6v7.4h-5.6V261z
	 M218.5,261h5.6v7.4h-5.6V261z M208.4,261h5.6v7.4h-5.6V261z M198.4,261h5.6v7.4h-5.6V261z M188.3,261h5.6v7.4h-5.6V261z M169.9,261
	h5.6v7.4h-5.6V261z M159.8,261h5.6v7.4h-5.6V261z M149.7,261h5.6v7.4h-5.6V261z"/>
<path class="st5" d="M245.1,47.1h-86.3V36.3c0-4.6,3.5-8.3,7.8-8.3H237c4.4,0,7.8,3.7,7.8,8.3L245.1,47.1z"/>
<path class="st5" d="M434.8,220.1c3.5-0.7,5.9,3.2,6.6,6.5c0.3,1.8,0.3,3.8,1.8,5c0.6,0.4,1.3,0.8,1.9,1.1c3.8,2.1,4.1,5.9,4.2,9.8
	c-0.1,0.7,0.1,1.3,0.3,1.8c0.3,0.7,1,1,1.4,1.6c0.3,0.4,0.4,0.9,0.5,1.4c1,4.4,0.5,8.5,0.4,12.9c-0.2,31.5-16.6,30-16.6,30h-0.6
	c-4-0.3-7.5-2.8-9.8-5.9c-2.3-3.3-3.8-7.5-4.6-11.5c-0.6-3-0.9-6-1-9.1c-0.2-3.3-0.8-6.3,0.3-9.6c0.6-1.4,1.3-2.8,1.4-4.4
	c0-1.8-1-3.3-1-5c0-1,0.2-2.1,0.6-3c0.8-2.3,1.8-4.8,3-7c1-1.8,3.1-2.7,3.7-4.6c0.2-0.8,0.2-1.6,0.2-2.4c0.2-4,3.4-6.8,6.9-7.8
	L434.8,220.1z"/>
<path class="st3" d="M437.8,322.9h-4l1.3-50.5l0.6-1.3L437.8,322.9z"/>
<path class="st5" d="M264.8,220.1c3.5-0.7,5.9,3.2,6.6,6.5c0.3,1.8,0.3,3.8,1.8,5c0.6,0.4,1.3,0.8,1.9,1.1c3.8,2.1,4.1,5.9,4.2,9.8
	c-0.1,0.7,0.1,1.3,0.3,1.8c0.3,0.7,1,1,1.4,1.6c0.3,0.4,0.4,0.9,0.5,1.4c1,4.4,0.5,8.5,0.4,12.9c-0.2,31.5-16.6,30-16.6,30h-0.6
	c-4-0.3-7.5-2.8-9.8-5.9c-2.3-3.3-3.8-7.5-4.6-11.5c-0.6-3-0.9-6-1-9.1c-0.2-3.3-0.8-6.3,0.3-9.6c0.6-1.4,1.3-2.8,1.4-4.4
	c0-1.8-1-3.3-1-5c0-1,0.2-2.1,0.6-3c0.8-2.3,1.8-4.8,3-7c1-1.8,3.1-2.7,3.7-4.6c0.2-0.8,0.2-1.6,0.2-2.4c0.2-4,3.4-6.8,6.9-7.8
	L264.8,220.1z"/>
<path class="st3" d="M267.8,336.2h-4l1.3-50.5l0.6-1.3L267.8,336.2z"/>
<path class="st2" d="M596.9,287.1h-3.8c-0.4,0-0.8,0.3-0.8,0.8l-0.6,14.4h6.3l-0.3-14.4C597.7,287.4,597.3,287.1,596.9,287.1z"/>
<path class="st2" d="M596.3,287.3h-2.8c-0.7,0-1.3-0.6-1.3-1.3v-2.6c0-0.8,0.6-1.3,1.3-1.3h2.9c0.7,0,1.3,0.6,1.3,1.3v2.7
	C597.6,286.8,597,287.3,596.3,287.3z"/>
<path class="st2" d="M594.1,237.9h1.6v44.2h-1.6V237.9z"/>
<path class="st2" d="M598.3,238.9h-6.8c-0.6,0-1-0.4-1-1c0-0.6,0.4-1,1-1h6.8c0.6,0,0.9,0.4,0.9,1
	C599.2,238.5,598.8,238.9,598.3,238.9z"/>
<path class="st4" d="M598.2,236.9h-6.7l-1-10.1h8.8L598.2,236.9z"/>
<path class="st2" d="M599.8,227.3h-9.8c-0.6,0-0.9-0.4-0.9-1s0.4-1,0.9-1h9.8c0.6,0,1,0.4,1,1S600.3,227.3,599.8,227.3z
	 M595.9,222.1h-2.1v-1c0-0.6,0.5-1.1,1-1.1s1,0.5,1,1.1L595.9,222.1L595.9,222.1z"/>
<path class="st6" d="M76.3,267.9c-4.1,6.8-6.3,14.7-6.3,22.9c0,10.9,4,21.4,11,29c7,7.7,16.5,12,26.5,12.1c7.4,0,14.6-2.4,20.8-6.9
	c6.2-4.5,10.9-10.9,13.8-18.4c2.8-7.5,3.6-15.8,2.2-23.8c-1.4-8-5-15.3-10.3-21c-5.3-5.8-11.9-9.7-19.2-11.3
	c-7.3-1.6-14.8-0.8-21.6,2.3C86.2,255.8,80.4,261.1,76.3,267.9z"/>
<path class="st7" d="M227,79H98v186h129V79z"/>
<path class="st8" d="M207.4,263.3L207.4,263.3c-7.6,1.6-15.3,2.3-22.9,2.2c-7.2,0.1-14.5-0.7-21.6-2.2c-0.1,0-0.1,0-0.2,0
	c-1.7,0.9-3.5,1.4-5.3,1.4c-0.5,0-1,0-1.5-0.1c-0.3,0-0.5-0.1-0.7-0.2c-0.2-0.1-0.4-0.4-0.5-0.6c-0.1-0.4-0.1-0.9,0-1.3
	c0.1-0.4,0.2-0.9,0.5-1.2c0.3-0.6,0.5-1.2,0.8-1.8c0.5-1.1,1-2.3,1.6-3.3V256l0.1-0.1c0-0.1,0-0.2,0-0.3c-1.2-10-1.8-20.1-1.9-30.2
	v-5.1c0.2-10.1,0.8-20.1,2.1-30.1c0-0.1,0-0.2,0-0.3l-0.1-0.2c-0.6-1.1-1.1-2.2-1.6-3.3c-0.3-0.6-0.5-1.2-0.8-1.8
	c-0.2-0.4-0.4-0.8-0.5-1.2c-0.1-0.4-0.1-0.9,0-1.3c0.1-0.2,0.3-0.4,0.5-0.6c0.2-0.1,0.5-0.2,0.7-0.3c2.3-0.3,4.7,0.1,6.8,1.3
	c0.1,0,0.1,0,0.2,0c4.3-1.2,18.7-2.6,22.1-2.6h0.4c3.3,0,17.7,1.3,22,2.6c0.1,0,0.1,0,0.2,0c2.1-1.2,4.5-1.6,6.8-1.3
	c0.3,0,0.5,0.1,0.7,0.2c0.2,0.1,0.4,0.4,0.5,0.6c0.1,0.4,0.1,0.9,0,1.3c-0.1,0.4-0.2,0.9-0.5,1.2c-0.3,0.6-0.5,1.2-0.8,1.7
	c-0.5,1.1-1,2.3-1.6,3.4l-0.1,0.1c0,0.1-0.1,0.2-0.1,0.3c1.2,10,1.8,20.1,1.9,30.2v5c-0.1,10.1-0.8,20.2-1.9,30.2
	c0,0.1,0,0.2,0.1,0.3l0.1,0.1v0.1c0.6,1.1,1.1,2.2,1.6,3.4c0.3,0.6,0.5,1.2,0.8,1.7c0.2,0.4,0.4,0.8,0.5,1.2c0.1,0.4,0.1,0.9,0,1.3
	c-0.1,0.2-0.3,0.5-0.5,0.6c-0.2,0.1-0.5,0.2-0.7,0.2c-2.3,0.3-4.7-0.1-6.8-1.3L207.4,263.3z"/>
<path class="st9" d="M157.2,256l0.1-0.2c-0.5-4.6-0.9-9.2-1.3-13.8c1.6,5.9,4.2,11.2,8.8,15.2c7.5,6.4,18.3,6.5,27,5.1
	c8-1.3,15.9-5,20-14.1c1-2.2,1.8-4.5,2.3-6.9c-0.3,4.9-0.8,9.7-1.3,14.5l0.1,0.2c0.9,1.6,1.6,3.4,2.4,5.1c0.9,2,1,3.5-1,3.9
	c-2.4,0.4-4.8-0.1-7-1.3c-4.4,1.3-26.1,4.2-44.6,0c-2.2,1.2-4.6,1.6-7,1.3c-2-0.4-1.9-2-1-3.9C155.6,259.4,156.3,257.6,157.2,256
	L157.2,256z M202.4,228.5l3.2-18.6l-35.6-7.4l-3.2,18.6L202.4,228.5z M202.3,212.3l-2.1,12.5l-30.1-6.3l2.1-12.5L202.3,212.3z
	 M99.1,229.5c2.8-2.6,6.3-4,9.9-4.1h18.5c7.8,0,14,7,15.1,12.5c1.6,0.7,3.1,1.9,3.1,3.9c0,0.9-2,1.4-4.2,1.6
	c-1.6,1.8-4.5,2.1-7.8,2.1h-30.8c-1.3,0-2.5-0.1-3.7-0.2L99.1,229.5z"/>
<path class="st10" d="M99,242.5c14.8,0.9,29.7,0.6,44.5-0.8c0.1,0.1,0.2,0.2,0.3,0.4l0.1,0.1l0.2,0.3c-6.8,1.5-12.1,4.5-28,4.5
	c-5.8,0.2-11.5-0.4-17.1-1.6L99,242.5z"/>
<path class="st11" d="M99.1,229.5c2.8-2.6,6.3-4.1,9.9-4.1h18.5c2.9,0.1,5.6,1,8.1,2.7c2.4,1.6,4.5,3.9,5.9,6.7
	c-4-1.3-8.1-2.2-12.2-2.7c-5.5-0.6-11-0.8-16.5-0.4c-4.6,0.2-9.2,0.7-13.7,1.6L99.1,229.5z"/>
<path class="st9" d="M99.1,249.4c2.8-2.6,6.3-4,9.9-4.1h18.5c7.8,0,14,7,15.1,12.5c1.6,0.7,3.1,1.8,3.1,3.9c0,0.9-2,1.4-4.2,1.6
	c-1.6,1.8-4.5,2.1-7.8,2.1h-30.8c-1.3,0-2.5-0.1-3.7-0.2L99.1,249.4z"/>
<path class="st10" d="M99.1,261c14.8,0.9,29.7,0.6,44.5-0.8c0.1,0.1,0.2,0.2,0.3,0.4l0.1,0.1l0.2,0.3c-6.8,1.5-12.1,4.5-28,4.5
	c-5.8,0.2-11.5-0.4-17.1-1.6L99.1,261z"/>
<path class="st11" d="M99.1,249.4c2.8-2.6,6.3-4.1,9.9-4.1h18.5c2.9,0.1,5.6,1,8.1,2.7c2.4,1.6,4.5,3.9,5.9,6.7
	c-4-1.3-8.1-2.2-12.2-2.7c-5.5-0.6-11-0.8-16.5-0.4c-4.6,0.2-9.2,0.7-13.7,1.6L99.1,249.4z"/>
<path class="st9" d="M99.1,204.3h0.4c7.8,0,14,7,15.1,12.5c1.6,0.7,3.1,1.8,3.1,3.9c0,0.9-2,1.4-4.2,1.6c-1.6,1.8-4.5,2.1-7.8,2.1
	h-6.6L99.1,204.3z"/>
<path class="st11" d="M99.1,204.3h0.4c2.9,0.1,5.6,1,8.1,2.7c2.4,1.6,4.5,4,5.9,6.7c-4-1.3-8.1-2.2-12.2-2.7
	c-0.7-0.1-1.5-0.1-2.2-0.2L99.1,204.3z"/>
<path class="st9" d="M144.9,261.1c0-2,1.5-3.2,3.1-3.9c1-5.5,7.5-12.5,15.1-12.5h18.6c7.8,0,14,7,15.1,12.5c1.6,0.7,3.1,1.8,3.1,3.9
	c0,0.9-2,1.4-4.2,1.6c-1.6,1.8-4.5,2.1-7.8,2.1H157c-3.4,0-6.3-0.3-7.9-2.1C146.9,262.5,144.9,262,144.9,261.1L144.9,261.1z"/>
<path class="st10" d="M146,260.9l0.1-0.2l0.1-0.2l0.1-0.2l0.3-0.3c17,1.4,34.1,1.3,51.1-0.3l0.3,0.4l0.1,0.1l0.2,0.3
	c-6.8,1.5-12.1,4.5-28,4.5c-16.5,0-20.3-2.7-24.4-4L146,260.9z"/>
<path class="st11" d="M183.4,251.4c-5.5-0.6-11-0.8-16.6-0.5c-5.5,0.2-11.1,0.9-16.5,2.2l-0.8,0.2c2.5-4.4,7.7-8.6,13.5-8.6h18.6
	c2.9,0.1,5.6,1,8.1,2.6c2.4,1.6,4.5,3.9,5.9,6.7C191.6,252.8,187.5,251.9,183.4,251.4L183.4,251.4z"/>
<path class="st9" d="M139.4,241.8c0-2,1.5-3.2,3.1-3.9c1-5.5,7.5-12.5,15.1-12.5h18.6c7.8,0,14,7,15.1,12.5c1.6,0.7,3.1,1.8,3.1,3.9
	c0,0.9-2,1.4-4.2,1.6c-1.6,1.8-4.5,2.1-7.8,2.1h-30.8c-3.4,0-6.3-0.3-7.9-2.1C141.3,243.3,139.4,242.8,139.4,241.8z"/>
<path class="st10" d="M140.5,241.6l0.1-0.2l0.1-0.1l0.1-0.2l0.3-0.3c17,1.4,34.1,1.3,51.1-0.3l0.3,0.4l0.1,0.1l0.2,0.3
	c-6.8,1.5-12.1,4.5-28,4.5c-16.5,0-20.3-2.7-24.4-4C140.4,241.7,140.5,241.7,140.5,241.6L140.5,241.6z"/>
<path class="st11" d="M177.9,232.2c-5.5-0.6-11-0.8-16.6-0.5c-5.6,0.2-11.1,0.9-16.5,2.2l-0.8,0.2c2.5-4.4,7.7-8.6,13.5-8.6h18.6
	c2.9,0.1,5.6,1,8.1,2.7c2.4,1.6,4.5,4,5.9,6.7C186.1,233.6,182,232.7,177.9,232.2z"/>
<path class="st12" d="M5.9,294.9h94.5v-30.2H2.8C3.5,274.4,4.6,284.5,5.9,294.9z"/>
<path class="st13" d="M226.8,264.7H100.3c-1.1,0-2.1,0.3-3.1,0.7s-1.9,1.1-2.7,1.9c-0.8,0.8-1.3,1.8-1.8,2.9
	c-0.4,1.1-0.6,2.3-0.6,3.4v12.3c0,2.3,0.8,4.7,2.3,6.3c1.5,1.7,3.6,2.6,5.8,2.7h126.6c2.2,0,4.3-0.9,5.8-2.6
	c1.5-1.7,2.4-3.9,2.4-6.3v-12.3c0-2.3-0.9-4.6-2.4-6.3C231.1,265.6,229,264.7,226.8,264.7z"/>
<path class="st14" d="M115,279.8c0-1.3-0.3-2.5-1-3.6c-0.7-1.1-1.6-1.8-2.6-2.3c-1.1-0.5-2.3-0.6-3.3-0.3c-1.2,0.3-2.2,0.8-3,1.8
	c-0.8,0.9-1.3,2-1.6,3.3c-0.3,1.3-0.1,2.5,0.3,3.7c0.4,1.2,1.2,2.2,2.2,2.8c0.9,0.7,2.1,1.1,3.3,1.1c0.8,0,1.5-0.2,2.3-0.5
	c0.7-0.3,1.3-0.8,1.9-1.3c0.5-0.6,1-1.3,1.3-2.1C114.8,281.5,115,280.7,115,279.8z"/>
<path class="st15" d="M125,279.8c0-0.8-0.3-1.6-0.8-2.3c-0.5-0.6-1.3-0.9-2-0.9h-0.1c-0.8,0-1.5,0.3-2.1,0.9s-0.9,1.3-0.9,2.3
	c0,0.4,0.1,0.8,0.3,1.2c0.2,0.4,0.3,0.8,0.7,1c0.3,0.3,0.6,0.5,0.9,0.7c0.3,0.2,0.8,0.3,1.1,0.3h0.1c0.8,0,1.4-0.3,1.9-0.8
	s0.8-1.3,0.9-2.1V279.8z"/>
<path class="st14" d="M215.7,279.8c0,1.3,0.3,2.5,1,3.6s1.6,1.8,2.6,2.3c1.1,0.5,2.3,0.6,3.3,0.3c1.2-0.3,2.2-0.8,3-1.8
	c0.8-0.9,1.3-2,1.6-3.3c0.3-1.3,0.1-2.5-0.3-3.7c-0.4-1.2-1.2-2.2-2.2-2.8c-0.9-0.7-2.1-1.1-3.3-1.1c-1.5,0-3,0.7-4.1,1.9
	C216.3,276.5,215.7,278.1,215.7,279.8z"/>
<path class="st15" d="M205.7,279.8c0,0.6,0.2,1.3,0.5,1.8s0.8,0.9,1.3,1.2c0.5,0.3,1.1,0.3,1.7,0.2c0.6-0.1,1.1-0.4,1.5-0.8
	c0.4-0.4,0.7-1,0.8-1.6s0.1-1.3-0.2-1.8c-0.3-0.6-0.6-1.1-1.1-1.4c-0.5-0.3-1-0.5-1.6-0.5c-0.8,0-1.4,0.3-2,0.8
	c-0.5,0.6-0.8,1.3-0.8,2.1H205.7z"/>
<path class="st16" d="M227,79H99v9h128V79z"/>
<path class="st17" d="M2.8,264.7h97.5v-186H32.2C8.5,120.1-3.9,180.3,2.8,264.7z"/>
<path class="st18" d="M2.8,264.7h97.5v-37.5L1,230.3C1.3,241.3,1.9,252.8,2.8,264.7z"/>
<path class="st6" d="M5.9,294.8H58c0-11.6-4.3-22.8-11.7-31c-7.5-8.3-17.6-12.9-28.2-12.9H18c-5.3,0-10.4,1.2-15.3,3.3
	c-0.2,0.1-0.3,0.2-0.6,0.3C2.9,267.4,4.1,280.8,5.9,294.8z"/>
<path class="st6" d="M34.6,329.3c4.9-2.1,9.4-5.5,12.9-9.8c5.8-7.1,8.8-16.3,8.6-25.8c-0.3-9.5-3.8-18.5-9.9-25.2
	s-14.4-10.5-23-10.8v-0.1h-9.3v56C18.7,318.6,25.7,323.9,34.6,329.3z"/>
<path class="st19" d="M6.5,302c-1.4-10.9-2.7-24.9-3.5-35.1c-0.2-2-0.3-3.9-0.5-5.9c0.2-0.1,0.4-0.2,0.6-0.3
	c0.2-0.1,0.4-0.2,0.6-0.3c6.2-2.8,12.9-3.5,19.4-2.1c6.5,1.4,12.5,4.9,17.3,10.1c4.7,5.2,7.9,11.8,9.2,18.9
	c1.3,7.2,0.7,14.6-1.9,21.4c-2.6,6.8-6.8,12.5-12.4,16.6c-1.1,0.8-2.3,1.6-3.4,2.2C17.4,318.5,8.6,309.7,6.5,302z"/>
<path class="st18" d="M6.2,301.8c-0.6-5-1.4-13.2-1.9-18.1c0-0.5-0.1-1-0.1-1.5c3-3.6,7.3-5.8,12.1-5.8c9.1,0,16.5,8.1,16.5,18.1
	s-7.4,18.1-16.5,18.1c-1.3,0-2.6-0.2-3.9-0.5C9.2,308.5,7.1,305.1,6.2,301.8z"/>
<path class="st20" d="M1.1,230.3l99.3-3.1v-18.9l-99.3,4.9C1,218.7,1,224.5,1.1,230.3z"/>
<path class="st21" d="M474.8,183.5c-0.4,0.1-0.5,1-0.3,2.4c0.1,0.7,0.1,1.6,0.2,2.6c0.1,1,0.2,2.1,0.3,3.3c0.1,1.2,0.1,2.5-0.1,3.7
	c-0.1,0.6-0.2,1.3-0.3,1.9c-0.1,0.6-0.3,1.3-0.5,1.9c-0.2,0.6-0.5,1.2-0.8,1.8c-0.3,0.5-0.6,1.1-1,1.6c-0.4,0.5-0.8,0.9-1.3,1.2
	c-0.1,0.1-0.2,0.2-0.3,0.3l-0.4,0.3c-0.3,0.2-0.5,0.3-0.8,0.5c-1.1,0.6-2.3,1-3.6,1.3c-0.6,0.1-1.3,0.2-1.9,0.3
	c-0.3,0-0.6,0.1-1,0.1c-0.3,0-0.6,0-0.9,0c-0.6,0-1.2,0-1.8,0c-0.6,0-1.2-0.1-1.8-0.1c-1.2-0.1-2.3-0.3-3.4-0.4
	c-1.1-0.1-2.1-0.3-3.1-0.4c-0.8-0.1-1.7-0.1-2.6-0.1c-0.7,0-1.3,0.1-1.9,0.4c-0.5,0.2-0.9,0.5-1.1,0.9c-0.2,0.5-0.3,1-0.1,1.5
	c0.2,0.7,0.5,1.3,0.9,1.8c0.6,0.8,1.2,1.5,2,2.1c1,0.8,2,1.5,3.1,2.1c1.4,0.7,2.8,1.3,4.3,1.7c0.9,0.2,1.7,0.4,2.6,0.6
	c1,0.1,1.9,0.2,2.9,0.2c0.5,0,1,0,1.5,0c0.5,0,1-0.1,1.6-0.1c1.1-0.1,2.1-0.3,3.2-0.6c2.3-0.6,4.5-1.7,6.4-3.2
	c0.5-0.4,1-0.8,1.5-1.3c0.2-0.2,0.5-0.5,0.7-0.7c0.2-0.2,0.4-0.5,0.6-0.7c0.8-1,1.4-2,2-3.1c0.5-1,0.9-2.1,1.2-3.2
	c0.3-1,0.5-2.1,0.5-3.1c0.1-1,0.1-2,0-2.9c-0.1-0.9-0.2-1.8-0.4-2.7c-0.3-1.5-0.8-3-1.3-4.4c-0.5-1.1-1-2.2-1.6-3.3
	c-0.4-0.8-0.9-1.5-1.4-2.3C475.8,184,475.2,183.4,474.8,183.5L474.8,183.5z"/>
<path class="st22" d="M420.5,183.4h95.7v17.7h-95.7V183.4z"/>
<path class="st23" d="M466,201.1h-4.4c-8.8-0.9-18.4-1.5-23.1,0h-1.8C442,198.8,455.3,199.9,466,201.1z M420.6,200.6v-0.5
	c6.2-0.4,12.3-1.1,19.4-2c1.4-0.2,3.4-0.3,5.9-0.5c2.6-0.1,5.7-0.2,8.7-0.3c8.5-0.2,17.1,0.2,25.9,0.6c7.8,0.4,15.8,0.7,24.2,0.7
	c1.2,0,2.3,0,3.3-0.1v0.5c-1,0-2.1,0.1-3.3,0.1c-8.4,0-16.4-0.4-24.3-0.7c-8.8-0.4-17.3-0.8-25.7-0.7c-3,0.1-6,0.2-8.6,0.3
	c-2.3,0.1-4.3,0.3-5.7,0.5C433.2,199.5,426.9,200.2,420.6,200.6L420.6,200.6z M420.6,198.7v-0.5l6-0.7l11.3-1.2
	c1.1-0.3,1.6-0.5,1.4-0.5c-0.8-0.5-9.6-0.2-18.8,0.2v-0.5c9.5-0.4,18.6-0.7,19.8,0.1c0.5,0.3,0,0.7-1.9,1.2c-0.1,0-5.7,0.7-11.6,1.3
	L420.6,198.7z M420.6,192.7v-0.5c8.5-0.4,18-0.8,25.6,0.2c5.7,0.7,11.4,1.4,17.1,2.1c5.8,0.7,11.5,1.3,17.3,1.8
	c3.2,0.3,12.7,0.6,21.3,0.6c2.1,0,4.2,0,6.1,0v0.5h-6.1c-8.7-0.1-18.2-0.3-21.5-0.6c-5.8-0.5-11.6-1.1-17.4-1.8
	c-5.8-0.7-11.5-1.4-17.2-2.1C438.4,192,429,192.4,420.6,192.7L420.6,192.7z M420.6,188.2v-0.5c2,0.1,4.1,0.3,6.1,0.4
	c7.2,0.5,14.3,1.1,21.2,2c8,0.9,13.2,1.9,17.6,2.7c8.4,1.5,14.2,2.5,32,2.5c2.3,0,6.4-0.1,10.4-0.3v0.5c-4,0.2-8,0.3-10.4,0.3
	c-18.1,0-24-1.1-32.5-2.6c-4.4-0.8-9.5-1.7-17.5-2.6c-6.9-0.8-14-1.4-21.1-2C424.5,188.4,422.5,188.3,420.6,188.2L420.6,188.2z
	 M420.6,186v-0.5c4.9,0.1,7.7,0.4,12.3,0.9c1.6,0.2,3.3,0.3,5.3,0.5c10.3,0.8,19,1.9,26.9,2.9c14.9,1.8,27.1,3.3,42.7,2.3v0.5
	c-15.7,1-28-0.5-43-2.3c-7.9-1-16.5-2-26.8-2.8l-5.4-0.5C428.1,186.5,425.4,186.2,420.6,186L420.6,186z M435.6,183.5h2.2
	c16.1,4.1,24.5,2.8,41.8,0h3.3l-0.6,0.1l-2.2,0.3C461.8,186.9,453.3,188.2,435.6,183.5L435.6,183.5z M507.9,185.8v0.5
	c-5.4-0.1-11.1-0.1-16.1,0c-5.1,0.1-8.8,0.2-11.5,0.5c-2.8,0.3-4.2,0.6-4.2,0.8c-0.1,0.5,3.1,0.8,7.1,0.9c3.8,0.2,8.2,0.2,11.5,0.2
	c1.7,0,3.1,0,3.8,0c3,0.1,5.9,0.2,8.7,0.4l0.8,0v0.5l-0.9,0c-2.9-0.1-5.7-0.3-8.7-0.4c-0.8,0-2.1,0-3.8,0c-3.2,0-7.7-0.1-11.5-0.2
	c-4.6-0.2-8.4-0.6-8.2-1.4c0.1-0.5,1.8-0.9,5.2-1.2c2.7-0.3,6.6-0.4,11.7-0.5C496.8,185.7,502.4,185.8,507.9,185.8L507.9,185.8z"/>
<path class="st24" d="M507.9,183.5h8.3v17.6h-8.3V183.5z"/>
<path class="st4" d="M465.2,219.3c0.8,7.4,0.9,14.9,0.9,22.4c-6.9,2.6-14.3,3.5-21.6,2.6c-0.8-7.5-1.5-15.1-1.8-22.7
	c-0.2-4-0.2-8,0.8-11.9c0.9-3.5,2.6-6.8,5.3-8.9c0.3-0.3,0.6-0.5,1-0.7c1.7,1.3,5.2,1.7,7,0.7c1,0.6,2,1.4,2.8,2.4
	c1.5,1.7,2.7,3.6,3.5,5.8C464.2,212.3,464.8,215.8,465.2,219.3L465.2,219.3z"/>
<path class="st25" d="M459.5,203.2c-1.8,0.6-3.7,0.7-5.6,0.3c-1-0.2-2-0.6-2.9-1c-0.7-0.4-1.4-0.8-2-1.3c0-0.1,0-0.3-0.1-0.4
	c0-0.1,0-0.1,0-0.2l0.1-0.6c0.3-2.1,0.5-4.3,0.7-6.4c0.2-2,0.4-3.9,0.6-5.9c2.2,1,4.3,2.2,6.3,3.6c0.1,1.3,0.2,2.7,0.4,4
	c0.1,1.1,0.3,2.2,0.5,3.3c0.1,0.6,0.2,1.2,0.4,1.8c0.1,0.6,0.3,1.1,0.4,1.7C458.7,202.3,459.1,202.8,459.5,203.2L459.5,203.2z"/>
<path class="st26" d="M457.5,198.4c-2.3-2-5-3.7-7.7-5c0.2-2,0.4-4,0.6-5.9c2.2,1,4.3,2.2,6.3,3.6c0.1,1.3,0.2,2.7,0.4,4
	C457.1,196.2,457.3,197.3,457.5,198.4L457.5,198.4z"/>
<path class="st13" d="M421.8,316.7c0,0,0.2,5.2,4.8,4.9l1.5,18.7l-13.5-21.8L421.8,316.7z"/>
<path class="st4" d="M425.9,341l-12.8-20.7c-0.1-0.2-0.1-0.3-0.1-0.5c0-0.2,0.1-0.3,0.3-0.4l1.3-0.8l13.5,21.8l-1.3,0.8
	c-0.1,0.1-0.3,0.1-0.5,0.1C426.2,341.2,426,341.1,425.9,341L425.9,341z M424.1,325.6c0.1,0,0.1,0.1,0.2,0.1c0.9,0.1,1.8,0.3,2.7,0.6
	c0,0,0.1,0,0.2,0c0.1,0,0.1,0,0.2,0c0,0,0.1,0,0.1-0.1c0,0,0.1-0.1,0.1-0.1c0-0.1,0-0.2,0-0.3c0-0.1-0.1-0.2-0.2-0.2
	c-0.9-0.4-2-0.6-3-0.7c-0.1,0-0.1,0-0.2,0c-0.1,0-0.1,0-0.1,0.1c0,0-0.1,0.1-0.1,0.1c0,0.1,0,0.1,0,0.2c0,0.1,0,0.1,0,0.2
	C424,325.5,424,325.6,424.1,325.6L424.1,325.6z M424.3,327.9c0.1,0,0.1,0.1,0.2,0.1c0.9,0.1,1.8,0.3,2.7,0.6c0,0,0.1,0,0.2,0
	c0.1,0,0.1,0,0.2,0c0,0,0.1-0.1,0.1-0.1c0,0,0.1-0.1,0.1-0.1c0-0.1,0-0.2,0-0.3c0-0.1-0.1-0.2-0.2-0.2c-0.9-0.4-2-0.6-3-0.7
	c-0.1,0-0.1,0-0.2,0c-0.1,0-0.1,0-0.1,0.1c0,0-0.1,0.1-0.1,0.1c0,0,0,0.1,0,0.2c0,0.1,0,0.1,0,0.2
	C424.2,327.8,424.3,327.9,424.3,327.9L424.3,327.9z M424.6,330.3c0.1,0,0.1,0.1,0.2,0.1c0.9,0.1,1.8,0.3,2.7,0.6c0,0,0.1,0,0.2,0
	c0.1,0,0.1,0,0.2,0c0,0,0.1-0.1,0.1-0.1s0.1-0.1,0.1-0.1c0-0.1,0-0.2,0-0.3c0-0.1-0.1-0.2-0.2-0.2c-0.9-0.4-2-0.6-3-0.7
	c-0.1,0-0.1,0-0.2,0c-0.1,0-0.1,0-0.1,0.1c0,0-0.1,0.1-0.1,0.1c0,0,0,0.1,0,0.2c0,0.1,0,0.1,0.1,0.2
	C424.5,330.2,424.5,330.2,424.6,330.3L424.6,330.3z"/>
<path class="st13" d="M472.6,327c0,0,4.6,2.2,6.5-2.1l16.9,7.3l-25.2,2.1L472.6,327z"/>
<path class="st4" d="M495.4,334.5l-23.5,2c-0.1,0-0.2,0-0.3,0c-0.1,0-0.2-0.1-0.3-0.2c-0.1-0.1-0.2-0.2-0.2-0.3
	c-0.1-0.1-0.1-0.2-0.1-0.3l-0.1-1.4l25.2-2.1l0.1,1.4c0,0.2-0.1,0.4-0.2,0.6C495.8,334.4,495.6,334.5,495.4,334.5z M481.4,329
	c0.1,0,0.1-0.1,0.2-0.2c0.5-0.8,1.1-1.5,1.8-2.1c0,0,0.1-0.1,0.1-0.1c0,0,0-0.1,0.1-0.2c0-0.1,0-0.1,0-0.2c0-0.1,0-0.1-0.1-0.1
	c-0.1-0.1-0.2-0.1-0.3-0.1c-0.1,0-0.2,0-0.3,0.1c-0.8,0.7-1.5,1.5-2,2.4c0,0,0,0.1-0.1,0.2c0,0.1,0,0.1,0,0.2c0,0.1,0,0.1,0.1,0.1
	c0,0,0.1,0.1,0.1,0.1c0.1,0,0.1,0.1,0.2,0.1C481.2,329.1,481.3,329,481.4,329z M483.5,329.9c0.1,0,0.1-0.1,0.2-0.2
	c0.5-0.8,1.1-1.5,1.8-2.1c0,0,0.1-0.1,0.1-0.1c0,0,0-0.1,0.1-0.2c0-0.1,0-0.1,0-0.2c0-0.1,0-0.1-0.1-0.1c-0.1-0.1-0.2-0.1-0.3-0.1
	c-0.1,0-0.2,0-0.3,0.1c-0.8,0.7-1.5,1.5-2,2.4c0,0,0,0.1-0.1,0.2c0,0.1,0,0.1,0,0.2c0,0.1,0,0.1,0.1,0.1c0,0,0.1,0.1,0.1,0.1
	c0.1,0,0.1,0.1,0.2,0.1C483.4,329.9,483.5,329.9,483.5,329.9z M485.7,330.7c0.1,0,0.1-0.1,0.2-0.2c0.5-0.8,1.1-1.5,1.8-2.1
	c0,0,0.1-0.1,0.1-0.1c0,0,0-0.1,0-0.2c0-0.1,0-0.1,0-0.2c0-0.1,0-0.1-0.1-0.1c-0.1-0.1-0.2-0.1-0.3-0.1c-0.1,0-0.2,0-0.3,0.1
	c-0.8,0.7-1.5,1.5-2,2.4c0,0,0,0.1-0.1,0.2c0,0.1,0,0.1,0,0.2c0,0.1,0,0.1,0.1,0.1c0,0,0.1,0.1,0.1,0.1c0.1,0,0.1,0.1,0.2,0.1
	C485.5,330.8,485.6,330.8,485.7,330.7L485.7,330.7z"/>
<path class="st27" d="M444.6,255.5c0,0,7.1,34.7-26.7,61l9.7,10c0,0,37.8-28.7,32.5-63.7L444.6,255.5z"/>
<path class="st28" d="M444,275.9c0.6,0.7,1.1,1.4,1.7,2.1c1.4,1.9,2.6,4,3.6,6.1c1.8,3.6,3.3,7.3,4.6,11.1
	c4.9-9.5,8.1-20.6,6.3-32.3l-15.5-7.3C444.7,255.5,446.4,264.1,444,275.9z"/>
<path class="st29" d="M465.1,213c1.8,10.7,2.7,26.4,1.9,37.3c0,0,20.5,37.5,17.8,76l-14.4,4.3c0,0-5.2-50.3-25.9-75.1l-1.8-25.2
	l15.6-3.3l0.9-13.6L465.1,213z"/>
<path class="st27" d="M443.7,233.1c-0.1,0-0.3-0.1-0.5-0.5c-0.1-0.2-0.2-0.4-0.3-0.6c-0.1-0.3-0.2-0.6-0.3-0.9
	c0-0.2-0.1-0.3-0.2-0.5c-0.1-0.2-0.1-0.4-0.2-0.6c-0.1-0.2-0.1-0.4-0.2-0.7c-0.1-0.2-0.1-0.5-0.1-0.7c0-0.2-0.1-0.5-0.1-0.8
	l-0.1-0.8c-0.1-0.6-0.2-1.2-0.2-1.8c-0.1-1.3-0.2-2.6-0.2-4.1c0-1.6,0.1-3.2,0.3-4.7c0.2-1.7,0.5-3.5,0.9-5.2c0.4-1.9,1.1-3.8,2-5.5
	c0.5-0.9,1.2-1.7,1.9-2.5c0.8-0.7,1.6-1.3,2.6-1.7c0.5-0.2,1-0.3,1.5-0.4l0.4-0.1l0.4,0h0.8c1,0.1,1.9,0.3,2.8,0.7
	c0.8,0.4,1.6,0.8,2.2,1.4c0.2,0.1,0.3,0.3,0.5,0.4l0.5,0.4l0.4,0.5c0.1,0.2,0.3,0.3,0.4,0.5c0.5,0.6,0.9,1.2,1.2,1.9
	c0.3,0.6,0.5,1.3,0.7,1.9c0.3,1.1,0.6,2.2,0.7,3.4c0.1,0.8,0.2,1.7,0.2,2.5c0,1.4-0.1,2.2-0.2,2.2c-0.1,0-0.3-0.7-0.6-2.1
	c-0.1-0.7-0.3-1.5-0.6-2.4c-0.3-1-0.6-2-1-3c-0.5-1.1-1.1-2.2-1.9-3.1c-0.1-0.1-0.2-0.2-0.3-0.4l-0.4-0.3l-0.4-0.3
	c-0.1-0.1-0.3-0.2-0.4-0.3c-0.6-0.4-1.2-0.7-1.8-1c-0.6-0.2-1.3-0.4-2-0.4h-0.3c-0.1,0-0.2,0-0.2,0l-0.3,0l-0.2,0.1
	c-0.3,0.1-0.7,0.2-1,0.3c-1.4,0.7-2.5,1.8-3.2,3.2c-0.8,1.5-1.3,3.1-1.7,4.7c-0.4,1.7-0.7,3.3-0.9,4.9c-0.2,1.6-0.4,3.1-0.5,4.5
	c-0.1,1.4-0.1,2.7-0.1,3.9c0,0.6,0,1.2,0,1.7v0.8c0,0.3,0,0.5,0,0.7c0,0.2,0,0.5,0,0.7c0,0.2,0,0.4,0,0.6s0,0.4,0,0.6
	c0,0.2,0,0.4,0,0.5v0.9c0,0.3,0,0.5,0,0.7C443.9,232.8,443.9,233,443.7,233.1L443.7,233.1z"/>
<path class="st29" d="M457.1,172c-0.3-0.8-0.7-1.5-1.2-2.1c-0.6-0.6-1.2-1.1-2-1.4c-1.5-0.6-3.2-0.6-4.8-0.2
	c-1.6,0.5-3.1,1.4-4.2,2.7c-1.1,1.3-1.7,3-1.7,4.7c0,2.7,1.6,5.1,3.1,7.3C449,178.5,452.7,174.8,457.1,172L457.1,172z"/>
<path class="st28" d="M458.7,168.9c0.7-0.5,1.6-0.9,2.4-0.8c1.2,0.1,2,1.5,2,2.7c0,1.2-0.7,2.4-1.6,3.3c-1.3,1.4-3.1,2.4-4.9,2.9
	s-3.9,0.3-5.7-0.4c-0.5-0.2-1.7-0.5-1.9-1c-0.4-0.8,0.4-0.9,1-1.3C452.9,172.4,455.8,170.6,458.7,168.9L458.7,168.9z"/>
<path class="st13" d="M450.1,190.7c-1.8-1.5-3.1-3.6-3.7-5.9c-0.6-2.3-0.5-4.8,0.3-7c0.2-0.3,0.3-0.6,0.5-0.9
	c0.4-0.6,0.9-1.2,1.4-1.7c1.1,1.6,1.9,3.4,2.4,5.2C451.7,183.8,451.4,187.5,450.1,190.7L450.1,190.7z M459.5,178.6
	c0.4,0.9,0.5,1.9,0.4,2.9c-0.1,1-0.5,1.9-1.1,2.7c-0.9-1.3-1.6-2.8-1.9-4.4c-0.1-0.2-0.1-0.4-0.1-0.6c0-0.2,0.1-0.4,0.2-0.6
	c0.1-0.1,0.3-0.2,0.5-0.3c0.2-0.1,0.4-0.1,0.6,0C458.7,178.3,459.2,178.7,459.5,178.6z"/>
<path class="st25" d="M458.2,177.9c-0.3,2.1,0.7,4.2,1.6,6.2c0.9,2,1.7,4.2,1,6.2c-0.7,2.1-3.1,3.4-5.3,3.2
	c-2.2-0.2-4.1-1.7-5.2-3.7c-1-2-1.5-4.3-1.3-6.5c0.2-2.2,0.6-4.5,1.1-6.7C452.7,175.2,455.9,176,458.2,177.9z"/>
<path class="st25" d="M449.6,184c-0.3-0.3-0.6-0.5-0.9-0.7c-0.4-0.2-0.8-0.2-1.1-0.1c-0.2,0.1-0.4,0.3-0.6,0.5
	c-0.2,0.2-0.3,0.4-0.3,0.7c-0.1,0.5-0.1,1,0,1.5c0.2,0.5,0.5,0.9,0.8,1.2c0.4,0.3,0.9,0.5,1.3,0.5c0.5,0,1-0.1,1.4-0.4
	C449.9,186.1,449.7,185,449.6,184L449.6,184z"/>
<path class="st13" d="M459.8,179.5c-3.1,0.2-6.2-0.5-9-2c0.3,0.9,0.3,1.9,0.1,2.9c-0.3,1.4-1.1,2.6-2.2,3.5c-1.3-1.8-2-4.2-1.8-6.2
	c0-0.3,0.1-0.5,0.1-0.8c0.4-0.6,0.9-1.2,1.4-1.7c0.8-0.8,1.8-1.5,2.8-2c1.4-0.6,2.9-0.9,4.4-0.8c1.5,0.1,3,0.5,4.3,1.3
	c0.2,0.2,0.4,0.4,0.6,0.6c0.5,0.5,0.9,1.1,1.2,1.8c0.2,0.4,0.2,0.8,0.2,1.2c0,0.4-0.1,0.8-0.3,1.1c-0.2,0.3-0.5,0.6-0.8,0.8
	S460.2,179.5,459.8,179.5L459.8,179.5z M510.4,324.7l-15.6-82.6l-14.4-6.9c-0.4-0.2-0.6-0.5-0.8-0.9c-0.1-0.4-0.1-0.8,0.1-1.2
	c0.2-0.4,0.5-0.7,0.9-0.8c0.4-0.2,0.8-0.2,1.2,0l15.9,7.6l0.2,0.8l15.1,80l68.2-17.6c0.2-0.1,0.4-0.1,0.6-0.1c0.2,0,0.4,0.1,0.6,0.2
	c0.2,0.1,0.4,0.3,0.5,0.4c0.1,0.2,0.2,0.4,0.3,0.6c0.1,0.2,0.1,0.4,0,0.7c0,0.2-0.1,0.4-0.2,0.6c-0.1,0.2-0.3,0.4-0.4,0.5
	c-0.2,0.1-0.4,0.2-0.6,0.3L510.4,324.7z"/>
<path class="st13" d="M524.5,314.7h3.3l-14-74.1l-0.2-0.8l-15.9-7.6c-0.4-0.2-0.8-0.2-1.2,0c-0.4,0.2-0.7,0.5-0.9,0.8
	c-0.2,0.4-0.2,0.8-0.1,1.2c0.1,0.4,0.4,0.7,0.8,0.9l14.4,6.9L524.5,314.7z"/>
<path class="st13" d="M494.8,322.1l10.1-28.2l3.2,1.2l-10.1,28.2L494.8,322.1z"/>
<path class="st13" d="M505.2,285.6l28.6-7l0.8,3.4l-28.6,7L505.2,285.6z"/>
<path class="st13" d="M502.5,335.8c5.1,0,9.2-4.2,9.2-9.4s-4.1-9.4-9.2-9.4c-5.1,0-9.2,4.2-9.2,9.4S497.4,335.8,502.5,335.8z"/>
<path class="st29" d="M502.5,332.3c3.2,0,5.8-2.7,5.8-5.9c0-3.3-2.6-5.9-5.8-5.9c-3.2,0-5.8,2.7-5.8,5.9
	C496.7,329.7,499.3,332.3,502.5,332.3z"/>
<path class="st30" d="M502.5,329.3c1.5,0,2.8-1.3,2.8-2.9c0-1.6-1.3-2.9-2.8-2.9c-1.5,0-2.8,1.3-2.8,2.9
	C499.7,328,501,329.3,502.5,329.3z"/>
<path class="st25" d="M489,234.6c-0.2,0.2-0.4,0.4-0.6,0.5c-0.1,0.1-0.2,0.2-0.4,0.3c-0.1,0.1-0.3,0.2-0.5,0.3
	c-0.3,0.2-0.7,0.4-1.1,0.7c-0.4,0.3-0.9,0.5-1.4,0.7c-0.5,0.2-1.1,0.5-1.7,0.7c-0.6,0.2-1.2,0.4-1.9,0.7l-0.5,0.2
	c-0.2,0.1-0.4,0.1-0.5,0.1l-1.1,0.3c-0.4,0.1-0.8,0.1-1.2,0.2c-0.4,0.1-0.8,0.1-1.3,0.2l-1.3,0.1l-0.7,0.1h-2.1l-1.5-0.1
	c-0.5,0-1-0.1-1.5-0.2c-0.5-0.1-1-0.1-1.5-0.2l-1.6-0.3l-1.6-0.4c-2.2-0.7-4.4-1.6-6.4-2.8c-2-1.2-3.9-2.7-5.6-4.4l-1.2-1.3
	c-0.4-0.4-0.7-0.9-1-1.3c-0.3-0.4-0.6-0.9-0.9-1.3c-0.3-0.4-0.6-0.9-0.9-1.4c-0.3-0.5-0.5-0.9-0.8-1.4c-0.2-0.5-0.5-0.9-0.6-1.4
	l-0.3-0.7c-0.1-0.2-0.2-0.5-0.3-0.7c-0.1-0.4-0.3-0.8-0.4-1.2c3.9-0.9,7.3-3.2,9.7-6.4l0.2,0.4c0.1,0.3,0.3,0.5,0.4,0.8l0.4,0.8
	c0.1,0.3,0.3,0.6,0.5,0.9c0.1,0.1,0.1,0.3,0.2,0.4l0.2,0.4c0.2,0.3,0.3,0.6,0.5,0.9c0.1,0.3,0.4,0.6,0.5,0.9
	c0.2,0.3,0.4,0.6,0.6,0.9c0.2,0.3,0.4,0.6,0.6,0.9c0.2,0.3,0.4,0.6,0.6,0.9c0.2,0.3,0.5,0.6,0.7,0.9c1,1.2,2,2.4,3.1,3.5
	c1.2,1.1,2.5,2.1,3.8,2.9l1,0.6l1,0.6c0.3,0.2,0.7,0.3,1.1,0.5c0.4,0.2,0.7,0.3,1.1,0.5l1.1,0.4c0.4,0.1,0.7,0.2,1.1,0.3l0.5,0.2
	c0.2,0.1,0.3,0.1,0.5,0.1l1,0.3c0.3,0.1,0.7,0.1,1,0.2c0.3,0.1,0.7,0.1,1,0.2l1,0.1c0.2,0,0.3,0,0.5,0.1l0.5,0
	c0.6,0,1.2,0.1,1.8,0.1c0.6,0,1.1,0,1.6,0c0.5,0,1,0,1.4-0.1c0.4,0,0.8-0.1,1.2-0.1l0.5,0l0.5,0c0.3,0,0.5,0,0.7,0
	c0.4,0,0.7,0.1,0.7,0.2C489.4,234.1,489.3,234.3,489,234.6L489,234.6z"/>
<path class="st25" d="M485.3,234.6c0.5-1,1.4-1.7,2.4-2.1c1-0.4,2.2-0.4,3.2,0c1,0.4,1.9,1.1,2.4,2.1c0.5,1,0.7,2.1,0.5,3.2
	C490.6,238.1,487.5,236.8,485.3,234.6z"/>
<path class="st31" d="M564.5,296.1l-58.3-88.3l-11.9,10l51.7,78.3H564.5L564.5,296.1z"/>
<path class="st31" d="M502.5,216.2c-3.5,2.4-7.2,3.2-8.2,1.7c-1-1.5,1.1-4.7,4.6-7.1c3.5-2.4,6.7-4,7.7-2.5
	C507.5,209.7,506,213.7,502.5,216.2L502.5,216.2z"/>
<path class="st13" d="M551.9,294.7c-1.3-2-2.6-4-3.9-6c-5.1-7.9-10-15.3-15.8-23.4l-0.1-0.1c-0.2-0.4-0.4-0.8-0.5-1.3
	c-0.1-0.4-0.2-0.7-0.4-1c-5.4-7.5-13-19-19.7-29.1c-5.4-8.2-10.6-16-12.1-17.9c-0.7,0.7-1.6,1.2-2.4,1.6c-1.9,0.8-2.9,0.3-3.5-0.3
	l-0.1-0.1l-0.1-0.1c-0.5-1,0.1-2,0.5-2.8c0.1-0.2,0.3-0.4,0.4-0.6l0-0.1l0.1-0.1c2.7-2.8,6.1-6.3,10.5-6.3h0.3l0.9,0.9v0.3
	c0,0.2,0,0.4-0.1,0.6c-0.1,0.2-0.2,0.3-0.4,0.4c0,0-0.1,0.1-0.1,0.1l-0.1,0.2l-0.1,0.1c-1.9,1.8-4.1,3.2-6.3,4.5l0.1,0.1l0.2-0.2
	l0.3,0c0.6,0.1,0.7,0.1,13.1,18.7c6.7,10.1,14.3,21.6,19.7,29.1l0.1,0.1c0.2,0.4,0.4,0.8,0.5,1.3c0.1,0.4,0.2,0.7,0.4,1
	c5.8,8.1,10.6,15.6,15.8,23.4c1.3,2,2.6,4,3.9,6L551.9,294.7z M494.6,216.4c0.5,0.4,1.3,0.2,1.9-0.1c0.5-0.3,1-0.6,1.5-0.9l-1-1.5
	l1.2-0.7c2.1-1.3,4.3-2.6,6.1-4.3c0-0.1,0.1-0.2,0.1-0.3c-3.5,0.3-6.4,3.2-8.9,5.8c-0.1,0.2-0.3,0.4-0.4,0.7
	C494.8,215.7,494.5,216.1,494.6,216.4L494.6,216.4z"/>
<path class="st4" d="M561.2,296.1l-3.6-5.4l-0.1,0.1c-0.4,0.8-2,2.2-3.3,3.1c-1.3,0.9-3.2,1.9-4.1,2l-0.1,0.1l0.1,0.2H561.2z"/>
<path class="st32" d="M557,290.2C557,290.2,557,290.2,557,290.2L557,290.2L557,290.2z M559.9,296.1l-1.5-2.2l-1.1,0.7l1,1.5H559.9z
	 M556.8,296.1l-0.5-0.8l-1.1,0.7l0,0.1H556.8L556.8,296.1z"/>
<path class="st33" d="M534.6,315.1l-16.2-62.4l46.5-11.9l16.2,62.4L534.6,315.1L534.6,315.1z"/>
<path class="st34" d="M519.3,319l-16.2-62.4l15.4-3.9l16.2,62.4L519.3,319z"/>
<path class="st35" d="M546.9,252.3l14.5-3.7l2.2,9l-14.5,3.7L546.9,252.3z"/>
<path class="st36" d="M519.7,283.9l33.3-8.5l7.9,32.4c0,0.1,0,0.3-0.1,0.4c-0.1,0.1-0.2,0.2-0.3,0.2l-32.3,8.2c-0.1,0-0.3,0-0.4-0.1
	c-0.1-0.1-0.2-0.2-0.2-0.3L519.7,283.9z"/>
<path class="st37" d="M522,293.4l-2.3-9.5l33.3-8.5l0.8,4L522,293.4z"/>
<path class="st32" d="M528.5,291.3l21.9-5.6l3.7,15.3l-21.9,5.6L528.5,291.3z"/>
<path class="st38" d="M553.2,276.3l-33.3,8.5c-0.1-0.3-0.1-0.6,0-0.8c0-0.3,0.1-0.5,0.3-0.8c0.1-0.2,0.3-0.4,0.5-0.6
	c0.2-0.2,0.5-0.3,0.7-0.4l29.3-7.5c0.5-0.1,1.1,0,1.6,0.2C552.8,275.3,553.1,275.8,553.2,276.3L553.2,276.3z"/>
<path class="st13" d="M519.8,284.3l33.6-8.5l0.3,1.4l-33.6,8.5L519.8,284.3z"/>
<path class="st38" d="M530.9,292.5l17.9-4.5l0.3,1.4l-17.9,4.5L530.9,292.5z"/>
<path class="st38" d="M531.6,295.5l17.9-4.5l0.3,1.4l-17.9,4.5L531.6,295.5z"/>
<path class="st38" d="M532.3,298.3l10.3-2.6l0.3,1.4l-10.3,2.6L532.3,298.3z"/>
<path class="st31" d="M547.8,301.1c2,0,3.5-1.6,3.5-3.6c0-2-1.6-3.6-3.5-3.6c-2,0-3.5,1.6-3.5,3.6
	C544.3,299.5,545.9,301.1,547.8,301.1z"/>
<path class="st13" d="M553.2,276c2.5,10.2-2.9,20.4-12.1,22.7c-9.1,2.3-18.6-4.1-21.1-14.3c-0.2,0-0.3,0.1-0.5,0.2
	c-0.1,0.1-0.3,0.3-0.4,0.4c-0.1,0.2-0.1,0.3-0.2,0.5c0,0.2,0,0.4,0.1,0.5c3.2,10.2,12.9,16.4,22.3,14c9.4-2.4,15.2-12.5,13.3-23
	c0-0.2-0.1-0.4-0.2-0.5c-0.1-0.2-0.2-0.3-0.4-0.4s-0.3-0.2-0.5-0.2C553.5,275.9,553.3,275.9,553.2,276L553.2,276z"/>
<path class="st21" d="M353.2,204.8c-0.4,0-0.8,0.6-1.5,1.9c-0.3,0.6-0.6,1.4-1,2.3c-0.4,0.9-0.8,1.9-1.3,2.9
	c-0.5,1.1-1.1,2.1-1.8,3.1c-0.7,1-1.5,1.9-2.5,2.8c-0.5,0.4-1,0.8-1.5,1.1c-0.5,0.3-1.1,0.6-1.6,0.8c-0.5,0.2-1.1,0.4-1.6,0.5
	c-0.1,0-0.3,0-0.4,0l-0.4,0h-0.9c-1.2,0-2.5-0.3-3.7-0.6c-0.6-0.2-1.2-0.4-1.9-0.7c-0.3-0.1-0.6-0.3-0.9-0.4
	c-0.3-0.1-0.6-0.3-0.8-0.4c-0.6-0.3-1.1-0.6-1.6-0.9c-0.5-0.3-1-0.6-1.5-1c-0.9-0.7-1.9-1.4-2.8-2c-0.9-0.6-1.6-1.2-2.5-1.8
	c-0.7-0.5-1.4-0.9-2.1-1.3c-0.6-0.3-1.2-0.5-1.9-0.6c-0.5-0.1-1,0-1.4,0.3c-0.4,0.3-0.7,0.7-0.8,1.2c-0.2,0.6-0.2,1.3-0.1,2
	c0.1,0.9,0.4,1.8,0.7,2.7c0.5,1.1,1,2.2,1.7,3.3c0.8,1.3,1.8,2.5,2.9,3.5c0.6,0.6,1.3,1.2,2,1.8c0.8,0.6,1.5,1.1,2.4,1.6
	c0.4,0.3,0.8,0.5,1.3,0.7c0.4,0.2,0.9,0.5,1.4,0.6c1,0.4,2,0.8,3,1c2.3,0.6,4.7,0.7,7,0.4c0.6-0.1,1.2-0.2,1.9-0.3l0.9-0.3
	c0.3-0.1,0.6-0.2,0.8-0.3c1.1-0.4,2.2-1,3.2-1.6c0.9-0.6,1.8-1.4,2.6-2.2c0.7-0.7,1.4-1.5,2-2.4c0.5-0.8,1-1.6,1.4-2.5
	c0.4-0.8,0.7-1.6,0.9-2.4c0.4-1.4,0.7-2.9,0.9-4.3c0.1-1.2,0.2-2.3,0.2-3.5c0-0.9,0-1.7-0.1-2.6
	C353.8,205.6,353.5,204.8,353.2,204.8L353.2,204.8z"/>
<path class="st37" d="M361.3,207.5C361.3,207.5,361.3,207.5,361.3,207.5c2-5.9,3.4-11.9,4.2-18c0.9-5.8,1.2-11.6,0.9-17.4
	c0,0,0-0.1,0-0.1c0.8-1.2,1.4-2.6,1.6-4.1c0.1-0.4,0.1-0.8,0.1-1.2c0-0.2,0-0.4-0.1-0.6c-0.1-0.2-0.2-0.4-0.4-0.5
	c-0.3-0.1-0.6-0.2-0.9-0.1c-0.3,0-0.6,0.1-0.9,0.3l-1.4,0.4c-0.8,0.3-1.8,0.6-2.6,0.9h0l-0.1,0c-0.1,0-0.1,0-0.2,0
	c-7.1-2-14.3-3.6-21.5-4.7l-1.4-0.2l-0.4,0l-0.4-0.1c-0.5-0.1-0.9-0.1-1.4-0.2c-7.3-1-14.6-1.5-22-1.6c-0.1,0-0.1,0-0.2-0.1
	l-0.1-0.1c-0.7-0.6-1.5-1.1-2.2-1.6l-1.2-0.8c-0.2-0.2-0.5-0.4-0.8-0.5c-0.3-0.1-0.6-0.2-0.9-0.1c-0.3,0.1-0.6,0.4-0.8,0.9
	c-0.5,1.8-0.5,3.7,0.1,5.5c0,0,0,0.1,0,0.2c-1.4,3.3-4,14.6-4.4,17.2v0.3c-0.4,2.6-1.1,14.2-0.7,17.8c0,0.1,0,0.1,0,0.1
	c-1.1,1.5-1.7,3.4-1.7,5.2c0,0.2,0,0.4,0.1,0.6c0.1,0.2,0.2,0.4,0.4,0.5c0.3,0.1,0.6,0.2,0.9,0.1c0.3,0,0.6-0.1,0.9-0.3l1.3-0.4
	c0.9-0.3,1.8-0.6,2.6-0.9h0.1l0.1,0c0.1,0,0.1,0,0.2,0c7.1,2,14.3,3.6,21.5,4.7l3.6,0.5c7.3,1,14.6,1.5,22,1.6c0,0,0.1,0,0.1,0
	c0,0,0.1,0,0.1,0.1l0.1,0.1v0c0.7,0.6,1.5,1.1,2.2,1.6c0.4,0.3,0.8,0.5,1.2,0.8c0.2,0.2,0.5,0.4,0.8,0.5c0.3,0.1,0.6,0.2,0.9,0.1
	c0.2-0.1,0.4-0.2,0.5-0.4s0.2-0.4,0.3-0.6C362,211.3,362,209.4,361.3,207.5C361.4,207.6,361.3,207.6,361.3,207.5L361.3,207.5z"/>
<path class="st39" d="M361.9,166.9c0,0-0.1,0-0.1,0.1c-3.3-0.9-6.6-1.7-9.8-2.5c4.1,1.9,7.6,4.5,9.9,8.6c3.7,6.6,2.5,15.2,0.5,22
	c-1.8,6.3-5.5,12.1-12.5,14.4c-1.7,0.5-3.5,0.9-5.2,1.1c3.5,0.2,7,0.4,10.6,0.5l0.1,0.1c1.1,0.9,2.3,1.6,3.4,2.5
	c1.3,0.9,2.5,1.1,2.9-0.4c0.5-1.9,0.5-3.8-0.1-5.6c1.4-3.4,6.1-20.3,5.2-35.4c1.1-1.6,1.7-3.5,1.8-5.4c-0.1-1.6-1.2-1.8-2.7-1.2
	C364.6,166,363.2,166.4,361.9,166.9L361.9,166.9z M336.9,199.9l-13.7,0.6l-1.2-29.1l13.7-0.6L336.9,199.9z M325.3,198.1l9.2-0.4
	l-1-24.6l-9.2,0.4L325.3,198.1z"/>
<path class="st4" d="M333,222.9c0.3,7.2,0,14.4-0.6,21.6c-6.9,2.1-14.3,2.4-21.4,1.1c-0.3-7.4-0.5-14.6-0.3-21.9
	c-0.1-3.8,0.5-7.7,1.5-11.4c1-3.3,3-6.2,5.8-8.2c0.3-0.2,0.6-0.4,1-0.6c1,0.7,2.1,1.2,3.3,1.4c1.2,0.2,2.4,0.1,3.6-0.2
	c1,0.7,1.9,1.5,2.6,2.5c1.4,1.7,2.4,3.7,3.1,5.8C332.4,216.1,332.9,219.5,333,222.9L333,222.9z"/>
<path class="st25" d="M328.5,207c-2.8,0.6-5.8,0.2-8.3-1.3c-0.7-0.4-1.3-0.9-1.9-1.4v-0.6c0-0.2,0.1-0.4,0.1-0.6
	c0.4-2,0.8-4.1,1.1-6.1c0.3-1.9,0.6-3.8,0.9-5.7c2.1,1.1,4.1,2.4,6,3.9c0,1.3,0,2.6,0.1,3.9c0,1.1,0.2,2.1,0.3,3.2
	c0,0.6,0.1,1.2,0.2,1.8c0.1,0.6,0.2,1.1,0.3,1.6C327.8,206.1,328.2,206.5,328.5,207L328.5,207z"/>
<path class="st26" d="M326.8,202.3c-2.2-2.1-4.7-3.9-7.4-5.3c0.3-1.9,0.6-3.8,0.9-5.7c2.1,1.1,4.1,2.4,6,3.9c0,1.3,0,2.6,0.1,3.9
	C326.6,200.1,326.7,201.2,326.8,202.3z"/>
<path class="st13" d="M283.9,311.6c0,0-0.1,5.1,4.5,5l0.3,18.1l-11.9-21.9L283.9,311.6z"/>
<path class="st4" d="M286.3,335.2l-11.3-20.7c-0.1-0.2-0.1-0.3-0.1-0.5c0-0.2,0.1-0.3,0.3-0.4v0l1.3-0.7l11.9,21.9l-1.3,0.7
	c-0.1,0.1-0.3,0.1-0.5,0.1C286.6,335.4,286.4,335.3,286.3,335.2L286.3,335.2z M285.6,320.2C285.6,320.2,285.6,320.3,285.6,320.2
	c0.1,0.1,0.2,0.1,0.2,0.1c0.9,0.1,1.8,0.4,2.6,0.8c0,0,0.1,0,0.1,0.1c0,0,0.1,0,0.1,0c0,0,0.1,0,0.1-0.1c0,0,0.1-0.1,0.1-0.1
	c0-0.1,0-0.2,0-0.3c0-0.1-0.1-0.2-0.2-0.2c-0.9-0.5-1.9-0.8-2.9-0.9c0,0-0.1,0-0.1,0c0,0-0.1,0-0.1,0.1c0,0-0.1,0.1-0.1,0.1
	s0,0.1,0,0.1c0,0.1,0,0.2,0,0.2C285.5,320.1,285.5,320.2,285.6,320.2L285.6,320.2z M285.7,322.6c0.1,0.1,0.1,0.1,0.2,0.1
	c0.9,0.1,1.8,0.4,2.6,0.8c0,0,0.1,0,0.1,0.1c0,0,0.1,0,0.1,0c0,0,0.1,0,0.1-0.1c0,0,0.1-0.1,0.1-0.1c0-0.1,0-0.2,0-0.3
	c0-0.1-0.1-0.2-0.2-0.3c-0.9-0.5-1.9-0.8-2.9-0.9c0,0-0.1,0-0.1,0c0,0-0.1,0-0.1,0.1c0,0-0.1,0.1-0.1,0.1c0,0,0,0.1-0.1,0.1v0
	c0,0.1,0,0.1,0,0.2C285.6,322.4,285.6,322.5,285.7,322.6L285.7,322.6z M285.7,324.8C285.8,324.8,285.8,324.8,285.7,324.8
	c0.1,0.1,0.2,0.1,0.2,0.1c0.9,0.1,1.8,0.4,2.6,0.8c0,0,0.1,0,0.1,0.1c0,0,0.1,0,0.1,0c0,0,0.1,0,0.1-0.1c0,0,0.1-0.1,0.1-0.1v0
	c0-0.1,0-0.2,0-0.3c0-0.1-0.1-0.2-0.2-0.2c-0.9-0.5-1.9-0.8-2.9-0.9c0,0-0.1,0-0.1,0c0,0-0.1,0-0.1,0.1c0,0-0.1,0.1-0.1,0.1
	c0,0,0,0.1,0,0.1C285.6,324.6,285.6,324.7,285.7,324.8L285.7,324.8z"/>
<path class="st13" d="M333.2,326.9c0,0,4.4,2.5,6.6-1.6l16.2,8.2l-24.9,0.3L333.2,326.9z"/>
<path class="st4" d="M355.1,335.8l-23.3,0.3c-0.2,0-0.4-0.1-0.6-0.2c-0.2-0.2-0.2-0.4-0.2-0.6v-1.4l24.9-0.3v1.4c0,0.1,0,0.2,0,0.3
	c0,0.1-0.1,0.2-0.2,0.3c-0.1,0.1-0.2,0.1-0.3,0.2C355.3,335.7,355.2,335.8,355.1,335.8z M341.7,329.5c0.1,0,0.1-0.1,0.2-0.1
	c0.5-0.7,1.2-1.4,1.9-1.9c0.1-0.1,0.1-0.1,0.2-0.2c0-0.1,0-0.2,0-0.3h0c-0.1-0.1-0.2-0.1-0.3-0.2c-0.1,0-0.2,0-0.3,0.1
	c-0.8,0.6-1.5,1.3-2.1,2.1c-0.1,0.1-0.1,0.2-0.1,0.3c0,0.1,0.1,0.2,0.2,0.3c0.1,0,0.1,0,0.2,0C341.5,329.5,341.6,329.5,341.7,329.5
	L341.7,329.5z M343.8,330.5c0.1,0,0.1-0.1,0.2-0.1c0.5-0.7,1.2-1.4,1.9-1.9c0.1-0.1,0.1-0.1,0.2-0.2c0-0.1,0-0.2,0-0.3c0,0,0,0,0,0
	c0,0,0,0,0,0c0,0,0,0,0,0c0,0,0,0,0,0c-0.1-0.1-0.2-0.1-0.3-0.2c-0.1,0-0.2,0-0.3,0.1c-0.8,0.6-1.5,1.3-2.1,2.2
	c-0.1,0.1-0.1,0.2-0.1,0.3c0,0.1,0.1,0.2,0.2,0.3C343.5,330.5,343.6,330.5,343.8,330.5z M345.8,331.4c0.1,0,0.1-0.1,0.2-0.1
	c0.5-0.7,1.2-1.4,1.9-1.9c0.1-0.1,0.1-0.1,0.2-0.2c0-0.1,0-0.2,0-0.3c0,0,0,0,0,0c0,0,0,0,0,0c0,0,0,0,0,0c0,0,0,0,0,0
	c-0.1-0.1-0.2-0.1-0.3-0.2c-0.1,0-0.2,0-0.3,0.1c-0.8,0.6-1.5,1.3-2.1,2.1c-0.1,0.1-0.1,0.2-0.1,0.3c0,0.1,0.1,0.2,0.2,0.3
	C345.5,331.5,345.7,331.5,345.8,331.4L345.8,331.4z"/>
<path class="st27" d="M310.3,254.3c0,0,4.7,33.9-30.2,56.9l8.9,10.3c0,0,39.1-25.1,36.2-59L310.3,254.3z"/>
<path class="st28" d="M308.4,273.8c0.5,0.7,1,1.4,1.5,2.2c1.2,1.9,2.3,4,3.2,6.1c1.5,3.5,2.8,7.2,3.7,10.9
	c5.5-8.8,9.3-19.3,8.3-30.7l-14.9-8.1C310.4,254.3,311.6,262.6,308.4,273.8L308.4,273.8z"/>
<path class="st29" d="M333.3,216.8c1.1,12,0.9,24-0.6,36c0,0,17.7,37.4,12.5,74.3l-14.4,3.1c0,0-1.9-48.7-20.5-73.9l-0.1-24.4
	l15.6-2.1l1.7-13L333.3,216.8z"/>
<path class="st27" d="M311,234.7c-0.1,0-0.3-0.1-0.4-0.5c-0.1-0.2-0.2-0.4-0.3-0.6c-0.1-0.3-0.2-0.6-0.3-0.8c0-0.2-0.1-0.3-0.1-0.5
	c0-0.2-0.1-0.4-0.1-0.6l-0.1-0.7c0-0.2,0-0.4-0.1-0.7c-0.1-0.3,0-0.5-0.1-0.7s0-0.5-0.1-0.8c-0.1-0.6-0.1-1.1-0.1-1.7
	c0-1.3,0-2.7,0.1-4c0.1-1.5,0.3-3,0.6-4.6c0.3-1.7,0.7-3.3,1.2-4.9c0.5-1.8,1.3-3.6,2.4-5.1c0.6-0.8,1.3-1.6,2.1-2.2
	c0.8-0.7,1.7-1.2,2.7-1.5c0.5-0.2,1-0.3,1.5-0.3h1.5c0.9,0.1,1.8,0.4,2.7,0.8c0.8,0.4,1.5,0.9,2.1,1.5l0.4,0.4l0.4,0.4l0.4,0.5
	l0.3,0.5c0.4,0.6,0.8,1.3,1,2c0.2,0.6,0.5,1.2,0.6,1.8c0.3,1.1,0.4,2.2,0.5,3.3c0,0.9,0,1.8,0,2.5c0,1.3-0.2,2.1-0.3,2.1
	c-0.1,0-0.3-0.7-0.5-2c-0.1-0.6-0.2-1.5-0.4-2.4c-0.2-1-0.5-2-0.8-3c-0.4-1.1-1-2.2-1.7-3.1c-0.1-0.1-0.2-0.3-0.3-0.4l-0.3-0.3
	l-0.3-0.3l-0.4-0.3c-0.5-0.4-1.1-0.8-1.7-1c-0.6-0.3-1.3-0.4-1.9-0.5h-1c-0.3,0-0.7,0.1-1,0.3c-1.4,0.6-2.5,1.6-3.3,2.9
	c-0.9,1.4-1.5,2.9-2,4.5c-0.5,1.6-0.9,3.1-1.2,4.6c-0.3,1.5-0.6,2.9-0.7,4.3c-0.2,1.3-0.3,2.6-0.4,3.8c0,0.6-0.1,1.1-0.1,1.6v4.8
	c0,0.2,0,0.4,0,0.6C311.2,234.5,311.1,234.7,311,234.7L311,234.7z"/>
<path class="st25" d="M319.4,220.3l0.2,0.2c1.4,1.4,3,2.6,4.8,3.5c2,1,4.2,1.7,6.4,2.1c1.2,0.2,2.5,0.2,3.7,0.1
	c1.3-0.1,2.6-0.3,3.9-0.8c1.2-0.4,2.4-1,3.5-1.7c1-0.6,2-1.4,2.8-2.2c0.8-0.8,1.5-1.6,2.2-2.5c0.6-0.8,1.2-1.7,1.6-2.6
	c0.9-1.6,1.5-3.3,1.9-5.1c0.4-1.5,0.6-2.9,0.7-4.4c0.1-1.2,0.1-2.4,0.1-3.6v-0.4c1.6-1.4,2.5-3.3,2.7-5.4c0.1-2.1-0.6-4.1-1.9-5.7
	c-0.2-0.3-0.5-0.5-0.7-0.7c-0.2-0.1-0.3-0.2-0.5-0.3c-0.2-0.1-0.4-0.1-0.6-0.1c-1.2,0.1-1.4,1.5-1.2,2.5c0.2,1,0.5,1.9,0,2.7
	c-0.1,0.2-0.3,0.5-0.5,0.6c-0.2,0.2-0.5,0.3-0.8,0.3h-0.2c-0.1,0-0.3,0-0.4,0.1c-0.1,0-0.3,0.1-0.4,0.2c-0.1,0.1-0.2,0.2-0.2,0.3
	c-0.1,0.1-0.1,0.3-0.1,0.4c0,0.1,0,0.2,0,0.3c0.1,0.4,0.3,0.8,0.5,1.2c0.4,0.7,0.9,1.4,1.4,2.1c-0.6,1.2-1.2,2.7-2,4.3
	c-0.6,1.1-1.2,2.2-1.9,3.3c-0.7,1.1-1.5,2.2-2.4,3.1c-0.9,1-1.9,1.8-3,2.5c-0.5,0.3-1.1,0.6-1.6,0.8c-0.5,0.2-1.1,0.3-1.6,0.4
	c-0.5,0.1-1.1,0.1-1.6,0c-0.6,0-1.1-0.1-1.6-0.2c-1.1-0.3-2.2-0.6-3.3-1.1c-1-0.5-2-1-3-1.6c-0.7-0.5-1.4-1-2.1-1.5
	C323.5,214.7,321.9,217.8,319.4,220.3L319.4,220.3z"/>
<path class="st29" d="M328.2,176.8c-0.2-0.8-0.6-1.5-1.1-2.1c-0.5-0.6-1.1-1.1-1.9-1.5c-1.5-0.7-3.1-0.8-4.7-0.5
	c-1.6,0.3-3.1,1.1-4.2,2.3c-1.2,1.2-1.9,2.8-2,4.4c-0.2,2.6,1.2,5,2.5,7.3C319.8,182.6,323.7,179.2,328.2,176.8L328.2,176.8z"/>
<path class="st28" d="M329.9,173.9c0.7-0.5,1.6-0.7,2.5-0.6c0.6,0.2,1.1,0.5,1.4,1c0.3,0.5,0.5,1.1,0.4,1.7c-0.2,1.2-0.8,2.3-1.8,3
	c-1.4,1.3-3.2,2.1-5.1,2.4c-1.9,0.3-3.8,0-5.6-0.8c-0.4-0.2-1.6-0.6-1.9-1.1c-0.3-0.8,0.4-0.9,1.1-1.2
	C324.1,176.9,327,175.4,329.9,173.9z"/>
<path class="st15" d="M320,194.4c-2.1-2-3.3-4.7-3.5-7.6c-0.1-1.7,0.2-3.4,0.9-5c0.2-0.3,0.4-0.6,0.6-0.8c0.4-0.6,0.9-1.1,1.5-1.6
	c1,1.6,1.7,3.4,2,5.2C322.1,187.9,321.6,191.3,320,194.4L320,194.4z M330.2,183.4c0.3,0.9,0.4,1.9,0.2,2.8c-0.2,0.9-0.6,1.8-1.2,2.5
	c-0.8-1.3-1.4-2.8-1.5-4.4c0-0.2,0-0.4,0-0.6c0-0.2,0.1-0.4,0.3-0.6c0.2-0.1,0.3-0.2,0.5-0.3c0.2,0,0.4,0,0.6,0
	C329.3,183,329.8,183.5,330.2,183.4L330.2,183.4z"/>
<path class="st25" d="M328.9,182.6c-0.4,2,0.4,4.1,1.2,6.1c0.7,2,1.4,4.2,0.6,6.1c-0.5,1-1.3,1.8-2.2,2.3c-1,0.5-2.1,0.7-3.1,0.5
	c-1.1-0.2-2.1-0.7-2.9-1.4c-0.9-0.7-1.5-1.5-2-2.5c-0.9-2-1.2-4.2-0.9-6.4c0.3-2.2,0.8-4.3,1.5-6.3
	C323.7,179.6,326.7,180.6,328.9,182.6z"/>
<path class="st25" d="M320,187.8c-0.2-0.3-0.5-0.5-0.8-0.8c-0.2-0.1-0.3-0.2-0.5-0.2c-0.2,0-0.4,0-0.6,0c-0.2,0.1-0.4,0.2-0.6,0.4
	c-0.2,0.2-0.3,0.4-0.4,0.6c-0.1,0.3-0.1,0.6-0.1,0.9c0,0.3,0.1,0.6,0.2,0.9c0.1,0.3,0.3,0.5,0.6,0.7c0.2,0.2,0.5,0.4,0.8,0.5
	c0.3,0.1,0.6,0.1,1,0.1c0.3,0,0.6-0.1,0.9-0.3C320.2,189.8,320,188.8,320,187.8z"/>
<path class="st15" d="M330.4,184.2c-3.1,0-6.1-0.9-8.7-2.5c0.2,0.9,0.2,1.9-0.1,2.8c-0.4,1.3-1.2,2.4-2.4,3.2
	c-1.2-1.8-1.6-4-1.3-6.1c0-0.3,0.1-0.5,0.2-0.7c0.4-0.6,0.9-1.1,1.5-1.6c0.9-0.7,1.8-1.3,2.9-1.7c1.4-0.5,2.9-0.6,4.4-0.5
	c1.5,0.2,2.9,0.7,4.1,1.5c0.2,0.2,0.4,0.4,0.6,0.6c0.5,0.5,0.8,1.1,1.1,1.8c0.1,0.3,0.2,0.6,0.2,0.9c0,0.3-0.1,0.6-0.2,0.9
	c-0.1,0.3-0.3,0.5-0.5,0.8c-0.2,0.2-0.5,0.4-0.8,0.5C330.9,184.2,330.6,184.3,330.4,184.2L330.4,184.2z"/>
</svg>
