<svg version="1.1" xmlns="http://www.w3.org/2000/svg" xmlns:xlink="http://www.w3.org/1999/xlink" width="630" height="390" viewBox="0 0 630 390">
<style type="text/css">
	.st0{fill:#EAF1FC;}
	.st1{fill:#F8F8FF;}
	.st2{fill:#CDE4F7;}
	.st3{fill:#E9EDF4;}
	.st4{fill:#FFFFFF;}
	.st5{fill:#ECF7FE;}
	.st6{fill:#E08F73;}
	.st7{fill:#B6CAD5;}
	.st8{fill:#899BA3;}
	.st9{fill:#F09976;}
	.st10{fill:#E8815F;}
	.st11{fill:#0B2B46;}
	.st12{fill:#047487;}
	.st13{fill:#05616B;}
	.st14{fill:#02819F;}
	.st15{fill:#FFDA35;}
	.st16{fill:#0F222C;}
	.st17{fill:#2C6292;}
	.st18{fill:#4473CE;}
	.st19{fill:#1B4B76;}
	.st20{fill:#0F3456;}
	.st21{fill:#448DCE;}
	.st22{fill:#1D4259;}
	.st23{fill:#3270A7;}
	.st24{fill:#222846;}
	.st25{fill:#FF524F;}
	.st26{fill:#F2F2F2;}
	.st27{fill:#F19100;}
</style>
<path class="st0" d="M629.8,338.1c0,0.8-0.1,1.5-0.4,2.2c-0.3,0.8-0.7,1.5-1.1,2.2c-0.6,0.8-1.2,1.5-1.9,2.2
	c-0.8,0.8-1.7,1.5-2.6,2.2c-1.1,0.8-2.2,1.5-3.4,2.2c-1.2,0.7-2.6,1.4-4.1,2.1c-1.5,0.7-3.1,1.4-4.8,2.1c-1.7,0.7-3.6,1.4-5.6,2.1
	c-2,0.7-4.1,1.4-6.3,2c-2.2,0.7-4.5,1.3-7,2c-2.4,0.7-5,1.3-7.6,1.9c-2.6,0.6-5.4,1.3-8.3,1.9c-2.9,0.6-5.8,1.2-8.9,1.8
	c-3.1,0.6-6.2,1.2-9.5,1.7c-3.3,0.6-6.6,1.1-10.1,1.7c-3.5,0.5-7,1.1-10.7,1.6s-7.4,1-11.2,1.5c-3.8,0.5-7.7,1-11.7,1.4
	c-4,0.5-8,0.9-12.2,1.4c-4.1,0.4-8.3,0.9-12.6,1.3c-4.3,0.4-8.6,0.8-13.1,1.2c-4.4,0.4-8.9,0.7-13.4,1.1c-4.5,0.4-9.1,0.7-13.8,1
	c-4.7,0.3-9.4,0.6-14.1,0.9c-4.7,0.3-9.6,0.5-14.4,0.8c-4.8,0.2-9.7,0.5-14.7,0.7c-4.9,0.2-9.9,0.4-14.9,0.6c-5,0.2-10,0.3-15.1,0.5
	c-5.1,0.1-10.1,0.3-15.2,0.4c-5.1,0.1-10.2,0.2-15.3,0.3c-5.1,0.1-10.3,0.1-15.4,0.2c-5.2,0-10.3,0.1-15.4,0.1s-10.3,0-15.5-0.1
	c-5.2-0.1-10.3-0.1-15.4-0.2c-5.1-0.1-10.2-0.2-15.3-0.3c-5.1-0.1-10.2-0.2-15.2-0.4c-5.1-0.1-10.1-0.3-15.1-0.5
	c-5-0.2-10-0.4-14.9-0.6c-4.9-0.2-9.8-0.4-14.7-0.7c-4.8-0.3-9.7-0.5-14.4-0.8c-4.8-0.3-9.5-0.6-14.1-0.9c-4.7-0.3-9.3-0.6-13.8-1
	c-4.5-0.3-9-0.7-13.5-1.1c-4.4-0.4-8.8-0.8-13.1-1.2c-4.3-0.4-8.5-0.8-12.6-1.3c-4.1-0.4-8.2-0.9-12.2-1.4c-4-0.5-7.9-0.9-11.7-1.4
	c-3.8-0.5-7.5-1-11.2-1.5c-3.6-0.5-7.2-1-10.7-1.6c-3.4-0.6-6.8-1.1-10.1-1.7c-3.3-0.6-6.4-1.1-9.5-1.7s-6-1.2-8.9-1.8
	c-2.9-0.6-5.6-1.2-8.3-1.9c-2.6-0.6-5.2-1.3-7.6-1.9c-2.4-0.6-4.7-1.3-6.9-2c-2.2-0.7-4.3-1.3-6.3-2c-2-0.7-3.8-1.4-5.6-2.1
	c-1.7-0.7-3.4-1.4-4.8-2.1c-1.5-0.7-2.9-1.4-4.1-2.1c-1.2-0.7-2.3-1.4-3.4-2.2c-0.9-0.7-1.8-1.4-2.6-2.2c-0.7-0.7-1.3-1.4-1.9-2.2
	c-0.5-0.7-0.9-1.4-1.1-2.2c-0.5-1.4-0.5-3,0-4.4c0.3-0.8,0.7-1.5,1.1-2.2c0.6-0.8,1.2-1.5,1.9-2.2c0.8-0.8,1.7-1.5,2.6-2.2
	c1.1-0.8,2.2-1.5,3.4-2.2c1.3-0.7,2.6-1.4,4.1-2.1c1.5-0.7,3.1-1.4,4.8-2.1c1.7-0.7,3.6-1.4,5.6-2.1c2-0.7,4.1-1.4,6.3-2
	c2.2-0.7,4.5-1.3,6.9-2c2.4-0.7,5-1.3,7.6-1.9c2.7-0.6,5.4-1.3,8.3-1.9c2.9-0.6,5.8-1.2,8.9-1.8c3.1-0.6,6.2-1.2,9.5-1.7
	c3.3-0.6,6.6-1.1,10.1-1.7c3.5-0.5,7-1.1,10.7-1.6c3.6-0.5,7.4-1,11.2-1.5c3.8-0.5,7.7-1,11.7-1.4c4-0.5,8-0.9,12.2-1.4
	c4.1-0.4,8.4-0.9,12.6-1.3c4.3-0.4,8.7-0.8,13.1-1.2c4.4-0.4,8.9-0.7,13.5-1.1c4.6-0.4,9.1-0.7,13.8-1s9.4-0.6,14.1-0.9
	s9.6-0.5,14.4-0.8c4.9-0.2,9.7-0.5,14.7-0.7c4.9-0.2,9.9-0.4,14.9-0.6c5-0.2,10-0.3,15.1-0.5c5.1-0.1,10.1-0.3,15.2-0.4
	c5.1-0.1,10.2-0.2,15.3-0.3c5.1-0.1,10.3-0.1,15.4-0.2c5.1,0,10.3-0.1,15.5-0.1c5.2,0,10.3,0,15.4,0.1c5.1,0,10.3,0.1,15.4,0.2
	s10.2,0.2,15.3,0.3c5.1,0.1,10.2,0.2,15.2,0.4c5,0.1,10.1,0.3,15.1,0.5c5,0.2,10,0.4,14.9,0.6c4.9,0.2,9.8,0.4,14.7,0.7
	c4.9,0.3,9.7,0.5,14.4,0.8c4.8,0.3,9.5,0.6,14.1,0.9c4.7,0.3,9.3,0.6,13.8,1c4.5,0.3,9,0.7,13.4,1.1c4.4,0.4,8.8,0.8,13.1,1.2
	c4.3,0.4,8.5,0.8,12.6,1.3c4.1,0.4,8.2,0.9,12.2,1.4c4,0.5,7.9,0.9,11.7,1.4c3.8,0.5,7.5,1,11.2,1.5c3.6,0.5,7.2,1,10.7,1.6
	c3.4,0.5,6.8,1.1,10.1,1.7c3.3,0.6,6.4,1.1,9.5,1.7c3.1,0.6,6,1.2,8.9,1.8c2.9,0.6,5.6,1.2,8.3,1.9c2.7,0.6,5.2,1.3,7.6,1.9
	c2.4,0.6,4.7,1.3,7,2c2.2,0.7,4.3,1.3,6.3,2c2,0.7,3.8,1.4,5.6,2.1c1.7,0.7,3.4,1.4,4.8,2.1c1.5,0.7,2.9,1.4,4.1,2.1
	c1.2,0.7,2.3,1.4,3.4,2.2c0.9,0.7,1.8,1.4,2.6,2.2c0.7,0.7,1.3,1.4,1.9,2.2c0.5,0.7,0.9,1.4,1.1,2.2
	C629.7,336.6,629.8,337.4,629.8,338.1L629.8,338.1z"/>
<path class="st1" d="M564.6,321.8c36.9-79.8,57.2-232.4-22.8-283.1C489.5,5.6,435,48.3,379,50.2c-43.9,1.6-86.3-34.6-125.9-44.8
	C149.2-21.6-14.1,48.6,57.7,321.8C237.3,321.3,384.9,322.4,564.6,321.8L564.6,321.8z"/>
<path class="st2" d="M89.4,287.9h14.1v1.5H89.4V287.9z"/>
<path class="st2" d="M79.5,312.8l-1.5-0.4l6-24.1l1.5,0l5.3,24.1l-1.5,0.3l-4.7-21L79.5,312.8L79.5,312.8z"/>
<path class="st2" d="M367.3,133.7h77.3v195.1h-77.3V133.7z"/>
<path class="st3" d="M331.8,134h35.5v193.6h-35.5V134z"/>
<path class="st4" d="M414.1,213.2h5.3v5.5h-5.3V213.2z M423.7,213.2h5.3v5.5h-5.3V213.2z M385.4,201.5h5.3v5.5h-5.3V201.5z
	 M395,201.5h5.3v5.5H395V201.5z M404.6,201.5h5.3v5.5h-5.3V201.5z M414.1,201.5h5.3v5.5h-5.3V201.5z M423.7,201.5h5.3v5.5h-5.3
	V201.5z M433.3,201.5h5.3v5.5h-5.3V201.5z M339.1,189.8h5.3v5.5h-5.3V189.8z M348.7,189.8h5.3v5.5h-5.3V189.8z M358.3,189.8h5.3v5.5
	h-5.3V189.8z M375.9,189.8h5.3v5.5h-5.3V189.8z M385.4,189.8h5.3v5.5h-5.3V189.8z M395,189.8h5.3v5.5H395V189.8z M404.6,189.8h5.3
	v5.5h-5.3V189.8z M414.1,189.8h5.3v5.5h-5.3V189.8z M423.8,189.8h5.3v5.5h-5.3V189.8z M433.3,189.8h5.3v5.5h-5.3V189.8z
	 M339.1,178.2h5.3v5.5h-5.3V178.2z M348.7,178.2h5.3v5.5h-5.3V178.2z M358.3,178.2h5.3v5.5h-5.3V178.2z M375.9,178.2h5.3v5.5h-5.3
	V178.2z M385.4,178.2h5.3v5.5h-5.3V178.2z M395,178.2h5.3v5.5H395V178.2z M404.6,178.2h5.3v5.5h-5.3V178.2z M414.1,178.2h5.3v5.5
	h-5.3V178.2z M423.8,178.2h5.3v5.5h-5.3V178.2z M433.3,178.2h5.3v5.5h-5.3V178.2z M339.1,166.5h5.3v5.5h-5.3V166.5z M348.7,166.5
	h5.3v5.5h-5.3V166.5z M358.3,166.5h5.3v5.5h-5.3V166.5z M375.9,166.5h5.3v5.5h-5.3V166.5z M385.4,166.5h5.3v5.5h-5.3V166.5z
	 M395,166.5h5.3v5.5H395V166.5z M404.6,166.5h5.3v5.5h-5.3V166.5z M414.1,166.5h5.3v5.5h-5.3V166.5z M423.8,166.5h5.3v5.5h-5.3
	V166.5z M433.3,166.5h5.3v5.5h-5.3V166.5z M339.1,154.8h5.3v5.5h-5.3V154.8z M348.7,154.8h5.3v5.5h-5.3V154.8z M358.3,154.8h5.3v5.5
	h-5.3V154.8z M375.9,154.8h5.3v5.5h-5.3V154.8z M385.4,154.8h5.3v5.5h-5.3V154.8z M395,154.8h5.3v5.5H395V154.8z M404.6,154.8h5.3
	v5.5h-5.3V154.8z M414.1,154.8h5.3v5.5h-5.3V154.8z M423.8,154.8h5.3v5.5h-5.3V154.8z M433.3,154.8h5.3v5.5h-5.3V154.8z
	 M339.1,143.2h5.3v5.5h-5.3V143.2z M348.7,143.2h5.3v5.5h-5.3V143.2z M358.3,143.2h5.3v5.5h-5.3V143.2z M375.9,143.2h5.3v5.5h-5.3
	V143.2z M385.4,143.2h5.3v5.5h-5.3V143.2z M395,143.2h5.3v5.5H395V143.2z M404.6,143.2h5.3v5.5h-5.3V143.2z M414.1,143.2h5.3v5.5
	h-5.3V143.2z M423.8,143.2h5.3v5.5h-5.3V143.2z M433.3,143.2h5.3v5.5h-5.3V143.2z"/>
<path class="st2" d="M444.9,168.4h115.4v159.2H444.9V168.4z"/>
<path class="st3" d="M444.9,168.4h35.9v159.2h-35.9V168.4z"/>
<path class="st4" d="M444.9,313.7h115.4v1.3H444.9V313.7z M444.9,303.1h115.4v1.3H444.9V303.1z M444.9,292.6h115.4v1.3H444.9V292.6z
	 M444.9,282.2h115.4v1.3H444.9V282.2z M444.9,271.7h115.4v1.3H444.9V271.7z M444.9,261.1h115.4v1.3H444.9V261.1z M444.9,250.6h115.4
	v1.3H444.9V250.6z M444.9,240.1h115.4v1.3H444.9V240.1z M444.9,229.6h115.4v1.3H444.9V229.6z M444.9,219.1h115.4v1.3H444.9V219.1z
	 M444.9,208.6h115.4v1.3H444.9V208.6z M444.9,198.1h115.4v1.3H444.9V198.1z M444.9,187.6h115.4v1.3H444.9V187.6z M444.9,177.1h115.4
	v1.3H444.9V177.1z"/>
<path class="st2" d="M144.9,136.5H239V329h-94.1V136.5z"/>
<path class="st3" d="M144.9,136.5h29.3V329h-29.3V136.5z"/>
<path class="st4" d="M151,289.9h4.3v21.2H151V289.9z M158.9,289.9h4.3v21.2h-4.3V289.9z M166.8,289.9h4.3v21.2h-4.3V289.9z
	 M181.3,289.9h4.3v21.2h-4.3V289.9z M189.2,289.9h4.3v21.2h-4.3V289.9z M197.1,289.9h4.3v21.2h-4.3V289.9z M205,289.9h4.3v21.2H205
	V289.9z M151,265.9h4.3v21.2H151V265.9z M158.9,265.9h4.3v21.2h-4.3V265.9z M166.8,265.9h4.3v21.2h-4.3V265.9z M181.3,265.9h4.3
	v21.2h-4.3V265.9z M189.2,265.9h4.3v21.2h-4.3V265.9z M197.1,265.9h4.3v21.2h-4.3V265.9z M205,265.9h4.3v21.2H205V265.9z
	 M189.2,241.8h4.3v21.3h-4.3V241.8z M197.1,241.8h4.3v21.3h-4.3V241.8z M205,241.8h4.3v21.3H205V241.8z M166.7,241.5h4.3v21.2h-4.3
	V241.5z M151,241.5h4.3v21.3H151V241.5z M158.9,241.5h4.3v21.3h-4.3V241.5z M166.7,217.8h4.3V239h-4.3V217.8z M181.3,241.8h4.3v21.3
	h-4.3V241.8z M181.3,217.8h4.3V239h-4.3V217.8z M189.2,217.8h4.3V239h-4.3V217.8z M197.1,217.8h4.3V239h-4.3V217.8z M205,217.8h4.3
	V239H205V217.8z M151,217.7h4.3v21.2H151V217.7z M158.9,217.7h4.3v21.2h-4.3V217.7z M151,193.7h4.3V215H151V193.7z M158.9,193.7h4.3
	V215h-4.3V193.7z M166.7,193.7h4.3V215h-4.3V193.7z M181.3,193.7h4.3V215h-4.3V193.7z M189.2,193.7h4.3V215h-4.3V193.7z
	 M197.1,193.7h4.3V215h-4.3V193.7z M205,193.7h4.3V215H205V193.7z M151,169.7h4.3v21.2H151V169.7z M158.9,169.7h4.3v21.2h-4.3V169.7
	z M166.7,169.7h4.3v21.2h-4.3V169.7z M181.3,169.7h4.3v21.2h-4.3V169.7z M189.2,169.7h4.3v21.2h-4.3V169.7z M197.1,169.7h4.3v21.2
	h-4.3V169.7z M205,169.7h4.3v21.2H205V169.7z M151,145.7h4.3v21.2H151V145.7z M158.9,145.7h4.3v21.2h-4.3V145.7z M166.7,145.7h4.3
	v21.2h-4.3V145.7z M181.3,145.7h4.3v21.2h-4.3V145.7z M189.2,145.7h4.3v21.2h-4.3V145.7z M197.1,145.7h4.3v21.2h-4.3V145.7z
	 M205,145.7h4.3v21.2H205V145.7z"/>
<path class="st2" d="M211.8,84.2h119.6V329H211.8V84.2z"/>
<path class="st5" d="M211.8,84.2h37.2V329h-37.2V84.2z"/>
<path class="st4" d="M219.4,302.5h5.5v7h-5.5L219.4,302.5z M229.5,302.5h5.5v7h-5.5L229.5,302.5z M239.6,302.5h5.5v7h-5.5V302.5z
	 M258,302.5h5.5v7H258V302.5z M268,302.5h5.5v7H268L268,302.5z M278.1,302.5h5.5v7h-5.5L278.1,302.5z M288.1,302.5h5.5v7h-5.5V302.5
	z M219.5,287.7h5.5v7h-5.5L219.5,287.7z M229.6,287.7h5.5v7h-5.5L229.6,287.7z M239.6,287.7h5.5v7h-5.5V287.7z M258,287.7h5.5v7H258
	V287.7z M268.1,287.7h5.5v7H268L268.1,287.7z M278.1,287.7h5.5v7h-5.6L278.1,287.7z M288.1,287.7h5.5v7h-5.5V287.7z M219.5,273h5.4
	v7h-5.5L219.5,273z M229.6,273h5.4v7h-5.5L229.6,273z M239.7,273h5.5v7h-5.5V273z M258.1,273h5.5v7h-5.5V273z M268.1,273h5.5v7H268
	L268.1,273z M278.2,273h5.5v7h-5.6L278.2,273z M288.2,273h5.5v7h-5.5V273z M219.6,258.2h5.4v7h-5.5L219.6,258.2z M229.7,258.2h5.4v7
	h-5.5L229.7,258.2z M239.7,258.2h5.5v7h-5.5V258.2z M258.1,258.2h5.5v7h-5.5V258.2z M268.2,258.2h5.5v7H268L268.2,258.2z
	 M278.2,258.2h5.5v7h-5.7L278.2,258.2z M288.2,258.2h5.5v7h-5.5V258.2z M219.6,243.4h5.4v7h-5.5L219.6,243.4z M229.7,243.4h5.4v7
	h-5.5L229.7,243.4z M239.8,243.4h5.5v7h-5.5V243.4z M258.2,243.4h5.5v7h-5.5V243.4z M268.2,243.4h5.5v7H268L268.2,243.4z
	 M278.2,243.4h5.5v7h-5.7L278.2,243.4z M288.3,243.4h5.5v7h-5.5V243.4z M219.6,228.7h5.3v7h-5.5L219.6,228.7z M229.8,228.7h5.3v7
	h-5.5L229.8,228.7z M239.8,228.7h5.5v7h-5.5V228.7z M258.2,228.7h5.5v7h-5.5V228.7z M268.2,228.7h5.5v7H268L268.2,228.7z
	 M278.3,228.7h5.5v7h-5.8L278.3,228.7z M288.3,228.7h5.5v7h-5.5V228.7z M219.7,213.9h5.3v7h-5.5L219.7,213.9z M229.8,213.9h5.3v7
	h-5.5L229.8,213.9z M239.8,213.9h5.5v7h-5.5V213.9z M258.3,213.9h5.5v7h-5.5V213.9z M268.3,213.9h5.5v7H268L268.3,213.9z
	 M278.3,213.9h5.5v7h-5.8L278.3,213.9z M288.4,213.9h5.5v7h-5.5V213.9z M219.7,199.2h5.2v7h-5.5L219.7,199.2z M229.8,199.2h5.2v7
	h-5.5L229.8,199.2z M239.9,199.2h5.5v7h-5.5V199.2z M258.3,199.2h5.5v7h-5.5V199.2z M268.3,199.2h5.5v7H268L268.3,199.2z
	 M278.4,199.2h5.5v7h-5.9L278.4,199.2z M288.4,199.2h5.5v7h-5.5V199.2z M298.7,302.5h5.5v7h-5.5V302.5z M308.7,302.5h5.5v7h-5.5
	V302.5z M318.7,302.5h5.2v7h-5.5L318.7,302.5z M298.7,287.7h5.5v7h-5.5V287.7z M308.7,287.7h5.5v7h-5.5V287.7z M318.7,287.7h5.2v7
	h-5.5L318.7,287.7z M298.7,273h5.5v7h-5.5V273z M308.7,273h5.5v7h-5.5V273z M318.7,273h5.2v7h-5.5L318.7,273z M298.7,258.3h5.5v7
	h-5.5V258.3z M308.7,258.3h5.5v7h-5.5V258.3z M318.7,258.3h5.2v7h-5.5L318.7,258.3z M298.7,243.4h5.5v7h-5.5V243.4z M308.7,243.4
	h5.5v7h-5.5V243.4z M318.7,243.4h5.2v7h-5.5L318.7,243.4z M298.3,228.7h5.5v7h-5.5V228.7z M308.4,228.7h5.5v7h-5.5V228.7z
	 M318.4,228.7h5.5v7h-5.5L318.4,228.7z M298.3,213.9h5.5v7h-5.5V213.9z M308.4,213.9h5.5v7h-5.5V213.9z M318.4,213.9h5.5v7h-5.5
	L318.4,213.9z M298.3,199.2h5.5v7h-5.5V199.2z M308.4,199.2h5.5v7h-5.5V199.2z M318.4,199.2h5.5v7h-5.5L318.4,199.2z M219.4,184.4
	h5.5v7h-5.5L219.4,184.4z M229.5,184.4h5.5v7h-5.5L229.5,184.4z M239.6,184.4h5.5v7h-5.5V184.4z M258,184.4h5.5v7H258V184.4z
	 M268,184.4h5.5v7H268L268,184.4z M278.1,184.4h5.5v7h-5.6L278.1,184.4z M288.1,184.4h5.5v7h-5.5V184.4z M298.1,184.4h5.6v7h-5.5
	L298.1,184.4z M308.2,184.4h5.5v7h-5.5V184.4z M318.2,184.4h5.5v7h-5.5V184.4z M219.4,169.7h5.5v7h-5.5L219.4,169.7z M229.5,169.7
	h5.5v7h-5.5L229.5,169.7z M239.6,169.7h5.5v7h-5.5V169.7z M258,169.7h5.5v7H258V169.7z M268,169.7h5.5v7H268L268,169.7z
	 M278.1,169.7h5.5v7h-5.5L278.1,169.7z M288.1,169.7h5.5v7h-5.5V169.7z M298.1,169.7h5.6v7h-5.5L298.1,169.7z M308.2,169.7h5.5v7
	h-5.5V169.7z M318.2,169.7h5.5v7h-5.5V169.7z M219.4,154.9h5.5v7h-5.5L219.4,154.9z M229.6,154.9h5.5v7h-5.5L229.6,154.9z
	 M239.6,154.9h5.5v7h-5.5V154.9z M258,154.9h5.5v7H258V154.9z M268,154.9h5.5v7H268L268,154.9z M278.1,154.9h5.5v7h-5.6L278.1,154.9
	z M288.1,154.9h5.5v7h-5.5V154.9z M298.2,154.9h5.5v7h-5.5L298.2,154.9z M308.2,154.9h5.5v7h-5.5V154.9z M318.2,154.9h5.5v7h-5.5
	V154.9z M219.4,140.2h5.5v7h-5.5L219.4,140.2z M229.5,140.2h5.5v7h-5.5L229.5,140.2z M239.6,140.2h5.5v7h-5.5V140.2z M258,140.2h5.5
	v7H258V140.2z M268,140.2h5.5v7H268L268,140.2z M278.1,140.2h5.5v7h-5.5L278.1,140.2z M288.1,140.2h5.5v7h-5.5V140.2z M298.1,140.2
	h5.6v7h-5.5L298.1,140.2z M308.2,140.2h5.5v7h-5.5V140.2z M318.2,140.2h5.5v7h-5.5V140.2z M219.4,125.4h5.5v7h-5.5L219.4,125.4z
	 M229.5,125.4h5.5v7h-5.5L229.5,125.4z M239.6,125.4h5.5v7h-5.5V125.4z M258,125.4h5.5v7H258V125.4z M268,125.4h5.5v7H268L268,125.4
	z M278.1,125.4h5.5v7h-5.5L278.1,125.4z M288.1,125.4h5.5v7h-5.5V125.4z M298.1,125.4h5.6v7h-5.5L298.1,125.4z M308.2,125.4h5.5v7
	h-5.5V125.4z M318.2,125.4h5.5v7h-5.5V125.4z M219.4,110.6h5.5v7h-5.5L219.4,110.6z M229.5,110.6h5.5v7h-5.5L229.5,110.6z
	 M239.6,110.6h5.5v7h-5.5V110.6z M258,110.6h5.5v7H258V110.6z M268,110.6h5.5v7H268L268,110.6z M278.1,110.6h5.5v7h-5.5L278.1,110.6
	z M288.1,110.6h5.5v7h-5.5V110.6z M298.1,110.6h5.6v7h-5.5L298.1,110.6z M308.2,110.6h5.5v7h-5.5V110.6z M318.2,110.6h5.5v7h-5.5
	V110.6z M219.4,95.9h5.5v7h-5.5L219.4,95.9z M229.6,95.9h5.5v7h-5.5L229.6,95.9z M239.6,95.9h5.5v7h-5.5V95.9z M258,95.9h5.5v7H258
	V95.9z M268,95.9h5.5v7H268L268,95.9z M278.1,95.9h5.5v7h-5.6L278.1,95.9z M288.1,95.9h5.5v7h-5.5V95.9z M298.2,95.9h5.5v7h-5.5
	L298.2,95.9z M308.2,95.9h5.5v7h-5.5V95.9z M318.2,95.9h5.5v7h-5.5V95.9z"/>
<path class="st2" d="M40,96h102v228H40V96z"/>
<path class="st5" d="M40,96h33v230H40V96z"/>
<path class="st4" d="M47,306.2h4.7v6.8H47L47,306.2z M55.5,306.2h4.7v6.8h-4.7L55.5,306.2z M64,306.2h4.7v6.8H64V306.2z M79.5,306.2
	h4.7v6.8h-4.7V306.2z M87.9,306.2h4.7v6.8h-4.7L87.9,306.2z M96.4,306.2h4.7v6.8h-4.7L96.4,306.2z M104.8,306.2h4.7v6.8h-4.7V306.2z
	 M47,291.9h4.6v6.8H47L47,291.9z M55.6,291.9h4.6v6.8h-4.7L55.6,291.9z M64,291.9h4.7v6.8H64V291.9z M79.5,291.9h4.7v6.8h-4.7V291.9
	z M88,291.9h4.7v6.8h-4.7L88,291.9z M96.4,291.9h4.7v6.8h-4.7L96.4,291.9z M104.9,291.9h4.7v6.8h-4.7V291.9z M47.1,277.6h4.6v6.8H47
	L47.1,277.6z M55.6,277.6h4.6v6.8h-4.7L55.6,277.6z M64.1,277.6h4.7v6.8h-4.7V277.6z M79.6,277.6h4.7v6.8h-4.7V277.6z M88,277.6h4.7
	v6.8h-4.8L88,277.6z M96.5,277.6h4.7v6.8h-4.7L96.5,277.6z M104.9,277.6h4.7v6.8h-4.7V277.6z M47.1,263.3h4.5v6.8H47L47.1,263.3z
	 M55.6,263.3h4.5v6.8h-4.7L55.6,263.3z M64.1,263.3h4.7v6.8h-4.7V263.3z M79.6,263.3h4.7v6.8h-4.7V263.3z M88,263.3h4.7v6.8h-4.8
	L88,263.3z M96.5,263.3h4.7v6.8h-4.8L96.5,263.3z M104.9,263.3h4.7v6.8h-4.7V263.3z M47.2,249h4.5v6.8H47L47.2,249z M55.7,249h4.5
	v6.8h-4.7L55.7,249z M64.1,249h4.7v6.8h-4.7V249z M79.6,249h4.7v6.8h-4.7V249z M88.1,249h4.7v6.8h-4.8L88.1,249z M96.5,249h4.7v6.8
	h-4.8L96.5,249z M105,249h4.7v6.8H105V249z M47.2,234.7h4.5v6.8H47L47.2,234.7z M55.7,234.7h4.5v6.8h-4.7L55.7,234.7z M64.2,234.7
	h4.7v6.8h-4.7V234.7z M79.7,234.7h4.7v6.8h-4.7V234.7z M88.1,234.7h4.7v6.8h-4.9L88.1,234.7z M96.6,234.7h4.7v6.8h-4.9L96.6,234.7z
	 M105,234.7h4.7v6.8H105V234.7z M47.2,220.4h4.4v6.8H47L47.2,220.4z M55.7,220.4h4.4v6.8h-4.7L55.7,220.4z M64.2,220.4h4.7v6.8h-4.7
	V220.4z M79.7,220.4h4.7v6.8h-4.7V220.4z M88.1,220.4h4.7v6.8h-4.9L88.1,220.4z M96.6,220.4h4.7v6.8h-4.9L96.6,220.4z M105.1,220.4
	h4.7v6.8h-4.7V220.4z M47.3,206.1h4.4v6.8H47L47.3,206.1z M55.8,206.1h4.4v6.8h-4.7L55.8,206.1z M64.2,206.1h4.7v6.8h-4.7V206.1z
	 M79.7,206.1h4.7v6.8h-4.7V206.1z M88.2,206.1h4.7v6.8h-4.9L88.2,206.1z M96.6,206.1h4.7v6.8h-4.9L96.6,206.1z M105.1,206.1h4.7v6.8
	h-4.7V206.1z M113.7,306.2h4.7v6.8h-4.7V306.2z M122.2,306.2h4.7v6.8h-4.7V306.2z M130.6,306.2h4.4v6.8h-4.7L130.6,306.2z
	 M113.7,291.9h4.7v6.8h-4.7V291.9z M122.2,291.9h4.7v6.8h-4.7V291.9z M130.6,291.9h4.4v6.8h-4.7L130.6,291.9z M113.7,277.6h4.7v6.8
	h-4.7V277.6z M122.2,277.6h4.7v6.8h-4.7V277.6z M130.6,277.6h4.4v6.8h-4.7L130.6,277.6z M113.7,263.4h4.7v6.8h-4.7V263.4z
	 M122.2,263.4h4.7v6.8h-4.7V263.4z M130.6,263.4h4.4v6.8h-4.7L130.6,263.4z M113.7,249h4.7v6.8h-4.7V249z M122.2,249h4.7v6.8h-4.7
	V249z M130.6,249h4.4v6.8h-4.7L130.6,249z M113.4,234.7h4.7v6.8h-4.7V234.7z M121.9,234.7h4.7v6.8h-4.7V234.7z M130.4,234.7h4.6v6.8
	h-4.7L130.4,234.7z M113.4,220.4h4.7v6.8h-4.7V220.4z M121.9,220.4h4.7v6.8h-4.7V220.4z M130.4,220.4h4.6v6.8h-4.7L130.4,220.4z
	 M113.4,206.1h4.7v6.8h-4.7V206.1z M121.9,206.1h4.7v6.8h-4.7V206.1z M130.4,206.1h4.6v6.8h-4.7L130.4,206.1z M47,191.8h4.6v6.8H47
	L47,191.8z M55.5,191.8h4.6v6.8h-4.7L55.5,191.8z M64,191.8h4.7v6.8H64V191.8z M79.5,191.8h4.7v6.8h-4.7V191.8z M87.9,191.8h4.7v6.8
	h-4.7L87.9,191.8z M96.4,191.8h4.7v6.8h-4.7L96.4,191.8z M104.8,191.8h4.7v6.8h-4.7V191.8z M113.3,191.8h4.7v6.8h-4.7L113.3,191.8z
	 M121.7,191.8h4.7v6.8h-4.7V191.8z M130.2,191.8h4.7v6.8h-4.7V191.8z M47,177.5h4.7v6.8H47L47,177.5z M55.5,177.5h4.7v6.8h-4.7
	L55.5,177.5z M64,177.5h4.7v6.8H64V177.5z M79.5,177.5h4.7v6.8h-4.7V177.5z M87.9,177.5h4.7v6.8h-4.7L87.9,177.5z M96.4,177.5h4.7
	v6.8h-4.7L96.4,177.5z M104.8,177.5h4.7v6.8h-4.7V177.5z M113.3,177.5h4.7v6.8h-4.7L113.3,177.5z M121.7,177.5h4.7v6.8h-4.7V177.5z
	 M130.2,177.5h4.7v6.8h-4.7V177.5z M47,163.2h4.6v6.7H47L47,163.2z M55.5,163.2h4.6v6.7h-4.7L55.5,163.2z M64,163.2h4.7v6.7H64
	V163.2z M79.5,163.2h4.7v6.7h-4.7V163.2z M87.9,163.2h4.7v6.7h-4.7L87.9,163.2z M96.4,163.2h4.7v6.7h-4.7L96.4,163.2z M104.8,163.2
	h4.7v6.7h-4.7V163.2z M113.3,163.2h4.7v6.7h-4.7L113.3,163.2z M121.7,163.2h4.7v6.7h-4.7V163.2z M130.2,163.2h4.7v6.7h-4.7V163.2z
	 M47,148.9h4.7v6.8H47L47,148.9z M55.5,148.9h4.7v6.8h-4.7L55.5,148.9z M64,148.9h4.7v6.8H64V148.9z M79.5,148.9h4.7v6.8h-4.7V148.9
	z M87.9,148.9h4.7v6.8h-4.7L87.9,148.9z M96.4,148.9h4.7v6.8h-4.7L96.4,148.9z M104.8,148.9h4.7v6.8h-4.7V148.9z M113.3,148.9h4.7
	v6.8h-4.7L113.3,148.9z M121.7,148.9h4.7v6.8h-4.7V148.9z M130.2,148.9h4.7v6.8h-4.7V148.9z M47,134.6h4.7v6.8H47L47,134.6z
	 M55.5,134.6h4.7v6.8h-4.7L55.5,134.6z M64,134.6h4.7v6.8H64V134.6z M79.5,134.6h4.7v6.8h-4.7V134.6z M87.9,134.6h4.7v6.8h-4.7
	L87.9,134.6z M96.4,134.6h4.7v6.8h-4.7L96.4,134.6z M104.8,134.6h4.7v6.8h-4.7V134.6z M113.3,134.6h4.7v6.8h-4.7L113.3,134.6z
	 M121.7,134.6h4.7v6.8h-4.7V134.6z M130.2,134.6h4.7v6.8h-4.7V134.6z M47,120.3h4.7v6.8H47L47,120.3z M55.5,120.3h4.7v6.8h-4.7
	L55.5,120.3z M64,120.3h4.7v6.8H64V120.3z M79.5,120.3h4.7v6.8h-4.7V120.3z M87.9,120.3h4.7v6.8h-4.7L87.9,120.3z M96.4,120.3h4.7
	v6.8h-4.7L96.4,120.3z M104.8,120.3h4.7v6.8h-4.7V120.3z M113.3,120.3h4.7v6.8h-4.7L113.3,120.3z M121.7,120.3h4.7v6.8h-4.7V120.3z
	 M130.2,120.3h4.7v6.8h-4.7V120.3z M47,106h4.6v6.8H47L47,106z M55.5,106h4.6v6.8h-4.7L55.5,106z M64,106h4.7v6.8H64V106z M79.5,106
	h4.7v6.8h-4.7V106z M87.9,106h4.7v6.8h-4.7L87.9,106z M96.4,106h4.7v6.8h-4.7L96.4,106z M104.8,106h4.7v6.8h-4.7V106z M113.3,106
	h4.7v6.8h-4.7L113.3,106z M121.7,106h4.7v6.8h-4.7V106z M130.2,106h4.7v6.8h-4.7V106z"/>
<path class="st5" d="M314.6,84.2h-86V73.9c0-2.1,0.9-4.1,2.3-5.6s3.5-2.3,5.6-2.3h70.3c1,0,2.1,0.2,3,0.6c1,0.4,1.8,1,2.6,1.7
	c0.7,0.7,1.3,1.6,1.7,2.6c0.4,1,0.6,2,0.6,3L314.6,84.2L314.6,84.2z"/>
<path class="st2" d="M581.5,248.3c3.8-0.7,6.4,3.3,7.1,6.8c0.4,1.9,0.4,4,1.9,5.3c0.6,0.5,1.3,0.9,2.1,1.2c4.2,2.2,4.5,6.2,4.6,10.2
	c-0.1,0.7,0.1,1.4,0.3,2c0.4,0.7,1.1,1,1.6,1.7c0.3,0.4,0.5,0.9,0.5,1.4c1,4.6,0.5,8.9,0.5,13.4c-0.3,32.7-18.1,31.2-18.1,31.2h-0.7
	c-4.3-0.2-8.2-2.8-10.7-6.2c-2.6-3.4-4.1-7.7-5-11.9c-0.6-3.1-1-6.2-1.1-9.4c-0.2-3.4-0.9-6.6,0.4-9.9c0.6-1.5,1.5-3,1.5-4.6
	c0-1.8-1.1-3.5-1.2-5.2c0-1.1,0.3-2.1,0.7-3.1c0.9-2.5,2-4.9,3.3-7.3c1-1.7,3.3-2.8,3.9-4.8c0.2-0.8,0.2-1.7,0.1-2.5
	c0.1-4.2,3.7-7.1,7.5-8.2C581.1,248.4,581.3,248.4,581.5,248.3L581.5,248.3z"/>
<path class="st4" d="M584.7,355.1h-4.2l1.4-52.5l0.6-1.3L584.7,355.1L584.7,355.1z"/>
<path class="st6" d="M470.2,250.6c0.3,0,0.7,0.5,1.2,1.6c0.3,0.5,0.5,1.1,0.9,1.9c0.3,0.7,0.7,1.5,1.1,2.4c0.4,0.9,0.9,1.7,1.5,2.6
	c0.6,0.8,1.3,1.6,2,2.3c0.4,0.3,0.8,0.6,1.2,0.9c0.4,0.3,0.9,0.5,1.4,0.7c0.4,0.2,0.9,0.3,1.4,0.4c0.1,0,0.3,0,0.4,0l0.4,0h0.7
	c1,0,2-0.2,3-0.5c0.5-0.2,1-0.4,1.5-0.6c0.3-0.1,0.5-0.2,0.7-0.3c0.2-0.1,0.5-0.2,0.7-0.4c0.5-0.3,0.9-0.5,1.3-0.7
	c0.4-0.3,0.8-0.5,1.2-0.8c0.7-0.6,1.5-1.1,2.3-1.7c0.7-0.5,1.4-1,2-1.5c0.6-0.4,1.2-0.8,1.8-1.1c0.5-0.3,1-0.4,1.5-0.5
	c0.4-0.1,0.8,0,1.1,0.2c0.3,0.2,0.6,0.6,0.7,1c0.1,0.5,0.2,1.1,0.1,1.6c-0.1,0.8-0.3,1.5-0.6,2.2c-0.4,0.9-0.8,1.9-1.4,2.7
	c-0.7,1.1-1.5,2-2.4,2.9c-0.5,0.5-1.1,1-1.6,1.5c-0.6,0.5-1.3,0.9-2,1.3c-0.4,0.2-0.7,0.4-1.1,0.6c-0.4,0.2-0.7,0.4-1.1,0.5
	c-0.8,0.3-1.7,0.6-2.5,0.9c-1.9,0.5-3.9,0.6-5.8,0.4c-0.5-0.1-1-0.2-1.5-0.3l-0.7-0.2c-0.3-0.1-0.5-0.2-0.7-0.3
	c-0.9-0.4-1.8-0.8-2.6-1.4c-0.8-0.5-1.5-1.1-2.1-1.8c-0.6-0.6-1.1-1.3-1.6-2c-0.4-0.6-0.8-1.3-1.2-2c-0.3-0.6-0.6-1.3-0.8-2
	c-0.4-1.2-0.6-2.4-0.7-3.6c-0.1-1-0.2-1.9-0.1-2.9c0-0.7,0-1.4,0.1-2.1C469.7,251.2,469.9,250.6,470.2,250.6L470.2,250.6z"/>
<path class="st7" d="M463.5,252.9C463.5,252.9,463.5,252.8,463.5,252.9c-1.7-4.9-2.8-9.8-3.5-14.9c-0.7-4.8-1-9.6-0.8-14.4
	c0,0,0-0.1,0-0.1c-0.7-1-1.2-2.2-1.4-3.4c0-0.3-0.1-0.6-0.1-1c0-0.2,0-0.3,0.1-0.5c0.1-0.2,0.2-0.3,0.3-0.4c0.3-0.1,0.5-0.1,0.8-0.1
	c0.3,0,0.5,0.1,0.8,0.2l1.1,0.4c0.7,0.2,1.5,0.5,2.1,0.8h0l0.1,0c0.1,0,0.1,0,0.2,0c5.9-1.7,11.8-3,17.8-3.9l1.1-0.2l0.3,0l0.4-0.1
	c0.4-0.1,0.7-0.1,1.1-0.2c6-0.8,12.1-1.3,18.2-1.4c0.1,0,0.1,0,0.2-0.1l0.1-0.1c0.6-0.5,1.2-0.9,1.8-1.4l1-0.7
	c0.2-0.2,0.4-0.3,0.7-0.4c0.3-0.1,0.5-0.1,0.8-0.1c0.3,0.1,0.5,0.3,0.6,0.8c0.4,1.5,0.4,3.1-0.1,4.6c0,0,0,0.1,0,0.1
	c1.1,2.7,3.3,12.1,3.6,14.2v0.3c0.3,2.2,0.9,11.8,0.6,14.7c0,0,0,0.1,0,0.1c0.9,1.3,1.4,2.8,1.4,4.3c0,0.2,0,0.3-0.1,0.5
	c-0.1,0.2-0.2,0.3-0.3,0.4c-0.2,0.1-0.5,0.1-0.8,0.1c-0.3,0-0.5-0.1-0.8-0.2l-1.1-0.4c-0.7-0.2-1.5-0.5-2.2-0.8h0l-0.1,0
	c-0.1,0-0.1,0-0.2,0c-5.9,1.7-11.8,3-17.8,3.9l-3,0.4c-6,0.8-12.1,1.3-18.2,1.4c0,0-0.1,0-0.1,0c0,0-0.1,0-0.1,0l-0.1,0v0
	c-0.6,0.5-1.2,0.9-1.8,1.4c-0.3,0.2-0.7,0.4-1,0.7c-0.2,0.2-0.4,0.3-0.7,0.4c-0.3,0.1-0.5,0.1-0.8,0.1c-0.2-0.1-0.3-0.2-0.4-0.3
	c-0.1-0.1-0.2-0.3-0.2-0.5C462.9,256,462.9,254.4,463.5,252.9C463.4,252.9,463.5,252.9,463.5,252.9L463.5,252.9z"/>
<path class="st8" d="M463,219.2c0,0,0.1,0,0.1,0.1c2.7-0.7,5.4-1.4,8.1-2c-3.4,1.6-6.3,3.8-8.2,7.2c-3.1,5.5-2.1,12.6-0.5,18.2
	c1.5,5.2,4.5,10,10.3,11.9c1.4,0.5,2.9,0.8,4.3,0.9c-2.9,0.2-5.8,0.3-8.8,0.4l-0.1,0.1c-0.9,0.7-1.9,1.4-2.8,2
	c-1.1,0.8-2,0.9-2.4-0.3c-0.4-1.5-0.4-3.2,0.1-4.7c-1.2-2.8-5-16.8-4.3-29.4c-0.9-1.3-1.4-2.9-1.5-4.5c0-1.4,1-1.5,2.2-1
	C460.8,218.4,461.9,218.7,463,219.2L463,219.2z M483.7,246.5l11.4,0.5l1-24.1l-11.4-0.5L483.7,246.5z M493.3,245.1l-7.6-0.3
	l0.8-20.4l7.6,0.3L493.3,245.1z"/>
<path class="st4" d="M487,265.6c-0.2,6,0,11.9,0.5,17.9c5.7,1.7,11.8,2,17.7,0.9c0.2-6.1,0.4-12.1,0.2-18.2c0-3.2-0.4-6.4-1.3-9.4
	c-0.8-2.7-2.5-5.1-4.8-6.8c-0.3-0.2-0.5-0.4-0.8-0.5c-0.8,0.6-1.7,1-2.7,1.2c-1,0.2-2,0.1-2.9-0.2c-0.8,0.6-1.5,1.3-2.1,2
	c-1.1,1.4-2,3.1-2.5,4.8C487.4,260,487,262.8,487,265.6L487,265.6z"/>
<path class="st9" d="M490.7,252.4c2.3,0.5,4.8,0.2,6.8-1.1c0.6-0.3,1.1-0.7,1.6-1.2v-0.5c0-0.2-0.1-0.3-0.1-0.5
	c-0.3-1.7-0.7-3.4-0.9-5.1c-0.2-1.6-0.5-3.1-0.7-4.7c-1.7,0.9-3.4,2-4.9,3.2c0,1.1,0,2.1-0.1,3.2c0,0.9-0.1,1.8-0.2,2.7
	c0,0.5-0.1,1-0.2,1.5s-0.1,0.9-0.2,1.4C491.3,251.7,491,252,490.7,252.4L490.7,252.4z"/>
<path class="st10" d="M492.1,248.5c1.8-1.7,3.9-3.2,6.1-4.4c-0.3-1.6-0.5-3.1-0.7-4.7c-1.8,0.9-3.4,2-4.9,3.2c0,1.1,0,2.1-0.1,3.2
	C492.3,246.7,492.1,247.6,492.1,248.5z"/>
<path class="st11" d="M527.7,339.1c0,0,0.1,4.2-3.7,4.2l-0.2,15l9.9-18.2L527.7,339.1z"/>
<path class="st4" d="M525.6,358.6l9.3-17.2c0.1-0.1,0.1-0.3,0.1-0.4c0-0.1-0.1-0.3-0.2-0.3v0l-1.1-0.6l-9.9,18.2l1.1,0.6
	c0.1,0.1,0.3,0.1,0.4,0C525.4,358.8,525.5,358.7,525.6,358.6L525.6,358.6z M526.2,346.2C526.2,346.3,526.2,346.3,526.2,346.2
	c-0.1,0.1-0.1,0.1-0.2,0.1c-0.8,0.1-1.5,0.3-2.2,0.6c0,0-0.1,0-0.1,0c0,0-0.1,0-0.1,0c0,0-0.1,0-0.1-0.1s-0.1-0.1-0.1-0.1
	c0-0.1,0-0.2,0-0.3c0-0.1,0.1-0.2,0.2-0.2c0.7-0.4,1.6-0.6,2.4-0.7c0,0,0.1,0,0.1,0c0,0,0.1,0,0.1,0c0,0,0.1,0.1,0.1,0.1
	c0,0,0,0.1,0,0.1c0,0.1,0,0.1,0,0.2C526.3,346.1,526.3,346.2,526.2,346.2L526.2,346.2z M526.2,348.2c0,0-0.1,0.1-0.2,0.1
	c-0.8,0.1-1.5,0.3-2.2,0.6c0,0-0.1,0-0.1,0c0,0-0.1,0-0.1,0c0,0-0.1,0-0.1-0.1c0,0-0.1-0.1-0.1-0.1c0-0.1,0-0.2,0-0.3
	c0-0.1,0.1-0.2,0.2-0.2c0.7-0.4,1.6-0.6,2.4-0.7c0,0,0.1,0,0.1,0c0,0,0.1,0,0.1,0c0,0,0.1,0.1,0.1,0.1c0,0,0,0.1,0,0.1v0
	c0,0.1,0,0.1,0,0.2C526.3,348.1,526.2,348.1,526.2,348.2L526.2,348.2z M526.1,350C526.1,350,526,350.1,526.1,350
	c-0.1,0.1-0.1,0.1-0.2,0.1c-0.8,0.1-1.5,0.3-2.2,0.6c0,0-0.1,0-0.1,0c0,0-0.1,0-0.1,0c0,0-0.1,0-0.1-0.1c0,0-0.1-0.1-0.1-0.1v0
	c0-0.1,0-0.2,0-0.3c0-0.1,0.1-0.2,0.2-0.2c0.7-0.4,1.6-0.6,2.4-0.7c0,0,0.1,0,0.1,0c0,0,0.1,0,0.1,0c0,0,0.1,0.1,0.1,0.1
	s0,0.1,0,0.1C526.2,349.8,526.2,349.9,526.1,350L526.1,350z"/>
<path class="st11" d="M486.8,351.8c0,0-3.7,2-5.4-1.3l-13.4,6.8l20.6,0.3L486.8,351.8z"/>
<path class="st4" d="M468.6,359.1l19.3,0.3c0.2,0,0.4-0.1,0.5-0.2c0.1-0.1,0.2-0.3,0.2-0.5v-1.1l-20.6-0.3v1.1c0,0.1,0,0.2,0,0.3
	s0.1,0.2,0.1,0.2c0.1,0.1,0.1,0.1,0.2,0.2C468.4,359.1,468.5,359.1,468.6,359.1z M479.8,353.9c-0.1,0-0.1-0.1-0.1-0.1
	c-0.4-0.6-1-1.1-1.6-1.6c-0.1,0-0.1-0.1-0.1-0.2c0-0.1,0-0.2,0-0.2h0c0.1-0.1,0.1-0.1,0.2-0.1c0.1,0,0.2,0,0.2,0.1
	c0.7,0.5,1.3,1.1,1.7,1.8c0,0.1,0.1,0.2,0.1,0.2c0,0.1-0.1,0.2-0.1,0.2c-0.1,0-0.1,0-0.2,0C479.9,353.9,479.8,353.9,479.8,353.9
	L479.8,353.9z M478,354.7c-0.1,0-0.1-0.1-0.1-0.1c-0.4-0.6-1-1.1-1.6-1.6c-0.1,0-0.1-0.1-0.1-0.2c0-0.1,0-0.2,0-0.2c0,0,0,0,0,0
	c0,0,0,0,0,0c0,0,0,0,0,0c0,0,0,0,0,0c0.1-0.1,0.1-0.1,0.2-0.1c0.1,0,0.2,0,0.2,0.1c0.7,0.5,1.3,1.1,1.7,1.8
	c0.1,0.1,0.1,0.2,0.1,0.2c0,0.1-0.1,0.2-0.1,0.2C478.3,354.8,478.1,354.8,478,354.7z M476.3,355.5c-0.1,0-0.1-0.1-0.1-0.1
	c-0.4-0.6-1-1.1-1.6-1.6c-0.1,0-0.1-0.1-0.1-0.2c0-0.1,0-0.2,0-0.2c0,0,0,0,0,0c0,0,0,0,0,0c0,0,0,0,0,0c0,0,0,0,0,0
	c0.1-0.1,0.1-0.1,0.2-0.1c0.1,0,0.2,0,0.2,0.1c0.7,0.5,1.3,1.1,1.7,1.8c0,0.1,0.1,0.2,0.1,0.2s-0.1,0.2-0.1,0.2
	C476.5,355.6,476.4,355.6,476.3,355.5L476.3,355.5z"/>
<path class="st12" d="M505.7,291.6c0,0-3.9,28.1,25.1,47.2l-7.4,8.5c0,0-32.4-20.8-30-48.9L505.7,291.6z"/>
<path class="st13" d="M507.3,307.8c-0.4,0.6-0.8,1.2-1.2,1.8c-1,1.6-1.9,3.3-2.6,5.1c-1.3,2.9-2.3,6-3.1,9.1
	c-4.6-7.3-7.7-16-6.9-25.4l12.3-6.7C505.7,291.6,504.7,298.5,507.3,307.8L507.3,307.8z"/>
<path class="st14" d="M486.7,260.6c-0.9,9.9-0.7,19.9,0.5,29.8c0,0-14.7,31-10.4,61.6l12,2.6c0,0,1.5-40.4,17-61.3l0.1-20.2
	l-12.9-1.7l-1.4-10.8L486.7,260.6z"/>
<path class="st12" d="M505.1,275.3c0.1,0,0.2-0.1,0.3-0.4c0.1-0.2,0.2-0.4,0.2-0.5c0.1-0.2,0.1-0.5,0.2-0.7c0-0.1,0.1-0.3,0.1-0.4
	c0-0.1,0.1-0.3,0.1-0.5l0.1-0.6c0-0.2,0-0.4,0.1-0.6c0.1-0.2,0-0.4,0.1-0.6c0-0.2,0-0.4,0.1-0.6c0-0.5,0.1-0.9,0.1-1.4
	c0-1.1,0-2.2-0.1-3.3c-0.1-1.3-0.3-2.5-0.5-3.8c-0.3-1.4-0.6-2.7-1-4.1c-0.4-1.5-1.1-2.9-2-4.3c-0.5-0.7-1-1.3-1.7-1.9
	c-0.6-0.5-1.4-1-2.2-1.2c-0.4-0.1-0.8-0.2-1.2-0.2h-1.3c-0.8,0.1-1.5,0.3-2.2,0.7c-0.6,0.3-1.2,0.8-1.7,1.2l-0.4,0.4l-0.3,0.4
	l-0.3,0.4l-0.3,0.4c-0.3,0.5-0.6,1.1-0.9,1.6c-0.2,0.5-0.4,1-0.5,1.5c-0.2,0.9-0.3,1.8-0.4,2.7c0,0.8,0,1.5,0,2
	c0,1.1,0.2,1.7,0.3,1.7c0.1,0,0.2-0.6,0.4-1.7c0.1-0.5,0.2-1.2,0.3-2c0.2-0.8,0.4-1.7,0.7-2.5c0.3-0.9,0.8-1.8,1.4-2.6
	c0.1-0.1,0.2-0.2,0.3-0.3l0.3-0.3l0.3-0.3l0.3-0.3c0.4-0.4,0.9-0.6,1.4-0.9c0.5-0.2,1-0.4,1.6-0.4h0.8c0.3,0,0.6,0.1,0.8,0.2
	c1.1,0.5,2.1,1.3,2.7,2.4c0.7,1.2,1.3,2.4,1.6,3.7c0.4,1.3,0.7,2.6,1,3.8c0.3,1.2,0.5,2.4,0.6,3.5c0.1,1.1,0.3,2.2,0.3,3.1
	c0,0.5,0.1,0.9,0.1,1.4v4c0,0.2,0,0.4,0,0.5C505,275.2,505.1,275.3,505.1,275.3L505.1,275.3z"/>
<path class="st9" d="M498.2,263.5l-0.1,0.1c-1.2,1.1-2.5,2.1-4,2.9c-1.7,0.9-3.5,1.4-5.3,1.7c-1,0.1-2.1,0.2-3.1,0.1
	c-1.1-0.1-2.2-0.3-3.2-0.6c-1-0.3-2-0.8-2.9-1.4c-0.9-0.5-1.6-1.1-2.4-1.9c-0.7-0.6-1.3-1.3-1.8-2.1c-0.5-0.7-1-1.4-1.4-2.2
	c-0.7-1.3-1.3-2.8-1.6-4.2c-0.3-1.2-0.5-2.4-0.6-3.7c-0.1-1-0.1-2-0.1-3V249c-1.3-1.1-2.1-2.8-2.2-4.5c-0.1-1.7,0.5-3.4,1.6-4.7
	c0.2-0.2,0.4-0.4,0.6-0.6c0.1-0.1,0.3-0.2,0.4-0.3c0.2-0.1,0.3-0.1,0.5-0.1c1,0.1,1.2,1.2,1,2c-0.2,0.8-0.4,1.5,0,2.2
	c0.1,0.2,0.3,0.4,0.4,0.5c0.2,0.1,0.4,0.2,0.6,0.2h0.2c0.1,0,0.2,0,0.3,0c0.1,0,0.2,0.1,0.3,0.2c0.1,0.1,0.2,0.2,0.2,0.3
	c0,0.1,0.1,0.2,0.1,0.3c0,0.1,0,0.2,0,0.3c-0.1,0.3-0.2,0.7-0.4,1c-0.3,0.6-0.7,1.2-1.2,1.7c0.5,1,1,2.2,1.6,3.6
	c0.5,0.9,1,1.8,1.5,2.7c0.6,0.9,1.3,1.8,2,2.6c0.7,0.8,1.5,1.5,2.5,2c0.4,0.3,0.9,0.5,1.4,0.6c0.4,0.2,0.9,0.3,1.4,0.4
	c0.5,0.1,0.9,0.1,1.4,0c0.5,0,0.9-0.1,1.4-0.2c0.9-0.2,1.8-0.5,2.7-0.9c0.9-0.4,1.7-0.8,2.5-1.4c0.6-0.4,1.2-0.8,1.7-1.2
	C494.8,258.8,496.2,261.4,498.2,263.5L498.2,263.5z"/>
<path class="st14" d="M490.9,227.4c0.2-0.6,0.5-1.2,0.9-1.7c0.4-0.5,0.9-0.9,1.5-1.2c1.2-0.6,2.6-0.7,3.9-0.4
	c1.3,0.3,2.6,0.9,3.5,1.9c1,1,1.5,2.3,1.6,3.7c0.1,2.1-1,4.2-2.1,6C497.8,232.2,494.6,229.4,490.9,227.4L490.9,227.4z"/>
<path class="st13" d="M489.5,225c-0.6-0.4-1.3-0.6-2-0.5c-0.5,0.1-0.9,0.4-1.2,0.9c-0.3,0.4-0.4,0.9-0.3,1.4c0.2,1,0.7,1.9,1.5,2.5
	c1.2,1.1,2.6,1.8,4.2,2c1.6,0.2,3.2,0,4.6-0.6c0.4-0.2,1.4-0.5,1.5-0.9c0.3-0.6-0.4-0.7-0.9-1C494.4,227.5,491.9,226.3,489.5,225z"
	/>
<path class="st15" d="M497.7,242c1.7-1.7,2.7-3.9,2.9-6.3c0.1-1.4-0.2-2.9-0.7-4.2c-0.1-0.2-0.3-0.5-0.5-0.7
	c-0.4-0.5-0.8-0.9-1.2-1.3c-0.8,1.3-1.4,2.8-1.6,4.3C496,236.6,496.4,239.4,497.7,242L497.7,242z M489.3,232.9
	c-0.3,0.8-0.3,1.6-0.2,2.3c0.2,0.8,0.5,1.5,1,2.1c0.7-1.1,1.1-2.3,1.3-3.6c0-0.2,0-0.3,0-0.5c0-0.2-0.1-0.3-0.2-0.5
	c-0.1-0.1-0.3-0.2-0.4-0.2c-0.2,0-0.3,0-0.5,0C490,232.6,489.6,232.9,489.3,232.9L489.3,232.9z"/>
<path class="st9" d="M490.3,232.2c0.4,1.7-0.4,3.4-1,5c-0.6,1.6-1.2,3.5-0.5,5c0.4,0.8,1,1.5,1.9,1.9c0.8,0.4,1.7,0.5,2.6,0.4
	c0.9-0.2,1.7-0.6,2.4-1.1c0.7-0.6,1.3-1.3,1.6-2.1c0.7-1.6,1-3.5,0.7-5.3c-0.2-1.8-0.7-3.5-1.3-5.2
	C494.7,229.7,492.1,230.5,490.3,232.2z"/>
<path class="st9" d="M497.7,236.5c0.2-0.2,0.4-0.5,0.7-0.6c0.1-0.1,0.3-0.1,0.4-0.2c0.2,0,0.3,0,0.5,0c0.2,0.1,0.4,0.2,0.5,0.3
	c0.1,0.1,0.2,0.3,0.3,0.5c0.1,0.2,0.1,0.5,0.1,0.8c0,0.3-0.1,0.5-0.2,0.8s-0.3,0.4-0.5,0.6c-0.2,0.2-0.4,0.3-0.7,0.4
	c-0.3,0.1-0.5,0.1-0.8,0.1c-0.3,0-0.5-0.1-0.8-0.2C497.6,238.2,497.7,237.4,497.7,236.5z"/>
<path class="st15" d="M489.1,233.6c2.6,0,5.1-0.7,7.2-2.1c-0.2,0.8-0.1,1.5,0.1,2.3c0.3,1.1,1,2,2,2.7c1-1.5,1.4-3.3,1.1-5.1
	c0-0.2-0.1-0.4-0.1-0.6c-0.4-0.5-0.8-0.9-1.2-1.3c-0.7-0.6-1.5-1.1-2.4-1.4c-1.2-0.4-2.4-0.5-3.6-0.4c-1.2,0.2-2.4,0.6-3.4,1.3
	c-0.2,0.1-0.3,0.3-0.5,0.5c-0.4,0.4-0.7,0.9-0.9,1.5c-0.1,0.2-0.1,0.5-0.1,0.8c0,0.3,0.1,0.5,0.2,0.7c0.1,0.2,0.3,0.4,0.4,0.6
	c0.2,0.2,0.4,0.3,0.7,0.4C488.7,233.5,488.9,233.6,489.1,233.6L489.1,233.6z"/>
<path class="st16" d="M140.1,323.6c0-5.7,1.7-11.3,4.8-16c3.2-4.7,7.7-8.4,12.9-10.6c5.3-2.2,11-2.7,16.6-1.6
	c5.6,1.1,10.7,3.8,14.7,7.9c4,4,6.8,9.1,7.9,14.7c1.1,5.6,0.5,11.4-1.6,16.6c-2.2,5.3-5.9,9.7-10.6,12.9c-4.7,3.2-10.3,4.8-16,4.8
	c-7.6,0-14.9-3-20.3-8.4C143.1,338.6,140.1,331.3,140.1,323.6L140.1,323.6z M297.7,324c0-5.6,1.7-11.2,4.8-15.8
	c3.1-4.7,7.6-8.3,12.8-10.5c5.2-2.2,10.9-2.7,16.5-1.6c5.5,1.1,10.6,3.8,14.6,7.8c4,4,6.7,9.1,7.8,14.6c1.1,5.5,0.5,11.3-1.6,16.5
	c-2.2,5.2-5.8,9.7-10.5,12.8s-10.2,4.8-15.8,4.8c-7.6,0-14.8-3-20.1-8.4C300.7,338.8,297.7,331.5,297.7,324L297.7,324z"/>
<path class="st17" d="M418,177H315v130h103V177z"/>
<path class="st18" d="M401.5,304.8L401.5,304.8c-5.7,1-11.4,1.5-17.1,1.5c-5.4,0.1-10.8-0.4-16.1-1.5c0,0-0.1,0-0.1,0
	c-1.2,0.6-2.6,0.9-4,1c-0.4,0-0.7,0-1.1-0.1c-0.2,0-0.4-0.1-0.5-0.2c-0.2-0.1-0.3-0.2-0.4-0.4c-0.1-0.3-0.1-0.6,0-0.9
	c0.1-0.3,0.2-0.6,0.4-0.8c0.2-0.4,0.4-0.8,0.6-1.2c0.4-0.8,0.7-1.5,1.2-2.2v0l0-0.1c0-0.1,0-0.1,0-0.2c-0.9-6.8-1.4-13.6-1.4-20.4
	v-3.4c0.1-6.8,0.6-13.6,1.5-20.3c0-0.1,0-0.1,0-0.2l-0.1-0.1c-0.4-0.7-0.8-1.5-1.2-2.2c-0.2-0.4-0.4-0.8-0.6-1.2
	c-0.2-0.2-0.3-0.5-0.4-0.8c-0.1-0.3-0.1-0.6,0-0.9c0.1-0.2,0.2-0.3,0.4-0.4c0.2-0.1,0.4-0.2,0.5-0.2c1.7-0.2,3.5,0.1,5.1,0.9
	c0,0,0.1,0,0.1,0c3.2-0.8,14-1.7,16.4-1.7h0.3c2.4,0,13.2,0.9,16.4,1.7c0,0,0.1,0,0.1,0c1.6-0.8,3.3-1.1,5.1-0.9
	c0.2,0,0.4,0.1,0.5,0.2c0.2,0.1,0.3,0.2,0.4,0.4c0.1,0.3,0.1,0.6,0,0.9c-0.1,0.3-0.2,0.6-0.4,0.8c-0.2,0.4-0.4,0.8-0.6,1.2
	c-0.4,0.8-0.8,1.6-1.2,2.3l0,0.1c0,0.1-0.1,0.1,0,0.2c0.9,6.8,1.4,13.6,1.4,20.4v3.4c-0.1,6.8-0.6,13.6-1.4,20.4c0,0.1,0,0.1,0,0.2
	l0,0.1v0c0.4,0.7,0.8,1.5,1.2,2.3c0.2,0.4,0.4,0.8,0.6,1.2c0.2,0.2,0.3,0.5,0.4,0.8c0.1,0.3,0.1,0.6,0,0.9c-0.1,0.2-0.2,0.3-0.4,0.4
	c-0.2,0.1-0.4,0.2-0.5,0.2c-1.7,0.2-3.5-0.1-5.1-0.9L401.5,304.8z"/>
<path class="st19" d="M364.1,299.9l0.1-0.1c-0.4-3.1-0.7-6.2-0.9-9.3c1.2,4,3.1,7.6,6.6,10.3c5.6,4.3,13.6,4.4,20.1,3.5
	c6-0.9,11.9-3.4,14.9-9.5c0.7-1.5,1.3-3.1,1.7-4.7c-0.3,3.3-0.6,6.5-1,9.8l0.1,0.1c0.7,1.1,1.2,2.3,1.8,3.5c0.7,1.3,0.7,2.4-0.8,2.7
	c-1.8,0.2-3.6-0.1-5.2-0.9c-3.3,0.9-19.4,2.8-33.2,0c-1.6,0.8-3.4,1.1-5.2,0.9c-1.5-0.3-1.4-1.3-0.8-2.7
	C362.9,302.2,363.4,300.9,364.1,299.9L364.1,299.9z M397.8,281.3l2.4-12.5l-26.5-5l-2.4,12.5L397.8,281.3z M397.7,270.5l-1.6,8.4
	l-22.4-4.2l1.6-8.4L397.7,270.5z M320.8,282c2.1-1.7,4.7-2.7,7.4-2.8H342c5.8,0,10.4,4.7,11.3,8.4c1.2,0.5,2.3,1.2,2.3,2.6
	c0,0.6-1.5,0.9-3.1,1.1c-1.2,1.2-3.4,1.4-5.9,1.4h-23c-0.9,0-1.9,0-2.8-0.1L320.8,282z"/>
<path class="st20" d="M320.7,290.8c11.1,0.6,22.2,0.4,33.2-0.5c0.1,0.1,0.2,0.2,0.3,0.3l0.1,0.1l0.1,0.2c-5.1,1-9,3.1-20.9,3.1
	c-4.3,0.1-8.6-0.3-12.8-1.1L320.7,290.8z"/>
<path class="st21" d="M320.8,282c2.1-1.7,4.7-2.7,7.4-2.8H342c2.1,0.1,4.2,0.7,6,1.8c1.8,1.1,3.3,2.7,4.4,4.5c-3-0.9-6-1.5-9.1-1.8
	c-4.1-0.4-8.2-0.5-12.3-0.3c-3.4,0.1-6.8,0.5-10.2,1.1L320.8,282z"/>
<path class="st19" d="M320.8,295.4c2.1-1.7,4.7-2.7,7.4-2.8H342c5.8,0,10.4,4.7,11.3,8.4c1.2,0.5,2.3,1.2,2.3,2.6
	c0,0.6-1.5,0.9-3.1,1.1c-1.2,1.2-3.4,1.4-5.9,1.4h-23c-0.9,0-1.9,0-2.8-0.1L320.8,295.4z"/>
<path class="st20" d="M320.8,303.2c11.1,0.6,22.2,0.4,33.2-0.5c0.1,0.1,0.2,0.2,0.3,0.3l0.1,0.1l0.1,0.2c-5.1,1-9,3.1-20.9,3.1
	c-4.3,0.1-8.6-0.3-12.8-1.1L320.8,303.2z"/>
<path class="st21" d="M320.8,295.4c2.1-1.7,4.7-2.7,7.4-2.8H342c2.1,0.1,4.2,0.7,6,1.8c1.8,1.1,3.3,2.7,4.4,4.5
	c-3-0.9-6-1.5-9.1-1.8c-4.1-0.4-8.2-0.5-12.3-0.3c-3.4,0.1-6.8,0.5-10.2,1.1L320.8,295.4z"/>
<path class="st19" d="M320.8,265.1h0.3c5.8,0,10.4,4.7,11.3,8.4c1.2,0.5,2.3,1.2,2.3,2.6c0,0.6-1.5,0.9-3.1,1.1
	c-1.2,1.2-3.3,1.4-5.8,1.4h-4.9L320.8,265.1z"/>
<path class="st21" d="M320.8,265.1h0.3c2.1,0.1,4.2,0.7,6,1.8c1.8,1.1,3.3,2.7,4.4,4.5c-3-0.9-6-1.5-9.1-1.8
	c-0.6-0.1-1.1-0.1-1.7-0.1L320.8,265.1z"/>
<path class="st19" d="M354.9,303.3c0-1.4,1.1-2.1,2.3-2.6c0.8-3.7,5.6-8.4,11.3-8.4h13.8c5.8,0,10.4,4.7,11.3,8.4
	c1.2,0.5,2.3,1.2,2.3,2.6c0,0.6-1.5,0.9-3.1,1.1c-1.2,1.2-3.3,1.4-5.9,1.4h-23c-2.5,0-4.7-0.2-5.9-1.4
	C356.4,304.3,354.9,304,354.9,303.3L354.9,303.3z"/>
<path class="st20" d="M355.8,303.2l0.1-0.2l0.1-0.1l0.1-0.1l0.2-0.2c12.7,0.9,25.4,0.9,38.1-0.2l0.3,0.3l0.1,0.1l0.1,0.2
	c-5.1,1-9,3.1-20.9,3.1c-12.3,0-15.1-1.8-18.2-2.7L355.8,303.2z"/>
<path class="st21" d="M383.6,296.8c-4.1-0.4-8.2-0.5-12.3-0.3c-4.1,0.1-8.3,0.6-12.3,1.5l-0.6,0.2c1.9-3,5.7-5.8,10.1-5.8h13.8
	c2.1,0.1,4.2,0.7,6,1.8c1.8,1.1,3.3,2.7,4.4,4.5C389.7,297.7,386.7,297.1,383.6,296.8L383.6,296.8z"/>
<path class="st19" d="M350.8,290.3c0-1.4,1.1-2.1,2.3-2.6c0.8-3.7,5.6-8.4,11.3-8.4h13.8c5.8,0,10.5,4.7,11.3,8.4
	c1.2,0.5,2.3,1.2,2.3,2.6c0,0.6-1.5,0.9-3.1,1.1c-1.2,1.2-3.3,1.4-5.9,1.4h-23c-2.5,0-4.7-0.2-5.9-1.4
	C352.3,291.3,350.8,291,350.8,290.3z"/>
<path class="st20" d="M351.6,290.2l0.1-0.2l0.1-0.1l0.1-0.1l0.2-0.2c12.7,1,25.4,0.9,38.1-0.2l0.3,0.3l0.1,0.1l0.1,0.2
	c-5.1,1-9,3.1-20.9,3.1c-12.3,0-15.1-1.9-18.2-2.7C351.6,290.3,351.6,290.2,351.6,290.2L351.6,290.2z"/>
<path class="st21" d="M379.5,283.8c-4.1-0.4-8.2-0.5-12.3-0.3c-4.1,0.1-8.3,0.6-12.3,1.5l-0.6,0.1c1.9-3,5.7-5.8,10.1-5.8h13.8
	c2.1,0.1,4.2,0.7,6,1.8c1.8,1.1,3.3,2.7,4.4,4.5C385.6,284.8,382.6,284.2,379.5,283.8L379.5,283.8z"/>
<path class="st22" d="M320.8,306H61.5c-2.5,0-4.5,2.3-4.5,5v10.9c0,2.8,2,5,4.5,5h259.3V306z"/>
<path class="st21" d="M63.8,306h116.7v-96.2H122c-5.6,0-11.2,1.4-16.1,4.1c-5,2.7-9.2,6.5-12.3,11.2l-23.9,35.6
	c-3.8,5.7-5.8,12.5-5.9,19.4L63.8,306z"/>
<path class="st16" d="M153.6,266.6v-46.2h-30.8c-3.9,0-7.8,1-11.2,2.8c-3.4,1.8-6.4,4.5-8.6,7.7l-24.2,35.7L153.6,266.6z"/>
<path class="st23" d="M178.6,209.8h-10.9V306h10.9V209.8z"/>
<path class="st24" d="M140.7,274.3h10.4c0.6,0,1.2-0.2,1.7-0.7c0.4-0.4,0.7-1,0.7-1.7v-1.4h-15.2v1.4c0,0.6,0.3,1.2,0.7,1.7
	C139.5,274,140.1,274.3,140.7,274.3L140.7,274.3z"/>
<path class="st15" d="M73,293.7c0-2.4-1-4.7-2.7-6.5c-1.7-1.7-4-2.7-6.5-2.7v18.4c2.4,0,4.8-1,6.5-2.7C72,298.5,73,296.2,73,293.7
	L73,293.7z"/>
<path class="st11" d="M417.2,306h-96.4c-0.8,0-1.6,0.2-2.4,0.5c-0.8,0.3-1.4,0.8-2,1.3c-0.6,0.6-1,1.3-1.3,2
	c-0.3,0.8-0.5,1.6-0.5,2.4v8.5c0,1.6,0.6,3.2,1.8,4.4c1.2,1.2,2.7,1.8,4.4,1.8h96.4c1.6,0,3.2-0.6,4.4-1.8c1.2-1.2,1.8-2.7,1.8-4.4
	v-8.5c0-1.6-0.7-3.2-1.8-4.4C420.4,306.6,418.9,306,417.2,306z"/>
<path class="st25" d="M332,316.5c0-0.9-0.3-1.7-0.7-2.5c-0.5-0.7-1.2-1.3-2-1.6c-0.8-0.3-1.7-0.4-2.6-0.3c-0.9,0.2-1.7,0.6-2.3,1.2
	c-0.6,0.6-1,1.4-1.2,2.3c-0.2,0.9-0.1,1.8,0.3,2.6c0.3,0.8,0.9,1.5,1.6,2c0.7,0.5,1.6,0.7,2.5,0.7c0.6,0,1.2-0.1,1.7-0.3
	c0.5-0.2,1-0.5,1.4-0.9s0.7-0.9,1-1.4C331.9,317.7,332,317.1,332,316.5L332,316.5z"/>
<path class="st15" d="M339.6,316.5c0-0.6-0.2-1.1-0.6-1.5c-0.4-0.4-1-0.6-1.5-0.6h0c-0.6,0-1.1,0.2-1.6,0.6c-0.4,0.4-0.7,1-0.7,1.5
	c0,0.3,0.1,0.6,0.2,0.8c0.1,0.3,0.3,0.5,0.5,0.7c0.2,0.2,0.4,0.4,0.7,0.5c0.3,0.1,0.6,0.2,0.8,0.2h0.1c0.5,0,1.1-0.2,1.5-0.5
	c0.4-0.4,0.7-0.9,0.7-1.4V316.5z"/>
<path class="st25" d="M408.7,316.5c0,0.9,0.3,1.7,0.7,2.5c0.5,0.7,1.2,1.3,2,1.6c0.8,0.3,1.7,0.4,2.6,0.3c0.9-0.2,1.7-0.6,2.3-1.2
	s1-1.4,1.2-2.3c0.2-0.9,0.1-1.8-0.3-2.6c-0.3-0.8-0.9-1.5-1.6-2c-0.7-0.5-1.6-0.7-2.5-0.7c-1.2,0-2.3,0.5-3.1,1.3
	C409.2,314.2,408.7,315.3,408.7,316.5z"/>
<path class="st15" d="M401.1,316.5c0,0.4,0.1,0.9,0.4,1.2c0.2,0.4,0.6,0.6,1,0.8c0.4,0.2,0.8,0.2,1.3,0.1c0.4-0.1,0.8-0.3,1.1-0.6
	c0.3-0.3,0.5-0.7,0.6-1.1c0.1-0.4,0-0.9-0.1-1.3c-0.2-0.4-0.4-0.7-0.8-1c-0.4-0.2-0.8-0.4-1.2-0.4c-0.6,0-1.1,0.2-1.5,0.6
	c-0.4,0.4-0.6,0.9-0.7,1.5V316.5z"/>
<path class="st23" d="M418,177H317.8v6.1H418V177z"/>
<path class="st26" d="M167.6,285.3l-48.5,15.5c0,0,4.8,3.2,6.4,5.2h42.1V285.3z"/>
<path class="st27" d="M119.2,300.8l48.5-15.5v-10.6l-56.9,22.6C113.7,298,116.6,299.1,119.2,300.8L119.2,300.8z"/>
<path class="st21" d="M320.9,177H178.6v129h142.2V177z"/>
<path class="st26" d="M320.9,280l-142.2,4v22h142.2V280z"/>
<path class="st16" d="M258.1,296.4c8.1,0,15.8,3.2,21.5,8.9c5.7,5.7,8.9,13.4,8.9,21.5h-60.9c0-4,0.8-7.9,2.3-11.6
	c1.5-3.7,3.8-7,6.6-9.9c2.8-2.8,6.2-5.1,9.8-6.6c3.7-1.5,7.6-2.3,11.6-2.3H258.1z"/>
<path class="st16" d="M262.1,301.1c6.6,0.1,12.9,2.8,17.5,7.5c4.7,4.6,7.4,10.9,7.6,17.5s-2.2,13-6.6,17.9
	c-4.4,4.9-10.5,7.9-17.1,8.4H255V301L262.1,301.1L262.1,301.1z"/>
<path class="st11" d="M231.4,326.8c0-5.1,1.5-10,4.3-14.3c2.8-4.2,6.8-7.5,11.5-9.4c4.7-1.9,9.8-2.5,14.8-1.5c5,1,9.6,3.4,13.1,7
	c3.6,3.6,6,8.2,7,13.1c1,5,0.5,10.1-1.5,14.8c-1.9,4.7-5.2,8.7-9.5,11.5c-4.2,2.8-9.2,4.3-14.3,4.3c-6.8,0-13.3-2.7-18.1-7.5
	C234.1,340.1,231.4,333.6,231.4,326.8L231.4,326.8z"/>
<path class="st26" d="M257,339.3c-6.9,0-12.6-5.6-12.6-12.6c0-6.9,5.6-12.6,12.6-12.6c6.9,0,12.6,5.6,12.6,12.6
	C269.5,333.7,263.9,339.3,257,339.3z"/>
<path class="st27" d="M178.6,284l142.2-4v-13.2l-142.3,6.5L178.6,284L178.6,284z"/>
<path class="st16" d="M103.4,296.4c8.1,0,15.8,3.2,21.5,8.9c5.7,5.7,8.9,13.4,8.9,21.5H73c0-4,0.8-7.9,2.3-11.6
	c1.5-3.7,3.8-7,6.6-9.9c2.8-2.8,6.2-5.1,9.8-6.6c3.7-1.5,7.6-2.3,11.6-2.3H103.4z"/>
<path class="st16" d="M107.4,301.1c6.6,0.1,12.9,2.8,17.5,7.5c4.7,4.6,7.4,10.9,7.6,17.5c0.2,6.6-2.2,13-6.6,17.9
	c-4.4,4.9-10.5,7.9-17.1,8.4h-8.5V301L107.4,301.1L107.4,301.1z"/>
<path class="st11" d="M76.7,326.8c0-5.1,1.5-10,4.3-14.3c2.8-4.2,6.8-7.5,11.5-9.4c4.7-1.9,9.8-2.5,14.8-1.5c5,1,9.5,3.4,13.1,7
	c3.6,3.6,6,8.2,7,13.1c1,5,0.5,10.1-1.5,14.8s-5.2,8.7-9.4,11.5c-4.2,2.8-9.2,4.3-14.3,4.3c-6.8,0-13.3-2.7-18.1-7.5
	C79.4,340.1,76.7,333.6,76.7,326.8L76.7,326.8z"/>
<path class="st26" d="M102.2,339.3c-6.9,0-12.6-5.6-12.6-12.6c0-6.9,5.6-12.6,12.6-12.6c6.9,0,12.6,5.6,12.6,12.6
	C114.8,333.7,109.2,339.3,102.2,339.3z"/>
</svg>
