<svg version="1.1" xmlns="http://www.w3.org/2000/svg" xmlns:xlink="http://www.w3.org/1999/xlink" width="630" height="390" viewBox="0 0 630 390">
<style type="text/css">
	.st0{fill:#EAF1FC;}
	.st1{fill:#F8F8FF;}
	.st2{fill:#CDE4F7;}
	.st3{fill:#E9EDF4;}
	.st4{fill:#FFFFFF;}
	.st5{fill:#ECF7FE;}
	.st6{fill:#0F222C;}
	.st7{fill:#0B2B46;}
	.st8{fill:#1D4259;}
	.st9{fill:#448DCE;}
	.st10{fill:#222846;}
	.st11{fill:#FFDA35;}
	.st12{fill:#F2F2F2;}
	.st13{fill:#F19100;}
	.st14{fill:#3378B6;}
	.st15{fill:#2C6292;}
	.st16{fill:#FF6A67;}
	.st17{fill:#57B7FF;}
	.st18{fill:#276195;}
	.st19{fill:#FF524F;}
	.st20{fill:#1B313C;}
	.st21{fill:#F9F8F9;}
	.st22{fill:none;stroke:#05616B;stroke-width:1.9945;stroke-miterlimit:10;}
	.st23{fill:#05616B;}
	.st24{fill:#F68895;}
	.st25{fill:#D6D6D6;}
	.st26{fill:#F09976;}
	.st27{fill:#EDEDED;}
	.st28{fill:#E8815F;}
	.st29{fill:#02819F;}
</style>
<path class="st0" d="M314.5,380c173.7,0,314.5-25.1,314.5-56s-140.8-56-314.5-56S0,293.1,0,324S140.8,380,314.5,380z"/>
<path class="st1" d="M599.6,301.9c29.2-73.2,48.3-220.3-40.2-266.7c-57.9-30.3-118.3,8.7-180.2,10.5C330.6,47,283.7,14,239.9,4.6
	C124.9-20.1-55.9,51.6,23.6,301.9C222.4,301.4,400.8,302.3,599.6,301.9z"/>
<path class="st2" d="M368,68h103v235H368V68z"/>
<path class="st3" d="M368,68h32v235h-32V68z"/>
<path class="st4" d="M459.1,74h4.9v8h-4.9V74z M450.3,74h4.9v8h-4.9V74z M441.4,74h4.9v8h-4.9V74z M432.5,74h4.9v8h-4.9V74z
	 M423.7,74h4.9v8h-4.9V74z M414.8,74h4.9v8h-4.9V74z M405.9,74h4.9v8h-4.9V74z M389.7,74h4.9v8h-4.9V74z M380.9,74h4.9v8h-4.9V74z
	 M372,74h4.9v8H372V74z M459.1,90.8h4.9v8h-4.9V90.8z M450.3,90.8h4.9v8h-4.9V90.8z M441.4,90.8h4.9v8h-4.9V90.8z M432.5,90.8h4.9v8
	h-4.9V90.8z M423.7,90.8h4.9v8h-4.9V90.8z M414.8,90.8h4.9v8h-4.9V90.8z M405.9,90.8h4.9v8h-4.9V90.8z M389.7,90.8h4.9v8h-4.9V90.8z
	 M380.9,90.8h4.9v8h-4.9V90.8z M372,90.8h4.9v8H372V90.8z M459.1,107.6h4.9v8h-4.9V107.6z M450.3,107.6h4.9v8h-4.9V107.6z
	 M441.4,107.6h4.9v8h-4.9V107.6z M432.5,107.6h4.9v8h-4.9V107.6z M423.7,107.6h4.9v8h-4.9V107.6z M414.8,107.6h4.9v8h-4.9V107.6z
	 M405.9,107.6h4.9v8h-4.9V107.6z M389.7,107.6h4.9v8h-4.9V107.6z M380.9,107.6h4.9v8h-4.9V107.6z M372,107.6h4.9v8H372V107.6z
	 M459.1,124.3h4.9v8h-4.9V124.3z M450.3,124.3h4.9v8h-4.9V124.3z M441.4,124.3h4.9v8h-4.9V124.3z M432.5,124.3h4.9v8h-4.9V124.3z
	 M423.7,124.3h4.9v8h-4.9V124.3z M414.8,124.3h4.9v8h-4.9V124.3z M405.9,124.3h4.9v8h-4.9V124.3z M389.7,124.3h4.9v8h-4.9V124.3z
	 M380.9,124.3h4.9v8h-4.9V124.3z M372,124.3h4.9v8H372V124.3z M459.1,141.1h4.9v8h-4.9V141.1z M450.3,141.1h4.9v8h-4.9V141.1z
	 M441.4,141.1h4.9v8h-4.9V141.1z M432.5,141.1h4.9v8h-4.9V141.1z M423.7,141.1h4.9v8h-4.9V141.1z M414.8,141.1h4.9v8h-4.9V141.1z
	 M405.9,141.1h4.9v8h-4.9V141.1z M389.7,141.1h4.9v8h-4.9V141.1z M380.9,141.1h4.9v8h-4.9V141.1z M372,141.1h4.9v8H372V141.1z
	 M459.1,157.9h4.9v8h-4.9V157.9z M450.3,157.9h4.9v8h-4.9V157.9z M441.4,157.9h4.9v8h-4.9V157.9z M432.5,157.9h4.9v8h-4.9V157.9z
	 M423.7,157.9h4.9v8h-4.9V157.9z M414.8,157.9h4.9v8h-4.9V157.9z M405.9,157.9h4.9v8h-4.9V157.9z M389.7,157.9h4.9v8h-4.9V157.9z
	 M380.9,157.9h4.9v8h-4.9V157.9z M372,157.9h4.9v8H372V157.9z M459.1,174.6h4.9v8h-4.9V174.6z M450.3,174.6h4.9v8h-4.9V174.6z
	 M441.4,174.6h4.9v8h-4.9V174.6z M432.5,174.6h4.9v8h-4.9V174.6z M423.7,174.6h4.9v8h-4.9V174.6z M414.8,174.6h4.9v8h-4.9V174.6z
	 M405.9,174.6h4.9v8h-4.9V174.6z M389.7,174.6h4.9v8h-4.9V174.6z M380.9,174.6h4.9v8h-4.9V174.6z M372,174.6h4.9v8H372V174.6z
	 M459.1,191.3h4.9v8h-4.9V191.3z M450.3,191.3h4.9v8h-4.9V191.3z M441.4,191.3h4.9v8h-4.9V191.3z M432.5,191.3h4.9v8h-4.9V191.3z
	 M423.7,191.3h4.9v8h-4.9V191.3z M414.8,191.3h4.9v8h-4.9V191.3z M405.9,191.3h4.9v8h-4.9V191.3z M389.7,191.3h4.9v8h-4.9V191.3z
	 M380.9,191.3h4.9v8h-4.9V191.3z M372,191.3h4.9v8H372V191.3z M459.1,208.1h4.9v8h-4.9V208.1z M450.3,208.1h4.9v8h-4.9V208.1z
	 M441.4,208.1h4.9v8h-4.9V208.1z M432.5,208.1h4.9v8h-4.9V208.1z M423.7,208.1h4.9v8h-4.9V208.1z M414.8,208.1h4.9v8h-4.9V208.1z
	 M405.9,208.1h4.9v8h-4.9V208.1z M389.7,208.1h4.9v8h-4.9V208.1z M380.9,208.1h4.9v8h-4.9V208.1z M372,208.1h4.9v8H372V208.1z
	 M459.1,224.9h4.9v8h-4.9V224.9z M450.3,224.9h4.9v8h-4.9V224.9z M441.4,224.9h4.9v8h-4.9V224.9z M432.5,224.9h4.9v8h-4.9V224.9z
	 M423.7,224.9h4.9v8h-4.9V224.9z M414.8,224.9h4.9v8h-4.9V224.9z M405.9,224.9h4.9v8h-4.9V224.9z M389.7,224.9h4.9v8h-4.9V224.9z
	 M380.9,224.9h4.9v8h-4.9V224.9z M372,224.9h4.9v8H372V224.9z M459.1,241.7h4.9v8h-4.9V241.7z M450.3,241.7h4.9v8h-4.9V241.7z
	 M441.4,241.7h4.9v8h-4.9V241.7z M432.5,241.7h4.9v8h-4.9V241.7z M423.7,241.7h4.9v8h-4.9V241.7z M414.8,241.7h4.9v8h-4.9V241.7z
	 M405.9,241.7h4.9v8h-4.9V241.7z M389.7,241.7h4.9v8h-4.9V241.7z M380.9,241.7h4.9v8h-4.9V241.7z M372,241.7h4.9v8H372V241.7z
	 M459.1,258.5h4.9v8h-4.9V258.5z M450.3,258.5h4.9v8h-4.9V258.5z M441.4,258.5h4.9v8h-4.9V258.5z M432.5,258.5h4.9v8h-4.9V258.5z
	 M423.7,258.5h4.9v8h-4.9V258.5z M414.8,258.5h4.9v8h-4.9V258.5z M405.9,258.5h4.9v8h-4.9V258.5z M389.7,258.5h4.9v8h-4.9V258.5z
	 M380.9,258.5h4.9v8h-4.9V258.5z M372,258.5h4.9v8H372V258.5z M459.1,275.2h4.9v8h-4.9V275.2z M450.3,275.2h4.9v8h-4.9V275.2z
	 M441.4,275.2h4.9v8h-4.9V275.2z M432.5,275.2h4.9v8h-4.9V275.2z M423.7,275.2h4.9v8h-4.9V275.2z M414.8,275.2h4.9v8h-4.9V275.2z
	 M405.9,275.2h4.9v8h-4.9V275.2z M389.7,275.2h4.9v8h-4.9V275.2z M380.9,275.2h4.9v8h-4.9V275.2z M372,275.2h4.9v8H372V275.2z
	 M459.1,292h4.9v8h-4.9V292z M450.3,292h4.9v8h-4.9V292z M441.4,292h4.9v8h-4.9V292z M432.5,292h4.9v8h-4.9V292z M423.7,292h4.9v8
	h-4.9V292z M414.8,292h4.9v8h-4.9V292z M405.9,292h4.9v8h-4.9V292z M389.7,292h4.9v8h-4.9V292z M380.9,292h4.9v8h-4.9V292z M372,292
	h4.9v8H372V292z"/>
<path class="st2" d="M65,98.7h95.2v204.2H65V98.7z"/>
<path class="st3" d="M65,98.7h29.7v204.2H65V98.7z"/>
<path class="st4" d="M125.7,108.4h4.4V131h-4.4V108.4z M117.7,108.4h4.4V131h-4.4V108.4z M109.8,108.4h4.4V131h-4.4V108.4z
	 M101.7,108.4h4.4V131h-4.4V108.4z M87.1,108.4h4.4V131h-4.4V108.4z M79.1,108.4h4.4V131h-4.4V108.4z M71.1,108.4h4.4V131h-4.4
	V108.4z M125.7,134h4.4v22.6h-4.4V134z M117.7,134h4.4v22.6h-4.4V134z M109.8,134h4.4v22.6h-4.4V134z M101.7,134h4.4v22.6h-4.4V134z
	 M87.1,134h4.4v22.6h-4.4V134z M79.1,134h4.4v22.6h-4.4V134z M71.1,134h4.4v22.6h-4.4V134z M125.7,159.5h4.4V182h-4.4V159.5z
	 M117.7,159.5h4.4V182h-4.4V159.5z M109.8,159.5h4.4V182h-4.4V159.5z M101.7,159.5h4.4V182h-4.4V159.5z M87.1,159.5h4.4V182h-4.4
	V159.5z M79.1,159.5h4.4V182h-4.4V159.5z M71.1,159.5h4.4V182h-4.4V159.5z M125.7,184.9h4.4v22.6h-4.4V184.9z M117.7,184.9h4.4v22.6
	h-4.4V184.9z M109.8,184.9h4.4v22.6h-4.4V184.9z M101.7,184.9h4.4v22.6h-4.4V184.9z M87.1,184.9h4.4v22.6h-4.4V184.9z M79.1,184.9
	h4.4v22.6h-4.4V184.9z M71.1,184.9h4.4v22.6h-4.4V184.9z M117.7,210.5h4.4V233h-4.4V210.5z M109.8,210.5h4.4V233h-4.4V210.5z
	 M101.7,210.5h4.4V233h-4.4V210.5z M87.1,210.5h4.4V233h-4.4V210.5z M79.1,210.5h4.4V233h-4.4V210.5z M71.1,210.5h4.4V233h-4.4
	V210.5z M109.8,236h4.4v22.6h-4.4V236z M101.7,236h4.4v22.6h-4.4V236z M87.1,236h4.4v22.6h-4.4V236z M79.1,236h4.4v22.6h-4.4V236z
	 M71.1,236h4.4v22.6h-4.4V236z M109.8,261.5h4.4v22.6h-4.4V261.5z M101.7,261.5h4.4v22.6h-4.4V261.5z M87.1,261.5h4.4v22.6h-4.4
	V261.5z M79.1,261.5h4.4v22.6h-4.4V261.5z M71.1,261.5h4.4v22.6h-4.4V261.5z"/>
<path class="st2" d="M240.4,115.7h66.1V303h-66.1V115.7z"/>
<path class="st5" d="M240.4,115.7h20.5V303h-20.5V115.7z"/>
<path class="st4" d="M240.5,122.4h66.1v1.6h-66.1V122.4z M240.5,134.7h66.1v1.6h-66.1V134.7z M240.5,147.1h66.1v1.6h-66.1V147.1z
	 M240.5,159.5h66.1v1.6h-66.1V159.5z M240.5,171.9h66.1v1.6h-66.1V171.9z M240.5,184.2h66.1v1.6h-66.1V184.2z M240.5,196.6h66.1v1.6
	h-66.1V196.6z M240.5,208.9h66.1v1.6h-66.1V208.9z M240.5,221.3h66.1v1.6h-66.1V221.3z M240.5,233.7h66.1v1.6h-66.1V233.7z
	 M240.5,246.1h66.1v1.6h-66.1V246.1z M240.5,258.4h66.1v1.6h-66.1V258.4z M240.5,270.8h66.1v1.6h-66.1V270.8z M240.5,283.1h66.1v1.6
	h-66.1V283.1z"/>
<path class="st2" d="M470.1,153h103.7V303H470.1V153z"/>
<path class="st3" d="M470.1,153h32.3V303h-32.3V153z"/>
<path class="st4" d="M470.1,161.1h103.7v1.2H470.1V161.1z M470.1,171h103.7v1.2H470.1V171z M470.1,180.9h103.7v1.2H470.1V180.9z
	 M470.1,190.8h103.7v1.2H470.1V190.8z M470.1,200.7h103.7v1.2H470.1V200.7z M470.1,210.7h103.7v1.2H470.1V210.7z M470.1,220.5h103.7
	v1.2H470.1V220.5z M470.1,230.5h103.7v1.2H470.1V230.5z M470.1,240.3h103.7v1.2H470.1V240.3z M470.1,250.3h103.7v1.2H470.1V250.3z
	 M470.1,260.1h103.7v1.2H470.1V260.1z M470.1,270.1h103.7v1.2H470.1V270.1z M470.1,279.9h103.7v1.2H470.1V279.9z M470.1,289.9h103.7
	v1.2H470.1V289.9z"/>
<path class="st2" d="M132.7,43.3h121.1V303H132.7V43.3z"/>
<path class="st5" d="M132.7,43.3h37.7V303h-37.7V43.3z"/>
<path class="st4" d="M240.4,55.6h5.6v7.5h-5.6V55.6z M230.2,55.6h5.6v7.5h-5.6V55.6z M220.1,55.6h5.6v7.5h-5.6V55.6z M209.9,55.6
	h5.6v7.5h-5.6V55.6z M199.7,55.6h5.6v7.5h-5.6V55.6z M189.5,55.6h5.6v7.5h-5.6V55.6z M179.4,55.6h5.6v7.5h-5.6V55.6z M160.8,55.6
	h5.6v7.5h-5.6V55.6z M150.6,55.6h5.6v7.5h-5.6V55.6z M140.4,55.6h5.6v7.5h-5.6V55.6z M240.4,71.3h5.6v7.5h-5.6V71.3z M230.2,71.3
	h5.6v7.5h-5.6V71.3z M220.1,71.3h5.6v7.5h-5.6V71.3z M209.9,71.3h5.6v7.5h-5.6V71.3z M199.7,71.3h5.6v7.5h-5.6V71.3z M189.5,71.3
	h5.6v7.5h-5.6V71.3z M179.4,71.3h5.6v7.5h-5.6V71.3z M160.8,71.3h5.6v7.5h-5.6V71.3z M150.6,71.3h5.6v7.5h-5.6V71.3z M140.4,71.3
	h5.6v7.5h-5.6V71.3z M240.4,87h5.6v7.5h-5.6V87z M230.2,87h5.6v7.5h-5.6V87z M220.1,87h5.6v7.5h-5.6V87z M209.9,87h5.6v7.5h-5.6V87z
	 M199.7,87h5.6v7.5h-5.6V87z M189.5,87h5.6v7.5h-5.6V87z M179.4,87h5.6v7.5h-5.6V87z M160.8,87h5.6v7.5h-5.6V87z M150.6,87h5.6v7.5
	h-5.6V87z M140.4,87h5.6v7.5h-5.6V87z M240.4,102.6h5.6v7.5h-5.6V102.6z M230.2,102.6h5.6v7.5h-5.6V102.6z M220.1,102.6h5.6v7.5
	h-5.6V102.6z M209.9,102.6h5.6v7.5h-5.6V102.6z M199.7,102.6h5.6v7.5h-5.6V102.6z M189.5,102.6h5.6v7.5h-5.6V102.6z M179.4,102.6
	h5.6v7.5h-5.6V102.6z M160.8,102.6h5.6v7.5h-5.6V102.6z M150.6,102.6h5.6v7.5h-5.6V102.6z M140.4,102.6h5.6v7.5h-5.6V102.6z
	 M240.4,118.3h5.6v7.5h-5.6V118.3z M230.2,118.3h5.6v7.5h-5.6V118.3z M220.1,118.3h5.6v7.5h-5.6V118.3z M209.9,118.3h5.6v7.5h-5.6
	V118.3z M199.7,118.3h5.6v7.5h-5.6V118.3z M189.5,118.3h5.6v7.5h-5.6V118.3z M179.4,118.3h5.6v7.5h-5.6V118.3z M160.8,118.3h5.6v7.5
	h-5.6V118.3z M150.6,118.3h5.6v7.5h-5.6V118.3z M140.4,118.3h5.6v7.5h-5.6V118.3z M240.4,134h5.6v7.5h-5.6V134z M230.2,134h5.6v7.5
	h-5.6V134z M220.1,134h5.6v7.5h-5.6V134z M209.9,134h5.6v7.5h-5.6V134z M199.7,134h5.6v7.5h-5.6V134z M189.5,134h5.6v7.5h-5.6V134z
	 M179.4,134h5.6v7.5h-5.6V134z M160.8,134h5.6v7.5h-5.6V134z M150.6,134h5.6v7.5h-5.6V134z M140.4,134h5.6v7.5h-5.6V134z
	 M240.4,149.5h5.6v7.5h-5.6V149.5z M230.2,149.5h5.6v7.5h-5.6V149.5z M220.1,149.5h5.6v7.5h-5.6V149.5z M209.9,149.5h5.6v7.5h-5.6
	V149.5z M199.7,149.5h5.6v7.5h-5.6V149.5z M189.5,149.5h5.6v7.5h-5.6V149.5z M179.4,149.5h5.6v7.5h-5.6V149.5z M160.8,149.5h5.6v7.5
	h-5.6V149.5z M150.6,149.5h5.6v7.5h-5.6V149.5z M140.4,149.5h5.6v7.5h-5.6V149.5z M240.4,165.2h5.6v7.5h-5.6V165.2z M230.2,165.2
	h5.6v7.5h-5.6V165.2z M220.1,165.2h5.6v7.5h-5.6V165.2z M209.9,165.2h5.6v7.5h-5.6V165.2z M199.7,165.2h5.6v7.5h-5.6V165.2z
	 M189.5,165.2h5.6v7.5h-5.6V165.2z M179.4,165.2h5.6v7.5h-5.6V165.2z M160.8,165.2h5.6v7.5h-5.6V165.2z M150.6,165.2h5.6v7.5h-5.6
	V165.2z M140.4,165.2h5.6v7.5h-5.6V165.2z M240.4,180.9h5.6v7.5h-5.6V180.9z M230.2,180.9h5.6v7.5h-5.6V180.9z M220.1,180.9h5.6v7.5
	h-5.6V180.9z M209.9,180.9h5.6v7.5h-5.6V180.9z M199.7,180.9h5.6v7.5h-5.6V180.9z M189.5,180.9h5.6v7.5h-5.6V180.9z M179.4,180.9
	h5.6v7.5h-5.6V180.9z M160.8,180.9h5.6v7.5h-5.6V180.9z M150.6,180.9h5.6v7.5h-5.6V180.9z M140.4,180.9h5.6v7.5h-5.6V180.9z
	 M240.4,196.5h5.6v7.5h-5.6V196.5z M230.2,196.5h5.6v7.5h-5.6V196.5z M220.1,196.5h5.6v7.5h-5.6V196.5z M209.9,196.5h5.6v7.5h-5.6
	V196.5z M199.7,196.5h5.6v7.5h-5.6V196.5z M189.5,196.5h5.6v7.5h-5.6V196.5z M179.4,196.5h5.6v7.5h-5.6V196.5z M160.8,196.5h5.6v7.5
	h-5.6V196.5z M150.6,196.5h5.6v7.5h-5.6V196.5z M140.4,196.5h5.6v7.5h-5.6V196.5z M240.4,212.2h5.6v7.5h-5.6V212.2z M230.2,212.2
	h5.6v7.5h-5.6V212.2z M220.1,212.2h5.6v7.5h-5.6V212.2z M209.9,212.2h5.6v7.5h-5.6V212.2z M199.7,212.2h5.6v7.5h-5.6V212.2z
	 M189.5,212.2h5.6v7.5h-5.6V212.2z M179.4,212.2h5.6v7.5h-5.6V212.2z M160.8,212.2h5.6v7.5h-5.6V212.2z M150.6,212.2h5.6v7.5h-5.6
	V212.2z M140.4,212.2h5.6v7.5h-5.6V212.2z M240.4,227.9h5.6v7.5h-5.6V227.9z M230.2,227.9h5.6v7.5h-5.6V227.9z M220.1,227.9h5.6v7.5
	h-5.6V227.9z M209.9,227.9h5.6v7.5h-5.6V227.9z M199.7,227.9h5.6v7.5h-5.6V227.9z M189.5,227.9h5.6v7.5h-5.6V227.9z M179.4,227.9
	h5.6v7.5h-5.6V227.9z M160.8,227.9h5.6v7.5h-5.6V227.9z M150.6,227.9h5.6v7.5h-5.6V227.9z M140.4,227.9h5.6v7.5h-5.6V227.9z
	 M240.4,243.5h5.6v7.5h-5.6V243.5z M230.2,243.5h5.6v7.5h-5.6V243.5z M220.1,243.5h5.6v7.5h-5.6V243.5z M209.9,243.5h5.6v7.5h-5.6
	V243.5z M199.7,243.5h5.6v7.5h-5.6V243.5z M189.5,243.5h5.6v7.5h-5.6V243.5z M179.4,243.5h5.6v7.5h-5.6V243.5z M160.8,243.5h5.6v7.5
	h-5.6V243.5z M150.6,243.5h5.6v7.5h-5.6V243.5z M140.4,243.5h5.6v7.5h-5.6V243.5z M240.4,259.2h5.6v7.5h-5.6V259.2z M230.2,259.2
	h5.6v7.5h-5.6V259.2z M220.1,259.2h5.6v7.5h-5.6V259.2z M209.9,259.2h5.6v7.5h-5.6V259.2z M199.7,259.2h5.6v7.5h-5.6V259.2z
	 M189.5,259.2h5.6v7.5h-5.6V259.2z M179.4,259.2h5.6v7.5h-5.6V259.2z M160.8,259.2h5.6v7.5h-5.6V259.2z M150.6,259.2h5.6v7.5h-5.6
	V259.2z M140.4,259.2h5.6v7.5h-5.6V259.2z"/>
<path class="st5" d="M236.7,43.3h-87.1v-11c0-4.6,3.5-8.3,8-8.3h71.1c4.4,0,8,3.7,8,8.3L236.7,43.3z"/>
<path class="st2" d="M591.8,292.5H588c-0.4,0-0.8,0.3-0.8,0.7l-0.6,14.5h6.4l-0.3-14.5C592.6,292.8,592.2,292.5,591.8,292.5z"/>
<path class="st2" d="M591.2,292.7h-2.9c-0.7,0-1.3-0.6-1.3-1.4v-2.6c0-0.7,0.6-1.4,1.3-1.4h2.9c0.7,0,1.3,0.6,1.3,1.4v2.7
	C592.5,292.1,591.9,292.7,591.2,292.7z"/>
<path class="st2" d="M591.9,231h-4.7c-1.1,0-2.1-0.5-2.1-1.3v-2.4c0-0.7,0.9-1.3,2.1-1.3h4.7c1.1,0,2.1,0.5,2.1,1.3v2.5
	C594,230.5,593.1,231,591.9,231z"/>
<path class="st2" d="M589,242.8h1.6v44.6H589V242.8z"/>
<path class="st2" d="M593.2,243.9h-6.8c-0.6,0-1-0.4-1-1s0.4-1,1-1h6.8c0.6,0,1,0.4,1,1C594.1,243.5,593.7,243.9,593.2,243.9z"/>
<path class="st4" d="M593.1,241.9h-6.7l-1-10.2h8.8L593.1,241.9z"/>
<path class="st2" d="M594.7,232.2h-10c-0.6,0-1-0.4-1-1c0-0.6,0.4-1,1-1h10c0.6,0,1,0.4,1,1C595.7,231.7,595.3,232.2,594.7,232.2z
	 M590.8,226.9h-2.1v-1c0-0.6,0.5-1.1,1-1.1c0.6,0,1,0.5,1,1.1V226.9z"/>
<path class="st0" d="M552.7,228.1c-3.4-0.6-5.7,2.9-6.4,6c-0.3,1.7-0.3,3.6-1.7,4.6c-0.6,0.4-1.2,0.8-1.9,1c-3.7,1.9-3.9,5.5-4,9.1
	c0.1,0.6-0.1,1.2-0.3,1.7c-0.3,0.6-1,0.9-1.4,1.5c-0.3,0.4-0.4,0.8-0.5,1.3c-0.9,4.1-0.5,7.8-0.4,11.9c0.2,29,16.1,27.6,16.1,27.6
	h0.6c3.8-0.2,7.3-2.5,9.6-5.5c2.3-3,3.7-6.9,4.4-10.5c0.6-2.8,0.8-5.5,1-8.4c0.2-3,0.8-5.8-0.3-8.8c-0.6-1.3-1.3-2.6-1.4-4.1
	c0-1.6,1-3,1-4.6c0-0.9-0.2-1.9-0.6-2.8c-0.8-2.2-1.7-4.4-2.8-6.4c-0.9-1.6-3-2.4-3.5-4.2c-0.1-0.8-0.2-1.5-0.1-2.3
	c-0.1-3.7-3.3-6.3-6.7-7.2H552.7z"/>
<path class="st4" d="M549.8,322.7h3.7l-1.2-46.5l-0.6-1.1L549.8,322.7z"/>
<path class="st6" d="M434.8,364.3l18.4-30.1l-18.4-30.1h14c10.2,0,18.4,13.4,18.4,30.1c0,16.6-8.3,30.1-18.4,30.1H434.8z"/>
<path class="st7" d="M434.8,304.2c10.2,0,18.4,13.4,18.4,30.1c0,16.6-8.3,30.1-18.4,30.1c-10.2,0-18.4-13.4-18.4-30.1
	C416.4,317.6,424.6,304.2,434.8,304.2z"/>
<path class="st6" d="M223.9,364.3c-0.1,0.2,18.4-30.1,18.4-30.1l-18.4-30.1h14c10.2,0,18.4,13.4,18.4,30.1
	c0,16.6-8.3,30.1-18.4,30.1H223.9z"/>
<path class="st7" d="M223.9,304.2c10.2,0,18.4,13.4,18.4,30.1c0,16.6-8.3,30.1-18.4,30.1c-10.2,0-18.4-13.4-18.4-30.1
	C205.4,317.6,213.7,304.2,223.9,304.2z"/>
<path class="st8" d="M434.9,334.3L150.4,332l-16.4-7.5h-19.5c-3.1,0-2.4,9.8-2.4,9.8s0.8,8.4,3.9,8.4h318.9V334.3z"/>
<path class="st9" d="M112,332.8l133.2,1.8V179.5c0,0-31.8,0-49.2,0s-40.8,65.2-51.2,83.6c-3.5,6.2-32.8,25.8-32.8,50.5
	S112,332.8,112,332.8z"/>
<path class="st6" d="M162,250.5h68l0.9-61.8c0,0-15.5,0-30.5,0C185.3,188.6,168.4,235.8,162,250.5z"/>
<path class="st8" d="M143.5,245.9c-0.1-2,0-4.2,0.8-5.9c0.8-1.8,2.7-3.1,4.5-2.6s2.9,2.6,3.3,4.6c0.5,2,0.5,4.2,1.2,6.1
	c1.5,3.8,5.3,5.5,8.8,6.9c-1.5,1.3-3.5,2-5.5,1.8c-1.3-0.1-2.6-0.7-3.9-0.4c-1.4,0.3-2.4,1.5-3.5,2.4
	C143.7,263.4,143.6,249.6,143.5,245.9z"/>
<path class="st10" d="M207.7,266.5h9.6c0.6,0,1.1-0.3,1.5-0.7c0.4-0.4,0.6-1.1,0.6-1.7v-1.5h-14.1v1.5c0,0.6,0.3,1.3,0.7,1.7
	C206.5,266.2,207.1,266.5,207.7,266.5L207.7,266.5z"/>
<path class="st11" d="M120.5,321.6c0-2.5-0.9-4.8-2.5-6.6c-1.6-1.7-3.7-2.7-6-2.7V331c2.3,0,4.4-1,6-2.8
	C119.6,326.5,120.5,324.1,120.5,321.6L120.5,321.6z"/>
<path class="st12" d="M240.6,311.3l-62,17.5c0,0,6.1,3.6,8.1,5.9h53.8V311.3z"/>
<path class="st13" d="M181.5,330.5l59.1-18.1v-12.3l-69.4,26.4C174.9,327.3,178.4,328.6,181.5,330.5L181.5,330.5z"/>
<path class="st9" d="M441.3,179.5H240.6v155.1h200.8V179.5z"/>
<path class="st14" d="M522.3,179c-12.5,0-70.3,0-80,0c-9.7,0-10.6,10.1-10.6,13.7s0,142.9,0,142.9l104.5,3.5c0,0,0-131.8,0-142.4
	C536.2,186.1,534.8,179,522.3,179z"/>
<path class="st15" d="M517.2,184.6c-10.8,0-61,0-69.4,0c-8.4,0-9.2,9.8-9.2,13.3c0,3.4,0,138.4,0,138.4l90.7,3.4
	c0,0,0-127.6,0-137.9C529.2,191.4,528,184.6,517.2,184.6z"/>
<path class="st16" d="M434.1,267.7h1.6c1.1,0,2,0.9,2,2V290c0,1.1-0.9,2-2,2h-1.6c-1.1,0-2-0.9-2-2v-20.3
	C432.1,268.6,433,267.7,434.1,267.7z"/>
<path class="st16" d="M532.2,267.7h1.6c1.1,0,2,0.9,2,2V290c0,1.1-0.9,2-2,2h-1.6c-1.1,0-2-0.9-2-2v-20.3
	C530.2,268.6,531.1,267.7,532.2,267.7z"/>
<rect x="150.9" y="278.8" class="st17" width="277.5" height="2"/>
<path class="st18" d="M589,185.7c0-0.2,0-0.5,0-0.7c0,0,0,0,0-0.1c-0.3-2.5-1.7-4.3-3.8-4.3h-0.1h-25.2c-3.4,0-8.1,0.1-11.9,1.3
	c-7.9,2.6-9.5,8.5-9.5,11.9v10.4V314v23.6h46.6h0.1c2.3,0,3.6-1.8,3.8-4.3c0,0,0,0,0-0.1c0-0.2,0-0.5,0-0.7c0-0.1,0-0.3,0-0.4v-146
	C589,185.9,589,185.8,589,185.7z"/>
<path class="st9" d="M584.3,185.6h-24.6c-4.9,0-18.2-0.6-18.2,9.8v10.9v128.3h42.7c1.2,0,1.7-1,1.7-2.4v-0.9V188.6v-0.8
	C586,186.3,585.7,185.6,584.3,185.6z"/>
<path class="st7" d="M530.5,334.6h-95.9c-0.8,0-1.6,0.1-2.4,0.2c-0.7,0.1-1.4,0.3-2,0.6c-0.6,0.3-1,0.5-1.3,0.9
	c-0.3,0.3-0.5,0.7-0.5,1v3.7c0,0.7,0.6,1.4,1.8,1.9c1.2,0.5,2.7,0.8,4.3,0.8h95.9c1.6,0,3.2-0.3,4.4-0.8c1.2-0.5,1.8-1.2,1.8-1.9
	v-3.7c0-0.7-0.7-1.4-1.8-1.9C533.7,334.9,532.1,334.6,530.5,334.6z"/>
<path class="st19" d="M442.3,339.2c0-0.7-0.2-1.4-0.5-2c-0.4-0.6-0.9-1-1.5-1.3c-0.6-0.3-1.2-0.3-1.9-0.2c-0.6,0.1-1.2,0.5-1.7,1
	s-0.8,1.1-0.9,1.8c-0.1,0.7-0.1,1.4,0.2,2.1c0.2,0.6,0.7,1.2,1.2,1.6c0.5,0.4,1.2,0.6,1.8,0.6c0.4,0,0.8-0.1,1.2-0.3
	c0.4-0.2,0.7-0.4,1-0.8c0.3-0.3,0.5-0.7,0.7-1.1S442.3,339.7,442.3,339.2L442.3,339.2z"/>
<path class="st11" d="M451,338.9c0-0.6-0.2-1.1-0.6-1.6c-0.4-0.4-0.9-0.7-1.4-0.7h0c-0.5,0-1.1,0.2-1.5,0.7c-0.4,0.4-0.6,1-0.7,1.6
	c0,0.3,0.1,0.6,0.2,0.9s0.3,0.5,0.4,0.7c0.2,0.2,0.4,0.4,0.7,0.5c0.2,0.1,0.5,0.2,0.8,0.2h0.1c0.5,0,1-0.2,1.4-0.5
	c0.4-0.4,0.6-0.9,0.6-1.5V338.9z"/>
<path class="st19" d="M524.6,339.2c0,0.7,0.2,1.4,0.5,2c0.4,0.6,0.9,1,1.5,1.3c0.6,0.3,1.2,0.3,1.9,0.2c0.6-0.1,1.2-0.5,1.7-1
	c0.5-0.5,0.8-1.1,0.9-1.8c0.1-0.7,0.1-1.4-0.2-2s-0.7-1.2-1.2-1.6c-0.5-0.4-1.2-0.6-1.8-0.6c-0.9,0-1.7,0.4-2.3,1
	C525,337.3,524.6,338.2,524.6,339.2z"/>
<path class="st11" d="M516.3,338.9c0,0.4,0.1,0.9,0.3,1.2c0.2,0.4,0.5,0.6,0.9,0.8c0.4,0.2,0.8,0.2,1.2,0.1c0.4-0.1,0.8-0.3,1-0.6
	c0.3-0.3,0.5-0.7,0.6-1.1c0.1-0.4,0-0.9-0.1-1.3c-0.2-0.4-0.4-0.8-0.7-1c-0.3-0.2-0.7-0.4-1.1-0.4c-0.5,0-1,0.2-1.4,0.6
	c-0.4,0.4-0.6,0.9-0.6,1.5V338.9z"/>
<path class="st7" d="M240.6,188.6h-0.9v146h0.9V188.6z"/>
<path class="st12" d="M431.6,306.2l-191,6.1v22.3h191V306.2z"/>
<path class="st13" d="M240.6,312.3l191-4.1l-0.1-14.2l-191,6.1L240.6,312.3z"/>
<path class="st20" d="M401.6,342.9c0-29.5-17.5-40.7-33.3-40.7c-16,0-33.3,11-33.3,40.7"/>
<path class="st6" d="M361.1,370.9l19.3-31.5l-19.3-31.5h14.7c10.7,0,19.3,14.1,19.3,31.5s-8.7,31.5-19.3,31.5H361.1z"/>
<path class="st7" d="M361.1,307.9c10.7,0,19.3,14.1,19.3,31.5s-8.7,31.5-19.3,31.5c-10.7,0-19.3-14.1-19.3-31.5
	C341.8,322.1,350.5,307.9,361.1,307.9z"/>
<path class="st21" d="M350.2,339.4c0,9.8,4.9,17.8,10.9,17.8c6,0,10.9-8,10.9-17.8c0-9.8-4.9-17.8-10.9-17.8
	C355.1,321.6,350.2,329.6,350.2,339.4z"/>
<path class="st18" d="M378.4,184.6c0-0.2,0-0.5,0-0.7c0,0,0,0,0-0.1c0.3-2.5,1.7-4.3,3.8-4.3h0.1h25.2c3.4,0,8.1,0.1,11.9,1.3
	c7.9,2.6,9.5,8.5,9.5,11.9v10.4V313v23.6h-46.6h-0.1c-2.2,0-3.6-1.8-3.8-4.3c0,0,0,0,0-0.1c0-0.2,0-0.5,0-0.7c0-0.1,0-0.3,0-0.4
	v-146C378.4,184.8,378.4,184.7,378.4,184.6z"/>
<path class="st9" d="M383.1,184.6h24.6c4.9,0,18.2-0.6,18.2,9.8v10.9v128.3h-42.7c-1.2,0-1.7-1-1.7-2.4v-0.9V187.6v-0.8
	C381.4,185.2,381.8,184.6,383.1,184.6z"/>
<path class="st6" d="M542.6,302.3h-10.2c-1.2,0-2.2-1.1-2.2-2.4v-2.3c0-1.3,1-2.4,2.2-2.4h10.2c1.2,0,2.2,1.1,2.2,2.4v2.3
	C544.8,301.1,543.8,302.3,542.6,302.3z"/>
<path class="st6" d="M434.3,304.3h-10.2c-1.2,0-2.2-1.1-2.2-2.4v-2.3c0-1.3,1-2.4,2.2-2.4h10.2c1.2,0,2.2,1.1,2.2,2.4v2.3
	C436.5,303.2,435.6,304.3,434.3,304.3z"/>
<path class="st20" d="M193.4,342.9c0-29.5-17.5-40.7-33.3-40.7c-16,0-33.3,11-33.3,40.7"/>
<path class="st6" d="M153,370.9l19.3-31.5L153,307.9h14.7c10.7,0,19.3,14.1,19.3,31.5s-8.7,31.5-19.3,31.5H153z"/>
<path class="st7" d="M153,307.9c10.7,0,19.3,14.1,19.3,31.5s-8.7,31.5-19.3,31.5c-10.7,0-19.3-14.1-19.3-31.5
	C133.6,322.1,142.3,307.9,153,307.9z"/>
<path class="st21" d="M142.1,339.4c0,9.8,4.9,17.8,10.9,17.8s10.9-8,10.9-17.8c0-9.8-4.9-17.8-10.9-17.8S142.1,329.6,142.1,339.4z"
	/>
<path class="st22" d="M181.3,248.3c2.6-1,3-6.2,0.9-11.7c-2.1-5.4-5.9-9-8.5-8c-2.6,1-3,6.2-0.9,11.7
	C174.9,245.7,178.7,249.3,181.3,248.3z"/>
<path class="st23" d="M182,234.7l-9.2,3.1c0,0-0.1,0.9,0.8,0.9c3.5,0,5.4,2.7,6.9,10.4c0,0,3.3,0.9,3.5-1.8c0,0-5.1-7.6-1.5-11.6"/>
<path class="st24" d="M207,225.5c0.2,0.4,0.4,0.8,0.7,1.1c0.6,0.7,1.3,1.2,2.1,1.5c0.8,0.3,1.7,0.5,2.6,0.4c1.2-0.1,2.4-0.6,3.4-1.3
	c1-0.8,1.7-1.8,2-3h-0.1l-4.2-1.7c-1.6,0.8-3.4,1.6-5.2,2.5C207.8,225.2,207.4,225.3,207,225.5z"/>
<path class="st4" d="M230.7,239c-1.1,0.7-2.2,1.3-3.5,1.7c-0.1,0.6-0.2,1.3-0.2,2c-0.8,7.8-0.4,1-0.6,7.5
	c-2.1,0.3-27.4,0.9-27.4,0.9l1.7-12.5l-2.9-0.6c-0.1-2.9,0.7-5.8,2.2-8.3c0.7-1.2,1.8-2.2,3.1-2.8c0.9-0.4,2.5-1,3.2-1.3l1.2-0.6
	c1.9-0.8,3.7-1.7,5.4-2.5l4.3,1.7h0.1l2.4,1l1.6,0.6c0.8,0.1,1.5,0.2,2.3,0.4c1.3,0.3,2.5,1,3.5,2c0.9,1.2,1.5,2.7,1.8,4.2
	C229.4,234.7,230.1,236.8,230.7,239z"/>
<path class="st25" d="M217.2,222.9c0,0-5.8-0.7-8.9,1.2c0,0,0.4,1.4,1,1.5c1.9,0.2,7.4-1.1,7.4-1.1L217.2,222.9z"/>
<path class="st26" d="M215.9,220.9c0.1,1.6,0.4,3.1,1.1,4.5c-2.8,0.7-5.7,0.8-8.6,0.3c0.5-1.5,0.7-3,0.8-4.5v-0.9
	c0-0.7-0.1-1.3-0.2-1.9c1.5-2.6,5.1-3.9,8.3-3.8c-0.7,1.3-1.2,2.8-1.4,4.3C215.9,219.5,215.8,220.1,215.9,220.9
	C215.9,220.8,215.8,220.9,215.9,220.9z"/>
<path class="st27" d="M217.2,222.9c0,0-1.9,3.2-6.9,3.1l1.4,3.4c0,0,4.9-0.7,6.6-4.3L217.2,222.9z"/>
<path class="st28" d="M216,218.9c-0.1,0.7-0.1,1.3-0.1,2v0.1c-0.6-0.2-1.3-0.3-1.9-0.3c-0.9,0.1-1.9,0.2-2.8,0.5
	c-0.7,0.1-1.3,0.2-2,0.1v-0.9c0-0.7-0.1-1.3-0.2-1.9c1.5-2.6,5.1-3.9,8.3-3.8C216.6,215.9,216.1,217.4,216,218.9z"/>
<path class="st27" d="M210.3,226c-0.5-0.1-0.9-0.3-1.2-0.7s-0.6-0.7-0.7-1.2l-1.2,1.5c0,0-0.1,2.4,1.1,3.4L210.3,226z"/>
<path class="st29" d="M209.5,202.5c0.2-0.7,0.5-1.3,1-1.8c0.5-0.5,1-0.9,1.7-1.2c1.3-0.5,2.7-0.6,4.1-0.3c1.4,0.3,2.6,1.1,3.6,2.1
	c1,1.1,1.5,2.4,1.6,3.8c0.1,2.2-1.2,4.3-2.4,6.2C216.5,207.7,213.3,204.7,209.5,202.5z"/>
<path class="st23" d="M208.1,200c-0.6-0.4-1.3-0.6-2.1-0.6c-0.5,0.1-0.9,0.4-1.2,0.9c-0.3,0.4-0.4,0.9-0.4,1.4c0.1,1,0.6,2,1.4,2.7
	c1.2,1.1,2.7,1.9,4.3,2.2s3.3,0.1,4.8-0.5c0.4-0.2,1.4-0.5,1.6-0.9c0.3-0.6-0.4-0.8-0.9-1.1L208.1,200z"/>
<path class="st7" d="M216.1,217.8c1.5-1.3,2.5-3.1,3-5c0.5-1.9,0.3-4-0.4-5.8c-0.1-0.3-0.3-0.5-0.5-0.8c-0.4-0.5-0.8-1-1.2-1.4
	c-0.9,1.3-1.5,2.9-1.8,4.4C214.4,212.2,214.8,215.2,216.1,217.8z M207.6,208.1c-0.3,0.8-0.4,1.6-0.2,2.4c0.1,0.8,0.5,1.6,1,2.2
	c0.8-1.1,1.3-2.4,1.5-3.7c0-0.2,0.1-0.4,0-0.5c0-0.2-0.1-0.3-0.2-0.5c-0.1-0.1-0.3-0.2-0.5-0.2c-0.2,0-0.3,0-0.5,0
	C208.3,207.9,208,208.2,207.6,208.1z"/>
<path class="st26" d="M208.7,207.5c0.3,1.8-0.5,3.5-1.2,5.2c-0.7,1.7-1.3,3.6-0.7,5.2c0.4,0.9,1.1,1.6,1.9,2
	c0.8,0.4,1.8,0.6,2.7,0.5c0.9-0.2,1.8-0.5,2.6-1.1c0.8-0.6,1.4-1.3,1.8-2.1c0.8-1.7,1.1-3.6,0.9-5.4c-0.2-1.9-0.6-3.7-1.2-5.5
	C213.3,205,210.6,205.8,208.7,207.5z"/>
<path class="st26" d="M216.3,212.2c0.2-0.2,0.5-0.5,0.8-0.6c0.3-0.2,0.6-0.2,1-0.1c0.2,0.1,0.4,0.2,0.5,0.4c0.1,0.2,0.2,0.4,0.3,0.6
	c0.1,0.4,0.1,0.8,0,1.2c-0.1,0.4-0.4,0.8-0.7,1c-0.3,0.3-0.7,0.4-1.1,0.5c-0.4,0-0.8,0-1.2-0.2C216.1,214,216.2,213.1,216.3,212.2z"
	/>
<path class="st7" d="M207.4,208.8c2.7,0.1,5.3-0.6,7.6-2c-0.2,0.8-0.2,1.6,0,2.4c0.3,1.1,1,2.1,1.9,2.8c1.1-1.5,1.5-3.4,1.3-5.2
	c0-0.2-0.1-0.4-0.1-0.6c-0.4-0.5-0.8-1-1.2-1.4c-0.7-0.7-1.6-1.2-2.5-1.5c-1.2-0.4-2.5-0.6-3.8-0.5c-1.3,0.1-2.5,0.5-3.6,1.2
	c-0.2,0.2-0.4,0.3-0.5,0.5c-0.4,0.4-0.8,1-1,1.5c-0.2,0.5-0.2,1.1,0,1.6c0.2,0.5,0.6,0.9,1.1,1.1
	C206.9,208.8,207.1,208.8,207.4,208.8z"/>
<path class="st26" d="M230.7,239l1.8,7.2c0.1,0.6,0.2,1.2,0.1,1.7c-0.1,0.6-0.3,1.1-0.7,1.6c-0.4,0.5-0.9,1-1.4,1.3
	c-0.6,0.3-1.2,0.5-1.8,0.5l-21.1,0.1c0,0-7.3,3.5-9.7,3c-2.4-0.6,0.2-2.1,2.6-4.7c2.4-2.6,3.1-2,7-2.1c0.8,0,18-1.9,18-1.9l-1.5-5.6
	L230.7,239z"/>
<path class="st28" d="M198,238c0,0-1.1,8-1.8,9.6c-0.2,0.4-12.2-5.5-12.2-5.5s-5.7-6.9-6.1-4.2c-0.3,1.6,2.4,4.4,2.4,4.4
	s-2.1-0.8-2.3-0.3c-0.2,0.5,4.1,2.6,4.6,2.4c1.1-0.4,4,2.9,9.4,6.2h7l1.8-12L198,238z"/>
</svg>
