<svg version="1.1" xmlns="http://www.w3.org/2000/svg" xmlns:xlink="http://www.w3.org/1999/xlink" width="630" height="390" viewBox="0 0 630 390">
<style type="text/css">
	.st0{fill:#EAF1FC;}
	.st1{fill:#F8F8FF;}
	.st2{fill:#CDE4F7;}
	.st3{fill:#E9EDF4;}
	.st4{fill:#FFFFFF;}
	.st5{fill:#ECF7FE;}
	.st6{fill:#F8C47A;}
	.st7{fill:#E19A54;}
	.st8{fill:#FFDF9A;}
	.st9{fill:#E4E6E6;}
	.st10{fill:#CE8D4D;}
	.st11{fill:#EAB973;}
	.st12{fill:#D3914F;}
	.st13{fill:#F1D392;}
	.st14{fill:#C08448;}
	.st15{fill:#D38137;}
	.st16{fill:#E5B571;}
	.st17{fill:#ECCF8F;}
	.st18{fill:#C07632;}
	.st19{fill:#E08F73;}
	.st20{fill:#F09976;}
	.st21{fill:#E8815F;}
	.st22{fill:#0B2B46;}
	.st23{fill:#047487;}
	.st24{fill:#05616B;}
	.st25{fill:#02819F;}
	.st26{fill:#FFDA35;}
	.st27{fill:#0F222C;}
	.st28{fill:#2C6292;}
	.st29{fill:#1A568C;}
	.st30{fill:#114574;}
	.st31{fill:#164F83;}
	.st32{fill:#0C3860;}
	.st33{fill:#11426D;}
	.st34{fill:#25649D;}
	.st35{fill:#3873A9;}
	.st36{fill:#164C7C;}
	.st37{fill:#3679B6;}
	.st38{fill:#2A6EAC;}
	.st39{fill:#23619A;}
	.st40{fill:#1D4259;}
	.st41{fill:#FF524F;}
	.st42{fill:#3270A7;}
	.st43{fill:#448DCE;}
	.st44{fill:#F2F2F2;}
	.st45{fill:#0B2B46;}
	.st46{fill:#F19100;}
</style>
<path class="st0" d="M309.6,388C482,388,610,347.7,610,298l-21.5-20l-54,20L6,298.5C6.1,330.3,137.1,388,309.6,388z"/>
<path class="st1" d="M606.2,302.3c29.2-76.2,48.2-229.4-40.1-277.8c-57.8-31.6-99.6,0-160.6,12.7C357.4,54.5,265,24.5,222,6.7
	C107.2-19-29,35.5,6.8,302.3C6.8,302.3,407.6,302.8,606.2,302.3z"/>
<path class="st2" d="M375.6,123.5h101.6v180.8H375.6V123.5z"/>
<path class="st3" d="M375.6,123.5h31.7v180.8h-31.7V123.5z"/>
<path class="st4" d="M465.3,131.9h4.7v6h-4.7V131.9z M456.8,131.9h4.7v6h-4.7V131.9z M448.3,131.9h4.7v6h-4.7V131.9z M439.9,131.9
	h4.7v6h-4.7V131.9z M431.4,131.9h4.7v6h-4.7V131.9z M422.9,131.9h4.7v6h-4.7V131.9z M414.5,131.9h4.7v6h-4.7V131.9z M398.9,131.9
	h4.7v6h-4.7V131.9z M390.5,131.9h4.7v6h-4.7V131.9z M382,131.9h4.7v6H382V131.9z M465.3,144.4h4.7v6h-4.7V144.4z M456.8,144.4h4.7v6
	h-4.7V144.4z M448.3,144.4h4.7v6h-4.7V144.4z M439.9,144.4h4.7v6h-4.7V144.4z M431.4,144.4h4.7v6h-4.7V144.4z M422.9,144.4h4.7v6
	h-4.7V144.4z M414.5,144.4h4.7v6h-4.7V144.4z M398.9,144.4h4.7v6h-4.7V144.4z M390.5,144.4h4.7v6h-4.7V144.4z M382,144.4h4.7v6H382
	V144.4z M465.3,156.9h4.7v6h-4.7V156.9z M456.8,156.9h4.7v6h-4.7V156.9z M448.3,156.9h4.7v6h-4.7V156.9z M439.9,156.9h4.7v6h-4.7
	V156.9z M431.4,156.9h4.7v6h-4.7V156.9z M422.9,156.9h4.7v6h-4.7V156.9z M414.5,156.9h4.7v6h-4.7V156.9z M398.9,156.9h4.7v6h-4.7
	V156.9z M390.5,156.9h4.7v6h-4.7V156.9z M382,156.9h4.7v6H382V156.9z M465.3,169.3h4.7v6h-4.7V169.3z M456.8,169.3h4.7v6h-4.7V169.3
	z M448.3,169.3h4.7v6h-4.7V169.3z M439.9,169.3h4.7v6h-4.7V169.3z M431.4,169.3h4.7v6h-4.7V169.3z M422.9,169.3h4.7v6h-4.7V169.3z
	 M414.5,169.3h4.7v6h-4.7V169.3z M398.9,169.3h4.7v6h-4.7V169.3z M390.5,169.3h4.7v6h-4.7V169.3z M382,169.3h4.7v6H382V169.3z
	 M465.3,181.8h4.7v6h-4.7V181.8z M456.8,181.8h4.7v6h-4.7V181.8z M448.3,181.8h4.7v6h-4.7V181.8z M439.9,181.8h4.7v6h-4.7V181.8z
	 M431.4,181.8h4.7v6h-4.7V181.8z M422.9,181.8h4.7v6h-4.7V181.8z M414.5,181.8h4.7v6h-4.7V181.8z M398.9,181.8h4.7v6h-4.7V181.8z
	 M390.5,181.8h4.7v6h-4.7V181.8z M382,181.8h4.7v6H382V181.8z M465.3,194.3h4.7v6h-4.7V194.3z M456.8,194.3h4.7v6h-4.7V194.3z
	 M448.3,194.3h4.7v6h-4.7V194.3z M439.9,194.3h4.7v6h-4.7V194.3z M431.4,194.3h4.7v6h-4.7V194.3z M422.9,194.3h4.7v6h-4.7V194.3z
	 M414.5,194.3h4.7v6h-4.7V194.3z M398.9,194.3h4.7v6h-4.7V194.3z M390.5,194.3h4.7v6h-4.7V194.3z M382,194.3h4.7v6H382V194.3z
	 M465.3,206.7h4.7v6h-4.7V206.7z M456.8,206.7h4.7v6h-4.7V206.7z M448.3,206.7h4.7v6h-4.7V206.7z M439.9,206.7h4.7v6h-4.7V206.7z
	 M431.4,206.7h4.7v6h-4.7V206.7z M422.9,206.7h4.7v6h-4.7V206.7z M414.5,206.7h4.7v6h-4.7V206.7z M398.9,206.7h4.7v6h-4.7V206.7z
	 M390.5,206.7h4.7v6h-4.7V206.7z M382,206.7h4.7v6H382V206.7z M465.3,219.2h4.7v6h-4.7V219.2z M456.8,219.2h4.7v6h-4.7V219.2z
	 M448.3,219.2h4.7v6h-4.7V219.2z M439.9,219.2h4.7v6h-4.7V219.2z M431.4,219.2h4.7v6h-4.7V219.2z M422.9,219.2h4.7v6h-4.7V219.2z
	 M414.5,219.2h4.7v6h-4.7V219.2z M398.9,219.2h4.7v6h-4.7V219.2z M390.5,219.2h4.7v6h-4.7V219.2z M382,219.2h4.7v6H382V219.2z
	 M465.3,231.6h4.7v6h-4.7V231.6z M456.8,231.6h4.7v6h-4.7V231.6z M448.3,231.6h4.7v6h-4.7V231.6z M439.9,231.6h4.7v6h-4.7V231.6z
	 M431.4,231.6h4.7v6h-4.7V231.6z M422.9,231.6h4.7v6h-4.7V231.6z M414.5,231.6h4.7v6h-4.7V231.6z M398.9,231.6h4.7v6h-4.7V231.6z
	 M390.5,231.6h4.7v6h-4.7V231.6z M382,231.6h4.7v6H382V231.6z M465.3,244.1h4.7v6h-4.7V244.1z M456.8,244.1h4.7v6h-4.7V244.1z
	 M448.3,244.1h4.7v6h-4.7V244.1z M439.9,244.1h4.7v6h-4.7V244.1z M431.4,244.1h4.7v6h-4.7V244.1z M422.9,244.1h4.7v6h-4.7V244.1z
	 M414.5,244.1h4.7v6h-4.7V244.1z M398.9,244.1h4.7v6h-4.7V244.1z M390.5,244.1h4.7v6h-4.7V244.1z M382,244.1h4.7v6H382V244.1z
	 M465.3,256.6h4.7v6h-4.7V256.6z M456.8,256.6h4.7v6h-4.7V256.6z M448.3,256.6h4.7v6h-4.7V256.6z M439.9,256.6h4.7v6h-4.7V256.6z
	 M431.4,256.6h4.7v6h-4.7V256.6z M422.9,256.6h4.7v6h-4.7V256.6z M414.5,256.6h4.7v6h-4.7V256.6z M398.9,256.6h4.7v6h-4.7V256.6z
	 M390.5,256.6h4.7v6h-4.7V256.6z M382,256.6h4.7v6H382V256.6z M465.3,269h4.7v6h-4.7V269z M456.8,269h4.7v6h-4.7V269z M448.3,269
	h4.7v6h-4.7V269z M439.9,269h4.7v6h-4.7V269z M431.4,269h4.7v6h-4.7V269z M422.9,269h4.7v6h-4.7V269z M414.5,269h4.7v6h-4.7V269z
	 M398.9,269h4.7v6h-4.7V269z M390.5,269h4.7v6h-4.7V269z M382,269h4.7v6H382V269z M465.3,281.5h4.7v6h-4.7V281.5z M456.8,281.5h4.7
	v6h-4.7V281.5z M448.3,281.5h4.7v6h-4.7V281.5z M439.9,281.5h4.7v6h-4.7V281.5z M431.4,281.5h4.7v6h-4.7V281.5z M422.9,281.5h4.7v6
	h-4.7V281.5z M414.5,281.5h4.7v6h-4.7V281.5z M398.9,281.5h4.7v6h-4.7V281.5z M390.5,281.5h4.7v6h-4.7V281.5z M382,281.5h4.7v6H382
	V281.5z M465.3,294h4.7v6h-4.7V294z M456.8,294h4.7v6h-4.7V294z M448.3,294h4.7v6h-4.7V294z M439.9,294h4.7v6h-4.7V294z M431.4,294
	h4.7v6h-4.7V294z M422.9,294h4.7v6h-4.7V294z M414.5,294h4.7v6h-4.7V294z M398.9,294h4.7v6h-4.7V294z M390.5,294h4.7v6h-4.7V294z
	 M382,294h4.7v6H382V294z"/>
<path class="st2" d="M295.5,154.7h94.3v149.8h-94.3V154.7z"/>
<path class="st3" d="M295.5,154.7h29.4v149.8h-29.4V154.7z"/>
<path class="st4" d="M379.4,162.2h4.3v22.4h-4.3V162.2z M371.6,162.2h4.3v22.4h-4.3V162.2z M363.5,162.2h4.3v22.4h-4.3V162.2z
	 M355.7,162.2h4.3v22.4h-4.3V162.2z M347.8,162.2h4.3v22.4h-4.3V162.2z M339.9,162.2h4.3v22.4h-4.3V162.2z M331.9,162.2h4.3v22.4
	h-4.3V162.2z M317.4,162.2h4.3v22.4h-4.3V162.2z M309.5,162.2h4.3v22.4h-4.3V162.2z M301.5,162.2h4.3v22.4h-4.3V162.2z M379.4,187.4
	h4.3v22.4h-4.3V187.4z M371.6,187.4h4.3v22.4h-4.3V187.4z M363.5,187.4h4.3v22.4h-4.3V187.4z M355.7,187.4h4.3v22.4h-4.3V187.4z
	 M347.8,187.4h4.3v22.4h-4.3V187.4z M339.9,187.4h4.3v22.4h-4.3V187.4z M331.9,187.4h4.3v22.4h-4.3V187.4z M317.4,187.4h4.3v22.4
	h-4.3V187.4z M309.5,187.4h4.3v22.4h-4.3V187.4z M301.5,187.4h4.3v22.4h-4.3V187.4z M379.4,212.7h4.3V235h-4.3V212.7z M371.6,212.7
	h4.3V235h-4.3V212.7z M363.5,212.7h4.3V235h-4.3V212.7z M355.7,212.7h4.3V235h-4.3V212.7z M347.8,212.7h4.3V235h-4.3V212.7z
	 M339.9,212.7h4.3V235h-4.3V212.7z M331.9,212.7h4.3V235h-4.3V212.7z M317.4,212.7h4.3V235h-4.3V212.7z M309.5,212.7h4.3V235h-4.3
	V212.7z M301.5,212.7h4.3V235h-4.3V212.7z M379.4,237.9h4.3v22.4h-4.3V237.9z M371.6,237.9h4.3v22.4h-4.3V237.9z M363.5,237.9h4.3
	v22.4h-4.3V237.9z M355.7,237.9h4.3v22.4h-4.3V237.9z M347.8,237.9h4.3v22.4h-4.3V237.9z M339.9,237.9h4.3v22.4h-4.3V237.9z
	 M331.9,237.9h4.3v22.4h-4.3V237.9z M317.4,237.9h4.3v22.4h-4.3V237.9z M309.5,237.9h4.3v22.4h-4.3V237.9z M301.5,237.9h4.3v22.4
	h-4.3V237.9z M379.4,263.3h4.3v22.4h-4.3V263.3z M371.6,263.3h4.3v22.4h-4.3V263.3z M363.5,263.3h4.3v22.4h-4.3V263.3z M355.7,263.3
	h4.3v22.4h-4.3V263.3z M347.8,263.3h4.3v22.4h-4.3V263.3z M339.9,263.3h4.3v22.4h-4.3V263.3z M331.9,263.3h4.3v22.4h-4.3V263.3z
	 M317.4,263.3h4.3v22.4h-4.3V263.3z M309.5,263.3h4.3v22.4h-4.3V263.3z M301.5,263.3h4.3v22.4h-4.3V263.3z"/>
<path class="st2" d="M248.7,118.8h65.5v185.6h-65.5V118.8z"/>
<path class="st5" d="M248.7,118.8h20.4v185.6h-20.4V118.8z"/>
<path class="st4" d="M248.7,128.9h65.5v1.6h-65.5V128.9z M248.7,141.1h65.5v1.6h-65.5V141.1z M248.7,153.4h65.5v1.6h-65.5V153.4z
	 M248.7,165.6h65.5v1.6h-65.5V165.6z M248.7,177.9h65.5v1.6h-65.5V177.9z M248.7,190.1h65.5v1.6h-65.5V190.1z M248.7,202.4h65.5v1.6
	h-65.5V202.4z M248.7,214.7h65.5v1.6h-65.5V214.7z M248.7,226.9h65.5v1.6h-65.5V226.9z M248.7,239.1h65.5v1.6h-65.5V239.1z
	 M248.7,251.5h65.5v1.6h-65.5V251.5z M248.7,263.6h65.5v1.6h-65.5V263.6z M248.7,275.9h65.5v1.6h-65.5V275.9z M248.7,288.2h65.5v1.6
	h-65.5V288.2z"/>
<path class="st2" d="M476.4,155.8h102.7v148.7H476.4V155.8z"/>
<path class="st3" d="M476.4,155.8h32v148.7h-32V155.8z"/>
<path class="st4" d="M476.4,163.8h102.7v1.3H476.4V163.8z M476.4,173.6h102.7v1.3H476.4V173.6z M476.4,183.5h102.7v1.3H476.4V183.5z
	 M476.4,193.2h102.7v1.3H476.4V193.2z M476.4,203.1h102.7v1.3H476.4V203.1z M476.4,212.9h102.7v1.3H476.4V212.9z M476.4,222.7h102.7
	v1.3H476.4V222.7z M476.4,232.5h102.7v1.3H476.4V232.5z M476.4,242.3h102.7v1.3H476.4V242.3z M476.4,252.1h102.7v1.3H476.4V252.1z
	 M476.4,261.9h102.7v1.3H476.4V261.9z M476.4,271.7h102.7v1.3H476.4V271.7z M476.4,281.5h102.7v1.3H476.4V281.5z M476.4,291.3h102.7
	v1.3H476.4V291.3z"/>
<path class="st2" d="M142,47.1h120v257.3H142V47.1z"/>
<path class="st5" d="M142,47.1h37.4v257.3H142V47.1z"/>
<path class="st4" d="M248.7,59.3h5.6v7.4h-5.6V59.3z M238.7,59.3h5.6v7.4h-5.6V59.3z M228.6,59.3h5.6v7.4h-5.6V59.3z M218.5,59.3
	h5.6v7.4h-5.6V59.3z M208.4,59.3h5.6v7.4h-5.6V59.3z M198.4,59.3h5.6v7.4h-5.6V59.3z M188.3,59.3h5.6v7.4h-5.6V59.3z M169.9,59.3
	h5.6v7.4h-5.6V59.3z M159.8,59.3h5.6v7.4h-5.6V59.3z M149.7,59.3h5.6v7.4h-5.6V59.3z M248.7,74.8h5.6v7.4h-5.6V74.8z M238.7,74.8
	h5.6v7.4h-5.6V74.8z M228.6,74.8h5.6v7.4h-5.6V74.8z M218.5,74.8h5.6v7.4h-5.6V74.8z M208.4,74.8h5.6v7.4h-5.6V74.8z M198.4,74.8
	h5.6v7.4h-5.6V74.8z M188.3,74.8h5.6v7.4h-5.6V74.8z M169.9,74.8h5.6v7.4h-5.6V74.8z M159.8,74.8h5.6v7.4h-5.6V74.8z M149.7,74.8
	h5.6v7.4h-5.6V74.8z M248.7,90.3h5.6v7.4h-5.6V90.3z M238.7,90.3h5.6v7.4h-5.6V90.3z M228.6,90.3h5.6v7.4h-5.6V90.3z M218.5,90.3
	h5.6v7.4h-5.6V90.3z M208.4,90.3h5.6v7.4h-5.6V90.3z M198.4,90.3h5.6v7.4h-5.6V90.3z M188.3,90.3h5.6v7.4h-5.6V90.3z M169.9,90.3
	h5.6v7.4h-5.6V90.3z M159.8,90.3h5.6v7.4h-5.6V90.3z M149.7,90.3h5.6v7.4h-5.6V90.3z M248.7,105.9h5.6v7.4h-5.6V105.9z M238.7,105.9
	h5.6v7.4h-5.6V105.9z M228.6,105.9h5.6v7.4h-5.6V105.9z M218.5,105.9h5.6v7.4h-5.6V105.9z M208.4,105.9h5.6v7.4h-5.6V105.9z
	 M198.4,105.9h5.6v7.4h-5.6V105.9z M188.3,105.9h5.6v7.4h-5.6V105.9z M169.9,105.9h5.6v7.4h-5.6V105.9z M159.8,105.9h5.6v7.4h-5.6
	V105.9z M149.7,105.9h5.6v7.4h-5.6V105.9z M248.7,121.4h5.6v7.4h-5.6V121.4z M238.7,121.4h5.6v7.4h-5.6V121.4z M228.6,121.4h5.6v7.4
	h-5.6V121.4z M218.5,121.4h5.6v7.4h-5.6V121.4z M208.4,121.4h5.6v7.4h-5.6V121.4z M198.4,121.4h5.6v7.4h-5.6V121.4z M188.3,121.4
	h5.6v7.4h-5.6V121.4z M169.9,121.4h5.6v7.4h-5.6V121.4z M159.8,121.4h5.6v7.4h-5.6V121.4z M149.7,121.4h5.6v7.4h-5.6V121.4z
	 M248.7,136.9h5.6v7.4h-5.6V136.9z M238.7,136.9h5.6v7.4h-5.6V136.9z M228.6,136.9h5.6v7.4h-5.6V136.9z M218.5,136.9h5.6v7.4h-5.6
	V136.9z M208.4,136.9h5.6v7.4h-5.6V136.9z M198.4,136.9h5.6v7.4h-5.6V136.9z M188.3,136.9h5.6v7.4h-5.6V136.9z M169.9,136.9h5.6v7.4
	h-5.6V136.9z M159.8,136.9h5.6v7.4h-5.6V136.9z M149.7,136.9h5.6v7.4h-5.6V136.9z M248.7,152.3h5.6v7.4h-5.6V152.3z M238.7,152.3
	h5.6v7.4h-5.6V152.3z M228.6,152.3h5.6v7.4h-5.6V152.3z M218.5,152.3h5.6v7.4h-5.6V152.3z M208.4,152.3h5.6v7.4h-5.6V152.3z
	 M198.4,152.3h5.6v7.4h-5.6V152.3z M188.3,152.3h5.6v7.4h-5.6V152.3z M169.9,152.3h5.6v7.4h-5.6V152.3z M159.8,152.3h5.6v7.4h-5.6
	V152.3z M149.7,152.3h5.6v7.4h-5.6V152.3z M248.7,167.9h5.6v7.4h-5.6V167.9z M238.7,167.9h5.6v7.4h-5.6V167.9z M228.6,167.9h5.6v7.4
	h-5.6V167.9z M218.5,167.9h5.6v7.4h-5.6V167.9z M208.4,167.9h5.6v7.4h-5.6V167.9z M198.4,167.9h5.6v7.4h-5.6V167.9z M188.3,167.9
	h5.6v7.4h-5.6V167.9z M169.9,167.9h5.6v7.4h-5.6V167.9z M159.8,167.9h5.6v7.4h-5.6V167.9z M149.7,167.9h5.6v7.4h-5.6V167.9z
	 M248.7,183.4h5.6v7.4h-5.6V183.4z M238.7,183.4h5.6v7.4h-5.6V183.4z M228.6,183.4h5.6v7.4h-5.6V183.4z M218.5,183.4h5.6v7.4h-5.6
	V183.4z M208.4,183.4h5.6v7.4h-5.6V183.4z M198.4,183.4h5.6v7.4h-5.6V183.4z M188.3,183.4h5.6v7.4h-5.6V183.4z M169.9,183.4h5.6v7.4
	h-5.6V183.4z M159.8,183.4h5.6v7.4h-5.6V183.4z M149.7,183.4h5.6v7.4h-5.6V183.4z M248.7,198.9h5.6v7.4h-5.6V198.9z M238.7,198.9
	h5.6v7.4h-5.6V198.9z M228.6,198.9h5.6v7.4h-5.6V198.9z M218.5,198.9h5.6v7.4h-5.6V198.9z M208.4,198.9h5.6v7.4h-5.6V198.9z
	 M198.4,198.9h5.6v7.4h-5.6V198.9z M188.3,198.9h5.6v7.4h-5.6V198.9z M169.9,198.9h5.6v7.4h-5.6V198.9z M159.8,198.9h5.6v7.4h-5.6
	V198.9z M149.7,198.9h5.6v7.4h-5.6V198.9z M248.7,214.4h5.6v7.4h-5.6V214.4z M238.7,214.4h5.6v7.4h-5.6V214.4z M228.6,214.4h5.6v7.4
	h-5.6V214.4z M218.5,214.4h5.6v7.4h-5.6V214.4z M208.4,214.4h5.6v7.4h-5.6V214.4z M198.4,214.4h5.6v7.4h-5.6V214.4z M188.3,214.4
	h5.6v7.4h-5.6V214.4z M169.9,214.4h5.6v7.4h-5.6V214.4z M159.8,214.4h5.6v7.4h-5.6V214.4z M149.7,214.4h5.6v7.4h-5.6V214.4z
	 M248.7,229.9h5.6v7.4h-5.6V229.9z M238.7,229.9h5.6v7.4h-5.6V229.9z M228.6,229.9h5.6v7.4h-5.6V229.9z M218.5,229.9h5.6v7.4h-5.6
	V229.9z M208.4,229.9h5.6v7.4h-5.6V229.9z M198.4,229.9h5.6v7.4h-5.6V229.9z M188.3,229.9h5.6v7.4h-5.6V229.9z M169.9,229.9h5.6v7.4
	h-5.6V229.9z M159.8,229.9h5.6v7.4h-5.6V229.9z M149.7,229.9h5.6v7.4h-5.6V229.9z M248.7,245.5h5.6v7.4h-5.6V245.5z M238.7,245.5
	h5.6v7.4h-5.6V245.5z M228.6,245.5h5.6v7.4h-5.6V245.5z M218.5,245.5h5.6v7.4h-5.6V245.5z M208.4,245.5h5.6v7.4h-5.6V245.5z
	 M198.4,245.5h5.6v7.4h-5.6V245.5z M188.3,245.5h5.6v7.4h-5.6V245.5z M169.9,245.5h5.6v7.4h-5.6V245.5z M159.8,245.5h5.6v7.4h-5.6
	V245.5z M149.7,245.5h5.6v7.4h-5.6V245.5z M248.7,261h5.6v7.4h-5.6V261z M238.7,261h5.6v7.4h-5.6V261z M228.6,261h5.6v7.4h-5.6V261z
	 M218.5,261h5.6v7.4h-5.6V261z M208.4,261h5.6v7.4h-5.6V261z M198.4,261h5.6v7.4h-5.6V261z M188.3,261h5.6v7.4h-5.6V261z M169.9,261
	h5.6v7.4h-5.6V261z M159.8,261h5.6v7.4h-5.6V261z M149.7,261h5.6v7.4h-5.6V261z"/>
<path class="st5" d="M245.1,47.1h-86.3V36.3c0-4.6,3.5-8.3,7.8-8.3H237c4.4,0,7.8,3.7,7.8,8.3L245.1,47.1z"/>
<path class="st5" d="M434.8,220.1c3.5-0.7,5.9,3.2,6.6,6.5c0.3,1.8,0.3,3.8,1.8,5c0.6,0.4,1.3,0.8,1.9,1.1c3.8,2.1,4.1,5.9,4.2,9.8
	c-0.1,0.7,0.1,1.3,0.3,1.8c0.3,0.7,1,1,1.4,1.6c0.3,0.4,0.4,0.9,0.5,1.4c1,4.4,0.5,8.5,0.4,12.9c-0.2,31.5-16.6,30-16.6,30h-0.6
	c-4-0.3-7.5-2.8-9.8-5.9c-2.3-3.3-3.8-7.5-4.6-11.5c-0.6-3-0.9-6-1-9.1c-0.2-3.3-0.8-6.3,0.3-9.6c0.6-1.4,1.3-2.8,1.4-4.4
	c0-1.8-1-3.3-1-5c0-1,0.2-2.1,0.6-3c0.8-2.3,1.8-4.8,3-7c1-1.8,3.1-2.7,3.7-4.6c0.2-0.8,0.2-1.6,0.2-2.4c0.2-4,3.4-6.8,6.9-7.8
	L434.8,220.1z"/>
<path class="st3" d="M437.8,322.9h-4l1.3-50.5l0.6-1.3L437.8,322.9z"/>
<path class="st5" d="M287.8,210.2c3.5-0.7,5.9,3.2,6.6,6.5c0.3,1.8,0.3,3.8,1.8,5c0.6,0.4,1.3,0.8,1.9,1.1c3.8,2.1,4.1,5.9,4.2,9.8
	c-0.1,0.7,0.1,1.3,0.3,1.8c0.3,0.7,1,1,1.4,1.6c0.3,0.4,0.4,0.9,0.5,1.4c1,4.4,0.5,8.5,0.4,12.9c-0.2,31.5-16.6,30-16.6,30h-0.6
	c-4-0.3-7.5-2.8-9.8-5.9c-2.3-3.3-3.8-7.5-4.6-11.5c-0.6-3-0.9-6-1-9.1c-0.2-3.3-0.8-6.3,0.3-9.6c0.6-1.4,1.3-2.8,1.4-4.4
	c0-1.8-1-3.3-1-5c0-1,0.2-2.1,0.6-3c0.8-2.3,1.8-4.8,3-7c1-1.8,3.1-2.7,3.7-4.6c0.2-0.8,0.2-1.6,0.2-2.4c0.2-4,3.4-6.8,6.9-7.8
	L287.8,210.2z"/>
<path class="st3" d="M290.8,326.3h-4l1.3-50.5l0.6-1.3L290.8,326.3z"/>
<path class="st6" d="M439.9,293h49.4v52.7h-49.4V293z"/>
<path class="st7" d="M514.1,284.1l-24.8,8.8v52.7l24.8-8.8V284.1z"/>
<path class="st8" d="M439.9,293l24.7-8.8h49.5l-24.8,8.8H439.9z"/>
<path class="st9" d="M470.5,296.3h16.9v7.8h-16.9V296.3z"/>
<path class="st10" d="M480.9,284.1l-20.5,8.8h8.5l19.9-8.8H480.9z"/>
<path class="st10" d="M460.4,293v10.2h8.5L469,293H460.4z M460.4,335.8v10.3h8.5l0.1-10.3H460.4z"/>
<path class="st6" d="M497.3,305.6h37.9v40.5h-37.9V305.6z"/>
<path class="st7" d="M554.2,298.8l-18.9,6.8v40.5l18.9-6.8V298.8z"/>
<path class="st8" d="M497.3,305.6l18.9-6.8h38l-18.9,6.8H497.3z"/>
<path class="st11" d="M503.4,272.8h28.1v30h-28.1V272.8z"/>
<path class="st12" d="M545.6,267.8l-14.1,5v30l14.1-5V267.8z"/>
<path class="st13" d="M503.4,272.8l14-5h28.1l-14.1,5H503.4z"/>
<path class="st9" d="M520.8,274.7h9.6v4.4h-9.6V274.7z"/>
<path class="st14" d="M526.6,267.8l-11.6,5h4.8l11.3-5H526.6z M515.1,272.8v5.8h4.8l0.1-5.8H515.1z M515.1,297.2v5.8h4.8l0.1-5.8
	H515.1z"/>
<path class="st6" d="M537.5,293.3h49.4V346h-49.4V293.3z"/>
<path class="st7" d="M611.7,284.5l-24.8,8.8V346l24.8-8.8V284.5z"/>
<path class="st8" d="M537.5,293.3l24.7-8.8h49.5l-24.8,8.8H537.5z"/>
<path class="st15" d="M594.5,328.6v14.7l7.3-2.6v-14.8L594.5,328.6z M594.5,290.6v14.7l7.3-2.6v-14.8L594.5,290.6z"/>
<path class="st7" d="M552.4,288l-1,0.3l-1.6,0.6l-5.2,1.8h49.8l7.3-2.6L552.4,288z"/>
<path class="st9" d="M568,296.6h16.9v7.8H568V296.6z"/>
<path class="st16" d="M537,248.9h42.4v45.2H537V248.9z"/>
<path class="st10" d="M600.6,241.3l-21.2,7.6v45.2l21.2-7.5V241.3z"/>
<path class="st17" d="M537,248.9l21.2-7.6h42.4l-21.2,7.6H537z"/>
<path class="st18" d="M585.8,279.2v12.6l6.3-2.2V277L585.8,279.2z M585.8,246.6v12.6l6.3-2.2v-12.6L585.8,246.6z"/>
<path class="st10" d="M549.8,244.3l-0.8,0.3l-1.3,0.5l-4.4,1.4H586l6.3-2.2H549.8z"/>
<path class="st9" d="M563.2,251.8h14.4v6.6h-14.4V251.8z"/>
<path class="st16" d="M448.3,252.9h35.2v37.6h-35.2V252.9z"/>
<path class="st10" d="M501.3,246.6l-17.7,6.3v37.7l17.7-6.3V246.6z"/>
<path class="st17" d="M448.3,252.9l17.7-6.3h35.3l-17.7,6.3H448.3z"/>
<path class="st18" d="M488.9,278v10.5l5.3-1.8v-10.6L488.9,278z M488.9,251v10.5l5.3-1.8v-10.6L488.9,251z"/>
<path class="st10" d="M459,249.1l-0.8,0.3l-1.1,0.4l-3.7,1.3h35.5l5.3-1.9L459,249.1L459,249.1z"/>
<path class="st9" d="M470.1,255.3H482v5.5h-11.9V255.3z"/>
<path class="st19" d="M382.8,203.6c-0.5-0.1-1.1,0.8-1.8,2.4c-0.3,0.8-0.8,1.8-1.3,2.9c-0.5,1.1-0.9,2.3-1.6,3.7
	c-0.6,1.3-1.3,2.7-2.1,3.9c-0.4,0.7-0.9,1.3-1.4,1.8s-1.1,1.2-1.6,1.7c-0.6,0.5-1.2,1-1.8,1.4c-0.7,0.4-1.3,0.8-2,1.1
	c-0.7,0.3-1.4,0.5-2.1,0.7c-0.2,0-0.3,0.1-0.5,0.1l-0.6,0.1c-0.3,0-0.7,0-1.1,0c-1.6,0-3.1-0.3-4.6-0.7c-0.8-0.3-1.5-0.5-2.3-0.8
	c-0.3-0.2-0.8-0.3-1.1-0.4c-0.3-0.2-0.8-0.3-1.1-0.5c-0.7-0.3-1.3-0.8-2-1.1c-0.7-0.3-1.3-0.8-1.9-1.3c-1.3-0.8-2.4-1.7-3.5-2.4
	c-1-0.8-2.1-1.5-3.2-2.1c-0.8-0.6-1.8-1.1-2.8-1.6c-0.7-0.3-1.5-0.6-2.3-0.7c-0.6-0.1-1.3,0-1.8,0.3c-0.5,0.3-0.8,0.9-0.9,1.5
	c-0.2,0.8-0.2,1.7,0,2.5c0.2,1.2,0.5,2.3,1,3.3c0.6,1.4,1.3,2.8,2.3,4c1.1,1.6,2.3,3,3.8,4.3c0.8,0.8,1.7,1.5,2.5,2.1
	c1,0.8,2,1.3,3,1.9c0.5,0.3,1.1,0.6,1.7,0.8c0.6,0.3,1.2,0.5,1.8,0.8c1.3,0.5,2.5,0.8,3.8,1.2c2.9,0.7,5.8,0.8,8.8,0.3
	c0.8-0.2,1.5-0.3,2.3-0.5l1.1-0.3c0.3-0.1,0.8-0.3,1.1-0.4c1.4-0.6,2.7-1.3,3.9-2.1s2.3-1.8,3.2-2.8c0.8-0.9,1.7-2,2.3-3.1
	c0.7-1,1.2-2.1,1.7-3.2c0.4-1,0.8-2,1.1-3.1c0.5-1.8,0.8-3.6,1-5.4c0.2-1.4,0.2-2.9,0.1-4.3c0-1.1-0.1-2.1-0.3-3.2
	C383.6,204.7,383.3,203.7,382.8,203.6z"/>
<path class="st4" d="M358.2,227.1c0.6,9,0.6,18,0,27c-8.6,2.8-17.8,3.6-26.7,2.2c-0.6-9.2-1.2-18.3-1.3-27.5c0-4.8,0.2-9.7,1.5-14.4
	c1.1-4.2,3.5-7.8,6.9-10.5c0.4-0.3,0.8-0.6,1.3-0.8c2,1.7,6.3,2.3,8.6,1.2c1.3,0.8,2.3,1.8,3.3,3c1.8,2.1,3.2,4.5,4,7.2
	C357.2,218.6,358,222.9,358.2,227.1z"/>
<path class="st20" d="M351.9,207.5c-2.3,0.6-4.7,0.6-6.9,0.1c-1.3-0.3-2.4-0.8-3.5-1.3c-0.8-0.5-1.7-1.1-2.4-1.7L339,204v-0.3
	l0.2-0.8c0.4-2.6,0.8-5.1,1.2-7.7c0.3-2.3,0.7-4.8,1-7.1c2.7,1.3,5.3,2.9,7.6,4.7c0,1.6,0.2,3.2,0.3,4.8c0.1,1.3,0.3,2.7,0.5,4
	c0.1,0.8,0.3,1.5,0.3,2.3c0.2,0.8,0.3,1.4,0.4,2.1C351,206.4,351.5,206.9,351.9,207.5z"/>
<path class="st21" d="M349.7,201.5c-2.8-2.5-5.9-4.7-9.3-6.3c0.3-2.4,0.7-4.8,1-7.1c2.7,1.3,5.3,2.9,7.6,4.7c0,1.6,0.2,3.2,0.3,4.8
	C349.3,198.9,349.5,200.2,349.7,201.5z"/>
<path class="st22" d="M299.8,334.4c0,0,0,6.3,5.8,6.2l1.1,22.7l-15.7-27L299.8,334.4z"/>
<path class="st4" d="M302.5,350.4c0-0.2,0.1-0.3,0.2-0.3c0.1-0.1,0.3-0.1,0.3-0.1c1.3,0.1,2.5,0.5,3.7,1c0.1,0.1,0.3,0.2,0.3,0.3
	c0.1,0.2,0.1,0.3,0,0.4c0,0.1-0.1,0.1-0.1,0.2c-0.1,0-0.1,0.1-0.2,0.1c-0.1,0-0.3,0-0.3,0c-1.1-0.5-2.2-0.8-3.3-0.9
	c-0.1,0-0.2-0.1-0.3-0.1c-0.1-0.1-0.2-0.1-0.2-0.2C302.5,350.6,302.4,350.5,302.5,350.4z M302.3,347.6c0-0.1,0-0.2,0.1-0.2
	c0-0.1,0.1-0.1,0.1-0.2c0.1,0,0.1-0.1,0.2-0.1c0.1,0,0.2,0,0.2,0c1.3,0.2,2.5,0.5,3.7,1c0.1,0,0.1,0.1,0.2,0.1
	c0.1,0.1,0.1,0.1,0.1,0.2c0.1,0.2,0.1,0.3,0,0.4c0,0.1-0.1,0.1-0.1,0.2c-0.1,0-0.1,0.1-0.2,0.1s-0.2,0-0.2,0c-0.1,0-0.1,0-0.2-0.1
	c-1.1-0.5-2.2-0.8-3.3-0.9c-0.1,0-0.2-0.1-0.3-0.1s-0.2-0.1-0.2-0.2C302.3,347.7,302.3,347.6,302.3,347.6z M302.1,344.7
	c0-0.1,0-0.2,0.1-0.2c0-0.1,0.1-0.1,0.1-0.2c0.1-0.1,0.3-0.1,0.3-0.1c1.3,0.1,2.5,0.5,3.7,1c0.1,0.1,0.3,0.2,0.3,0.3
	c0.1,0.2,0.1,0.3,0,0.4s-0.2,0.2-0.3,0.3c-0.1,0-0.3,0-0.3,0c-1.1-0.5-2.2-0.8-3.3-0.9c-0.1,0-0.2-0.1-0.3-0.1
	c-0.1-0.1-0.2-0.1-0.2-0.2C302.1,344.9,302.1,344.8,302.1,344.7z M303.8,363.8c0.1,0.1,0.2,0.2,0.3,0.3s0.2,0.1,0.3,0.2
	c0.1,0,0.3,0,0.3,0c0.1,0,0.3-0.1,0.3-0.1l1.7-1l-15.7-27l-1.7,1c-0.1,0.1-0.2,0.1-0.3,0.2s-0.1,0.2-0.2,0.3c0,0.1,0,0.3,0,0.3
	c0,0.1,0.1,0.2,0.1,0.3L303.8,363.8z"/>
<path class="st22" d="M362.4,357.4c0,0,5.6,2.9,8.1-2.3l20.5,9.6l-31.1,1.3L362.4,357.4z"/>
<path class="st4" d="M378.4,362.6c-0.1,0.1-0.2,0.1-0.3,0.1s-0.2,0-0.3-0.1c-0.1,0-0.1-0.1-0.2-0.2c0-0.1-0.1-0.1-0.1-0.2
	c0-0.1,0-0.2,0-0.2c0-0.1,0.1-0.1,0.1-0.2c0.7-1.1,1.6-2,2.6-2.8c0.1-0.1,0.3-0.1,0.4-0.1s0.3,0.1,0.3,0.2s0.1,0.1,0.1,0.2
	c0,0.1,0,0.1,0,0.2s0,0.1-0.1,0.2c0,0.1-0.1,0.1-0.2,0.2c-0.9,0.7-1.7,1.6-2.3,2.5C378.5,362.5,378.4,362.6,378.4,362.6z
	 M375.9,361.5c-0.1,0.1-0.2,0.1-0.3,0.1s-0.2,0-0.3-0.1c-0.1,0-0.1-0.1-0.2-0.2c0-0.1-0.1-0.1-0.1-0.2s0-0.2,0-0.2
	c0-0.1,0-0.1,0.1-0.2c0.7-1.1,1.6-2,2.6-2.8c0.1,0,0.1-0.1,0.2-0.1s0.2,0,0.2,0c0.1,0,0.2,0,0.2,0.1c0.1,0,0.1,0.1,0.2,0.2
	s0.1,0.3,0.1,0.3c0,0.1-0.1,0.3-0.2,0.3c-0.9,0.7-1.7,1.6-2.3,2.5C376,361.4,375.9,361.4,375.9,361.5z M373.2,360.3
	c-0.1,0.1-0.2,0.1-0.3,0c-0.1,0-0.2-0.1-0.3-0.2s-0.1-0.2-0.1-0.3c0-0.1,0-0.2,0.1-0.3c0.8-1.1,1.6-2,2.6-2.8
	c0.1-0.1,0.3-0.1,0.4-0.1s0.3,0.1,0.3,0.2c0,0.1,0.1,0.1,0.1,0.2s0,0.1,0,0.2c0,0.1-0.1,0.3-0.2,0.3c-0.9,0.7-1.7,1.6-2.3,2.5
	C373.4,360.2,373.3,360.2,373.2,360.3z M390.5,367.5c0.3-0.1,0.4-0.3,0.5-0.6c0.1-0.1,0.1-0.3,0.1-0.4l-0.1-1.7l-31.2,1.3l0.1,1.7
	c0,0.2,0.1,0.3,0.1,0.4c0.1,0.1,0.2,0.3,0.3,0.3c0.2,0.2,0.4,0.3,0.8,0.3l29.1-1.3C390.3,367.6,390.5,367.6,390.5,367.5z"/>
<path class="st23" d="M330.8,261.6c0,0,7.2,42.3-35.7,72.3l11.5,12.6c0,0,48-32.9,43.1-75.3L330.8,261.6z"/>
<path class="st24" d="M329.2,286.2c0.7,0.8,1.3,1.8,1.9,2.7c1.6,2.4,3,4.9,4.2,7.5c2.1,4.3,3.8,8.9,5.1,13.6
	c6.5-11.3,10.9-24.4,9.3-38.7l-18.9-9.6C330.9,261.6,332.6,272,329.2,286.2z"/>
<path class="st25" d="M358.3,219.6c1.8,14.9,2.1,30,0.7,45.1c0,0,23.6,46.2,18.4,92.6l-18,4.5c0,0-4.1-60.9-28.5-91.8l-1.1-30.5
	l19.4-3.2l1.7-16.4L358.3,219.6z"/>
<path class="st23" d="M331.1,242.8c-0.2,0-0.3-0.2-0.5-0.6c-0.2-0.3-0.3-0.5-0.3-0.8c-0.1-0.3-0.3-0.7-0.3-1.1
	c-0.1-0.2-0.1-0.4-0.2-0.7c-0.1-0.3-0.1-0.5-0.2-0.8s-0.1-0.5-0.2-0.8s-0.1-0.6-0.2-0.8c-0.1-0.3-0.1-0.6-0.2-0.9l-0.2-1
	c-0.1-0.7-0.2-1.4-0.2-2.1c-0.1-1.7-0.1-3.3,0-5c0.1-1.9,0.3-3.8,0.6-5.7c0.3-2.1,0.8-4.2,1.3-6.2c0.6-2.3,1.5-4.5,2.8-6.5
	c0.7-1.1,1.5-2,2.5-2.8s2.1-1.5,3.3-1.9c0.6-0.3,1.3-0.3,1.8-0.4h1.9c1.2,0.1,2.3,0.4,3.3,0.9s1.8,1.1,2.7,1.8
	c0.2,0.2,0.4,0.3,0.6,0.5l0.5,0.6l0.5,0.6c0.2,0.2,0.3,0.4,0.4,0.6c0.5,0.8,1,1.6,1.3,2.4c0.3,0.8,0.6,1.5,0.8,2.3
	c0.3,1.3,0.6,2.7,0.8,4.1c0.1,1,0.2,2.1,0.1,3.1c0,1.7-0.2,2.6-0.3,2.6c-0.2,0-0.3-0.9-0.7-2.5c-0.2-0.8-0.3-1.8-0.6-2.9
	c-0.3-1.3-0.6-2.5-1.1-3.8c-0.5-1.4-1.3-2.8-2.3-3.8c-0.2-0.2-0.3-0.3-0.4-0.4l-0.4-0.4l-0.4-0.4c-0.2-0.2-0.3-0.3-0.5-0.4
	c-0.7-0.5-1.3-0.9-2.1-1.3c-0.8-0.3-1.6-0.5-2.4-0.5h-1.3c-0.4,0.1-0.8,0.2-1.3,0.3c-1.7,0.8-3.1,2.1-4.1,3.7
	c-1,1.8-1.8,3.7-2.3,5.7c-0.6,2-1,3.9-1.3,5.8c-0.3,1.9-0.6,3.7-0.8,5.3c-0.2,1.7-0.3,3.3-0.3,4.8v8c0,0.3,0,0.6-0.1,0.8
	C331.4,242.5,331.3,242.8,331.1,242.8z"/>
<path class="st6" d="M366.9,206.6h35.9v35.9h-35.9V206.6z"/>
<path class="st7" d="M420.7,200.6l-17.9,6v35.9l17.9-6V200.6z"/>
<path class="st8" d="M366.9,206.6l17.9-6h35.9l-17.9,6H366.9z"/>
<path class="st9" d="M389,208.9h12.2v5.3H389V208.9z"/>
<path class="st10" d="M388,235.7l-0.1,6.9h-6.2v-6.9H388z M388,206.6l-0.1,6.9h-6.2v-6.9H388z M396.5,200.6h5.8l-14.4,6h-6.2
	L396.5,200.6z"/>
<path class="st20" d="M334.9,220.2v0.3c0,3.8,0.9,7.7,2.6,11.1c0.7,1.3,1.4,2.6,2.3,3.8c0.9,1.3,2,2.4,3.2,3.4
	c2.5,2.2,5.5,3.8,8.7,4.5c1.5,0.3,3,0.6,4.5,0.6c1.4,0.1,2.8-0.1,4.2-0.3c1.3-0.2,2.5-0.5,3.8-0.8c2.2-0.7,4.3-1.6,6.3-2.8
	c1.6-0.9,3.2-2,4.6-3.3c1.2-0.9,2.3-1.9,3.3-3l0.3-0.3c0.7,0.1,1.3,0,1.9-0.1c0.7-0.1,1.3-0.3,1.9-0.4c0.6-0.2,1.3-0.5,1.8-0.8
	c0.6-0.3,1.1-0.7,1.6-1.1c1-0.8,1.8-1.9,2.3-3.1c0.3-0.6,0.5-1.2,0.7-1.8c0.2-0.6,0.3-1.3,0.3-1.9c0-0.4,0-0.9,0-1.3
	c0-0.3-0.1-0.5-0.2-0.8c-0.1-0.3-0.3-0.4-0.5-0.7c-1.2-1-2.5,0-3.3,1.1c-0.8,1.1-1.3,2.1-2.3,2.4c-0.3,0.1-0.7,0.1-1,0.1
	c-0.3-0.1-0.7-0.3-0.9-0.4c-0.1-0.1-0.2-0.2-0.3-0.2c-0.1-0.2-0.3-0.3-0.4-0.3c-0.2-0.1-0.3-0.1-0.5-0.2c-0.2,0-0.3,0-0.5,0.1
	c-0.2,0.1-0.3,0.2-0.4,0.3c-0.1,0.1-0.2,0.2-0.3,0.3c-0.3,0.4-0.4,0.9-0.6,1.4c-0.3,1-0.5,2.1-0.6,3.2c-1.6,0.6-3.4,1.3-5.6,2
	c-1.5,0.5-3,0.9-4.5,1.3c-1.6,0.3-3.3,0.6-4.8,0.6c-0.8,0-1.7,0-2.5-0.1s-1.6-0.3-2.4-0.4c-0.8-0.2-1.4-0.5-2.1-0.8
	s-1.3-0.7-1.8-1.1c-0.6-0.4-1.1-0.9-1.5-1.4c-0.5-0.5-0.9-1.1-1.3-1.7c-0.8-1.3-1.4-2.6-1.9-3.9c-0.4-1.3-0.8-2.8-1.1-4.1
	c-0.2-1.1-0.3-2.1-0.5-3.2c-1.8,1.3-3.8,2.3-5.8,2.8C339.3,220,337.1,220.2,334.9,220.2z"/>
<path class="st25" d="M350.5,169.7c-0.3-1-0.8-1.8-1.4-2.6c-0.7-0.8-1.5-1.3-2.4-1.8c-1.8-0.8-3.9-0.9-5.8-0.4c-1,0.3-2,0.6-2.8,1.2
	c-0.9,0.5-1.7,1.2-2.4,1.9c-0.7,0.8-1.3,1.7-1.7,2.6c-0.4,0.9-0.6,2-0.7,3c-0.1,3.3,1.8,6.3,3.5,9
	C340.2,177.2,344.9,172.8,350.5,169.7z"/>
<path class="st24" d="M352.5,165.9c0.9-0.7,2-0.9,3.1-0.9c0.3,0.1,0.7,0.3,1,0.5c0.3,0.3,0.6,0.5,0.8,0.8c0.3,0.3,0.3,0.7,0.5,1
	c0.1,0.3,0.2,0.8,0.1,1.1c-0.1,0.8-0.3,1.5-0.7,2.1c-0.3,0.7-0.8,1.3-1.4,1.8c-0.4,0.4-0.9,0.8-1.3,1.2c-0.5,0.3-1,0.7-1.5,0.9
	c-1.1,0.6-2.2,0.9-3.3,1.2c-0.6,0.1-1.2,0.2-1.8,0.2c-1.2,0.1-2.4-0.1-3.5-0.3c-0.6-0.2-1.2-0.3-1.7-0.6c-0.6-0.3-2.1-0.8-2.3-1.3
	c-0.5-0.9,0.5-1.1,1.3-1.5C345.1,170,348.8,168,352.5,165.9z"/>
<path class="st26" d="M351.6,177.3c-0.3-0.1-0.5-0.1-0.8,0c-0.3,0.1-0.5,0.2-0.7,0.3c-0.2,0.3-0.3,0.4-0.3,0.8
	c-0.1,0.3,0,0.5,0.1,0.8c0.3,1.9,1,3.8,2.1,5.4c0.3-0.5,0.7-1,0.9-1.5c0.5-1.1,0.7-2.3,0.6-3.5c-0.1-0.6-0.2-1.2-0.4-1.8
	C352.7,177.9,352.1,177.3,351.6,177.3z M342.6,185.8c0.3-2.1,0.2-4.3-0.3-6.3c-0.5-2.3-1.3-4.5-2.7-6.4c-1,0.9-1.8,2-2.5,3.2
	c-0.5,1.3-0.8,2.8-1,4.2c-0.1,0.8-0.1,1.4,0,2.2s0.2,1.4,0.3,2.1c0.2,0.7,0.3,1.4,0.7,2.1c0.3,0.7,0.6,1.3,0.9,1.9
	c0.3,0.6,0.8,1.2,1.3,1.8c0.4,0.6,0.9,1.1,1.5,1.6C341.8,190,342.4,187.9,342.6,185.8z"/>
<path class="st20" d="M351.6,176.8c-0.5,2.6,0.7,5.1,1.7,7.5c1,2.4,1.9,5.2,1,7.6c-0.3,0.6-0.7,1.2-1.2,1.7s-1,0.9-1.6,1.3
	c-0.6,0.3-1.3,0.6-1.9,0.7c-0.7,0.1-1.3,0.2-2,0c-1.3-0.3-2.6-0.8-3.7-1.6s-2-1.9-2.6-3.1c-0.6-1.3-1-2.5-1.3-3.8
	c-0.3-1.3-0.3-2.8-0.1-4.1c0.3-2.7,0.9-5.3,1.7-7.9C344.9,173.2,348.7,174.4,351.6,176.8z"/>
<path class="st20" d="M340.6,183.7c-0.3-0.3-0.7-0.7-1.1-0.9c-0.3-0.1-0.4-0.2-0.7-0.3c-0.3,0-0.5,0-0.8,0.1
	c-0.3,0.1-0.6,0.3-0.8,0.5c-0.3,0.3-0.3,0.5-0.4,0.8c-0.1,0.3-0.2,0.6-0.2,0.9s0,0.6,0.2,0.9c0.1,0.3,0.3,0.6,0.4,0.8
	c0.2,0.3,0.3,0.5,0.6,0.7c0.3,0.2,0.5,0.3,0.8,0.4c0.3,0.1,0.6,0.2,0.8,0.3c0.3,0,0.6,0,0.9-0.1c0.3-0.1,0.6-0.2,0.8-0.3
	C340.9,186.3,340.6,185,340.6,183.7z"/>
<path class="st26" d="M353.4,178.8c-3.8,0.1-7.7-0.8-11-2.8c0.3,1.2,0.3,2.3,0,3.5c-0.3,0.8-0.6,1.6-1.1,2.3s-1.1,1.3-1.8,1.8
	c-1.6-2.2-2.3-4.9-1.9-7.6c0-0.3,0.1-0.6,0.2-0.9c0.5-0.8,1.2-1.4,1.8-2c1-0.9,2.3-1.7,3.6-2.3c0.8-0.3,1.8-0.6,2.7-0.7
	c1.8-0.3,3.8-0.1,5.5,0.5c0.9,0.3,1.8,0.7,2.5,1.2c0.3,0.3,0.5,0.5,0.8,0.8c0.6,0.7,1.1,1.4,1.4,2.2c0.1,0.2,0.1,0.3,0.2,0.6
	c0,0.2,0.1,0.4,0,0.6c0,0.2,0,0.4-0.1,0.6c-0.1,0.2-0.1,0.3-0.2,0.6c-0.1,0.2-0.2,0.3-0.3,0.5c-0.1,0.2-0.3,0.3-0.4,0.4
	c-0.2,0.2-0.3,0.3-0.5,0.3c-0.2,0.1-0.3,0.2-0.5,0.3C354.1,178.8,353.7,178.8,353.4,178.8z"/>
<path class="st27" d="M76.3,267.9c-4.1,6.8-6.3,14.7-6.3,22.9c0,10.9,4,21.4,11,29c7,7.7,16.5,12,26.5,12.1c7.4,0,14.6-2.4,20.8-6.9
	c6.2-4.5,10.9-10.9,13.8-18.4c2.8-7.5,3.6-15.8,2.2-23.8c-1.4-8-5-15.3-10.3-21c-5.3-5.8-11.9-9.7-19.2-11.3
	c-7.3-1.6-14.8-0.8-21.6,2.3C86.2,255.8,80.4,261.1,76.3,267.9z"/>
<path class="st28" d="M227,79H98v186h129V79z"/>
<path class="st29" d="M221.7,220.3h-40.5v44.5h40.5V220.3z"/>
<path class="st30" d="M161.2,212.8l20.3,7.5v44.4l-20.3-7.3V212.8z"/>
<path class="st31" d="M221.7,220.3l-20.1-7.5h-40.5l20.3,7.5H221.7z"/>
<path class="st18" d="M175.3,250v12.4l-6.1-2.2v-12.4L175.3,250z"/>
<path class="st32" d="M175.3,218v12.4l-6.1-2.2v-12.4L175.3,218z"/>
<path class="st33" d="M209.6,215.8l0.9,0.3l1.3,0.5l4.3,1.4h-40.7l-6.1-2.2H209.6z"/>
<path class="st34" d="M196.8,238.6h-23.9v26.2h23.9V238.6z"/>
<path class="st29" d="M161,234.2l12,4.3v26.1l-12-4.3V234.2z"/>
<path class="st35" d="M196.8,238.6l-11.8-4.3h-23.9l12,4.3H196.8z"/>
<path class="st33" d="M169.4,256.1v7.3l-3.6-1.3v-7.3L169.4,256.1z M169.4,237.2v7.3l-3.6-1.3v-7.3L169.4,237.2z"/>
<path class="st36" d="M189.6,235.9l0.4,0.1l0.8,0.3l2.5,0.8h-24l-3.6-1.3L189.6,235.9z"/>
<path class="st37" d="M167.3,181.2h-52v83.4h52V181.2z"/>
<path class="st38" d="M89.4,180.2l26,1.1v83.4l-26,0.1V180.2z"/>
<path class="st39" d="M107.4,241.1v23.6h-7.8v-27.5L107.4,241.1z"/>
<path class="st40" d="M5.9,294.9h94.5v-30.2H2.8C3.5,274.4,4.6,284.5,5.9,294.9z"/>
<path class="st22" d="M226.8,264.7H100.3c-1.1,0-2.1,0.3-3.1,0.7s-1.9,1.1-2.7,1.9c-0.8,0.8-1.3,1.8-1.8,2.9
	c-0.4,1.1-0.6,2.3-0.6,3.4v12.3c0,2.3,0.8,4.7,2.3,6.3c1.5,1.7,3.6,2.6,5.8,2.7h126.6c2.2,0,4.3-0.9,5.8-2.6
	c1.5-1.7,2.4-3.9,2.4-6.3v-12.3c0-2.3-0.9-4.6-2.4-6.3C231.1,265.6,229,264.7,226.8,264.7z"/>
<path class="st41" d="M115,279.8c0-1.3-0.3-2.5-1-3.6c-0.7-1.1-1.6-1.8-2.6-2.3c-1.1-0.5-2.3-0.6-3.3-0.3c-1.2,0.3-2.2,0.8-3,1.8
	c-0.8,0.9-1.3,2-1.6,3.3c-0.3,1.3-0.1,2.5,0.3,3.7c0.4,1.2,1.2,2.2,2.2,2.8c0.9,0.7,2.1,1.1,3.3,1.1c0.8,0,1.5-0.2,2.3-0.5
	c0.7-0.3,1.3-0.8,1.9-1.3c0.5-0.6,1-1.3,1.3-2.1C114.8,281.5,115,280.7,115,279.8z"/>
<path class="st26" d="M125,279.8c0-0.8-0.3-1.6-0.8-2.3c-0.5-0.6-1.3-0.9-2-0.9h-0.1c-0.8,0-1.5,0.3-2.1,0.9s-0.9,1.3-0.9,2.3
	c0,0.4,0.1,0.8,0.3,1.2c0.2,0.4,0.3,0.8,0.7,1c0.3,0.3,0.6,0.5,0.9,0.7c0.3,0.2,0.8,0.3,1.1,0.3h0.1c0.8,0,1.4-0.3,1.9-0.8
	s0.8-1.3,0.9-2.1V279.8z"/>
<path class="st41" d="M215.7,279.8c0,1.3,0.3,2.5,1,3.6s1.6,1.8,2.6,2.3c1.1,0.5,2.3,0.6,3.3,0.3c1.2-0.3,2.2-0.8,3-1.8
	c0.8-0.9,1.3-2,1.6-3.3c0.3-1.3,0.1-2.5-0.3-3.7c-0.4-1.2-1.2-2.2-2.2-2.8c-0.9-0.7-2.1-1.1-3.3-1.1c-1.5,0-3,0.7-4.1,1.9
	C216.3,276.5,215.7,278.1,215.7,279.8z"/>
<path class="st26" d="M205.7,279.8c0,0.6,0.2,1.3,0.5,1.8s0.8,0.9,1.3,1.2c0.5,0.3,1.1,0.3,1.7,0.2c0.6-0.1,1.1-0.4,1.5-0.8
	c0.4-0.4,0.7-1,0.8-1.6s0.1-1.3-0.2-1.8c-0.3-0.6-0.6-1.1-1.1-1.4c-0.5-0.3-1-0.5-1.6-0.5c-0.8,0-1.4,0.3-2,0.8
	c-0.5,0.6-0.8,1.3-0.8,2.1H205.7z"/>
<path class="st42" d="M227,79H99v9h128V79z"/>
<path class="st43" d="M2.8,264.7h97.5v-186H32.2C8.5,120.1-3.9,180.3,2.8,264.7z"/>
<path class="st44" d="M2.8,264.7h97.5v-37.5L1,230.3C1.3,241.3,1.9,252.8,2.8,264.7z"/>
<path class="st27" d="M5.9,294.8H58c0-11.6-4.3-22.8-11.7-31c-7.5-8.3-17.6-12.9-28.2-12.9H18c-5.3,0-10.4,1.2-15.3,3.3
	c-0.2,0.1-0.3,0.2-0.6,0.3C2.9,267.4,4.1,280.8,5.9,294.8z"/>
<path class="st27" d="M34.6,329.3c4.9-2.1,9.4-5.5,12.9-9.8c5.8-7.1,8.8-16.3,8.6-25.8c-0.3-9.5-3.8-18.5-9.9-25.2
	s-14.4-10.5-23-10.8v-0.1h-9.3v56C18.7,318.6,25.7,323.9,34.6,329.3z"/>
<path class="st45" d="M6.5,302c-1.4-10.9-2.7-24.9-3.5-35.1c-0.2-2-0.3-3.9-0.5-5.9c0.2-0.1,0.4-0.2,0.6-0.3
	c0.2-0.1,0.4-0.2,0.6-0.3c6.2-2.8,12.9-3.5,19.4-2.1c6.5,1.4,12.5,4.9,17.3,10.1c4.7,5.2,7.9,11.8,9.2,18.9
	c1.3,7.2,0.7,14.6-1.9,21.4c-2.6,6.8-6.8,12.5-12.4,16.6c-1.1,0.8-2.3,1.6-3.4,2.2C17.4,318.5,8.6,309.7,6.5,302z"/>
<path class="st44" d="M6.2,301.8c-0.6-5-1.4-13.2-1.9-18.1c0-0.5-0.1-1-0.1-1.5c3-3.6,7.3-5.8,12.1-5.8c9.1,0,16.5,8.1,16.5,18.1
	s-7.4,18.1-16.5,18.1c-1.3,0-2.6-0.2-3.9-0.5C9.2,308.5,7.1,305.1,6.2,301.8z"/>
<path class="st46" d="M1.1,230.3l99.3-3.1v-18.9l-99.3,4.9C1,218.7,1,224.5,1.1,230.3z"/>
</svg>
