<svg version="1.1" xmlns="http://www.w3.org/2000/svg" xmlns:xlink="http://www.w3.org/1999/xlink" width="630" height="390" viewBox="0 0 630 390">
<style type="text/css">
	.st0{fill:#EAF1FC;}
	.st1{fill:#F8F8FF;}
	.st2{fill:#CDE4F7;}
	.st3{fill:#E9EDF4;}
	.st4{fill:#FFFFFF;}
	.st5{fill:#ECF7FE;}
	.st6{fill:#F8C47A;}
	.st7{fill:#E19A54;}
	.st8{fill:#FFDF9A;}
	.st9{fill:#EAB973;}
	.st10{fill:#D3914F;}
	.st11{fill:#F1D392;}
	.st12{fill:#E4E6E6;}
	.st13{fill:#C08448;}
	.st14{fill:#D38137;}
	.st15{fill:#E5B571;}
	.st16{fill:#CE8D4D;}
	.st17{fill:#ECCF8F;}
	.st18{fill:#C07632;}
	.st19{fill:#E08F73;}
	.st20{fill:#F09976;}
	.st21{fill:#E8815F;}
	.st22{fill:#0B2B46;}
	.st23{fill:#047487;}
	.st24{fill:#05616B;}
	.st25{fill:#02819F;}
	.st26{fill:#0F222C;}
	.st27{fill:#2C6292;}
	.st28{fill:#1A568C;}
	.st29{fill:#114574;}
	.st30{fill:#164F83;}
	.st31{fill:#0C3860;}
	.st32{fill:#11426D;}
	.st33{fill:#25649D;}
	.st34{fill:#3873A9;}
	.st35{fill:#164C7C;}
	.st36{fill:#3679B6;}
	.st37{fill:#2A6EAC;}
	.st38{fill:#23619A;}
	.st39{fill:#1D4259;}
	.st40{fill:#448DCE;}
	.st41{fill:#3270A7;}
	.st42{fill:#222846;}
	.st43{fill:#FFDA35;}
	.st44{fill:#FF524F;}
	.st45{fill:#F2F2F2;}
	.st46{fill:#F19100;}
</style>
<path class="st0" d="M314.7,384.7c173.8,0,314.7-26.5,314.7-59.2s-140.9-59.2-314.7-59.2C140.9,266.3,0,292.8,0,325.5
	S140.9,384.7,314.7,384.7z"/>
<path class="st1" d="M596.2,307.9c28.6-74.6,47.2-224.7-39.3-272c-56.6-31-115.6,8.9-176.1,10.7c-47.5,1.4-93.3-32.2-136.2-41.9
	C132.2-20.5-44.6,52.6,33.1,307.9C227.4,307.4,401.8,308.4,596.2,307.9L596.2,307.9z"/>
<path class="st2" d="M270.5,131.9H167.9v182.5h102.6V131.9z"/>
<path class="st3" d="M270.5,131.9h-32v182.5h32V131.9z"/>
<path class="st4" d="M179.3,140.6h-4.7v5.2h4.7V140.6z M187.8,140.6h-4.7v5.2h4.7V140.6z M196.5,140.6h-4.7v5.2h4.7V140.6z
	 M205.1,140.6h-4.7v5.2h4.7V140.6z M213.7,140.6H209v5.2h4.7V140.6z M222.3,140.6h-4.7v5.2h4.7V140.6z M230.9,140.6h-4.7v5.2h4.7
	V140.6z M246.7,140.6H242v5.2h4.7V140.6z M255.4,140.6h-4.7v5.2h4.7V140.6z M263.9,140.6h-4.7v5.2h4.7V140.6z M179.3,151.7h-4.7v5.2
	h4.7V151.7z M187.8,151.7h-4.7v5.2h4.7V151.7z M196.5,151.7h-4.7v5.2h4.7V151.7z M205.1,151.7h-4.7v5.2h4.7V151.7z M213.7,151.7H209
	v5.2h4.7V151.7z M222.3,151.7h-4.7v5.2h4.7V151.7z M230.9,151.7h-4.7v5.2h4.7V151.7z M246.7,151.7H242v5.2h4.7V151.7z M255.4,151.7
	h-4.7v5.2h4.7V151.7z M263.9,151.7h-4.7v5.2h4.7V151.7z M179.3,162.6h-4.7v5.2h4.7V162.6z M187.8,162.6h-4.7v5.2h4.7V162.6z
	 M196.5,162.6h-4.7v5.2h4.7V162.6z M205.1,162.6h-4.7v5.2h4.7V162.6z M213.7,162.6H209v5.2h4.7V162.6z M222.3,162.6h-4.7v5.2h4.7
	V162.6z M230.9,162.6h-4.7v5.2h4.7V162.6z M246.7,162.6H242v5.2h4.7V162.6z M255.4,162.6h-4.7v5.2h4.7V162.6z M263.9,162.6h-4.7v5.2
	h4.7V162.6z M179.3,173.6h-4.7v5.2h4.7V173.6z M187.8,173.6h-4.7v5.2h4.7V173.6z M196.5,173.6h-4.7v5.2h4.7V173.6z M205.1,173.6
	h-4.7v5.2h4.7V173.6z M213.7,173.6H209v5.2h4.7V173.6z M222.3,173.6h-4.7v5.2h4.7V173.6z M230.9,173.6h-4.7v5.2h4.7V173.6z
	 M246.7,173.6H242v5.2h4.7V173.6z M255.4,173.6h-4.7v5.2h4.7V173.6z M263.9,173.6h-4.7v5.2h4.7V173.6z M179.3,184.7h-4.7v5.2h4.7
	V184.7z M187.8,184.7h-4.7v5.2h4.7V184.7z M196.5,184.7h-4.7v5.2h4.7V184.7z M205.1,184.7h-4.7v5.2h4.7V184.7z M213.7,184.7H209v5.2
	h4.7V184.7z M222.3,184.7h-4.7v5.2h4.7V184.7z M230.9,184.7h-4.7v5.2h4.7V184.7z M246.7,184.7H242v5.2h4.7V184.7z M255.4,184.7h-4.7
	v5.2h4.7V184.7z M263.9,184.7h-4.7v5.2h4.7V184.7z M179.3,195.7h-4.7v5.2h4.7V195.7z M187.8,195.7h-4.7v5.2h4.7V195.7z M196.5,195.7
	h-4.7v5.2h4.7V195.7z M205.1,195.7h-4.7v5.2h4.7V195.7z M213.7,195.7H209v5.2h4.7V195.7z M222.3,195.7h-4.7v5.2h4.7V195.7z
	 M230.9,195.7h-4.7v5.2h4.7V195.7z M246.7,195.7H242v5.2h4.7V195.7z M255.4,195.7h-4.7v5.2h4.7V195.7z M263.9,195.7h-4.7v5.2h4.7
	V195.7z M179.3,206.6h-4.7v5.2h4.7V206.6z M187.8,206.6h-4.7v5.2h4.7V206.6z M196.5,206.6h-4.7v5.2h4.7V206.6z M205.1,206.6h-4.7
	v5.2h4.7V206.6z M213.7,206.6H209v5.2h4.7V206.6z M222.3,206.6h-4.7v5.2h4.7V206.6z M230.9,206.6h-4.7v5.2h4.7V206.6z M246.7,206.6
	H242v5.2h4.7V206.6z M255.4,206.6h-4.7v5.2h4.7V206.6z M263.9,206.6h-4.7v5.2h4.7V206.6z M179.3,217.7h-4.7v5.2h4.7V217.7z
	 M187.8,217.7h-4.7v5.2h4.7V217.7z M196.5,217.7h-4.7v5.2h4.7V217.7z M205.1,217.7h-4.7v5.2h4.7V217.7z M213.7,217.7H209v5.2h4.7
	V217.7z M222.3,217.7h-4.7v5.2h4.7V217.7z M230.9,217.7h-4.7v5.2h4.7V217.7z M246.7,217.7H242v5.2h4.7V217.7z M255.4,217.7h-4.7v5.2
	h4.7V217.7z M263.9,217.7h-4.7v5.2h4.7V217.7z M179.3,228.7h-4.7v5.2h4.7V228.7z M187.8,228.7h-4.7v5.2h4.7V228.7z M196.5,228.7
	h-4.7v5.2h4.7V228.7z M205.1,228.7h-4.7v5.2h4.7V228.7z M213.7,228.7H209v5.2h4.7V228.7z M222.3,228.7h-4.7v5.2h4.7V228.7z
	 M230.9,228.7h-4.7v5.2h4.7V228.7z M246.7,228.7H242v5.2h4.7V228.7z M255.4,228.7h-4.7v5.2h4.7V228.7z M263.9,228.7h-4.7v5.2h4.7
	V228.7z M179.3,239.6h-4.7v5.2h4.7V239.6z M187.8,239.6h-4.7v5.2h4.7V239.6z M196.5,239.6h-4.7v5.2h4.7V239.6z M205.1,239.6h-4.7
	v5.2h4.7V239.6z M213.7,239.6H209v5.2h4.7V239.6z M222.3,239.6h-4.7v5.2h4.7V239.6z M230.9,239.6h-4.7v5.2h4.7V239.6z M246.7,239.6
	H242v5.2h4.7V239.6z M255.4,239.6h-4.7v5.2h4.7V239.6z M263.9,239.6h-4.7v5.2h4.7V239.6z M179.3,250.7h-4.7v5.2h4.7V250.7z
	 M187.8,250.7h-4.7v5.2h4.7V250.7z M196.5,250.7h-4.7v5.2h4.7V250.7z M205.1,250.7h-4.7v5.2h4.7V250.7z M213.7,250.7H209v5.2h4.7
	V250.7z M222.3,250.7h-4.7v5.2h4.7V250.7z M230.9,250.7h-4.7v5.2h4.7V250.7z M246.7,250.7H242v5.2h4.7V250.7z M255.4,250.7h-4.7v5.2
	h4.7V250.7z M263.9,250.7h-4.7v5.2h4.7V250.7z M179.3,261.7h-4.7v5.2h4.7V261.7z M187.8,261.7h-4.7v5.2h4.7V261.7z M196.5,261.7
	h-4.7v5.2h4.7V261.7z M205.1,261.7h-4.7v5.2h4.7V261.7z M213.7,261.7H209v5.2h4.7V261.7z M222.3,261.7h-4.7v5.2h4.7V261.7z
	 M230.9,261.7h-4.7v5.2h4.7V261.7z M246.7,261.7H242v5.2h4.7V261.7z M255.4,261.7h-4.7v5.2h4.7V261.7z M263.9,261.7h-4.7v5.2h4.7
	V261.7z M179.3,272.7h-4.7v5.2h4.7V272.7z M187.8,272.7h-4.7v5.2h4.7V272.7z M196.5,272.7h-4.7v5.2h4.7V272.7z M205.1,272.7h-4.7
	v5.2h4.7V272.7z M213.7,272.7H209v5.2h4.7V272.7z M222.3,272.7h-4.7v5.2h4.7V272.7z M230.9,272.7h-4.7v5.2h4.7V272.7z M246.7,272.7
	H242v5.2h4.7V272.7z M255.4,272.7h-4.7v5.2h4.7V272.7z M263.9,272.7h-4.7v5.2h4.7V272.7z M263.9,283.7h-4.7v5.2h4.7V283.7z
	 M263.9,294.7h-4.7v5.2h4.7V294.7z"/>
<path class="st2" d="M351.3,163.3h-95.2v151.1h95.2V163.3z"/>
<path class="st3" d="M351.3,163.3h-29.7v151.1h29.7V163.3z"/>
<path class="st4" d="M266.6,171h-4.4v22.6h4.4V171z M274.6,171h-4.4v22.6h4.4V171z M282.6,171h-4.4v22.6h4.4V171z M290.6,171h-4.4
	v22.6h4.4V171z M298.6,171h-4.4v22.6h4.4V171z M306.6,171h-4.4v22.6h4.4V171z M314.6,171h-4.4v22.6h4.4V171z M329.3,171h-4.4v22.6
	h4.4V171z M337.2,171h-4.4v22.6h4.4V171z M345.2,171h-4.4v22.6h4.4V171z M266.6,196.4h-4.4V219h4.4V196.4z M274.6,196.4h-4.4V219
	h4.4V196.4z M282.6,196.4h-4.4V219h4.4V196.4z M290.6,196.4h-4.4V219h4.4V196.4z M298.6,196.4h-4.4V219h4.4V196.4z M306.6,196.4
	h-4.4V219h4.4V196.4z M314.6,196.4h-4.4V219h4.4V196.4z M329.3,196.4h-4.4V219h4.4V196.4z M337.2,196.4h-4.4V219h4.4V196.4z
	 M345.2,196.4h-4.4V219h4.4V196.4z M266.6,221.9h-4.4v22.6h4.4V221.9z M274.6,221.9h-4.4v22.6h4.4V221.9z M282.6,221.9h-4.4v22.6
	h4.4V221.9z M290.6,221.9h-4.4v22.6h4.4V221.9z M298.6,221.9h-4.4v22.6h4.4V221.9z M306.6,221.9h-4.4v22.6h4.4V221.9z M314.6,221.9
	h-4.4v22.6h4.4V221.9z M329.3,221.9h-4.4v22.6h4.4V221.9z M337.2,221.9h-4.4v22.6h4.4V221.9z M345.2,221.9h-4.4v22.6h4.4V221.9z
	 M266.6,247.5h-4.4V270h4.4V247.5z M274.6,247.5h-4.4V270h4.4V247.5z M282.6,247.5h-4.4V270h4.4V247.5z M290.6,247.5h-4.4V270h4.4
	V247.5z M298.6,247.5h-4.4V270h4.4V247.5z M306.6,247.5h-4.4V270h4.4V247.5z M314.6,247.5h-4.4V270h4.4V247.5z M329.3,247.5h-4.4
	V270h4.4V247.5z M337.2,247.5h-4.4V270h4.4V247.5z M345.2,247.5h-4.4V270h4.4V247.5z M266.6,273h-4.4v22.6h4.4V273z M274.6,273h-4.4
	v22.6h4.4V273z M282.6,273h-4.4v22.6h4.4V273z M290.6,273h-4.4v22.6h4.4V273z M298.6,273h-4.4v22.6h4.4V273z M306.6,273h-4.4v22.6
	h4.4V273z M314.6,273h-4.4v22.6h4.4V273z M329.3,273h-4.4v22.6h4.4V273z M337.2,273h-4.4v22.6h4.4V273z M345.2,273h-4.4v22.6h4.4
	V273z"/>
<path class="st2" d="M573.9,110.2h-95.2v204.2h95.2V110.2z"/>
<path class="st3" d="M573.9,110.2h-29.7v204.2h29.7V110.2z"/>
<path class="st4" d="M513.2,119.9h-4.4v22.6h4.4V119.9z M521.2,119.9h-4.4v22.6h4.4V119.9z M529.1,119.9h-4.4v22.6h4.4V119.9z
	 M537.2,119.9h-4.4v22.6h4.4V119.9z M551.8,119.9h-4.4v22.6h4.4V119.9z M559.8,119.9h-4.4v22.6h4.4V119.9z M567.8,119.9h-4.4v22.6
	h4.4V119.9z M513.2,145.4h-4.4V168h4.4V145.4z M521.2,145.4h-4.4V168h4.4V145.4z M529.1,145.4h-4.4V168h4.4V145.4z M537.2,145.4
	h-4.4V168h4.4V145.4z M551.8,145.4h-4.4V168h4.4V145.4z M559.8,145.4h-4.4V168h4.4V145.4z M567.8,145.4h-4.4V168h4.4V145.4z
	 M513.2,171h-4.4v22.6h4.4V171z M521.2,171h-4.4v22.6h4.4V171z M529.1,171h-4.4v22.6h4.4V171z M537.2,171h-4.4v22.6h4.4V171z
	 M551.8,171h-4.4v22.6h4.4V171z M559.8,171h-4.4v22.6h4.4V171z M567.8,171h-4.4v22.6h4.4V171z M513.2,196.4h-4.4V219h4.4V196.4z
	 M521.2,196.4h-4.4V219h4.4V196.4z M529.1,196.4h-4.4V219h4.4V196.4z M537.2,196.4h-4.4V219h4.4V196.4z M551.8,196.4h-4.4V219h4.4
	V196.4z M559.8,196.4h-4.4V219h4.4V196.4z M567.8,196.4h-4.4V219h4.4V196.4z M521.2,221.9h-4.4v22.6h4.4V221.9z M529.1,221.9h-4.4
	v22.6h4.4V221.9z M537.2,221.9h-4.4v22.6h4.4V221.9z M551.8,221.9h-4.4v22.6h4.4V221.9z M559.8,221.9h-4.4v22.6h4.4V221.9z
	 M567.8,221.9h-4.4v22.6h4.4V221.9z M529.1,247.5h-4.4V270h4.4V247.5z M537.2,247.5h-4.4V270h4.4V247.5z M551.8,247.5h-4.4V270h4.4
	V247.5z M559.8,247.5h-4.4V270h4.4V247.5z M567.8,247.5h-4.4V270h4.4V247.5z M529.1,273h-4.4v22.6h4.4V273z M537.2,273h-4.4v22.6
	h4.4V273z M551.8,273h-4.4v22.6h4.4V273z M559.8,273h-4.4v22.6h4.4V273z M567.8,273h-4.4v22.6h4.4V273z"/>
<path class="st2" d="M398.5,127.2h-66.1v187.3h66.1V127.2z"/>
<path class="st5" d="M398.5,127.2H378v187.3h20.5V127.2z"/>
<path class="st4" d="M398.5,137.4h-66.1v1.6h66.1V137.4z M398.5,149.7h-66.1v1.6h66.1V149.7z M398.5,162.1h-66.1v1.6h66.1V162.1z
	 M398.5,174.4h-66.1v1.6h66.1V174.4z M398.5,186.8h-66.1v1.6h66.1V186.8z M398.5,199.2h-66.1v1.6h66.1V199.2z M398.5,211.6h-66.1
	v1.6h66.1V211.6z M398.5,223.9h-66.1v1.6h66.1V223.9z M398.5,236.3h-66.1v1.6h66.1V236.3z M398.5,248.6h-66.1v1.6h66.1V248.6z
	 M398.5,261h-66.1v1.6h66.1V261z M398.5,273.4h-66.1v1.6h66.1V273.4z M398.5,285.8h-66.1v1.6h66.1V285.8z M398.5,298.1h-66.1v1.6
	h66.1V298.1z"/>
<path class="st2" d="M168.8,164.4H65.1v150.1h103.7V164.4z"/>
<path class="st3" d="M168.8,164.4h-32.3v150.1h32.3V164.4z"/>
<path class="st4" d="M168.8,172.6H65.1v1.2h103.7V172.6z M168.8,182.5H65.1v1.2h103.7V182.5z M168.8,192.4H65.1v1.2h103.7V192.4z
	 M168.8,202.3H65.1v1.2h103.7V202.3z M168.8,212.2H65.1v1.2h103.7V212.2z M168.8,222.2H65.1v1.2h103.7V222.2z M168.8,232H65.1v1.2
	h103.7V232z M168.8,242H65.1v1.2h103.7V242z M168.8,251.8H65.1v1.2h103.7V251.8z M168.8,261.8H65.1v1.2h103.7V261.8z M168.8,271.6
	H65.1v1.2h103.7V271.6z M168.8,281.6H65.1v1.2h103.7V281.6z M168.8,291.4H65.1v1.2h103.7V291.4z M168.8,301.4H65.1v1.2h103.7V301.4z
	"/>
<path class="st2" d="M506.2,54.8H385.2v259.7h121.1V54.8z"/>
<path class="st5" d="M506.2,54.8h-37.7v259.7h37.7V54.8z"/>
<path class="st4" d="M398.5,67.1h-5.6v7.5h5.6V67.1z M408.7,67.1h-5.6v7.5h5.6V67.1z M418.9,67.1h-5.6v7.5h5.6V67.1z M429,67.1h-5.6
	v7.5h5.6V67.1z M439.2,67.1h-5.6v7.5h5.6V67.1z M449.4,67.1h-5.6v7.5h5.6V67.1z M459.5,67.1h-5.6v7.5h5.6V67.1z M478.2,67.1h-5.6
	v7.5h5.6V67.1z M488.3,67.1h-5.6v7.5h5.6V67.1z M498.5,67.1h-5.6v7.5h5.6V67.1z M398.5,82.8h-5.6v7.5h5.6V82.8z M408.7,82.8h-5.6
	v7.5h5.6V82.8z M418.9,82.8h-5.6v7.5h5.6V82.8z M429,82.8h-5.6v7.5h5.6V82.8z M439.2,82.8h-5.6v7.5h5.6V82.8z M449.4,82.8h-5.6v7.5
	h5.6V82.8z M459.5,82.8h-5.6v7.5h5.6V82.8z M478.2,82.8h-5.6v7.5h5.6V82.8z M488.3,82.8h-5.6v7.5h5.6V82.8z M498.5,82.8h-5.6v7.5
	h5.6V82.8z M398.5,98.4h-5.6v7.5h5.6V98.4z M408.7,98.4h-5.6v7.5h5.6V98.4z M418.9,98.4h-5.6v7.5h5.6V98.4z M429,98.4h-5.6v7.5h5.6
	V98.4z M439.2,98.4h-5.6v7.5h5.6V98.4z M449.4,98.4h-5.6v7.5h5.6V98.4z M459.5,98.4h-5.6v7.5h5.6V98.4z M478.2,98.4h-5.6v7.5h5.6
	V98.4z M488.3,98.4h-5.6v7.5h5.6V98.4z M498.5,98.4h-5.6v7.5h5.6V98.4z M398.5,114.1h-5.6v7.5h5.6V114.1z M408.7,114.1h-5.6v7.5h5.6
	V114.1z M418.9,114.1h-5.6v7.5h5.6V114.1z M429,114.1h-5.6v7.5h5.6V114.1z M439.2,114.1h-5.6v7.5h5.6V114.1z M449.4,114.1h-5.6v7.5
	h5.6V114.1z M459.5,114.1h-5.6v7.5h5.6V114.1z M478.2,114.1h-5.6v7.5h5.6V114.1z M488.3,114.1h-5.6v7.5h5.6V114.1z M498.5,114.1
	h-5.6v7.5h5.6V114.1z M398.5,129.8h-5.6v7.5h5.6V129.8z M408.7,129.8h-5.6v7.5h5.6V129.8z M418.9,129.8h-5.6v7.5h5.6V129.8z
	 M429,129.8h-5.6v7.5h5.6V129.8z M439.2,129.8h-5.6v7.5h5.6V129.8z M449.4,129.8h-5.6v7.5h5.6V129.8z M459.5,129.8h-5.6v7.5h5.6
	V129.8z M478.2,129.8h-5.6v7.5h5.6V129.8z M488.3,129.8h-5.6v7.5h5.6V129.8z M498.5,129.8h-5.6v7.5h5.6V129.8z M398.5,145.4h-5.6
	v7.5h5.6V145.4z M408.7,145.4h-5.6v7.5h5.6V145.4z M418.9,145.4h-5.6v7.5h5.6V145.4z M429,145.4h-5.6v7.5h5.6V145.4z M439.2,145.4
	h-5.6v7.5h5.6V145.4z M449.4,145.4h-5.6v7.5h5.6V145.4z M459.5,145.4h-5.6v7.5h5.6V145.4z M478.2,145.4h-5.6v7.5h5.6V145.4z
	 M488.3,145.4h-5.6v7.5h5.6V145.4z M498.5,145.4h-5.6v7.5h5.6V145.4z M398.5,161h-5.6v7.5h5.6V161z M408.7,161h-5.6v7.5h5.6V161z
	 M418.9,161h-5.6v7.5h5.6V161z M429,161h-5.6v7.5h5.6V161z M439.2,161h-5.6v7.5h5.6V161z M449.4,161h-5.6v7.5h5.6V161z M459.5,161
	h-5.6v7.5h5.6V161z M478.2,161h-5.6v7.5h5.6V161z M488.3,161h-5.6v7.5h5.6V161z M498.5,161h-5.6v7.5h5.6V161z M398.5,176.7h-5.6v7.5
	h5.6V176.7z M408.7,176.7h-5.6v7.5h5.6V176.7z M418.9,176.7h-5.6v7.5h5.6V176.7z M429,176.7h-5.6v7.5h5.6V176.7z M439.2,176.7h-5.6
	v7.5h5.6V176.7z M449.4,176.7h-5.6v7.5h5.6V176.7z M459.5,176.7h-5.6v7.5h5.6V176.7z M478.2,176.7h-5.6v7.5h5.6V176.7z M488.3,176.7
	h-5.6v7.5h5.6V176.7z M498.5,176.7h-5.6v7.5h5.6V176.7z M398.5,192.4h-5.6v7.5h5.6V192.4z M408.7,192.4h-5.6v7.5h5.6V192.4z
	 M418.9,192.4h-5.6v7.5h5.6V192.4z M429,192.4h-5.6v7.5h5.6V192.4z M439.2,192.4h-5.6v7.5h5.6V192.4z M449.4,192.4h-5.6v7.5h5.6
	V192.4z M459.5,192.4h-5.6v7.5h5.6V192.4z M478.2,192.4h-5.6v7.5h5.6V192.4z M488.3,192.4h-5.6v7.5h5.6V192.4z M498.5,192.4h-5.6
	v7.5h5.6V192.4z M398.5,208h-5.6v7.5h5.6V208z M408.7,208h-5.6v7.5h5.6V208z M418.9,208h-5.6v7.5h5.6V208z M429,208h-5.6v7.5h5.6
	V208z M439.2,208h-5.6v7.5h5.6V208z M449.4,208h-5.6v7.5h5.6V208z M459.5,208h-5.6v7.5h5.6V208z M478.2,208h-5.6v7.5h5.6V208z
	 M488.3,208h-5.6v7.5h5.6V208z M498.5,208h-5.6v7.5h5.6V208z M398.5,223.7h-5.6v7.5h5.6V223.7z M408.7,223.7h-5.6v7.5h5.6V223.7z
	 M418.9,223.7h-5.6v7.5h5.6V223.7z M429,223.7h-5.6v7.5h5.6V223.7z M439.2,223.7h-5.6v7.5h5.6V223.7z M449.4,223.7h-5.6v7.5h5.6
	V223.7z M459.5,223.7h-5.6v7.5h5.6V223.7z M478.2,223.7h-5.6v7.5h5.6V223.7z M488.3,223.7h-5.6v7.5h5.6V223.7z M498.5,223.7h-5.6
	v7.5h5.6V223.7z M398.5,239.4h-5.6v7.5h5.6V239.4z M408.7,239.4h-5.6v7.5h5.6V239.4z M418.9,239.4h-5.6v7.5h5.6V239.4z M429,239.4
	h-5.6v7.5h5.6V239.4z M439.2,239.4h-5.6v7.5h5.6V239.4z M449.4,239.4h-5.6v7.5h5.6V239.4z M459.5,239.4h-5.6v7.5h5.6V239.4z
	 M478.2,239.4h-5.6v7.5h5.6V239.4z M488.3,239.4h-5.6v7.5h5.6V239.4z M498.5,239.4h-5.6v7.5h5.6V239.4z M398.5,255h-5.6v7.5h5.6V255
	z M408.7,255h-5.6v7.5h5.6V255z M418.9,255h-5.6v7.5h5.6V255z M429,255h-5.6v7.5h5.6V255z M439.2,255h-5.6v7.5h5.6V255z M449.4,255
	h-5.6v7.5h5.6V255z M459.5,255h-5.6v7.5h5.6V255z M478.2,255h-5.6v7.5h5.6V255z M488.3,255h-5.6v7.5h5.6V255z M498.5,255h-5.6v7.5
	h5.6V255z M398.5,270.7h-5.6v7.5h5.6V270.7z M408.7,270.7h-5.6v7.5h5.6V270.7z M418.9,270.7h-5.6v7.5h5.6V270.7z M429,270.7h-5.6
	v7.5h5.6V270.7z M439.2,270.7h-5.6v7.5h5.6V270.7z M449.4,270.7h-5.6v7.5h5.6V270.7z M459.5,270.7h-5.6v7.5h5.6V270.7z M478.2,270.7
	h-5.6v7.5h5.6V270.7z M488.3,270.7h-5.6v7.5h5.6V270.7z M498.5,270.7h-5.6v7.5h5.6V270.7z"/>
<path class="st5" d="M402.2,54.8h87.1v-11c0-4.6-3.5-8.3-8-8.3h-71.1c-4.4,0-8,3.7-8,8.3L402.2,54.8z"/>
<path class="st2" d="M559,325h12c0-1.1-1-2-2.2-2h-7.6C560,323,559,323.9,559,325z"/>
<path class="st2" d="M563.1,308h3.6c0.4,0,0.7,0.3,0.7,0.7L568,323h-6l0.3-14.3C562.3,308.3,562.7,307.9,563.1,308z"/>
<path class="st2" d="M563.5,308h3.1c0.8,0,1.5-0.5,1.5-1.3v-2.4c0-0.7-0.6-1.3-1.5-1.3h-3.1c-0.8,0-1.5,0.5-1.5,1.3v2.4
	C562,307.5,562.6,308,563.5,308z"/>
<path class="st2" d="M566,260h-2v43h2V260z"/>
<path class="st2" d="M561.9,261h6.3c0.5,0,0.9-0.5,0.9-1s-0.4-1-0.9-1h-6.3c-0.5,0-0.9,0.5-0.9,1S561.3,261,561.9,261z"/>
<path class="st4" d="M561.1,259h6.8l1.1-10h-9L561.1,259z"/>
<path class="st2" d="M559.9,249h10.1c0.5,0,0.9-0.4,0.9-0.9c0-0.5-0.4-0.9-0.9-0.9h-10.1c-0.5,0-0.9,0.4-0.9,0.9
	C559,248.6,559.4,249,559.9,249z M564,244h2.1v-1c0-0.6-0.4-1-1-1c-0.6,0-1,0.4-1,1L564,244z"/>
<path class="st2" d="M559.3,248H570c0-2.2-1.7-4-3.9-4h-3C561.1,244,559.3,245.8,559.3,248z M43,321h12.6c0-1.3-1.1-2.4-2.3-2.4
	h-7.9C44.1,318.7,43,319.7,43,321L43,321z"/>
<path class="st2" d="M47.1,304h3.8c0.4,0,0.8,0.3,0.8,0.7l0.6,14.5h-6.4l0.3-14.5C46.3,304.3,46.7,304,47.1,304z"/>
<path class="st2" d="M47.7,304.2h2.9c0.7,0,1.3-0.6,1.3-1.4v-2.6c0-0.7-0.6-1.4-1.3-1.4h-2.9c-0.7,0-1.3,0.6-1.3,1.4v2.7
	C46.4,303.6,47,304.2,47.7,304.2z"/>
<path class="st2" d="M49.9,254.3h-1.6v44.6h1.6V254.3z"/>
<path class="st2" d="M45.7,255.4h6.8c0.6,0,1-0.4,1-1c0-0.6-0.4-1-1-1h-6.8c-0.6,0-1,0.4-1,1C44.8,254.9,45.2,255.4,45.7,255.4z"/>
<path class="st4" d="M45.8,253.4h6.7l1-10.2h-8.8L45.8,253.4z"/>
<path class="st2" d="M44.2,243.6h10c0.6,0,1-0.4,1-1s-0.4-1-1-1h-10c-0.6,0-1,0.4-1,1S43.6,243.6,44.2,243.6z M48.1,238.3h2.1v-1
	c0-0.6-0.5-1.1-1-1.1c-0.6,0-1,0.5-1,1.1V238.3z"/>
<path class="st5" d="M597.4,220.1c-3.5-0.7-5.9,3.2-6.6,6.6c-0.3,1.8-0.3,3.9-1.7,5.1c-0.6,0.4-1.2,0.8-1.9,1.1
	c-3.9,2.1-4.2,6-4.2,9.9c0.1,0.7-0.1,1.3-0.3,1.9c-0.3,0.7-1,1-1.5,1.6c-0.3,0.4-0.4,0.9-0.5,1.5c-1,4.5-0.5,8.6-0.4,13.1
	c0.2,31.8,16.7,30.3,16.7,30.3h0.6c4-0.2,7.6-2.8,10-6c2.4-3.3,3.8-7.5,4.6-11.6c0.6-3,0.9-6.1,1-9.1c0.2-3.3,0.8-6.4-0.3-9.6
	c-0.6-1.4-1.4-2.9-1.5-4.5c0-1.7,1-3.3,1-5.1c0-1-0.2-2.1-0.6-3c-0.8-2.4-1.9-4.8-3-7c-1-1.7-3.1-2.7-3.7-4.6
	c-0.1-0.8-0.2-1.6-0.1-2.5c-0.1-4.1-3.5-6.9-7-7.9L597.4,220.1L597.4,220.1z"/>
<path class="st3" d="M594.4,323.8h4l-1.3-51l-0.6-1.3L594.4,323.8z"/>
<path class="st6" d="M522.8,313.4h-29.5v29.3h29.5V313.4z"/>
<path class="st7" d="M478.6,308.5l14.7,4.9v29.3l-14.7-4.9V308.5L478.6,308.5z"/>
<path class="st8" d="M522.8,313.4l-14.7-4.9h-29.5l14.7,4.9H522.8z"/>
<path class="st7" d="M513.9,310.4l0.6,0.2l0.9,0.3l3.1,1h-29.7l-4.4-1.5H513.9z"/>
<path class="st9" d="M518,289.6h-21.9v21.7H518V289.6z"/>
<path class="st10" d="M485.2,286l10.9,3.6v21.7l-10.9-3.6V286z"/>
<path class="st11" d="M518,289.6L507,286h-21.8l10.9,3.6H518z"/>
<path class="st12" d="M504.5,291h-7.4v3.2h7.4V291z"/>
<path class="st13" d="M499.9,286l9,3.6h-3.8l-8.8-3.6H499.9z M508.9,289.6v4.2h-3.7l0-4.2H508.9z M508.9,307.3v4.2h-3.7l0-4.2H508.9
	z"/>
<path class="st6" d="M491.5,304.5h-38.4v38.2h38.4V304.5z"/>
<path class="st7" d="M433.9,298.1l19.2,6.4v38.2l-19.2-6.4V298.1L433.9,298.1z"/>
<path class="st8" d="M491.5,304.5l-19.2-6.4h-38.4l19.2,6.4H491.5L491.5,304.5z"/>
<path class="st14" d="M447.3,330v10.7l-5.8-1.9v-10.7L447.3,330z M447.3,302.5v10.7l-5.8-1.9v-10.7L447.3,302.5z"/>
<path class="st12" d="M467.8,306.9h-13v5.6h13V306.9z"/>
<path class="st15" d="M491.9,272.4h-32.9v32.8h32.9V272.4z"/>
<path class="st16" d="M442.5,266.9l16.5,5.5v32.8l-16.5-5.5V266.9z"/>
<path class="st17" d="M491.9,272.4l-16.5-5.5h-32.9l16.5,5.5H491.9L491.9,272.4z"/>
<path class="st18" d="M453.9,294.3v9.1l-4.9-1.6v-9.2L453.9,294.3z M453.9,270.7v9.1l-4.9-1.6v-9.2L453.9,270.7z"/>
<path class="st16" d="M481.9,269.1l0.7,0.2l1,0.3l3.4,1.1h-33.2l-4.9-1.6H481.9L481.9,269.1z"/>
<path class="st12" d="M471.5,274.4h-11.2v4.8h11.2V274.4z"/>
<path class="st19" d="M510.8,248.2c0.3,0,0.7,0.6,1.2,1.7c0.2,0.5,0.5,1.2,0.8,2c0.3,0.8,0.6,1.6,1.1,2.5c0.4,0.9,0.9,1.8,1.5,2.7
	c0.3,0.4,0.6,0.9,1,1.3c0.3,0.4,0.7,0.8,1.1,1.2c0.4,0.4,0.8,0.7,1.3,1c0.4,0.3,0.9,0.5,1.4,0.7c0.5,0.2,1,0.3,1.5,0.4
	c0.1,0,0.2,0.1,0.4,0.1l0.4,0c0.2,0,0.5,0,0.7,0c1.1,0,2.1-0.2,3.2-0.5c0.5-0.2,1-0.3,1.6-0.5c0.3-0.1,0.5-0.2,0.7-0.3
	c0.2-0.1,0.5-0.2,0.7-0.3c0.5-0.2,0.9-0.5,1.4-0.7c0.4-0.3,0.9-0.5,1.3-0.8c0.8-0.6,1.7-1.1,2.4-1.7c0.7-0.5,1.4-1,2.2-1.4
	c0.6-0.4,1.2-0.8,1.9-1.1c0.5-0.2,1-0.4,1.5-0.5c0.4-0.1,0.8,0,1.2,0.2c0.3,0.2,0.6,0.6,0.7,1c0.1,0.6,0.1,1.1,0,1.7
	c-0.1,0.8-0.4,1.6-0.7,2.3c-0.4,1-0.9,1.9-1.5,2.7c-0.7,1.1-1.6,2.1-2.6,3c-0.5,0.5-1.1,1-1.7,1.5c-0.7,0.5-1.4,0.9-2.1,1.3
	c-0.4,0.2-0.7,0.4-1.1,0.6c-0.4,0.2-0.8,0.4-1.2,0.5c-0.9,0.3-1.7,0.6-2.6,0.8c-2,0.4-4,0.5-6,0.2c-0.5-0.1-1.1-0.2-1.6-0.4
	l-0.7-0.2c-0.3-0.1-0.5-0.2-0.7-0.3c-0.9-0.4-1.8-0.9-2.7-1.5c-0.8-0.6-1.5-1.2-2.2-1.9c-0.6-0.6-1.1-1.3-1.6-2.1
	c-0.4-0.7-0.8-1.4-1.2-2.2c-0.3-0.7-0.5-1.4-0.7-2.1c-0.3-1.2-0.6-2.5-0.7-3.7c-0.1-1-0.1-2-0.1-3c0-0.7,0.1-1.5,0.2-2.2
	C510.2,249,510.5,248.3,510.8,248.2L510.8,248.2z"/>
<path class="st4" d="M527.7,264.3c-0.4,6.2-0.4,12.3,0,18.5c5.9,1.9,12.2,2.4,18.3,1.5c0.4-6.3,0.8-12.5,0.8-18.8
	c0-3.3-0.1-6.6-1-9.8c-0.8-2.8-2.4-5.4-4.8-7.2c-0.3-0.2-0.5-0.4-0.8-0.5c-1.4,1.1-4.3,1.6-5.9,0.8c-0.9,0.6-1.6,1.3-2.3,2
	c-1.2,1.4-2.2,3.1-2.8,4.9C528.3,258.5,527.8,261.4,527.7,264.3L527.7,264.3z"/>
<path class="st20" d="M532,250.8c1.6,0.4,3.2,0.4,4.8,0c0.8-0.2,1.6-0.5,2.4-0.9c0.6-0.3,1.2-0.7,1.7-1.2l0-0.4v-0.2l-0.1-0.5
	c-0.3-1.7-0.6-3.5-0.8-5.3c-0.2-1.6-0.5-3.2-0.7-4.9c-1.8,0.9-3.6,2-5.2,3.2c0,1.1-0.1,2.2-0.2,3.3c-0.1,0.9-0.2,1.8-0.3,2.8
	c-0.1,0.5-0.2,1-0.2,1.5c-0.1,0.5-0.2,0.9-0.3,1.5C532.6,250.1,532.3,250.5,532,250.8L532,250.8z"/>
<path class="st21" d="M533.5,246.8c1.9-1.7,4.1-3.2,6.4-4.3c-0.2-1.6-0.5-3.2-0.7-4.9c-1.8,0.9-3.6,2-5.2,3.2c0,1.1-0.1,2.2-0.2,3.3
	C533.8,245,533.6,245.9,533.5,246.8z"/>
<path class="st22" d="M567.7,337.6c0,0,0,4.3-3.9,4.2l-0.7,15.5l10.8-18.4L567.7,337.6z"/>
<path class="st4" d="M565.9,348.6c0-0.1-0.1-0.2-0.1-0.2c-0.1-0.1-0.2-0.1-0.2-0.1c-0.9,0.1-1.7,0.3-2.5,0.7c-0.1,0-0.1,0.1-0.2,0.2
	c0,0.1,0,0.2,0,0.3c0,0,0,0.1,0.1,0.1c0,0,0.1,0,0.1,0.1c0.1,0,0.2,0,0.3,0c0.7-0.3,1.5-0.5,2.3-0.6c0.1,0,0.1,0,0.2-0.1
	c0.1,0,0.1-0.1,0.1-0.1S565.9,348.6,565.9,348.6L565.9,348.6z M566.1,346.6c0,0,0-0.1,0-0.1c0,0,0-0.1-0.1-0.1c0,0-0.1,0-0.1-0.1
	c0,0-0.1,0-0.1,0c-0.9,0.1-1.7,0.3-2.5,0.7c0,0-0.1,0-0.1,0.1c0,0-0.1,0.1-0.1,0.1c0,0.1,0,0.2,0,0.3c0,0,0,0.1,0.1,0.1
	c0,0,0.1,0,0.1,0.1c0,0,0.1,0,0.1,0c0,0,0.1,0,0.1,0c0.7-0.3,1.5-0.5,2.3-0.6c0.1,0,0.1,0,0.2-0.1c0.1,0,0.1-0.1,0.1-0.1
	C566,346.8,566.1,346.7,566.1,346.6L566.1,346.6z M566.2,344.7c0,0,0-0.1,0-0.1s0-0.1-0.1-0.1c-0.1,0-0.1-0.1-0.2-0.1
	c-0.9,0.1-1.7,0.3-2.5,0.7c-0.1,0-0.1,0.1-0.2,0.2c0,0.1,0,0.2,0,0.3c0,0.1,0.1,0.1,0.2,0.2c0.1,0,0.2,0,0.3,0
	c0.7-0.3,1.5-0.5,2.3-0.6c0.1,0,0.1,0,0.2-0.1c0.1,0,0.1-0.1,0.1-0.1C566.2,344.8,566.2,344.7,566.2,344.7L566.2,344.7z M565,357.7
	c0,0.1-0.1,0.1-0.1,0.2c-0.1,0-0.1,0.1-0.2,0.1c-0.1,0-0.1,0-0.2,0c-0.1,0-0.1,0-0.2-0.1l-1.1-0.7l10.8-18.4l1.1,0.7
	c0.1,0,0.1,0.1,0.2,0.1c0,0.1,0.1,0.1,0.1,0.2c0,0.1,0,0.1,0,0.2c0,0.1,0,0.1-0.1,0.2L565,357.7z"/>
<path class="st22" d="M524.8,353.4c0,0-3.9,2-5.6-1.5l-14.1,6.6l21.4,0.9L524.8,353.4z"/>
<path class="st4" d="M513.8,356.9c0.1,0,0.1,0,0.2,0c0.1,0,0.1,0,0.2,0c0,0,0.1-0.1,0.1-0.1c0,0,0-0.1,0-0.1c0,0,0-0.1,0-0.1
	c0,0,0-0.1-0.1-0.1c-0.5-0.7-1.1-1.4-1.8-1.9c-0.1-0.1-0.2-0.1-0.3-0.1c-0.1,0-0.2,0.1-0.2,0.1c0,0,0,0.1,0,0.1c0,0,0,0.1,0,0.1
	c0,0,0,0.1,0,0.1c0,0,0.1,0.1,0.1,0.1c0.6,0.5,1.2,1.1,1.6,1.7C513.7,356.8,513.7,356.9,513.8,356.9L513.8,356.9z M515.5,356.1
	c0.1,0,0.1,0,0.2,0c0.1,0,0.1,0,0.2,0c0,0,0.1-0.1,0.1-0.1c0,0,0-0.1,0-0.1c0,0,0-0.1,0-0.1c0,0,0-0.1-0.1-0.1
	c-0.5-0.7-1.1-1.4-1.8-1.9c0,0-0.1,0-0.1-0.1c0,0-0.1,0-0.1,0c0,0-0.1,0-0.1,0c0,0-0.1,0.1-0.1,0.1c0,0.1-0.1,0.2,0,0.2
	c0,0.1,0.1,0.2,0.1,0.2c0.6,0.5,1.2,1.1,1.6,1.7C515.4,356.1,515.5,356.1,515.5,356.1L515.5,356.1z M517.4,355.3c0.1,0,0.1,0,0.2,0
	c0.1,0,0.1-0.1,0.2-0.1c0-0.1,0.1-0.1,0.1-0.2c0-0.1,0-0.1,0-0.2c-0.5-0.7-1.1-1.4-1.8-1.9c-0.1-0.1-0.2-0.1-0.3-0.1
	c-0.1,0-0.2,0.1-0.2,0.1c0,0,0,0.1,0,0.1c0,0,0,0.1,0,0.1c0,0.1,0.1,0.2,0.1,0.2c0.6,0.5,1.2,1.1,1.6,1.7
	C517.3,355.3,517.3,355.3,517.4,355.3L517.4,355.3z M505.4,360.3c-0.2-0.1-0.3-0.2-0.4-0.4c0-0.1,0-0.2,0-0.3l0.1-1.2l21.4,0.9
	l-0.1,1.2c0,0.1,0,0.2-0.1,0.3c0,0.1-0.1,0.2-0.2,0.2c-0.1,0.1-0.3,0.2-0.5,0.2l-20-0.9C505.6,360.3,505.5,360.3,505.4,360.3
	L505.4,360.3z"/>
<path class="st23" d="M546.5,287.9c0,0-4.9,28.9,24.5,49.5l-7.9,8.6c0,0-33-22.5-29.6-51.5L546.5,287.9z"/>
<path class="st24" d="M547.6,304.7c-0.5,0.6-0.9,1.2-1.3,1.8c-1.1,1.6-2.1,3.4-2.9,5.2c-1.4,3-2.6,6.1-3.5,9.3
	c-4.5-7.7-7.5-16.7-6.4-26.5l12.9-6.6C546.4,287.9,545.2,295,547.6,304.7L547.6,304.7z"/>
<path class="st25" d="M527.5,259.1c-1.3,10.2-1.4,20.5-0.5,30.8c0,0-16.2,31.6-12.7,63.3l12.4,3.1c0,0,2.8-41.7,19.6-62.8l0.7-20.9
	l-13.3-2.2l-1.2-11.2L527.5,259.1z"/>
<path class="st23" d="M546.2,275c0.1,0,0.2-0.1,0.4-0.4c0.1-0.2,0.2-0.3,0.2-0.5c0.1-0.2,0.2-0.5,0.2-0.7c0-0.1,0.1-0.3,0.1-0.4
	s0.1-0.3,0.1-0.5c0-0.2,0.1-0.4,0.1-0.5c0-0.2,0.1-0.4,0.1-0.6c0-0.2,0.1-0.4,0.1-0.6l0.1-0.7c0.1-0.5,0.1-1,0.1-1.4
	c0.1-1.1,0.1-2.3,0-3.4c-0.1-1.3-0.2-2.6-0.4-3.9c-0.2-1.4-0.5-2.8-0.9-4.2c-0.4-1.6-1-3.1-1.9-4.4c-0.5-0.7-1.1-1.4-1.7-2
	c-0.7-0.6-1.4-1-2.3-1.3c-0.4-0.2-0.8-0.3-1.3-0.3h-1.3c-0.8,0.1-1.6,0.3-2.3,0.6c-0.7,0.3-1.3,0.7-1.8,1.2
	c-0.1,0.1-0.3,0.2-0.4,0.4l-0.4,0.4l-0.3,0.4c-0.1,0.1-0.2,0.3-0.3,0.4c-0.4,0.5-0.7,1.1-0.9,1.6c-0.2,0.5-0.4,1.1-0.6,1.6
	c-0.3,0.9-0.4,1.8-0.5,2.8c-0.1,0.7-0.1,1.4-0.1,2.1c0,1.2,0.1,1.8,0.2,1.8c0.1,0,0.3-0.6,0.5-1.7c0.1-0.6,0.2-1.3,0.4-2
	c0.2-0.9,0.4-1.7,0.7-2.6c0.4-1,0.9-1.9,1.5-2.7c0.1-0.1,0.2-0.2,0.3-0.3l0.3-0.3l0.3-0.3c0.1-0.1,0.2-0.2,0.3-0.3
	c0.4-0.3,0.9-0.6,1.5-0.8c0.5-0.2,1.1-0.3,1.7-0.4h0.9c0.3,0,0.6,0.1,0.8,0.2c1.2,0.5,2.1,1.4,2.8,2.5c0.7,1.2,1.2,2.5,1.6,3.9
	c0.4,1.4,0.7,2.7,0.9,4c0.2,1.3,0.4,2.5,0.5,3.7s0.2,2.2,0.2,3.2v5.5c0,0.2,0,0.4,0,0.6C546.1,274.8,546.2,275,546.2,275L546.2,275z
	"/>
<path class="st6" d="M521.7,250.3H497v24.5h24.7V250.3z"/>
<path class="st7" d="M484.7,246.2l12.3,4.1v24.5l-12.3-4.1V246.2z"/>
<path class="st8" d="M521.7,250.3l-12.3-4.1h-24.7l12.3,4.1H521.7z"/>
<path class="st12" d="M506.5,251.8h-8.4v3.6h8.4V251.8z"/>
<path class="st16" d="M507.2,270.2l0,4.7h4.2v-4.7H507.2z M507.2,250.3l0,4.8h4.2v-4.8H507.2z M501.3,246.2h-4l9.9,4.1h4.3
	L501.3,246.2L501.3,246.2z"/>
<path class="st20" d="M543.7,259.6v0.2c0,2.6-0.6,5.2-1.8,7.6c-0.4,0.9-1,1.8-1.6,2.6c-0.6,0.9-1.4,1.7-2.2,2.4
	c-1.7,1.5-3.8,2.6-6,3.1c-1,0.2-2,0.4-3.1,0.4c-1,0-1.9,0-2.9-0.2c-0.9-0.1-1.7-0.3-2.6-0.6c-1.5-0.5-2.9-1.1-4.3-1.9
	c-1.1-0.6-2.2-1.4-3.1-2.2c-0.8-0.6-1.5-1.3-2.3-2.1l-0.2-0.2c-0.4,0-0.9,0-1.3,0c-0.4-0.1-0.9-0.2-1.3-0.3
	c-0.4-0.1-0.8-0.3-1.2-0.5c-0.4-0.2-0.8-0.5-1.1-0.8c-0.7-0.6-1.2-1.3-1.6-2.1c-0.2-0.4-0.4-0.8-0.5-1.3c-0.1-0.4-0.2-0.9-0.2-1.3
	c0-0.3,0-0.6,0-0.9c0-0.2,0.1-0.4,0.1-0.5c0.1-0.2,0.2-0.3,0.3-0.4c0.8-0.7,1.7,0,2.3,0.7c0.5,0.7,0.9,1.4,1.6,1.6
	c0.2,0.1,0.5,0.1,0.7,0c0.2,0,0.4-0.1,0.6-0.3c0.1,0,0.1-0.1,0.1-0.1c0.1-0.1,0.2-0.2,0.3-0.2c0.1-0.1,0.2-0.1,0.3-0.1
	c0.1,0,0.2,0,0.3,0c0.1,0,0.2,0.1,0.3,0.2c0.1,0.1,0.1,0.1,0.2,0.2c0.2,0.3,0.3,0.6,0.4,1c0.2,0.7,0.4,1.4,0.4,2.2
	c1.1,0.4,2.4,0.9,3.9,1.4c1,0.3,2.1,0.6,3.1,0.9c1.1,0.2,2.2,0.4,3.4,0.4c0.6,0,1.1,0,1.7-0.1c0.6-0.1,1.1-0.2,1.6-0.3
	c0.5-0.1,1-0.3,1.5-0.5c0.4-0.2,0.9-0.4,1.3-0.7c0.4-0.3,0.7-0.6,1-1c0.3-0.4,0.6-0.7,0.9-1.2c0.5-0.8,1-1.7,1.3-2.7
	c0.3-0.9,0.6-1.9,0.7-2.8c0.1-0.7,0.3-1.4,0.4-2.2c1.2,0.9,2.6,1.5,4,2C540.6,259.4,542.1,259.6,543.7,259.6L543.7,259.6z"/>
<path class="st25" d="M533,225c0.2-0.7,0.5-1.3,1-1.8c0.5-0.5,1-0.9,1.7-1.2c1.3-0.5,2.7-0.6,4-0.3c0.7,0.2,1.4,0.4,2,0.8
	c0.6,0.4,1.2,0.8,1.6,1.3c0.5,0.5,0.9,1.1,1.1,1.8c0.3,0.6,0.4,1.3,0.5,2c0.1,2.2-1.2,4.3-2.4,6.1C540,230.2,536.8,227.2,533,225z"
	/>
<path class="st24" d="M531.6,222.5c-0.6-0.4-1.3-0.6-2.1-0.6c-0.2,0.1-0.5,0.2-0.7,0.3c-0.2,0.1-0.4,0.3-0.5,0.5
	c-0.1,0.2-0.3,0.4-0.3,0.7c-0.1,0.2-0.1,0.5-0.1,0.8c0.1,0.5,0.2,1,0.5,1.5c0.2,0.5,0.6,0.9,1,1.2c0.3,0.3,0.6,0.5,0.9,0.8
	c0.3,0.2,0.7,0.4,1,0.6c0.7,0.4,1.5,0.6,2.3,0.8c0.4,0.1,0.8,0.1,1.2,0.1c0.8,0,1.6,0,2.4-0.3c0.4-0.1,0.8-0.2,1.2-0.4
	c0.4-0.2,1.4-0.5,1.6-0.9c0.3-0.6-0.4-0.7-0.9-1C536.6,225.2,534.1,223.8,531.6,222.5L531.6,222.5z"/>
<path class="st22" d="M532.2,230.2c0.2,0,0.3,0,0.5,0c0.2,0,0.3,0.1,0.5,0.2c0.1,0.1,0.2,0.3,0.2,0.5c0,0.2,0,0.4,0,0.5
	c-0.2,1.3-0.7,2.6-1.5,3.7c-0.3-0.3-0.5-0.7-0.6-1c-0.3-0.8-0.5-1.6-0.4-2.4c0-0.4,0.1-0.8,0.3-1.2
	C531.5,230.6,531.8,230.3,532.2,230.2L532.2,230.2z M538.3,236.1c-0.2-1.4-0.1-2.9,0.2-4.3c0.3-1.6,0.9-3.1,1.8-4.4
	c0.7,0.6,1.3,1.3,1.7,2.1c0.4,0.9,0.6,1.9,0.7,2.9c0,0.5,0,1,0,1.5c0,0.5-0.1,1-0.2,1.5c-0.1,0.5-0.3,0.9-0.4,1.4
	c-0.2,0.5-0.4,0.9-0.7,1.3c-0.3,0.4-0.5,0.8-0.8,1.2c-0.3,0.4-0.7,0.7-1,1.1C538.9,238.9,538.5,237.5,538.3,236.1L538.3,236.1z"/>
<path class="st20" d="M532.2,229.9c0.3,1.8-0.5,3.5-1.2,5.2c-0.7,1.7-1.3,3.5-0.7,5.2c0.2,0.4,0.5,0.8,0.8,1.1
	c0.3,0.3,0.7,0.6,1.1,0.8c0.4,0.2,0.9,0.4,1.3,0.5c0.5,0.1,0.9,0.1,1.4,0c0.9-0.2,1.8-0.5,2.5-1.1c0.8-0.6,1.4-1.3,1.8-2.1
	c0.4-0.8,0.7-1.7,0.9-2.6c0.2-0.9,0.2-1.9,0.1-2.8c-0.2-1.8-0.6-3.7-1.2-5.4C536.8,227.5,534.2,228.3,532.2,229.9L532.2,229.9z"/>
<path class="st20" d="M539.8,234.6c0.2-0.2,0.5-0.5,0.7-0.6c0.1-0.1,0.3-0.1,0.5-0.2s0.3,0,0.5,0c0.2,0.1,0.4,0.2,0.5,0.4
	c0.1,0.2,0.2,0.4,0.3,0.6c0.1,0.2,0.1,0.4,0.1,0.6c0,0.2,0,0.4-0.1,0.6c-0.1,0.2-0.1,0.4-0.3,0.6c-0.1,0.2-0.3,0.3-0.4,0.5
	c-0.2,0.1-0.3,0.2-0.5,0.3s-0.4,0.1-0.6,0.1c-0.2,0-0.4,0-0.6,0c-0.2,0-0.4-0.1-0.6-0.2C539.5,236.4,539.7,235.5,539.8,234.6
	L539.8,234.6z"/>
<path class="st22" d="M530.9,231.3c2.6,0.1,5.3-0.6,7.5-1.9c-0.2,0.8-0.2,1.6,0,2.4c0.2,0.6,0.4,1.1,0.7,1.6
	c0.3,0.5,0.7,0.9,1.2,1.3c1.1-1.5,1.5-3.3,1.3-5.2c0-0.2-0.1-0.4-0.1-0.6c-0.4-0.5-0.8-1-1.2-1.4c-0.7-0.7-1.5-1.2-2.4-1.5
	c-0.6-0.2-1.2-0.4-1.8-0.5c-1.3-0.2-2.6,0-3.8,0.4c-0.6,0.2-1.2,0.5-1.7,0.8c-0.2,0.2-0.4,0.3-0.5,0.5c-0.4,0.4-0.7,1-1,1.5
	c0,0.1-0.1,0.3-0.1,0.4c0,0.1,0,0.3,0,0.4c0,0.1,0,0.3,0.1,0.4c0,0.1,0.1,0.3,0.1,0.4c0.1,0.1,0.1,0.2,0.2,0.3
	c0.1,0.1,0.2,0.2,0.3,0.3c0.1,0.1,0.2,0.2,0.3,0.2c0.1,0.1,0.2,0.1,0.4,0.2C530.5,231.3,530.7,231.3,530.9,231.3L530.9,231.3z"/>
<path class="st26" d="M137.7,318.3c0-5.7,1.7-11.3,4.9-16.1c3.2-4.8,7.7-8.5,13-10.6c5.3-2.2,11.1-2.8,16.8-1.6
	c5.6,1.1,10.8,3.9,14.9,7.9c4.1,4,6.8,9.2,7.9,14.8c1.1,5.6,0.5,11.4-1.7,16.7c-2.2,5.3-5.9,9.8-10.7,13c-4.8,3.2-10.4,4.9-16.1,4.9
	c-7.7,0-15.1-3.1-20.5-8.5C140.8,333.3,137.8,326,137.7,318.3L137.7,318.3z M296.9,318.7c0-5.7,1.7-11.2,4.9-15.9
	c3.2-4.7,7.7-8.4,12.9-10.5c5.3-2.2,11-2.7,16.6-1.6c5.6,1.1,10.7,3.8,14.7,7.8c4,4,6.8,9.1,7.9,14.7c1.1,5.6,0.5,11.3-1.6,16.5
	c-2.2,5.2-5.9,9.7-10.6,12.9c-4.7,3.1-10.3,4.8-16,4.8c-7.6,0-14.9-3-20.3-8.4C299.9,333.5,296.9,326.2,296.9,318.7L296.9,318.7z"/>
<path class="st27" d="M417.8,171H316.3v129.7h101.6V171z"/>
<path class="st28" d="M413.6,269.6h-31.2v31h31.2V269.6z"/>
<path class="st29" d="M366.9,264.4l15.6,5.2v30.9l-15.6-5.1V264.4z"/>
<path class="st30" d="M413.6,269.6l-15.5-5.2h-31.1l15.6,5.2H413.6L413.6,269.6z"/>
<path class="st18" d="M377.8,290.4v8.6l-4.7-1.5v-8.7L377.8,290.4z"/>
<path class="st31" d="M377.8,268v8.7l-4.7-1.5v-8.7L377.8,268z"/>
<path class="st32" d="M404.2,266.5l0.7,0.2l0.9,0.3l3.3,1h-31.3l-4.7-1.5H404.2L404.2,266.5z"/>
<path class="st33" d="M394.4,282.3H376v18.3h18.4V282.3z"/>
<path class="st28" d="M366.9,279.3l9.2,3v18.2l-9.2-3V279.3z"/>
<path class="st34" d="M394.4,282.3l-9.1-3h-18.4l9.2,3H394.4z"/>
<path class="st32" d="M373.3,294.6v5.1l-2.8-0.8v-5.1L373.3,294.6L373.3,294.6z M373.3,281.4v5.1l-2.8-0.9v-5.1L373.3,281.4
	L373.3,281.4z"/>
<path class="st35" d="M388.9,280.5l0.3,0.1l0.6,0.3l1.9,0.6h-18.5l-2.8-0.9H388.9z"/>
<path class="st36" d="M371.7,242.4h-39.9v58.1h39.9V242.4z"/>
<path class="st37" d="M311.8,241.7l20,0.8v58.1l-20,0.1V241.7z"/>
<path class="st38" d="M325.6,284.1v16.4h-6v-19.2L325.6,284.1z"/>
<path class="st39" d="M320.2,300.6H58.5c-2.5,0-4.6,2.3-4.6,5.1v11c0,2.8,2,5.1,4.6,5.1h261.7V300.6z"/>
<path class="st40" d="M60.8,300.6h117.8v-96.7h-59.1c-5.7,0-11.3,1.4-16.3,4.1c-5,2.7-9.3,6.6-12.5,11.3l-24.1,35.8
	c-3.8,5.8-5.9,12.6-5.9,19.5L60.8,300.6z"/>
<path class="st26" d="M151.4,261v-46.4h-31.1c-3.9,0-7.8,1-11.3,2.8c-3.5,1.8-6.5,4.5-8.7,7.7L76,261L151.4,261z"/>
<path class="st41" d="M176.6,203.9h-11v96.7h11V203.9z"/>
<path class="st42" d="M138.4,268.7h10.5c0.6,0,1.2-0.2,1.7-0.7c0.4-0.4,0.7-1,0.7-1.7v-1.4H136v1.4c0,0.6,0.3,1.2,0.7,1.7
	C137.2,268.5,137.8,268.7,138.4,268.7L138.4,268.7z"/>
<path class="st43" d="M70,288.2c0-2.4-1-4.8-2.7-6.5c-1.7-1.7-4.1-2.7-6.5-2.7v18.4c2.5,0,4.8-1,6.5-2.7C69.1,293,70,290.7,70,288.2
	L70,288.2z"/>
<path class="st22" d="M417.5,300.6h-97.3c-0.8,0-1.6,0.2-2.4,0.5s-1.4,0.8-2,1.3c-0.6,0.6-1,1.3-1.4,2c-0.3,0.8-0.5,1.6-0.5,2.4v8.5
	c0,1.6,0.7,3.2,1.8,4.4c1.2,1.2,2.8,1.8,4.4,1.8h97.3c1.7,0,3.2-0.6,4.4-1.8c1.2-1.2,1.8-2.7,1.8-4.4v-8.5c0-1.6-0.7-3.2-1.8-4.4
	C420.7,301.2,419.2,300.6,417.5,300.6z"/>
<path class="st44" d="M331.5,311.1c0-0.9-0.3-1.7-0.8-2.5c-0.5-0.7-1.2-1.3-2-1.6c-0.8-0.3-1.7-0.4-2.6-0.3
	c-0.9,0.2-1.7,0.6-2.3,1.2c-0.6,0.6-1.1,1.4-1.2,2.3c-0.2,0.9-0.1,1.8,0.3,2.6c0.3,0.8,0.9,1.5,1.7,2c0.7,0.5,1.6,0.8,2.5,0.8
	c0.6,0,1.2-0.1,1.7-0.3c0.5-0.2,1-0.5,1.5-1c0.4-0.4,0.7-0.9,1-1.4C331.4,312.3,331.5,311.7,331.5,311.1L331.5,311.1z"/>
<path class="st43" d="M339.2,311.1c0-0.6-0.2-1.1-0.6-1.5c-0.4-0.4-1-0.6-1.5-0.6h0c-0.6,0-1.2,0.2-1.6,0.6c-0.4,0.4-0.7,1-0.7,1.5
	c0,0.3,0.1,0.6,0.2,0.8s0.3,0.5,0.5,0.7c0.2,0.2,0.4,0.4,0.7,0.5c0.3,0.1,0.6,0.2,0.8,0.2h0.1c0.6,0,1.1-0.2,1.5-0.5
	c0.4-0.4,0.7-0.9,0.7-1.4V311.1z"/>
<path class="st44" d="M408.9,311.1c0,0.9,0.3,1.7,0.8,2.5c0.5,0.7,1.2,1.3,2,1.6c0.8,0.3,1.7,0.4,2.6,0.3c0.9-0.2,1.7-0.6,2.3-1.2
	c0.6-0.6,1.1-1.4,1.2-2.3c0.2-0.9,0.1-1.8-0.3-2.6c-0.3-0.8-0.9-1.5-1.7-2s-1.6-0.8-2.5-0.8c-1.2,0-2.3,0.5-3.2,1.3
	C409.4,308.8,408.9,309.9,408.9,311.1z"/>
<path class="st43" d="M401.2,311.1c0,0.4,0.1,0.9,0.4,1.2c0.2,0.4,0.6,0.6,1,0.8c0.4,0.2,0.8,0.2,1.3,0.1c0.4-0.1,0.8-0.3,1.1-0.6
	c0.3-0.3,0.5-0.7,0.6-1.1c0.1-0.4,0-0.9-0.1-1.3c-0.2-0.4-0.4-0.7-0.8-1c-0.4-0.2-0.8-0.4-1.2-0.4c-0.6,0-1.1,0.2-1.5,0.6
	c-0.4,0.4-0.7,0.9-0.7,1.5V311.1z"/>
<path class="st41" d="M417.8,171H317.1v5.9h100.7V171z"/>
<path class="st45" d="M165.6,279.7l-48.9,15.6c0,0,4.8,3.2,6.4,5.2h42.5V279.7z"/>
<path class="st46" d="M116.7,295.3l48.9-15.6v-10.6l-57.5,22.7C111.1,292.5,114,293.7,116.7,295.3L116.7,295.3z"/>
<path class="st40" d="M320.2,171H176.7v129.5h143.6V171z"/>
<path class="st45" d="M320.2,274.4l-143.6,4v22.1h143.6V274.4z"/>
<path class="st26" d="M256.9,290.9c8.1,0,16,3.2,21.7,9c5.8,5.7,9,13.5,9,21.6h-61.5c0-4,0.8-8,2.3-11.7s3.8-7.1,6.6-9.9
	c2.8-2.8,6.2-5.1,9.9-6.6c3.7-1.5,7.7-2.3,11.7-2.3H256.9z"/>
<path class="st26" d="M260.9,295.7c6.6,0.1,13,2.8,17.7,7.5c4.7,4.7,7.4,10.9,7.6,17.6c0.2,6.6-2.2,13-6.6,18
	c-4.4,4.9-10.6,7.9-17.2,8.5h-8.6v-51.5L260.9,295.7L260.9,295.7z"/>
<path class="st22" d="M229.9,321.4c0-5.1,1.5-10.1,4.4-14.3c2.8-4.2,6.9-7.5,11.6-9.5c4.7-2,9.9-2.5,15-1.5c5,1,9.6,3.4,13.3,7.1
	c3.6,3.6,6.1,8.2,7.1,13.2c1,5,0.5,10.2-1.5,14.9c-2,4.7-5.3,8.7-9.5,11.6c-4.3,2.8-9.3,4.3-14.4,4.3c-6.9,0-13.5-2.7-18.3-7.5
	C232.6,334.8,229.9,328.3,229.9,321.4L229.9,321.4z"/>
<path class="st45" d="M255.7,334.1c-7,0-12.7-5.7-12.7-12.6c0-7,5.7-12.6,12.7-12.6c7,0,12.7,5.7,12.7,12.6
	C268.4,328.4,262.7,334.1,255.7,334.1z"/>
<path class="st46" d="M176.7,278.5l143.6-4v-13.2l-143.6,6.5L176.7,278.5L176.7,278.5z"/>
<path class="st26" d="M100.7,290.9c8.1,0,16,3.2,21.7,9c5.8,5.7,9,13.5,9,21.6H70c0-4,0.8-8,2.3-11.7c1.5-3.7,3.8-7.1,6.6-9.9
	s6.2-5.1,9.9-6.6c3.7-1.5,7.7-2.3,11.7-2.3H100.7z"/>
<path class="st26" d="M104.8,295.7c6.6,0.1,13,2.8,17.7,7.5c4.7,4.7,7.4,11,7.6,17.6c0.2,6.6-2.2,13-6.6,18
	c-4.4,4.9-10.6,7.9-17.2,8.5h-8.5v-51.5L104.8,295.7L104.8,295.7z"/>
<path class="st22" d="M73.7,321.4c0-5.1,1.5-10.1,4.4-14.3c2.8-4.2,6.9-7.5,11.6-9.5c4.7-2,9.9-2.5,15-1.5c5,1,9.6,3.4,13.3,7.1
	c3.6,3.6,6.1,8.2,7.1,13.2c1,5,0.5,10.2-1.5,14.9c-2,4.7-5.3,8.7-9.5,11.6c-4.3,2.8-9.3,4.3-14.4,4.3c-6.9,0-13.5-2.7-18.3-7.5
	C76.5,334.8,73.7,328.3,73.7,321.4L73.7,321.4z"/>
<path class="st45" d="M99.6,334.1c-7,0-12.7-5.7-12.7-12.6c0-7,5.7-12.6,12.7-12.6c7,0,12.7,5.7,12.7,12.6
	C112.3,328.4,106.6,334.1,99.6,334.1z"/>
</svg>
