<svg version="1.1" xmlns="http://www.w3.org/2000/svg" xmlns:xlink="http://www.w3.org/1999/xlink" width="40" height="40" viewBox="0 0 40 40">
<style type="text/css">
	.st0{fill:#FFFFFF;}
</style>
<path class="st0" d="M39.6,32.9c0,0-1.6-1.7-2.6-3.8c1.9-1.9,3.1-4.3,3.1-6.8c0-5.6-5.3-10.2-12.2-11c-2.2-4-7.3-6.8-13.3-6.8
	C6.5,4.4,0,9.4,0,15.5c0,2.6,1.1,4.9,3.1,6.8c-1.1,2.1-2.6,3.8-2.6,3.8c-0.4,0.5-0.6,1.1-0.3,1.7c0.2,0.6,0.8,1,1.5,1
	c3.7,0,6.7-1.4,8.7-2.7c0.6,0.1,1.3,0.3,1.9,0.3c2.2,4,7.3,6.8,13.3,6.8c1.4,0,2.8-0.2,4.2-0.5c2,1.3,5,2.7,8.7,2.7
	c0.6,0,1.2-0.4,1.5-1C40.1,34,40,33.4,39.6,32.9L39.6,32.9z M10.8,24l-0.9-0.2l-0.8,0.5c-1.4,0.9-3.5,2-6.1,2.3
	c0.6-0.8,1.4-1.9,2-3.2l0.7-1.4l-1.1-1.1c-1.1-1.1-2.4-2.9-2.4-5.2c0-4.9,5.5-8.9,12.2-8.9c6.7,0,12.2,4,12.2,8.9s-5.5,8.9-12.2,8.9
	C13.2,24.5,12,24.3,10.8,24z M30.9,31l-0.8-0.5l-0.9,0.2c-1.2,0.3-2.4,0.4-3.7,0.4c-4.5,0-8.5-1.8-10.6-4.5
	c7.7-0.2,13.9-5.1,13.9-11.1c0-0.7-0.1-1.3-0.2-1.9c5.2,1,9.1,4.5,9.1,8.6c0,2.4-1.3,4.2-2.4,5.2l-1.1,1.1l0.7,1.4
	c0.7,1.3,1.4,2.5,2,3.2C34.4,33,32.3,31.9,30.9,31L30.9,31z"/>
</svg>
