<svg version="1.1" xmlns="http://www.w3.org/2000/svg" xmlns:xlink="http://www.w3.org/1999/xlink" width="220" height="194" viewBox="0 0 220 194">
<style type="text/css">
	.st0{fill:#EAF1FC;}
	.st1{fill:#F8F8FF;}
	.st2{fill:#3270A7;}
	.st3{fill-rule:evenodd;clip-rule:evenodd;fill:#71A7D8;}
	.st4{fill-rule:evenodd;clip-rule:evenodd;fill:#6390B9;}
	.st5{fill-rule:evenodd;clip-rule:evenodd;fill:#FFDA35;}
	.st6{fill-rule:evenodd;clip-rule:evenodd;fill:#FEBF00;}
	.st7{fill:#FFE365;}
	.st8{fill-rule:evenodd;clip-rule:evenodd;fill:#0B2B46;}
	.st9{fill-rule:evenodd;clip-rule:evenodd;fill:#FFFFFF;}
	.st10{fill-rule:evenodd;clip-rule:evenodd;fill:#4F7FAA;}
</style>
<path class="st0" d="M109.2,192.9c60.2,0,109.2-10.1,109.2-22.6c0-12.5-48.9-22.6-109.2-22.6C48.9,147.7,0,157.8,0,170.3
	C0,182.9,48.9,192.9,109.2,192.9z"/>
<path class="st1" d="M207.1,161.7c14-42,14.8-122.4-13.8-150.9c-27.2-27-40.4,5-61.7,6c-16.6,0.8-45-7.4-60.1-12.8
	C32.3-10.2-23.3,20,10.4,161.7C78.5,161.4,139.1,162,207.1,161.7z"/>
<path class="st2" d="M140,14.3c2.1,0,3.8-1.7,3.8-3.8c0-2.1-1.7-3.8-3.8-3.8c-2.1,0-3.8,1.7-3.8,3.8C136.2,12.6,137.9,14.3,140,14.3
	z"/>
<path class="st2" d="M31.3,46.3c-0.8-1.1-1.9-1.9-3.1-2.4c-0.8-0.3-1.5-0.8-1.9-1.6c-0.7-1.4-2.2-2.4-3.9-2.1
	c-1.6,0.3-3,1.5-3.2,3.1c-0.1,0.8,0,1.5,0.3,2.1c0.3,0.8,0.3,1.7,0.1,2.5c-0.8,2.4-0.3,5.2,1.6,7.1c2.8,2.8,7.5,2.6,10.1-0.6
	C33,52.1,33.1,48.7,31.3,46.3z"/>
<path class="st2" d="M199.3,72c0.9,0,1.7-0.8,1.7-1.7s-0.8-1.7-1.7-1.7s-1.7,0.8-1.7,1.7S198.3,72,199.3,72z"/>
<path class="st2" d="M185,25.2c6,0,10.9-4.9,10.9-10.9c0-6-4.9-10.9-10.9-10.9c-6,0-10.9,4.9-10.9,10.9
	C174.1,20.3,179,25.2,185,25.2z"/>
<path class="st3" d="M60.3,83.4h114.8c3.1,0,5.7,2.5,5.7,5.7v77.1c0,3.1-2.5,5.7-5.7,5.7H60.3c-3.1,0-5.7-2.5-5.7-5.7V89.1
	C54.7,86,57.3,83.4,60.3,83.4z"/>
<path class="st4" d="M52.2,86.1h120.1c2.9,0,5.2,2.4,5.2,5.2v70.8c0,2.9-2.4,5.2-5.2,5.2H52.2c-1,0-1.9-0.3-2.8-0.8V86.9
	C50.3,86.5,51.2,86.1,52.2,86.1z"/>
<path class="st3" d="M157.2,94.5H51.1l0.5,3.6l-5-2.7v-6.4c0-3,2-5.5,4.6-5.5h105.9L157.2,94.5L157.2,94.5z"/>
<path class="st4" d="M167.6,91.7v-5.6H53.2c-1.4,0-2.5,1.3-2.5,2.8s1.2,2.8,2.5,2.8H167.6z"/>
<path class="st5" d="M120.9,25.6c9.4,9.4,9.4,24.6,0,34c-9.4,9.4-24.6,9.4-34,0s-9.4-24.6,0-34S111.5,16.2,120.9,25.6z"/>
<path class="st6" d="M118.4,28.1c8,8,8,21,0,28.9c-8,8-21,8-28.9,0c-8-8-8-21,0-28.9C97.4,20.1,110.3,20.1,118.4,28.1z"/>
<path class="st5" d="M144.4,56.8c13.3,0,24,10.7,24,24c0,13.3-10.7,24-24,24c-13.3,0-24-10.7-24-24
	C120.3,67.5,131.1,56.8,144.4,56.8z"/>
<path class="st6" d="M144.4,60.3c11.3,0,20.5,9.1,20.5,20.5c0,11.3-9.1,20.5-20.5,20.5c-11.3,0-20.5-9.1-20.5-20.5
	C123.9,69.5,133.1,60.3,144.4,60.3z"/>
<path class="st7" d="M138.1,91.4c-1.8-6.6-3.6-13.1-5.2-19.7c6.2-1.7,12.4-3.3,18.5-5c1.7,6.4,3.5,12.9,5.2,19.4
	c0.2,0.7,0.2,1.3,0,1.9c-0.2,0.7-0.5,1.3-1.1,1.7c-0.6,0.5-1.2,0.9-1.8,1.4c-1.3,1-2.5,2-3.7,3c-0.3,0.3-0.6,0.5-0.9,0.8
	c0,0,0,0-0.1,0h-0.1c-2.2-0.3-4.5-0.7-6.7-1.1c-0.5-0.1-1-0.1-1.4-0.3c-1-0.3-1.9-0.8-2.4-1.8C138.3,91.8,138.2,91.6,138.1,91.4z
	 M151,67.4c-5.8,1.6-11.7,3.1-17.6,4.7c0,0.1,0,0.1,0,0.1c1.7,6.3,3.4,12.5,5.1,18.8c0.1,0.3,0.2,0.5,0.3,0.7
	c0.5,0.8,1.2,1.4,2.1,1.5c2.5,0.4,5,0.8,7.4,1.2c0.2,0,0.3,0.1,0.5,0.1c0.2,0,0.3-0.2,0.4-0.3c0,0,0,0,0.1-0.1
	c1.7-1.4,3.3-2.7,5-4.1c0.3-0.3,0.7-0.5,0.9-0.8c0.8-0.8,1.1-1.9,0.8-3C154.4,79.9,152.7,73.6,151,67.4C151,67.4,151,67.4,151,67.4z
	"/>
<path class="st7" d="M142.6,71c0.3,0.3,0.7,0.5,0.8,0.8c0.3,0.5,0.5,1,0.6,1.6c0.4,1.7,0.8,3.5,1.3,5.2c0.5,1.9,1.5,3.6,3,5
	c0.2,0.2,0.3,0.2,0.4,0.1c0.3-0.1,0.5-0.2,0.7-0.4c0.3-0.3,0.3-0.7,0.3-1.1c-0.2-0.4-0.4-0.6-0.8-0.7c-0.3-0.1-0.5,0-0.7,0.1
	c0-0.3-0.1-0.5-0.1-0.7c-0.1-0.8-0.3-1.5-0.3-2.3c-0.1-0.7-0.3-1.4-0.3-2c-0.1-0.8,0-1.5,0.2-2.3c0.3-1.3,0.8-2.5,1.8-3.4
	c0.1-0.1,0.1-0.1,0.2-0.2c1.4,5.2,2.8,10.4,4.2,15.7c-1.2,0.3-2.5,0.7-3.6,0.9c0,0.3,0,0.5,0,0.7c-0.1,1.3-0.4,2.5-1.2,3.5
	c-0.2,0.3-0.3,0.6-0.5,0.9c-0.4-0.3-1-0.5-1.4-0.8c-1.1-0.6-1.9-1.5-2.5-2.7c-1.2,0.3-2.4,0.7-3.6,0.9c-1.4-5.2-2.8-10.4-4.2-15.7
	c0.2,0.1,0.3,0.1,0.5,0.2c1.4,0.5,2.6,1.4,3.6,2.6c0.4,0.6,0.8,1.2,1,1.9c0.3,0.8,0.6,1.5,0.9,2.3c0.3,0.6,0.4,1.1,0.7,1.7v0.1
	c-0.3,0-0.5,0.2-0.8,0.3c-0.5,0.5-0.4,1.3,0.1,1.7c0.3,0.3,0.8,0.3,1.2,0.1c0.1,0,0.2-0.1,0.2-0.2c0.3-0.8,0.4-1.7,0.4-2.5
	c0.1-1.4-0.1-2.8-0.5-4.1c-0.3-1.3-0.8-2.5-1.2-3.8c-0.2-0.5-0.3-1-0.4-1.4C142.1,72.3,142.2,71.7,142.6,71
	C142.6,71.1,142.6,71.1,142.6,71z M140.4,84.4c0.2-0.1,0.3-0.1,0.5-0.2l0.1-0.1c0-0.7,0.3-1.2,0.8-1.6c0,0,0.1-0.1,0-0.1
	c-0.1-0.1-0.1-0.3-0.2-0.3c-0.3-0.8-0.6-1.6-0.9-2.4c-0.2-0.3-0.3-0.8-0.4-1.1c-0.4-0.9-1.1-1.6-1.9-2.2c0,0,0,0-0.1,0
	C139,79,139.7,81.7,140.4,84.4z M149,73.5c-0.3,0.7-0.6,1.9-0.6,2.7c0,0.6,0.2,1.2,0.2,1.8c0.1,0.8,0.3,1.7,0.3,2.5
	c0,0.1,0,0.1,0.1,0.1c0.6,0.2,1.1,0.4,1.4,1l0.1,0.1c0.2-0.1,0.3-0.1,0.5-0.2C150.4,78.8,149.8,76.2,149,73.5z M149.3,84.9
	c0.3,0.5,0.5,1,0.7,1.5c0.8-0.3,1.6-0.4,2.4-0.7c-0.3-1.1-0.6-2.1-0.8-3.2c-0.2,0.1-0.3,0.1-0.5,0.2c-0.1,0-0.1,0.1-0.1,0.1
	c0,0.5-0.2,0.9-0.5,1.4C150,84.4,149.7,84.7,149.3,84.9z M141.6,88.7c0.8-0.3,1.6-0.4,2.4-0.7c-0.2-0.6-0.3-1.1-0.2-1.7
	c-0.1,0-0.1,0-0.2,0c-0.1,0-0.1,0-0.2,0c-0.8,0-1.6-0.3-2.1-1l-0.1-0.1c-0.2,0.1-0.3,0.1-0.5,0.2C141,86.5,141.3,87.6,141.6,88.7z
	 M145,85.1C145,85.1,145.1,85.2,145,85.1c0.5,0.2,0.9,0.3,1.4,0.5h0.1c0.2-0.3,0.4-0.4,0.6-0.7c0.1-0.2,0.3-0.3,0.3-0.4
	c-0.8-0.8-1.4-1.6-2-2.5C145.5,83,145.4,84.1,145,85.1z M148.4,90.4c0.5-0.8,0.6-1.6,0.5-2.5c-0.3,0.1-0.8,0.2-1.1,0.3
	C148,88.8,148.2,89.6,148.4,90.4z M147.2,90.6c-0.2-0.8-0.4-1.4-0.6-2.2c-0.3,0.1-0.8,0.2-1.1,0.3C145.9,89.5,146.6,90.4,147.2,90.6
	z M148.8,86.7c-0.1-0.4-0.3-0.8-0.5-1.3c-0.6,0.3-1,1-0.8,1.6C147.9,87,148.3,86.8,148.8,86.7z M145.1,87.7c0.4-0.1,0.8-0.3,1.3-0.3
	c0,0,0,0,0.1,0c-0.2-0.7-0.8-1.1-1.5-1C144.9,86.8,144.9,87.2,145.1,87.7z"/>
<path class="st8" d="M58.2,80.1l96.5,7.8c2.3,0.2,4,2.2,3.8,4.5l-4.4,54c-0.2,2.3-2.2,4-4.5,3.8l-96.5-7.8c-2.3-0.2-4-2.2-3.8-4.5
	l4.4-54C53.9,81.7,55.9,80,58.2,80.1z"/>
<path class="st6" d="M99.7,78.5c11.3,0,20.5,9.1,20.5,20.5c0,11.3-9.1,20.5-20.5,20.5c-11.3,0-20.5-9.1-20.5-20.5
	C79.2,87.7,88.4,78.5,99.7,78.5z"/>
<path class="st9" d="M62.5,89.9l96.8-3.4c2.3-0.1,4.2,1.7,4.3,4l1.9,54.2c0.1,2.3-1.7,4.2-4,4.3l-96.8,3.4c-2.3,0.1-4.2-1.7-4.3-4
	l-1.9-54.2C58.4,92,60.2,90,62.5,89.9z"/>
<path class="st3" d="M49.2,91.7h118c3.1,0,5.7,2.5,5.7,5.7v77.1c0,3.1-2.5,5.7-5.7,5.7H52.4c-3.1,0-5.7-2.5-5.7-5.7V89
	C46.7,90.5,47.9,91.7,49.2,91.7z"/>
<path class="st10" d="M50.9,176.8c0.6,0.3,1.1-0.3,0.8-0.9c-0.1-0.2-0.2-0.3-0.3-0.3c-0.8-0.3-1.4-0.8-1.9-1.4
	c-0.2-0.2-0.4-0.3-0.7-0.2c-0.5,0.2-0.7,0.8-0.3,1.1C49.2,175.9,50,176.4,50.9,176.8z M58,177.2c0.3,0,0.6-0.2,0.7-0.5
	c0.2-0.4-0.2-0.8-0.7-0.8h-2.7c-0.3,0-0.6,0.2-0.7,0.5c-0.2,0.4,0.2,0.8,0.7,0.8H58z M64.7,177.2c0.3,0,0.6-0.2,0.7-0.5
	c0.2-0.4-0.2-0.8-0.7-0.8H62c-0.3,0-0.6,0.2-0.7,0.5c-0.2,0.4,0.2,0.8,0.7,0.8H64.7z M71.6,177.2c0.3,0,0.6-0.2,0.7-0.5
	c0.2-0.4-0.2-0.8-0.7-0.8h-2.7c-0.3,0-0.6,0.2-0.7,0.5c-0.2,0.4,0.2,0.8,0.7,0.8H71.6z M78.4,177.2c0.3,0,0.6-0.2,0.7-0.5
	c0.2-0.4-0.2-0.8-0.7-0.8h-2.7c-0.3,0-0.6,0.2-0.7,0.5c-0.2,0.4,0.2,0.8,0.7,0.8H78.4z M85.1,177.2c0.3,0,0.6-0.2,0.7-0.5
	c0.2-0.4-0.2-0.8-0.7-0.8h-2.7c-0.3,0-0.6,0.2-0.7,0.5c-0.2,0.4,0.2,0.8,0.7,0.8H85.1z M92,177.2c0.3,0,0.6-0.2,0.7-0.5
	c0.2-0.4-0.2-0.8-0.7-0.8h-2.7c-0.3,0-0.6,0.2-0.7,0.5c-0.2,0.4,0.2,0.8,0.7,0.8H92z M98.7,177.2c0.3,0,0.6-0.2,0.7-0.5
	c0.2-0.4-0.2-0.8-0.7-0.8H96c-0.3,0-0.6,0.2-0.7,0.5c-0.2,0.4,0.2,0.8,0.7,0.8H98.7z M105.6,177.2c0.3,0,0.6-0.2,0.7-0.5
	c0.2-0.4-0.2-0.8-0.7-0.8h-2.7c-0.3,0-0.6,0.2-0.7,0.5c-0.2,0.4,0.2,0.8,0.7,0.8H105.6z M112.4,177.2c0.3,0,0.6-0.2,0.7-0.5
	c0.2-0.4-0.2-0.8-0.7-0.8h-2.7c-0.3,0-0.6,0.2-0.7,0.5c-0.2,0.4,0.2,0.8,0.7,0.8H112.4z M119.2,177.2c0.3,0,0.6-0.2,0.7-0.5
	c0.2-0.4-0.2-0.8-0.7-0.8h-2.7c-0.3,0-0.6,0.2-0.7,0.5c-0.2,0.4,0.2,0.8,0.7,0.8H119.2z M126,177.2c0.3,0,0.6-0.2,0.7-0.5
	c0.2-0.4-0.2-0.8-0.7-0.8h-2.7c-0.3,0-0.6,0.2-0.7,0.5c-0.2,0.4,0.2,0.8,0.7,0.8H126z M132.8,177.2c0.3,0,0.6-0.2,0.7-0.5
	c0.2-0.4-0.2-0.8-0.7-0.8h-2.7c-0.3,0-0.6,0.2-0.7,0.5c-0.2,0.4,0.2,0.8,0.7,0.8H132.8z M139.6,177.2c0.3,0,0.6-0.2,0.7-0.5
	c0.2-0.4-0.2-0.8-0.7-0.8h-2.7c-0.3,0-0.6,0.2-0.7,0.5c-0.2,0.4,0.2,0.8,0.7,0.8H139.6z M146.4,177.2c0.3,0,0.6-0.2,0.7-0.5
	c0.2-0.4-0.2-0.8-0.7-0.8h-2.7c-0.3,0-0.6,0.2-0.7,0.5c-0.2,0.4,0.2,0.8,0.7,0.8H146.4z M153.2,177.2c0.3,0,0.6-0.2,0.7-0.5
	c0.2-0.4-0.2-0.8-0.7-0.8h-2.7c-0.3,0-0.6,0.2-0.7,0.5c-0.2,0.4,0.2,0.8,0.7,0.8H153.2z M160,177.2c0.3,0,0.6-0.2,0.7-0.5
	c0.2-0.4-0.2-0.8-0.7-0.8h-2.7c-0.3,0-0.6,0.2-0.7,0.5c-0.2,0.4,0.2,0.8,0.7,0.8H160z M166.9,177.2c0.3,0,0.6-0.2,0.7-0.5
	c0.2-0.4-0.2-0.8-0.7-0.8h-2.7c-0.3,0-0.6,0.2-0.7,0.5c-0.2,0.4,0.2,0.8,0.7,0.8H166.9z M169.9,171.2c0-0.3-0.2-0.6-0.5-0.7
	c-0.4-0.2-0.8,0.2-0.8,0.7v2.7c0,0.3,0.2,0.6,0.5,0.7c0.4,0.2,0.8-0.2,0.8-0.7V171.2z M169.9,164.4c0-0.3-0.2-0.6-0.5-0.7
	c-0.4-0.2-0.8,0.2-0.8,0.7v2.7c0,0.3,0.2,0.6,0.5,0.7c0.4,0.2,0.8-0.2,0.8-0.7V164.4z M169.9,157.6c0-0.3-0.2-0.6-0.5-0.7
	c-0.4-0.2-0.8,0.2-0.8,0.7v2.7c0,0.3,0.2,0.6,0.5,0.7c0.4,0.2,0.8-0.2,0.8-0.7V157.6z M169.9,150.8c0-0.3-0.2-0.6-0.5-0.7
	c-0.4-0.2-0.8,0.2-0.8,0.7v2.7c0,0.3,0.2,0.6,0.5,0.7c0.4,0.2,0.8-0.2,0.8-0.7V150.8z M169.9,143.9c0-0.3-0.2-0.6-0.5-0.7
	c-0.4-0.2-0.8,0.2-0.8,0.7v2.7c0,0.3,0.2,0.6,0.5,0.7c0.4,0.2,0.8-0.2,0.8-0.7V143.9z M169.9,137.2c0-0.3-0.2-0.6-0.5-0.7
	c-0.4-0.2-0.8,0.2-0.8,0.7v2.7c0,0.3,0.2,0.6,0.5,0.7c0.4,0.2,0.8-0.2,0.8-0.7V137.2z M169.9,130.4c0-0.3-0.2-0.6-0.5-0.7
	c-0.4-0.2-0.8,0.2-0.8,0.7v2.7c0,0.3,0.2,0.6,0.5,0.7c0.4,0.2,0.8-0.2,0.8-0.7V130.4z M169.9,123.5c0-0.3-0.2-0.6-0.5-0.7
	c-0.4-0.2-0.8,0.2-0.8,0.7v2.7c0,0.3,0.2,0.6,0.5,0.7c0.4,0.2,0.8-0.2,0.8-0.7V123.5z M169.9,116.8c0-0.3-0.2-0.6-0.5-0.7
	c-0.4-0.2-0.8,0.2-0.8,0.7v2.7c0,0.3,0.2,0.6,0.5,0.7c0.4,0.2,0.8-0.2,0.8-0.7V116.8z M169.9,109.9c0-0.3-0.2-0.6-0.5-0.7
	c-0.4-0.2-0.8,0.2-0.8,0.7v2.7c0,0.3,0.2,0.6,0.5,0.7c0.4,0.2,0.8-0.2,0.8-0.7V109.9z M169.9,103.1c0-0.3-0.2-0.6-0.5-0.7
	c-0.4-0.2-0.8,0.2-0.8,0.7v2.7c0,0.3,0.2,0.6,0.5,0.7c0.4,0.2,0.8-0.2,0.8-0.7V103.1z M169.5,96c-0.2-0.3-0.4-0.3-0.7-0.3
	c-0.5,0.1-0.7,0.6-0.5,1c0.1,0.2,0.2,0.4,0.2,0.7v1.7c0,0.3,0.2,0.6,0.5,0.7c0.4,0.2,0.8-0.2,0.8-0.7v-1.7
	C169.9,96.9,169.7,96.5,169.5,96z M162.5,94.7c-0.3,0-0.6,0.2-0.7,0.5c-0.2,0.4,0.2,0.8,0.7,0.8h2.7c0.3,0,0.6-0.2,0.7-0.5
	c0.2-0.4-0.2-0.8-0.7-0.8H162.5z M155.7,94.7c-0.3,0-0.6,0.2-0.7,0.5c-0.2,0.4,0.2,0.8,0.7,0.8h2.7c0.3,0,0.6-0.2,0.7-0.5
	c0.2-0.4-0.2-0.8-0.7-0.8H155.7z M148.8,94.7c-0.3,0-0.6,0.2-0.7,0.5c-0.2,0.4,0.2,0.8,0.7,0.8h2.7c0.3,0,0.6-0.2,0.7-0.5
	c0.2-0.4-0.2-0.8-0.7-0.8H148.8z M142.1,94.7c-0.3,0-0.6,0.2-0.7,0.5c-0.2,0.4,0.2,0.8,0.7,0.8h2.7c0.3,0,0.6-0.2,0.7-0.5
	c0.2-0.4-0.2-0.8-0.7-0.8H142.1z M135.3,94.7c-0.3,0-0.6,0.2-0.7,0.5c-0.2,0.4,0.2,0.8,0.7,0.8h2.7c0.3,0,0.6-0.2,0.7-0.5
	c0.2-0.4-0.2-0.8-0.7-0.8H135.3z M128.4,94.7c-0.3,0-0.6,0.2-0.7,0.5c-0.2,0.4,0.2,0.8,0.7,0.8h2.7c0.3,0,0.6-0.2,0.7-0.5
	c0.2-0.4-0.2-0.8-0.7-0.8H128.4z M121.7,94.7c-0.3,0-0.6,0.2-0.7,0.5c-0.2,0.4,0.2,0.8,0.7,0.8h2.7c0.3,0,0.6-0.2,0.7-0.5
	c0.2-0.4-0.2-0.8-0.7-0.8H121.7z M114.8,94.7c-0.3,0-0.6,0.2-0.7,0.5c-0.2,0.4,0.2,0.8,0.7,0.8h2.7c0.3,0,0.6-0.2,0.7-0.5
	c0.2-0.4-0.2-0.8-0.7-0.8H114.8z M108.1,94.7c-0.3,0-0.6,0.2-0.7,0.5c-0.2,0.4,0.2,0.8,0.7,0.8h2.7c0.3,0,0.6-0.2,0.7-0.5
	c0.2-0.4-0.2-0.8-0.7-0.8H108.1z M101.2,94.7c-0.3,0-0.6,0.2-0.7,0.5c-0.2,0.4,0.2,0.8,0.7,0.8h2.7c0.3,0,0.6-0.2,0.7-0.5
	c0.2-0.4-0.2-0.8-0.7-0.8H101.2z M94.4,94.7c-0.3,0-0.6,0.2-0.7,0.5c-0.2,0.4,0.2,0.8,0.7,0.8h2.7c0.3,0,0.6-0.2,0.7-0.5
	c0.2-0.4-0.2-0.8-0.7-0.8H94.4z M87.7,94.7c-0.3,0-0.6,0.2-0.7,0.5c-0.2,0.4,0.2,0.8,0.7,0.8h2.7c0.3,0,0.6-0.2,0.7-0.5
	c0.2-0.4-0.2-0.8-0.7-0.8H87.7z M80.8,94.7c-0.3,0-0.6,0.2-0.7,0.5C80,95.6,80.3,96,80.8,96h2.7c0.3,0,0.6-0.2,0.7-0.5
	c0.2-0.4-0.2-0.8-0.7-0.8H80.8z M74,94.7c-0.3,0-0.6,0.2-0.7,0.5C73.2,95.6,73.5,96,74,96h2.7c0.3,0,0.6-0.2,0.7-0.5
	c0.2-0.4-0.2-0.8-0.7-0.8H74z M67.2,94.7c-0.3,0-0.6,0.2-0.7,0.5c-0.2,0.4,0.2,0.8,0.7,0.8h2.7c0.3,0,0.6-0.2,0.7-0.5
	c0.2-0.4-0.2-0.8-0.7-0.8H67.2z M60.4,94.7c-0.3,0-0.6,0.2-0.7,0.5c-0.2,0.4,0.2,0.8,0.7,0.8h2.7c0.3,0,0.6-0.2,0.7-0.5
	c0.2-0.4-0.2-0.8-0.7-0.8H60.4z M53.6,94.7c-0.3,0-0.6,0.2-0.7,0.5c-0.2,0.4,0.2,0.8,0.7,0.8h2.7c0.3,0,0.6-0.2,0.7-0.5
	c0.2-0.4-0.2-0.8-0.7-0.8H53.6z M46.7,94.4v-0.9c0.3-0.3,0.8-0.3,1,0c0.4,0.6,1.2,0.9,1.9,1.1c0.5,0.1,0.8,0.8,0.3,1.2
	C49.8,96,49.6,96,49.3,96C48.4,95.8,47.4,95.2,46.7,94.4z M46.7,171.8v-4c0.3,0,0.7,0.3,0.7,0.7c0,0.8,0.1,1.7,0.3,2.5v0.4
	C47.5,171.8,47,171.9,46.7,171.8z"/>
<path class="st4" d="M148,127.2h29.1c2-0.2,3.6-1.9,3.6-4v20.3c0,2.1-1.6,3.8-3.6,4H148c-5.6,0-10.2-4.6-10.2-10.2
	C137.9,131.7,142.5,127.2,148,127.2z"/>
<path class="st9" d="M148.8,131c3.5,0,6.3,2.8,6.3,6.3c0,3.5-2.8,6.3-6.3,6.3c-3.5,0-6.3-2.8-6.3-6.3S145.3,131,148.8,131z"/>
<path class="st7" d="M91.6,44.9c3.4-5.9,6.8-11.8,10.2-17.7c5.5,3.2,11.1,6.4,16.6,9.6c-3.4,5.8-6.7,11.6-10.1,17.3
	c-0.3,0.6-0.8,1-1.4,1.4c-0.6,0.3-1.3,0.5-1.9,0.4c-0.8-0.1-1.5-0.2-2.2-0.3c-1.6-0.2-3.2-0.3-4.8-0.5c-0.4-0.1-0.8-0.1-1.2-0.1
	c0,0,0-0.1-0.1-0.1c-1.4-1.9-2.6-3.6-4-5.5c-0.3-0.4-0.6-0.8-0.8-1.2c-0.6-0.9-0.7-1.9-0.4-3C91.6,45.4,91.6,45.2,91.6,44.9z
	 M117.8,37.1c-5.2-3-10.5-6.1-15.7-9.1C102,28,102,28,102,28c-3.2,5.6-6.5,11.3-9.7,16.8c-0.1,0.3-0.3,0.4-0.3,0.7
	c-0.3,0.9-0.2,1.8,0.4,2.6c1.4,2,3,4.1,4.4,6.1c0.1,0.2,0.2,0.3,0.3,0.4c0.2,0.1,0.3,0.1,0.5,0.1h0.1c2.1,0.3,4.2,0.4,6.4,0.7
	c0.4,0,0.8,0.1,1.2,0.1c1.2,0,2.1-0.5,2.7-1.6C111.3,48.3,114.5,42.7,117.8,37.1C117.8,37.1,117.8,37.1,117.8,37.1z"/>
<path class="st7" d="M109.2,33.7c0.1,0.4,0.1,0.8,0,1.3c-0.1,0.6-0.4,1.1-0.7,1.6c-0.9,1.5-1.9,3-2.8,4.6c-1,1.8-1.4,3.6-1.4,5.7
	c0,0.2,0.1,0.3,0.3,0.4c0.3,0.2,0.5,0.2,0.8,0.2c0.4,0,0.8-0.3,0.9-0.6c0.2-0.4,0.1-0.8-0.2-1.1c-0.2-0.2-0.3-0.3-0.6-0.4
	c0.2-0.2,0.3-0.4,0.4-0.6c0.4-0.6,0.9-1.2,1.4-1.9c0.4-0.5,0.8-1.1,1.2-1.6c0.5-0.6,1.1-1.1,1.7-1.5c1.1-0.7,2.4-1.1,3.6-1.2
	c0.1,0,0.2,0,0.3,0c-2.7,4.7-5.4,9.4-8.1,14c-1.1-0.6-2.2-1.3-3.2-1.9c-0.2,0.2-0.3,0.3-0.5,0.5c-0.9,0.8-2,1.4-3.3,1.6
	c-0.3,0-0.7,0.1-1,0.3c0-0.6-0.3-1.1-0.5-1.6c-0.3-1.3-0.3-2.5,0.2-3.7c-1.1-0.6-2.1-1.3-3.2-1.9c2.7-4.7,5.4-9.4,8.1-14
	c0.1,0.2,0.2,0.3,0.3,0.4c0.7,1.4,0.8,2.8,0.7,4.3c-0.1,0.7-0.3,1.4-0.6,2c-0.3,0.8-0.7,1.5-1,2.3c-0.3,0.6-0.5,1.1-0.8,1.7
	c0,0,0,0.1-0.1,0.1c-0.3-0.2-0.5-0.3-0.8-0.3c-0.7,0-1.2,0.6-1.1,1.3c0.1,0.4,0.3,0.8,0.8,0.9c0.1,0,0.2,0,0.3,0
	c0.8-0.4,1.4-0.9,2.1-1.5c1-0.9,1.9-2,2.5-3.2c0.6-1.2,1.3-2.4,1.9-3.5c0.3-0.4,0.5-0.9,0.8-1.4c0.3-0.6,0.9-0.9,1.5-1.2
	C109.2,33.8,109.2,33.8,109.2,33.7z M98.3,41.5c0.2,0.1,0.3,0.2,0.4,0.3h0.1c0.4-0.4,1-0.6,1.6-0.6c0.1,0,0.1,0,0.1-0.1
	c0.1-0.1,0.1-0.3,0.2-0.3c0.3-0.8,0.7-1.5,1-2.4c0.2-0.3,0.3-0.7,0.4-1.1c0.3-0.9,0.3-1.9,0.3-2.9c0,0,0,0,0-0.1
	C101,36.8,99.7,39.2,98.3,41.5z M112,40c-0.7,0.3-1.8,0.9-2.3,1.5c-0.4,0.4-0.8,0.9-1.1,1.4c-0.5,0.7-1,1.4-1.5,2
	c-0.1,0.1-0.1,0.1,0,0.2c0.3,0.5,0.4,1.1,0.3,1.7v0.1c0.2,0.1,0.3,0.2,0.5,0.3C109.3,44.8,110.7,42.4,112,40z M104.2,48.2
	c-0.2,0.6-0.3,1.1-0.6,1.5c0.8,0.4,1.4,0.8,2.1,1.3c0.6-0.9,1.1-1.9,1.7-2.9c-0.2-0.1-0.3-0.2-0.4-0.3c-0.1,0-0.1,0-0.2,0
	c-0.3,0.3-0.8,0.6-1.4,0.6C105,48.5,104.6,48.4,104.2,48.2z M96,45.4c0.8,0.4,1.4,0.8,2.1,1.3c0.3-0.5,0.6-0.9,1-1.4
	c-0.1,0-0.1-0.1-0.2-0.1s-0.1-0.1-0.2-0.1c-0.6-0.6-0.9-1.4-0.8-2.2v-0.1c-0.2-0.1-0.3-0.2-0.5-0.3C97.1,43.5,96.6,44.5,96,45.4z
	 M101,45.4c0.3,0.5,0.4,0.9,0.7,1.4l0.1,0.1c0.3,0,0.6,0,0.9-0.1c0.2,0,0.3,0,0.6,0c0-1.1,0.2-2.2,0.4-3.2
	C102.8,44.3,102,44.9,101,45.4z M99.7,51.4c0.9-0.3,1.6-0.7,2.1-1.4c-0.3-0.2-0.7-0.4-1-0.6C100.4,50.2,100.1,50.8,99.7,51.4z
	 M98.7,50.9c0.4-0.7,0.8-1.4,1.1-1.9c-0.3-0.2-0.7-0.4-1-0.6C98.5,49.1,98.4,50.2,98.7,50.9z M102.6,49.2c0.3-0.4,0.4-0.8,0.5-1.3
	c-0.7-0.3-1.4,0.1-1.7,0.6C101.8,48.7,102.1,49,102.6,49.2z M99.3,47.3c0.3,0.3,0.8,0.4,1.1,0.7c0,0,0,0,0.1,0
	c0.3-0.6,0.2-1.4-0.3-1.8C99.7,46.5,99.4,46.9,99.3,47.3z"/>
</svg>
