<?xml version="1.0" encoding="utf-8"?>
<!-- Generator: Adobe Illustrator 24.2.3, SVG Export Plug-In . SVG Version: 6.00 Build 0)  -->
<svg version="1.1" id="Слой_1" xmlns="http://www.w3.org/2000/svg" xmlns:xlink="http://www.w3.org/1999/xlink" x="0px" y="0px"
	 viewBox="0 0 630 390" style="enable-background:new 0 0 630 390;" xml:space="preserve">
<style type="text/css">
	.st0{fill:#EAF1FC;}
	.st1{fill:#F8F8FF;}
	.st2{fill:#FFFFFF;}
	.st3{fill:#D6E0F0;}
	.st4{fill:#E9EDF4;}
	.st5{fill:#CDE4F7;}
	.st6{fill:#FCFBFC;}
	.st7{fill:#DF8E73;}
	.st8{fill:#DDAF8A;}
	.st9{fill:#FBCC99;}
	.st10{fill:#BB9170;}
	.st11{fill:#9C87DA;}
	.st12{fill:#DB3E3E;}
	.st13{fill:#FFDA35;}
	.st14{fill:#F3F3F3;}
	.st15{fill:#047487;}
	.st16{fill:#4FA52B;}
	.st17{fill:#75C945;}
	.st18{fill:#F09976;}
	.st19{fill:#E8815F;}
	.st20{fill:#0B2B46;}
	.st21{fill:#05616B;}
	.st22{fill:#02819F;}
	.st23{fill:#303D48;}
	.st24{fill:#F09876;}
</style>
<path class="st0" d="M315,390c174,0,315-20.5,315-45.7c0-25.2-141-45.7-315-45.7S0,319.1,0,344.3C0,369.5,141,390,315,390z"/>
<path class="st1" d="M573.4,327.1c35.9-75.5,55.7-220.2-22.1-268.2c-50.9-31.4-104,9-158.5,10.8c-42.8,1.4-84-32.7-122.6-42.5
	c-101-25.5-260,41-190.2,299.9C254.9,326.6,398.6,327.6,573.4,327.1z"/>
<path class="st2" d="M280.2,214.5H177.7c-1.4,0-2.5-1.2-2.5-2.5V61.5c-3.9-56.3,18.4-54.3,53.7-54.3h0.1
	c56.2-3.7,53.8,24.4,53.8,54.4V212C282.7,213.4,281.6,214.5,280.2,214.5z"/>
<path class="st3" d="M280.7,216.7H176.1c-1.7,0-3.1-1.4-3.1-3.2V39c0-18.2,14.6-33,32.6-33h45.6c18,0,32.6,14.8,32.6,33v174.6
	C283.8,215.3,282.4,216.7,280.7,216.7z M176.3,213.4h104.2V39c0-16.4-13.1-29.7-29.3-29.7h-45.6c-16.1,0-29.3,13.3-29.3,29.7V213.4z
	"/>
<path class="st3" d="M228.4,215.4c-0.9,0-1.6-0.7-1.6-1.7V7.7c0-0.9,0.7-1.7,1.6-1.7c0.9,0,1.6,0.7,1.6,1.7v206
	C230.1,214.7,229.3,215.4,228.4,215.4z"/>
<path class="st2" d="M471.9,214.5H369.4c-1.4,0-2.5-1.2-2.5-2.5V61.5C363,5.3,385.3,7.2,420.6,7.2h0.1c56.2-3.7,53.8,24.4,53.8,54.4
	V212C474.4,213.4,473.2,214.5,471.9,214.5z"/>
<path class="st3" d="M282.1,167.8H174.6c-0.9,0-1.6-0.7-1.6-1.7s0.7-1.7,1.6-1.7h107.5c0.9,0,1.6,0.7,1.6,1.7
	S283.1,167.8,282.1,167.8z M282.1,64.4H174.6c-0.9,0-1.6-0.7-1.6-1.7c0-0.9,0.7-1.7,1.6-1.7h107.5c0.9,0,1.6,0.7,1.6,1.7
	C283.8,63.6,283.1,64.4,282.1,64.4z M282.1,116.1H174.6c-0.9,0-1.6-0.7-1.6-1.7c0-0.9,0.7-1.7,1.6-1.7h107.5c0.9,0,1.6,0.7,1.6,1.7
	C283.8,115.3,283.1,116.1,282.1,116.1z"/>
<path class="st3" d="M472.9,216.7H368.3c-1.7,0-3.1-1.4-3.1-3.2V39c0-18.2,14.6-33,32.6-33h45.6c18,0,32.6,14.8,32.6,33v174.6
	C476,215.3,474.6,216.7,472.9,216.7z M368.5,213.4h104.2V39c0-16.4-13.1-29.7-29.3-29.7h-45.6c-16.1,0-29.3,13.3-29.3,29.7V213.4z"
	/>
<path class="st3" d="M420.5,215.4c-0.9,0-1.6-0.7-1.6-1.7V7.7c0-0.9,0.7-1.7,1.6-1.7s1.6,0.7,1.6,1.7v206
	C422.2,214.7,421.5,215.4,420.5,215.4z"/>
<path class="st3" d="M474.3,167.8H366.8c-0.9,0-1.6-0.7-1.6-1.7s0.7-1.7,1.6-1.7h107.5c0.9,0,1.6,0.7,1.6,1.7
	S475.2,167.8,474.3,167.8z M474.3,64.4H366.8c-0.9,0-1.6-0.7-1.6-1.7c0-0.9,0.7-1.7,1.6-1.7h107.5c0.9,0,1.6,0.7,1.6,1.7
	C476,63.6,475.2,64.4,474.3,64.4z M474.3,116.1H366.8c-0.9,0-1.6-0.7-1.6-1.7c0-0.9,0.7-1.7,1.6-1.7h107.5c0.9,0,1.6,0.7,1.6,1.7
	C476,115.3,475.2,116.1,474.3,116.1z"/>
<path class="st0" d="M332.4,0h2.1v98.9h-2.1V0z"/>
<path class="st3" d="M349.5,119.3c-0.1-9.2-7.4-16.6-16.5-16.6s-16.4,7.4-16.5,16.6H349.5z"/>
<path class="st3" d="M338.9,102.8c0,4.9-2.7,8.9-6.1,8.9c-3.4,0-6.1-4-6.1-8.9c0-4.9,2.7-8.9,6.1-8.9
	C336.2,93.9,338.9,97.8,338.9,102.8z"/>
<path class="st0" d="M305.3,0h2.1v64.2h-2.1V0z"/>
<path class="st3" d="M312.3,67.9c0,4.9-2.7,8.9-6.1,8.9c-3.4,0-6.1-4-6.1-8.9c0-4.9,2.7-8.9,6.1-8.9C309.6,59,312.3,63,312.3,67.9z"
	/>
<path class="st3" d="M322.4,83.8c-0.1-9.1-7.4-16.4-16.5-16.4s-16.4,7.4-16.5,16.4H322.4z"/>
<path class="st4" d="M135.2,139.5c-5.6,2-3,9.7,0.6,13.2c3.9,3.8,9.8,5.9,13.2,1.8c0.2-0.2,0.4-0.6,0.4-0.9c0-0.3,0-0.7-0.2-1
	c-0.2-0.3-0.4-0.5-0.7-0.7c-0.3-0.1-0.6-0.2-1-0.1c-2.4,0.1-4.2-0.6-3.3-2.3c0.9-1.7,4.6,1.6,5.9,1.6c3,0,4.2-2.2,3.5-4.1
	c-0.6-1.6-4.8-2.1-3.8-3.4c1.5-1.8,3.6,1,5.2-0.2c2.4-2,2-5.8,0.9-7.2c-0.9-1.1-4.3-2.8-7-1.7c-2.5,1-1.7,6.5-2.9,6.6
	c-2.2,0.1-0.4-4.7-2.2-6.1c-1-0.9-4.1-0.3-4.9,1.7c-1,2.7,2.7,7.7,0,8c-2.5,0.3-1-2.5-1.8-4.1C137.1,140.1,136.2,139.1,135.2,139.5
	L135.2,139.5z"/>
<path class="st5" d="M117.7,183.4L117.7,183.4c-0.1,0-0.2-0.1-0.2-0.1c0-0.1,0-0.1,0-0.2c6.1-18.4,18.5-34.2,34.9-44.4
	c0.1,0,0.1,0,0.2,0c0.1,0,0.1,0.1,0.2,0.1c0,0,0,0.1,0,0.1c0,0,0,0.1,0,0.1c0,0,0,0.1,0,0.1c0,0,0,0-0.1,0.1
	c-16.4,10.2-28.7,25.8-34.7,44.1c0,0.1,0,0.1-0.1,0.1C117.8,183.4,117.7,183.4,117.7,183.4L117.7,183.4z"/>
<path class="st4" d="M119.6,123.7c-4.1,4.3,1.7,10,6.5,11.5c5.2,1.6,11.4,0.8,12.6-4.3c0.1-0.3,0.1-0.7,0-1
	c-0.1-0.3-0.3-0.6-0.6-0.8c-0.3-0.2-0.6-0.3-0.9-0.3c-0.3,0-0.6,0.1-0.9,0.3c-2.1,1.1-4,1.4-4-0.6c0-2,4.8-0.6,6-1.2
	c2.7-1.3,2.7-3.9,1.3-5.3c-1.2-1.1-5.2,0.2-4.9-1.3c0.5-2.3,3.7-0.7,4.5-2.5c1.3-2.9-0.9-6.1-2.4-6.9c-1.3-0.6-5.1-0.6-7,1.6
	c-1.7,2.1,1.4,6.6,0.3,7.2c-1.9,1.1-2.5-4-4.7-4.4c-1.3-0.3-3.8,1.6-3.6,3.7c0.3,2.9,5.9,5.7,3.6,7.2c-2,1.4-2.1-1.8-3.4-2.9
	C121.7,123.4,120.4,122.9,119.6,123.7L119.6,123.7z"/>
<path class="st5" d="M123.6,170.8c-0.1,0-0.1,0-0.2-0.1c0,0-0.1-0.1-0.1-0.1c-2.8-19.2,1.1-38.8,11.3-55.4c0,0,0-0.1,0.1-0.1
	c0,0,0.1,0,0.1,0c0,0,0.1,0,0.1,0c0,0,0.1,0,0.1,0c0,0,0.1,0,0.1,0.1c0,0,0,0.1,0,0.1c0,0,0,0.1,0,0.1c0,0,0,0.1,0,0.1
	c-10.1,16.5-14,36-11.2,55.1c0,0,0,0.1,0,0.1c0,0,0,0.1,0,0.1C123.8,170.8,123.8,170.8,123.6,170.8
	C123.7,170.8,123.7,170.8,123.6,170.8L123.6,170.8z"/>
<path class="st4" d="M115.4,133.5c5.1,3.1,0.9,10.1-3.3,12.8c-4.6,2.9-10.8,3.7-13.3-0.9c-0.2-0.3-0.2-0.6-0.2-0.9
	c0-0.3,0.1-0.6,0.4-0.9c0.2-0.3,0.5-0.4,0.8-0.5c0.3-0.1,0.6-0.1,1,0c2.3,0.6,4.2,0.3,3.7-1.6c-0.5-1.9-4.8,0.7-6.2,0.4
	c-3-0.6-3.7-3.1-2.6-4.8c0.9-1.4,5.1-1.1,4.4-2.6c-1.1-2.1-3.8,0.3-5-1.3c-2-2.4-0.7-6.1,0.6-7.3c1.1-0.9,4.8-1.9,7.1-0.3
	c2.2,1.5,0.4,6.7,1.5,7c2.1,0.6,1.4-4.5,3.4-5.5c1.2-0.6,4.1,0.5,4.4,2.7c0.4,2.9-4.2,7-1.7,7.8c2.3,0.8,1.5-2.3,2.6-3.7
	C113.3,133.8,114.4,132.9,115.4,133.5z"/>
<path class="st5" d="M123.6,180.1c-0.1,0-0.1,0-0.2-0.1c0,0-0.1-0.1-0.1-0.2c-2.2-19.2-11.1-37-25.1-50.3c0,0-0.1-0.1-0.1-0.2
	c0-0.1,0-0.1,0.1-0.2c0,0,0.1-0.1,0.2-0.1c0.1,0,0.1,0,0.2,0c14.1,13.4,23,31.3,25.2,50.6c0,0.1,0,0.1-0.1,0.2
	C123.8,180.1,123.7,180.1,123.6,180.1L123.6,180.1z"/>
<path class="st3" d="M113.7,189.1h18.2l2.7-24.9h-23.8L113.7,189.1L113.7,189.1z"/>
<path class="st4" d="M134.7,168.6h-24c-0.2,0-0.3-0.1-0.4-0.2c-0.1-0.1-0.2-0.3-0.2-0.4l-0.3-3.1c0-0.2,0.1-0.4,0.2-0.5
	c0.1-0.1,0.3-0.2,0.5-0.2h24.6c0.2,0,0.3,0.1,0.5,0.2c0.1,0.1,0.2,0.3,0.2,0.5v0l-0.3,3.1c0,0.2-0.1,0.3-0.2,0.4
	S134.9,168.6,134.7,168.6z"/>
<path class="st3" d="M88.6,188.7c-0.2,0-0.3,0.1-0.4,0.2c-0.1,0.1-0.2,0.3-0.2,0.4v1.5c0,0.2,0.1,0.3,0.2,0.4
	c0.1,0.1,0.3,0.2,0.4,0.2h57.7c0.2,0,0.3-0.1,0.4-0.2c0.1-0.1,0.2-0.3,0.2-0.4v-1.5c0-0.2-0.1-0.3-0.2-0.4c-0.1-0.1-0.3-0.2-0.4-0.2
	H88.6z"/>
<path class="st4" d="M528.3,235.4h5v22h-5V235.4z"/>
<path class="st3" d="M548.6,258.4H513c0-1.1,0.5-2.1,1.5-2.9c1-0.8,2.3-1.2,3.7-1.2h25.2c1.4,0,2.7,0.4,3.7,1.2
	C548,256.3,548.6,257.3,548.6,258.4L548.6,258.4z"/>
<path class="st5" d="M548.8,238.9h-35.9c-0.4,0-0.8-0.1-1.2-0.2c-0.4-0.2-0.7-0.4-0.9-0.7c-0.2-0.3-0.4-0.6-0.4-0.9
	c0-0.3,0-0.7,0.2-1l10.9-19c0.2-0.4,0.5-0.6,0.9-0.9s0.9-0.3,1.4-0.3h14.2c0.5,0,1,0.1,1.4,0.3c0.4,0.2,0.7,0.5,0.9,0.9l10.9,19.1
	c0.2,0.3,0.2,0.6,0.2,1c0,0.3-0.2,0.6-0.4,0.9c-0.2,0.3-0.5,0.5-0.9,0.7C549.6,238.8,549.2,238.9,548.8,238.9z"/>
<path class="st4" d="M470.6,258.4h99.8v69.3h-99.8V258.4z"/>
<path class="st3" d="M479.2,263.7h81.7V288h-81.7V263.7z M479.2,293h81.7v28.1h-81.7V293z M474.7,327.7h8.9v6.1h-8.9V327.7z
	 M556.4,327.7h8.9v6.1h-8.9V327.7z"/>
<path class="st6" d="M487.3,302c2.4,0,4.4-1.5,4.4-3.4c0-1.9-2-3.4-4.4-3.4c-2.4,0-4.4,1.5-4.4,3.4C483,300.4,484.9,302,487.3,302z"
	/>
<path class="st4" d="M484.4,268.1l40.6,0l0,8.5l-40.6,0L484.4,268.1z"/>
<path class="st6" d="M492.8,276.9l44.7,0l0,11.1l-44.7,0L492.8,276.9z"/>
<path class="st7" d="M374.4,204.7c-1.3-1.3-2.9-2.2-4.7-2.7c-1.8-0.4-3.6-0.3-5.4,0.3c-1,0.3-1.9,0.8-2.8,1.6
	c-0.4,0.4-0.8,0.9-1,1.4c-0.3,0.5-0.4,1.1-0.5,1.7c2.3,0.8,4.8,1.1,7.3,0.7C369.8,207.2,372.2,206.2,374.4,204.7L374.4,204.7z"/>
<path class="st7" d="M366.2,206.2c0.2,0.5,1.3,0.6,3.4,0.5c1-0.1,2.2-0.1,3.6-0.4c1.4-0.2,3-0.4,4.8-0.7c1.8-0.3,3.7-0.7,5.7-1.1
	c2.1-0.4,4.2-1,6.5-1.6c2.3-0.7,4.7-1.4,7.2-2.3c2.6-1,5.1-2.1,7.5-3.3c2.5-1.3,4.9-2.7,7.2-4.2c2.1-1.5,4.2-3.1,6-4.9
	c0.9-0.9,1.7-1.7,2.5-2.6c0.4-0.4,0.8-0.9,1.1-1.3c0.3-0.4,0.7-0.9,1-1.3c0.3-0.4,0.6-0.9,0.9-1.3c0.3-0.4,0.6-0.9,0.8-1.3
	c0.5-0.9,1-1.8,1.4-2.6c0.7-1.5,1.2-3.1,1.6-4.8c0.1-0.7,0.2-1.4,0.3-2.1c0-0.6,0-1.2,0-1.8c0-0.3,0-0.5-0.1-0.8
	c-0.1-0.2-0.1-0.5-0.2-0.7c-0.1-0.4-0.3-0.8-0.5-1.1c-0.2-0.3-0.4-0.5-0.6-0.7c-0.3-0.2-0.6-0.3-0.9-0.4c-0.7-0.1-1.3,0-1.9,0.2
	c-0.4,0.2-0.7,0.4-1.1,0.6c-0.2,0.1-0.4,0.2-0.5,0.4c-0.2,0.1-0.4,0.3-0.6,0.4c-0.4,0.3-0.8,0.7-1.2,1c-0.4,0.4-0.8,0.8-1.3,1.2
	c-0.9,0.9-1.8,1.8-2.8,2.9c-0.5,0.5-1.1,1.1-1.6,1.7l-0.9,0.9c-0.3,0.3-0.6,0.6-0.9,0.9l-0.9,0.9c-0.3,0.3-0.7,0.6-1,0.9
	c-0.7,0.6-1.4,1.3-2.1,1.9c-1.5,1.3-3.1,2.6-4.8,4c-1.7,1.4-3.6,2.7-5.5,4c-2,1.3-4,2.6-6,3.8c-2,1.2-4,2.3-5.9,3.4
	c-1.9,1.1-3.8,2-5.6,3l-5,2.6c-1.5,0.8-2.9,1.5-4.1,2.2c-1.2,0.7-2.3,1.3-3.1,1.8C366.9,205,366,205.8,366.2,206.2L366.2,206.2z"/>
<rect x="101" y="225" class="st8" width="141" height="131"/>
<rect x="106" y="331" class="st9" width="131" height="20"/>
<rect x="106" y="305" class="st9" width="131" height="20"/>
<rect x="106" y="280" class="st9" width="131" height="20"/>
<rect x="106" y="255" class="st9" width="131" height="20"/>
<rect x="106" y="230" class="st9" width="131" height="20"/>
<path class="st10" d="M199,261.5c0,0.8-0.7,1.5-1.6,1.5h-48.7c-0.9,0-1.6-0.7-1.6-1.5s0.7-1.5,1.6-1.5h48.7
	C198.3,260,199,260.7,199,261.5z"/>
<path class="st10" d="M199,286.5c0,0.8-0.7,1.5-1.6,1.5h-48.7c-0.9,0-1.6-0.7-1.6-1.5s0.7-1.5,1.6-1.5h48.7
	C198.3,285,199,285.7,199,286.5z"/>
<path class="st10" d="M199,311.5c0,0.8-0.7,1.5-1.6,1.5h-48.7c-0.9,0-1.6-0.7-1.6-1.5s0.7-1.5,1.6-1.5h48.7
	C198.3,310,199,310.7,199,311.5z"/>
<path class="st10" d="M199,336.5c0,0.8-0.7,1.5-1.6,1.5h-48.7c-0.9,0-1.6-0.7-1.6-1.5s0.7-1.5,1.6-1.5h48.7
	C198.3,335,199,335.7,199,336.5z"/>
<path class="st10" d="M199,236.5c0,0.8-0.7,1.5-1.6,1.5h-48.7c-0.9,0-1.6-0.7-1.6-1.5s0.7-1.5,1.6-1.5h48.7
	C198.3,235,199,235.7,199,236.5z"/>
<rect x="239" y="225" class="st8" width="141" height="131"/>
<rect x="244" y="331" class="st9" width="131" height="20"/>
<rect x="244" y="305" class="st9" width="131" height="20"/>
<rect x="244" y="280" class="st9" width="131" height="20"/>
<rect x="244" y="255" class="st9" width="131" height="20"/>
<rect x="244" y="230" class="st9" width="131" height="20"/>
<path class="st10" d="M337,261.5c0,0.8-0.7,1.5-1.6,1.5h-48.7c-0.9,0-1.6-0.7-1.6-1.5s0.7-1.5,1.6-1.5h48.7
	C336.3,260,337,260.7,337,261.5z"/>
<path class="st10" d="M337,286.5c0,0.8-0.7,1.5-1.6,1.5h-48.7c-0.9,0-1.6-0.7-1.6-1.5s0.7-1.5,1.6-1.5h48.7
	C336.3,285,337,285.7,337,286.5z"/>
<path class="st10" d="M337,311.5c0,0.8-0.7,1.5-1.6,1.5h-48.7c-0.9,0-1.6-0.7-1.6-1.5s0.7-1.5,1.6-1.5h48.7
	C336.3,310,337,310.7,337,311.5z"/>
<path class="st10" d="M337,336.5c0,0.8-0.7,1.5-1.6,1.5h-48.7c-0.9,0-1.6-0.7-1.6-1.5s0.7-1.5,1.6-1.5h48.7
	C336.3,335,337,335.7,337,336.5z"/>
<path class="st10" d="M337,236.5c0,0.8-0.7,1.5-1.6,1.5h-48.7c-0.9,0-1.6-0.7-1.6-1.5s0.7-1.5,1.6-1.5h48.7
	C336.3,235,337,235.7,337,236.5z"/>
<path class="st11" d="M219.8,215v-9h-32.3c-0.9,2.8-0.9,6.2,0,9H219.8z"/>
<path class="st12" d="M217,225v-10h-32.3c-0.9,3.2-0.9,6.8,0,10H217z"/>
<path class="st13" d="M123,215h33v10h-33V215z"/>
<path class="st14" d="M127,217h29v6h-29V217z"/>
<path class="st15" d="M125,206h29v9h-29V206z"/>
<path class="st14" d="M128,208h26v5h-26V208z"/>
<path class="st16" d="M316.9,195.9c-8.2-8.7-11.7-18.8-7.7-22.5c3.9-3.7,13.8,0.3,22,9c8.2,8.7,11.7,18.8,7.7,22.5
	C335,208.6,325.1,204.6,316.9,195.9z"/>
<path class="st16" d="M338.1,204.8c-3.9-3.8-0.3-13.8,8-22.4c8.3-8.6,18.2-12.5,22.1-8.7c3.9,3.8,0.3,13.8-8,22.4
	C351.9,204.7,342,208.6,338.1,204.8z"/>
<path class="st17" d="M338.6,205c-6.8,0-12.2-12.1-12.1-27c0.1-14.9,5.6-26.9,12.4-26.9c6.8,0,12.2,12.1,12.1,27
	C350.9,193,345.4,205,338.6,205z"/>
<path class="st13" d="M338.2,225.4c2,0,3.9-0.3,5.7-1c1.8-0.7,3.5-1.7,4.9-3c1.4-1.3,2.5-2.8,3.3-4.5c0.8-1.7,1.2-3.5,1.2-5.4v-2.4
	c0-0.6-0.1-1.2-0.4-1.7c-0.2-0.5-0.6-1-1-1.5c-0.4-0.4-1-0.8-1.6-1c-0.6-0.2-1.2-0.3-1.8-0.3l-20.4-0.1c-1.3,0-2.5,0.5-3.4,1.3
	c-0.9,0.8-1.4,2-1.4,3.2v2.3c0,1.8,0.4,3.7,1.1,5.4c0.7,1.7,1.8,3.3,3.2,4.6c1.4,1.3,3,2.4,4.8,3.1
	C334.3,225,336.2,225.4,338.2,225.4L338.2,225.4z"/>
<path class="st2" d="M409.2,185.3c-0.7,11.3-0.7,22.7,0,34c10.8,3.6,22.3,4.5,33.6,2.7c0.8-11.5,1.5-23.1,1.5-34.6
	c0-6.1-0.2-12.2-1.9-18c-1.4-5.2-4.4-9.9-8.7-13.2c-0.5-0.4-1-0.7-1.5-1c-2.5,2.1-7.9,2.9-10.8,1.5c-1.6,1-3,2.3-4.2,3.8
	c-2.2,2.7-3.9,5.7-5,9C410.4,174.6,409.4,179.9,409.2,185.3L409.2,185.3z"/>
<path class="st18" d="M417.2,161c2.9,0.8,5.9,0.8,8.8,0.1c1.5-0.4,3-1,4.4-1.8c1.1-0.6,2.1-1.4,3.1-2.2l0.1-0.7v-0.3l-0.2-1
	c-0.6-3.3-1-6.6-1.5-10c-0.4-3.1-0.8-6.2-1.2-9.2c-3.4,1.7-6.6,3.7-9.7,6.1c0,2.1-0.2,4.1-0.3,6.2c-0.1,1.7-0.3,3.5-0.6,5.2
	c-0.1,1-0.3,1.9-0.5,2.9c-0.2,1-0.3,1.8-0.5,2.7C418.4,159.7,417.8,160.3,417.2,161L417.2,161z"/>
<path class="st19" d="M420,153.1c3.4-3.2,7.3-5.9,11.4-8.1c-0.4-3-0.8-6-1.2-9c-3.3,1.7-6.4,3.7-9.3,5.9c0,2-0.2,4-0.3,6.1
	C420.5,149.6,420.3,151.4,420,153.1z"/>
<path class="st20" d="M482.9,322c0,0,0,7.9-7.3,7.6l-1.3,28l20-33.4L482.9,322z"/>
<path class="st2" d="M479.9,341.2c0-0.2-0.1-0.3-0.2-0.4c-0.1-0.1-0.3-0.1-0.5-0.1c-1.6,0.2-3.2,0.6-4.6,1.2
	c-0.2,0.1-0.3,0.2-0.3,0.4c-0.1,0.2-0.1,0.3,0,0.5c0,0.1,0.1,0.1,0.1,0.2c0.1,0.1,0.1,0.1,0.2,0.1c0.2,0,0.3,0,0.5,0
	c1.3-0.6,2.7-0.9,4.2-1.1c0.1,0,0.2-0.1,0.3-0.1c0.1-0.1,0.2-0.1,0.2-0.2C479.9,341.4,479.9,341.3,479.9,341.2L479.9,341.2z
	 M480.1,337.7c0-0.1,0-0.2-0.1-0.2c0-0.1-0.1-0.1-0.2-0.2c-0.1-0.1-0.1-0.1-0.2-0.1c-0.1,0-0.2,0-0.2,0c-1.6,0.2-3.2,0.6-4.6,1.2
	c-0.1,0-0.1,0.1-0.2,0.2c-0.1,0.1-0.1,0.1-0.1,0.2c-0.1,0.2-0.1,0.3,0,0.5c0,0.1,0.1,0.1,0.2,0.2s0.1,0.1,0.2,0.1c0.1,0,0.2,0,0.2,0
	c0.1,0,0.2,0,0.2-0.1c1.3-0.6,2.7-1,4.2-1.1c0.1,0,0.2-0.1,0.3-0.1c0.1-0.1,0.2-0.1,0.2-0.2C480.1,337.9,480.2,337.8,480.1,337.7
	L480.1,337.7z M480.4,334.1c0-0.1,0-0.2-0.1-0.2c0-0.1-0.1-0.1-0.2-0.2c-0.1-0.1-0.3-0.1-0.4-0.1c-1.6,0.2-3.2,0.6-4.6,1.2
	c-0.1,0.1-0.3,0.2-0.3,0.4c-0.1,0.2-0.1,0.3,0,0.5c0.1,0.1,0.2,0.2,0.4,0.3c0.2,0,0.3,0,0.5,0c1.3-0.6,2.7-1,4.2-1.1
	c0.1,0,0.2-0.1,0.3-0.1c0.1-0.1,0.2-0.1,0.2-0.3C480.4,334.4,480.4,334.2,480.4,334.1L480.4,334.1z M478.2,357.9
	c-0.1,0.1-0.2,0.2-0.3,0.3c-0.1,0.1-0.2,0.1-0.4,0.2c-0.1,0-0.3,0-0.4,0c-0.1,0-0.3-0.1-0.4-0.1l-2.1-1.2l19.8-33.6l2.1,1.2
	c0.1,0.1,0.2,0.2,0.3,0.3c0.1,0.1,0.1,0.2,0.2,0.4c0,0.1,0,0.3,0,0.4c0,0.1-0.1,0.3-0.1,0.4L478.2,357.9z"/>
<path class="st20" d="M403.4,349.9c0,0-7,3.8-10-2.9L368,359.5l38.5,1.8L403.4,349.9z"/>
<path class="st2" d="M383.8,356.7c0.1,0.1,0.2,0.1,0.3,0.1s0.2,0,0.3-0.1c0.1,0,0.1-0.1,0.2-0.2s0.1-0.1,0.1-0.2c0-0.1,0-0.2,0-0.2
	c0-0.1-0.1-0.2-0.1-0.2c-0.9-1.4-1.9-2.6-3.2-3.6c-0.1-0.1-0.3-0.1-0.5-0.1c-0.2,0-0.3,0.1-0.4,0.3c0,0.1-0.1,0.1-0.1,0.2
	c0,0.1,0,0.2,0,0.2c0,0.1,0,0.2,0.1,0.2c0,0.1,0.1,0.1,0.2,0.2c1.1,0.9,2.1,2,2.9,3.2C383.6,356.6,383.7,356.6,383.8,356.7
	L383.8,356.7z M386.9,355.2c0.1,0.1,0.2,0.1,0.3,0.1s0.2,0,0.3-0.1c0.1,0,0.1-0.1,0.2-0.2c0-0.1,0.1-0.1,0.1-0.2c0-0.1,0-0.2,0-0.2
	c0-0.1,0-0.2-0.1-0.2c-0.9-1.4-1.9-2.6-3.2-3.6c-0.1-0.1-0.1-0.1-0.2-0.1c-0.1,0-0.2,0-0.3,0c-0.1,0-0.2,0-0.2,0.1
	c-0.1,0-0.1,0.1-0.2,0.2c-0.1,0.1-0.1,0.3-0.1,0.5s0.1,0.3,0.2,0.4c1.1,0.9,2.1,2,2.9,3.2C386.7,355.1,386.8,355.2,386.9,355.2
	L386.9,355.2z M390.2,353.7c0.1,0.1,0.2,0.1,0.4,0c0.1,0,0.2-0.1,0.3-0.2c0.1-0.1,0.1-0.2,0.1-0.4c0-0.1,0-0.3-0.1-0.4
	c-0.9-1.4-1.9-2.6-3.2-3.6c-0.1-0.1-0.3-0.1-0.5-0.1c-0.2,0-0.3,0.1-0.4,0.3c0,0.1-0.1,0.1-0.1,0.2c0,0.1,0,0.2,0,0.2
	c0,0.2,0.1,0.3,0.2,0.4c1.1,0.9,2.1,2,2.9,3.2C390,353.6,390,353.7,390.2,353.7L390.2,353.7z M368.7,363c-0.3-0.2-0.5-0.4-0.7-0.7
	c-0.1-0.2-0.1-0.3-0.1-0.5l0.1-2.2l38.4,1.8l-0.1,2.2c0,0.2-0.1,0.3-0.1,0.5c-0.1,0.2-0.2,0.3-0.3,0.4c-0.2,0.2-0.6,0.4-0.9,0.4
	l-35.9-1.6C369.1,363.2,368.9,363.1,368.7,363L368.7,363z"/>
<path class="st15" d="M443.8,228.6c0,0-9.1,53.6,45.4,91.7l-14.7,15.9c0,0-61-41.7-54.8-95.4L443.8,228.6z"/>
<path class="st21" d="M445.7,260.2c-0.8,1.1-1.7,2.2-2.5,3.4c-2,3.1-3.8,6.3-5.3,9.7c-2.6,5.6-4.8,11.4-6.5,17.4
	c-8.3-14.4-13.8-31.4-11.7-49.7l23.8-12.3C443.6,228.6,441.3,242,445.7,260.2L445.7,260.2z"/>
<path class="st22" d="M408.9,175.9c-2.3,19-2.6,38.1-0.8,57.2c0,0-29.9,58.6-23.4,117.5l22.9,5.7c0,0,5.2-77.3,36.2-116.5L445,201
	l-24.6-4l-2.1-20.7L408.9,175.9z"/>
<path class="st15" d="M443.4,205.1c0.2,0,0.4-0.2,0.7-0.8c0.2-0.3,0.3-0.6,0.4-1c0.1-0.4,0.3-0.8,0.4-1.3c0.1-0.3,0.2-0.5,0.2-0.8
	c0.1-0.3,0.1-0.6,0.2-0.9c0.1-0.3,0.1-0.6,0.2-1c0.1-0.4,0.1-0.7,0.2-1.1c0.1-0.4,0.1-0.8,0.2-1.2l0.2-1.2c0.1-0.8,0.2-1.8,0.3-2.7
	c0.1-2.1,0.1-4.2,0-6.3c-0.1-2.4-0.3-4.8-0.7-7.2c-0.4-2.6-1-5.2-1.7-7.7c-0.7-2.9-1.9-5.6-3.5-8.1c-0.9-1.3-1.9-2.6-3.2-3.6
	c-1.2-1.1-2.6-1.9-4.2-2.4c-0.8-0.3-1.6-0.5-2.4-0.6h-2.4c-1.5,0.1-2.9,0.5-4.3,1.2c-1.2,0.6-2.4,1.3-3.4,2.2
	c-0.2,0.2-0.5,0.4-0.7,0.6l-0.7,0.7l-0.6,0.7c-0.2,0.2-0.4,0.5-0.5,0.8c-0.7,0.9-1.3,1.9-1.7,3c-0.4,1-0.8,1.9-1.1,2.9
	c-0.5,1.7-0.8,3.4-0.9,5.1c-0.1,1.3-0.2,2.6-0.2,3.9c0,2.1,0.2,3.3,0.4,3.3c0.2,0,0.5-1.1,0.8-3.2c0.2-1,0.4-2.3,0.7-3.7
	c0.3-1.6,0.8-3.2,1.3-4.7c0.7-1.8,1.6-3.4,2.8-4.9c0.2-0.2,0.3-0.4,0.5-0.6l0.5-0.5l0.6-0.5c0.2-0.2,0.4-0.3,0.6-0.5
	c0.8-0.6,1.7-1.1,2.7-1.5c1-0.4,2-0.6,3.1-0.7h1.7c0.5,0.1,1.1,0.2,1.5,0.4c2.2,1,4,2.6,5.1,4.6c1.3,2.2,2.3,4.6,2.9,7.1
	c0.7,2.5,1.3,5,1.7,7.3c0.4,2.4,0.7,4.6,0.9,6.7c0.2,2.1,0.3,4.1,0.4,5.9v10.1c0,0.3,0,0.7,0.1,1C443.1,204.7,443.2,205,443.4,205.1
	L443.4,205.1z"/>
<path class="st22" d="M419.3,112.5c0.3-1.2,0.9-2.4,1.8-3.3c0.8-1,1.8-1.7,3-2.2c2.3-1,4.9-1.2,7.3-0.5c1.2,0.3,2.4,0.8,3.5,1.4
	c1.1,0.7,2.1,1.5,3,2.5c0.9,1,1.5,2.1,2,3.3c0.5,1.2,0.8,2.5,0.8,3.8c0.1,4.2-2.1,7.9-4.3,11.4C432,122.1,426.2,116.5,419.3,112.5z"
	/>
<path class="st21" d="M416.3,107.8c-1.1-0.8-2.5-1.2-3.9-1.1c-0.5,0.1-0.9,0.3-1.3,0.6c-0.4,0.3-0.7,0.6-1,1
	c-0.3,0.4-0.5,0.8-0.6,1.3c-0.1,0.5-0.2,0.9-0.1,1.4c0.1,0.9,0.4,1.9,0.9,2.7c0.5,0.8,1.1,1.6,1.8,2.2c0.5,0.5,1.1,1,1.7,1.4
	c0.6,0.4,1.3,0.8,1.9,1.2c1.4,0.7,2.8,1.2,4.3,1.5c0.7,0.1,1.5,0.2,2.3,0.3c1.5,0.1,3-0.1,4.5-0.5c0.7-0.2,1.5-0.4,2.2-0.7
	c0.7-0.3,2.6-0.9,3-1.6c0.6-1.2-0.7-1.3-1.7-1.9C425.6,112.9,421,110.4,416.3,107.8L416.3,107.8z"/>
<path class="st20" d="M417.6,122.2c0.3-0.1,0.6-0.1,0.9,0c0.3,0.1,0.6,0.2,0.8,0.4c0.2,0.3,0.3,0.6,0.4,0.9c0.1,0.3,0,0.7-0.1,1
	c-0.4,2.5-1.3,4.9-2.7,6.9c-0.5-0.6-0.9-1.3-1.2-2c-0.6-1.4-0.9-3-0.7-4.5c0.1-0.8,0.2-1.5,0.5-2.2
	C416.2,122.9,416.9,122.3,417.6,122.2L417.6,122.2z M429,133.1c-0.3-2.7-0.2-5.5,0.3-8.2c0.6-3,1.7-5.8,3.4-8.3
	c1.3,1.2,2.3,2.5,3.2,4c0.7,1.7,1.1,3.5,1.2,5.4c0.1,0.9,0.1,1.8,0,2.8c-0.1,0.9-0.2,1.8-0.4,2.7c-0.2,0.9-0.5,1.8-0.8,2.6
	c-0.3,0.9-0.7,1.7-1.2,2.5c-0.5,0.8-1,1.5-1.5,2.3c-0.6,0.7-1.2,1.4-1.9,2C430,138.5,429.3,135.8,429,133.1L429,133.1z"/>
<path class="st18" d="M417.5,121.6c0.6,3.3-0.9,6.6-2.1,9.8s-2.4,6.7-1.2,9.8c0.4,0.8,0.8,1.5,1.4,2.2c0.6,0.6,1.3,1.2,2,1.6
	c0.7,0.4,1.6,0.7,2.4,0.9c0.8,0.2,1.7,0.2,2.5,0c1.7-0.3,3.3-1,4.6-2.1c1.4-1.1,2.5-2.4,3.2-4c0.8-1.6,1.3-3.3,1.6-5
	c0.3-1.7,0.3-3.5,0.1-5.3c-0.4-3.5-1.1-7-2.1-10.3C425.8,117,421,118.5,417.5,121.6L417.5,121.6z"/>
<path class="st18" d="M431.6,130.4c0.4-0.5,0.8-0.9,1.4-1.2c0.3-0.2,0.6-0.3,0.9-0.3c0.3,0,0.6,0,0.9,0.1c0.4,0.1,0.7,0.4,1,0.7
	c0.3,0.3,0.5,0.7,0.6,1.1c0.1,0.4,0.2,0.8,0.2,1.2c0,0.4,0,0.8-0.2,1.2c-0.1,0.4-0.3,0.7-0.5,1.1c-0.2,0.3-0.5,0.6-0.8,0.9
	c-0.3,0.3-0.6,0.5-1,0.6c-0.4,0.2-0.7,0.2-1.1,0.3c-0.4,0-0.8,0-1.1-0.1c-0.4-0.1-0.7-0.2-1.1-0.4
	C431.2,133.8,431.5,132.1,431.6,130.4L431.6,130.4z"/>
<path class="st23" d="M415.2,124.2c5,0.2,9.9-1.1,14.2-3.6c-0.4,1.4-0.4,3,0,4.4c0.3,1,0.8,2,1.4,2.9c0.6,0.9,1.4,1.7,2.3,2.3
	c2-2.8,2.9-6.2,2.5-9.6c0-0.4-0.1-0.8-0.3-1.2c-0.7-0.9-1.5-1.8-2.3-2.6c-1.3-1.2-2.9-2.2-4.6-2.8c-1.1-0.4-2.3-0.7-3.5-0.8
	c-2.4-0.3-4.8-0.1-7.1,0.7c-1.1,0.4-2.2,0.9-3.2,1.5c-0.4,0.3-0.7,0.6-1,0.9c-0.8,0.8-1.4,1.8-1.9,2.8c-0.1,0.2-0.1,0.5-0.2,0.7
	c0,0.3-0.1,0.5,0,0.8c0,0.2,0,0.5,0.1,0.7c0.1,0.2,0.1,0.5,0.3,0.7c0.1,0.2,0.2,0.4,0.4,0.6c0.1,0.2,0.3,0.4,0.5,0.6
	c0.2,0.2,0.4,0.3,0.6,0.4c0.2,0.1,0.4,0.2,0.7,0.3C414.4,124.2,414.8,124.2,415.2,124.2L415.2,124.2z"/>
<path class="st24" d="M382.4,212.2c-0.5-1.6-1.7-2.9-3.2-3.8c-1.5-0.9-3.2-1.2-5-1c-1.7,0.2-3.3,1-4.4,2.2c-1.1,1.2-1.7,2.8-1.7,4.4
	C372.9,215.5,378.2,214.5,382.4,212.2z"/>
<path class="st24" d="M375.3,210.8c0.3,0.2,0.7,0.4,1,0.6c0.2,0.1,0.4,0.2,0.7,0.3c0.3,0.1,0.5,0.2,0.8,0.3c0.6,0.2,1.2,0.4,1.9,0.7
	c0.7,0.2,1.5,0.4,2.4,0.6c0.9,0.2,1.8,0.4,2.8,0.5c1,0.2,2.1,0.3,3.2,0.4l0.9,0.1l0.9,0l1.9,0.1c0.6,0,1.3,0,1.9,0
	c0.7,0,1.3,0,2-0.1l2.1-0.2c0.4-0.1,0.7-0.1,1.1-0.1l1.1-0.2c0.7-0.1,1.5-0.2,2.2-0.4l2.3-0.5c0.8-0.1,1.5-0.4,2.3-0.6
	c0.8-0.2,1.6-0.5,2.4-0.8l2.4-0.9l2.4-1.1c3.3-1.6,6.5-3.5,9.4-5.8c2.9-2.3,5.4-4.9,7.6-7.8c0.5-0.7,1-1.4,1.5-2.1
	c0.5-0.7,0.9-1.5,1.3-2.2c0.4-0.7,0.8-1.5,1.2-2.2c0.4-0.7,0.7-1.4,1-2.2c0.3-0.7,0.6-1.5,0.9-2.2c0.3-0.7,0.5-1.4,0.7-2.2
	c0.1-0.4,0.2-0.7,0.3-1.1c0.1-0.3,0.2-0.7,0.2-1.1c0.1-0.6,0.3-1.2,0.4-1.8c-6.4-0.2-12.3-2.6-16.9-6.6c-0.1,0.2-0.1,0.4-0.2,0.6
	c-0.1,0.4-0.3,0.8-0.4,1.3c-0.1,0.4-0.3,0.9-0.4,1.3c-0.1,0.4-0.3,0.9-0.5,1.3l-0.2,0.7l-0.3,0.7c-0.2,0.5-0.3,0.9-0.5,1.4
	c-0.2,0.5-0.4,0.9-0.6,1.4c-0.2,0.5-0.4,1-0.6,1.4c-0.2,0.5-0.4,1-0.7,1.5c-0.3,0.5-0.5,1-0.7,1.5c-0.2,0.5-0.6,1-0.8,1.5
	c-1.2,2-2.5,4-4.1,5.8c-1.6,1.9-3.4,3.6-5.3,5.3l-1.4,1.2l-1.5,1.1c-0.5,0.4-1,0.7-1.5,1c-0.5,0.3-1,0.7-1.6,1l-1.6,0.9
	c-0.5,0.3-1.1,0.5-1.6,0.8l-0.8,0.4c-0.3,0.1-0.5,0.2-0.8,0.3l-1.6,0.7c-0.5,0.2-1,0.4-1.6,0.6c-0.5,0.2-1,0.4-1.5,0.5l-1.5,0.5
	c-0.3,0-0.5,0.2-0.8,0.2l-0.7,0.2c-1,0.2-1.9,0.5-2.8,0.6c-0.9,0.1-1.7,0.4-2.5,0.4s-1.5,0.2-2.2,0.3c-0.7,0.1-1.3,0.1-1.9,0.2
	l-0.8,0.1l-0.7,0.1c-0.4,0-0.8,0.1-1.2,0.2c-0.7,0.1-1,0.3-1.1,0.5C374.5,210.2,374.8,210.5,375.3,210.8L375.3,210.8z"/>
</svg>
