<svg version="1.1" xmlns="http://www.w3.org/2000/svg" width="40" height="40" viewBox="0 0 40 40">
<style type="text/css">
	.st0{fill:url(#SVGID_1_);}
</style>
<linearGradient id="SVGID_1_" gradientUnits="userSpaceOnUse" x1="0" y1="20" x2="40" y2="20">
	<stop  offset="0" style="stop-color:#EC8A5B"/>
	<stop  offset="1" style="stop-color:#F8D568"/>
</linearGradient>
<path class="st0" d="M0,21c0-0.7,0-1.3,0-2c0-0.1,0-0.2,0-0.2c0.1-1.6,0.4-3.2,0.9-4.8C2.5,9.1,5.5,5.3,10,2.7
	c2.4-1.4,5-2.3,7.8-2.6C18.2,0.1,18.6,0,19,0c0.7,0,1.3,0,2,0c0.1,0,0.2,0,0.2,0c2.1,0.1,4.2,0.6,6.2,1.4C31.7,3.2,35,6,37.3,10
	c1.4,2.4,2.3,5,2.6,7.8c0,0.4,0.1,0.8,0.1,1.2c0,0.6,0,1.3,0,1.9c0,0.1,0,0.2,0,0.3c-0.1,1-0.2,1.9-0.4,2.9c-1.1,5-3.7,9.1-7.9,12.1
	c-2.7,2-5.8,3.2-9.1,3.6c-0.5,0.1-1.1,0.1-1.6,0.2c-0.6,0-1.3,0-1.9,0c-0.1,0-0.1,0-0.2,0c-2-0.1-3.9-0.5-5.7-1.2
	C9.4,37.4,6.3,35.1,4,32c-2.2-2.9-3.5-6.2-3.9-9.8C0.1,21.8,0,21.4,0,21z M3.3,19.1c0.1,0,0.2,0,0.3,0c0.9,0,1.7,0,2.6,0
	c0.4,0,0.7,0.2,0.8,0.6c0.2,0.6-0.2,1.1-0.8,1.1c-0.9,0-1.7,0-2.6,0c-0.1,0-0.2,0-0.2,0c0.1,3.2,1.4,7.8,5.3,11.4
	c3,2.8,6.5,4.2,10.5,4.5c0-0.1,0-0.2,0-0.3c0-0.9,0-1.8,0-2.7c0-0.5,0.4-0.9,0.9-0.9c0.5,0,0.8,0.4,0.8,0.9c0,0.9,0,1.8,0,2.7
	c0,0.1,0,0.2,0,0.3c4.6-0.3,8.4-2.1,11.5-5.4c2.7-2.9,4.1-6.4,4.4-10.4c-0.1,0-0.2,0-0.3,0c-0.9,0-1.7,0-2.6,0
	c-0.5,0-0.9-0.4-0.9-0.9c0-0.5,0.4-0.8,0.9-0.8c0.9,0,1.7,0,2.6,0c0.1,0,0.2,0,0.2,0c-0.1-3.1-1.4-7.6-5.1-11.2
	c-3-2.8-6.6-4.4-10.7-4.6c0,0.1,0,0.2,0,0.3c0,0.9,0,1.9,0,2.8c0,0.5-0.3,0.9-0.8,0.9c-0.5,0-0.9-0.4-0.9-0.9c0-0.6,0-1.2,0-1.8
	c0-0.4,0-0.8,0-1.3C15,3.6,11.5,5,8.5,7.9C5.3,10.9,3.6,14.7,3.3,19.1z M21.6,21.1c0-0.2,0.1-0.2,0.3-0.3c2.4-1,4.8-2.1,7.2-3.1
	c0.4-0.2,0.9-0.4,1.3-0.6c0.3-0.2,0.5-0.5,0.5-0.9c-0.1-0.4-0.3-0.7-0.7-0.7c-0.2,0-0.4,0-0.6,0.1c-2.8,1.2-5.6,2.4-8.3,3.6
	c-0.2,0.1-0.3,0.1-0.5,0c-0.6-0.3-1.1-0.3-1.6,0.1c-0.1,0.1-0.2,0.1-0.4,0c-2.8-1.1-5.6-2.2-8.4-3.3c-0.5-0.2-1,0-1.2,0.5
	c-0.2,0.5,0,0.9,0.5,1.1c1.6,0.6,3.2,1.3,4.8,1.9c1.3,0.5,2.5,1,3.8,1.5c0.1,0,0.2,0.1,0.2,0.2c0.2,0.7,0.8,1.1,1.5,1.1
	C20.8,22.3,21.4,21.8,21.6,21.1z"/>
</svg>
