<?xml version="1.0" encoding="utf-8"?>
<!-- Generator: Adobe Illustrator 24.2.3, SVG Export Plug-In . SVG Version: 6.00 Build 0)  -->
<svg version="1.1" id="Слой_1" xmlns="http://www.w3.org/2000/svg" xmlns:xlink="http://www.w3.org/1999/xlink" x="0px" y="0px"
	 viewBox="0 0 630 390" style="enable-background:new 0 0 630 390;" xml:space="preserve">
<style type="text/css">
	.st0{fill:#EAF1FC;}
	.st1{fill:#F8F8FF;}
	.st2{fill:#E9EDF4;}
	.st3{fill:#D6E0F0;}
	.st4{fill:#ECF7FE;}
	.st5{fill:#FFFFFF;}
	.st6{fill:#D4E2FF;}
	.st7{fill:#F3F3FF;}
	.st8{fill:#CDE4F7;}
	.st9{fill:#64CE38;}
	.st10{fill:#289917;}
	.st11{fill:#FFDA35;}
	.st12{fill:#EAB624;}
	.st13{fill:#E08F73;}
	.st14{fill:#EBBC8F;}
	.st15{fill:#DDAF8A;}
	.st16{fill:#FBCC99;}
	.st17{fill:#FCDBA4;}
	.st18{fill:#02819F;}
	.st19{fill:#05616B;}
	.st20{fill:#F09976;}
	.st21{fill:#E8815F;}
	.st22{fill:#0B2B46;}
	.st23{fill:#047487;}
	.st24{fill:#FF8500;}
	.st25{fill:#AF7309;}
	.st26{fill:#A97000;}
	.st27{fill:#F4A721;}
</style>
<path class="st0" d="M314.7,386.9c173.8,0,314.7-21.9,314.7-49c0-27.1-140.9-49-314.7-49S0,310.9,0,337.9
	C0,365,140.9,386.9,314.7,386.9z"/>
<path class="st1" d="M572.8,317c35.9-74.6,55.6-217.4-22.1-264.8c-50.9-31-103.9,8.9-158.3,10.7C349.7,64.4,308.5,30.6,270,21
	C169-4.3,10.2,61.4,80,317C254.7,316.6,398.2,317.5,572.8,317L572.8,317z"/>
<path class="st2" d="M28,100h114.5v206.6H28V100z"/>
<path class="st3" d="M36.3,108.4h97.9v40.3H36.3V108.4z M36.3,158.3h97.9v40.3H36.3V158.3z M36.3,208.1h97.9v40.3H36.3V208.1z
	 M36.3,257.9h97.9v40.3H36.3V257.9z M143.4,100H27c-2.7,0-4.9-2.2-4.9-4.9v-0.3c0-2.7,2.2-4.9,4.9-4.9h116.3c2.7,0,4.9,2.2,4.9,4.9
	v0.3C148.3,97.8,146.1,100,143.4,100z M143.4,316.8H27c-2.7,0-4.9-2.2-4.9-4.9v-0.3c0-2.7,2.2-4.9,4.9-4.9h116.3
	c2.7,0,4.9,2.2,4.9,4.9v0.3C148.3,314.6,146.1,316.8,143.4,316.8z M30.4,316.8l-3.7,14.4h8.9L46,316.8H30.4z M140,316.8l3.7,14.4
	h-8.9l-10.5-14.4H140z"/>
<path class="st2" d="M43.3,198.6h5.5V167c0,0-1.2-0.6-2.8-0.6c-1.5,0-2.8,0.6-2.8,0.6L43.3,198.6L43.3,198.6z"/>
<path class="st2" d="M53.8,198.3l6.2-1l-5-31.2c0,0-1.5-0.4-3.2-0.1c-1.7,0.3-3,1.1-3,1.1L53.8,198.3z"/>
<path class="st4" d="M36.8,198.6h6.5V167c0,0-1.4-0.6-3.3-0.6s-3.3,0.6-3.3,0.6L36.8,198.6L36.8,198.6z M115.1,148.8h-6.2v-31.6
	c0,0,1.4-0.6,3.1-0.6c1.7,0,3.1,0.6,3.1,0.6L115.1,148.8L115.1,148.8z"/>
<path class="st5" d="M133.9,148.8h-5.3v-31.6c0,0,1.2-0.6,2.7-0.6c1.5,0,2.7,0.6,2.7,0.6L133.9,148.8L133.9,148.8z"/>
<path class="st2" d="M94.1,148.9l-4.9-2l14.7-28.7c0,0,1.4-0.1,2.7,0.4c1.4,0.6,2.1,1.6,2.1,1.6L94.1,148.9L94.1,148.9z"/>
<path class="st4" d="M128.5,148.8h-6.2v-31.6c0,0,1.4-0.6,3.1-0.6c1.7,0,3.1,0.6,3.1,0.6L128.5,148.8L128.5,148.8z"/>
<path class="st2" d="M122.4,148.8h-7.3v-31.6c0,0,1.6-0.6,3.6-0.6c2,0,3.6,0.6,3.6,0.6L122.4,148.8L122.4,148.8z"/>
<path class="st6" d="M126.6,298.3h-6.2v-31.6c0,0,1.4-0.6,3.1-0.6c1.7,0,3.1,0.6,3.1,0.6L126.6,298.3L126.6,298.3z"/>
<path class="st4" d="M105.6,298.4l-4.9-2l14.7-28.7c0,0,1.4-0.1,2.7,0.4c1.4,0.6,2.1,1.6,2.1,1.6L105.6,298.4L105.6,298.4z
	 M133.8,298.3h-7.3v-31.6c0,0,1.6-0.6,3.6-0.6c2,0,3.6,0.6,3.6,0.6L133.8,298.3L133.8,298.3z"/>
<path class="st7" d="M93.6,191.3c0,0-0.8-1.2-0.8-3.1s0.8-3.1,0.8-3.1h31.6c0,0,0.6,1.4,0.6,3.1s-0.6,3.1-0.6,3.1H93.6z M56,241.2
	c0,0-0.8-1-0.8-3.1S56,235,56,235h31.6c0,0,0.6,1.4,0.6,3.1c0,1.7-0.6,3.1-0.6,3.1H56z"/>
<path class="st4" d="M53,235c0,0-0.8-1-0.8-2.9c0-1.9,0.8-2.8,0.8-2.8h32.4c0,0,0.7,1.3,0.7,2.8c0,1.6-0.7,2.9-0.7,2.9H53z"/>
<path class="st2" d="M92,198.6c0,0-0.8-1.7-0.8-3.6c0-1.9,0.8-3.6,0.8-3.6h31.6c0,0,0.6,1.6,0.6,3.6c0,2-0.6,3.6-0.6,3.6H92z
	 M54.5,248.4c0,0-0.8-1.2-0.8-3.6s0.8-3.6,0.8-3.6h31.6c0,0,0.6,1.6,0.6,3.6c0,2-0.6,3.6-0.6,3.6H54.5L54.5,248.4z M94.7,41.2
	c-5.5,2-2.9,9.5,0.6,13c3.8,3.7,9.7,5.8,13,1.7c1-1.2,0.1-2.7-1.4-2.6c-2.3,0.1-4.1-0.5-3.3-2.3c0.9-1.7,4.5,1.6,5.8,1.6
	c3,0,4.1-2.2,3.4-4.1c-0.6-1.5-4.7-2.1-3.7-3.3c1.4-1.8,3.6,1,5.1-0.2c2.4-2,1.9-5.7,0.9-7.1c-0.8-1.1-4.3-2.8-6.8-1.7
	c-2.4,1-1.7,6.4-2.9,6.5c-2.2,0.1-0.4-4.6-2.2-6c-1-0.8-4.1-0.3-4.8,1.7c-0.9,2.6,2.7,7.6,0,7.9c-2.4,0.3-1-2.5-1.8-4
	C96.7,41.8,95.8,40.8,94.7,41.2L94.7,41.2z"/>
<path class="st8" d="M77.6,84.4C77.5,84.4,77.5,84.3,77.6,84.4c-0.1,0-0.2-0.1-0.2-0.1c0-0.1,0-0.1,0-0.2
	c6-18.1,18.2-33.6,34.4-43.6c0.1,0,0.1,0,0.2,0c0.1,0,0.1,0.1,0.1,0.1c0,0.1,0,0.1,0,0.2c0,0.1-0.1,0.1-0.1,0.1
	c-16.1,10-28.2,25.4-34.2,43.4C77.7,84.3,77.7,84.4,77.6,84.4L77.6,84.4z"/>
<path class="st2" d="M79.5,25.7c-4,4.2,1.7,9.8,6.4,11.3c5.1,1.6,11.2,0.8,12.4-4.3c0.3-1.5-1.1-2.4-2.4-1.7c-2,1.1-3.9,1.4-3.9-0.6
	c0-1.9,4.7-0.6,5.9-1.2c2.7-1.3,2.7-3.8,1.2-5.2c-1.2-1.1-5.1,0.2-4.8-1.3c0.5-2.3,3.6-0.7,4.4-2.5c1.2-2.8-0.8-6-2.4-6.7
	c-1.2-0.6-5.1-0.6-6.9,1.6c-1.7,2,1.3,6.5,0.3,7c-1.9,1.1-2.4-3.9-4.6-4.4c-1.3-0.3-3.8,1.6-3.5,3.7c0.3,2.8,5.8,5.6,3.6,7.1
	c-2,1.4-2-1.8-3.4-2.8C81.5,25.3,80.3,24.8,79.5,25.7L79.5,25.7z"/>
<path class="st8" d="M83.4,72c-0.1,0-0.2-0.1-0.2-0.2c-2.8-18.9,1.1-38.2,11.1-54.4c0-0.1,0.1-0.1,0.1-0.1c0.1,0,0.1,0,0.2,0
	c0.1,0,0.1,0.1,0.1,0.1c0,0.1,0,0.1,0,0.2c-9.9,16.2-13.8,35.4-11,54.1C83.7,71.8,83.6,72,83.4,72C83.4,72,83.4,72,83.4,72L83.4,72z
	"/>
<path class="st2" d="M75.3,35.3c5,3.1,0.9,9.9-3.2,12.6c-4.5,2.8-10.7,3.7-13.1-0.9c-0.7-1.4,0.4-2.6,1.9-2.3
	c2.3,0.6,4.1,0.3,3.6-1.6c-0.5-1.8-4.7,0.6-6,0.4c-2.9-0.6-3.6-3-2.5-4.7c0.9-1.4,5-1.1,4.3-2.5c-1-2.1-3.7,0.3-4.9-1.3
	c-1.9-2.4-0.7-6,0.6-7.1c1.1-0.9,4.7-1.9,7-0.3c2.2,1.5,0.4,6.6,1.5,6.9c2.1,0.6,1.3-4.4,3.3-5.4c1.2-0.6,4.1,0.5,4.3,2.6
	c0.4,2.8-4.1,6.9-1.6,7.7c2.3,0.8,1.5-2.2,2.5-3.6C73.3,35.5,74.3,34.7,75.3,35.3L75.3,35.3z"/>
<path class="st8" d="M83.4,81.1c-0.1,0-0.2-0.1-0.2-0.2C81,62,72.3,44.5,58.5,31.4c0,0,0,0-0.1-0.1c0,0,0-0.1,0-0.1c0,0,0-0.1,0-0.1
	c0,0,0-0.1,0.1-0.1c0.1-0.1,0.2-0.1,0.3,0c13.8,13.1,22.6,30.8,24.8,49.7C83.6,80.9,83.6,81,83.4,81.1
	C83.4,81.1,83.4,81.1,83.4,81.1z"/>
<path class="st2" d="M73.7,89.9h17.9l2.7-24.5H70.8L73.7,89.9z"/>
<path class="st3" d="M94.3,69.8H70.8c-0.3,0-0.6-0.3-0.7-0.6l-0.3-3.1c0-0.1,0-0.2,0-0.3c0-0.1,0.1-0.2,0.1-0.2
	c0.1-0.1,0.1-0.1,0.2-0.2c0.1,0,0.2-0.1,0.3-0.1h24.2c0.4,0,0.7,0.3,0.7,0.7L95,69.2C95,69.5,94.7,69.8,94.3,69.8L94.3,69.8z"/>
<path class="st5" d="M279.9,205.9H177.6c-0.7,0-1.3-0.3-1.8-0.7c-0.5-0.5-0.7-1.1-0.7-1.8V54.8c-3.9-55.6,18.4-53.7,53.7-53.7h0
	c56-3.7,53.7,24,53.7,53.7v148.5c0,0.3-0.1,0.7-0.2,1c-0.1,0.3-0.3,0.6-0.5,0.8c-0.2,0.2-0.5,0.4-0.8,0.5
	C280.6,205.8,280.2,205.9,279.9,205.9L279.9,205.9z"/>
<path class="st3" d="M280.4,208.1H175.9c-0.4,0-0.8-0.1-1.2-0.2c-0.4-0.2-0.7-0.4-1-0.7c-0.3-0.3-0.5-0.6-0.7-1
	c-0.2-0.4-0.2-0.8-0.2-1.2V32.6c0-18,14.6-32.5,32.5-32.6H251c18,0,32.5,14.6,32.6,32.6V205c0,0.4-0.1,0.8-0.2,1.2
	c-0.2,0.4-0.4,0.7-0.7,1c-0.3,0.3-0.6,0.5-1,0.7C281.2,208,280.8,208.1,280.4,208.1L280.4,208.1z M176.1,204.8h104.1V32.6
	c0-16.2-13.1-29.3-29.3-29.3h-45.6c-16.1,0-29.2,13.1-29.2,29.3L176.1,204.8L176.1,204.8z"/>
<path class="st3" d="M228.2,206.8c-0.4,0-0.9-0.2-1.2-0.5c-0.3-0.3-0.5-0.7-0.5-1.2V1.6c0-0.4,0.2-0.9,0.5-1.2
	c0.3-0.3,0.7-0.5,1.2-0.5c0.4,0,0.9,0.2,1.2,0.5c0.3,0.3,0.5,0.7,0.5,1.2v203.5c0,0.4-0.2,0.9-0.5,1.2
	C229,206.6,228.6,206.8,228.2,206.8L228.2,206.8z"/>
<path class="st3" d="M281.9,159.7H174.5c-0.4,0-0.9-0.2-1.2-0.5c-0.3-0.3-0.5-0.7-0.5-1.2c0-0.4,0.2-0.9,0.5-1.2
	c0.3-0.3,0.7-0.5,1.2-0.5h107.4c0.4,0,0.9,0.2,1.2,0.5c0.3,0.3,0.5,0.7,0.5,1.2c0,0.4-0.2,0.9-0.5,1.2
	C282.7,159.5,282.3,159.7,281.9,159.7L281.9,159.7z M281.9,57.6H174.5c-0.4,0-0.9-0.2-1.2-0.5c-0.3-0.3-0.5-0.7-0.5-1.2
	s0.2-0.9,0.5-1.2c0.3-0.3,0.7-0.5,1.2-0.5h107.4c0.4,0,0.9,0.2,1.2,0.5c0.3,0.3,0.5,0.7,0.5,1.2s-0.2,0.9-0.5,1.2
	C282.7,57.4,282.3,57.6,281.9,57.6L281.9,57.6z M281.9,108.7H174.5c-0.4,0-0.9-0.2-1.2-0.5c-0.3-0.3-0.5-0.7-0.5-1.2
	c0-0.4,0.2-0.9,0.5-1.2c0.3-0.3,0.7-0.5,1.2-0.5h107.4c0.4,0,0.9,0.2,1.2,0.5c0.3,0.3,0.5,0.7,0.5,1.2c0,0.4-0.2,0.9-0.5,1.2
	C282.7,108.5,282.3,108.7,281.9,108.7L281.9,108.7z"/>
<path class="st5" d="M471.4,206H369c-0.7,0-1.3-0.3-1.8-0.7c-0.5-0.5-0.7-1.1-0.7-1.8V55c-3.9-55.6,18.4-53.7,53.7-53.7h0
	c56-3.7,53.7,24,53.7,53.7v148.5c0,0.3-0.1,0.7-0.2,1c-0.1,0.3-0.3,0.6-0.5,0.8c-0.2,0.2-0.5,0.4-0.8,0.5
	C472,206,471.7,206,471.4,206L471.4,206z"/>
<path class="st3" d="M472.4,208.1H367.9c-0.8,0-1.6-0.3-2.2-0.9c-0.6-0.6-0.9-1.4-0.9-2.2V32.6c0-18,14.6-32.5,32.5-32.6H443
	c18,0,32.5,14.6,32.6,32.6V205c0,0.4-0.1,0.8-0.2,1.2c-0.2,0.4-0.4,0.7-0.7,1c-0.3,0.3-0.6,0.5-1,0.7
	C473.2,208,472.8,208.1,472.4,208.1L472.4,208.1L472.4,208.1z M368.1,204.8h104.1V32.6c0-16.2-13.1-29.3-29.3-29.3h-45.6
	c-16.1,0-29.2,13.1-29.2,29.3L368.1,204.8z"/>
<path class="st3" d="M420.1,206.8c-0.4,0-0.9-0.2-1.2-0.5c-0.3-0.3-0.5-0.7-0.5-1.2V1.6c0-0.4,0.2-0.9,0.5-1.2
	c0.3-0.3,0.7-0.5,1.2-0.5c0.4,0,0.9,0.2,1.2,0.5c0.3,0.3,0.5,0.7,0.5,1.2v203.5c0,0.4-0.2,0.9-0.5,1.2
	C421,206.6,420.6,206.8,420.1,206.8L420.1,206.8z"/>
<path class="st3" d="M473.8,159.7H366.4c-0.4,0-0.9-0.2-1.2-0.5c-0.3-0.3-0.5-0.7-0.5-1.2c0-0.4,0.2-0.9,0.5-1.2
	c0.3-0.3,0.7-0.5,1.2-0.5h107.4c0.4,0,0.9,0.2,1.2,0.5c0.3,0.3,0.5,0.7,0.5,1.2c0,0.4-0.2,0.9-0.5,1.2
	C474.7,159.5,474.3,159.7,473.8,159.7L473.8,159.7z M473.8,57.6H366.4c-0.4,0-0.9-0.2-1.2-0.5c-0.3-0.3-0.5-0.7-0.5-1.2
	s0.2-0.9,0.5-1.2c0.3-0.3,0.7-0.5,1.2-0.5h107.4c0.4,0,0.9,0.2,1.2,0.5c0.3,0.3,0.5,0.7,0.5,1.2s-0.2,0.9-0.5,1.2
	C474.7,57.4,474.3,57.6,473.8,57.6L473.8,57.6z M473.8,108.7H366.4c-0.4,0-0.9-0.2-1.2-0.5c-0.3-0.3-0.5-0.7-0.5-1.2
	c0-0.4,0.2-0.9,0.5-1.2c0.3-0.3,0.7-0.5,1.2-0.5h107.4c0.4,0,0.9,0.2,1.2,0.5c0.3,0.3,0.5,0.7,0.5,1.2c0,0.4-0.2,0.9-0.5,1.2
	C474.7,108.5,474.3,108.7,473.8,108.7L473.8,108.7z"/>
<path class="st2" d="M541.6,59.5c-5.5,2-2.9,9.6,0.6,13c3.8,3.7,9.7,5.8,13,1.8c0.2-0.2,0.4-0.5,0.4-0.9c0-0.3,0-0.7-0.2-0.9
	c-0.2-0.3-0.4-0.5-0.7-0.7c-0.3-0.1-0.6-0.2-0.9-0.2c-2.3,0.1-4.1-0.5-3.3-2.3c0.9-1.7,4.5,1.6,5.9,1.6c3,0,4.1-2.2,3.5-4.1
	c-0.6-1.5-4.7-2.1-3.7-3.3c1.5-1.8,3.6,1,5.1-0.2c2.4-2,2-5.8,0.9-7.1c-0.9-1.1-4.3-2.8-6.9-1.7c-2.5,1-1.7,6.4-2.9,6.5
	c-2.2,0.1-0.4-4.6-2.2-6c-1-0.8-4.1-0.3-4.8,1.7c-0.9,2.6,2.7,7.6,0,7.9c-2.4,0.3-1-2.5-1.8-4.1C543.5,60.1,542.7,59.1,541.6,59.5
	L541.6,59.5z"/>
<path class="st8" d="M524.3,102.8L524.3,102.8c-0.1,0-0.2-0.1-0.2-0.1c0-0.1,0-0.1,0-0.2v0c6-18.2,18.2-33.7,34.5-43.8
	c0,0,0.1,0,0.1,0c0,0,0.1,0,0.1,0c0,0,0.1,0,0.1,0c0,0,0,0,0.1,0.1c0,0,0,0.1,0,0.1s0,0.1,0,0.1c0,0,0,0.1,0,0.1c0,0,0,0-0.1,0.1
	c-16.2,10.1-28.3,25.5-34.3,43.6c0,0,0,0.1-0.1,0.1C524.4,102.8,524.4,102.8,524.3,102.8L524.3,102.8z"/>
<path class="st2" d="M526.3,43.9c-4,4.3,1.7,9.9,6.4,11.3c5.1,1.6,11.3,0.8,12.4-4.3c0.1-0.3,0.1-0.7,0-1c-0.1-0.3-0.3-0.6-0.6-0.8
	c-0.3-0.2-0.6-0.3-0.9-0.3c-0.3,0-0.7,0.1-0.9,0.3c-2.1,1.1-3.9,1.4-3.9-0.6c0-1.9,4.8-0.6,6-1.2c2.7-1.3,2.7-3.8,1.2-5.2
	c-1.2-1.1-5.1,0.2-4.8-1.3c0.5-2.3,3.6-0.7,4.4-2.5c1.2-2.8-0.8-6-2.4-6.8c-1.2-0.6-5.1-0.6-6.9,1.6c-1.7,2,1.4,6.5,0.3,7.1
	c-1.9,1.1-2.4-3.9-4.6-4.4c-1.3-0.3-3.8,1.6-3.5,3.7c0.3,2.8,5.8,5.6,3.6,7.1c-2,1.4-2.1-1.8-3.4-2.8
	C528.3,43.6,527,43.1,526.3,43.9z"/>
<path class="st8" d="M530.2,90.4c-0.1,0-0.1,0-0.2-0.1c0,0-0.1-0.1-0.1-0.1c-2.8-19,1.1-38.3,11.1-54.6c0-0.1,0.1-0.1,0.1-0.1
	c0.1,0,0.1,0,0.2,0c0.1,0,0.1,0.1,0.1,0.1c0,0.1,0,0.1,0,0.2c-9.9,16.3-13.8,35.5-11.1,54.3c0,0,0,0.1,0,0.1c0,0,0,0.1,0,0.1
	c0,0,0,0-0.1,0.1C530.3,90.4,530.3,90.4,530.2,90.4L530.2,90.4L530.2,90.4L530.2,90.4z"/>
<path class="st2" d="M522.1,53.5c5,3.1,0.9,10-3.2,12.6c-4.5,2.9-10.7,3.7-13.1-0.9c-0.2-0.3-0.2-0.6-0.2-0.9c0-0.3,0.1-0.6,0.4-0.9
	c0.2-0.3,0.5-0.4,0.8-0.5c0.3-0.1,0.6-0.1,1,0c2.3,0.6,4.1,0.3,3.6-1.6c-0.5-1.9-4.7,0.6-6.1,0.4c-2.9-0.6-3.6-3-2.5-4.7
	c0.9-1.4,5-1.1,4.3-2.5c-1.1-2.1-3.7,0.3-4.9-1.3c-1.9-2.4-0.7-6,0.6-7.2c1.1-0.9,4.8-1.9,7.1-0.3c2.2,1.5,0.4,6.6,1.5,6.9
	c2.1,0.6,1.4-4.4,3.3-5.4c1.2-0.6,4.1,0.5,4.4,2.7c0.4,2.8-4.1,6.9-1.6,7.8c2.3,0.8,1.5-2.2,2.6-3.6C520,53.8,521.1,52.9,522.1,53.5
	L522.1,53.5z"/>
<path class="st8" d="M530.2,99.5c-0.1,0-0.1,0-0.2-0.1c0,0-0.1-0.1-0.1-0.1c-2.2-18.9-10.9-36.5-24.7-49.6c0,0-0.1-0.1-0.1-0.2
	c0-0.1,0-0.1,0.1-0.2c0,0,0.1-0.1,0.2-0.1c0.1,0,0.1,0,0.2,0.1c13.9,13.2,22.7,30.9,24.9,49.9c0,0,0,0.1,0,0.1c0,0,0,0.1,0,0.1
	c0,0,0,0-0.1,0.1S530.3,99.5,530.2,99.5L530.2,99.5z"/>
<path class="st5" d="M520.5,108.3h17.9l2.7-24.6h-23.5L520.5,108.3z"/>
<path class="st2" d="M541.2,88.2h-23.7c-0.2,0-0.3-0.1-0.4-0.2c-0.1-0.1-0.2-0.3-0.2-0.4l-0.3-3.1c0-0.2,0.1-0.3,0.2-0.5
	c0.1-0.1,0.3-0.2,0.5-0.2h24.3c0.1,0,0.2,0,0.3,0.1c0.1,0,0.2,0.1,0.2,0.2c0.1,0.1,0.1,0.1,0.1,0.2c0,0.1,0,0.2,0,0.3l-0.3,3.1
	c0,0.2-0.1,0.3-0.2,0.4C541.5,88.1,541.3,88.2,541.2,88.2L541.2,88.2z"/>
<path class="st3" d="M495.6,108.6c-0.2,0-0.3,0.1-0.4,0.2s-0.2,0.3-0.2,0.4v1.5c0,0.3,0.3,0.6,0.6,0.6h56.9c0.1,0,0.2,0,0.2,0
	c0.1,0,0.1-0.1,0.2-0.1s0.1-0.1,0.1-0.2c0-0.1,0-0.1,0-0.2v-1.5c0-0.1,0-0.2,0-0.2c0-0.1-0.1-0.1-0.1-0.2s-0.1-0.1-0.2-0.1
	c-0.1,0-0.1,0-0.2,0H495.6z"/>
<path class="st2" d="M555.9,182.1h5.7v-32.6c-0.9-0.4-1.9-0.7-2.9-0.7s-2,0.2-2.9,0.7V182.1z"/>
<path class="st8" d="M538.5,182h4.9v-32.6c-0.8-0.4-1.6-0.7-2.5-0.7c-0.9,0-1.7,0.2-2.5,0.7V182z"/>
<path class="st5" d="M575.3,182.1l4.5-2.1l-13.7-29.6c-0.9-0.1-1.7,0.1-2.5,0.4c-0.8,0.4-1.5,0.9-2,1.7L575.3,182.1z M543.4,182h5.7
	v-32.6c-0.9-0.4-1.9-0.7-2.9-0.7c-1,0-2,0.2-2.9,0.7V182z"/>
<path class="st8" d="M549.1,182.1h6.7v-32.6c-2.2-0.9-4.6-0.9-6.7,0V182.1z"/>
<path class="st3" d="M519.4,182c-0.2,0-0.3,0.1-0.4,0.2c-0.1,0.1-0.2,0.3-0.2,0.4v1.6c0,0.2,0.1,0.3,0.2,0.4
	c0.1,0.1,0.3,0.2,0.4,0.2h60c0.2,0,0.3-0.1,0.4-0.2c0.1-0.1,0.2-0.3,0.2-0.4v-1.6c0-0.1,0-0.2,0-0.2c0-0.1-0.1-0.1-0.1-0.2
	c-0.1-0.1-0.1-0.1-0.2-0.1c-0.1,0-0.2,0-0.2,0H519.4z M489.2,351H483l2.3-43h13.6L489.2,351L489.2,351z M569.2,351h6.2l-2.3-43
	h-13.6L569.2,351L569.2,351z"/>
<path class="st3" d="M475,310.4h111V321H475V310.4z M578.1,279.7c-0.1,3.9-1.6,7.7-4.4,10.5c-2.8,2.8-6.5,4.4-10.4,4.4h-70.2
	c-3.9,0-7.6-1.6-10.3-4.4c-2.7-2.8-4.3-6.5-4.2-10.5v-69.1c0-1.9,0.4-3.8,1.1-5.6c0.7-1.8,1.8-3.4,3.2-4.8s3-2.4,4.7-3.2
	c1.8-0.7,3.7-1.1,5.6-1.1h70.2c8.1,0,14.9,6.5,14.9,14.7V279.7z"/>
<path class="st0" d="M497.1,301.4c0.4,1.2,0.5,2.5,0.3,3.8c-0.1,1.3-0.5,2.5-1.1,3.6c-0.6,1.1-1.4,2.1-2.4,2.9
	c-1,0.8-2.1,1.4-3.4,1.8l-10.5,3.1c-1.2,0.4-2.5,0.5-3.8,0.3c-1.3-0.1-2.5-0.5-3.6-1.1c-1.1-0.6-2.1-1.4-2.9-2.4
	c-0.8-1-1.4-2.1-1.8-3.4l-13.6-46.5c-0.7-2.5-0.4-5.1,0.8-7.4c1.2-2.3,3.3-3.9,5.8-4.7l10.5-3.1c1.2-0.4,2.5-0.5,3.8-0.3
	c1.3,0.1,2.5,0.5,3.6,1.1c1.1,0.6,2.1,1.4,2.9,2.4s1.4,2.1,1.8,3.4L497.1,301.4z M560.9,301.4c-0.4,1.2-0.5,2.5-0.3,3.8
	c0.1,1.3,0.5,2.5,1.1,3.6c0.6,1.1,1.4,2.1,2.4,2.9c1,0.8,2.1,1.4,3.4,1.8l10.5,3.1c2.5,0.7,5.1,0.4,7.4-0.8c2.3-1.2,3.9-3.3,4.7-5.8
	l13.5-46.4c0.4-1.2,0.5-2.5,0.3-3.8c-0.1-1.3-0.5-2.5-1.1-3.6c-0.6-1.1-1.4-2.1-2.4-2.9c-1-0.8-2.1-1.4-3.4-1.8l-10.5-3.1
	c-1.2-0.4-2.5-0.5-3.8-0.3c-1.3,0.1-2.5,0.5-3.6,1.1c-1.1,0.6-2.1,1.4-2.9,2.4s-1.4,2.1-1.8,3.4L560.9,301.4z"/>
<path class="st1" d="M578,300.5c0,2-0.4,4.1-1.2,5.9c-0.8,1.9-2,3.6-3.4,5c-1.5,1.4-3.2,2.6-5.1,3.4c-1.9,0.8-4,1.2-6,1.2h-68.4
	c-4.2,0-8.2-1.6-11.2-4.5c-3-2.9-4.6-6.8-4.6-11s1.7-8.1,4.6-11c3-2.9,7-4.5,11.2-4.5h68.4c2.1,0,4.1,0.4,6,1.2
	c1.9,0.8,3.7,1.9,5.1,3.4c1.5,1.4,2.6,3.1,3.4,5C577.6,296.4,578,298.5,578,300.5z"/>
<path class="st9" d="M462.2,156.6c-5.5,2-2.9,9.5,0.6,12.9c3.8,3.7,9.7,5.7,12.9,1.7c1-1.2,0.1-2.7-1.4-2.6
	c-2.4,0.1-4.1-0.6-3.3-2.3c0.8-1.7,4.5,1.6,5.8,1.6c3,0.1,4.1-2.2,3.5-4.1c-0.6-1.5-4.7-2.1-3.7-3.3c1.5-1.8,3.5,1,5-0.3
	c2.4-1.9,1.9-5.7,0.9-7.1c-0.8-1.1-4.3-2.8-6.8-1.7c-2.4,1-1.7,6.4-2.8,6.4c-2.2,0.1-0.4-4.6-2.1-5.9c-1-0.8-4.1-0.3-4.8,1.7
	c-1,2.6,2.6,7.6,0,7.9c-2.4,0.3-1-2.5-1.7-4C464.2,157.3,463.3,156.2,462.2,156.6L462.2,156.6z"/>
<path class="st10" d="M445.1,199.8L445.1,199.8c-0.2-0.1-0.3-0.1-0.2-0.3c5.9-18.1,18.2-33.5,34.3-43.6c0.1-0.1,0.3,0,0.3,0.1
	c0.1,0.1,0,0.3-0.1,0.3c-16,10-28.2,25.4-34.2,43.4C445.3,199.7,445.1,199.8,445.1,199.8L445.1,199.8z"/>
<path class="st9" d="M447,141.1c-4,4.2,1.7,9.8,6.4,11.3c5,1.6,11.2,0.8,12.4-4.3c0.3-1.5-1.1-2.4-2.4-1.7c-2,1.1-3.9,1.4-3.9-0.6
	c0-1.9,4.7-0.6,5.9-1.2c2.7-1.3,2.7-3.8,1.2-5.2c-1.2-1.1-5.1,0.3-4.8-1.3c0.5-2.3,3.6-0.7,4.4-2.5c1.2-2.8-0.8-6-2.4-6.7
	c-1.2-0.6-5-0.6-6.8,1.6c-1.7,2,1.3,6.4,0.3,7.1c-1.9,1.1-2.4-3.9-4.6-4.4c-1.3-0.3-3.7,1.6-3.5,3.7c0.3,2.8,5.8,5.6,3.6,7.1
	c-2,1.4-2-1.7-3.4-2.8C449,140.8,447.8,140.3,447,141.1z"/>
<path class="st10" d="M450.9,187.4c-0.1,0-0.2-0.1-0.2-0.2c-2.8-18.8,1.2-38.1,11.1-54.4c0.1-0.1,0.2-0.1,0.3-0.1
	c0.1,0.1,0.1,0.2,0.1,0.3c-9.9,16.1-13.8,35.3-11,54.1C451.2,187.3,451.1,187.4,450.9,187.4L450.9,187.4z"/>
<path class="st9" d="M442.8,150.8c5,3,0.9,9.9-3.3,12.5c-4.5,2.8-10.6,3.7-13.1-0.9c-0.7-1.4,0.4-2.6,1.9-2.3
	c2.3,0.6,4.1,0.3,3.7-1.5s-4.7,0.6-6,0.4c-2.9-0.6-3.6-3-2.5-4.7c0.9-1.4,5-1.1,4.3-2.5c-1-2.1-3.7,0.3-4.9-1.2
	c-1.9-2.4-0.8-6,0.6-7.1c1-0.9,4.7-1.9,7.1-0.3c2.1,1.5,0.3,6.6,1.5,6.9c2.1,0.6,1.4-4.4,3.3-5.4c1.2-0.6,4,0.6,4.4,2.6
	c0.4,2.8-4.1,6.8-1.7,7.7c2.3,0.8,1.5-2.2,2.6-3.6C440.8,151,441.8,150.1,442.8,150.8L442.8,150.8z"/>
<path class="st10" d="M450.9,196.5c-0.1,0-0.2-0.1-0.2-0.2c-2.1-18.8-10.9-36.3-24.6-49.4c-0.1-0.1-0.1-0.2,0-0.3
	c0.1-0.1,0.2-0.1,0.3,0c13.8,13.1,22.5,30.8,24.8,49.7C451.2,196.3,451,196.5,450.9,196.5C450.9,196.5,450.9,196.5,450.9,196.5
	L450.9,196.5z"/>
<path class="st11" d="M441.2,206.3H459l2.7-24.5h-23.4L441.2,206.3z"/>
<path class="st12" d="M461.8,186.2h-23.6c-0.3,0-0.6-0.3-0.6-0.6l-0.3-3c0-0.4,0.3-0.7,0.6-0.7h24.1c0.4,0,0.7,0.3,0.6,0.7l-0.3,3
	C462.4,186,462.1,186.2,461.8,186.2z"/>
<path class="st13" d="M219.7,191.2c-0.7-0.1-1.6,0.8-2.7,2.4c-0.6,0.8-1.2,1.8-1.9,2.9c-0.7,1.1-1.5,2.4-2.5,3.7
	c-1,1.4-2.2,2.7-3.5,3.9c-0.6,0.7-1.4,1.3-2.2,1.8c-0.8,0.6-1.6,1.1-2.5,1.6c-0.9,0.5-1.8,1-2.8,1.4c-0.9,0.4-2,0.7-3,1
	c-1,0.3-2,0.4-3.1,0.5c-0.2,0-0.5,0-0.8,0l-0.8,0l-1.6,0c-2.3-0.1-4.5-0.4-6.6-1c-1.1-0.3-2.2-0.6-3.3-1c-0.5-0.2-1-0.4-1.5-0.5
	c-0.5-0.2-1-0.4-1.5-0.6c-1-0.4-1.9-0.8-2.9-1.2c-0.9-0.4-1.9-0.9-2.7-1.4c-1.6-0.9-3.3-1.9-4.9-2.7c-1.6-0.9-3-1.7-4.4-2.5
	c-1.2-0.6-2.5-1.3-3.9-1.8c-1-0.4-2.2-0.7-3.3-0.9c-0.9-0.1-1.8,0-2.5,0.3c-0.7,0.3-1.3,0.9-1.5,1.5c-0.3,0.8-0.4,1.7-0.2,2.6
	c0.2,1.2,0.6,2.4,1.2,3.5c0.7,1.5,1.8,2.9,2.9,4.3c1.4,1.7,3.2,3.3,5.1,4.7c1.1,0.8,2.3,1.6,3.5,2.4c1.4,0.8,2.8,1.5,4.2,2.2
	c0.8,0.4,1.5,0.7,2.4,1c0.8,0.4,1.6,0.6,2.5,0.9c1.8,0.6,3.6,1,5.5,1.5c4.1,0.9,8.5,1.2,12.7,0.9c1.1-0.1,2.3-0.2,3.4-0.4l1.6-0.3
	c0.5-0.1,1.1-0.3,1.6-0.4c2-0.5,4-1.2,5.8-2c1.7-0.8,3.2-1.7,4.7-2.7c1.3-0.9,2.5-1.9,3.7-3c1-1,1.9-2,2.7-3.1c0.6-1,1.3-2,1.7-3.1
	c0.8-1.8,1.4-3.7,1.8-5.6c0.3-1.5,0.5-3,0.4-4.5c0-1.1,0-2.2-0.2-3.4C220.8,192.4,220.3,191.3,219.7,191.2z"/>
<path class="st14" d="M200.1,87.4h159.6v265.8H200.1V87.4z"/>
<path class="st15" d="M212.6,96.7h133.7v245.9H212.6V96.7z"/>
<path class="st16" d="M281,96.8h65.3v245.9H281V96.8z M200.1,96.8h12.5v245.8h-12.5V96.8z"/>
<path class="st17" d="M212,141H281v10H212V141z"/>
<path class="st15" d="M292,203.5c2.9,0,5.2-2.4,5.2-5.2c0-2.9-2.4-5.2-5.2-5.2c-2.9,0-5.2,2.3-5.2,5.2
	C286.8,201.2,289.1,203.5,292,203.5z"/>
<path class="st3" d="M223.1,151h1.1v6.8h-1.1V151z M234.8,151h1.1v6.8h-1.1V151z"/>
<path class="st11" d="M223.7,262.6c-0.9,0-1.7-0.4-2.4-1s-1-1.5-1-2.4v-99.5c0-0.9,0.4-1.7,1-2.4c0.6-0.6,1.5-1,2.4-1
	c0.9,0,1.7,0.4,2.4,1c0.6,0.6,1,1.5,1,2.4v99.5c0,0.4-0.1,0.9-0.3,1.3c-0.2,0.4-0.4,0.8-0.7,1.1c-0.3,0.3-0.7,0.6-1.1,0.7
	C224.5,262.5,224.1,262.6,223.7,262.6L223.7,262.6z"/>
<path class="st18" d="M235.4,243.1c-0.2,0-0.4,0-0.6-0.1c-0.2-0.1-0.4-0.2-0.5-0.3c-0.1-0.1-0.3-0.3-0.3-0.5
	c-0.1-0.2-0.1-0.4-0.1-0.6v-83.6c0-0.4,0.2-0.8,0.5-1.1c0.3-0.3,0.7-0.5,1.1-0.5c0.4,0,0.8,0.2,1.1,0.5c0.3,0.3,0.5,0.7,0.5,1.1
	v83.6c0,0.2,0,0.4-0.1,0.6c-0.1,0.2-0.2,0.4-0.3,0.5c-0.1,0.1-0.3,0.3-0.5,0.3C235.8,243,235.6,243.1,235.4,243.1L235.4,243.1
	L235.4,243.1z"/>
<path class="st17" d="M212.5,311h68.4v7.3h-68.4V311z"/>
<path class="st19" d="M259.1,327.5l0.7,7.3c0,0-8.9,4.9-4.1,7.8c0,0,7.2-0.1,8.8,0c4.7,0.2,4-3.1,2.6-7.6l0.9-7.6L259.1,327.5
	L259.1,327.5z"/>
<path class="st18" d="M265.4,327.5l0.7,7.3c0,0-8.9,4.9-4.1,7.8c0,0,7.2-0.1,8.8,0c4.7,0.2,4-3.1,2.6-7.6l0.9-7.6L265.4,327.5
	L265.4,327.5z"/>
<path class="st3" d="M268.4,311H225c-0.3,0-0.6,0-0.9-0.2c-0.3-0.1-0.5-0.3-0.7-0.5c-0.2-0.2-0.4-0.5-0.5-0.7
	c-0.1-0.3-0.2-0.6-0.2-0.9c0-0.3,0.1-0.6,0.2-0.9c0.1-0.3,0.3-0.5,0.5-0.7c0.2-0.2,0.5-0.4,0.7-0.5c0.3-0.1,0.6-0.2,0.9-0.2h43.3
	c0.3,0,0.6,0,0.9,0.2c0.3,0.1,0.5,0.3,0.7,0.5c0.2,0.2,0.4,0.5,0.5,0.7c0.1,0.3,0.2,0.6,0.2,0.9c0,0.3-0.1,0.6-0.2,0.9
	c-0.1,0.3-0.3,0.5-0.5,0.7c-0.2,0.2-0.5,0.4-0.7,0.5C269,310.9,268.7,311,268.4,311L268.4,311z"/>
<path class="st1" d="M264.6,306.5h-35.8c-0.3,0-0.6,0-0.9-0.2c-0.3-0.1-0.5-0.3-0.7-0.5c-0.2-0.2-0.4-0.5-0.5-0.7
	c-0.1-0.3-0.2-0.6-0.2-0.9c0-0.3,0.1-0.6,0.2-0.9c0.1-0.3,0.3-0.5,0.5-0.7c0.2-0.2,0.5-0.4,0.7-0.5c0.3-0.1,0.6-0.2,0.9-0.2h35.8
	c0.6,0,1.2,0.2,1.6,0.7c0.4,0.4,0.7,1,0.7,1.6c0,0.3-0.1,0.6-0.2,0.9c-0.1,0.3-0.3,0.5-0.5,0.7c-0.2,0.2-0.5,0.4-0.7,0.5
	C265.2,306.5,264.9,306.5,264.6,306.5L264.6,306.5z"/>
<path class="st5" d="M174.3,202.4c0.4,9.9,0.1,19.9-0.9,29.8c-9.6,2.9-19.7,3.3-29.5,1.5c-0.4-10.2-0.7-20.3-0.4-30.4
	c-0.1-5.3,0.7-10.6,2.1-15.7c1.4-4.6,4.2-8.6,8-11.3c0.5-0.3,0.9-0.6,1.4-0.8c2.7,2,6.2,2.6,9.4,1.6c1.4,1,2.6,2.1,3.6,3.4
	c1.9,2.4,3.3,5.1,4.2,8C173.5,192.9,174.1,197.6,174.3,202.4L174.3,202.4z"/>
<path class="st20" d="M168,180.4c-3.9,0.9-8,0.2-11.4-1.8c-1-0.5-1.8-1.2-2.6-2v-0.8c0-0.3,0.1-0.5,0.2-0.8c0.5-2.8,1.1-5.6,1.5-8.4
	c0.4-2.6,0.9-5.2,1.2-7.8c2.9,1.5,5.7,3.3,8.3,5.4c0,1.8,0,3.6,0.1,5.3c0.1,1.5,0.2,3,0.4,4.5c0.1,0.8,0.2,1.7,0.3,2.5
	c0.1,0.8,0.2,1.5,0.4,2.3C167,179.1,167.5,179.7,168,180.4L168,180.4z"/>
<path class="st21" d="M165.7,173.8c-3-2.9-6.5-5.4-10.2-7.4c0.5-2.6,0.9-5.2,1.2-7.8c2.9,1.5,5.7,3.3,8.3,5.4c0,1.8,0,3.6,0.1,5.3
	C165.4,170.9,165.5,172.4,165.7,173.8L165.7,173.8z"/>
<path class="st22" d="M106.3,325c0,0-0.2,7,6.2,7l0.4,25l-16.5-30.3L106.3,325z"/>
<path class="st5" d="M109.7,357.6l-15.6-28.7c-0.2-0.4-0.1-1,0.3-1.2l0.1-0.1l1.8-1l16.5,30.3l-1.8,1
	C110.5,358.2,109.9,358,109.7,357.6z M108.7,337c0.1,0.1,0.2,0.1,0.3,0.1c1.2,0.2,2.5,0.5,3.6,1.1c0.2,0.2,0.6,0.1,0.7-0.2v-0.1
	c0.1-0.3,0-0.6-0.2-0.8c-1.2-0.7-2.6-1.1-4-1.2c-0.3-0.1-0.5,0.1-0.6,0.4v0.1C108.4,336.6,108.5,336.9,108.7,337L108.7,337z
	 M108.7,340.2c0.1,0.1,0.2,0.1,0.3,0.1c1.2,0.2,2.5,0.5,3.6,1.1c0.2,0.2,0.6,0.1,0.7-0.2v-0.1c0.1-0.3,0-0.6-0.2-0.8
	c-1.2-0.7-2.6-1.1-4-1.2c-0.3-0.1-0.5,0.1-0.6,0.4v0.1C108.5,339.8,108.6,340.1,108.7,340.2L108.7,340.2z M108.9,343.3
	c0.1,0.1,0.2,0.1,0.3,0.1c1.2,0.2,2.5,0.5,3.6,1.1c0.2,0.2,0.6,0.1,0.7-0.2v-0.1c0.1-0.3,0-0.6-0.2-0.8c-1.2-0.7-2.6-1.1-4-1.2
	c-0.3-0.1-0.5,0.1-0.6,0.4v0.1C108.6,342.9,108.7,343.2,108.9,343.3L108.9,343.3z"/>
<path class="st22" d="M174.6,346.3c0,0,6.1,3.4,9-2.2l22.3,11.4l-34.5,0.5L174.6,346.3z"/>
<path class="st5" d="M204.8,358.4l-32.2,0.4c-0.7,0-1.1-0.5-1.1-1.1v-1.9l34.5-0.5v1.9C205.9,357.9,205.5,358.4,204.8,358.4
	L204.8,358.4z M186.3,349.8c0.1-0.1,0.2-0.1,0.2-0.2c0.7-1,1.6-1.9,2.6-2.7c0.2-0.2,0.3-0.5,0.2-0.7c0,0,0-0.1-0.1-0.1
	c-0.2-0.2-0.5-0.3-0.8-0.1c-1.1,0.8-2.1,1.8-2.9,3c-0.2,0.2-0.1,0.6,0.1,0.8C185.9,349.8,186.1,349.9,186.3,349.8L186.3,349.8z
	 M189.1,351.1c0.1-0.1,0.2-0.1,0.2-0.2c0.7-1,1.6-1.9,2.6-2.7c0.2-0.2,0.3-0.5,0.2-0.7c0,0,0-0.1-0.1-0.1c-0.2-0.2-0.5-0.3-0.8-0.1
	c-1.1,0.8-2.1,1.8-2.9,3c-0.2,0.2-0.1,0.6,0.1,0.8C188.8,351.2,188.9,351.2,189.1,351.1L189.1,351.1z M192,352.5
	c0.1-0.1,0.2-0.1,0.2-0.2c0.7-1,1.6-1.9,2.6-2.7c0.2-0.2,0.3-0.5,0.2-0.7c0,0,0-0.1-0.1-0.1c-0.2-0.2-0.5-0.3-0.8-0.1
	c-1.1,0.8-2.1,1.8-2.9,3c-0.2,0.2-0.1,0.6,0.1,0.8C191.6,352.6,191.8,352.6,192,352.5L192,352.5z"/>
<path class="st23" d="M142.8,245.7c0,0,6.5,46.9-41.8,78.7l12.3,14.3c0,0,54.1-34.7,50.1-81.6L142.8,245.7L142.8,245.7z"/>
<path class="st19" d="M140.2,272.8c0.7,1,1.4,2,2.1,3c1.7,2.7,3.2,5.5,4.4,8.4c2.1,4.9,3.9,10,5.2,15.1
	c7.6-12.2,12.9-26.7,11.5-42.4L143,245.7C143,245.7,144.6,257.3,140.2,272.8L140.2,272.8z"/>
<path class="st18" d="M174.7,194c1.5,16.6,1.2,33.2-0.8,49.7c0,0,24.5,51.8,17.3,102.8l-20,4.3c0,0-2.6-67.4-28.4-102.2l-0.2-33.7
	l21.5-2.9l2.4-18L174.7,194L174.7,194z"/>
<path class="st23" d="M143.8,218.6c-0.2,0-0.4-0.2-0.5-0.7c-0.1-0.2-0.2-0.5-0.4-0.9c-0.1-0.4-0.2-0.8-0.4-1.2
	c0-0.2-0.1-0.5-0.2-0.7c-0.1-0.2-0.1-0.5-0.2-0.8l-0.2-0.9c-0.1-0.3-0.1-0.6-0.1-1c-0.1-0.4-0.1-0.7-0.1-1c-0.1-0.4-0.1-0.7-0.1-1.1
	c-0.1-0.8-0.1-1.5-0.2-2.4c-0.1-1.8,0-3.7,0.1-5.5c0.2-2.1,0.4-4.2,0.8-6.3c0.4-2.3,1-4.6,1.7-6.8c0.7-2.5,1.8-4.9,3.3-7.1
	c0.8-1.2,1.8-2.2,2.9-3.1c1.1-0.9,2.3-1.6,3.7-2c0.7-0.2,1.4-0.4,2.1-0.4h2.1c1.3,0.2,2.6,0.5,3.7,1.1c1.1,0.5,2,1.2,2.9,2.1
	l0.6,0.6l0.5,0.6l0.5,0.7c0.2,0.2,0.3,0.4,0.5,0.7c0.6,0.9,1.1,1.8,1.4,2.7c0.4,0.8,0.6,1.7,0.8,2.6c0.4,1.5,0.6,3,0.7,4.6
	c0.1,1.3,0,2.5,0,3.4c-0.1,1.8-0.3,2.9-0.5,2.9c-0.2,0-0.4-1-0.7-2.8c-0.1-0.9-0.3-2-0.5-3.3c-0.3-1.4-0.7-2.8-1.1-4.1
	c-0.5-1.5-1.3-3-2.4-4.3c-0.1-0.2-0.2-0.4-0.4-0.5l-0.5-0.5l-0.5-0.5l-0.5-0.4c-0.7-0.6-1.5-1.1-2.4-1.4c-0.8-0.4-1.7-0.6-2.7-0.7
	h-1.4c-0.5,0.1-0.9,0.2-1.4,0.4c-1.9,0.8-3.5,2.2-4.6,4c-1.2,1.9-2.1,4-2.7,6.2c-0.7,2.2-1.2,4.3-1.7,6.4c-0.4,2-0.8,4-1,5.9
	c-0.2,1.8-0.4,3.6-0.5,5.2c0,0.8-0.1,1.5-0.1,2.3v6.7c0,0.4,0,0.7-0.1,0.9C144.1,218.3,144,218.6,143.8,218.6L143.8,218.6z"/>
<path class="st20" d="M155.5,200l0.3,0.2c2.3,1.6,4.8,3,7.6,4c3.2,1.2,6.7,2,10.3,2.4c2,0.2,4,0.2,6,0.1c2.1-0.1,4.2-0.4,6.2-0.9
	c2-0.5,3.9-1.1,5.6-1.9c1.6-0.7,3.2-1.6,4.5-2.6c1.3-0.9,2.5-1.9,3.5-2.9c1-0.9,1.9-2,2.6-3c1.4-1.9,2.4-3.8,3.1-5.9
	c0.5-1.7,1-3.3,1.2-5.1c0.1-1.4,0.2-2.7,0.2-4.1V180c5.2-3.3,5.8-9,1.2-12.7c-0.3-0.3-0.8-0.6-1.2-0.8c-0.5-0.3-1.2-0.5-1.9-0.4
	c-1.9,0.1-2.3,1.7-1.9,2.8c0.3,1.2,0.8,2.1,0,3.1c-0.4,0.6-1.2,1-2.1,1h-0.3c-0.9,0-1.7,0.4-1.8,1.1c0,0.1,0,0.3,0.1,0.4
	c0.2,0.4,0.4,0.9,0.8,1.3c0.6,0.8,1.4,1.7,2.3,2.4c-0.9,1.4-1.9,3.1-3.2,5c-0.9,1.3-1.9,2.6-3,3.8c-1.1,1.3-2.4,2.5-3.8,3.6
	c-0.7,0.5-1.4,1.1-2.2,1.5c-0.8,0.5-1.6,0.9-2.5,1.3c-0.8,0.3-1.7,0.7-2.6,0.9c-0.8,0.2-1.7,0.4-2.6,0.5c-0.9,0.1-1.7,0.1-2.6,0
	c-0.9,0-1.8-0.1-2.7-0.2c-1.8-0.3-3.6-0.7-5.3-1.3c-1.6-0.5-3.2-1.2-4.7-1.9c-1.2-0.5-2.3-1.1-3.4-1.7
	C162.2,193.5,159.5,197.2,155.5,200L155.5,200z"/>
<path class="st18" d="M167.6,138.6c-0.5-2.2-2.1-4-4.1-4.9c-2-1-4.3-1.1-6.5-0.7c-2.3,0.5-4.3,1.5-5.9,3.2c-1.6,1.7-2.6,3.8-2.7,6.1
	c-0.2,3.6,1.7,7,3.5,10C156,146.6,161.4,141.9,167.6,138.6L167.6,138.6z"/>
<path class="st19" d="M170,134.6c1-0.7,2.2-0.9,3.4-0.9c1.7,0.5,2.8,2.1,2.6,3.8c-0.3,1.7-1.1,3.1-2.4,4.2c-4,3.6-9.7,4.6-14.7,2.3
	c-0.6-0.3-2.3-0.9-2.6-1.5c-0.5-1.1,0.6-1.2,1.5-1.7C161.8,138.8,165.9,136.7,170,134.6z"/>
<path class="st22" d="M156.3,162.9c-2.9-2.8-4.6-6.5-4.8-10.5c-0.1-2.4,0.3-4.8,1.2-7c0.2-0.4,0.5-0.8,0.8-1.2
	c0.6-0.8,1.3-1.5,2-2.2c1.4,2.2,2.3,4.6,2.7,7.2C159.2,153.9,158.5,158.7,156.3,162.9L156.3,162.9z M170.3,147.7
	c0.9,2.6,0.4,5.3-1.4,7.4c-1.2-1.8-1.9-3.9-2.1-6.1c-0.1-0.5,0-1.1,0.4-1.6c0.4-0.4,1-0.5,1.5-0.4
	C169.2,147.2,169.8,147.8,170.3,147.7L170.3,147.7z"/>
<path class="st20" d="M168.6,146.6c-0.6,2.8,0.6,5.7,1.6,8.4c1.1,2.7,2,5.8,0.8,8.4c-1.4,2.8-4.4,4.3-7.5,3.8
	c-3-0.7-5.5-2.6-6.8-5.4c-1.2-2.7-1.7-5.8-1.2-8.8c0.4-3,1.1-5.9,2.1-8.7C161.4,142.4,165.5,143.8,168.6,146.6L168.6,146.6z"/>
<path class="st20" d="M156.3,153.8c-0.4-0.4-0.8-0.8-1.2-1.1c-0.5-0.3-1-0.4-1.5-0.2c-0.7,0.2-1.2,0.8-1.4,1.4
	c-0.6,1.7,0.3,3.6,2.1,4.2c0.8,0.3,1.8,0.2,2.6-0.2C156.4,156.7,156.3,155.3,156.3,153.8L156.3,153.8z"/>
<path class="st22" d="M170.6,148.9c-4.3,0-8.4-1.2-12.1-3.5c0.3,1.2,0.2,2.6-0.2,3.8c-0.5,1.8-1.7,3.4-3.3,4.5
	c-1.6-2.5-2.3-5.5-1.8-8.5c0.1-0.4,0.2-0.7,0.2-1c0.6-0.8,1.3-1.5,2-2.2c1.2-1,2.6-1.8,4-2.3c3.9-1.4,8.3-0.8,11.7,1.5
	c0.3,0.2,0.6,0.5,0.8,0.8c0.7,0.7,1.1,1.5,1.5,2.5c0.7,1.7-0.2,3.6-1.9,4.2C171.4,148.8,171,148.9,170.6,148.9L170.6,148.9z"/>
<path class="st24" d="M495.7,292.3c0,0-6.6-5.6-4.2-13.8s13.4-14.5,26.6-11.9c13.2,2.6,23.7,16.6,24.8,25.7H495.7z"/>
<path class="st25" d="M539.8,274.1c2.4-2.1,5.4-3.3,8.6-3.3l-2.1,8.7L539.8,274.1L539.8,274.1z M532.2,274.4l-3.7-5.6
	c0,0-6,4.8-3.9,10.7C526.7,285.4,532.2,274.4,532.2,274.4L532.2,274.4z"/>
<path class="st25" d="M508.7,290.7c7.6-1.1,9.6-2.2,10.7,0.8c1,3.1-17.4,7.5-23.5,1.3c-6.1-6.2-4.7-12.8-4.7-12.8
	S494.4,292.8,508.7,290.7L508.7,290.7z"/>
<path class="st24" d="M526.5,276.7c0,0-7.1,5.2-6.4,10.8c0.7,5.6,8.5,6.6,19.6,6.1s9.4-7.9,9.1-10.1
	C548.4,281.3,540.5,266,526.5,276.7z"/>
<path class="st26" d="M527.7,279.1c0.3,1,0.9,1.9,1.7,2.5c0.8,0.6,1.6,0.9,2.6,0.9c3.5,0.2,3.4-3.1,3.4-3.1
	c-0.5,0.6-1.1,1.1-1.8,1.5c-0.7,0.3-1.4,0.5-2.1,0.5c-0.7,0-1.4-0.3-2.1-0.6C528.7,280.4,528.1,279.8,527.7,279.1L527.7,279.1z"/>
<path class="st27" d="M532.5,284.1c0.6-0.4,1.4-0.6,2.1-0.8c0.8-0.1,1.5-0.1,2.3,0c2.8,0.4,3.7,1.8,3.9,2.3c0.2,0.6-1,2.8-4.6,2.3
	C532.7,287.6,530.7,285.4,532.5,284.1z"/>
<path class="st26" d="M538.6,281.2c0.3,0.7,0.9,1.3,1.7,1.7c0.8,0.4,1.7,0.6,2.6,0.6c3.5,0.1,3.4-2,3.4-2c-0.5,0.4-1.1,0.7-1.8,1
	c-0.7,0.2-1.4,0.3-2.1,0.3c-0.7,0-1.4-0.2-2.1-0.4C539.6,282,539.1,281.7,538.6,281.2z M535.7,284.2c0.8-0.1,1.7,0,2.5,0.3
	c0.7,0.4-1.4,1.6-1.4,1.6S534.3,284.7,535.7,284.2z"/>
<path class="st27" d="M524.1,278.4c0,0-10.4,8.6,2.2,13.8C526.2,292.3,517.9,287.8,524.1,278.4z"/>
</svg>
