<svg version="1.1" xmlns="http://www.w3.org/2000/svg" xmlns:xlink="http://www.w3.org/1999/xlink" width="630" height="390" viewBox="0 0 630 390">
<style type="text/css">
	.st0{fill:#EAF1FC;}
	.st1{fill:#F8F8FF;}
	.st2{fill:#CDE4F7;}
	.st3{fill:#E9EDF4;}
	.st4{fill:#FFFFFF;}
	.st5{fill:#ECF7FE;}
	.st6{fill:#2C6292;}
	.st7{fill:#0B2B46;}
	.st8{fill:#448DCE;}
	.st9{fill:#84B7DD;}
	.st10{fill:#A9DEFF;}
	.st11{fill:#E08F73;}
	.st12{fill:#F09976;}
	.st13{fill:#E8815F;}
	.st14{fill:#047487;}
	.st15{fill:#05616B;}
	.st16{fill:#02819F;}
	.st17{fill:#F8C47A;}
	.st18{fill:#E19A54;}
	.st19{fill:#FFDF9A;}
	.st20{fill:#E4E6E6;}
	.st21{fill:#CE8D4D;}
	.st22{fill:#FFDA35;}
	.st23{fill:#DF8E73;}
	.st24{fill:#132B45;}
	.st25{fill:#F09876;}
	.st26{fill:#E8805E;}
	.st27{fill:#027486;}
	.st28{fill:#07626C;}
	.st29{fill:#301D49;}
	.st30{fill:#E3B370;}
	.st31{fill:#CE8C4D;}
	.st32{fill:#D9A863;}
	.st33{fill:#E4E6E5;}
</style>
<path class="st0" d="M628,336.7c0,0.8-0.1,1.5-0.4,2.2c-0.3,0.8-0.7,1.5-1.1,2.2c-0.6,0.8-1.2,1.5-1.9,2.2c-0.8,0.8-1.7,1.5-2.6,2.2
	c-1.1,0.8-2.2,1.5-3.4,2.2c-1.3,0.7-2.6,1.4-4.1,2.1c-1.5,0.7-3.1,1.4-4.8,2.1c-1.7,0.7-3.6,1.4-5.5,2.1c-1.9,0.7-4,1.4-6.2,2
	c-2.2,0.7-4.5,1.3-6.9,2c-2.4,0.7-5,1.3-7.6,1.9c-2.6,0.6-5.4,1.3-8.2,1.9c-2.9,0.6-5.8,1.2-8.9,1.8c-3.1,0.6-6.2,1.2-9.5,1.7
	c-3.3,0.6-6.6,1.1-10.1,1.7c-3.5,0.5-7,1.1-10.6,1.6c-3.6,0.5-7.3,1.1-11.1,1.5c-3.8,0.5-7.7,1-11.7,1.4c-8.2,1-16.5,1.8-24.7,2.6
	c-4.3,0.4-8.6,0.8-13,1.2c-4.4,0.4-8.9,0.7-13.4,1.1c-4.5,0.4-9.1,0.7-13.8,1c-4.6,0.3-9.4,0.6-14.1,0.9c-4.7,0.3-9.5,0.5-14.4,0.8
	c-4.8,0.3-9.7,0.5-14.6,0.7s-9.9,0.4-14.8,0.6c-5,0.2-10,0.3-15,0.5c-5,0.1-10.1,0.3-15.2,0.4c-5.1,0.1-10.2,0.2-15.3,0.3
	c-5.1,0.1-10.2,0.1-15.4,0.2c-5.1,0-10.3,0.1-15.4,0.1c-5.1,0-10.3,0-15.4-0.1c-5.1-0.1-10.3-0.1-15.4-0.2
	c-5.1-0.1-10.2-0.2-15.3-0.3c-5.1-0.1-10.1-0.2-15.2-0.4c-5-0.1-10.1-0.3-15-0.5c-5-0.2-9.9-0.4-14.9-0.6c-4.9-0.2-9.8-0.4-14.6-0.7
	c-4.8-0.2-9.6-0.5-14.4-0.8c-4.7-0.3-9.4-0.6-14.1-0.9c-4.6-0.3-9.2-0.6-13.8-1c-4.5-0.3-9-0.7-13.4-1.1s-8.7-0.8-13-1.2
	c-4.3-0.4-8.5-0.8-12.6-1.3c-4.1-0.4-8.2-0.9-12.2-1.4c-4-0.5-7.9-0.9-11.7-1.4c-3.8-0.5-7.5-1-11.2-1.5c-3.6-0.5-7.2-1.1-10.6-1.6
	c-3.4-0.5-6.8-1.1-10.1-1.7s-6.4-1.2-9.5-1.7c-3.1-0.6-6-1.2-8.9-1.8c-2.9-0.6-5.6-1.2-8.2-1.9c-2.6-0.6-5.2-1.3-7.6-1.9
	c-2.4-0.6-4.7-1.3-6.9-2c-2.2-0.7-4.3-1.3-6.2-2c-2-0.7-3.8-1.4-5.5-2.1c-1.7-0.7-3.3-1.4-4.8-2.1s-2.9-1.4-4.1-2.1
	c-1.2-0.7-2.3-1.4-3.4-2.2c-0.9-0.7-1.8-1.4-2.6-2.2c-0.7-0.7-1.3-1.4-1.9-2.2c-0.5-0.7-0.9-1.4-1.1-2.2c-0.5-1.4-0.5-3,0-4.4
	c0.3-0.8,0.7-1.5,1.1-2.2c0.6-0.8,1.2-1.5,1.9-2.2c0.8-0.8,1.7-1.5,2.6-2.2c1.1-0.8,2.2-1.5,3.4-2.2c1.3-0.7,2.6-1.4,4.1-2.1
	c1.5-0.7,3.1-1.4,4.8-2.1c1.7-0.7,3.6-1.4,5.5-2.1c1.9-0.7,4.1-1.4,6.2-2c2.2-0.7,4.5-1.3,6.9-2c2.4-0.7,5-1.3,7.6-1.9
	c2.6-0.6,5.4-1.3,8.2-1.9c2.9-0.6,5.8-1.2,8.9-1.8c3.1-0.6,6.2-1.2,9.5-1.7c3.3-0.6,6.6-1.1,10.1-1.7c3.5-0.6,7-1.1,10.6-1.6
	c3.6-0.5,7.4-1,11.2-1.5c3.8-0.5,7.7-1,11.7-1.4c4-0.5,8-0.9,12.2-1.4c4.1-0.4,8.3-0.9,12.6-1.3c4.3-0.4,8.6-0.8,13-1.2
	c4.4-0.4,8.9-0.7,13.4-1.1c4.5-0.4,9.1-0.7,13.8-1c4.6-0.3,9.3-0.6,14.1-0.9c4.7-0.3,9.5-0.5,14.4-0.8c4.8-0.2,9.7-0.5,14.6-0.7
	c4.9-0.2,9.9-0.4,14.9-0.6c5-0.2,10-0.3,15-0.5c5-0.1,10.1-0.3,15.2-0.4c5.1-0.1,10.2-0.2,15.3-0.3c5.1-0.1,10.2-0.1,15.4-0.2
	c5.1,0,10.3-0.1,15.4-0.1c5.1,0,10.3,0,15.4,0.1c5.1,0.1,10.3,0.1,15.4,0.2c5.1,0.1,10.2,0.2,15.3,0.3c5.1,0.1,10.1,0.2,15.2,0.4
	c5,0.1,10.1,0.3,15,0.5c5,0.2,9.9,0.4,14.8,0.6c4.9,0.2,9.8,0.4,14.6,0.7c4.8,0.2,9.6,0.5,14.4,0.8c4.7,0.3,9.4,0.6,14.1,0.9
	c4.6,0.3,9.2,0.6,13.8,1c4.5,0.3,9,0.7,13.4,1.1c4.4,0.4,8.8,0.8,13,1.2c4.3,0.4,8.5,0.8,12.6,1.3c4.1,0.4,8.2,0.9,12.2,1.3
	c4,0.5,7.9,0.9,11.7,1.4c3.8,0.5,7.5,1,11.2,1.5c3.6,0.5,7.2,1,10.6,1.6c3.4,0.5,6.8,1.1,10.1,1.7c3.3,0.6,6.4,1.2,9.5,1.7
	c3.1,0.6,6,1.2,8.9,1.8c2.8,0.6,5.6,1.2,8.2,1.9c2.6,0.6,5.2,1.3,7.6,1.9c2.4,0.6,4.7,1.3,6.9,2c2.2,0.7,4.3,1.3,6.2,2
	c2,0.7,3.8,1.4,5.5,2.1c1.7,0.7,3.3,1.4,4.8,2.1c1.5,0.7,2.9,1.4,4.1,2.1c1.2,0.7,2.3,1.4,3.4,2.2c0.9,0.7,1.8,1.4,2.6,2.2
	c0.7,0.7,1.3,1.4,1.9,2.2c0.5,0.7,0.9,1.4,1.1,2.2C627.9,335.1,628,335.9,628,336.7z"/>
<path class="st1" d="M585.5,318.8c41-79,63.4-230.2-25.2-280.4c-58-32.8-118.4,9.4-180.5,11.3C331,51.3,284.1,15.5,240.2,5.3
	C125.1-21.4-56,48.1,23.6,318.8C222.7,318.3,386.4,319.4,585.5,318.8z"/>
<path class="st2" d="M48.4,155h118.5v163.9H48.4V155z"/>
<path class="st3" d="M130,155h36.9v163.9H130V155z"/>
<path class="st4" d="M48.4,164h118.5v1.4H48.4V164z M48.4,174.8h118.5v1.4H48.4V174.8z M48.4,185.6h118.5v1.4H48.4V185.6z
	 M48.4,196.4h118.5v1.4H48.4V196.4z M48.4,207.2h118.5v1.4H48.4V207.2z M48.4,218.1h118.5v1.4H48.4V218.1z M48.4,228.9h118.5v1.4
	H48.4V228.9z M48.4,239.7h118.5v1.4H48.4V239.7z M48.4,250.5h118.5v1.4H48.4V250.5z M48.4,261.3h118.5v1.4H48.4V261.3z M48.4,272.1
	h118.5v1.4H48.4V272.1z M48.4,283h118.5v1.4H48.4V283z M48.4,293.8h118.5v1.4H48.4V293.8z M48.4,304.6h118.5v1.4H48.4V304.6z"/>
<path class="st2" d="M356.5,124.6h113.8v193.6H356.5V124.6z"/>
<path class="st3" d="M356.5,124.6h35.4v193.6h-35.4V124.6z"/>
<path class="st4" d="M363.8,180.5h5.2v5.5h-5.2V180.5z M373.4,180.5h5.3v5.5h-5.2L373.4,180.5z M383,180.5h5.2v5.5h-5.3L383,180.5z
	 M400.4,294.6h5.2v5.5h-5.2V294.6z M410,294.6h5.2v5.5H410V294.6z M419.5,294.6h5.3v5.5h-5.2L419.5,294.6z M429.1,294.6h5.2v5.5
	h-5.3L429.1,294.6z M438.7,294.6h5.2v5.5h-5.2V294.6z M448.2,294.6h5.2v5.5h-5.2V294.6z M457.8,294.6h5.3v5.5h-5.2L457.8,294.6z
	 M400.4,282.9h5.2v5.5h-5.2V282.9z M410,282.9h5.2v5.5H410V282.9z M419.5,282.9h5.3v5.5h-5.2L419.5,282.9z M429.1,282.9h5.2v5.5
	h-5.3L429.1,282.9z M438.7,282.9h5.2v5.5h-5.2V282.9z M448.2,282.9h5.2v5.5h-5.2V282.9z M457.8,282.9h5.3v5.5h-5.2L457.8,282.9z
	 M400.4,271.2h5.2v5.5h-5.2V271.2z M410,271.2h5.2v5.5H410V271.2z M419.5,271.2h5.3v5.5h-5.2L419.5,271.2z M429.1,271.2h5.2v5.5
	h-5.3L429.1,271.2z M438.7,271.2h5.2v5.5h-5.2V271.2z M448.2,271.2h5.2v5.5h-5.2V271.2z M457.8,271.2h5.3v5.5h-5.2L457.8,271.2z
	 M400.4,259.6h5.2v5.5h-5.2V259.6z M410,259.6h5.2v5.5H410V259.6z M419.5,259.6h5.3v5.5h-5.2L419.5,259.6z M429.1,259.6h5.2v5.5
	h-5.3L429.1,259.6z M438.7,259.6h5.2v5.5h-5.2V259.6z M448.2,259.6h5.2v5.5h-5.2V259.6z M457.8,259.6h5.3v5.5h-5.2L457.8,259.6z
	 M400.4,247.9h5.2v5.5h-5.2V247.9z M410,247.9h5.2v5.5H410V247.9z M419.5,247.9h5.3v5.5h-5.2L419.5,247.9z M429.1,247.9h5.2v5.5
	h-5.3L429.1,247.9z M438.7,247.9h5.2v5.5h-5.2V247.9z M448.2,247.9h5.2v5.5h-5.2V247.9z M457.8,247.9h5.3v5.5h-5.2L457.8,247.9z
	 M400.4,238.1h5.2v5.5h-5.2V238.1z M410,238.1h5.2v5.5H410V238.1z M419.5,238.1h5.3v5.5h-5.2L419.5,238.1z M429.1,238.1h5.2v5.5
	h-5.3L429.1,238.1z M438.7,238.1h5.2v5.5h-5.2V238.1z M448.2,238.1h5.2v5.5h-5.2V238.1z M457.8,238.1h5.3v5.5h-5.2L457.8,238.1z
	 M400.4,226.4h5.2v5.5h-5.2V226.4z M410,226.4h5.2v5.5H410V226.4z M419.5,226.4h5.3v5.5h-5.2L419.5,226.4z M429.1,226.4h5.2v5.5
	h-5.3L429.1,226.4z M438.7,226.4h5.2v5.5h-5.2V226.4z M448.2,226.4h5.2v5.5h-5.2V226.4z M457.8,226.4h5.3v5.5h-5.2L457.8,226.4z
	 M400.4,214.7h5.2v5.5h-5.2V214.7z M410,214.7h5.2v5.5H410V214.7z M419.5,214.7h5.3v5.5h-5.2L419.5,214.7z M429.1,214.7h5.2v5.5
	h-5.3L429.1,214.7z M438.7,214.7h5.2v5.5h-5.2V214.7z M448.2,214.7h5.2v5.5h-5.2V214.7z M457.8,214.7h5.3v5.5h-5.2L457.8,214.7z
	 M400.4,203.1h5.2v5.5h-5.2V203.1z M410,203.1h5.2v5.5H410V203.1z M419.5,203.1h5.3v5.5h-5.2L419.5,203.1z M429.1,203.1h5.2v5.5
	h-5.3L429.1,203.1z M438.7,203.1h5.2v5.5h-5.2V203.1z M448.2,203.1h5.2v5.5h-5.2V203.1z M457.8,203.1h5.3v5.5h-5.2L457.8,203.1z
	 M400.4,191.4h5.2v5.6h-5.2V191.4z M410,191.4h5.2v5.6H410V191.4z M419.5,191.4h5.3v5.6h-5.2L419.5,191.4z M429.1,191.4h5.2v5.6
	h-5.3L429.1,191.4z M438.7,191.4h5.2v5.6h-5.2V191.4z M448.2,191.4h5.2v5.6h-5.2V191.4z M457.8,191.4h5.3v5.6h-5.2L457.8,191.4z
	 M400.4,180.5h5.2v5.5h-5.2V180.5z M410,180.5h5.2v5.5H410V180.5z M419.5,180.5h5.3v5.5h-5.2L419.5,180.5z M429.1,180.5h5.2v5.5
	h-5.3L429.1,180.5z M438.7,180.5h5.2v5.5h-5.2V180.5z M448.2,180.5h5.2v5.5h-5.2V180.5z M457.8,180.5h5.3v5.5h-5.2L457.8,180.5z
	 M363.8,168.8h5.2v5.5h-5.2V168.8z M373.4,168.8h5.3v5.5h-5.2L373.4,168.8z M383,168.8h5.2v5.5h-5.3L383,168.8z M400.4,168.8h5.2
	v5.5h-5.2V168.8z M410,168.8h5.2v5.5H410V168.8z M419.5,168.8h5.3v5.5h-5.2L419.5,168.8z M429.1,168.8h5.2v5.5h-5.3L429.1,168.8z
	 M438.7,168.8h5.2v5.5h-5.2V168.8z M448.2,168.8h5.2v5.5h-5.2V168.8z M457.8,168.8h5.3v5.5h-5.2L457.8,168.8z M363.8,157.2h5.2v5.5
	h-5.2V157.2z M373.4,157.2h5.3v5.5h-5.2L373.4,157.2z M383,157.2h5.2v5.5h-5.3L383,157.2z M400.4,157.2h5.2v5.5h-5.2V157.2z
	 M410,157.2h5.2v5.5H410V157.2z M419.5,157.2h5.3v5.5h-5.2L419.5,157.2z M429.1,157.2h5.2v5.5h-5.3L429.1,157.2z M438.7,157.2h5.2
	v5.5h-5.2V157.2z M448.2,157.2h5.2v5.5h-5.2V157.2z M457.8,157.2h5.3v5.5h-5.2L457.8,157.2z M363.8,145.5h5.2v5.5h-5.2V145.5z
	 M373.4,145.5h5.3v5.5h-5.2L373.4,145.5z M383,145.5h5.2v5.5h-5.3L383,145.5z M400.4,145.5h5.2v5.5h-5.2V145.5z M410,145.5h5.2v5.5
	H410V145.5z M419.5,145.5h5.3v5.5h-5.2L419.5,145.5z M429.1,145.5h5.2v5.5h-5.3L429.1,145.5z M438.7,145.5h5.2v5.5h-5.2V145.5z
	 M448.2,145.5h5.2v5.5h-5.2V145.5z M457.8,145.5h5.3v5.5h-5.2L457.8,145.5z M363.8,133.9h5.2v5.5h-5.2V133.9z M373.4,133.9h5.3v5.5
	h-5.2L373.4,133.9z M383,133.9h5.2v5.5h-5.3L383,133.9z M363.8,237.9h5.2v5.5h-5.2V237.9z M373.4,237.9h5.3v5.5h-5.2L373.4,237.9z
	 M383,237.9h5.2v5.5h-5.3L383,237.9z M363.8,226.3h5.2v5.5h-5.2V226.3z M373.4,226.3h5.3v5.5h-5.2L373.4,226.3z M383,226.3h5.2v5.5
	h-5.3L383,226.3z M363.8,214.6h5.2v5.5h-5.2V214.6z M373.4,214.6h5.3v5.5h-5.2L373.4,214.6z M383,214.6h5.2v5.5h-5.3L383,214.6z
	 M363.8,202.9h5.2v5.5h-5.2V202.9z M373.4,202.9h5.3v5.5h-5.2L373.4,202.9z M383,202.9h5.2v5.5h-5.3L383,202.9z M363.8,191.2h5.2
	v5.5h-5.2V191.2z M373.4,191.2h5.3v5.5h-5.2L373.4,191.2z M383,191.2h5.2v5.5h-5.3L383,191.2z M363.8,294.7h5.2v5.5h-5.2V294.7z
	 M373.4,294.7h5.3v5.5h-5.2L373.4,294.7z M383,294.7h5.2v5.5h-5.3L383,294.7z M363.8,283h5.2v5.5h-5.2V283z M373.4,283h5.3v5.5h-5.2
	L373.4,283z M383,283h5.2v5.5h-5.3L383,283z M363.8,271.4h5.2v5.5h-5.2V271.4z M373.4,271.4h5.3v5.5h-5.2L373.4,271.4z M383,271.4
	h5.2v5.5h-5.3L383,271.4z M363.8,259.7h5.2v5.5h-5.2V259.7z M373.4,259.7h5.3v5.5h-5.2L373.4,259.7z M383,259.7h5.2v5.5h-5.3
	L383,259.7z M363.8,248h5.2v5.5h-5.2V248z M373.4,248h5.3v5.5h-5.2L373.4,248z M383,248h5.2v5.5h-5.3L383,248z M400.4,133.8h5.2v5.5
	h-5.2V133.8z M410,133.8h5.2v5.5H410V133.8z M419.5,133.8h5.3v5.5h-5.2L419.5,133.8z M429.1,133.8h5.2v5.5h-5.3L429.1,133.8z
	 M438.7,133.8h5.2v5.5h-5.2V133.8z M448.2,133.8h5.2v5.5h-5.2V133.8z M457.8,133.8h5.3v5.5h-5.2L457.8,133.8z"/>
<path class="st2" d="M153.3,127.2h93.8v192.4h-93.8V127.2z"/>
<path class="st3" d="M153.3,127.2h29.2v192.4h-29.2V127.2z"/>
<path class="st4" d="M159.3,280.5h4.3v21.2h-4.3V280.5z M167.1,280.5h4.3v21.2h-4.3V280.5z M175,280.5h4.3v21.2H175V280.5z
	 M189.4,280.5h4.3v21.2h-4.3V280.5z M197.3,280.5h4.3v21.2h-4.3V280.5z M205.2,280.5h4.3v21.2h-4.3V280.5z M213.1,280.5h4.3v21.2
	h-4.3V280.5z M159.3,256.5h4.3v21.2h-4.3V256.5z M167.1,256.5h4.3v21.2h-4.3V256.5z M175,256.5h4.3v21.2H175V256.5z M189.4,256.5
	h4.3v21.2h-4.3V256.5z M197.3,256.5h4.3v21.2h-4.3V256.5z M205.2,256.5h4.3v21.2h-4.3V256.5z M213.1,256.5h4.3v21.2h-4.3V256.5z
	 M197.3,232.5h4.3v21.3h-4.3V232.5z M205.1,232.5h4.3v21.3h-4.3V232.5z M213.1,232.5h4.3v21.3h-4.3V232.5z M175,232.2h4.3v21.3H175
	V232.2z M159.3,232.1h4.3v21.2h-4.3V232.1z M167.1,232.1h4.3v21.2h-4.3V232.1z M175,208.4h4.3v21.2H175V208.4z M189.4,232.5h4.3
	v21.2h-4.3V232.5z M189.4,208.4h4.3v21.2h-4.3V208.4z M197.3,208.4h4.3v21.2h-4.3V208.4z M205.2,208.4h4.3v21.2h-4.3V208.4z
	 M213.1,208.4h4.3v21.2h-4.3V208.4z M159.3,208.3h4.3v21.2h-4.3V208.3z M167.1,208.3h4.3v21.2h-4.3V208.3z M159.3,184.4h4.3v21.2
	h-4.3V184.4z M167.1,184.4h4.3v21.2h-4.3V184.4z M175,184.4h4.3v21.2H175V184.4z M189.4,184.4h4.3v21.2h-4.3V184.4z M197.3,184.4
	h4.3v21.2h-4.3V184.4z M205.2,184.4h4.3v21.2h-4.3V184.4z M213.1,184.4h4.3v21.2h-4.3V184.4z M159.3,160.3h4.3v21.2h-4.3V160.3z
	 M167.1,160.3h4.3v21.2h-4.3V160.3z M175,160.3h4.3v21.2H175V160.3z M189.4,160.3h4.3v21.2h-4.3V160.3z M197.3,160.3h4.3v21.2h-4.3
	V160.3z M205.2,160.3h4.3v21.2h-4.3V160.3z M213.1,160.3h4.3v21.2h-4.3V160.3z M159.3,136.3h4.3v21.2h-4.3V136.3z M167.1,136.3h4.3
	v21.2h-4.3V136.3z M175,136.3h4.3v21.2H175V136.3z M189.4,136.3h4.3v21.2h-4.3V136.3z M197.3,136.3h4.3v21.2h-4.3V136.3z
	 M205.2,136.3h4.3v21.2h-4.3V136.3z M213.1,136.3h4.3v21.2h-4.3V136.3z"/>
<path class="st2" d="M469.4,159h115.1v159.1H469.4V159z"/>
<path class="st3" d="M469.4,159h35.9v159.1h-35.9V159z"/>
<path class="st4" d="M469.4,304.4h115.1v1.3H469.4V304.4z M469.4,293.8h115.1v1.3H469.4V293.8z M469.4,283.3h115.1v1.3H469.4V283.3z
	 M469.4,272.8h115.1v1.3H469.4V272.8z M469.4,262.3h115.1v1.3H469.4V262.3z M469.4,251.8h115.1v1.3H469.4V251.8z M469.4,241.3h115.1
	v1.3H469.4V241.3z M469.4,230.8h115.1v1.3H469.4V230.8z M469.4,220.3h115.1v1.3H469.4V220.3z M469.4,209.7h115.1v1.3H469.4V209.7z
	 M469.4,199.3h115.1v1.3H469.4V199.3z M469.4,188.8h115.1v1.3H469.4V188.8z M469.4,178.2h115.1v1.3H469.4V178.2z M469.4,167.7h115.1
	v1.3H469.4V167.7z"/>
<path class="st2" d="M219.9,74.9h119.3v244.7H219.9V74.9z"/>
<path class="st5" d="M219.9,74.9H257v244.7h-37.2V74.9z"/>
<path class="st4" d="M227.5,293.1h5.5v7h-5.5V293.1z M237.5,293.1h5.5v7h-5.5V293.1z M247.5,293.1h5.5v7h-5.5V293.1z M265.9,293.1
	h5.5v7h-5.5V293.1z M275.9,293.1h5.5v7h-5.5V293.1z M285.9,293.1h5.5v7h-5.5V293.1z M296,293.1h5.5v7H296L296,293.1z M227.6,278.4
	h5.5v7h-5.5V278.4z M237.6,278.4h5.5v7h-5.5V278.4z M247.6,278.4h5.5v7h-5.5L247.6,278.4z M265.9,278.4h5.5v7h-5.5V278.4z
	 M275.9,278.4h5.5v7h-5.5V278.4z M285.9,278.4h5.5v7h-5.5V278.4z M296,278.4h5.5v7H296L296,278.4z M227.5,263.6h5.5v7h-5.5V263.6z
	 M237.5,263.6h5.5v7h-5.5V263.6z M247.5,263.6h5.5v7h-5.5V263.6z M265.9,263.6h5.5v7h-5.5V263.6z M275.9,263.6h5.5v7h-5.5V263.6z
	 M285.9,263.6h5.5v7h-5.5V263.6z M296,263.6h5.5v7H296L296,263.6z M227.6,248.8h5.5v7h-5.5V248.8z M237.6,248.8h5.5v7h-5.5V248.8z
	 M247.6,248.8h5.5v7h-5.5L247.6,248.8z M265.9,248.8h5.5v7h-5.5V248.8z M275.9,248.8h5.5v7h-5.5V248.8z M285.9,248.8h5.5v7h-5.5
	V248.8z M296,248.8h5.5v7H296L296,248.8z M227.6,234.1h5.5v7h-5.5V234.1z M237.6,234.1h5.5v7h-5.5V234.1z M247.6,234.1h5.5v7h-5.5
	L247.6,234.1z M265.9,234.1h5.5v7h-5.5V234.1z M276,234.1h5.5v7H276V234.1z M286,234.1h5.5v7H286V234.1z M296.1,234.1h5.5v7H296
	L296.1,234.1z M227.6,219.4h5.5v7h-5.5V219.4z M237.6,219.4h5.5v7h-5.5V219.4z M247.6,219.4h5.4v7h-5.5L247.6,219.4z M266,219.4h5.5
	v7H266V219.4z M276,219.4h5.5v7H276V219.4z M286,219.4h5.5v7H286V219.4z M296.1,219.4h5.5v7H296L296.1,219.4z M227.6,204.6h5.5v7
	h-5.5V204.6z M237.6,204.6h5.5v7h-5.5V204.6z M247.7,204.6h5.4v7h-5.5L247.7,204.6z M266,204.6h5.5v7H266V204.6z M276,204.6h5.5v7
	H276V204.6z M286,204.6h5.5v7H286V204.6z M296.1,204.6h5.5v7H296L296.1,204.6z M227.5,189.8h5.5v7h-5.5V189.8z M237.5,189.8h5.5v7
	h-5.5V189.8z M247.5,189.8h5.5v7h-5.5V189.8z M265.9,189.8h5.5v7h-5.5V189.8z M275.9,189.8h5.5v7h-5.5V189.8z M285.9,189.8h5.5v7
	h-5.5V189.8z M296,189.8h5.5v7H296L296,189.8z M296,293.1h5.5v7H296L296,293.1z M306,293.1h5.5v7H306L306,293.1z M316,293.1h5.5v7
	H316V293.1z M326.1,293.1h5.5v7h-5.5V293.1z M296,278.4h5.5v7H296V278.4z M306,278.4h5.5v7H306L306,278.4z M316,278.4h5.5v7H316
	V278.4z M326.1,278.4h5.5v7h-5.5V278.4z M296,263.6h5.5v7H296V263.6z M306,263.6h5.5v7H306L306,263.6z M316,263.6h5.5v7H316V263.6z
	 M326.1,263.6h5.5v7h-5.5V263.6z M296,248.8h5.5v7H296V248.8z M306,248.8h5.5v7H306L306,248.8z M316,248.8h5.5v7H316V248.8z
	 M326.1,248.8h5.5v7h-5.5V248.8z M296,234.1h5.5v7H296V234.1z M306,234.1h5.5v7H306L306,234.1z M316,234.1h5.5v7H316V234.1z
	 M326.1,234.1h5.5v7h-5.5V234.1z M296,219.3h5.5v7H296V219.3z M306,219.3h5.5v7H306L306,219.3z M316,219.3h5.5v7H316V219.3z
	 M326.1,219.3h5.5v7h-5.5V219.3z M296,204.6h5.5v7H296V204.6z M306,204.6h5.5v7H306L306,204.6z M316,204.6h5.5v7H316V204.6z
	 M326.1,204.6h5.5v7h-5.5V204.6z M296,189.8h5.5v7H296V189.8z M306,189.8h5.5v7H306L306,189.8z M316,189.8h5.5v7H316V189.8z
	 M326.1,189.8h5.5v7h-5.5V189.8z M227.6,175.1h5.5v7h-5.5V175.1z M237.6,175.1h5.5v7h-5.5V175.1z M247.6,175.1h5.5v7h-5.5
	L247.6,175.1z M265.9,175.1h5.5v7h-5.5V175.1z M275.9,175.1h5.5v7h-5.5V175.1z M285.9,175.1h5.5v7h-5.5V175.1z M296,175.1h5.5v7H296
	L296,175.1z M306,175.1h5.4v7H306L306,175.1z M316,175.1h5.5v7H316V175.1z M326.1,175.1h5.5v7h-5.5V175.1z M227.5,160.3h5.5v7h-5.5
	V160.3z M237.5,160.3h5.5v7h-5.5V160.3z M247.5,160.3h5.5v7h-5.5V160.3z M265.9,160.3h5.5v7h-5.5V160.3z M275.9,160.3h5.5v7h-5.5
	V160.3z M285.9,160.3h5.5v7h-5.5V160.3z M296,160.3h5.5v7H296L296,160.3z M306,160.3h5.5v7H306L306,160.3z M316,160.3h5.5v7H316
	V160.3z M326,160.3h5.5v7H326V160.3z M227.5,145.6h5.5v7h-5.5V145.6z M237.5,145.6h5.5v7h-5.5V145.6z M247.5,145.6h5.5v7h-5.5V145.6
	z M265.9,145.6h5.5v7h-5.5V145.6z M275.9,145.6h5.5v7h-5.5V145.6z M285.9,145.6h5.5v7h-5.5V145.6z M296,145.6h5.5v7H296L296,145.6z
	 M306,145.6h5.5v7H306L306,145.6z M316,145.6h5.5v7H316V145.6z M326,145.6h5.5v7H326V145.6z M227.5,130.8h5.5v7h-5.5V130.8z
	 M237.5,130.8h5.5v7h-5.5V130.8z M247.5,130.8h5.5v7h-5.5V130.8z M265.9,130.8h5.5v7h-5.5V130.8z M275.9,130.8h5.5v7h-5.5V130.8z
	 M285.9,130.8h5.5v7h-5.5V130.8z M296,130.8h5.5v7H296L296,130.8z M306,130.8h5.5v7H306L306,130.8z M316,130.8h5.5v7H316V130.8z
	 M326,130.8h5.5v7H326V130.8z M227.5,116h5.5v7h-5.5V116z M237.5,116h5.5v7h-5.5V116z M247.5,116h5.5v7h-5.5V116z M265.9,116h5.5v7
	h-5.5V116z M275.9,116h5.5v7h-5.5V116z M285.9,116h5.5v7h-5.5V116z M296,116h5.5v7H296L296,116z M306,116h5.5v7H306L306,116z
	 M316,116h5.5v7H316V116z M326,116h5.5v7H326V116z M227.5,101.3h5.5v7h-5.5V101.3z M237.5,101.3h5.5v7h-5.5V101.3z M247.5,101.3h5.5
	v7h-5.5V101.3z M265.9,101.3h5.5v7h-5.5V101.3z M275.9,101.3h5.5v7h-5.5V101.3z M285.9,101.3h5.5v7h-5.5V101.3z M296,101.3h5.5v7
	H296L296,101.3z M306,101.3h5.5v7H306L306,101.3z M316,101.3h5.5v7H316V101.3z M326,101.3h5.5v7H326V101.3z M227.5,86.6h5.5v7h-5.5
	V86.6z M237.5,86.6h5.5v7h-5.5V86.6z M247.5,86.6h5.5v7h-5.5V86.6z M265.9,86.6h5.5v7h-5.5V86.6z M275.9,86.6h5.5v7h-5.5V86.6z
	 M285.9,86.6h5.5v7h-5.5V86.6z M296,86.6h5.5v7H296L296,86.6z M306,86.6h5.5v7H306L306,86.6z M316,86.6h5.5v7H316V86.6z M326,86.6
	h5.5v7H326V86.6z"/>
<path class="st5" d="M322.4,74.9h-85.8V64.7c0-2.1,0.8-4.1,2.3-5.6c1.5-1.5,3.5-2.3,5.6-2.4h70.1c1,0,2.1,0.2,3,0.6
	c1,0.4,1.8,1,2.6,1.7c0.7,0.7,1.3,1.6,1.7,2.6c0.4,1,0.6,2,0.6,3L322.4,74.9L322.4,74.9z"/>
<path class="st2" d="M605.6,238.9c3.8-0.7,6.4,3.3,7.1,6.8c0.4,1.9,0.4,4,1.9,5.3c0.6,0.5,1.3,0.9,2.1,1.2c4.1,2.2,4.5,6.2,4.6,10.2
	c-0.1,0.7,0.1,1.4,0.3,2c0.4,0.7,1.1,1,1.6,1.7c0.3,0.4,0.5,0.9,0.6,1.4c1,4.6,0.5,8.9,0.5,13.4c-0.3,32.7-18.1,31.2-18.1,31.2h-0.7
	c-4.3-0.2-8.1-2.8-10.7-6.2c-2.6-3.4-4.1-7.7-5-11.9c-0.6-3.1-1-6.2-1.1-9.4c-0.2-3.4-0.9-6.6,0.4-9.9c0.6-1.5,1.5-3,1.5-4.6
	c0-1.8-1.1-3.5-1.2-5.2c0-1.1,0.3-2.1,0.7-3.1c0.9-2.5,2-4.9,3.2-7.3c1-1.7,3.3-2.8,3.9-4.8c0.1-0.8,0.2-1.7,0.1-2.5
	c0.1-4.2,3.7-7.1,7.5-8.2C605.1,239,605.3,239,605.6,238.9L605.6,238.9z"/>
<path class="st4" d="M608.8,345.7h-4.3l1.4-52.4l0.7-1.3L608.8,345.7z"/>
<path class="st2" d="M32.4,234.5c3.5-0.6,5.9,3,6.6,6.3c0.3,1.7,0.3,3.7,1.7,4.8c0.6,0.4,1.2,0.8,1.9,1.1c3.9,2,4.1,5.7,4.2,9.5
	c-0.1,0.6,0.1,1.2,0.3,1.8c0.3,0.6,1,1,1.4,1.5c0.3,0.4,0.4,0.9,0.5,1.4c1,4.3,0.5,8.2,0.4,12.5c-0.2,30.3-16.7,28.9-16.7,28.9h-0.6
	c-4-0.2-7.6-2.6-9.9-5.7c-2.3-3.3-3.8-7-4.5-11c-0.5-2.9-0.9-5.8-1-8.7c-0.2-3.2-0.8-6.1,0.3-9.2c0.6-1.4,1.4-2.8,1.4-4.3
	c0-1.7-1-3.2-1-4.8c0-1,0.2-2,0.6-2.9c0.8-2.3,1.8-4.6,3-6.7c1-1.7,3.1-2.6,3.7-4.4c0.2-0.8,0.2-1.6,0.1-2.4c0.1-3.9,3.5-6.6,7-7.5
	L32.4,234.5z"/>
<path class="st4" d="M35.5,333.4h-4l1.3-48.6l0.6-1.2L35.5,333.4z"/>
<path class="st6" d="M366.4,176.6v158.1L273,357.1l-2.5-3.6v-196l2.5-3.5L366.4,176.6z"/>
<path class="st7" d="M276.5,158.9l87.7,19.8v153l-87.7,17.9V158.9z"/>
<path class="st8" d="M273,154v203.1L50,317V190.3L273,154z"/>
<path class="st7" d="M254.9,331.5h-6.2v-170l6.2-0.6V331.5z"/>
<path class="st6" d="M253.4,160.9h2.1v170.6h-2.1V160.9z"/>
<path class="st7" d="M239.4,331.5h-6.3V164.6l6.3-0.6V331.5z"/>
<path class="st6" d="M237.9,164h2.1v167.5h-2.1V164z"/>
<path class="st7" d="M223.9,331.5h-6.2V167.2l6.2-0.7V331.5z"/>
<path class="st6" d="M222.3,166.5h2.1v165h-2.1V166.5z"/>
<path class="st7" d="M208.4,331.5h-6.2V169.3l6.2-0.6V331.5z"/>
<path class="st6" d="M206.9,168.7h2.1v162.7h-2.1V168.7z"/>
<path class="st7" d="M193,331.5h-6.3V171.9l6.3-0.6V331.5z"/>
<path class="st6" d="M191.3,171.2h2.1v160.2h-2.1V171.2z"/>
<path class="st7" d="M177.1,334.4l-6-1.3v-158l6.2-0.6L177.1,334.4z"/>
<path class="st6" d="M175.9,174.6V334l2.1,0.6V174.6H175.9z"/>
<path class="st7" d="M161.9,331.3l-5.9-1.2l-0.4-152.8l6.2-0.6V331.3z"/>
<path class="st6" d="M160.4,176.6l0.3,154.4l1.8,0.5V176.6H160.4z"/>
<path class="st7" d="M146.4,328.1l-6.2-1.3l-0.1-146.7l6.3-0.8V328.1z"/>
<path class="st6" d="M145,179.3l-0.1,148.4l2,0.6l0.2-149.2L145,179.3z"/>
<path class="st7" d="M130.8,325.6l-6.1-1.3l-0.3-141.6l6.4-0.6V325.6z"/>
<path class="st6" d="M129,182.1v143.1l2.7,0.3V182.1H129z"/>
<path class="st7" d="M115.4,322.9l-6.4-1.4V185.4l6.4-0.6V322.9z"/>
<path class="st6" d="M113.6,184.9v137.7l2.7,0.3v-138H113.6z"/>
<path class="st7" d="M99.9,320.2l-6.4-1.4V188.2l6.4-0.6V320.2z"/>
<path class="st6" d="M98.1,187.6v132.2l2.7,0.3V187.6H98.1z"/>
<path class="st7" d="M84.5,317.4l-6.4-1.3V190l6.4-0.6V317.4z"/>
<path class="st6" d="M82.7,189.4V317l2.7,0.4v-128H82.7z"/>
<path class="st7" d="M69.1,315.5l-6.2-1.3V191.8l6.2-0.6V315.5z"/>
<path class="st6" d="M67.5,191.2v124.1l1.8,0.2l0.3-124.4H67.5z"/>
<path class="st9" d="M405,321.8l-36.7,5.7L367.8,182l37.2,7.6V321.8z"/>
<path class="st9" d="M186.6,334.2l80.7,11l0.6-180.9l-81.4,9.6V334.2z"/>
<path class="st8" d="M193,244.3l66.8-2.4v-5.6l-66.9,2.4L193,244.3z"/>
<path class="st10" d="M192.6,248.4l67.1-2.5v-5.7l-67.2,2.5L192.6,248.4z"/>
<path class="st8" d="M192.5,192l67-7.5l-0.1-5.4l-66.8,7.5L192.5,192z"/>
<path class="st10" d="M192.4,196.2l67-7.2l-0.1-6l-66.9,7.6V196.2z"/>
<path class="st8" d="M372.4,200.1l28.1,4.7l0.1-5.7l-28.1-4.6L372.4,200.1z"/>
<path class="st10" d="M372.4,204.3l28.1,4.4l-0.1-5.6l-27.9-4.5L372.4,204.3z"/>
<path class="st8" d="M372.5,241.8l28.1,1.3v-5.6l-28.1-1.3V241.8z"/>
<path class="st10" d="M372.6,245.7l28.1,1.3v-5.6l-28.3-1.3L372.6,245.7z"/>
<path class="st8" d="M372.9,311.2l27.9-2.4v-5.6l-28,2.4L372.9,311.2z"/>
<path class="st10" d="M372.9,315.2l27.9-3.1l0.2-4.8l-28,2.4V315.2z"/>
<path class="st8" d="M192.9,261.4h66.9v-5.6h-66.7L192.9,261.4z"/>
<path class="st10" d="M192.5,265.7h67.1l0.1-5.4h-67.2V265.7z"/>
<path class="st8" d="M192.9,276.5l66.9,2.9v-5.6l-66.9-2.7V276.5z"/>
<path class="st10" d="M192.7,280.3l67,2.7v-5.5l-67.2-2.7L192.7,280.3z"/>
<path class="st8" d="M193.1,325.5l67,5.6l-0.1-5.9l-66.9-5.2V325.5z"/>
<path class="st10" d="M193.5,329.2l67.2,5.5v-4.9l-67.2-6V329.2z"/>
<path class="st11" d="M350.8,238.1c-0.3,0-0.7,0.5-1.2,1.6c-0.2,0.5-0.5,1.2-0.8,1.9c-0.3,0.7-0.6,1.6-1,2.4
	c-0.4,0.9-0.9,1.8-1.4,2.6c-0.3,0.4-0.6,0.8-1,1.2c-0.3,0.4-0.7,0.8-1.1,1.1c-0.4,0.3-0.8,0.7-1.2,1c-0.4,0.3-0.9,0.5-1.3,0.7
	c-0.5,0.2-0.9,0.3-1.4,0.4c-0.1,0-0.2,0.1-0.4,0.1l-0.4,0c-0.2,0-0.5,0-0.7,0c-1,0-2.1-0.2-3.1-0.5c-0.5-0.2-1-0.3-1.5-0.5
	c-0.2-0.1-0.5-0.2-0.7-0.3s-0.5-0.2-0.7-0.3c-0.5-0.2-0.9-0.5-1.3-0.7c-0.4-0.3-0.9-0.5-1.3-0.8c-0.8-0.5-1.6-1.1-2.3-1.6
	c-0.7-0.5-1.4-1-2.1-1.4c-0.6-0.4-1.2-0.7-1.8-1c-0.5-0.2-1-0.4-1.5-0.4c-0.4-0.1-0.8,0-1.2,0.2c-0.3,0.2-0.6,0.6-0.6,1
	c-0.1,0.5-0.1,1.1,0,1.7c0.1,0.8,0.3,1.5,0.7,2.2c0.4,0.9,0.9,1.8,1.5,2.7c0.7,1.1,1.6,2,2.5,2.9c0.5,0.5,1.1,1,1.7,1.4
	c0.6,0.5,1.3,0.9,2,1.3c0.4,0.2,0.7,0.4,1.1,0.6c0.4,0.2,0.8,0.4,1.2,0.5c0.8,0.3,1.7,0.6,2.6,0.8c1.9,0.4,3.9,0.5,5.9,0.2
	c0.5-0.1,1-0.2,1.5-0.3l0.7-0.2c0.2-0.1,0.5-0.2,0.7-0.3c0.9-0.4,1.8-0.8,2.6-1.4c0.8-0.5,1.5-1.2,2.1-1.8c0.6-0.6,1.1-1.3,1.6-2
	c0.4-0.7,0.8-1.4,1.1-2.1c0.3-0.7,0.5-1.3,0.7-2c0.3-1.2,0.5-2.4,0.7-3.6c0.1-1,0.1-1.9,0.1-2.9c0-0.7-0.1-1.4-0.2-2.1
	C351.3,238.8,351.1,238.2,350.8,238.1L350.8,238.1z"/>
<path class="st4" d="M334.3,253.8c0.4,6,0.4,12,0,18.1c-5.8,1.9-11.9,2.4-17.9,1.5c-0.4-6.1-0.8-12.2-0.8-18.4c0-3.2,0.1-6.5,1-9.6
	c0.7-2.8,2.4-5.3,4.6-7c0.3-0.2,0.5-0.4,0.8-0.5c1.4,1.1,4.2,1.5,5.8,0.8c0.8,0.6,1.6,1.2,2.2,2c1.2,1.4,2.1,3,2.7,4.8
	C333.7,248.2,334.2,251,334.3,253.8z"/>
<path class="st12" d="M330.1,240.6c-1.5,0.4-3.1,0.4-4.6,0c-0.8-0.2-1.6-0.5-2.3-0.9c-0.6-0.3-1.1-0.7-1.6-1.1l0-0.4v-0.1l0.1-0.5
	c0.3-1.7,0.5-3.4,0.8-5.2c0.2-1.6,0.4-3.2,0.7-4.8c1.8,0.9,3.5,1.9,5.1,3.1c0,1.1,0.1,2.1,0.2,3.2c0.1,0.9,0.2,1.8,0.3,2.7
	c0.1,0.5,0.1,1,0.2,1.5c0.1,0.5,0.2,0.9,0.3,1.4C329.5,239.9,329.8,240.3,330.1,240.6L330.1,240.6z"/>
<path class="st13" d="M328.6,236.7c-1.9-1.7-4-3.1-6.2-4.2c0.2-1.6,0.4-3.2,0.7-4.8c1.8,0.9,3.5,1.9,5.1,3.1c0,1.1,0.1,2.1,0.2,3.2
	C328.4,234.9,328.5,235.8,328.6,236.7z"/>
<path class="st7" d="M295.3,325.5c0,0,0,4.2,3.8,4.1l0.7,15.1l-10.5-18L295.3,325.5z"/>
<path class="st4" d="M297.1,336.2c0-0.1,0.1-0.2,0.1-0.2c0.1-0.1,0.2-0.1,0.2-0.1c0.8,0.1,1.7,0.3,2.4,0.7c0.1,0,0.1,0.1,0.2,0.2
	c0,0.1,0,0.2,0,0.3c0,0,0,0.1-0.1,0.1c0,0-0.1,0-0.1,0.1c-0.1,0-0.2,0-0.2,0c-0.7-0.3-1.4-0.5-2.2-0.6c-0.1,0-0.1,0-0.2-0.1
	c-0.1,0-0.1-0.1-0.1-0.1S297.1,336.3,297.1,336.2z M297,334.3c0,0,0-0.1,0-0.1c0,0,0-0.1,0.1-0.1c0,0,0.1,0,0.1-0.1c0,0,0.1,0,0.1,0
	c0.8,0.1,1.7,0.3,2.4,0.7c0,0,0.1,0,0.1,0.1c0,0,0.1,0.1,0.1,0.1c0,0.1,0,0.2,0,0.3c0,0,0,0.1-0.1,0.1c0,0-0.1,0-0.1,0.1
	c0,0-0.1,0-0.1,0c0,0-0.1,0-0.1,0c-0.7-0.3-1.4-0.5-2.2-0.6c-0.1,0-0.1,0-0.2-0.1c-0.1,0-0.1-0.1-0.1-0.1
	C297,334.5,296.9,334.4,297,334.3L297,334.3z M296.8,332.4c0,0,0-0.1,0-0.1c0,0,0-0.1,0.1-0.1c0.1,0,0.1-0.1,0.2-0.1
	c0.8,0.1,1.7,0.3,2.4,0.7c0.1,0,0.1,0.1,0.2,0.2c0,0.1,0,0.2,0,0.3c0,0.1-0.1,0.1-0.2,0.2c-0.1,0-0.2,0-0.2,0
	c-0.7-0.3-1.4-0.5-2.2-0.6c-0.1,0-0.1,0-0.2-0.1c-0.1,0-0.1-0.1-0.1-0.1C296.8,332.5,296.8,332.5,296.8,332.4L296.8,332.4z
	 M298,345.2c0,0.1,0.1,0.1,0.1,0.2c0.1,0,0.1,0.1,0.2,0.1c0.1,0,0.1,0,0.2,0c0.1,0,0.1,0,0.2-0.1l1.1-0.6l-10.5-18l-1.1,0.6
	c-0.1,0-0.1,0.1-0.2,0.1c0,0.1-0.1,0.1-0.1,0.2c0,0.1,0,0.1,0,0.2c0,0.1,0,0.1,0.1,0.2L298,345.2z"/>
<path class="st7" d="M337.1,340.9c0,0,3.8,2,5.4-1.5l13.7,6.4l-20.8,0.9L337.1,340.9z"/>
<path class="st4" d="M347.8,344.4c-0.1,0-0.1,0-0.2,0s-0.1,0-0.2,0c0,0-0.1-0.1-0.1-0.1c0,0,0-0.1,0-0.1c0,0,0-0.1,0-0.1
	c0,0,0-0.1,0.1-0.1c0.5-0.7,1.1-1.3,1.7-1.8c0.1-0.1,0.2-0.1,0.3-0.1c0.1,0,0.2,0.1,0.2,0.1c0,0,0,0.1,0,0.1c0,0,0,0.1,0,0.1
	c0,0,0,0.1,0,0.1c0,0-0.1,0.1-0.1,0.1c-0.6,0.5-1.1,1-1.6,1.7C347.9,344.3,347.9,344.4,347.8,344.4L347.8,344.4z M346.1,343.6
	c-0.1,0-0.1,0-0.2,0s-0.1,0-0.2,0c0,0-0.1-0.1-0.1-0.1c0,0,0-0.1,0-0.1c0,0,0-0.1,0-0.1c0,0,0-0.1,0.1-0.1c0.5-0.7,1.1-1.3,1.7-1.8
	c0,0,0.1,0,0.1-0.1c0,0,0.1,0,0.1,0c0,0,0.1,0,0.1,0c0,0,0.1,0.1,0.1,0.1c0,0.1,0.1,0.2,0,0.2c0,0.1-0.1,0.2-0.1,0.2
	c-0.6,0.5-1.1,1-1.6,1.7C346.2,343.6,346.2,343.6,346.1,343.6L346.1,343.6z M344.3,342.8c-0.1,0-0.1,0-0.2,0c-0.1,0-0.1,0-0.2-0.1
	c0-0.1-0.1-0.1-0.1-0.2c0-0.1,0-0.1,0-0.2c0.5-0.7,1.1-1.3,1.7-1.8c0.1-0.1,0.2-0.1,0.3-0.1c0.1,0,0.2,0.1,0.2,0.1c0,0,0,0.1,0,0.1
	c0,0,0,0.1,0,0.1c0,0.1-0.1,0.2-0.1,0.2c-0.6,0.5-1.1,1-1.6,1.7C344.4,342.8,344.4,342.8,344.3,342.8L344.3,342.8z M356,347.7
	c0.2-0.1,0.3-0.2,0.4-0.4c0-0.1,0-0.2,0-0.3l0-1.1l-20.8,0.9l0,1.1c0,0.1,0,0.2,0.1,0.3c0,0.1,0.1,0.2,0.2,0.2
	c0.1,0.1,0.3,0.2,0.5,0.2l19.5-0.9C355.8,347.7,355.9,347.7,356,347.7L356,347.7z"/>
<path class="st14" d="M316,276.9c0,0,4.8,28.3-23.9,48.4l7.7,8.4c0,0,32.1-22,28.8-50.3L316,276.9z"/>
<path class="st15" d="M314.9,293.3c0.4,0.6,0.9,1.2,1.3,1.8c1.1,1.6,2,3.3,2.8,5c1.4,2.9,2.5,6,3.4,9.1c4.4-7.5,7.3-16.3,6.2-25.9
	l-12.6-6.4C316.1,276.9,317.3,283.8,314.9,293.3z"/>
<path class="st16" d="M334.4,248.8c1.2,10,1.4,20.1,0.4,30.1c0,0,15.8,30.9,12.3,61.9l-12,3c0,0-2.7-40.7-19.1-61.4l-0.7-20.4
	l12.9-2.1l1.1-10.9L334.4,248.8z"/>
<path class="st14" d="M316.2,264.3c-0.1,0-0.2-0.1-0.4-0.4c-0.1-0.2-0.2-0.3-0.2-0.5c-0.1-0.2-0.2-0.4-0.2-0.7
	c0-0.1-0.1-0.3-0.1-0.4c0-0.1-0.1-0.3-0.1-0.5c0-0.2-0.1-0.3-0.1-0.5c0-0.2-0.1-0.4-0.1-0.6c0-0.2-0.1-0.4-0.1-0.6l-0.1-0.7
	c-0.1-0.5-0.1-0.9-0.1-1.4c-0.1-1.1-0.1-2.2,0-3.3c0.1-1.3,0.2-2.6,0.4-3.8c0.2-1.4,0.5-2.8,0.9-4.1c0.4-1.5,1-3,1.8-4.3
	c0.5-0.7,1-1.4,1.7-1.9c0.6-0.6,1.4-1,2.2-1.3c0.4-0.1,0.8-0.2,1.2-0.3h1.3c0.8,0.1,1.6,0.3,2.3,0.6c0.7,0.3,1.3,0.7,1.8,1.2
	c0.1,0.1,0.3,0.2,0.4,0.3l0.3,0.4l0.3,0.4c0.1,0.1,0.2,0.3,0.3,0.4c0.4,0.5,0.7,1,0.9,1.6c0.2,0.5,0.4,1,0.6,1.6
	c0.2,0.9,0.4,1.8,0.5,2.7c0.1,0.7,0.1,1.4,0.1,2.1c0,1.1-0.1,1.7-0.2,1.8c-0.1,0-0.2-0.6-0.4-1.7c-0.1-0.5-0.2-1.2-0.4-2
	c-0.2-0.9-0.4-1.7-0.7-2.5c-0.4-0.9-0.9-1.8-1.5-2.6c-0.1-0.1-0.2-0.2-0.3-0.3l-0.3-0.3l-0.3-0.3c-0.1-0.1-0.2-0.2-0.3-0.3
	c-0.4-0.3-0.9-0.6-1.4-0.8c-0.5-0.2-1.1-0.3-1.6-0.4h-0.9c-0.3,0-0.6,0.1-0.8,0.2c-1.1,0.5-2.1,1.4-2.7,2.5
	c-0.7,1.2-1.2,2.5-1.5,3.8c-0.4,1.3-0.7,2.6-0.9,3.9c-0.2,1.3-0.4,2.4-0.5,3.6c-0.1,1.1-0.2,2.2-0.2,3.2v5.4c0,0.2,0,0.4,0,0.6
	C316.4,264.1,316.3,264.2,316.2,264.3L316.2,264.3z"/>
<path class="st17" d="M340.1,240.1h24v24h-24V240.1z"/>
<path class="st18" d="M376.1,236.1l-12,4v24l12-4V236.1z"/>
<path class="st19" d="M340.1,240.1l12-4h24l-12,4H340.1z"/>
<path class="st20" d="M355,241.6h8.2v3.5H355V241.6z"/>
<path class="st21" d="M354.2,259.6l0,4.6h-4.1v-4.6H354.2z M354.2,240.1l0,4.6h-4.1v-4.6H354.2z M360,236.1h3.9l-9.6,4h-4.1
	L360,236.1z"/>
<path class="st12" d="M318.7,249.2v0.2c0,2.6,0.6,5.1,1.7,7.4c0.4,0.9,1,1.7,1.5,2.5c0.6,0.8,1.3,1.6,2.1,2.3c1.7,1.5,3.7,2.5,5.8,3
	c1,0.2,2,0.4,3,0.4c0.9,0,1.9,0,2.8-0.2c0.9-0.1,1.7-0.3,2.5-0.6c1.5-0.5,2.9-1.1,4.2-1.9c1.1-0.6,2.1-1.4,3.1-2.2
	c0.8-0.6,1.5-1.3,2.2-2l0.2-0.2c0.4,0,0.9,0,1.3,0c0.4-0.1,0.9-0.1,1.3-0.3c0.4-0.1,0.8-0.3,1.2-0.5c0.4-0.2,0.7-0.5,1.1-0.7
	c0.7-0.6,1.2-1.3,1.6-2c0.2-0.4,0.4-0.8,0.5-1.2c0.1-0.4,0.2-0.8,0.2-1.3c0-0.3,0-0.6,0-0.9c0-0.2-0.1-0.4-0.1-0.5
	c-0.1-0.2-0.2-0.3-0.3-0.4c-0.8-0.7-1.7,0-2.2,0.7c-0.5,0.7-0.8,1.4-1.6,1.6c-0.2,0.1-0.5,0.1-0.7,0c-0.2,0-0.4-0.1-0.6-0.3
	c-0.1,0-0.1-0.1-0.1-0.1c-0.1-0.1-0.2-0.2-0.3-0.2c-0.1-0.1-0.2-0.1-0.3-0.1c-0.1,0-0.2,0-0.3,0c-0.1,0-0.2,0.1-0.3,0.2
	c-0.1,0.1-0.1,0.1-0.2,0.2c-0.2,0.3-0.3,0.6-0.4,1c-0.2,0.7-0.3,1.4-0.4,2.1c-1,0.4-2.3,0.9-3.7,1.4c-1,0.3-2,0.6-3,0.9
	c-1.1,0.2-2.2,0.4-3.3,0.4c-0.6,0-1.1,0-1.7-0.1c-0.5-0.1-1.1-0.2-1.6-0.3c-0.5-0.1-1-0.3-1.4-0.5c-0.4-0.2-0.8-0.4-1.2-0.7
	c-0.4-0.3-0.7-0.6-1-0.9c-0.3-0.3-0.6-0.7-0.9-1.1c-0.5-0.8-0.9-1.7-1.3-2.6c-0.3-0.9-0.5-1.8-0.7-2.7c-0.1-0.7-0.2-1.4-0.3-2.1
	c-1.2,0.8-2.5,1.5-3.9,1.9C321.7,249,320.2,249.2,318.7,249.2L318.7,249.2z"/>
<path class="st16" d="M329.1,215.4c-0.2-0.6-0.5-1.2-1-1.7c-0.4-0.5-1-0.9-1.6-1.2c-1.2-0.5-2.6-0.6-3.9-0.3
	c-0.7,0.2-1.3,0.4-1.9,0.8c-0.6,0.3-1.1,0.8-1.6,1.3c-0.5,0.5-0.8,1.1-1.1,1.7c-0.3,0.6-0.4,1.3-0.4,2c-0.1,2.2,1.2,4.2,2.3,6
	C322.3,220.4,325.4,217.5,329.1,215.4z"/>
<path class="st15" d="M330.5,212.9c0.6-0.4,1.3-0.6,2-0.6c0.2,0.1,0.5,0.2,0.7,0.3c0.2,0.1,0.4,0.3,0.5,0.5c0.1,0.2,0.2,0.4,0.3,0.7
	c0.1,0.2,0.1,0.5,0.1,0.7c-0.1,0.5-0.2,1-0.5,1.4c-0.2,0.4-0.6,0.8-0.9,1.2c-0.3,0.3-0.6,0.5-0.9,0.8c-0.3,0.2-0.7,0.4-1,0.6
	c-0.7,0.4-1.5,0.6-2.2,0.8c-0.4,0.1-0.8,0.1-1.2,0.1c-0.8,0-1.6,0-2.4-0.2c-0.4-0.1-0.8-0.2-1.1-0.4c-0.4-0.2-1.4-0.5-1.6-0.9
	c-0.3-0.6,0.3-0.7,0.9-1C325.6,215.6,328.1,214.3,330.5,212.9z"/>
<path class="st22" d="M329.9,220.5c-0.2,0-0.3,0-0.5,0c-0.2,0-0.3,0.1-0.4,0.2c-0.1,0.1-0.2,0.3-0.2,0.5c0,0.2,0,0.3,0,0.5
	c0.2,1.3,0.7,2.5,1.4,3.6c0.3-0.3,0.5-0.7,0.6-1c0.3-0.7,0.5-1.5,0.4-2.3c0-0.4-0.1-0.8-0.3-1.2
	C330.6,220.9,330.2,220.6,329.9,220.5z M323.9,226.2c0.2-1.4,0.1-2.9-0.2-4.3c-0.3-1.5-0.9-3-1.8-4.3c-0.7,0.6-1.2,1.3-1.7,2.1
	c-0.4,0.9-0.6,1.8-0.6,2.8c0,0.5,0,1,0,1.4c0,0.5,0.1,1,0.2,1.4c0.1,0.5,0.2,0.9,0.4,1.4c0.2,0.4,0.4,0.9,0.6,1.3
	c0.2,0.4,0.5,0.8,0.8,1.2c0.3,0.4,0.6,0.7,1,1C323.3,229,323.7,227.6,323.9,226.2z"/>
<path class="st12" d="M329.9,220.2c-0.3,1.7,0.5,3.4,1.1,5c0.7,1.6,1.3,3.4,0.6,5.1c-0.2,0.4-0.4,0.8-0.8,1.1
	c-0.3,0.3-0.7,0.6-1.1,0.8c-0.4,0.2-0.8,0.4-1.3,0.4c-0.4,0.1-0.9,0.1-1.4,0c-0.9-0.2-1.7-0.5-2.5-1.1c-0.7-0.5-1.3-1.3-1.7-2.1
	c-0.4-0.8-0.7-1.7-0.8-2.6c-0.2-0.9-0.2-1.8-0.1-2.7c0.2-1.8,0.6-3.6,1.1-5.3C325.4,217.8,328,218.6,329.9,220.2L329.9,220.2z"/>
<path class="st12" d="M322.5,224.8c-0.2-0.2-0.4-0.4-0.7-0.6c-0.1-0.1-0.3-0.1-0.5-0.2c-0.2,0-0.3,0-0.5,0c-0.2,0.1-0.4,0.2-0.5,0.4
	c-0.1,0.2-0.2,0.3-0.3,0.6c-0.1,0.2-0.1,0.4-0.1,0.6c0,0.2,0,0.4,0.1,0.6c0.1,0.2,0.1,0.4,0.3,0.5c0.1,0.2,0.3,0.3,0.4,0.4
	c0.2,0.1,0.3,0.2,0.5,0.3c0.2,0.1,0.4,0.1,0.6,0.1c0.2,0,0.4,0,0.6,0c0.2,0,0.4-0.1,0.6-0.2C322.8,226.5,322.6,225.7,322.5,224.8
	L322.5,224.8z"/>
<path class="st22" d="M331.1,221.5c-2.6,0.1-5.1-0.6-7.3-1.9c0.2,0.8,0.2,1.6,0,2.3c-0.2,0.5-0.4,1.1-0.7,1.5
	c-0.3,0.5-0.7,0.9-1.2,1.2c-1-1.5-1.5-3.3-1.3-5.1c0-0.2,0.1-0.4,0.1-0.6c0.4-0.5,0.8-0.9,1.2-1.3c0.7-0.6,1.5-1.1,2.4-1.5
	c0.6-0.2,1.2-0.4,1.8-0.4c1.2-0.2,2.5,0,3.7,0.4c0.6,0.2,1.1,0.5,1.7,0.8c0.2,0.1,0.4,0.3,0.5,0.5c0.4,0.4,0.7,0.9,1,1.5
	c0,0.1,0.1,0.2,0.1,0.4c0,0.1,0,0.3,0,0.4c0,0.1,0,0.3-0.1,0.4c0,0.1-0.1,0.2-0.1,0.4c-0.1,0.1-0.1,0.2-0.2,0.3
	c-0.1,0.1-0.2,0.2-0.3,0.3c-0.1,0.1-0.2,0.2-0.3,0.2c-0.1,0.1-0.2,0.1-0.4,0.2C331.6,221.5,331.4,221.6,331.1,221.5L331.1,221.5z"/>
<path class="st23" d="M495.8,273.9c-0.1,0.3-0.7,0.4-1.7,0.4c-0.5,0-1.2,0-1.9-0.1c-0.7-0.1-1.6-0.1-2.5-0.2c-0.9-0.1-1.9-0.3-3-0.4
	c-1.1-0.2-2.3-0.4-3.5-0.7c-1.2-0.3-2.5-0.6-3.8-1.1c-1.4-0.4-2.7-1-4.1-1.6c-1.3-0.6-2.7-1.3-3.9-2.1c-1.2-0.8-2.3-1.6-3.3-2.6
	c-0.5-0.5-1-0.9-1.4-1.4c-0.2-0.2-0.4-0.5-0.6-0.7c-0.2-0.2-0.4-0.5-0.6-0.7c-0.2-0.2-0.4-0.5-0.5-0.7c-0.2-0.2-0.3-0.5-0.5-0.7
	c-0.3-0.5-0.6-1-0.8-1.4c-0.4-0.8-0.8-1.7-1-2.7c-0.1-0.4-0.2-0.8-0.2-1.2c0-0.3,0-0.7,0-1c0-0.2,0-0.3,0-0.4c0-0.1,0-0.3,0.1-0.4
	c0-0.2,0.1-0.4,0.2-0.6c0.1-0.2,0.2-0.3,0.3-0.4c0.1-0.1,0.3-0.2,0.4-0.3c0.3-0.1,0.7-0.1,1,0.1c0.2,0.1,0.4,0.2,0.6,0.3
	c0.1,0.1,0.2,0.1,0.3,0.2c0.1,0.1,0.2,0.1,0.3,0.2c0.2,0.2,0.4,0.4,0.6,0.5c0.2,0.2,0.5,0.4,0.7,0.6c0.5,0.5,1,1,1.6,1.5
	c0.3,0.3,0.6,0.6,0.9,0.9l0.5,0.5c0.2,0.2,0.3,0.3,0.5,0.5l0.5,0.5c0.2,0.2,0.4,0.3,0.6,0.5c0.4,0.3,0.8,0.7,1.2,1
	c0.8,0.7,1.7,1.4,2.6,2.1s2,1.4,3,2.1c1.1,0.7,2.2,1.3,3.3,1.9c1.1,0.6,2.2,1.2,3.2,1.7c1,0.5,2.1,1,3,1.5l2.7,1.3
	c0.8,0.4,1.6,0.8,2.2,1.1c0.7,0.3,1.2,0.6,1.7,0.9C495.4,273.2,495.9,273.6,495.8,273.9z"/>
<path class="st24" d="M523.3,286.7c-0.8,0.6-1.6,1.2-2.4,1.7v-0.1l-25.7-13c-0.3-0.2-0.6-0.4-0.7-0.8c-0.1-0.3-0.1-0.7,0-1
	c0.2-0.3,0.4-0.6,0.8-0.7c0.3-0.1,0.7-0.1,1,0l27,13.6L523.3,286.7z M429.3,337.8c0,0,0.8,4.4,4.7,3.6l3.3,15.6l-14-16.9
	L429.3,337.8z"/>
<path class="st4" d="M435.4,357.8l-13.3-16.1c0-0.1-0.1-0.1-0.1-0.2s0-0.2,0-0.2c0-0.1,0-0.2,0.1-0.2c0-0.1,0.1-0.1,0.1-0.2l1-0.9
	l14,16.9l-1,0.9c-0.1,0.1-0.3,0.1-0.4,0.1C435.7,358,435.5,357.9,435.4,357.8z M432.2,345.1c0.1,0,0.1,0,0.2,0c0.8,0,1.6,0,2.4,0.2
	c0,0,0.1,0,0.1,0c0,0,0.1,0,0.1,0c0,0,0.1-0.1,0.1-0.1c0,0,0.1-0.1,0.1-0.1c0-0.1,0-0.2,0-0.3c0-0.1-0.1-0.1-0.2-0.2
	c-0.9-0.2-1.8-0.3-2.6-0.3c0,0-0.1,0-0.1,0c0,0-0.1,0-0.1,0.1c0,0-0.1,0.1-0.1,0.1c0,0,0,0.1,0,0.1c0,0.1,0,0.1,0.1,0.2
	C432.1,345,432.2,345,432.2,345.1z M432.7,347c0.1,0,0.1,0,0.2,0c0.8,0,1.6,0,2.4,0.2c0,0,0.1,0,0.1,0c0,0,0.1,0,0.1,0
	c0,0,0.1-0.1,0.1-0.1c0,0,0.1-0.1,0.1-0.1c0-0.1,0-0.2,0-0.3c0-0.1-0.1-0.1-0.2-0.2c-0.9-0.2-1.8-0.3-2.6-0.3c0,0-0.1,0-0.1,0
	c0,0-0.1,0-0.1,0.1c0,0-0.1,0.1-0.1,0.1c0,0,0,0.1,0,0.1c0,0.1,0,0.1,0.1,0.2C432.6,346.9,432.6,347,432.7,347z M433.1,349
	c0.1,0,0.1,0,0.2,0c0.8,0,1.6,0,2.4,0.2c0,0,0.1,0,0.1,0c0,0,0.1,0,0.1,0c0,0,0.1-0.1,0.1-0.1c0,0,0-0.1,0.1-0.1c0-0.1,0-0.2,0-0.3
	c0-0.1-0.1-0.1-0.2-0.2c-0.9-0.2-1.8-0.3-2.6-0.3c0,0-0.1,0-0.1,0c0,0-0.1,0-0.1,0.1s-0.1,0.1-0.1,0.1c0,0,0,0.1,0,0.1
	c0,0.1,0,0.1,0.1,0.2C433,348.9,433.1,348.9,433.1,349z"/>
<path class="st24" d="M474.1,350.3c0,0,3.8,2.3,5.8-1.2l14,7.8l-22-0.6L474.1,350.3z"/>
<path class="st4" d="M493.1,358.8l-20.5-0.5c-0.2,0-0.4-0.1-0.5-0.2c-0.1-0.1-0.2-0.3-0.2-0.5l0-1.2l22,0.6l0,1.2
	c0,0.2-0.1,0.4-0.2,0.5C493.4,358.8,493.2,358.8,493.1,358.8z M481.5,352.9c0.1,0,0.1-0.1,0.2-0.1c0.5-0.6,1.1-1.2,1.8-1.6
	c0,0,0.1-0.1,0.1-0.1c0,0,0-0.1,0.1-0.1c0,0,0-0.1,0-0.1c0,0,0-0.1-0.1-0.1c-0.1-0.1-0.1-0.1-0.2-0.1c-0.1,0-0.2,0-0.3,0
	c-0.7,0.5-1.4,1.1-1.9,1.8c0,0,0,0.1-0.1,0.1c0,0,0,0.1,0,0.1c0,0,0,0.1,0,0.1c0,0,0.1,0.1,0.1,0.1c0.1,0,0.1,0.1,0.2,0.1
	C481.3,352.9,481.4,352.9,481.5,352.9z M483.2,353.8c0.1,0,0.1-0.1,0.2-0.1c0.5-0.6,1.1-1.2,1.8-1.6c0,0,0.1-0.1,0.1-0.1
	c0,0,0-0.1,0.1-0.1c0,0,0-0.1,0-0.1c0,0,0-0.1-0.1-0.1c-0.1-0.1-0.1-0.1-0.2-0.2c-0.1,0-0.2,0-0.3,0c-0.7,0.5-1.4,1.1-1.9,1.8
	c0,0,0,0.1-0.1,0.1c0,0,0,0.1,0,0.1c0,0,0,0.1,0,0.1c0,0,0.1,0.1,0.1,0.1c0.1,0,0.1,0.1,0.2,0.1
	C483.1,353.8,483.2,353.8,483.2,353.8z M485,354.7c0.1,0,0.1-0.1,0.2-0.1c0.5-0.6,1.1-1.2,1.8-1.6c0,0,0.1-0.1,0.1-0.1
	c0,0,0-0.1,0.1-0.1c0,0,0-0.1,0-0.1c0,0,0-0.1-0.1-0.1c-0.1-0.1-0.1-0.1-0.2-0.2c-0.1,0-0.2,0-0.3,0c-0.7,0.5-1.4,1.1-1.9,1.8
	c0,0-0.1,0.1-0.1,0.1c0,0,0,0.1,0,0.1c0,0,0,0.1,0,0.1c0,0,0.1,0.1,0.1,0.1c0.1,0,0.1,0.1,0.2,0.1C484.9,354.8,485,354.8,485,354.7z
	 M468.2,260.5c0.7,6.2,0.8,12.5,0.7,18.7c-5.9,2.2-12.2,3-18.5,2.2c-0.6-6.3-1.3-12.6-1.6-19c-0.1-3.3-0.2-6.7,0.7-10
	c0.7-2.9,2.2-5.7,4.5-7.5c0.3-0.2,0.5-0.4,0.8-0.6c1.4,1.1,4.4,1.4,6,0.6c0.9,0.5,1.7,1.2,2.4,2c1.3,1.4,2.3,3.1,3,4.8
	C467.4,254.6,467.9,257.5,468.2,260.5z"/>
<path class="st25" d="M463.3,246.8c-1.6,0.5-3.2,0.5-4.8,0.2c-0.9-0.2-1.7-0.5-2.5-0.9c-0.6-0.3-1.2-0.7-1.7-1.1
	c0-0.1,0-0.2-0.1-0.4v-0.2l0.1-0.5c0.2-1.8,0.4-3.6,0.6-5.4c0.2-1.7,0.3-3.3,0.5-5c1.9,0.8,3.7,1.9,5.5,3.1c0.1,1.1,0.2,2.2,0.3,3.4
	c0.1,0.9,0.3,1.9,0.4,2.8c0.1,0.5,0.2,1,0.3,1.6c0.1,0.5,0.2,1,0.3,1.4C462.6,246.1,462.9,246.4,463.3,246.8z"/>
<path class="st26" d="M461.5,242.8c-2-0.5-4.2-1-6.7-4.2c0.2-1.7,0.3-3.3,0.5-5c1.9,0.8,3.7,1.9,5.5,3.1c0.1,1.1,0.2,2.2,0.3,3.4
	C461.2,240.9,461.3,241.8,461.5,242.8z"/>
<path class="st16" d="M461.1,223.1c-0.2-0.6-0.5-1.2-1-1.6c-0.4-0.5-1-0.8-1.6-1.1c-1.2-0.5-2.5-0.5-3.8-0.1
	c-1.3,0.3-2.4,1.1-3.3,2.1c-0.9,1-1.3,2.3-1.3,3.6c0,2.1,1.2,3.9,2.4,5.6C454.7,228.1,457.6,225.2,461.1,223.1z"/>
<path class="st15" d="M462.3,220.7c0.6-0.3,1.2-0.7,1.9-0.6c0.9,0.1,1.6,1.1,1.6,2.1c-0.1,1-0.5,1.8-1.2,2.5
	c-1.1,1.1-2.4,1.9-3.9,2.2c-1.5,0.3-3,0.2-4.5-0.3c-0.4-0.1-1.3-0.4-1.5-0.8c-0.3-0.6,0.3-0.7,0.8-1L462.3,220.7z"/>
<path class="st24" d="M455.5,237.5c-1.8-1.5-2.9-3.6-3.2-5.9c-0.2-1.4,0-2.8,0.5-4.1c0.1-0.3,0.3-0.5,0.4-0.7
	c0.3-0.5,0.7-0.9,1.1-1.3c0.9,1.2,1.5,2.6,1.9,4C456.8,232.2,456.6,235,455.5,237.5z M463,228.2c0.3,0.7,0.4,1.5,0.3,2.2
	c-0.1,0.8-0.4,1.5-0.8,2.1c-0.7-1-1.2-2.2-1.5-3.4c-0.1-0.2-0.1-0.3,0-0.5c0-0.2,0.1-0.3,0.2-0.5c0.1-0.1,0.3-0.2,0.4-0.2
	c0.2,0,0.3,0,0.5,0C462.3,228,462.7,228.3,463,228.2z"/>
<path class="st25" d="M462,227.6c-0.2,1.6,0.6,3.3,1.3,4.8c0.7,1.5,1.4,3.2,0.8,4.8c-0.6,1.6-2.4,2.6-4.2,2.5
	c-0.9-0.1-1.7-0.4-2.4-0.9c-0.7-0.5-1.3-1.1-1.7-1.9c-0.8-1.5-1.2-3.3-1.1-5c0.1-1.7,0.4-3.4,0.9-5.1
	C457.6,225.5,460.1,226.2,462,227.6z"/>
<path class="st25" d="M455.1,232.3c-0.2-0.2-0.5-0.4-0.7-0.5c-0.3-0.1-0.6-0.2-0.9-0.1c-0.2,0.1-0.3,0.2-0.5,0.4
	c-0.1,0.2-0.2,0.3-0.3,0.5c-0.1,0.4-0.1,0.8,0,1.1c0.1,0.4,0.4,0.7,0.7,0.9c0.3,0.2,0.7,0.4,1.1,0.4c0.4,0,0.8-0.1,1.1-0.3
	C455.4,233.9,455.2,233.1,455.1,232.3z"/>
<path class="st24" d="M463.2,228.8c-2.5,0.2-4.9-0.4-7.1-1.5c0.2,0.7,0.2,1.5,0.1,2.2c-0.2,1.1-0.8,2-1.7,2.7
	c-1-1.4-1.6-3.2-1.4-4.8c0-0.2,0.1-0.4,0.1-0.6c0.3-0.5,0.7-0.9,1.1-1.3c0.6-0.6,1.4-1.1,2.2-1.5c1.1-0.5,2.3-0.7,3.4-0.6
	c1.2,0.1,2.3,0.4,3.4,1c0.2,0.1,0.3,0.3,0.5,0.4c0.4,0.4,0.7,0.9,1,1.4c0.1,0.3,0.2,0.6,0.2,0.9c0,0.3-0.1,0.6-0.3,0.9
	c-0.2,0.3-0.4,0.5-0.6,0.6C463.8,228.7,463.5,228.8,463.2,228.8z"/>
<path class="st27" d="M450.1,286.7c0,0,6.1,29.1-22.8,51.1l8.3,8.4c0,0,32.4-24.1,27.9-53.3L450.1,286.7z"/>
<path class="st28" d="M449.7,303.5c2.3,6.1,5.1,12.1,7.6,18.1c4.7-8.3,7.9-18.2,6.3-28.7l-13.4-6.2
	C450.1,286.7,451.6,293.8,449.7,303.5z"/>
<path class="st16" d="M468.1,255.2c1.6,8.9,2.3,22.1,1.6,31.2c0,0,17.6,31.4,15.2,63.7l-12.3,3.6c0,0-4.4-42.1-22.2-62.9l-1.6-21.1
	l13.3-2.7l0.7-11.4L468.1,255.2z"/>
<path class="st27" d="M449.9,272c-0.1,0-0.2-0.1-0.4-0.4c-0.1-0.2-0.2-0.3-0.3-0.5c-0.1-0.2-0.2-0.5-0.3-0.7c0-0.1-0.1-0.3-0.1-0.4
	c0-0.2-0.1-0.3-0.1-0.5c0-0.2-0.1-0.4-0.1-0.5c0-0.2-0.1-0.4-0.1-0.6c0-0.2-0.1-0.4-0.1-0.6c0-0.2-0.1-0.5-0.1-0.7
	c-0.1-0.5-0.1-1-0.2-1.5c-0.1-1.1-0.2-2.2-0.2-3.5c0-1.3,0.1-2.7,0.2-4c0.2-1.5,0.4-2.9,0.8-4.3c0.4-1.6,0.9-3.2,1.8-4.6
	c0.4-0.8,1-1.5,1.6-2.1c0.6-0.6,1.4-1.1,2.2-1.4c0.4-0.2,0.8-0.3,1.3-0.4l0.3,0l0.3,0h0.6c0.8,0,1.6,0.2,2.4,0.6
	c0.7,0.3,1.3,0.7,1.9,1.2c0.1,0.1,0.3,0.2,0.4,0.3l0.4,0.4l0.3,0.4c0.1,0.1,0.2,0.3,0.3,0.4c0.4,0.5,0.7,1,1,1.6
	c0.3,0.5,0.5,1,0.6,1.6c0.3,0.9,0.5,1.9,0.6,2.8c0.1,0.7,0.1,1.4,0.2,2.1c0,1.2,0,1.8-0.2,1.8c-0.1,0-0.3-0.6-0.5-1.7
	c-0.1-0.6-0.3-1.2-0.5-2c-0.2-0.9-0.5-1.7-0.9-2.5c-0.4-1-1-1.8-1.6-2.6c-0.1-0.1-0.2-0.2-0.3-0.3c-0.1-0.1-0.2-0.2-0.3-0.3
	l-0.3-0.3c-0.1-0.1-0.2-0.2-0.3-0.3c-0.5-0.3-1-0.6-1.5-0.8c-0.5-0.2-1.1-0.3-1.7-0.3h-0.2c-0.1,0-0.1,0-0.2,0l-0.2,0l-0.2,0
	c-0.3,0.1-0.6,0.2-0.8,0.3c-1.2,0.6-2.1,1.5-2.7,2.7c-0.7,1.3-1.1,2.6-1.4,4c-0.3,1.4-0.6,2.8-0.8,4.1c-0.2,1.3-0.3,2.6-0.4,3.7
	c-0.1,1.2-0.1,2.3-0.1,3.3v2.1c0,0.2,0,0.4,0,0.6c0,0.2,0,0.4,0,0.6l0,0.5v0.5c0,0.2,0,0.3,0,0.5v1.3C450,271.8,450,272,449.9,272z"
	/>
<path class="st24" d="M506.4,348.9l-13.1-68l-12.1-5.7c-0.3-0.2-0.6-0.4-0.7-0.8c-0.1-0.3-0.1-0.7,0-1c0.2-0.3,0.4-0.6,0.8-0.7
	c0.3-0.1,0.7-0.1,1,0l13.4,6.3l0.1,0.7l12.7,65.8l57.3-14.5c0.3-0.1,0.7,0,1,0.2c0.3,0.2,0.5,0.5,0.6,0.8c0.1,0.3,0,0.7-0.2,1
	c-0.2,0.3-0.5,0.5-0.8,0.6L506.4,348.9z"/>
<path class="st24" d="M493.2,346.8l8.5-23.2l2.7,1l-8.5,23.2L493.2,346.8z"/>
<path class="st24" d="M502,316.8l24-5.8l0.7,2.8l-24,5.8L502,316.8z"/>
<path class="st24" d="M499.7,358.1c4.3,0,7.7-3.5,7.7-7.7c0-4.3-3.5-7.7-7.7-7.7c-4.3,0-7.7,3.5-7.7,7.7
	C492,354.6,495.4,358.1,499.7,358.1z"/>
<path class="st16" d="M499.7,355.2c2.7,0,4.9-2.2,4.9-4.9c0-2.7-2.2-4.9-4.9-4.9c-2.7,0-4.9,2.2-4.9,4.9
	C494.8,353,497,355.2,499.7,355.2z"/>
<path class="st29" d="M499.7,352.7c1.3,0,2.4-1.1,2.4-2.4c0-1.3-1.1-2.4-2.4-2.4c-1.3,0-2.4,1.1-2.4,2.4
	C497.3,351.6,498.4,352.7,499.7,352.7z"/>
<path class="st25" d="M488.4,274.8c-0.2,0.2-0.3,0.3-0.5,0.4c-0.1,0.1-0.2,0.2-0.3,0.3c-0.1,0.1-0.3,0.2-0.4,0.3
	c-0.3,0.2-0.6,0.4-0.9,0.6c-0.4,0.2-0.7,0.4-1.2,0.6c-0.4,0.2-0.9,0.4-1.4,0.6c-0.5,0.2-1,0.4-1.6,0.5l-0.4,0.1l-0.5,0.1l-1,0.2
	c-0.3,0.1-0.7,0.1-1,0.2c-0.3,0.1-0.7,0.1-1.1,0.2l-1.1,0.1c-0.2,0-0.4,0-0.6,0h-0.6c-0.4,0-0.8,0-1.2,0l-1.2-0.1
	c-0.4,0-0.8-0.1-1.3-0.1c-0.4,0-0.9-0.1-1.3-0.2l-1.3-0.3l-1.3-0.4c-1.9-0.6-3.7-1.3-5.4-2.3c-1.7-1-3.3-2.2-4.6-3.6
	c-0.3-0.3-0.7-0.7-1-1c-0.3-0.3-0.6-0.7-0.9-1.1c-0.3-0.4-0.5-0.7-0.8-1.1c-0.3-0.4-0.5-0.7-0.7-1.1c-0.2-0.4-0.4-0.8-0.6-1.1
	c-0.2-0.4-0.4-0.8-0.5-1.1c-0.1-0.2-0.2-0.4-0.3-0.6s-0.1-0.4-0.2-0.6c-0.1-0.3-0.2-0.7-0.3-1c3.3-0.8,6.2-2.6,8.2-5.3
	c0,0.1,0.1,0.2,0.1,0.3c0.1,0.2,0.2,0.4,0.3,0.7c0.1,0.2,0.2,0.5,0.3,0.7s0.3,0.5,0.4,0.7l0.2,0.4l0.2,0.4c0.1,0.2,0.3,0.5,0.4,0.7
	c0.2,0.2,0.3,0.5,0.4,0.7c0.1,0.3,0.3,0.5,0.5,0.7c0.2,0.3,0.3,0.5,0.5,0.8c0.2,0.2,0.3,0.5,0.5,0.8c0.2,0.3,0.4,0.5,0.6,0.7
	c0.8,1,1.7,2,2.6,2.9c1,0.9,2.1,1.7,3.2,2.4l0.9,0.5l0.9,0.5c0.3,0.2,0.6,0.3,0.9,0.4c0.3,0.1,0.6,0.3,0.9,0.4l0.9,0.3
	c0.3,0.1,0.6,0.2,0.9,0.3l0.4,0.1c0.1,0,0.3,0.1,0.4,0.1l0.9,0.2c0.3,0.1,0.6,0.1,0.9,0.2c0.3,0.1,0.6,0.1,0.8,0.1l0.8,0.1
	c0.1,0,0.3,0,0.4,0.1l0.4,0c0.5,0,1,0.1,1.5,0.1c0.5,0,0.9,0,1.3,0c0.4,0,0.8,0,1.2,0c0.4,0,0.7-0.1,1-0.1l0.4,0l0.4,0
	c0.2,0,0.4,0,0.6,0c0.3,0,0.6,0.1,0.6,0.2C488.7,274.4,488.6,274.5,488.4,274.8z"/>
<path class="st25" d="M485.2,274.8c0.4-0.8,1.2-1.4,2-1.7c0.9-0.3,1.8-0.3,2.7,0c0.9,0.3,1.6,0.9,2,1.7c0.4,0.8,0.6,1.7,0.4,2.6
	C489.7,277.7,487.1,276.6,485.2,274.8z"/>
<path class="st23" d="M491.2,271.6c1-0.5,2.2-0.8,3.4-0.8c1.2,0,2.3,0.3,3.4,0.9c0.6,0.3,1.1,0.7,1.5,1.2c0.2,0.3,0.3,0.6,0.4,0.9
	c0.1,0.3,0.1,0.6,0,1c-1.6,0.1-3.2-0.1-4.7-0.6C493.7,273.6,492.3,272.7,491.2,271.6z"/>
<path class="st30" d="M503,293.3l1.6-0.9l41.5-11.4l13.1,51.7l-43.1,11.2L503,293.3z"/>
<path class="st31" d="M565.5,268.3L545,279.6l14.2,53.2l19.4-14L565.5,268.3z"/>
<path class="st32" d="M503,293.3l19.4-14l43.1-11.1l-19.4,14L503,293.3z"/>
<path class="st33" d="M530.5,289.7l14.6-3.8l1.9,7.4l-14.6,3.8L530.5,289.7z"/>
<path class="st31" d="M536.5,275.7l-15.6,13l7.4-1.9l15.1-12.9L536.5,275.7z"/>
<path class="st31" d="M520.8,288.7l2.5,9.7l7.4-1.9l-2.5-9.8L520.8,288.7z M531.4,329.6l2.5,9.7l7.4-1.9l-2.5-9.8L531.4,329.6z"/>
</svg>
