<svg version="1.1" xmlns="http://www.w3.org/2000/svg" width="40" height="32" viewBox="0 0 40 32">
<style type="text/css">
	.st0{fill:url(#SVGID_1_);}
</style>
<linearGradient id="SVGID_1_" gradientUnits="userSpaceOnUse" x1="-9.094947e-13" y1="16" x2="40" y2="16">
	<stop  offset="0" style="stop-color:#EC8A5B"/>
	<stop  offset="1" style="stop-color:#F8D568"/>
</linearGradient>
<path class="st0" d="M40,10.5c0,0.1,0,0.2,0,0.3c0,5.8,0,11.6,0,17.4c0,1.8-1,3.2-2.6,3.6C37,32,36.7,32,36.3,32
	c-10.9,0-21.8,0-32.7,0c-2,0-3.5-1.4-3.6-3.4c0-0.2,0-0.3,0-0.5c0-5.7,0-11.5,0-17.2c0-0.1,0-0.3,0-0.4c0,0,0.1,0,0.1-0.1
	c0.2,0.2,0.3,0.4,0.5,0.5c1.1,0.9,2.2,1.7,3.4,2.6c3.7,2.7,7.5,5.4,11.3,8c1.3,0.9,2.6,1.5,4.2,1.7c1.3,0.2,2.6-0.2,3.8-0.9
	c1.1-0.6,2.1-1.3,3.1-2c3.7-2.6,7.4-5.2,11.1-7.8C38.3,11.9,39.1,11.2,40,10.5z M4,0C3.8,0,3.6,0,3.3,0c-1.5,0.1-2.5,0.9-3,2.3
	c-0.5,1.3-0.4,2.6,0.2,3.8c0.8,1.4,1.8,2.6,3.1,3.6c3.7,2.7,7.5,5.3,11.2,8c1.1,0.8,2.2,1.5,3.3,2.2c1.2,0.7,2.5,0.7,3.8,0
	c0.6-0.3,1.2-0.7,1.8-1.1c3.9-2.8,7.9-5.6,11.8-8.4c1.4-1,2.6-2.1,3.5-3.5C39.6,5.9,39.9,5,40,4c0.2-2.2-1.6-4-3.7-4
	C30.8,0,25.4,0,20,0C14.7,0,9.3,0,4,0z"/>
</svg>
