<svg version="1.1" xmlns="http://www.w3.org/2000/svg" xmlns:xlink="http://www.w3.org/1999/xlink" width="630" height="390" viewBox="0 0 630 390">
<style type="text/css">
	.st0{fill:#EAF1FC;}
	.st1{fill:#F8F8FF;}
	.st2{fill:#CDE4F7;}
	.st3{fill:#FFFFFF;}
	.st4{fill:#E9EDF4;}
	.st5{fill:#ECF7FE;}
	.st6{fill:#E09073;}
	.st7{fill:#132C45;}
	.st8{fill:#F19A77;}
	.st9{fill:#E9825F;}
	.st10{fill:#0682A0;}
	.st11{fill:#067487;}
	.st12{fill:#0B2B46;}
	.st13{fill:#09626C;}
	.st14{fill:#301D49;}
	.st15{fill:#9D9FA3;}
	.st16{fill:#5E5D60;}
	.st17{opacity:0.3;fill:#010202;}
	.st18{fill:#7A7A7C;}
	.st19{fill:#38373D;}
	.st20{opacity:0.49;fill:#C3C8CE;}
	.st21{fill:#0F222C;}
	.st22{fill:#2C6292;}
	.st23{fill:#1D4259;}
	.st24{fill:#448DCE;}
	.st25{fill:#3270A7;}
	.st26{fill:#222846;}
	.st27{fill:#FFDA35;}
	.st28{fill:#FF524F;}
	.st29{fill:#F2F2F2;}
	.st30{fill:#F19100;}
</style>
<path class="st0" d="M629.8,341.1c0,0.8-0.1,1.5-0.4,2.2c-0.3,0.8-0.7,1.5-1.1,2.2c-0.6,0.8-1.2,1.5-1.9,2.2
	c-0.8,0.8-1.7,1.5-2.6,2.2c-1.1,0.8-2.2,1.5-3.4,2.2c-1.2,0.7-2.6,1.4-4.1,2.1c-1.5,0.7-3.1,1.4-4.8,2.1c-1.7,0.7-3.6,1.4-5.6,2.1
	c-2,0.7-4.1,1.4-6.3,2c-2.2,0.7-4.5,1.3-7,2c-2.4,0.6-5,1.3-7.6,1.9c-2.6,0.6-5.4,1.3-8.3,1.9c-2.9,0.6-5.8,1.2-8.9,1.8
	c-3.1,0.6-6.2,1.2-9.5,1.7c-3.3,0.6-6.6,1.1-10.1,1.7c-3.5,0.5-7,1.1-10.7,1.6c-3.6,0.5-7.4,1-11.2,1.5c-3.8,0.5-7.7,1-11.7,1.4
	c-4,0.5-8,0.9-12.2,1.4c-4.1,0.4-8.3,0.9-12.6,1.3c-4.3,0.4-8.6,0.8-13.1,1.2c-4.4,0.4-8.9,0.7-13.4,1.1c-4.5,0.4-9.1,0.7-13.8,1
	c-4.7,0.3-9.4,0.6-14.1,0.9c-4.7,0.3-9.6,0.6-14.4,0.8c-4.8,0.2-9.7,0.5-14.7,0.7c-4.9,0.2-9.9,0.4-14.9,0.6c-5,0.2-10,0.3-15.1,0.5
	c-5.1,0.1-10.1,0.3-15.2,0.4c-5.1,0.1-10.2,0.2-15.3,0.3c-5.1,0.1-10.3,0.1-15.4,0.2c-5.2,0-10.3,0.1-15.4,0.1s-10.3,0-15.5-0.1
	c-5.2-0.1-10.3-0.1-15.4-0.2c-5.1-0.1-10.2-0.2-15.3-0.3c-5.1-0.1-10.2-0.2-15.2-0.4c-5.1-0.1-10.1-0.3-15.1-0.5
	c-5-0.2-10-0.4-14.9-0.6c-4.9-0.2-9.8-0.4-14.7-0.7c-4.8-0.3-9.7-0.5-14.4-0.8c-4.8-0.3-9.5-0.6-14.1-0.9c-4.7-0.3-9.3-0.6-13.8-1
	c-4.5-0.3-9-0.7-13.5-1.1c-4.4-0.4-8.8-0.8-13.1-1.2c-4.3-0.4-8.5-0.8-12.6-1.3c-4.1-0.4-8.2-0.9-12.2-1.4c-4-0.5-7.9-0.9-11.7-1.4
	c-3.8-0.5-7.5-1-11.2-1.5c-3.6-0.5-7.2-1-10.7-1.6c-3.4-0.6-6.8-1.1-10.1-1.7c-3.3-0.6-6.4-1.1-9.5-1.7c-3.1-0.6-6-1.2-8.9-1.8
	c-2.9-0.6-5.6-1.2-8.3-1.9c-2.6-0.6-5.2-1.3-7.6-1.9c-2.4-0.6-4.7-1.3-6.9-2c-2.2-0.7-4.3-1.3-6.3-2c-2-0.7-3.8-1.4-5.6-2.1
	c-1.7-0.7-3.4-1.4-4.8-2.1c-1.5-0.7-2.9-1.4-4.1-2.1c-1.2-0.7-2.3-1.4-3.4-2.2c-0.9-0.7-1.8-1.4-2.6-2.2c-0.7-0.7-1.3-1.4-1.9-2.2
	c-0.5-0.7-0.9-1.4-1.1-2.2c-0.5-1.4-0.5-3,0-4.4c0.3-0.8,0.7-1.5,1.1-2.2c0.6-0.8,1.2-1.5,1.9-2.2c0.8-0.8,1.7-1.5,2.6-2.2
	c1.1-0.8,2.2-1.5,3.4-2.2c1.3-0.7,2.6-1.4,4.1-2.1c1.5-0.7,3.1-1.4,4.8-2.1c1.7-0.7,3.6-1.4,5.6-2.1c2-0.7,4.1-1.4,6.3-2
	c2.2-0.7,4.5-1.3,6.9-2c2.4-0.7,5-1.3,7.6-1.9c2.7-0.6,5.4-1.3,8.3-1.9c2.9-0.6,5.8-1.2,8.9-1.8c3.1-0.6,6.2-1.2,9.5-1.7
	c3.3-0.6,6.6-1.1,10.1-1.7c3.5-0.5,7-1.1,10.7-1.6c3.6-0.5,7.4-1,11.2-1.5c3.8-0.5,7.7-1,11.7-1.4c4-0.5,8-0.9,12.2-1.4
	c4.1-0.4,8.4-0.9,12.6-1.3c4.3-0.4,8.7-0.8,13.1-1.2c4.4-0.4,8.9-0.7,13.5-1.1c4.6-0.4,9.1-0.7,13.8-1c4.7-0.3,9.4-0.6,14.1-0.9
	c4.7-0.3,9.6-0.5,14.4-0.8c4.9-0.2,9.7-0.5,14.7-0.7c4.9-0.2,9.9-0.4,14.9-0.6c5-0.2,10-0.3,15.1-0.5c5.1-0.1,10.1-0.3,15.2-0.4
	c5.1-0.1,10.2-0.2,15.3-0.3c5.1-0.1,10.3-0.1,15.4-0.2c5.1,0,10.3-0.1,15.5-0.1c5.2,0,10.3,0,15.4,0.1c5.1,0,10.3,0.1,15.4,0.2
	c5.1,0.1,10.2,0.2,15.3,0.3c5.1,0.1,10.2,0.2,15.2,0.4c5,0.1,10.1,0.3,15.1,0.5c5,0.2,10,0.4,14.9,0.6c4.9,0.2,9.8,0.4,14.7,0.7
	c4.9,0.3,9.7,0.5,14.4,0.8c4.8,0.3,9.5,0.6,14.1,0.9c4.7,0.3,9.3,0.6,13.8,1c4.5,0.3,9,0.7,13.4,1.1c4.4,0.4,8.8,0.8,13.1,1.2
	c4.3,0.4,8.5,0.8,12.6,1.3c4.1,0.4,8.2,0.9,12.2,1.4c4,0.5,7.9,0.9,11.7,1.4c3.8,0.5,7.6,1,11.2,1.5c3.6,0.5,7.2,1,10.7,1.6
	c3.4,0.5,6.8,1.1,10.1,1.7c3.3,0.6,6.4,1.1,9.5,1.7c3.1,0.6,6,1.2,8.9,1.8c2.9,0.6,5.6,1.2,8.3,1.9c2.7,0.6,5.2,1.3,7.6,1.9
	c2.4,0.6,4.7,1.3,7,2c2.2,0.7,4.3,1.3,6.3,2c2,0.7,3.8,1.4,5.6,2.1c1.7,0.7,3.4,1.4,4.8,2.1c1.5,0.7,2.9,1.4,4.1,2.1
	c1.2,0.7,2.3,1.4,3.4,2.2c0.9,0.7,1.8,1.4,2.6,2.2c0.7,0.7,1.3,1.4,1.9,2.2c0.5,0.7,0.9,1.4,1.1,2.2
	C629.7,339.6,629.8,340.4,629.8,341.1z"/>
<path class="st1" d="M585.5,324.8c41-80.5,63.6-234.6-25.3-285.7c-58.1-33.4-118.7,9.7-180.9,11.6c-48.8,1.6-95.9-34.9-139.9-45.3
	C123.9-21.8-57.6,49,22.2,324.8C221.8,324.3,385.8,325.4,585.5,324.8z"/>
<path class="st2" d="M357.6,129.4h114.2v195.8H357.6V129.4z"/>
<path class="st3" d="M364.9,312h5.2v6h-5.2V312z M374.4,312h5.2v6h-5.2L374.4,312z M383.9,312h5.2v6h-5.2V312z M401.3,312h5.2v6
	h-5.2V312z M410.8,312h5.2v6h-5.2V312z M420.2,312h5.2v6h-5.2V312z M429.7,312h5.2v6h-5.2V312z M364.9,299.4h5.2v6h-5.2V299.4z
	 M374.4,299.4h5.2v6h-5.2L374.4,299.4z M383.9,299.4h5.2v6h-5.2V299.4z M401.3,299.4h5.2v6h-5.2V299.4z M410.8,299.4h5.2v6h-5.2
	V299.4z M420.3,299.4h5.2v6h-5.2V299.4z M429.7,299.4h5.2v6h-5.2V299.4z M364.9,286.8h5.2v6h-5.2V286.8z M374.5,286.8h5.1v6h-5.2
	L374.5,286.8z M384,286.8h5.2v6H384V286.8z M401.3,286.8h5.2v6h-5.2V286.8z M410.8,286.8h5.2v6h-5.2V286.8z M420.3,286.8h5.2v6h-5.2
	V286.8z M429.8,286.8h5.2v6h-5.2V286.8z M365,274.3h5.2v6H365V274.3z M374.5,274.3h5.1v6h-5.2L374.5,274.3z M384,274.3h5.2v6H384
	V274.3z M401.4,274.3h5.2v6h-5.2V274.3z M410.9,274.3h5.2v6h-5.2V274.3z M420.3,274.3h5.2v6h-5.2V274.3z M429.8,274.3h5.2v6h-5.2
	V274.3z M365,261.6h5.2v6H365V261.6z M374.5,261.6h5.1v6h-5.2L374.5,261.6z M384,261.6h5.2v6H384V261.6z M401.4,261.6h5.2v6h-5.2
	V261.6z M410.9,261.6h5.2v6h-5.2V261.6z M420.4,261.6h5.2v6h-5.2V261.6z M429.9,261.6h5.2v6h-5.2V261.6z M365,249.1h5.2v6H365V249.1
	z M374.6,249.1h5v6h-5.2L374.6,249.1z M384.1,249.1h5.2v6h-5.2V249.1z M401.4,249.1h5.2v6h-5.2V249.1z M410.9,249.1h5.2v6h-5.2
	V249.1z M420.4,249.1h5.2v6h-5.2V249.1z M429.9,249.1h5.2v6h-5.2V249.1z M365.1,236.5h5.2v6h-5.2V236.5z M374.6,236.5h5v6h-5.2
	L374.6,236.5z M384.1,236.5h5.2v6h-5.2V236.5z M401.5,236.5h5.2v6h-5.2V236.5z M411,236.5h5.2v6H411V236.5z M420.4,236.5h5.2v6h-5.2
	V236.5z M429.9,236.5h5.2v6h-5.2V236.5z M365.1,223.9h5.2v6h-5.2V223.9z M374.6,223.9h5v6h-5.2L374.6,223.9z M384.1,223.9h5.2v6
	h-5.2V223.9z M401.5,223.9h5.2v6h-5.2V223.9z M411,223.9h5.2v6H411V223.9z M420.5,223.9h5.2v6h-5.2V223.9z M430,223.9h5.2v6H430
	V223.9z M439.6,312h5.2v6h-5.2V312z M449.1,312h5.2v6h-5.5L449.1,312z M458.6,312h5.2v6h-5.2V312z M439.6,299.4h5.2v6h-5.2V299.4z
	 M449.1,299.4h5.2v6h-5.5L449.1,299.4z M458.6,299.4h5.2v6h-5.2V299.4z M439.6,286.9h5.2v6h-5.2V286.9z M449.1,286.9h5.2v6h-5.5
	L449.1,286.9z M458.6,286.9h5.2v6h-5.2V286.9z M439.6,274.3h5.2v6h-5.2V274.3z M449.1,274.3h5.2v6h-5.5L449.1,274.3z M458.6,274.3
	h5.2v6h-5.2V274.3z M439.6,261.7h5.2v6h-5.2V261.7z M449.1,261.7h5.2v6h-5.5L449.1,261.7z M458.6,261.7h5.2v6h-5.2V261.7z
	 M439.4,249.1h5.2v6h-5.2V249.1z M448.9,249.1h5.2v6h-5.2V249.1z M458.4,249.1h5.2v6h-5.2V249.1z M439.4,236.5h5.2v6h-5.2V236.5z
	 M448.9,236.5h5.2v6h-5.2V236.5z M458.4,236.5h5.2v6h-5.2V236.5z M439.4,223.9h5.2v6h-5.2V223.9z M448.9,223.9h5.2v6h-5.2V223.9z
	 M458.4,223.9h5.2v6h-5.2V223.9z M364.9,211.4h5.2v6h-5.2V211.4z M374.4,211.4h5.2v6h-5.2L374.4,211.4z M383.9,211.4h5.2v6h-5.2
	V211.4z M401.3,211.4h5.2v6h-5.2V211.4z M410.8,211.4h5.2v6h-5.2V211.4z M420.2,211.4h5.2v6h-5.2V211.4z M429.7,211.4h5.2v6h-5.2
	V211.4z M439.2,211.4h5.2v6h-5.2V211.4z M448.7,211.4h5.2v6h-5.2V211.4z M458.2,211.4h5.2v6h-5.2L458.2,211.4z M364.9,198.8h5.2v6
	h-5.2V198.8z M374.4,198.8h5.2v6h-5.2L374.4,198.8z M383.9,198.8h5.2v6h-5.2V198.8z M401.3,198.8h5.2v6h-5.2V198.8z M410.8,198.8
	h5.2v6h-5.2V198.8z M420.2,198.8h5.2v6h-5.2V198.8z M429.7,198.8h5.2v6h-5.2V198.8z M439.2,198.8h5.2v6h-5.2L439.2,198.8z
	 M448.7,198.8h5.2v6h-5.2V198.8z M458.2,198.8h5.2v6h-5.2L458.2,198.8z M364.9,186.2h5.2v5.9h-5.2V186.2z M374.4,186.2h5.2v5.9h-5.2
	L374.4,186.2z M383.9,186.2h5.2v5.9h-5.2V186.2z M401.3,186.2h5.2v5.9h-5.2V186.2z M410.8,186.2h5.2v5.9h-5.2V186.2z M420.2,186.2
	h5.2v5.9h-5.2V186.2z M429.7,186.2h5.2v5.9h-5.2V186.2z M439.2,186.2h5.2v5.9h-5.2V186.2z M448.7,186.2h5.2v5.9h-5.2V186.2z
	 M458.2,186.2h5.2v5.9h-5.2L458.2,186.2z M364.9,173.6h5.2v6h-5.2V173.6z M374.4,173.6h5.2v6h-5.2L374.4,173.6z M383.9,173.6h5.2v6
	h-5.2V173.6z M401.3,173.6h5.2v6h-5.2V173.6z M410.8,173.6h5.2v6h-5.2V173.6z M420.2,173.6h5.2v6h-5.2V173.6z M429.7,173.6h5.2v6
	h-5.2V173.6z M439.2,173.6h5.2v6h-5.2L439.2,173.6z M448.7,173.6h5.2v6h-5.2V173.6z M458.2,173.6h5.2v6h-5.2L458.2,173.6z
	 M364.9,161h5.2v6h-5.2V161z M374.4,161h5.2v6h-5.2L374.4,161z M383.9,161h5.2v6h-5.2V161z M401.3,161h5.2v6h-5.2V161z M410.8,161
	h5.2v6h-5.2V161z M420.2,161h5.2v6h-5.2V161z M429.7,161h5.2v6h-5.2V161z M439.2,161h5.2v6h-5.2L439.2,161z M448.7,161h5.2v6h-5.2
	V161z M458.2,161h5.2v6h-5.2L458.2,161z M364.9,148.4h5.2v6h-5.2V148.4z M374.4,148.4h5.2v6h-5.2L374.4,148.4z M383.9,148.4h5.2v6
	h-5.2V148.4z M401.3,148.4h5.2v6h-5.2V148.4z M410.8,148.4h5.2v6h-5.2V148.4z M420.2,148.4h5.2v6h-5.2V148.4z M429.7,148.4h5.2v6
	h-5.2V148.4z M439.2,148.4h5.2v6h-5.2L439.2,148.4z M448.7,148.4h5.2v6h-5.2V148.4z M458.2,148.4h5.2v6h-5.2L458.2,148.4z
	 M364.9,135.9h5.2v6h-5.2V135.9z M374.4,135.9h5.2v6h-5.2L374.4,135.9z M383.9,135.9h5.2v6h-5.2V135.9z M401.3,135.9h5.2v6h-5.2
	V135.9z M410.8,135.9h5.2v6h-5.2V135.9z M420.2,135.9h5.2v6h-5.2V135.9z M429.7,135.9h5.2v6h-5.2V135.9z M439.2,135.9h5.2v6h-5.2
	V135.9z M448.7,135.9h5.2v6h-5.2V135.9z M458.2,135.9h5.2v6h-5.2L458.2,135.9z"/>
<path class="st3" d="M281.3,297.6h5.5v7h-5.5V297.6z M291.4,297.6h5.5v7h-5.5L291.4,297.6z M301.4,297.6h5.5v7h-5.5V297.6z
	 M319.8,297.6h5.5v7h-5.5V297.6z M329.9,297.6h5.5v7h-5.5V297.6z M339.9,297.6h5.5v7h-5.5V297.6z M349.9,297.6h5.5v7h-5.5V297.6z
	 M281.3,282.8h5.5v7h-5.5V282.8z M291.4,282.8h5.5v7h-5.5L291.4,282.8z M301.5,282.8h5.5v7h-5.5V282.8z M319.9,282.8h5.5v7h-5.5
	V282.8z M329.9,282.8h5.5v7h-5.5V282.8z M339.9,282.8h5.5v7h-5.5V282.8z M350,282.8h5.5v7H350V282.8z M281.4,268.1h5.5v7h-5.5V268.1
	z M291.5,268.1h5.4v7h-5.5L291.5,268.1z M301.5,268.1h5.5v7h-5.5V268.1z M319.9,268.1h5.5v7h-5.5V268.1z M330,268.1h5.5v7H330V268.1
	z M340,268.1h5.5v7H340V268.1z M350,268.1h5.5v7H350V268.1z M281.4,253.3h5.5v7h-5.5V253.3z M291.5,253.3h5.4v7h-5.5L291.5,253.3z
	 M301.5,253.3h5.5v7h-5.5V253.3z M320,253.3h5.5v7H320V253.3z M330,253.3h5.5v7H330V253.3z M340,253.3h5.5v7H340V253.3z
	 M350.1,253.3h5.5v7h-5.5V253.3z M281.4,238.5h5.5v7h-5.5V238.5z M291.5,238.5h5.4v7h-5.5L291.5,238.5z M301.6,238.5h5.5v7h-5.5
	V238.5z M320,238.5h5.5v7H320V238.5z M330,238.5h5.5v7H330V238.5z M340.1,238.5h5.5v7h-5.5V238.5z M350.1,238.5h5.5v7h-5.5V238.5z
	 M281.5,223.8h5.5v7h-5.5V223.8z M291.6,223.8h5.3v7h-5.5L291.6,223.8z M301.6,223.8h5.5v7h-5.5V223.8z M320,223.8h5.5v7H320V223.8z
	 M330.1,223.8h5.5v7h-5.5V223.8z M340.1,223.8h5.5v7h-5.5V223.8z M350.1,223.8h5.5v7h-5.5V223.8z M281.5,209h5.5v7h-5.5V209z
	 M291.6,209h5.3v7h-5.5L291.6,209z M301.7,209h5.5v7h-5.5V209z M320.1,209h5.5v7h-5.5V209z M330.1,209h5.5v7h-5.5V209z M340.1,209
	h5.5v7h-5.5V209z M350.2,209h5.5v7h-5.5V209z M281.5,194.3h5.5v7h-5.5V194.3z M291.7,194.3h5.3v7h-5.5L291.7,194.3z M301.7,194.3
	h5.5v7h-5.5V194.3z M320.1,194.3h5.5v7h-5.5V194.3z M330.1,194.3h5.5v7h-5.5V194.3z M340.2,194.3h5.5v7h-5.5V194.3z M350.2,194.3
	h5.5v7h-5.5V194.3z M360.4,297.6h5.5v7h-5.5V297.6z M370.5,297.6h5.5v7h-5.8L370.5,297.6z M380.5,297.6h5.5v7h-5.5V297.6z
	 M360.4,282.9h5.5v7h-5.5V282.9z M370.5,282.9h5.5v7h-5.8L370.5,282.9z M380.5,282.9h5.5v7h-5.5V282.9z M360.4,268.1h5.5v7h-5.5
	V268.1z M370.5,268.1h5.5v7h-5.8L370.5,268.1z M380.5,268.1h5.5v7h-5.5V268.1z M360.4,253.4h5.5v7h-5.5V253.4z M370.5,253.4h5.5v7
	h-5.8L370.5,253.4z M380.5,253.4h5.5v7h-5.5V253.4z M360.4,238.6h5.5v7h-5.5V238.6z M370.5,238.6h5.5v7h-5.8L370.5,238.6z
	 M380.5,238.6h5.5v7h-5.5V238.6z M360.2,223.8h5.5v7h-5.5V223.8z M370.2,223.8h5.5v7h-5.5V223.8z M380.3,223.8h5.5v7h-5.5V223.8z
	 M360.2,209h5.5v7h-5.5V209z M370.2,209h5.5v7h-5.5V209z M380.3,209h5.5v7h-5.5V209z M360.2,194.3h5.5v7h-5.5V194.3z M370.2,194.3
	h5.5v7h-5.5V194.3z M380.3,194.3h5.5v7h-5.5V194.3z M281.3,179.6h5.5v7h-5.5V179.6z M291.4,179.6h5.5v7h-5.5L291.4,179.6z
	 M301.4,179.6h5.5v7h-5.5V179.6z M319.9,179.6h5.5v7h-5.5V179.6z M329.9,179.6h5.5v7h-5.5V179.6z M339.9,179.6h5.5v7h-5.5V179.6z
	 M350,179.6h5.5v7H350V179.6z M360,179.6h5.5v7H360V179.6z M370,179.6h5.5v7H370V179.6z M380.1,179.6h5.5v7H380L380.1,179.6z
	 M281.3,164.8h5.5v7h-5.5V164.8z M291.4,164.8h5.5v7h-5.5L291.4,164.8z M301.4,164.8h5.5v7h-5.5V164.8z M319.8,164.8h5.5v7h-5.5
	V164.8z M329.9,164.8h5.5v7h-5.5V164.8z M339.9,164.8h5.5v7h-5.5V164.8z M349.9,164.8h5.5v7h-5.5V164.8z M360,164.8h5.5v7H360
	L360,164.8z M370,164.8h5.5v7H370V164.8z M380,164.8h5.5v7H380L380,164.8z M281.3,150h5.5v7h-5.5V150z M291.4,150h5.5v7h-5.5
	L291.4,150z M301.4,150h5.5v7h-5.5V150z M319.9,150h5.5v7h-5.5V150z M329.9,150h5.5v7h-5.5V150z M339.9,150h5.5v7h-5.5V150z
	 M350,150h5.5v7H350V150z M360,150h5.5v7H360V150z M370,150h5.5v7H370V150z M380.1,150h5.5v7H380L380.1,150z M281.3,135.3h5.5v7
	h-5.5V135.3z M291.4,135.3h5.5v7h-5.5L291.4,135.3z M301.4,135.3h5.5v7h-5.5V135.3z M319.8,135.3h5.5v7h-5.5V135.3z M329.9,135.3
	h5.5v7h-5.5V135.3z M339.9,135.3h5.5v7h-5.5V135.3z M349.9,135.3h5.5v7h-5.5V135.3z M360,135.3h5.5v7H360L360,135.3z M370,135.3h5.5
	v7H370V135.3z M380,135.3h5.5v7H380L380,135.3z M281.3,120.5h5.5v7h-5.5V120.5z M291.4,120.5h5.5v7h-5.5L291.4,120.5z M301.4,120.5
	h5.5v7h-5.5V120.5z M319.8,120.5h5.5v7h-5.5V120.5z M329.9,120.5h5.5v7h-5.5V120.5z M339.9,120.5h5.5v7h-5.5V120.5z M349.9,120.5
	h5.5v7h-5.5V120.5z M360,120.5h5.5v7H360L360,120.5z M370,120.5h5.5v7H370V120.5z M380,120.5h5.5v7H380L380,120.5z M281.3,105.8h5.5
	v7h-5.5V105.8z M291.4,105.8h5.5v7h-5.5L291.4,105.8z M301.4,105.8h5.5v7h-5.5V105.8z M319.8,105.8h5.5v7h-5.5V105.8z M329.9,105.8
	h5.5v7h-5.5V105.8z M339.9,105.8h5.5v7h-5.5V105.8z M349.9,105.8h5.5v7h-5.5V105.8z M360,105.8h5.5v7H360L360,105.8z M370,105.8h5.5
	v7H370V105.8z M380,105.8h5.5v7H380L380,105.8z M281.3,91h5.5v7h-5.5V91z M291.4,91h5.5v7h-5.5L291.4,91z M301.4,91h5.5v7h-5.5V91z
	 M319.9,91h5.5v7h-5.5V91z M329.9,91h5.5v7h-5.5V91z M339.9,91h5.5v7h-5.5V91z M350,91h5.5v7H350V91z M360,91h5.5v7H360V91z M370,91
	h5.5v7H370V91z M380.1,91h5.5v7H380L380.1,91z"/>
<path class="st2" d="M193.9,131.6h94.1v192.5h-94.1V131.6z"/>
<path class="st4" d="M193.9,131.6h29.3v192.5h-29.3V131.6z"/>
<path class="st3" d="M199.9,285.1h4.3v21.3h-4.3V285.1z M207.8,285.1h4.3v21.3h-4.3V285.1z M215.6,285.1h4.3v21.3h-4.3V285.1z
	 M230.2,285.1h4.3v21.3h-4.3V285.1z M238.1,285.1h4.3v21.3h-4.3V285.1z M246,285.1h4.3v21.3H246V285.1z M253.8,285.1h4.3v21.3h-4.3
	V285.1z M199.9,261h4.3v21.3h-4.3V261z M207.8,261h4.3v21.3h-4.3V261z M215.6,261h4.3v21.3h-4.3V261z M230.2,261h4.3v21.3h-4.3V261z
	 M238.1,261h4.3v21.3h-4.3V261z M246,261h4.3v21.3H246V261z M253.8,261h4.3v21.3h-4.3V261z M238.1,237h4.3v21.3h-4.3V237z M246,237
	h4.3v21.3H246V237z M253.8,237h4.3v21.3h-4.3V237z M215.6,236.7h4.3v21.3h-4.3V236.7z M199.9,236.6h4.3v21.3h-4.3V236.6z
	 M207.8,236.6h4.3v21.3h-4.3V236.6z M215.6,212.9h4.3v21.3h-4.3V212.9z M230.2,237h4.3v21.3h-4.3V237z M230.2,212.9h4.3v21.3h-4.3
	V212.9z M238.1,212.9h4.3v21.3h-4.3V212.9z M246,212.9h4.3v21.3H246V212.9z M253.8,212.9h4.3v21.3h-4.3V212.9z M199.9,212.8h4.3V234
	h-4.3V212.8z M207.8,212.8h4.3V234h-4.3V212.8z M199.9,188.8h4.3v21.2h-4.3V188.8z M207.8,188.8h4.3v21.2h-4.3V188.8z M215.6,188.8
	h4.3v21.2h-4.3V188.8z M230.2,188.8h4.3v21.2h-4.3V188.8z M238.1,188.8h4.3v21.2h-4.3V188.8z M246,188.8h4.3v21.2H246V188.8z
	 M253.8,188.8h4.3v21.2h-4.3V188.8z M199.9,164.8h4.3v21.3h-4.3V164.8z M207.8,164.8h4.3v21.3h-4.3V164.8z M215.6,164.8h4.3v21.3
	h-4.3V164.8z M230.2,164.8h4.3v21.3h-4.3V164.8z M238.1,164.8h4.3v21.3h-4.3V164.8z M246,164.8h4.3v21.3H246V164.8z M253.8,164.8
	h4.3v21.3h-4.3V164.8z M199.9,140.8h4.3V162h-4.3V140.8z M207.8,140.8h4.3V162h-4.3V140.8z M215.6,140.8h4.3V162h-4.3V140.8z
	 M230.2,140.8h4.3V162h-4.3V140.8z M238.1,140.8h4.3V162h-4.3V140.8z M246,140.8h4.3V162H246V140.8z M253.8,140.8h4.3V162h-4.3
	V140.8z"/>
<path class="st2" d="M471,164h115v161H471V164z"/>
<path class="st4" d="M470.6,163.5h35.9V323h-35.9V163.5z"/>
<path class="st3" d="M470.6,308.8H586v1.3H470.6V308.8z M470.6,298.3H586v1.3H470.6V298.3z M470.6,287.8H586v1.3H470.6V287.8z
	 M470.6,277.3H586v1.3H470.6V277.3z M470.6,266.8H586v1.3H470.6V266.8z M470.6,256.3H586v1.3H470.6V256.3z M470.6,245.7H586v1.3
	H470.6V245.7z M470.6,235.2H586v1.3H470.6V235.2z M470.6,224.8H586v1.3H470.6V224.8z M470.6,214.2H586v1.3H470.6V214.2z
	 M470.6,203.7H586v1.3H470.6V203.7z M470.6,193.2H586v1.3H470.6V193.2z M470.6,182.7H586v1.3H470.6V182.7z M470.6,172.2H586v1.3
	H470.6V172.2z"/>
<path class="st2" d="M273.7,79.3h119.6v244.8H273.7V79.3z"/>
<path class="st5" d="M273.7,79.3H311v244.8h-37.3V79.3z"/>
<path class="st3" d="M281,308.4h5.5v7.4H281V308.4z M291.2,308.4h5.5v7.4h-5.5L291.2,308.4z M301.2,308.4h5.5v7.4h-5.5V308.4z
	 M319.6,308.4h5.5v7.4h-5.5V308.4z M329.6,308.4h5.5v7.4h-5.5V308.4z M339.7,308.4h5.5v7.4h-5.5V308.4z M349.7,308.4h5.5v7.4h-5.5
	V308.4z M281.1,292.9h5.5v7.4h-5.5V292.9z M291.2,292.9h5.5v7.4h-5.5L291.2,292.9z M301.2,292.9h5.5v7.4h-5.5V292.9z M319.6,292.9
	h5.5v7.4h-5.5V292.9z M329.7,292.9h5.5v7.4h-5.5V292.9z M339.7,292.9h5.5v7.4h-5.5V292.9z M349.7,292.9h5.5v7.4h-5.5V292.9z
	 M281.1,277.4h5.5v7.4h-5.5V277.4z M291.2,277.4h5.4v7.4h-5.5L291.2,277.4z M301.3,277.4h5.5v7.4h-5.5V277.4z M319.7,277.4h5.5v7.4
	h-5.5V277.4z M329.7,277.4h5.5v7.4h-5.5V277.4z M339.7,277.4h5.5v7.4h-5.5V277.4z M349.8,277.4h5.5v7.4h-5.5V277.4z M281.2,261.9
	h5.5v7.4h-5.5V261.9z M291.3,261.9h5.4v7.4h-5.5L291.3,261.9z M301.3,261.9h5.5v7.4h-5.5V261.9z M319.7,261.9h5.5v7.4h-5.5V261.9z
	 M329.7,261.9h5.5v7.4h-5.5V261.9z M339.8,261.9h5.5v7.4h-5.5V261.9z M349.8,261.9h5.5v7.4h-5.5V261.9z M281.2,246.3h5.5v7.3h-5.5
	V246.3z M291.3,246.3h5.4v7.3h-5.5L291.3,246.3z M301.3,246.3h5.5v7.3h-5.5V246.3z M319.7,246.3h5.5v7.3h-5.5V246.3z M329.8,246.3
	h5.5v7.3h-5.5V246.3z M339.8,246.3h5.5v7.3h-5.5V246.3z M349.8,246.3h5.5v7.3h-5.5V246.3z M281.2,230.8h5.5v7.4h-5.5V230.8z
	 M291.3,230.8h5.3v7.4h-5.5L291.3,230.8z M301.4,230.8h5.5v7.4h-5.5V230.8z M319.8,230.8h5.5v7.4h-5.5V230.8z M329.8,230.8h5.5v7.4
	h-5.5V230.8z M339.8,230.8h5.5v7.4h-5.5V230.8z M349.9,230.8h5.5v7.4h-5.5V230.8z M281.3,215.2h5.5v7.4h-5.5V215.2z M291.4,215.2
	h5.3v7.4h-5.5L291.4,215.2z M301.4,215.2h5.5v7.4h-5.5V215.2z M319.8,215.2h5.5v7.4h-5.5V215.2z M329.8,215.2h5.5v7.4h-5.5V215.2z
	 M339.9,215.2h5.5v7.4h-5.5V215.2z M349.9,215.2h5.5v7.4h-5.5V215.2z M281.3,199.7h5.5v7.4h-5.5V199.7z M291.4,199.7h5.3v7.4h-5.5
	L291.4,199.7z M301.4,199.7h5.5v7.4h-5.5V199.7z M319.9,199.7h5.5v7.4h-5.5V199.7z M329.9,199.7h5.5v7.4h-5.5V199.7z M339.9,199.7
	h5.5v7.4h-5.5V199.7z M349.9,199.7h5.5v7.4h-5.5V199.7z M360.2,308.4h5.5v7.4h-5.5V308.4z M370.2,308.4h5.5v7.4H370L370.2,308.4z
	 M380.3,308.4h5.5v7.4h-5.5V308.4z M360.2,292.9h5.5v7.4h-5.5V292.9z M370.2,292.9h5.5v7.4H370L370.2,292.9z M380.3,292.9h5.5v7.4
	h-5.5V292.9z M360.2,277.4h5.5v7.4h-5.5V277.4z M370.2,277.4h5.5v7.4H370L370.2,277.4z M380.3,277.4h5.5v7.4h-5.5V277.4z
	 M360.2,261.9h5.5v7.4h-5.5V261.9z M370.2,261.9h5.5v7.4H370L370.2,261.9z M380.3,261.9h5.5v7.4h-5.5V261.9z M360.2,246.3h5.5v7.3
	h-5.5V246.3z M370.2,246.3h5.5v7.3H370L370.2,246.3z M380.3,246.3h5.5v7.3h-5.5V246.3z M359.9,230.8h5.5v7.4h-5.5V230.8z M370,230.8
	h5.5v7.4H370V230.8z M380,230.8h5.5v7.4H380V230.8z M359.9,215.2h5.5v7.4h-5.5V215.2z M370,215.2h5.5v7.4H370V215.2z M380,215.2h5.5
	v7.4H380V215.2z M359.9,199.7h5.5v7.4h-5.5V199.7z M370,199.7h5.5v7.4H370V199.7z M380,199.7h5.5v7.4H380V199.7z M281.1,184.2h5.5
	v7.4h-5.5V184.2z M291.2,184.2h5.5v7.4h-5.5L291.2,184.2z M301.2,184.2h5.5v7.4h-5.5V184.2z M319.6,184.2h5.5v7.4h-5.5V184.2z
	 M329.6,184.2h5.5v7.4h-5.5V184.2z M339.7,184.2h5.5v7.4h-5.5V184.2z M349.7,184.2h5.5v7.4h-5.5V184.2z M359.7,184.2h5.5v7.4h-5.5
	V184.2z M369.8,184.2h5.5v7.4h-5.5V184.2z M379.8,184.2h5.5v7.4h-5.6L379.8,184.2z M281,168.7h5.5v7.4H281V168.7z M291.2,168.7h5.5
	v7.4h-5.5L291.2,168.7z M301.2,168.7h5.5v7.4h-5.5V168.7z M319.6,168.7h5.5v7.4h-5.5V168.7z M329.6,168.7h5.5v7.4h-5.5V168.7z
	 M339.7,168.7h5.5v7.4h-5.5V168.7z M349.7,168.7h5.5v7.4h-5.5V168.7z M359.7,168.7h5.5v7.4h-5.5L359.7,168.7z M369.8,168.7h5.5v7.4
	h-5.5V168.7z M379.8,168.7h5.5v7.4h-5.5L379.8,168.7z M281.1,153.1h5.5v7.3h-5.5V153.1z M291.2,153.1h5.5v7.3h-5.5L291.2,153.1z
	 M301.2,153.1h5.5v7.3h-5.5V153.1z M319.6,153.1h5.5v7.3h-5.5V153.1z M329.6,153.1h5.5v7.3h-5.5V153.1z M339.7,153.1h5.5v7.3h-5.5
	V153.1z M349.7,153.1h5.5v7.3h-5.5V153.1z M359.7,153.1h5.5v7.3h-5.5V153.1z M369.8,153.1h5.5v7.3h-5.5V153.1z M379.8,153.1h5.5v7.3
	h-5.6L379.8,153.1z M281,137.7h5.5v7.4H281V137.7z M291.2,137.7h5.5v7.4h-5.5L291.2,137.7z M301.2,137.7h5.5v7.4h-5.5V137.7z
	 M319.6,137.7h5.5v7.4h-5.5V137.7z M329.6,137.7h5.5v7.4h-5.5V137.7z M339.7,137.7h5.5v7.4h-5.5V137.7z M349.7,137.7h5.5v7.4h-5.5
	V137.7z M359.7,137.7h5.5v7.4h-5.5L359.7,137.7z M369.8,137.7h5.5v7.4h-5.5V137.7z M379.8,137.7h5.5v7.4h-5.5L379.8,137.7z
	 M281,122.1h5.5v7.4H281V122.1z M291.2,122.1h5.5v7.4h-5.5L291.2,122.1z M301.2,122.1h5.5v7.4h-5.5V122.1z M319.6,122.1h5.5v7.4
	h-5.5V122.1z M329.6,122.1h5.5v7.4h-5.5V122.1z M339.7,122.1h5.5v7.4h-5.5V122.1z M349.7,122.1h5.5v7.4h-5.5V122.1z M359.7,122.1
	h5.5v7.4h-5.5L359.7,122.1z M369.8,122.1h5.5v7.4h-5.5V122.1z M379.8,122.1h5.5v7.4h-5.5L379.8,122.1z M281,106.6h5.5v7.4H281V106.6
	z M291.2,106.6h5.5v7.4h-5.5L291.2,106.6z M301.2,106.6h5.5v7.4h-5.5V106.6z M319.6,106.6h5.5v7.4h-5.5V106.6z M329.6,106.6h5.5v7.4
	h-5.5V106.6z M339.7,106.6h5.5v7.4h-5.5V106.6z M349.7,106.6h5.5v7.4h-5.5V106.6z M359.7,106.6h5.5v7.4h-5.5L359.7,106.6z
	 M369.8,106.6h5.5v7.4h-5.5V106.6z M379.8,106.6h5.5v7.4h-5.5L379.8,106.6z M281.1,91.1h5.5v7.3h-5.5V91.1z M291.2,91.1h5.5v7.3
	h-5.5L291.2,91.1z M301.2,91.1h5.5v7.3h-5.5V91.1z M319.6,91.1h5.5v7.3h-5.5V91.1z M329.6,91.1h5.5v7.3h-5.5V91.1z M339.7,91.1h5.5
	v7.3h-5.5V91.1z M349.7,91.1h5.5v7.3h-5.5V91.1z M359.7,91.1h5.5v7.3h-5.5V91.1z M369.8,91.1h5.5v7.3h-5.5V91.1z M379.8,91.1h5.5
	v7.3h-5.6L379.8,91.1z"/>
<path class="st2" d="M75.1,111.3h119.9v213.1H75.1V111.3z"/>
<path class="st5" d="M75.1,111.3h37.6v213.1H75.1V111.3z"/>
<path class="st3" d="M82.4,310.8h5.5v6.4h-5.5V310.8z M92.5,310.8H98v6.4h-5.5L92.5,310.8z M102.5,310.8h5.5v6.4h-5.5V310.8z
	 M120.9,310.8h5.5v6.4h-5.5V310.8z M130.9,310.8h5.5v6.4h-5.5V310.8z M141,310.8h5.5v6.4H141V310.8z M151,310.8h5.5v6.4H151V310.8z
	 M82.4,297.3h5.5v6.4h-5.5V297.3z M92.5,297.3H98v6.4h-5.5L92.5,297.3z M102.5,297.3h5.5v6.4h-5.5V297.3z M121,297.3h5.5v6.4H121
	V297.3z M131,297.3h5.5v6.4H131V297.3z M141,297.3h5.5v6.4H141V297.3z M151.1,297.3h5.5v6.4h-5.5V297.3z M82.4,283.8H88v6.4h-5.5
	V283.8z M92.5,283.8H98v6.4h-5.5L92.5,283.8z M102.6,283.8h5.5v6.4h-5.5V283.8z M121,283.8h5.5v6.4H121V283.8z M131,283.8h5.5v6.4
	H131V283.8z M141.1,283.8h5.5v6.4h-5.5V283.8z M151.1,283.8h5.5v6.4h-5.5V283.8z M82.5,270.2H88v6.4h-5.5V270.2z M92.6,270.2H98v6.4
	h-5.5L92.6,270.2z M102.6,270.2h5.5v6.4h-5.5V270.2z M121,270.2h5.5v6.4H121V270.2z M131.1,270.2h5.5v6.4h-5.5V270.2z M141.1,270.2
	h5.5v6.4h-5.5V270.2z M151.1,270.2h5.5v6.4h-5.5V270.2z M82.5,256.7H88v6.4h-5.5V256.7z M92.6,256.7H98v6.4h-5.5L92.6,256.7z
	 M102.7,256.7h5.5v6.4h-5.5V256.7z M121.1,256.7h5.5v6.4h-5.5V256.7z M131.1,256.7h5.5v6.4h-5.5V256.7z M141.1,256.7h5.5v6.4h-5.5
	V256.7z M151.2,256.7h5.5v6.4h-5.5V256.7z M82.5,243.1h5.5v6.4h-5.5V243.1z M92.7,243.1H98v6.4h-5.5L92.7,243.1z M102.7,243.1h5.5
	v6.4h-5.5V243.1z M121.1,243.1h5.5v6.4h-5.5V243.1z M131.1,243.1h5.5v6.4h-5.5V243.1z M141.2,243.1h5.5v6.4h-5.5V243.1z
	 M151.2,243.1h5.5v6.4h-5.5V243.1z M82.6,229.6h5.5v6.4h-5.5V229.6z M92.7,229.6H98v6.4h-5.5L92.7,229.6z M102.7,229.6h5.5v6.4h-5.5
	V229.6z M121.1,229.6h5.5v6.4h-5.5V229.6z M131.2,229.6h5.5v6.4h-5.5V229.6z M141.2,229.6h5.5v6.4h-5.5V229.6z M151.2,229.6h5.5v6.4
	h-5.5V229.6z M82.6,216.1h5.5v6.4h-5.5V216.1z M92.7,216.1H98v6.4h-5.5L92.7,216.1z M102.8,216.1h5.5v6.4h-5.5V216.1z M121.2,216.1
	h5.5v6.4h-5.5V216.1z M131.2,216.1h5.5v6.4h-5.5V216.1z M141.2,216.1h5.5v6.4h-5.5V216.1z M151.3,216.1h5.5v6.4h-5.5V216.1z
	 M161.5,310.8h5.5v6.4h-5.5V310.8z M171.5,310.8h5.5v6.4h-5.8L171.5,310.8z M181.6,310.8h5.5v6.4h-5.5V310.8z M161.5,297.3h5.5v6.4
	h-5.5V297.3z M171.5,297.3h5.5v6.4h-5.8L171.5,297.3z M181.6,297.3h5.5v6.4h-5.5V297.3z M161.5,283.8h5.5v6.4h-5.5V283.8z
	 M171.5,283.8h5.5v6.4h-5.8L171.5,283.8z M181.6,283.8h5.5v6.4h-5.5V283.8z M161.5,270.3h5.5v6.4h-5.5V270.3z M171.5,270.3h5.5v6.4
	h-5.8L171.5,270.3z M181.6,270.3h5.5v6.4h-5.5V270.3z M161.5,256.7h5.5v6.4h-5.5V256.7z M171.5,256.7h5.5v6.4h-5.8L171.5,256.7z
	 M181.6,256.7h5.5v6.4h-5.5V256.7z M161.3,243.1h5.5v6.4h-5.5V243.1z M171.3,243.1h5.5v6.4h-5.5V243.1z M181.3,243.1h5.5v6.4h-5.5
	V243.1z M161.3,229.6h5.5v6.4h-5.5V229.6z M171.3,229.6h5.5v6.4h-5.5V229.6z M181.3,229.6h5.5v6.4h-5.5V229.6z M161.3,216.1h5.5v6.4
	h-5.5V216.1z M171.3,216.1h5.5v6.4h-5.5V216.1z M181.3,216.1h5.5v6.4h-5.5V216.1z M82.4,202.6h5.5v6.4h-5.5V202.6z M92.5,202.6H98
	v6.4h-5.5L92.5,202.6z M102.5,202.6h5.5v6.4h-5.5V202.6z M120.9,202.6h5.5v6.4h-5.5V202.6z M131,202.6h5.5v6.4H131V202.6z
	 M141,202.6h5.5v6.4H141V202.6z M151,202.6h5.5v6.4H151V202.6z M161.1,202.6h5.5v6.4h-5.5V202.6z M171.1,202.6h5.5v6.4h-5.5V202.6z
	 M181.1,202.6h5.5v6.4h-5.6L181.1,202.6z M82.4,189.1h5.5v6.4h-5.5V189.1z M92.5,189.1H98v6.4h-5.5L92.5,189.1z M102.5,189.1h5.5
	v6.4h-5.5V189.1z M120.9,189.1h5.5v6.4h-5.5V189.1z M130.9,189.1h5.5v6.4h-5.5V189.1z M141,189.1h5.5v6.4H141V189.1z M151,189.1h5.5
	v6.4H151V189.1z M161.1,189.1h5.5v6.4h-5.5L161.1,189.1z M171.1,189.1h5.5v6.4h-5.5V189.1z M181.1,189.1h5.5v6.4h-5.5L181.1,189.1z
	 M82.4,175.5h5.5v6.4h-5.5V175.5z M92.5,175.5H98v6.4h-5.5L92.5,175.5z M102.5,175.5h5.5v6.4h-5.5V175.5z M120.9,175.5h5.5v6.4h-5.5
	V175.5z M131,175.5h5.5v6.4H131V175.5z M141,175.5h5.5v6.4H141V175.5z M151,175.5h5.5v6.4H151V175.5z M161.1,175.5h5.5v6.4h-5.5
	V175.5z M171.1,175.5h5.5v6.4h-5.5V175.5z M181.1,175.5h5.5v6.4h-5.6L181.1,175.5z M82.4,162h5.5v6.4h-5.5V162z M92.5,162H98v6.4
	h-5.5L92.5,162z M102.5,162h5.5v6.4h-5.5V162z M120.9,162h5.5v6.4h-5.5V162z M130.9,162h5.5v6.4h-5.5V162z M141,162h5.5v6.4H141V162
	z M151,162h5.5v6.4H151V162z M161.1,162h5.5v6.4h-5.5L161.1,162z M171.1,162h5.5v6.4h-5.5V162z M181.1,162h5.5v6.4h-5.5L181.1,162z
	 M82.4,148.5h5.5v6.4h-5.5V148.5z M92.5,148.5H98v6.4h-5.5L92.5,148.5z M102.5,148.5h5.5v6.4h-5.5V148.5z M120.9,148.5h5.5v6.4h-5.5
	V148.5z M130.9,148.5h5.5v6.4h-5.5V148.5z M141,148.5h5.5v6.4H141V148.5z M151,148.5h5.5v6.4H151V148.5z M161.1,148.5h5.5v6.4h-5.5
	L161.1,148.5z M171.1,148.5h5.5v6.4h-5.5V148.5z M181.1,148.5h5.5v6.4h-5.5L181.1,148.5z M82.4,134.9h5.5v6.4h-5.5V134.9z
	 M92.5,134.9H98v6.4h-5.5L92.5,134.9z M102.5,134.9h5.5v6.4h-5.5V134.9z M120.9,134.9h5.5v6.4h-5.5V134.9z M130.9,134.9h5.5v6.4
	h-5.5V134.9z M141,134.9h5.5v6.4H141V134.9z M151,134.9h5.5v6.4H151V134.9z M161.1,134.9h5.5v6.4h-5.5L161.1,134.9z M171.1,134.9
	h5.5v6.4h-5.5V134.9z M181.1,134.9h5.5v6.4h-5.5L181.1,134.9z M82.4,121.4h5.5v6.4h-5.5V121.4z M92.5,121.4H98v6.4h-5.5L92.5,121.4z
	 M102.5,121.4h5.5v6.4h-5.5V121.4z M120.9,121.4h5.5v6.4h-5.5V121.4z M131,121.4h5.5v6.4H131V121.4z M141,121.4h5.5v6.4H141V121.4z
	 M151,121.4h5.5v6.4H151V121.4z M161.1,121.4h5.5v6.4h-5.5V121.4z M171.1,121.4h5.5v6.4h-5.5V121.4z M181.1,121.4h5.5v6.4h-5.6
	L181.1,121.4z"/>
<path class="st5" d="M376.5,79.3h-86.1V69c0-2.1,0.9-4.1,2.3-5.6c1.5-1.5,3.5-2.3,5.6-2.3h70.4c1,0,2.1,0.2,3,0.6
	c1,0.4,1.8,1,2.6,1.7c0.7,0.7,1.3,1.6,1.7,2.6c0.4,1,0.6,2,0.6,3v10.3H376.5z"/>
<path class="st2" d="M607.2,243.5c3.8-0.7,6.4,3.3,7.1,6.8c0.4,1.9,0.4,4,1.9,5.3c0.6,0.5,1.3,0.9,2.1,1.2c4.2,2.2,4.5,6.2,4.6,10.2
	c-0.1,0.7,0.1,1.4,0.3,2c0.4,0.7,1.1,1,1.6,1.7c0.3,0.4,0.5,0.9,0.5,1.4c1,4.6,0.5,8.9,0.5,13.4c-0.3,32.7-18.1,31.2-18.1,31.2H607
	c-4.3-0.2-8.2-2.8-10.7-6.2c-2.6-3.4-4.1-7.7-5-11.9c-0.6-3.1-1-6.2-1.1-9.4c-0.2-3.4-0.9-6.6,0.4-9.9c0.6-1.5,1.5-3,1.5-4.6
	c0-1.8-1.1-3.5-1.2-5.2c0-1.1,0.3-2.1,0.7-3.1c0.9-2.5,2-4.9,3.3-7.3c1-1.7,3.3-2.8,3.9-4.8c0.1-0.8,0.2-1.7,0.1-2.5
	c0.1-4.2,3.7-7.1,7.5-8.2C606.8,243.5,607,243.5,607.2,243.5L607.2,243.5z"/>
<path class="st3" d="M610.4,350.2h-4.2l1.4-52.5l0.6-1.3L610.4,350.2z"/>
<path class="st2" d="M36.1,224.1c3.8-0.7,6.4,3.3,7.1,6.8c0.4,1.9,0.4,4,1.9,5.3c0.6,0.5,1.3,0.9,2.1,1.2c4.2,2.2,4.5,6.2,4.6,10.2
	c-0.1,0.7,0.1,1.4,0.3,2c0.4,0.7,1.1,1,1.6,1.7c0.3,0.4,0.5,0.9,0.5,1.4c1,4.6,0.5,8.9,0.5,13.4c-0.3,32.7-18.1,31.2-18.1,31.2H36
	c-4.3-0.2-8.2-2.8-10.7-6.2c-2.6-3.4-4.1-7.7-5-11.9c-0.6-3.1-1-6.2-1.1-9.4c-0.2-3.4-0.9-6.6,0.4-9.9c0.6-1.5,1.5-3,1.5-4.6
	c0-1.8-1.1-3.5-1.2-5.2c0-1.1,0.3-2.1,0.7-3.1c0.9-2.5,2-4.9,3.3-7.3c1-1.7,3.3-2.8,3.9-4.8c0.1-0.8,0.2-1.7,0.1-2.5
	c0.1-4.2,3.7-7.1,7.5-8.2C35.7,224.2,35.9,224.2,36.1,224.1L36.1,224.1z"/>
<path class="st3" d="M39.4,330.9h-4.2l1.4-52.5l0.6-1.3L39.4,330.9z"/>
<path class="st6" d="M501.1,268.7c0.1,0.3,0.7,0.4,1.8,0.4c0.5,0,1.2,0,2-0.1c0.7,0,1.7-0.1,2.6-0.3c1-0.1,2-0.3,3.2-0.4
	c1.2-0.2,2.3-0.4,3.6-0.7c1.4-0.3,2.7-0.7,4-1.1c1.4-0.5,2.9-1,4.2-1.7c1.4-0.6,2.8-1.4,4.1-2.2c1.2-0.8,2.4-1.7,3.5-2.7
	c0.5-0.5,1-0.9,1.4-1.4c0.2-0.3,0.5-0.5,0.7-0.8l0.6-0.8c0.2-0.3,0.4-0.5,0.5-0.8c0.2-0.3,0.3-0.5,0.5-0.8c0.3-0.5,0.6-1,0.8-1.5
	c0.4-0.8,0.8-1.7,1-2.7c0.1-0.4,0.2-0.8,0.2-1.2c0-0.3,0.1-0.7,0-1c0-0.2,0-0.3,0-0.5c0-0.1-0.1-0.3-0.1-0.4
	c-0.1-0.2-0.2-0.5-0.3-0.7c-0.1-0.2-0.2-0.3-0.3-0.4c-0.1-0.1-0.3-0.2-0.5-0.3c-0.4-0.1-0.7-0.1-1.1,0.1c-0.2,0.1-0.4,0.2-0.6,0.3
	c-0.1,0.1-0.2,0.1-0.3,0.2c-0.1,0.1-0.2,0.2-0.3,0.3c-0.2,0.2-0.4,0.4-0.7,0.6c-0.3,0.2-0.5,0.4-0.7,0.7c-0.5,0.5-1,1-1.7,1.6
	c-0.3,0.3-0.6,0.6-0.9,0.9c-0.2,0.1-0.3,0.3-0.5,0.5c-0.2,0.2-0.3,0.3-0.5,0.5c-0.2,0.2-0.4,0.3-0.5,0.5c-0.2,0.2-0.4,0.3-0.6,0.5
	c-0.4,0.4-0.8,0.7-1.2,1c-0.9,0.7-1.8,1.4-2.7,2.2c-1,0.7-2.1,1.4-3.2,2.2c-1.1,0.7-2.3,1.4-3.4,2c-1.1,0.7-2.3,1.2-3.4,1.8
	s-2.1,1-3.1,1.6c-1,0.5-2,0.9-2.8,1.3c-0.8,0.4-1.7,0.8-2.3,1.1c-0.7,0.4-1.3,0.7-1.7,0.9C501.5,268,501,268.4,501.1,268.7
	L501.1,268.7z"/>
<path class="st7" d="M570.5,335.3c0,0-0.8,4.6-4.9,3.8l-3.5,16.3l0.8,0.7l14.5-17.6l-0.7-0.8L570.5,335.3z"/>
<path class="st7" d="M564.1,356.2l13.8-16.7c0.1-0.1,0.1-0.1,0.1-0.2c0-0.1,0-0.2,0-0.2c0-0.1,0-0.2-0.1-0.2c0-0.1-0.1-0.1-0.1-0.2
	l-1.1-0.9l-14.6,17.6l1.1,0.9c0.1,0.1,0.1,0.1,0.2,0.1c0.1,0,0.2,0,0.2,0c0.1,0,0.2,0,0.2-0.1C563.9,356.3,564,356.3,564.1,356.2z"
	/>
<path class="st3" d="M566.7,347c-0.1,0-0.1,0.1-0.2,0c-0.9-0.1-1.8,0-2.7,0.3c0,0-0.1,0-0.2,0c-0.1,0-0.1,0-0.2,0
	c0,0-0.1-0.1-0.1-0.1c0,0-0.1-0.1-0.1-0.1c0-0.1,0-0.2,0-0.3c0.1-0.1,0.1-0.2,0.2-0.2c1-0.2,2-0.3,2.9-0.3c0.1,0,0.1,0,0.2,0
	c0,0,0.1,0.1,0.1,0.1c0,0,0.1,0.1,0.1,0.1c0,0,0,0.1,0,0.1c0,0.1,0,0.1,0,0.2C566.8,347,566.7,347,566.7,347z M567.2,345
	c-0.1,0-0.1,0.1-0.2,0c-0.9-0.1-1.8,0-2.7,0.3c-0.1,0-0.1,0-0.2,0c-0.1,0-0.1,0-0.2,0c0,0-0.1-0.1-0.1-0.1c0,0-0.1-0.1-0.1-0.1
	c0-0.1,0-0.2,0.1-0.3c0.1-0.1,0.1-0.2,0.2-0.2c1-0.2,2-0.3,2.9-0.3c0.1,0,0.1,0,0.2,0c0,0,0.1,0.1,0.1,0.1c0,0,0.1,0.1,0.1,0.1
	c0,0,0,0.1,0,0.1c0,0.1,0,0.1-0.1,0.2C567.3,344.9,567.2,344.9,567.2,345L567.2,345z M567.7,342.9c-0.1,0-0.1,0.1-0.2,0
	c-0.9-0.1-1.8,0-2.7,0.3c-0.1,0-0.1,0-0.2,0c-0.1,0-0.1,0-0.2,0c0,0-0.1-0.1-0.1-0.1c0,0-0.1-0.1-0.1-0.1c0-0.1,0-0.2,0-0.3
	c0-0.1,0.1-0.2,0.2-0.2c1-0.2,2-0.3,2.9-0.3c0.1,0,0.1,0,0.2,0c0,0,0.1,0.1,0.1,0.1c0,0,0.1,0.1,0.1,0.1c0,0,0,0.1,0,0.1
	C567.9,342.8,567.8,342.9,567.7,342.9z"/>
<path class="st7" d="M523.8,348.4c0,0-4,2.4-6.1-1.2l-14.6,8.1v0.8l23-0.2v-1.1L523.8,348.4z"/>
<path class="st7" d="M503.9,357.3l21.4-0.5c0.1,0,0.2,0,0.3-0.1c0.1,0,0.2-0.1,0.2-0.2c0.1-0.1,0.1-0.2,0.2-0.3c0-0.1,0-0.2,0-0.3
	l0-1.3l-22.9,0.6l0,1.3c0,0.2,0.1,0.4,0.2,0.5C503.5,357.2,503.7,357.3,503.9,357.3z"/>
<path class="st3" d="M529.8,254.7c-0.7,6.5-0.9,13-0.8,19.5c6.1,2.3,12.7,3.1,19.3,2.3c0.7-6.6,1.3-13.2,1.6-19.8
	c0.1-3.5,0.2-7-0.7-10.4c-0.7-3.1-2.3-5.8-4.7-7.8c-0.3-0.2-0.6-0.4-0.9-0.6c-1.5,1.2-4.6,1.5-6.3,0.6c-0.9,0.6-1.8,1.3-2.5,2.1
	c-1.4,1.5-2.4,3.2-3.1,5.1C530.8,248.6,530.1,251.6,529.8,254.7z M512.3,353c-0.1,0-0.1-0.1-0.1-0.1c-0.5-0.7-1.1-1.3-1.8-1.7
	c0,0-0.1-0.1-0.1-0.1c0,0,0-0.1-0.1-0.1c0,0,0-0.1,0-0.1c0,0,0-0.1,0-0.1c0.1-0.1,0.2-0.1,0.3-0.2c0.1,0,0.2,0,0.3,0
	c0.8,0.5,1.5,1.2,2,1.9c0,0,0.1,0.1,0.1,0.1c0,0,0,0.1,0,0.1c0,0,0,0.1-0.1,0.1c0,0-0.1,0.1-0.1,0.1c-0.1,0-0.1,0.1-0.2,0.1
	C512.4,353,512.3,353,512.3,353z M514.2,352c-0.1,0-0.1-0.1-0.1-0.1c-0.5-0.7-1.1-1.3-1.8-1.7c0,0-0.1-0.1-0.1-0.1
	c0,0,0-0.1-0.1-0.1c0,0,0-0.1,0-0.1c0,0,0-0.1,0.1-0.1c0.1-0.1,0.1-0.1,0.2-0.2c0.1,0,0.2,0,0.3,0.1c0.8,0.5,1.5,1.2,2,1.9
	c0,0,0.1,0.1,0.1,0.1c0,0,0,0.1,0,0.1c0,0,0,0.1-0.1,0.1c0,0-0.1,0.1-0.1,0.1c-0.1,0-0.1,0.1-0.2,0.1S514.2,352.1,514.2,352
	L514.2,352z M516,351c-0.1,0-0.1-0.1-0.1-0.1c-0.5-0.7-1.1-1.2-1.8-1.7c0,0-0.1-0.1-0.1-0.1s0-0.1-0.1-0.1c0,0,0-0.1,0-0.1
	c0,0,0-0.1,0.1-0.1c0.1-0.1,0.1-0.1,0.2-0.2c0.1,0,0.2,0,0.3,0c0.8,0.5,1.5,1.2,2,1.9c0,0,0.1,0.1,0.1,0.1c0,0,0,0.1,0,0.1
	c0,0,0,0.1-0.1,0.1c0,0-0.1,0.1-0.1,0.1C516.3,351.1,516.1,351.1,516,351L516,351z"/>
<path class="st8" d="M535,240.4c1.6,0.5,3.4,0.6,5.1,0.2c0.9-0.2,1.8-0.5,2.6-0.9c0.6-0.3,1.3-0.7,1.8-1.2c0-0.1,0.1-0.3,0.1-0.4
	c0,0,0-0.1,0-0.1c0-0.2-0.1-0.4-0.1-0.5c-0.3-1.9-0.5-3.7-0.7-5.7c-0.2-1.7-0.4-3.5-0.5-5.2c-2,0.9-3.9,2-5.7,3.2
	c-0.1,1.2-0.2,2.3-0.3,3.5c-0.1,1-0.3,2-0.5,2.9l-0.3,1.6c-0.1,0.5-0.2,1-0.4,1.5C535.8,239.6,535.4,240,535,240.4L535,240.4z"/>
<path class="st9" d="M536.8,236.2c2.1-0.5,4.4-1,7-4.4c-0.2-1.7-0.4-3.5-0.5-5.2c-2,0.9-3.9,2-5.7,3.2c-0.1,1.2-0.2,2.3-0.3,3.5
	C537.1,234.2,537,235.2,536.8,236.2z"/>
<path class="st10" d="M537.3,215.7c0.2-0.6,0.6-1.2,1-1.7c0.5-0.5,1-0.9,1.6-1.1c1.3-0.5,2.6-0.5,3.9-0.1c1.3,0.4,2.5,1.1,3.4,2.2
	c0.9,1,1.4,2.4,1.4,3.7c0,2.2-1.3,4.1-2.5,5.9C543.9,221,540.9,217.9,537.3,215.7z"/>
<path class="st11" d="M536,213.1c-0.6-0.4-1.3-0.7-2-0.7c-0.5,0.1-0.9,0.4-1.2,0.8c-0.3,0.4-0.4,0.9-0.4,1.4c0.1,1,0.6,1.9,1.3,2.6
	c1.1,1.2,2.5,2,4,2.3c1.5,0.4,3.2,0.2,4.6-0.3c0.4-0.1,1.4-0.4,1.6-0.8c0.3-0.6-0.3-0.8-0.8-1C540.7,216,538.3,214.6,536,213.1z"/>
<path class="st12" d="M535.3,221c-0.3,0.7-0.4,1.5-0.3,2.3c0.1,0.8,0.4,1.5,0.9,2.2c0.8-1,1.3-2.3,1.5-3.5c0.1-0.2,0.1-0.3,0.1-0.5
	c0-0.2-0.1-0.3-0.2-0.5c-0.1-0.1-0.3-0.2-0.4-0.2c-0.2,0-0.3-0.1-0.5,0C536,220.8,535.6,221.1,535.3,221z M543,230.7
	c1.9-1.5,3-3.7,3.3-6.1c0.2-1.4,0-2.9-0.5-4.2l-0.4-0.8c-0.3-0.5-0.7-1-1.1-1.4c-0.9,1.3-1.6,2.7-2,4.2
	C541.7,225.2,541.9,228.1,543,230.7L543,230.7z"/>
<path class="st8" d="M536.4,220.4c0.3,1.8-0.6,3.4-1.3,5c-0.8,1.6-1.4,3.4-0.8,5c0.4,0.8,1,1.5,1.7,2c0.8,0.5,1.7,0.7,2.6,0.6
	c0.9-0.1,1.8-0.5,2.5-1c0.7-0.5,1.4-1.2,1.8-2c0.9-1.6,1.2-3.4,1.1-5.2c-0.1-1.8-0.4-3.6-0.9-5.3
	C540.9,218.2,538.3,218.9,536.4,220.4z"/>
<path class="st8" d="M543.5,225.3c0.2-0.2,0.5-0.4,0.8-0.6c0.1-0.1,0.3-0.1,0.5-0.1c0.2,0,0.3,0,0.5,0.1c0.2,0.1,0.4,0.2,0.5,0.4
	c0.1,0.2,0.2,0.4,0.3,0.6c0.1,0.4,0.1,0.8-0.1,1.2c-0.1,0.4-0.4,0.7-0.7,0.9c-0.3,0.2-0.7,0.4-1.1,0.4c-0.4,0-0.8-0.1-1.1-0.3
	C543.3,227,543.4,226.1,543.5,225.3L543.5,225.3z"/>
<path class="st12" d="M535.1,221.8c2.6,0.2,5.1-0.3,7.4-1.6c-0.2,0.8-0.2,1.6-0.1,2.4c0.3,1.1,0.9,2.1,1.8,2.8
	c1.1-1.4,1.6-3.2,1.4-5c-0.1-0.2-0.1-0.4-0.1-0.6c-0.3-0.5-0.7-1-1.2-1.4c-0.7-0.7-1.5-1.2-2.3-1.6c-1.1-0.5-2.4-0.7-3.6-0.6
	s-2.4,0.4-3.5,1c-0.2,0.1-0.4,0.3-0.5,0.5c-0.4,0.4-0.8,0.9-1,1.4c-0.1,0.3-0.2,0.6-0.1,0.9c0,0.3,0.1,0.6,0.3,0.9
	c0.2,0.3,0.4,0.5,0.7,0.7C534.4,221.7,534.7,221.8,535.1,221.8L535.1,221.8z"/>
<path class="st11" d="M548.7,282.1c0,0-6.4,30.3,23.8,53.3l-8.7,8.8c0,0-33.8-25.1-29-55.6L548.7,282.1z"/>
<path class="st13" d="M549.2,299.6c-2.3,6.4-5.4,12.6-7.9,18.9c-4.9-8.7-8.2-19-6.5-29.9l14-6.5
	C548.7,282.1,547.2,289.4,549.2,299.6z"/>
<path class="st10" d="M530,249.2c-1.7,10.8-2.3,21.7-1.7,32.6c0,0-18.3,32.7-15.9,66.4l12.9,3.7c0,0,4.7-43.9,23.2-65.6l1.6-22
	l-13.9-2.8l-0.8-11.9L530,249.2z"/>
<path class="st11" d="M549,266.5c0.1,0,0.3-0.1,0.4-0.4c0.1-0.2,0.2-0.4,0.3-0.5c0.1-0.2,0.2-0.5,0.3-0.8c0.1-0.1,0.1-0.3,0.1-0.5
	c0.1-0.2,0.1-0.3,0.1-0.5c0.1-0.2,0.1-0.4,0.1-0.6c0-0.2,0.1-0.4,0.1-0.6c0.1-0.2,0.1-0.4,0.1-0.7c0.1-0.2,0.1-0.5,0.1-0.7
	c0.1-0.5,0.1-1,0.2-1.6c0.1-1.2,0.2-2.4,0.2-3.6c0-1.4-0.1-2.8-0.3-4.1c-0.2-1.5-0.4-3-0.8-4.5c-0.4-1.7-1-3.3-1.8-4.8
	c-0.5-0.8-1-1.5-1.7-2.1c-0.7-0.6-1.5-1.1-2.3-1.5c-0.4-0.2-0.9-0.3-1.3-0.4c-0.1,0-0.2-0.1-0.3-0.1c-0.1,0-0.2,0-0.3,0h-0.7
	c-0.8,0-1.7,0.2-2.5,0.6c-0.7,0.3-1.4,0.7-2,1.2c-0.1,0.1-0.3,0.3-0.4,0.3c-0.1,0.1-0.3,0.2-0.4,0.3c-0.1,0.1-0.3,0.3-0.4,0.4
	c-0.1,0.1-0.2,0.3-0.3,0.4c-0.4,0.5-0.8,1.1-1,1.7c-0.3,0.5-0.5,1.1-0.7,1.7c-0.3,0.9-0.5,1.9-0.7,2.9c-0.1,0.9-0.1,1.6-0.2,2.2
	c-0.1,1.2,0,1.9,0.2,1.9c0.1,0,0.3-0.7,0.5-1.8c0.1-0.6,0.3-1.3,0.5-2.1c0.2-0.9,0.5-1.8,0.9-2.6c0.4-1,1-1.9,1.7-2.7
	c0.1-0.1,0.2-0.2,0.3-0.3c0.1-0.1,0.2-0.2,0.3-0.3c0.1-0.1,0.2-0.2,0.3-0.3c0.1-0.1,0.2-0.2,0.4-0.3c0.5-0.4,1-0.6,1.6-0.8
	c0.6-0.2,1.2-0.3,1.8-0.3h0.2c0.1,0,0.1,0,0.2,0l0.2,0l0.2,0c0.3,0.1,0.6,0.1,0.9,0.3c1.2,0.6,2.2,1.6,2.8,2.8
	c0.7,1.3,1.2,2.7,1.5,4.1c0.3,1.4,0.6,2.9,0.8,4.2c0.2,1.3,0.3,2.6,0.4,3.9c0.1,1.2,0.1,2.4,0.1,3.4c0,0.5,0,1,0,1.5v0.7
	c0,0.2,0,0.4,0,0.7c0,0.2,0,0.4,0,0.6c0,0.2,0,0.4,0,0.6v0.5c0,0.2,0,0.3,0,0.5v0.8c0,0.2,0,0.4,0,0.6
	C548.8,266.3,548.9,266.4,549,266.5L549,266.5z"/>
<path class="st7" d="M490.1,346.9l13.6-70.9l12.6-5.9c0.3-0.2,0.6-0.5,0.7-0.8c0.1-0.3,0.1-0.7-0.1-1c-0.2-0.3-0.4-0.6-0.8-0.7
	s-0.7-0.1-1,0l-14,6.5l-0.1,0.7l-13.2,68.7l-59.8-15.1c-0.4-0.1-0.8,0-1.1,0.2s-0.6,0.5-0.7,0.9c-0.1,0.4,0,0.8,0.2,1.1
	c0.2,0.3,0.5,0.6,0.9,0.7L490.1,346.9z"/>
<path class="st7" d="M505.6,266.9c-0.1-0.2-0.2-0.3-0.3-0.4c-0.1-0.1-0.3-0.2-0.5-0.3c-0.2-0.1-0.4-0.1-0.6-0.1
	c-0.2,0-0.4,0.1-0.5,0.1l-14.2,6.5l-0.2,0.7L476.1,341c0.9,0.4,1.8,0.9,2.7,1.4l13.2-67.6l12.8-5.9c0.2-0.1,0.3-0.2,0.5-0.3
	c0.1-0.1,0.2-0.3,0.3-0.5c0.1-0.2,0.1-0.4,0.1-0.5C505.7,267.3,505.7,267.1,505.6,266.9z"/>
<path class="st7" d="M492,321.7l2.9-1.1l8.9,24.2l-2.9,1L492,321.7z"/>
<path class="st7" d="M468.9,310.4l0.7-3l25.1,6l-0.7,3L468.9,310.4z"/>
<path class="st7" d="M505,348.4c0,0.3,0,0.5,0,0.8c0,0.3-0.1,0.5-0.1,0.8c0,0.3-0.1,0.5-0.2,0.8c-0.1,0.3-0.2,0.5-0.3,0.8
	c-0.1,0.3-0.2,0.5-0.3,0.7c-0.1,0.2-0.3,0.5-0.4,0.7c-0.1,0.2-0.3,0.4-0.5,0.6c-0.2,0.2-0.3,0.4-0.5,0.6c-0.2,0.2-0.4,0.4-0.6,0.5
	c-0.2,0.2-0.4,0.3-0.6,0.5c-0.2,0.1-0.4,0.3-0.7,0.4c-0.2,0.1-0.5,0.2-0.7,0.3c-0.3,0.1-0.5,0.2-0.8,0.3c-0.3,0.1-0.5,0.1-0.8,0.2
	c-0.3,0-0.5,0.1-0.8,0.1c-0.3,0-0.5,0-0.8,0c-0.3,0-0.5,0-0.8,0s-0.5-0.1-0.8-0.1c-0.3,0-0.5-0.1-0.8-0.2c-0.3-0.1-0.5-0.2-0.8-0.3
	c-0.3-0.1-0.5-0.2-0.7-0.3c-0.2-0.1-0.4-0.3-0.7-0.4c-0.2-0.1-0.4-0.3-0.6-0.5c-0.2-0.2-0.4-0.3-0.6-0.5c-0.2-0.2-0.4-0.4-0.5-0.6
	c-0.2-0.2-0.3-0.4-0.5-0.6c-0.1-0.2-0.3-0.4-0.4-0.7c-0.1-0.2-0.2-0.5-0.3-0.7c-0.1-0.3-0.2-0.5-0.3-0.8c-0.1-0.3-0.1-0.5-0.2-0.8
	c0-0.3-0.1-0.5-0.1-0.8c0-0.3,0-0.5,0-0.8c0-0.3,0-0.5,0-0.8c0-0.3,0.1-0.5,0.1-0.8c0-0.3,0.1-0.5,0.2-0.8c0.1-0.3,0.2-0.5,0.3-0.8
	c0.1-0.3,0.2-0.5,0.3-0.7c0.1-0.2,0.3-0.4,0.4-0.7c0.1-0.2,0.3-0.4,0.5-0.6c0.2-0.2,0.4-0.4,0.5-0.6c0.2-0.2,0.4-0.4,0.6-0.5
	c0.2-0.2,0.4-0.3,0.6-0.5c0.2-0.1,0.4-0.3,0.7-0.4c0.2-0.1,0.5-0.2,0.7-0.3c0.3-0.1,0.5-0.2,0.8-0.3c0.3-0.1,0.5-0.1,0.8-0.2
	c0.3,0,0.5-0.1,0.8-0.1c0.3,0,0.5,0,0.8,0c0.3,0,0.5,0,0.8,0c0.3,0,0.5,0.1,0.8,0.1c0.3,0,0.5,0.1,0.8,0.2c0.3,0.1,0.5,0.2,0.8,0.3
	c0.3,0.1,0.5,0.2,0.7,0.3s0.4,0.3,0.7,0.4c0.2,0.1,0.4,0.3,0.6,0.5c0.2,0.2,0.4,0.3,0.6,0.5c0.2,0.2,0.3,0.4,0.5,0.6
	c0.2,0.2,0.3,0.4,0.5,0.6c0.1,0.2,0.3,0.5,0.4,0.7c0.1,0.2,0.2,0.5,0.3,0.7c0.1,0.3,0.2,0.5,0.3,0.8c0.1,0.3,0.1,0.5,0.2,0.8
	c0,0.3,0.1,0.5,0.1,0.8C505,347.9,505,348.2,505,348.4z"/>
<path class="st10" d="M502.1,348.4c0,0.2,0,0.3,0,0.5l-0.1,0.5c0,0.2-0.1,0.3-0.1,0.5c0,0.2-0.1,0.3-0.2,0.5
	c-0.1,0.2-0.1,0.3-0.2,0.4c-0.1,0.1-0.2,0.3-0.3,0.4c-0.1,0.1-0.2,0.3-0.3,0.4c-0.1,0.1-0.2,0.3-0.3,0.4c-0.1,0.1-0.2,0.2-0.4,0.3
	c-0.1,0.1-0.3,0.2-0.4,0.3c-0.1,0.1-0.3,0.2-0.4,0.3l-0.5,0.2c-0.3,0.1-0.6,0.2-1,0.3l-0.5,0.1c-0.2,0-0.3,0-0.5,0
	c-0.2,0-0.3,0-0.5,0l-0.5-0.1c-0.2,0-0.3-0.1-0.5-0.1c-0.2,0-0.3-0.1-0.5-0.2l-0.4-0.2c-0.1-0.1-0.3-0.2-0.4-0.3
	c-0.1-0.1-0.3-0.2-0.4-0.3c-0.1-0.1-0.3-0.2-0.4-0.3c-0.1-0.1-0.2-0.2-0.3-0.4c-0.1-0.1-0.2-0.3-0.3-0.4c-0.1-0.1-0.2-0.3-0.3-0.4
	l-0.2-0.4c-0.1-0.2-0.1-0.3-0.2-0.5c-0.1-0.2-0.1-0.3-0.1-0.5l-0.1-0.5c0-0.2,0-0.3,0-0.5c0-0.2,0-0.3,0-0.5l0.1-0.5
	c0-0.2,0.1-0.3,0.1-0.5c0-0.2,0.1-0.3,0.2-0.5c0.1-0.2,0.1-0.3,0.2-0.4c0.1-0.1,0.2-0.3,0.3-0.4c0.1-0.1,0.2-0.3,0.3-0.4
	c0.1-0.1,0.2-0.3,0.3-0.4c0.1-0.1,0.2-0.2,0.4-0.3c0.1-0.1,0.3-0.2,0.4-0.3c0.1-0.1,0.3-0.2,0.4-0.3l0.4-0.2
	c0.2-0.1,0.3-0.1,0.5-0.2c0.2,0,0.3-0.1,0.5-0.1l0.5-0.1c0.2,0,0.3,0,0.5,0c0.2,0,0.3,0,0.5,0l0.5,0.1c0.3,0.1,0.7,0.2,1,0.3
	l0.5,0.2c0.1,0.1,0.3,0.2,0.4,0.3c0.1,0.1,0.3,0.2,0.4,0.3c0.1,0.1,0.3,0.2,0.4,0.3c0.1,0.1,0.2,0.2,0.3,0.4
	c0.1,0.1,0.2,0.3,0.3,0.4c0.1,0.1,0.2,0.3,0.3,0.4l0.2,0.4c0.1,0.2,0.1,0.3,0.2,0.5c0.1,0.2,0.1,0.3,0.1,0.5l0.1,0.5
	C502.1,348.1,502.1,348.3,502.1,348.4z"/>
<path class="st14" d="M499.4,348.4c0,0.2,0,0.3,0,0.5c0,0.2-0.1,0.3-0.1,0.5c-0.1,0.1-0.1,0.3-0.2,0.4c-0.2,0.3-0.4,0.5-0.7,0.7
	c-0.1,0.1-0.3,0.2-0.4,0.2c-0.1,0.1-0.3,0.1-0.5,0.1c-0.2,0-0.3,0-0.5,0c-0.2,0-0.3,0-0.5,0c-0.2,0-0.3-0.1-0.5-0.1
	c-0.1-0.1-0.3-0.1-0.4-0.2c-0.1-0.1-0.3-0.2-0.4-0.3c-0.1-0.1-0.2-0.2-0.3-0.4c-0.1-0.1-0.2-0.3-0.2-0.4c-0.1-0.1-0.1-0.3-0.1-0.5
	c0-0.2,0-0.3,0-0.5c0-0.2,0-0.3,0-0.5c0-0.2,0.1-0.3,0.1-0.5c0.1-0.1,0.1-0.3,0.2-0.4c0.1-0.1,0.2-0.3,0.3-0.4
	c0.1-0.1,0.2-0.2,0.4-0.3c0.1-0.1,0.3-0.2,0.4-0.2c0.1-0.1,0.3-0.1,0.5-0.1c0.2,0,0.3,0,0.5,0c0.2,0,0.3,0,0.5,0
	c0.2,0,0.3,0.1,0.5,0.1c0.1,0.1,0.3,0.1,0.4,0.2c0.1,0.1,0.3,0.2,0.4,0.3c0.1,0.1,0.2,0.2,0.3,0.4c0.1,0.1,0.2,0.3,0.2,0.4
	C499.4,347.8,499.4,348.1,499.4,348.4z"/>
<path class="st8" d="M508.8,269.6c0.2,0.2,0.3,0.3,0.5,0.5c0.1,0.1,0.2,0.2,0.3,0.3c0.1,0.1,0.3,0.2,0.4,0.3c0.3,0.2,0.6,0.4,1,0.6
	c0.4,0.2,0.8,0.4,1.2,0.6c0.4,0.2,0.9,0.4,1.4,0.6c0.5,0.2,1.1,0.4,1.7,0.6c0.2,0.1,0.3,0.1,0.5,0.1c0.1,0,0.3,0.1,0.5,0.1l1,0.2
	c0.3,0.1,0.7,0.1,1,0.2c0.4,0.1,0.7,0.1,1.1,0.1c0.4,0,0.8,0.1,1.2,0.1c0.2,0,0.4,0.1,0.6,0.1h0.6c0.4,0,0.8,0,1.2,0
	c0.4-0.1,0.8-0.1,1.3-0.1c0.4,0,0.9-0.1,1.3-0.1c0.4-0.1,0.9-0.1,1.3-0.2c0.4-0.1,0.9-0.2,1.4-0.3c0.5-0.1,0.9-0.3,1.4-0.4
	c2-0.6,3.8-1.4,5.6-2.4c1.8-1.1,3.4-2.3,4.9-3.8c0.4-0.4,0.7-0.7,1-1.1c0.3-0.4,0.6-0.7,0.9-1.1c0.3-0.4,0.6-0.7,0.8-1.2
	c0.3-0.4,0.5-0.8,0.8-1.2c0.2-0.4,0.5-0.8,0.7-1.2s0.4-0.8,0.6-1.2c0.1-0.2,0.2-0.4,0.3-0.6l0.2-0.6c0.1-0.3,0.3-0.7,0.4-1
	c-3.4-0.8-6.4-2.7-8.5-5.5c-0.1,0.1-0.1,0.2-0.1,0.3c-0.1,0.2-0.2,0.5-0.4,0.7c-0.1,0.2-0.2,0.5-0.4,0.7l-0.4,0.7
	c-0.1,0.1-0.1,0.3-0.2,0.4c-0.1,0.1-0.1,0.3-0.2,0.4c-0.1,0.3-0.3,0.5-0.4,0.8s-0.3,0.5-0.5,0.8s-0.3,0.5-0.5,0.8
	c-0.1,0.3-0.3,0.5-0.5,0.8c-0.2,0.2-0.4,0.5-0.5,0.8c-0.2,0.3-0.4,0.5-0.6,0.8c-0.8,1.1-1.7,2.1-2.7,3c-1,0.9-2.2,1.8-3.4,2.5
	c-0.3,0.2-0.6,0.4-0.9,0.5c-0.3,0.2-0.6,0.3-0.9,0.5c-0.3,0.2-0.6,0.3-0.9,0.4c-0.3,0.1-0.6,0.3-0.9,0.4c-0.3,0.1-0.6,0.3-0.9,0.4
	c-0.3,0.1-0.6,0.2-0.9,0.3l-0.5,0.1c-0.1,0-0.3,0.1-0.5,0.1l-0.9,0.2c-0.3,0.1-0.6,0.1-0.9,0.2c-0.3,0.1-0.6,0.1-0.9,0.1
	c-0.3,0-0.6,0.1-0.8,0.1c-0.2,0-0.3,0-0.4,0s-0.3,0-0.4,0c-0.5,0.1-1,0.1-1.6,0.1c-0.5,0-1,0-1.4,0c-0.4,0-0.8-0.1-1.2,0
	c-0.3,0-0.7-0.1-1-0.1c-0.2,0-0.3,0-0.5,0c-0.1,0-0.3,0-0.4,0c-0.2,0-0.4-0.1-0.7,0c-0.4,0-0.6,0.1-0.7,0.2c0.3,0.3,0.4,0.5,0.6,0.8
	L508.8,269.6z"/>
<path class="st8" d="M512.1,269.7c-0.5-0.8-1.2-1.5-2.1-1.8c-0.9-0.3-1.9-0.3-2.8,0c-0.9,0.3-1.6,1-2.1,1.8
	c-0.5,0.8-0.6,1.8-0.4,2.8c1.4,0.1,2.7-0.1,4-0.6C510,271.4,511.2,270.6,512.1,269.7z"/>
<path class="st6" d="M505.9,266.3c-1.1-0.6-2.3-0.8-3.5-0.8c-1.2,0-2.4,0.3-3.5,0.9c-0.6,0.3-1.1,0.8-1.6,1.3
	c-0.2,0.3-0.4,0.6-0.4,0.9c-0.1,0.3-0.1,0.7-0.1,1c1.7,0.1,3.3-0.1,4.9-0.6C503.3,268.4,504.7,267.5,505.9,266.3z"/>
<path class="st15" d="M478.3,236.9l7.3,1.9l-1.7,6.7l-7.3-1.9L478.3,236.9z"/>
<path class="st16" d="M470.6,262.5l10.7,2.7l-2.4,9.3l-10.7-2.7L470.6,262.5z"/>
<path class="st17" d="M482.3,245l1.7-6.7l1.6,0.4l-1.7,6.7L482.3,245z"/>
<path class="st18" d="M497.2,259.6l4.5,1.2c0.3,0.1,0.5,0.2,0.7,0.4c0.2,0.2,0.4,0.5,0.4,0.7l1.7,6.5c0.1,0.3,0.1,0.5,0,0.8
	c-0.1,0.2-0.1,0.4-0.3,0.6c-0.1,0.2-0.3,0.3-0.5,0.4c-0.2,0.1-0.4,0.2-0.6,0.2c-0.2,0-0.4,0-0.6,0l-5.4-1.4
	c-0.4-0.1-0.7-0.3-0.9-0.6l-2.2-3.2"/>
<path class="st18" d="M498.1,265l0.2-4.8c0-0.6-0.2-1.1-0.5-1.5c-0.3-0.4-0.8-0.8-1.4-0.9l-17.8-4.4l-17.7-4.7
	c-0.5-0.1-1.1-0.1-1.6,0.1c-0.5,0.2-0.9,0.6-1.2,1.1l-2.2,4.3c-0.2,0.5-0.4,1-0.4,1.5c0,0.5,0.1,1.1,0.3,1.6
	c0.2,0.5,0.5,0.9,0.9,1.3c0.4,0.4,0.9,0.6,1.4,0.8l17.2,5.5c0.5,0.2,1.1,0.3,1.7,0.4l16.7,3.1c0.5,0.1,1.1,0.1,1.6,0
	c0.5-0.1,1-0.4,1.4-0.7c0.4-0.3,0.8-0.7,1-1.2C497.9,266.1,498,265.6,498.1,265z"/>
<path class="st15" d="M497.4,258.6c0-0.1,0-0.3,0-0.4l-37.6-9.6c-0.1,0.1-0.2,0.2-0.2,0.4l-2,4c-0.2,0.4-0.4,0.9-0.4,1.4
	c0,0.5,0.1,1,0.3,1.5c0.2,0.5,0.5,0.9,0.9,1.2c0.4,0.3,0.8,0.6,1.3,0.7l16.2,5.2c0.5,0.2,1,0.3,1.6,0.4l15.7,3c0.5,0.1,1,0.1,1.5,0
	c0.5-0.1,0.9-0.3,1.3-0.7c0.4-0.3,0.7-0.7,0.9-1.2c0.2-0.4,0.4-0.9,0.4-1.4L497.4,258.6z"/>
<path class="st15" d="M469.6,246.9l20.1,5.1c1,0.3,1.9,0.9,2.4,1.8c0.5,0.9,0.7,2,0.4,3l-0.4,1.6l-27.6-7.1l0.4-1.6
	c0.3-1,0.9-1.9,1.8-2.4C467.5,246.8,468.6,246.6,469.6,246.9z"/>
<path class="st17" d="M464.4,251.3l0.9-3.5l27.6,7.1l-0.9,3.5L464.4,251.3z"/>
<path class="st7" d="M507.6,217.2l-37.1-9.5c-1.4-0.3-2.7,0.5-3.1,1.8l-5.3,20.6c-0.3,1.4,0.5,2.7,1.8,3.1l37.1,9.5
	c1.4,0.3,2.7-0.5,3.1-1.8l5.3-20.6C509.8,219,509,217.6,507.6,217.2z"/>
<path class="st19" d="M469.8,209.3l37.7,9.6l-5.7,22.2l-37.7-9.6L469.8,209.3z"/>
<path class="st20" d="M474.1,214.5l-3.5-0.9c-0.1,0-0.2-0.3-0.1-0.5c0.1-0.2,0.2-0.4,0.4-0.4l3.5,0.9c0.1,0,0.2,0.3,0.1,0.5
	C474.4,214.4,474.2,214.6,474.1,214.5z"/>
<path class="st20" d="M473.7,216.2l-3.5-0.9c-0.1,0-0.2-0.3-0.1-0.5c0.1-0.2,0.2-0.4,0.4-0.4l3.5,0.9c0.1,0,0.2,0.3,0.1,0.5
	C474,216.1,473.8,216.2,473.7,216.2z"/>
<path class="st20" d="M473.2,218l-3.5-0.9c-0.1,0-0.2-0.3-0.1-0.5c0.1-0.2,0.2-0.4,0.4-0.4l3.5,0.9c0.1,0,0.2,0.3,0.1,0.5
	C473.5,217.8,473.3,218,473.2,218"/>
<path class="st20" d="M472.7,220l-3.5-0.9c-0.1,0-0.2-0.3-0.1-0.5c0.1-0.2,0.2-0.4,0.4-0.6l3.5,0.9c0.1,0.2,0.1,0.4,0.1,0.7
	C473,219.8,472.8,220,472.7,220z"/>
<path class="st20" d="M472.2,221.8l-3.5-0.9c-0.1,0-0.2-0.3-0.1-0.5c0.1-0.2,0.2-0.4,0.4-0.4l3.5,0.9c0.1,0,0.2,0.3,0.1,0.5
	C472.5,221.7,472.4,221.9,472.2,221.8"/>
<path class="st20" d="M471.8,223.5l-3.5-0.9c-0.1,0-0.2-0.3-0.1-0.5c0.1-0.2,0.2-0.4,0.4-0.4l3.5,0.9c0.1,0,0.2,0.3,0.1,0.5
	C472.1,223.3,471.9,223.5,471.8,223.5z"/>
<path class="st20" d="M471.3,225.3l-3.5-0.9c-0.1,0-0.2-0.3-0.1-0.5c0.1-0.2,0.2-0.4,0.4-0.4l3.5,0.9c0.1,0,0.2,0.3,0.1,0.5
	C471.6,225.2,471.5,225.3,471.3,225.3z"/>
<path class="st20" d="M470.8,227.3l-3.5-0.9c-0.1,0-0.2-0.3-0.1-0.5c0.1-0.2,0.2-0.4,0.4-0.5l3.5,0.9c0.1,0.2,0.1,0.4,0.1,0.7
	C471.1,227.1,471,227.3,470.8,227.3z"/>
<path class="st20" d="M477,215.3l-1.4-0.4c-0.1,0,0-0.2,0-0.5c0-0.2,0.2-0.4,0.2-0.4l1.4,0.4c0.1,0,0,0.2,0,0.5
	C477.1,215.1,477,215.3,477,215.3z"/>
<path class="st20" d="M476.6,216.9l-1.4-0.4c0,0,0-0.2,0-0.5c0-0.2,0.2-0.4,0.2-0.4l1.4,0.4c0.1,0,0,0.2,0,0.5
	C476.7,216.8,476.6,216.9,476.6,216.9z"/>
<path class="st20" d="M476.1,218.8l-1.4-0.4c-0.1,0,0-0.2,0-0.5c0-0.2,0.2-0.4,0.2-0.4l1.4,0.4c0,0,0,0.2,0,0.5
	C476.3,218.6,476.1,218.8,476.1,218.8"/>
<path class="st20" d="M475.6,220.7l-1.3-0.3c-0.1,0,0-0.2,0-0.5c0.1-0.2,0.1-0.4,0.3-0.6l1.3,0.4c0,0.2,0,0.4-0.1,0.6
	C475.7,220.6,475.6,220.7,475.6,220.7"/>
<path class="st20" d="M475.1,222.6l-1.4-0.4c-0.1,0,0-0.2,0-0.5c0-0.2,0.2-0.4,0.2-0.4l1.4,0.4c0.1,0,0,0.2,0,0.5
	S475.2,222.6,475.1,222.6z"/>
<path class="st20" d="M474.7,224.2l-1.4-0.4c-0.1,0,0-0.2,0-0.5c0-0.2,0.2-0.4,0.2-0.4l1.4,0.4c0.1,0,0,0.2,0,0.5
	C474.9,224.1,474.8,224.3,474.7,224.2z"/>
<path class="st20" d="M474.2,226l-1.4-0.4c-0.1,0,0-0.2,0-0.5c0-0.2,0.1-0.4,0.2-0.4l1.4,0.4c0.1,0,0,0.2,0,0.5
	C474.4,225.9,474.3,226.1,474.2,226z"/>
<path class="st20" d="M473.7,228l-1.3-0.4c-0.1,0,0-0.2,0-0.5c0.1-0.2,0.1-0.4,0.3-0.6l1.3,0.4c0,0.2,0,0.4-0.1,0.6
	C473.8,227.9,473.8,228,473.7,228z"/>
<path class="st7" d="M487.7,244.4l-12.8-3.3c-1.4-0.3-2.7,0.5-3.1,1.8l-1.5,5.8c-0.3,1.4,0.5,2.7,1.8,3.1l12.8,3.3
	c1.4,0.3,2.7-0.5,3.1-1.8l1.5-5.8C489.9,246.2,489.1,244.8,487.7,244.4z"/>
<path class="st19" d="M473.3,242l15.4,4l-2.2,8.5l-15.4-4L473.3,242z"/>
<path class="st20" d="M476.9,243.9l-2.8-0.8c0,0-0.1,0-0.1,0c0,0,0,0-0.1-0.1c0,0,0-0.1,0-0.1c0,0,0-0.1,0-0.1c0-0.1,0-0.1,0.1-0.1
	c0,0,0.1,0,0.2,0l2.8,0.8c0,0,0.1,0,0.1,0c0,0,0,0,0.1,0.1c0,0,0,0.1,0,0.1c0,0,0,0.1,0,0.1c0,0,0,0.1,0,0.1c0,0,0,0-0.1,0.1
	S477,243.9,476.9,243.9C477,243.9,476.9,243.9,476.9,243.9z"/>
<path class="st20" d="M476.7,244.8l-2.9-0.8c0,0-0.1-0.1-0.1-0.1c0,0,0-0.1,0-0.1s0-0.1,0.1-0.1c0,0,0.1-0.1,0.1-0.1l2.9,0.8
	c0.1,0,0.1,0.1,0.1,0.1c0,0.1,0,0.1,0,0.2c0,0.1,0,0.1-0.1,0.1C476.8,244.8,476.7,244.9,476.7,244.8"/>
<path class="st20" d="M476.4,245.8l-2.9-0.8c0,0-0.1,0-0.1,0c0,0,0,0-0.1-0.1c0,0,0-0.1,0-0.1c0,0,0-0.1,0-0.1c0,0,0-0.1,0-0.1
	c0,0,0,0,0.1-0.1c0,0,0.1,0,0.1,0c0,0,0.1,0,0.1,0l2.9,0.8c0.1,0,0.1,0.1,0.1,0.1c0,0.1,0,0.1,0,0.2c0,0.1,0,0.1-0.1,0.1
	S476.5,245.8,476.4,245.8z"/>
<path class="st20" d="M476.2,246.9l-2.9-0.7c-0.1,0-0.1-0.1-0.1-0.1c0-0.1,0-0.1,0-0.2c0-0.1,0.1-0.1,0.1-0.2c0,0,0.1-0.1,0.2-0.1
	l2.9,0.7c0,0.1,0.1,0.1,0.1,0.2c0,0.1,0,0.1,0,0.2c0,0,0,0.1,0,0.1s0,0-0.1,0.1C476.3,246.8,476.3,246.9,476.2,246.9
	C476.2,246.9,476.2,246.9,476.2,246.9z"/>
<path class="st20" d="M475.9,247.9l-2.9-0.8c0,0-0.1,0-0.1,0s0,0-0.1-0.1c0,0,0-0.1,0-0.1c0,0,0-0.1,0-0.1c0,0,0-0.1,0-0.1
	c0,0,0,0,0.1-0.1c0,0,0.1,0,0.1,0c0,0,0.1,0,0.1,0l2.8,0.8c0,0,0.1,0,0.1,0c0,0,0,0,0.1,0.1c0,0,0,0.1,0,0.1c0,0,0,0.1,0,0.1
	c0,0.1,0,0.1-0.1,0.1C476,247.9,476,247.9,475.9,247.9z"/>
<path class="st20" d="M475.7,248.8l-2.9-0.8c-0.1,0-0.1-0.1-0.1-0.1c0-0.1,0-0.1,0-0.2c0-0.1,0-0.1,0.1-0.2c0,0,0.1-0.1,0.2,0
	l2.9,0.8c0,0,0.1,0,0.1,0c0,0,0,0,0.1,0.1c0,0,0,0.1,0,0.1c0,0,0,0.1,0,0.1c0,0,0,0.1,0,0.1c0,0,0,0-0.1,0.1
	C475.8,248.7,475.8,248.8,475.7,248.8C475.7,248.8,475.7,248.8,475.7,248.8z"/>
<path class="st20" d="M475.4,249.7l-2.9-0.8c-0.1,0-0.1-0.1-0.1-0.1s0-0.1,0-0.2c0-0.1,0-0.1,0.1-0.1c0,0,0.1-0.1,0.2-0.1l2.9,0.8
	c0.1,0,0.1,0.1,0.1,0.1c0,0.1,0,0.1,0,0.2c0,0.1,0,0.1-0.1,0.2C475.6,249.7,475.5,249.8,475.4,249.7z"/>
<path class="st20" d="M475.2,250.8l-2.9-0.7c-0.1,0-0.1-0.1-0.1-0.1c0-0.1,0-0.1,0-0.2c0-0.1,0.1-0.2,0.3-0.3l2.9,0.7
	c0,0.1,0.1,0.1,0.1,0.2c0,0.1,0,0.1,0,0.2c0,0.1,0,0.1-0.1,0.1C475.3,250.8,475.2,250.8,475.2,250.8z"/>
<path class="st16" d="M493.5,254.9l-0.7,2.8c0,0.6,0.8,1.2,2,1.5c1.2,0.3,2.3,0.1,2.5-0.3l0.7-2.8L493.5,254.9z"/>
<path class="st15" d="M498,256.1c0.1-0.6-0.8-1.3-2-1.6s-2.4-0.1-2.5,0.4c-0.1,0.6,0.8,1.3,2,1.6C496.7,256.9,497.8,256.7,498,256.1
	z"/>
<path class="st16" d="M464,255.5l-0.4,1.4c0,0.3,0.7,0.7,1.7,0.9c0.9,0.2,1.7,0.2,1.9,0l0.4-1.4L464,255.5z"/>
<path class="st18" d="M467.5,256.4c0.1-0.3-0.7-0.7-1.6-1c-1-0.3-1.8-0.2-1.9,0.1c-0.1,0.3,0.7,0.7,1.6,1
	C466.6,256.8,467.4,256.7,467.5,256.4z"/>
<path class="st16" d="M464.7,252.7l-0.4,1.4c0,0.3,0.7,0.7,1.7,0.9c0.9,0.2,1.7,0.2,1.9,0l0.4-1.4L464.7,252.7z"/>
<path class="st18" d="M468.2,253.6c0.1-0.3-0.7-0.7-1.6-1c-1-0.3-1.8-0.2-1.9,0.1c-0.1,0.3,0.7,0.7,1.6,1S468.2,253.9,468.2,253.6z"
	/>
<path class="st15" d="M499,261.1l-0.7,2.8c0,0.5,0.8,1.2,2,1.5c1.2,0.3,2.3,0.2,2.5-0.3l0.7-2.8L499,261.1z"/>
<path class="st15" d="M503.6,262.3c0.1-0.6-0.8-1.3-2-1.6c-1.3-0.3-2.4-0.1-2.5,0.4c-0.1,0.6,0.8,1.3,2,1.6
	C502.3,263.1,503.4,262.9,503.6,262.3z"/>
<path class="st19" d="M503,262.2c0.1-0.4-0.6-1-1.5-1.2s-1.8-0.1-1.9,0.3c-0.1,0.4,0.6,1,1.5,1.2C502.1,262.8,502.9,262.6,503,262.2
	z"/>
<path class="st15" d="M499.3,264.2l-0.7,2.8c0,0.6,0.8,1.2,2,1.5c1.2,0.3,2.3,0.1,2.5-0.3l0.7-2.8L499.3,264.2z"/>
<path class="st15" d="M503.8,265.5c0.1-0.6-0.8-1.3-2-1.6c-1.3-0.3-2.4-0.1-2.5,0.4c-0.1,0.6,0.8,1.3,2,1.6
	C502.5,266.2,503.7,266,503.8,265.5z"/>
<path class="st19" d="M503.3,265.4c0.1-0.4-0.6-1-1.5-1.2c-1-0.2-1.8-0.1-1.9,0.3c-0.1,0.4,0.6,1,1.5,1.2
	C502.3,265.9,503.2,265.8,503.3,265.4z"/>
<path class="st16" d="M488.4,263.9l-17.6-4.5c-0.2-0.1-0.4-0.2-0.6-0.4c-0.1-0.2-0.2-0.5-0.1-0.7l0.2-0.9l19.3,5l-0.2,0.9
	c0,0.1-0.1,0.2-0.2,0.3c-0.1,0.1-0.2,0.2-0.3,0.2c-0.1,0.1-0.2,0.1-0.3,0.1C488.6,264,488.5,264,488.4,263.9z"/>
<path class="st18" d="M471.2,256.8l18.2,4.7c0.1,0,0.2,0.1,0.3,0.2c0.1,0.1,0.1,0.2,0.1,0.4c-0.1,0.2-0.2,0.4-0.4,0.6
	c-0.2,0.1-0.5,0.2-0.7,0.1l-17.8-4.5c-0.2,0-0.4-0.2-0.5-0.3c-0.1-0.2-0.1-0.4-0.1-0.6c0-0.2,0.2-0.3,0.3-0.4
	C470.9,256.8,471.1,256.8,471.2,256.8z"/>
<path class="st16" d="M464.3,310.1L464,310l-3.1,12.2l0.3,0.1c11.5,2.9,21.6,2.6,22.4-0.8C484.4,318.2,475.8,313.1,464.3,310.1z"/>
<path class="st16" d="M462.4,316.5l1.5-5.7l21.1,5.4l-1.5,5.7L462.4,316.5z"/>
<path class="st18" d="M465.8,304.1l-0.3-0.1l-3.5,13.7l0.3,0.1c11.5,2.9,21.7,2.3,22.6-1.5S477.4,307.1,465.8,304.1z"/>
<path class="st19" d="M483.1,326.7l3,0.8l-1,3.9l-3-0.8L483.1,326.7z"/>
<path class="st16" d="M487.8,327.7c-0.2,0.8-1.7,1.1-3.5,0.6c-1.7-0.4-16.5-5-17.5-5.2c-0.5-0.1,12.6-2.6,13-1.8
	c0.4,0.9,8.4,2,9,2.1L487.8,327.7z"/>
<path class="st18" d="M486.3,321.2c-0.7-0.2-1.5-0.4-2.2-0.6c-0.1,0.1-0.2,0.2-0.3,0.3c-0.8,0.4-1.7,0.8-2.5,1.2
	c-0.1,0.3-0.1,0.5,0,0.6c1,0.3,2.5,1,4.2,1.5c1.7,0.4,3.3,0.1,3.5-0.6C489.2,322.6,488,321.6,486.3,321.2z"/>
<path class="st16" d="M487,334.2c0.4-1.7-0.7-3.5-2.6-4c-1.9-0.5-3.7,0.5-4.2,2.2l-1.4,5.6c-0.4,1.7,0.7,3.5,2.6,4
	c1.9,0.5,3.7-0.5,4.2-2.2L487,334.2z"/>
<path class="st19" d="M484,330.2c-0.8-0.2-1.7,0-2.4,0.4c-0.7,0.4-1.2,1.1-1.4,1.9l-1.5,5.6c-0.2,0.8-0.1,1.6,0.3,2.4
	c0.4,0.7,1.1,1.2,1.9,1.5L484,330.2z"/>
<path class="st19" d="M438.5,319.4l-3-0.8l1-3.9l3,0.8L438.5,319.4z"/>
<path class="st16" d="M463.9,310l0.3,0.1l-3.1,12.2l-0.3-0.1c-11.5-3-20.1-8.1-19.3-11.5C442.3,307.4,452.4,307.1,463.9,310z"/>
<path class="st16" d="M441.4,311.1l1.5-5.7l21.1,5.4l-1.5,5.7L441.4,311.1z"/>
<path class="st18" d="M465.4,304l0.3,0.1l-3.5,13.7l-0.3-0.1c-11.5-2.9-20.1-8.4-19.1-12.2C443.8,301.8,453.9,301.1,465.4,304z"/>
<path class="st16" d="M434.7,314.1c-0.2,0.8,1,1.8,2.7,2.2c1.7,0.4,16.9,3.5,17.9,3.8c0.5,0.1-9.8-8.3-10.5-7.8s-8.3-2.3-9-2.5
	L434.7,314.1z"/>
<path class="st18" d="M439.3,309.2c0.7,0.2,1.5,0.4,2.2,0.5c0,0.1,0.1,0.3,0.1,0.4c0.5,0.8,1.1,1.5,1.6,2.2
	c-0.1,0.3-0.2,0.5-0.3,0.5c-1-0.3-2.7-0.3-4.4-0.8c-1.7-0.5-2.9-1.4-2.7-2.2S437.6,308.7,439.3,309.2z"/>
<path class="st16" d="M431.5,326.1c-0.4,1.7,0.6,3.4,2.3,3.9c1.7,0.4,3.5-0.6,3.9-2.3l1.4-5.6c0.4-1.7-0.6-3.4-2.3-3.9
	c-1.7-0.4-3.5,0.6-3.9,2.3L431.5,326.1z"/>
<path class="st19" d="M437,318.1c0.8,0.2,1.5,0.8,1.9,1.5s0.5,1.6,0.3,2.4l-1.5,5.7c-0.2,0.8-0.7,1.5-1.4,1.9
	c-0.7,0.4-1.5,0.6-2.4,0.4L437,318.1z"/>
<path class="st15" d="M485.1,272.7l-10.7-2.8l-10.8-2.8c-0.2,0-0.4-0.1-0.6,0c-0.2,0-0.4,0.1-0.5,0.2c-0.2,0.1-0.3,0.2-0.4,0.4
	c-0.1,0.2-0.2,0.3-0.2,0.5L451,310.4c0,0.2-0.1,0.4,0,0.6c0,0.2,0.1,0.4,0.2,0.5c0.1,0.2,0.2,0.3,0.4,0.4c0.2,0.1,0.3,0.2,0.5,0.2
	l10.7,2.8l10.8,2.8c0.2,0,0.4,0.1,0.6,0c0.2,0,0.4-0.1,0.5-0.2c0.2-0.1,0.3-0.2,0.4-0.4c0.1-0.2,0.2-0.3,0.2-0.5l10.8-42.2
	c0.1-0.2,0.1-0.4,0-0.6c0-0.2-0.1-0.4-0.2-0.5c-0.1-0.2-0.2-0.3-0.4-0.4C485.5,272.8,485.3,272.7,485.1,272.7z"/>
<path class="st18" d="M485.1,272.7l-10.7-2.8l-10.8-2.8c-0.2,0-0.4-0.1-0.6,0c-0.2,0-0.4,0.1-0.5,0.2c-0.2,0.1-0.3,0.2-0.4,0.4
	c-0.1,0.2-0.2,0.3-0.2,0.5l-0.9,3.7c-0.1,0.4,0,0.8,0.2,1.1c0.2,0.3,0.5,0.6,0.9,0.7l10.7,2.8l10.8,2.8c0.2,0,0.4,0.1,0.6,0
	c0.2,0,0.4-0.1,0.5-0.2c0.2-0.1,0.3-0.2,0.4-0.4c0.1-0.2,0.2-0.3,0.2-0.5l0.9-3.7c0-0.2,0.1-0.4,0-0.6c0-0.2-0.1-0.4-0.2-0.5
	c-0.1-0.2-0.2-0.3-0.4-0.4C485.5,272.8,485.3,272.7,485.1,272.7z"/>
<path class="st18" d="M468.3,297.3c1.9,0,3.5-1.6,3.5-3.5s-1.6-3.5-3.5-3.5c-1.9,0-3.5,1.6-3.5,3.5S466.3,297.3,468.3,297.3z"/>
<path class="st18" d="M465.9,277.5l12.2,3.1l-0.1,0.4c-0.2,0.9-0.8,1.7-1.6,2.1c-0.8,0.5-1.7,0.6-2.6,0.4l-5.5-1.4
	c-0.9-0.2-1.7-0.8-2.1-1.6c-0.5-0.8-0.6-1.7-0.4-2.6L465.9,277.5L465.9,277.5z"/>
<path class="st17" d="M483.8,283.9l2.4-9.4c0-0.2,0.1-0.4,0-0.6c0-0.2-0.1-0.4-0.2-0.5c-0.1-0.2-0.2-0.3-0.4-0.4
	c-0.2-0.1-0.3-0.2-0.5-0.2l-10.7-2.8l-10.8-2.8c-0.2,0-0.4-0.1-0.6,0c-0.2,0-0.4,0.1-0.5,0.2c-0.2,0.1-0.3,0.2-0.4,0.4
	c-0.1,0.1-0.2,0.3-0.2,0.5l-7.1,27.9C464,291.1,473.8,287.3,483.8,283.9z"/>
<path class="st19" d="M473.8,324.5l3,0.8l-1,3.9l-3-0.8L473.8,324.5z"/>
<path class="st19" d="M477.2,331.9c0.4-1.7-0.6-3.4-2.3-3.9c-1.7-0.4-3.5,0.6-3.9,2.3l-1.4,5.6c-0.4,1.7,0.6,3.4,2.3,3.9
	c1.7,0.4,3.5-0.6,3.9-2.3L477.2,331.9z"/>
<path class="st19" d="M474.7,328c-0.8-0.2-1.7,0-2.4,0.4c-0.7,0.4-1.2,1.1-1.4,1.9l-1.5,5.6c-0.2,0.8-0.1,1.6,0.3,2.4
	c0.4,0.7,1.1,1.2,1.9,1.5L474.7,328z"/>
<path class="st19" d="M448.2,322.1l-3-0.7l1-3.9l3,0.7L448.2,322.1z"/>
<path class="st19" d="M441.2,328.8c-0.4,1.7,0.6,3.4,2.3,3.9s3.5-0.6,3.9-2.3l1.4-5.6c0.4-1.7-0.6-3.4-2.3-3.9
	c-1.7-0.4-3.5,0.6-3.9,2.3L441.2,328.8z"/>
<path class="st19" d="M446.6,320.8c0.8,0.2,1.4,0.8,1.8,1.5c0.4,0.7,0.5,1.6,0.3,2.4l-1.4,5.6c-0.2,0.8-0.7,1.5-1.4,1.9
	c-0.7,0.4-1.5,0.6-2.3,0.4L446.6,320.8z"/>
<path class="st21" d="M114.8,327.4c0-5.8,1.6-11.5,4.5-16.3c2.9-4.8,7.1-8.6,11.9-10.8c4.9-2.2,10.2-2.8,15.4-1.7
	c5.2,1.1,9.9,3.9,13.6,8c3.7,4.1,6.3,9.3,7.3,15s0.5,11.6-1.5,16.9c-2,5.4-5.4,9.9-9.8,13.2c-4.4,3.2-9.5,4.9-14.8,4.9
	c-7,0-13.8-3.1-18.8-8.6C117.6,342.7,114.8,335.2,114.8,327.4L114.8,327.4z M260.4,327.8c0-5.7,1.5-11.4,4.4-16.1
	c2.9-4.8,7-8.5,11.8-10.7s10.1-2.8,15.2-1.7c5.1,1.1,9.8,3.9,13.5,8c3.7,4.1,6.2,9.2,7.2,14.9c1,5.6,0.5,11.5-1.5,16.8
	c-2,5.3-5.4,9.8-9.7,13c-4.3,3.2-9.4,4.9-14.6,4.9c-7,0-13.7-3.1-18.6-8.5C263.2,342.9,260.5,335.5,260.4,327.8L260.4,327.8z"/>
<path class="st22" d="M371,179h-92v133h92V184v-1V179z"/>
<path class="st23" d="M281.8,309.4H42.2c-2.3,0-4.2,2.3-4.2,5.1v11.1c0,2.8,1.9,5.1,4.2,5.1h239.6V309.4z"/>
<path class="st24" d="M44.3,309.4h107.8v-98.1H98c-5.2,0-10.3,1.4-14.9,4.2c-4.6,2.7-8.5,6.6-11.4,11.4l-22.1,36.3
	c-3.5,5.9-5.4,12.7-5.4,19.8L44.3,309.4z"/>
<path class="st21" d="M127.2,269.3v-47.1H98.8c-3.6,0-7.2,1-10.3,2.8c-3.2,1.9-5.9,4.6-7.9,7.9l-22.3,36.4L127.2,269.3z"/>
<path class="st25" d="M150.4,211.4h-10.1v98.1h10.1V211.4z"/>
<path class="st26" d="M115.4,277.1h9.6c0.6,0,1.1-0.3,1.5-0.7c0.4-0.4,0.6-1.1,0.6-1.7v-1.5h-14v1.5c0,0.6,0.3,1.3,0.7,1.7
	C114.2,276.9,114.8,277.1,115.4,277.1L115.4,277.1z"/>
<path class="st27" d="M52.8,296.9c0-2.5-0.9-4.8-2.5-6.6c-1.6-1.7-3.7-2.7-6-2.7v18.7c2.2,0,4.4-1,6-2.8
	C51.9,301.8,52.8,299.4,52.8,296.9L52.8,296.9z"/>
<path class="st12" d="M370.9,309.4h-89.1c-0.8,0-1.5,0.2-2.2,0.5c-0.7,0.3-1.3,0.8-1.9,1.4c-0.5,0.6-1,1.3-1.2,2
	c-0.3,0.8-0.4,1.6-0.4,2.4v8.7c0,1.7,0.6,3.3,1.7,4.5c1.1,1.2,2.5,1.9,4,1.9h89.1c1.5,0,3-0.7,4-1.8c1.1-1.2,1.7-2.8,1.7-4.5v-8.7
	c0-1.7-0.6-3.3-1.7-4.5C373.8,310.1,372.4,309.4,370.9,309.4z"/>
<path class="st28" d="M292.1,320.1c0-0.9-0.2-1.8-0.7-2.5c-0.5-0.7-1.1-1.3-1.8-1.7c-0.8-0.3-1.6-0.4-2.4-0.3
	c-0.8,0.2-1.5,0.6-2.1,1.2c-0.6,0.6-1,1.4-1.1,2.3c-0.2,0.9-0.1,1.8,0.2,2.6c0.3,0.8,0.8,1.5,1.5,2c0.7,0.5,1.5,0.8,2.3,0.8
	c0.5,0,1.1-0.1,1.6-0.3c0.5-0.2,0.9-0.6,1.3-1c0.4-0.4,0.7-0.9,0.9-1.5C292,321.3,292.1,320.7,292.1,320.1L292.1,320.1z"/>
<path class="st27" d="M299.1,320.1c0-0.6-0.2-1.1-0.6-1.6c-0.4-0.4-0.9-0.7-1.4-0.7h0c-0.5,0-1.1,0.2-1.4,0.7
	c-0.4,0.4-0.6,1-0.6,1.6c0,0.3,0.1,0.6,0.2,0.9c0.1,0.3,0.3,0.5,0.4,0.7c0.2,0.2,0.4,0.4,0.7,0.5c0.2,0.1,0.5,0.2,0.8,0.2h0.1
	c0.5,0,1-0.2,1.4-0.5c0.4-0.4,0.6-0.9,0.6-1.5V320.1z"/>
<path class="st28" d="M363,320.1c0,0.9,0.2,1.8,0.7,2.5c0.5,0.7,1.1,1.3,1.8,1.7c0.8,0.3,1.6,0.4,2.4,0.3c0.8-0.2,1.5-0.6,2.1-1.2
	c0.6-0.6,1-1.4,1.1-2.3c0.2-0.9,0.1-1.8-0.2-2.6c-0.3-0.8-0.8-1.5-1.5-2c-0.7-0.5-1.5-0.8-2.3-0.8c-1.1,0-2.1,0.5-2.9,1.3
	C363.5,317.8,363,318.9,363,320.1z"/>
<path class="st27" d="M356,320.1c0,0.4,0.1,0.9,0.3,1.2c0.2,0.4,0.5,0.6,0.9,0.8c0.4,0.2,0.8,0.2,1.2,0.1c0.4-0.1,0.8-0.3,1-0.6
	c0.3-0.3,0.5-0.7,0.6-1.1s0-0.9-0.1-1.3c-0.2-0.4-0.4-0.8-0.7-1c-0.3-0.2-0.7-0.4-1.1-0.4c-0.5,0-1,0.2-1.4,0.6
	c-0.4,0.4-0.6,0.9-0.6,1.5V320.1z"/>
<path class="st25" d="M371,178h-92v7h92V178z"/>
<path class="st29" d="M140.2,288.3l-44.8,15.8c0,0,4.4,3.3,5.9,5.3h38.9V288.3z"/>
<path class="st30" d="M95.5,304.1l44.8-15.8v-10.8l-52.6,23.1C90.4,301.3,93.1,302.4,95.5,304.1L95.5,304.1z"/>
<path class="st24" d="M281.8,178H150.4v131.4h131.4V178z"/>
<path class="st29" d="M281.8,282.9L150.4,287v22.4h131.4V282.9z"/>
<path class="st21" d="M223.9,299.7c7.5,0,14.6,3.3,19.9,9.1c5.3,5.8,8.2,13.7,8.3,21.9h-56.3c0-4.1,0.7-8.1,2.1-11.9
	c1.4-3.8,3.5-7.2,6.1-10.1c2.6-2.9,5.7-5.2,9.1-6.7c3.4-1.6,7.1-2.4,10.7-2.4H223.9z"/>
<path class="st21" d="M227.5,304.5c6.1,0.1,11.9,2.9,16.2,7.6c4.3,4.7,6.8,11.1,7,17.8c0.2,6.7-2,13.2-6.1,18.2s-9.7,8.1-15.8,8.6
	h-7.9v-52.3L227.5,304.5L227.5,304.5z"/>
<path class="st12" d="M199.1,330.6c0-5.2,1.4-10.2,4-14.5c2.6-4.3,6.3-7.7,10.6-9.6c4.3-2,9.1-2.5,13.7-1.5c4.6,1,8.8,3.5,12.1,7.2
	c3.3,3.7,5.6,8.3,6.5,13.4c0.9,5.1,0.4,10.3-1.3,15.1c-1.8,4.8-4.8,8.9-8.7,11.7c-3.9,2.9-8.5,4.4-13.2,4.4
	c-6.3,0-12.3-2.8-16.8-7.7C201.6,344.2,199.1,337.6,199.1,330.6L199.1,330.6z"/>
<path class="st29" d="M222.8,343.4c-6.4,0-11.6-5.7-11.6-12.8c0-7.1,5.2-12.8,11.6-12.8s11.6,5.7,11.6,12.8
	C234.4,337.7,229.2,343.4,222.8,343.4z"/>
<path class="st30" d="M150.4,287l131.4-4.1v-13.4l-131.5,6.6L150.4,287L150.4,287z"/>
<path class="st21" d="M80.9,299.7c7.5,0,14.6,3.3,19.9,9.1c5.3,5.8,8.2,13.7,8.3,21.9H52.8c0-4.1,0.7-8.1,2.1-11.9
	c1.4-3.8,3.5-7.2,6.1-10.1c2.6-2.9,5.7-5.2,9.1-6.7c3.4-1.6,7.1-2.4,10.7-2.4H80.9z"/>
<path class="st21" d="M84.6,304.5c6.1,0.1,11.9,2.9,16.2,7.6c4.3,4.7,6.8,11.1,7,17.8c0.2,6.7-2,13.2-6.1,18.2
	c-4.1,5-9.7,8.1-15.8,8.6h-7.8v-52.3L84.6,304.5L84.6,304.5z"/>
<path class="st12" d="M56.2,330.6c0-5.2,1.4-10.2,4-14.5c2.6-4.3,6.3-7.7,10.6-9.6c4.3-2,9.1-2.5,13.7-1.5c4.6,1,8.8,3.5,12.1,7.2
	c3.3,3.7,5.6,8.3,6.5,13.4c0.9,5.1,0.4,10.3-1.3,15.1c-1.8,4.8-4.8,8.9-8.7,11.7c-3.9,2.9-8.5,4.4-13.2,4.4
	c-6.3,0-12.3-2.8-16.8-7.7C58.7,344.2,56.2,337.6,56.2,330.6L56.2,330.6z"/>
<path class="st29" d="M79.8,343.4c-6.4,0-11.6-5.7-11.6-12.8c0-7.1,5.2-12.8,11.6-12.8c6.4,0,11.6,5.7,11.6,12.8
	C91.4,337.7,86.2,343.4,79.8,343.4z"/>
</svg>
