<svg version="1.1" xmlns="http://www.w3.org/2000/svg" xmlns:xlink="http://www.w3.org/1999/xlink" width="220" height="194" viewBox="0 0 220 194">
<style type="text/css">
	.st0{fill:#EAF1FC;}
	.st1{fill:#F8F8FF;}
	.st2{fill:#3270A7;}
	.st3{fill:#0F222C;}
	.st4{fill:#1D4259;}
	.st5{fill:#448DCE;}
	.st6{fill:#222846;}
	.st7{fill:#FFDA35;}
	.st8{fill:#0B2B46;}
	.st9{fill:#FF524F;}
	.st10{fill:#F2F2F2;}
	.st11{fill:#F19100;}
	.st12{fill:#2C6292;}
	.st13{fill:none;stroke:#448DCE;stroke-width:8;stroke-linecap:round;stroke-miterlimit:10;}
	.st14{fill:none;stroke:#BAD8E8;stroke-width:2;stroke-linecap:round;stroke-miterlimit:10;}
	.st15{fill:#FFFFFF;}
</style>
<path class="st0" d="M109.2,192.9c60.2,0,109.2-10.1,109.2-22.4c0-12.4-48.9-22.4-109.2-22.4C48.9,148.1,0,158.1,0,170.5
	S48.9,192.9,109.2,192.9z"/>
<path class="st1" d="M207.5,160.8c14-41.7,14.8-121.8-13.8-150c-27.2-26.8-40.4,5-61.7,6c-16.6,0.8-45-7.4-60.1-12.7
	C32.7-10.2-22.9,19.9,10.7,160.8C78.9,160.4,139.4,161,207.5,160.8z"/>
<path class="st2" d="M37.4,102.6c6,0,10.9-4.9,10.9-10.9c0-6-4.9-10.9-10.9-10.9s-10.9,4.9-10.9,10.9
	C26.5,97.6,31.4,102.6,37.4,102.6z"/>
<path class="st2" d="M171.4,32.2c-1.3,0.2-2.6,0-3.9-0.5c-0.8-0.4-1.7-0.4-2.5-0.2c-1.5,0.6-3.3,0.1-4.2-1.3c-1-1.4-1-3.1-0.1-4.5
	c0.4-0.6,1-1,1.7-1.4c0.8-0.3,1.4-0.9,1.9-1.8c1.5-3.4,5.6-4.9,9-3.4c3.4,1.5,4.9,5.6,3.4,9C175.7,30.4,173.7,31.9,171.4,32.2z"/>
<path class="st2" d="M191.4,100.6c3,0,5.6-2.5,5.6-5.6c0-3-2.5-5.6-5.6-5.6c-3,0-5.6,2.5-5.6,5.6
	C185.8,98.1,188.4,100.6,191.4,100.6z"/>
<path class="st3" d="M165.4,163.2c0-6.8-5.4-12.3-12.3-12.3c-6.8,0-12.3,5.4-12.3,12.3c0,6.8,5.4,12.3,12.3,12.3
	C159.9,175.5,165.4,170.1,165.4,163.2z M98.2,163.4c0-6.8-5.4-12.2-12.2-12.2c-6.8,0-12.2,5.4-12.2,12.2c0,6.8,5.4,12.2,12.2,12.2
	C92.8,175.5,98.2,170.1,98.2,163.4z"/>
<path class="st4" d="M88,155h114c1.1,0,2,1,2,2.4l-0.6,5.1c0,1.3-0.9,2.4-2,2.4H88V155z"/>
<path class="st5" d="M200.4,155.7H152l2.3-41.1l18.6,0.1c4.9,0,9.5,2.5,12.3,6.5l10.3,15.2c1.7,2.5,5.9,8.9,5.9,11.8v7.5H198
	L200.4,155.7z"/>
<path class="st3" d="M160.3,138.9l1.9-20.1l11.3,0.3c3.4,0,6.5,1.7,8.4,4.5l6.2,9.1c1.8,2.6-0.1,6.1-3.2,6.1L160.3,138.9z"/>
<path class="st5" d="M93.1,100.7h62l-1.5,13.8l-1.6,41.3H88.4L93.1,100.7z"/>
<path class="st2" d="M153.4,114.6h4.6l-4.4,41.1h-4.7L153.4,114.6z M164.9,142.7h-4.4c-0.6,0-1-0.4-1-1v-1.2h6.4v1.2
	C165.9,142.3,165.5,142.7,164.9,142.7z"/>
<path class="st6" d="M165.1,142.2h-4.4c-0.6,0-1-0.4-1-1v-0.6h6.4v0.6C166.1,141.7,165.7,142.2,165.1,142.2z"/>
<path class="st7" d="M197.5,151.6c0-2.2,1.8-3.9,3.9-3.9v7.8C199.3,155.6,197.5,153.8,197.5,151.6z"/>
<path class="st8" d="M48.2,155h40.1c1.4,0,2.7,1.3,2.7,3v4c0,1.6-1.2,3-2.7,3H47.7c-1.4,0-2.7-1.3-2.7-3l0.6-4
	C45.6,156.4,46.8,155,48.2,155z"/>
<path class="st9" d="M83.6,160.1c0-1,0.8-1.9,1.9-1.9c1,0,1.9,0.8,1.9,1.9c0,1-0.8,1.9-1.9,1.9C84.4,162.1,83.6,161.2,83.6,160.1z"
	/>
<path class="st7" d="M80.4,160.1c0-0.5,0.4-0.9,0.9-0.9s0.9,0.4,0.9,0.9c0,0.5-0.4,0.9-0.9,0.9C80.8,161.1,80.4,160.7,80.4,160.1z"
	/>
<path class="st9" d="M50.9,160.1c0,1-0.8,1.9-1.9,1.9s-1.9-0.8-1.9-1.9c0-1,0.8-1.9,1.9-1.9S50.9,159.1,50.9,160.1z"/>
<path class="st7" d="M54.2,160.1c0,0.5-0.4,0.9-0.9,0.9c-0.5,0-0.9-0.4-0.9-0.9c0-0.5,0.4-0.9,0.9-0.9
	C53.7,159.2,54.2,159.7,54.2,160.1z"/>
<path class="st10" d="M154.6,147.1l19.7,6.3c0,0-2,1.4-2.7,2.3h-17.9L154.6,147.1z"/>
<path class="st11" d="M174.3,153.5l-19.7-6.3l0.4-4.3l22.9,9.1C177.9,152,176.2,152.4,174.3,153.5z"/>
<path class="st10" d="M89.4,144.6l60.7,1.8l-1.1,9.3H88.4L89.4,144.6z"/>
<path class="st3" d="M115.2,151.6c-7.2,0-12.9,5.8-12.9,12.9h26C128.1,157.4,122.3,151.6,115.2,151.6z"/>
<path class="st3" d="M113.4,153.7c-6-0.2-11.1,4.7-11.3,10.7c-0.2,6,4.7,11.1,10.7,11.3h3.6v-21.9H113.4z"/>
<path class="st8" d="M126.5,164.6c0-6-4.9-10.9-10.9-10.9c-6,0-10.9,4.9-10.9,10.9c0,6,4.9,10.9,10.9,10.9
	C121.7,175.5,126.5,170.7,126.5,164.6z"/>
<path class="st10" d="M115.7,169.9c3,0,5.3-2.4,5.3-5.3c0-3-2.4-5.3-5.3-5.3c-3,0-5.3,2.4-5.3,5.3
	C110.3,167.5,112.7,169.9,115.7,169.9z"/>
<path class="st11" d="M150,146.4l-60.7-1.8l0.4-5.6l60.8,2.8L150,146.4z"/>
<path class="st3" d="M181.1,151.6c-7.2,0-12.9,5.8-12.9,12.9h26C194,157.4,188.3,151.6,181.1,151.6z"/>
<path class="st3" d="M179.3,153.7c-6-0.2-11.1,4.7-11.3,10.7c-0.2,6,4.7,11.1,10.7,11.3h3.6v-21.9H179.3z"/>
<path class="st8" d="M192.4,164.6c0-6-4.9-10.9-10.9-10.9s-10.9,4.9-10.9,10.9c0,6,4.9,10.9,10.9,10.9
	C187.6,175.5,192.4,170.7,192.4,164.6z"/>
<path class="st10" d="M181.6,169.9c3,0,5.3-2.4,5.3-5.3c0-3-2.4-5.3-5.3-5.3c-3,0-5.3,2.4-5.3,5.3
	C176.3,167.5,178.6,169.9,181.6,169.9z"/>
<path class="st12" d="M52.3,100.7l-5.2,55h41.3l5.1-55H52.3z"/>
<path class="st13" d="M12.4,142.7h49.6H12.4z M33.8,117.4h44.4H33.8z M40.3,130.1h16.7H40.3z"/>
<path class="st5" d="M22,120.7c1.9,0,3.4-1.5,3.4-3.4c0-1.9-1.5-3.4-3.4-3.4s-3.4,1.5-3.4,3.4C18.6,119.1,20.1,120.7,22,120.7z"/>
<path class="st2" d="M182.8,137.8v-6.9c1,0,1.8,0.8,1.8,1.8v3.4C184.5,137,183.7,137.8,182.8,137.8z"/>
<path class="st2" d="M183.3,137.2l0.2,2.1h2.2l-1.4-2.6L183.3,137.2z"/>
<path class="st14" d="M149.3,179.2h50.9H149.3z M42.1,179.2h79.9H42.1z M131.4,179.2h8.3H131.4z"/>
<path class="st5" d="M31.3,133.4c1.9,0,3.4-1.5,3.4-3.4c0-1.9-1.5-3.4-3.4-3.4c-1.9,0-3.4,1.5-3.4,3.4
	C27.9,131.9,29.4,133.4,31.3,133.4z"/>
<path class="st2" d="M105.8,89.7c24.8,0,44.8-20.1,44.8-44.8c0-24.8-20.1-44.8-44.8-44.8C81,0,60.9,20.1,60.9,44.8
	C60.9,69.6,81,89.7,105.8,89.7z"/>
<path class="st15" d="M93.2,44h2.7c0.7,0,1.3-0.1,1.7-0.3c0.4-0.3,0.8-0.6,1-1.1c0.3-0.4,0.3-1,0.3-1.6c0-0.5-0.1-0.9-0.3-1.4
	c-0.2-0.4-0.5-0.8-0.9-1c-0.4-0.3-0.9-0.3-1.6-0.3c-0.4,0-0.8,0.1-1.3,0.3c-0.4,0.2-0.8,0.4-1,0.8c-0.3,0.3-0.4,0.8-0.4,1.2h-5.6
	c0-1.4,0.3-2.5,1.1-3.5c0.8-1,1.8-1.7,3-2.3c1.3-0.5,2.6-0.8,4-0.8c1.7,0,3.2,0.3,4.5,0.8c1.3,0.5,2.3,1.3,3,2.3
	c0.8,1,1.1,2.3,1.1,3.8c0,0.8-0.2,1.6-0.6,2.4c-0.4,0.8-0.9,1.4-1.6,1.9c-0.7,0.6-1.5,1-2.5,1.3c-0.9,0.3-1.9,0.4-3,0.4h-3.6
	L93.2,44L93.2,44z M93.2,48.1v-2.8h3.6c1.2,0,2.3,0.2,3.3,0.4c1,0.3,1.9,0.7,2.5,1.2c0.7,0.5,1.3,1.2,1.7,1.9
	c0.4,0.8,0.6,1.7,0.6,2.6c0,1.1-0.3,2.1-0.7,3c-0.4,0.8-1.1,1.6-1.9,2.2c-0.8,0.6-1.8,1.1-2.9,1.4c-1.1,0.3-2.3,0.4-3.6,0.4
	c-1,0-2-0.2-3-0.4c-1-0.3-1.9-0.7-2.7-1.3c-0.8-0.6-1.5-1.3-2-2.2c-0.5-0.9-0.8-1.9-0.8-3.2H93c0,0.5,0.2,0.9,0.4,1.4
	c0.3,0.4,0.7,0.8,1.1,1c0.5,0.3,1,0.3,1.5,0.3c0.7,0,1.3-0.1,1.8-0.3c0.5-0.3,0.8-0.6,1.1-1.1c0.3-0.4,0.3-0.9,0.3-1.4
	c0-0.8-0.2-1.4-0.4-1.9c-0.3-0.5-0.7-0.8-1.2-1.1c-0.5-0.3-1.1-0.3-1.9-0.3h-2.6V48.1z M124.4,44.2v4.4c0,1.7-0.2,3.2-0.6,4.5
	c-0.4,1.3-0.9,2.4-1.7,3.2c-0.8,0.8-1.6,1.4-2.6,1.9c-1,0.4-2.1,0.6-3.4,0.6c-1,0-1.9-0.1-2.8-0.3c-0.8-0.3-1.6-0.7-2.4-1.2
	c-0.7-0.5-1.3-1.2-1.8-2c-0.5-0.8-0.8-1.8-1.1-2.9c-0.3-1.1-0.4-2.4-0.4-3.7v-4.4c0-1.8,0.2-3.2,0.6-4.5c0.4-1.3,1-2.4,1.8-3.2
	c0.8-0.8,1.6-1.4,2.6-1.9s2.1-0.6,3.4-0.6c1,0,1.9,0.2,2.8,0.4c0.8,0.3,1.6,0.7,2.4,1.2c0.7,0.5,1.3,1.2,1.8,2
	c0.5,0.8,0.8,1.8,1.1,2.9C124.2,41.5,124.4,42.7,124.4,44.2z M118.8,49.2v-5.8c0-0.8-0.1-1.4-0.2-2c-0.1-0.6-0.2-1.1-0.3-1.4
	c-0.2-0.4-0.3-0.7-0.6-0.9c-0.3-0.3-0.5-0.4-0.8-0.5c-0.3-0.1-0.6-0.2-0.9-0.2c-0.4,0-0.8,0.1-1.2,0.3c-0.3,0.2-0.6,0.4-0.8,0.8
	c-0.3,0.4-0.4,0.9-0.6,1.6c-0.1,0.7-0.2,1.4-0.2,2.5v5.8c0,0.8,0,1.4,0.1,2c0.1,0.6,0.2,1.1,0.3,1.4c0.2,0.4,0.3,0.8,0.6,1
	c0.3,0.3,0.5,0.4,0.8,0.5c0.3,0.1,0.6,0.2,1,0.2c0.4,0,0.8-0.1,1.2-0.3c0.3-0.2,0.6-0.4,0.8-0.8c0.3-0.4,0.4-0.9,0.6-1.6
	C118.7,51,118.8,50.2,118.8,49.2z"/>
<path class="st15" d="M91.7,14.7v9h-2.4v-9H91.7z M90.6,18.6v1.9c-0.2,0.1-0.4,0.2-0.7,0.3c-0.3,0.1-0.6,0.2-0.9,0.2
	C88.7,21,88.4,21,88.2,21c-0.8,0-1.6-0.1-2.2-0.3c-0.6-0.3-1.1-0.6-1.4-1.1C84.2,19,84,18.4,84,17.6v-2.8h2.4v2.8
	c0,0.4,0.1,0.7,0.2,0.9c0.1,0.3,0.3,0.4,0.6,0.5c0.3,0.1,0.6,0.2,1,0.2c0.3,0,0.6,0,0.8-0.1c0.3-0.1,0.5-0.1,0.8-0.2
	C90,18.8,90.3,18.7,90.6,18.6z M97.6,23.9c-0.7,0-1.4-0.1-1.9-0.3c-0.6-0.3-1-0.5-1.4-0.9c-0.3-0.4-0.7-0.8-0.8-1.4
	s-0.3-1.1-0.3-1.7v-0.3c0-0.7,0.1-1.3,0.3-1.9c0.2-0.6,0.5-1,0.8-1.4c0.3-0.4,0.8-0.8,1.4-0.9c0.5-0.3,1.1-0.3,1.8-0.3
	c0.6,0,1.2,0.1,1.7,0.3c0.5,0.2,0.9,0.5,1.3,0.9c0.3,0.4,0.6,0.8,0.8,1.4c0.2,0.5,0.3,1.1,0.3,1.8v1h-7.1v-1.6H99v-0.2
	c0-0.3-0.1-0.6-0.2-0.8c-0.1-0.3-0.3-0.5-0.5-0.6c-0.3-0.1-0.5-0.3-0.9-0.3c-0.3,0-0.6,0.1-0.8,0.2c-0.3,0.2-0.4,0.3-0.6,0.6
	c-0.2,0.3-0.3,0.5-0.3,0.8c-0.1,0.3-0.1,0.7-0.1,1.1v0.3c0,0.3,0.1,0.7,0.2,1c0.1,0.3,0.3,0.6,0.4,0.8c0.2,0.3,0.4,0.4,0.7,0.5
	s0.6,0.2,0.9,0.2c0.4,0,0.8-0.1,1.2-0.3c0.3-0.2,0.7-0.4,0.9-0.8l1.2,1.3c-0.2,0.3-0.4,0.5-0.8,0.8c-0.3,0.3-0.7,0.4-1.2,0.6
	C98.7,23.8,98.2,23.9,97.6,23.9z M105.1,16.5v10.7h-2.4V14.7h2.2L105.1,16.5z M110.8,19.1v0.2c0,0.7-0.1,1.3-0.3,1.8
	c-0.2,0.6-0.3,1-0.7,1.4c-0.3,0.4-0.7,0.8-1.1,0.9c-0.4,0.3-0.9,0.3-1.5,0.3c-0.5,0-1-0.1-1.4-0.3c-0.4-0.3-0.8-0.5-1-0.9
	c-0.3-0.4-0.5-0.8-0.7-1.4c-0.2-0.5-0.3-1.1-0.3-1.7V19c0.1-0.7,0.3-1.3,0.3-1.8c0.2-0.5,0.4-1,0.7-1.4c0.3-0.4,0.6-0.7,1-0.9
	c0.4-0.3,0.8-0.3,1.4-0.3c0.6,0,1.1,0.1,1.5,0.3c0.4,0.3,0.8,0.5,1.1,0.9c0.3,0.4,0.5,0.8,0.7,1.4C110.7,17.9,110.8,18.4,110.8,19.1
	z M108.3,19.3v-0.2c0-0.3,0-0.8-0.1-1c-0.1-0.3-0.2-0.6-0.3-0.8c-0.2-0.3-0.3-0.4-0.5-0.6c-0.3-0.2-0.5-0.2-0.8-0.2
	c-0.3,0-0.6,0.1-0.8,0.2c-0.3,0.1-0.4,0.3-0.6,0.4c-0.2,0.2-0.3,0.4-0.3,0.7c-0.1,0.3-0.1,0.6-0.2,0.9v1.2c0,0.4,0.1,0.8,0.3,1.1
	c0.2,0.3,0.3,0.6,0.6,0.8c0.3,0.2,0.6,0.3,1,0.3c0.3,0,0.6-0.1,0.8-0.2c0.3-0.2,0.4-0.3,0.5-0.6c0.2-0.3,0.3-0.5,0.3-0.8
	C108.3,20.1,108.3,19.6,108.3,19.3z M116.3,23.9c-0.7,0-1.4-0.1-1.9-0.3c-0.6-0.3-1-0.5-1.4-0.9c-0.3-0.4-0.7-0.8-0.8-1.4
	c-0.2-0.5-0.3-1.1-0.3-1.7v-0.3c0-0.7,0.1-1.3,0.3-1.9c0.2-0.6,0.5-1,0.8-1.4c0.3-0.4,0.8-0.8,1.4-0.9c0.5-0.3,1.1-0.3,1.8-0.3
	c0.6,0,1.2,0.1,1.7,0.3c0.5,0.2,0.9,0.5,1.3,0.9c0.3,0.4,0.6,0.8,0.8,1.4c0.2,0.5,0.3,1.1,0.3,1.8v1H113v-1.6h4.7v-0.2
	c0-0.3-0.1-0.6-0.2-0.8c-0.1-0.3-0.3-0.5-0.5-0.6c-0.3-0.1-0.5-0.3-0.9-0.3c-0.3,0-0.6,0.1-0.8,0.2c-0.3,0.2-0.4,0.3-0.6,0.6
	c-0.2,0.3-0.3,0.5-0.3,0.8c-0.1,0.3-0.1,0.7-0.1,1.1v0.3c0,0.3,0.1,0.7,0.2,1c0.1,0.3,0.3,0.6,0.4,0.8c0.2,0.3,0.4,0.4,0.7,0.5
	s0.6,0.2,0.9,0.2c0.4,0,0.8-0.1,1.2-0.3c0.3-0.2,0.7-0.4,0.9-0.8l1.2,1.3c-0.2,0.3-0.4,0.5-0.8,0.8c-0.3,0.3-0.7,0.4-1.2,0.6
	C117.4,23.8,116.9,23.9,116.3,23.9z M125.3,19.5h-1.8v-1.1h1.3c0.3,0,0.5,0,0.7-0.1c0.2-0.1,0.3-0.2,0.4-0.3
	c0.1-0.2,0.1-0.3,0.1-0.5c0-0.2,0-0.3-0.1-0.5c-0.1-0.2-0.2-0.3-0.3-0.4c-0.2-0.1-0.4-0.2-0.8-0.2c-0.3,0-0.5,0-0.7,0.1
	c-0.2,0.1-0.3,0.2-0.5,0.3c-0.1,0.2-0.2,0.3-0.2,0.5h-2.4c0-0.6,0.2-1,0.5-1.4c0.3-0.4,0.8-0.7,1.3-0.9c0.5-0.3,1.2-0.3,1.8-0.3
	c0.6,0,1.1,0.1,1.5,0.2c0.4,0.1,0.8,0.3,1.2,0.5c0.3,0.3,0.6,0.5,0.8,0.8c0.2,0.3,0.3,0.7,0.3,1.1c0,0.3-0.1,0.6-0.3,0.8
	c-0.2,0.3-0.3,0.5-0.6,0.7c-0.3,0.2-0.6,0.3-1,0.5C126.2,19.4,125.8,19.5,125.3,19.5z M123.5,18.9h1.8c0.5,0,1,0.1,1.4,0.2
	c0.4,0.1,0.8,0.3,1,0.4c0.3,0.2,0.5,0.4,0.6,0.8c0.2,0.3,0.3,0.6,0.3,1c0,0.4-0.1,0.8-0.3,1.1c-0.2,0.3-0.4,0.6-0.8,0.8
	c-0.3,0.3-0.8,0.4-1.3,0.5c-0.5,0.1-1,0.2-1.5,0.2c-0.6,0-1.2-0.1-1.8-0.3c-0.6-0.2-1-0.5-1.4-0.9c-0.3-0.4-0.5-0.9-0.5-1.6h2.4
	c0,0.2,0.1,0.3,0.2,0.5s0.3,0.3,0.5,0.4c0.3,0.1,0.5,0.2,0.8,0.2c0.3,0,0.6-0.1,0.8-0.2c0.2-0.1,0.3-0.3,0.4-0.4
	c0.1-0.2,0.2-0.3,0.2-0.5c0-0.3-0.1-0.5-0.2-0.7c-0.1-0.2-0.3-0.3-0.4-0.3c-0.2-0.1-0.4-0.1-0.8-0.1h-1.4V18.9z"/>
<path class="st15" d="M80.7,68l1.6,2.9L84,68h2.4l-2.6,4.4l2.7,4.6h-2.4l-1.7-3l-1.7,3h-2.4l2.7-4.6L78.4,68H80.7z M92,73.2h-2.8
	l0-1.5h2.3c0.3,0,0.6,0,0.9-0.1c0.2-0.1,0.4-0.2,0.5-0.3C93,71.1,93,71,93,70.8c0-0.2,0-0.3-0.1-0.5c-0.1-0.1-0.2-0.2-0.3-0.3
	c-0.1-0.1-0.3-0.1-0.5-0.2c-0.2,0-0.4-0.1-0.7-0.1H90V77h-2.2v-9h3.7c0.6,0,1.1,0.1,1.6,0.2c0.5,0.1,0.9,0.3,1.2,0.5
	c0.3,0.2,0.6,0.5,0.7,0.8c0.2,0.3,0.3,0.7,0.3,1.1c0,0.3-0.1,0.5-0.2,0.8c-0.1,0.2-0.3,0.5-0.5,0.6c-0.2,0.2-0.5,0.3-0.9,0.5
	c-0.3,0.1-0.7,0.2-1.2,0.2L92,73.2z M92,77h-3.4l0.8-1.7H92c0.3,0,0.6,0,0.8-0.1c0.2-0.1,0.4-0.2,0.5-0.4c0.1-0.2,0.2-0.3,0.2-0.6
	c0-0.2,0-0.4-0.1-0.6c-0.1-0.2-0.2-0.3-0.5-0.4c-0.2-0.1-0.5-0.1-0.8-0.1h-2.3l0-1.5h2.6l0.6,0.6c0.6,0,1.1,0.2,1.5,0.4
	c0.4,0.2,0.7,0.5,0.9,0.8c0.2,0.3,0.3,0.6,0.3,1c0,0.4-0.1,0.8-0.2,1.1c-0.2,0.3-0.4,0.6-0.7,0.8c-0.3,0.2-0.7,0.4-1.1,0.5
	C93.1,76.9,92.6,77,92,77z M99.5,73.9l3.3-5.9h2.2v9h-2.2v-5.9L99.5,77h-2.2v-9h2.2V73.9z M113,68v1.7h-4.4V68H113z M114.6,68v9
	h-2.2v-9H114.6z M108,68h2.2l-0.2,4.5c0,0.7-0.1,1.2-0.2,1.7c-0.1,0.5-0.2,0.9-0.4,1.3c-0.2,0.3-0.4,0.6-0.6,0.9
	c-0.2,0.2-0.5,0.4-0.8,0.5c-0.3,0.1-0.7,0.1-1,0.1h-0.7l0-1.8l0.3,0c0.2,0,0.4-0.1,0.5-0.2c0.1-0.1,0.3-0.2,0.4-0.4
	c0.1-0.2,0.2-0.4,0.3-0.6c0.1-0.3,0.1-0.6,0.2-0.9c0-0.4,0.1-0.8,0.1-1.2L108,68z M118.8,73.9l3.3-5.9h2.2v9h-2.2v-5.9l-3.3,5.9
	h-2.2v-9h2.2V73.9z M132.4,71.7v1.7h-4.6v-1.7H132.4z M128.5,68v9h-2.2v-9H128.5z M134,68v9h-2.2v-9H134z"/>
</svg>
