<svg version="1.1" xmlns="http://www.w3.org/2000/svg" xmlns:xlink="http://www.w3.org/1999/xlink" width="630" height="390" viewBox="0 0 630 390">
<style type="text/css">
	.st0{fill:#EAF1FC;}
	.st1{fill:#F8F8FF;}
	.st2{fill:#CDE4F7;}
	.st3{fill:#E9EDF4;}
	.st4{fill:#FFFFFF;}
	.st5{fill:#ECF7FE;}
	.st6{fill:#0F222C;}
	.st7{fill:#2C6292;}
	.st8{fill:#1D4259;}
	.st9{fill:#448DCE;}
	.st10{fill:#3270A7;}
	.st11{fill:#222846;}
	.st12{fill:#FFDA35;}
	.st13{fill:#0B2B46;}
	.st14{fill:#FF524F;}
	.st15{fill:#F2F2F2;}
	.st16{fill:#F19100;}
	.st17{fill:#1A568C;}
	.st18{fill:#2A6EAC;}
	.st19{fill:#3679B6;}
	.st20{fill:#02819F;}
	.st21{fill:#05616B;}
	.st22{fill:#F09976;}
	.st23{fill:#E8815F;}
	.st24{fill:#047487;}
	.st25{fill:#FFAE0A;}
	.st26{fill:#FFCB24;}
	.st27{fill:#FFEB47;}
</style>
<path class="st0" d="M315,374.3c172.9,0,313-20.9,313-46.6S487.9,281,315,281S2,301.9,2,327.6S142.1,374.3,315,374.3z"/>
<path class="st1" d="M575.2,314.6c40.5-78,62.8-227.2-24.9-276.7C492.9,5.5,433.1,47.1,371.7,49c-48.2,1.6-94.6-33.7-138-43.7
	C119.8-21.2-59.3,47.5,19.4,314.6C216.4,314.1,378.2,315.2,575.2,314.6z"/>
<path class="st2" d="M379,104.6h118.8v209.5H379V104.6z"/>
<path class="st3" d="M379,104.6h37v209.5h-37V104.6z"/>
<path class="st4" d="M483.5,110.5h5.5v6.3h-5.5V110.5z M473.4,110.5h5.5v6.3h-5.5V110.5z M463.3,110.5h5.5v6.3h-5.5V110.5z
	 M453.3,110.5h5.5v6.3h-5.5V110.5z M443.2,110.5h5.5v6.3h-5.5V110.5z M433.1,110.5h5.5v6.3h-5.5V110.5z M423,110.5h5.5v6.3H423
	V110.5z M404.5,110.5h5.5v6.3h-5.5V110.5z M394.5,110.5h5.5v6.3h-5.5V110.5z M384.4,110.5h5.5v6.3h-5.5V110.5z M483.5,123.7h5.5v6.3
	h-5.5V123.7z M473.4,123.7h5.5v6.3h-5.5V123.7z M463.3,123.7h5.5v6.3h-5.5V123.7z M453.3,123.7h5.5v6.3h-5.5V123.7z M443.2,123.7
	h5.5v6.3h-5.5V123.7z M433.1,123.7h5.5v6.3h-5.5V123.7z M423,123.7h5.5v6.3H423V123.7z M404.5,123.7h5.5v6.3h-5.5V123.7z
	 M394.5,123.7h5.5v6.3h-5.5V123.7z M384.4,123.7h5.5v6.3h-5.5V123.7z M483.5,136.8h5.5v6.3h-5.5V136.8z M473.4,136.8h5.5v6.3h-5.5
	V136.8z M463.3,136.8h5.5v6.3h-5.5V136.8z M453.3,136.8h5.5v6.3h-5.5V136.8z M443.2,136.8h5.5v6.3h-5.5V136.8z M433.1,136.8h5.5v6.3
	h-5.5V136.8z M423,136.8h5.5v6.3H423V136.8z M404.5,136.8h5.5v6.3h-5.5V136.8z M394.5,136.8h5.5v6.3h-5.5V136.8z M384.4,136.8h5.5
	v6.3h-5.5V136.8z M483.5,149.9h5.5v6.3h-5.5V149.9z M473.4,149.9h5.5v6.3h-5.5V149.9z M463.3,149.9h5.5v6.3h-5.5V149.9z
	 M453.3,149.9h5.5v6.3h-5.5V149.9z M443.2,149.9h5.5v6.3h-5.5V149.9z M433.1,149.9h5.5v6.3h-5.5V149.9z M423,149.9h5.5v6.3H423
	V149.9z M404.5,149.9h5.5v6.3h-5.5V149.9z M394.5,149.9h5.5v6.3h-5.5V149.9z M384.4,149.9h5.5v6.3h-5.5V149.9z M483.5,163.1h5.5v6.3
	h-5.5V163.1z M473.4,163.1h5.5v6.3h-5.5V163.1z M463.3,163.1h5.5v6.3h-5.5V163.1z M453.3,163.1h5.5v6.3h-5.5V163.1z M443.2,163.1
	h5.5v6.3h-5.5V163.1z M433.1,163.1h5.5v6.3h-5.5V163.1z M423,163.1h5.5v6.3H423V163.1z M404.5,163.1h5.5v6.3h-5.5V163.1z
	 M394.5,163.1h5.5v6.3h-5.5V163.1z M384.4,163.1h5.5v6.3h-5.5V163.1z M483.5,176.2h5.5v6.3h-5.5V176.2z M473.4,176.2h5.5v6.3h-5.5
	V176.2z M463.3,176.2h5.5v6.3h-5.5V176.2z M453.3,176.2h5.5v6.3h-5.5V176.2z M443.2,176.2h5.5v6.3h-5.5V176.2z M433.1,176.2h5.5v6.3
	h-5.5V176.2z M423,176.2h5.5v6.3H423V176.2z M404.5,176.2h5.5v6.3h-5.5V176.2z M394.5,176.2h5.5v6.3h-5.5V176.2z M384.4,176.2h5.5
	v6.3h-5.5V176.2z M483.5,189.4h5.5v6.3h-5.5V189.4z M473.4,189.4h5.5v6.3h-5.5V189.4z M463.3,189.4h5.5v6.3h-5.5V189.4z
	 M453.3,189.4h5.5v6.3h-5.5V189.4z M443.2,189.4h5.5v6.3h-5.5V189.4z M433.1,189.4h5.5v6.3h-5.5V189.4z M423,189.4h5.5v6.3H423
	V189.4z M404.5,189.4h5.5v6.3h-5.5V189.4z M394.5,189.4h5.5v6.3h-5.5V189.4z M384.4,189.4h5.5v6.3h-5.5V189.4z M483.5,202.5h5.5v6.3
	h-5.5V202.5z M473.4,202.5h5.5v6.3h-5.5V202.5z M463.3,202.5h5.5v6.3h-5.5V202.5z M453.3,202.5h5.5v6.3h-5.5V202.5z M443.2,202.5
	h5.5v6.3h-5.5V202.5z M433.1,202.5h5.5v6.3h-5.5V202.5z M423,202.5h5.5v6.3H423V202.5z M404.5,202.5h5.5v6.3h-5.5V202.5z
	 M394.5,202.5h5.5v6.3h-5.5V202.5z M384.4,202.5h5.5v6.3h-5.5V202.5z M483.5,215.6h5.5v6.3h-5.5V215.6z M473.4,215.6h5.5v6.3h-5.5
	V215.6z M463.3,215.6h5.5v6.3h-5.5V215.6z M453.3,215.6h5.5v6.3h-5.5V215.6z M443.2,215.6h5.5v6.3h-5.5V215.6z M433.1,215.6h5.5v6.3
	h-5.5V215.6z M423,215.6h5.5v6.3H423V215.6z M404.5,215.6h5.5v6.3h-5.5V215.6z M394.5,215.6h5.5v6.3h-5.5V215.6z M384.4,215.6h5.5
	v6.3h-5.5V215.6z M483.5,228.8h5.5v6.3h-5.5V228.8z M473.4,228.8h5.5v6.3h-5.5V228.8z M463.3,228.8h5.5v6.3h-5.5V228.8z
	 M453.3,228.8h5.5v6.3h-5.5V228.8z M443.2,228.8h5.5v6.3h-5.5V228.8z M433.1,228.8h5.5v6.3h-5.5V228.8z M423,228.8h5.5v6.3H423
	V228.8z M404.5,228.8h5.5v6.3h-5.5V228.8z M384.4,228.8h5.5v6.3h-5.5V228.8z M483.5,241.9h5.5v6.3h-5.5V241.9z M473.4,241.9h5.5v6.3
	h-5.5V241.9z M463.3,241.9h5.5v6.3h-5.5V241.9z M453.3,241.9h5.5v6.3h-5.5V241.9z M443.2,241.9h5.5v6.3h-5.5V241.9z M433.1,241.9
	h5.5v6.3h-5.5V241.9z M423,241.9h5.5v6.3H423V241.9z M404.5,241.9h5.5v6.3h-5.5V241.9z M384.4,241.9h5.5v6.3h-5.5V241.9z
	 M483.5,255.1h5.5v6.3h-5.5V255.1z M473.4,255.1h5.5v6.3h-5.5V255.1z M463.3,255.1h5.5v6.3h-5.5V255.1z M453.3,255.1h5.5v6.3h-5.5
	V255.1z M443.2,255.1h5.5v6.3h-5.5V255.1z M433.1,255.1h5.5v6.3h-5.5V255.1z M423,255.1h5.5v6.3H423V255.1z M404.5,255.1h5.5v6.3
	h-5.5V255.1z M384.4,255.1h5.5v6.3h-5.5V255.1z M483.5,268.2h5.5v6.3h-5.5V268.2z M473.4,268.2h5.5v6.3h-5.5V268.2z M463.3,268.2
	h5.5v6.3h-5.5V268.2z M453.3,268.2h5.5v6.3h-5.5V268.2z M443.2,268.2h5.5v6.3h-5.5V268.2z M433.1,268.2h5.5v6.3h-5.5V268.2z
	 M423,268.2h5.5v6.3H423V268.2z M404.5,268.2h5.5v6.3h-5.5V268.2z M384.4,268.2h5.5v6.3h-5.5V268.2z M483.5,281.4h5.5v6.3h-5.5
	V281.4z M473.4,281.4h5.5v6.3h-5.5V281.4z M463.3,281.4h5.5v6.3h-5.5V281.4z M453.3,281.4h5.5v6.3h-5.5V281.4z M443.2,281.4h5.5v6.3
	h-5.5V281.4z M433.1,281.4h5.5v6.3h-5.5V281.4z M423,281.4h5.5v6.3H423V281.4z M404.5,281.4h5.5v6.3h-5.5V281.4z M384.4,281.4h5.5
	v6.3h-5.5V281.4z M483.5,294.5h5.5v6.3h-5.5V294.5z M473.4,294.5h5.5v6.3h-5.5V294.5z M463.3,294.5h5.5v6.3h-5.5V294.5z
	 M453.3,294.5h5.5v6.3h-5.5V294.5z M443.2,294.5h5.5v6.3h-5.5V294.5z M433.1,294.5h5.5v6.3h-5.5V294.5z M423,294.5h5.5v6.3H423
	V294.5z M404.5,294.5h5.5v6.3h-5.5V294.5z M394.7,228.8h5.5v6.3h-5.5V228.8z M394.7,241.9h5.5v6.3h-5.5V241.9z M394.7,255.1h5.5v6.3
	h-5.5V255.1z M394.7,268.2h5.5v6.3h-5.5V268.2z M394.7,281.4h5.5v6.3h-5.5V281.4z M394.7,294.5h5.5v6.3h-5.5V294.5z M384.4,294.5
	h5.5v6.3h-5.5V294.5z"/>
<path class="st2" d="M285.8,54h109.7v260.4H285.8V54z"/>
<path class="st3" d="M285.8,54H320v260.4h-34.2V54z"/>
<path class="st4" d="M383.3,60.3h5.1v44.5h-5.1V60.3z M374,60.3h5.1v44.5H374V60.3z M364.7,60.3h5.1v44.5h-5.1V60.3z M355.4,60.3
	h5.1v44.5h-5.1V60.3z M346.1,60.3h5.1v44.5h-5.1V60.3z M336.8,60.3h5.1v44.5h-5.1V60.3z M327.5,60.3h5.1v44.5h-5.1V60.3z
	 M310.4,60.3h5.1v44.5h-5.1V60.3z M301.1,60.3h5.1v44.5h-5.1V60.3z M291.8,60.3h5.1v44.5h-5.1V60.3z M383.3,110.6h5.1v44.5h-5.1
	V110.6z M374,110.6h5.1v44.5H374V110.6z M364.7,110.6h5.1v44.5h-5.1V110.6z M355.4,110.6h5.1v44.5h-5.1V110.6z M346.1,110.6h5.1
	v44.5h-5.1V110.6z M336.8,110.6h5.1v44.5h-5.1V110.6z M327.5,110.6h5.1v44.5h-5.1V110.6z M310.4,110.6h5.1v44.5h-5.1V110.6z
	 M301.1,110.6h5.1v44.5h-5.1V110.6z M291.8,110.6h5.1v44.5h-5.1V110.6z M383.3,160.9h5.1v44.5h-5.1V160.9z M374,160.9h5.1v44.5H374
	V160.9z M364.7,160.9h5.1v44.5h-5.1V160.9z M355.4,160.9h5.1v44.5h-5.1V160.9z M346.1,160.9h5.1v44.5h-5.1V160.9z M336.8,160.9h5.1
	v44.5h-5.1V160.9z M327.5,160.9h5.1v44.5h-5.1V160.9z M310.4,160.9h5.1v44.5h-5.1V160.9z M301.1,160.9h5.1v44.5h-5.1V160.9z
	 M291.8,160.9h5.1v44.5h-5.1V160.9z M383.3,211.2h5.1v44.5h-5.1V211.2z M374,211.2h5.1v44.5H374V211.2z M364.7,211.2h5.1v44.5h-5.1
	V211.2z M355.4,211.2h5.1v44.5h-5.1V211.2z M346.1,211.2h5.1v44.5h-5.1V211.2z M336.8,211.2h5.1v44.5h-5.1V211.2z M327.5,211.2h5.1
	v44.5h-5.1V211.2z M310.4,211.2h5.1v44.5h-5.1V211.2z M301.1,211.2h5.1v44.5h-5.1V211.2z M291.8,211.2h5.1v44.5h-5.1V211.2z
	 M383.3,261.5h5.1V306h-5.1V261.5z M374,261.5h5.1V306H374V261.5z M364.7,261.5h5.1V306h-5.1V261.5z M355.4,261.5h5.1V306h-5.1
	V261.5z M346.1,261.5h5.1V306h-5.1V261.5z M336.8,261.5h5.1V306h-5.1V261.5z M327.5,261.5h5.1V306h-5.1V261.5z M310.4,261.5h5.1V306
	h-5.1V261.5z M301.1,261.5h5.1V306h-5.1V261.5z M291.8,261.5h5.1V306h-5.1V261.5z"/>
<path class="st2" d="M27.7,79.6H138v234.5H27.7V79.6z"/>
<path class="st3" d="M27.7,79.6h34.4v234.5H27.7V79.6z"/>
<path class="st4" d="M125.9,90.8h5.1v25.9h-5.1V90.8z M116.6,90.8h5.1v25.9h-5.1V90.8z M107.3,90.8h5.1v25.9h-5.1V90.8z M98,90.8
	h5.1v25.9H98V90.8z M88.8,90.8h5.1v25.9h-5.1V90.8z M79.5,90.8h5.1v25.9h-5.1V90.8z M70.3,90.8h5.1v25.9h-5.1V90.8z M53.3,90.8h5.1
	v25.9h-5.1V90.8z M44,90.8h5.1v25.9H44V90.8z M34.8,90.8h5.1v25.9h-5.1V90.8z M125.9,120h5.1V146h-5.1V120z M116.6,120h5.1V146h-5.1
	V120z M107.3,120h5.1V146h-5.1V120z M98,120h5.1V146H98V120z M88.8,120h5.1V146h-5.1V120z M79.5,120h5.1V146h-5.1V120z M70.3,120
	h5.1V146h-5.1V120z M53.3,120h5.1V146h-5.1V120z M44,120h5.1V146H44V120z M34.8,120h5.1V146h-5.1V120z M125.9,149.3h5.1v25.9h-5.1
	V149.3z M116.6,149.3h5.1v25.9h-5.1V149.3z M107.3,149.3h5.1v25.9h-5.1V149.3z M98,149.3h5.1v25.9H98V149.3z M88.8,149.3h5.1v25.9
	h-5.1V149.3z M79.5,149.3h5.1v25.9h-5.1V149.3z M70.3,149.3h5.1v25.9h-5.1V149.3z M53.3,149.3h5.1v25.9h-5.1V149.3z M44,149.3h5.1
	v25.9H44V149.3z M34.8,149.3h5.1v25.9h-5.1V149.3z M116.6,178.6h5.1v25.9h-5.1V178.6z M107.3,178.6h5.1v25.9h-5.1V178.6z M98,178.6
	h5.1v25.9H98V178.6z M88.8,178.6h5.1v25.9h-5.1V178.6z M79.5,178.6h5.1v25.9h-5.1V178.6z M70.3,178.6h5.1v25.9h-5.1V178.6z
	 M53.3,178.6h5.1v25.9h-5.1V178.6z M44,178.6h5.1v25.9H44V178.6z M34.8,178.6h5.1v25.9h-5.1V178.6z M116.6,207.9h5.1v25.9h-5.1
	V207.9z M107.3,207.9h5.1v25.9h-5.1V207.9z M98,207.9h5.1v25.9H98V207.9z M88.8,207.9h5.1v25.9h-5.1V207.9z M79.5,207.9h5.1v25.9
	h-5.1V207.9z M70.3,207.9h5.1v25.9h-5.1V207.9z M53.3,207.9h5.1v25.9h-5.1V207.9z M44,207.9h5.1v25.9H44V207.9z M34.8,207.9h5.1
	v25.9h-5.1V207.9z M116.6,237.2h5.1v25.9h-5.1V237.2z M107.3,237.2h5.1v25.9h-5.1V237.2z M98,237.2h5.1v25.9H98V237.2z M88.8,237.2
	h5.1v25.9h-5.1V237.2z M79.5,237.2h5.1v25.9h-5.1V237.2z M70.3,237.2h5.1v25.9h-5.1V237.2z M53.3,237.2h5.1v25.9h-5.1V237.2z
	 M44,237.2h5.1v25.9H44V237.2z M34.8,237.2h5.1v25.9h-5.1V237.2z M116.6,266.4h5.1v25.9h-5.1V266.4z M107.3,266.4h5.1v25.9h-5.1
	V266.4z M98,266.4h5.1v25.9H98V266.4z M88.8,266.4h5.1v25.9h-5.1V266.4z M79.5,266.4h5.1v25.9h-5.1V266.4z M70.3,266.4h5.1v25.9
	h-5.1V266.4z M53.3,266.4h5.1v25.9h-5.1V266.4z M44,266.4h5.1v25.9H44V266.4z M34.8,266.4h5.1v25.9h-5.1V266.4z"/>
<path class="st2" d="M230.8,99h76.5v215h-76.5V99z"/>
<path class="st5" d="M230.8,99h23.8v215h-23.8V99z"/>
<path class="st4" d="M230.8,110.8h76.5v1.8h-76.5V110.8z M230.8,125h76.5v1.8h-76.5V125z M230.8,139.2h76.5v1.8h-76.5V139.2z
	 M230.8,153.4h76.5v1.8h-76.5V153.4z M230.8,167.6h76.5v1.8h-76.5V167.6z M230.8,181.8h76.5v1.8h-76.5V181.8z M230.8,196h76.5v1.8
	h-76.5V196z M230.8,210.2h76.5v1.8h-76.5V210.2z M230.8,224.3h76.5v1.8h-76.5V224.3z M230.8,238.6h76.5v1.8h-76.5V238.6z
	 M230.8,252.7h76.5v1.8h-76.5V252.7z M230.8,267h76.5v1.8h-76.5V267z M230.8,281.1h76.5v1.8h-76.5V281.1z M230.8,295.4h76.5v1.8
	h-76.5V295.4z"/>
<path class="st2" d="M493,141.8h120.1v172.3H493V141.8z"/>
<path class="st3" d="M496.9,141.8h37.4v172.3h-37.4V141.8z"/>
<path class="st4" d="M493,151.3h120.1v1.5H493V151.3z M493,162.6h120.1v1.5H493V162.6z M493,174h120.1v1.5H493V174z M493,185.3
	h120.1v1.5H493V185.3z M493,196.7h120.1v1.5H493V196.7z M493,208.1h120.1v1.5H493V208.1z M493,219.5h120.1v1.5H493V219.5z
	 M493,230.9h120.1v1.5H493V230.9z M493,242.2h120.1v1.5H493V242.2z M493,253.6h120.1v1.5H493V253.6z M493,264.9h120.1v1.5H493V264.9
	z M493,276.3h120.1v1.5H493V276.3z M493,287.7h120.1v1.5H493V287.7z M493,299.1h120.1v1.5H493V299.1z"/>
<path class="st2" d="M106.1,16h140.2v298.1H106.1V16z"/>
<path class="st5" d="M106.1,16h43.7v298.1h-43.7V16z"/>
<path class="st4" d="M230.8,30.1h6.4v8.6h-6.4V30.1z M219,30.1h6.4v8.6H219V30.1z M207.3,30.1h6.4v8.6h-6.4V30.1z M195.5,30.1h6.4
	v8.6h-6.4V30.1z M183.7,30.1h6.4v8.6h-6.4V30.1z M172,30.1h6.4v8.6H172V30.1z M160.2,30.1h6.4v8.6h-6.4V30.1z M138.6,30.1h6.4v8.6
	h-6.4V30.1z M126.8,30.1h6.4v8.6h-6.4V30.1z M115,30.1h6.4v8.6H115V30.1z M230.8,48.1h6.4v8.6h-6.4V48.1z M219,48.1h6.4v8.6H219
	V48.1z M207.3,48.1h6.4v8.6h-6.4V48.1z M195.5,48.1h6.4v8.6h-6.4V48.1z M183.7,48.1h6.4v8.6h-6.4V48.1z M172,48.1h6.4v8.6H172V48.1z
	 M160.2,48.1h6.4v8.6h-6.4V48.1z M138.6,48.1h6.4v8.6h-6.4V48.1z M126.8,48.1h6.4v8.6h-6.4V48.1z M115,48.1h6.4v8.6H115V48.1z
	 M230.8,66.1h6.4v8.6h-6.4V66.1z M219,66.1h6.4v8.6H219V66.1z M207.3,66.1h6.4v8.6h-6.4V66.1z M195.5,66.1h6.4v8.6h-6.4V66.1z
	 M183.7,66.1h6.4v8.6h-6.4V66.1z M172,66.1h6.4v8.6H172V66.1z M160.2,66.1h6.4v8.6h-6.4V66.1z M138.6,66.1h6.4v8.6h-6.4V66.1z
	 M126.8,66.1h6.4v8.6h-6.4V66.1z M115,66.1h6.4v8.6H115V66.1z M230.8,84.1h6.4v8.6h-6.4V84.1z M219,84.1h6.4v8.6H219V84.1z
	 M207.3,84.1h6.4v8.6h-6.4V84.1z M195.5,84.1h6.4v8.6h-6.4V84.1z M183.7,84.1h6.4v8.6h-6.4V84.1z M172,84.1h6.4v8.6H172V84.1z
	 M160.2,84.1h6.4v8.6h-6.4V84.1z M138.6,84.1h6.4v8.6h-6.4V84.1z M126.8,84.1h6.4v8.6h-6.4V84.1z M115,84.1h6.4v8.6H115V84.1z
	 M230.8,102h6.4v8.6h-6.4V102z M219,102h6.4v8.6H219V102z M207.3,102h6.4v8.6h-6.4V102z M195.5,102h6.4v8.6h-6.4V102z M183.7,102
	h6.4v8.6h-6.4V102z M172,102h6.4v8.6H172V102z M160.2,102h6.4v8.6h-6.4V102z M138.6,102h6.4v8.6h-6.4V102z M126.8,102h6.4v8.6h-6.4
	V102z M115,102h6.4v8.6H115V102z M230.8,120h6.4v8.6h-6.4V120z M219,120h6.4v8.6H219V120z M207.3,120h6.4v8.6h-6.4V120z M195.5,120
	h6.4v8.6h-6.4V120z M183.7,120h6.4v8.6h-6.4V120z M172,120h6.4v8.6H172V120z M160.2,120h6.4v8.6h-6.4V120z M138.6,120h6.4v8.6h-6.4
	V120z M126.8,120h6.4v8.6h-6.4V120z M115,120h6.4v8.6H115V120z M230.8,138h6.4v8.6h-6.4V138z M219,138h6.4v8.6H219V138z M207.3,138
	h6.4v8.6h-6.4V138z M195.5,138h6.4v8.6h-6.4V138z M183.7,138h6.4v8.6h-6.4V138z M172,138h6.4v8.6H172V138z M160.2,138h6.4v8.6h-6.4
	V138z M138.6,138h6.4v8.6h-6.4V138z M126.8,138h6.4v8.6h-6.4V138z M115,138h6.4v8.6H115V138z M230.8,156h6.4v8.6h-6.4V156z M219,156
	h6.4v8.6H219V156z M207.3,156h6.4v8.6h-6.4V156z M195.5,156h6.4v8.6h-6.4V156z M183.7,156h6.4v8.6h-6.4V156z M172,156h6.4v8.6H172
	V156z M160.2,156h6.4v8.6h-6.4V156z M138.6,156h6.4v8.6h-6.4V156z M126.8,156h6.4v8.6h-6.4V156z M115,156h6.4v8.6H115V156z
	 M230.8,173.9h6.4v8.6h-6.4V173.9z M219,173.9h6.4v8.6H219V173.9z M207.3,173.9h6.4v8.6h-6.4V173.9z M195.5,173.9h6.4v8.6h-6.4
	V173.9z M183.7,173.9h6.4v8.6h-6.4V173.9z M172,173.9h6.4v8.6H172V173.9z M160.2,173.9h6.4v8.6h-6.4V173.9z M138.6,173.9h6.4v8.6
	h-6.4V173.9z M126.8,173.9h6.4v8.6h-6.4V173.9z M115,173.9h6.4v8.6H115V173.9z M230.8,191.9h6.4v8.6h-6.4V191.9z M219,191.9h6.4v8.6
	H219V191.9z M207.3,191.9h6.4v8.6h-6.4V191.9z M195.5,191.9h6.4v8.6h-6.4V191.9z M183.7,191.9h6.4v8.6h-6.4V191.9z M172,191.9h6.4
	v8.6H172V191.9z M160.2,191.9h6.4v8.6h-6.4V191.9z M138.6,191.9h6.4v8.6h-6.4V191.9z M115,191.9h6.4v8.6H115V191.9z M230.8,209.9
	h6.4v8.6h-6.4V209.9z M219,209.9h6.4v8.6H219V209.9z M207.3,209.9h6.4v8.6h-6.4V209.9z M195.5,209.9h6.4v8.6h-6.4V209.9z
	 M183.7,209.9h6.4v8.6h-6.4V209.9z M172,209.9h6.4v8.6H172V209.9z M160.2,209.9h6.4v8.6h-6.4V209.9z M138.6,209.9h6.4v8.6h-6.4
	V209.9z M115,209.9h6.4v8.6H115V209.9z M230.8,227.9h6.4v8.6h-6.4V227.9z M219,227.9h6.4v8.6H219V227.9z M207.3,227.9h6.4v8.6h-6.4
	V227.9z M195.5,227.9h6.4v8.6h-6.4V227.9z M183.7,227.9h6.4v8.6h-6.4V227.9z M172,227.9h6.4v8.6H172V227.9z M160.2,227.9h6.4v8.6
	h-6.4V227.9z M138.6,227.9h6.4v8.6h-6.4V227.9z M115,227.9h6.4v8.6H115V227.9z M230.8,245.8h6.4v8.6h-6.4V245.8z M219,245.8h6.4v8.6
	H219V245.8z M207.3,245.8h6.4v8.6h-6.4V245.8z M195.5,245.8h6.4v8.6h-6.4V245.8z M183.7,245.8h6.4v8.6h-6.4V245.8z M172,245.8h6.4
	v8.6H172V245.8z M160.2,245.8h6.4v8.6h-6.4V245.8z M138.6,245.8h6.4v8.6h-6.4V245.8z M115,245.8h6.4v8.6H115V245.8z M230.8,263.8
	h6.4v8.6h-6.4V263.8z M219,263.8h6.4v8.6H219V263.8z M207.3,263.8h6.4v8.6h-6.4V263.8z M195.5,263.8h6.4v8.6h-6.4V263.8z
	 M183.7,263.8h6.4v8.6h-6.4V263.8z M172,263.8h6.4v8.6H172V263.8z M160.2,263.8h6.4v8.6h-6.4V263.8z M138.6,263.8h6.4v8.6h-6.4
	V263.8z M115,263.8h6.4v8.6H115V263.8z M230.8,281.8h6.4v8.6h-6.4V281.8z M219,281.8h6.4v8.6H219V281.8z M207.3,281.8h6.4v8.6h-6.4
	V281.8z M195.5,281.8h6.4v8.6h-6.4V281.8z M183.7,281.8h6.4v8.6h-6.4V281.8z M172,281.8h6.4v8.6H172V281.8z M160.2,281.8h6.4v8.6
	h-6.4V281.8z M138.6,281.8h6.4v8.6h-6.4V281.8z M127.1,191.9h6.4v8.6h-6.4V191.9z M127.1,209.9h6.4v8.6h-6.4V209.9z M127.1,227.9
	h6.4v8.6h-6.4V227.9z M127.1,245.8h6.4v8.6h-6.4V245.8z M127.1,263.8h6.4v8.6h-6.4V263.8z M127.1,281.8h6.4v8.6h-6.4V281.8z
	 M115,281.8h6.4v8.6H115V281.8z"/>
<path class="st5" d="M212,16h-72V6.9c0-3.8,2.9-6.9,6.6-6.9h58.8c3.6,0,6.6,3.1,6.6,6.9V16z"/>
<path class="st0" d="M590.7,233.1c-3.4-0.6-5.7,2.9-6.4,6c-0.3,1.7-0.3,3.6-1.7,4.6c-0.6,0.4-1.2,0.8-1.9,1c-3.7,1.9-3.9,5.5-4,9.1
	c0.1,0.6-0.1,1.2-0.3,1.7c-0.3,0.6-1,0.9-1.4,1.5c-0.3,0.4-0.4,0.8-0.5,1.3c-0.9,4.1-0.5,7.8-0.4,11.9c0.2,29,16.1,27.6,16.1,27.6
	h0.6c3.8-0.2,7.3-2.5,9.6-5.5c2.3-3,3.7-6.9,4.4-10.5c0.6-2.8,0.8-5.5,1-8.4c0.2-3,0.8-5.8-0.3-8.8c-0.6-1.3-1.3-2.6-1.4-4.1
	c0-1.6,1-3,1-4.6c0-0.9-0.2-1.9-0.6-2.8c-0.8-2.2-1.7-4.4-2.8-6.4c-0.9-1.6-3-2.4-3.5-4.2c-0.1-0.8-0.2-1.5-0.1-2.3
	c-0.1-3.7-3.3-6.3-6.7-7.2H590.7z"/>
<path class="st4" d="M587.8,327.7h3.7l-1.2-46.5l-0.6-1.1L587.8,327.7z"/>
<path class="st6" d="M87.8,315.3c0-5.7,1.7-11.3,4.9-16.1c3.2-4.8,7.7-8.5,13-10.6c5.3-2.2,11.1-2.8,16.8-1.6
	c5.6,1.1,10.8,3.9,14.9,7.9c4.1,4,6.8,9.2,7.9,14.8c1.1,5.6,0.5,11.4-1.7,16.7c-2.2,5.3-5.9,9.8-10.7,13c-4.8,3.2-10.4,4.9-16.1,4.9
	c-7.7,0-15.1-3.1-20.5-8.5C90.9,330.3,87.8,323,87.8,315.3z M247,315.7c0-5.7,1.7-11.2,4.9-15.9c3.2-4.7,7.7-8.4,12.9-10.5
	c5.3-2.2,11-2.7,16.6-1.6c5.6,1.1,10.7,3.8,14.7,7.8c4,4,6.8,9.1,7.9,14.7c1.1,5.6,0.5,11.3-1.6,16.5c-2.2,5.2-5.9,9.7-10.6,12.9
	c-4.7,3.1-10.3,4.8-16,4.8c-7.6,0-14.9-3-20.3-8.4C250,330.5,247,323.2,247,315.7z"/>
<path class="st7" d="M367.9,168H266.4v129.7h101.6V168z"/>
<path class="st8" d="M270.3,297.6H8.6c-2.5,0-4.6,2.3-4.6,5.1v11c0,2.8,2,5.1,4.6,5.1h261.7V297.6z"/>
<path class="st9" d="M10.9,297.6h117.8v-96.7H69.6c-5.7,0-11.3,1.4-16.3,4.1c-5,2.7-9.3,6.6-12.5,11.3l-24.1,35.8
	c-3.8,5.8-5.9,12.6-5.9,19.5L10.9,297.6z"/>
<path class="st6" d="M101.5,258v-46.4H70.4c-3.9,0-7.8,1-11.3,2.8c-3.5,1.8-6.5,4.5-8.7,7.7L26,258L101.5,258z"/>
<path class="st10" d="M126.7,200.9h-11v96.7h11V200.9z"/>
<path class="st11" d="M88.5,265.7H99c0.6,0,1.2-0.2,1.7-0.7c0.4-0.4,0.7-1,0.7-1.7v-1.4H86.1v1.4c0,0.6,0.3,1.2,0.7,1.7
	C87.3,265.5,87.9,265.7,88.5,265.7L88.5,265.7z"/>
<path class="st12" d="M20.1,285.2c0-2.4-1-4.8-2.7-6.5c-1.7-1.7-4.1-2.7-6.5-2.7v18.4c2.5,0,4.8-1,6.5-2.7
	C19.2,290,20.1,287.7,20.1,285.2z"/>
<path class="st13" d="M367.6,297.6h-97.3c-0.8,0-1.6,0.2-2.4,0.5s-1.4,0.8-2,1.3c-0.6,0.6-1,1.3-1.4,2c-0.3,0.8-0.5,1.6-0.5,2.4v8.5
	c0,1.6,0.7,3.2,1.8,4.4c1.2,1.2,2.8,1.8,4.4,1.8h97.3c1.7,0,3.2-0.6,4.4-1.8c1.2-1.2,1.8-2.7,1.8-4.4v-8.5c0-1.6-0.7-3.2-1.8-4.4
	C370.8,298.2,369.2,297.6,367.6,297.6z"/>
<path class="st14" d="M281.6,308.1c0-0.9-0.3-1.7-0.8-2.5c-0.5-0.7-1.2-1.3-2-1.6s-1.7-0.4-2.6-0.3c-0.9,0.2-1.7,0.6-2.3,1.2
	c-0.6,0.6-1.1,1.4-1.2,2.3c-0.2,0.9-0.1,1.8,0.3,2.6c0.3,0.8,0.9,1.5,1.7,2c0.7,0.5,1.6,0.8,2.5,0.8c0.6,0,1.2-0.1,1.7-0.3
	c0.5-0.2,1-0.5,1.5-1s0.7-0.9,1-1.4C281.5,309.3,281.6,308.7,281.6,308.1L281.6,308.1z"/>
<path class="st12" d="M289.2,308.1c0-0.6-0.2-1.1-0.6-1.5c-0.4-0.4-1-0.6-1.5-0.6h0c-0.6,0-1.2,0.2-1.6,0.6c-0.4,0.4-0.7,1-0.7,1.5
	c0,0.3,0.1,0.6,0.2,0.8c0.1,0.3,0.3,0.5,0.5,0.7c0.2,0.2,0.4,0.4,0.7,0.5c0.3,0.1,0.6,0.2,0.8,0.2h0.1c0.6,0,1.1-0.2,1.5-0.5
	c0.4-0.4,0.7-0.9,0.7-1.4V308.1z"/>
<path class="st14" d="M359,308.1c0,0.9,0.3,1.7,0.8,2.5c0.5,0.7,1.2,1.3,2,1.6c0.8,0.3,1.7,0.4,2.6,0.3c0.9-0.2,1.7-0.6,2.3-1.2
	c0.6-0.6,1.1-1.4,1.2-2.3s0.1-1.8-0.3-2.6c-0.3-0.8-0.9-1.5-1.7-2s-1.6-0.8-2.5-0.8c-1.2,0-2.3,0.5-3.2,1.3
	C359.5,305.8,359,306.9,359,308.1z"/>
<path class="st12" d="M351.3,308.1c0,0.4,0.1,0.9,0.4,1.2c0.2,0.4,0.6,0.6,1,0.8c0.4,0.2,0.8,0.2,1.3,0.1c0.4-0.1,0.8-0.3,1.1-0.6
	c0.3-0.3,0.5-0.7,0.6-1.1c0.1-0.4,0-0.9-0.1-1.3c-0.2-0.4-0.4-0.7-0.8-1c-0.4-0.2-0.8-0.4-1.2-0.4c-0.6,0-1.1,0.2-1.5,0.6
	c-0.4,0.4-0.7,0.9-0.7,1.5V308.1z"/>
<path class="st10" d="M367.9,168H267.2v5.9h100.7V168z"/>
<path class="st15" d="M115.7,276.7l-48.9,15.6c0,0,4.8,3.2,6.4,5.2h42.5V276.7z"/>
<path class="st16" d="M66.8,292.3l48.9-15.6v-10.6l-57.5,22.7C61.2,289.5,64.1,290.7,66.8,292.3z"/>
<path class="st17" d="M300.1,297.6h2.6l-1-17.1H296L300.1,297.6z"/>
<path class="st17" d="M306.3,281.2h-36.2v4.2h36.2V281.2z"/>
<path class="st18" d="M270,236h28.7c3.4,0,6.1,2.6,6.1,5.8v27.3c0,3.2-2.8,5.9-6.1,5.9h-28.6L270,236z"/>
<path class="st17" d="M296.9,277.8c-0.6,2,0.6,4.2,2.8,4.8l4.4,1.3c2.1,0.6,4.4-0.6,5.1-2.6l5.7-18.2c0.6-2-0.6-4.2-2.8-4.8
	l-4.4-1.3c-2.1-0.6-4.4,0.6-5.1,2.6L296.9,277.8z M270,277.3l0.2,0.5c0.3,0.8,0.2,1.7-0.2,2.5V277.3z"/>
<path class="st19" d="M270,271.2h28.1c3.6,0,6.7,2.8,6.7,6.3c0,3.4-3,6.3-6.7,6.3H270V271.2z"/>
<path class="st9" d="M270.3,168H126.8v129.5h143.6V168z"/>
<path class="st15" d="M270.3,271.4l-143.6,4v22.1h143.6V271.4z"/>
<path class="st6" d="M207,287.9c8.1,0,15.9,3.2,21.7,9c5.8,5.7,9,13.5,9,21.6h-61.5c0-4,0.8-8,2.3-11.7c1.5-3.7,3.8-7.1,6.6-9.9
	c2.8-2.8,6.2-5.1,9.9-6.6c3.7-1.5,7.7-2.3,11.7-2.3H207z"/>
<path class="st6" d="M211,292.7c6.6,0.1,13,2.8,17.7,7.5c4.7,4.7,7.4,10.9,7.6,17.6c0.2,6.6-2.2,13-6.6,18
	c-4.4,4.9-10.6,7.9-17.2,8.5h-8.6v-51.5L211,292.7L211,292.7z"/>
<path class="st13" d="M180,318.4c0-5.1,1.5-10.1,4.4-14.3c2.8-4.2,6.9-7.5,11.6-9.5c4.7-2,9.9-2.5,15-1.5c5,1,9.6,3.4,13.3,7.1
	c3.6,3.6,6.1,8.2,7.1,13.2c1,5,0.5,10.2-1.5,14.9c-2,4.7-5.3,8.7-9.5,11.6s-9.3,4.3-14.4,4.3c-6.9,0-13.5-2.7-18.3-7.5
	C182.7,331.8,180,325.3,180,318.4z"/>
<path class="st15" d="M205.8,331.1c-7,0-12.7-5.7-12.7-12.6c0-7,5.7-12.6,12.7-12.6c7,0,12.7,5.7,12.7,12.6
	C218.5,325.4,212.8,331.1,205.8,331.1z"/>
<path class="st16" d="M126.8,275.5l143.6-4v-13.2l-143.6,6.5L126.8,275.5z"/>
<path class="st6" d="M50.8,287.9c8.1,0,16,3.2,21.7,9c5.8,5.7,9,13.5,9,21.6H20.1c0-4,0.8-8,2.3-11.7c1.5-3.7,3.8-7.1,6.6-9.9
	s6.2-5.1,9.9-6.6c3.7-1.5,7.7-2.3,11.7-2.3H50.8z"/>
<path class="st6" d="M54.9,292.7c6.6,0.1,13,2.8,17.7,7.5s7.4,11,7.6,17.6c0.2,6.6-2.2,13-6.6,18c-4.4,4.9-10.6,7.9-17.2,8.5h-8.5
	v-51.5L54.9,292.7L54.9,292.7z"/>
<path class="st13" d="M23.8,318.4c0-5.1,1.5-10.1,4.4-14.3c2.8-4.2,6.9-7.5,11.6-9.5c4.7-2,9.9-2.5,15-1.5c5,1,9.6,3.4,13.3,7.1
	c3.6,3.6,6.1,8.2,7.1,13.2c1,5,0.5,10.2-1.5,14.9c-2,4.7-5.3,8.7-9.5,11.6c-4.3,2.8-9.3,4.3-14.4,4.3c-6.9,0-13.5-2.7-18.3-7.5
	C26.6,331.8,23.8,325.3,23.8,318.4z"/>
<path class="st15" d="M49.7,331.1c-7,0-12.7-5.7-12.7-12.6c0-7,5.7-12.6,12.7-12.6c7,0,12.7,5.7,12.7,12.6
	C62.4,325.4,56.7,331.1,49.7,331.1z"/>
<path class="st4" d="M388.5,262.3c0.1,5.8,0.6,11.7,1.4,17.5c5.7,1.4,11.7,1.4,17.4,0c-0.1-5.9-0.2-11.9-0.7-17.8
	c-0.1-3.2-0.7-6.3-1.7-9.2c-1-2.6-2.7-4.9-5-6.4c-0.3-0.1-0.6-0.3-0.8-0.5c-1.2,1.2-3.9,1.8-5.5,1.2c-0.8,0.6-1.4,1.3-2,2.1
	c-1,1.4-1.8,3.1-2.2,4.8C388.6,256.7,388.3,259.5,388.5,262.3z"/>
<path class="st20" d="M398.2,230.7c1.3-0.7,2-2.1,1.8-3.5c-0.3-1.3-1.1-2.3-2.3-3c-1.2-0.8-2.8-1.2-4.3-1c-2.1,0.4-4,2.5-4.1,4.5
	C392.6,228,395.6,228.9,398.2,230.7z"/>
<path class="st21" d="M401.5,231.3c0.6,0.3,1.1,0.7,1.4,1.2c0.3,0.9-0.1,1.8-1,2.2c-0.8,0.3-1.7,0.4-2.6,0.2c-1.7-0.4-3.2-1.4-4.3-3
	c-0.6-0.8-1-1.9-1.2-2.9c-0.1-0.3-0.3-1.2-0.1-1.6c0.3-0.5,0.7-0.1,1.2,0.2L401.5,231.3z"/>
<path class="st22" d="M391.5,249.2c1.5,0.3,3,0.1,4.5-0.3c1.4-0.5,2.6-1.2,3.6-2.3v-0.5l-0.1-0.5c-0.4-1.7-0.8-3.3-1.2-5l-1-4.5
	c-1.7,1-3.2,2.1-4.7,3.4c0.1,1,0.1,2.1,0.1,3.1c0,0.9,0,1.7-0.1,2.6c0,0.5-0.1,1-0.1,1.4c-0.1,0.5-0.1,0.9-0.1,1.4
	C392,248.5,391.8,248.8,391.5,249.2z"/>
<path class="st23" d="M392.6,245.3c2.2,0.1,4.3-2,5.7-4.6l-1-4.5c-1.7,1-3.2,2.1-4.7,3.4c0.1,1,0.1,2.1,0.1,3.1
	C392.7,243.6,392.6,244.4,392.6,245.3z"/>
<path class="st12" d="M389.7,231.4c-0.4,1.4,0,2.9,1,3.9c0.5-1,0.9-2.1,1-3.3c0.1-0.3,0-0.6-0.2-0.9c-0.3-0.2-0.6-0.2-0.8-0.1
	C390.2,231.1,390,231.5,389.7,231.4z"/>
<path class="st22" d="M390.5,231.4c0.4,1.5-0.1,3-0.6,4.5c-0.5,1.5-0.9,3.1-0.2,4.5c0.8,1.4,2.5,2.2,4.1,1.8
	c1.6-0.4,2.8-1.6,3.4-3.1c0.6-1.5,0.8-3.2,0.4-4.7c-0.3-1.6-0.8-3.1-1.4-4.6C394.3,229,392.1,229.9,390.5,231.4z"/>
<path class="st13" d="M433,332.2c0,0-0.2,4.1-3.9,3.9l-1.2,14.7l10.9-17.2L433,332.2z"/>
<path class="st4" d="M429.7,351.3L440,335c0.1-0.3,0.1-0.6-0.1-0.8l-1-0.7l-10.9,17.2l1,0.7C429.2,351.7,429.5,351.6,429.7,351.3z
	 M431.2,339.2c-0.1,0.1-0.1,0.1-0.1,0.1c-0.8,0.1-1.4,0.2-2.1,0.5c-0.1,0.1-0.3,0-0.4-0.1c-0.1-0.2,0-0.3,0.2-0.4
	c0.8-0.3,1.6-0.5,2.4-0.5c0.2,0,0.3,0.1,0.3,0.3C431.3,339,431.2,339.2,431.2,339.2z M430.9,341.1c-0.1,0.1-0.1,0.1-0.1,0.1
	c-0.8,0.1-1.4,0.2-2.1,0.5c-0.1,0.1-0.3,0-0.4-0.1c-0.1-0.2,0-0.3,0.2-0.4c0.8-0.3,1.6-0.5,2.4-0.6c0.2,0,0.3,0.1,0.3,0.3
	C431.1,340.9,431,341,430.9,341.1z M430.7,342.9c-0.1,0.1-0.1,0.1-0.1,0.1c-0.8,0.1-1.4,0.2-2.1,0.5c-0.1,0.1-0.3,0-0.4-0.1
	c-0.1-0.2,0-0.3,0.2-0.4c0.8-0.3,1.6-0.5,2.4-0.6c0.1,0,0.3,0.1,0.3,0.3C430.9,342.7,430.8,342.9,430.7,342.9z"/>
<path class="st22" d="M397.3,235c0.1-0.2,0.3-0.4,0.6-0.6c0.2-0.1,0.5-0.2,0.8-0.2c0.3,0.1,0.7,0.3,0.8,0.8c0.3,0.9-0.1,1.9-1,2.3
	c-0.5,0.2-1,0.2-1.4,0C397.3,236.5,397.3,235.7,397.3,235z"/>
<path class="st24" d="M408,284.1c0,0-2.4,30.4,26.9,47.6l-6.8,8.7c0,0-32.8-21.4-31.8-49.1L408,284.1z"/>
<path class="st21" d="M410.5,301.4c-0.5,1.4-1.1,2.6-1.7,3.9c-0.8,1.7-1.4,3.4-2,5.2c-0.7,2.3-1.3,4.6-1.9,7
	c-5.2-7.6-9-16.5-8.7-26.3l11.8-7.2C407.8,290,408.6,295.8,410.5,301.4z"/>
<path class="st13" d="M392.9,345.8c0,0-3.7,1.8-5.2-1.7l-13.6,5.8l20.3,1.7L392.9,345.8z"/>
<path class="st4" d="M374.6,351.7l19,1.6c0.3,0,0.7-0.3,0.7-0.6l0.1-1.1l-20.3-1.7l-0.1,1.1C373.9,351.4,374.2,351.7,374.6,351.7z
	 M385.8,347.4c-0.1,0-0.1-0.1-0.1-0.1c-0.4-0.6-0.9-1.2-1.4-1.7c-0.1-0.1-0.1-0.3-0.1-0.4c0.1-0.1,0.3-0.1,0.5-0.1
	c0.6,0.5,1.2,1.2,1.6,1.9c0.1,0.1,0.1,0.3-0.1,0.4C386.1,347.4,386,347.4,385.8,347.4z M384.1,348.1c-0.1,0-0.1-0.1-0.1-0.1
	c-0.4-0.6-0.9-1.2-1.4-1.7c-0.1-0.1-0.1-0.3-0.1-0.4c0.1-0.1,0.3-0.1,0.5-0.1c0.6,0.5,1.2,1.2,1.6,1.9c0.1,0.1,0.1,0.3-0.1,0.4
	C384.4,348.1,384.3,348.1,384.1,348.1z M382.4,348.8c-0.1,0-0.1-0.1-0.1-0.1c-0.4-0.6-0.9-1.2-1.4-1.7c-0.1-0.1-0.1-0.3-0.1-0.5
	c0.1-0.1,0.3-0.1,0.5-0.1c0.6,0.5,1.2,1.2,1.6,1.9c0.1,0.1,0.1,0.3-0.1,0.4C382.6,348.8,382.5,348.8,382.4,348.8z"/>
<path class="st20" d="M388,257.4c-0.4,9.8,0.3,19.5,1.9,29.2c0,0-13.2,28.9-7.4,58.7l11.8,2c0,0-0.2-37.5,14-58.7l-0.9-19.8l-12.7-1
	l-1.9-10.5L388,257.4z"/>
<path class="st24" d="M406.7,270.9c0.1,0,0.2-0.1,0.3-0.4c0.1-0.1,0.1-0.3,0.2-0.6c0.1-0.2,0.1-0.4,0.1-0.7l0.1-0.4l0.1-0.5l0.1-0.5
	c0-0.2,0-0.3,0.1-0.5c0.1-0.2,0-0.4,0.1-0.6c0.1-0.2,0-0.4,0-0.6v-1.4c0-1-0.1-2.1-0.2-3.2c-0.1-1.2-0.4-2.5-0.7-3.6
	c-0.3-1.3-0.7-2.7-1.2-3.9c-0.5-1.4-1.2-2.8-2.1-4.1c-0.5-0.7-1.1-1.2-1.8-1.7c-0.7-0.5-1.4-0.9-2.2-1.1c-0.4-0.1-0.8-0.2-1.2-0.2
	h-0.9l-0.3,0.1c-0.8,0.1-1.5,0.4-2.1,0.8c-0.6,0.3-1.2,0.8-1.7,1.3c-0.1,0.1-0.2,0.3-0.3,0.3l-0.3,0.3l-0.3,0.4
	c-0.1,0.1-0.2,0.3-0.3,0.4c-0.3,0.5-0.6,1-0.8,1.6c-0.2,0.5-0.3,1-0.4,1.6c-0.1,0.9-0.3,1.8-0.3,2.7c0,0.7,0,1.3,0.1,2
	c0.1,1.1,0.3,1.7,0.3,1.7s0.2-0.6,0.3-1.7c0.1-0.5,0.1-1.2,0.2-1.9c0.1-0.8,0.3-1.6,0.6-2.5c0.3-1,0.7-1.8,1.2-2.6
	c0.1-0.1,0.1-0.2,0.2-0.3l0.3-0.3l0.3-0.3l0.3-0.3c0.4-0.3,0.8-0.7,1.3-0.9c0.5-0.3,1-0.4,1.6-0.5h0.8c0.3,0,0.6,0.1,0.8,0.1
	c1.2,0.4,2.1,1.2,2.8,2.2c0.8,1.1,1.4,2.3,1.8,3.5c0.5,1.2,0.8,2.5,1.2,3.7c0.3,1.2,0.5,2.3,0.8,3.4c0.2,1.1,0.3,2.1,0.5,3
	c0.1,0.5,0.1,0.9,0.1,1.4l0.1,0.6c0,0.2,0,0.4,0.1,0.6l0.1,0.5v0.5l0.1,0.5v0.4c0,0.3,0.1,0.5,0.1,0.7c0,0.2,0.1,0.4,0.1,0.6
	C406.6,270.8,406.7,270.9,406.7,270.9z"/>
<path class="st22" d="M396.5,261.2v1c0,0.3,0.1,0.7,0.1,1.1c0,0.2,0,0.3,0.1,0.5c0.1,0.2,0.1,0.3,0.1,0.6c0.1,0.3,0.1,0.8,0.1,1.2
	c0.1,0.4,0.1,0.8,0.2,1.2c0.1,0.4,0.2,0.8,0.3,1.2c0.1,0.4,0.2,0.8,0.3,1.2c0.1,0.4,0.2,0.8,0.3,1.2l0.4,1.2
	c0.6,1.6,1.3,3.3,2.1,4.9c0.8,1.6,1.7,3.1,2.8,4.5l0.8,1l0.8,1c0.3,0.3,0.5,0.6,0.8,1s0.5,0.6,0.8,0.9l0.8,0.9
	c0.3,0.3,0.6,0.6,0.8,0.8l0.3,0.4l0.4,0.3l0.8,0.8c0.3,0.2,0.5,0.5,0.8,0.7c0.3,0.2,0.5,0.4,0.8,0.6c0.5,0.4,0.9,0.8,1.4,1.1
	l0.1,0.1l0.4,0.3c1.1,0.8,2.2,1.4,3.4,1.9c0.8,0.3,1.5,0.5,2.3,0.6l-0.2-0.3L418,293l-0.3-0.3c-0.2-0.3-0.4-0.5-0.7-0.8l-0.8-1
	c-0.3-0.3-0.5-0.7-0.8-1l-0.1-0.1c-0.3-0.4-0.6-0.8-1-1.2c-0.3-0.4-0.6-0.9-1-1.4c-0.2-0.2-0.3-0.5-0.5-0.8
	c-0.1-0.3-0.3-0.6-0.5-0.8l-0.5-0.8c-0.1-0.1-0.2-0.3-0.3-0.4l-0.3-0.4c-0.1-0.3-0.3-0.5-0.5-0.9c-0.1-0.3-0.3-0.6-0.5-0.9
	c-0.1-0.3-0.3-0.6-0.5-1c-0.1-0.3-0.3-0.6-0.5-1c-0.1-0.3-0.3-0.7-0.5-1l-0.4-1c-0.5-1.4-1.1-2.8-1.6-4.3s-0.9-3-1.2-4.4
	c-0.1-0.3-0.2-0.7-0.3-1c-0.1-0.3-0.1-0.7-0.3-1c-0.1-0.3-0.1-0.7-0.2-1l-0.2-1c-0.1-0.3-0.1-0.7-0.2-1c-0.1-0.3-0.1-0.6-0.2-1
	c0-0.1-0.1-0.3-0.1-0.5l-0.1-0.5c-0.1-0.3-0.1-0.6-0.1-0.9l-0.1-0.9l-0.1-0.7c-2.3,1-5,1.1-7.4,0.3
	C396.5,260.6,396.5,260.9,396.5,261.2z"/>
<path class="st22" d="M412.1,290.6c0.2,0.1,0.3,0.3,0.5,0.3c1.1,0.8,2.2,1.4,3.4,1.9c0.8,0.3,1.5,0.5,2.3,0.5
	c0.7,0.1,1.4,0.1,2.1-0.1c1.1-0.3,2.1-0.9,2.8-1.8c0.3-0.4,0.2-1-0.2-1.2c-0.1-0.1-0.2-0.1-0.3-0.1c-2.4-0.7-5-0.8-7.5-0.3
	C414.3,289.9,413.2,290.2,412.1,290.6z"/>
<path class="st12" d="M387.9,231.3c2.8,0.6,5.8,0.2,8.3-1.2c-0.2,0.7-0.2,1.4-0.1,2.1c0.2,1,0.8,1.9,1.6,2.5c1-1.3,1.4-2.9,1.3-4.5
	c-0.1-0.3-0.2-0.7-0.4-1c-0.2-0.3-0.4-0.6-0.7-0.8c-0.6-0.6-1.3-1-2.1-1.4c-2.1-0.9-4.4-0.8-6.3,0.3c-0.1,0.1-0.3,0.3-0.5,0.4
	C388.2,228.7,387.8,230,387.9,231.3z"/>
<path class="st13" d="M564.1,307.8l3.6,0.1c0.1,0,0.1,0,0.3-0.1c0.1-0.1,0.1-0.1,0.2-0.1c0.1-0.1,0.1-0.1,0.1-0.2
	c0.1-0.1,0.1-0.1,0.1-0.3l2-20.4l-8.1-0.1l1.2,20.5c0,0.1,0,0.1,0.1,0.3c0,0.1,0.1,0.1,0.1,0.2c0.1,0.1,0.1,0.1,0.2,0.1
	C563.9,307.7,564.1,307.8,564.1,307.8z"/>
<path class="st13" d="M415.8,312.3l3.6,0.1c0.1,0,0.1,0,0.3-0.1c0.1-0.1,0.1-0.1,0.2-0.1c0.1-0.1,0.1-0.1,0.1-0.2
	c0.1-0.1,0.1-0.1,0.1-0.3l2.2-20.4l-8.1-0.2l1.1,20.5c0,0.1,0,0.1,0.1,0.3c0,0.1,0.1,0.1,0.1,0.2c0.1,0.1,0.1,0.1,0.2,0.1
	C415.6,312.2,415.8,312.3,415.8,312.3z"/>
<path class="st25" d="M411.3,277.9l159-3.5l0.4,18.1c0,0.1,0,0.1-0.1,0.2c0,0.1-0.1,0.1-0.1,0.2c-0.1,0.1-0.3,0.1-0.4,0.2
	l-157.8,3.4c-0.1,0-0.1,0-0.2-0.1c-0.1,0-0.1-0.1-0.2-0.1c-0.1-0.1-0.1-0.1-0.1-0.2c0-0.1-0.1-0.1-0.1-0.2L411.3,277.9z"/>
<path class="st12" d="M491.1,290.7l-79.5,1.7l-1.2-56.7c0-0.2,0-0.5,0.1-0.7c0.1-0.2,0.1-0.4,0.2-0.7c0.1-0.2,0.2-0.4,0.3-0.6
	c0.3-0.4,0.5-0.7,1-1c0.2-0.1,0.4-0.2,0.6-0.3l0.6-0.2c0.2-0.1,0.5-0.1,0.7-0.1l72.5-1.6c0.2,0,0.5,0,0.7,0.1s0.4,0.1,0.6,0.2
	c0.2,0.1,0.4,0.2,0.6,0.3c0.4,0.3,0.7,0.5,1,1c0.1,0.2,0.3,0.3,0.3,0.6l0.2,0.6c0.1,0.2,0.1,0.5,0.1,0.7L491.1,290.7z"/>
<path class="st12" d="M491.1,290.7l79.5-1.7l-1.2-56.7c0-0.2,0-0.5-0.1-0.7l-0.2-0.6c-0.1-0.2-0.2-0.4-0.3-0.6
	c-0.1-0.2-0.3-0.3-0.4-0.5c-0.1-0.1-0.3-0.3-0.5-0.4c-0.2-0.1-0.4-0.2-0.6-0.3c-0.2-0.1-0.5-0.1-0.7-0.2c-0.2-0.1-0.5-0.1-0.7-0.1
	l-72.5,1.7c-0.5,0-0.9,0.1-1.3,0.3c-0.2,0.1-0.4,0.2-0.6,0.3c-0.2,0.1-0.3,0.3-0.5,0.4c-0.1,0.1-0.3,0.3-0.4,0.6
	c-0.1,0.2-0.2,0.4-0.3,0.6l-0.2,0.6c-0.1,0.2-0.1,0.5-0.1,0.7L491.1,290.7z"/>
<path class="st26" d="M570.1,262.6l-159,3.5l0.4,18.6l158.9-3.5L570.1,262.6z M490.1,232.4c0.5,10.4,0.8,20.8,0.9,31.1
	c0,0.7-1.2,0.7-1.2,0c-0.1-10.4-0.1-20.8-0.3-31.1C489.5,232,490.1,232,490.1,232.4z"/>
<path class="st12" d="M493.2,279.1l81.1-1.8h0.5c0.1,0,0.3,0.1,0.4,0.1l0.4,0.2c0.1,0.1,0.3,0.1,0.3,0.3c0.1,0.1,0.2,0.2,0.3,0.3
	l0.2,0.4c0.1,0.1,0.1,0.3,0.1,0.4c0,0.1,0.1,0.3,0.1,0.4l0.2,7.8v0.4c0,0.1-0.1,0.3-0.1,0.4l-0.2,0.4c-0.1,0.1-0.2,0.3-0.3,0.3
	c-0.1,0.1-0.2,0.2-0.3,0.3l-0.4,0.2c-0.1,0.1-0.3,0.1-0.4,0.1c-0.1,0-0.3,0.1-0.4,0.1l-81.1,1.8h-0.4c-0.1,0-0.3-0.1-0.4-0.1
	l-0.4-0.2c-0.1-0.1-0.3-0.2-0.3-0.3c-0.1-0.1-0.2-0.2-0.3-0.3l-0.2-0.4c-0.1-0.1-0.1-0.3-0.1-0.4c-0.1-0.1-0.1-0.3-0.1-0.4l-0.2-7.8
	v-0.4c0-0.1,0.1-0.3,0.1-0.4l0.2-0.4c0.1-0.1,0.1-0.3,0.3-0.3c0.1-0.1,0.2-0.2,0.3-0.3l0.4-0.2c0.1-0.1,0.3-0.1,0.4-0.1
	C492.9,279.1,493,279.1,493.2,279.1z"/>
<path class="st27" d="M560.9,267.8c-0.1-5.9,4.3-10.8,9.7-10.5c4.7,0.3,8.5,4.4,8.8,9.6c0.1,0.6,0.1,1.3,0,1.9
	c-0.1,0.6-0.2,1.3-0.3,1.9c-0.2,0.6-0.4,1.2-0.7,1.8c-0.3,0.6-0.6,1.2-1,1.6c-0.3,0.4-0.5,0.9-0.7,1.4c-0.1,0.6-0.1,1.1-0.1,1.6
	c0.3,2.1-1,3.9-2.9,3.9l-6.4,0.1c-1.9,0-3.3-1.8-3-3.9c0.1-0.6,0-1.1-0.1-1.6c-0.1-0.5-0.4-1-0.8-1.4c-0.4-0.5-0.8-1-1-1.5
	c-0.3-0.5-0.5-1.1-0.8-1.7c-0.2-0.5-0.3-1.2-0.5-1.8C561,269,560.9,268.4,560.9,267.8z"/>
<path class="st25" d="M510.3,250.4c0,0.1,0,0.3,0.1,0.4c0,0.1,0.1,0.3,0.1,0.3c0.1,0.1,0.1,0.2,0.2,0.3c0.1,0.2,0.3,0.4,0.6,0.6
	c0.1,0.1,0.2,0.1,0.3,0.2c0.1,0.1,0.3,0.1,0.3,0.1h0.4c0.1,0,0.3,0,0.4-0.1c0.1,0,0.3-0.1,0.3-0.1c0.2-0.1,0.5-0.3,0.6-0.5
	c0.1-0.1,0.2-0.2,0.3-0.3c0.1-0.1,0.1-0.2,0.2-0.3c0.1-0.1,0.1-0.3,0.1-0.3v-0.4c0-0.1,0-0.3-0.1-0.4c0-0.1-0.1-0.3-0.1-0.3
	c-0.1-0.1-0.1-0.2-0.2-0.3c-0.1-0.2-0.3-0.4-0.5-0.6c-0.1-0.1-0.2-0.1-0.3-0.2c-0.1-0.1-0.3-0.1-0.3-0.1h-0.4c-0.1,0-0.3,0-0.4,0.1
	c-0.1,0-0.3,0.1-0.3,0.1c-0.2,0.1-0.5,0.3-0.6,0.5c-0.1,0.1-0.2,0.2-0.3,0.3c-0.1,0.1-0.1,0.2-0.2,0.3c-0.1,0.1-0.1,0.3-0.1,0.3
	V250.4z"/>
<path class="st25" d="M468.6,252.7c0,0.1,0,0.3,0.1,0.4c0,0.1,0.1,0.3,0.1,0.3c0.1,0.1,0.1,0.2,0.2,0.3c0.1,0.2,0.3,0.4,0.5,0.5
	c0.1,0.1,0.2,0.1,0.3,0.2c0.1,0.1,0.3,0.1,0.3,0.1h0.4c0.1,0,0.3,0,0.4-0.1c0.1,0,0.3-0.1,0.3-0.1c0.2-0.1,0.5-0.3,0.6-0.5
	c0.1-0.1,0.2-0.2,0.3-0.3c0.1-0.1,0.1-0.2,0.2-0.3c0.1-0.1,0.1-0.3,0.1-0.3v-0.4c0-0.1,0-0.3-0.1-0.4c0-0.1-0.1-0.3-0.1-0.3
	c-0.1-0.1-0.1-0.2-0.2-0.3c-0.1-0.2-0.3-0.4-0.5-0.5c-0.1-0.1-0.2-0.1-0.3-0.2c-0.1-0.1-0.3-0.1-0.3-0.1h-0.4c-0.1,0-0.3,0-0.4,0.1
	c-0.1,0-0.3,0.1-0.3,0.1c-0.2,0.1-0.5,0.3-0.6,0.5c-0.1,0.1-0.2,0.2-0.3,0.3c-0.1,0.1-0.1,0.2-0.2,0.3c-0.1,0.1-0.1,0.3-0.1,0.3
	V252.7z"/>
<path class="st25" d="M428.7,253.3c0,0.1,0,0.3,0.1,0.4c0,0.1,0.1,0.3,0.1,0.3c0.1,0.1,0.1,0.2,0.2,0.3c0.1,0.2,0.3,0.4,0.6,0.6
	c0.1,0.1,0.2,0.1,0.3,0.2c0.1,0.1,0.3,0.1,0.3,0.1h0.4c0.1,0,0.3,0,0.4-0.1c0.1,0,0.3-0.1,0.3-0.1c0.2-0.1,0.5-0.3,0.6-0.5
	c0.1-0.1,0.2-0.2,0.3-0.3c0.1-0.1,0.1-0.2,0.2-0.3c0.1-0.1,0.1-0.3,0.1-0.3v-0.4c0-0.1,0-0.3-0.1-0.4c0-0.1-0.1-0.3-0.1-0.3
	c-0.1-0.1-0.1-0.2-0.2-0.3c-0.1-0.2-0.3-0.4-0.6-0.6c-0.1-0.1-0.2-0.1-0.3-0.2c-0.1-0.1-0.3-0.1-0.3-0.1h-0.4c-0.1,0-0.3,0-0.4,0.1
	c-0.1,0-0.3,0.1-0.3,0.1c-0.2,0.1-0.5,0.3-0.6,0.5c-0.1,0.1-0.2,0.2-0.3,0.3c-0.1,0.1-0.1,0.2-0.2,0.3c-0.1,0.1-0.1,0.3-0.1,0.3
	V253.3z"/>
<path class="st12" d="M488.6,279.1l-81.1,1.8c-0.1,0-0.3,0-0.4,0.1c-0.1,0.1-0.3,0.1-0.4,0.1l-0.4,0.2c-0.1,0.1-0.2,0.2-0.3,0.3
	c-0.2,0.2-0.3,0.5-0.5,0.8c-0.1,0.1-0.1,0.3-0.1,0.4v0.4l0.1,7.8c0,0.1,0,0.3,0.1,0.4c0.1,0.1,0.1,0.3,0.1,0.4l0.2,0.4
	c0.1,0.1,0.2,0.2,0.3,0.3c0.1,0.1,0.2,0.2,0.3,0.3l0.4,0.2c0.1,0.1,0.3,0.1,0.4,0.1h0.4l81.1-1.8c0.1,0,0.3,0,0.4-0.1
	c0.1-0.1,0.3-0.1,0.4-0.1l0.4-0.2c0.1-0.1,0.2-0.2,0.3-0.3c0.1-0.1,0.2-0.2,0.3-0.3l0.2-0.4c0.1-0.1,0.1-0.3,0.1-0.4v-0.4l-0.1-7.8
	c0-0.1,0-0.3-0.1-0.4c-0.1-0.1-0.1-0.3-0.1-0.4l-0.2-0.4c-0.1-0.1-0.2-0.2-0.3-0.3c-0.2-0.2-0.5-0.3-0.8-0.5
	c-0.1-0.1-0.3-0.1-0.4-0.1H488.6z"/>
<path class="st27" d="M420.4,270.9c-0.1-5.9-4.7-10.6-10.1-10c-4.6,0.5-8.3,4.8-8.4,10c0,0.6,0,1.3,0.1,1.9c0.1,0.6,0.3,1.3,0.5,1.9
	c0.2,0.6,0.5,1.2,0.8,1.8c0.3,0.6,0.7,1.1,1.1,1.7c0.3,0.4,0.6,0.9,0.8,1.4c0.1,0.5,0.2,1,0.1,1.6c-0.3,2.1,1.2,3.9,3,3.8l6.4-0.1
	c1.9-0.1,3.2-1.9,2.9-3.9c-0.1-0.5-0.1-1.1,0.1-1.6c0.1-0.6,0.3-1,0.7-1.4c1.1-1.4,1.8-3.2,2.1-5
	C420.4,272.1,420.5,271.5,420.4,270.9z"/>
<path class="st25" d="M490.2,269.3c0-1.2-0.1-2.6,0.3-3.7c0,0,0-0.1,0.1-0.1h0.1l0.1,0.1c0.4,1,0.3,2.3,0.4,3.4l0.2,4.5
	c0.1,1.5,0.4,3.4,0.1,5c0,0.1,0,0.1-0.1,0.2c0,0.1-0.1,0.1-0.1,0.1c-0.1,0.1-0.1,0.1-0.2,0.1h-0.4c-0.1,0-0.1-0.1-0.2-0.1l-0.1-0.1
	c-0.1-0.1-0.1-0.1-0.1-0.2c-0.3-1.5-0.1-3.4-0.1-5L490.2,269.3z M545.7,249.6c0,0.1,0,0.3,0.1,0.4c0,0.1,0.1,0.3,0.1,0.3
	c0.1,0.1,0.1,0.2,0.2,0.3c0.1,0.1,0.1,0.2,0.3,0.3c0.2,0.2,0.4,0.3,0.7,0.4c0.1,0.1,0.3,0.1,0.3,0.1h0.4c0.1,0,0.3,0,0.4-0.1
	c0.1,0,0.3-0.1,0.3-0.1c0.1-0.1,0.2-0.1,0.3-0.2c0.1-0.1,0.2-0.1,0.3-0.3c0.1-0.1,0.1-0.2,0.3-0.3c0.1-0.1,0.1-0.2,0.2-0.3
	c0.1-0.1,0.1-0.3,0.1-0.3v-0.4c0-0.1,0-0.3-0.1-0.4c0-0.1-0.1-0.3-0.1-0.3c-0.1-0.1-0.1-0.2-0.2-0.3c-0.1-0.1-0.1-0.2-0.3-0.3
	c-0.1-0.1-0.2-0.1-0.3-0.3c-0.1-0.1-0.2-0.1-0.3-0.2c-0.3-0.1-0.5-0.1-0.8-0.1c-0.1,0-0.3,0-0.4,0.1c-0.1,0-0.3,0.1-0.3,0.1
	c-0.1,0.1-0.2,0.1-0.3,0.2c-0.1,0.1-0.2,0.1-0.3,0.3c-0.1,0.1-0.1,0.2-0.3,0.3c-0.1,0.1-0.1,0.2-0.2,0.3c-0.1,0.1-0.1,0.3-0.1,0.3
	C545.7,249.3,545.7,249.4,545.7,249.6z"/>
<path class="st4" d="M586.8,259.9c-0.6,5.8-0.8,11.7-0.7,17.5c5.5,2.1,11.4,2.8,17.3,2.1c0.6-5.9,1.2-11.8,1.4-17.8
	c0.3-3.1,0.1-6.3-0.6-9.4c-0.6-2.8-2.1-5.2-4.3-6.9c-0.3-0.2-0.5-0.3-0.8-0.6c-1.4,1-4.1,1.3-5.6,0.6c-0.8,0.5-1.6,1.1-2.3,1.9
	c-1.2,1.3-2.1,2.9-2.8,4.5C587.7,254.4,587,257.2,586.8,259.9z"/>
<path class="st22" d="M591.4,247.3c2.3,0.7,4.7,0.5,6.8-0.6c0.5-0.3,1.1-0.6,1.6-1c0-0.1,0-0.2,0.1-0.3v-0.1c0-0.1-0.1-0.3-0.1-0.5
	c-0.2-1.7-0.4-3.4-0.5-5c-0.1-1.6-0.3-3.1-0.5-4.7c-1.8,0.8-3.4,1.7-5.1,2.8c-0.1,1-0.1,2.1-0.3,3.1c-0.1,0.9-0.2,1.7-0.4,2.6
	c-0.1,0.5-0.2,1-0.3,1.4c-0.1,0.5-0.2,0.9-0.3,1.3C592,246.6,591.6,246.9,591.4,247.3z"/>
<path class="st23" d="M593,243.6c1.9-0.5,3.9-0.9,6.2-3.9c-0.1-1.6-0.3-3.1-0.5-4.7c-1.8,0.8-3.4,1.7-5.1,2.8
	c-0.1,1-0.1,2.1-0.3,3.1C593.2,241.9,593.1,242.7,593,243.6z"/>
<path class="st13" d="M623.3,332.4c0,0-0.7,4.1-4.3,3.4l-3.1,14.5l13-15.7L623.3,332.4z"/>
<path class="st4" d="M617.6,350.9l12.3-14.9c0.2-0.2,0.1-0.6-0.1-0.8l-1-0.8l-13,15.7l1,0.8C617,351.2,617.4,351.2,617.6,350.9z
	 M620.5,339.1c-0.1,0-0.1,0.1-0.2,0.1c-0.8-0.1-1.5,0-2.2,0.2c-0.1,0.1-0.3-0.1-0.4-0.2c-0.1-0.2,0.1-0.3,0.2-0.4
	c0.8-0.2,1.6-0.3,2.5-0.3c0.1,0,0.3,0.1,0.3,0.3C620.7,338.9,620.6,339.1,620.5,339.1z M620.1,340.9h-0.2c-0.8-0.1-1.5,0.1-2.2,0.2
	c-0.1,0.1-0.3-0.1-0.4-0.2c-0.1-0.2,0.1-0.3,0.2-0.4c0.8-0.2,1.7-0.3,2.5-0.3c0.2,0,0.3,0.1,0.3,0.3
	C620.2,340.7,620.2,340.9,620.1,340.9z M619.6,342.7c-0.1,0-0.1,0.1-0.2,0c-0.8-0.1-1.5,0.1-2.2,0.2c-0.1,0.1-0.3,0-0.4-0.2
	c-0.1-0.2,0.1-0.3,0.2-0.4c0.8-0.2,1.6-0.3,2.5-0.3c0.2,0,0.3,0.1,0.3,0.3C619.8,342.6,619.8,342.7,619.6,342.7z"/>
<path class="st13" d="M581.3,345.3c0,0-3.9,1.4-5-2.2l-14.2,4.3l20,3.8L581.3,345.3z"/>
<path class="st4" d="M562.4,349.3l18.7,3.6c0.3,0.1,0.7-0.1,0.8-0.5l0.2-1.1l-20-3.8l-0.2,1.1C561.9,348.9,562.1,349.2,562.4,349.3z
	 M574.1,346.1L574,346c-0.3-0.7-0.8-1.3-1.2-1.9c-0.1-0.1-0.1-0.3,0-0.5c0.1-0.1,0.3-0.1,0.5,0c0.5,0.6,1,1.3,1.4,2
	c0.1,0.1,0,0.3-0.1,0.4C574.3,346.2,574.2,346.2,574.1,346.1z M572.3,346.6l-0.1-0.1c-0.3-0.7-0.8-1.3-1.2-1.9
	c-0.1-0.1-0.1-0.3,0-0.5c0.1-0.1,0.3-0.1,0.5,0c0.5,0.6,1,1.3,1.4,2c0.1,0.1,0,0.3-0.1,0.4C572.5,346.7,572.3,346.6,572.3,346.6z
	 M570.5,347.1l-0.1-0.1c-0.3-0.7-0.8-1.3-1.2-1.9c-0.1-0.1-0.1-0.3,0-0.5c0.1-0.1,0.3-0.1,0.5,0c0.5,0.6,1,1.3,1.4,2
	c0.1,0.1,0,0.3-0.1,0.4C570.7,347.2,570.6,347.2,570.5,347.1z"/>
<path class="st24" d="M603.7,284.6c0,0-5.7,27.2,21.4,47.8l-7.8,7.8c0,0-30.3-22.6-26.1-49.9L603.7,284.6z"/>
<path class="st21" d="M604.2,300.6c-0.5,0.6-0.9,1.1-1.4,1.7c-1.1,1.5-2.1,3.1-2.9,4.8c-1.4,2.8-2.7,5.7-3.6,8.7
	c-4-7.5-6.5-16.2-5.1-25.5l12.5-5.8C603.7,284.6,602.3,291.3,604.2,300.6z"/>
<path class="st20" d="M586.9,255c-1.6,9.6-2.1,19.5-1.6,29.2c0,0-16.4,29.4-14.2,59.6l11.6,3.4c0,0,4.2-39.4,20.8-58.8l1.4-19.8
	l-12.5-2.5l-0.7-10.7L586.9,255z"/>
<path class="st24" d="M604,270.7c0.1,0,0.2-0.1,0.3-0.3c0.1-0.1,0.1-0.3,0.2-0.5c0.1-0.2,0.1-0.4,0.3-0.7c0.1-0.1,0.1-0.3,0.1-0.4
	l0.1-0.5l0.1-0.5l0.1-0.5c0-0.2,0.1-0.4,0.1-0.6l0.1-0.6c0.1-0.4,0.1-0.9,0.2-1.4c0.1-1.1,0.1-2.1,0.1-3.2c0-1.2-0.1-2.5-0.2-3.7
	c-0.1-1.4-0.4-2.7-0.7-4.1c-0.3-1.5-0.9-3-1.7-4.3c-0.4-0.7-1-1.4-1.6-1.9s-1.3-1-2.1-1.4c-0.4-0.1-0.8-0.3-1.2-0.3l-0.3-0.1h-0.8
	c-0.8,0.1-1.5,0.2-2.2,0.5c-0.6,0.3-1.2,0.6-1.8,1.1l-0.4,0.3l-0.3,0.3l-0.3,0.3c-0.1,0.1-0.2,0.3-0.3,0.3c-0.3,0.5-0.7,1-1,1.5
	c-0.2,0.5-0.4,1-0.6,1.5c-0.3,0.8-0.5,1.7-0.6,2.6c-0.1,0.7-0.1,1.3-0.1,2c0,1.1,0.1,1.7,0.1,1.7c0.1,0,0.3-0.5,0.5-1.6
	c0.1-0.6,0.3-1.2,0.5-1.9c0.2-0.8,0.5-1.6,0.8-2.3c0.4-0.9,0.9-1.7,1.6-2.5l0.3-0.3l0.3-0.3l0.3-0.3c0.1-0.1,0.2-0.1,0.3-0.3
	c0.4-0.3,0.9-0.5,1.4-0.8c0.5-0.2,1-0.3,1.6-0.3h0.6l0.2,0.1c0.3,0.1,0.5,0.1,0.8,0.3c1.1,0.6,2,1.4,2.5,2.5
	c0.6,1.2,1.1,2.4,1.4,3.7c0.3,1.3,0.5,2.6,0.7,3.8c0.1,1.2,0.3,2.4,0.3,3.5c0.1,1.1,0.1,2.1,0.1,3.1v5.8
	C603.8,270.5,603.9,270.7,604,270.7z"/>
<path class="st20" d="M593.4,225.3c0.3-1.2,1.2-2.1,2.3-2.5c1.1-0.4,2.3-0.5,3.5-0.1c1.2,0.3,2.2,1,3,1.9c0.8,1,1.2,2.1,1.2,3.4
	c0,1.9-1.2,3.6-2.3,5.2C599.2,230,596.5,227.3,593.4,225.3z"/>
<path class="st21" d="M592.3,223.1c-0.5-0.4-1.1-0.6-1.8-0.6c-0.9,0.2-1.5,1-1.4,1.9c0.1,0.9,0.5,1.7,1.2,2.3c2,2.1,5,2.8,7.8,1.8
	c0.3-0.1,1.2-0.3,1.4-0.7c0.3-0.6-0.3-0.7-0.8-1L592.3,223.1z"/>
<path class="st13" d="M598.5,238.7c2.7-2.3,3.7-5.9,2.5-9.2c-0.1-0.2-0.3-0.5-0.4-0.7c-0.3-0.5-0.6-0.9-1-1.2
	c-0.8,1.1-1.4,2.4-1.7,3.7C597.3,233.7,597.5,236.4,598.5,238.7z M591.6,230c-0.5,1.3-0.4,2.8,0.5,4c0.7-1,1.2-2,1.4-3.2
	c0.1-0.3,0.1-0.6-0.1-0.9c-0.2-0.2-0.5-0.3-0.8-0.2C592.2,229.8,591.8,230.2,591.6,230z"/>
<path class="st22" d="M592.5,229.5c0.2,1.5-0.6,3-1.2,4.4c-0.6,1.4-1.2,3-0.8,4.5c0.6,1.5,2.2,2.5,3.9,2.3c1.6-0.2,3-1.2,3.9-2.6
	c0.8-1.4,1.1-3,1-4.7c-0.1-1.6-0.4-3.2-0.8-4.7C596.5,227.6,594.3,228.2,592.5,229.5z"/>
<path class="st22" d="M598.9,233.9c0.2-0.2,0.4-0.4,0.7-0.5c0.3-0.1,0.5-0.1,0.8-0.1c0.3,0.1,0.6,0.5,0.7,0.8c0.3,1-0.3,1.9-1.2,2.2
	c-0.5,0.1-1,0.1-1.4-0.2C598.7,235.3,598.8,234.6,598.9,233.9z"/>
<path class="st13" d="M591.4,230.6c2.3,0.1,4.5-0.3,6.5-1.4c-0.2,0.7-0.2,1.4-0.1,2.1c0.2,1,0.8,1.9,1.6,2.5c1-1.3,1.4-2.9,1.3-4.5
	c0-0.2-0.1-0.3-0.1-0.6c-0.3-0.5-0.6-0.9-1-1.2c-0.6-0.5-1.3-1-2.1-1.4c-2.1-0.8-4.4-0.8-6.3,0.3c-0.1,0.1-0.3,0.3-0.5,0.4
	c-0.3,0.3-0.7,0.8-0.9,1.2c-0.3,0.9,0.1,1.9,1,2.3C591,230.6,591.2,230.6,591.4,230.6z"/>
<path class="st22" d="M573.8,290.3c0.1,0.2,0.3,0.3,0.7,0.3h0.7l0.4-0.1c0.1,0,0.3-0.1,0.5-0.1l1-0.3c0.3-0.1,0.8-0.3,1.2-0.4
	c0.5-0.1,0.9-0.3,1.4-0.5c0.5-0.2,1-0.4,1.5-0.7s1-0.6,1.6-0.8c0.3-0.1,0.6-0.3,0.8-0.5c0.3-0.1,0.5-0.3,0.8-0.5l0.9-0.5l0.4-0.3
	l0.4-0.3l0.9-0.7l0.9-0.7c0.3-0.3,0.6-0.5,0.9-0.8s0.6-0.6,0.9-0.8l0.9-0.9l0.8-0.9c1.2-1.3,2.3-2.7,3.3-4.1c1-1.4,1.9-3,2.7-4.5
	c0.2-0.4,0.3-0.8,0.6-1.2l0.6-1.2c0.1-0.3,0.3-0.8,0.4-1.2c0.1-0.4,0.3-0.8,0.4-1.1c0.1-0.3,0.2-0.8,0.3-1.1
	c0.1-0.3,0.2-0.8,0.3-1.1l0.1-0.5c0.1-0.2,0.1-0.3,0.1-0.6l0.2-1c0-0.1,0.1-0.3,0.1-0.5c-2.7-0.9-5.2-2.3-7.4-4
	c-0.1,0.3-0.2,0.5-0.3,0.8c-0.1,0.3-0.2,0.6-0.3,0.8c-0.1,0.2-0.2,0.6-0.3,0.8c-0.1,0.3-0.2,0.6-0.3,0.8c-0.1,0.1-0.1,0.3-0.1,0.4
	c0,0.1-0.1,0.3-0.1,0.4c-0.1,0.3-0.2,0.6-0.3,0.9c-0.1,0.3-0.2,0.6-0.3,0.9c-0.1,0.3-0.2,0.6-0.3,0.9c-0.1,0.3-0.2,0.6-0.3,1
	c-0.1,0.3-0.3,0.6-0.4,1l-0.4,1c-0.5,1.3-1.2,2.6-1.9,3.9c-0.7,1.3-1.4,2.6-2.2,3.8l-0.5,0.9l-0.6,0.9c-0.2,0.3-0.4,0.5-0.5,0.8
	c-0.1,0.3-0.4,0.6-0.5,0.8l-0.6,0.8l-0.6,0.8l-0.3,0.3c-0.1,0.1-0.2,0.2-0.3,0.3l-0.5,0.7l-0.5,0.7c-0.2,0.2-0.3,0.4-0.5,0.6
	c-0.4,0.4-0.8,0.8-1.1,1.2c-0.3,0.3-0.7,0.8-1,1.1c-0.3,0.3-0.6,0.7-1,1l-0.8,0.8c-0.3,0.3-0.5,0.5-0.7,0.8l-0.3,0.3l-0.3,0.3
	c-0.1,0.1-0.3,0.3-0.4,0.6C573.8,289.9,573.8,290.2,573.8,290.3z"/>
<path class="st22" d="M578.4,289.4c-1.3,3-4.9,4.3-7.8,3c-0.5-0.3-1-0.6-1.5-1c-0.3-0.3-0.3-0.7-0.1-1c0.1-0.1,0.2-0.1,0.3-0.2
	c1.9-0.6,3.9-1,5.8-1.6c0.5-0.1,1-0.3,1.6-0.3C577.5,288.5,578,288.8,578.4,289.4z"/>
</svg>
