<svg version="1.1" xmlns="http://www.w3.org/2000/svg" xmlns:xlink="http://www.w3.org/1999/xlink" width="630" height="390" viewBox="0 0 630 390">
<style type="text/css">
	.st0{fill:#EAF1FC;}
	.st1{fill:#F8F8FF;}
	.st2{fill:#CDE4F7;}
	.st3{fill:#E9EDF4;}
	.st4{fill:#FFFFFF;}
	.st5{fill:#ECF7FE;}
	.st6{fill:#0F222C;}
	.st7{fill:#2C6292;}
	.st8{fill:#1D4259;}
	.st9{fill:#448DCE;}
	.st10{fill:#3270A7;}
	.st11{fill:#222846;}
	.st12{fill:#FFDA35;}
	.st13{fill:#0B2B46;}
	.st14{fill:#FF524F;}
	.st15{fill:#F2F2F2;}
	.st16{fill:#F19100;}
	.st17{fill:none;stroke:#05616B;stroke-width:1.9945;stroke-miterlimit:10;}
	.st18{fill:#05616B;}
	.st19{fill:#F68895;}
	.st20{fill:#D6D6D6;}
	.st21{fill:#F09976;}
	.st22{fill:#EDEDED;}
	.st23{fill:#E8815F;}
	.st24{fill:#02819F;}
</style>
<path class="st0" d="M314.5,380c173.7,0,314.5-25.1,314.5-56s-140.8-56-314.5-56S0,293.1,0,324S140.8,380,314.5,380z"/>
<path class="st1" d="M599.6,301.9c29.2-73.2,48.3-220.3-40.2-266.7c-57.9-30.3-118.3,8.7-180.2,10.5C330.6,47,283.7,14,239.9,4.6
	C124.9-20.1-55.9,51.6,23.6,301.9C222.4,301.4,400.8,302.3,599.6,301.9z"/>
<path class="st2" d="M368.4,120.5H471v182.5H368.4V120.5z"/>
<path class="st3" d="M368.4,120.5h32v182.5h-32V120.5z"/>
<path class="st4" d="M457.2,124h4.8v6.2h-4.8V124z M448.6,124h4.8v6.2h-4.8V124z M439.9,124h4.8v6.2h-4.8V124z M431.2,124h4.8v6.2
	h-4.8V124z M422.5,124h4.8v6.2h-4.8V124z M413.9,124h4.8v6.2h-4.8V124z M405.2,124h4.8v6.2h-4.8V124z M389.3,124h4.8v6.2h-4.8V124z
	 M380.7,124h4.8v6.2h-4.8V124z M372,124h4.8v6.2H372V124z M457.2,137.1h4.8v6.2h-4.8V137.1z M448.6,137.1h4.8v6.2h-4.8V137.1z
	 M439.9,137.1h4.8v6.2h-4.8V137.1z M431.2,137.1h4.8v6.2h-4.8V137.1z M422.5,137.1h4.8v6.2h-4.8V137.1z M413.9,137.1h4.8v6.2h-4.8
	V137.1z M405.2,137.1h4.8v6.2h-4.8V137.1z M389.3,137.1h4.8v6.2h-4.8V137.1z M380.7,137.1h4.8v6.2h-4.8V137.1z M372,137.1h4.8v6.2
	H372V137.1z M457.2,150.1h4.8v6.2h-4.8V150.1z M448.6,150.1h4.8v6.2h-4.8V150.1z M439.9,150.1h4.8v6.2h-4.8V150.1z M431.2,150.1h4.8
	v6.2h-4.8V150.1z M422.5,150.1h4.8v6.2h-4.8V150.1z M413.9,150.1h4.8v6.2h-4.8V150.1z M405.2,150.1h4.8v6.2h-4.8V150.1z
	 M389.3,150.1h4.8v6.2h-4.8V150.1z M380.7,150.1h4.8v6.2h-4.8V150.1z M372,150.1h4.8v6.2H372V150.1z M457.2,163.2h4.8v6.2h-4.8
	V163.2z M448.6,163.2h4.8v6.2h-4.8V163.2z M439.9,163.2h4.8v6.2h-4.8V163.2z M431.2,163.2h4.8v6.2h-4.8V163.2z M422.5,163.2h4.8v6.2
	h-4.8V163.2z M413.9,163.2h4.8v6.2h-4.8V163.2z M405.2,163.2h4.8v6.2h-4.8V163.2z M389.3,163.2h4.8v6.2h-4.8V163.2z M380.7,163.2
	h4.8v6.2h-4.8V163.2z M372,163.2h4.8v6.2H372V163.2z M457.2,176.3h4.8v6.2h-4.8V176.3z M448.6,176.3h4.8v6.2h-4.8V176.3z
	 M439.9,176.3h4.8v6.2h-4.8V176.3z M431.2,176.3h4.8v6.2h-4.8V176.3z M422.5,176.3h4.8v6.2h-4.8V176.3z M413.9,176.3h4.8v6.2h-4.8
	V176.3z M405.2,176.3h4.8v6.2h-4.8V176.3z M389.3,176.3h4.8v6.2h-4.8V176.3z M380.7,176.3h4.8v6.2h-4.8V176.3z M372,176.3h4.8v6.2
	H372V176.3z M457.2,189.3h4.8v6.2h-4.8V189.3z M448.6,189.3h4.8v6.2h-4.8V189.3z M439.9,189.3h4.8v6.2h-4.8V189.3z M431.2,189.3h4.8
	v6.2h-4.8V189.3z M422.5,189.3h4.8v6.2h-4.8V189.3z M413.9,189.3h4.8v6.2h-4.8V189.3z M405.2,189.3h4.8v6.2h-4.8V189.3z
	 M389.3,189.3h4.8v6.2h-4.8V189.3z M380.7,189.3h4.8v6.2h-4.8V189.3z M372,189.3h4.8v6.2H372V189.3z M457.2,202.3h4.8v6.2h-4.8
	V202.3z M448.6,202.3h4.8v6.2h-4.8V202.3z M439.9,202.3h4.8v6.2h-4.8V202.3z M431.2,202.3h4.8v6.2h-4.8V202.3z M422.5,202.3h4.8v6.2
	h-4.8V202.3z M413.9,202.3h4.8v6.2h-4.8V202.3z M405.2,202.3h4.8v6.2h-4.8V202.3z M389.3,202.3h4.8v6.2h-4.8V202.3z M380.7,202.3
	h4.8v6.2h-4.8V202.3z M372,202.3h4.8v6.2H372V202.3z M457.2,215.4h4.8v6.2h-4.8V215.4z M448.6,215.4h4.8v6.2h-4.8V215.4z
	 M439.9,215.4h4.8v6.2h-4.8V215.4z M431.2,215.4h4.8v6.2h-4.8V215.4z M422.5,215.4h4.8v6.2h-4.8V215.4z M413.9,215.4h4.8v6.2h-4.8
	V215.4z M405.2,215.4h4.8v6.2h-4.8V215.4z M389.3,215.4h4.8v6.2h-4.8V215.4z M380.7,215.4h4.8v6.2h-4.8V215.4z M372,215.4h4.8v6.2
	H372V215.4z M457.2,228.5h4.8v6.2h-4.8V228.5z M448.6,228.5h4.8v6.2h-4.8V228.5z M439.9,228.5h4.8v6.2h-4.8V228.5z M431.2,228.5h4.8
	v6.2h-4.8V228.5z M422.5,228.5h4.8v6.2h-4.8V228.5z M413.9,228.5h4.8v6.2h-4.8V228.5z M405.2,228.5h4.8v6.2h-4.8V228.5z
	 M389.3,228.5h4.8v6.2h-4.8V228.5z M380.7,228.5h4.8v6.2h-4.8V228.5z M372,228.5h4.8v6.2H372V228.5z M457.2,241.5h4.8v6.2h-4.8
	V241.5z M448.6,241.5h4.8v6.2h-4.8V241.5z M439.9,241.5h4.8v6.2h-4.8V241.5z M431.2,241.5h4.8v6.2h-4.8V241.5z M422.5,241.5h4.8v6.2
	h-4.8V241.5z M413.9,241.5h4.8v6.2h-4.8V241.5z M405.2,241.5h4.8v6.2h-4.8V241.5z M389.3,241.5h4.8v6.2h-4.8V241.5z M380.7,241.5
	h4.8v6.2h-4.8V241.5z M372,241.5h4.8v6.2H372V241.5z M457.2,254.6h4.8v6.2h-4.8V254.6z M448.6,254.6h4.8v6.2h-4.8V254.6z
	 M439.9,254.6h4.8v6.2h-4.8V254.6z M431.2,254.6h4.8v6.2h-4.8V254.6z M422.5,254.6h4.8v6.2h-4.8V254.6z M413.9,254.6h4.8v6.2h-4.8
	V254.6z M405.2,254.6h4.8v6.2h-4.8V254.6z M389.3,254.6h4.8v6.2h-4.8V254.6z M380.7,254.6h4.8v6.2h-4.8V254.6z M372,254.6h4.8v6.2
	H372V254.6z M457.2,267.6h4.8v6.2h-4.8V267.6z M448.6,267.6h4.8v6.2h-4.8V267.6z M439.9,267.6h4.8v6.2h-4.8V267.6z M431.2,267.6h4.8
	v6.2h-4.8V267.6z M422.5,267.6h4.8v6.2h-4.8V267.6z M413.9,267.6h4.8v6.2h-4.8V267.6z M405.2,267.6h4.8v6.2h-4.8V267.6z
	 M389.3,267.6h4.8v6.2h-4.8V267.6z M380.7,267.6h4.8v6.2h-4.8V267.6z M372,267.6h4.8v6.2H372V267.6z M457.2,280.7h4.8v6.2h-4.8
	V280.7z M448.6,280.7h4.8v6.2h-4.8V280.7z M439.9,280.7h4.8v6.2h-4.8V280.7z M431.2,280.7h4.8v6.2h-4.8V280.7z M422.5,280.7h4.8v6.2
	h-4.8V280.7z M413.9,280.7h4.8v6.2h-4.8V280.7z M405.2,280.7h4.8v6.2h-4.8V280.7z M389.3,280.7h4.8v6.2h-4.8V280.7z M380.7,280.7
	h4.8v6.2h-4.8V280.7z M372,280.7h4.8v6.2H372V280.7z M457.2,293.8h4.8v6.2h-4.8V293.8z M448.6,293.8h4.8v6.2h-4.8V293.8z
	 M439.9,293.8h4.8v6.2h-4.8V293.8z M431.2,293.8h4.8v6.2h-4.8V293.8z M422.5,293.8h4.8v6.2h-4.8V293.8z M413.9,293.8h4.8v6.2h-4.8
	V293.8z M405.2,293.8h4.8v6.2h-4.8V293.8z M389.3,293.8h4.8v6.2h-4.8V293.8z M380.7,293.8h4.8v6.2h-4.8V293.8z M372,293.8h4.8v6.2
	H372V293.8z"/>
<path class="st2" d="M287.6,151.9h95.2V303h-95.2V151.9z"/>
<path class="st3" d="M287.6,151.9h29.7V303h-29.7V151.9z"/>
<path class="st4" d="M372.3,159.5h4.4V182h-4.4V159.5z M364.3,159.5h4.4V182h-4.4V159.5z M356.3,159.5h4.4V182h-4.4V159.5z
	 M348.3,159.5h4.4V182h-4.4V159.5z M340.3,159.5h4.4V182h-4.4V159.5z M332.3,159.5h4.4V182h-4.4V159.5z M324.3,159.5h4.4V182h-4.4
	V159.5z M309.7,159.5h4.4V182h-4.4V159.5z M301.7,159.5h4.4V182h-4.4V159.5z M293.7,159.5h4.4V182h-4.4V159.5z M372.3,184.9h4.4
	v22.6h-4.4V184.9z M364.3,184.9h4.4v22.6h-4.4V184.9z M356.3,184.9h4.4v22.6h-4.4V184.9z M348.3,184.9h4.4v22.6h-4.4V184.9z
	 M340.3,184.9h4.4v22.6h-4.4V184.9z M332.3,184.9h4.4v22.6h-4.4V184.9z M324.3,184.9h4.4v22.6h-4.4V184.9z M309.7,184.9h4.4v22.6
	h-4.4V184.9z M301.7,184.9h4.4v22.6h-4.4V184.9z M293.7,184.9h4.4v22.6h-4.4V184.9z M372.3,210.5h4.4V233h-4.4V210.5z M364.3,210.5
	h4.4V233h-4.4V210.5z M356.3,210.5h4.4V233h-4.4V210.5z M348.3,210.5h4.4V233h-4.4V210.5z M340.3,210.5h4.4V233h-4.4V210.5z
	 M332.3,210.5h4.4V233h-4.4V210.5z M324.3,210.5h4.4V233h-4.4V210.5z M309.7,210.5h4.4V233h-4.4V210.5z M301.7,210.5h4.4V233h-4.4
	V210.5z M293.7,210.5h4.4V233h-4.4V210.5z M372.3,236h4.4v22.6h-4.4V236z M364.3,236h4.4v22.6h-4.4V236z M356.3,236h4.4v22.6h-4.4
	V236z M348.3,236h4.4v22.6h-4.4V236z M340.3,236h4.4v22.6h-4.4V236z M332.3,236h4.4v22.6h-4.4V236z M324.3,236h4.4v22.6h-4.4V236z
	 M309.7,236h4.4v22.6h-4.4V236z M301.7,236h4.4v22.6h-4.4V236z M293.7,236h4.4v22.6h-4.4V236z M372.3,261.5h4.4v22.6h-4.4V261.5z
	 M364.3,261.5h4.4v22.6h-4.4V261.5z M356.3,261.5h4.4v22.6h-4.4V261.5z M348.3,261.5h4.4v22.6h-4.4V261.5z M340.3,261.5h4.4v22.6
	h-4.4V261.5z M332.3,261.5h4.4v22.6h-4.4V261.5z M324.3,261.5h4.4v22.6h-4.4V261.5z M309.7,261.5h4.4v22.6h-4.4V261.5z M301.7,261.5
	h4.4v22.6h-4.4V261.5z M293.7,261.5h4.4v22.6h-4.4V261.5z"/>
<path class="st2" d="M65,98.7h95.2v204.2H65V98.7z"/>
<path class="st3" d="M65,98.7h29.7v204.2H65V98.7z"/>
<path class="st4" d="M125.7,108.4h4.4V131h-4.4V108.4z M117.7,108.4h4.4V131h-4.4V108.4z M109.8,108.4h4.4V131h-4.4V108.4z
	 M101.7,108.4h4.4V131h-4.4V108.4z M87.1,108.4h4.4V131h-4.4V108.4z M79.1,108.4h4.4V131h-4.4V108.4z M71.1,108.4h4.4V131h-4.4
	V108.4z M125.7,134h4.4v22.6h-4.4V134z M117.7,134h4.4v22.6h-4.4V134z M109.8,134h4.4v22.6h-4.4V134z M101.7,134h4.4v22.6h-4.4V134z
	 M87.1,134h4.4v22.6h-4.4V134z M79.1,134h4.4v22.6h-4.4V134z M71.1,134h4.4v22.6h-4.4V134z M125.7,159.5h4.4V182h-4.4V159.5z
	 M117.7,159.5h4.4V182h-4.4V159.5z M109.8,159.5h4.4V182h-4.4V159.5z M101.7,159.5h4.4V182h-4.4V159.5z M87.1,159.5h4.4V182h-4.4
	V159.5z M79.1,159.5h4.4V182h-4.4V159.5z M71.1,159.5h4.4V182h-4.4V159.5z M125.7,184.9h4.4v22.6h-4.4V184.9z M117.7,184.9h4.4v22.6
	h-4.4V184.9z M109.8,184.9h4.4v22.6h-4.4V184.9z M101.7,184.9h4.4v22.6h-4.4V184.9z M87.1,184.9h4.4v22.6h-4.4V184.9z M79.1,184.9
	h4.4v22.6h-4.4V184.9z M71.1,184.9h4.4v22.6h-4.4V184.9z M117.7,210.5h4.4V233h-4.4V210.5z M109.8,210.5h4.4V233h-4.4V210.5z
	 M101.7,210.5h4.4V233h-4.4V210.5z M87.1,210.5h4.4V233h-4.4V210.5z M79.1,210.5h4.4V233h-4.4V210.5z M71.1,210.5h4.4V233h-4.4
	V210.5z M109.8,236h4.4v22.6h-4.4V236z M101.7,236h4.4v22.6h-4.4V236z M87.1,236h4.4v22.6h-4.4V236z M79.1,236h4.4v22.6h-4.4V236z
	 M71.1,236h4.4v22.6h-4.4V236z M109.8,261.5h4.4v22.6h-4.4V261.5z M101.7,261.5h4.4v22.6h-4.4V261.5z M87.1,261.5h4.4v22.6h-4.4
	V261.5z M79.1,261.5h4.4v22.6h-4.4V261.5z M71.1,261.5h4.4v22.6h-4.4V261.5z"/>
<path class="st2" d="M240.4,115.7h66.1V303h-66.1V115.7z"/>
<path class="st5" d="M240.4,115.7h20.5V303h-20.5V115.7z"/>
<path class="st4" d="M240.5,122.4h66.1v1.6h-66.1V122.4z M240.5,134.7h66.1v1.6h-66.1V134.7z M240.5,147.1h66.1v1.6h-66.1V147.1z
	 M240.5,159.5h66.1v1.6h-66.1V159.5z M240.5,171.9h66.1v1.6h-66.1V171.9z M240.5,184.2h66.1v1.6h-66.1V184.2z M240.5,196.6h66.1v1.6
	h-66.1V196.6z M240.5,208.9h66.1v1.6h-66.1V208.9z M240.5,221.3h66.1v1.6h-66.1V221.3z M240.5,233.7h66.1v1.6h-66.1V233.7z
	 M240.5,246.1h66.1v1.6h-66.1V246.1z M240.5,258.4h66.1v1.6h-66.1V258.4z M240.5,270.8h66.1v1.6h-66.1V270.8z M240.5,283.1h66.1v1.6
	h-66.1V283.1z"/>
<path class="st2" d="M470.1,153h103.7V303H470.1V153z"/>
<path class="st3" d="M470.1,153h32.3V303h-32.3V153z"/>
<path class="st4" d="M470.1,161.1h103.7v1.2H470.1V161.1z M470.1,171h103.7v1.2H470.1V171z M470.1,180.9h103.7v1.2H470.1V180.9z
	 M470.1,190.8h103.7v1.2H470.1V190.8z M470.1,200.7h103.7v1.2H470.1V200.7z M470.1,210.7h103.7v1.2H470.1V210.7z M470.1,220.5h103.7
	v1.2H470.1V220.5z M470.1,230.5h103.7v1.2H470.1V230.5z M470.1,240.3h103.7v1.2H470.1V240.3z M470.1,250.3h103.7v1.2H470.1V250.3z
	 M470.1,260.1h103.7v1.2H470.1V260.1z M470.1,270.1h103.7v1.2H470.1V270.1z M470.1,279.9h103.7v1.2H470.1V279.9z M470.1,289.9h103.7
	v1.2H470.1V289.9z"/>
<path class="st2" d="M132.7,43.3h121.1V303H132.7V43.3z"/>
<path class="st5" d="M132.7,43.3h37.7V303h-37.7V43.3z"/>
<path class="st4" d="M240.4,55.6h5.6v7.5h-5.6V55.6z M230.2,55.6h5.6v7.5h-5.6V55.6z M220.1,55.6h5.6v7.5h-5.6V55.6z M209.9,55.6
	h5.6v7.5h-5.6V55.6z M199.7,55.6h5.6v7.5h-5.6V55.6z M189.5,55.6h5.6v7.5h-5.6V55.6z M179.4,55.6h5.6v7.5h-5.6V55.6z M160.8,55.6
	h5.6v7.5h-5.6V55.6z M150.6,55.6h5.6v7.5h-5.6V55.6z M140.4,55.6h5.6v7.5h-5.6V55.6z M240.4,71.3h5.6v7.5h-5.6V71.3z M230.2,71.3
	h5.6v7.5h-5.6V71.3z M220.1,71.3h5.6v7.5h-5.6V71.3z M209.9,71.3h5.6v7.5h-5.6V71.3z M199.7,71.3h5.6v7.5h-5.6V71.3z M189.5,71.3
	h5.6v7.5h-5.6V71.3z M179.4,71.3h5.6v7.5h-5.6V71.3z M160.8,71.3h5.6v7.5h-5.6V71.3z M150.6,71.3h5.6v7.5h-5.6V71.3z M140.4,71.3
	h5.6v7.5h-5.6V71.3z M240.4,87h5.6v7.5h-5.6V87z M230.2,87h5.6v7.5h-5.6V87z M220.1,87h5.6v7.5h-5.6V87z M209.9,87h5.6v7.5h-5.6V87z
	 M199.7,87h5.6v7.5h-5.6V87z M189.5,87h5.6v7.5h-5.6V87z M179.4,87h5.6v7.5h-5.6V87z M160.8,87h5.6v7.5h-5.6V87z M150.6,87h5.6v7.5
	h-5.6V87z M140.4,87h5.6v7.5h-5.6V87z M240.4,102.6h5.6v7.5h-5.6V102.6z M230.2,102.6h5.6v7.5h-5.6V102.6z M220.1,102.6h5.6v7.5
	h-5.6V102.6z M209.9,102.6h5.6v7.5h-5.6V102.6z M199.7,102.6h5.6v7.5h-5.6V102.6z M189.5,102.6h5.6v7.5h-5.6V102.6z M179.4,102.6
	h5.6v7.5h-5.6V102.6z M160.8,102.6h5.6v7.5h-5.6V102.6z M150.6,102.6h5.6v7.5h-5.6V102.6z M140.4,102.6h5.6v7.5h-5.6V102.6z
	 M240.4,118.3h5.6v7.5h-5.6V118.3z M230.2,118.3h5.6v7.5h-5.6V118.3z M220.1,118.3h5.6v7.5h-5.6V118.3z M209.9,118.3h5.6v7.5h-5.6
	V118.3z M199.7,118.3h5.6v7.5h-5.6V118.3z M189.5,118.3h5.6v7.5h-5.6V118.3z M179.4,118.3h5.6v7.5h-5.6V118.3z M160.8,118.3h5.6v7.5
	h-5.6V118.3z M150.6,118.3h5.6v7.5h-5.6V118.3z M140.4,118.3h5.6v7.5h-5.6V118.3z M240.4,134h5.6v7.5h-5.6V134z M230.2,134h5.6v7.5
	h-5.6V134z M220.1,134h5.6v7.5h-5.6V134z M209.9,134h5.6v7.5h-5.6V134z M199.7,134h5.6v7.5h-5.6V134z M189.5,134h5.6v7.5h-5.6V134z
	 M179.4,134h5.6v7.5h-5.6V134z M160.8,134h5.6v7.5h-5.6V134z M150.6,134h5.6v7.5h-5.6V134z M140.4,134h5.6v7.5h-5.6V134z
	 M240.4,149.5h5.6v7.5h-5.6V149.5z M230.2,149.5h5.6v7.5h-5.6V149.5z M220.1,149.5h5.6v7.5h-5.6V149.5z M209.9,149.5h5.6v7.5h-5.6
	V149.5z M199.7,149.5h5.6v7.5h-5.6V149.5z M189.5,149.5h5.6v7.5h-5.6V149.5z M179.4,149.5h5.6v7.5h-5.6V149.5z M160.8,149.5h5.6v7.5
	h-5.6V149.5z M150.6,149.5h5.6v7.5h-5.6V149.5z M140.4,149.5h5.6v7.5h-5.6V149.5z M240.4,165.2h5.6v7.5h-5.6V165.2z M230.2,165.2
	h5.6v7.5h-5.6V165.2z M220.1,165.2h5.6v7.5h-5.6V165.2z M209.9,165.2h5.6v7.5h-5.6V165.2z M199.7,165.2h5.6v7.5h-5.6V165.2z
	 M189.5,165.2h5.6v7.5h-5.6V165.2z M179.4,165.2h5.6v7.5h-5.6V165.2z M160.8,165.2h5.6v7.5h-5.6V165.2z M150.6,165.2h5.6v7.5h-5.6
	V165.2z M140.4,165.2h5.6v7.5h-5.6V165.2z M240.4,180.9h5.6v7.5h-5.6V180.9z M230.2,180.9h5.6v7.5h-5.6V180.9z M220.1,180.9h5.6v7.5
	h-5.6V180.9z M209.9,180.9h5.6v7.5h-5.6V180.9z M199.7,180.9h5.6v7.5h-5.6V180.9z M189.5,180.9h5.6v7.5h-5.6V180.9z M179.4,180.9
	h5.6v7.5h-5.6V180.9z M160.8,180.9h5.6v7.5h-5.6V180.9z M150.6,180.9h5.6v7.5h-5.6V180.9z M140.4,180.9h5.6v7.5h-5.6V180.9z
	 M240.4,196.5h5.6v7.5h-5.6V196.5z M230.2,196.5h5.6v7.5h-5.6V196.5z M220.1,196.5h5.6v7.5h-5.6V196.5z M209.9,196.5h5.6v7.5h-5.6
	V196.5z M199.7,196.5h5.6v7.5h-5.6V196.5z M189.5,196.5h5.6v7.5h-5.6V196.5z M179.4,196.5h5.6v7.5h-5.6V196.5z M160.8,196.5h5.6v7.5
	h-5.6V196.5z M150.6,196.5h5.6v7.5h-5.6V196.5z M140.4,196.5h5.6v7.5h-5.6V196.5z M240.4,212.2h5.6v7.5h-5.6V212.2z M230.2,212.2
	h5.6v7.5h-5.6V212.2z M220.1,212.2h5.6v7.5h-5.6V212.2z M209.9,212.2h5.6v7.5h-5.6V212.2z M199.7,212.2h5.6v7.5h-5.6V212.2z
	 M189.5,212.2h5.6v7.5h-5.6V212.2z M179.4,212.2h5.6v7.5h-5.6V212.2z M160.8,212.2h5.6v7.5h-5.6V212.2z M150.6,212.2h5.6v7.5h-5.6
	V212.2z M140.4,212.2h5.6v7.5h-5.6V212.2z M240.4,227.9h5.6v7.5h-5.6V227.9z M230.2,227.9h5.6v7.5h-5.6V227.9z M220.1,227.9h5.6v7.5
	h-5.6V227.9z M209.9,227.9h5.6v7.5h-5.6V227.9z M199.7,227.9h5.6v7.5h-5.6V227.9z M189.5,227.9h5.6v7.5h-5.6V227.9z M179.4,227.9
	h5.6v7.5h-5.6V227.9z M160.8,227.9h5.6v7.5h-5.6V227.9z M150.6,227.9h5.6v7.5h-5.6V227.9z M140.4,227.9h5.6v7.5h-5.6V227.9z
	 M240.4,243.5h5.6v7.5h-5.6V243.5z M230.2,243.5h5.6v7.5h-5.6V243.5z M220.1,243.5h5.6v7.5h-5.6V243.5z M209.9,243.5h5.6v7.5h-5.6
	V243.5z M199.7,243.5h5.6v7.5h-5.6V243.5z M189.5,243.5h5.6v7.5h-5.6V243.5z M179.4,243.5h5.6v7.5h-5.6V243.5z M160.8,243.5h5.6v7.5
	h-5.6V243.5z M150.6,243.5h5.6v7.5h-5.6V243.5z M140.4,243.5h5.6v7.5h-5.6V243.5z M240.4,259.2h5.6v7.5h-5.6V259.2z M230.2,259.2
	h5.6v7.5h-5.6V259.2z M220.1,259.2h5.6v7.5h-5.6V259.2z M209.9,259.2h5.6v7.5h-5.6V259.2z M199.7,259.2h5.6v7.5h-5.6V259.2z
	 M189.5,259.2h5.6v7.5h-5.6V259.2z M179.4,259.2h5.6v7.5h-5.6V259.2z M160.8,259.2h5.6v7.5h-5.6V259.2z M150.6,259.2h5.6v7.5h-5.6
	V259.2z M140.4,259.2h5.6v7.5h-5.6V259.2z"/>
<path class="st5" d="M236.7,43.3h-87.1v-11c0-4.6,3.5-8.3,8-8.3h71.1c4.4,0,8,3.7,8,8.3L236.7,43.3z"/>
<path class="st2" d="M591.8,292.5H588c-0.4,0-0.8,0.3-0.8,0.7l-0.6,14.5h6.4l-0.3-14.5C592.6,292.8,592.2,292.5,591.8,292.5z"/>
<path class="st2" d="M591.2,292.7h-2.9c-0.7,0-1.3-0.6-1.3-1.4v-2.6c0-0.7,0.6-1.4,1.3-1.4h2.9c0.7,0,1.3,0.6,1.3,1.4v2.7
	C592.5,292.1,591.9,292.7,591.2,292.7z"/>
<path class="st2" d="M591.9,231h-4.7c-1.1,0-2.1-0.5-2.1-1.3v-2.4c0-0.7,0.9-1.3,2.1-1.3h4.7c1.1,0,2.1,0.5,2.1,1.3v2.5
	C594,230.5,593.1,231,591.9,231z"/>
<path class="st2" d="M589,242.8h1.6v44.6H589V242.8z"/>
<path class="st2" d="M593.2,243.9h-6.8c-0.6,0-1-0.4-1-1s0.4-1,1-1h6.8c0.6,0,1,0.4,1,1C594.1,243.5,593.7,243.9,593.2,243.9z"/>
<path class="st4" d="M593.1,241.9h-6.7l-1-10.2h8.8L593.1,241.9z"/>
<path class="st2" d="M594.7,232.2h-10c-0.6,0-1-0.4-1-1c0-0.6,0.4-1,1-1h10c0.6,0,1,0.4,1,1C595.7,231.7,595.3,232.2,594.7,232.2z
	 M590.8,226.9h-2.1v-1c0-0.6,0.5-1.1,1-1.1c0.6,0,1,0.5,1,1.1V226.9z"/>
<path class="st5" d="M550.1,221.1c3.5-0.7,6,3.2,6.6,6.6c0.3,1.8,0.3,3.9,1.7,5.1c0.6,0.4,1.2,0.8,1.9,1.1c3.9,2.1,4.2,6,4.2,9.9
	c-0.1,0.7,0.1,1.3,0.3,1.9c0.3,0.7,1,1,1.5,1.6c0.3,0.4,0.4,0.9,0.5,1.5c1,4.5,0.5,8.6,0.4,13.1c-0.2,31.8-16.7,30.3-16.7,30.3H550
	c-4-0.2-7.6-2.8-10-6c-2.4-3.3-3.8-7.5-4.6-11.6c-0.6-3-0.9-6.1-1-9.1c-0.2-3.3-0.8-6.4,0.3-9.6c0.6-1.4,1.4-2.9,1.5-4.5
	c0-1.7-1-3.3-1-5.1c0-1,0.2-2.1,0.6-3c0.8-2.4,1.9-4.8,3-7c1-1.7,3.1-2.7,3.7-4.6c0.1-0.8,0.2-1.6,0.1-2.5c0.1-4.1,3.5-6.9,7-7.9
	L550.1,221.1L550.1,221.1z"/>
<path class="st6" d="M214.2,334.1c0-6.5,1.9-12.9,5.6-18.3c3.6-5.4,8.8-9.7,14.8-12.1c6-2.5,12.7-3.2,19.1-1.9
	c6.4,1.3,12.3,4.4,16.9,9c4.6,4.6,7.8,10.5,9,16.9c1.3,6.4,0.6,13-1.9,19.1c-2.5,6-6.7,11.2-12.1,14.8c-5.4,3.6-11.8,5.6-18.3,5.6
	c-8.7,0-17.1-3.5-23.3-9.7C217.7,351.2,214.2,342.9,214.2,334.1L214.2,334.1z M394.9,334.5c0-6.5,1.9-12.8,5.5-18.2
	c3.6-5.4,8.7-9.6,14.7-12c6-2.5,12.5-3.1,18.9-1.9s12.2,4.4,16.7,8.9c4.6,4.6,7.7,10.4,8.9,16.7c1.3,6.3,0.6,12.9-1.9,18.9
	c-2.5,6-6.7,11.1-12,14.7c-5.4,3.6-11.7,5.5-18.2,5.5c-8.7,0-17-3.5-23.1-9.6C398.4,351.5,395,343.2,394.9,334.5L394.9,334.5z"/>
<path class="st7" d="M532.1,166H414.6v149.5h117.6V166z"/>
<path class="st8" d="M421.4,313.9H124.2c-2.9,0-5.2,2.6-5.2,5.8v12.5c0,3.2,2.3,5.8,5.2,5.8h297.2V313.9z"/>
<path class="st9" d="M126.8,313.9h133.8V203.5h-67.1c-6.4,0-12.8,1.6-18.5,4.7c-5.7,3.1-10.5,7.5-14.1,12.9L133.5,262
	c-4.4,6.6-6.7,14.3-6.7,22.3L126.8,313.9z"/>
<path class="st6" d="M229.7,268.7v-52.9h-35.3c-4.5,0-8.9,1.1-12.8,3.2c-4,2.1-7.3,5.1-9.8,8.8L144,268.8L229.7,268.7z"/>
<path class="st10" d="M258.4,203.5h-12.5v110.3h12.5V203.5z"/>
<path class="st11" d="M215,277.5h11.9c0.7,0,1.4-0.3,1.9-0.8c0.5-0.5,0.8-1.2,0.8-1.9v-1.6h-17.4v1.6c0,0.7,0.3,1.4,0.8,1.9
	C213.6,277.2,214.3,277.5,215,277.5L215,277.5z"/>
<path class="st12" d="M137.3,299.8c0-2.8-1.1-5.4-3.1-7.4c-2-2-4.6-3.1-7.4-3.1v21.1c2.8,0,5.5-1.2,7.4-3.1
	C136.2,305.3,137.3,302.6,137.3,299.8L137.3,299.8z"/>
<path class="st13" d="M531.9,313.9H421.4c-0.9,0-1.9,0.2-2.7,0.5c-0.9,0.4-1.6,0.9-2.3,1.5c-0.7,0.7-1.2,1.4-1.5,2.3
	c-0.4,0.9-0.5,1.8-0.5,2.7v9.8c0,1.9,0.7,3.7,2.1,5c1.3,1.3,3.1,2.1,5,2.1h110.6c1.9,0,3.7-0.7,5-2.1c1.3-1.3,2.1-3.1,2.1-5V321
	c0-1.9-0.8-3.7-2.1-5C535.6,314.6,533.8,313.9,531.9,313.9z"/>
<path class="st14" d="M434.3,325.9c0-1-0.3-2-0.9-2.8c-0.6-0.8-1.4-1.5-2.3-1.9c-0.9-0.4-2-0.5-2.9-0.3c-1,0.2-1.9,0.7-2.6,1.4
	c-0.7,0.7-1.2,1.6-1.4,2.6c-0.2,1-0.1,2,0.3,2.9c0.4,0.9,1,1.7,1.9,2.3c0.8,0.6,1.8,0.9,2.8,0.9c0.7,0,1.3-0.1,1.9-0.4
	c0.6-0.3,1.2-0.6,1.6-1.1c0.5-0.5,0.9-1,1.1-1.6C434.1,327.2,434.3,326.6,434.3,325.9L434.3,325.9z"/>
<path class="st12" d="M443,325.9c0-0.7-0.3-1.3-0.7-1.8c-0.5-0.5-1.1-0.7-1.7-0.7h0c-0.7,0-1.3,0.3-1.8,0.7
	c-0.5,0.5-0.8,1.1-0.8,1.8c0,0.3,0.1,0.7,0.2,1c0.1,0.3,0.3,0.6,0.5,0.8c0.2,0.2,0.5,0.4,0.8,0.5s0.6,0.2,1,0.2h0.1
	c0.6,0,1.2-0.2,1.7-0.6c0.5-0.4,0.8-1,0.8-1.6V325.9z"/>
<path class="st14" d="M522.2,325.9c0,1,0.3,2,0.9,2.8c0.6,0.8,1.4,1.5,2.3,1.9c0.9,0.4,2,0.5,2.9,0.3c1-0.2,1.9-0.7,2.6-1.4
	c0.7-0.7,1.2-1.6,1.4-2.6c0.2-1,0.1-2-0.3-2.9c-0.4-0.9-1-1.7-1.9-2.3c-0.8-0.6-1.8-0.9-2.8-0.9c-1.3,0-2.6,0.6-3.6,1.5
	C522.8,323.2,522.2,324.5,522.2,325.9z"/>
<path class="st12" d="M513.5,325.9c0,0.5,0.1,1,0.4,1.4c0.3,0.4,0.7,0.7,1.1,0.9c0.5,0.2,1,0.2,1.4,0.1c0.5-0.1,0.9-0.3,1.3-0.7
	c0.3-0.3,0.6-0.8,0.7-1.3c0.1-0.5,0-1-0.1-1.4c-0.2-0.5-0.5-0.8-0.9-1.1c-0.4-0.3-0.9-0.4-1.4-0.4c-0.6,0-1.3,0.2-1.7,0.7
	c-0.5,0.4-0.7,1-0.8,1.7V325.9z"/>
<path class="st10" d="M532.1,166h-57.6h-28.8h-14.4h-7.2h-2.6l-4.6,6.8h115.3V166z"/>
<path class="st15" d="M245.7,288.1l-55.9,19.7c0,0,5.5,4.1,7.3,6.6h48.6V288.1z"/>
<path class="st16" d="M190.3,307.9l55.6-17.8V278l-65.3,26C184,304.7,187.3,306,190.3,307.9L190.3,307.9z"/>
<path class="st9" d="M421.5,166h-163v147.8h163V166z"/>
<path class="st15" d="M421.5,284l-163,4.6v25.2h163V284z"/>
<path class="st6" d="M349.6,302.9c9.3,0,18.1,3.7,24.7,10.2c6.5,6.5,10.2,15.4,10.2,24.7h-69.8c0-4.6,0.9-9.1,2.6-13.3
	s4.3-8.1,7.5-11.3s7.1-5.8,11.3-7.6c4.2-1.8,8.7-2.7,13.3-2.7H349.6z"/>
<path class="st6" d="M354.1,308.3c7.5,0.2,14.7,3.2,20.1,8.5c5.4,5.3,8.5,12.5,8.7,20c0.2,7.5-2.5,14.9-7.5,20.5
	c-5,5.6-12.1,9.1-19.6,9.7H346v-58.8L354.1,308.3L354.1,308.3z"/>
<path class="st13" d="M318.9,337.7c0-5.8,1.7-11.5,5-16.3s7.8-8.6,13.2-10.8c5.4-2.2,11.3-2.8,17-1.7c5.7,1.1,10.9,3.9,15.1,8.1
	c4.1,4.1,6.9,9.4,8.1,15.1c1.1,5.7,0.6,11.6-1.7,17s-6,10-10.8,13.2c-4.8,3.2-10.5,5-16.3,5c-7.8,0-15.3-3.1-20.8-8.6
	C322,353,318.9,345.5,318.9,337.7L318.9,337.7z"/>
<path class="st15" d="M348.2,352.1c-8,0-14.4-6.5-14.4-14.4c0-8,6.5-14.4,14.4-14.4c8,0,14.4,6.5,14.4,14.4
	C362.6,345.7,356.2,352.1,348.2,352.1z"/>
<path class="st16" d="M258.4,288.7l163-4.6V269l-163.1,7.4L258.4,288.7L258.4,288.7z"/>
<path class="st6" d="M172.2,302.9c9.3,0,18.1,3.7,24.7,10.2c6.5,6.5,10.2,15.4,10.2,24.7h-69.8c0-4.6,0.9-9.1,2.6-13.3
	c1.7-4.2,4.3-8.1,7.5-11.3c3.2-3.2,7.1-5.8,11.3-7.6c4.2-1.8,8.7-2.7,13.3-2.7H172.2z"/>
<path class="st6" d="M176.8,308.3c7.5,0.2,14.7,3.2,20.1,8.5c5.4,5.3,8.5,12.5,8.7,20c0.2,7.5-2.5,14.9-7.5,20.5
	c-5,5.6-12.1,9.1-19.6,9.7h-9.7v-58.8L176.8,308.3L176.8,308.3z"/>
<path class="st13" d="M141.5,337.7c0-5.8,1.7-11.5,5-16.3c3.2-4.8,7.8-8.6,13.2-10.8c5.4-2.2,11.3-2.8,17-1.7
	c5.7,1.1,10.9,3.9,15.1,8.1c4.1,4.1,6.9,9.4,8.1,15.1c1.1,5.7,0.6,11.6-1.7,17s-6,10-10.8,13.2c-4.8,3.2-10.5,5-16.3,5
	c-7.8,0-15.3-3.1-20.8-8.6C144.6,353,141.5,345.5,141.5,337.7L141.5,337.7z"/>
<path class="st15" d="M170.9,352.1c-8,0-14.4-6.5-14.4-14.4c0-8,6.5-14.4,14.4-14.4c8,0,14.4,6.5,14.4,14.4
	C185.3,345.7,178.8,352.1,170.9,352.1z"/>
<path class="st17" d="M170.4,265.9c2.8-1.1,3.2-6.7,0.9-12.5c-2.3-5.8-6.4-9.7-9.1-8.6c-2.8,1.1-3.2,6.7-1,12.5
	C163.5,263.2,167.6,267,170.4,265.9z"/>
<path class="st18" d="M171.1,251.3l-9.9,3.3c0,0-0.1,1,0.8,1c3.8,0.1,5.8,2.9,7.4,11.1c0,0,3.6,1,3.7-1.9c0,0-5.5-8.1-1.6-12.5"/>
<path class="st19" d="M197.9,241.4c0.2,0.4,0.4,0.8,0.7,1.2c0.6,0.7,1.4,1.3,2.3,1.6c0.9,0.4,1.8,0.5,2.7,0.4
	c1.3-0.1,2.6-0.6,3.6-1.4c1-0.8,1.8-2,2.1-3.3h-0.1l-4.5-1.8c-1.7,0.9-3.7,1.8-5.6,2.7C198.8,241.1,198.3,241.3,197.9,241.4z"/>
<path class="st4" d="M223.3,255.9c-1.1,0.8-2.4,1.4-3.7,1.9c-0.1,0.7-0.2,1.4-0.2,2.2c-0.9,8.3-0.4,1-0.6,8c-2.2,0.3-29.4,1-29.4,1
	l1.8-13.5l-3.1-0.7c-0.1-3.1,0.8-6.2,2.3-8.9c0.8-1.3,1.9-2.4,3.3-3c1-0.5,2.7-1,3.4-1.4l1.3-0.6c2-0.9,4-1.8,5.8-2.7l4.6,1.9h0.1
	l2.6,1l1.7,0.7c0.8,0.1,1.6,0.2,2.4,0.4c1.4,0.3,2.7,1.1,3.7,2.2c1,1.3,1.7,2.8,2,4.5C222,251.3,222.7,253.6,223.3,255.9z"/>
<path class="st20" d="M208.9,238.7c0,0-6.2-0.7-9.5,1.3c0,0,0.4,1.5,1.1,1.6c2,0.2,7.9-1.1,7.9-1.1L208.9,238.7z"/>
<path class="st21" d="M207.4,236.5c0.1,1.7,0.5,3.3,1.2,4.8c-3,0.8-6.1,0.9-9.2,0.3c0.5-1.6,0.8-3.2,0.8-4.9v-0.9
	c0-0.7-0.1-1.4-0.2-2.1c1.6-2.8,5.4-4.2,9-4.1c-0.8,1.4-1.3,3-1.5,4.6C207.4,235,207.4,235.7,207.4,236.5
	C207.4,236.4,207.4,236.5,207.4,236.5z"/>
<path class="st22" d="M208.9,238.7c0,0-2,3.4-7.4,3.3l1.5,3.7c0,0,5.3-0.7,7.1-4.6L208.9,238.7z"/>
<path class="st23" d="M207.5,234.3c-0.1,0.7-0.1,1.4-0.1,2.1v0.1c-0.7-0.2-1.4-0.3-2.1-0.3c-1,0.1-2,0.2-3,0.5
	c-0.7,0.1-1.4,0.2-2.2,0.1v-0.9c0-0.7-0.1-1.4-0.2-2.1c1.6-2.8,5.4-4.2,9-4.1C208.2,231.1,207.7,232.7,207.5,234.3z"/>
<path class="st22" d="M201.5,242c-0.5-0.1-1-0.4-1.3-0.7c-0.4-0.4-0.6-0.8-0.8-1.3l-1.3,1.6c0,0-0.1,2.5,1.2,3.6L201.5,242z"/>
<path class="st24" d="M200.6,216.7c0.2-0.7,0.6-1.4,1.1-1.9c0.5-0.6,1.1-1,1.8-1.3c1.4-0.6,2.9-0.7,4.3-0.3c1.5,0.3,2.8,1.1,3.9,2.3
	c1,1.1,1.6,2.6,1.7,4.1c0.1,2.4-1.3,4.6-2.6,6.6C208.2,222.3,204.7,219.1,200.6,216.7z"/>
<path class="st18" d="M199,214c-0.7-0.5-1.4-0.7-2.2-0.7c-0.5,0.1-1,0.5-1.3,0.9c-0.3,0.5-0.5,1-0.4,1.6c0.1,1.1,0.7,2.1,1.5,2.9
	c1.3,1.2,2.9,2.1,4.6,2.4c1.7,0.3,3.5,0.1,5.2-0.5c0.4-0.2,1.5-0.5,1.7-1c0.3-0.7-0.4-0.8-1-1.1L199,214z"/>
<path class="st13" d="M207.6,233.2c1.6-1.4,2.7-3.3,3.2-5.4c0.5-2.1,0.3-4.3-0.5-6.2c-0.2-0.3-0.3-0.6-0.5-0.8
	c-0.4-0.5-0.8-1-1.3-1.5c-1,1.4-1.6,3.1-2,4.8C205.9,227.1,206.3,230.3,207.6,233.2z M198.6,222.8c-0.3,0.8-0.4,1.7-0.2,2.6
	c0.1,0.9,0.5,1.7,1.1,2.4c0.8-1.2,1.3-2.6,1.6-4c0.1-0.2,0.1-0.4,0-0.6c0-0.2-0.1-0.4-0.2-0.5c-0.1-0.1-0.3-0.2-0.5-0.3
	c-0.2,0-0.4,0-0.5,0C199.3,222.5,198.9,222.9,198.6,222.8z"/>
<path class="st21" d="M199.7,222.1c0.4,1.9-0.5,3.8-1.3,5.6c-0.8,1.8-1.4,3.8-0.7,5.6c0.4,0.9,1.1,1.7,2,2.2
	c0.9,0.5,1.9,0.7,2.9,0.5c1-0.2,1.9-0.6,2.7-1.2c0.8-0.6,1.5-1.4,1.9-2.3c0.9-1.8,1.2-3.8,1-5.8c-0.2-2-0.7-4-1.3-5.9
	C204.7,219.4,201.8,220.3,199.7,222.1z"/>
<path class="st21" d="M207.9,227.2c0.2-0.3,0.5-0.5,0.8-0.7c0.3-0.2,0.7-0.2,1-0.1c0.2,0.1,0.4,0.2,0.6,0.4c0.2,0.2,0.3,0.4,0.3,0.6
	c0.1,0.4,0.1,0.9,0,1.3c-0.1,0.4-0.4,0.8-0.7,1.1c-0.3,0.3-0.8,0.5-1.2,0.5c-0.4,0-0.9-0.1-1.3-0.3
	C207.7,229.1,207.8,228.1,207.9,227.2z"/>
<path class="st13" d="M198.4,223.6c2.9,0.1,5.7-0.6,8.1-2.1c-0.2,0.8-0.2,1.7,0,2.6c0.3,1.2,1.1,2.3,2.1,3c1.1-1.6,1.6-3.6,1.4-5.6
	c0-0.2-0.1-0.4-0.2-0.7c-0.4-0.5-0.8-1-1.3-1.5c-0.8-0.7-1.7-1.3-2.6-1.6c-1.3-0.5-2.7-0.7-4-0.5c-1.4,0.1-2.7,0.6-3.9,1.3
	c-0.2,0.2-0.4,0.3-0.6,0.5c-0.5,0.5-0.8,1-1.1,1.6c-0.2,0.5-0.2,1.1,0,1.7c0.2,0.5,0.7,1,1.2,1.2
	C197.8,223.5,198.1,223.6,198.4,223.6z"/>
<path class="st21" d="M223.3,255.9l2,7.7c0.2,0.6,0.2,1.2,0.1,1.9c-0.1,0.6-0.4,1.2-0.7,1.7c-0.4,0.6-0.9,1-1.5,1.3
	c-0.6,0.3-1.3,0.5-2,0.5l-22.6,0.1c0,0-7.8,3.8-10.4,3.2c-2.5-0.6,0.2-2.3,2.8-5s3.3-2.1,7.5-2.2c0.8,0,19.3-2,19.3-2l-1.6-6
	L223.3,255.9z"/>
<path class="st23" d="M188.4,254.8c0,0-1.5,8.6-2.2,10.4c-0.2,0.5-13.1-5.9-13.1-5.9s-6.1-7.4-6.6-4.6c-0.3,1.7,2.6,4.7,2.6,4.7
	s-2.3-0.9-2.5-0.3c-0.2,0.6,4.4,2.8,4.9,2.6c1.2-0.5,4.3,3.7,10.2,7.2h7.5l1.8-13.5L188.4,254.8z"/>
</svg>
