<svg version="1.1" xmlns="http://www.w3.org/2000/svg" xmlns:xlink="http://www.w3.org/1999/xlink" width="630" height="390" viewBox="0 0 630 390">
<style type="text/css">
	.st0{fill:#EAF1FC;}
	.st1{fill:#F8F8FF;}
	.st2{fill:#CDE4F7;}
	.st3{fill:#E9EDF4;}
	.st4{fill:#FFFFFF;}
	.st5{fill:#ECF7FE;}
	.st6{fill:#D33131;}
	.st7{fill:#0B2B46;}
	.st8{fill:#448DCE;}
	.st9{fill:#3270A7;}
	.st10{fill:#0F222C;}
	.st11{fill:#1D4259;}
	.st12{fill:#52B82D;}
	.st13{fill:#222846;}
	.st14{fill:#FFDA35;}
	.st15{fill:#FF524F;}
	.st16{fill:#F2F2F2;}
	.st17{fill:#EF7828;}
	.st18{opacity:0.55;fill:#FFFFFF;}
	.st19{fill:#02819F;}
	.st20{fill:#E08F73;}
	.st21{fill:#F09976;}
	.st22{fill:#E8815F;}
	.st23{fill:#05616B;}
	.st24{fill:#047487;}
	.st25{fill:#311649;}
</style>
<path class="st0" d="M629.6,336.7c0,0.8-0.1,1.5-0.4,2.2c-0.3,0.8-0.7,1.5-1.1,2.2c-0.6,0.8-1.2,1.5-1.9,2.2
	c-0.8,0.8-1.7,1.5-2.6,2.2c-1.1,0.8-2.2,1.5-3.4,2.2c-1.3,0.7-2.6,1.4-4.1,2.1c-1.5,0.7-3.1,1.4-4.8,2.1c-1.7,0.7-3.6,1.4-5.6,2.1
	c-1.9,0.7-4.1,1.4-6.3,2c-2.2,0.7-4.5,1.3-6.9,2c-2.4,0.7-5,1.3-7.6,1.9c-2.6,0.6-5.4,1.3-8.3,1.9c-2.9,0.6-5.8,1.2-8.9,1.8
	c-3.1,0.6-6.2,1.2-9.5,1.7c-3.3,0.6-6.6,1.1-10.1,1.7c-3.5,0.5-7,1.1-10.7,1.6c-3.6,0.5-7.3,1.1-11.1,1.5c-3.8,0.5-7.7,1-11.7,1.4
	c-8.3,1-16.5,1.8-24.8,2.6c-4.3,0.4-8.6,0.8-13.1,1.2c-4.4,0.4-8.9,0.7-13.4,1.1c-4.5,0.4-9.1,0.7-13.8,1c-4.7,0.3-9.4,0.6-14.1,0.9
	c-4.7,0.3-9.6,0.5-14.4,0.8c-4.9,0.3-9.7,0.5-14.7,0.7c-4.9,0.2-9.9,0.4-14.9,0.6c-5,0.2-10,0.3-15.1,0.5c-5,0.1-10.1,0.3-15.2,0.4
	c-5.1,0.1-10.2,0.2-15.3,0.3c-5.1,0.1-10.3,0.1-15.4,0.2c-5.1,0-10.3,0.1-15.4,0.1c-5.2,0-10.3,0-15.5-0.1
	c-5.1-0.1-10.3-0.1-15.4-0.2c-5.1-0.1-10.2-0.2-15.3-0.3c-5.1-0.1-10.2-0.2-15.2-0.4c-5-0.1-10.1-0.3-15.1-0.5
	c-5-0.2-10-0.4-14.9-0.6s-9.8-0.4-14.7-0.7c-4.9-0.2-9.7-0.5-14.4-0.8c-4.8-0.3-9.5-0.6-14.1-0.9c-4.7-0.3-9.3-0.6-13.8-1
	c-4.5-0.3-9-0.7-13.4-1.1c-4.4-0.4-8.8-0.8-13.1-1.2c-4.3-0.4-8.5-0.8-12.6-1.3c-4.1-0.4-8.2-0.9-12.2-1.4c-4-0.5-7.9-0.9-11.7-1.4
	c-3.8-0.5-7.5-1-11.2-1.5s-7.2-1.1-10.7-1.6s-6.8-1.1-10.1-1.7c-3.3-0.6-6.4-1.2-9.5-1.7c-3.1-0.6-6-1.2-8.9-1.8
	c-2.9-0.6-5.6-1.2-8.3-1.9c-2.6-0.6-5.2-1.3-7.6-1.9c-2.4-0.6-4.7-1.3-6.9-2c-2.2-0.7-4.3-1.3-6.3-2c-2-0.7-3.8-1.4-5.6-2.1
	c-1.7-0.7-3.3-1.4-4.8-2.1s-2.9-1.4-4.1-2.1c-1.2-0.7-2.3-1.4-3.4-2.2c-0.9-0.7-1.8-1.4-2.6-2.2c-0.7-0.7-1.3-1.4-1.9-2.2
	c-0.5-0.7-0.9-1.4-1.1-2.2c-0.5-1.4-0.5-3,0-4.4c0.3-0.8,0.7-1.5,1.1-2.2c0.6-0.8,1.2-1.5,1.9-2.2c0.8-0.8,1.7-1.5,2.6-2.2
	c1.1-0.8,2.2-1.5,3.4-2.2c1.3-0.7,2.6-1.4,4.1-2.1c1.5-0.7,3.1-1.4,4.8-2.1c1.7-0.7,3.6-1.4,5.6-2.1c1.9-0.7,4.1-1.4,6.3-2
	c2.2-0.7,4.5-1.3,6.9-2c2.4-0.7,5-1.3,7.6-1.9c2.6-0.6,5.4-1.3,8.3-1.9c2.9-0.6,5.8-1.2,8.9-1.8c3.1-0.6,6.2-1.2,9.5-1.7
	c3.3-0.6,6.6-1.1,10.1-1.7c3.5-0.6,7-1.1,10.7-1.6s7.4-1,11.2-1.5c3.8-0.5,7.7-1,11.7-1.4c4-0.5,8-0.9,12.2-1.4
	c4.1-0.4,8.3-0.9,12.6-1.3c4.3-0.4,8.6-0.8,13.1-1.2c4.4-0.4,8.9-0.7,13.4-1.1c4.6-0.4,9.1-0.7,13.8-1c4.7-0.3,9.4-0.6,14.1-0.9
	c4.8-0.3,9.6-0.5,14.4-0.8c4.9-0.2,9.7-0.5,14.7-0.7c4.9-0.2,9.9-0.4,14.9-0.6c5-0.2,10-0.3,15.1-0.5c5.1-0.1,10.1-0.3,15.2-0.4
	c5.1-0.1,10.2-0.2,15.3-0.3c5.1-0.1,10.3-0.1,15.4-0.2c5.1,0,10.3-0.1,15.5-0.1c5.2,0,10.3,0,15.4,0.1c5.1,0.1,10.3,0.1,15.4,0.2
	c5.1,0.1,10.2,0.2,15.3,0.3c5.1,0.1,10.2,0.2,15.2,0.4s10.1,0.3,15.1,0.5c5,0.2,10,0.4,14.9,0.6c4.9,0.2,9.8,0.4,14.7,0.7
	c4.8,0.2,9.7,0.5,14.4,0.8c4.8,0.3,9.5,0.6,14.1,0.9c4.7,0.3,9.3,0.6,13.8,1c4.5,0.3,9,0.7,13.4,1.1c4.4,0.4,8.8,0.8,13.1,1.2
	c4.3,0.4,8.5,0.8,12.6,1.3c4.1,0.4,8.2,0.9,12.2,1.3c4,0.5,7.9,0.9,11.7,1.4c3.8,0.5,7.5,1,11.2,1.5c3.6,0.5,7.2,1,10.7,1.6
	c3.4,0.5,6.8,1.1,10.1,1.7c3.3,0.6,6.4,1.2,9.5,1.7c3.1,0.6,6,1.2,8.9,1.8c2.9,0.6,5.6,1.2,8.3,1.9c2.6,0.6,5.2,1.3,7.6,1.9
	c2.4,0.6,4.7,1.3,6.9,2c2.2,0.7,4.3,1.3,6.3,2c2,0.7,3.8,1.4,5.6,2.1c1.7,0.7,3.3,1.4,4.8,2.1c1.5,0.7,2.9,1.4,4.1,2.1
	c1.2,0.7,2.3,1.4,3.4,2.2c0.9,0.7,1.8,1.4,2.6,2.2c0.7,0.7,1.3,1.4,1.9,2.2c0.5,0.7,0.9,1.4,1.1,2.2
	C629.5,335.1,629.6,335.9,629.6,336.7z"/>
<path class="st1" d="M586.9,318.8c41.1-79,63.6-230.2-25.3-280.4c-58.1-32.8-118.7,9.4-181,11.3c-48.8,1.5-95.9-34.2-139.9-44.4
	C125.4-21.4-56.2,48.1,23.7,318.8C223.3,318.3,387.3,319.4,586.9,318.8z"/>
<path class="st2" d="M48.5,155h118.8v163.9H48.5V155z"/>
<path class="st3" d="M130.3,155h37v163.9h-37V155z"/>
<path class="st4" d="M48.5,164h118.8v1.4H48.5V164z M48.5,174.8h118.8v1.4H48.5V174.8z M48.5,185.6h118.8v1.4H48.5V185.6z
	 M48.5,196.4h118.8v1.4H48.5V196.4z M48.5,207.2h118.8v1.4H48.5V207.2z M48.5,218.1h118.8v1.4H48.5V218.1z M48.5,228.9h118.8v1.4
	H48.5V228.9z M48.5,239.7h118.8v1.4H48.5V239.7z M48.5,250.5h118.8v1.4H48.5V250.5z M48.5,261.3h118.8v1.4H48.5V261.3z M48.5,272.1
	h118.8v1.4H48.5V272.1z M48.5,283h118.8v1.4H48.5V283z M48.5,293.8h118.8v1.4H48.5V293.8z M48.5,304.6h118.8v1.4H48.5V304.6z"/>
<path class="st2" d="M357.4,124.6h114.1v193.6H357.4V124.6z"/>
<path class="st3" d="M357.4,124.6h35.5v193.6h-35.5V124.6z"/>
<path class="st4" d="M364.7,180.5h5.3v5.5h-5.3V180.5z M374.3,180.5h5.3v5.5h-5.3L374.3,180.5z M383.9,180.5h5.3v5.5h-5.3
	L383.9,180.5z M401.4,294.6h5.3v5.5h-5.3V294.6z M411,294.6h5.3v5.5H411V294.6z M420.6,294.6h5.3v5.5h-5.3L420.6,294.6z
	 M430.2,294.6h5.3v5.5h-5.3L430.2,294.6z M439.8,294.6h5.3v5.5h-5.3V294.6z M449.3,294.6h5.3v5.5h-5.3V294.6z M458.9,294.6h5.3v5.5
	h-5.3L458.9,294.6z M401.4,282.9h5.3v5.5h-5.3V282.9z M411,282.9h5.3v5.5H411V282.9z M420.6,282.9h5.3v5.5h-5.3L420.6,282.9z
	 M430.2,282.9h5.3v5.5h-5.3L430.2,282.9z M439.8,282.9h5.3v5.5h-5.3V282.9z M449.3,282.9h5.3v5.5h-5.3V282.9z M458.9,282.9h5.3v5.5
	h-5.3L458.9,282.9z M401.4,271.2h5.3v5.5h-5.3V271.2z M411,271.2h5.3v5.5H411V271.2z M420.6,271.2h5.3v5.5h-5.3L420.6,271.2z
	 M430.2,271.2h5.3v5.5h-5.3L430.2,271.2z M439.8,271.2h5.3v5.5h-5.3V271.2z M449.3,271.2h5.3v5.5h-5.3V271.2z M458.9,271.2h5.3v5.5
	h-5.3L458.9,271.2z M401.4,259.6h5.3v5.5h-5.3V259.6z M411,259.6h5.3v5.5H411V259.6z M420.6,259.6h5.3v5.5h-5.3L420.6,259.6z
	 M430.2,259.6h5.3v5.5h-5.3L430.2,259.6z M439.8,259.6h5.3v5.5h-5.3V259.6z M449.3,259.6h5.3v5.5h-5.3V259.6z M458.9,259.6h5.3v5.5
	h-5.3L458.9,259.6z M401.4,247.9h5.3v5.5h-5.3V247.9z M411,247.9h5.3v5.5H411V247.9z M420.6,247.9h5.3v5.5h-5.3L420.6,247.9z
	 M430.2,247.9h5.3v5.5h-5.3L430.2,247.9z M439.8,247.9h5.3v5.5h-5.3V247.9z M449.3,247.9h5.3v5.5h-5.3V247.9z M458.9,247.9h5.3v5.5
	h-5.3L458.9,247.9z M401.4,238.1h5.3v5.5h-5.3V238.1z M411,238.1h5.3v5.5H411V238.1z M420.6,238.1h5.3v5.5h-5.3L420.6,238.1z
	 M430.2,238.1h5.3v5.5h-5.3L430.2,238.1z M439.8,238.1h5.3v5.5h-5.3V238.1z M449.3,238.1h5.3v5.5h-5.3V238.1z M458.9,238.1h5.3v5.5
	h-5.3L458.9,238.1z M401.4,226.4h5.3v5.5h-5.3V226.4z M411,226.4h5.3v5.5H411V226.4z M420.6,226.4h5.3v5.5h-5.3L420.6,226.4z
	 M430.2,226.4h5.3v5.5h-5.3L430.2,226.4z M439.8,226.4h5.3v5.5h-5.3V226.4z M449.3,226.4h5.3v5.5h-5.3V226.4z M458.9,226.4h5.3v5.5
	h-5.3L458.9,226.4z M401.4,214.7h5.3v5.5h-5.3V214.7z M411,214.7h5.3v5.5H411V214.7z M420.6,214.7h5.3v5.5h-5.3L420.6,214.7z
	 M430.2,214.7h5.3v5.5h-5.3L430.2,214.7z M439.8,214.7h5.3v5.5h-5.3V214.7z M449.3,214.7h5.3v5.5h-5.3V214.7z M458.9,214.7h5.3v5.5
	h-5.3L458.9,214.7z M401.4,203.1h5.3v5.5h-5.3V203.1z M411,203.1h5.3v5.5H411V203.1z M420.6,203.1h5.3v5.5h-5.3L420.6,203.1z
	 M430.2,203.1h5.3v5.5h-5.3L430.2,203.1z M439.8,203.1h5.3v5.5h-5.3V203.1z M449.3,203.1h5.3v5.5h-5.3V203.1z M458.9,203.1h5.3v5.5
	h-5.3L458.9,203.1z M401.4,191.4h5.3v5.6h-5.3V191.4z M411,191.4h5.3v5.6H411V191.4z M420.6,191.4h5.3v5.6h-5.3L420.6,191.4z
	 M430.2,191.4h5.3v5.6h-5.3L430.2,191.4z M439.8,191.4h5.3v5.6h-5.3V191.4z M449.3,191.4h5.3v5.6h-5.3V191.4z M458.9,191.4h5.3v5.6
	h-5.3L458.9,191.4z M401.4,180.5h5.3v5.5h-5.3V180.5z M411,180.5h5.3v5.5H411V180.5z M420.6,180.5h5.3v5.5h-5.3L420.6,180.5z
	 M430.2,180.5h5.3v5.5h-5.3L430.2,180.5z M439.8,180.5h5.3v5.5h-5.3V180.5z M449.3,180.5h5.3v5.5h-5.3V180.5z M458.9,180.5h5.3v5.5
	h-5.3L458.9,180.5z M364.7,168.8h5.3v5.5h-5.3V168.8z M374.3,168.8h5.3v5.5h-5.3L374.3,168.8z M383.9,168.8h5.3v5.5h-5.3
	L383.9,168.8z M401.4,168.8h5.3v5.5h-5.3V168.8z M411,168.8h5.3v5.5H411V168.8z M420.6,168.8h5.3v5.5h-5.3L420.6,168.8z
	 M430.2,168.8h5.3v5.5h-5.3L430.2,168.8z M439.8,168.8h5.3v5.5h-5.3V168.8z M449.3,168.8h5.3v5.5h-5.3V168.8z M458.9,168.8h5.3v5.5
	h-5.3L458.9,168.8z M364.7,157.2h5.3v5.5h-5.3V157.2z M374.3,157.2h5.3v5.5h-5.3L374.3,157.2z M383.9,157.2h5.3v5.5h-5.3
	L383.9,157.2z M401.4,157.2h5.3v5.5h-5.3V157.2z M411,157.2h5.3v5.5H411V157.2z M420.6,157.2h5.3v5.5h-5.3L420.6,157.2z
	 M430.2,157.2h5.3v5.5h-5.3L430.2,157.2z M439.8,157.2h5.3v5.5h-5.3V157.2z M449.3,157.2h5.3v5.5h-5.3V157.2z M458.9,157.2h5.3v5.5
	h-5.3L458.9,157.2z M364.7,145.5h5.3v5.5h-5.3V145.5z M374.3,145.5h5.3v5.5h-5.3L374.3,145.5z M383.9,145.5h5.3v5.5h-5.3
	L383.9,145.5z M401.4,145.5h5.3v5.5h-5.3V145.5z M411,145.5h5.3v5.5H411V145.5z M420.6,145.5h5.3v5.5h-5.3L420.6,145.5z
	 M430.2,145.5h5.3v5.5h-5.3L430.2,145.5z M439.8,145.5h5.3v5.5h-5.3V145.5z M449.3,145.5h5.3v5.5h-5.3V145.5z M458.9,145.5h5.3v5.5
	h-5.3L458.9,145.5z M364.7,133.9h5.3v5.5h-5.3V133.9z M374.3,133.9h5.3v5.5h-5.3L374.3,133.9z M383.9,133.9h5.3v5.5h-5.3
	L383.9,133.9z M364.7,237.9h5.3v5.5h-5.3V237.9z M374.3,237.9h5.3v5.5h-5.3L374.3,237.9z M383.9,237.9h5.3v5.5h-5.3L383.9,237.9z
	 M364.7,226.3h5.3v5.5h-5.3V226.3z M374.3,226.3h5.3v5.5h-5.3L374.3,226.3z M383.9,226.3h5.3v5.5h-5.3L383.9,226.3z M364.7,214.6
	h5.3v5.5h-5.3V214.6z M374.3,214.6h5.3v5.5h-5.3L374.3,214.6z M383.9,214.6h5.3v5.5h-5.3L383.9,214.6z M364.7,202.9h5.3v5.5h-5.3
	V202.9z M374.3,202.9h5.3v5.5h-5.3L374.3,202.9z M383.9,202.9h5.3v5.5h-5.3L383.9,202.9z M364.7,191.2h5.3v5.5h-5.3V191.2z
	 M374.3,191.2h5.3v5.5h-5.3L374.3,191.2z M383.9,191.2h5.3v5.5h-5.3L383.9,191.2z M364.7,294.7h5.3v5.5h-5.3V294.7z M374.3,294.7
	h5.3v5.5h-5.3L374.3,294.7z M383.9,294.7h5.3v5.5h-5.3L383.9,294.7z M364.7,283h5.3v5.5h-5.3V283z M374.3,283h5.3v5.5h-5.3
	L374.3,283z M383.9,283h5.3v5.5h-5.3L383.9,283z M364.7,271.4h5.3v5.5h-5.3V271.4z M374.3,271.4h5.3v5.5h-5.3L374.3,271.4z
	 M383.9,271.4h5.3v5.5h-5.3L383.9,271.4z M364.7,259.7h5.3v5.5h-5.3V259.7z M374.3,259.7h5.3v5.5h-5.3L374.3,259.7z M383.9,259.7
	h5.3v5.5h-5.3L383.9,259.7z M364.7,248h5.3v5.5h-5.3V248z M374.3,248h5.3v5.5h-5.3L374.3,248z M383.9,248h5.3v5.5h-5.3L383.9,248z
	 M401.4,133.8h5.3v5.5h-5.3V133.8z M411,133.8h5.3v5.5H411V133.8z M420.6,133.8h5.3v5.5h-5.3L420.6,133.8z M430.2,133.8h5.3v5.5
	h-5.3L430.2,133.8z M439.8,133.8h5.3v5.5h-5.3V133.8z M449.3,133.8h5.3v5.5h-5.3V133.8z M458.9,133.8h5.3v5.5h-5.3L458.9,133.8z"/>
<path class="st2" d="M153.6,127.2h94v192.4h-94V127.2z"/>
<path class="st3" d="M153.6,127.2h29.3v192.4h-29.3V127.2z"/>
<path class="st4" d="M159.7,280.5h4.3v21.2h-4.3V280.5z M167.6,280.5h4.3v21.2h-4.3V280.5z M175.4,280.5h4.3v21.2h-4.3V280.5z
	 M189.9,280.5h4.3v21.2h-4.3V280.5z M197.8,280.5h4.3v21.2h-4.3V280.5z M205.7,280.5h4.3v21.2h-4.3V280.5z M213.6,280.5h4.3v21.2
	h-4.3V280.5z M159.7,256.5h4.3v21.2h-4.3V256.5z M167.6,256.5h4.3v21.2h-4.3V256.5z M175.4,256.5h4.3v21.2h-4.3V256.5z M189.9,256.5
	h4.3v21.2h-4.3V256.5z M197.8,256.5h4.3v21.2h-4.3V256.5z M205.7,256.5h4.3v21.2h-4.3V256.5z M213.6,256.5h4.3v21.2h-4.3V256.5z
	 M197.8,232.5h4.3v21.3h-4.3V232.5z M205.7,232.5h4.3v21.3h-4.3V232.5z M213.6,232.5h4.3v21.3h-4.3V232.5z M175.4,232.2h4.3v21.3
	h-4.3V232.2z M159.7,232.1h4.3v21.2h-4.3V232.1z M167.6,232.1h4.3v21.2h-4.3V232.1z M175.4,208.4h4.3v21.2h-4.3V208.4z M189.9,232.5
	h4.3v21.2h-4.3V232.5z M189.9,208.4h4.3v21.2h-4.3V208.4z M197.8,208.4h4.3v21.2h-4.3V208.4z M205.7,208.4h4.3v21.2h-4.3V208.4z
	 M213.6,208.4h4.3v21.2h-4.3V208.4z M159.7,208.3h4.3v21.2h-4.3V208.3z M167.6,208.3h4.3v21.2h-4.3V208.3z M159.7,184.4h4.3v21.2
	h-4.3V184.4z M167.6,184.4h4.3v21.2h-4.3V184.4z M175.4,184.4h4.3v21.2h-4.3V184.4z M189.9,184.4h4.3v21.2h-4.3V184.4z M197.8,184.4
	h4.3v21.2h-4.3V184.4z M205.7,184.4h4.3v21.2h-4.3V184.4z M213.6,184.4h4.3v21.2h-4.3V184.4z M159.7,160.3h4.3v21.2h-4.3V160.3z
	 M167.6,160.3h4.3v21.2h-4.3V160.3z M175.4,160.3h4.3v21.2h-4.3V160.3z M189.9,160.3h4.3v21.2h-4.3V160.3z M197.8,160.3h4.3v21.2
	h-4.3V160.3z M205.7,160.3h4.3v21.2h-4.3V160.3z M213.6,160.3h4.3v21.2h-4.3V160.3z M159.7,136.3h4.3v21.2h-4.3V136.3z M167.6,136.3
	h4.3v21.2h-4.3V136.3z M175.4,136.3h4.3v21.2h-4.3V136.3z M189.9,136.3h4.3v21.2h-4.3V136.3z M197.8,136.3h4.3v21.2h-4.3V136.3z
	 M205.7,136.3h4.3v21.2h-4.3V136.3z M213.6,136.3h4.3v21.2h-4.3V136.3z"/>
<path class="st2" d="M470.5,159h115.4v159.1H470.5V159z"/>
<path class="st3" d="M470.5,159h35.9v159.1h-35.9V159z"/>
<path class="st4" d="M470.5,304.4h115.4v1.3H470.5V304.4z M470.5,293.8h115.4v1.3H470.5V293.8z M470.5,283.3h115.4v1.3H470.5V283.3z
	 M470.5,272.8h115.4v1.3H470.5V272.8z M470.5,262.3h115.4v1.3H470.5V262.3z M470.5,251.8h115.4v1.3H470.5V251.8z M470.5,241.3h115.4
	v1.3H470.5V241.3z M470.5,230.8h115.4v1.3H470.5V230.8z M470.5,220.3h115.4v1.3H470.5V220.3z M470.5,209.7h115.4v1.3H470.5V209.7z
	 M470.5,199.3h115.4v1.3H470.5V199.3z M470.5,188.8h115.4v1.3H470.5V188.8z M470.5,178.2h115.4v1.3H470.5V178.2z M470.5,167.7h115.4
	v1.3H470.5V167.7z"/>
<path class="st2" d="M220.4,74.9H340v244.7H220.4V74.9z"/>
<path class="st5" d="M220.4,74.9h37.3v244.7h-37.3V74.9z"/>
<path class="st4" d="M228.1,293.1h5.5v7h-5.5V293.1z M238.1,293.1h5.5v7h-5.5V293.1z M248.2,293.1h5.5v7h-5.5V293.1z M266.5,293.1
	h5.5v7h-5.5V293.1z M276.6,293.1h5.5v7h-5.5V293.1z M286.6,293.1h5.5v7h-5.5V293.1z M296.7,293.1h5.5v7h-5.6L296.7,293.1z
	 M228.1,278.4h5.5v7h-5.5V278.4z M238.2,278.4h5.5v7h-5.5V278.4z M248.2,278.4h5.5v7h-5.5L248.2,278.4z M266.6,278.4h5.5v7h-5.5
	V278.4z M276.6,278.4h5.5v7h-5.5V278.4z M286.6,278.4h5.5v7h-5.5V278.4z M296.8,278.4h5.5v7h-5.6L296.8,278.4z M228.1,263.6h5.5v7
	h-5.5V263.6z M238.1,263.6h5.5v7h-5.5V263.6z M248.2,263.6h5.5v7h-5.5V263.6z M266.5,263.6h5.5v7h-5.5V263.6z M276.6,263.6h5.5v7
	h-5.5V263.6z M286.6,263.6h5.5v7h-5.5V263.6z M296.7,263.6h5.5v7h-5.6L296.7,263.6z M228.1,248.8h5.5v7h-5.5V248.8z M238.2,248.8
	h5.5v7h-5.5V248.8z M248.2,248.8h5.5v7h-5.5L248.2,248.8z M266.6,248.8h5.5v7h-5.5V248.8z M276.6,248.8h5.5v7h-5.5V248.8z
	 M286.6,248.8h5.5v7h-5.5V248.8z M296.8,248.8h5.5v7h-5.6L296.8,248.8z M228.2,234.1h5.5v7h-5.5V234.1z M238.2,234.1h5.5v7h-5.5
	V234.1z M248.2,234.1h5.5v7h-5.5L248.2,234.1z M266.6,234.1h5.5v7h-5.5V234.1z M276.6,234.1h5.5v7h-5.5V234.1z M286.7,234.1h5.5v7
	h-5.5V234.1z M296.8,234.1h5.5v7h-5.6L296.8,234.1z M228.2,219.4h5.5v7h-5.5V219.4z M238.2,219.4h5.5v7h-5.5V219.4z M248.2,219.4
	h5.4v7h-5.5L248.2,219.4z M266.6,219.4h5.5v7h-5.5V219.4z M276.7,219.4h5.5v7h-5.5V219.4z M286.7,219.4h5.5v7h-5.5V219.4z
	 M296.8,219.4h5.5v7h-5.7L296.8,219.4z M228.2,204.6h5.5v7h-5.5V204.6z M238.2,204.6h5.5v7h-5.5V204.6z M248.3,204.6h5.4v7h-5.5
	L248.3,204.6z M266.7,204.6h5.5v7h-5.5V204.6z M276.7,204.6h5.5v7h-5.5V204.6z M286.7,204.6h5.5v7h-5.5V204.6z M296.9,204.6h5.5v7
	h-5.7L296.9,204.6z M228.1,189.8h5.5v7h-5.5V189.8z M238.1,189.8h5.5v7h-5.5V189.8z M248.2,189.8h5.5v7h-5.5V189.8z M266.5,189.8
	h5.5v7h-5.5V189.8z M276.6,189.8h5.5v7h-5.5V189.8z M286.6,189.8h5.5v7h-5.5V189.8z M296.7,189.8h5.5v7h-5.6L296.7,189.8z
	 M296.7,293.1h5.5v7h-5.6L296.7,293.1z M306.8,293.1h5.5v7h-5.5L306.8,293.1z M316.8,293.1h5.5v7h-5.5V293.1z M326.9,293.1h5.5v7
	h-5.5V293.1z M296.7,278.4h5.5v7h-5.5V278.4z M306.7,278.4h5.5v7h-5.5L306.7,278.4z M316.8,278.4h5.5v7h-5.5V278.4z M326.9,278.4
	h5.5v7h-5.5V278.4z M296.7,263.6h5.5v7h-5.5V263.6z M306.7,263.6h5.5v7h-5.5L306.7,263.6z M316.8,263.6h5.5v7h-5.5V263.6z
	 M326.9,263.6h5.5v7h-5.5V263.6z M296.7,248.8h5.5v7h-5.5V248.8z M306.7,248.8h5.5v7h-5.5L306.7,248.8z M316.8,248.8h5.5v7h-5.5
	V248.8z M326.9,248.8h5.5v7h-5.5V248.8z M296.7,234.1h5.5v7h-5.5V234.1z M306.7,234.1h5.5v7h-5.5L306.7,234.1z M316.8,234.1h5.5v7
	h-5.5V234.1z M326.9,234.1h5.5v7h-5.5V234.1z M296.7,219.3h5.5v7h-5.5V219.3z M306.7,219.3h5.5v7h-5.5L306.7,219.3z M316.8,219.3
	h5.5v7h-5.5V219.3z M326.9,219.3h5.5v7h-5.5V219.3z M296.7,204.6h5.5v7h-5.5V204.6z M306.7,204.6h5.5v7h-5.5L306.7,204.6z
	 M316.8,204.6h5.5v7h-5.5V204.6z M326.9,204.6h5.5v7h-5.5V204.6z M296.7,189.8h5.5v7h-5.5V189.8z M306.7,189.8h5.5v7h-5.5
	L306.7,189.8z M316.8,189.8h5.5v7h-5.5V189.8z M326.9,189.8h5.5v7h-5.5V189.8z M228.1,175.1h5.5v7h-5.5V175.1z M238.2,175.1h5.5v7
	h-5.5V175.1z M248.2,175.1h5.5v7h-5.5L248.2,175.1z M266.6,175.1h5.5v7h-5.5V175.1z M276.6,175.1h5.5v7h-5.5V175.1z M286.6,175.1
	h5.5v7h-5.5V175.1z M296.8,175.1h5.5v7h-5.6L296.8,175.1z M306.8,175.1h5.5v7h-5.5L306.8,175.1z M316.8,175.1h5.5v7h-5.5V175.1z
	 M326.9,175.1h5.5v7h-5.5V175.1z M228.1,160.3h5.5v7h-5.5V160.3z M238.1,160.3h5.5v7h-5.5V160.3z M248.2,160.3h5.5v7h-5.5V160.3z
	 M266.5,160.3h5.5v7h-5.5V160.3z M276.6,160.3h5.5v7h-5.5V160.3z M286.6,160.3h5.5v7h-5.5V160.3z M296.7,160.3h5.5v7h-5.6
	L296.7,160.3z M306.8,160.3h5.5v7h-5.5L306.8,160.3z M316.8,160.3h5.5v7h-5.5V160.3z M326.8,160.3h5.5v7h-5.5V160.3z M228.1,145.6
	h5.5v7h-5.5V145.6z M238.1,145.6h5.5v7h-5.5V145.6z M248.2,145.6h5.5v7h-5.5V145.6z M266.5,145.6h5.5v7h-5.5V145.6z M276.6,145.6
	h5.5v7h-5.5V145.6z M286.6,145.6h5.5v7h-5.5V145.6z M296.7,145.6h5.5v7h-5.6L296.7,145.6z M306.8,145.6h5.5v7h-5.5L306.8,145.6z
	 M316.8,145.6h5.5v7h-5.5V145.6z M326.8,145.6h5.5v7h-5.5V145.6z M228.1,130.8h5.5v7h-5.5V130.8z M238.1,130.8h5.5v7h-5.5V130.8z
	 M248.2,130.8h5.5v7h-5.5V130.8z M266.5,130.8h5.5v7h-5.5V130.8z M276.6,130.8h5.5v7h-5.5V130.8z M286.6,130.8h5.5v7h-5.5V130.8z
	 M296.7,130.8h5.5v7h-5.6L296.7,130.8z M306.8,130.8h5.5v7h-5.5L306.8,130.8z M316.8,130.8h5.5v7h-5.5V130.8z M326.8,130.8h5.5v7
	h-5.5V130.8z M228.1,116h5.5v7h-5.5V116z M238.1,116h5.5v7h-5.5V116z M248.2,116h5.5v7h-5.5V116z M266.5,116h5.5v7h-5.5V116z
	 M276.6,116h5.5v7h-5.5V116z M286.6,116h5.5v7h-5.5V116z M296.7,116h5.5v7h-5.6L296.7,116z M306.8,116h5.5v7h-5.5L306.8,116z
	 M316.8,116h5.5v7h-5.5V116z M326.8,116h5.5v7h-5.5V116z M228.1,101.3h5.5v7h-5.5V101.3z M238.1,101.3h5.5v7h-5.5V101.3z
	 M248.2,101.3h5.5v7h-5.5V101.3z M266.5,101.3h5.5v7h-5.5V101.3z M276.6,101.3h5.5v7h-5.5V101.3z M286.6,101.3h5.5v7h-5.5V101.3z
	 M296.7,101.3h5.5v7h-5.6L296.7,101.3z M306.8,101.3h5.5v7h-5.5L306.8,101.3z M316.8,101.3h5.5v7h-5.5V101.3z M326.8,101.3h5.5v7
	h-5.5V101.3z M228.1,86.6h5.5v7h-5.5V86.6z M238.1,86.6h5.5v7h-5.5V86.6z M248.2,86.6h5.5v7h-5.5V86.6z M266.5,86.6h5.5v7h-5.5V86.6
	z M276.6,86.6h5.5v7h-5.5V86.6z M286.6,86.6h5.5v7h-5.5V86.6z M296.7,86.6h5.5v7h-5.6L296.7,86.6z M306.8,86.6h5.5v7h-5.5
	L306.8,86.6z M316.8,86.6h5.5v7h-5.5V86.6z M326.8,86.6h5.5v7h-5.5V86.6z"/>
<path class="st5" d="M323.2,74.9h-86V64.7c0-2.1,0.8-4.1,2.3-5.6c1.5-1.5,3.5-2.3,5.6-2.4h70.3c1,0,2.1,0.2,3,0.6
	c1,0.4,1.8,1,2.6,1.7c0.7,0.7,1.3,1.6,1.7,2.6c0.4,1,0.6,2,0.6,3L323.2,74.9L323.2,74.9z"/>
<path class="st2" d="M607.1,238.9c3.8-0.7,6.4,3.3,7.1,6.8c0.4,1.9,0.4,4,1.9,5.3c0.6,0.5,1.3,0.9,2.1,1.2c4.2,2.2,4.5,6.2,4.6,10.2
	c-0.1,0.7,0.1,1.4,0.3,2c0.4,0.7,1.1,1,1.6,1.7c0.3,0.4,0.5,0.9,0.6,1.4c1,4.6,0.5,8.9,0.5,13.4c-0.3,32.7-18.1,31.2-18.1,31.2h-0.7
	c-4.3-0.2-8.2-2.8-10.7-6.2c-2.6-3.4-4.1-7.7-5-11.9c-0.6-3.1-1-6.2-1.1-9.4c-0.2-3.4-0.9-6.6,0.4-9.9c0.6-1.5,1.5-3,1.5-4.6
	c0-1.8-1.1-3.5-1.2-5.2c0-1.1,0.3-2.1,0.7-3.1c0.9-2.5,2-4.9,3.3-7.3c1-1.7,3.3-2.8,4-4.8c0.1-0.8,0.2-1.7,0.1-2.5
	c0.1-4.2,3.7-7.1,7.5-8.2C606.6,239,606.8,239,607.1,238.9L607.1,238.9z"/>
<path class="st4" d="M610.3,345.7H606l1.4-52.4l0.7-1.3L610.3,345.7z"/>
<path class="st2" d="M32.5,234.5c3.5-0.6,6,3,6.6,6.3c0.3,1.7,0.3,3.7,1.7,4.8c0.6,0.4,1.3,0.8,1.9,1.1c3.9,2,4.2,5.7,4.2,9.5
	c-0.1,0.6,0.1,1.2,0.3,1.8c0.3,0.6,1,1,1.4,1.5c0.3,0.4,0.4,0.9,0.5,1.4c1,4.3,0.5,8.2,0.4,12.5C49.5,303.7,33,302.3,33,302.3h-0.6
	c-4-0.2-7.6-2.6-10-5.7c-2.3-3.3-3.8-7-4.5-11c-0.5-2.9-0.9-5.8-1-8.7c-0.2-3.2-0.8-6.1,0.3-9.2c0.6-1.4,1.4-2.8,1.4-4.3
	c0-1.7-1-3.2-1-4.8c0-1,0.2-2,0.6-2.9c0.8-2.3,1.8-4.6,3-6.7c1-1.7,3.1-2.6,3.7-4.4c0.2-0.8,0.2-1.6,0.1-2.4c0.1-3.9,3.5-6.6,7-7.5
	L32.5,234.5z"/>
<path class="st4" d="M35.6,333.4h-4l1.3-48.6l0.6-1.2L35.6,333.4z"/>
<path class="st6" d="M356,234.3l1.1,4.2l-4.2,0.4H201.4l1.6-4.2h148.6L356,234.3z M348.3,262.4l1.1,4.2l-4.2,0.4H193.7l1.6-4.2
	l148.6,0L348.3,262.4z"/>
<path class="st7" d="M217.7,198.1h-4.2v100.1h4.2V198.1z M255.9,302.7C285.8,274.6,364,201.3,367,199c-0.1,0.1-0.3,0.2-0.5,0.3
	l-1.3-4c-0.6,0.2-1.7,0.6-112.2,104.4L255.9,302.7z"/>
<path class="st7" d="M335.5,300.5h60L370.7,195h-6L335.5,300.5z M390.2,296.4H341l26.7-96.3L390.2,296.4z M184.1,300.5h60L219.3,195
	h-6L184.1,300.5z M238.8,296.4h-49.3l26.7-96.3L238.8,296.4z"/>
<path class="st7" d="M370.4,195H213.2v4.2h157.2V195z M361,216.9H209v4.2h152V216.9z"/>
<path class="st7" d="M354.2,238l-151.4-0.2l0,4.2l151.4,0.2L354.2,238z"/>
<path class="st7" d="M348.6,258.6H197.7v4.2h150.9V258.6z M369.6,198.1h-4.2v100.4h4.2V198.1z M342.7,281.5l-4.2,16.8h-28.3
	L342.7,281.5L342.7,281.5z M189.7,286.4l-4.8,11.9h28.4L189.7,286.4z"/>
<path class="st8" d="M57.7,296.2h117.5v-48v-48h-59c-5.7,0-11.2,1.4-16.2,4.1c-5,2.7-9.3,6.5-12.4,11.2l-24,35.6
	c-3.8,5.7-5.9,12.5-5.9,19.4L57.7,296.2z"/>
<path class="st9" d="M175.3,200.2h-14.2v96h14.2V200.2z"/>
<path class="st10" d="M189.3,304.5c1.5,4.3,1.9,8.9,1.3,13.4c-0.6,4.5-2.4,8.8-5,12.5c-2.6,3.7-6.1,6.8-10.2,8.9s-8.6,3.2-13.1,3.2
	c-4.6,0-9.1-1.1-13.1-3.2c-4.1-2.1-7.6-5.1-10.2-8.9c-2.6-3.7-4.4-8-5-12.5c-0.6-4.5-0.2-9.1,1.3-13.4H189.3z M344.1,300.8
	c2.3,4.3,3.5,9.2,3.3,14.1c-0.1,4.9-1.5,9.7-4,13.9c-2.5,4.2-6.1,7.7-10.4,10.1c-4.3,2.4-9.1,3.7-14,3.7c-4.9,0-9.7-1.3-14-3.7
	c-4.3-2.4-7.8-5.9-10.4-10.1c-2.5-4.2-3.9-9-4-13.9c-0.1-4.9,1-9.8,3.3-14.1H344.1z"/>
<path class="st11" d="M313.7,296.2H55.5c-2.5,0-4.5,2.3-4.5,5v10.9c0,2.8,2,5,4.5,5h258.2V296.2z"/>
<path class="st10" d="M147.1,257.1v-46h-30.6c-3.9,0-7.7,1-11.1,2.8c-3.4,1.8-6.4,4.5-8.6,7.7l-24,35.6H147.1z"/>
<path class="st12" d="M134.3,265.9h10.4c0.6,0,1.2-0.2,1.7-0.7c0.4-0.4,0.7-1,0.7-1.7v-2.7h-15.1v2.6c0,0.6,0.3,1.2,0.7,1.7
	C133.1,265.6,133.7,265.9,134.3,265.9"/>
<path class="st13" d="M134.3,264.7h10.4c0.6,0,1.2-0.2,1.7-0.7c0.4-0.4,0.7-1,0.7-1.7v-1.4h-15.1v1.4c0,0.6,0.3,1.2,0.7,1.7
	C133.1,264.4,133.7,264.7,134.3,264.7z"/>
<path class="st14" d="M66.8,284c0-2.4-1-4.7-2.7-6.4c-1.7-1.7-4-2.7-6.4-2.7v18.3c2.4,0,4.7-1,6.4-2.7
	C65.9,288.8,66.8,286.4,66.8,284z"/>
<path class="st7" d="M409.6,296.2h-95.9c-1.6,0-3.2,0.6-4.4,1.8c-1.2,1.2-1.8,2.7-1.8,4.4v8.5c0,0.8,0.2,1.6,0.5,2.4
	c0.3,0.7,0.8,1.4,1.3,2c0.6,0.6,1.2,1,2,1.3c0.7,0.3,1.5,0.5,2.4,0.5h96c0.8,0,1.6-0.2,2.4-0.5c0.7-0.3,1.4-0.8,2-1.3
	c0.6-0.6,1-1.3,1.3-2c0.3-0.7,0.5-1.5,0.5-2.4v-8.5c0-1.6-0.7-3.2-1.8-4.4C412.8,296.9,411.3,296.2,409.6,296.2"/>
<path class="st15" d="M324.8,306.6c0-0.9-0.4-1.9-1.1-2.5s-1.6-1-2.5-1c-0.9,0-1.9,0.4-2.5,1.1c-0.7,0.7-1,1.6-1,2.5
	c0,0.9,0.4,1.9,1,2.5c0.7,0.7,1.6,1.1,2.5,1.1c0.9,0,1.9-0.4,2.5-1S324.8,307.7,324.8,306.6L324.8,306.6L324.8,306.6z"/>
<path class="st14" d="M332.4,306.7c0-0.3-0.1-0.6-0.2-0.8c-0.1-0.3-0.3-0.5-0.5-0.7c-0.2-0.2-0.4-0.4-0.7-0.5
	c-0.3-0.1-0.5-0.2-0.8-0.2c-0.6,0-1.1,0.2-1.6,0.6c-0.4,0.4-0.7,1-0.7,1.5c0,0.3,0.1,0.6,0.2,0.8c0.1,0.3,0.3,0.5,0.5,0.7
	c0.2,0.2,0.4,0.4,0.7,0.5c0.3,0.1,0.5,0.2,0.8,0.2h0.1c0.3,0,0.5,0,0.8-0.1c0.3-0.1,0.5-0.2,0.7-0.4c0.2-0.2,0.4-0.4,0.5-0.6
	c0.1-0.2,0.2-0.5,0.2-0.8C332.4,306.8,332.4,306.7,332.4,306.7"/>
<path class="st15" d="M401.2,306.7c0,0.9,0.3,1.7,0.7,2.5c0.5,0.7,1.2,1.3,2,1.6c0.8,0.3,1.7,0.4,2.6,0.3c0.9-0.2,1.6-0.6,2.3-1.2
	c0.6-0.6,1-1.4,1.2-2.3c0.2-0.9,0.1-1.7-0.3-2.6c-0.3-0.8-0.9-1.5-1.6-2c-0.7-0.5-1.6-0.7-2.5-0.7c-1.2,0-2.3,0.5-3.1,1.3
	C401.6,304.4,401.2,305.5,401.2,306.7"/>
<path class="st14" d="M393.6,306.7c0,0.4,0.1,0.8,0.4,1.2c0.2,0.4,0.6,0.6,1,0.8c0.4,0.2,0.8,0.2,1.3,0.1c0.4-0.1,0.8-0.3,1.1-0.6
	c0.3-0.3,0.5-0.7,0.6-1.1c0.1-0.4,0-0.9-0.1-1.3c-0.2-0.4-0.4-0.7-0.8-1c-0.4-0.2-0.8-0.4-1.2-0.4c-0.6,0-1.1,0.2-1.5,0.6
	c-0.4,0.4-0.6,0.9-0.7,1.5V306.7z"/>
<path class="st16" d="M161.1,275.6L112.8,291c0,0,4.8,3.2,6.3,5.2h41.9V275.6z"/>
<path class="st17" d="M112.8,291.1l48.3-15.4v-10.5l-56.7,22.5C107.4,288.3,110.3,289.4,112.8,291.1"/>
<path class="st10" d="M97.1,286.7c8,0,15.7,3.2,21.4,8.9c5.7,5.7,8.9,13.4,8.9,21.4H66.8c0-4,0.8-7.9,2.3-11.6
	c1.5-3.7,3.7-7,6.5-9.8c2.8-2.8,6.1-5,9.8-6.6c3.7-1.5,7.6-2.3,11.6-2.3H97.1z"/>
<path class="st10" d="M101.2,291.4c3.3-0.1,6.7,0.5,9.8,1.7c3.1,1.2,6,3,8.4,5.3c4.9,4.6,7.8,11.1,8,17.8c0.2,6.8-2.3,13.3-7,18.2
	c-4.6,4.9-11.1,7.8-17.8,8h-8.4v-51.1L101.2,291.4L101.2,291.4z"/>
<path class="st7" d="M70.5,317c0-5.1,1.5-10,4.3-14.2c2.8-4.2,6.8-7.5,11.5-9.4c4.7-1.9,9.8-2.4,14.8-1.5c5,1,9.5,3.4,13.1,7
	c3.6,3.6,6,8.1,7,13.1c1,5,0.5,10.1-1.5,14.8c-1.9,4.7-5.2,8.7-9.4,11.5c-4.2,2.8-9.1,4.3-14.2,4.3c-3.4,0-6.7-0.7-9.8-1.9
	c-3.1-1.3-5.9-3.2-8.3-5.5c-2.4-2.4-4.3-5.2-5.5-8.3C71.2,323.7,70.5,320.3,70.5,317"/>
<path class="st16" d="M96,304.4c-2.5,0-4.9,0.7-7,2.1c-2.1,1.4-3.7,3.3-4.6,5.6c-0.9,2.3-1.2,4.8-0.7,7.2c0.5,2.4,1.7,4.7,3.4,6.4
	c1.8,1.8,4,2.9,6.4,3.4c2.4,0.5,4.9,0.2,7.2-0.7c2.3-0.9,4.2-2.6,5.6-4.6s2.1-4.5,2.1-7c0-3.3-1.3-6.5-3.7-8.9
	C102.5,305.7,99.3,304.4,96,304.4z"/>
<path class="st18" d="M270.4,295.2l42.5,0.1c0.3,0,0.6-0.1,0.8-0.3c0.2-0.2,0.4-0.4,0.5-0.7l13.1-61.7c6.5-23.1-2.9-22.3-17.5-22.3
	c-23-1.5-24.4,10-27,22.3l-13.1,61.7c0,0.1,0,0.3,0,0.4c0,0.1,0.1,0.2,0.2,0.3c0.1,0.1,0.2,0.2,0.3,0.2
	C270.2,295.2,270.3,295.2,270.4,295.2L270.4,295.2z"/>
<path class="st19" d="M270,296.1l43.4,0.1c0.4,0,0.7-0.1,1-0.4c0.3-0.2,0.5-0.6,0.6-0.9l15.3-71.6c1.6-7.5-3.2-13.5-10.6-13.5h-18.9
	c-7.5,0-14.8,6.1-16.4,13.5L269,294.9c0,0.1,0,0.3,0,0.5c0,0.1,0.1,0.3,0.2,0.4c0.1,0.1,0.2,0.2,0.4,0.3
	C269.7,296.1,269.9,296.1,270,296.1L270,296.1z M313.6,294.8l-43.2-0.1l15.2-71.5c1.4-6.7,8-12.1,14.7-12.1h18.9
	c6.7,0,11,5.5,9.6,12.2L313.6,294.8z"/>
<path class="st19" d="M291.8,295.5c0.2,0,0.4-0.1,0.5-0.2c0.2-0.1,0.3-0.3,0.3-0.5l18-84.5c0-0.1,0-0.2,0-0.3c0-0.1-0.1-0.2-0.1-0.2
	c-0.1-0.1-0.1-0.1-0.2-0.2c-0.1,0-0.2-0.1-0.2-0.1c-0.2,0-0.4,0.1-0.5,0.2c-0.2,0.1-0.3,0.3-0.3,0.5l-18,84.5c0,0.1,0,0.2,0,0.2
	c0,0.1,0,0.2,0.1,0.2c0,0.1,0.1,0.1,0.2,0.2C291.6,295.5,291.7,295.5,291.8,295.5L291.8,295.5z"/>
<path class="st19" d="M273.6,276l44.7,0.1c0.2,0,0.4-0.1,0.5-0.2c0.2-0.1,0.3-0.3,0.3-0.5c0-0.1,0-0.2,0-0.3c0-0.1-0.1-0.2-0.1-0.2
	c-0.1-0.1-0.1-0.1-0.2-0.2c-0.1,0-0.2-0.1-0.2-0.1l-44.6-0.1c-0.2,0-0.4,0.1-0.5,0.2c-0.2,0.1-0.3,0.3-0.3,0.5c0,0.1,0,0.2,0,0.3
	c0,0.1,0,0.2,0.1,0.2c0.1,0.1,0.1,0.1,0.2,0.2C273.4,276,273.5,276,273.6,276L273.6,276z M282.7,233.6l44.6,0c0.2,0,0.4-0.1,0.5-0.2
	c0.2-0.1,0.3-0.3,0.3-0.5c0-0.1,0-0.2,0-0.3c0-0.1-0.1-0.2-0.1-0.2c-0.1-0.1-0.1-0.1-0.2-0.2c-0.1,0-0.2-0.1-0.2-0.1l-44.6-0.1
	c-0.2,0-0.4,0.1-0.5,0.2c-0.2,0.1-0.3,0.3-0.3,0.5c0,0.1,0,0.2,0,0.3c0,0.1,0.1,0.2,0.1,0.2c0.1,0.1,0.1,0.1,0.2,0.2
	S282.6,233.6,282.7,233.6L282.7,233.6z M278.1,254.8l44.6,0.1c0.2,0,0.4-0.1,0.5-0.2c0.2-0.1,0.3-0.3,0.3-0.5c0-0.1,0-0.2,0-0.3
	c0-0.1,0-0.2-0.1-0.2c-0.1-0.1-0.1-0.1-0.2-0.2c-0.1,0-0.2-0.1-0.2-0.1l-44.6-0.1c-0.2,0-0.4,0.1-0.5,0.2s-0.3,0.3-0.3,0.5
	c0,0.1,0,0.2,0,0.3c0,0.1,0.1,0.2,0.1,0.2c0.1,0.1,0.1,0.1,0.2,0.2C278,254.8,278.1,254.8,278.1,254.8L278.1,254.8z"/>
<path class="st18" d="M213.1,295.2l42.5,0.1c0.3,0,0.6-0.1,0.8-0.3c0.2-0.2,0.4-0.5,0.4-0.8l13.1-61.7c6.5-23.1-2.9-22.3-17.5-22.3
	c-23-1.5-24.4,10-27.1,22.3l-13.1,61.7c0,0.1,0,0.3,0,0.4c0,0.1,0.1,0.2,0.2,0.4c0.1,0.1,0.2,0.2,0.3,0.2
	C212.8,295.2,212.9,295.2,213.1,295.2z"/>
<path class="st19" d="M212.7,296.1l43.4,0.1c0.4,0,0.7-0.1,1-0.4c0.3-0.2,0.5-0.6,0.6-0.9l15.3-71.6c1.6-7.5-3.2-13.5-10.6-13.5
	h-18.9c-7.5,0-14.8,6.1-16.4,13.5l-15.3,71.6c0,0.1,0,0.3,0,0.5c0,0.1,0.1,0.3,0.2,0.4c0.1,0.1,0.2,0.2,0.4,0.3
	C212.4,296.1,212.5,296.1,212.7,296.1L212.7,296.1z M256.2,294.8l-43.2-0.1l15.2-71.5c1.4-6.7,8-12.1,14.7-12.1H262
	c6.7,0,11,5.5,9.6,12.2L256.2,294.8z"/>
<path class="st19" d="M234.4,295.5c0.2,0,0.4-0.1,0.5-0.2c0.2-0.1,0.3-0.3,0.3-0.5l18-84.5c0-0.1,0-0.2,0-0.3c0-0.1-0.1-0.2-0.1-0.2
	c-0.1-0.1-0.1-0.1-0.2-0.2c-0.1,0-0.2-0.1-0.2-0.1c-0.2,0-0.4,0.1-0.5,0.2c-0.2,0.1-0.3,0.3-0.3,0.5l-18,84.5c0,0.1,0,0.2,0,0.2
	c0,0.1,0,0.2,0.1,0.2c0,0.1,0.1,0.1,0.2,0.2C234.2,295.5,234.3,295.5,234.4,295.5L234.4,295.5z"/>
<path class="st19" d="M216.3,276l44.6,0.1c0.2,0,0.4-0.1,0.5-0.2c0.2-0.1,0.3-0.3,0.3-0.5c0-0.1,0-0.2,0-0.3c0-0.1-0.1-0.2-0.1-0.2
	c-0.1-0.1-0.1-0.1-0.2-0.2c-0.1,0-0.2-0.1-0.2-0.1l-44.6-0.1c-0.2,0-0.4,0.1-0.5,0.2c-0.2,0.1-0.3,0.3-0.3,0.5c0,0.1,0,0.2,0,0.3
	c0,0.1,0,0.2,0.1,0.2c0.1,0.1,0.1,0.1,0.2,0.2C216.1,276,216.2,276,216.3,276L216.3,276z M225.3,233.6l44.7,0c0.2,0,0.4-0.1,0.5-0.2
	c0.2-0.1,0.3-0.3,0.3-0.5c0-0.1,0-0.2,0-0.3c0-0.1-0.1-0.2-0.1-0.2c-0.1-0.1-0.1-0.1-0.2-0.2c-0.1,0-0.2-0.1-0.2-0.1l-44.6-0.1
	c-0.2,0-0.4,0.1-0.5,0.2c-0.2,0.1-0.3,0.3-0.3,0.5c0,0.1,0,0.2,0,0.3c0,0.1,0.1,0.2,0.1,0.2c0.1,0.1,0.1,0.1,0.2,0.2
	S225.3,233.6,225.3,233.6L225.3,233.6z M220.8,254.8l44.6,0.1c0.2,0,0.4-0.1,0.5-0.2c0.2-0.1,0.3-0.3,0.3-0.5c0-0.1,0-0.2,0-0.3
	c0-0.1,0-0.2-0.1-0.2c-0.1-0.1-0.1-0.1-0.2-0.2s-0.2-0.1-0.2-0.1l-44.7-0.1c-0.2,0-0.4,0.1-0.5,0.2c-0.2,0.1-0.3,0.3-0.3,0.5
	c0,0.1,0,0.2,0,0.3c0,0.1,0.1,0.2,0.1,0.2c0.1,0.1,0.1,0.1,0.2,0.2C220.6,254.8,220.7,254.8,220.8,254.8L220.8,254.8z"/>
<path class="st10" d="M251.2,286.7c8,0,15.7,3.2,21.4,8.9c5.7,5.7,8.9,13.4,8.9,21.4h-60.6c0-4,0.8-7.9,2.3-11.6
	c1.5-3.7,3.7-7,6.5-9.8c2.8-2.8,6.1-5,9.8-6.6c3.7-1.5,7.6-2.3,11.6-2.3H251.2z"/>
<path class="st10" d="M255.2,291.4c6.8-0.2,13.3,2.3,18.2,7c4.9,4.6,7.8,11.1,8,17.8c0.2,6.8-2.3,13.3-7,18.2
	c-4.6,4.9-11.1,7.8-17.8,8h-8.5v-51.1L255.2,291.4L255.2,291.4z"/>
<path class="st7" d="M224.6,317c0-5.1,1.5-10,4.3-14.2c2.8-4.2,6.8-7.5,11.5-9.4c4.7-1.9,9.8-2.4,14.8-1.5c5,1,9.5,3.4,13.1,7
	c3.6,3.6,6,8.1,7,13.1c1,5,0.5,10.1-1.5,14.8c-1.9,4.7-5.2,8.7-9.4,11.5c-4.2,2.8-9.1,4.3-14.2,4.3c-3.4,0-6.7-0.7-9.8-1.9
	c-3.1-1.3-5.9-3.2-8.3-5.5c-2.4-2.4-4.3-5.2-5.5-8.3C225.2,323.7,224.6,320.3,224.6,317"/>
<path class="st16" d="M250,304.4c-2.5,0-4.9,0.7-7,2.1c-2.1,1.4-3.7,3.3-4.6,5.6c-0.9,2.3-1.2,4.8-0.7,7.2c0.5,2.4,1.7,4.7,3.4,6.4
	c1.8,1.8,4,2.9,6.4,3.4c2.4,0.5,4.9,0.2,7.2-0.7c2.3-0.9,4.2-2.6,5.6-4.6s2.1-4.5,2.1-7c0-3.3-1.3-6.5-3.7-8.9
	C256.5,305.7,253.4,304.4,250,304.4z"/>
<path class="st15" d="M357.4,237.2l1.2-4.2l-1.2-0.7l-2.8-0.6H203.1l-1.1,4.2l151.3,0l2.8,0.5L357.4,237.2L357.4,237.2z
	 M349.3,266.4l1.2-4.2l-1.2-0.7l-2.8-0.6H195l-1.1,4.2l151.3,0l2.8,0.5L349.3,266.4L349.3,266.4z"/>
<path class="st7" d="M490.4,273.9c0.8,0.6,1.6,1.2,2.5,1.8v-0.1l12.3-5.8c0.3-0.2,0.6-0.4,0.7-0.8s0.1-0.7-0.1-1s-0.4-0.6-0.8-0.7
	c-0.3-0.1-0.7-0.1-1,0l-13.5,6.3L490.4,273.9z"/>
<path class="st7" d="M492.8,275.7l-13.6,62.1l-2.6-0.7l13.8-63.2l3,1.4"/>
<path class="st18" d="M442.8,329.5l46.9,11c0.2,0,0.3,0,0.5,0c0.2,0,0.3-0.1,0.4-0.2c0.1-0.1,0.3-0.2,0.3-0.3
	c0.1-0.1,0.2-0.3,0.2-0.4l15.9-68.1c7.7-25-2.7-26.6-18.8-30.4c-25.3-7.7-27.2,5.3-30.4,18.9L442,328.1c0,0.2,0,0.3,0,0.5
	c0,0.2,0.1,0.3,0.2,0.4c0.1,0.1,0.2,0.3,0.3,0.3C442.6,329.4,442.7,329.5,442.8,329.5L442.8,329.5z"/>
<path class="st19" d="M442.4,330.5l47.9,11.2c0.2,0,0.4,0.1,0.6,0c0.2,0,0.4-0.1,0.5-0.2c0.2-0.1,0.3-0.2,0.4-0.4
	c0.1-0.2,0.2-0.3,0.2-0.5l18.5-79c0.9-4,0.2-8.1-1.9-11.6c-2.1-3.5-5.6-5.9-9.5-6.8l-20.9-4.9c-4-0.9-8.1-0.2-11.6,1.9
	c-3.5,2.1-5.9,5.6-6.8,9.5l-18.5,79c0,0.2-0.1,0.4,0,0.6c0,0.2,0.1,0.4,0.2,0.5c0.1,0.2,0.2,0.3,0.4,0.4
	C442,330.3,442.2,330.4,442.4,330.5z M490.6,340.1L442.8,329l18.4-79c0.8-3.6,3.1-6.6,6.2-8.6c3.1-1.9,6.8-2.5,10.4-1.7l20.9,4.9
	c3.6,0.8,6.6,3,8.6,6.1s2.5,6.8,1.7,10.4L490.6,340.1z"/>
<path class="st19" d="M466.4,335.4c0.2,0,0.4,0,0.6-0.1c0.2-0.1,0.3-0.3,0.4-0.5l21.8-93.3c0-0.2,0-0.4-0.1-0.6
	c-0.1-0.2-0.3-0.3-0.5-0.3s-0.4,0-0.6,0.1c-0.2,0.1-0.3,0.3-0.3,0.5l-21.8,93.3c0,0.2,0,0.4,0.1,0.6
	C466.1,335.3,466.2,335.4,466.4,335.4L466.4,335.4z"/>
<path class="st19" d="M446.8,308.1l49.3,11.5c0.1,0,0.2,0,0.3,0c0.1,0,0.2,0,0.3-0.1c0.1-0.1,0.2-0.1,0.2-0.2
	c0.1-0.1,0.1-0.2,0.1-0.3c0-0.1,0-0.2,0-0.3c0-0.1-0.1-0.2-0.1-0.3c-0.1-0.1-0.1-0.2-0.2-0.2c-0.1-0.1-0.2-0.1-0.3-0.1l-49.3-11.5
	c-0.1,0-0.2,0-0.3,0c-0.1,0-0.2,0-0.3,0.1c-0.1,0.1-0.2,0.1-0.2,0.2c-0.1,0.1-0.1,0.2-0.1,0.3c0,0.1,0,0.2,0,0.3
	c0,0.1,0.1,0.2,0.1,0.3c0.1,0.1,0.1,0.2,0.2,0.2C446.6,308.1,446.7,308.1,446.8,308.1z M457.8,261.3l49.3,11.5c0.1,0,0.2,0,0.3,0
	c0.1,0,0.2-0.1,0.3-0.1c0.1-0.1,0.2-0.1,0.2-0.2c0.1-0.1,0.1-0.2,0.1-0.3c0-0.1,0-0.2,0-0.3c0-0.1-0.1-0.2-0.1-0.3
	c-0.1-0.1-0.1-0.2-0.2-0.2c-0.1-0.1-0.2-0.1-0.3-0.1l-49.3-11.5c-0.2,0-0.4,0-0.6,0.1c-0.2,0.1-0.3,0.3-0.3,0.5c0,0.2,0,0.4,0.1,0.6
	C457.4,261.1,457.6,261.3,457.8,261.3L457.8,261.3z M452.3,284.7l49.3,11.5c0.1,0,0.2,0,0.3,0c0.1,0,0.2,0,0.3-0.1
	c0.1-0.1,0.2-0.1,0.2-0.2c0.1-0.1,0.1-0.2,0.1-0.3c0-0.1,0-0.2,0-0.3c0-0.1-0.1-0.2-0.1-0.3s-0.1-0.2-0.2-0.2
	c-0.1-0.1-0.2-0.1-0.3-0.1l-49.3-11.5c-0.2,0-0.4,0-0.6,0.1c-0.2,0.1-0.3,0.3-0.3,0.5c0,0.2,0,0.4,0.1,0.6
	C451.9,284.5,452.1,284.7,452.3,284.7L452.3,284.7z"/>
<path class="st20" d="M504.5,268.5c0.1,0.3,0.7,0.4,1.8,0.4c0.5,0,1.2,0,1.9-0.1c0.8-0.1,1.6-0.1,2.5-0.2c0.9-0.1,2-0.2,3.1-0.4
	c1.1-0.2,2.3-0.4,3.5-0.7c1.2-0.3,2.5-0.6,3.9-1.1c1.4-0.4,2.8-1,4.1-1.6c1.4-0.6,2.7-1.4,3.9-2.2c1.2-0.8,2.3-1.6,3.4-2.6
	c0.5-0.5,1-0.9,1.4-1.4c0.2-0.2,0.4-0.5,0.6-0.7c0.2-0.3,0.4-0.5,0.6-0.7c0.2-0.2,0.4-0.5,0.5-0.7c0.2-0.2,0.3-0.5,0.5-0.7
	c0.3-0.5,0.6-1,0.8-1.4c0.4-0.9,0.8-1.7,1-2.7c0.1-0.4,0.2-0.8,0.2-1.2c0-0.3,0-0.7,0-1c0-0.1,0-0.3,0-0.4c0-0.1,0-0.3-0.1-0.4
	c0-0.2-0.1-0.4-0.2-0.6c-0.1-0.2-0.2-0.3-0.3-0.4c-0.1-0.1-0.3-0.2-0.4-0.3c-0.3-0.1-0.7-0.1-1,0.1c-0.2,0.1-0.4,0.2-0.6,0.3
	c-0.1,0.1-0.2,0.1-0.3,0.2l-0.3,0.2c-0.2,0.2-0.4,0.4-0.7,0.5c-0.2,0.2-0.5,0.4-0.7,0.7c-0.5,0.5-1,1-1.6,1.6
	c-0.3,0.3-0.6,0.6-0.9,0.9c-0.2,0.1-0.3,0.3-0.5,0.5c-0.2,0.2-0.3,0.3-0.5,0.5c-0.2,0.2-0.4,0.3-0.5,0.5c-0.2,0.2-0.4,0.3-0.6,0.5
	c-0.4,0.3-0.8,0.7-1.2,1c-0.8,0.7-1.7,1.4-2.7,2.1c-0.9,0.7-2,1.4-3.1,2.1c-1.1,0.7-2.2,1.4-3.3,2c-1.1,0.6-2.2,1.2-3.2,1.7
	c-1.1,0.5-2.1,1-3,1.5l-2.7,1.3c-0.8,0.4-1.6,0.8-2.3,1.1c-0.7,0.3-1.2,0.6-1.7,0.9C504.9,267.8,504.4,268.2,504.5,268.5z"/>
<path class="st7" d="M571.7,333.1c0,0-0.7,4.4-4.7,3.7l-3.3,15.8l14.2-17.1L571.7,333.1z"/>
<path class="st4" d="M565.5,353.4l13.4-16.3c0.1-0.1,0.1-0.3,0.1-0.4c0-0.2-0.1-0.3-0.2-0.4l-1.1-0.9l-14.1,17.2l1,0.9
	c0.1,0.1,0.3,0.1,0.4,0.1C565.3,353.5,565.4,353.5,565.5,353.4z M568.7,340.4c-0.1,0-0.1,0.1-0.2,0c-0.8,0-1.6,0-2.4,0.2
	c0,0-0.1,0-0.1,0c0,0-0.1,0-0.1,0c0,0-0.1,0-0.1-0.1c0,0-0.1-0.1-0.1-0.1c0-0.1,0-0.2,0-0.3c0-0.1,0.1-0.1,0.2-0.2
	c0.9-0.2,1.8-0.3,2.7-0.3c0,0,0.1,0,0.1,0c0,0,0.1,0,0.1,0.1c0,0,0.1,0.1,0.1,0.1c0,0,0,0.1,0,0.1c0,0.1,0,0.1-0.1,0.2
	S568.8,340.4,568.7,340.4z M568.3,342.4c-0.1,0-0.1,0-0.2,0c-0.8,0-1.6,0-2.4,0.2c0,0-0.1,0-0.1,0c0,0-0.1,0-0.1,0
	c0,0-0.1,0-0.1-0.1c0,0-0.1-0.1-0.1-0.1c0-0.1,0-0.2,0-0.3c0-0.1,0.1-0.1,0.2-0.2c0.9-0.2,1.8-0.3,2.7-0.3c0,0,0.1,0,0.1,0
	c0,0,0.1,0,0.1,0.1c0,0,0.1,0.1,0.1,0.1c0,0,0,0.1,0,0.1c0,0.1,0,0.1-0.1,0.2C568.4,342.3,568.3,342.3,568.3,342.4z M567.8,344.4
	c-0.1,0-0.1,0-0.2,0c-0.8,0-1.6,0-2.4,0.3c0,0-0.1,0-0.1,0c0,0-0.1,0-0.1,0c0,0-0.1,0-0.1-0.1c0,0-0.1-0.1-0.1-0.1
	c0-0.1,0-0.2,0-0.3c0-0.1,0.1-0.1,0.2-0.2c0.9-0.2,1.8-0.3,2.7-0.3c0.1,0,0.2,0,0.2,0.1c0.1,0.1,0.1,0.2,0.1,0.2
	c0,0.1,0,0.1-0.1,0.2C567.9,344.3,567.8,344.4,567.8,344.4z"/>
<path class="st7" d="M526.4,345.8c0,0-3.9,2.3-5.9-1.2l-14.1,7.8l22.2-0.6L526.4,345.8z"/>
<path class="st4" d="M507.2,354.3l20.7-0.5c0.2,0,0.4-0.1,0.5-0.2c0.1-0.1,0.2-0.3,0.2-0.5v-1.2l-22.2,0.6v1.2
	c0,0.2,0.1,0.4,0.2,0.5C506.8,354.3,507,354.4,507.2,354.3L507.2,354.3z M518.9,348.3c-0.1,0-0.1-0.1-0.2-0.1
	c-0.5-0.6-1.1-1.2-1.8-1.7c0,0-0.1-0.1-0.1-0.1c0,0,0-0.1-0.1-0.1c0,0,0-0.1,0-0.1c0,0,0-0.1,0-0.1c0.1-0.1,0.1-0.1,0.2-0.2
	c0.1,0,0.2,0,0.3,0.1c0.8,0.5,1.4,1.1,2,1.8c0,0,0.1,0.1,0.1,0.1c0,0,0,0.1,0,0.1c0,0,0,0.1,0,0.1c0,0-0.1,0.1-0.1,0.1
	c-0.1,0-0.1,0.1-0.2,0.1C519.1,348.3,519,348.3,518.9,348.3z M517.1,349.3c-0.1,0-0.1-0.1-0.2-0.1c-0.5-0.6-1.1-1.2-1.8-1.7
	c0,0-0.1-0.1-0.1-0.1c0,0,0-0.1-0.1-0.1c0,0,0-0.1,0-0.1c0,0,0-0.1,0-0.1c0.1-0.1,0.1-0.1,0.2-0.2c0.1,0,0.2,0,0.3,0.1
	c0.8,0.5,1.4,1.1,2,1.8c0.1,0.1,0.1,0.2,0.1,0.2c0,0.1-0.1,0.2-0.1,0.2c-0.1,0-0.1,0.1-0.2,0.1C517.3,349.3,517.2,349.3,517.1,349.3
	z M515.3,350.2c-0.1,0-0.1-0.1-0.2-0.1c-0.5-0.6-1.1-1.2-1.8-1.7c-0.1,0-0.1-0.1-0.2-0.2s0-0.2,0-0.3c0.1-0.1,0.1-0.1,0.2-0.2
	c0.1,0,0.2,0,0.3,0c0.8,0.5,1.4,1.1,2,1.8c0.1,0.1,0.1,0.2,0.1,0.2c0,0.1-0.1,0.2-0.1,0.2c-0.1,0-0.1,0.1-0.2,0.1
	C515.5,350.2,515.4,350.2,515.3,350.2z M532.3,254.9c-0.6,6.3-0.9,12.6-0.7,18.9c5.9,2.2,12.3,3,18.6,2.2c0.6-6.4,1.3-12.8,1.6-19.2
	c0.1-3.4,0.2-6.8-0.7-10.1c-0.7-2.9-2.3-5.6-4.6-7.5c-0.3-0.2-0.6-0.4-0.8-0.6c-1.4,1.1-4.5,1.4-6.1,0.6c-0.9,0.5-1.7,1.2-2.4,2
	c-1.3,1.4-2.3,3.1-3,4.9C533.3,249,532.6,252,532.3,254.9z"/>
<path class="st21" d="M537.3,241.1c2.5,0.8,5.1,0.5,7.4-0.7c0.6-0.3,1.2-0.7,1.8-1.1c0-0.1,0-0.2,0.1-0.4v-0.2
	c0-0.2-0.1-0.4-0.1-0.5c-0.2-1.8-0.4-3.6-0.6-5.5c-0.2-1.7-0.3-3.4-0.5-5.1c-1.9,0.9-3.8,1.9-5.5,3.1c-0.1,1.1-0.2,2.3-0.3,3.4
	c-0.1,1-0.3,1.9-0.4,2.8c-0.1,0.5-0.2,1-0.3,1.6c-0.1,0.5-0.2,1-0.3,1.5C538,240.4,537.7,240.8,537.3,241.1z"/>
<path class="st22" d="M539.1,237c2-0.5,4.3-1,6.8-4.3c-0.2-1.7-0.3-3.4-0.5-5.1c-1.9,0.9-3.8,1.9-5.5,3.1c-0.1,1.1-0.2,2.3-0.3,3.4
	C539.4,235.1,539.3,236.1,539.1,237z"/>
<path class="st19" d="M539.6,217.1c0.2-0.6,0.5-1.2,1-1.6c0.4-0.5,1-0.8,1.6-1.1c1.2-0.5,2.5-0.5,3.8-0.1c1.3,0.4,2.4,1.1,3.3,2.1
	c0.9,1,1.3,2.3,1.3,3.7c0,2.1-1.3,4-2.4,5.7C546,222.2,543.1,219.3,539.6,217.1z"/>
<path class="st23" d="M538.3,214.7c-0.6-0.4-1.2-0.6-1.9-0.6c-0.5,0.1-0.9,0.4-1.2,0.8s-0.4,0.9-0.4,1.3c0.1,1,0.5,1.9,1.2,2.5
	c1.1,1.1,2.4,1.9,3.9,2.2c1.5,0.3,3.1,0.2,4.5-0.3c0.4-0.1,1.3-0.4,1.5-0.8c0.3-0.6-0.3-0.7-0.8-1L538.3,214.7z"/>
<path class="st14" d="M545.2,231.7c1.4-1.2,2.5-2.8,2.9-4.6c0.5-1.8,0.4-3.7-0.2-5.4c-0.1-0.3-0.3-0.5-0.4-0.7
	c-0.3-0.5-0.7-0.9-1.1-1.3c-0.9,1.2-1.5,2.6-1.9,4.1C543.8,226.3,544.1,229.2,545.2,231.7z M537.6,222.3c-0.3,0.7-0.4,1.5-0.3,2.2
	c0.1,0.8,0.4,1.5,0.8,2.1c0.7-1,1.3-2.2,1.5-3.4c0-0.2,0.1-0.3,0-0.5c0-0.2-0.1-0.3-0.2-0.5c-0.1-0.1-0.3-0.2-0.4-0.2
	c-0.2,0-0.3,0-0.5,0C538.3,222,537.9,222.4,537.6,222.3z"/>
<path class="st21" d="M538.6,221.7c0.2,1.7-0.6,3.3-1.3,4.8c-0.7,1.5-1.4,3.3-0.8,4.9c0.3,0.8,0.9,1.5,1.7,1.9
	c0.8,0.4,1.6,0.6,2.5,0.5c0.9-0.1,1.7-0.5,2.4-1c0.7-0.5,1.3-1.2,1.7-1.9c0.8-1.6,1.2-3.3,1.1-5.1c-0.1-1.7-0.4-3.5-0.9-5.2
	C543,219.6,540.5,220.2,538.6,221.7z"/>
<path class="st21" d="M545.5,226.4c0.2-0.2,0.5-0.4,0.7-0.6c0.3-0.1,0.6-0.2,0.9-0.1c0.2,0.1,0.3,0.2,0.5,0.4
	c0.1,0.2,0.2,0.3,0.3,0.5c0.1,0.4,0.1,0.8,0,1.1c-0.1,0.4-0.4,0.7-0.7,0.9c-0.3,0.2-0.7,0.4-1.1,0.4c-0.4,0-0.8-0.1-1.1-0.3
	C545.3,228.1,545.5,227.3,545.5,226.4z"/>
<path class="st14" d="M537.4,222.9c2.5,0.2,5-0.4,7.1-1.5c-0.2,0.7-0.2,1.5-0.1,2.2c0.2,1.1,0.8,2,1.7,2.7c1-1.4,1.5-3.1,1.4-4.8
	c0-0.2-0.1-0.4-0.1-0.6c-0.3-0.5-0.7-0.9-1.1-1.3c-0.6-0.6-1.4-1.2-2.2-1.5c-1.1-0.5-2.3-0.7-3.5-0.6c-1.2,0.1-2.3,0.4-3.4,1
	c-0.2,0.1-0.3,0.3-0.5,0.4c-0.4,0.4-0.7,0.9-1,1.4c-0.1,0.2-0.2,0.5-0.2,0.7c0,0.3,0,0.5,0.1,0.7c0.1,0.2,0.2,0.5,0.4,0.6
	c0.2,0.2,0.4,0.3,0.6,0.4C536.9,222.9,537.2,222.9,537.4,222.9z"/>
<path class="st24" d="M550.6,281.5c0,0-6.2,29.4,23.1,51.6l-8.4,8.5c0,0-32.8-24.3-28.2-53.9L550.6,281.5z"/>
<path class="st23" d="M551.1,298.4c-2.3,6.2-5.2,12.2-7.6,18.3c-4.8-8.4-7.9-18.4-6.3-29.1l13.5-6.2
	C550.6,281.5,549.1,288.6,551.1,298.4z"/>
<path class="st19" d="M532.4,249.6c-1.7,10.4-2.2,21-1.7,31.5c0,0-17.8,31.7-15.4,64.4l12.5,3.6c0,0,4.5-42.6,22.4-63.5l1.6-21.4
	l-13.5-2.7l-0.7-11.5L532.4,249.6z"/>
<path class="st24" d="M550.9,266.6c0.1,0,0.2-0.1,0.4-0.4c0.1-0.2,0.2-0.4,0.3-0.5c0.1-0.2,0.2-0.5,0.3-0.8l0.1-0.4
	c0-0.2,0.1-0.3,0.1-0.5l0.1-0.5c0-0.2,0.1-0.4,0.1-0.6l0.1-0.6c0-0.2,0.1-0.5,0.1-0.7c0.1-0.5,0.1-1,0.2-1.5
	c0.1-1.2,0.2-2.3,0.2-3.5c0-1.3-0.1-2.7-0.2-4c-0.2-1.5-0.4-2.9-0.8-4.4c-0.3-1.6-0.9-3.2-1.8-4.6c-0.5-0.8-1-1.5-1.7-2.1
	c-0.7-0.6-1.4-1.1-2.2-1.4c-0.4-0.2-0.9-0.3-1.3-0.4l-0.3-0.1h-1c-0.8,0-1.6,0.2-2.4,0.6c-0.7,0.3-1.3,0.7-1.9,1.2
	c-0.1,0.1-0.3,0.2-0.4,0.3l-0.4,0.4l-0.3,0.4c-0.1,0.1-0.2,0.3-0.3,0.4c-0.4,0.5-0.7,1.1-1,1.6c-0.3,0.5-0.5,1.1-0.7,1.6
	c-0.3,0.9-0.5,1.9-0.6,2.8c-0.1,0.7-0.1,1.4-0.2,2.2c0,1.2,0.1,1.8,0.2,1.8c0.1,0,0.3-0.6,0.5-1.8c0.1-0.6,0.3-1.3,0.5-2
	c0.2-0.9,0.5-1.7,0.9-2.6c0.4-1,1-1.9,1.7-2.7c0.1-0.1,0.2-0.2,0.3-0.3l0.3-0.3l0.3-0.3l0.3-0.3c0.5-0.3,1-0.6,1.5-0.8
	c0.5-0.2,1.1-0.3,1.7-0.3h0.2c0.1,0,0.1,0,0.2,0h0.2l0.2,0.1c0.3,0.1,0.6,0.2,0.8,0.3c1.2,0.6,2.1,1.5,2.8,2.7
	c0.7,1.3,1.2,2.6,1.4,4c0.3,1.4,0.6,2.8,0.8,4.1c0.2,1.3,0.3,2.6,0.4,3.8c0.1,1.2,0.1,2.3,0.1,3.3v2.1c0,0.2,0,0.4,0,0.6
	c0,0.2,0,0.4,0,0.6v2.8C550.7,266.4,550.8,266.6,550.9,266.6z"/>
<path class="st7" d="M493.8,344.3l13.3-68.7l12.3-5.7c0.3-0.2,0.6-0.4,0.7-0.8c0.1-0.3,0.1-0.7-0.1-1c-0.2-0.3-0.4-0.6-0.8-0.7
	c-0.3-0.1-0.7-0.1-1,0l-13.5,6.3l-0.1,0.7L491.7,341l-57.9-14.6c-0.4-0.1-0.7,0-1,0.2c-0.3,0.2-0.5,0.5-0.6,0.8
	c-0.1,0.4,0,0.7,0.2,1c0.2,0.3,0.5,0.5,0.8,0.6L493.8,344.3z"/>
<path class="st7" d="M507,342.2l-8.6-23.4l-2.8,1l8.6,23.4L507,342.2z"/>
<path class="st7" d="M500.5,353.6c-4.3,0-7.8-3.5-7.8-7.8c0-4.3,3.5-7.8,7.8-7.8c4.3,0,7.8,3.5,7.8,7.8
	C508.3,350.1,504.8,353.6,500.5,353.6z"/>
<path class="st19" d="M500.5,350.7c-2.7,0-5-2.2-5-5s2.2-5,5-5c2.7,0,5,2.2,5,5S503.2,350.7,500.5,350.7z"/>
<path class="st25" d="M500.5,348.2c-1.3,0-2.4-1.1-2.4-2.4s1.1-2.4,2.4-2.4c1.3,0,2.4,1.1,2.4,2.4S501.8,348.2,500.5,348.2z"/>
<path class="st21" d="M511.9,269.4c0.2,0.2,0.3,0.3,0.5,0.4c0.1,0.1,0.2,0.2,0.3,0.3c0.1,0.1,0.3,0.2,0.4,0.3
	c0.3,0.2,0.6,0.4,0.9,0.6c0.4,0.2,0.7,0.4,1.2,0.6c0.5,0.2,0.9,0.4,1.4,0.6c0.5,0.2,1.1,0.4,1.7,0.5l0.4,0.1l0.5,0.1l1,0.2
	c0.3,0.1,0.7,0.1,1,0.2c0.3,0.1,0.7,0.1,1.1,0.2l1.1,0.1c0.2,0,0.4,0,0.6,0h1.8l1.2-0.1c0.4,0,0.9-0.1,1.3-0.1
	c0.4,0,0.9-0.1,1.3-0.2l1.3-0.3l1.3-0.4c1.9-0.6,3.7-1.3,5.4-2.3c1.7-1,3.3-2.3,4.7-3.7c0.3-0.3,0.7-0.7,1-1
	c0.3-0.3,0.6-0.7,0.9-1.1c0.3-0.4,0.5-0.8,0.8-1.1c0.3-0.4,0.5-0.7,0.7-1.1c0.2-0.4,0.4-0.8,0.6-1.1c0.2-0.4,0.4-0.8,0.5-1.1
	c0.1-0.2,0.2-0.4,0.3-0.6c0.1-0.2,0.2-0.4,0.2-0.6c0.1-0.3,0.2-0.7,0.3-1c-3.3-0.8-6.2-2.7-8.3-5.4c0,0.1-0.1,0.2-0.1,0.3
	c-0.1,0.2-0.2,0.4-0.3,0.7c-0.1,0.2-0.2,0.5-0.3,0.7c-0.1,0.3-0.2,0.5-0.4,0.7c-0.1,0.1-0.1,0.2-0.2,0.4l-0.2,0.4
	c-0.1,0.2-0.3,0.5-0.4,0.7c-0.1,0.2-0.3,0.5-0.4,0.8c-0.1,0.3-0.3,0.5-0.5,0.7c-0.1,0.3-0.3,0.5-0.5,0.8c-0.2,0.2-0.4,0.5-0.5,0.8
	c-0.2,0.3-0.4,0.5-0.6,0.8c-0.8,1-1.7,2-2.7,2.9c-1,0.9-2.1,1.7-3.2,2.5l-0.9,0.5l-0.9,0.5c-0.3,0.2-0.6,0.3-0.9,0.4
	c-0.3,0.2-0.6,0.3-0.9,0.4l-0.9,0.3c-0.3,0.1-0.6,0.2-0.9,0.3l-0.4,0.1L523,268l-0.9,0.2l-0.9,0.2c-0.3,0.1-0.6,0.1-0.8,0.1
	l-0.8,0.1c-0.1,0-0.3,0-0.4,0.1h-0.4c-0.5,0-1,0.1-1.5,0.1c-0.5,0-0.9,0-1.4,0s-0.8,0-1.2-0.1l-1-0.1h-0.4l-0.4,0
	c-0.2,0-0.4,0-0.6,0c-0.4,0-0.6,0.1-0.6,0.2C511.6,268.9,511.7,269.2,511.9,269.4z"/>
<path class="st21" d="M515.2,269.4c-0.4-0.8-1.2-1.5-2-1.8c-0.9-0.3-1.9-0.3-2.7,0c-0.9,0.3-1.6,1-2.1,1.8c-0.4,0.8-0.6,1.8-0.4,2.7
	c1.3,0.1,2.6-0.1,3.9-0.5C513.1,271.1,514.2,270.4,515.2,269.4z"/>
<path class="st20" d="M509.1,266.2c-1.1-0.5-2.2-0.8-3.4-0.8c-1.2,0-2.4,0.3-3.4,0.9c-0.6,0.3-1.1,0.7-1.5,1.3
	c-0.2,0.3-0.3,0.6-0.4,0.9c-0.1,0.3-0.1,0.7,0,1c1.6,0.1,3.3-0.1,4.8-0.6C506.6,268.2,508,267.3,509.1,266.2z"/>
<path class="st18" d="M436.1,326.1l46.8,11.5c0.2,0,0.3,0,0.5,0c0.2,0,0.3-0.1,0.4-0.2c0.1-0.1,0.3-0.2,0.3-0.3
	c0.1-0.1,0.2-0.3,0.2-0.4l16.6-68c8-25-2.4-26.6-18.5-30.6c-25.3-8-27.3,5-30.6,18.6l-16.6,67.9c0,0.2-0.1,0.3,0,0.5
	c0,0.2,0.1,0.3,0.2,0.4c0.1,0.1,0.2,0.3,0.3,0.4C435.8,326,435.9,326.1,436.1,326.1z"/>
<path class="st19" d="M435.6,327l47.8,11.7c0.2,0,0.4,0.1,0.6,0c0.2,0,0.4-0.1,0.5-0.2c0.2-0.1,0.3-0.2,0.4-0.4
	c0.1-0.2,0.2-0.3,0.2-0.5l19.3-78.8c1-4,0.3-8.1-1.8-11.6c-2.1-3.5-5.5-6-9.5-6.9l-20.9-5.1c-4-1-8.1-0.3-11.6,1.8
	c-3.5,2.1-6,5.5-6.9,9.5l-19.3,78.8c-0.1,0.4,0,0.8,0.2,1.1C435,326.7,435.3,326.9,435.6,327z M483.7,337.1l-47.6-11.7l19.3-78.8
	c0.9-3.5,3.1-6.6,6.2-8.5c3.1-1.9,6.9-2.5,10.4-1.6l20.9,5.1c3.5,0.9,6.6,3.1,8.5,6.2c1.9,3.1,2.5,6.9,1.6,10.4L483.7,337.1z"/>
<path class="st19" d="M459.7,332.3c0.1,0,0.2,0,0.3,0c0.1,0,0.2,0,0.3-0.1c0.1-0.1,0.2-0.1,0.2-0.2c0.1-0.1,0.1-0.2,0.1-0.3
	l22.8-93.1c0-0.1,0-0.2,0-0.3c0-0.1,0-0.2-0.1-0.3c-0.1-0.1-0.1-0.2-0.2-0.2c-0.1-0.1-0.2-0.1-0.3-0.1c-0.1,0-0.2,0-0.3,0
	c-0.1,0-0.2,0-0.3,0.1c-0.1,0.1-0.2,0.1-0.2,0.2c-0.1,0.1-0.1,0.2-0.1,0.3l-22.7,93.1c0,0.1,0,0.2,0,0.3c0,0.1,0,0.2,0.1,0.3
	c0,0.1,0.1,0.2,0.2,0.2C459.5,332.2,459.5,332.2,459.7,332.3L459.7,332.3z"/>
<path class="st19" d="M440.4,304.8l49.1,12c0.2,0.1,0.4,0,0.6-0.1c0.2-0.1,0.3-0.3,0.4-0.5c0.1-0.2,0-0.4-0.1-0.6
	c-0.1-0.2-0.3-0.3-0.5-0.4l-49.2-12c-0.1,0-0.2,0-0.3,0c-0.1,0-0.2,0-0.3,0.1c-0.1,0.1-0.2,0.1-0.2,0.2c-0.1,0.1-0.1,0.2-0.1,0.3
	c0,0.1,0,0.2,0,0.3c0,0.1,0,0.2,0.1,0.3c0.1,0.1,0.1,0.2,0.2,0.2C440.2,304.7,440.3,304.7,440.4,304.8L440.4,304.8z M451.8,258
	l49.2,12c0.1,0,0.2,0,0.3,0c0.1,0,0.2,0,0.3-0.1c0.1-0.1,0.2-0.1,0.2-0.2c0.1-0.1,0.1-0.2,0.1-0.3c0-0.1,0-0.2,0-0.3
	c0-0.1,0-0.2-0.1-0.3c-0.1-0.1-0.1-0.2-0.2-0.2c-0.1-0.1-0.2-0.1-0.3-0.1l-49.2-12c-0.1,0-0.2,0-0.3,0c-0.1,0-0.2,0.1-0.3,0.1
	c-0.1,0.1-0.2,0.1-0.2,0.2s-0.1,0.2-0.1,0.3c-0.1,0.2,0,0.4,0.1,0.6C451.4,257.9,451.5,258,451.8,258L451.8,258z M446.1,281.4
	l49.1,12c0.2,0.1,0.4,0,0.6-0.1c0.2-0.1,0.3-0.3,0.4-0.5c0.1-0.2,0-0.4-0.1-0.6c-0.1-0.2-0.3-0.3-0.5-0.4l-49.2-12
	c-0.1,0-0.2,0-0.3,0c-0.1,0-0.2,0-0.3,0.1c-0.1,0.1-0.2,0.1-0.2,0.2c-0.1,0.1-0.1,0.2-0.1,0.3c0,0.1,0,0.2,0,0.3
	c0,0.1,0,0.2,0.1,0.3c0.1,0.1,0.1,0.2,0.2,0.2C445.8,281.3,445.9,281.4,446.1,281.4L446.1,281.4z"/>
</svg>
