<svg version="1.1" xmlns="http://www.w3.org/2000/svg" xmlns:xlink="http://www.w3.org/1999/xlink" width="630" height="390" viewBox="0 0 630 390">
<style type="text/css">
	.st0{fill:#EAF1FC;}
	.st1{fill:#F8F8FF;}
	.st2{fill:#E3F4FF;}
	.st3{fill:#CDE4F7;}
	.st4{fill:#FFFFFF;}
	.st5{fill:#0F222C;}
	.st6{fill:#2C6292;}
	.st7{fill:#154774;}
	.st8{fill:#0B3052;}
	.st9{fill:#205381;}
	.st10{fill:#699FCF;}
	.st11{fill:#2F6494;}
	.st12{fill:#144674;}
	.st13{fill:#CFCCCD;}
	.st14{fill:#3A7FBC;}
	.st15{fill:#2F699D;}
	.st16{fill:#0C2F4F;}
	.st17{fill:#1D4259;}
	.st18{fill:#448DCE;}
	.st19{fill:#3270A7;}
	.st20{fill:#222846;}
	.st21{fill:#FFDA35;}
	.st22{fill:#0B2B46;}
	.st23{fill:#FF524F;}
	.st24{fill:#F2F2F2;}
	.st25{fill:#F19100;}
	.st26{fill:#F8C47A;}
	.st27{fill:#E19A54;}
	.st28{fill:#FFDF9A;}
	.st29{fill:#D38137;}
	.st30{fill:#E4E6E6;}
	.st31{fill:#E5B571;}
	.st32{fill:#CE8D4D;}
	.st33{fill:#ECCF8F;}
	.st34{fill:#C07632;}
	.st35{fill:#132C45;}
	.st36{fill:#FFDA36;}
	.st37{fill:#F18419;}
	.st38{fill:#F2F3F5;}
	.st39{fill:#E08F73;}
	.st40{fill:#F09976;}
	.st41{fill:#E8815F;}
	.st42{fill:#047487;}
	.st43{fill:#05616B;}
	.st44{fill:#02819F;}
	.st45{fill:#E9825F;}
	.st46{fill:#ADBF5B;}
	.st47{fill:#C8D540;}
	.st48{fill:#0682A0;}
	.st49{fill:#0A273A;}
	.st50{fill:#4FA52B;}
	.st51{fill:#081E2D;}
	.st52{fill:#FB446C;}
	.st53{fill:#035159;}
	.st54{fill:#AC5C15;}
	.st55{fill:#BD6618;}
	.st56{fill:#C8731C;}
	.st57{fill:#2D3A48;}
	.st58{fill:#233C45;}
</style>
<path class="st0" d="M314.5,385C140.8,385,0,362.6,0,335s140.8-50,314.5-50S629,307.4,629,335S488.1,385,314.5,385z"/>
<path class="st1" d="M557.8,318.9c37.7-79.1,58.5-230.3-23.2-280.4c-53.4-32.9-109.2,9.4-166.4,11.4c-44.9,1.5-88.2-34.2-128.6-44.4
	C133.6-21.4-33.3,48.1,40.1,318.9C223.5,318.3,374.4,319.4,557.8,318.9z"/>
<path class="st2" d="M40.9,105.1c6.8-10.4,11.7-17.5,29.8-17.5c10.7,0,28,14.7,38.6,13.3c7.5-1,14.8-7.5,21.9-4.8
	c3.5,1.3,5.7,5,6.3,8.9H40.9z M226.1,82.6c-9.1-4.1-18.2-8.2-27.3-12.2c-7.6-3.4-17.1-6.5-23.4-0.7c-3.9,3.7-6.4,10.5-11.5,10
	c-7.2-0.7-12-18.3-20.1-6.6c-2.8,4-1.9,8.6,0.5,12.4h86.6C229.6,84.2,227.8,83.3,226.1,82.6z M462.3,84.1
	c6.4-9.6,10.9-16.3,27.8-16.3c10,0,26.1,13.7,36,12.4c7-0.9,13.8-6.9,20.5-4.4c3.2,1.2,5.3,4.6,5.8,8.3H462.3z"/>
<path class="st3" d="M87.7,197.9c-0.1-0.9-0.3-1.8-0.7-2.6c-0.6-1.1-1.6-1.8-2.1-3c-0.5-1-0.5-2.3-0.5-3.5c-0.1-7.1-0.5-14.2-6-18.1
	c-1-0.6-2-1.1-2.8-2c-1.9-2.2-1.9-6-2.4-9.2c-1-6.1-4.4-13.1-9.5-11.9c-0.2,0.1-0.4,0.1-0.7,0.2c-5,1.8-9.7,7-9.9,14.4
	c0,1.5,0.1,3-0.2,4.4c-0.8,3.5-3.9,5.4-5.2,8.4c-1.7,3.8-3.1,8.7-4.3,12.8c-0.5,1.8-1,3.6-0.9,5.5c0.1,3.1,1.5,6,1.5,9.1
	c0,2.9-1.2,5.5-2,8.1c-1.8,5.8-0.8,11.5-0.6,17.5c0.3,5.5,0.6,11.1,1.4,16.6c1.2,7.4,3,14.9,6.6,21c3.4,5.9,8.5,10.6,14.2,11
	c0.3,0,0.6,0,0.9,0c0,0,23.5,2.7,23.8-55.1C88.4,213.5,89.1,206,87.7,197.9z M332,205.4c-0.2-1-0.4-2.1-0.8-3
	c-0.7-1.3-1.8-2.1-2.4-3.5c-0.6-1.2-0.6-2.7-0.6-4.1c-0.1-8.4-0.6-16.8-7-21.3c-1.1-0.7-2.3-1.3-3.2-2.4c-2.2-2.6-2.3-7-2.9-10.9
	c-1.2-7.2-5.2-15.4-11.1-14c-0.3,0.1-0.6,0.1-0.8,0.3c-5.9,2.1-11.5,8.3-11.7,16.9c-0.1,1.8,0.1,3.6-0.3,5.3c-1,4.2-4.6,6.3-6.1,9.9
	c-1.9,4.4-3.7,10.2-5,15.1c-0.6,2.1-1.1,4.3-1.1,6.5c0.1,3.7,1.8,7.1,1.8,10.8c0,3.4-1.4,6.5-2.4,9.6c-2.1,6.8-1,13.5-0.6,20.5
	c0.3,6.6,0.7,13,1.7,19.5c1.4,8.7,3.6,17.6,7.7,24.7c3.9,6.9,10,12.5,16.7,12.8c0.3,0,0.8,0.1,1.1,0c0,0,27.6,3.1,28-64.8
	C332.8,223.7,333.6,214.9,332,205.4z"/>
<path class="st4" d="M308,336h-5l1.6-104.4l0.8-2.6L308,336z"/>
<path class="st3" d="M572.5,155.6h-229c-1,0-2.1,0.4-2.8,1.2c-0.8,0.8-1.2,1.8-1.2,2.8v150.3c0,2.2,1.8,4,4,4h229c2.2,0,4-1.8,4-4
	V159.6c0-0.6-0.1-1-0.3-1.5c-0.2-0.5-0.5-0.9-0.9-1.3c-0.3-0.3-0.8-0.7-1.3-0.9C573.5,155.7,573,155.6,572.5,155.6z"/>
<path class="st4" d="M342,344.6h-4.9c-0.3,0-0.7-0.1-1-0.4c-0.3-0.3-0.4-0.6-0.4-1v-36.7c0-0.8,0.6-1.3,1.3-1.3h4.9
	c0.8,0,1.3,0.6,1.3,1.3v36.7C343.3,344,342.8,344.6,342,344.6z M356.9,344.5H352c-0.3,0-0.7-0.1-1-0.4c-0.3-0.3-0.4-0.6-0.4-1v-36.7
	c0-0.8,0.6-1.3,1.3-1.3h5c0.8,0,1.3,0.6,1.3,1.3v36.7C358.2,343.9,357.6,344.5,356.9,344.5z M372.7,344.6h-4.9c-0.3,0-0.7-0.1-1-0.4
	c-0.3-0.3-0.4-0.6-0.4-1v-36.7c0-0.8,0.6-1.3,1.3-1.3h4.9c0.8,0,1.3,0.6,1.3,1.3v36.7C374,344,373.4,344.6,372.7,344.6z
	 M387.5,344.5h-4.9c-0.3,0-0.7-0.1-1-0.4c-0.3-0.3-0.4-0.6-0.4-1v-36.7c0-0.8,0.6-1.3,1.3-1.3h4.9c0.8,0,1.3,0.6,1.3,1.3v36.7
	C388.9,343.9,388.3,344.5,387.5,344.5z M404.2,344.5h-4.9c-0.3,0-0.7-0.1-1-0.4c-0.3-0.3-0.4-0.6-0.4-1v-36.7c0-0.8,0.6-1.3,1.3-1.3
	h4.9c0.8,0,1.3,0.6,1.3,1.3v36.7C405.5,344,404.9,344.5,404.2,344.5z M419.1,344.5h-4.9c-0.3,0-0.7-0.1-1-0.4
	c-0.3-0.3-0.4-0.6-0.4-1v-36.7c0-0.8,0.6-1.3,1.3-1.3h4.9c0.8,0,1.3,0.6,1.3,1.3v36.7C420.4,343.8,419.8,344.5,419.1,344.5z"/>
<path class="st3" d="M440.7,324.3c5.5,0,10-1.2,10-2.8c0-1.5-4.5-2.8-10-2.8c-5.5,0-10,1.2-10,2.8
	C430.7,323.1,435.2,324.3,440.7,324.3z"/>
<path class="st3" d="M469.7,331.9c8.2,0,14.9-1.7,14.9-3.8s-6.6-3.8-14.9-3.8s-14.9,1.7-14.9,3.8S461.5,331.9,469.7,331.9z"/>
<path class="st3" d="M465.6,320.9c3.6,0,6.6-0.8,6.6-1.7c0-1-3-1.7-6.6-1.7c-3.6,0-6.6,0.8-6.6,1.7
	C459,320.1,461.9,320.9,465.6,320.9z"/>
<path class="st3" d="M432.7,336.1c8.4,0,15.2-1.5,15.2-3.5c0-1.9-6.8-3.5-15.2-3.5c-8.4,0-15.2,1.5-15.2,3.5
	C417.5,334.6,424.3,336.1,432.7,336.1z"/>
<path class="st3" d="M449,343.7c3.2,0,5.9-0.6,5.9-1.4c0-0.8-2.6-1.4-5.9-1.4c-3.2,0-5.9,0.6-5.9,1.4
	C443.1,343.1,445.7,343.7,449,343.7z"/>
<path class="st3" d="M439.6,354.1c6.3,0,11.4-1.4,11.4-3.1c0-1.7-5.1-3.1-11.4-3.1c-6.3,0-11.4,1.4-11.4,3.1
	C428.2,352.7,433.3,354.1,439.6,354.1z"/>
<path class="st0" d="M428.6,204.7h53.2v98.9h-53.2V204.7z"/>
<path class="st3" d="M433.4,209.5H477v94.1h-43.5V209.5z"/>
<path class="st0" d="M468.3,264.2c2.1,0,3.8-1.5,3.8-3.5c0-1.9-1.7-3.5-3.8-3.5s-3.8,1.5-3.8,3.5
	C464.5,262.6,466.2,264.2,468.3,264.2z"/>
<path class="st0" d="M425.1,303.6h59.4V314h-59.4V303.6z"/>
<path class="st4" d="M512.2,341.7h-4.9c-0.3,0-0.7-0.1-1-0.4c-0.3-0.3-0.4-0.6-0.4-1v-36.7c0-0.8,0.6-1.3,1.3-1.3h4.9
	c0.8,0,1.3,0.6,1.3,1.3v36.7C513.5,341.1,513,341.7,512.2,341.7z M527.1,341.6h-4.9c-0.3,0-0.7-0.1-1-0.4c-0.3-0.3-0.4-0.6-0.4-1
	v-36.7c0-0.8,0.6-1.3,1.3-1.3h4.9c0.8,0,1.3,0.6,1.3,1.3v36.7C528.4,341,527.8,341.6,527.1,341.6z M542.9,341.7H538
	c-0.3,0-0.7-0.1-1-0.4c-0.3-0.3-0.4-0.6-0.4-1v-36.7c0-0.8,0.6-1.3,1.3-1.3h4.9c0.8,0,1.3,0.6,1.3,1.3v36.7
	C544.2,341.1,543.6,341.7,542.9,341.7z M557.7,341.6h-4.9c-0.3,0-0.7-0.1-1-0.4c-0.3-0.3-0.4-0.6-0.4-1v-36.7c0-0.8,0.6-1.3,1.3-1.3
	h4.9c0.8,0,1.3,0.6,1.3,1.3v36.7C559.1,341,558.5,341.6,557.7,341.6z M574.4,341.6h-4.9c-0.3,0-0.7-0.1-1-0.4
	c-0.3-0.3-0.4-0.6-0.4-1v-36.7c0-0.8,0.6-1.3,1.3-1.3h4.9c0.8,0,1.3,0.6,1.3,1.3v36.7C575.7,341.1,575.1,341.6,574.4,341.6z
	 M589.3,341.5h-4.9c-0.3,0-0.7-0.1-1-0.4c-0.3-0.3-0.4-0.6-0.4-1v-36.7c0-0.8,0.6-1.3,1.3-1.3h4.9c0.8,0,1.3,0.6,1.3,1.3v36.7
	C590.6,340.9,589.9,341.5,589.3,341.5z"/>
<path class="st0" d="M335.4,157.5l117.9-63.7c1.2-0.6,2.6-0.6,3.9,0l121.3,63.7c3.8,2,2.4,7.7-1.9,7.7H337.3
	C333.1,165.3,331.6,159.5,335.4,157.5z"/>
<path class="st3" d="M340,164.9L456.4,103L576,164.9v6.6L340,173V164.9z"/>
<path class="st0" d="M348.4,205.4h51.1v46.3h-51.1V205.4z"/>
<path class="st3" d="M353.3,210.2h41.5v38h-41.5V210.2z"/>
<path class="st0" d="M503.2,204.7H555v47h-51.8V204.7z"/>
<path class="st3" d="M508.7,209.5h41.5v38h-41.5V209.5z"/>
<path class="st4" d="M373.3,210.2c0,0,1.4,24.3-20.7,21.2v-21.2H373.3z"/>
<path class="st4" d="M360,231c0,0,7.4,13.1,6.3,18.7h-13.7V231L360,231z"/>
<path class="st4" d="M529.5,209.5c0,0-1.4,24.3,20.7,21.2v-21.2H529.5z"/>
<path class="st4" d="M542.8,229.6c0,0-7.4,12.6-6.3,18h13.7v-17.9L542.8,229.6z"/>
<path class="st0" d="M455.5,163.9c8.8,0,15.9-7.1,15.9-15.9c0-8.8-7.1-15.9-15.9-15.9c-8.8,0-15.9,7.1-15.9,15.9
	C439.6,156.8,446.8,163.9,455.5,163.9z"/>
<path class="st3" d="M454.8,159.1c6.1,0,11.1-5,11.1-11.1c0-6.1-5-11.1-11.1-11.1c-6.1,0-11.1,5-11.1,11.1
	C443.8,154.1,448.7,159.1,454.8,159.1z"/>
<path class="st0" d="M453.5,136.2h3.5v24.2h-3.5V136.2z"/>
<path class="st0" d="M467.3,145.9v4.2h-24.2v-4.2H467.3z"/>
<path class="st0" d="M382.6,190.7h-12.2c-0.7,0-1.2-0.6-1.2-1.2v-4.1c0-0.7,0.6-1.2,1.2-1.2h12.2c0.7,0,1.2,0.6,1.2,1.2v4.1
	C383.8,190.1,383.3,190.7,382.6,190.7z M390.5,198.5h-12.2c-0.7,0-1.2-0.6-1.2-1.2v-4.1c0-0.7,0.6-1.2,1.2-1.2h12.2
	c0.7,0,1.2,0.6,1.2,1.2v4.1C391.8,197.9,391.2,198.5,390.5,198.5z M520.3,155.9h-12.2c-0.7,0-1.2-0.6-1.2-1.2v-4.1
	c0-0.7,0.6-1.2,1.2-1.2h12.2c0.7,0,1.2,0.6,1.2,1.2v4.1C521.5,155.3,521,155.9,520.3,155.9z M528.2,163.7H516
	c-0.7,0-1.2-0.6-1.2-1.2v-4.1c0-0.7,0.6-1.2,1.2-1.2h12.2c0.7,0,1.2,0.6,1.2,1.2v4.1C529.5,163.1,528.9,163.7,528.2,163.7z"/>
<path class="st5" d="M76.2,327.4c0-4.8,1.3-9.4,3.9-13.3c2.5-3.9,6.1-7.1,10.3-8.9c4.2-1.8,8.8-2.3,13.2-1.4
	c4.4,0.9,8.5,3.2,11.8,6.6c3.2,3.4,5.4,7.6,6.3,12.3c0.9,4.6,0.4,9.5-1.3,13.9c-1.7,4.4-4.7,8.2-8.4,10.8c-3.7,2.6-8.2,4.1-12.7,4.1
	c-6.1,0-11.9-2.6-16.2-7.1C78.6,339.9,76.2,333.8,76.2,327.4z M201.6,327.8c0-4.7,1.3-9.3,3.8-13.2c2.5-3.9,6-7,10.2-8.8
	c4.1-1.8,8.7-2.3,13.1-1.4c4.4,0.9,8.4,3.2,11.6,6.5c3.2,3.3,5.3,7.5,6.2,12.2c0.9,4.6,0.4,9.4-1.3,13.8s-4.6,8.1-8.4,10.7
	c-3.7,2.6-8.1,4-12.6,4c-6,0-11.8-2.6-16-7C204.1,340.1,201.7,334,201.6,327.8z"/>
<path class="st6" d="M297,205h-79v108h79V205z"/>
<path class="st7" d="M253.6,312.3c0,0.1,0.1,0.3,0.1,0.3s0.2,0.1,0.3,0.1l26.8,0.1c0.1,0,0.3-0.1,0.3-0.1s0.1-0.2,0.1-0.3l0.1-33.7
	c0-0.1-0.1-0.3-0.1-0.3c-0.1-0.1-0.2-0.1-0.3-0.1l-26.8-0.1c-0.1,0-0.3,0.1-0.3,0.1s-0.1,0.2-0.1,0.3L253.6,312.3z"/>
<path class="st8" d="M253.6,283.2v-4.6c0-0.1,0.1-0.3,0.1-0.3s0.2-0.1,0.3-0.1l26.8,0.1c0.1,0,0.3,0.1,0.3,0.1
	c0.1,0.1,0.1,0.2,0.1,0.3v4.6L253.6,283.2z"/>
<path class="st6" d="M256,296.4c0,2.3,0.7,4.5,1.9,6.4c1.2,1.9,3,3.4,5.2,4.3c2.1,0.9,4.4,1.1,6.7,0.7c2.2-0.4,4.3-1.5,5.9-3.2
	c1.6-1.6,2.7-3.7,3.2-5.9c0.5-2.2,0.2-4.6-0.6-6.7c-0.9-2.1-2.4-3.9-4.2-5.2c-1.9-1.2-4.1-1.9-6.4-1.9c-3,0-6,1.2-8.2,3.4
	C257.1,290.3,256,293.3,256,296.4z"/>
<path class="st9" d="M258.7,296.4c0,1.7,0.5,3.5,1.5,4.8c1,1.4,2.4,2.6,3.9,3.3c1.6,0.7,3.4,0.8,5,0.5c1.7-0.3,3.2-1.2,4.5-2.4
	c1.2-1.2,2.1-2.8,2.4-4.5c0.3-1.7,0.2-3.5-0.5-5c-0.7-1.6-1.8-3-3.2-3.9c-1.5-1-3.1-1.5-4.8-1.5c-1.2,0-2.3,0.2-3.3,0.6
	c-1,0.4-2,1.1-2.8,1.9c-0.8,0.8-1.5,1.8-1.9,2.8C259,294.1,258.7,295.2,258.7,296.4z"/>
<path class="st10" d="M260.9,296.4c0,1.3,0.3,2.6,1.1,3.7c0.8,1.1,1.7,1.9,3,2.4c1.2,0.5,2.5,0.6,3.8,0.4c1.2-0.3,2.4-0.9,3.4-1.8
	c1-0.9,1.5-2.1,1.8-3.4c0.3-1.2,0.1-2.6-0.3-3.8c-0.5-1.2-1.3-2.2-2.4-3c-1.1-0.7-2.4-1.1-3.7-1.1c-0.8,0-1.7,0.1-2.5,0.5
	c-0.8,0.3-1.5,0.8-2.1,1.4c-0.6,0.6-1.1,1.3-1.5,2.1C261.1,294.6,260.9,295.5,260.9,296.4z"/>
<path class="st11" d="M265.2,281c0,0.3,0.1,0.8,0.3,1c0.2,0.3,0.5,0.6,0.8,0.7c0.3,0.1,0.8,0.2,1.1,0.1c0.3-0.1,0.7-0.3,1-0.5
	c0.3-0.3,0.4-0.6,0.6-1c0.1-0.3,0.1-0.8-0.1-1.1c-0.1-0.3-0.4-0.6-0.7-0.8c-0.3-0.2-0.7-0.3-1-0.3c-0.3,0-0.5,0.1-0.8,0.1
	c-0.2,0.1-0.4,0.2-0.6,0.4c-0.2,0.2-0.3,0.4-0.4,0.6C265.2,280.5,265.2,280.7,265.2,281z"/>
<path class="st6" d="M265.5,280.6c0,0.3,0.1,0.8,0.3,1c0.2,0.3,0.5,0.6,0.8,0.7c0.3,0.1,0.8,0.2,1.1,0.1c0.3-0.1,0.7-0.3,1-0.5
	c0.3-0.3,0.4-0.6,0.6-1c0.1-0.3,0.1-0.8-0.1-1.1c-0.1-0.3-0.4-0.6-0.7-0.8c-0.3-0.2-0.7-0.3-1-0.3c-0.3,0-0.5,0.1-0.8,0.1
	c-0.2,0.1-0.4,0.2-0.6,0.4c-0.2,0.2-0.3,0.4-0.4,0.6C265.6,280.1,265.5,280.4,265.5,280.6z"/>
<path d="M268.1,279.6c0,0.1,0,0.1,0.1,0.1c0.1,0,0.1,0.1,0.1,0.1s0.1,0,0.1,0c0.1,0,0.1-0.1,0.1-0.1c0.1-0.1,0.1-0.1,0.1-0.1
	s0-0.1,0-0.1c0-0.1-0.1-0.1-0.1-0.1c-0.1,0-0.1-0.1-0.1-0.1s-0.1,0-0.2,0.1C268.1,279.5,268.1,279.5,268.1,279.6z"/>
<path class="st6" d="M280.3,279.3h-8.4v1.5h8.4V279.3z"/>
<path class="st12" d="M279.3,279.5h-6.4v1h6.4V279.5z"/>
<path class="st13" d="M261.6,282.1c0,0.1,0.1,0.3,0.1,0.4c0.1,0.1,0.2,0.2,0.3,0.3s0.3,0.1,0.4,0.1s0.3-0.1,0.3-0.2
	c0.1-0.1,0.1-0.2,0.2-0.3c0-0.1,0-0.3-0.1-0.4s-0.1-0.2-0.3-0.3c-0.1-0.1-0.3-0.1-0.4-0.1c-0.2,0-0.3,0.1-0.5,0.2
	C261.7,281.8,261.6,281.9,261.6,282.1z M258.9,282.1c0,0.1,0.1,0.3,0.1,0.4c0.1,0.1,0.2,0.2,0.3,0.3c0.1,0.1,0.3,0.1,0.4,0.1
	c0.1,0,0.3-0.1,0.3-0.2c0.1-0.1,0.1-0.2,0.2-0.3c0-0.1,0-0.3-0.1-0.4c-0.1-0.1-0.1-0.2-0.3-0.3c-0.1-0.1-0.3-0.1-0.4-0.1
	c-0.2,0-0.3,0.1-0.5,0.2C258.9,281.8,258.9,281.9,258.9,282.1z M256.1,282.1c0,0.1,0.1,0.3,0.1,0.4c0.1,0.1,0.2,0.2,0.3,0.3
	c0.1,0.1,0.3,0.1,0.4,0.1c0.1,0,0.3-0.1,0.3-0.2c0.1-0.1,0.1-0.2,0.2-0.3c0-0.1,0-0.3-0.1-0.4s-0.1-0.2-0.3-0.3
	c-0.1-0.1-0.3-0.1-0.4-0.1c-0.1,0-0.2,0-0.3,0.1s-0.1,0.1-0.2,0.1c-0.1,0.1-0.1,0.1-0.1,0.2S256.1,282,256.1,282.1z"/>
<path class="st6" d="M261.8,282c0,0.1,0.1,0.3,0.1,0.4c0.1,0.1,0.2,0.2,0.3,0.3s0.3,0.1,0.4,0.1s0.3-0.1,0.3-0.2
	c0.1-0.1,0.1-0.2,0.2-0.3c0.1-0.1,0-0.3-0.1-0.4c-0.1-0.1-0.1-0.2-0.3-0.3c-0.1-0.1-0.3-0.1-0.4-0.1c-0.1,0-0.2,0-0.3,0.1
	c-0.1,0.1-0.1,0.1-0.2,0.1s-0.1,0.1-0.1,0.2C261.8,281.8,261.8,281.8,261.8,282z M259.1,281.9c0,0.1,0.1,0.3,0.1,0.4
	c0.1,0.1,0.2,0.2,0.3,0.3c0.1,0.1,0.3,0.1,0.4,0.1s0.3-0.1,0.3-0.2c0.1-0.1,0.1-0.2,0.2-0.3c0-0.1,0-0.3-0.1-0.4
	c-0.1-0.1-0.1-0.2-0.3-0.3c-0.1-0.1-0.3-0.1-0.4-0.1c-0.2,0-0.3,0.1-0.5,0.2C259.1,281.6,259.1,281.8,259.1,281.9z M256.3,281.9
	c0,0.1,0.1,0.3,0.1,0.4s0.2,0.2,0.3,0.3c0.1,0.1,0.3,0.1,0.4,0.1c0.1,0,0.3-0.1,0.3-0.2c0.1-0.1,0.1-0.2,0.2-0.3
	c0-0.1,0-0.3-0.1-0.4c-0.1-0.1-0.1-0.2-0.3-0.3c-0.1-0.1-0.3-0.1-0.4-0.1c-0.2,0-0.3,0.1-0.5,0.2
	C256.4,281.6,256.3,281.8,256.3,281.9z M257.9,292.8c0.6-0.1,1.1-0.2,1.7-0.1c0.6,0.1,1.1,0.3,1.5,0.7c0.5,0.3,0.8,0.8,1.1,1.3
	c0.3,0.5,0.4,1.1,0.4,1.7c0,0.6-0.1,1.1-0.4,1.7c-0.3,0.5-0.6,1-1.1,1.3c-0.5,0.3-1,0.6-1.6,0.7c-0.6,0.1-1.2,0.1-1.7-0.1
	L257.9,292.8z"/>
<path class="st14" d="M220.1,275.1l8.6,0.3v37.5l-8.6,0.1V275.1z"/>
<path class="st15" d="M261.2,275.3h-32.6v37.2h32.6V275.3z"/>
<path class="st16" d="M256.4,287.4h-22.7c-0.6,0-1,0.5-1,1l-0.1,20.1c0,0.6,0.4,1,0.9,1h22.7c0.6,0,1-0.5,1-1l0.1-20.1
	C257.4,287.8,256.9,287.4,256.4,287.4z"/>
<path class="st7" d="M255.6,288.2h-21.1c-0.5,0-0.9,0.3-0.9,0.6v19c0,0.3,0.4,0.6,0.9,0.6h21.1c0.5,0,0.9-0.3,0.9-0.6v-19
	C256.5,288.5,256,288.2,255.6,288.2z"/>
<path class="st7" d="M255.9,278.1h-5.2c-1.3,0-2.3,1.1-2.3,2.5s1,2.5,2.3,2.5h5.2c1.3,0,2.4-1.1,2.4-2.5
	C258.2,279.3,257.1,278.1,255.9,278.1z"/>
<path class="st14" d="M255.3,282.9c-1.1,0-1.9-0.9-1.9-2.1c0-1.2,0.9-2.1,1.9-2.1c1.1,0,1.9,0.9,1.9,2.1
	C257.4,281.9,256.5,282.9,255.3,282.9z"/>
<path class="st17" d="M220,312.7H13.6c-2,0-3.6,1.9-3.6,4.2v9.1c0,2.3,1.6,4.2,3.6,4.2H220V312.7z"/>
<path class="st18" d="M15.5,312.7h92.9v-80.4H61.8c-4.5,0-8.8,1.2-12.9,3.4c-3.9,2.2-7.3,5.5-9.8,9.3l-19,29.7
	c-3,4.8-4.6,10.4-4.6,16.2V312.7z"/>
<path class="st5" d="M86.9,279.8v-38.6H62.4c-3.1,0-6.2,0.8-8.9,2.4c-2.8,1.5-5.1,3.7-6.8,6.4l-19.2,29.8H86.9z"/>
<path class="st19" d="M106.9,232.3h-8.7v80.4h8.7V232.3z"/>
<path class="st20" d="M76.7,286.2H85c0.5,0,1-0.2,1.3-0.6c0.3-0.3,0.6-0.9,0.6-1.4v-1.2H74.8v1.2c0,0.6,0.2,1,0.6,1.4
	C75.7,286,76.2,286.2,76.7,286.2z"/>
<path class="st21" d="M22.7,302.4c0-2-0.8-3.9-2.1-5.4c-1.4-1.5-3.2-2.2-5.1-2.2v15.3c1.9,0,3.8-0.8,5.2-2.3
	C22,306.5,22.7,304.4,22.7,302.4z"/>
<path class="st22" d="M296.8,312.7h-76.7c-0.6,0-1.3,0.1-1.9,0.4c-0.6,0.3-1.2,0.6-1.6,1.1c-0.5,0.5-0.8,1-1,1.7
	c-0.2,0.6-0.3,1.3-0.3,2v7.1c0,1.4,0.5,2.7,1.5,3.7c0.9,1,2.1,1.5,3.5,1.5h76.7c1.3,0,2.6-0.6,3.5-1.5c0.9-1,1.5-2.3,1.5-3.7v-7.1
	c0-1.4-0.6-2.7-1.5-3.7C299.4,313.2,298.1,312.7,296.8,312.7z"/>
<path class="st23" d="M228.9,321.4c0-0.8-0.2-1.5-0.6-2.1c-0.4-0.6-1-1.1-1.6-1.4c-0.6-0.3-1.4-0.3-2.1-0.2c-0.7,0.1-1.3,0.5-1.8,1
	c-0.5,0.6-0.8,1.2-1,1.9c-0.1,0.7-0.1,1.5,0.2,2.1c0.3,0.7,0.7,1.2,1.3,1.7c0.6,0.4,1.2,0.6,1.9,0.6c0.5,0,0.9-0.1,1.4-0.3
	c0.4-0.2,0.8-0.5,1.2-0.8c0.3-0.3,0.6-0.8,0.8-1.2C228.9,322.4,228.9,321.9,228.9,321.4z"/>
<path class="st21" d="M235,321.4c0-0.5-0.2-1-0.5-1.3c-0.3-0.3-0.8-0.6-1.2-0.6c-0.5,0-0.9,0.2-1.2,0.6c-0.3,0.3-0.6,0.8-0.6,1.3
	c0,0.2,0.1,0.5,0.1,0.7s0.2,0.4,0.3,0.6c0.1,0.1,0.3,0.3,0.6,0.4c0.2,0.1,0.4,0.1,0.7,0.1h0.1c0.4,0,0.9-0.1,1.2-0.4
	c0.3-0.3,0.6-0.8,0.6-1.2V321.4z"/>
<path class="st23" d="M290.1,321.4c0,0.8,0.2,1.5,0.6,2.1c0.4,0.6,1,1.1,1.6,1.4c0.6,0.3,1.4,0.3,2.1,0.2c0.7-0.1,1.3-0.5,1.8-1
	c0.5-0.6,0.8-1.2,1-1.9c0.1-0.7,0.1-1.5-0.2-2.1c-0.3-0.7-0.7-1.2-1.3-1.7c-0.6-0.4-1.2-0.6-1.9-0.6c-1,0-1.8,0.4-2.5,1.1
	C290.4,319.5,290.1,320.4,290.1,321.4z"/>
<path class="st21" d="M284,321.4c0,0.3,0.1,0.7,0.3,1c0.2,0.3,0.5,0.6,0.8,0.7c0.3,0.1,0.7,0.2,1,0.1c0.3-0.1,0.6-0.3,0.9-0.5
	c0.3-0.3,0.4-0.6,0.5-0.9c0.1-0.3,0-0.7-0.1-1c-0.1-0.3-0.3-0.6-0.6-0.8c-0.3-0.2-0.6-0.3-1-0.3c-0.4,0-0.9,0.1-1.2,0.5
	C284.2,320.5,284.1,320.9,284,321.4L284,321.4z"/>
<path class="st19" d="M297,205h-78v5h78V205z"/>
<path class="st24" d="M98.1,295.4l-38.6,12.9c0,0,3.8,2.7,5,4.4h33.5V295.4z"/>
<path class="st25" d="M59.5,308.3l38.6-12.9v-8.9l-45.4,18.9C55.2,306,57.5,306.9,59.5,308.3z"/>
<path class="st18" d="M220.1,205H106.9v107.7h113.2V205z"/>
<path class="st24" d="M220.1,291l-113.2,3.4v18.3h113.2V291z"/>
<path class="st5" d="M170.2,304.7c6.4,0,12.6,2.7,17.1,7.5c4.6,4.8,7.1,11.2,7.1,18H146c0-3.3,0.6-6.6,1.8-9.7
	c1.2-3.1,3-5.9,5.3-8.2c2.2-2.4,4.9-4.2,7.8-5.5C163.7,305.4,166.9,304.8,170.2,304.7L170.2,304.7L170.2,304.7z"/>
<path class="st5" d="M173.3,308.6c5.3,0.1,10.2,2.4,14,6.2c3.7,3.9,5.9,9.1,6,14.6c0.1,5.5-1.7,10.9-5.3,14.9
	c-3.5,4.1-8.4,6.6-13.6,7.1h-6.8v-42.9L173.3,308.6L173.3,308.6L173.3,308.6z"/>
<path class="st22" d="M148.8,330c0-4.2,1.2-8.4,3.5-11.9c2.2-3.5,5.5-6.3,9.2-7.9c3.7-1.6,7.8-2.1,11.8-1.2
	c3.9,0.8,7.6,2.8,10.4,5.9c2.8,3,4.8,6.8,5.6,11c0.8,4.1,0.4,8.4-1.2,12.4c-1.5,3.9-4.1,7.3-7.5,9.6c-3.4,2.4-7.3,3.6-11.3,3.6
	c-5.4,0-10.6-2.3-14.4-6.3C151,341.2,148.8,335.7,148.8,330z"/>
<path class="st24" d="M169.2,340.5c-5.5,0-10-4.7-10-10.5c0-5.8,4.5-10.5,10-10.5c5.5,0,10,4.7,10,10.5
	C179.2,335.8,174.7,340.5,169.2,340.5z"/>
<path class="st25" d="M106.9,294.3l113.2-3.4v-11l-113.3,5.4L106.9,294.3z"/>
<path class="st5" d="M47,304.7c6.4,0,12.6,2.7,17.1,7.5s7.1,11.2,7.1,18H22.8c0-3.3,0.6-6.6,1.8-9.7c1.2-3.1,3-5.9,5.3-8.2
	c2.2-2.4,4.9-4.2,7.8-5.5S43.7,304.8,47,304.7L47,304.7L47,304.7z"/>
<path class="st5" d="M50.2,308.6c5.3,0.1,10.2,2.4,14,6.2c3.7,3.9,5.9,9.1,6,14.6c0.1,5.5-1.7,10.9-5.3,14.9
	c-3.5,4.1-8.4,6.6-13.6,7.1h-6.8v-42.9L50.2,308.6L50.2,308.6z"/>
<path class="st22" d="M25.7,330c0-4.2,1.2-8.4,3.5-11.9c2.2-3.5,5.5-6.3,9.2-7.9c3.7-1.6,7.8-2.1,11.8-1.2c3.9,0.8,7.6,2.8,10.4,5.9
	c2.8,3,4.8,6.8,5.6,11c0.8,4.1,0.4,8.4-1.2,12.4c-1.5,3.9-4.1,7.3-7.5,9.6c-3.4,2.4-7.3,3.6-11.3,3.6c-5.4,0-10.6-2.3-14.4-6.3
	C27.8,341.2,25.7,335.7,25.7,330z"/>
<path class="st24" d="M46,340.5c-5.5,0-10-4.7-10-10.5c0-5.8,4.5-10.5,10-10.5c5.5,0,10,4.7,10,10.5C56,335.8,51.5,340.5,46,340.5z"
	/>
<path class="st26" d="M401.7,318.7h-25.1v25.1h25.1V318.7z"/>
<path class="st27" d="M364,314.5l12.6,4.2v25.1l-12.6-4.2V314.5z"/>
<path class="st28" d="M401.7,318.7l-12.6-4.2H364l12.6,4.2H401.7z"/>
<path class="st29" d="M372.7,335.5v7l-3.7-1.2v-7.1L372.7,335.5z M372.7,317.4v7.1l-3.7-1.2v-7.1L372.7,317.4z"/>
<path class="st27" d="M394.1,316.1l0.5,0.1l0.8,0.3l2.6,0.8h-25.3l-3.7-1.2H394.1L394.1,316.1z"/>
<path class="st30" d="M386.1,320.3h-8.5v3.7h8.5V320.3z"/>
<path class="st31" d="M401.9,297.6h-21.5v21.5h21.5V297.6z"/>
<path class="st32" d="M369.6,294l10.8,3.6v21.5l-10.8-3.6V294z"/>
<path class="st33" d="M401.9,297.6l-10.8-3.6h-21.5l10.8,3.6H401.9z"/>
<path class="st34" d="M377.1,312v6l-3.2-1v-6L377.1,312z M377.1,296.5v6l-3.2-1v-6L377.1,296.5z"/>
<path class="st32" d="M395.4,295.5l0.4,0.1l0.7,0.2l2.3,0.7h-21.6l-3.2-1.1L395.4,295.5L395.4,295.5z"/>
<path class="st30" d="M388.6,299h-7.3v3.2h7.3V299z"/>
<path class="st26" d="M441.5,315.3h-34.7V350h34.7V315.3z"/>
<path class="st27" d="M389.4,309.5l17.4,5.8V350l-17.4-5.8V309.5z"/>
<path class="st28" d="M441.5,315.3l-17.4-5.8h-34.7l17.4,5.8H441.5z"/>
<path class="st29" d="M401.5,338.5v9.7l-5.2-1.7v-9.7L401.5,338.5z M401.5,313.5v9.7l-5.2-1.7v-9.7L401.5,313.5z"/>
<path class="st27" d="M431,311.8l0.7,0.2l1.1,0.4l3.6,1.1h-34.9l-5.2-1.7H431z"/>
<path class="st30" d="M420,317.5h-11.8v5.1H420V317.5z"/>
<path class="st31" d="M435,286.1h-27.4v27.4H435V286.1z"/>
<path class="st32" d="M393.9,281.5l13.7,4.6v27.4l-13.7-4.5V281.5z"/>
<path class="st33" d="M435,286.1l-13.7-4.6h-27.4l13.7,4.6H435z"/>
<path class="st34" d="M403.4,304.4v7.6l-4.1-1.3v-7.7L403.4,304.4z M403.4,284.7v7.6l-4.1-1.3v-7.7L403.4,284.7z"/>
<path class="st32" d="M426.7,283.3l0.6,0.2l0.8,0.3l2.9,0.9h-27.6l-4.1-1.4H426.7z"/>
<path class="st30" d="M418.1,287.8h-9.3v4h9.3V287.8z"/>
<path class="st35" d="M433.4,279.2c0.1,0,0.3-0.1,0.3-0.3v-3.1c0-0.1-0.1-0.3-0.2-0.3c-0.1,0-0.3,0.1-0.3,0.2v3.1
	C433.2,279,433.3,279.2,433.4,279.2L433.4,279.2z"/>
<path class="st35" d="M441.7,278.3l0-2.5l-2.8,0l0,2.5L441.7,278.3z"/>
<path class="st36" d="M436.6,261.7h7.1c0,4,3.4,10.8,9.2,14.1l-12.8,0l-12.8,0C433.3,272.5,436.6,265.7,436.6,261.7L436.6,261.7z"/>
<path class="st37" d="M437.3,282.7c2.1-1.7,1-2.6-0.8-2.6c-0.8,0-0.9-1.8,0-1.8h7.4c0.8,0,0.9,1.8,0,1.8c-1.7,0-2.9,1-0.7,2.6
	s3.9,3.4,3.9,5.8c0,2.4-1.3,4.6-4.2,4.6h-5.2c-2.9,0-4.2-2.1-4.2-4.6S435.2,284.4,437.3,282.7L437.3,282.7z"/>
<path class="st38" d="M433.4,281.3c-0.7,0-1.2-0.5-1.2-1.2s0.5-1.2,1.2-1.2s1.2,0.5,1.2,1.2S434.1,281.3,433.4,281.3z"/>
<path class="st35" d="M433.1,296.5h-0.3c-0.9,0-1.7-0.8-1.7-1.7c0-0.9,0.8-1.7,1.7-1.7l13.8,0c0.9,0,1.7,0.8,1.7,1.7
	s-0.8,1.7-1.7,1.7h-0.3l5.5,55.1l-1.3,0.1l-0.9-9l-9.5,0v8.9h-1.3l0-8.9l-9.5,0l-1,9l-1.2-0.1L433.1,296.5z M429.8,339.5l9.1,0
	l0.1-27.6h-6.3L429.8,339.5L429.8,339.5z M432.9,310.6h6.2l0-14.1h-4.7L432.9,310.6L432.9,310.6z M440.2,341.4l9.3,0l-0.1-0.6
	l-9.3,0V341.4z M440.2,339.5l9.1,0l-2.8-27.6h-6.3L440.2,339.5z M440.3,310.7h6.2l-1.4-14.1h-4.7L440.3,310.7z M438.9,341.4v-0.6
	l-9.3,0l-0.1,0.6L438.9,341.4z"/>
<path class="st39" d="M321.6,267.3c0.3-0.1,0.6,0.5,1,1.5c0.2,0.5,0.4,1,0.8,1.7c0.3,0.7,0.6,1.4,0.9,2.2c0.3,0.8,0.8,1.6,1.2,2.4
	c0.3,0.3,0.6,0.8,0.8,1.1c0.3,0.3,0.6,0.7,1,1c0.3,0.3,0.7,0.6,1.1,0.8c0.3,0.3,0.8,0.5,1.2,0.6c0.4,0.2,0.8,0.3,1.2,0.4
	c0.1,0,0.2,0.1,0.3,0.1l0.3,0.1c0.2,0,0.4,0,0.6,0c0.9,0,1.9-0.1,2.8-0.4c0.5-0.1,0.9-0.3,1.4-0.5c0.2-0.1,0.4-0.2,0.6-0.3
	c0.2-0.1,0.4-0.2,0.6-0.3c0.4-0.2,0.8-0.4,1.2-0.6c0.4-0.2,0.8-0.5,1.1-0.8c0.8-0.5,1.5-1,2.1-1.5c0.6-0.5,1.2-0.9,1.9-1.2
	c0.5-0.3,1-0.7,1.7-1c0.4-0.2,0.9-0.3,1.3-0.4c0.3-0.1,0.7,0,1,0.2c0.3,0.2,0.5,0.6,0.6,0.9c0.1,0.5,0.1,1,0,1.5
	c-0.1,0.7-0.3,1.4-0.6,2c-0.3,0.8-0.8,1.7-1.3,2.4c-0.6,1-1.4,1.8-2.2,2.6c-0.5,0.5-1,0.9-1.5,1.2c-0.6,0.4-1.2,0.8-1.8,1.2
	c-0.3,0.2-0.6,0.3-1,0.5c-0.3,0.1-0.7,0.3-1,0.4c-0.8,0.3-1.5,0.5-2.3,0.7c-1.7,0.4-3.5,0.4-5.3,0.1c-0.5-0.1-0.9-0.2-1.4-0.3
	l-0.6-0.2c-0.2-0.1-0.4-0.1-0.6-0.3c-0.8-0.3-1.6-0.8-2.4-1.2c-0.7-0.5-1.3-1-1.9-1.7c-0.6-0.6-1-1.2-1.4-1.8
	c-0.4-0.6-0.7-1.2-1-1.9c-0.3-0.6-0.5-1.2-0.6-1.8c-0.3-1-0.5-2.1-0.6-3.3c-0.1-0.9-0.1-1.7-0.1-2.6c0-0.6,0.1-1.2,0.1-1.9
	C321.1,268,321.3,267.3,321.6,267.3z"/>
<path class="st4" d="M336.3,281.3c-0.3,5.4-0.3,10.7,0,16.1c5.1,1.7,10.6,2.1,15.9,1.3c0.3-5.5,0.7-10.9,0.8-16.4
	c0-2.9-0.1-5.8-0.9-8.5c-0.6-2.5-2.1-4.7-4.1-6.3c-0.2-0.1-0.5-0.3-0.8-0.5c-1.2,1-3.7,1.4-5.1,0.7c-0.8,0.5-1.4,1.1-2,1.8
	c-1,1.2-1.9,2.7-2.4,4.3C336.9,276.3,336.4,278.8,336.3,281.3z"/>
<path class="st40" d="M340,269.5c1.4,0.3,2.8,0.3,4.1,0c0.8-0.2,1.5-0.5,2.1-0.8c0.6-0.3,1-0.6,1.5-1l0.1-0.3v-0.1l-0.1-0.5
	c-0.3-1.5-0.5-3-0.7-4.6c-0.2-1.4-0.4-2.8-0.6-4.2c-1.6,0.8-3.1,1.7-4.6,2.8c0,1-0.1,1.9-0.1,2.8c-0.1,0.8-0.1,1.6-0.3,2.4
	c-0.1,0.4-0.1,0.9-0.2,1.3c-0.1,0.4-0.1,0.8-0.2,1.2C340.5,268.9,340.3,269.3,340,269.5z"/>
<path class="st41" d="M341.4,266.1c1.7-1.5,3.5-2.8,5.5-3.8c-0.2-1.5-0.4-2.8-0.6-4.2c-1.6,0.8-3.1,1.7-4.6,2.8c0,1-0.1,1.9-0.1,2.8
	C341.6,264.5,341.4,265.3,341.4,266.1z"/>
<path class="st22" d="M371,345.2c0,0,0,3.8-3.4,3.7l-0.6,13.5l9.3-16L371,345.2z"/>
<path class="st4" d="M369.4,354.8c0-0.1-0.1-0.1-0.1-0.2s-0.1-0.1-0.2-0.1c-0.8,0.1-1.5,0.3-2.2,0.6c-0.1,0.1-0.1,0.1-0.1,0.2
	c0,0.1,0,0.1,0,0.2l0.1,0.1l0.1,0.1c0.1,0,0.1,0,0.2,0c0.6-0.3,1.3-0.5,1.9-0.6c0.1,0,0.1,0,0.1-0.1c0.1,0,0.1-0.1,0.1-0.1
	C369.4,354.9,369.4,354.8,369.4,354.8z M369.6,353.1c0-0.1,0-0.1,0-0.1s-0.1-0.1-0.1-0.1l-0.1-0.1c-0.1,0-0.1,0-0.1,0
	c-0.8,0.1-1.5,0.3-2.2,0.6c-0.1,0-0.1,0.1-0.1,0.1s-0.1,0.1-0.1,0.1s0,0.1,0,0.2l0.1,0.1l0.1,0.1c0.1,0,0.1,0,0.1,0s0.1,0,0.1,0
	c0.6-0.3,1.3-0.5,1.9-0.6c0.1,0,0.1,0,0.1-0.1c0.1,0,0.1-0.1,0.1-0.1C369.6,353.2,369.6,353.1,369.6,353.1z M369.7,351.4
	c0-0.1,0-0.1,0-0.1l-0.1-0.1c-0.1-0.1-0.1-0.1-0.2-0.1c-0.8,0.1-1.5,0.3-2.2,0.6c-0.1,0.1-0.1,0.1-0.1,0.2s0,0.1,0,0.2
	c0.1,0.1,0.1,0.1,0.1,0.1s0.1,0,0.2,0c0.6-0.3,1.3-0.5,1.9-0.6c0.1,0,0.1,0,0.1-0.1c0.1,0,0.1-0.1,0.1-0.1S369.7,351.4,369.7,351.4z
	 M368.7,362.8c0,0.1-0.1,0.1-0.1,0.1c-0.1,0.1-0.1,0.1-0.1,0.1c-0.1,0-0.1,0-0.2,0s-0.1,0-0.2-0.1l-1-0.6l9.3-16l1,0.6
	c0.1,0,0.1,0.1,0.1,0.1s0.1,0.1,0.1,0.1c0,0.1,0,0.1,0,0.2s0,0.1-0.1,0.2L368.7,362.8z"/>
<path class="st22" d="M333.8,359c0,0-3.3,1.7-4.8-1.3l-12.2,5.7l18.5,0.8L333.8,359z"/>
<path class="st4" d="M324.2,362.1c0.1,0,0.1,0.1,0.1,0.1s0.1,0,0.1-0.1l0.1-0.1c0,0,0.1-0.1,0.1-0.1s0-0.1,0-0.1s0-0.1-0.1-0.1
	c-0.4-0.6-1-1.2-1.5-1.7c-0.1-0.1-0.1-0.1-0.2-0.1c-0.1,0-0.1,0.1-0.2,0.1c0,0,0,0.1-0.1,0.1c0,0.1,0,0.1,0,0.1c0,0.1,0,0.1,0.1,0.1
	l0.1,0.1c0.6,0.4,1,0.9,1.4,1.5C324.2,362,324.2,362,324.2,362.1z M325.8,361.4c0.1,0,0.1,0.1,0.1,0.1s0.1,0,0.1-0.1l0.1-0.1
	c0,0,0-0.1,0.1-0.1c0-0.1,0-0.1,0-0.1s0-0.1-0.1-0.1c-0.4-0.6-1-1.2-1.5-1.7c0,0-0.1-0.1-0.1-0.1c-0.1,0-0.1,0-0.1,0s-0.1,0-0.1,0.1
	c-0.1,0-0.1,0.1-0.1,0.1c-0.1,0.1-0.1,0.1-0.1,0.2s0.1,0.1,0.1,0.2c0.6,0.4,1,0.9,1.4,1.5C325.7,361.3,325.7,361.4,325.8,361.4z
	 M327.3,360.7c0.1,0,0.1,0,0.2,0s0.1-0.1,0.1-0.1c0.1-0.1,0.1-0.1,0.1-0.1c0-0.1,0-0.1-0.1-0.2c-0.4-0.6-1-1.2-1.5-1.7
	c-0.1-0.1-0.1-0.1-0.2-0.1s-0.1,0.1-0.2,0.1l-0.1,0.1c0,0.1,0,0.1,0,0.1c0,0.1,0.1,0.1,0.1,0.2c0.6,0.4,1,0.9,1.4,1.5
	C327.2,360.6,327.3,360.7,327.3,360.7z M317,365c-0.1-0.1-0.3-0.2-0.3-0.3c0-0.1-0.1-0.1-0.1-0.2l0.1-1l18.6,0.8l-0.1,1
	c0,0.1,0,0.1-0.1,0.2c0,0.1-0.1,0.1-0.1,0.2c-0.1,0.1-0.3,0.1-0.4,0.1l-17.4-0.8C317.1,365,317,365,317,365z"/>
<path class="st42" d="M352.6,301.8c0,0-4.3,25.2,21.3,43.2l-6.9,7.5c0,0-28.5-19.6-25.6-44.9L352.6,301.8z"/>
<path class="st43" d="M353.5,316.5c-0.4,0.6-0.8,1-1.2,1.6c-1,1.5-1.8,2.9-2.5,4.5c-1.2,2.6-2.3,5.3-3,8.1
	c-3.9-6.7-6.5-14.6-5.5-23.1l11.2-5.7C352.5,301.8,351.5,308.1,353.5,316.5z"/>
<path class="st44" d="M336.2,276.8c-1.1,8.9-1.2,17.9-0.4,26.8c0,0-14,27.5-11,55.2l10.7,2.7c0,0,2.4-36.3,17-54.7l0.6-18.2
	l-11.5-1.9l-1-9.8L336.2,276.8z"/>
<path class="st42" d="M352.4,290.6c0.1,0,0.2-0.1,0.3-0.3c0.1-0.1,0.1-0.3,0.2-0.5c0.1-0.2,0.1-0.4,0.2-0.6c0-0.1,0.1-0.3,0.1-0.4
	c0.1-0.1,0.1-0.3,0.1-0.4c0.1-0.1,0.1-0.3,0.1-0.5c0-0.1,0.1-0.3,0.1-0.5c0-0.2,0.1-0.3,0.1-0.6l0.1-0.6c0.1-0.4,0.1-0.8,0.1-1.2
	c0.1-1,0.1-2,0-3c-0.1-1.1-0.1-2.3-0.3-3.4c-0.2-1.2-0.5-2.5-0.8-3.7c-0.3-1.4-0.9-2.7-1.7-3.9c-0.4-0.6-0.9-1.2-1.5-1.7
	c-0.6-0.5-1.2-0.9-1.9-1.2c-0.3-0.1-0.8-0.2-1.1-0.3h-1c-0.7,0.1-1.4,0.3-2,0.6c-0.6,0.3-1.1,0.6-1.6,1c-0.1,0.1-0.2,0.2-0.3,0.3
	l-0.3,0.3l-0.3,0.3c-0.1,0.1-0.2,0.2-0.3,0.3c-0.3,0.4-0.6,0.9-0.8,1.5c-0.2,0.5-0.3,0.9-0.5,1.4c-0.2,0.8-0.3,1.6-0.4,2.4
	c-0.1,0.6-0.1,1.2-0.1,1.9c0,1,0.1,1.5,0.2,1.6c0.1,0,0.2-0.6,0.4-1.5c0.1-0.5,0.2-1.1,0.3-1.7c0.1-0.8,0.3-1.5,0.6-2.2
	c0.3-0.8,0.8-1.6,1.3-2.3c0.1-0.1,0.1-0.2,0.2-0.3l0.3-0.3l0.3-0.3c0.1-0.1,0.2-0.1,0.3-0.2c0.4-0.3,0.8-0.6,1.2-0.8
	c0.5-0.2,1-0.3,1.5-0.3h0.8c0.3,0.1,0.5,0.1,0.8,0.2c1,0.5,1.9,1.2,2.4,2.2c0.6,1,1,2.2,1.4,3.4c0.3,1.2,0.6,2.4,0.8,3.5
	c0.2,1.1,0.3,2.2,0.4,3.2c0.1,1,0.1,1.9,0.2,2.8v4.8c0,0.1,0,0.3,0.1,0.5C352.3,290.4,352.3,290.6,352.4,290.6z"/>
<path class="st26" d="M331.1,269.1h-21.4v21.4h21.4V269.1z"/>
<path class="st27" d="M299,265.5l10.7,3.6v21.4l-10.7-3.6V265.5z"/>
<path class="st28" d="M331.1,269.1l-10.7-3.6H299l10.7,3.6H331.1z"/>
<path class="st30" d="M317.9,270.4h-7.3v3.1h7.3V270.4z"/>
<path class="st32" d="M318.6,286.5v4.1h3.7v-4.1H318.6z M318.6,269.1v4.1h3.7v-4.1H318.6z M313.4,265.5h-3.5l8.6,3.6h3.7
	L313.4,265.5z"/>
<path class="st40" d="M350.2,277.2v0.2c0,2.3-0.6,4.6-1.5,6.6c-0.4,0.8-0.8,1.5-1.4,2.2c-0.6,0.8-1.2,1.5-1.9,2.1
	c-1.5,1.3-3.2,2.2-5.2,2.7c-0.9,0.2-1.8,0.3-2.7,0.3c-0.8,0-1.7,0-2.5-0.1c-0.8-0.1-1.5-0.3-2.2-0.5c-1.3-0.4-2.6-1-3.7-1.7
	c-1-0.6-1.9-1.2-2.7-1.9c-0.7-0.6-1.3-1.2-1.9-1.8l-0.2-0.2c-0.4,0-0.8,0-1.2,0c-0.4-0.1-0.8-0.1-1.1-0.3c-0.3-0.1-0.7-0.3-1-0.5
	c-0.3-0.2-0.6-0.4-1-0.7c-0.6-0.5-1-1.1-1.4-1.8c-0.2-0.3-0.3-0.7-0.4-1.1c-0.1-0.3-0.1-0.8-0.2-1.1c0-0.3,0-0.6,0-0.8
	c0-0.1,0.1-0.3,0.1-0.5c0.1-0.1,0.1-0.3,0.3-0.3c0.7-0.6,1.5,0,1.9,0.6c0.4,0.6,0.8,1.2,1.4,1.5c0.2,0.1,0.4,0.1,0.6,0
	c0.2-0.1,0.4-0.1,0.6-0.3c0.1-0.1,0.1-0.1,0.1-0.1c0.1-0.1,0.1-0.1,0.3-0.2c0.1-0.1,0.2-0.1,0.3-0.1c0.1,0,0.2,0,0.3,0.1
	s0.2,0.1,0.3,0.1c0.1,0.1,0.1,0.1,0.1,0.2c0.1,0.3,0.3,0.6,0.3,0.8c0.2,0.6,0.3,1.2,0.3,1.9c0.9,0.3,2.1,0.8,3.3,1.2
	c0.9,0.3,1.8,0.6,2.7,0.8c1,0.2,1.9,0.3,2.9,0.3c0.5,0,1,0,1.5-0.1c0.5-0.1,1-0.1,1.5-0.3c0.4-0.1,0.8-0.3,1.2-0.5
	c0.4-0.2,0.8-0.4,1.1-0.6c0.3-0.3,0.6-0.6,0.9-0.8c0.3-0.3,0.6-0.6,0.8-1c0.5-0.8,0.8-1.5,1.1-2.4c0.3-0.8,0.5-1.6,0.6-2.4
	c0.1-0.6,0.2-1.2,0.3-1.9c1,0.8,2.3,1.3,3.5,1.7C347.5,277,348.8,277.2,350.2,277.2z"/>
<path class="st44" d="M340.9,247.1c0.1-0.6,0.5-1.1,0.8-1.6c0.4-0.4,0.9-0.8,1.5-1c1.1-0.5,2.4-0.6,3.5-0.3c0.6,0.1,1.2,0.3,1.7,0.7
	c0.6,0.3,1,0.7,1.5,1.2c0.4,0.5,0.8,1,1,1.5c0.2,0.6,0.3,1.2,0.4,1.8c0.1,1.9-1,3.7-2.1,5.3C347,251.6,344.1,248.9,340.9,247.1z"/>
<path class="st43" d="M339.6,244.9c-0.6-0.3-1.2-0.6-1.8-0.6c-0.2,0.1-0.4,0.1-0.6,0.3c-0.2,0.1-0.3,0.3-0.5,0.5
	c-0.1,0.2-0.2,0.4-0.3,0.6c-0.1,0.2-0.1,0.4-0.1,0.6c0.1,0.4,0.2,0.9,0.4,1.2c0.2,0.4,0.5,0.8,0.8,1c0.3,0.3,0.6,0.5,0.8,0.7
	c0.3,0.2,0.6,0.4,0.9,0.6c0.6,0.3,1.3,0.6,2,0.7c0.3,0.1,0.7,0.1,1,0.1c0.7,0,1.5-0.1,2.1-0.2c0.3-0.1,0.7-0.2,1-0.3
	c0.3-0.1,1.2-0.4,1.4-0.8c0.3-0.6-0.3-0.6-0.8-0.9C344,247.2,341.9,246,339.6,244.9z"/>
<path class="st22" d="M340.2,251.6c0.1-0.1,0.3-0.1,0.4,0c0.1,0.1,0.3,0.1,0.4,0.2c0.1,0.1,0.1,0.3,0.2,0.4c0,0.1,0,0.3,0,0.5
	c-0.1,1.2-0.6,2.3-1.2,3.3c-0.2-0.3-0.4-0.6-0.6-0.9c-0.3-0.6-0.4-1.4-0.3-2.1c0.1-0.3,0.1-0.7,0.3-1
	C339.6,252,339.9,251.6,340.2,251.6z M345.5,256.7c-0.1-1.2-0.1-2.6,0.1-3.8c0.3-1.4,0.8-2.7,1.6-3.9c0.6,0.6,1.1,1.2,1.5,1.9
	c0.3,0.8,0.5,1.7,0.6,2.5c0.1,0.4,0.1,0.8,0,1.3c0,0.4-0.1,0.8-0.2,1.2c-0.1,0.4-0.2,0.8-0.4,1.2c-0.1,0.4-0.3,0.8-0.6,1.2
	c-0.2,0.3-0.5,0.7-0.8,1c-0.3,0.3-0.6,0.6-0.9,0.9C346.1,259.2,345.7,257.9,345.5,256.7z"/>
<path class="st40" d="M340.2,251.4c0.3,1.5-0.4,3-1,4.5s-1.2,3-0.6,4.5c0.1,0.3,0.4,0.7,0.7,1c0.3,0.3,0.6,0.6,1,0.8
	c0.3,0.2,0.8,0.3,1.1,0.4c0.4,0.1,0.8,0.1,1.2,0c0.8-0.1,1.6-0.5,2.2-1c0.6-0.5,1.2-1.1,1.5-1.9c0.3-0.8,0.6-1.5,0.8-2.3
	c0.1-0.8,0.1-1.6,0.1-2.4c-0.2-1.6-0.6-3.2-1-4.8C344.2,249.2,341.9,249.9,340.2,251.4z"/>
<path class="st40" d="M346.8,255.4c0.2-0.2,0.4-0.4,0.6-0.6c0.1-0.1,0.3-0.1,0.4-0.1c0.1,0,0.3,0,0.4,0c0.2,0.1,0.3,0.1,0.5,0.3
	c0.1,0.1,0.2,0.3,0.3,0.5c0.1,0.1,0.1,0.3,0.1,0.6c0,0.2,0,0.3-0.1,0.6c-0.1,0.1-0.1,0.3-0.2,0.5c-0.1,0.1-0.2,0.3-0.3,0.4
	c-0.1,0.1-0.3,0.2-0.5,0.3c-0.1,0.1-0.3,0.1-0.5,0.1c-0.2,0-0.3,0-0.6,0c-0.2-0.1-0.3-0.1-0.5-0.2
	C346.6,257,346.7,256.2,346.8,255.4z"/>
<path class="st22" d="M339.1,252.5c2.3,0.1,4.6-0.5,6.6-1.7c-0.2,0.7-0.2,1.4,0,2.1c0.1,0.5,0.3,1,0.6,1.4c0.3,0.4,0.6,0.8,1,1.1
	c0.9-1.3,1.3-2.9,1.2-4.5c0-0.2-0.1-0.3-0.1-0.6c-0.3-0.4-0.7-0.8-1-1.2c-0.6-0.6-1.3-1-2.1-1.3c-0.5-0.2-1-0.3-1.6-0.4
	c-1.1-0.1-2.2,0-3.2,0.3c-0.6,0.2-1,0.4-1.5,0.7c-0.1,0.1-0.3,0.3-0.5,0.4c-0.3,0.4-0.6,0.8-0.8,1.3c-0.1,0.1-0.1,0.2-0.1,0.3
	s0,0.3,0,0.3c0,0.1,0,0.2,0.1,0.3c0,0.1,0.1,0.2,0.1,0.3c0.1,0.1,0.1,0.2,0.2,0.3s0.1,0.2,0.2,0.3c0.1,0.1,0.2,0.1,0.3,0.2
	s0.2,0.1,0.3,0.1C338.7,252.5,338.9,252.5,339.1,252.5z"/>
<path class="st45" d="M506.2,272.8c-0.3,0.7-0.6,1.4-1,2.2c-0.4,0.8-0.9,1.6-1.5,2.5s-1.2,1.8-1.8,2.6c-0.7,1-1.4,1.9-2.1,2.8
	c-0.3,0.4-0.7,0.8-1,1.2c-0.5,0.5-0.9,1-1.4,1.5l-0.6,0.7l-0.6,0.1l-1.2,0.3c-3.9,0.9-6.6,1.7-6.6,1.7l-1-3.9c0,0,5.3-1,7.2-1.7
	c0,0,1.2-1.4,1.2-1.4c0.6-0.8,1.1-1.5,1.7-2.3c0.6-0.9,1.3-1.8,1.9-2.7c0.4-0.6,0.8-1.1,1.2-1.6c0.2-0.3,0.4-0.6,0.6-0.8
	c0.5-0.7,1-1.4,1.6-2c0.5-0.6,1-1.1,1.4-1.6c0.4-0.4,0.8-0.8,1.2-1.1c0.3-0.3,0.6-0.4,0.9-0.5c0.3-0.1,0.5,0,0.6,0.1
	c0.1,0.1,0.2,0.4,0.2,0.8c0,0.3-0.1,0.8-0.2,1.3C506.7,271.6,506.5,272.2,506.2,272.8z"/>
<path class="st46" d="M487.9,288.9c-1-0.2-0.6-7,0.9-15.2c1.5-8.2,3.5-14.7,4.5-14.5c1,0.2,0.6,7-0.9,15.2
	C490.9,282.6,488.9,289.1,487.9,288.9z"/>
<path class="st46" d="M483.7,274.3c-1.4-8.2-1.7-15-0.8-15.2c1-0.1,2.9,6.4,4.3,14.6c1.4,8.2,1.7,15,0.8,15.2
	C487,289,485.1,282.5,483.7,274.3z"/>
<path class="st47" d="M488.8,288.3c-1.1,0-1.9-7.2-1.9-16c0-8.9,0.9-16,1.9-16c1.1,0,1.9,7.2,1.9,16
	C490.8,281.2,489.9,288.3,488.8,288.3z"/>
<path class="st47" d="M487.9,288.9c-0.8-0.3,0.6-6.3,3.2-13.3c2.6-7.1,5.4-12.5,6.3-12.2c0.8,0.3-0.6,6.3-3.2,13.3
	C491.5,283.8,488.8,289.1,487.9,288.9z"/>
<path class="st47" d="M481.9,276.6c-2.6-7.1-3.9-13.1-3-13.3c0.8-0.3,3.6,5.2,6.1,12.2c2.6,7.1,3.9,13.1,3,13.3
	C487.2,289.1,484.4,283.7,481.9,276.6z"/>
<path class="st48" d="M486.4,293.6h3c1.8,0,3.3-1.5,3.5-3.4l0.8-8.1c0.1-0.4-0.3-0.8-0.7-0.8h-0.1l-9.9-0.1c-0.4,0-0.8,0.3-0.8,0.8
	v0.1l0.6,8C483.1,292.1,484.6,293.6,486.4,293.6z"/>
<path class="st40" d="M483.1,283.8c0,0-2.6,0.4-1.7,2.7c1,2.2,2.5,1,2.4-0.1C483.8,285.3,483.2,283.8,483.1,283.8z"/>
<path class="st41" d="M511.8,358.2c0.1-3.5,0.3-7.6,0.5-12.2c0.1-4.6,0.3-9.6,0.3-14.9c0-5.3-0.1-10.3-0.3-14.9
	c-0.1-2.3-0.3-4.4-0.5-6.5c-0.2-2-0.4-3.9-0.6-5.5c-0.2-1.6-0.3-3-0.5-4.3s-0.2-2.3-0.3-3.3c-0.1-0.9-0.2-1.7-0.4-2.2
	c-0.2-0.6-0.5-1-0.8-1.1c-0.4-0.1-0.9-0.1-1.5,0.3c-0.6,0.3-1.2,1-1.9,2c-0.6,1-1.2,2.2-1.7,3.7c-0.2,0.8-0.4,1.5-0.6,2.4
	c-0.1,0.8-0.3,1.7-0.3,2.6c-0.1,1.9-0.1,3.8-0.1,5.8c0,2,0.1,4.2,0.3,6.5c0.3,4.6,0.8,9.5,1.4,14.8c0.6,5.3,1.3,10.2,2,14.8
	c0.7,4.6,1.3,8.6,1.9,12c0.6,3.5,1,6.2,1.4,8.1c0.3,1.9,0.6,3,0.8,3c0.2,0,0.3-1.1,0.6-3C511.5,364.4,511.6,361.6,511.8,358.2z"/>
<path class="st49" d="M510.9,370.7c-0.4,1-1.2,1.7-2.4,2.1c-1.1,0.3-2.3,0.3-3.5,0.2c-0.5,0-1-0.1-1.5-0.3c-0.4-0.2-0.8-0.6-0.7-1
	c0.1-0.6,0.8-0.8,1.5-1c1.7-0.6,3.3-1.2,4.8-2.1c0.7-0.4,1.2-1,1.7-0.1C511.3,369.1,511.2,370,510.9,370.7z"/>
<path class="st40" d="M516.8,358.2c0.1-3.5,0.3-7.6,0.5-12.2c0.1-4.6,0.3-9.6,0.3-14.9c0-5.3-0.1-10.3-0.3-14.9
	c-0.1-2.3-0.3-4.4-0.5-6.5c-0.2-2-0.4-3.9-0.6-5.5c-0.2-1.6-0.3-3-0.5-4.3c-0.1-1.2-0.2-2.3-0.3-3.3c-0.1-0.9-0.2-1.7-0.4-2.2
	c-0.2-0.6-0.5-1-0.8-1.1c-0.4-0.1-0.9-0.1-1.5,0.3c-0.6,0.3-1.2,1-1.9,2c-0.6,1-1.2,2.2-1.7,3.7c-0.2,0.8-0.4,1.5-0.6,2.4
	c-0.1,0.8-0.3,1.7-0.3,2.6c-0.1,1.9-0.1,3.8-0.1,5.8c0,2,0.1,4.2,0.3,6.5c0.3,4.6,0.8,9.5,1.4,14.8c0.6,5.3,1.3,10.2,2,14.8
	s1.3,8.6,1.9,12c0.6,3.5,1,6.2,1.4,8.1c0.3,1.9,0.6,3,0.8,3c0.2,0,0.3-1.1,0.6-3C516.5,364.4,516.7,361.6,516.8,358.2z"/>
<path class="st22" d="M516.3,370.7c-0.4,1-1.2,1.7-2.4,2.1c-1.1,0.3-2.3,0.3-3.5,0.2c-0.5,0-1-0.1-1.5-0.3c-0.4-0.2-0.8-0.6-0.7-1
	c0.1-0.6,0.8-0.8,1.5-1c1.7-0.6,3.3-1.2,4.8-2.1c0.7-0.4,1.2-1,1.7-0.1C516.6,369.1,516.5,370,516.3,370.7z M505.3,289.9
	c-4.3,12.9-3.6,40.4-3.6,40.4c7.6,2.3,12.9,1.9,15.8,1.1c2-0.5,3-1.1,3-1.1c1.1-23.5-5.9-40.5-5.9-40.5
	C514.7,289.6,507.8,289.1,505.3,289.9z M517.1,253c0.3,1.2,0.1,2.6,0.6,3.7c0.7,1.7,2.6,2.4,3.7,3.7c1.4,1.7,1.5,4.2,0.5,6.1
	c-1,1.9-3,3.2-5.1,3.7c-2.1,0.5-4.4,0.3-6.4-0.3c-1-0.3-1.9-0.6-2.8-1.2c-0.8-0.6-1.5-1.5-1.6-2.5c-0.2-1.7,1.1-3.4,0.8-5.1
	c-0.2-1.3-1.3-2.4-1.9-3.5c-1-1.8-0.8-4.1,0.4-5.7C507.8,248.3,515.7,248.2,517.1,253z"/>
<path class="st50" d="M518.7,274.7c-0.3,1.2-1,2.4-1.8,3.9c0,0-0.1,0-0.3-0.1v0.1c-1.4,3-1.7,7.9-1.7,11.1c-1.5,0.7-3.2,0.8-5.4,0.8
	c-1.4,0-2.7-0.3-3.9-0.6c0-0.1,0-0.1-0.1-0.1c0-0.1-0.1-0.1-0.1-0.1c-0.5-1.2-2.6-6.8-2.5-12.2c-1.5-0.8-2.6-2.2-2.6-2.2
	c0.6-1.2,1.2-2.2,2-3.2c2.1-2.7,4.6-4.3,5.5-4.7h0.1c0.1-0.1,0.1-0.1,0.1-0.1c0.4-0.1,0.8-0.3,1.2-0.3c1.5-0.3,2.6-0.9,4.1-1
	c0.4-0.1,0.9-0.1,1.3-0.1c0.1,0,1.4,0.3,2.5,1.2C518.6,268.3,520,270.5,518.7,274.7z"/>
<path class="st40" d="M514.5,265.7c-0.6,1.8-1.7,3.4-3.2,4.5c-0.5,0.3-1,0.6-1.6,0.8c-0.6,0.1-1.2,0-1.7-0.3
	c-0.7-0.5-0.8-1.5-0.7-2.2c0.1-0.5,0.3-0.9,0.6-1.2c0.3-0.1,0.8-0.3,1.2-0.3c1.5-0.3,2.6-0.9,4.1-1
	C513.6,265.7,514.1,265.7,514.5,265.7z"/>
<path class="st40" d="M508.3,269.9l5.5-3.8l-0.1-0.6c-0.1-0.2-0.1-0.4-0.1-0.6c-0.1-1-0.2-1.9-0.3-2.9c0-0.1,0-0.1,0-0.1
	c0-0.3,0-0.6,0-0.8c0-1,0.1-1.9,0.2-2.8c-1.5,0.8-2.9,1.7-4,3c0,0.6,0,1.2,0,1.7c0,0.1,0,0.2,0,0.3c0,0.3,0,0.7-0.1,1v0.1
	c0,0.3-0.1,0.5-0.1,0.8c0,0.1,0,0.2-0.1,0.3c0,0.1,0,0.1,0,0.2C509.2,267,506.8,269,508.3,269.9z"/>
<path class="st41" d="M509.4,265.4c0.6-0.2,1.2-0.5,1.8-0.8c1-0.7,1.7-1.6,2.2-2.7c0-0.3,0-0.6,0-0.8c0-1,0.1-1.9,0.2-2.8
	c-1.5,0.8-2.9,1.7-4,3c0,0.6,0,1.2,0,1.7c0,0.1,0,0.2,0,0.3c0,0.3,0,0.7-0.1,1v0.1c0,0.3-0.1,0.5-0.1,0.8
	C509.4,265.1,509.4,265.2,509.4,265.4z"/>
<path class="st40" d="M513.5,259.5c-0.1,0.3-0.1,0.8-0.1,1.1c0,0.1,0,0.3,0,0.4c-0.1,0.1-0.1,0.1-0.1,0.2c-0.6,1-1.4,2-2.5,2.4
	c-1.1,0.5-2.5,0.3-3.2-0.6c-0.8-0.8-0.8-2-0.6-3.1c0.2-1,0.8-2.1,1-3.1c0.1-0.6,0.2-1.1,0.1-1.7c0-0.5-0.1-0.9-0.3-1.2
	c0.4,0.3,0.9,0.6,1.4,0.8c0.8,0.3,1.7,0.6,2.6,1c0.8,0.4,1.6,1,1.9,1.9C513.7,258.2,513.6,258.9,513.5,259.5z"/>
<path class="st40" d="M513.4,258.9c0.1-0.2,0.1-0.5,0.3-0.6c0.2-0.1,0.4,0.1,0.6,0.3c0.3,0.5,0.4,1.2,0.1,1.7
	c-0.3,0.5-0.9,0.8-1.5,0.7C513.2,260.2,513.4,259.5,513.4,258.9z"/>
<path class="st4" d="M513.3,260.9c0,0.1,0.1,0.1,0.1,0.2c0.1,0.1,0.1,0.1,0.1,0.1c0.1,0.1,0.1,0.1,0.2,0.1c0.1,0,0.1,0,0.2,0
	c0.1,0,0.1-0.1,0.2-0.1c0.1,0,0.1-0.1,0.1-0.1c0.1-0.1,0.1-0.1,0.1-0.2c0-0.1,0-0.1,0-0.2s-0.1-0.1-0.1-0.2c0-0.1-0.1-0.1-0.1-0.1
	c-0.1-0.1-0.1-0.1-0.2-0.1c-0.1,0-0.1,0-0.2,0C513.4,260.2,513.2,260.5,513.3,260.9z"/>
<path class="st40" d="M516.6,278.5c-0.2,0.4-0.4,0.9-0.6,1.3c-0.5,1-1.1,2-1.7,3c-0.6,1-1.4,2.1-2.1,3.1l-0.6,0.8l-0.7,0.2
	c-0.4,0.1-0.8,0.3-1.2,0.4c-5,1.7-9.7,3-13.1,3.8c-3.4,0.8-5.5,1.2-5.7,0.8c-0.1-0.4,1.7-1.6,4.8-3.2c3.1-1.6,7.5-3.7,12.4-5.7
	c0.1-0.1,0.2-0.1,0.3-0.1c0.4-0.9,0.8-1.8,1.1-2.6c0.5-1,0.9-2.1,1.3-3c0.1-0.3,0.3-0.7,0.4-1c0.1-0.2,0.2-0.5,0.3-0.7
	c1.7,2.1,4.1,2.7,5,2.8C516.5,278.5,516.6,278.5,516.6,278.5z"/>
<path class="st40" d="M494.6,289.6c-1.1-0.1-2.5-0.7-3.5-1.2c-0.1-0.1-0.2,0.1-0.2,0.2c0.1,0.3,0.4,0.6,0.6,0.7
	c0.2,0.1,0.5,0.1,0.6,0.3c0.1,0.2,0,0.5-0.1,0.6c-0.1,0.1-0.4,0.2-0.6,0.3l-1.5,0.5c-0.4,0.1-0.9,0.3-1,0.8c0,0.3,0.1,0.5,0.2,0.7
	c0.5,0.8,1.5,1.3,2.4,1.3c0.9,0,1.8-0.4,2.4-1c0.7-0.6,1.2-1.4,1.5-2.2C495.2,290.3,494.8,290,494.6,289.6z M560.9,370.5
	c-0.8-2.1-1.6-4.5-2.5-7.1l5-1c0.4,2.6,0.8,5,1.1,7.3L560.9,370.5z M541.5,371.7c-0.6-2.2-1.1-4.6-1.7-7.3l5.1-0.4
	c0.1,2.6,0.2,5.1,0.3,7.4L541.5,371.7z M535.8,269.7c-0.1,0.5-0.1,1-0.2,1.5c-0.1,0.8-0.2,1.6-0.3,2.4c0,0.3-0.1,0.6-0.1,0.8
	c-0.1,1.1-0.2,2.1-0.3,3.3c-0.1,1.1-0.1,2.2-0.1,3.3v0.8c0,0.3,0,0.6,0,0.8c0,0.6,0,1,0,1.6c0,0.6,0,1,0.1,1.5
	c0.1,0.5,0.1,1,0.1,1.5l0.1,1.5c0.1,0.5,0.1,1,0.1,1.5c0.1,1,0.2,1.9,0.3,2.8c0,0.2,0.1,0.5,0.1,0.7s0.1,0.4,0.1,0.7
	c0.1,0.4,0.1,0.9,0.2,1.3c0.1,0.4,0.1,0.8,0.2,1.2c0.1,0.2,0.1,0.4,0.1,0.6c-0.8,1.4-1,3-0.6,4.5c0.5,1.8,1.9,3.3,3.6,3.7
	c0.6,0.1,1.2,0.1,1.7-0.3c0.5-0.5,0.5-1.3,0.3-1.9c-0.1-0.7-0.4-1.3-0.4-2c0.1-0.7,0.6-1.5,1.2-1.3c0.4,0.1,0.8,0.4,1.1,0.1
	c0.1-0.1,0.1-0.4,0.1-0.6c-0.1-0.2-0.3-0.3-0.4-0.5c-0.8-0.6-1.6-1.2-2.3-1.9c0.1-12.4,3.5-29.5,4.4-33.7c0.1-0.6,0.2-1,0.2-1
	c-2.5-0.3-4.8-1.4-6.7-3c-0.1,0.2-0.1,0.4-0.2,0.6c-0.1,0.4-0.3,0.8-0.4,1.2c-0.1,0.2-0.1,0.4-0.2,0.6c-0.1,0.2-0.1,0.4-0.2,0.6
	c-0.3,0.9-0.5,1.8-0.8,2.7c-0.1,0.5-0.2,1-0.3,1.5c0,0.1-0.1,0.3-0.1,0.4l-0.2,1C536,268.7,535.9,269.2,535.8,269.7z"/>
<path class="st22" d="M536.1,320.7c0.3-5.2,0.6-10.4,1.2-15.5c0.1-0.4,0.1-0.8,0.1-1.2c0.1-1.1,0.3-2.3,0.4-3.4c0.1-1,0.3-1.9,0.4-3
	c0.2-1.5,0.5-3.1,0.7-4.6c0.1-0.7,0.2-1.4,0.3-2.1c0-0.1,0-0.1,0.1-0.3l0.2-1.1l9.3-0.2l14.2-0.3c-0.1,1-0.3,2.4-0.5,4.1
	c-0.1,0.3-0.1,0.8-0.1,1.2v0.2c-0.1,0.6-0.1,1.4-0.1,2.1l-0.1,0.5c-0.1,2.5-0.3,5-0.3,7.6c-0.1,2.6-0.1,5.5-0.1,8.6
	c0,2.2,0.1,4.6,0.1,7.1c0.3,11.7,1.4,26.8,3.7,45.6c-2.6,0.3-5.7,0.8-8.4,1.1c-2.3-8.2-5.3-22.7-7.5-47.2c-0.3-3.7-0.6-7.7-0.9-12
	c-0.6,3.5-1.2,7.6-1.7,12c-1.5,13.1-2.4,29.6-0.7,47.5h-8.4C536.8,357.7,535.1,341.1,536.1,320.7z"/>
<path class="st51" d="M546.6,367.4H545c-4.4-25.8-0.1-60.5-0.1-60.5l4,1c-0.6,3.5-1.2,7.6-1.7,12C545.7,333,544.9,349.5,546.6,367.4
	z"/>
<path class="st21" d="M557.5,239.1c-0.5,1.9-1,3.7-1.5,5.6c-0.3,1.3-0.8,2.7-1.9,3.5c-1,0.8-2.4,0.8-3.5,0.1
	c1.5-1.5,2.7-3.2,3.3-5.1c0.3-0.9,0.5-1.9,1-2.8C555.5,239.7,556.6,239.1,557.5,239.1z"/>
<path class="st52" d="M539.2,288.6c-0.4,2.5-0.8,5-1.4,7.6c2,0.3,3.9,0.4,5.9,0.6c6.5,0.4,13,0.1,19.4-0.8c0.1-4,0.3-8,0.4-12
	c0.1-2.4,0.3-4.7,0.4-6.9c0.2-3.4,0.5-6.5,0.8-8.8c0.5-3.7,1-8-1.4-10.9c-1.4-1.7-3.5-2.5-5.5-3.3c-0.8-0.3-1.5-0.6-2.3-0.9h-0.1
	c-1.4-0.6-2.7-1.1-4.1-1.7c-1.6,0.8-3.4,1.6-5.1,2.4l-1.2,0.6c-0.3,0.1-6.8,1.3-9.3,11.3c0,0,2.3,1.3,5.3,1.4
	c-0.1,4.8-0.5,10.9-1.5,17.8c-0.1,0.4-0.1,0.9-0.2,1.3C539.4,286.9,539.3,287.8,539.2,288.6z"/>
<path class="st40" d="M553.8,249.9c0.1,1.5,0.4,3,1.1,4.4c-2.7,0.7-5.6,0.8-8.4,0.3c0.5-1.5,0.7-2.9,0.7-4.4c0-0.3,0-0.6,0-0.8
	c0-0.6-0.1-1.2-0.2-1.9c1.5-2.5,4.9-3.8,8.2-3.7c-0.7,1.3-1.2,2.8-1.3,4.2C553.8,248.6,553.7,249.2,553.8,249.9
	C553.8,249.9,553.8,249.9,553.8,249.9z"/>
<path class="st40" d="M545.2,254.4c0.1,0.4,0.4,0.8,0.7,1.1c1.1,1.3,2.8,2,4.6,1.9c1.7-0.1,3.3-1,4.3-2.4c0.4-0.6,0.8-1.2,1-1.9
	h-0.1c-1.4-0.6-2.7-1.1-4.1-1.7c-1.6,0.8-3.4,1.6-5.1,2.4C545.9,254,545.5,254.2,545.2,254.4z"/>
<path class="st21" d="M546,235c-0.7,1.8-0.5,3.9,0.5,5.7c0.2-1.4,0.4-2.7,0.6-4c0.1-0.6,0.1-1.4-0.3-1.8c-0.1-0.1-0.3-0.2-0.6-0.2
	C546.1,234.6,545.9,234.8,546,235z"/>
<path class="st41" d="M553.9,247.9c-0.1,0.6-0.1,1.3-0.1,1.9v0.1c-0.6-0.2-1.2-0.3-1.9-0.3c-0.9,0-1.8,0.3-2.7,0.4
	c-0.6,0.1-1.3,0.2-2,0.1c0-0.3,0-0.6,0-0.8c0-0.6-0.1-1.2-0.2-1.9c1.5-2.5,4.9-3.8,8.2-3.7C554.5,245,554,246.4,553.9,247.9z"/>
<path class="st40" d="M546.6,234.4c0.4,2.7,0,5.5-1.2,7.9c-0.7,1.4-1.7,2.7-1.6,4.3c0.2,2,2.4,3.4,4.4,3.1c2-0.3,3.7-1.7,4.8-3.3
	c2.1-3,3-6.9,2.4-10.6C552.8,234.4,549.4,233.9,546.6,234.4z"/>
<path class="st21" d="M554.8,242.6c-0.8-1.9-1-3.9-0.6-5.9c-1.9,0.8-4.1,0.7-5.9-0.1c-1-0.5-2-1.2-2.7-2.1c-0.8-1.1-0.3-2.7,0.9-3.2
	c1.5-0.6,3.2-0.9,4.8-1c1-0.1,2.1,0,3,0.6c1.2,0.7,1.8,2.2,1.5,3.5c0.8-0.2,1.7,0.5,2.1,1.2c0.3,0.8,0.3,1.7,0.1,2.6
	C557.5,240,556.4,241.4,554.8,242.6z"/>
<path class="st40" d="M554.7,242.5c0-0.4,0.3-0.8,0.7-0.8c0.4-0.1,0.8,0.1,1,0.5c0.2,0.3,0.3,0.8,0.2,1.2c-0.1,0.4-0.3,0.8-0.5,1.1
	c-0.3,0.5-0.8,0.9-1.4,1.1c-0.6,0.2-1.2,0-1.6-0.5C553.9,244.2,554.8,243.5,554.7,242.5z M566.5,271.1c0,0.5,0,1,0,1.6v1.6
	c0,0.3,0,0.6,0,0.8c0,0.3,0,0.6-0.1,0.8c-0.1,1.1-0.1,2.1-0.2,3.3c-0.1,1.1-0.2,2.2-0.3,3.3l-0.1,0.8c-0.1,0.3-0.1,0.6-0.1,0.8
	c-0.1,0.6-0.1,1-0.3,1.6c-0.1,0.5-0.1,1-0.3,1.5c-0.1,0.5-0.2,1-0.3,1.5c-0.1,0.5-0.2,1-0.3,1.5c-0.1,0.5-0.2,1-0.3,1.5l-0.7,2.7
	c-0.1,0.2-0.1,0.4-0.2,0.6c-0.1,0.2-0.1,0.4-0.2,0.6c-0.1,0.4-0.3,0.8-0.4,1.2c-0.1,0.4-0.3,0.8-0.4,1.2c-0.1,0.2-0.1,0.4-0.2,0.6
	c0.6,1.5,0.6,3.1-0.1,4.6c-0.8,1.7-2.4,2.9-4.1,3.1c-0.6,0.1-1.2,0-1.7-0.5c-0.4-0.6-0.3-1.3-0.1-2c0.3-0.6,0.6-1.2,0.7-1.9
	c0.1-0.7-0.3-1.5-1-1.5c-0.4,0-0.9,0.3-1.1-0.1c-0.1-0.2-0.1-0.5,0-0.6c0.1-0.2,0.3-0.3,0.5-0.4c0.9-0.5,1.7-1,2.6-1.5
	c1.7-12.4,0.6-29.7,0.2-34c-0.1-0.6-0.1-1-0.1-1c2.5,0,5-0.8,7.1-2.1c0.1,0.2,0.1,0.4,0.1,0.6c0.1,0.4,0.1,0.8,0.3,1.3
	c0.1,0.2,0.1,0.4,0.1,0.7c0,0.2,0.1,0.4,0.1,0.7c0.1,0.9,0.3,1.9,0.3,2.8c0.1,0.5,0.1,1,0.1,1.5c0,0.1,0,0.3,0,0.4l0.1,1.1
	C566.5,270.1,566.5,270.6,566.5,271.1z"/>
<path class="st52" d="M563.3,257.3c0,0,3.8,4,3.3,13.4c0,0-3.9,2.6-10-0.6l1.5-12.7L563.3,257.3L563.3,257.3z"/>
<path d="M557.9,368.6l1.7-1.1c0,0,1.2,1.1,0.1,2.2C558.4,370.8,557.9,368.6,557.9,368.6z"/>
<path class="st44" d="M550,372.9c0,0-0.1-1,0.7-1.3c0.8-0.3,2.8-0.8,4.2-1.5c2-0.9,3.2-2.4,4.1-2.4c0.9-0.1,0.7,1.4,2.6,1.5
	c1.9,0.1,3.4-0.8,3.5-0.8c0.4,0.3,1.1,3.2,0.6,3.9c-0.6,0.7-5.2,0.9-5.2,0.9l-3.7,0.6h-3.7L550,372.9z"/>
<path d="M549.7,372.8c0,0,2.3,0.7,5.3,0.7c3,0.1,5.7-0.8,7.1-0.9c1.5-0.2,3.9-0.4,3.9-0.4l0.1,1.5c0,0-2.4,0.3-4.7,0.3
	c0-0.3,0-0.7,0-0.7s-2.6,0.4-3.9,0.7c-1.2,0.3-6.7,0.1-8-0.6C549.7,373.2,549.7,372.8,549.7,372.8z"/>
<path class="st53" d="M556.4,369.8c0.1,0.1,0,0.2-0.1,0.3c-0.1,0.1-0.2,0-0.3-0.1c0-0.1-0.1-0.1,0-0.1c0-0.1,0.1-0.1,0.1-0.1
	C556.2,369.6,556.4,369.7,556.4,369.8z M557,369.4c0.1,0.1,0,0.2-0.1,0.3c-0.1,0.1-0.2,0-0.3-0.1c-0.1-0.1,0-0.2,0.1-0.3
	C556.8,369.3,556.9,369.4,557,369.4z M557.5,369.2c0.1,0.1,0,0.2-0.1,0.3c-0.1,0.1-0.2,0-0.3-0.1c-0.1-0.1,0-0.2,0.1-0.3
	c0.1,0,0.1,0,0.1,0C557.5,369,557.5,369.1,557.5,369.2z M558.2,368.8c0.1,0.1,0,0.2-0.1,0.3c-0.1,0.1-0.2,0-0.3-0.1
	c-0.1-0.1,0-0.2,0.1-0.3C558,368.7,558.1,368.7,558.2,368.8z M558.7,368.5c0.1,0.1,0,0.2-0.1,0.3c-0.1,0.1-0.2,0-0.3-0.1
	c0-0.1-0.1-0.1,0-0.1c0-0.1,0.1-0.1,0.1-0.1h0.1h0.1C558.6,368.3,558.6,368.4,558.7,368.5C558.7,368.4,558.7,368.4,558.7,368.5z"/>
<path d="M558.4,368.6c0,0.1,0.1,0.1,0.1,0.1h0.1c0.1,0,0.1-0.1,0.1-0.1l-0.3-0.6c-0.1,0.1-0.1,0.1-0.2,0.1L558.4,368.6z
	 M557.8,368.9C557.8,368.9,557.9,368.9,557.8,368.9c0.1,0.1,0.1,0.1,0.1,0.1h0.1c0,0,0,0,0-0.1c0,0,0,0,0-0.1c0,0,0,0,0-0.1
	l-0.3-0.6c-0.1,0.1-0.1,0.1-0.2,0.1L557.8,368.9z M557,368.7l0.3,0.5c0,0,0,0,0.1,0.1h0.1h0.1c0.1,0,0.1-0.1,0.1-0.1l-0.3-0.6
	C557.1,368.7,557.1,368.7,557,368.7z M556.7,369.6c0,0.1,0.1,0.1,0.1,0.1h0.1c0.1,0,0.1-0.1,0.1-0.1l-0.3-0.5
	c-0.1,0.1-0.1,0.1-0.2,0.1L556.7,369.6z M556.1,369.9C556.1,369.9,556.2,370,556.1,369.9c0.1,0.1,0.1,0.1,0.1,0.1h0.1
	c0.1,0,0.1-0.1,0.1-0.1l-0.3-0.5c-0.1,0.1-0.1,0.1-0.2,0.1L556.1,369.9z M538.5,368.9l1.7-1.2c0,0,1.3,1.1,0.1,2.2
	C539.1,371.1,538.5,368.9,538.5,368.9z"/>
<path class="st44" d="M530.7,373.4c0,0-0.2-1,0.7-1.3c0.8-0.3,2.8-0.9,4.1-1.6c1.9-1,3.1-2.4,4-2.5c0.9-0.1,0.7,1.4,2.6,1.5
	c1.9,0.1,3.3-0.9,3.5-1c0.4,0.3,1.2,3.2,0.6,3.9c-0.6,0.7-5.2,1-5.2,1l-3.7,0.7l-3.7,0.1L530.7,373.4z"/>
<path d="M530.4,373.2c0,0,2.3,0.6,5.3,0.6c3,0,5.7-0.8,7.1-1.1c1.5-0.2,3.9-0.5,3.9-0.5l0.1,1.5c0,0-2.4,0.4-4.7,0.3
	c0-0.3,0-0.7,0-0.7s-2.6,0.5-3.9,0.8c-1.2,0.3-6.7,0.3-7.9-0.4C530.3,373.6,530.4,373.2,530.4,373.2z"/>
<path class="st53" d="M537,370.1c0.1,0.1,0,0.2-0.1,0.3c-0.1,0.1-0.2,0-0.3-0.1c0-0.1-0.1-0.1,0-0.1c0-0.1,0.1-0.1,0.1-0.1
	C536.8,369.9,536.9,370,537,370.1z M537.6,369.7c0.1,0.1,0,0.2-0.1,0.3c-0.1,0.1-0.2,0-0.3-0.1c0-0.1-0.1-0.1,0-0.1
	c0-0.1,0.1-0.1,0.1-0.1C537.4,369.6,537.5,369.6,537.6,369.7z M538.2,369.4c0.1,0.1,0,0.2-0.1,0.3c-0.1,0.1-0.2,0-0.3-0.1
	c0-0.1-0.1-0.1,0-0.1c0-0.1,0.1-0.1,0.1-0.1c0.1,0,0.1-0.1,0.1,0C538,369.3,538.1,369.3,538.2,369.4z M538.7,369
	c0.1,0.1,0,0.2-0.1,0.3c-0.1,0.1-0.2,0-0.3-0.1c0-0.1-0.1-0.1,0-0.1c0.1,0,0.1-0.1,0.1-0.1h0.1h0.1
	C538.6,368.9,538.7,368.9,538.7,369C538.7,369,538.7,369,538.7,369z M539.3,368.7c0.1,0.1,0,0.2-0.1,0.3c-0.1,0.1-0.2,0-0.3-0.1
	c0-0.1-0.1-0.1,0-0.1c0-0.1,0.1-0.1,0.1-0.1h0.1h0.1C539.2,368.6,539.2,368.6,539.3,368.7C539.3,368.7,539.2,368.6,539.3,368.7z"/>
<path d="M539,368.8c0,0.1,0.1,0.1,0.1,0.1h0.1c0,0,0,0,0-0.1c0,0,0,0,0-0.1c0,0,0,0,0-0.1l-0.3-0.6c-0.1,0.1-0.1,0.1-0.2,0.1
	L539,368.8z M538.4,369.2c0,0.1,0.1,0.1,0.1,0.1h0.1c0,0,0,0,0-0.1c0,0,0,0,0-0.1c0,0,0,0,0-0.1l-0.3-0.6c-0.1,0.1-0.1,0.1-0.2,0.1
	L538.4,369.2z M537.6,369l0.3,0.5c0,0.1,0.1,0.1,0.1,0.1h0.1c0,0,0,0,0-0.1c0,0,0,0,0-0.1c0,0,0,0,0-0.1l-0.3-0.6
	C537.6,368.9,537.6,368.9,537.6,369z M537.3,369.8c0,0.1,0.1,0.1,0.1,0.1h0.1c0,0,0,0,0-0.1c0,0,0,0,0-0.1c0,0,0,0,0-0.1l-0.3-0.5
	c-0.1,0.1-0.1,0.1-0.2,0.1L537.3,369.8z M536.7,370.2c0,0.1,0.1,0.1,0.1,0.1h0.1c0,0,0,0,0-0.1c0,0,0,0,0-0.1c0,0,0,0,0-0.1
	l-0.3-0.4l-0.2,0.1L536.7,370.2z"/>
<path class="st54" d="M492.9,369.3c0,0,6.4,0.3,7.6-4.6c0.9-3.8-2.7-8.7-4.6-11.7c-0.3-0.5,0.3-1,0.8-0.8c1,0.6,2.2,1.5,3.4,2.8
	c3.7,4.1,5.5,10.9,2.3,14.2c-3.2,3.3-10.2,1.2-10.2,1.2L492.9,369.3z"/>
<path class="st55" d="M489.4,371.3c-1.3,0.3-7.6,0.1-9.5,0c-0.3,0-0.6-0.2-0.7-0.5c-0.1-0.3-0.1-0.7,0.3-0.9
	c0.8-0.5,2.7-0.9,2.7-0.9s-1.7-0.6-2.3-2.5c0,0-0.6-1.8,0.3-3.5c1-1.7,1.5-1.7,1.5-1.7l7.1,5v2.5L489.4,371.3z"/>
<path class="st56" d="M473.3,335.7c0.7,0.1,1.5-0.1,2-0.6c0.9-0.6,2.2-1.2,3.9-1.1c3.1,0.2,5.2,3,5.2,5.5c0,4.1-4.8,7.4-1.6,9.5
	c8.3,5.6,14,11.4,13.7,16.5c-0.3,5-3,6.3-4.6,6.6c-1.3,0.3-7.6,0.1-9.5,0c-0.3,0-0.6-0.2-0.7-0.5c-0.1-0.3,0-0.7,0.6-1.1
	c0.8-0.5,2.4-0.7,2.4-0.7s-2.1-1-2.3-2.5c-0.1-1.3,0-1.4,0-1.4l-4.4-2.5c0,0-0.7,6-0.7,6.9c0,0.8-0.1,2.2-0.8,2.4
	c-0.6,0.1-2.4,0.4-2.7-0.3c-0.4-0.7,0.6-1.2,1-1.5c0.3-0.2-0.3-3.3-0.3-3.3l0.3,3.4c0,0,0.3,1.3-0.8,1.3c-1,0-1.9,0.1-2.1-0.5
	c-0.3-0.6,1.1-1.3,1.1-1.3s-1.1-9.3-1.3-11.5c-0.4-4.6-0.5-5.7,1.2-11.3c0.9-2.8-0.6-5.7-1.7-6.4c-1.1-0.6-2.4-2.1-2.4-3.5
	s0.3-2.4,1.7-2.4C471.4,335.6,472.5,335.6,473.3,335.7z"/>
<path class="st54" d="M480,339.2c0,0-2.2,8.4-1,10.4c1.2,2,2.8,2.1,4.5,1.2c1.7-0.9,1.4-4.6,1-7.5c-0.3-2.8-0.9-4.5-1.4-4.9
	C481.9,337.3,480.3,337.4,480,339.2z"/>
<path class="st57" d="M470.9,335.6c0,0-0.7,1.6-1.9,1.8c0,0-0.3-1,0.3-1.5C469.8,335.4,470.9,335.6,470.9,335.6z"/>
<path class="st55" d="M482.3,366.3C482.3,366.3,482.3,366.3,482.3,366.3l0.1-0.1c0.2-2.2,2.2-3.4,2.2-3.4s0,0,0.1-0.1c0,0,0,0,0-0.1
	v-0.1v-0.1c0,0,0,0-0.1-0.1c0,0,0,0-0.1,0h-0.1h-0.1c-0.1,0.1-2.2,1.3-2.3,3.7C482.1,366.2,482.2,366.3,482.3,366.3z M473.2,358.3
	l1.5,9.4l0.3,3c0,0.1-0.1,0.3-0.1,0.3c-0.4,0.2-1.2,0.7-1,1.4c-0.2,0-0.4,0-0.6,0c-0.1-1.1,1.2-1.7,1.2-1.7L473.2,358.3z"/>
<path class="st58" d="M477.5,337.3c-0.3-0.1-0.6,0.1-0.8,0.4c-0.2,0.3-0.1,0.8,0.1,0.9c0.3,0.1,0.6-0.1,0.8-0.4
	C477.8,337.8,477.8,337.5,477.5,337.3z"/>
<path class="st55" d="M477.3,338.4c0.1,0.1,0.3,0.1,0.5,0.1c0.7,0,1.4-0.3,1.4-0.3c0.1,0,0.1-0.1,0.1-0.1s0-0.1,0-0.1
	c-0.1-0.1-0.1-0.1-0.3-0.1c0,0-1.1,0.6-1.9,0.1l-0.1-0.1C477,337.9,477.1,338.2,477.3,338.4z"/>
</svg>
