<svg version="1.1" xmlns="http://www.w3.org/2000/svg" xmlns:xlink="http://www.w3.org/1999/xlink" width="630" height="390" viewBox="0 0 630 390">
<style type="text/css">
	.st0{fill:#E9F0FA;}
	.st1{fill:#F7F8FC;}
	.st2{fill:#CCE3F6;}
	.st3{fill:#E7ECF3;}
	.st4{fill:#FFFFFF;}
	.st5{fill:#EAF6FD;}
	.st6{fill:#ECF7FE;}
	.st7{fill:#E9EDF4;}
	.st8{fill:#E08F73;}
	.st9{fill:#0B2B46;}
	.st10{fill:#F09976;}
	.st11{fill:#E8815F;}
	.st12{fill:#02819F;}
	.st13{fill:#05616B;}
	.st14{fill:#047487;}
	.st15{fill:#FFDA35;}
	.st16{fill:#EAB624;}
	.st17{fill:#311649;}
	.st18{fill:#114160;}
	.st19{opacity:0.24;fill:#EAF6FD;}
	.st20{fill:#132B45;}
	.st21{fill:#5BB0BE;}
	.st22{fill:#132C45;}
	.st23{opacity:0.3;fill:#020202;}
	.st24{fill:#E9505E;}
	.st25{fill:#BB3A49;}
	.st26{fill:#0F222C;}
	.st27{fill:#2C6292;}
	.st28{fill:#154774;}
	.st29{fill:#0B3052;}
	.st30{fill:#205381;}
	.st31{opacity:0.43;fill:#699FCF;}
	.st32{opacity:0.25;fill:#2F6494;}
	.st33{fill:#144674;}
	.st34{opacity:0.25;fill:#CFCCCD;}
	.st35{fill:#3A7FBC;}
	.st36{fill:#2F699D;}
	.st37{fill:#0C2F4F;}
	.st38{fill:#1D4259;}
	.st39{fill:#448DCE;}
	.st40{fill:#3270A7;}
	.st41{fill:#222846;}
	.st42{fill:#FF524F;}
	.st43{fill:#F2F2F2;}
	.st44{fill:#F19100;}
</style>
<path class="st0" d="M314.6,387.6c173.8,0,314.6-25.7,314.6-57.5s-140.9-57.5-314.6-57.5C140.9,272.6,0,298.3,0,330.1
	S140.9,387.6,314.6,387.6z"/>
<path class="st1" d="M572.5,300.9c35.9-74.6,55.6-217.2-22.1-264.6c-50.9-31-103.9,8.8-158.2,10.7c-42.7,1.4-83.9-32.3-122.4-42
	C169-20.2,10.2,45.4,80,300.9C254.5,300.4,398,301.4,572.5,300.9L572.5,300.9z"/>
<path class="st2" d="M374.1,114.3H492v200.1H374.1V114.3z"/>
<path class="st3" d="M374.1,114.3h36.7v200.1h-36.7V114.3z"/>
<path class="st4" d="M479.1,123.8h5.5v5.7h-5.5V123.8z M469.1,123.8h5.5v5.7h-5.5V123.8z M459.2,123.8h5.5v5.7h-5.5V123.8z
	 M449.3,123.8h5.5v5.7h-5.5V123.8z M439.4,123.8h5.5v5.7h-5.5V123.8z M429.5,123.8h5.5v5.7h-5.5V123.8z M419.6,123.8h5.5v5.7h-5.5
	V123.8z M401.5,123.8h5.5v5.7h-5.5V123.8z M391.6,123.8h5.5v5.7h-5.5V123.8z M381.6,123.8h5.5v5.7h-5.5V123.8z M479.1,135.8h5.5v5.7
	h-5.5V135.8z M469.1,135.8h5.5v5.7h-5.5V135.8z M459.2,135.8h5.5v5.7h-5.5V135.8z M449.3,135.8h5.5v5.7h-5.5V135.8z M439.4,135.8
	h5.5v5.7h-5.5V135.8z M429.5,135.8h5.5v5.7h-5.5V135.8z M419.6,135.8h5.5v5.7h-5.5V135.8z M401.5,135.8h5.5v5.7h-5.5V135.8z
	 M391.6,135.8h5.5v5.7h-5.5V135.8z M381.6,135.8h5.5v5.7h-5.5V135.8z M479.1,147.9h5.5v5.7h-5.5V147.9z M469.1,147.9h5.5v5.7h-5.5
	V147.9z M459.2,147.9h5.5v5.7h-5.5V147.9z M449.3,147.9h5.5v5.7h-5.5V147.9z M439.4,147.9h5.5v5.7h-5.5V147.9z M429.5,147.9h5.5v5.7
	h-5.5V147.9z M419.6,147.9h5.5v5.7h-5.5V147.9z M401.5,147.9h5.5v5.7h-5.5V147.9z M391.6,147.9h5.5v5.7h-5.5V147.9z M381.6,147.9
	h5.5v5.7h-5.5V147.9z M479.1,160h5.5v5.7h-5.5V160z M469.1,160h5.5v5.7h-5.5V160z M459.2,160h5.5v5.7h-5.5V160z M449.3,160h5.5v5.7
	h-5.5V160z M439.4,160h5.5v5.7h-5.5V160z M429.5,160h5.5v5.7h-5.5V160z M419.6,160h5.5v5.7h-5.5V160z M401.5,160h5.5v5.7h-5.5V160z
	 M391.6,160h5.5v5.7h-5.5V160z M381.6,160h5.5v5.7h-5.5V160z M479.1,172.1h5.5v5.7h-5.5V172.1z M469.1,172.1h5.5v5.7h-5.5V172.1z
	 M459.2,172.1h5.5v5.7h-5.5V172.1z M449.3,172.1h5.5v5.7h-5.5V172.1z M439.4,172.1h5.5v5.7h-5.5V172.1z M429.5,172.1h5.5v5.7h-5.5
	V172.1z M419.6,172.1h5.5v5.7h-5.5V172.1z M401.5,172.1h5.5v5.7h-5.5V172.1z M391.6,172.1h5.5v5.7h-5.5V172.1z M381.6,172.1h5.5v5.7
	h-5.5V172.1z M479.1,184.1h5.5v5.7h-5.5V184.1z M469.1,184.1h5.5v5.7h-5.5V184.1z M459.2,184.1h5.5v5.7h-5.5V184.1z M449.3,184.1
	h5.5v5.7h-5.5V184.1z M439.4,184.1h5.5v5.7h-5.5V184.1z M429.5,184.1h5.5v5.7h-5.5V184.1z M419.6,184.1h5.5v5.7h-5.5V184.1z
	 M401.5,184.1h5.5v5.7h-5.5V184.1z M391.6,184.1h5.5v5.7h-5.5V184.1z M381.6,184.1h5.5v5.7h-5.5V184.1z M479.1,196.2h5.5v5.7h-5.5
	V196.2z M469.1,196.2h5.5v5.7h-5.5V196.2z M459.2,196.2h5.5v5.7h-5.5V196.2z M449.3,196.2h5.5v5.7h-5.5V196.2z M439.4,196.2h5.5v5.7
	h-5.5V196.2z M429.5,196.2h5.5v5.7h-5.5V196.2z M419.6,196.2h5.5v5.7h-5.5V196.2z M401.5,196.2h5.5v5.7h-5.5V196.2z M391.6,196.2
	h5.5v5.7h-5.5V196.2z M381.6,196.2h5.5v5.7h-5.5V196.2z M479.1,208.2h5.5v5.7h-5.5V208.2z M469.1,208.2h5.5v5.7h-5.5V208.2z
	 M459.2,208.2h5.5v5.7h-5.5V208.2z M449.3,208.2h5.5v5.7h-5.5V208.2z M439.4,208.2h5.5v5.7h-5.5V208.2z M429.5,208.2h5.5v5.7h-5.5
	V208.2z M419.6,208.2h5.5v5.7h-5.5V208.2z M401.5,208.2h5.5v5.7h-5.5V208.2z M391.6,208.2h5.5v5.7h-5.5V208.2z M381.6,208.2h5.5v5.7
	h-5.5V208.2z M479.1,220.3h5.5v5.7h-5.5V220.3z M469.1,220.3h5.5v5.7h-5.5V220.3z M459.2,220.3h5.5v5.7h-5.5V220.3z M449.3,220.3
	h5.5v5.7h-5.5V220.3z M439.4,220.3h5.5v5.7h-5.5V220.3z M429.5,220.3h5.5v5.7h-5.5V220.3z M419.6,220.3h5.5v5.7h-5.5V220.3z
	 M401.5,220.3h5.5v5.7h-5.5V220.3z M391.6,220.3h5.5v5.7h-5.5V220.3z M381.6,220.3h5.5v5.7h-5.5V220.3z M479.1,232.3h5.5v5.7h-5.5
	V232.3z M469.1,232.3h5.5v5.7h-5.5V232.3z M459.2,232.3h5.5v5.7h-5.5V232.3z M449.3,232.3h5.5v5.7h-5.5V232.3z M439.4,232.3h5.5v5.7
	h-5.5V232.3z M429.5,232.3h5.5v5.7h-5.5V232.3z M419.6,232.3h5.5v5.7h-5.5V232.3z M401.5,232.3h5.5v5.7h-5.5V232.3z M391.6,232.3
	h5.5v5.7h-5.5V232.3z M381.6,232.3h5.5v5.7h-5.5V232.3z M479.1,244.5h5.5v5.7h-5.5V244.5z M469.1,244.5h5.5v5.7h-5.5V244.5z
	 M459.2,244.5h5.5v5.7h-5.5V244.5z M449.3,244.5h5.5v5.7h-5.5V244.5z M439.4,244.5h5.5v5.7h-5.5V244.5z M429.5,244.5h5.5v5.7h-5.5
	V244.5z M419.6,244.5h5.5v5.7h-5.5V244.5z M381.6,244.5h5.5v5.7h-5.5V244.5z M479.1,256.5h5.5v5.7h-5.5V256.5z M469.1,256.5h5.5v5.7
	h-5.5V256.5z M459.2,256.5h5.5v5.7h-5.5V256.5z M449.3,256.5h5.5v5.7h-5.5V256.5z M439.4,256.5h5.5v5.7h-5.5V256.5z M429.5,256.5
	h5.5v5.7h-5.5V256.5z M419.6,256.5h5.5v5.7h-5.5V256.5z M381.6,256.5h5.5v5.7h-5.5V256.5z M479.1,268.6h5.5v5.7h-5.5V268.6z
	 M469.1,268.6h5.5v5.7h-5.5V268.6z M459.2,268.6h5.5v5.7h-5.5V268.6z M449.3,268.6h5.5v5.7h-5.5V268.6z M439.4,268.6h5.5v5.7h-5.5
	V268.6z M429.5,268.6h5.5v5.7h-5.5V268.6z M419.6,268.6h5.5v5.7h-5.5V268.6z M381.6,268.6h5.5v5.7h-5.5V268.6z M479.1,280.6h5.5v5.7
	h-5.5V280.6z M469.1,280.6h5.5v5.7h-5.5V280.6z M459.2,280.6h5.5v5.7h-5.5V280.6z M449.3,280.6h5.5v5.7h-5.5V280.6z M439.4,280.6
	h5.5v5.7h-5.5V280.6z M429.5,280.6h5.5v5.7h-5.5V280.6z M419.6,280.6h5.5v5.7h-5.5V280.6z M381.6,280.6h5.5v5.7h-5.5V280.6z
	 M479.1,292.7h5.5v5.7h-5.5V292.7z M469.1,292.7h5.5v5.7h-5.5V292.7z M459.2,292.7h5.5v5.7h-5.5V292.7z M449.3,292.7h5.5v5.7h-5.5
	V292.7z M439.4,292.7h5.5v5.7h-5.5V292.7z M429.5,292.7h5.5v5.7h-5.5V292.7z M419.6,292.7h5.5v5.7h-5.5V292.7z M381.6,292.7h5.5v5.7
	h-5.5V292.7z"/>
<path class="st2" d="M281.2,148.7h109.5v165.7H281.2V148.7z"/>
<path class="st3" d="M281.2,148.7h34.1v165.7h-34.1V148.7z"/>
<path class="st4" d="M380.5,301l5.2,0l0-19l-5.2,0L380.5,301z M371,301l5.2,0l0-19l-5.2,0L371,301z M361.6,301l5.2,0l0-19l-5.2,0
	L361.6,301z M352,301.1l5.2,0l0-19l-5.2,0L352,301.1z M342.6,301.1l5.2,0l0-19l-5.2,0L342.6,301.1z M333.1,301.1l5.2,0l0-19l-5.2,0
	L333.1,301.1z M323.6,301.1l5.2,0l0-19l-5.2,0L323.6,301.1z M306.2,301.2l5.2,0l0-19l-5.2,0L306.2,301.2z M296.8,301.2l5.2,0l0-19
	l-5.2,0L296.8,301.2z M380.4,279.5l5.2,0l0-19l-5.2,0L380.4,279.5z M371,279.5l5.2,0l0-19l-5.2,0L371,279.5z M361.5,279.6l5.2,0
	l0-19l-5.2,0L361.5,279.6z M352,279.6l5.2,0l0-19l-5.2,0L352,279.6z M342.5,279.6l5.2,0l0-19l-5.2,0L342.5,279.6z M333.1,279.6
	l5.2,0l0-19l-5.2,0L333.1,279.6z M323.6,279.6l5.2,0l0-19l-5.2,0L323.6,279.6z M306.2,279.7l5.2,0l0-19l-5.2,0L306.2,279.7z
	 M296.7,279.7l5.2,0l0-19l-5.2,0L296.7,279.7z M287.3,279.7l5.2,0l0-19l-5.2,0L287.3,279.7z M380.4,258l5.2,0l0-19l-5.2,0L380.4,258
	z M370.9,258.1l5.2,0l0-19l-5.2,0L370.9,258.1z M361.5,258.1l5.2,0l0-19l-5.2,0L361.5,258.1z M351.9,258.1l5.2,0l0-19l-5.2,0
	L351.9,258.1z M342.5,258.1l5.2,0l0-19l-5.2,0L342.5,258.1z M333,258.1l5.2,0l0-19l-5.2,0L333,258.1z M323.6,258.2l5.2,0l0-19
	l-5.2,0L323.6,258.2z M306.1,258.2l5.2,0l0-19l-5.2,0L306.1,258.2z M296.7,258.2l5.2,0l0-19l-5.2,0L296.7,258.2z M287.2,258.2l5.2,0
	l0-19l-5.2,0L287.2,258.2z M380.4,236.5l5.2,0l0-19l-5.2,0L380.4,236.5z M370.9,236.6l5.2,0l0-19l-5.2,0L370.9,236.6z M361.4,236.6
	l5.2,0l0-19l-5.2,0L361.4,236.6z M351.9,236.6l5.2,0l0-19l-5.2,0L351.9,236.6z M342.4,236.6l5.2,0l0-19l-5.2,0L342.4,236.6z
	 M333,236.6l5.2,0l0-19l-5.2,0L333,236.6z M323.5,236.7l5.2,0l0-19l-5.2,0L323.5,236.7z M306.1,236.7l5.2,0l0-19l-5.2,0L306.1,236.7
	z M296.6,236.7l5.2,0l0-19l-5.2,0L296.6,236.7z M287.2,236.7l5.2,0l0-19l-5.2,0L287.2,236.7z M380.3,215.1l5.2,0l0-19l-5.2,0
	L380.3,215.1z M370.8,215.1l5.2,0l0-19l-5.2,0L370.8,215.1z M361.4,215.1l5.2,0l0-19l-5.2,0L361.4,215.1z M351.9,215.1l5.2,0l0-19
	l-5.2,0L351.9,215.1z M342.4,215.1l5.2,0l0-19l-5.2,0L342.4,215.1z M332.9,215.2l5.2,0l0-19l-5.2,0L332.9,215.2z M323.5,215.2l5.2,0
	l0-19l-5.2,0L323.5,215.2z M306.1,215.2l5.2,0l0-19l-5.2,0L306.1,215.2z M296.6,215.2l5.2,0l0-19l-5.2,0L296.6,215.2z M287.1,215.3
	l5.2,0l0-19l-5.2,0L287.1,215.3z M380.3,193.6l5.2,0l0-19l-5.2,0L380.3,193.6z M370.8,193.6l5.2,0l0-19l-5.2,0L370.8,193.6z
	 M361.3,193.6l5.2,0l0-19l-5.2,0L361.3,193.6z M351.8,193.6l5.2,0l0-19l-5.2,0L351.8,193.6z M342.3,193.6l5.2,0l0-19l-5.2,0
	L342.3,193.6z M332.9,193.7l5.2,0l0-19l-5.2,0L332.9,193.7z M323.4,193.7l5.2,0l0-19l-5.2,0L323.4,193.7z M306,193.7l5.2,0l0-19
	l-5.2,0L306,193.7z M296.5,193.7l5.2,0l0-19l-5.2,0L296.5,193.7z M287.1,193.8l5.2,0l0-19l-5.2,0L287.1,193.8z M380.2,172l5.2,0
	l0-19l-5.2,0L380.2,172z M370.8,172l5.2,0l0-19l-5.2,0L370.8,172z M361.3,172.1l5.2,0l0-19l-5.2,0L361.3,172.1z M351.8,172.1l5.2,0
	l0-19l-5.2,0L351.8,172.1z M342.3,172.1l5.2,0l0-19l-5.2,0L342.3,172.1z M332.8,172.1l5.2,0l0-19l-5.2,0L332.8,172.1z M323.4,172.1
	l5.2,0l0-19l-5.2,0L323.4,172.1z M306,172.2l5.2,0l0-19l-5.2,0L306,172.2z M296.5,172.2l5.2,0l0-19l-5.2,0L296.5,172.2z M287,172.2
	l5.2,0l0-19l-5.2,0L287,172.2z"/>
<path class="st2" d="M25.4,90.4h109.5v224H25.4V90.4z"/>
<path class="st3" d="M25.4,90.4h34.1v224H25.4V90.4z"/>
<path class="st4" d="M122.8,101.1h5v24.7h-5V101.1z M113.6,101.1h5v24.7h-5V101.1z M104.4,101.1h5v24.7h-5V101.1z M95.2,101.1h5
	v24.7h-5V101.1z M86,101.1h5v24.7h-5V101.1z M76.8,101.1h5v24.7h-5V101.1z M67.6,101.1h5v24.7h-5V101.1z M50.7,101.1h5v24.7h-5
	V101.1z M41.6,101.1h5v24.7h-5V101.1z M122.8,129.1h5v24.7h-5V129.1z M113.6,129.1h5v24.7h-5V129.1z M104.4,129.1h5v24.7h-5V129.1z
	 M95.2,129.1h5v24.7h-5V129.1z M86,129.1h5v24.7h-5V129.1z M76.8,129.1h5v24.7h-5V129.1z M67.6,129.1h5v24.7h-5V129.1z M50.7,129.1
	h5v24.7h-5V129.1z M41.6,129.1h5v24.7h-5V129.1z M32.4,129.1h5v24.7h-5V129.1z M122.8,157h5v24.7h-5V157z M113.6,157h5v24.7h-5V157z
	 M104.4,157h5v24.7h-5V157z M95.2,157h5v24.7h-5V157z M86,157h5v24.7h-5V157z M76.8,157h5v24.7h-5V157z M67.6,157h5v24.7h-5V157z
	 M50.7,157h5v24.7h-5V157z M41.6,157h5v24.7h-5V157z M32.4,157h5v24.7h-5V157z M122.8,185h5v24.7h-5V185z M113.6,185h5v24.7h-5V185z
	 M104.4,185h5v24.7h-5V185z M95.2,185h5v24.7h-5V185z M86,185h5v24.7h-5V185z M76.8,185h5v24.7h-5V185z M67.6,185h5v24.7h-5V185z
	 M50.7,185h5v24.7h-5V185z M41.6,185h5v24.7h-5V185z M32.4,185h5v24.7h-5V185z M122.8,212.9h5v24.7h-5V212.9z M113.6,212.9h5v24.7
	h-5V212.9z M104.4,212.9h5v24.7h-5V212.9z M95.2,212.9h5v24.7h-5V212.9z M86,212.9h5v24.7h-5V212.9z M76.8,212.9h5v24.7h-5V212.9z
	 M67.6,212.9h5v24.7h-5V212.9z M50.7,212.9h5v24.7h-5V212.9z M41.6,212.9h5v24.7h-5V212.9z M32.4,212.9h5v24.7h-5V212.9z
	 M122.8,240.9h5v24.7h-5V240.9z M113.6,240.9h5v24.7h-5V240.9z M104.4,240.9h5v24.7h-5V240.9z M95.2,240.9h5v24.7h-5V240.9z
	 M86,240.9h5v24.7h-5V240.9z M76.8,240.9h5v24.7h-5V240.9z M67.6,240.9h5v24.7h-5V240.9z M50.7,240.9h5v24.7h-5V240.9z M41.6,240.9
	h5v24.7h-5V240.9z M32.4,240.9h5v24.7h-5V240.9z M122.8,268.9h5v24.7h-5V268.9z M113.6,268.9h5v24.7h-5V268.9z M104.4,268.9h5v24.7
	h-5V268.9z M95.2,268.9h5v24.7h-5V268.9z M86,268.9h5v24.7h-5V268.9z M76.8,268.9h5v24.7h-5V268.9z M67.6,268.9h5v24.7h-5V268.9z
	 M50.7,268.9h5v24.7h-5V268.9z M41.6,268.9h5v24.7h-5V268.9z M32.4,268.9h5v24.7h-5V268.9z"/>
<path class="st2" d="M227,108.9h75.9v205.4H227V108.9z"/>
<path class="st5" d="M227,108.9h23.6v205.4H227V108.9z"/>
<path class="st4" d="M227,120.2h75.9v1.7H227V120.2z M227,133.7h75.9v1.7H227V133.7z M227,147.3h75.9v1.7H227V147.3z M227,160.9
	h75.9v1.7H227V160.9z M227,174.5h75.9v1.8H227V174.5z M227,188h75.9v1.7H227V188z M227,201.6h75.9v1.8H227V201.6z M227,215.1h75.9
	v1.8H227V215.1z M227,228.7h75.9v1.8H227V228.7z M227,242.2h75.9v1.8H227V242.2z M227,255.8h75.9v1.7H227V255.8z M227,269.3h75.9
	v1.8H227V269.3z M227,282.9h75.9v1.8H227V282.9z M227,296.5h75.9v1.7H227V296.5z"/>
<path class="st2" d="M491,149.9h119.2v164.5H491V149.9z"/>
<path class="st3" d="M491,149.9h37.1v164.5H491V149.9z"/>
<path class="st4" d="M491,158.8h119.2v1.4H491V158.8z M491,169.7h119.2v1.4H491V169.7z M491,180.6h119.2v1.4H491V180.6z M491,191.4
	h119.2v1.4H491V191.4z M491,202.3h119.2v1.4H491V202.3z M491,213.1h119.2v1.4H491V213.1z M491,224h119.2v1.4H491V224z M491,234.9
	h119.2v1.4H491V234.9z M491,245.7h119.2v1.4H491V245.7z M491,256.6h119.2v1.4H491V256.6z M491,267.5h119.2v1.4H491V267.5z
	 M491,278.3h119.2v1.4H491V278.3z M491,289.2h119.2v1.4H491V289.2z M491,300h119.2v1.4H491V300z"/>
<path class="st2" d="M103.2,29.6h139.2v284.8H103.2V29.6z"/>
<path class="st5" d="M103.2,29.6h43.4v284.8h-43.4V29.6z"/>
<path class="st4" d="M227,43.1h6.4v8.1H227V43.1z M215.3,43.1h6.4v8.1h-6.4V43.1z M203.6,43.1h6.4v8.1h-6.4V43.1z M191.9,43.1h6.4
	v8.1h-6.4V43.1z M180.2,43.1h6.4v8.1h-6.4V43.1z M168.5,43.1h6.4v8.1h-6.4V43.1z M156.8,43.1h6.4v8.1h-6.4V43.1z M135.5,43.1h6.4
	v8.1h-6.4V43.1z M123.8,43.1h6.4v8.1h-6.4V43.1z M112.1,43.1h6.4v8.1h-6.4V43.1z M227,60.3h6.4v8.1H227V60.3z M215.3,60.3h6.4v8.1
	h-6.4V60.3z M203.6,60.3h6.4v8.1h-6.4V60.3z M191.9,60.3h6.4v8.1h-6.4V60.3z M180.2,60.3h6.4v8.1h-6.4V60.3z M168.5,60.3h6.4v8.1
	h-6.4V60.3z M156.8,60.3h6.4v8.1h-6.4V60.3z M135.5,60.3h6.4v8.1h-6.4V60.3z M123.8,60.3h6.4v8.1h-6.4V60.3z M112.1,60.3h6.4v8.1
	h-6.4V60.3z M227,77.5h6.4v8.1H227V77.5z M215.3,77.5h6.4v8.1h-6.4V77.5z M203.6,77.5h6.4v8.1h-6.4V77.5z M191.9,77.5h6.4v8.1h-6.4
	V77.5z M180.2,77.5h6.4v8.1h-6.4V77.5z M168.5,77.5h6.4v8.1h-6.4V77.5z M156.8,77.5h6.4v8.1h-6.4V77.5z M135.5,77.5h6.4v8.1h-6.4
	V77.5z M123.8,77.5h6.4v8.1h-6.4V77.5z M112.1,77.5h6.4v8.1h-6.4V77.5z M227,94.6h6.4v8.1H227V94.6z M215.3,94.6h6.4v8.1h-6.4V94.6z
	 M203.6,94.6h6.4v8.1h-6.4V94.6z M191.9,94.6h6.4v8.1h-6.4V94.6z M180.2,94.6h6.4v8.1h-6.4V94.6z M168.5,94.6h6.4v8.1h-6.4V94.6z
	 M156.8,94.6h6.4v8.1h-6.4V94.6z M135.5,94.6h6.4v8.1h-6.4V94.6z M123.8,94.6h6.4v8.1h-6.4V94.6z M112.1,94.6h6.4v8.1h-6.4V94.6z
	 M227,111.8h6.4v8.1H227V111.8z M215.3,111.8h6.4v8.1h-6.4V111.8z M203.6,111.8h6.4v8.1h-6.4V111.8z M191.9,111.8h6.4v8.1h-6.4
	V111.8z M180.2,111.8h6.4v8.1h-6.4V111.8z M168.5,111.8h6.4v8.1h-6.4V111.8z M156.8,111.8h6.4v8.1h-6.4V111.8z M135.5,111.8h6.4v8.1
	h-6.4V111.8z M123.8,111.8h6.4v8.1h-6.4V111.8z M112.1,111.8h6.4v8.1h-6.4V111.8z M227,129h6.4v8.1H227V129z M215.3,129h6.4v8.1
	h-6.4V129z M203.6,129h6.4v8.1h-6.4V129z M191.9,129h6.4v8.1h-6.4V129z M180.2,129h6.4v8.1h-6.4V129z M168.5,129h6.4v8.1h-6.4V129z
	 M156.8,129h6.4v8.1h-6.4V129z M135.5,129h6.4v8.1h-6.4V129z M123.8,129h6.4v8.1h-6.4V129z M112.1,129h6.4v8.1h-6.4V129z M227,146.1
	h6.4v8.1H227V146.1z M215.3,146.1h6.4v8.1h-6.4V146.1z M203.6,146.1h6.4v8.1h-6.4V146.1z M191.9,146.1h6.4v8.1h-6.4V146.1z
	 M180.2,146.1h6.4v8.1h-6.4V146.1z M168.5,146.1h6.4v8.1h-6.4V146.1z M156.8,146.1h6.4v8.1h-6.4V146.1z M135.5,146.1h6.4v8.1h-6.4
	V146.1z M123.8,146.1h6.4v8.1h-6.4V146.1z M112.1,146.1h6.4v8.1h-6.4V146.1z M227,163.3h6.4v8.1H227V163.3z M215.3,163.3h6.4v8.1
	h-6.4V163.3z M203.6,163.3h6.4v8.1h-6.4V163.3z M191.9,163.3h6.4v8.1h-6.4V163.3z M180.2,163.3h6.4v8.1h-6.4V163.3z M168.5,163.3
	h6.4v8.1h-6.4V163.3z M156.8,163.3h6.4v8.1h-6.4V163.3z M135.5,163.3h6.4v8.1h-6.4V163.3z M123.8,163.3h6.4v8.1h-6.4V163.3z
	 M112.1,163.3h6.4v8.1h-6.4V163.3z M227,180.5h6.4v8.1H227V180.5z M215.3,180.5h6.4v8.1h-6.4V180.5z M203.6,180.5h6.4v8.1h-6.4
	V180.5z M191.9,180.5h6.4v8.1h-6.4V180.5z M180.2,180.5h6.4v8.1h-6.4V180.5z M168.5,180.5h6.4v8.1h-6.4V180.5z M156.8,180.5h6.4v8.1
	h-6.4V180.5z M135.5,180.5h6.4v8.1h-6.4V180.5z M123.8,180.5h6.4v8.1h-6.4V180.5z M112.1,180.5h6.4v8.1h-6.4V180.5z M227,197.7h6.4
	v8.1H227V197.7z M215.3,197.7h6.4v8.1h-6.4V197.7z M203.6,197.7h6.4v8.1h-6.4V197.7z M191.9,197.7h6.4v8.1h-6.4V197.7z M180.2,197.7
	h6.4v8.1h-6.4V197.7z M168.5,197.7h6.4v8.1h-6.4V197.7z M156.8,197.7h6.4v8.1h-6.4V197.7z M135.5,197.7h6.4v8.1h-6.4V197.7z
	 M123.8,197.7h6.4v8.1h-6.4V197.7z M112.1,197.7h6.4v8.1h-6.4V197.7z M227,214.8h6.4v8.1H227V214.8z M215.3,214.8h6.4v8.1h-6.4
	V214.8z M203.6,214.8h6.4v8.1h-6.4V214.8z M191.9,214.8h6.4v8.1h-6.4V214.8z M180.2,214.8h6.4v8.1h-6.4V214.8z M168.5,214.8h6.4v8.1
	h-6.4V214.8z M156.8,214.8h6.4v8.1h-6.4V214.8z M135.5,214.8h6.4v8.1h-6.4V214.8z M123.8,214.8h6.4v8.1h-6.4V214.8z M112.1,214.8
	h6.4v8.1h-6.4V214.8z M227,232h6.4v8.1H227V232z M215.3,232h6.4v8.1h-6.4V232z M203.6,232h6.4v8.1h-6.4V232z M191.9,232h6.4v8.1
	h-6.4V232z M180.2,232h6.4v8.1h-6.4V232z M168.5,232h6.4v8.1h-6.4V232z M156.8,232h6.4v8.1h-6.4V232z M135.5,232h6.4v8.1h-6.4V232z
	 M123.8,232h6.4v8.1h-6.4V232z M112.1,232h6.4v8.1h-6.4V232z M227,249.2h6.4v8.1H227V249.2z M215.3,249.2h6.4v8.1h-6.4V249.2z
	 M203.6,249.2h6.4v8.1h-6.4V249.2z M191.9,249.2h6.4v8.1h-6.4V249.2z M180.2,249.2h6.4v8.1h-6.4V249.2z M168.5,249.2h6.4v8.1h-6.4
	V249.2z M156.8,249.2h6.4v8.1h-6.4V249.2z M135.5,249.2h6.4v8.1h-6.4V249.2z M123.8,249.2h6.4v8.1h-6.4V249.2z M112.1,249.2h6.4v8.1
	h-6.4V249.2z M227,266.3h6.4v8.1H227V266.3z M215.3,266.3h6.4v8.1h-6.4V266.3z M203.6,266.3h6.4v8.1h-6.4V266.3z M191.9,266.3h6.4
	v8.1h-6.4V266.3z M180.2,266.3h6.4v8.1h-6.4V266.3z M168.5,266.3h6.4v8.1h-6.4V266.3z M156.8,266.3h6.4v8.1h-6.4V266.3z
	 M135.5,266.3h6.4v8.1h-6.4V266.3z M123.8,266.3h6.4v8.1h-6.4V266.3z M112.1,266.3h6.4v8.1h-6.4V266.3z M227,283.5h6.4v8.1H227
	V283.5z M215.3,283.5h6.4v8.1h-6.4V283.5z M203.6,283.5h6.4v8.1h-6.4V283.5z M191.9,283.5h6.4v8.1h-6.4V283.5z M180.2,283.5h6.4v8.1
	h-6.4V283.5z M168.5,283.5h6.4v8.1h-6.4V283.5z M156.8,283.5h6.4v8.1h-6.4V283.5z M135.5,283.5h6.4v8.1h-6.4V283.5z M123.8,283.5
	h6.4v8.1h-6.4V283.5z M112.1,283.5h6.4v8.1h-6.4V283.5z"/>
<path class="st5" d="M222.8,29.5H122.7V17.6c-0.1-5,4-9.1,9-9.2h81.9c5,0.1,9.1,4.1,9.2,9.2V29.5z"/>
<path class="st2" d="M50.7,329.1H32.2c0-1.9,1.5-3.4,3.4-3.4h11.7C49.2,325.7,50.7,327.2,50.7,329.1z"/>
<path class="st2" d="M44.5,304.7h-5.7c-0.6,0-1.1,0.4-1.2,1.1l-1,20.8h9.6l-0.5-20.8C45.7,305.2,45.2,304.7,44.5,304.7L44.5,304.7z"
	/>
<path class="st2" d="M38.6,297.3h5.6c0.7,0,1.3,0.6,1.3,1.3v5.2c0,0.7-0.6,1.3-1.3,1.3h-5.6c-0.7,0-1.3-0.6-1.3-1.3v-5.3
	C37.4,297.9,37.9,297.3,38.6,297.3L38.6,297.3z"/>
<path class="st2" d="M40.2,233.5h2.4v63.9h-2.4V233.5z"/>
<path class="st2" d="M46.5,235H36.3c-0.8,0-1.4-0.6-1.4-1.4c0-0.8,0.6-1.4,1.4-1.4h10.3c0.8,0,1.4,0.6,1.4,1.4
	C48,234.4,47.3,235,46.5,235L46.5,235z"/>
<path class="st4" d="M46.5,232.1h-10l-1.6-14.6h13.2L46.5,232.1z"/>
<path class="st2" d="M48.9,218.2H34c-0.8,0-1.4-0.6-1.4-1.4s0.6-1.4,1.4-1.4h14.9c0.8,0,1.4,0.6,1.4,1.4S49.7,218.2,48.9,218.2z
	 M43,210.6h-3.1v-1.4c0-0.8,0.7-1.5,1.5-1.5s1.5,0.7,1.5,1.5V210.6z"/>
<path class="st2" d="M49.6,215.7H33.4c0-3.2,2.6-5.8,5.8-5.8h4.6C47,209.9,49.6,212.5,49.6,215.7C49.6,215.7,49.6,215.7,49.6,215.7z
	"/>
<path class="st6" d="M590.1,222.1c3.5-0.7,6,3.2,6.6,6.6c0.3,1.8,0.3,3.9,1.7,5.1c0.6,0.4,1.2,0.8,1.9,1.1c3.9,2.1,4.2,6,4.2,9.9
	c-0.1,0.7,0.1,1.3,0.3,1.9c0.3,0.7,1,1,1.5,1.6c0.3,0.4,0.4,0.9,0.5,1.5c1,4.5,0.5,8.6,0.4,13.1c-0.2,31.8-16.7,30.3-16.7,30.3H590
	c-4-0.2-7.6-2.8-10-6c-2.4-3.3-3.8-7.5-4.6-11.6c-0.6-3-0.9-6.1-1-9.1c-0.2-3.3-0.8-6.4,0.3-9.6c0.6-1.4,1.4-2.9,1.5-4.5
	c0-1.7-1-3.3-1-5.1c0-1,0.2-2.1,0.6-3c0.8-2.4,1.9-4.8,3-7c1-1.7,3.1-2.7,3.7-4.6c0.1-0.8,0.2-1.6,0.1-2.5c0.1-4.1,3.5-6.9,7-7.9
	L590.1,222.1L590.1,222.1z"/>
<path class="st7" d="M593.2,325.8h-4l1.3-51l0.6-1.3L593.2,325.8z"/>
<path class="st8" d="M515.8,267.8c0.1,0.3,0.6,0.4,1.7,0.4c0.5,0,1.1,0,1.8-0.1c0.7-0.1,1.5-0.1,2.4-0.2c0.9-0.1,1.8-0.2,2.9-0.4
	c1.1-0.2,2.2-0.4,3.3-0.6c1.1-0.3,2.4-0.6,3.6-1.1c1.3-0.4,2.6-0.9,3.9-1.5c1.3-0.6,2.5-1.3,3.7-2c1.1-0.7,2.2-1.5,3.2-2.5
	c0.5-0.4,0.9-0.8,1.3-1.3c0.2-0.2,0.4-0.4,0.6-0.7c0.2-0.3,0.3-0.4,0.6-0.7c0.2-0.3,0.4-0.4,0.5-0.7l0.4-0.7
	c0.3-0.5,0.6-0.9,0.8-1.3c0.4-0.8,0.7-1.6,0.9-2.5c0.1-0.4,0.1-0.8,0.2-1.1c0-0.4,0.1-0.6,0.1-1v-0.4c0-0.1-0.1-0.3-0.1-0.3
	l-0.2-0.6c-0.1-0.3-0.4-0.6-0.7-0.6c-0.4-0.1-0.7-0.1-1,0.1c-0.2,0.1-0.4,0.1-0.6,0.3l-0.3,0.2l-0.3,0.2c-0.2,0.1-0.4,0.4-0.6,0.5
	c-0.2,0.2-0.5,0.4-0.7,0.6c-0.5,0.4-1,0.9-1.5,1.5l-0.8,0.8l-0.5,0.4c-0.1,0.1-0.3,0.3-0.5,0.4c-0.2,0.1-0.3,0.3-0.5,0.5l-0.6,0.5
	c-0.4,0.3-0.7,0.6-1.1,1c-0.8,0.6-1.6,1.3-2.5,2c-0.9,0.6-1.9,1.3-2.9,2c-1,0.6-2,1.3-3.1,1.8c-1.1,0.6-2,1.1-3,1.6
	c-1,0.5-2,1-2.9,1.4l-2.5,1.2l-2.1,1.1c-0.6,0.4-1.1,0.6-1.6,0.8C516.3,267.1,515.8,267.6,515.8,267.8L515.8,267.8z"/>
<path class="st9" d="M502.7,272.9l2.3,1.7v-0.1l11.5-5.4c0.6-0.3,1-1.1,0.7-1.7c-0.3-0.6-1.1-1-1.7-0.7c0,0-0.1,0-0.1,0.1l-12.7,6
	L502.7,272.9L502.7,272.9z M578.9,328.3c0,0-0.7,4.2-4.4,3.4l-3.2,14.8l13.2-16L578.9,328.3L578.9,328.3z"/>
<path class="st4" d="M573,347.3l12.5-15.2c0.2-0.2,0.1-0.6-0.1-0.8l-1-0.8l-13.2,16l1,0.8C572.5,347.6,572.9,347.5,573,347.3
	L573,347.3z M576.1,335.2c-0.1,0-0.1,0.1-0.2,0.1c-0.8-0.1-1.5,0.1-2.2,0.2c-0.1,0.1-0.4-0.1-0.4-0.2c-0.1-0.2,0.1-0.4,0.2-0.4
	c0.8-0.2,1.7-0.3,2.5-0.3c0.2,0,0.3,0.1,0.3,0.4C576.3,335,576.2,335.2,576.1,335.2L576.1,335.2z M575.6,337.1c-0.1,0-0.1,0.1-0.2,0
	c-0.8-0.1-1.5,0.1-2.2,0.2c-0.1,0.1-0.4,0-0.4-0.2c-0.1-0.2,0.1-0.4,0.2-0.4c0.8-0.2,1.7-0.3,2.5-0.3c0.2,0,0.3,0.1,0.3,0.4
	C575.8,336.9,575.8,337,575.6,337.1L575.6,337.1z M575.2,338.9c-0.1,0-0.1,0.1-0.2,0c-0.8-0.1-1.5,0.1-2.2,0.2
	c-0.1,0.1-0.4,0-0.4-0.2c-0.1-0.2,0.1-0.4,0.2-0.4c0.8-0.2,1.7-0.3,2.5-0.3c0.2,0,0.4,0.1,0.3,0.3
	C575.4,338.8,575.3,338.8,575.2,338.9L575.2,338.9z"/>
<path class="st9" d="M536.4,340.2c0,0-3.6,2.2-5.5-1.1l-13.2,7.4l20.8-0.6L536.4,340.2L536.4,340.2z"/>
<path class="st4" d="M518.4,348.3l19.5-0.5c0.4,0,0.7-0.3,0.6-0.7V346l-20.8,0.6v1.1C517.7,348,518.1,348.3,518.4,348.3L518.4,348.3
	z M529.4,342.6c-0.1,0-0.1-0.1-0.1-0.1c-0.5-0.6-1.1-1.1-1.7-1.5c-0.1-0.1-0.2-0.3-0.1-0.4c0.1-0.1,0.4-0.2,0.5-0.1
	c0.7,0.5,1.3,1.1,1.8,1.8c0.1,0.1,0.1,0.4-0.1,0.5C529.6,342.6,529.5,342.7,529.4,342.6L529.4,342.6z M527.8,343.5
	c-0.1,0-0.1-0.1-0.1-0.1c-0.5-0.6-1.1-1.1-1.7-1.5c-0.1-0.1-0.2-0.3-0.1-0.4c0.1-0.1,0.3-0.2,0.4-0.1c0.7,0.5,1.3,1.1,1.8,1.8
	c0.1,0.1,0.1,0.4-0.1,0.4C528,343.5,527.8,343.5,527.8,343.5L527.8,343.5z M526.1,344.4c-0.1,0-0.1-0.1-0.1-0.1
	c-0.5-0.6-1.1-1.1-1.7-1.5c-0.1-0.1-0.2-0.3-0.1-0.4c0.1-0.1,0.3-0.2,0.5-0.1c0.7,0.5,1.3,1.1,1.8,1.8c0.1,0.1,0.1,0.4-0.1,0.4
	C526.3,344.4,526.1,344.4,526.1,344.4L526.1,344.4z M542,255.1c-0.6,5.9-0.8,11.8-0.7,17.7c5.6,2.1,11.6,2.8,17.5,2.1
	c0.6-6,1.3-12,1.5-18c0.1-3.2,0.1-6.4-0.6-9.5c-0.6-2.7-2.1-5.3-4.3-7.1c-0.3-0.2-0.5-0.4-0.8-0.6c-1.7,1.1-3.8,1.3-5.7,0.6
	c-0.8,0.5-1.6,1.1-2.2,1.9c-1.2,1.3-2.2,2.9-2.8,4.6C542.9,249.5,542.3,252.3,542,255.1L542,255.1z"/>
<path class="st10" d="M546.7,242.1c1.5,0.4,3.1,0.5,4.6,0.2c0.8-0.1,1.6-0.4,2.4-0.8c0.6-0.3,1.1-0.6,1.7-1.1c0-0.1,0.1-0.2,0.1-0.3
	v-0.1c0-0.1-0.1-0.4-0.1-0.5c-0.2-1.7-0.4-3.4-0.6-5.1c-0.1-1.6-0.3-3.2-0.5-4.8c-1.8,0.8-3.6,1.8-5.2,2.9c-0.1,1.1-0.1,2.1-0.3,3.2
	c-0.1,0.9-0.3,1.8-0.4,2.7c-0.1,0.5-0.2,1-0.3,1.5c-0.1,0.5-0.2,0.9-0.3,1.3C547.3,241.4,547,241.8,546.7,242.1L546.7,242.1z"/>
<path class="st11" d="M548.4,238.3c1.9-0.5,4-0.9,6.4-4c-0.1-1.6-0.3-3.2-0.5-4.8c-1.8,0.8-3.6,1.8-5.2,2.9
	c-0.1,1.1-0.1,2.1-0.3,3.2C548.6,236.5,548.5,237.4,548.4,238.3z"/>
<path class="st12" d="M548.7,219.6c0.4-1.2,1.3-2.1,2.4-2.5c1.1-0.4,2.4-0.5,3.6-0.1c1.2,0.4,2.3,1.1,3.1,2c0.8,1,1.3,2.2,1.3,3.4
	c0,2-1.2,3.7-2.3,5.3C554.7,224.4,552,221.7,548.7,219.6z"/>
<path class="st13" d="M547.6,217.4c-0.5-0.4-1.1-0.6-1.8-0.6c-0.9,0.2-1.5,1.1-1.5,2s0.5,1.8,1.2,2.4c2,2.2,5.2,2.9,7.9,1.8
	c0.4-0.1,1.3-0.4,1.5-0.7c0.3-0.6-0.3-0.7-0.8-1L547.6,217.4L547.6,217.4z"/>
<path class="st9" d="M554,233.3c2.7-2.3,3.8-6,2.6-9.4c-0.1-0.2-0.3-0.5-0.4-0.7c-0.3-0.5-0.6-0.9-1.1-1.3c-0.8,1.1-1.4,2.5-1.8,3.9
	C552.8,228.2,553,230.9,554,233.3z M547,224.5c-0.6,1.3-0.3,2.9,0.5,4.1c0.7-1,1.2-2,1.4-3.2c0.1-0.3,0.1-0.6-0.1-0.9
	c-0.2-0.2-0.6-0.3-0.8-0.2C547.6,224.2,547.2,224.5,547,224.5L547,224.5z"/>
<path class="st10" d="M547.9,224c0.2,1.5-0.6,3.1-1.2,4.5c-0.6,1.4-1.3,3.1-0.8,4.6c0.6,1.5,2.2,2.5,3.9,2.3
	c1.7-0.2,3.1-1.2,3.9-2.7c0.8-1.5,1.1-3.1,1-4.8c-0.1-1.6-0.4-3.3-0.8-4.8C552,221.9,549.7,222.6,547.9,224L547.9,224z"/>
<path class="st10" d="M554.4,228.4c0.2-0.2,0.4-0.4,0.7-0.6c0.3-0.1,0.6-0.1,0.8-0.1c0.3,0.1,0.6,0.5,0.7,0.8c0.3,1-0.3,2-1.3,2.2
	c-0.5,0.1-1,0.1-1.4-0.2C554.2,229.9,554.3,229.2,554.4,228.4L554.4,228.4z"/>
<path class="st9" d="M546.7,225.1c2.3,0.1,4.6-0.3,6.7-1.5c-0.2,0.7-0.2,1.4-0.1,2.1c0.2,1,0.8,1.9,1.6,2.5c1-1.3,1.5-2.9,1.3-4.6
	c0-0.2-0.1-0.4-0.1-0.6c-0.3-0.5-0.6-0.9-1.1-1.3c-0.6-0.6-1.3-1.1-2.1-1.4c-2.1-0.9-4.5-0.8-6.4,0.4c-0.1,0.1-0.4,0.3-0.5,0.4
	c-0.3,0.4-0.7,0.8-0.9,1.3c-0.4,0.9,0,2,0.9,2.4C546.3,225,546.5,225.1,546.7,225.1L546.7,225.1z"/>
<path class="st14" d="M559.2,280c0,0-5.7,27.5,21.7,48.4l-7.9,8c0,0-30.7-22.8-26.4-50.5L559.2,280z"/>
<path class="st13" d="M559.6,295.9c-2.2,5.7-4.8,11.4-7.1,17.2c-4.5-7.8-7.5-17.2-6-27.3l12.7-5.9
	C559.2,280,557.7,286.6,559.6,295.9L559.6,295.9z"/>
<path class="st15" d="M457.6,223.2l0,114.3c0,2.3-1.7,4.2-4.1,4.5c-0.2,0-0.5,0.1-0.7,0h-48.5c-2.6,0-4.8-2-4.8-4.6l0-114.3
	c0-2.5,2.1-4.6,4.8-4.6h48.5c0.4,0,0.8,0,1.2,0.1c0.2,0,0.3,0.1,0.5,0.1c0.2,0.1,0.4,0.2,0.6,0.3C456.6,220,457.6,221.5,457.6,223.2
	L457.6,223.2z"/>
<path class="st16" d="M457.6,336.8h-58.1v5.2h58.1V336.8z"/>
<path class="st4" d="M406.5,289.5c-0.8,0-1.5-0.7-1.5-1.4v-24.5c0-0.8,0.7-1.4,1.5-1.4c0.8,0,1.5,0.7,1.5,1.4v24.5
	C408,288.9,407.3,289.5,406.5,289.5z M406.4,331.2c-0.8,0-1.5-0.7-1.5-1.4v-14.7c0-0.8,0.7-1.4,1.5-1.4c0.8,0,1.5,0.7,1.5,1.4v14.7
	C407.9,330.5,407.3,331.2,406.4,331.2z"/>
<path class="st16" d="M457.6,304.1h-58.1v2.6h58.1V304.1z"/>
<path class="st12" d="M542.1,250.1c-1.5,9.7-2.1,19.7-1.5,29.6c0,0-16.7,29.7-14.4,60.3l11.7,3.4c0,0,4.2-39.9,21-59.6l1.5-20
	l-12.6-2.6l-0.7-10.8L542.1,250.1L542.1,250.1z"/>
<path class="st14" d="M559.4,266c0.1,0,0.2-0.1,0.3-0.4c0.1-0.1,0.1-0.3,0.2-0.5c0.1-0.2,0.1-0.4,0.3-0.7l0.1-0.4l0.1-0.5l0.1-0.5
	c0.1-0.2,0.1-0.4,0.1-0.6c0.1-0.2,0.1-0.4,0.1-0.6l0.1-0.6c0.1-0.4,0.1-0.9,0.2-1.4c0.1-1,0.1-2.1,0.1-3.3c0-1.3-0.1-2.5-0.2-3.8
	c-0.1-1.4-0.4-2.7-0.7-4.1c-0.3-1.5-0.9-3-1.7-4.3c-0.4-0.7-1-1.4-1.5-2c-0.6-0.6-1.3-1.1-2.1-1.3c-0.4-0.1-0.8-0.3-1.2-0.4
	l-0.3-0.1h-0.8c-0.8,0.1-1.5,0.2-2.2,0.6c-0.6,0.3-1.3,0.6-1.8,1.1c-0.1,0.1-0.3,0.2-0.4,0.4L548,243l-0.3,0.3
	c-0.1,0.1-0.2,0.3-0.3,0.4c-0.4,0.5-0.7,1-1,1.5l-0.6,1.5c-0.3,0.8-0.5,1.8-0.6,2.7c-0.1,0.7-0.1,1.3-0.1,2c0,1.1,0.1,1.8,0.1,1.8
	s0.3-0.6,0.5-1.7c0.1-0.6,0.3-1.2,0.4-1.9c0.2-0.8,0.5-1.6,0.8-2.4c0.4-0.9,0.9-1.8,1.5-2.5l0.3-0.3l0.3-0.3l0.3-0.3
	c0.1-0.1,0.2-0.1,0.3-0.2c0.4-0.4,0.9-0.6,1.5-0.8c0.5-0.2,1.1-0.3,1.6-0.3h0.6l0.2,0.1c0.3,0.1,0.6,0.1,0.8,0.3
	c1.1,0.6,2,1.5,2.6,2.5c0.6,1.2,1.1,2.5,1.3,3.8c0.3,1.3,0.6,2.6,0.7,3.9c0.1,1.3,0.3,2.5,0.4,3.5s0.1,2.2,0.1,3.1v5.9
	C559.2,265.8,559.3,265.9,559.4,266L559.4,266z"/>
<path class="st9" d="M505.9,338.9l12.4-64.4l11.5-5.4c0.6-0.4,0.9-1.1,0.6-1.8c-0.3-0.6-1.1-0.8-1.7-0.6l-12.7,6l-0.1,0.6
	l-12.1,62.4L449.5,322c-0.7-0.1-1.4,0.4-1.5,1.1c-0.1,0.6,0.3,1.3,0.8,1.5L505.9,338.9z"/>
<path class="st9" d="M518.3,336.9l-8.1-22l-2.6,0.9l8.1,22L518.3,336.9z"/>
<path class="st9" d="M510,308.5l-22.8-5.5l-0.6,2.7l22.8,5.5L510,308.5z"/>
<path class="st9" d="M512.2,347.6c-4.1,0-7.4-3.3-7.4-7.4s3.3-7.4,7.4-7.4c4.1,0,7.4,3.3,7.4,7.4S516.3,347.6,512.2,347.6z"/>
<path class="st12" d="M512.2,344.9c-2.6,0-4.6-2.1-4.6-4.6c0-2.6,2.1-4.6,4.6-4.6c2.6,0,4.6,2.1,4.6,4.6
	C516.8,342.8,514.8,344.9,512.2,344.9z"/>
<path class="st17" d="M512.2,342.5c-1.2,0-2.2-1-2.2-2.2c0-1.2,1-2.2,2.2-2.2c1.2,0,2.2,1,2.2,2.2
	C514.4,341.5,513.4,342.5,512.2,342.5z"/>
<path class="st10" d="M522.9,268.7l0.4,0.4l0.3,0.3c0.1,0.1,0.2,0.1,0.4,0.3c0.3,0.1,0.6,0.4,0.9,0.6c0.3,0.2,0.7,0.4,1.1,0.6
	c0.4,0.2,0.8,0.4,1.3,0.6c0.5,0.2,1.1,0.3,1.5,0.5l0.4,0.1c0.1,0.1,0.3,0.1,0.4,0.1l0.9,0.2c0.3,0.1,0.6,0.1,1,0.1
	c0.4,0,0.6,0.1,1,0.1l1.1,0.1h2.2l1.2-0.1c0.4,0,0.8-0.1,1.2-0.1c0.4-0.1,0.8-0.1,1.3-0.2l1.3-0.3l1.3-0.4c1.8-0.6,3.5-1.3,5.1-2.2
	c1.6-1,3.1-2.1,4.4-3.5c0.4-0.4,0.6-0.6,0.9-1l0.8-1.1c0.3-0.3,0.5-0.7,0.8-1.1c0.3-0.4,0.5-0.7,0.7-1.1l0.6-1.1
	c0.2-0.4,0.4-0.7,0.5-1.1c0.1-0.2,0.1-0.4,0.2-0.6c0.1-0.2,0.1-0.4,0.2-0.6c0.1-0.4,0.2-0.6,0.4-0.9c-3.1-0.7-5.8-2.5-7.8-5
	c-0.1,0.1-0.1,0.2-0.1,0.3c-0.1,0.2-0.2,0.4-0.3,0.6l-0.3,0.6c-0.1,0.2-0.2,0.4-0.4,0.7c-0.1,0.1-0.1,0.2-0.2,0.4
	c-0.1,0.1-0.1,0.2-0.2,0.3c-0.1,0.2-0.3,0.5-0.4,0.7c-0.1,0.2-0.3,0.5-0.4,0.7c-0.1,0.2-0.3,0.5-0.4,0.7c-0.1,0.2-0.3,0.5-0.5,0.7
	l-0.5,0.7c-0.2,0.2-0.4,0.5-0.6,0.7c-0.8,1-1.6,1.9-2.5,2.7c-0.9,0.8-2,1.6-3,2.3l-0.8,0.5l-0.8,0.4l-0.8,0.4
	c-0.3,0.1-0.6,0.3-0.8,0.4l-0.8,0.4l-0.8,0.3l-0.4,0.1l-0.4,0.1l-0.8,0.2l-0.8,0.1c-0.3,0.1-0.6,0.1-0.8,0.1l-0.8,0.1l-0.3,0.1h-0.4
	c-0.5,0-1,0.1-1.4,0.1h-1.3c-0.4,0-0.8,0-1.1-0.1c-0.4-0.1-0.6-0.1-1-0.1h-1.3c-0.4,0-0.6,0.1-0.6,0.2
	C522.7,268.2,522.6,268.4,522.9,268.7L522.9,268.7z"/>
<path class="st10" d="M525.9,268.7c-1-1.8-3.2-2.4-4.9-1.4c-1.4,0.8-2.1,2.4-1.8,3.9C521.7,271.3,524.1,270.4,525.9,268.7z"/>
<path class="st8" d="M520.3,265.6c-2-1.1-4.4-1-6.4,0.1c-0.6,0.3-1.1,0.7-1.4,1.2c-0.4,0.5-0.6,1.1-0.4,1.8
	C515.1,268.8,518.1,267.8,520.3,265.6z"/>
<path class="st5" d="M458,256.5l57.8,14.4l-15,60.2c-0.5,1.7-2.2,2.8-3.9,2.4l-51.5-12.8c-1.7-0.5-2.8-2.2-2.4-3.9L458,256.5z"/>
<path class="st18" d="M505.6,286l-45.1-11.3c-0.7-0.2-1.4,0.3-1.6,1l-9.7,39.3c-0.2,0.7,0.3,1.4,1,1.6l45.1,11.3
	c0.7,0.2,1.4-0.3,1.6-1l9.7-39.3C506.8,287,506.4,286.2,505.6,286z"/>
<path class="st19" d="M498.3,312.9l-1,4.8l-39.1-32.9l0.9-3.8L498.3,312.9z M496.3,319.7l-1.5,6.1l-44.2-11.1l7-27.9L496.3,319.7z"
	/>
<path class="st20" d="M517.2,266l-57.8-14.4l-1.3,5.2l57.8,14.4L517.2,266z"/>
<path class="st12" d="M508.5,274l-44.3-11.2c-0.7-0.2-1.4,0.3-1.6,1l-1.4,5.7c-0.2,0.7,0.3,1.4,1,1.6l44.3,11.2
	c0.7,0.2,1.4-0.3,1.6-1l1.4-5.7C509.6,274.9,509.2,274.2,508.5,274z"/>
<path class="st21" d="M475.9,268.9l-10.4-2.6c-0.4-0.1-0.9,0.1-0.9,0.6c-0.1,0.4,0.1,0.9,0.6,1l10.4,2.6c0.4,0.1,0.9-0.1,0.9-0.6
	C476.6,269.5,476.4,269.1,475.9,268.9z"/>
<path class="st22" d="M465,253.5c0.3,0.1,0.5-0.1,0.6-0.3l1-3.8l3.4,2.9c0.2,0.2,0.5,0.2,0.6,0c0.2-0.2,0.2-0.5,0-0.6l-0.1-0.1
	l-4-3.4c-0.1-0.1-0.3-0.1-0.5-0.1c-0.1,0.1-0.3,0.2-0.3,0.3l-1.1,4.5C464.6,253.2,464.7,253.4,465,253.5L465,253.5z M471.5,255.1
	c0.3,0.1,0.5-0.1,0.5-0.3l0.5-2.1c0.1-0.3-0.1-0.5-0.4-0.5c-0.2,0-0.4,0.1-0.5,0.3l-0.5,2.1C471.1,254.8,471.3,255.1,471.5,255.1z
	 M478.1,256.8c0.3,0.1,0.5-0.1,0.6-0.3l1.1-4.5c0.1-0.1,0-0.3-0.1-0.5s-0.3-0.1-0.4-0.1l-5.1,1.2c-0.3,0.1-0.4,0.3-0.3,0.5
	c0.1,0.2,0.3,0.4,0.5,0.3l4.3-1l-1,3.8C477.7,256.4,477.9,256.7,478.1,256.8L478.1,256.8z M497.4,261.6c0.3,0.1,0.5-0.1,0.5-0.3
	l1-3.8l3.4,2.9c0.2,0.1,0.5,0.1,0.6-0.1c0.1-0.2,0.1-0.4-0.1-0.6l-4-3.4c-0.1-0.1-0.3-0.1-0.5-0.1s-0.3,0.2-0.3,0.3L497,261
	C497,261.3,497.2,261.5,497.4,261.6L497.4,261.6z M504,263.2c0.3,0.1,0.5-0.1,0.5-0.3l0.5-2.1c0.1-0.3-0.1-0.5-0.4-0.5
	c-0.2,0-0.4,0.1-0.5,0.3l-0.5,2.1C503.6,262.9,503.7,263.1,504,263.2z M510.6,264.9c0.3,0.1,0.5-0.1,0.6-0.3l1.1-4.5
	c0.1-0.1,0-0.3-0.1-0.5c-0.1-0.1-0.3-0.1-0.4-0.1l-5.1,1.2c-0.3,0.1-0.4,0.3-0.3,0.5c0.1,0.2,0.3,0.4,0.5,0.3l4.3-1l-1,3.8
	C510.2,264.6,510.4,264.8,510.6,264.9z"/>
<path class="st21" d="M488.1,285.8l-12.6-3.3c-0.7-0.2-1.5,0.3-1.7,1.1c-0.2,0.8,0.3,1.6,1,1.8l12.6,3.3c0.7,0.2,1.5-0.3,1.7-1.1
	C489.3,286.8,488.8,286,488.1,285.8z"/>
<path class="st2" d="M499.7,278.9c-1.5,0-2.8-1.3-2.8-2.8s1.3-2.8,2.8-2.8c1.5,0,2.8,1.3,2.8,2.8S501.2,278.9,499.7,278.9z"/>
<path class="st21" d="M499.7,278.2c-1.2,0-2.1-0.9-2.1-2.1c0-1.2,0.9-2.1,2.1-2.1c1.2,0,2.1,0.9,2.1,2.1
	C501.8,277.3,500.8,278.2,499.7,278.2z"/>
<path class="st2" d="M499.7,277.5c-0.8,0-1.4-0.8-1.4-1.8c0-1,0.6-1.8,1.4-1.8c0.8,0,1.4,0.8,1.4,1.8
	C501.1,276.7,500.4,277.5,499.7,277.5z"/>
<path class="st23" d="M498,276.2l2.6,1.3c0.4,0.2,0.9,0,1.1-0.4s0-0.9-0.4-1.1l-2.6-1.2c-0.4-0.2-0.9,0-1.1,0.4
	C497.4,275.5,497.6,276,498,276.2L498,276.2z"/>
<path class="st2" d="M498.1,275.5l2.5,1.2c0.4,0.2,0.9,0,1.1-0.4c0.2-0.4,0-0.9-0.4-1.1l-2.6-1.2c-0.4-0.2-0.9,0-1.1,0.4
	C497.5,274.8,497.6,275.3,498.1,275.5C498.1,275.5,498.1,275.5,498.1,275.5z"/>
<path class="st2" d="M491.9,276.8c-1.5,0-2.8-1.3-2.8-2.8c0-1.5,1.3-2.8,2.8-2.8c1.5,0,2.8,1.3,2.8,2.8
	C494.7,275.6,493.5,276.8,491.9,276.8z"/>
<path class="st21" d="M491.9,276.1c-1.2,0-2.1-0.9-2.1-2.1c0-1.2,0.9-2.1,2.1-2.1c1.2,0,2.1,0.9,2.1,2.1
	C494,275.2,493.1,276.1,491.9,276.1z"/>
<path class="st2" d="M492.3,275.4c-1,0-1.8-0.6-1.8-1.4c0-0.8,0.8-1.4,1.8-1.4c1,0,1.8,0.6,1.8,1.4
	C494,274.8,493.3,275.4,492.3,275.4z"/>
<path class="st23" d="M490.3,274.1l2.5,1.3c0.4,0.2,0.9,0,1.1-0.4c0.2-0.4,0-0.9-0.4-1.1l-2.5-1.2c-0.4-0.2-0.9,0-1.1,0.4
	C489.7,273.4,489.9,273.9,490.3,274.1L490.3,274.1z"/>
<path class="st2" d="M491,274.1l2.6,1.2c0.4,0.2,0.9,0,1.1-0.4c0.2-0.4,0-0.9-0.4-1.1l-2.6-1.2c-0.4-0.2-0.9,0-1.1,0.4
	C490.4,273.4,490.6,273.9,491,274.1z"/>
<path class="st2" d="M484.9,274.7c-1.5,0-2.8-1.1-2.8-2.5c0-1.4,1.3-2.5,2.8-2.5c1.5,0,2.8,1.1,2.8,2.5
	C487.7,273.6,486.5,274.7,484.9,274.7z"/>
<path class="st21" d="M484.9,274c-1.2,0-2.1-0.8-2.1-1.8c0-1,0.9-1.8,2.1-1.8c1.2,0,2.1,0.8,2.1,1.8C487,273.2,486.1,274,484.9,274z
	"/>
<path class="st20" d="M484.9,274c-0.8,0-1.4-0.8-1.4-1.8c0-1,0.6-1.8,1.4-1.8c0.8,0,1.4,0.8,1.4,1.8
	C486.3,273.2,485.7,274,484.9,274z"/>
<path class="st5" d="M484.6,272.6c-0.2,0-0.4-0.2-0.4-0.4c0-0.2,0.2-0.4,0.4-0.4c0.2,0,0.3,0.2,0.3,0.4
	C484.9,272.4,484.8,272.6,484.6,272.6z"/>
<path class="st24" d="M506.4,276.4l-1.4-0.3l-0.6,2.4l1.4,0.3L506.4,276.4z"/>
<path class="st25" d="M506.1,277.6l-1.4-0.3l-0.3,1.3l1.4,0.3L506.1,277.6z"/>
<path class="st2" d="M506.9,261.9l-4.9-1.2l-0.3,1.1l4.9,1.2L506.9,261.9z"/>
<path class="st22" d="M506.6,262.9l-4.9-1.2l-0.1,0.4l4.9,1.2L506.6,262.9z"/>
<path class="st2" d="M474.6,253.8l-4.9-1.2l-0.3,1.1l4.9,1.2L474.6,253.8z"/>
<path class="st22" d="M474.3,254.8l-4.9-1.2l-0.1,0.4l4.9,1.2L474.3,254.8z"/>
<path class="st23" d="M457.9,256.5l57.9,14.7l-1.9,8.4L456.9,260L457.9,256.5z"/>
<path class="st26" d="M128.8,324.4c0-5.3,1.5-10.5,4.3-15c2.8-4.4,6.8-7.9,11.5-9.9c4.7-2,9.9-2.6,14.8-1.5c5,1,9.6,3.6,13.2,7.4
	c3.6,3.8,6,8.6,7,13.8c1,5.2,0.5,10.6-1.5,15.6c-1.9,4.9-5.2,9.1-9.5,12.1c-4.2,3-9.2,4.5-14.3,4.5c-6.8,0-13.3-2.9-18.1-7.9
	C131.6,338.4,128.8,331.5,128.8,324.4L128.8,324.4z M269.6,324.7c0-5.3,1.5-10.4,4.3-14.8c2.8-4.4,6.8-7.8,11.4-9.8
	c4.7-2,9.8-2.5,14.7-1.5c4.9,1,9.5,3.6,13,7.3c3.6,3.7,6,8.5,7,13.7c1,5.2,0.5,10.5-1.5,15.4c-1.9,4.9-5.2,9-9.4,12
	c-4.2,2.9-9.1,4.5-14.1,4.5c-6.7,0-13.2-2.8-18-7.8C272.3,338.6,269.6,331.8,269.6,324.7L269.6,324.7z"/>
<path class="st27" d="M376.8,188.6h-91.8v121h91.8V188.6z"/>
<path class="st28" d="M327.8,307.4c0,0.1,0.1,0.3,0.2,0.4c0.1,0.1,0.2,0.2,0.4,0.2l30.1,0.1c0.1,0,0.3-0.1,0.4-0.2
	c0.1-0.1,0.2-0.2,0.2-0.4l0.1-37.8c0-0.1-0.1-0.3-0.2-0.4c-0.1-0.1-0.2-0.2-0.4-0.2l-30.1-0.1c-0.1,0-0.3,0.1-0.4,0.2
	s-0.2,0.2-0.2,0.4L327.8,307.4z"/>
<path class="st29" d="M327.9,274.8l0-5.2c0-0.1,0.1-0.3,0.2-0.4c0.1-0.1,0.2-0.2,0.4-0.2l30.1,0.1c0.1,0,0.3,0.1,0.4,0.2
	c0.1,0.1,0.2,0.2,0.2,0.4l0,5.2L327.9,274.8z"/>
<path class="st27" d="M330.5,289.5c0,2.6,0.7,5.1,2.2,7.2c1.4,2.1,3.4,3.8,5.8,4.8c2.4,1,5,1.3,7.5,0.8c2.5-0.5,4.8-1.7,6.6-3.5
	c1.8-1.8,3.1-4.1,3.6-6.6c0.5-2.5,0.3-5.1-0.7-7.5c-1-2.4-2.6-4.4-4.8-5.8c-2.1-1.4-4.6-2.2-7.2-2.2c-3.4,0-6.7,1.3-9.2,3.8
	C331.9,282.8,330.5,286.1,330.5,289.5L330.5,289.5z"/>
<path class="st30" d="M333.6,289.6c0,1.9,0.6,3.8,1.6,5.5c1.1,1.6,2.6,2.9,4.4,3.6c1.8,0.7,3.8,1,5.7,0.6c1.9-0.4,3.7-1.3,5-2.7
	c1.4-1.4,2.3-3.1,2.7-5c0.4-1.9,0.2-3.9-0.5-5.7c-0.7-1.8-2-3.3-3.6-4.4c-1.6-1.1-3.5-1.7-5.4-1.7c-1.3,0-2.6,0.2-3.8,0.7
	c-1.2,0.5-2.3,1.2-3.2,2.1c-0.9,0.9-1.6,2-2.1,3.2C333.9,287,333.7,288.3,333.6,289.6L333.6,289.6z"/>
<path class="st31" d="M336.1,289.6c0,1.5,0.4,2.9,1.2,4.1c0.8,1.2,2,2.2,3.3,2.7c1.3,0.6,2.8,0.7,4.3,0.4c1.4-0.3,2.7-1,3.8-2
	c1-1,1.7-2.3,2-3.8c0.3-1.4,0.1-2.9-0.4-4.3c-0.6-1.3-1.5-2.5-2.7-3.3c-1.2-0.8-2.6-1.2-4.1-1.3c-1,0-1.9,0.2-2.8,0.6
	c-0.9,0.4-1.7,0.9-2.4,1.6c-0.7,0.7-1.2,1.5-1.6,2.4C336.3,287.6,336.1,288.6,336.1,289.6L336.1,289.6z"/>
<path class="st32" d="M340.9,272.3c0,0.4,0.1,0.8,0.4,1.2c0.2,0.4,0.6,0.6,1,0.8c0.4,0.2,0.8,0.2,1.2,0.1c0.4-0.1,0.8-0.3,1.1-0.6
	c0.3-0.3,0.5-0.7,0.6-1.1c0.1-0.4,0-0.8-0.1-1.2c-0.2-0.4-0.4-0.7-0.8-1c-0.3-0.2-0.8-0.4-1.2-0.4c-0.3,0-0.6,0.1-0.8,0.2
	c-0.3,0.1-0.5,0.3-0.7,0.5c-0.2,0.2-0.4,0.4-0.5,0.7C340.9,271.8,340.9,272,340.9,272.3L340.9,272.3z"/>
<path class="st27" d="M341.3,271.9c0,0.4,0.1,0.8,0.4,1.2c0.2,0.4,0.6,0.6,1,0.8c0.4,0.2,0.8,0.2,1.2,0.1c0.4-0.1,0.8-0.3,1.1-0.6
	c0.3-0.3,0.5-0.7,0.6-1.1c0.1-0.4,0-0.8-0.1-1.2c-0.2-0.4-0.4-0.7-0.8-1c-0.3-0.2-0.8-0.4-1.2-0.4c-0.3,0-0.6,0.1-0.8,0.2
	c-0.3,0.1-0.5,0.3-0.7,0.5c-0.2,0.2-0.4,0.4-0.5,0.7C341.3,271.3,341.3,271.6,341.3,271.9z"/>
<path d="M344.2,270.8c0,0.1,0,0.1,0.1,0.2c0,0,0.1,0.1,0.1,0.1c0.1,0,0.1,0,0.2,0c0.1,0,0.1,0,0.2-0.1c0,0,0.1-0.1,0.1-0.2
	c0-0.1,0-0.1,0-0.2c0-0.1-0.1-0.1-0.1-0.1c-0.1,0-0.1-0.1-0.2-0.1c-0.1,0-0.2,0-0.2,0.1C344.2,270.6,344.2,270.7,344.2,270.8
	L344.2,270.8z"/>
<path class="st27" d="M357.8,270.4l-9.4,0l0,1.7l9.4,0L357.8,270.4z"/>
<path class="st33" d="M356.7,270.7l-7.2,0l0,1.2l7.2,0L356.7,270.7z"/>
<path class="st34" d="M336.9,273.6c0,0.2,0,0.3,0.1,0.4s0.2,0.2,0.4,0.3c0.1,0.1,0.3,0.1,0.5,0c0.2,0,0.3-0.1,0.4-0.2
	c0.1-0.1,0.2-0.3,0.2-0.4c0-0.2,0-0.3,0-0.5c-0.1-0.1-0.2-0.3-0.3-0.4c-0.1-0.1-0.3-0.1-0.4-0.1c-0.2,0-0.4,0.1-0.6,0.2
	C337,273.2,336.9,273.4,336.9,273.6L336.9,273.6z M333.8,273.6c0,0.2,0,0.3,0.1,0.4s0.2,0.2,0.4,0.3c0.1,0.1,0.3,0.1,0.5,0
	c0.2,0,0.3-0.1,0.4-0.2c0.1-0.1,0.2-0.3,0.2-0.4c0-0.2,0-0.3,0-0.5c-0.1-0.1-0.2-0.3-0.3-0.4c-0.1-0.1-0.3-0.1-0.4-0.1
	c-0.2,0-0.4,0.1-0.6,0.2C333.9,273.1,333.8,273.3,333.8,273.6L333.8,273.6z M330.7,273.5c0,0.2,0,0.3,0.1,0.4
	c0.1,0.1,0.2,0.2,0.4,0.3c0.1,0.1,0.3,0.1,0.5,0c0.2,0,0.3-0.1,0.4-0.2c0.1-0.1,0.2-0.3,0.2-0.4c0-0.2,0-0.3,0-0.5
	c-0.1-0.1-0.2-0.3-0.3-0.4c-0.1-0.1-0.3-0.1-0.4-0.1c-0.1,0-0.2,0-0.3,0.1c-0.1,0-0.2,0.1-0.3,0.2c-0.1,0.1-0.1,0.2-0.2,0.3
	C330.7,273.3,330.7,273.4,330.7,273.5z"/>
<path class="st27" d="M337.1,273.4c0,0.2,0,0.3,0.1,0.4c0.1,0.1,0.2,0.2,0.4,0.3c0.1,0.1,0.3,0.1,0.5,0c0.2,0,0.3-0.1,0.4-0.2
	c0.1-0.1,0.2-0.3,0.2-0.4c0-0.2,0-0.3,0-0.5c-0.1-0.1-0.2-0.3-0.3-0.4c-0.1-0.1-0.3-0.1-0.4-0.1c-0.1,0-0.2,0-0.3,0.1
	c-0.1,0-0.2,0.1-0.3,0.2c-0.1,0.1-0.1,0.2-0.2,0.3C337.1,273.2,337.1,273.3,337.1,273.4z M334,273.4c0,0.2,0,0.3,0.1,0.4
	c0.1,0.1,0.2,0.2,0.4,0.3c0.1,0.1,0.3,0.1,0.5,0c0.2,0,0.3-0.1,0.4-0.2c0.1-0.1,0.2-0.3,0.2-0.4c0-0.2,0-0.3,0-0.5
	c-0.1-0.1-0.2-0.3-0.3-0.4c-0.1-0.1-0.3-0.1-0.4-0.1c-0.2,0-0.4,0.1-0.6,0.2C334.1,273,334,273.2,334,273.4z M330.9,273.4
	c0,0.2,0,0.3,0.1,0.4s0.2,0.2,0.4,0.3c0.1,0.1,0.3,0.1,0.5,0c0.2,0,0.3-0.1,0.4-0.2c0.1-0.1,0.2-0.3,0.2-0.4c0-0.2,0-0.3,0-0.5
	s-0.2-0.3-0.3-0.4c-0.1-0.1-0.3-0.1-0.4-0.1c-0.2,0-0.4,0.1-0.6,0.2S330.9,273.2,330.9,273.4z M332.7,285.6c0.6-0.2,1.3-0.2,1.9-0.1
	c0.6,0.1,1.2,0.4,1.7,0.8c0.5,0.4,0.9,0.9,1.2,1.5c0.3,0.6,0.4,1.2,0.4,1.9c0,0.6-0.2,1.3-0.4,1.8c-0.3,0.6-0.7,1.1-1.2,1.5
	c-0.5,0.4-1.1,0.6-1.7,0.8c-0.6,0.1-1.3,0.1-1.9-0.1L332.7,285.6z"/>
<path class="st35" d="M290.3,265.6l9.6,0.3v42l-9.6,0.1V265.6z"/>
<path class="st36" d="M336.4,265.9h-36.5v41.7h36.5V265.9z"/>
<path class="st37" d="M331,279.4h-25.5c-0.6,0-1.1,0.5-1.1,1.2l-0.1,22.6c0,0.7,0.5,1.2,1,1.2h25.5c0.6,0,1.1-0.5,1.1-1.2l0.1-22.6
	C332.1,279.9,331.6,279.4,331,279.4z"/>
<path class="st28" d="M330.1,280.4h-23.6c-0.6,0-1,0.3-1,0.7v21.3c0,0.4,0.5,0.7,1,0.7h23.6c0.6,0,1-0.3,1-0.7v-21.3
	C331,280.7,330.6,280.4,330.1,280.4z"/>
<path class="st28" d="M330.4,269.1h-5.8c-1.4,0-2.6,1.2-2.6,2.8c0,1.5,1.2,2.8,2.6,2.8h5.8c1.4,0,2.6-1.2,2.6-2.8
	C333,270.4,331.9,269.1,330.4,269.1z"/>
<path class="st35" d="M329.9,274.4c-1.2,0-2.2-1-2.2-2.3c0-1.3,1-2.3,2.2-2.3c1.2,0,2.2,1,2.2,2.3
	C332.1,273.4,331.1,274.4,329.9,274.4z"/>
<path class="st38" d="M290.2,307.8H58.7c-2.3,0-4,2.1-4,4.7v10.2c0,2.6,1.8,4.7,4,4.7h231.5V307.8z"/>
<path class="st39" d="M60.8,307.8H165v-90.1h-52.3c-5,0-10,1.3-14.4,3.8c-4.4,2.5-8.2,6.1-11,10.5l-21.3,33.4
	c-3.4,5.4-5.2,11.7-5.2,18.2L60.8,307.8z"/>
<path class="st26" d="M140.9,271v-43.2h-27.5c-3.5,0-6.9,0.9-10,2.6c-3.1,1.7-5.7,4.2-7.7,7.2L74.2,271L140.9,271z"/>
<path class="st40" d="M163.2,217.8h-9.7v90.1h9.7V217.8z"/>
<path class="st41" d="M129.4,278.2h9.3c0.6,0,1.1-0.2,1.5-0.6c0.4-0.4,0.6-1,0.6-1.6v-1.3h-13.6v1.3c0,0.6,0.3,1.2,0.7,1.6
	C128.3,277.9,128.9,278.2,129.4,278.2L129.4,278.2z"/>
<path class="st15" d="M68.9,296.4c0-2.3-0.9-4.4-2.4-6c-1.5-1.6-3.6-2.5-5.8-2.5V305c2.2,0,4.2-0.9,5.8-2.6
	C68.1,300.8,68.9,298.7,68.9,296.4L68.9,296.4z"/>
<path class="st9" d="M376.3,307.8h-86.1c-0.7,0-1.4,0.1-2.1,0.4c-0.7,0.3-1.3,0.7-1.8,1.3c-0.5,0.5-0.9,1.2-1.2,1.9
	c-0.3,0.7-0.4,1.5-0.4,2.2v8c0,1.5,0.6,3,1.6,4.1c1,1.1,2.4,1.7,3.9,1.7h86.1c1.5,0,2.9-0.6,3.9-1.7c1-1.1,1.6-2.6,1.6-4.1v-8
	c0-1.5-0.6-3-1.6-4.1C379.2,308.5,377.8,307.9,376.3,307.8z"/>
<path class="st42" d="M300.2,317.7c0-0.8-0.2-1.6-0.7-2.3c-0.4-0.7-1.1-1.2-1.8-1.5c-0.7-0.3-1.5-0.4-2.3-0.2s-1.5,0.6-2,1.1
	c-0.6,0.6-0.9,1.3-1.1,2.1c-0.2,0.8-0.1,1.6,0.2,2.4c0.3,0.8,0.8,1.4,1.5,1.9c0.7,0.5,1.4,0.7,2.2,0.7c0.5,0,1-0.1,1.5-0.3
	c0.5-0.2,0.9-0.5,1.3-0.9c0.4-0.4,0.7-0.8,0.9-1.3S300.2,318.2,300.2,317.7L300.2,317.7z"/>
<path class="st15" d="M307,317.7c0-0.5-0.2-1.1-0.6-1.4c-0.4-0.4-0.8-0.6-1.4-0.6h0c-0.5,0-1,0.2-1.4,0.6c-0.4,0.4-0.6,0.9-0.6,1.4
	c0,0.3,0.1,0.5,0.2,0.8c0.1,0.2,0.2,0.5,0.4,0.7c0.2,0.2,0.4,0.3,0.6,0.4c0.2,0.1,0.5,0.2,0.7,0.2h0.1c0.5,0,1-0.2,1.3-0.5
	c0.4-0.3,0.6-0.8,0.6-1.3V317.7z"/>
<path class="st42" d="M368.7,317.7c0,0.8,0.2,1.6,0.7,2.3c0.4,0.7,1.1,1.2,1.8,1.5c0.7,0.3,1.5,0.4,2.3,0.2c0.8-0.2,1.5-0.6,2-1.1
	c0.6-0.6,0.9-1.3,1.1-2.1c0.2-0.8,0.1-1.6-0.2-2.4c-0.3-0.8-0.8-1.4-1.5-1.9c-0.7-0.5-1.4-0.7-2.2-0.7c-1.1,0-2.1,0.5-2.8,1.2
	C369.2,315.5,368.8,316.6,368.7,317.7z"/>
<path class="st15" d="M361.9,317.7c0,0.4,0.1,0.8,0.3,1.1c0.2,0.3,0.5,0.6,0.9,0.8c0.4,0.2,0.7,0.2,1.1,0.1c0.4-0.1,0.7-0.3,1-0.6
	c0.3-0.3,0.5-0.6,0.5-1c0.1-0.4,0-0.8-0.1-1.2c-0.1-0.4-0.4-0.7-0.7-0.9c-0.3-0.2-0.7-0.3-1.1-0.3c-0.5,0-1,0.2-1.4,0.5
	c-0.4,0.4-0.6,0.9-0.6,1.4V317.7z"/>
<path class="st40" d="M376.8,187.1h-86.6l-0.9,5.8h87.5V187.1z"/>
<path class="st43" d="M153.5,288.5L110.2,303c0,0,4.3,3,5.7,4.9h37.6V288.5z"/>
<path class="st44" d="M110.2,303l43.3-14.5v-9.9l-50.8,21.2C105.3,300.3,107.9,301.4,110.2,303L110.2,303z"/>
<path class="st39" d="M290.3,187.1h-127v120.7h127V187.1z"/>
<path class="st43" d="M290.3,283.5l-127,3.8v20.6h127V283.5z"/>
<path class="st26" d="M234.3,298.9c7.2,0,14.1,3,19.2,8.4c5.1,5.3,8,12.6,8,20.1h-54.4c0-3.7,0.7-7.4,2-10.9s3.4-6.6,5.9-9.2
	c2.5-2.6,5.5-4.7,8.8-6.2c3.3-1.4,6.8-2.2,10.4-2.2H234.3z"/>
<path class="st26" d="M237.8,303.3c5.9,0.1,11.5,2.6,15.7,7c4.2,4.3,6.6,10.2,6.8,16.4c0.2,6.2-1.9,12.2-5.9,16.7
	c-3.9,4.6-9.4,7.4-15.3,7.9h-7.6v-48L237.8,303.3L237.8,303.3z"/>
<path class="st9" d="M210.4,327.3c0-4.8,1.3-9.4,3.9-13.3c2.5-4,6.1-7,10.3-8.8c4.2-1.8,8.8-2.3,13.2-1.4c4.4,0.9,8.5,3.2,11.7,6.6
	c3.2,3.4,5.4,7.6,6.3,12.3c0.9,4.7,0.4,9.5-1.3,13.9c-1.7,4.4-4.7,8.1-8.4,10.8c-3.8,2.6-8.2,4-12.7,4c-6.1,0-11.9-2.5-16.2-7
	C212.8,339.8,210.4,333.7,210.4,327.3L210.4,327.3z"/>
<path class="st43" d="M233.2,339.1c-6.2,0-11.2-5.3-11.2-11.8s5-11.8,11.2-11.8c6.2,0,11.2,5.3,11.2,11.8S239.4,339.1,233.2,339.1z"
	/>
<path class="st44" d="M163.3,287.3l127-3.8v-12.3l-127.1,6L163.3,287.3L163.3,287.3z"/>
<path class="st26" d="M96.1,298.9c7.2,0,14.1,3,19.2,8.4c5.1,5.3,8,12.6,8,20.1H68.9c0-3.7,0.7-7.4,2-10.9s3.3-6.6,5.9-9.2
	c2.5-2.6,5.5-4.7,8.8-6.2c3.3-1.4,6.8-2.2,10.4-2.2H96.1z"/>
<path class="st26" d="M99.7,303.3c5.9,0.1,11.5,2.6,15.7,7c4.2,4.3,6.6,10.2,6.7,16.4c0.2,6.2-1.9,12.2-5.9,16.7
	c-3.9,4.6-9.4,7.4-15.3,7.9h-7.6v-48L99.7,303.3L99.7,303.3z"/>
<path class="st9" d="M72.2,327.3c0-4.8,1.3-9.4,3.9-13.3c2.5-4,6.1-7,10.3-8.8c4.2-1.8,8.8-2.3,13.2-1.4c4.4,0.9,8.5,3.2,11.7,6.6
	c3.2,3.4,5.4,7.6,6.3,12.3c0.9,4.7,0.4,9.5-1.3,13.9c-1.7,4.4-4.7,8.1-8.4,10.8c-3.8,2.6-8.2,4-12.7,4c-6.1,0-11.9-2.5-16.2-7
	C74.6,339.8,72.2,333.7,72.2,327.3L72.2,327.3z"/>
<path class="st43" d="M95.1,339.1c-6.2,0-11.2-5.3-11.2-11.8s5-11.8,11.2-11.8c6.2,0,11.2,5.3,11.2,11.8S101.3,339.1,95.1,339.1z"/>
</svg>
