<svg version="1.1" xmlns="http://www.w3.org/2000/svg" xmlns:xlink="http://www.w3.org/1999/xlink" width="600" height="340" viewBox="0 0 600 340">
<style type="text/css">
	.st0{fill:#EAF1FC;}
	.st1{fill:#F8F8FF;}
	.st2{fill:#CDE4F7;}
	.st3{fill:#E9EDF4;}
	.st4{fill:#FFFFFF;}
	.st5{fill:#ECF7FE;}
	.st6{fill:#0F222C;}
	.st7{fill:#2D75B8;}
	.st8{fill:#F2F2F2;}
	.st9{fill:#F19100;}
	.st10{fill:#1457A5;}
	.st11{fill:#FFDA35;}
	.st12{fill:#1D4259;}
	.st13{fill:#222846;}
	.st14{fill:#0B2B46;}
	.st15{fill:#448DCE;}
	.st16{fill:#2464A0;}
	.st17{fill:#CE3836;}
	.st18{fill:#FF524F;}
	.st19{fill:#02819F;}
	.st20{fill:#E8815F;}
	.st21{fill:#F09976;}
	.st22{fill:#05616B;}
</style>
<path class="st0" d="M299.3,337.6c165.3,0,299.3-19.2,299.3-42.9s-134-42.9-299.3-42.9C134,251.7,0,270.9,0,294.7
	S134,337.6,299.3,337.6z"/>
<path class="st1" d="M542.6,278.5c37.2-69,57.6-201.1-22.9-245C467,4.9,412,41.8,355.6,43.4c-44.2,1.3-87-29.9-126.9-38.8
	C124.1-18.7-40.6,42,31.8,278.5C212.8,278,361.6,279,542.6,278.5z"/>
<path class="st2" d="M24.2,78h104.2v213.3H24.2V78z"/>
<path class="st3" d="M24.2,78h32.5v213.3H24.2V78z"/>
<path class="st4" d="M90.1,83.3h4.9v23.9h-4.9V83.3z M81.1,83.3H86v23.9h-4.9V83.3z M72.2,83.3h4.9v23.9h-4.9V83.3z M63.2,83.3h4.9
	v23.9h-4.9V83.3z M46.8,83.3h4.9v23.9h-4.9V83.3z M37.9,83.3h4.9v23.9h-4.9V83.3z M28.9,83.3h4.9v23.9h-4.9V83.3z M90.1,110.4h4.9
	v23.9h-4.9V110.4z M81.1,110.4H86v23.9h-4.9V110.4z M72.2,110.4h4.9v23.9h-4.9V110.4z M63.2,110.4h4.9v23.9h-4.9V110.4z M46.8,110.4
	h4.9v23.9h-4.9V110.4z M37.9,110.4h4.9v23.9h-4.9V110.4z M28.9,110.4h4.9v23.9h-4.9V110.4z M90.1,137.5h4.9v23.9h-4.9V137.5z
	 M81.1,137.5H86v23.9h-4.9V137.5z M72.2,137.5h4.9v23.9h-4.9V137.5z M63.2,137.5h4.9v23.9h-4.9V137.5z M46.8,137.5h4.9v23.9h-4.9
	V137.5z M37.9,137.5h4.9v23.9h-4.9V137.5z M28.9,137.5h4.9v23.9h-4.9V137.5z M90.1,164.5h4.9v23.9h-4.9V164.5z M81.1,164.5H86v23.9
	h-4.9V164.5z M72.2,164.5h4.9v23.9h-4.9V164.5z M63.2,164.5h4.9v23.9h-4.9V164.5z M46.8,164.5h4.9v23.9h-4.9V164.5z M37.9,164.5h4.9
	v23.9h-4.9V164.5z M28.9,164.5h4.9v23.9h-4.9V164.5z M81.1,191.5H86v23.9h-4.9V191.5z M72.2,191.5h4.9v23.9h-4.9V191.5z M63.2,191.5
	h4.9v23.9h-4.9V191.5z M46.8,191.5h4.9v23.9h-4.9V191.5z M37.9,191.5h4.9v23.9h-4.9V191.5z M28.9,191.5h4.9v23.9h-4.9V191.5z
	 M72.2,218.6h4.9v23.9h-4.9V218.6z M63.2,218.6h4.9v23.9h-4.9V218.6z M46.8,218.6h4.9v23.9h-4.9V218.6z M37.9,218.6h4.9v23.9h-4.9
	V218.6z M28.9,218.6h4.9v23.9h-4.9V218.6z M72.2,245.7h4.9v23.9h-4.9V245.7z M63.2,245.7h4.9v23.9h-4.9V245.7z M46.8,245.7h4.9v23.9
	h-4.9V245.7z M37.9,245.7h4.9v23.9h-4.9V245.7z M28.9,245.7h4.9v23.9h-4.9V245.7z"/>
<path class="st2" d="M216,95.7h72.2v195.6H216V95.7z"/>
<path class="st5" d="M216,95.7h22.5v195.6H216V95.7z"/>
<path class="st4" d="M215.1,103.1h72v1.3h-72V103.1z M215.1,113.5h72v1.3h-72V113.5z M215.1,123.9h72v1.3h-72V123.9z M215.1,134.2
	h72v1.3h-72V134.2z M215.1,144.6h72v1.3h-72V144.6z M215.1,154.9h72v1.3h-72V154.9z M215.1,165.3h72v1.3h-72V165.3z M215.1,175.7h72
	v1.3h-72V175.7z M215.1,186.1h72v1.3h-72V186.1z M215.1,196.4h72v1.3h-72V196.4z M215.1,206.8h72v1.3h-72V206.8z M215.1,217.2h72
	v1.3h-72V217.2z M215.1,227.6h72v1.3h-72V227.6z M215.1,237.9h72v1.3h-72V237.9z"/>
<path class="st2" d="M98.2,20.2h132.4v271.2H98.2V20.2z"/>
<path class="st5" d="M98.2,20.2h41.3v271.2H98.2V20.2z"/>
<path class="st4" d="M219.8,32.5h6.6v8.2h-6.6V32.5z M207.9,32.5h6.6v8.2h-6.6V32.5z M196,32.5h6.6v8.2H196V32.5z M184.1,32.5h6.6
	v8.2h-6.6V32.5z M172.2,32.5h6.6v8.2h-6.6V32.5z M160.3,32.5h6.6v8.2h-6.6V32.5z M148.4,32.5h6.6v8.2h-6.6V32.5z M126.6,32.5h6.6
	v8.2h-6.6V32.5z M114.8,32.5h6.6v8.2h-6.6V32.5z M102.9,32.5h6.6v8.2h-6.6V32.5z M219.8,49.6h6.6v8.2h-6.6V49.6z M207.9,49.6h6.6
	v8.2h-6.6V49.6z M196,49.6h6.6v8.2H196V49.6z M184.1,49.6h6.6v8.2h-6.6V49.6z M172.2,49.6h6.6v8.2h-6.6V49.6z M160.3,49.6h6.6v8.2
	h-6.6V49.6z M148.4,49.6h6.6v8.2h-6.6V49.6z M126.6,49.6h6.6v8.2h-6.6V49.6z M114.8,49.6h6.6v8.2h-6.6V49.6z M102.9,49.6h6.6v8.2
	h-6.6V49.6z M219.8,66.7h6.6v8.2h-6.6V66.7z M207.9,66.7h6.6v8.2h-6.6V66.7z M196,66.7h6.6v8.2H196V66.7z M184.1,66.7h6.6v8.2h-6.6
	V66.7z M172.2,66.7h6.6v8.2h-6.6V66.7z M160.3,66.7h6.6v8.2h-6.6V66.7z M148.4,66.7h6.6v8.2h-6.6V66.7z M126.6,66.7h6.6v8.2h-6.6
	V66.7z M114.8,66.7h6.6v8.2h-6.6V66.7z M102.9,66.7h6.6v8.2h-6.6V66.7z M219.8,83.8h6.6V92h-6.6V83.8z M207.9,83.8h6.6V92h-6.6V83.8
	z M196,83.8h6.6V92H196V83.8z M184.1,83.8h6.6V92h-6.6V83.8z M172.2,83.8h6.6V92h-6.6V83.8z M160.3,83.8h6.6V92h-6.6V83.8z
	 M148.4,83.8h6.6V92h-6.6V83.8z M126.6,83.8h6.6V92h-6.6V83.8z M114.8,83.8h6.6V92h-6.6V83.8z M102.9,83.8h6.6V92h-6.6V83.8z
	 M219.8,100.9h6.6v8.2h-6.6V100.9z M207.9,100.9h6.6v8.2h-6.6V100.9z M196,100.9h6.6v8.2H196V100.9z M184.1,100.9h6.6v8.2h-6.6
	V100.9z M172.2,100.9h6.6v8.2h-6.6V100.9z M160.3,100.9h6.6v8.2h-6.6V100.9z M148.4,100.9h6.6v8.2h-6.6V100.9z M126.6,100.9h6.6v8.2
	h-6.6V100.9z M114.8,100.9h6.6v8.2h-6.6V100.9z M102.9,100.9h6.6v8.2h-6.6V100.9z M219.8,118h6.6v8.2h-6.6V118z M207.9,118h6.6v8.2
	h-6.6V118z M196,118h6.6v8.2H196V118z M184.1,118h6.6v8.2h-6.6V118z M172.2,118h6.6v8.2h-6.6V118z M160.3,118h6.6v8.2h-6.6V118z
	 M148.4,118h6.6v8.2h-6.6V118z M126.6,118h6.6v8.2h-6.6V118z M114.8,118h6.6v8.2h-6.6V118z M102.9,118h6.6v8.2h-6.6V118z
	 M219.8,135.1h6.6v8.2h-6.6V135.1z M207.9,135.1h6.6v8.2h-6.6V135.1z M196,135.1h6.6v8.2H196V135.1z M184.1,135.1h6.6v8.2h-6.6
	V135.1z M172.2,135.1h6.6v8.2h-6.6V135.1z M160.3,135.1h6.6v8.2h-6.6V135.1z M148.4,135.1h6.6v8.2h-6.6V135.1z M126.6,135.1h6.6v8.2
	h-6.6V135.1z M114.8,135.1h6.6v8.2h-6.6V135.1z M102.9,135.1h6.6v8.2h-6.6V135.1z M219.8,152.2h6.6v8.2h-6.6V152.2z M207.9,152.2
	h6.6v8.2h-6.6V152.2z M196,152.2h6.6v8.2H196V152.2z M184.1,152.2h6.6v8.2h-6.6V152.2z M172.2,152.2h6.6v8.2h-6.6V152.2z
	 M160.3,152.2h6.6v8.2h-6.6V152.2z M148.4,152.2h6.6v8.2h-6.6V152.2z M126.6,152.2h6.6v8.2h-6.6V152.2z M114.8,152.2h6.6v8.2h-6.6
	V152.2z M102.9,152.2h6.6v8.2h-6.6V152.2z M219.8,169.3h6.6v8.2h-6.6V169.3z M207.9,169.3h6.6v8.2h-6.6V169.3z M196,169.3h6.6v8.2
	H196V169.3z M184.1,169.3h6.6v8.2h-6.6V169.3z M172.2,169.3h6.6v8.2h-6.6V169.3z M160.3,169.3h6.6v8.2h-6.6V169.3z M148.4,169.3h6.6
	v8.2h-6.6V169.3z M126.6,169.3h6.6v8.2h-6.6V169.3z M114.8,169.3h6.6v8.2h-6.6V169.3z M102.9,169.3h6.6v8.2h-6.6V169.3z
	 M219.8,186.4h6.6v8.2h-6.6V186.4z M207.9,186.4h6.6v8.2h-6.6V186.4z M196,186.4h6.6v8.2H196V186.4z M184.1,186.4h6.6v8.2h-6.6
	V186.4z M172.2,186.4h6.6v8.2h-6.6V186.4z M160.3,186.4h6.6v8.2h-6.6V186.4z M148.4,186.4h6.6v8.2h-6.6V186.4z M126.6,186.4h6.6v8.2
	h-6.6V186.4z M114.8,186.4h6.6v8.2h-6.6V186.4z M102.9,186.4h6.6v8.2h-6.6V186.4z M219.8,203.5h6.6v8.2h-6.6V203.5z M207.9,203.5
	h6.6v8.2h-6.6V203.5z M196,203.5h6.6v8.2H196V203.5z M184.1,203.5h6.6v8.2h-6.6V203.5z M172.2,203.5h6.6v8.2h-6.6V203.5z
	 M160.3,203.5h6.6v8.2h-6.6V203.5z M148.4,203.5h6.6v8.2h-6.6V203.5z M126.6,203.5h6.6v8.2h-6.6V203.5z M114.8,203.5h6.6v8.2h-6.6
	V203.5z M102.9,203.5h6.6v8.2h-6.6V203.5z M219.8,220.6h6.6v8.2h-6.6V220.6z M207.9,220.6h6.6v8.2h-6.6V220.6z M196,220.6h6.6v8.2
	H196V220.6z M184.1,220.6h6.6v8.2h-6.6V220.6z M172.2,220.6h6.6v8.2h-6.6V220.6z M160.3,220.6h6.6v8.2h-6.6V220.6z M148.4,220.6h6.6
	v8.2h-6.6V220.6z M126.6,220.6h6.6v8.2h-6.6V220.6z M114.8,220.6h6.6v8.2h-6.6V220.6z M102.9,220.6h6.6v8.2h-6.6V220.6z
	 M219.8,237.7h6.6v8.2h-6.6V237.7z M207.9,237.7h6.6v8.2h-6.6V237.7z M196,237.7h6.6v8.2H196V237.7z M184.1,237.7h6.6v8.2h-6.6
	V237.7z M172.2,237.7h6.6v8.2h-6.6V237.7z M160.3,237.7h6.6v8.2h-6.6V237.7z M148.4,237.7h6.6v8.2h-6.6V237.7z M126.6,237.7h6.6v8.2
	h-6.6V237.7z M114.8,237.7h6.6v8.2h-6.6V237.7z M102.9,237.7h6.6v8.2h-6.6V237.7z M219.8,254.9h6.6v8.2h-6.6V254.9z M207.9,254.9
	h6.6v8.2h-6.6V254.9z M196,254.9h6.6v8.2H196V254.9z M184.1,254.9h6.6v8.2h-6.6V254.9z M172.2,254.9h6.6v8.2h-6.6V254.9z
	 M160.3,254.9h6.6v8.2h-6.6V254.9z M148.4,254.9h6.6v8.2h-6.6V254.9z M126.6,254.9h6.6v8.2h-6.6V254.9z M114.8,254.9h6.6v8.2h-6.6
	V254.9z M102.9,254.9h6.6v8.2h-6.6V254.9z"/>
<path class="st5" d="M212.1,20.1h-95.3V8.7c0-4.8,3.9-8.7,8.7-8.7h77.8c4.8,0,8.7,3.9,8.7,8.7V20.1L212.1,20.1z"/>
<path class="st2" d="M299.5,88.1h118.2v200.8H299.5V88.1z"/>
<path class="st3" d="M299.5,88.1h36.8v200.8h-36.8V88.1z"/>
<path class="st4" d="M407.5,95.2h5.7v6.6h-5.7V95.2z M397.2,95.2h5.7v6.6h-5.7V95.2z M386.9,95.2h5.7v6.6h-5.7V95.2z M376.6,95.2
	h5.7v6.6h-5.7V95.2z M366.3,95.2h5.7v6.6h-5.7V95.2z M356,95.2h5.7v6.6H356V95.2z M345.7,95.2h5.7v6.6h-5.7V95.2z M326.8,95.2h5.7
	v6.6h-5.7V95.2z M316.5,95.2h5.7v6.6h-5.7V95.2z M306.2,95.2h5.7v6.6h-5.7V95.2z M407.5,109h5.7v6.6h-5.7V109z M397.2,109h5.7v6.6
	h-5.7V109z M386.9,109h5.7v6.6h-5.7V109z M376.6,109h5.7v6.6h-5.7V109z M366.3,109h5.7v6.6h-5.7V109z M356,109h5.7v6.6H356V109z
	 M345.7,109h5.7v6.6h-5.7V109z M326.8,109h5.7v6.6h-5.7V109z M316.5,109h5.7v6.6h-5.7V109z M306.2,109h5.7v6.6h-5.7V109z
	 M407.5,122.9h5.7v6.6h-5.7V122.9z M397.2,122.9h5.7v6.6h-5.7V122.9z M386.9,122.9h5.7v6.6h-5.7V122.9z M376.6,122.9h5.7v6.6h-5.7
	V122.9z M366.3,122.9h5.7v6.6h-5.7V122.9z M356,122.9h5.7v6.6H356V122.9z M345.7,122.9h5.7v6.6h-5.7V122.9z M326.8,122.9h5.7v6.6
	h-5.7V122.9z M316.5,122.9h5.7v6.6h-5.7V122.9z M306.2,122.9h5.7v6.6h-5.7V122.9z M407.5,136.7h5.7v6.6h-5.7V136.7z M397.2,136.7
	h5.7v6.6h-5.7V136.7z M386.9,136.7h5.7v6.6h-5.7V136.7z M376.6,136.7h5.7v6.6h-5.7V136.7z M366.3,136.7h5.7v6.6h-5.7V136.7z
	 M356,136.7h5.7v6.6H356V136.7z M345.7,136.7h5.7v6.6h-5.7V136.7z M326.8,136.7h5.7v6.6h-5.7V136.7z M316.5,136.7h5.7v6.6h-5.7
	V136.7z M306.2,136.7h5.7v6.6h-5.7V136.7z M407.5,150.5h5.7v6.6h-5.7V150.5z M397.2,150.5h5.7v6.6h-5.7V150.5z M386.9,150.5h5.7v6.6
	h-5.7V150.5z M376.6,150.5h5.7v6.6h-5.7V150.5z M366.3,150.5h5.7v6.6h-5.7V150.5z M356,150.5h5.7v6.6H356V150.5z M345.7,150.5h5.7
	v6.6h-5.7V150.5z M326.8,150.5h5.7v6.6h-5.7V150.5z M316.5,150.5h5.7v6.6h-5.7V150.5z M306.2,150.5h5.7v6.6h-5.7V150.5z
	 M407.5,164.4h5.7v6.6h-5.7V164.4z M397.2,164.4h5.7v6.6h-5.7V164.4z M386.9,164.4h5.7v6.6h-5.7V164.4z M376.6,164.4h5.7v6.6h-5.7
	V164.4z M366.3,164.4h5.7v6.6h-5.7V164.4z M356,164.4h5.7v6.6H356V164.4z M345.7,164.4h5.7v6.6h-5.7V164.4z M326.8,164.4h5.7v6.6
	h-5.7V164.4z M316.5,164.4h5.7v6.6h-5.7V164.4z M306.2,164.4h5.7v6.6h-5.7V164.4z M407.5,178.1h5.7v6.6h-5.7V178.1z M397.2,178.1
	h5.7v6.6h-5.7V178.1z M386.9,178.1h5.7v6.6h-5.7V178.1z M376.6,178.1h5.7v6.6h-5.7V178.1z M366.3,178.1h5.7v6.6h-5.7V178.1z
	 M356,178.1h5.7v6.6H356V178.1z M345.7,178.1h5.7v6.6h-5.7V178.1z M326.8,178.1h5.7v6.6h-5.7V178.1z M316.5,178.1h5.7v6.6h-5.7
	V178.1z M306.2,178.1h5.7v6.6h-5.7V178.1z M407.5,191.9h5.7v6.6h-5.7V191.9z M397.2,191.9h5.7v6.6h-5.7V191.9z M386.9,191.9h5.7v6.6
	h-5.7V191.9z M376.6,191.9h5.7v6.6h-5.7V191.9z M366.3,191.9h5.7v6.6h-5.7V191.9z M356,191.9h5.7v6.6H356V191.9z M345.7,191.9h5.7
	v6.6h-5.7V191.9z M326.8,191.9h5.7v6.6h-5.7V191.9z M316.5,191.9h5.7v6.6h-5.7V191.9z M306.2,191.9h5.7v6.6h-5.7V191.9z
	 M407.5,205.8h5.7v6.6h-5.7V205.8z M397.2,205.8h5.7v6.6h-5.7V205.8z M386.9,205.8h5.7v6.6h-5.7V205.8z M376.6,205.8h5.7v6.6h-5.7
	V205.8z M366.3,205.8h5.7v6.6h-5.7V205.8z M356,205.8h5.7v6.6H356V205.8z M345.7,205.8h5.7v6.6h-5.7V205.8z M326.8,205.8h5.7v6.6
	h-5.7V205.8z M316.5,205.8h5.7v6.6h-5.7V205.8z M306.2,205.8h5.7v6.6h-5.7V205.8z M407.5,219.6h5.7v6.6h-5.7V219.6z M397.2,219.6
	h5.7v6.6h-5.7V219.6z M386.9,219.6h5.7v6.6h-5.7V219.6z M376.6,219.6h5.7v6.6h-5.7V219.6z M366.3,219.6h5.7v6.6h-5.7V219.6z
	 M356,219.6h5.7v6.6H356V219.6z M345.7,219.6h5.7v6.6h-5.7V219.6z M326.8,219.6h5.7v6.6h-5.7V219.6z M316.5,219.6h5.7v6.6h-5.7
	V219.6z M306.2,219.6h5.7v6.6h-5.7V219.6z M407.5,233.4h5.7v6.6h-5.7V233.4z M397.2,233.4h5.7v6.6h-5.7V233.4z M386.9,233.4h5.7v6.6
	h-5.7V233.4z M376.6,233.4h5.7v6.6h-5.7V233.4z M366.3,233.4h5.7v6.6h-5.7V233.4z M356,233.4h5.7v6.6H356V233.4z M345.7,233.4h5.7
	v6.6h-5.7V233.4z M326.8,233.4h5.7v6.6h-5.7V233.4z M316.5,233.4h5.7v6.6h-5.7V233.4z M306.2,233.4h5.7v6.6h-5.7V233.4z
	 M407.5,247.3h5.7v6.6h-5.7V247.3z M397.2,247.3h5.7v6.6h-5.7V247.3z M386.9,247.3h5.7v6.6h-5.7V247.3z M376.6,247.3h5.7v6.6h-5.7
	V247.3z M366.3,247.3h5.7v6.6h-5.7V247.3z M356,247.3h5.7v6.6H356V247.3z M345.7,247.3h5.7v6.6h-5.7V247.3z M326.8,247.3h5.7v6.6
	h-5.7V247.3z M316.5,247.3h5.7v6.6h-5.7V247.3z M306.2,247.3h5.7v6.6h-5.7V247.3z M407.5,261.1h5.7v6.6h-5.7V261.1z M397.2,261.1
	h5.7v6.6h-5.7V261.1z M386.9,261.1h5.7v6.6h-5.7V261.1z M376.6,261.1h5.7v6.6h-5.7V261.1z M366.3,261.1h5.7v6.6h-5.7V261.1z
	 M356,261.1h5.7v6.6H356V261.1z M345.7,261.1h5.7v6.6h-5.7V261.1z M326.8,261.1h5.7v6.6h-5.7V261.1z M316.5,261.1h5.7v6.6h-5.7
	V261.1z M306.2,261.1h5.7v6.6h-5.7V261.1z M407.5,274.9h5.7v6.6h-5.7V274.9z M397.2,274.9h5.7v6.6h-5.7V274.9z M386.9,274.9h5.7v6.6
	h-5.7V274.9z M376.6,274.9h5.7v6.6h-5.7V274.9z M366.3,274.9h5.7v6.6h-5.7V274.9z M356,274.9h5.7v6.6H356V274.9z M345.7,274.9h5.7
	v6.6h-5.7V274.9z M326.8,274.9h5.7v6.6h-5.7V274.9z M316.5,274.9h5.7v6.6h-5.7V274.9z M306.2,274.9h5.7v6.6h-5.7V274.9z"/>
<path class="st6" d="M73.8,288c0-9.5,7.7-17.3,17.3-17.3c9.5,0,17.3,7.7,17.3,17.3c0,9.5-7.7,17.3-17.3,17.3
	C81.6,305.2,73.8,297.6,73.8,288L73.8,288z M204.6,288.2c0-9.4,7.6-17.1,17.1-17.1c9.4,0,17.1,7.6,17.1,17.1
	c0,9.4-7.6,17.1-17.1,17.1C212.2,305.3,204.6,297.6,204.6,288.2z"/>
<path class="st7" d="M225.3,198.7H98.8v78.7h126.5V198.7z"/>
<path class="st8" d="M224.9,262.6l-126.5,2.3v12.5h126.5V262.6z"/>
<path class="st9" d="M98.5,264.9l126.5-2.3v-7.5l-126.5,3.6V264.9z"/>
<path class="st7" d="M53.6,219.1h45.2v58.3H28.1L28,261.8v-17.2C28,230.5,39.5,219.1,53.6,219.1z"/>
<path class="st10" d="M98.8,219h-8.5v58.3h8.5V219z"/>
<path class="st11" d="M33.5,265.8c-0.1,7.6-2.5,9.7-5.5,9.7v-9.7H33.5z"/>
<path class="st8" d="M90.3,265l-29.1,9.3c0,0,2.8,1.9,3.8,3.1h25.2L90.3,265z"/>
<path class="st9" d="M61.2,274.3l29.1-9.3v-6.3l-34.2,13.6C58,272.6,59.7,273.3,61.2,274.3z"/>
<path class="st12" d="M218.5,277.3H26.7c-1.5,0-2.7,1.4-2.7,3v6.5c0,1.7,1.2,3,2.7,3h191.7V277.3L218.5,277.3z"/>
<path class="st6" d="M81.9,224.9v17.3c0,6.3-5.2,11.5-11.5,11.5h-36l-0.1-9.7c-0.1-10.5,8.4-19.1,18.9-19.1H81.9L81.9,224.9z"/>
<path class="st13" d="M74.2,258.4h6.2c0.8,0,1.4-0.7,1.4-1.4v-0.8h-9.1v0.8C72.7,257.8,73.4,258.4,74.2,258.4z"/>
<path class="st6" d="M51.8,271.7c10.1,0,18.3,8.2,18.3,18.3H33.5C33.5,279.8,41.7,271.7,51.8,271.7L51.8,271.7z"/>
<path class="st6" d="M54.2,274.5c8.5-0.2,15.5,6.5,15.8,14.9c0.2,8.5-6.5,15.5-14.9,15.8H50v-30.8L54.2,274.5L54.2,274.5z"/>
<path class="st14" d="M35.7,289.9c0-8.5,6.9-15.4,15.4-15.4s15.4,6.9,15.4,15.4c0,8.5-6.9,15.4-15.4,15.4S35.7,298.3,35.7,289.9z"/>
<path class="st8" d="M51.1,297.4c-4.2,0-7.5-3.4-7.5-7.5c0-4.2,3.4-7.5,7.5-7.5c4.2,0,7.5,3.4,7.5,7.5
	C58.6,294,55.3,297.4,51.1,297.4z"/>
<path class="st10" d="M274.7,198.8h-59.4v78.6h59.4V198.8z"/>
<path class="st6" d="M247.7,285.9c0.4,0,0.8-0.4,0.8-0.8V282c0-0.4-0.4-0.8-0.8-0.8c-0.4,0-0.8,0.4-0.8,0.8v3.2
	C247,285.6,247.3,285.9,247.7,285.9z M256.2,300.6c0-8.7,7-15.7,15.7-15.7c8.7,0,15.7,7,15.7,15.7c0,8.7-7,15.7-15.7,15.7
	C263.2,316.3,256.2,309.2,256.2,300.6z M169.4,300.5c0-8.7,7.1-15.8,15.8-15.8s15.8,7.1,15.8,15.8s-7.1,15.8-15.8,15.8
	C176.5,316.2,169.4,309.2,169.4,300.5z"/>
<path class="st12" d="M269.3,290.4H126.6c-1.4,0-2.5,1.2-2.5,2.7v6c0,1.5,1.1,2.7,2.5,2.7h142.7V290.4L269.3,290.4z"/>
<path class="st15" d="M127.8,290.4h64.9v-53.1h-32.6c-6.3,0.1-12.3,3.2-15.8,8.4L131,265.5c-2.1,3.1-3.3,6.9-3.3,10.7L127.8,290.4z"
	/>
<path class="st6" d="M177.2,268.8v-25.4h-17c-4.4,0-8.4,2.2-10.9,5.8l-13.3,19.7H177.2z"/>
<path class="st16" d="M192.8,237.4H185v53.1h7.8V237.4z"/>
<path class="st13" d="M170.2,273h5.7c0.7,0,1.3-0.6,1.3-1.3v-0.8h-8.4v0.8C168.8,272.4,169.4,273,170.2,273z"/>
<path class="st11" d="M132.9,283.7c0-2.8-2.3-5-5-5v10.1C130.6,288.7,132.9,286.5,132.9,283.7z"/>
<path class="st7" d="M322.6,219.5h-53.2v71h53.2V219.5z"/>
<path class="st8" d="M185,279.1l-26.7,8.5c0,0,2.6,1.7,3.5,2.8H185V279.1z"/>
<path class="st9" d="M158.3,287.6l26.7-8.5v-5.8l-31.4,12.5C155.3,286,156.9,286.7,158.3,287.6z"/>
<path class="st15" d="M269.3,219.5H191v71h78.3V219.5z"/>
<path class="st8" d="M269.3,276.2l-78.3,2.2v12.1h78.3V276.2z"/>
<path class="st6" d="M234.8,285.2c9.2,0.1,16.7,7.5,16.8,16.8h-33.5C218,292.8,225.5,285.2,234.8,285.2L234.8,285.2z"/>
<path class="st6" d="M237,287.8c7.8-0.5,14.5,5.4,15,13.2c0.5,7.8-5.4,14.5-13.2,15c-0.4,0.1-0.7,0.1-1.1,0.1h-4.7v-28.2H237
	L237,287.8z"/>
<path class="st14" d="M220.1,301.9c0-7.8,6.3-14.1,14.1-14.1c7.8,0,14.1,6.3,14.1,14.1c0,7.8-6.3,14.1-14.1,14.1
	C226.4,316,220.1,309.7,220.1,301.9z"/>
<path class="st8" d="M227.2,301.9c0,0.2,0,0.5,0.1,0.7c0,0.2,0.1,0.5,0.1,0.7c0.1,0.2,0.1,0.4,0.2,0.7c0.1,0.2,0.1,0.4,0.2,0.7
	c0.1,0.2,0.2,0.4,0.3,0.6c0.1,0.2,0.2,0.4,0.4,0.6c0.1,0.2,0.2,0.4,0.4,0.5c0.1,0.2,0.3,0.4,0.5,0.5c0.2,0.2,0.4,0.3,0.5,0.5
	c0.2,0.1,0.4,0.3,0.5,0.4c0.2,0.1,0.4,0.2,0.6,0.4c0.2,0.1,0.4,0.2,0.6,0.3c0.2,0.1,0.4,0.2,0.7,0.2c0.2,0.1,0.4,0.1,0.7,0.2
	s0.5,0.1,0.7,0.1c0.2,0,0.5,0.1,0.7,0.1c0.2,0,0.5,0,0.7-0.1c0.2,0,0.5-0.1,0.7-0.1c0.2-0.1,0.4-0.1,0.7-0.2
	c0.2-0.1,0.4-0.1,0.7-0.2c0.2-0.1,0.4-0.2,0.6-0.3c0.2-0.1,0.4-0.2,0.6-0.4c0.2-0.1,0.4-0.2,0.5-0.4c0.2-0.1,0.4-0.3,0.5-0.5
	c0.2-0.2,0.3-0.4,0.5-0.5c0.1-0.2,0.3-0.4,0.4-0.5c0.1-0.2,0.2-0.4,0.4-0.6c0.1-0.2,0.2-0.4,0.3-0.6c0.1-0.2,0.2-0.4,0.2-0.7
	c0.1-0.2,0.1-0.4,0.2-0.7c0.1-0.2,0.1-0.5,0.1-0.7c0-0.2,0.1-0.5,0.1-0.7c0-0.2,0-0.5-0.1-0.7c0-0.2-0.1-0.5-0.1-0.7
	c-0.1-0.2-0.1-0.4-0.2-0.7c-0.1-0.2-0.1-0.4-0.2-0.7c-0.1-0.2-0.2-0.4-0.3-0.6c-0.1-0.2-0.2-0.4-0.4-0.6c-0.1-0.2-0.2-0.4-0.4-0.5
	c-0.2-0.2-0.3-0.4-0.5-0.5c-0.2-0.2-0.4-0.3-0.5-0.5c-0.1-0.2-0.4-0.3-0.5-0.4c-0.2-0.1-0.4-0.2-0.6-0.4c-0.2-0.1-0.4-0.2-0.6-0.3
	c-0.2-0.1-0.4-0.2-0.7-0.2c-0.2-0.1-0.4-0.1-0.7-0.2c-0.2-0.1-0.5-0.1-0.7-0.1c-0.2,0-0.5-0.1-0.7-0.1c-0.2,0-0.5,0-0.7,0.1
	c-0.2,0-0.5,0.1-0.7,0.1c-0.2,0.1-0.4,0.1-0.7,0.2c-0.2,0.1-0.4,0.1-0.7,0.2c-0.2,0.1-0.4,0.2-0.6,0.3c-0.2,0.1-0.4,0.2-0.6,0.4
	c-0.2,0.1-0.4,0.2-0.5,0.4c-0.2,0.1-0.4,0.3-0.5,0.5c-0.2,0.2-0.3,0.4-0.5,0.5c-0.1,0.2-0.3,0.4-0.4,0.5c-0.1,0.2-0.2,0.4-0.4,0.6
	c-0.1,0.2-0.2,0.4-0.3,0.6c-0.1,0.2-0.2,0.4-0.2,0.7c-0.1,0.2-0.1,0.4-0.2,0.7c-0.1,0.2-0.1,0.5-0.1,0.7
	C227.2,301.5,227.2,301.7,227.2,301.9z"/>
<path class="st9" d="M191,278.4l78.3-2.2v-7.3l-78.3,3.6L191,278.4z"/>
<path class="st6" d="M149.6,285.2c9.3,0.1,16.7,7.5,16.8,16.8h-33.5C132.9,292.8,140.3,285.2,149.6,285.2z"/>
<path class="st6" d="M151.8,287.8c7.8-0.5,14.5,5.4,15,13.2c0.5,7.8-5.4,14.5-13.2,15c-0.4,0.1-0.7,0.1-1.1,0.1h-4.7v-28.2H151.8z"
	/>
<path class="st14" d="M134.9,301.9c0-7.8,6.3-14.1,14.1-14.1c7.8,0,14.1,6.3,14.1,14.1c0,7.8-6.3,14.1-14.1,14.1
	S134.9,309.7,134.9,301.9z"/>
<path class="st8" d="M142,301.9c0,0.2,0,0.5,0.1,0.7c0,0.2,0.1,0.5,0.1,0.7c0.1,0.2,0.1,0.4,0.2,0.7c0.1,0.2,0.1,0.4,0.2,0.7
	c0.1,0.2,0.2,0.4,0.3,0.6c0.1,0.2,0.2,0.4,0.4,0.6c0.1,0.2,0.2,0.4,0.4,0.5c0.1,0.2,0.3,0.4,0.5,0.5c0.2,0.2,0.4,0.3,0.5,0.5
	c0.2,0.1,0.4,0.3,0.5,0.4c0.2,0.1,0.4,0.2,0.6,0.4c0.2,0.1,0.4,0.2,0.6,0.3c0.2,0.1,0.4,0.2,0.7,0.2c0.2,0.1,0.4,0.1,0.7,0.2
	c0.2,0.1,0.5,0.1,0.7,0.1c0.2,0,0.5,0.1,0.7,0.1c0.2,0,0.5,0,0.7-0.1c0.2,0,0.5-0.1,0.7-0.1c0.2-0.1,0.4-0.1,0.7-0.2
	c0.2-0.1,0.4-0.1,0.7-0.2c0.2-0.1,0.4-0.2,0.6-0.3c0.2-0.1,0.4-0.2,0.6-0.4c0.2-0.1,0.4-0.2,0.5-0.4c0.2-0.1,0.4-0.3,0.5-0.5
	c0.2-0.2,0.3-0.4,0.5-0.5c0.1-0.2,0.3-0.4,0.4-0.5c0.1-0.2,0.2-0.4,0.4-0.6c0.1-0.2,0.2-0.4,0.3-0.6c0.1-0.2,0.2-0.4,0.2-0.7
	c0.1-0.2,0.1-0.4,0.2-0.7c0.1-0.2,0.1-0.5,0.1-0.7c0-0.2,0.1-0.5,0.1-0.7c0-0.2,0-0.5-0.1-0.7c0-0.2-0.1-0.5-0.1-0.7
	c-0.1-0.2-0.1-0.4-0.2-0.7c-0.1-0.2-0.1-0.4-0.2-0.7c-0.1-0.2-0.2-0.4-0.3-0.6c-0.1-0.2-0.2-0.4-0.4-0.6c-0.1-0.2-0.2-0.4-0.4-0.5
	c-0.1-0.2-0.3-0.4-0.5-0.5c-0.2-0.2-0.4-0.3-0.5-0.5c-0.1-0.2-0.4-0.3-0.5-0.4c-0.2-0.1-0.4-0.2-0.6-0.4c-0.2-0.1-0.4-0.2-0.6-0.3
	c-0.2-0.1-0.4-0.2-0.7-0.2c-0.2-0.1-0.4-0.1-0.7-0.2c-0.2-0.1-0.5-0.1-0.7-0.1c-0.2,0-0.5-0.1-0.7-0.1c-0.2,0-0.5,0-0.7,0.1
	c-0.2,0-0.5,0.1-0.7,0.1c-0.2,0.1-0.4,0.1-0.7,0.2c-0.2,0.1-0.4,0.1-0.7,0.2c-0.2,0.1-0.4,0.2-0.6,0.3c-0.2,0.1-0.4,0.2-0.6,0.4
	c-0.2,0.1-0.4,0.2-0.5,0.4c-0.2,0.1-0.4,0.3-0.5,0.5c-0.2,0.2-0.3,0.4-0.5,0.5c-0.1,0.2-0.3,0.4-0.4,0.5c-0.1,0.2-0.2,0.4-0.4,0.6
	c-0.1,0.2-0.2,0.4-0.3,0.6c-0.1,0.2-0.2,0.4-0.2,0.7c-0.1,0.2-0.1,0.4-0.2,0.7c-0.1,0.2-0.1,0.5-0.1,0.7
	C142,301.5,142,301.7,142,301.9z"/>
<path class="st15" d="M213.8,316.8l0.1-12.3c0-4.6-0.5-5,0.4-6.6c1.2-2.1,3.3-3.7,5.7-4.3l24.3-9l21.2-16.7
	c7.4-6.6,17-10.2,26.9-10.2h54.4l0.9,54.5l-22.2,4.6L213.8,316.8z"/>
<path class="st6" d="M260,314.5c0,5.7,4.6,10.3,10.3,10.3c5.7,0,10.3-4.6,10.3-10.3c0-5.7-4.6-10.3-10.3-10.3
	C264.6,304.1,260,308.8,260,314.5L260,314.5z M350.6,304.1h-2.8v20.7h2.8c5.7,0,10.3-4.6,10.3-10.3
	C360.9,308.8,356.3,304.1,350.6,304.1L350.6,304.1z"/>
<path class="st6" d="M337.4,314.5c0,5.7,4.6,10.3,10.3,10.3c5.7,0,10.4-4.6,10.4-10.3c0-5.7-4.6-10.3-10.3-10.3
	C342,304.1,337.4,308.8,337.4,314.5L337.4,314.5z"/>
<path class="st7" d="M381.9,277.2v32.1h-38.1V258h28C379.3,258,381.9,266.5,381.9,277.2z"/>
<path class="st14" d="M212.9,316.8h16.5l0.9-6.9h-17.5c-0.6,0-1.1,0.5-1.1,1.1v4.7C211.8,316.4,212.3,316.8,212.9,316.8z"/>
<path class="st8" d="M284.7,317v-22.6l59.1-2.8V317H284.7z"/>
<path class="st8" d="M249.8,312.7c-0.2,0-0.4,0-0.5,0.1c-0.9-1.1-1.7-1.9-1.7-1.9l5.9-5.9l33.6-7.4V317l-34-0.1
	C253.3,314.9,252.4,312.7,249.8,312.7L249.8,312.7z"/>
<path class="st6" d="M317.3,306.3h-3v21.3h3c5.9,0,10.7-4.8,10.7-10.7C328,311.1,323.2,306.3,317.3,306.3z"/>
<path class="st6" d="M315.3,304.4c-7,0-12.7,5.7-12.7,12.7h25.3C328,310.1,322.3,304.4,315.3,304.4z"/>
<path class="st14" d="M303.6,317.1c0,5.9,4.8,10.7,10.7,10.7c5.9,0,10.7-4.8,10.7-10.7c0-5.9-4.8-10.7-10.7-10.7
	C308.4,306.4,303.6,311.1,303.6,317.1z"/>
<path class="st8" d="M314.2,322.3c-2.9,0-5.3-2.4-5.3-5.3c0-2.9,2.4-5.3,5.3-5.3c2.9,0,5.3,2.4,5.3,5.3
	C319.5,320,317.1,322.3,314.2,322.3z"/>
<path class="st17" d="M350,293.1h-6.2v5.9h6.2V293.1z M381.9,293.1h-5.3v5.9h5.3V293.1z"/>
<path class="st11" d="M213.8,310v-10.2c2.8,0,5.2,2.3,5.2,5.2C218.9,307.7,216.6,310,213.8,310z"/>
<path class="st14" d="M384.1,310.3v3.9c0,1.5-1.1,2.8-2.4,2.8h-38.1c-1.4,0-2.4-1.3-2.4-2.8v-3.9c0-1.5,1.1-2.8,2.4-2.8h38.1
	C383.1,307.5,384.1,308.7,384.1,310.3z"/>
<path class="st18" d="M348.9,312.2c0,1.1-0.9,2-2,2c-1.1,0-2-0.9-2-2c0-1.1,0.9-2,2-2C348,310.2,348.9,311.1,348.9,312.2z"/>
<path class="st11" d="M351.4,313.2c-0.6,0-1-0.5-1-1c0-0.6,0.5-1,1-1c0.6,0,1,0.5,1,1C352.4,312.7,352,313.2,351.4,313.2z"/>
<path class="st18" d="M377,312.2c0-1.1,0.9-2,2-2c1.1,0,2,0.9,2,2c0,1.1-0.9,2-2,2C377.8,314.2,377,313.3,377,312.2z"/>
<path class="st9" d="M374.5,311.2c0.6,0,1,0.5,1,1c0,0.5-0.5,1-1,1c-0.5,0-1-0.5-1-1C373.5,311.7,373.9,311.2,374.5,311.2z
	 M343.8,295.6v-7.5c0,0-27.9-2-59.1,4.6v5.9c0,0,40.1-6.1,59.1-3.2V295.6z M284.7,298.6v-5.9c0,0-25.4,4.2-41.1,14.7l5,2.6
	C256.5,303.4,284.7,298.6,284.7,298.6L284.7,298.6z"/>
<path class="st18" d="M343.8,293.1h-6.2v5.9h6.2V293.1z"/>
<path class="st13" d="M276,296.6v-1.4h9.3v1.4c0,0.5-0.4,1-1,1H277C276.5,297.5,276,297.1,276,296.6z"/>
<path class="st6" d="M242.4,306.3h-3v21.3h3c5.9,0,10.7-4.8,10.7-10.7C253,311.1,248.2,306.3,242.4,306.3z"/>
<path class="st6" d="M230.2,316.8h-2.5c0.1-6.9,5.8-12.5,12.7-12.5c7,0,12.7,5.7,12.7,12.7h-22.8V316.8z"/>
<path class="st14" d="M228.6,317.1c0,5.9,4.8,10.7,10.7,10.7c5.9,0,10.7-4.8,10.7-10.7c0-5.9-4.8-10.7-10.7-10.7
	C233.4,306.4,228.6,311.1,228.6,317.1z"/>
<path class="st8" d="M239.3,322.3c-2.9,0-5.3-2.4-5.3-5.3c0-2.9,2.4-5.3,5.3-5.3c2.9,0,5.3,2.4,5.3,5.3
	C244.6,320,242.2,322.3,239.3,322.3z"/>
<path class="st6" d="M294.2,265.7l-2,16.5c-0.6,3.1-3.2,5.3-6.3,5.3l-36,0.3c0,0,20.8-22.7,40.5-25.9
	C292.5,261.7,294.5,263.5,294.2,265.7z M300.3,310.8V310l-43.9,2.4c-1.1,0.1-1.9,0.9-1.9,2h42.2
	C298.7,314.5,300.3,312.9,300.3,310.8z"/>
<path class="st19" d="M486,337.6l7.2-96.4l-42.3,2.6l-1.5,93.8H486z"/>
<path class="st19" d="M539.8,337.4H505l-23.5-100.8l52.5,6.7L539.8,337.4z"/>
<path class="st20" d="M586.8,208c-12.2-19.3-21.2-40.4-21.2-40.4l-26.4,18l19.8,31.5c2.5,4.4,13.2,3.2,16-1.1L586.8,208L586.8,208z"
	/>
<path class="st0" d="M533.5,127.6l-30.1-11.8h-31.3l-34.7,17.8c-3,1.8-2.4,5.4-1.3,8.6l14.5,100l83.1,0.5l11.2-103.3
	C545.7,136,536.6,129.2,533.5,127.6L533.5,127.6z"/>
<path class="st0" d="M536.7,129.7c19.8,14.5,28.8,38,28.8,38L537.3,195l-32-31.3L536.7,129.7L536.7,129.7z M437.4,133.6
	c0,0-23.7,7.9-28.5,50l46.9,13.9l13-40.6L437.4,133.6L437.4,133.6z"/>
<path class="st14" d="M469.6,58.6c3,9,4.2,18.6,3.6,28c-0.2,2.6-0.5,5.4,0.1,7.9c0.7,2.6,2.6,5.1,5.2,5.4c1.1-7.3,2.1-14.5,3.2-21.7
	c0.4-2.7,0.8-5.5,0.1-8.1c-0.7-2.6-2.5-4.8-4.6-6.5C475,62,472.1,59.8,469.6,58.6L469.6,58.6z"/>
<path class="st21" d="M481.1,126.1c4.6,2.2,10,2.4,14.9,1.2c5-1.3,9.5-4.8,13.3-9.2c-1.9-2.8-3.6-4.1-5-7.3
	c-0.3-0.6-0.5-1.2-0.7-1.8c-0.9-2.6-1.7-5.2-2.1-7.9c-9.4-3-18.2-11.6-25.4-18.4c0.7,7.1,0.2,18.3-1.7,25.2v0.1
	c-0.6,2.2-1.4,4.3-2.2,6.3C470.2,119.2,476.6,123.9,481.1,126.1z"/>
<path class="st20" d="M474.3,108c0,0,0.1,0.1,0.1,0.1c2.6,1.8,5.5,3.2,8.5,4c0.4,0.1,0.7,0.2,1.1,0.3c1.3,0.3,2.5,0.5,3.8,0.5
	c4.8,0.3,9.8-0.7,14.1-2.9c0.6-0.3,1.2-0.6,1.7-1c-0.9-2.6-1.7-5.2-2.1-7.9c-9.4-3-18.2-11.6-25.4-18.4c0.7,7.1,0.2,18.3-1.7,25.2
	C474.4,107.9,474.4,108,474.3,108z"/>
<path class="st14" d="M506,55.5c1.6,6.1,0.9,12.8-2,18.4C501.5,68.3,502.4,60.6,506,55.5z"/>
<path class="st21" d="M476.7,73.4c-0.5-0.9-0.9-1.9-1.5-2.6c-0.7-0.8-1.5-1.4-2.5-1.5c-1.9-0.3-3.6,1.3-4.1,3
	c-0.5,1.8-0.1,3.7,0.4,5.5c0.4,1.4,0.9,2.7,1.8,3.9c0.9,1.2,2,2.1,3.4,2.4c1.4,0.3,3-0.1,3.8-1.3C477.1,79.5,476.4,76.6,476.7,73.4z
	"/>
<path class="st21" d="M476.4,81.2c0.1,0.4,0.1,0.7,0.1,1.1c0.9,6.5,2.9,13.3,7.5,18c4.1,4.2,10.3,6.4,16.1,5.3
	c5.7-1.2,10.8-5.9,11.8-11.7c0.7-3.9-0.3-7.9-1.8-11.6c-1.5-3.7-3.4-7.2-4.6-11c-1.3-3.8-2.1-8.9-0.7-12.7l-0.5-0.3
	c-8.5-5.1-18.2-6.2-27.2-2C475.6,64.6,475.3,73,476.4,81.2L476.4,81.2z"/>
<path class="st14" d="M511.3,51c-1.1,3.2-3.4,5.8-6.3,7.6c-2.2,1.4-4.9,2.4-7.5,2.7c-6,0.8-12.1-0.9-17.7-3.2
	c-0.2,0.3-5.1,7.6-1.4,18.8L473.2,66c-0.5-1.7-1.2-3.2-2-4.7c-0.9-1.7-2.1-3.2-2.8-5c-0.6-1.8-0.5-4,0.9-5.4c1.7-1.7,4.4-1.3,6.7-2
	c3.7-1.3,5.2-5.6,7.5-8.9c0.9-1.2,1.8-2.3,2.9-3.3c2.5-2.2,5.7-3.7,9.1-4.1c4.8-0.5,9.9,1.3,13.1,4.9
	C511.7,41.1,512.9,46.4,511.3,51L511.3,51z"/>
<path class="st19" d="M534,244.2l-83.1,0.5c0,0-1.2-60.6,2.1-99.7c1.3-16,21,19.2,70.6-3.2C531.8,138.1,534,244.2,534,244.2z"/>
<path class="st19" d="M460.8,148.6H453v-24.8l7.8-2.9V148.6z M519.9,149.8h7.5v-24.9l-7.5-2.8V149.8z"/>
<path class="st21" d="M445.6,273.5c0,0-26-19.6-37.3-37.8c-7.9-12.6,0.5-52.1,0.5-52.1l29.5,8.8l-9.4,30.1l21.6,36.9l-0.6,38.3
	c0,0-8.9-6.5-11.3-16.6c-2.9-12.2,9.5-20.9,9.5-20.9"/>
<path class="st21" d="M450.6,259.3l4.4,18.2c0.5,2.1-1.5,4.1-3.6,3.4c-0.7-0.3-1.3-0.8-1.5-1.8C449.3,275.7,450.6,259.3,450.6,259.3
	L450.6,259.3z"/>
<path class="st22" d="M512.2,172.4c-22.5,2.8-40.3,0-40.3,0s-1.4,25.8,20.2,27.2C513.6,200.9,512.2,172.4,512.2,172.4z M490.6,275.5
	l14.3,61.9h5.5l-13-63.3L490.6,275.5z"/>
<path class="st21" d="M517.5,201.6c1.3-3.7,4.9-6.1,8.8-5.7l22.9,1.3c11.8,1.3,16.3,0.9,27.5,3.9c0.2,0.1,0.4,0.1,0.5,0.1l4.8,2.5
	c3.3,1.1,5.6,4.2,5.6,7.7c0,1.7-0.1,3.5-0.5,5.1c-1.9,7.1-12.6,10.4-19.6,8.3L515.7,210c-0.5-0.1-0.8-0.7-0.7-1.3L517.5,201.6
	L517.5,201.6z"/>
<path class="st21" d="M496.6,194.6l0.3,8.9c0.2,3.4,1.5,4.9,4.9,5.4l16.2,2l3-23.4l-17.6-2.5C498.8,184.3,496.3,190.1,496.6,194.6
	L496.6,194.6z"/>
<path class="st21" d="M528,197.1c-0.9-1-5.4-10.2-7.1-22.6c-1.7-12.4-7.7-4.1-5.9,4.8c1.8,9-7.1,6.6-7.1,6.6l11.6,14.3L528,197.1z"
	/>
</svg>
