<svg version="1.1" xmlns="http://www.w3.org/2000/svg" xmlns:xlink="http://www.w3.org/1999/xlink" width="630" height="392" viewBox="0 0 630 392">
<style type="text/css">
	.st0{fill:#EAF1FC;}
	.st1{fill:#F8F8FF;}
	.st2{fill:#FFFFFF;}
	.st3{fill:#D6E0F0;}
	.st4{fill:#CDE4F7;}
	.st5{fill:#5CB1BF;}
	.st6{fill:#FFDD00;}
	.st7{fill:#FFB000;}
	.st8{fill:#F2F2F2;}
	.st9{fill:#EBF7FE;}
	.st10{fill:none;stroke:#289917;stroke-width:3;stroke-linecap:round;stroke-linejoin:round;}
	.st11{fill:none;stroke:#CDE4F7;stroke-width:3;stroke-linecap:round;stroke-linejoin:round;}
	.st12{fill:#E08F73;}
	.st13{fill:#0B2B46;}
	.st14{fill:#F09976;}
	.st15{fill:#E8815F;}
	.st16{fill:#02819F;}
	.st17{fill:#047487;}
	.st18{fill:#05616B;}
	.st19{fill:none;stroke:#5CB1BF;stroke-width:3;stroke-linecap:round;stroke-linejoin:round;}
</style>
<path class="st0" d="M628,347.8c0,0.8-0.1,1.5-0.4,2.1c-0.3,0.8-0.6,1.5-1.1,2.1c-0.6,0.8-1.2,1.5-1.8,2.1c-0.8,0.8-1.7,1.5-2.6,2.1
	c-1.1,0.8-2.2,1.5-3.3,2.1c-1.3,0.7-2.6,1.4-4.1,2.1c-1.5,0.7-3,1.4-4.8,2c-1.8,0.6-3.5,1.3-5.5,2c-2,0.7-4,1.3-6.1,1.9
	c-2.1,0.6-4.4,1.2-6.8,1.9c-2.4,0.7-4.9,1.2-7.5,1.9c-2.6,0.6-5.3,1.2-8.1,1.8c-2.8,0.6-5.7,1.2-8.7,1.7c-3,0.6-6.1,1.1-9.4,1.7
	c-3.2,0.6-6.5,1.1-9.9,1.6c-3.4,0.5-6.9,1-10.5,1.5c-3.6,0.5-7.2,1-11,1.5c-3.7,0.5-7.6,1-11.5,1.4c-3.9,0.4-7.9,0.9-12,1.3
	c-4.1,0.4-8.2,0.8-12.4,1.2c-4.2,0.4-8.4,0.8-12.8,1.2c-4.4,0.4-8.7,0.7-13.2,1c-4.5,0.3-9,0.7-13.6,1c-4.6,0.3-9.2,0.6-13.9,0.9
	c-4.6,0.3-9.4,0.6-14.1,0.8c-4.8,0.2-9.6,0.5-14.4,0.7c-4.9,0.2-9.7,0.4-14.6,0.6c-4.9,0.1-9.8,0.3-14.8,0.5
	c-4.9,0.1-9.9,0.3-15,0.3c-5.1,0.1-10.1,0.2-15.1,0.3c-5,0.1-10.1,0.1-15.1,0.1c-5.1,0-10.1,0.1-15.2,0.1c-5.1,0-10.1,0-15.2-0.1
	c-5.1-0.1-10.1-0.1-15.1-0.1c-5-0.1-10.1-0.1-15.1-0.3c-5-0.1-10-0.2-15-0.3c-5-0.1-9.9-0.3-14.8-0.5c-4.9-0.2-9.8-0.3-14.6-0.6
	c-4.9-0.2-9.6-0.4-14.4-0.7c-4.8-0.3-9.5-0.5-14.1-0.8c-4.6-0.3-9.3-0.6-13.9-0.9c-4.6-0.3-9.1-0.6-13.6-1s-8.9-0.7-13.2-1
	c-4.4-0.3-8.6-0.8-12.8-1.2c-4.2-0.4-8.4-0.8-12.4-1.2c-4-0.4-8-0.8-12-1.3c-3.9-0.5-7.7-0.9-11.5-1.4c-3.7-0.5-7.4-1-11-1.5
	c-3.6-0.5-7-1-10.5-1.5c-3.4-0.5-6.7-1-9.9-1.6c-3.2-0.6-6.3-1.1-9.4-1.7c-3-0.6-5.9-1.2-8.7-1.7c-2.8-0.6-5.5-1.2-8.1-1.8
	c-2.6-0.6-5.1-1.2-7.5-1.9c-2.4-0.6-4.6-1.2-6.8-1.9c-2.2-0.7-4.2-1.3-6.1-1.9c-1.9-0.6-3.7-1.3-5.5-2c-1.8-0.7-3.3-1.4-4.8-2
	c-1.5-0.6-2.8-1.4-4.1-2.1c-1.1-0.6-2.3-1.3-3.3-2.1c-0.9-0.6-1.8-1.3-2.6-2.1c-0.7-0.6-1.3-1.4-1.8-2.1c-0.5-0.7-0.8-1.4-1.1-2.1
	c-0.5-1.4-0.5-2.9,0-4.3c0.3-0.8,0.6-1.5,1.1-2.1c0.6-0.8,1.2-1.5,1.8-2.1c0.8-0.8,1.7-1.5,2.6-2.1c1.1-0.8,2.2-1.5,3.3-2.1
	c1.3-0.7,2.6-1.4,4.1-2.1c1.5-0.7,3-1.4,4.8-2c1.8-0.6,3.5-1.3,5.5-2c2-0.7,4-1.3,6.1-1.9c2.1-0.6,4.4-1.3,6.8-1.9
	c2.4-0.6,4.9-1.2,7.5-1.9c2.6-0.6,5.3-1.2,8.1-1.8c2.8-0.6,5.7-1.2,8.7-1.7c3-0.6,6.1-1.1,9.4-1.7c3.2-0.6,6.5-1.1,9.9-1.6
	c3.4-0.6,6.9-1,10.5-1.5c3.6-0.5,7.2-1,11-1.5c3.7-0.5,7.6-1,11.5-1.4c3.9-0.4,7.9-0.9,12-1.3c4.1-0.4,8.2-0.9,12.4-1.2
	c4.2-0.3,8.4-0.8,12.8-1.1c4.4-0.3,8.7-0.7,13.2-1s9-0.7,13.6-1c4.6-0.3,9.2-0.6,13.9-0.9c4.6-0.3,9.4-0.6,14.1-0.8
	s9.6-0.5,14.4-0.7c4.9-0.2,9.7-0.4,14.6-0.6c4.9-0.1,9.8-0.3,14.8-0.5c4.9-0.1,9.9-0.3,15-0.3c5.1-0.1,10.1-0.2,15.1-0.3
	c5-0.1,10.1-0.1,15.1-0.1c5.1,0,10.1-0.1,15.2-0.1c5.1,0,10.1,0,15.2,0.1c5.1,0.1,10.1,0.1,15.1,0.1c5,0.1,10.1,0.1,15.1,0.3
	c5,0.1,10,0.2,15,0.3c5,0.1,9.9,0.3,14.8,0.5c4.9,0.2,9.8,0.3,14.6,0.6c4.9,0.2,9.6,0.4,14.4,0.7c4.8,0.3,9.5,0.5,14.1,0.8
	c4.6,0.3,9.3,0.6,13.9,0.9c4.6,0.3,9.1,0.6,13.6,1c4.5,0.3,8.9,0.7,13.2,1c4.4,0.3,8.6,0.8,12.8,1.1c4.2,0.3,8.4,0.8,12.4,1.2
	c4,0.4,8.1,0.9,12,1.3c3.9,0.4,7.7,0.9,11.5,1.4c3.7,0.5,7.4,1,11,1.5c3.6,0.5,7,1,10.5,1.5c3.4,0.5,6.7,1,9.9,1.6
	c3.2,0.6,6.3,1.1,9.4,1.7c3,0.6,5.9,1.2,8.7,1.7c2.8,0.6,5.5,1.2,8.1,1.8c2.6,0.6,5.1,1.2,7.5,1.9c2.4,0.6,4.6,1.2,6.8,1.9
	c2.2,0.7,4.2,1.3,6.1,1.9c1.9,0.6,3.7,1.3,5.5,2c1.8,0.7,3.3,1.4,4.8,2c1.5,0.6,2.8,1.4,4.1,2.1c1.1,0.6,2.3,1.3,3.3,2.1
	c0.9,0.6,1.8,1.3,2.6,2.1c0.7,0.6,1.3,1.4,1.8,2.1c0.5,0.7,0.8,1.4,1.1,2.1C627.9,346.4,628,347.1,628,347.8L628,347.8z"/>
<path class="st1" d="M593.3,335.8C635,252.6,658,93.4,567.5,40.5c-59.2-34.6-120.9,9.9-184.2,12C333.7,54,285.8,16.4,241,5.6
	C123.6-22.6-61.3,50.7,20,335.8C223.1,335.3,390.1,336.4,593.3,335.8z"/>
<path class="st2" d="M163.5,195.2H61.6c-0.7,0-1.3-0.3-1.8-0.7c-0.5-0.4-0.7-1.1-0.7-1.7V52.9C55.3,0.6,77.4,2.4,112.5,2.4h0
	C168.4-1,166,25,166,53v139.9c0,0.6-0.3,1.2-0.7,1.7C164.8,195,164.2,195.2,163.5,195.2z"/>
<path class="st3" d="M164.3,197.3H59.7c-0.8,0-1.6-0.3-2.2-0.9c-0.6-0.6-0.9-1.3-0.9-2.1V32c0-8.1,3.5-15.9,9.6-21.7
	c6.1-5.7,14.4-9,23-9h45.6c8.6,0,16.9,3.2,23,9c6.1,5.7,9.5,13.5,9.6,21.7v162.3c0,0.8-0.3,1.5-0.9,2.1
	C165.9,197,165.1,197.3,164.3,197.3L164.3,197.3z M59.9,194.2h104.2V32c0-7.3-3.1-14.3-8.6-19.5c-5.5-5.2-12.9-8.1-20.7-8.1H89.2
	c-7.8,0-15.2,2.9-20.7,8.1C63,17.7,59.9,24.7,59.9,32V194.2z"/>
<path class="st3" d="M111.6,195.9c-0.5,0-0.9-0.2-1.2-0.5c-0.3-0.3-0.5-0.7-0.5-1.1V2.9c0-0.4,0.2-0.8,0.5-1.1
	c0.3-0.3,0.8-0.5,1.2-0.5s0.9,0.2,1.2,0.5c0.3,0.3,0.5,0.7,0.5,1.1v191.4c0,0.2,0,0.4-0.1,0.6c-0.1,0.2-0.2,0.4-0.4,0.5
	c-0.2,0.1-0.4,0.3-0.6,0.3C112.1,195.9,111.9,195.9,111.6,195.9L111.6,195.9z"/>
<path class="st3" d="M165.7,151.6H58.3c-0.4,0-0.9-0.2-1.2-0.5c-0.3-0.3-0.5-0.7-0.5-1.1c0-0.4,0.2-0.8,0.5-1.1
	c0.3-0.3,0.7-0.5,1.2-0.5h107.5c0.4,0,0.9,0.2,1.2,0.5c0.3,0.3,0.5,0.7,0.5,1.1c0,0.4-0.2,0.8-0.5,1.1
	C166.6,151.5,166.2,151.6,165.7,151.6L165.7,151.6z M165.7,55.7H58.3c-0.4,0-0.9-0.2-1.2-0.5c-0.3-0.3-0.5-0.7-0.5-1.1
	c0-0.4,0.2-0.8,0.5-1.1c0.3-0.3,0.7-0.5,1.2-0.5h107.5c0.4,0,0.9,0.2,1.2,0.5c0.3,0.3,0.5,0.7,0.5,1.1c0,0.4-0.2,0.8-0.5,1.1
	C166.6,55.5,166.2,55.7,165.7,55.7L165.7,55.7z M165.7,103.7H58.3c-0.4,0-0.9-0.2-1.2-0.5c-0.3-0.3-0.5-0.7-0.5-1.1
	c0-0.4,0.2-0.8,0.5-1.1c0.3-0.3,0.7-0.5,1.2-0.5h107.5c0.4,0,0.9,0.2,1.2,0.5c0.3,0.3,0.5,0.7,0.5,1.1c0,0.4-0.2,0.8-0.5,1.1
	C166.6,103.5,166.2,103.7,165.7,103.7L165.7,103.7z"/>
<path class="st4" d="M249.7,15.2h27.4V78h-27.4V15.2z M279.2,79.4c-0.4-0.4-0.8-0.8-1.4-1c-0.5-0.2-1.1-0.4-1.7-0.4h-26.1
	c-0.6,0-1.1,0.1-1.7,0.4c-0.5,0.2-1,0.6-1.4,1l-35.5,39.8c-2.7,3-0.8,8.2,3,8.2h97.1c3.8,0,5.7-5.2,3-8.2L279.2,79.4z"/>
<path class="st5" d="M223,116.2h84.5c0.2,0,0.4,0.1,0.6,0.1c0.2,0.1,0.3,0.2,0.5,0.3c0.1,0.1,0.3,0.3,0.3,0.5
	c0.1,0.2,0.1,0.3,0.1,0.6c0,0.2-0.1,0.4-0.1,0.6c-0.1,0.2-0.2,0.3-0.3,0.5c-0.1,0.1-0.3,0.3-0.5,0.3c-0.2,0.1-0.3,0.1-0.6,0.1H223
	c-0.2,0-0.4-0.1-0.6-0.1c-0.2-0.1-0.3-0.2-0.5-0.3c-0.1-0.1-0.3-0.3-0.3-0.5c-0.1-0.2-0.1-0.3-0.1-0.6c0-0.2,0.1-0.4,0.1-0.6
	c0.1-0.3,0.4-0.6,0.8-0.8C222.7,116.3,222.8,116.2,223,116.2z M236.7,111.1c0,0.2,0,0.4-0.1,0.6c0,0.2-0.1,0.3-0.1,0.6
	c-0.1,0.2-0.1,0.3-0.3,0.5c-0.1,0.1-0.2,0.3-0.3,0.4c-0.1,0.1-0.3,0.3-0.4,0.3c-0.1,0.1-0.3,0.2-0.5,0.3c-0.2,0.1-0.3,0.1-0.6,0.2
	c-0.2,0.1-0.4,0.1-0.6,0.1c-0.2,0-0.4,0-0.6-0.1c-0.2-0.1-0.3-0.1-0.6-0.2c-0.2-0.1-0.3-0.1-0.5-0.3c-0.1-0.1-0.3-0.2-0.4-0.3
	c-0.1-0.1-0.3-0.3-0.3-0.4c-0.1-0.1-0.2-0.3-0.3-0.5c-0.1-0.2-0.1-0.3-0.2-0.6c-0.1-0.2-0.1-0.4-0.1-0.6c0-0.2,0-0.4,0.1-0.6
	c0.1-0.2,0.1-0.3,0.2-0.6c0.1-0.2,0.1-0.3,0.3-0.5c0.1-0.1,0.2-0.3,0.3-0.4c0.1-0.1,0.3-0.3,0.4-0.3c0.1-0.1,0.3-0.2,0.5-0.3
	c0.2-0.1,0.3-0.1,0.6-0.1c0.2-0.1,0.4-0.1,0.6-0.1c0.2,0,0.4,0,0.6,0.1c0.2,0,0.3,0.1,0.6,0.1c0.2,0.1,0.3,0.1,0.5,0.3
	c0.1,0.1,0.3,0.2,0.4,0.3c0.1,0.1,0.3,0.3,0.3,0.4c0.1,0.1,0.2,0.3,0.3,0.5c0.1,0.2,0.1,0.3,0.1,0.6
	C236.7,110.7,236.7,110.9,236.7,111.1z M246.2,111.1c0,0.2,0,0.4-0.1,0.6c-0.1,0.2-0.1,0.3-0.2,0.6c-0.1,0.2-0.1,0.3-0.3,0.5
	c-0.2,0.3-0.5,0.6-0.8,0.8c-0.1,0.1-0.3,0.2-0.5,0.3c-0.2,0.1-0.3,0.1-0.6,0.2c-0.2,0.1-0.4,0.1-0.6,0.1c-0.2,0-0.4,0-0.6-0.1
	c-0.2-0.1-0.3-0.1-0.6-0.2c-0.2-0.1-0.3-0.1-0.5-0.3c-0.1-0.1-0.3-0.2-0.4-0.3c-0.1-0.1-0.3-0.3-0.3-0.4c-0.1-0.1-0.2-0.3-0.3-0.5
	c-0.1-0.2-0.1-0.3-0.1-0.6c-0.1-0.2-0.1-0.4-0.1-0.6c0-0.2,0-0.4,0.1-0.6c0.1-0.2,0.1-0.3,0.1-0.6s0.1-0.3,0.3-0.5
	c0.2-0.3,0.5-0.6,0.8-0.8c0.1-0.1,0.3-0.2,0.5-0.3c0.2-0.1,0.3-0.1,0.6-0.1c0.2-0.1,0.4-0.1,0.6-0.1c0.2,0,0.4,0,0.6,0.1
	c0.2,0,0.3,0.1,0.6,0.1c0.2,0.1,0.3,0.1,0.5,0.3c0.1,0.1,0.3,0.2,0.4,0.3c0.1,0.1,0.3,0.3,0.3,0.4c0.1,0.1,0.2,0.3,0.3,0.5
	c0.1,0.2,0.1,0.3,0.2,0.6C246.2,110.7,246.2,110.9,246.2,111.1z M255.8,111.1c0,0.2,0,0.4-0.1,0.6c-0.1,0.4-0.2,0.8-0.4,1.1
	c-0.1,0.1-0.2,0.3-0.3,0.4c-0.1,0.1-0.3,0.3-0.4,0.3c-0.1,0.1-0.3,0.2-0.5,0.3c-0.2,0.1-0.3,0.1-0.6,0.2c-0.4,0.1-0.8,0.1-1.2,0
	c-0.2-0.1-0.3-0.1-0.6-0.2c-0.2-0.1-0.3-0.1-0.5-0.3c-0.1-0.1-0.3-0.2-0.4-0.3c-0.1-0.1-0.3-0.3-0.3-0.4c-0.2-0.3-0.3-0.7-0.4-1.1
	c-0.1-0.2-0.1-0.4-0.1-0.6c0-0.2,0-0.4,0.1-0.6c0.1-0.2,0.1-0.3,0.1-0.6c0.1-0.2,0.1-0.3,0.3-0.5c0.1-0.1,0.2-0.3,0.3-0.4
	c0.3-0.3,0.6-0.5,1-0.6c0.2-0.1,0.3-0.1,0.6-0.1c0.4-0.1,0.8-0.1,1.2,0c0.2,0.1,0.3,0.1,0.6,0.1c0.3,0.1,0.7,0.3,1,0.6
	c0.1,0.1,0.3,0.3,0.3,0.4c0.1,0.1,0.2,0.3,0.3,0.5c0.1,0.2,0.1,0.3,0.1,0.6C255.7,110.7,255.8,110.9,255.8,111.1L255.8,111.1z"/>
<path class="st5" d="M338.3,124.5h84.5c0.2,0,0.4,0.1,0.6,0.1c0.3,0.1,0.6,0.4,0.8,0.8c0.1,0.2,0.1,0.3,0.1,0.6
	c0,0.2-0.1,0.4-0.1,0.6c-0.1,0.2-0.2,0.3-0.3,0.5c-0.1,0.1-0.3,0.3-0.5,0.3c-0.2,0.1-0.3,0.1-0.6,0.1h-84.5c-0.2,0-0.4-0.1-0.6-0.1
	c-0.2-0.1-0.3-0.2-0.5-0.3c-0.1-0.1-0.3-0.3-0.3-0.5c-0.1-0.2-0.1-0.3-0.1-0.6c0-0.2,0.1-0.4,0.1-0.6c0.1-0.2,0.2-0.3,0.3-0.5
	c0.1-0.1,0.3-0.3,0.5-0.3C337.9,124.5,338.1,124.5,338.3,124.5L338.3,124.5z"/>
<path class="st4" d="M349.2,160.8l-1.9-24.7c-0.2-2.6,0.5-4.9,1.5-4.9h3.7c1,0,1.7,2.4,1.5,4.9l-1.9,24.7
	C351.8,165.1,349.5,165.1,349.2,160.8z"/>
<path class="st4" d="M350.7,183.9c8.7,0,15.8-7.1,15.8-15.8c0-8.7-7.1-15.8-15.8-15.8c-8.7,0-15.8,7.1-15.8,15.8
	C334.9,176.8,342,183.9,350.7,183.9z"/>
<path class="st2" d="M352.2,135.3v0.3c0,0.1-0.1,0.2-0.1,0.3c-0.1,0.1-0.1,0.2-0.1,0.3l-0.2,0.2l-0.2,0.2c-0.1,0.1-0.1,0.1-0.3,0.1
	l-0.3,0.1h-0.6c-0.1,0-0.2-0.1-0.3-0.1c-0.1-0.1-0.1-0.1-0.3-0.1l-0.2-0.2l-0.2-0.2c-0.1-0.1-0.1-0.1-0.1-0.3
	c-0.1-0.1-0.1-0.2-0.1-0.3c-0.1-0.2-0.1-0.4,0-0.6c0-0.1,0.1-0.2,0.1-0.3s0.1-0.2,0.1-0.3l0.2-0.2l0.2-0.2c0.1-0.1,0.1-0.1,0.3-0.1
	c0.1-0.1,0.2-0.1,0.3-0.1h0.6l0.3,0.1c0.1,0.1,0.2,0.1,0.3,0.1l0.2,0.2l0.2,0.2c0.1,0.1,0.1,0.1,0.1,0.3c0.1,0.1,0.1,0.2,0.1,0.3
	V135.3z"/>
<path class="st0" d="M350.7,180.1c6.7,0,12-5.4,12-12s-5.4-12-12-12c-6.7,0-12,5.4-12,12S344,180.1,350.7,180.1z"/>
<path class="st5" d="M350.1,137.3h-0.3l0.1-2.8c0.3,0,1,0.1,1.2-2.7c0.2-2.4,0.1-4.7-0.2-7.1l-2.2-0.1c0.2-2.7,1.5-3.6,2.6-3.5
	c0.8,0.1,3.3,0.2,2.6,10.9C353.7,136.5,351.5,137.3,350.1,137.3L350.1,137.3z"/>
<path class="st6" d="M433.5,99.9L432.6,344c0,2.3,0.8,4.6,2.3,6.4c1.5,1.8,3.6,3,5.9,3.3l1.5,0.1l98.6,0.4c2.6,0,5.1-1,6.9-2.9
	c1.8-1.8,2.9-4.3,2.9-6.9l0.9-244.1c0-2.6-1-5.1-2.9-6.9c-1.8-1.8-4.3-2.9-6.9-2.9l-98.6-0.4c-0.8,0-1.7,0.1-2.5,0.3
	c-0.3,0.1-0.6,0.2-0.9,0.3c-0.4,0.2-0.9,0.4-1.2,0.5c-1.5,0.9-2.8,2.1-3.7,3.6C434.1,96.5,433.6,98.2,433.5,99.9L433.5,99.9z"/>
<path class="st7" d="M432.6,353.9l0-11l118.1,0.4l0,11.1L432.6,353.9z"/>
<path class="st8" d="M537,242c0.8,0,1.6-0.3,2.2-0.9c0.6-0.6,0.9-1.3,0.9-2.1l0.2-52.3c0-0.8-0.3-1.6-0.9-2.2
	c-0.6-0.6-1.3-0.9-2.1-0.9c-0.8,0-1.6,0.3-2.2,0.9c-0.6,0.6-0.9,1.3-0.9,2.1L534,239c0,0.4,0.1,0.8,0.2,1.2c0.1,0.4,0.4,0.7,0.7,1
	c0.3,0.3,0.6,0.5,1,0.7S536.6,242.1,537,242L537,242z M536.7,331c0.8,0,1.6-0.3,2.2-0.9c0.6-0.6,0.9-1.3,0.9-2.1l0.1-31.4
	c0-0.8-0.3-1.6-0.9-2.2c-0.6-0.6-1.3-0.9-2.1-0.9c-0.8,0-1.6,0.3-2.2,0.9c-0.6,0.6-0.9,1.3-0.9,2.1l-0.1,31.4c0,0.8,0.3,1.6,0.9,2.2
	C535.1,330.6,535.9,331,536.7,331L536.7,331z"/>
<path class="st7" d="M432.9,278.4l0-5.4l118.1,0.4l0,5.4L432.9,278.4z"/>
<path class="st9" d="M98.1,232.2h334.5v122H98.1V232.2z"/>
<path class="st5" d="M98.1,222.2h334.4v9.7H98.1V222.2z"/>
<path class="st10" d="M382,299.7v9.4"/>
<path class="st11" d="M166,299.7v9.4 M322.3,242.3h101.9v101.9H322.3V242.3z M322.3,264.3h101.9H322.3z M373.3,264.3v78.5V264.3z
	 M382,299.7v9.4V299.7z M364.7,299.7v9.4V299.7z M106.3,242.3h101.9v101.9H106.3V242.3z M106.3,264.3h101.9H106.3z"/>
<path class="st10" d="M148.7,299.7v9.4"/>
<path class="st12" d="M208.2,225.7c-0.1,0.5-1.3,0.7-3.2,0.7c-1,0-2.2,0-3.5-0.1s-2.9-0.2-4.6-0.4c-1.7-0.2-3.6-0.5-5.6-0.8
	c-2-0.3-4.2-0.7-6.4-1.3c-2.3-0.5-4.6-1.2-7.1-2c-2.6-0.8-5.1-1.8-7.5-2.9c-2.5-1.2-4.9-2.5-7.2-4c-2.2-1.4-4.2-3-6.1-4.7
	c-0.9-0.9-1.8-1.7-2.6-2.6c-0.4-0.4-0.8-0.9-1.2-1.3c-0.4-0.4-0.7-0.9-1.1-1.3c-0.4-0.4-0.7-0.9-1-1.3c-0.3-0.4-0.6-0.9-0.9-1.3
	c-0.5-0.9-1.1-1.8-1.5-2.6c-0.8-1.6-1.4-3.2-1.8-4.9c-0.2-0.8-0.3-1.5-0.4-2.1c-0.1-0.6-0.1-1.2-0.1-1.9c0-0.3,0-0.5,0.1-0.8
	c0.1-0.2,0.1-0.5,0.1-0.7c0.1-0.4,0.2-0.8,0.4-1.2c0.1-0.3,0.3-0.6,0.6-0.8c0.2-0.2,0.5-0.4,0.8-0.5c0.6-0.2,1.3-0.1,1.9,0.1
	c0.4,0.1,0.7,0.3,1.1,0.5c0.2,0.1,0.4,0.2,0.5,0.4l0.6,0.4c0.4,0.3,0.8,0.7,1.2,1c0.4,0.4,0.9,0.8,1.3,1.2c0.9,0.9,1.9,1.8,2.9,2.9
	c0.5,0.5,1.1,1.1,1.7,1.6c0.3,0.3,0.6,0.6,0.9,0.8c0.3,0.3,0.6,0.6,0.9,0.9c0.3,0.3,0.6,0.6,1,0.9c0.3,0.3,0.7,0.6,1,0.9
	c0.7,0.6,1.4,1.2,2.2,1.9c1.5,1.3,3.1,2.6,4.9,3.9c1.7,1.3,3.6,2.6,5.6,3.8s4,2.5,6,3.6c2,1.1,4,2.2,5.9,3.1c1.9,1,3.8,1.9,5.5,2.8
	l5,2.4c1.5,0.7,2.9,1.4,4.2,2s2.3,1.2,3.1,1.7C207.4,224.5,208.3,225.2,208.2,225.7L208.2,225.7z"/>
<path class="st13" d="M85.2,343.8c0,0,1.4,8.1,8.7,6.7l6.1,28.9l-25.9-31.3L85.2,343.8z"/>
<path class="st2" d="M96.6,380.8l-24.5-29.7c-0.1-0.1-0.2-0.2-0.2-0.4c0-0.1-0.1-0.3,0-0.4c0-0.1,0.1-0.3,0.1-0.4
	c0.1-0.1,0.2-0.2,0.3-0.3l1.9-1.6l25.9,31.3l-1.9,1.6c-0.1,0.1-0.2,0.2-0.4,0.2c-0.1,0-0.3,0.1-0.4,0c-0.1,0-0.3-0.1-0.4-0.1
	C96.8,381,96.7,380.9,96.6,380.8L96.6,380.8z M90.7,357.2c0.1,0.1,0.2,0.1,0.3,0.1c1.5-0.1,3,0.1,4.4,0.4c0.2,0.1,0.3,0,0.5,0
	c0.2-0.1,0.3-0.2,0.3-0.4v0c0-0.2,0-0.4-0.1-0.5s-0.2-0.3-0.4-0.3c-1.6-0.4-3.2-0.6-4.8-0.5c-0.2,0-0.3,0.1-0.4,0.2
	c-0.1,0.1-0.2,0.3-0.2,0.4v0c0,0.1,0,0.2,0.1,0.3C90.5,357,90.6,357.1,90.7,357.2L90.7,357.2z M91.6,360.8c0.1,0.1,0.2,0.1,0.3,0.1
	c1.5-0.1,3,0.1,4.4,0.4c0.2,0.1,0.3,0,0.5,0c0.2-0.1,0.3-0.2,0.3-0.4v0c0-0.2,0-0.4-0.1-0.5c-0.1-0.2-0.2-0.3-0.4-0.3
	c-1.6-0.4-3.2-0.6-4.8-0.5c-0.2,0-0.3,0.1-0.4,0.2c-0.1,0.1-0.2,0.3-0.2,0.4v0c0,0.1,0,0.2,0.1,0.3
	C91.4,360.7,91.5,360.8,91.6,360.8L91.6,360.8z M92.4,364.4c0.1,0.1,0.2,0.1,0.3,0.1c1.5-0.1,3,0.1,4.4,0.5c0.2,0.1,0.3,0,0.5,0
	c0.2-0.1,0.3-0.2,0.3-0.4v0c0-0.2,0-0.4-0.1-0.5c-0.1-0.2-0.2-0.3-0.4-0.3c-1.6-0.4-3.2-0.6-4.8-0.5c-0.2,0-0.3,0.1-0.4,0.2
	c-0.1,0.1-0.2,0.3-0.2,0.4v0c0,0.1,0,0.2,0.1,0.3C92.2,364.3,92.3,364.4,92.4,364.4L92.4,364.4z"/>
<path class="st13" d="M168,367c0,0,7,4.3,10.7-2.2l25.8,14.3l-40.6-1L168,367z"/>
<path class="st2" d="M203.1,382.7l-37.9-1c-0.2,0-0.4,0-0.5-0.1c-0.2-0.1-0.3-0.2-0.4-0.3c-0.1-0.1-0.2-0.3-0.3-0.4
	c-0.1-0.2-0.1-0.3-0.1-0.5l0.1-2.2l40.6,1l-0.1,2.2c0,0.2,0,0.4-0.1,0.5c-0.1,0.2-0.2,0.3-0.3,0.4c-0.1,0.1-0.3,0.2-0.4,0.3
	C203.5,382.7,203.3,382.7,203.1,382.7L203.1,382.7z M181.7,371.7c0.1,0,0.2-0.1,0.3-0.2c0.9-1.2,2-2.2,3.2-3c0.1,0,0.1-0.1,0.2-0.2
	c0.1-0.1,0.1-0.1,0.1-0.2c0-0.1,0-0.2,0-0.2c0-0.1,0-0.2-0.1-0.2c-0.1-0.1-0.3-0.3-0.4-0.3c-0.2,0-0.4,0-0.5,0.1
	c-1.4,0.9-2.6,2-3.6,3.4c-0.1,0.1-0.1,0.3-0.1,0.5c0,0.2,0.1,0.3,0.2,0.4c0.1,0.1,0.2,0.1,0.3,0.1
	C181.5,371.7,181.6,371.7,181.7,371.7L181.7,371.7z M185,373.4c0.1,0,0.2-0.1,0.3-0.2c0.9-1.2,2-2.2,3.2-3c0.1,0,0.1-0.1,0.2-0.2
	c0.1-0.1,0.1-0.1,0.1-0.2c0-0.1,0-0.2,0-0.2c0-0.1,0-0.2-0.1-0.2c-0.1-0.1-0.3-0.3-0.4-0.3c-0.2,0-0.4,0-0.5,0.1
	c-1.4,0.9-2.6,2-3.6,3.4c-0.1,0.1-0.1,0.3-0.1,0.5c0,0.2,0.1,0.3,0.2,0.4c0.1,0.1,0.2,0.1,0.3,0.1
	C184.7,373.4,184.9,373.4,185,373.4L185,373.4z M188.3,375.1c0.1,0,0.2-0.1,0.3-0.2c0.9-1.2,2-2.2,3.2-3c0.1,0,0.1-0.1,0.2-0.2
	c0.1-0.1,0.1-0.1,0.1-0.2c0-0.1,0-0.2,0-0.2c0-0.1,0-0.2-0.1-0.2c-0.1-0.1-0.3-0.3-0.4-0.3c-0.2,0-0.4,0-0.5,0.1
	c-1.4,0.9-2.6,2-3.6,3.4c-0.1,0.1-0.1,0.3-0.1,0.5c0,0.2,0.1,0.3,0.2,0.4c0.1,0.1,0.2,0.1,0.3,0.1
	C188,375.2,188.2,375.2,188.3,375.1L188.3,375.1z M157.2,201c1.3,11.5,1.5,23,1.4,34.6c-10.9,4-22.6,5.4-34.1,4.1
	c-1.2-11.7-2.4-23.4-2.9-35.1c-0.3-6.2-0.3-12.5,1.2-18.4c1.4-5.3,4.2-10.5,8.3-13.8c0.5-0.4,1-0.7,1.5-1.1c2.7,2,8.2,2.6,11.1,1.1
	c1.6,1,3.1,2.2,4.4,3.6c2.4,2.6,4.2,5.7,5.5,9C155.7,190.1,156.6,195.6,157.2,201L157.2,201z"/>
<path class="st14" d="M148.1,175.7c-2.9,0.9-5.9,1-8.8,0.4c-2.9-0.6-5.7-1.8-8-3.7c0-0.2-0.1-0.5-0.1-0.7c0-0.1,0-0.2,0-0.3
	c0-0.3,0.1-0.7,0.1-1c0.4-3.3,0.8-6.7,1.1-10c0.3-3.1,0.6-6.2,0.9-9.3c3.5,1.6,6.9,3.5,10.1,5.7c0.1,2.1,0.3,4.2,0.6,6.2
	c0.2,1.7,0.5,3.5,0.8,5.2c0.2,1,0.4,1.9,0.6,2.9c0.2,0.9,0.4,1.8,0.6,2.7C146.7,174.4,147.4,175,148.1,175.7L148.1,175.7z"/>
<path class="st15" d="M144.8,168.2c-3.6-1-7.8-1.8-12.4-7.8c0.3-3.1,0.6-6.2,0.9-9.3c3.5,1.6,6.9,3.5,10.1,5.7
	c0.1,2.1,0.3,4.2,0.6,6.2C144.2,164.8,144.5,166.5,144.8,168.2L144.8,168.2z"/>
<path class="st16" d="M144,131.8c-0.4-1.1-1-2.1-1.8-3c-0.8-0.9-1.8-1.5-2.9-2c-2.2-0.8-4.7-0.9-6.9-0.2c-2.4,0.6-4.5,2-6,3.8
	c-1.6,1.9-2.4,4.2-2.5,6.7c0,3.8,2.3,7.2,4.5,10.4C132.3,141.2,137.7,135.8,144,131.8L144,131.8z"/>
<path class="st2" d="M146.3,127.4c1.1-0.7,2.3-1.3,3.5-1.2c1.7,0.2,2.9,2.1,2.9,3.8c-0.2,1.8-1,3.4-2.3,4.6c-1.9,2-4.4,3.5-7.2,4.1
	c-2.7,0.6-5.6,0.4-8.2-0.5c-0.7-0.2-2.5-0.8-2.8-1.4c-0.6-1.1,0.6-1.3,1.5-1.9L146.3,127.4z"/>
<path class="st13" d="M133.7,158.5c-3.3-2.8-5.3-6.6-5.9-10.9c-0.3-2.5,0-5.1,0.9-7.5c0.2-0.5,0.5-0.9,0.8-1.3
	c0.6-0.9,1.3-1.7,2-2.5c1.6,2.2,2.8,4.8,3.5,7.5C136.2,148.7,135.8,153.9,133.7,158.5L133.7,158.5z M147.5,141.3
	c0.5,1.3,0.7,2.7,0.6,4.1c-0.2,1.4-0.7,2.7-1.5,3.9c-1.4-1.9-2.3-4-2.7-6.3c-0.1-0.3-0.1-0.6-0.1-0.9c0-0.3,0.1-0.6,0.3-0.8
	c0.2-0.2,0.5-0.3,0.8-0.4c0.3-0.1,0.6-0.1,0.9,0C146.3,140.9,147,141.4,147.5,141.3L147.5,141.3z"/>
<path class="st14" d="M145.6,140.3c-0.5,3,1,6,2.3,8.8c1.3,2.8,2.5,6,1.5,8.9c-1.1,3-4.5,4.8-7.7,4.5c-3.2-0.3-6-2.5-7.6-5.3
	c-1.5-2.8-2.2-6.1-2-9.3c0.3-3.2,0.8-6.4,1.6-9.5C137.6,136.3,142.2,137.6,145.6,140.3L145.6,140.3z"/>
<path class="st14" d="M133,148.9c-0.4-0.4-0.8-0.8-1.4-1c-0.5-0.3-1.1-0.3-1.7-0.2c-0.3,0.1-0.7,0.4-0.9,0.7c-0.2,0.3-0.4,0.6-0.5,1
	c-0.2,0.7-0.2,1.4,0.1,2.1c0.2,0.7,0.7,1.3,1.2,1.7c0.6,0.4,1.2,0.7,2,0.7c0.7,0,1.4-0.1,2-0.5C133.5,151.9,133.2,150.4,133,148.9
	L133,148.9z"/>
<path class="st13" d="M147.9,142.6c-4.5,0.3-9.1-0.7-13.1-2.8c0.4,1.3,0.4,2.7,0.1,4.1c-0.5,2-1.6,3.7-3.1,4.9
	c-1.8-2.5-2.9-5.9-2.5-8.9c0.1-0.4,0.1-0.7,0.2-1.1c1.5-2.3,3.6-4.1,6.1-5.2c2-0.8,4.2-1.2,6.4-1.1c2.2,0.1,4.3,0.7,6.2,1.8
	c0.3,0.3,0.6,0.5,0.9,0.8c0.7,0.7,1.3,1.6,1.8,2.5c0.2,0.5,0.3,1.1,0.3,1.7c0,0.6-0.2,1.1-0.5,1.6c-0.3,0.5-0.7,0.9-1.2,1.2
	C149,142.4,148.5,142.5,147.9,142.6L147.9,142.6z"/>
<path class="st17" d="M123.8,249.4c0,0,11.2,53.7-42.2,94.4L97,359.3c0,0,59.8-44.5,51.5-98.5L123.8,249.4z"/>
<path class="st18" d="M122.9,280.5c4.2,11.3,9.5,22.3,14,33.5c8.7-15.4,14.6-33.6,11.6-53.1l-24.7-11.4
	C123.8,249.4,126.5,262.5,122.9,280.5L122.9,280.5z"/>
<path class="st17" d="M123.3,222.2c-0.2,0-0.4-0.2-0.7-0.7c-0.2-0.3-0.3-0.6-0.5-1c-0.2-0.4-0.3-0.8-0.5-1.4
	c-0.1-0.3-0.2-0.5-0.3-0.8c-0.1-0.3-0.2-0.6-0.2-0.9c-0.1-0.3-0.2-0.7-0.3-1c-0.1-0.3-0.2-0.7-0.2-1.1c-0.1-0.4-0.2-0.8-0.2-1.2
	c-0.1-0.4-0.1-0.8-0.2-1.3c-0.2-0.9-0.2-1.8-0.4-2.8c-0.2-1.9-0.3-4.1-0.3-6.4c0-5.2,0.7-10.3,1.9-15.3c0.6-3,1.7-5.8,3.2-8.5
	c0.8-1.4,1.9-2.7,3.1-3.8c1.2-1.1,2.6-2,4.1-2.6c0.8-0.3,1.5-0.6,2.4-0.7l0.6-0.1l0.6,0h1.2c1.5,0.1,3,0.4,4.4,1
	c1.3,0.6,2.5,1.3,3.5,2.2c0.2,0.2,0.5,0.4,0.7,0.6l0.7,0.7l0.6,0.7c0.2,0.2,0.4,0.5,0.6,0.7c0.7,0.9,1.3,1.9,1.9,3
	c0.5,1,0.9,1.9,1.2,2.9c0.5,1.7,0.9,3.4,1.1,5.2c0.2,1.3,0.3,2.6,0.3,3.9c0,2.2-0.1,3.3-0.3,3.4c-0.2,0-0.5-1.1-1-3.2
	c-0.2-1-0.5-2.3-0.9-3.7c-0.4-1.6-1-3.2-1.6-4.7c-0.8-1.8-1.8-3.4-3.1-4.8c-0.2-0.2-0.3-0.4-0.5-0.6l-0.6-0.5l-0.6-0.5
	c-0.2-0.2-0.4-0.3-0.6-0.5c-0.9-0.6-1.8-1.1-2.8-1.5c-1-0.4-2.1-0.6-3.1-0.6h-0.4c-0.1,0-0.3,0-0.4,0l-0.4,0l-0.4,0.1
	c-0.5,0.1-1,0.3-1.5,0.5c-2.1,1.1-3.9,2.8-5,4.9c-1.2,2.3-2.1,4.8-2.6,7.3c-0.6,2.5-1.1,5-1.4,7.5c-0.3,2.4-0.6,4.7-0.7,6.9
	c-0.1,2.2-0.2,4.2-0.2,6.1v3.9c0,0.4,0,0.8,0,1.1c0,0.4,0,0.7,0,1.1c0,0.3,0,0.7,0,1c0,0.3,0,0.6,0,0.9v3.3
	C123.6,221.9,123.5,222.2,123.3,222.2L123.3,222.2z"/>
<path class="st16" d="M157,191.2c2.9,16.5,4.3,40.9,3,57.6c0,0,32.5,58,28.1,117.6l-22.8,6.6c0,0-8.2-77.8-41-116.1l-2.9-39l24.6-5
	l1.4-21L157,191.2z"/>
<path class="st14" d="M132.2,255.1c-0.4-0.2-0.7-0.3-1.1-0.5l-0.7-0.4c-0.2-0.1-0.5-0.3-0.7-0.5c-0.5-0.3-1-0.7-1.6-1.2
	c-0.6-0.4-1.2-1-1.8-1.6c-0.7-0.6-1.3-1.3-2-2c-0.7-0.7-1.4-1.5-2.1-2.4l-0.5-0.7c-0.2-0.2-0.3-0.5-0.5-0.7c-0.3-0.5-0.7-1-1-1.5
	c-0.4-0.5-0.7-1-1-1.6c-0.3-0.5-0.7-1.1-1-1.7c-0.3-0.6-0.6-1.2-0.9-1.8c-0.2-0.3-0.3-0.6-0.5-0.9l-0.4-1c-0.3-0.7-0.6-1.3-0.9-2
	c-0.3-0.7-0.5-1.4-0.8-2.1c-0.3-0.8-0.5-1.5-0.7-2.2c-0.2-0.8-0.4-1.5-0.6-2.3c-0.1-0.8-0.3-1.6-0.5-2.4c-0.2-0.8-0.2-1.7-0.3-2.5
	c-0.8-7.3,0.2-14.6,3.1-21.3c0.4-0.8,0.7-1.6,1.1-2.4c0.4-0.8,0.8-1.5,1.2-2.3c0.4-0.7,0.9-1.5,1.3-2.1s0.9-1.4,1.4-2
	c0.5-0.6,1-1.3,1.5-1.9s1-1.2,1.6-1.7c0.3-0.3,0.5-0.6,0.8-0.8l0.8-0.8c0.5-0.4,0.9-0.9,1.4-1.3c3.6,5,8.9,8.6,14.9,10.2
	c-0.1,0.2-0.3,0.3-0.4,0.5c-0.3,0.3-0.6,0.7-0.9,1l-0.9,1.1c-0.3,0.4-0.6,0.8-0.9,1.1c-0.2,0.2-0.3,0.4-0.5,0.6l-0.5,0.6
	c-0.3,0.4-0.7,0.8-1,1.2c-0.3,0.4-0.6,0.9-0.9,1.3c-0.3,0.4-0.6,0.9-0.9,1.3c-0.3,0.5-0.7,0.9-0.9,1.4c-0.3,0.5-0.6,0.9-0.9,1.4
	c-0.3,0.5-0.6,1-0.9,1.5c-1.2,2.1-2.2,4.3-3.1,6.5c-0.8,2.3-1.4,4.7-1.9,7.2c-0.1,0.6-0.2,1.2-0.3,1.8c-0.1,0.6-0.1,1.2-0.2,1.8
	c-0.1,0.6-0.1,1.2-0.1,1.8c0,0.6,0,1.2,0,1.8c0.1,0.6,0,1.2,0,1.8c0,0.6,0.1,1.1,0.1,1.7l0.1,0.9c0,0.3,0.1,0.6,0.1,0.8
	c0.1,0.6,0.2,1.1,0.2,1.6c0.1,0.5,0.2,1.1,0.3,1.6c0.1,0.5,0.2,1,0.3,1.5c0.1,0.5,0.3,1,0.4,1.5c0.1,0.2,0.1,0.5,0.2,0.7l0.2,0.7
	c0.3,0.9,0.6,1.8,0.9,2.6c0.3,0.8,0.6,1.6,0.9,2.3c0.3,0.7,0.6,1.4,0.9,2c0.3,0.6,0.6,1.2,0.9,1.7c0.1,0.3,0.2,0.5,0.4,0.7l0.3,0.6
	c0.2,0.3,0.3,0.7,0.5,1c0.2,0.6,0.3,1,0.1,1.2C133.2,255.4,132.8,255.4,132.2,255.1L132.2,255.1z"/>
<path class="st14" d="M127.8,251.4c1.6-0.6,3.3-0.7,4.9-0.1s3,1.6,3.8,3.1c0.9,1.5,1.2,3.2,0.9,4.8c-0.3,1.7-1.2,3.2-2.5,4.2
	C130.9,260.8,128.5,256.2,127.8,251.4z"/>
<path class="st12" d="M201,221c2.2,0,4.3,0.6,6.2,1.6s3.6,2.5,4.8,4.3c0.7,1,1.2,2.1,1.4,3.3c0.1,0.6,0.1,1.2-0.1,1.8
	c-0.1,0.6-0.4,1.1-0.8,1.6c-2.7-1.1-5.2-2.9-7.2-5.1C203.4,226.4,201.9,223.8,201,221L201,221z"/>
<path class="st16" d="M308.8,264.3h-86.7c-1.4,0-2.5,1.1-2.5,2.5v74.9c0,1.4,1.1,2.5,2.5,2.5h86.7c1.4,0,2.5-1.1,2.5-2.5v-74.9
	C311.3,265.4,310.2,264.3,308.8,264.3z"/>
<path class="st4" d="M307.5,242h-85.4c-1.4,0-2.5,1.1-2.5,2.5v6.6c0,1.4,1.1,2.5,2.5,2.5h85.4c1.4,0,2.5-1.1,2.5-2.5v-6.6
	C310,243.2,308.9,242,307.5,242z"/>
<path class="st5" d="M227.9,250.9c1.7,0,3.1-1.4,3.1-3.1c0-1.7-1.4-3.1-3.1-3.1s-3.1,1.4-3.1,3.1
	C224.8,249.5,226.2,250.9,227.9,250.9z"/>
<path class="st5" d="M241.7,250.9c1.7,0,3.1-1.4,3.1-3.1c0-1.7-1.4-3.1-3.1-3.1s-3.1,1.4-3.1,3.1C238.6,249.5,240,250.9,241.7,250.9
	z"/>
<path class="st5" d="M255.6,250.9c1.7,0,3.1-1.4,3.1-3.1c0-1.7-1.4-3.1-3.1-3.1c-1.7,0-3.1,1.4-3.1,3.1
	C252.5,249.5,253.9,250.9,255.6,250.9z"/>
<path class="st5" d="M302.9,246.3h-28.1c-0.8,0-1.5,0.7-1.5,1.5v0c0,0.8,0.7,1.5,1.5,1.5h28.1c0.8,0,1.5-0.7,1.5-1.5v0
	C304.5,247,303.8,246.3,302.9,246.3z"/>
<path class="st19" d="M235.1,222.2v-4 M310,222.2v-8.7l-8.7,4.3L310,222.2z M284.7,222.2v-8.7l8.7,4.3L284.7,222.2z M297.4,222.2v-4
	V222.2z M247.7,222.2v-8.7l-8.7,4.3L247.7,222.2z M222.4,222.2v-8.7l8.7,4.3L222.4,222.2z"/>
<path class="st4" d="M277.4,271.3h-24c-1.4,0-2.6,1.2-2.6,2.6v0c0,1.4,1.2,2.6,2.6,2.6h24c1.4,0,2.6-1.2,2.6-2.6v0
	C279.9,272.4,278.8,271.3,277.4,271.3z"/>
</svg>
