<svg version="1.1" xmlns="http://www.w3.org/2000/svg" xmlns:xlink="http://www.w3.org/1999/xlink" width="630" height="390" viewBox="0 0 630 390">
<style type="text/css">
	.st0{fill:#EAF1FC;}
	.st1{fill:#F8F8FF;}
	.st2{fill:#FFFFFF;}
	.st3{fill:#D6E0F0;}
	.st4{fill:#FCFBFC;}
	.st5{fill:#E8EDF4;}
	.st6{fill:#DFE1E5;}
	.st7{fill:#DFE1E6;}
	.st8{fill:#E9EDF4;}
	.st9{fill:#CDE4F7;}
	.st10{fill:#64CE38;}
	.st11{fill:#289917;}
	.st12{fill:#FFDA35;}
	.st13{fill:#EAB624;}
	.st14{fill:#0B2B46;}
	.st15{fill:#DB3E3E;}
	.st16{fill:#C93D37;}
	.st17{fill:#FF524F;}
	.st18{fill:#F8C47A;}
	.st19{fill:#E19A54;}
	.st20{fill:#FFDF9A;}
	.st21{fill:#E4E6E6;}
	.st22{fill:#CE8D4D;}
	.st23{fill:#D38137;}
	.st24{fill:#E5B571;}
	.st25{fill:#ECCF8F;}
	.st26{fill:#C07632;}
	.st27{fill:#EAB973;}
	.st28{fill:#D3914F;}
	.st29{fill:#C08448;}
	.st30{fill:#C8731C;}
	.st31{fill:#AB5D17;}
	.st32{fill:#C7731C;}
	.st33{fill:#FF8500;}
	.st34{fill:#AF7309;}
	.st35{fill:#A97000;}
	.st36{fill:#F4A721;}
	.st37{fill:#E08F73;}
	.st38{fill:#F09976;}
	.st39{fill:#E8815F;}
	.st40{fill:#047487;}
	.st41{fill:#05616B;}
	.st42{fill:#02819F;}
</style>
<path class="st0" d="M313.5,302.6c173.1,0,313.5,19.2,313.5,43s-140.4,43-313.5,43S0,369.3,0,345.6C0,321.9,140.4,302.6,313.5,302.6
	z"/>
<path class="st1" d="M569.6,336.2c40.2-83.3,62.2-242.7-24.7-295.7c-56.8-34.6-116,9.9-176.8,12c-47.7,1.6-93.7-36.1-136.7-46.8
	C118.6-22.5-58.8,50.7,19.2,336.2C214.3,335.6,374.6,336.7,569.6,336.2z"/>
<path class="st2" d="M410.1,200.3h-99.4c-0.3,0-0.6-0.1-0.9-0.2c-0.3-0.1-0.6-0.3-0.8-0.5c-0.2-0.2-0.4-0.5-0.5-0.8
	c-0.1-0.3-0.2-0.6-0.2-0.9V53.4C304.4-0.7,326,1.2,360.3,1.2h0c54.5-3.6,52.1,23.4,52.1,52.2v144.5c0,0.3-0.1,0.6-0.2,0.9
	c-0.1,0.3-0.3,0.6-0.5,0.8c-0.2,0.2-0.5,0.4-0.8,0.5C410.7,200.3,410.4,200.3,410.1,200.3L410.1,200.3z"/>
<path class="st3" d="M410.5,202.5H309c-0.4,0-0.8-0.1-1.2-0.2c-0.4-0.2-0.7-0.4-1-0.7c-0.3-0.3-0.5-0.6-0.7-1
	c-0.2-0.4-0.2-0.8-0.2-1.2V31.7c0-8.4,3.3-16.4,9.3-22.4c5.9-5.9,14-9.3,22.4-9.3H382c8.4,0,16.4,3.4,22.4,9.3
	c5.9,5.9,9.3,14,9.3,22.4v167.7c0,0.4-0.1,0.8-0.2,1.2c-0.2,0.4-0.4,0.7-0.7,1c-0.3,0.3-0.6,0.5-1,0.7
	C411.3,202.4,410.9,202.5,410.5,202.5L410.5,202.5z M309.2,199.3h101.2V31.8c0-7.6-3-14.8-8.3-20.1c-5.3-5.3-12.6-8.3-20.1-8.3
	h-44.3c-7.5,0-14.8,3-20.1,8.3c-5.3,5.3-8.3,12.6-8.3,20.1L309.2,199.3L309.2,199.3z"/>
<path class="st3" d="M359.8,201.2c-0.4,0-0.8-0.2-1.1-0.5c-0.3-0.3-0.5-0.7-0.5-1.1V1.7c0-0.4,0.2-0.8,0.5-1.1
	c0.3-0.3,0.7-0.5,1.1-0.5c0.4,0,0.8,0.2,1.1,0.5c0.3,0.3,0.5,0.7,0.5,1.1v197.9c0,0.4-0.2,0.8-0.5,1.1
	C360.6,201,360.2,201.2,359.8,201.2L359.8,201.2z"/>
<path class="st3" d="M412,155.5H307.6c-0.4,0-0.8-0.2-1.1-0.5c-0.3-0.3-0.5-0.7-0.5-1.1c0-0.4,0.2-0.8,0.5-1.1
	c0.3-0.3,0.7-0.5,1.1-0.5H412c0.4,0,0.8,0.2,1.1,0.5c0.3,0.3,0.5,0.7,0.5,1.1c0,0.4-0.2,0.8-0.5,1.1
	C412.8,155.3,412.4,155.5,412,155.5L412,155.5z M412,56.1H307.6c-0.4,0-0.8-0.2-1.1-0.5c-0.3-0.3-0.5-0.7-0.5-1.1
	c0-0.4,0.2-0.8,0.5-1.1c0.3-0.3,0.7-0.5,1.1-0.5H412c0.4,0,0.8,0.2,1.1,0.5c0.3,0.3,0.5,0.7,0.5,1.1c0,0.4-0.2,0.8-0.5,1.1
	C412.8,55.9,412.4,56.1,412,56.1L412,56.1z M412,105.8H307.6c-0.4,0-0.8-0.2-1.1-0.5c-0.3-0.3-0.5-0.7-0.5-1.1
	c0-0.4,0.2-0.8,0.5-1.1c0.3-0.3,0.7-0.5,1.1-0.5H412c0.4,0,0.8,0.2,1.1,0.5c0.3,0.3,0.5,0.7,0.5,1.1c0,0.4-0.2,0.8-0.5,1.1
	C412.8,105.6,412.4,105.8,412,105.8L412,105.8z"/>
<path class="st3" d="M477.7,134.4h56.7c0.3,0,0.6,0.3,0.6,0.6v1.5c0,0.3-0.3,0.6-0.6,0.6h-56.7c-0.3,0-0.6-0.3-0.6-0.6v-1.5
	C477.2,134.7,477.5,134.4,477.7,134.4z"/>
<path class="st3" d="M13.7,182.1h56.7c0.3,0,0.6,0.3,0.6,0.6v1.5c0,0.3-0.3,0.6-0.6,0.6H13.7c-0.3,0-0.6-0.3-0.6-0.6v-1.5
	C13.2,182.4,13.4,182.1,13.7,182.1z"/>
<path class="st3" d="M245.1,80.4c13,0,23.6,10.6,23.5,23.6c-0.1,13-10.6,23.6-23.6,23.5c-13,0-23.5-10.6-23.5-23.6
	C221.5,91,232.1,80.4,245.1,80.4z"/>
<path class="st4" d="M245.1,86.1c9.9,0,17.9,8,17.9,17.9c0,9.8-8,17.9-17.9,17.9c-9.9,0-17.9-8-17.9-17.9
	C227.3,94.1,235.2,86.1,245.1,86.1"/>
<path class="st3" d="M233.6,109.2l12.1-3.8c0.6-0.2,0.9-0.8,0.8-1.4l-2.3-12.9c-0.1-0.6-0.8-1.1-1.4-1c-0.6,0.1-1.1,0.8-1,1.4
	l2.1,11.8l-11.1,3.4c-0.5,0.2-0.9,0.6-0.8,1.1c0,0.1,0,0.3,0,0.4C232.3,109.1,233,109.4,233.6,109.2"/>
<path class="st3" d="M244.9,101.6c1.3,0,2.4,1.1,2.4,2.4c0,1.3-1.1,2.4-2.4,2.4c-1.3,0-2.4-1.1-2.4-2.4
	C242.4,102.7,243.6,101.6,244.9,101.6z"/>
<path class="st0" d="M145.3,0h2.1v97.2h-2.1V0z"/>
<path class="st3" d="M162.4,117.4c0-9.1-7.3-16.4-16.4-16.4c-9.1,0-16.4,7.3-16.4,16.4H162.4L162.4,117.4z"/>
<path class="st3" d="M151.8,101.1c0,4.8-2.7,8.7-6.1,8.7c-3.4,0-6.1-3.9-6.1-8.7c0-4.8,2.7-8.7,6.1-8.7
	C149.1,92.4,151.8,96.3,151.8,101.1z"/>
<path class="st0" d="M118.4,0h2.1v63.1h-2.1V0z"/>
<path class="st3" d="M135.4,83.4c0-9.1-7.3-16.4-16.4-16.4c-9.1,0-16.4,7.3-16.4,16.4H135.4L135.4,83.4z"/>
<path class="st3" d="M124.8,67c0,4.8-2.7,8.7-6.1,8.7c-3.4,0-6.1-3.9-6.1-8.7c0-4.8,2.7-8.7,6.1-8.7C122.1,58.3,124.8,62.2,124.8,67
	z"/>
<path class="st3" d="M376.1,362.9l-36.6-116.9l7.3-1.9l32.5,118.8H376.1z"/>
<path class="st3" d="M311.2,362.9l27.6-119.1l7.4,1.8l-31.7,117.3H311.2L311.2,362.9z"/>
<path class="st3" d="M365,324.7l-44,0v-4l42.9,0L365,324.7L365,324.7z M379.4,246.4H177.9v-11.7h201.5V246.4z"/>
<path class="st5" d="M255.7,234.8h-8.8l-1.8-19.1h12.3L255.7,234.8z M276.6,189.8h11.5c0,0,14.2,32.4,1.5,45H276
	C276.1,234.8,262.6,228,276.6,189.8z"/>
<path class="st6" d="M44.9,172.3c2.1-0.4,1.2-14.9-2-32.4c-3.2-17.5-7.5-31.4-9.6-31c-2.1,0.4-1.2,14.9,2,32.4
	C38.5,158.8,42.8,172.7,44.9,172.3z"/>
<path class="st7" d="M54,141.2c3-17.5,3.7-32,1.5-32.4c-2.1-0.4-6.3,13.6-9.2,31.1c-3,17.5-3.7,32-1.5,32.4
	C46.9,172.6,51,158.7,54,141.2z"/>
<path class="st8" d="M43.3,166.9c2.3,0,4.2-15.3,4.2-34.3c0-18.9-1.9-34.3-4.2-34.3c-2.3,0-4.2,15.3-4.2,34.3
	C39.2,151.6,41,166.9,43.3,166.9z"/>
<path class="st8" d="M44.9,172.3c1.8-0.7-1.2-13.4-6.8-28.4c-5.6-15-11.6-26.7-13.4-26c-1.8,0.7,1.2,13.4,6.8,28.4
	C37.1,161.4,43.1,173,44.9,172.3z"/>
<path class="st8" d="M57.8,146.2c5.4-15.1,8.3-27.9,6.4-28.5c-1.8-0.7-7.7,11.1-13.1,26.1c-5.4,15.1-8.3,27.9-6.4,28.5
	C46.6,173,52.4,161.3,57.8,146.2z"/>
<path class="st2" d="M48.4,182.1l-6.4,0c-3.8,0-7.1-3.1-7.5-7.2L33,157.7c-0.1-0.9,0.6-1.7,1.5-1.8h0.1l21-0.1
	c0.9,0,1.6,0.7,1.6,1.6v0.1l-1.4,17.3C55.5,178.9,52.2,182.1,48.4,182.1z"/>
<path class="st8" d="M512,217.9h4.8v27.2H512V217.9z"/>
<path class="st3" d="M531.7,246.3h-34.4c0-1.3,0.5-2.6,1.5-3.5c0.9-0.9,2.2-1.5,3.5-1.5h24.4c1.3,0,2.6,0.5,3.5,1.5
	C531.1,243.7,531.7,245,531.7,246.3L531.7,246.3z"/>
<path class="st9" d="M531.8,222.3h-34.7c-0.4,0-0.8-0.1-1.2-0.3c-0.4-0.2-0.7-0.5-0.9-0.8c-0.2-0.3-0.4-0.7-0.4-1.2
	c0-0.4,0-0.8,0.2-1.2l10.5-23.5c0.2-0.4,0.5-0.8,0.9-1.1c0.4-0.3,0.9-0.4,1.3-0.4h13.7c0.5,0,0.9,0.1,1.3,0.4
	c0.4,0.3,0.7,0.6,0.9,1.1l10.5,23.5c0.2,0.4,0.2,0.8,0.2,1.2c0,0.4-0.2,0.8-0.4,1.2c-0.2,0.3-0.5,0.6-0.9,0.8
	C532.6,222.2,532.2,222.3,531.8,222.3L531.8,222.3z"/>
<path class="st8" d="M456.2,246.3h96.5v85.5h-96.5V246.3z"/>
<path class="st3" d="M464.6,252.8h79v30h-79V252.8z M464.6,289.1h79v34.7h-79V289.1z M460.3,331.8h8.6v7.5h-8.6V331.8z M539.2,331.8
	h8.6v7.5h-8.6V331.8z"/>
<path class="st4" d="M472.4,300.1c2.3,0,4.2-1.9,4.2-4.2c0-2.3-1.9-4.2-4.2-4.2c-2.3,0-4.2,1.9-4.2,4.2
	C468.2,298.2,470.1,300.1,472.4,300.1z"/>
<path class="st8" d="M469.6,258.4l39.2,0l0,10.4l-39.2,0L469.6,258.4z"/>
<path class="st4" d="M477.7,269.2l43.2,0l0,13.6l-43.2,0L477.7,269.2z"/>
<path class="st10" d="M516,84.9c-5.5,2-2.9,9.6,0.6,12.9c3.8,3.7,9.7,5.7,12.9,1.7c1-1.2,0.1-2.7-1.4-2.6c-2.4,0.1-4.2-0.6-3.3-2.3
	c0.8-1.7,4.5,1.6,5.8,1.6c3,0.1,4.2-2.2,3.5-4.1c-0.6-1.5-4.7-2.1-3.7-3.3c1.5-1.8,3.5,1,5.1-0.3c2.4-1.9,1.9-5.7,0.9-7.1
	c-0.8-1.1-4.3-2.8-6.9-1.7c-2.4,1-1.7,6.4-2.8,6.4c-2.2,0.1-0.4-4.6-2.1-6c-1-0.8-4.1-0.3-4.8,1.7c-1,2.6,2.6,7.6,0,7.9
	c-2.4,0.3-1-2.5-1.7-4C518,85.5,517.1,84.5,516,84.9L516,84.9z"/>
<path class="st11" d="M498.9,128.1L498.9,128.1c-0.2-0.1-0.3-0.1-0.2-0.3c6-18.1,18.2-33.6,34.3-43.6c0.1-0.1,0.3,0,0.3,0.1
	c0.1,0.1,0,0.3-0.1,0.3c-16.1,10-28.2,25.4-34.2,43.4C499.1,128,498.9,128.1,498.9,128.1L498.9,128.1z"/>
<path class="st10" d="M500.8,69.4c-4,4.2,1.7,9.8,6.4,11.3c5.1,1.6,11.2,0.8,12.4-4.3c0.3-1.5-1.1-2.4-2.4-1.7
	c-2,1.1-3.9,1.4-3.9-0.6c0-1.9,4.7-0.6,6-1.2c2.7-1.3,2.7-3.8,1.2-5.2c-1.2-1.1-5.1,0.3-4.8-1.3c0.5-2.3,3.6-0.7,4.4-2.5
	c1.2-2.8-0.8-6-2.4-6.7c-1.2-0.6-5.1-0.6-6.9,1.6c-1.7,2,1.3,6.4,0.3,7.1c-1.9,1.1-2.4-3.9-4.6-4.4c-1.3-0.3-3.7,1.6-3.5,3.7
	c0.3,2.8,5.8,5.6,3.6,7.1c-2,1.4-2-1.7-3.4-2.8C502.8,69,501.6,68.5,500.8,69.4z"/>
<path class="st11" d="M504.7,115.7c-0.1,0-0.2-0.1-0.2-0.2c-2.8-18.8,1.2-38.1,11.1-54.4c0.1-0.1,0.2-0.1,0.3-0.1
	c0.1,0.1,0.1,0.2,0.1,0.3c-9.9,16.1-13.8,35.4-11,54.1C505,115.5,504.9,115.7,504.7,115.7L504.7,115.7z"/>
<path class="st10" d="M496.6,79c5,3,0.9,9.9-3.3,12.5c-4.5,2.8-10.7,3.7-13.1-0.9c-0.7-1.4,0.4-2.6,1.9-2.3c2.3,0.6,4.2,0.3,3.7-1.5
	c-0.5-1.8-4.7,0.6-6,0.4c-2.9-0.6-3.6-3-2.5-4.7c0.9-1.4,5-1.1,4.3-2.5c-1-2.1-3.7,0.3-4.9-1.2c-1.9-2.4-0.8-6,0.6-7.1
	c1-0.9,4.7-1.9,7.1-0.3c2.1,1.5,0.3,6.6,1.5,6.9c2.1,0.6,1.4-4.4,3.3-5.4c1.2-0.6,4,0.6,4.4,2.6c0.4,2.8-4.2,6.9-1.7,7.8
	c2.3,0.8,1.5-2.2,2.6-3.6C494.6,79.2,495.6,78.4,496.6,79L496.6,79z"/>
<path class="st11" d="M504.7,124.7c-0.1,0-0.2-0.1-0.2-0.2c-2.1-18.8-10.9-36.3-24.6-49.4c-0.1-0.1-0.1-0.2,0-0.3
	c0.1-0.1,0.2-0.1,0.3,0c13.8,13.2,22.6,30.8,24.8,49.7C505,124.6,504.8,124.7,504.7,124.7C504.7,124.7,504.7,124.7,504.7,124.7
	L504.7,124.7z"/>
<path class="st12" d="M495,134.6h17.9l2.7-24.5h-23.4L495,134.6z"/>
<path class="st13" d="M515.6,114.4H492c-0.3,0-0.6-0.3-0.6-0.6l-0.3-3c0-0.4,0.3-0.7,0.6-0.7h24.2c0.4,0,0.7,0.3,0.6,0.7l-0.3,3
	C516.2,114.2,516,114.4,515.6,114.4z"/>
<path class="st14" d="M91.6,349.4H86l2-38.7h12.2L91.6,349.4z M161.2,349.4h5.6l-2-38.7h-12.2L161.2,349.4z"/>
<path class="st14" d="M176.5,312.3H76.3v9.5h100.2V312.3z"/>
<path class="st15" d="M83.4,284.8c0.1,7.3,6,13.3,13.4,13.3h63.4c7.3-0.1,13.1-6,13.1-13.3v-61.9c0-7.2-5.8-13.1-13-13.1H96.8
	c-7.3,0-13.4,5.9-13.4,13.1V284.8L83.4,284.8z"/>
<path class="st16" d="M156.3,304.5c-1.4,4.6,1.3,9.4,5.9,10.8l9.4,2.7c4.6,1.4,9.4-1.3,10.8-5.9l12.1-41.5c1.4-4.6-1.3-9.4-5.9-10.8
	l-9.4-2.7c-4.6-1.4-9.4,1.3-10.8,5.9L156.3,304.5z M99.3,304.5c1.4,4.6-1.3,9.4-5.9,10.8l-9.4,2.7c-4.6,1.4-9.4-1.3-10.8-5.9
	l-12.1-41.5c-1.4-4.6,1.3-9.4,5.9-10.8l9.4-2.7c4.6-1.4,9.4,1.3,10.8,5.9L99.3,304.5z"/>
<path class="st17" d="M83.4,303.7c0,7.8,6.3,14.2,14.2,14.2h61.5c7.8-0.2,14.1-6.7,13.9-14.5c-0.1-7.6-6.3-13.7-13.9-13.9H97.6
	C89.8,289.4,83.5,295.8,83.4,303.7C83.4,303.6,83.4,303.6,83.4,303.7z"/>
<path class="st3" d="M147,347.5h5.6l-2-38.7h-12.2L147,347.5z"/>
<path class="st18" d="M274.8,306h-69v69h69V306z"/>
<path class="st19" d="M171.2,294.5l34.5,11.5v69l-34.5-11.5V294.5z"/>
<path class="st20" d="M274.8,306l-34.5-11.5h-69.1l34.5,11.5H274.8z"/>
<path class="st21" d="M232.2,310.4h-23.4v10.1h23.4V310.4z"/>
<path class="st21" d="M229.8,311.4h-0.5v8h0.5V311.4z M228.6,311.4h-0.5v8h0.5V311.4z M227.4,311.4H227v8h0.5V311.4z M226.1,311.4
	h-0.5v8h0.5V311.4z"/>
<path class="st21" d="M226.1,311.4h-0.5v8h0.5V311.4z M224.9,311.4h-0.5v8h0.5V311.4z M223.6,311.4h-0.5v8h0.5V311.4z M222.4,311.4
	h-0.5v8h0.5V311.4z M221.6,311.4h-0.5v8h0.5V311.4z M220.4,311.4H220v8h0.5V311.4z M219.2,311.4h-0.5v8h0.5V311.4z M217.9,311.4
	h-0.5v8h0.5V311.4z M216.8,311.4h-0.5v8h0.5V311.4z M215.5,311.4h-0.5v8h0.5V311.4z"/>
<path class="st21" d="M215.5,311.4H215v8h0.5V311.4z M214.2,311.4h-0.5v8h0.5V311.4z M213,311.4h-0.5v8h0.5V311.4z M211.7,311.4
	h-0.5v8h0.5V311.4z"/>
<path class="st22" d="M217.7,294.5l28.6,11.5h-12l-27.7-11.5H217.7z"/>
<path class="st22" d="M246.3,306v13.3h-11.8l-0.1-13.3H246.3z M246.3,362.1v13.3h-11.8l-0.1-13.3H246.3z"/>
<path class="st18" d="M194.8,322.5h-52.9v52.9h52.9V322.5z"/>
<path class="st19" d="M115.4,313.7l26.5,8.8v52.9l-26.5-8.8V313.7z"/>
<path class="st20" d="M194.8,322.5l-26.5-8.8h-52.9l26.5,8.8H194.8z"/>
<path class="st23" d="M133.8,357.9v14.8l-7.9-2.6v-14.8L133.8,357.9z M133.8,319.8v14.8l-7.9-2.6v-14.8L133.8,319.8z"/>
<path class="st19" d="M178.8,317.2l1,0.4l1.7,0.5l5.5,1.7h-53.3l-7.9-2.6H178.8z"/>
<path class="st24" d="M263.1,253.7h-49.2v49.2h49.2V253.7z"/>
<path class="st22" d="M189.2,245.5l24.7,8.2v49.2l-24.7-8.2V245.5z"/>
<path class="st25" d="M263.1,253.7l-24.6-8.2h-49.3l24.7,8.2H263.1z"/>
<path class="st26" d="M206.4,286.6v13.7l-7.4-2.4v-13.8L206.4,286.6z M206.4,251.2v13.7l-7.4-2.4v-13.8L206.4,251.2z"/>
<path class="st22" d="M248.2,248.7l1,0.3l1.6,0.5l5.2,1.6h-49.6l-7.4-2.5H248.2z"/>
<path class="st21" d="M232.7,256.8H216v7.3h16.7V256.8z"/>
<path class="st21" d="M231.1,257.5h-0.3v5.7h0.3V257.5z M230.2,257.5h-0.3v5.7h0.3V257.5z M229.3,257.5H229v5.7h0.3V257.5z
	 M228.4,257.5h-0.3v5.7h0.3V257.5z"/>
<path class="st21" d="M228.4,257.5h-0.3v5.7h0.3V257.5z M227.5,257.5h-0.3v5.7h0.3V257.5z M226.6,257.5h-0.3v5.7h0.3V257.5z
	 M225.7,257.5h-0.3v5.7h0.3V257.5z M225.2,257.5h-0.3v5.7h0.3V257.5z M224.3,257.5H224v5.7h0.3V257.5z M223.5,257.5h-0.3v5.7h0.3
	V257.5z M222.6,257.5h-0.3v5.7h0.3V257.5z M221.7,257.5h-0.3v5.7h0.3V257.5z M220.8,257.5h-0.3v5.7h0.3V257.5z"/>
<path class="st21" d="M220.7,257.5h-0.3v5.7h0.3V257.5z M219.9,257.5h-0.3v5.7h0.3V257.5z M219,257.5h-0.3v5.7h0.3V257.5z
	 M218.1,257.5h-0.3v5.7h0.3V257.5z"/>
<path class="st27" d="M186.6,280.2h-39.2v40.9h39.2V280.2z"/>
<path class="st28" d="M127.7,273.7l19.6,6.5v40.9l-19.6-6.9V273.7z"/>
<path class="st29" d="M186.6,280.2l-19.6-6.5h-39.2l19.6,6.5H186.6z"/>
<path class="st21" d="M162.3,282.7H149v5.8h13.3V282.7z"/>
<path class="st21" d="M161,283.3h-0.3v4.6h0.3V283.3z M160.4,283.3h-0.3v4.6h0.3V283.3z M159.7,283.3h-0.3v4.6h0.3V283.3z
	 M158.9,283.3h-0.3v4.6h0.3V283.3z"/>
<path class="st21" d="M158.9,283.3h-0.3v4.6h0.3V283.3z M158.2,283.3H158v4.6h0.3V283.3z M157.5,283.3h-0.3v4.6h0.3V283.3z
	 M156.8,283.3h-0.3v4.6h0.3V283.3z M156.3,283.3h-0.3v4.6h0.3V283.3z M155.7,283.3h-0.3v4.6h0.3V283.3z M155,283.3h-0.3v4.6h0.3
	V283.3z M154.3,283.3H154v4.6h0.3V283.3z M153.6,283.3h-0.3v4.6h0.3V283.3z M152.9,283.3h-0.3v4.6h0.3V283.3z"/>
<path class="st21" d="M152.9,283.3h-0.3v4.6h0.3V283.3z M152.1,283.3h-0.3v4.6h0.3V283.3z M151.4,283.3h-0.3v4.6h0.3V283.3z
	 M150.8,283.3h-0.3v4.6h0.3V283.3z"/>
<path class="st29" d="M169.9,313.5v7.7h-6.7l-0.1-7.7H169.9z"/>
<path class="st30" d="M143.5,269.2c-30.1,1.6-10.5,26.8,0.3,0H143.5z"/>
<path class="st31" d="M157.8,253.9c-0.3,7.7,10.3,8.1,11.2,1.1C169.3,247.3,158.7,246.9,157.8,253.9z M133.8,256.7
	c1.1-6.8,10.4-5.2,9.9,1C142.7,264.4,133.4,262.9,133.8,256.7z M139.4,277.1c2.4-3.5,3.3-6.5,4.4-7.9c0.1-0.1,0.1,0.1,0.2,0
	c2.1-2.6,2.9-2.2,8.7-2.8c16.2-3,17.7,8.8,20.2,13.3h-26.2L139.4,277.1L139.4,277.1z"/>
<path class="st32" d="M163.7,253.1c-6.1-6-27.8-1.6-25.6,6.7c2.2,8.2,5.7,12.6,17.9,11.1C168.5,269.4,166.7,256.1,163.7,253.1
	L163.7,253.1z M166.2,268.4c0,0,18.3,6.4,12.8,12.2C171.4,287.7,166.3,268.8,166.2,268.4z"/>
<path class="st31" d="M157.4,260.1c-6.9,0-13.7,1-3.6,6.2C155.5,266.7,159.4,260.8,157.4,260.1z"/>
<path class="st31" d="M160,258.3c0.7,0,1.4-0.2,2-0.7c0.1-0.1,0.1-0.3,0.1-0.3c-0.1-0.1-0.3-0.1-0.3-0.1c-0.8,0.7-2,0.8-3,0.3
	c-0.1-0.1-0.3,0-0.3,0.1c-0.1,0.1,0,0.2,0.1,0.3C158.9,258.2,159.4,258.3,160,258.3L160,258.3z M146.1,260c0.9,0,1.6-0.3,2.3-0.9
	c0.1-0.1,0.1-0.3-0.1-0.3c-0.1-0.1-0.2-0.1-0.3,0c-1,0.9-2.6,1-3.7,0.2c-0.1-0.1-0.3-0.1-0.3,0.1c-0.1,0.1-0.1,0.3,0.1,0.3
	C144.7,259.7,145.4,260,146.1,260z"/>
<path class="st33" d="M33,361.3c0,0-6.5-5.4-4.1-13.4c2.4-8,13.1-14.1,25.9-11.6c12.8,2.5,23.2,16.1,24.2,25H33z"/>
<path class="st34" d="M76,343.5c2.2-2,5.1-3.1,8-3.1l-2,8.1L76,343.5L76,343.5z M68.9,343.7l-3.5-5.3c0,0-5.6,4.5-3.6,10
	C63.8,354,68.9,343.7,68.9,343.7z"/>
<path class="st33" d="M63.1,345.5c0,0-6.9,5.1-6.2,10.6c0.7,5.5,8.4,6.5,19.2,6c10.9-0.6,9.2-7.8,8.8-9.9
	C84.5,350,76.7,334.8,63.1,345.5z"/>
<path class="st35" d="M64.1,349c0.6,1.6,2.1,2.6,3.9,2.5c3.2,0.2,3.1-2.3,3.1-2.3S67.8,352.6,64.1,349z"/>
<path class="st36" d="M68.6,353.2c1.3-0.9,2.9-1.2,4.5-0.9c2.8,0.5,3.7,2.1,3.9,2.8c0.2,0.6-1,3.3-4.6,2.8
	C68.9,357.3,66.8,354.7,68.6,353.2L68.6,353.2z"/>
<path class="st35" d="M74.4,349.5c0.6,1.6,2.1,2.6,3.9,2.5c3.1,0.2,3.1-2.3,3.1-2.3S78,353.1,74.4,349.5z M71.7,352.8
	c0.8-0.1,1.5,0,2.2,0.3c0.6,0.5-1.3,1.8-1.3,1.8S70.5,353.4,71.7,352.8L71.7,352.8z"/>
<path class="st36" d="M60.5,347.8c0,0-9.2,8.4,2,13.5C62.4,361.3,55,357,60.5,347.8z"/>
<path class="st34" d="M45.3,359.4c7.2-1,9.3-2.1,10.2,0.8s-16.6,6.9-22.5,1.2c-5.9-5.8-4.5-11.9-4.5-11.9S31.7,361.3,45.3,359.4
	L45.3,359.4z"/>
<path class="st37" d="M435.6,177c-0.6-0.1-1.2,1-2.1,2.9c-0.4,0.9-0.9,2.1-1.4,3.4c-0.6,1.3-1.1,2.8-1.8,4.3
	c-0.7,1.6-1.6,3.2-2.5,4.7c-0.5,0.8-1.1,1.5-1.7,2.2c-0.6,0.7-1.2,1.4-1.9,2c-0.7,0.6-1.4,1.2-2.2,1.7c-0.8,0.5-1.5,0.9-2.4,1.3
	c-0.8,0.3-1.6,0.6-2.5,0.8c-0.2,0-0.4,0.1-0.6,0.1l-0.6,0.1c-0.4,0-0.8,0-1.2,0c-1.8,0-3.7-0.3-5.4-0.8c-0.9-0.3-1.8-0.6-2.7-0.9
	c-0.4-0.2-0.9-0.4-1.3-0.5c-0.4-0.2-0.9-0.4-1.2-0.6c-0.8-0.4-1.6-0.8-2.4-1.3c-0.8-0.4-1.5-0.9-2.2-1.4c-1.4-1-2.8-1.9-4.1-2.9
	c-1.2-0.9-2.5-1.7-3.8-2.5c-1-0.7-2.1-1.3-3.2-1.9c-0.8-0.4-1.7-0.7-2.7-0.8c-0.7-0.1-1.4,0-2,0.4c-0.6,0.4-1,1-1.1,1.8
	c-0.2,1-0.2,2,0,2.9c0.2,1.4,0.6,2.7,1.2,4c0.7,1.7,1.6,3.3,2.6,4.7c1.3,1.9,2.8,3.6,4.4,5.1c0.9,0.9,1.9,1.7,3,2.5
	c1.1,0.8,2.3,1.6,3.6,2.3c0.6,0.4,1.3,0.7,2,1c0.7,0.3,1.4,0.6,2.1,0.9c1.5,0.6,3,1,4.5,1.4c3.4,0.8,6.9,0.9,10.4,0.3
	c0.9-0.2,1.8-0.4,2.7-0.6l1.2-0.4c0.4-0.1,0.9-0.3,1.3-0.5c1.6-0.7,3.2-1.5,4.6-2.5c1.4-1,2.6-2.1,3.8-3.3c1-1.1,2-2.3,2.8-3.6
	c0.8-1.2,1.4-2.5,2-3.8c0.5-1.2,0.9-2.4,1.3-3.6c0.6-2.1,1-4.3,1.2-6.4c0.1-1.7,0.2-3.4,0.1-5.2c0-1.3-0.1-2.5-0.3-3.8
	C436.6,178.3,436.2,177.1,435.6,177L435.6,177z"/>
<path class="st2" d="M406.6,204.8c0.6,10.6,0.6,21.3,0,31.9c-10.2,3.3-21,4.2-31.6,2.6c-0.7-10.8-1.4-21.6-1.4-32.4
	c0-5.7,0.2-11.5,1.8-16.9c1.3-4.9,4.2-9.3,8.2-12.4c0.5-0.3,0.9-0.7,1.4-0.9c2.4,2,7.4,2.7,10.2,1.4c1.5,1,2.8,2.2,4,3.5
	c2.1,2.5,3.7,5.4,4.7,8.5C405.4,194.7,406.3,199.7,406.6,204.8L406.6,204.8z"/>
<path class="st38" d="M399.2,181.5c-2.7,0.7-5.5,0.7-8.2,0.1c-1.4-0.4-2.8-0.9-4.1-1.6c-1-0.6-2-1.2-2.9-2l-0.1-0.6V177l0.2-0.9
	c0.5-3,1-6.1,1.4-9.1c0.4-2.8,0.8-5.6,1.2-8.4c3.2,1.6,6.2,3.4,9,5.5c0,1.9,0.2,3.8,0.3,5.7c0.1,1.6,0.3,3.2,0.6,4.8
	c0.1,0.9,0.3,1.8,0.4,2.6c0.2,0.9,0.3,1.6,0.5,2.5C398,180.2,398.6,180.8,399.2,181.5L399.2,181.5z"/>
<path class="st39" d="M396.5,174.6c-3.3-3-7-5.5-11-7.5c0.4-2.8,0.8-5.6,1.2-8.4c3.2,1.6,6.2,3.4,9,5.5c0,1.9,0.2,3.8,0.3,5.7
	C396.1,171.4,396.3,173,396.5,174.6z"/>
<path class="st14" d="M337.6,331.4c0,0,0,7.5,6.8,7.3l1.3,26.8l-18.6-31.9L337.6,331.4z"/>
<path class="st2" d="M340.7,350.4c0-0.2,0.1-0.3,0.2-0.4c0.1-0.1,0.3-0.1,0.4-0.1c1.5,0.1,3,0.5,4.3,1.2c0.1,0.1,0.3,0.2,0.3,0.4
	c0.1,0.1,0.1,0.3,0,0.5c0,0.1-0.1,0.1-0.1,0.2c-0.1,0-0.1,0.1-0.2,0.1c-0.1,0-0.3,0-0.4,0c-1.2-0.5-2.5-0.9-3.9-1.1
	c-0.1,0-0.2-0.1-0.3-0.1c-0.1-0.1-0.2-0.1-0.2-0.2C340.7,350.6,340.7,350.5,340.7,350.4L340.7,350.4z M340.5,347.1
	c0-0.1,0-0.1,0.1-0.2c0-0.1,0.1-0.1,0.1-0.2c0.1,0,0.1-0.1,0.2-0.1s0.1,0,0.2,0c1.5,0.1,3,0.5,4.3,1.2c0.1,0,0.1,0.1,0.2,0.1
	c0.1,0.1,0.1,0.1,0.1,0.2c0.1,0.1,0.1,0.3,0,0.5c0,0.1-0.1,0.1-0.1,0.2c-0.1,0-0.1,0.1-0.2,0.1c-0.1,0-0.1,0-0.2,0
	c-0.1,0-0.1,0-0.2-0.1c-1.2-0.5-2.5-0.9-3.9-1.1c-0.1,0-0.2-0.1-0.3-0.1c-0.1,0-0.2-0.1-0.2-0.2
	C340.5,347.3,340.5,347.2,340.5,347.1L340.5,347.1z M340.3,343.7c0-0.1,0-0.1,0.1-0.2c0-0.1,0.1-0.1,0.1-0.2
	c0.1-0.1,0.3-0.1,0.4-0.1c1.5,0.1,3,0.5,4.3,1.2c0.1,0.1,0.2,0.2,0.3,0.4c0.1,0.2,0.1,0.3,0,0.5c-0.1,0.1-0.2,0.2-0.3,0.3
	c-0.1,0-0.3,0-0.4,0c-1.2-0.5-2.5-0.9-3.9-1.1c-0.1,0-0.2-0.1-0.3-0.1c-0.1-0.1-0.2-0.1-0.2-0.2
	C340.3,343.9,340.3,343.8,340.3,343.7L340.3,343.7z M342.3,366.3c0.1,0.1,0.1,0.2,0.3,0.3c0.1,0.1,0.2,0.1,0.3,0.2
	c0.1,0,0.3,0,0.4,0c0.1,0,0.3-0.1,0.4-0.1l2-1.1l-18.5-31.9l-2,1.1c-0.1,0.1-0.2,0.1-0.3,0.2c-0.1,0.1-0.1,0.2-0.2,0.3
	c0,0.1,0,0.3,0,0.4c0,0.1,0.1,0.2,0.1,0.4L342.3,366.3z"/>
<path class="st14" d="M411.5,358.7c0,0,6.6,3.4,9.6-2.6l24.3,11.4l-36.8,1.6L411.5,358.7z"/>
<path class="st2" d="M430.4,364.8c-0.1,0.1-0.2,0.1-0.3,0.1c-0.1,0-0.2,0-0.3-0.1c-0.1,0-0.1-0.1-0.2-0.2c0-0.1-0.1-0.1-0.1-0.2
	c0-0.1,0-0.1,0-0.2s0-0.1,0.1-0.2c0.8-1.2,1.9-2.3,3-3.3c0.1-0.1,0.3-0.1,0.5-0.1c0.2,0,0.3,0.1,0.4,0.2c0,0.1,0.1,0.1,0.1,0.2
	c0,0.1,0,0.1,0,0.2c0,0.1,0,0.1-0.1,0.2c0,0.1-0.1,0.1-0.2,0.2c-1.1,0.8-2,1.8-2.7,3C430.6,364.7,430.5,364.8,430.4,364.8
	L430.4,364.8z M427.4,363.5c-0.1,0.1-0.2,0.1-0.3,0.1c-0.1,0-0.2,0-0.3-0.1c-0.1,0-0.1-0.1-0.2-0.2c0-0.1-0.1-0.1-0.1-0.2
	c0-0.1,0-0.1,0-0.2c0-0.1,0-0.1,0.1-0.2c0.8-1.2,1.9-2.3,3-3.3c0.1,0,0.1-0.1,0.2-0.1c0.1,0,0.2,0,0.2,0c0.1,0,0.2,0,0.2,0.1
	c0.1,0,0.1,0.1,0.2,0.2c0.1,0.1,0.1,0.3,0.1,0.4c0,0.1-0.1,0.3-0.2,0.4c-1.1,0.8-2,1.8-2.7,3C427.6,363.4,427.5,363.5,427.4,363.5
	L427.4,363.5z M424.2,362.1c-0.1,0.1-0.2,0.1-0.4,0c-0.1,0-0.2-0.1-0.3-0.2c-0.1-0.1-0.1-0.2-0.1-0.3c0-0.1,0-0.2,0.1-0.3
	c0.8-1.2,1.9-2.3,3-3.3c0.1-0.1,0.3-0.1,0.5-0.1c0.2,0,0.3,0.1,0.4,0.2c0,0.1,0.1,0.1,0.1,0.2c0,0.1,0,0.1,0,0.2
	c0,0.1-0.1,0.3-0.2,0.4c-1.1,0.8-2,1.8-2.7,2.9C424.5,362,424.4,362.1,424.2,362.1L424.2,362.1z M444.8,370.6
	c0.3-0.1,0.5-0.4,0.6-0.7c0.1-0.1,0.1-0.3,0.1-0.5l-0.1-2l-36.8,1.6l0.1,2c0,0.2,0.1,0.3,0.1,0.5c0.1,0.1,0.2,0.3,0.3,0.4
	c0.2,0.2,0.5,0.3,0.9,0.3l34.4-1.5C444.5,370.7,444.6,370.7,444.8,370.6L444.8,370.6z"/>
<path class="st40" d="M374.2,245.5c0,0,8.5,49.9-42.2,85.5l13.6,14.8c0,0,56.7-38.9,50.9-89L374.2,245.5z"/>
<path class="st41" d="M372.3,274.6c0.8,1,1.6,2.1,2.3,3.1c1.9,2.8,3.6,5.8,4.9,8.9c2.5,5.2,4.5,10.5,6.1,16.1
	c7.7-13.3,12.9-28.9,11-45.8l-22.2-11.3C374.3,245.5,376.4,257.8,372.3,274.6L372.3,274.6z"/>
<path class="st42" d="M406.8,195.8c2.2,17.7,2.4,35.5,0.8,53.2c0,0,27.9,54.6,21.8,109.4l-21.3,5.3c0,0-4.9-72-33.7-108.5l-1.2-36.1
	l22.9-3.8l2-19.3L406.8,195.8z"/>
<path class="st40" d="M374.6,223.2c-0.2,0-0.4-0.2-0.6-0.7c-0.1-0.3-0.3-0.6-0.4-0.9c-0.1-0.4-0.3-0.8-0.4-1.3
	c-0.1-0.2-0.1-0.5-0.2-0.8c-0.1-0.3-0.1-0.6-0.2-0.9c-0.1-0.3-0.1-0.6-0.2-0.9s-0.1-0.7-0.2-1c0-0.3-0.1-0.7-0.2-1.1l-0.2-1.2
	c-0.1-0.8-0.2-1.7-0.2-2.5c-0.1-2-0.1-3.9,0-5.9c0.1-2.3,0.3-4.5,0.7-6.7c0.4-2.5,0.9-4.9,1.6-7.3c0.7-2.7,1.8-5.3,3.2-7.7
	c0.8-1.3,1.8-2.4,3-3.4c1.1-1,2.5-1.8,3.9-2.3c0.7-0.3,1.5-0.4,2.2-0.5h2.2c1.4,0.1,2.7,0.5,4,1.1c1.1,0.6,2.2,1.3,3.2,2.1
	c0.2,0.2,0.4,0.4,0.7,0.6l0.6,0.6l0.6,0.7c0.2,0.2,0.4,0.5,0.5,0.7c0.6,0.9,1.2,1.8,1.6,2.8c0.4,0.9,0.7,1.8,1,2.8
	c0.4,1.6,0.7,3.2,0.9,4.8c0.1,1.2,0.2,2.4,0.1,3.6c0,2-0.2,3.1-0.4,3.1c-0.2,0-0.4-1.1-0.8-3c-0.2-1-0.4-2.2-0.7-3.5
	c-0.3-1.5-0.7-3-1.2-4.4c-0.6-1.7-1.5-3.2-2.7-4.6c-0.2-0.2-0.3-0.4-0.5-0.5l-0.5-0.5l-0.5-0.5c-0.2-0.2-0.4-0.3-0.6-0.4
	c-0.8-0.6-1.6-1.1-2.5-1.4c-0.9-0.4-1.9-0.6-2.9-0.6h-1.5c-0.5,0.1-1,0.2-1.4,0.4c-2,0.9-3.7,2.5-4.8,4.4c-1.2,2.1-2.1,4.3-2.7,6.7
	c-0.7,2.4-1.2,4.7-1.6,6.9c-0.4,2.2-0.7,4.3-0.9,6.3c-0.2,2-0.3,3.9-0.4,5.6v9.5c0,0.3,0,0.7-0.1,1
	C374.8,222.9,374.7,223.2,374.6,223.2L374.6,223.2z"/>
<path class="st18" d="M416.8,180.5h42.4V223h-42.4V180.5z"/>
<path class="st19" d="M480.5,173.5l-21.2,7.1V223l21.2-7.1V173.5z"/>
<path class="st20" d="M416.8,180.5l21.2-7.1h42.4l-21.2,7.1H416.8z"/>
<path class="st21" d="M443,183.2h14.4v6.2H443V183.2z"/>
<path class="st22" d="M441.7,215l-0.1,8.2h-7.3V215H441.7z M441.7,180.5l-0.1,8.2h-7.3v-8.2H441.7z M451.9,173.5h6.8l-17,7.1h-7.3
	L451.9,173.5L451.9,173.5z"/>
<path class="st38" d="M379,196.6v0.4c0,4.6,1,9.1,3.1,13.1c0.8,1.6,1.7,3,2.7,4.4c1.1,1.5,2.4,2.9,3.8,4.1c2.9,2.6,6.5,4.4,10.3,5.3
	c1.7,0.4,3.5,0.7,5.3,0.7c1.7,0.1,3.3-0.1,4.9-0.3c1.5-0.2,3-0.6,4.4-1c2.6-0.8,5-1.9,7.4-3.3c1.9-1.1,3.7-2.4,5.4-3.8
	c1.3-1.1,2.6-2.3,3.9-3.6l0.4-0.4c0.8,0.1,1.5,0,2.3,0c0.8-0.1,1.5-0.3,2.2-0.5c0.7-0.2,1.4-0.5,2.1-0.9c0.7-0.4,1.3-0.8,1.9-1.3
	c1.2-1,2.1-2.2,2.8-3.6c0.3-0.7,0.6-1.4,0.8-2.2c0.2-0.7,0.3-1.5,0.4-2.3c0-0.5,0-1.1,0-1.6c0-0.3-0.1-0.6-0.2-0.9
	c-0.1-0.3-0.3-0.5-0.6-0.7c-1.4-1.2-3,0-3.9,1.3c-0.9,1.3-1.5,2.4-2.8,2.8c-0.4,0.1-0.8,0.1-1.2,0.1c-0.4-0.1-0.8-0.2-1.1-0.5
	c-0.1-0.1-0.2-0.2-0.3-0.2c-0.1-0.1-0.3-0.3-0.5-0.4c-0.2-0.1-0.4-0.1-0.6-0.2c-0.2,0-0.4,0-0.6,0.1c-0.2,0.1-0.4,0.2-0.5,0.3
	c-0.1,0.1-0.2,0.2-0.3,0.4c-0.3,0.5-0.5,1.1-0.7,1.7c-0.4,1.2-0.6,2.5-0.7,3.8c-1.8,0.6-4.1,1.5-6.6,2.4c-1.8,0.6-3.5,1.1-5.3,1.5
	c-1.9,0.4-3.8,0.7-5.8,0.7c-1,0-2,0-3-0.1c-1-0.1-1.9-0.3-2.8-0.5c-0.9-0.2-1.7-0.5-2.5-0.9c-0.8-0.3-1.5-0.8-2.2-1.3
	c-0.6-0.5-1.2-1.1-1.8-1.7c-0.6-0.6-1.1-1.3-1.5-2c-0.9-1.5-1.7-3-2.2-4.6c-0.5-1.6-1-3.2-1.3-4.9c-0.2-1.2-0.4-2.5-0.6-3.8
	c-2.1,1.5-4.5,2.6-6.9,3.4C384.2,196.3,381.6,196.6,379,196.6L379,196.6z"/>
<path class="st42" d="M397.4,136.8c-0.3-1.1-0.9-2.2-1.7-3.1c-0.8-0.9-1.8-1.6-2.8-2.1c-2.2-0.9-4.6-1.1-6.9-0.5
	c-1.2,0.3-2.3,0.7-3.4,1.3c-1,0.6-2,1.4-2.8,2.3c-0.8,0.9-1.5,1.9-1.9,3.1c-0.5,1.1-0.7,2.3-0.8,3.5c-0.1,3.9,2,7.4,4.1,10.6
	C385.3,145.8,390.9,140.6,397.4,136.8z"/>
<path class="st41" d="M399.8,132.5c1-0.8,2.3-1.1,3.6-1c0.4,0.1,0.8,0.3,1.2,0.6c0.4,0.2,0.7,0.6,0.9,0.9c0.3,0.4,0.4,0.8,0.6,1.2
	c0.1,0.4,0.2,0.9,0.1,1.3c-0.1,0.9-0.4,1.7-0.8,2.5c-0.4,0.8-1,1.5-1.7,2.1c-0.5,0.5-1,0.9-1.6,1.3c-0.6,0.4-1.2,0.8-1.8,1.1
	c-1.2,0.6-2.6,1.1-4,1.4c-0.7,0.1-1.4,0.2-2.1,0.2c-1.4,0.1-2.8-0.1-4.2-0.4c-0.7-0.2-1.3-0.4-2-0.7c-0.7-0.3-2.4-0.9-2.8-1.5
	c-0.6-1.1,0.6-1.2,1.5-1.8C391.2,137.2,395.5,134.8,399.8,132.5L399.8,132.5z"/>
<path class="st14" d="M398.8,145.9c-0.3-0.1-0.6-0.1-0.9,0c-0.3,0.1-0.6,0.2-0.8,0.4c-0.2,0.2-0.3,0.5-0.4,0.8
	c-0.1,0.3,0,0.6,0.1,0.9c0.3,2.3,1.2,4.5,2.5,6.4c0.4-0.6,0.8-1.2,1.1-1.8c0.6-1.3,0.8-2.7,0.6-4.1c-0.1-0.7-0.2-1.4-0.5-2.1
	C400,146.6,399.4,146,398.8,145.9L398.8,145.9z M388.2,155.9c0.3-2.5,0.2-5-0.3-7.5c-0.5-2.7-1.6-5.3-3.2-7.6
	c-1.2,1.1-2.2,2.3-3,3.7c-0.6,1.6-1,3.2-1.1,4.9c-0.1,0.8-0.1,1.7,0,2.5c0.1,0.8,0.2,1.7,0.4,2.5c0.2,0.8,0.4,1.6,0.8,2.4
	c0.3,0.8,0.7,1.6,1.1,2.3c0.4,0.7,0.9,1.4,1.4,2.1c0.5,0.7,1.1,1.3,1.8,1.8C387.1,160.9,387.9,158.4,388.2,155.9L388.2,155.9z"/>
<path class="st38" d="M398.7,145.3c-0.6,3,0.8,6.1,2,8.9c1.2,2.9,2.3,6.1,1.1,9c-0.3,0.7-0.8,1.4-1.3,2c-0.5,0.6-1.2,1.1-1.9,1.4
	c-0.7,0.4-1.5,0.6-2.3,0.8c-0.8,0.1-1.6,0.2-2.4,0c-1.6-0.3-3.1-0.9-4.4-1.9c-1.3-1-2.3-2.2-3.1-3.7c-0.7-1.4-1.2-3-1.5-4.6
	c-0.3-1.6-0.3-3.2-0.1-4.8c0.4-3.2,1-6.3,2-9.4C390.8,141.1,395.4,142.5,398.7,145.3L398.7,145.3z"/>
<path class="st38" d="M385.8,153.5c-0.4-0.4-0.8-0.8-1.3-1.1c-0.2-0.1-0.5-0.2-0.8-0.3c-0.3,0-0.6,0-0.8,0.1
	c-0.3,0.1-0.7,0.3-0.9,0.6c-0.2,0.3-0.4,0.6-0.5,1c-0.1,0.3-0.2,0.7-0.2,1c0,0.4,0,0.7,0.2,1c0.1,0.3,0.3,0.7,0.4,1
	c0.2,0.3,0.4,0.6,0.7,0.8c0.3,0.2,0.6,0.4,0.9,0.5c0.3,0.1,0.7,0.2,1,0.3c0.4,0,0.7,0,1.1-0.1c0.3-0.1,0.7-0.2,1-0.4
	C386.1,156.5,385.9,155,385.8,153.5L385.8,153.5z"/>
<path class="st14" d="M400.9,147.7c-4.6,0.1-9.1-1-13-3.3c0.4,1.3,0.4,2.8,0,4.1c-0.3,1-0.7,1.9-1.3,2.7c-0.6,0.8-1.3,1.6-2.1,2.2
	c-1.8-2.6-2.7-5.8-2.3-8.9c0-0.4,0.1-0.7,0.2-1.1c0.6-0.9,1.3-1.7,2.1-2.4c1.2-1.1,2.7-2,4.2-2.6c1-0.4,2.1-0.6,3.2-0.8
	c2.2-0.3,4.4-0.1,6.5,0.6c1,0.4,2,0.8,3,1.4c0.3,0.3,0.6,0.5,0.9,0.9c0.7,0.8,1.3,1.6,1.7,2.6c0.1,0.2,0.1,0.4,0.2,0.7
	c0,0.2,0.1,0.5,0,0.7c0,0.2,0,0.5-0.1,0.7s-0.1,0.4-0.2,0.6c-0.1,0.2-0.2,0.4-0.4,0.6c-0.1,0.2-0.3,0.4-0.5,0.5
	c-0.2,0.2-0.4,0.3-0.6,0.4c-0.2,0.1-0.4,0.2-0.6,0.3C401.7,147.7,401.3,147.7,400.9,147.7L400.9,147.7z"/>
</svg>
