<svg version="1.1" xmlns="http://www.w3.org/2000/svg" width="130" height="58" viewBox="0 0 130 58">
<style type="text/css">
	.st0{fill:url(#SVGID_1_);}
	.st1{fill:#FFD700;}
	.st2{fill:#0057B8;}
</style>
<linearGradient id="SVGID_1_" gradientUnits="userSpaceOnUse" x1="0" y1="29" x2="130" y2="29">
	<stop  offset="0" style="stop-color:#EC8A5B"/>
	<stop  offset="1" style="stop-color:#F8D568"/>
</linearGradient>
<path class="st0" d="M112.3,41.4c4.5,0.1,8.1,3.8,8,8.3c-0.1,4.8-3.8,8.4-8.3,8.3c-4.6-0.1-8.1-3.8-8.1-8.5
	C104,44.9,107.7,41.3,112.3,41.4z M118.6,49.9c0-3.8-2.9-6.7-6.6-6.8c-3.5,0-6.6,3-6.6,6.6c0,3.8,2.9,6.9,6.6,6.9
	C115.6,56.6,118.6,53.5,118.6,49.9z M129.7,49.9c0.1-6.9,0.2-13.8,0.3-20.6c0-0.8-0.4-1-1-1.2c-2.9-0.9-5.7-2-8.6-2.8
	c-1.4-0.4-2.1-1.2-2.8-2.4c-1.6-2.7-3.2-5.5-5.2-7.9c-1.4-1.7-3.5-2.9-5.3-4.4c-0.6-0.5-1.2-1-1.5-1.7c-1-2.2-2-4.4-2.9-6.7
	c-0.5-1.3-1.1-1.7-2.4-1.7C67.2,0.3,34.1,0.1,1,0C0.7,0,0.3,0.1,0,0.1c0,0.1,0,0.3,0,0.4c1.6,0,3.2,0,4.8,0
	C36.4,1.2,68,1.8,99.6,2.5c1,0,1.5,0.4,1.8,1.2c0.2,0.5,0.3,1.1,0.5,1.7c1.2,2.9,1.8,6.2,4.9,7.8c0.1,0,0.1,0.1,0.2,0.2
	c3.9,3.7,6.8,8,8.8,13c0.1,0.4,0.5,0.8,0.9,0.9c3,1.1,6.1,2.2,9.2,3.2c0.8,0.3,1,0.6,1,1.4c0,4.9,0,9.9,0,14.8c0,0.3-0.1,0.6-0.1,1
	c-1.7,0.1-3.3,0.3-4.9,0.4c0,0.9,0.1,1.7,0.1,2.6c2.6-0.1,5-0.2,7.5-0.4C129.7,50.2,129.7,50,129.7,49.9z M49.4,49.3
	c8.8,0.2,17.6,0.4,26.4,0.6c8.9,0.2,17.7,0.3,26.6,0.4c0.1-0.4,0.1-0.7,0.2-1.1c0.1-0.4,0.1-0.8,0.2-1.3
	c-17.9,0.2-35.7,0.4-53.5,0.6C49.4,48.8,49.4,49.1,49.4,49.3z M38.4,41.1c4.5,0.1,8.1,3.8,8,8.3c-0.1,4.8-3.8,8.4-8.3,8.3
	c-4.6-0.1-8.1-3.8-8.1-8.5C30.1,44.6,33.8,41,38.4,41.1z M44.7,49.6c0-3.8-2.9-6.7-6.6-6.8c-3.5,0-6.6,3-6.6,6.6
	c0,3.8,2.9,6.9,6.6,6.9C41.7,56.3,44.7,53.3,44.7,49.6z M99.8,4.9c0,0.3-0.1,0.7-0.1,1c0,1.6,0,3.1-0.1,4.7
	C99.4,22.4,99.2,34.2,99,46c0,0.7-0.2,1.6,1.1,1.3c0-14.1,0-28.2,0-42.3C100,5,99.9,4.9,99.8,4.9z M106.3,16.2
	c1.8,2.8,3.9,5.2,3.9,8.6c-2.1,0.3-4.1,0.6-6.2,0.9c0,0.1,0,0.2,0,0.4c2.8,0,5.7,0,8.6,0C113,23.8,108.8,17.5,106.3,16.2z M0.4,49.6
	c0.4,0,0.8,0.1,1.2,0.1c8.3,0,16.7,0.1,25,0.1c0.3,0,0.5,0.1,0.7,0c0.2-0.1,0.4-0.4,0.6-0.5c-0.2-0.2-0.4-0.4-0.6-0.4
	c-0.3-0.1-0.7,0-1,0C20,48.8,13.8,49,7.5,49c-2.4,0-4.8,0-7.1,0C0.4,49.2,0.4,49.4,0.4,49.6z M16.1,16.7H7.9v15.5H4.8v-18h11.3V16.7
	z M21.8,25.5v6.7h-3.1v-18h6.8c2,0,3.6,0.5,4.8,1.6c1.2,1,1.8,2.4,1.8,4.2c0,1.8-0.6,3.1-1.7,4.1c-1.1,1-2.8,1.5-4.8,1.5H21.8z
	 M21.8,23h3.7c1.1,0,1.9-0.3,2.5-0.8c0.6-0.5,0.9-1.3,0.9-2.3c0-1-0.3-1.7-0.9-2.3c-0.6-0.6-1.4-0.9-2.4-0.9h-3.8V23z M41.2,23.6
	l3.6-9.4h3.4L42,29.1l-0.6,1.1c-0.8,1.5-2.1,2.2-4,2.2l-1.3-0.1l0-2.5c0.2,0,0.5,0,1,0c0.9,0,1.5-0.4,1.9-1.1l0.6-1.5l-6.1-13.1H37
	L41.2,23.6z M59.5,19.1c0-0.8-0.3-1.4-0.9-1.9c-0.6-0.5-1.4-0.7-2.5-0.7c-0.9,0-1.6,0.2-2.2,0.7C53.3,17.6,53,18.2,53,19h-3.1
	c0-1,0.3-1.9,0.8-2.6S52,15,53,14.6c1-0.4,2-0.6,3.2-0.6c2,0,3.6,0.4,4.8,1.3c1.1,0.9,1.7,2.2,1.7,3.8c0,0.8-0.2,1.6-0.7,2.2
	c-0.5,0.7-1.2,1.2-2.1,1.6c1,0.3,1.8,0.9,2.3,1.6c0.5,0.7,0.8,1.6,0.8,2.6c0,1.6-0.6,2.9-1.8,3.8c-1.2,0.9-2.9,1.4-4.9,1.4
	c-1.3,0-2.4-0.2-3.4-0.7c-1-0.5-1.8-1.1-2.3-1.9c-0.5-0.8-0.8-1.7-0.8-2.7h3.1c0,0.8,0.3,1.4,1,2c0.6,0.5,1.4,0.8,2.4,0.8
	c1.1,0,2-0.3,2.6-0.8c0.7-0.5,1-1.2,1-2c0-1-0.3-1.7-0.9-2.2c-0.6-0.5-1.4-0.7-2.6-0.7h-2.1v-2.5h2C58.4,21.7,59.5,20.9,59.5,19.1z
	 M75.8,28h-6.9l-1.4,4.2h-3.2l6.8-18h2.8l6.8,18h-3.2L75.8,28z M69.7,25.4h5.2L72.3,18L69.7,25.4z M85.6,25.5v6.7h-3.1v-18h6.8
	c2,0,3.6,0.5,4.8,1.6c1.2,1,1.8,2.4,1.8,4.2c0,1.8-0.6,3.1-1.7,4.1c-1.1,1-2.8,1.5-4.8,1.5H85.6z M85.6,23h3.7
	c1.1,0,1.9-0.3,2.5-0.8c0.6-0.5,0.9-1.3,0.9-2.3c0-1-0.3-1.7-0.9-2.3c-0.6-0.6-1.4-0.9-2.4-0.9h-3.8V23z"/>
<rect x="55" y="43" class="st1" width="36" height="11"/>
<rect x="55" y="34" class="st2" width="36" height="10"/>
</svg>
