<svg version="1.1" xmlns="http://www.w3.org/2000/svg" xmlns:xlink="http://www.w3.org/1999/xlink" width="630" height="390" viewBox="0 0 630 390">
<style type="text/css">
	.st0{fill:#E9F0FA;}
	.st1{fill:#F7F8FC;}
	.st2{fill:#CCE3F6;}
	.st3{fill:#E7ECF3;}
	.st4{fill:#FFFFFF;}
	.st5{fill:#EAF6FD;}
	.st6{fill:#ECF7FE;}
	.st7{fill:#E9EDF4;}
	.st8{fill:#0F222C;}
	.st9{fill:#2C6292;}
	.st10{fill:#154774;}
	.st11{fill:#0B3052;}
	.st12{fill:#205381;}
	.st13{opacity:0.43;fill:#699FCF;}
	.st14{opacity:0.25;fill:#2F6494;}
	.st15{fill:#144674;}
	.st16{opacity:0.25;fill:#CFCCCD;}
	.st17{fill:#3A7FBC;}
	.st18{fill:#2F699D;}
	.st19{fill:#0C2F4F;}
	.st20{fill:#1D4259;}
	.st21{fill:#448DCE;}
	.st22{fill:#3270A7;}
	.st23{fill:#222846;}
	.st24{fill:#FFDA35;}
	.st25{fill:#0B2B46;}
	.st26{fill:#FF524F;}
	.st27{fill:#F2F2F2;}
	.st28{fill:#F19100;}
	.st29{fill:#EAB624;}
	.st30{fill:#F8C47A;}
	.st31{fill:#E19A54;}
	.st32{fill:#FFDF9A;}
	.st33{fill:#E4E6E6;}
	.st34{fill:#CE8D4D;}
	.st35{fill:#E5B571;}
	.st36{fill:#ECCF8F;}
	.st37{fill:#ECCF8E;}
	.st38{fill:#C07532;}
	.st39{fill:#DADCDC;}
	.st40{fill:#132C45;}
	.st41{fill:#FFDA36;}
	.st42{fill:#F18419;}
	.st43{fill:#F2F3F5;}
	.st44{fill:#ADBF5B;}
	.st45{fill:#C8D540;}
	.st46{fill:#0682A0;}
	.st47{fill:#E08F73;}
	.st48{fill:#F09976;}
	.st49{fill:#E8815F;}
	.st50{fill:#047487;}
	.st51{fill:#05616B;}
	.st52{fill:#02819F;}
</style>
	<path class="st0" d="M314.6,387.6c173.8,0,314.6-25.7,314.6-57.5s-140.9-57.5-314.6-57.5S0,298.3,0,330.1S140.9,387.6,314.6,387.6z
		"/>
	<path class="st1" d="M572.5,300.9c35.9-74.6,55.6-217.2-22.1-264.6c-50.9-31-103.9,8.8-158.2,10.7c-42.7,1.4-83.9-32.3-122.4-42
		C169-20.2,10.2,45.4,80,300.9C254.5,300.4,398,301.4,572.5,300.9z"/>
	<path class="st2" d="M374.1,114.3H492v200.1H374.1V114.3z"/>
	<path class="st3" d="M374.1,114.3h36.7v200.1h-36.7V114.3z"/>
	<path class="st4" d="M479.1,123.8h5.5v5.7h-5.5V123.8z M469.1,123.8h5.5v5.7h-5.5V123.8z M459.2,123.8h5.5v5.7h-5.5V123.8z
		 M449.3,123.8h5.5v5.7h-5.5V123.8z M439.4,123.8h5.5v5.7h-5.5V123.8z M429.5,123.8h5.5v5.7h-5.5V123.8z M419.6,123.8h5.5v5.7h-5.5
		V123.8z M401.5,123.8h5.5v5.7h-5.5V123.8z M391.6,123.8h5.5v5.7h-5.5V123.8z M381.6,123.8h5.5v5.7h-5.5V123.8z M479.1,135.8h5.5
		v5.7h-5.5V135.8z M469.1,135.8h5.5v5.7h-5.5V135.8z M459.2,135.8h5.5v5.7h-5.5V135.8z M449.3,135.8h5.5v5.7h-5.5V135.8z
		 M439.4,135.8h5.5v5.7h-5.5V135.8z M429.5,135.8h5.5v5.7h-5.5V135.8z M419.6,135.8h5.5v5.7h-5.5V135.8z M401.5,135.8h5.5v5.7h-5.5
		V135.8z M391.6,135.8h5.5v5.7h-5.5V135.8z M381.6,135.8h5.5v5.7h-5.5V135.8z M479.1,147.9h5.5v5.7h-5.5V147.9z M469.1,147.9h5.5
		v5.7h-5.5V147.9z M459.2,147.9h5.5v5.7h-5.5V147.9z M449.3,147.9h5.5v5.7h-5.5V147.9z M439.4,147.9h5.5v5.7h-5.5V147.9z
		 M429.5,147.9h5.5v5.7h-5.5V147.9z M419.6,147.9h5.5v5.7h-5.5V147.9z M401.5,147.9h5.5v5.7h-5.5V147.9z M391.6,147.9h5.5v5.7h-5.5
		V147.9z M381.6,147.9h5.5v5.7h-5.5V147.9z M479.1,160h5.5v5.7h-5.5V160z M469.1,160h5.5v5.7h-5.5V160z M459.2,160h5.5v5.7h-5.5V160
		z M449.3,160h5.5v5.7h-5.5V160z M439.4,160h5.5v5.7h-5.5V160z M429.5,160h5.5v5.7h-5.5V160z M419.6,160h5.5v5.7h-5.5V160z
		 M401.5,160h5.5v5.7h-5.5V160z M391.6,160h5.5v5.7h-5.5V160z M381.6,160h5.5v5.7h-5.5V160z M479.1,172.1h5.5v5.7h-5.5V172.1z
		 M469.1,172.1h5.5v5.7h-5.5V172.1z M459.2,172.1h5.5v5.7h-5.5V172.1z M449.3,172.1h5.5v5.7h-5.5V172.1z M439.4,172.1h5.5v5.7h-5.5
		V172.1z M429.5,172.1h5.5v5.7h-5.5V172.1z M419.6,172.1h5.5v5.7h-5.5V172.1z M401.5,172.1h5.5v5.7h-5.5V172.1z M391.6,172.1h5.5
		v5.7h-5.5V172.1z M381.6,172.1h5.5v5.7h-5.5V172.1z M479.1,184.1h5.5v5.7h-5.5V184.1z M469.1,184.1h5.5v5.7h-5.5V184.1z
		 M459.2,184.1h5.5v5.7h-5.5V184.1z M449.3,184.1h5.5v5.7h-5.5V184.1z M439.4,184.1h5.5v5.7h-5.5V184.1z M429.5,184.1h5.5v5.7h-5.5
		V184.1z M419.6,184.1h5.5v5.7h-5.5V184.1z M401.5,184.1h5.5v5.7h-5.5V184.1z M391.6,184.1h5.5v5.7h-5.5V184.1z M381.6,184.1h5.5
		v5.7h-5.5V184.1z M479.1,196.2h5.5v5.7h-5.5V196.2z M469.1,196.2h5.5v5.7h-5.5V196.2z M459.2,196.2h5.5v5.7h-5.5V196.2z
		 M449.3,196.2h5.5v5.7h-5.5V196.2z M439.4,196.2h5.5v5.7h-5.5V196.2z M429.5,196.2h5.5v5.7h-5.5V196.2z M419.6,196.2h5.5v5.7h-5.5
		V196.2z M401.5,196.2h5.5v5.7h-5.5V196.2z M391.6,196.2h5.5v5.7h-5.5V196.2z M381.6,196.2h5.5v5.7h-5.5V196.2z M479.1,208.2h5.5
		v5.7h-5.5V208.2z M469.1,208.2h5.5v5.7h-5.5V208.2z M459.2,208.2h5.5v5.7h-5.5V208.2z M449.3,208.2h5.5v5.7h-5.5V208.2z
		 M439.4,208.2h5.5v5.7h-5.5V208.2z M429.5,208.2h5.5v5.7h-5.5V208.2z M419.6,208.2h5.5v5.7h-5.5V208.2z M401.5,208.2h5.5v5.7h-5.5
		V208.2z M391.6,208.2h5.5v5.7h-5.5V208.2z M381.6,208.2h5.5v5.7h-5.5V208.2z M479.1,220.3h5.5v5.7h-5.5V220.3z M469.1,220.3h5.5
		v5.7h-5.5V220.3z M459.2,220.3h5.5v5.7h-5.5V220.3z M449.3,220.3h5.5v5.7h-5.5V220.3z M439.4,220.3h5.5v5.7h-5.5V220.3z
		 M429.5,220.3h5.5v5.7h-5.5V220.3z M419.6,220.3h5.5v5.7h-5.5V220.3z M401.5,220.3h5.5v5.7h-5.5V220.3z M391.6,220.3h5.5v5.7h-5.5
		V220.3z M381.6,220.3h5.5v5.7h-5.5V220.3z M479.1,232.3h5.5v5.7h-5.5V232.3z M469.1,232.3h5.5v5.7h-5.5V232.3z M459.2,232.3h5.5
		v5.7h-5.5V232.3z M449.3,232.3h5.5v5.7h-5.5V232.3z M439.4,232.3h5.5v5.7h-5.5V232.3z M429.5,232.3h5.5v5.7h-5.5V232.3z
		 M419.6,232.3h5.5v5.7h-5.5V232.3z M401.5,232.3h5.5v5.7h-5.5V232.3z M391.6,232.3h5.5v5.7h-5.5V232.3z M381.6,232.3h5.5v5.7h-5.5
		V232.3z M479.1,244.5h5.5v5.7h-5.5V244.5z M469.1,244.5h5.5v5.7h-5.5V244.5z M459.2,244.5h5.5v5.7h-5.5V244.5z M449.3,244.5h5.5
		v5.7h-5.5V244.5z M439.4,244.5h5.5v5.7h-5.5V244.5z M429.5,244.5h5.5v5.7h-5.5V244.5z M419.6,244.5h5.5v5.7h-5.5V244.5z
		 M381.6,244.5h5.5v5.7h-5.5V244.5z M479.1,256.5h5.5v5.7h-5.5V256.5z M469.1,256.5h5.5v5.7h-5.5V256.5z M459.2,256.5h5.5v5.7h-5.5
		V256.5z M449.3,256.5h5.5v5.7h-5.5V256.5z M439.4,256.5h5.5v5.7h-5.5V256.5z M429.5,256.5h5.5v5.7h-5.5V256.5z M419.6,256.5h5.5
		v5.7h-5.5V256.5z M381.6,256.5h5.5v5.7h-5.5V256.5z M479.1,268.6h5.5v5.7h-5.5V268.6z M469.1,268.6h5.5v5.7h-5.5V268.6z
		 M459.2,268.6h5.5v5.7h-5.5V268.6z M449.3,268.6h5.5v5.7h-5.5V268.6z M439.4,268.6h5.5v5.7h-5.5V268.6z M429.5,268.6h5.5v5.7h-5.5
		V268.6z M419.6,268.6h5.5v5.7h-5.5V268.6z M381.6,268.6h5.5v5.7h-5.5V268.6z M479.1,280.6h5.5v5.7h-5.5V280.6z M469.1,280.6h5.5
		v5.7h-5.5V280.6z M459.2,280.6h5.5v5.7h-5.5V280.6z M449.3,280.6h5.5v5.7h-5.5V280.6z M439.4,280.6h5.5v5.7h-5.5V280.6z
		 M429.5,280.6h5.5v5.7h-5.5V280.6z M419.6,280.6h5.5v5.7h-5.5V280.6z M381.6,280.6h5.5v5.7h-5.5V280.6z M479.1,292.7h5.5v5.7h-5.5
		V292.7z M469.1,292.7h5.5v5.7h-5.5V292.7z M459.2,292.7h5.5v5.7h-5.5V292.7z M449.3,292.7h5.5v5.7h-5.5V292.7z M439.4,292.7h5.5
		v5.7h-5.5V292.7z M429.5,292.7h5.5v5.7h-5.5V292.7z M419.6,292.7h5.5v5.7h-5.5V292.7z M381.6,292.7h5.5v5.7h-5.5V292.7z"/>
	<path class="st2" d="M281.2,148.7h109.5v165.7H281.2V148.7z"/>
	<path class="st3" d="M281.2,148.7h34.1v165.7h-34.1V148.7z"/>
	<path class="st4" d="M380.5,301h5.2v-19h-5.2V301z M371,301h5.2v-19H371V301z M361.6,301h5.2v-19h-5.2V301z M352,301.1h5.2v-19H352
		V301.1z M342.6,301.1h5.2v-19h-5.2V301.1z M333.1,301.1h5.2v-19h-5.2V301.1z M323.6,301.1h5.2v-19h-5.2V301.1z M306.2,301.2h5.2
		v-19h-5.2V301.2z M296.8,301.2h5.2v-19h-5.2V301.2z M380.4,279.5h5.2v-19h-5.2V279.5z M371,279.5h5.2v-19H371V279.5z M361.5,279.6
		h5.2v-19h-5.2V279.6z M352,279.6h5.2v-19H352V279.6z M342.5,279.6h5.2v-19h-5.2V279.6z M333.1,279.6h5.2v-19h-5.2V279.6z
		 M323.6,279.6h5.2v-19h-5.2V279.6z M306.2,279.7h5.2v-19h-5.2V279.7z M296.7,279.7h5.2v-19h-5.2V279.7z M287.3,279.7h5.2v-19h-5.2
		V279.7z M380.4,258h5.2v-19h-5.2V258z M370.9,258.1h5.2v-19h-5.2V258.1z M361.5,258.1h5.2v-19h-5.2V258.1z M351.9,258.1h5.2v-19
		h-5.2V258.1z M342.5,258.1h5.2v-19h-5.2V258.1z M333,258.1h5.2v-19H333V258.1z M323.6,258.2h5.2v-19h-5.2V258.2z M306.1,258.2h5.2
		v-19h-5.2V258.2z M296.7,258.2h5.2v-19h-5.2V258.2z M287.2,258.2h5.2v-19h-5.2V258.2z M380.4,236.5h5.2v-19h-5.2V236.5z
		 M370.9,236.6h5.2v-19h-5.2V236.6z M361.4,236.6h5.2v-19h-5.2V236.6z M351.9,236.6h5.2v-19h-5.2V236.6z M342.4,236.6h5.2v-19h-5.2
		V236.6z M333,236.6h5.2v-19H333V236.6z M323.5,236.7h5.2v-19h-5.2V236.7z M306.1,236.7h5.2v-19h-5.2V236.7z M296.6,236.7h5.2v-19
		h-5.2V236.7z M287.2,236.7h5.2v-19h-5.2V236.7z M380.3,215.1h5.2v-19h-5.2V215.1z M370.8,215.1h5.2v-19h-5.2V215.1z M361.4,215.1
		h5.2v-19h-5.2V215.1z M351.9,215.1h5.2v-19h-5.2V215.1z M342.4,215.1h5.2v-19h-5.2V215.1z M332.9,215.2h5.2v-19h-5.2V215.2z
		 M323.5,215.2h5.2v-19h-5.2V215.2z M306.1,215.2h5.2v-19h-5.2V215.2z M296.6,215.2h5.2v-19h-5.2V215.2z M287.1,215.3h5.2v-19h-5.2
		V215.3z M380.3,193.6h5.2v-19h-5.2V193.6z M370.8,193.6h5.2v-19h-5.2V193.6z M361.3,193.6h5.2v-19h-5.2V193.6z M351.8,193.6h5.2
		v-19h-5.2V193.6z M342.3,193.6h5.2v-19h-5.2V193.6z M332.9,193.7h5.2v-19h-5.2V193.7z M323.4,193.7h5.2v-19h-5.2V193.7z M306,193.7
		h5.2v-19H306V193.7z M296.5,193.7h5.2v-19h-5.2V193.7z M287.1,193.8h5.2v-19h-5.2V193.8z M380.2,172h5.2v-19h-5.2V172z M370.8,172
		h5.2v-19h-5.2V172z M361.3,172.1h5.2v-19h-5.2V172.1z M351.8,172.1h5.2v-19h-5.2V172.1z M342.3,172.1h5.2v-19h-5.2V172.1z
		 M332.8,172.1h5.2v-19h-5.2V172.1z M323.4,172.1h5.2v-19h-5.2V172.1z M306,172.2h5.2v-19H306V172.2z M296.5,172.2h5.2v-19h-5.2
		V172.2z M287,172.2h5.2v-19H287V172.2z"/>
	<path class="st2" d="M25.4,90.4h109.5v224H25.4V90.4z"/>
	<path class="st3" d="M25.4,90.4h34.1v224H25.4V90.4z"/>
	<path class="st4" d="M122.8,101.1h5v24.7h-5V101.1z M113.6,101.1h5v24.7h-5V101.1z M104.4,101.1h5v24.7h-5V101.1z M95.2,101.1h5
		v24.7h-5V101.1z M86,101.1h5v24.7h-5V101.1z M76.8,101.1h5v24.7h-5V101.1z M67.6,101.1h5v24.7h-5V101.1z M50.7,101.1h5v24.7h-5
		V101.1z M41.6,101.1h5v24.7h-5V101.1z M122.8,129.1h5v24.7h-5V129.1z M113.6,129.1h5v24.7h-5V129.1z M104.4,129.1h5v24.7h-5V129.1z
		 M95.2,129.1h5v24.7h-5V129.1z M86,129.1h5v24.7h-5V129.1z M76.8,129.1h5v24.7h-5V129.1z M67.6,129.1h5v24.7h-5V129.1z M50.7,129.1
		h5v24.7h-5V129.1z M41.6,129.1h5v24.7h-5V129.1z M32.4,129.1h5v24.7h-5V129.1z M122.8,157h5v24.7h-5V157z M113.6,157h5v24.7h-5V157
		z M104.4,157h5v24.7h-5V157z M95.2,157h5v24.7h-5V157z M86,157h5v24.7h-5V157z M76.8,157h5v24.7h-5V157z M67.6,157h5v24.7h-5V157z
		 M50.7,157h5v24.7h-5V157z M41.6,157h5v24.7h-5V157z M32.4,157h5v24.7h-5V157z M122.8,185h5v24.7h-5V185z M113.6,185h5v24.7h-5V185
		z M104.4,185h5v24.7h-5V185z M95.2,185h5v24.7h-5V185z M86,185h5v24.7h-5V185z M76.8,185h5v24.7h-5V185z M67.6,185h5v24.7h-5V185z
		 M50.7,185h5v24.7h-5V185z M41.6,185h5v24.7h-5V185z M32.4,185h5v24.7h-5V185z M122.8,212.9h5v24.7h-5V212.9z M113.6,212.9h5v24.7
		h-5V212.9z M104.4,212.9h5v24.7h-5V212.9z M95.2,212.9h5v24.7h-5V212.9z M86,212.9h5v24.7h-5V212.9z M76.8,212.9h5v24.7h-5V212.9z
		 M67.6,212.9h5v24.7h-5V212.9z M50.7,212.9h5v24.7h-5V212.9z M41.6,212.9h5v24.7h-5V212.9z M32.4,212.9h5v24.7h-5V212.9z
		 M122.8,240.9h5v24.7h-5V240.9z M113.6,240.9h5v24.7h-5V240.9z M104.4,240.9h5v24.7h-5V240.9z M95.2,240.9h5v24.7h-5V240.9z
		 M86,240.9h5v24.7h-5V240.9z M76.8,240.9h5v24.7h-5V240.9z M67.6,240.9h5v24.7h-5V240.9z M50.7,240.9h5v24.7h-5V240.9z M41.6,240.9
		h5v24.7h-5V240.9z M32.4,240.9h5v24.7h-5V240.9z M122.8,268.9h5v24.7h-5V268.9z M113.6,268.9h5v24.7h-5V268.9z M104.4,268.9h5v24.7
		h-5V268.9z M95.2,268.9h5v24.7h-5V268.9z M86,268.9h5v24.7h-5V268.9z M76.8,268.9h5v24.7h-5V268.9z M67.6,268.9h5v24.7h-5V268.9z
		 M50.7,268.9h5v24.7h-5V268.9z M41.6,268.9h5v24.7h-5V268.9z M32.4,268.9h5v24.7h-5V268.9z"/>
	<path class="st2" d="M227,108.9h75.9v205.4H227V108.9z"/>
	<path class="st5" d="M227,108.9h23.6v205.4H227V108.9z"/>
	<path class="st4" d="M227,120.2h75.9v1.7H227V120.2z M227,133.7h75.9v1.7H227V133.7z M227,147.3h75.9v1.7H227V147.3z M227,160.9
		h75.9v1.7H227V160.9z M227,174.5h75.9v1.8H227V174.5z M227,188h75.9v1.7H227V188z M227,201.6h75.9v1.8H227V201.6z M227,215.1h75.9
		v1.8H227V215.1z M227,228.7h75.9v1.8H227V228.7z M227,242.2h75.9v1.8H227V242.2z M227,255.8h75.9v1.7H227V255.8z M227,269.3h75.9
		v1.8H227V269.3z M227,282.9h75.9v1.8H227V282.9z M227,296.5h75.9v1.7H227V296.5z"/>
	<path class="st2" d="M491,149.9h119.2v164.5H491V149.9z"/>
	<path class="st3" d="M491,149.9h37.1v164.5H491V149.9z"/>
	<path class="st4" d="M491,158.8h119.2v1.4H491V158.8z M491,169.7h119.2v1.4H491V169.7z M491,180.6h119.2v1.4H491V180.6z M491,191.4
		h119.2v1.4H491V191.4z M491,202.3h119.2v1.4H491V202.3z M491,213.1h119.2v1.4H491V213.1z M491,224h119.2v1.4H491V224z M491,234.9
		h119.2v1.4H491V234.9z M491,245.7h119.2v1.4H491V245.7z M491,256.6h119.2v1.4H491V256.6z M491,267.5h119.2v1.4H491V267.5z
		 M491,278.3h119.2v1.4H491V278.3z M491,289.2h119.2v1.4H491V289.2z M491,300h119.2v1.4H491V300z"/>
	<path class="st2" d="M103.2,29.6h139.2v284.8H103.2V29.6z"/>
	<path class="st5" d="M103.2,29.6h43.4v284.8h-43.4V29.6L103.2,29.6z"/>
	<path class="st4" d="M227,43.1h6.4v8.1H227V43.1z M215.3,43.1h6.4v8.1h-6.4V43.1z M203.6,43.1h6.4v8.1h-6.4V43.1z M191.9,43.1h6.4
		v8.1h-6.4V43.1z M180.2,43.1h6.4v8.1h-6.4V43.1z M168.5,43.1h6.4v8.1h-6.4V43.1z M156.8,43.1h6.4v8.1h-6.4V43.1z M135.5,43.1h6.4
		v8.1h-6.4V43.1z M123.8,43.1h6.4v8.1h-6.4V43.1L123.8,43.1z M112.1,43.1h6.4v8.1h-6.4V43.1z M227,60.3h6.4v8.1H227V60.3z
		 M215.3,60.3h6.4v8.1h-6.4V60.3z M203.6,60.3h6.4v8.1h-6.4V60.3z M191.9,60.3h6.4v8.1h-6.4V60.3z M180.2,60.3h6.4v8.1h-6.4V60.3z
		 M168.5,60.3h6.4v8.1h-6.4V60.3z M156.8,60.3h6.4v8.1h-6.4V60.3z M135.5,60.3h6.4v8.1h-6.4V60.3z M123.8,60.3h6.4v8.1h-6.4V60.3
		L123.8,60.3z M112.1,60.3h6.4v8.1h-6.4V60.3z M227,77.5h6.4v8.1H227V77.5z M215.3,77.5h6.4v8.1h-6.4V77.5z M203.6,77.5h6.4v8.1
		h-6.4V77.5z M191.9,77.5h6.4v8.1h-6.4V77.5z M180.2,77.5h6.4v8.1h-6.4V77.5z M168.5,77.5h6.4v8.1h-6.4V77.5z M156.8,77.5h6.4v8.1
		h-6.4V77.5z M135.5,77.5h6.4v8.1h-6.4V77.5z M123.8,77.5h6.4v8.1h-6.4V77.5L123.8,77.5z M112.1,77.5h6.4v8.1h-6.4V77.5z M227,94.6
		h6.4v8.1H227V94.6z M215.3,94.6h6.4v8.1h-6.4V94.6z M203.6,94.6h6.4v8.1h-6.4V94.6z M191.9,94.6h6.4v8.1h-6.4V94.6z M180.2,94.6
		h6.4v8.1h-6.4V94.6z M168.5,94.6h6.4v8.1h-6.4V94.6z M156.8,94.6h6.4v8.1h-6.4V94.6z M135.5,94.6h6.4v8.1h-6.4V94.6z M123.8,94.6
		h6.4v8.1h-6.4V94.6L123.8,94.6z M112.1,94.6h6.4v8.1h-6.4V94.6z M227,111.8h6.4v8.1H227V111.8z M215.3,111.8h6.4v8.1h-6.4V111.8z
		 M203.6,111.8h6.4v8.1h-6.4V111.8z M191.9,111.8h6.4v8.1h-6.4V111.8z M180.2,111.8h6.4v8.1h-6.4V111.8z M168.5,111.8h6.4v8.1h-6.4
		V111.8z M156.8,111.8h6.4v8.1h-6.4V111.8z M135.5,111.8h6.4v8.1h-6.4V111.8z M123.8,111.8h6.4v8.1h-6.4V111.8L123.8,111.8z
		 M112.1,111.8h6.4v8.1h-6.4V111.8z M227,129h6.4v8.1H227V129z M215.3,129h6.4v8.1h-6.4V129z M203.6,129h6.4v8.1h-6.4V129z
		 M191.9,129h6.4v8.1h-6.4V129z M180.2,129h6.4v8.1h-6.4V129z M168.5,129h6.4v8.1h-6.4V129z M156.8,129h6.4v8.1h-6.4V129z
		 M135.5,129h6.4v8.1h-6.4V129z M123.8,129h6.4v8.1h-6.4V129L123.8,129z M112.1,129h6.4v8.1h-6.4V129z M227,146.1h6.4v8.1H227V146.1
		z M215.3,146.1h6.4v8.1h-6.4V146.1z M203.6,146.1h6.4v8.1h-6.4V146.1z M191.9,146.1h6.4v8.1h-6.4V146.1z M180.2,146.1h6.4v8.1h-6.4
		V146.1z M168.5,146.1h6.4v8.1h-6.4V146.1z M156.8,146.1h6.4v8.1h-6.4V146.1z M135.5,146.1h6.4v8.1h-6.4V146.1z M123.8,146.1h6.4
		v8.1h-6.4V146.1L123.8,146.1z M112.1,146.1h6.4v8.1h-6.4V146.1z M227,163.3h6.4v8.1H227V163.3z M215.3,163.3h6.4v8.1h-6.4V163.3z
		 M203.6,163.3h6.4v8.1h-6.4V163.3z M191.9,163.3h6.4v8.1h-6.4V163.3z M180.2,163.3h6.4v8.1h-6.4V163.3z M168.5,163.3h6.4v8.1h-6.4
		V163.3z M156.8,163.3h6.4v8.1h-6.4V163.3z M135.5,163.3h6.4v8.1h-6.4V163.3z M123.8,163.3h6.4v8.1h-6.4V163.3L123.8,163.3z
		 M112.1,163.3h6.4v8.1h-6.4V163.3z M227,180.5h6.4v8.1H227V180.5z M215.3,180.5h6.4v8.1h-6.4V180.5z M203.6,180.5h6.4v8.1h-6.4
		V180.5z M191.9,180.5h6.4v8.1h-6.4V180.5z M180.2,180.5h6.4v8.1h-6.4V180.5z M168.5,180.5h6.4v8.1h-6.4V180.5z M156.8,180.5h6.4
		v8.1h-6.4V180.5z M135.5,180.5h6.4v8.1h-6.4V180.5z M123.8,180.5h6.4v8.1h-6.4V180.5L123.8,180.5z M112.1,180.5h6.4v8.1h-6.4V180.5
		z M227,197.7h6.4v8.1H227V197.7z M215.3,197.7h6.4v8.1h-6.4V197.7z M203.6,197.7h6.4v8.1h-6.4V197.7z M191.9,197.7h6.4v8.1h-6.4
		V197.7z M180.2,197.7h6.4v8.1h-6.4V197.7z M168.5,197.7h6.4v8.1h-6.4V197.7z M156.8,197.7h6.4v8.1h-6.4V197.7z M135.5,197.7h6.4
		v8.1h-6.4V197.7z M123.8,197.7h6.4v8.1h-6.4V197.7L123.8,197.7z M112.1,197.7h6.4v8.1h-6.4V197.7z M227,214.8h6.4v8.1H227V214.8z
		 M215.3,214.8h6.4v8.1h-6.4V214.8z M203.6,214.8h6.4v8.1h-6.4V214.8z M191.9,214.8h6.4v8.1h-6.4V214.8z M180.2,214.8h6.4v8.1h-6.4
		V214.8z M168.5,214.8h6.4v8.1h-6.4V214.8z M156.8,214.8h6.4v8.1h-6.4V214.8z M135.5,214.8h6.4v8.1h-6.4V214.8z M123.8,214.8h6.4
		v8.1h-6.4V214.8L123.8,214.8z M112.1,214.8h6.4v8.1h-6.4V214.8z M227,232h6.4v8.1H227V232z M215.3,232h6.4v8.1h-6.4V232z
		 M203.6,232h6.4v8.1h-6.4V232z M191.9,232h6.4v8.1h-6.4V232z M180.2,232h6.4v8.1h-6.4V232z M168.5,232h6.4v8.1h-6.4V232z
		 M156.8,232h6.4v8.1h-6.4V232z M135.5,232h6.4v8.1h-6.4V232z M123.8,232h6.4v8.1h-6.4V232L123.8,232z M112.1,232h6.4v8.1h-6.4V232z
		 M227,249.2h6.4v8.1H227V249.2z M215.3,249.2h6.4v8.1h-6.4V249.2z M203.6,249.2h6.4v8.1h-6.4V249.2z M191.9,249.2h6.4v8.1h-6.4
		V249.2z M180.2,249.2h6.4v8.1h-6.4V249.2z M168.5,249.2h6.4v8.1h-6.4V249.2z M156.8,249.2h6.4v8.1h-6.4V249.2z M135.5,249.2h6.4
		v8.1h-6.4V249.2z M123.8,249.2h6.4v8.1h-6.4V249.2L123.8,249.2z M112.1,249.2h6.4v8.1h-6.4V249.2z M227,266.3h6.4v8.1H227V266.3z
		 M215.3,266.3h6.4v8.1h-6.4V266.3z M203.6,266.3h6.4v8.1h-6.4V266.3z M191.9,266.3h6.4v8.1h-6.4V266.3z M180.2,266.3h6.4v8.1h-6.4
		V266.3z M168.5,266.3h6.4v8.1h-6.4V266.3z M156.8,266.3h6.4v8.1h-6.4V266.3z M135.5,266.3h6.4v8.1h-6.4V266.3z M123.8,266.3h6.4
		v8.1h-6.4V266.3L123.8,266.3z M112.1,266.3h6.4v8.1h-6.4V266.3z M227,283.5h6.4v8.1H227V283.5z M215.3,283.5h6.4v8.1h-6.4V283.5z
		 M203.6,283.5h6.4v8.1h-6.4V283.5z M191.9,283.5h6.4v8.1h-6.4V283.5z M180.2,283.5h6.4v8.1h-6.4V283.5z M168.5,283.5h6.4v8.1h-6.4
		V283.5z M156.8,283.5h6.4v8.1h-6.4V283.5z M135.5,283.5h6.4v8.1h-6.4V283.5z M123.8,283.5h6.4v8.1h-6.4V283.5L123.8,283.5z
		 M112.1,283.5h6.4v8.1h-6.4V283.5z"/>
	<path class="st5" d="M222.8,29.5H122.7V17.6c-0.1-5,4-9.1,9-9.2h81.9c5,0.1,9.1,4.1,9.2,9.2V29.5L222.8,29.5z"/>
	<path class="st2" d="M50.7,329.1H32.2c0-1.9,1.5-3.4,3.4-3.4h11.7C49.2,325.7,50.7,327.2,50.7,329.1z"/>
	<path class="st2" d="M44.5,304.7h-5.7c-0.6,0-1.1,0.4-1.2,1.1l-1,20.8h9.6l-0.5-20.8C45.7,305.2,45.2,304.7,44.5,304.7z"/>
	<path class="st2" d="M38.6,297.3h5.6c0.7,0,1.3,0.6,1.3,1.3v5.2c0,0.7-0.6,1.3-1.3,1.3h-5.6c-0.7,0-1.3-0.6-1.3-1.3v-5.3
		C37.4,297.9,37.9,297.3,38.6,297.3z"/>
	<path class="st2" d="M40.2,233.5h2.4v63.9h-2.4V233.5z"/>
	<path class="st2" d="M46.5,235H36.3c-0.8,0-1.4-0.6-1.4-1.4c0-0.8,0.6-1.4,1.4-1.4h10.3c0.8,0,1.4,0.6,1.4,1.4
		C48,234.4,47.3,235,46.5,235z"/>
	<path class="st4" d="M46.5,232.1h-10l-1.6-14.6h13.2L46.5,232.1z"/>
	<path class="st2" d="M48.9,218.2H34c-0.8,0-1.4-0.6-1.4-1.4s0.6-1.4,1.4-1.4h14.9c0.8,0,1.4,0.6,1.4,1.4S49.7,218.2,48.9,218.2z
		 M43,210.6h-3.1v-1.4c0-0.8,0.7-1.5,1.5-1.5c0.8,0,1.5,0.7,1.5,1.5L43,210.6L43,210.6z"/>
	<path class="st2" d="M49.6,215.7H33.4c0-3.2,2.6-5.8,5.8-5.8h4.6C47,209.9,49.6,212.5,49.6,215.7z"/>
	<path class="st6" d="M457,222.1c3.5-0.7,6,3.2,6.6,6.6c0.3,1.8,0.3,3.9,1.7,5.1c0.6,0.4,1.2,0.8,1.9,1.1c3.9,2.1,4.2,6,4.2,9.9
		c-0.1,0.7,0.1,1.3,0.3,1.9c0.3,0.7,1,1,1.5,1.6c0.3,0.4,0.4,0.9,0.5,1.5c1,4.5,0.5,8.6,0.4,13.1c-0.2,31.8-16.7,30.3-16.7,30.3
		h-0.5c-4-0.2-7.6-2.8-10-6c-2.4-3.3-3.8-7.5-4.6-11.6c-0.6-3-0.9-6.1-1-9.1c-0.2-3.3-0.8-6.4,0.3-9.6c0.6-1.4,1.4-2.9,1.5-4.5
		c0-1.7-1-3.3-1-5.1c0-1,0.2-2.1,0.6-3c0.8-2.4,1.9-4.8,3-7c1-1.7,3.1-2.7,3.7-4.6c0.1-0.8,0.2-1.6,0.1-2.5c0.1-4.1,3.5-6.9,7-7.9
		L457,222.1z"/>
	<path class="st7" d="M460.1,325.8h-4l1.3-51l0.6-1.3L460.1,325.8z"/>
	<path class="st6" d="M522.1,222.1c3.5-0.7,6,3.2,6.6,6.6c0.3,1.8,0.3,3.9,1.7,5.1c0.6,0.4,1.2,0.8,1.9,1.1c3.9,2.1,4.2,6,4.2,9.9
		c-0.1,0.7,0.1,1.3,0.3,1.9c0.3,0.7,1,1,1.5,1.6c0.3,0.4,0.4,0.9,0.5,1.5c1,4.5,0.5,8.6,0.4,13.1c-0.2,31.8-16.7,30.3-16.7,30.3H522
		c-4-0.2-7.6-2.8-10-6c-2.4-3.3-3.8-7.5-4.6-11.6c-0.6-3-0.9-6.1-1-9.1c-0.2-3.3-0.8-6.4,0.3-9.6c0.6-1.4,1.4-2.9,1.5-4.5
		c0-1.7-1-3.3-1-5.1c0-1,0.2-2.1,0.6-3c0.8-2.4,1.9-4.8,3-7c1-1.7,3.1-2.7,3.7-4.6c0.1-0.8,0.2-1.6,0.1-2.5c0.1-4.1,3.5-6.9,7-7.9
		L522.1,222.1z"/>
	<path class="st7" d="M525.2,325.8h-4l1.3-51l0.6-1.3L525.2,325.8z"/>
	<path class="st8" d="M131.9,330.5c0-5.3,1.5-10.5,4.3-15c2.8-4.4,6.8-7.9,11.5-9.9c4.7-2,9.9-2.6,14.8-1.5c5,1,9.6,3.6,13.2,7.4
		c3.6,3.8,6,8.6,7,13.8c1,5.2,0.5,10.6-1.5,15.6c-1.9,4.9-5.2,9.1-9.5,12.1c-4.2,3-9.2,4.5-14.3,4.5c-6.8,0-13.3-2.9-18.1-7.9
		C134.6,344.5,131.9,337.6,131.9,330.5z M272.6,330.8c0-5.3,1.5-10.4,4.3-14.8c2.8-4.4,6.8-7.8,11.4-9.8c4.7-2,9.8-2.5,14.7-1.5
		c4.9,1,9.5,3.6,13,7.3c3.6,3.7,6,8.5,7,13.7c1,5.2,0.5,10.5-1.5,15.4c-1.9,4.9-5.2,9-9.4,12c-4.2,2.9-9.1,4.5-14.1,4.5
		c-6.7,0-13.2-2.8-18-7.8C275.4,344.7,272.6,337.9,272.6,330.8z"/>
	<path class="st9" d="M379.9,194.7H288v121h91.8V194.7z"/>
	<path class="st10" d="M330.9,313.5c0,0.1,0.1,0.3,0.2,0.4c0.1,0.1,0.2,0.2,0.4,0.2l30.1,0.1c0.1,0,0.3-0.1,0.4-0.2
		c0.1-0.1,0.2-0.2,0.2-0.4l0.1-37.8c0-0.1-0.1-0.3-0.2-0.4c-0.1-0.1-0.2-0.2-0.4-0.2l-30.1-0.1c-0.1,0-0.3,0.1-0.4,0.2
		c-0.1,0.1-0.2,0.2-0.2,0.4L330.9,313.5z"/>
	<path class="st11" d="M331,280.9v-5.2c0-0.1,0.1-0.3,0.2-0.4c0.1-0.1,0.2-0.2,0.4-0.2l30.1,0.1c0.1,0,0.3,0.1,0.4,0.2
		c0.1,0.1,0.2,0.2,0.2,0.4v5.2L331,280.9z"/>
	<path class="st9" d="M333.5,295.6c0,2.6,0.7,5.1,2.2,7.2c1.4,2.1,3.4,3.8,5.8,4.8c2.4,1,5,1.3,7.5,0.8s4.8-1.7,6.6-3.5
		c1.8-1.8,3.1-4.1,3.6-6.6s0.3-5.1-0.7-7.5c-1-2.4-2.6-4.4-4.8-5.8c-2.1-1.4-4.6-2.2-7.2-2.2c-3.4,0-6.7,1.3-9.2,3.8
		C335,288.9,333.5,292.2,333.5,295.6z"/>
	<path class="st12" d="M336.6,295.7c0,1.9,0.6,3.8,1.6,5.5c1.1,1.6,2.6,2.9,4.4,3.6c1.8,0.7,3.8,1,5.7,0.6s3.7-1.3,5-2.7
		c1.4-1.4,2.3-3.1,2.7-5c0.4-1.9,0.2-3.9-0.5-5.7c-0.7-1.8-2-3.3-3.6-4.4c-1.6-1.1-3.5-1.7-5.4-1.7c-1.3,0-2.6,0.2-3.8,0.7
		s-2.3,1.2-3.2,2.1c-0.9,0.9-1.6,2-2.1,3.2C337,293.1,336.8,294.4,336.6,295.7z"/>
	<path class="st13" d="M339.1,295.7c0,1.5,0.4,2.9,1.2,4.1c0.8,1.2,2,2.2,3.3,2.7c1.3,0.6,2.8,0.7,4.3,0.4c1.4-0.3,2.7-1,3.8-2
		c1-1,1.7-2.3,2-3.8c0.3-1.4,0.1-2.9-0.4-4.3c-0.6-1.3-1.5-2.5-2.7-3.3c-1.2-0.8-2.6-1.2-4.1-1.3c-1,0-1.9,0.2-2.8,0.6
		c-0.9,0.4-1.7,0.9-2.4,1.6c-0.7,0.7-1.2,1.5-1.6,2.4C339.4,293.7,339.1,294.7,339.1,295.7z"/>
	<path class="st14" d="M344,278.4c0,0.4,0.1,0.8,0.4,1.2c0.2,0.4,0.6,0.6,1,0.8c0.4,0.2,0.8,0.2,1.2,0.1c0.4-0.1,0.8-0.3,1.1-0.6
		c0.3-0.3,0.5-0.7,0.6-1.1c0.1-0.4,0-0.8-0.1-1.2c-0.2-0.4-0.4-0.7-0.8-1c-0.3-0.2-0.8-0.4-1.2-0.4c-0.3,0-0.6,0.1-0.8,0.2
		c-0.3,0.1-0.5,0.3-0.7,0.5c-0.2,0.2-0.4,0.4-0.5,0.7C344,277.9,344,278.1,344,278.4z"/>
	<path class="st9" d="M344.4,278c0,0.4,0.1,0.8,0.4,1.2c0.2,0.4,0.6,0.6,1,0.8s0.8,0.2,1.2,0.1c0.4-0.1,0.8-0.3,1.1-0.6
		c0.3-0.3,0.5-0.7,0.6-1.1s0-0.8-0.1-1.2c-0.2-0.4-0.4-0.7-0.8-1c-0.3-0.2-0.8-0.4-1.2-0.4c-0.3,0-0.6,0.1-0.8,0.2
		c-0.3,0.1-0.5,0.3-0.7,0.5c-0.2,0.2-0.4,0.4-0.5,0.7C344.4,277.4,344.4,277.7,344.4,278z"/>
	<path d="M347.3,276.9c0,0.1,0,0.1,0.1,0.2l0.1,0.1c0.1,0,0.1,0,0.2,0s0.1,0,0.2-0.1c0,0,0.1-0.1,0.1-0.2s0-0.1,0-0.2
		c0-0.1-0.1-0.1-0.1-0.1c-0.1,0-0.1-0.1-0.2-0.1s-0.2,0-0.2,0.1C347.3,276.7,347.3,276.8,347.3,276.9z"/>
	<path class="st9" d="M360.9,276.5h-9.4v1.7h9.4V276.5z"/>
	<path class="st15" d="M359.8,276.8h-7.2v1.2h7.2V276.8z"/>
	<path class="st16" d="M340,279.7c0,0.2,0,0.3,0.1,0.4c0.1,0.1,0.2,0.2,0.4,0.3c0.1,0.1,0.3,0.1,0.5,0c0.2,0,0.3-0.1,0.4-0.2
		c0.1-0.1,0.2-0.3,0.2-0.4c0-0.2,0-0.3,0-0.5c-0.1-0.1-0.2-0.3-0.3-0.4s-0.3-0.1-0.4-0.1c-0.2,0-0.4,0.1-0.6,0.2
		C340,279.3,340,279.5,340,279.7z M336.9,279.7c0,0.2,0,0.3,0.1,0.4c0.1,0.1,0.2,0.2,0.4,0.3c0.1,0.1,0.3,0.1,0.5,0
		c0.2,0,0.3-0.1,0.4-0.2c0.1-0.1,0.2-0.3,0.2-0.4c0-0.2,0-0.3,0-0.5c-0.1-0.1-0.2-0.3-0.3-0.4s-0.3-0.1-0.4-0.1
		c-0.2,0-0.4,0.1-0.6,0.2C337,279.2,336.9,279.4,336.9,279.7z M333.8,279.6c0,0.2,0,0.3,0.1,0.4s0.2,0.2,0.4,0.3
		c0.1,0.1,0.3,0.1,0.5,0c0.2,0,0.3-0.1,0.4-0.2s0.2-0.3,0.2-0.4c0-0.2,0-0.3,0-0.5c-0.1-0.1-0.2-0.3-0.3-0.4
		c-0.1-0.1-0.3-0.1-0.4-0.1s-0.2,0-0.3,0.1c-0.1,0-0.2,0.1-0.3,0.2c-0.1,0.1-0.1,0.2-0.2,0.3C333.8,279.4,333.8,279.5,333.8,279.6z"
		/>
	<path class="st9" d="M340.1,279.5c0,0.2,0,0.3,0.1,0.4s0.2,0.2,0.4,0.3c0.1,0.1,0.3,0.1,0.5,0c0.2,0,0.3-0.1,0.4-0.2
		c0.1-0.1,0.2-0.3,0.2-0.4c0-0.2,0-0.3,0-0.5c-0.1-0.1-0.2-0.3-0.3-0.4c-0.1-0.1-0.3-0.1-0.4-0.1c-0.1,0-0.2,0-0.3,0.1
		c-0.1,0-0.2,0.1-0.3,0.2c-0.1,0.1-0.1,0.2-0.2,0.3C340.1,279.3,340.1,279.4,340.1,279.5z M337,279.5c0,0.2,0,0.3,0.1,0.4
		s0.2,0.2,0.4,0.3c0.1,0.1,0.3,0.1,0.5,0c0.2,0,0.3-0.1,0.4-0.2c0.1-0.1,0.2-0.3,0.2-0.4c0-0.2,0-0.3,0-0.5
		c-0.1-0.1-0.2-0.3-0.3-0.4c-0.1-0.1-0.3-0.1-0.4-0.1c-0.2,0-0.4,0.1-0.6,0.2C337.1,279.1,337,279.3,337,279.5z M334,279.5
		c0,0.2,0,0.3,0.1,0.4c0.1,0.1,0.2,0.2,0.4,0.3c0.1,0.1,0.3,0.1,0.5,0c0.2,0,0.3-0.1,0.4-0.2s0.2-0.3,0.2-0.4c0-0.2,0-0.3,0-0.5
		c0-0.2-0.2-0.3-0.3-0.4c-0.1-0.1-0.3-0.1-0.4-0.1c-0.2,0-0.4,0.1-0.6,0.2C334,278.9,334,279.3,334,279.5z M335.8,291.7
		c0.6-0.2,1.3-0.2,1.9-0.1s1.2,0.4,1.7,0.8s0.9,0.9,1.2,1.5c0.3,0.6,0.4,1.2,0.4,1.9c0,0.6-0.2,1.3-0.4,1.8
		c-0.3,0.6-0.7,1.1-1.2,1.5s-1.1,0.6-1.7,0.8c-0.6,0.1-1.3,0.1-1.9-0.1V291.7z"/>
	<path class="st17" d="M293.4,271.7l9.6,0.3v42l-9.6,0.1V271.7z"/>
	<path class="st18" d="M339.5,272H303v41.7h36.5V272z"/>
	<path class="st19" d="M334,285.5h-25.5c-0.6,0-1.1,0.5-1.1,1.2l-0.1,22.6c0,0.7,0.5,1.2,1,1.2h25.5c0.6,0,1.1-0.5,1.1-1.2l0.1-22.6
		C335.1,286,334.6,285.5,334,285.5z"/>
	<path class="st10" d="M333.1,286.5h-23.6c-0.6,0-1,0.3-1,0.7v21.3c0,0.4,0.5,0.7,1,0.7h23.6c0.6,0,1-0.3,1-0.7v-21.3
		C334,286.8,333.6,286.5,333.1,286.5z"/>
	<path class="st10" d="M333.5,275.2h-5.8c-1.4,0-2.6,1.2-2.6,2.8c0,1.5,1.2,2.8,2.6,2.8h5.8c1.4,0,2.6-1.2,2.6-2.8
		C336,276.5,335,275.2,333.5,275.2z"/>
	<path class="st17" d="M333,280.5c-1.2,0-2.2-1-2.2-2.3c0-1.3,1-2.3,2.2-2.3c1.2,0,2.2,1,2.2,2.3C335.1,279.5,334.1,280.5,333,280.5
		z"/>
	<path class="st20" d="M293.3,313.9H61.8c-2.3,0-4,2.1-4,4.7v10.2c0,2.6,1.8,4.7,4,4.7h231.5V313.9z"/>
	<path class="st21" d="M63.8,313.9h104.2v-90.1h-52.3c-5,0-10,1.3-14.4,3.8s-8.2,6.1-11,10.5l-21.3,33.4c-3.4,5.4-5.2,11.7-5.2,18.2
		V313.9z"/>
	<path class="st8" d="M143.9,277.1v-43.2h-27.5c-3.5,0-6.9,0.9-10,2.6c-3.1,1.7-5.7,4.2-7.7,7.2l-21.5,33.4H143.9z"/>
	<path class="st22" d="M166.3,223.9h-9.7V314h9.7V223.9z"/>
	<path class="st23" d="M132.4,284.3h9.3c0.6,0,1.1-0.2,1.5-0.6c0.4-0.4,0.6-1,0.6-1.6v-1.3h-13.6v1.3c0,0.6,0.3,1.2,0.7,1.6
		C131.4,284,131.9,284.3,132.4,284.3z"/>
	<path class="st24" d="M71.9,302.5c0-2.3-0.9-4.4-2.4-6s-3.6-2.5-5.8-2.5v17.1c2.2,0,4.2-0.9,5.8-2.6
		C71.2,306.9,71.9,304.8,71.9,302.5z"/>
	<path class="st25" d="M379.4,313.9h-86.1c-0.7,0-1.4,0.1-2.1,0.4c-0.7,0.3-1.3,0.7-1.8,1.3c-0.5,0.5-0.9,1.2-1.2,1.9
		c-0.3,0.7-0.4,1.5-0.4,2.2v8c0,1.5,0.6,3,1.6,4.1c1,1.1,2.4,1.7,3.9,1.7h86.1c1.5,0,2.9-0.6,3.9-1.7c1-1.1,1.6-2.6,1.6-4.1v-8
		c0-1.5-0.6-3-1.6-4.1C382.3,314.6,380.9,314,379.4,313.9z"/>
	<path class="st26" d="M303.3,323.8c0-0.8-0.2-1.6-0.7-2.3c-0.4-0.7-1.1-1.2-1.8-1.5s-1.5-0.4-2.3-0.2c-0.8,0.2-1.5,0.6-2,1.1
		c-0.6,0.6-0.9,1.3-1.1,2.1c-0.2,0.8-0.1,1.6,0.2,2.4c0.3,0.8,0.8,1.4,1.5,1.9c0.7,0.5,1.4,0.7,2.2,0.7c0.5,0,1-0.1,1.5-0.3
		c0.5-0.2,0.9-0.5,1.3-0.9c0.4-0.4,0.7-0.8,0.9-1.3C303.1,325,303.3,324.3,303.3,323.8z"/>
	<path class="st24" d="M310,323.8c0-0.5-0.2-1.1-0.6-1.4c-0.4-0.4-0.8-0.6-1.4-0.6c-0.5,0-1,0.2-1.4,0.6s-0.6,0.9-0.6,1.4
		c0,0.3,0.1,0.5,0.2,0.8c0.1,0.2,0.2,0.5,0.4,0.7c0.2,0.2,0.4,0.3,0.6,0.4c0.2,0.1,0.5,0.2,0.7,0.2h0.1c0.5,0,1-0.2,1.3-0.5
		c0.4-0.3,0.6-0.8,0.6-1.3L310,323.8L310,323.8z"/>
	<path class="st26" d="M371.8,323.8c0,0.8,0.2,1.6,0.7,2.3c0.4,0.7,1.1,1.2,1.8,1.5c0.7,0.3,1.5,0.4,2.3,0.2c0.8-0.2,1.5-0.6,2-1.1
		c0.6-0.6,0.9-1.3,1.1-2.1c0.2-0.8,0.1-1.6-0.2-2.4c-0.3-0.8-0.8-1.4-1.5-1.9c-0.7-0.5-1.4-0.7-2.2-0.7c-1.1,0-2.1,0.5-2.8,1.2
		C372.3,321.6,371.9,322.7,371.8,323.8z"/>
	<path class="st24" d="M365,323.8c0,0.4,0.1,0.8,0.3,1.1c0.2,0.3,0.5,0.6,0.9,0.8c0.4,0.2,0.7,0.2,1.1,0.1c0.4-0.1,0.7-0.3,1-0.6
		c0.3-0.3,0.5-0.6,0.5-1c0.1-0.4,0-0.8-0.1-1.2s-0.4-0.7-0.7-0.9c-0.3-0.2-0.7-0.3-1.1-0.3c-0.5,0-1,0.2-1.4,0.5
		c-0.4,0.4-0.6,0.9-0.6,1.4v0.1H365z"/>
	<path class="st22" d="M379.9,193.2h-86.6l-0.9,5.8h87.5V193.2L379.9,193.2z"/>
	<path class="st27" d="M156.6,294.6l-43.3,14.5c0,0,4.3,3,5.7,4.9h37.6V294.6z"/>
	<path class="st28" d="M113.3,309.1l43.3-14.5v-9.9l-50.8,21.2C108.3,306.4,110.9,307.5,113.3,309.1z"/>
	<path class="st21" d="M293.4,193.2h-127v120.7h127V193.2z"/>
	<path class="st27" d="M293.4,289.6l-127,3.8V314h127V289.6z"/>
	<path class="st8" d="M237.4,305c7.2,0,14.1,3,19.2,8.4c5.1,5.3,8,12.6,8,20.1h-54.4c0-3.7,0.7-7.4,2-10.9c1.3-3.5,3.4-6.6,5.9-9.2
		s5.5-4.7,8.8-6.2c3.3-1.4,6.8-2.2,10.4-2.2H237.4L237.4,305z"/>
	<path class="st8" d="M240.9,309.4c5.9,0.1,11.5,2.6,15.7,7c4.2,4.3,6.6,10.2,6.8,16.4c0.2,6.2-1.9,12.2-5.9,16.7
		c-3.9,4.6-9.4,7.4-15.3,7.9h-7.6v-48H240.9z"/>
	<path class="st25" d="M213.4,333.4c0-4.8,1.3-9.4,3.9-13.3c2.5-4,6.1-7,10.3-8.8c4.2-1.8,8.8-2.3,13.2-1.4
		c4.4,0.9,8.5,3.2,11.7,6.6s5.4,7.6,6.3,12.3c0.9,4.7,0.4,9.5-1.3,13.9c-1.7,4.4-4.7,8.1-8.4,10.8c-3.8,2.6-8.2,4-12.7,4
		c-6.1,0-11.9-2.5-16.2-7C215.9,345.9,213.4,339.8,213.4,333.4z"/>
	<path class="st27" d="M236.3,345.2c-6.2,0-11.2-5.3-11.2-11.8s5-11.8,11.2-11.8s11.2,5.3,11.2,11.8S242.4,345.2,236.3,345.2z"/>
	<path class="st28" d="M166.4,293.4l127-3.8v-12.3l-127.1,6L166.4,293.4z"/>
	<path class="st8" d="M99.2,305c7.2,0,14.1,3,19.2,8.4c5.1,5.3,8,12.6,8,20.1H71.9c0-3.7,0.7-7.4,2-10.9c1.3-3.5,3.3-6.6,5.9-9.2
		c2.5-2.6,5.5-4.7,8.8-6.2C91.9,305.8,95.4,305,99.2,305L99.2,305L99.2,305z"/>
	<path class="st8" d="M102.8,309.4c5.9,0.1,11.5,2.6,15.7,7c4.2,4.3,6.6,10.2,6.7,16.4c0.2,6.2-1.9,12.2-5.9,16.7
		c-3.9,4.6-9.4,7.4-15.3,7.9h-7.6v-48H102.8z"/>
	<path class="st25" d="M75.3,333.4c0-4.8,1.3-9.4,3.9-13.3c2.5-4,6.1-7,10.3-8.8c4.2-1.8,8.8-2.3,13.2-1.4s8.5,3.2,11.7,6.6
		c3.2,3.4,5.4,7.6,6.3,12.3c0.9,4.7,0.4,9.5-1.3,13.9c-1.7,4.4-4.7,8.1-8.4,10.8c-3.8,2.6-8.2,4-12.7,4c-6.1,0-11.9-2.5-16.2-7
		C77.7,345.9,75.3,339.8,75.3,333.4z"/>
	<path class="st27" d="M98.2,345.2c-6.2,0-11.2-5.3-11.2-11.8s5-11.8,11.2-11.8c6.2,0,11.2,5.3,11.2,11.8S104.3,345.2,98.2,345.2z"
		/>
	<path class="st24" d="M598.8,223.1v114.3c0,2.3-1.7,4.2-4.1,4.5c-0.2,0-0.5,0.1-0.7,0h-48.5c-2.6,0-4.8-2-4.8-4.6V223
		c0-2.5,2.1-4.6,4.8-4.6H594c0.4,0,0.8,0,1.2,0.1c0.2,0,0.3,0.1,0.5,0.1c0.2,0.1,0.4,0.2,0.6,0.3
		C597.8,219.9,598.8,221.4,598.8,223.1z"/>
	<path class="st29" d="M598.8,336.7h-58.1v5.2h58.1V336.7z"/>
	<path class="st4" d="M547.8,289.4c-0.8,0-1.5-0.7-1.5-1.4v-24.5c0-0.8,0.7-1.4,1.5-1.4s1.5,0.7,1.5,1.4V288
		C549.3,288.8,548.5,289.4,547.8,289.4z M547.7,331.1c-0.8,0-1.5-0.7-1.5-1.4V315c0-0.8,0.7-1.4,1.5-1.4c0.8,0,1.5,0.7,1.5,1.4v14.7
		C549.2,330.4,548.5,331.1,547.7,331.1z"/>
	<path class="st29" d="M598.8,304h-58.1v2.6h58.1V304z"/>
	<path class="st30" d="M456.8,320H484v25h-27.2V320z"/>
	<path class="st31" d="M497.6,315.9L484,320v25l13.6-4.2V315.9z"/>
	<path class="st32" d="M456.8,320l13.6-4.2h27.2L484,320H456.8z"/>
	<path class="st33" d="M473.6,321.6h9.2v3.7h-9.2V321.6z"/>
	<path class="st34" d="M479.3,315.9L468,320h4.7l10.9-4.2H479.3z M468,320v4.9h4.6l0.1-4.9H468z M468,340.3v4.9h4.6l0.1-4.9H468z"/>
	<path class="st35" d="M461.3,301h19.4v17.9h-19.4V301z"/>
	<path class="st34" d="M490.5,298.1l-9.7,3v17.9l9.7-3V298.1z"/>
	<path class="st36" d="M461.3,301l9.7-3h19.4l-9.7,3H461.3z"/>
	<path class="st34" d="M467.2,299.2l-0.4,0.1l-0.6,0.2l-2,0.6h19.6l2.9-0.9H467.2z"/>
	<path class="st33" d="M473.4,302.2h6.6v2.6h-6.6V302.2z"/>
	<path class="st35" d="M485.9,318.6h36.8v26h-36.8V318.6L485.9,318.6z"/>
	<path class="st33" d="M507.2,324.2h12.5v6.6h-12.5V324.2z"/>
	<path class="st34" d="M541.1,314.2l-18.4,4.3v26l18.4-4.3V314.2z"/>
	<path class="st37" d="M485.9,318.6l18.4-4.3h36.8l-18.4,4.3H485.9z"/>
	<path class="st38" d="M528.3,317.2v7.3l5.5-1.3V316L528.3,317.2z"/>
	<path class="st34" d="M497,316l-0.8,0.2l-1.1,0.3l-3.9,0.9h37.1l5.5-1.3H497L497,316z"/>
	<path class="st38" d="M528.3,336v7.3l5.5-1.3v-7.3L528.3,336z"/>
	<path class="st35" d="M488.4,294.7H521v23.1h-32.6V294.7L488.4,294.7z"/>
	<path class="st39" d="M507.3,297h11.1v5.8h-11.1V297z"/>
	<path class="st34" d="M537.3,290.9l-16.3,3.8v23.1l16.3-3.8V290.9z"/>
	<path class="st37" d="M488.4,294.7l16.3-3.8h32.6l-16.3,3.8H488.4z"/>
	<path class="st38" d="M526,293.5v6.4l4.9-1.1v-6.4L526,293.5z"/>
	<path class="st34" d="M498.2,292.4l-0.7,0.2l-1,0.2l-3.4,0.8H526l4.9-1.1H498.2L498.2,292.4z"/>
	<path class="st38" d="M526,310.1v6.4l4.9-1.1V309L526,310.1z"/>
	<path class="st40" d="M544.8,273.4c-0.1,0-0.3-0.1-0.3-0.3v-3c0-0.1,0.1-0.3,0.2-0.3c0.1,0,0.3,0.1,0.3,0.2v3.1
		C545.1,273.3,545,273.4,544.8,273.4L544.8,273.4z"/>
	<path class="st40" d="M536.7,272.5l0-2.5l2.8,0l0,2.5L536.7,272.5z"/>
	<path class="st41" d="M541.7,256.2h-7c0,4-3.3,10.7-9.1,13.8l12.6,0l12.6,0C545,266.9,541.7,260.2,541.7,256.2L541.7,256.2z"/>
	<path class="st42" d="M541,276.8c-2.1-1.7-0.9-2.6,0.7-2.6c0.8,0,0.8-1.7,0-1.7h-7.2c-0.8,0-0.8,1.7,0,1.7c1.7,0,2.8,0.9,0.7,2.6
		c-2.1,1.7-3.8,3.4-3.8,5.7c0,2.4,1.3,4.5,4.1,4.5h5.1c2.8,0,4.1-2.1,4.1-4.5C544.8,280.2,543.1,278.5,541,276.8L541,276.8z"/>
	<path class="st43" d="M544.8,275.5c0.7,0,1.2-0.5,1.2-1.2s-0.5-1.2-1.2-1.2s-1.2,0.5-1.2,1.2S544.2,275.5,544.8,275.5z"/>
	<path class="st40" d="M545.2,290.4h0.3c0.9,0,1.7-0.7,1.7-1.7s-0.7-1.7-1.7-1.7l-13.6,0c-0.9,0-1.7,0.7-1.7,1.7s0.7,1.7,1.7,1.7
		h0.3l-5.5,54.2l1.3,0.1l0.9-8.8l9.3,0v8.8h1.3l0-8.8l9.3,0l0.9,8.8l1.2-0.1L545.2,290.4z M548.4,332.8l-9,0l-0.1-27.2h6.2
		L548.4,332.8L548.4,332.8z M545.4,304.4h-6.1l0-13.9h4.7L545.4,304.4L545.4,304.4z M538.2,334.7l-9.2,0l0.1-0.6l9.1,0V334.7z
		 M538.2,332.8l-9,0l2.7-27.2h6.2L538.2,332.8z M538.1,304.4H532l1.4-13.9h4.7L538.1,304.4z M539.4,334.7v-0.6l9.1,0l0.1,0.6
		L539.4,334.7z"/>
	<path class="st44" d="M522.5,337.9c1.7-0.3,1-11.7-1.6-25.5c-2.5-13.8-5.9-24.7-7.6-24.4c-1.7,0.3-1,11.7,1.6,25.5
		C517.5,327.2,520.9,338.2,522.5,337.9z"/>
	<path class="st44" d="M529.6,313.4c2.3-13.8,2.9-25.3,1.2-25.5c-1.7-0.3-4.9,10.7-7.3,24.5s-2.9,25.3-1.2,25.5
		S527.3,327.2,529.6,313.4z"/>
	<path class="st45" d="M521.5,333.5c1.8,0,3.3-12.1,3.3-26.9s-1.5-26.9-3.3-26.9s-3.3,12.1-3.3,26.9S519.7,333.5,521.5,333.5z"/>
	<path class="st45" d="M522.5,337.9c1.4-0.5-1-10.6-5.4-22.4c-4.4-11.8-9.1-21-10.6-20.5c-1.4,0.5,1,10.6,5.4,22.4
		C516.4,329.3,521.1,338.4,522.5,337.9z"/>
	<path class="st45" d="M532.7,317.3c4.3-11.9,6.5-22,5.1-22.5c-1.4-0.5-6.1,8.7-10.3,20.6c-4.3,11.9-6.5,22-5.1,22.5
		C523.8,338.4,528.4,329.2,532.7,317.3z"/>
	<path class="st46" d="M525.1,345.8l-5.1,0c-3,0-5.6-2.4-5.9-5.7l-1.3-13.6c-0.1-0.7,0.4-1.3,1.2-1.4h0.1l16.6-0.1
		c0.7,0,1.3,0.6,1.3,1.3v0.1l-1.1,13.6C530.6,343.3,528,345.8,525.1,345.8z"/>
	<path class="st44" d="M575.6,328.9c4.4-4.7,6.3-10.1,4.1-12.1c-2.1-2-7.4,0.1-11.8,4.8c-4.4,4.7-6.3,10.1-4.1,12.1
		C565.9,335.7,571.2,333.6,575.6,328.9z"/>
	<path class="st44" d="M564.3,333.7c2.1-2,0.2-7.4-4.3-12c-4.5-4.6-9.8-6.7-11.9-4.7c-2.1,2-0.2,7.4,4.3,12
		C556.9,333.6,562.2,335.7,564.3,333.7z"/>
	<path class="st45" d="M563.1,334.2c3.6,0,6.6-6.5,6.6-14.4c0-8-2.9-14.4-6.6-14.4c-3.6,0-6.6,6.5-6.6,14.4
		C556.5,327.7,559.5,334.2,563.1,334.2z"/>
	<path class="st42" d="M564.3,345.2c-4.5,0-8.2-3.6-8.2-8.1v-1.4c0-1.4,1.2-2.6,2.6-2.6l11.1-0.1c1.4,0,2.6,1.2,2.6,2.6v1.4
		C572.4,341.5,568.8,345.2,564.3,345.2L564.3,345.2z"/>
	<path class="st47" d="M385.3,267.4c0.3-0.1,0.6,0.5,1.1,1.6c0.2,0.5,0.5,1.1,0.8,1.8c0.3,0.7,0.6,1.5,1,2.3
		c0.4,0.9,0.9,1.7,1.3,2.5c0.3,0.4,0.6,0.8,0.9,1.2c0.3,0.4,0.6,0.8,1,1.1c0.4,0.3,0.8,0.6,1.2,0.9c0.4,0.3,0.8,0.5,1.3,0.7
		c0.4,0.2,0.9,0.3,1.3,0.4c0.1,0,0.2,0.1,0.3,0.1l0.3,0.1c0.2,0,0.4,0,0.6,0c1,0,2-0.2,2.9-0.4c0.5-0.2,1-0.3,1.4-0.5
		c0.2-0.1,0.5-0.2,0.7-0.3c0.2-0.1,0.5-0.2,0.6-0.3c0.4-0.2,0.9-0.4,1.3-0.7c0.4-0.2,0.8-0.5,1.2-0.8c0.8-0.5,1.5-1,2.2-1.6
		c0.6-0.5,1.3-0.9,2-1.3c0.5-0.4,1.1-0.7,1.7-1c0.4-0.2,0.9-0.4,1.5-0.4c0.4-0.1,0.8,0,1.1,0.2c0.3,0.2,0.5,0.5,0.6,1
		c0.1,0.5,0.1,1.1,0,1.6c-0.1,0.8-0.3,1.4-0.6,2.1c-0.4,0.9-0.9,1.8-1.4,2.5c-0.7,1-1.5,1.9-2.4,2.7c-0.5,0.5-1,0.9-1.6,1.3
		c-0.6,0.4-1.2,0.9-1.9,1.2c-0.3,0.2-0.7,0.4-1.1,0.5s-0.8,0.3-1.1,0.5c-0.8,0.3-1.6,0.5-2.4,0.8c-1.8,0.4-3.7,0.5-5.6,0.2
		c-0.5-0.1-1-0.2-1.4-0.3l-0.6-0.2c-0.2-0.1-0.5-0.2-0.7-0.3c-0.9-0.4-1.7-0.8-2.5-1.3c-0.8-0.5-1.4-1.1-2-1.8
		c-0.5-0.6-1.1-1.2-1.5-1.9c-0.4-0.6-0.8-1.3-1.1-2c-0.3-0.6-0.5-1.3-0.7-1.9c-0.3-1.1-0.5-2.3-0.6-3.4c-0.1-0.9-0.1-1.8-0.1-2.8
		c0-0.7,0.1-1.3,0.2-2C384.8,268.1,385,267.4,385.3,267.4z"/>
	<path class="st4" d="M400.9,282.3c-0.3,5.7-0.3,11.4,0,17.1c5.5,1.8,11.3,2.3,17,1.4c0.4-5.8,0.8-11.6,0.8-17.4
		c0-3.1-0.1-6.2-1-9.1c-0.7-2.6-2.3-5-4.4-6.7c-0.3-0.2-0.5-0.4-0.8-0.5c-1.3,1.1-4,1.5-5.5,0.8c-0.8,0.5-1.5,1.2-2.1,1.9
		c-1.1,1.3-2,2.9-2.5,4.6C401.5,276.9,401,279.6,400.9,282.3z"/>
	<path class="st48" d="M404.9,269.8c1.5,0.4,3,0.4,4.4,0.1c0.8-0.2,1.5-0.5,2.2-0.9c0.5-0.3,1.1-0.6,1.6-1.1l0.1-0.3v-0.2l-0.1-0.5
		c-0.3-1.6-0.5-3.3-0.8-4.9c-0.2-1.5-0.4-3-0.6-4.5c-1.7,0.9-3.3,1.8-4.8,3c0,1-0.1,2-0.2,3.1c-0.1,0.9-0.2,1.7-0.3,2.6
		c-0.1,0.5-0.2,1-0.2,1.4c-0.1,0.5-0.2,0.9-0.3,1.3C405.5,269.1,405.2,269.4,404.9,269.8z"/>
	<path class="st49" d="M406.3,266.1c1.8-1.6,3.8-3,5.9-4c-0.2-1.5-0.4-3-0.6-4.5c-1.7,0.9-3.3,1.8-4.8,3c0,1-0.1,2-0.2,3.1
		C406.5,264.4,406.4,265.2,406.3,266.1z"/>
	<path class="st25" d="M437.9,350.3c0,0,0,4-3.7,3.9l-0.7,14.4l10-17.1L437.9,350.3z"/>
	<path class="st4" d="M436.3,360.5c0-0.1-0.1-0.2-0.1-0.2c-0.1-0.1-0.2-0.1-0.2-0.1c-0.8,0.1-1.6,0.3-2.3,0.6
		c-0.1,0.1-0.2,0.1-0.2,0.2c-0.1,0.1-0.1,0.2,0,0.3c0,0.1,0.1,0.1,0.1,0.1c0.1,0,0.1,0.1,0.1,0.1s0.2,0,0.2,0
		c0.6-0.3,1.3-0.5,2.1-0.6c0.1,0,0.1-0.1,0.2-0.1c0.1-0.1,0.1-0.1,0.1-0.1C436.3,360.6,436.3,360.5,436.3,360.5z M436.4,358.7
		c0-0.1,0-0.1-0.1-0.1c0-0.1-0.1-0.1-0.1-0.1c-0.1,0-0.1-0.1-0.1-0.1c-0.1,0-0.1,0-0.1,0c-0.8,0.1-1.6,0.3-2.3,0.6
		c-0.1,0-0.1,0.1-0.1,0.1c-0.1,0.1-0.1,0.1-0.1,0.1c-0.1,0.1-0.1,0.2,0,0.3c0,0.1,0.1,0.1,0.1,0.1c0.1,0,0.1,0.1,0.1,0.1
		c0.1,0,0.1,0,0.1,0c0.1,0,0.1,0,0.1-0.1c0.6-0.3,1.3-0.5,2.1-0.6c0.1,0,0.1-0.1,0.2-0.1c0.1,0,0.1-0.1,0.1-0.1
		C436.4,358.8,436.4,358.8,436.4,358.7z M436.5,356.9c0-0.1,0-0.1-0.1-0.1c0-0.1-0.1-0.1-0.1-0.1c-0.1-0.1-0.2-0.1-0.2-0.1
		c-0.8,0.1-1.6,0.3-2.3,0.6c-0.1,0.1-0.1,0.1-0.2,0.2c-0.1,0.1-0.1,0.2,0,0.3c0.1,0.1,0.1,0.1,0.2,0.2c0.1,0,0.2,0,0.2,0
		c0.6-0.3,1.3-0.5,2.1-0.6c0.1,0,0.1-0.1,0.2-0.1c0.1-0.1,0.1-0.1,0.1-0.1C436.5,357,436.5,357,436.5,356.9z M435.4,369
		c-0.1,0.1-0.1,0.1-0.2,0.2c-0.1,0.1-0.1,0.1-0.2,0.1c-0.1,0-0.2,0-0.2,0c-0.1,0-0.2-0.1-0.2-0.1l-1.1-0.6l9.9-17.1l1.1,0.6
		c0.1,0.1,0.1,0.1,0.2,0.1c0.1,0.1,0.1,0.1,0.1,0.2c0,0.1,0,0.2,0,0.2c0,0.1-0.1,0.1-0.1,0.2L435.4,369z"/>
	<path class="st25" d="M398.3,365c0,0-3.5,1.8-5.2-1.4l-13,6.1l19.8,0.9L398.3,365z"/>
	<path class="st4" d="M388.1,368.2c0.1,0.1,0.1,0.1,0.2,0.1c0.1,0,0.1,0,0.2-0.1c0.1,0,0.1-0.1,0.1-0.1c0-0.1,0.1-0.1,0.1-0.1
		c0-0.1,0-0.1,0-0.1c0-0.1,0-0.1-0.1-0.1c-0.4-0.6-1-1.2-1.6-1.8c-0.1-0.1-0.2-0.1-0.3-0.1c-0.1,0-0.2,0.1-0.2,0.1
		c0,0.1-0.1,0.1-0.1,0.1c0,0.1,0,0.1,0,0.1c0,0.1,0,0.1,0.1,0.1c0,0.1,0.1,0.1,0.1,0.1c0.6,0.4,1.1,1,1.4,1.6
		C388,368.2,388,368.2,388.1,368.2z M389.7,367.5c0.1,0.1,0.1,0.1,0.2,0.1c0.1,0,0.1,0,0.2-0.1c0.1,0,0.1-0.1,0.1-0.1
		c0-0.1,0.1-0.1,0.1-0.1c0-0.1,0-0.1,0-0.1c0-0.1,0-0.1-0.1-0.1c-0.4-0.6-1-1.2-1.6-1.8c-0.1,0-0.1-0.1-0.1-0.1c-0.1,0-0.1,0-0.1,0
		c-0.1,0-0.1,0-0.1,0.1c-0.1,0-0.1,0.1-0.1,0.1c-0.1,0.1-0.1,0.2-0.1,0.2c0,0.1,0.1,0.2,0.1,0.2c0.6,0.4,1.1,1,1.4,1.6
		C389.6,367.5,389.7,367.5,389.7,367.5z M391.4,366.8c0.1,0.1,0.1,0.1,0.2,0c0.1,0,0.1-0.1,0.2-0.1c0.1-0.1,0.1-0.1,0.1-0.2
		c0-0.1,0-0.1-0.1-0.2c-0.4-0.6-1-1.2-1.6-1.8c-0.1-0.1-0.2-0.1-0.3-0.1c-0.1,0-0.2,0.1-0.2,0.1c0,0.1-0.1,0.1-0.1,0.1
		c0,0.1,0,0.1,0,0.1c0,0.1,0.1,0.2,0.1,0.2c0.6,0.4,1.1,1,1.5,1.6C391.3,366.7,391.3,366.8,391.4,366.8z M380.4,371.3
		c-0.2-0.1-0.3-0.2-0.3-0.4c-0.1-0.1-0.1-0.2-0.1-0.3l0.1-1.1l19.8,0.9l-0.1,1.1c0,0.1-0.1,0.2-0.1,0.3c-0.1,0.1-0.1,0.2-0.2,0.2
		c-0.1,0.1-0.3,0.2-0.5,0.2l-18.5-0.8C380.5,371.4,380.5,371.4,380.4,371.3z"/>
	<path class="st50" d="M418.3,304.2c0,0-4.6,26.8,22.7,45.9l-7.3,7.9c0,0-30.4-20.9-27.3-47.8L418.3,304.2z"/>
	<path class="st51" d="M419.3,319.8c-0.4,0.5-0.9,1.1-1.2,1.7c-1,1.5-1.9,3.1-2.6,4.8c-1.3,2.8-2.4,5.6-3.3,8.6
		c-4.1-7.1-6.9-15.5-5.9-24.6l11.9-6.1C418.2,304.2,417.1,310.8,419.3,319.8z"/>
	<path class="st52" d="M400.8,277.5c-1.2,9.5-1.3,19.1-0.4,28.6c0,0-15,29.3-11.7,58.7l11.4,2.8c0,0,2.6-38.7,18.1-58.3l0.6-19.4
		l-12.3-2l-1.1-10.4L400.8,277.5z"/>
	<path class="st50" d="M418.1,292.2c0.1,0,0.2-0.1,0.3-0.4c0.1-0.2,0.2-0.3,0.2-0.5c0.1-0.2,0.2-0.4,0.2-0.7
		c0.1-0.1,0.1-0.3,0.1-0.4c0.1-0.2,0.1-0.3,0.1-0.5c0.1-0.2,0.1-0.3,0.1-0.5c0.1-0.2,0.1-0.4,0.1-0.5c0-0.2,0.1-0.4,0.1-0.6l0.1-0.6
		c0.1-0.4,0.1-0.9,0.1-1.3c0.1-1.1,0.1-2.1,0-3.2c-0.1-1.2-0.2-2.4-0.4-3.6c-0.2-1.3-0.5-2.6-0.9-3.9c-0.4-1.5-1-2.8-1.7-4.1
		c-0.4-0.7-1-1.3-1.6-1.8c-0.6-0.5-1.3-1-2.1-1.2c-0.4-0.2-0.8-0.2-1.2-0.3h-1.2c-0.8,0.1-1.5,0.3-2.1,0.6c-0.6,0.3-1.2,0.7-1.7,1.1
		c-0.1,0.1-0.2,0.2-0.4,0.3l-0.3,0.3l-0.3,0.4c-0.1,0.1-0.2,0.3-0.3,0.4c-0.3,0.5-0.6,1-0.9,1.5c-0.2,0.5-0.4,1-0.5,1.5
		c-0.2,0.9-0.4,1.7-0.5,2.6c-0.1,0.6-0.1,1.3-0.1,1.9c0,1.1,0.1,1.7,0.2,1.7c0.1,0,0.2-0.6,0.4-1.6c0.1-0.5,0.2-1.2,0.4-1.9
		c0.2-0.8,0.4-1.6,0.6-2.4c0.3-0.9,0.8-1.7,1.5-2.5c0.1-0.1,0.2-0.2,0.3-0.3l0.3-0.3l0.3-0.3c0.1-0.1,0.2-0.2,0.3-0.2
		c0.4-0.3,0.9-0.6,1.3-0.8c0.5-0.2,1-0.3,1.6-0.3h0.8c0.3,0.1,0.5,0.1,0.8,0.2c1.1,0.5,2,1.3,2.6,2.4c0.6,1.1,1.1,2.3,1.4,3.6
		c0.4,1.3,0.6,2.5,0.9,3.7c0.2,1.2,0.4,2.3,0.5,3.4c0.1,1.1,0.2,2.1,0.2,3v5.1c0,0.2,0,0.4,0.1,0.5C418,292,418,292.2,418.1,292.2z"
		/>
	<path class="st30" d="M395.4,269.3h-22.8v22.8h22.8V269.3z"/>
	<path class="st31" d="M361.2,265.5l11.4,3.8v22.8l-11.4-3.8V265.5z"/>
	<path class="st32" d="M395.4,269.3l-11.4-3.8h-22.8l11.4,3.8H395.4z"/>
	<path class="st33" d="M381.3,270.7h-7.7v3.3h7.7V270.7z"/>
	<path class="st34" d="M382,287.8l0.1,4.4h3.9v-4.4H382z M382,269.3l0.1,4.4h3.9v-4.4H382z M376.6,265.5h-3.7l9.1,3.8h3.9
		L376.6,265.5z"/>
	<path class="st48" d="M415.7,277.9v0.2c0,2.5-0.5,4.9-1.7,7c-0.4,0.9-0.9,1.6-1.4,2.4c-0.6,0.8-1.3,1.6-2,2.2
		c-1.6,1.4-3.5,2.4-5.5,2.8c-0.9,0.2-1.9,0.4-2.8,0.4c-0.9,0.1-1.8-0.1-2.6-0.2c-0.8-0.1-1.6-0.3-2.4-0.5c-1.4-0.4-2.7-1-4-1.8
		c-1-0.6-2-1.3-2.9-2c-0.7-0.6-1.4-1.2-2.1-1.9l-0.2-0.2c-0.4,0.1-0.8,0-1.2,0c-0.4-0.1-0.8-0.2-1.2-0.3c-0.4-0.1-0.8-0.3-1.1-0.5
		c-0.4-0.2-0.7-0.4-1-0.7c-0.6-0.5-1.1-1.2-1.5-1.9c-0.2-0.4-0.3-0.8-0.4-1.2c-0.1-0.4-0.2-0.8-0.2-1.2c0-0.3,0-0.6,0-0.9
		c0-0.2,0.1-0.3,0.1-0.5c0.1-0.2,0.2-0.3,0.3-0.4c0.8-0.6,1.6,0,2.1,0.7c0.5,0.7,0.8,1.3,1.5,1.5c0.2,0.1,0.4,0.1,0.6,0.1
		c0.2-0.1,0.4-0.1,0.6-0.3c0.1-0.1,0.1-0.1,0.2-0.1c0.1-0.1,0.2-0.2,0.3-0.2c0.1-0.1,0.2-0.1,0.3-0.1c0.1,0,0.2,0,0.3,0.1
		c0.1,0.1,0.2,0.1,0.3,0.2c0.1,0.1,0.1,0.1,0.2,0.2c0.2,0.3,0.3,0.6,0.4,0.9c0.2,0.6,0.3,1.3,0.4,2c1,0.3,2.2,0.8,3.5,1.3
		c1,0.3,1.9,0.6,2.8,0.8c1,0.2,2,0.4,3.1,0.4c0.5,0,1.1,0,1.6-0.1c0.5-0.1,1-0.2,1.5-0.3c0.5-0.1,0.9-0.3,1.3-0.5
		c0.4-0.2,0.8-0.4,1.2-0.7c0.3-0.3,0.6-0.6,1-0.9c0.3-0.3,0.6-0.7,0.8-1.1c0.5-0.8,0.9-1.6,1.2-2.5c0.3-0.9,0.5-1.7,0.7-2.6
		c0.1-0.6,0.2-1.3,0.3-2c1.1,0.8,2.4,1.4,3.7,1.8C412.9,277.7,414.3,277.9,415.7,277.9z"/>
	<path class="st52" d="M405.8,245.8c0.2-0.6,0.5-1.2,0.9-1.7c0.4-0.5,1-0.9,1.5-1.1c1.2-0.5,2.5-0.6,3.7-0.3
		c0.6,0.2,1.2,0.4,1.8,0.7c0.5,0.3,1.1,0.8,1.5,1.2c0.4,0.5,0.8,1,1,1.7c0.3,0.6,0.4,1.2,0.4,1.9c0.1,2.1-1.1,4-2.2,5.7
		C412.3,250.6,409.3,247.8,405.8,245.8z"/>
	<path class="st51" d="M404.5,243.5c-0.5-0.4-1.2-0.6-1.9-0.5c-0.2,0.1-0.4,0.2-0.6,0.3c-0.2,0.1-0.4,0.3-0.5,0.5
		c-0.2,0.2-0.2,0.4-0.3,0.6c-0.1,0.2-0.1,0.5-0.1,0.7c0.1,0.5,0.2,0.9,0.4,1.3c0.2,0.4,0.5,0.8,0.9,1.1c0.3,0.3,0.5,0.5,0.9,0.7
		c0.3,0.2,0.6,0.4,1,0.6c0.6,0.3,1.4,0.6,2.1,0.8c0.4,0.1,0.8,0.1,1.1,0.1c0.8,0.1,1.5-0.1,2.3-0.2c0.4-0.1,0.7-0.2,1.1-0.4
		c0.4-0.2,1.3-0.5,1.5-0.8c0.3-0.6-0.3-0.6-0.8-1C409.2,246,406.8,244.7,404.5,243.5z"/>
	<path class="st25" d="M405.1,250.7c0.2-0.1,0.3-0.1,0.5,0c0.2,0.1,0.3,0.1,0.4,0.2c0.1,0.1,0.2,0.3,0.2,0.4c0.1,0.2,0,0.3-0.1,0.5
		c-0.2,1.2-0.6,2.4-1.3,3.4c-0.2-0.3-0.4-0.6-0.6-1c-0.3-0.7-0.4-1.5-0.3-2.2c0.1-0.4,0.1-0.8,0.3-1.1
		C404.4,251.1,404.7,250.7,405.1,250.7z M410.8,256.1c-0.2-1.3-0.1-2.7,0.2-4c0.3-1.4,0.9-2.8,1.7-4.1c0.6,0.6,1.2,1.2,1.6,2
		c0.3,0.9,0.5,1.7,0.6,2.6c0.1,0.4,0.1,0.9,0,1.3c-0.1,0.4-0.1,0.9-0.2,1.3c-0.1,0.4-0.2,0.9-0.4,1.3c-0.2,0.4-0.4,0.9-0.6,1.2
		c-0.2,0.4-0.5,0.8-0.8,1.1c-0.3,0.4-0.6,0.7-1,1C411.4,258.7,410.9,257.4,410.8,256.1z"/>
	<path class="st48" d="M405.1,250.4c0.3,1.6-0.4,3.3-1.1,4.8c-0.6,1.6-1.2,3.3-0.6,4.8c0.2,0.4,0.4,0.8,0.7,1.1
		c0.3,0.3,0.6,0.6,1,0.8c0.4,0.2,0.8,0.3,1.2,0.4c0.4,0.1,0.9,0.1,1.3,0c0.9-0.2,1.7-0.5,2.4-1c0.7-0.5,1.2-1.2,1.7-2
		c0.4-0.8,0.6-1.6,0.8-2.5c0.2-0.9,0.2-1.7,0.1-2.6c-0.2-1.7-0.5-3.4-1.1-5C409.4,248.1,406.9,248.9,405.1,250.4z"/>
	<path class="st48" d="M412.1,254.8c0.2-0.2,0.4-0.4,0.7-0.6c0.1-0.1,0.3-0.1,0.4-0.2c0.2,0,0.3,0,0.4,0.1c0.2,0.1,0.4,0.2,0.5,0.3
		c0.1,0.2,0.2,0.3,0.3,0.5c0.1,0.2,0.1,0.4,0.1,0.5c0,0.2,0,0.4-0.1,0.5c-0.1,0.2-0.2,0.4-0.2,0.5c-0.1,0.2-0.2,0.3-0.4,0.4
		c-0.2,0.1-0.3,0.2-0.5,0.3c-0.2,0.1-0.4,0.1-0.5,0.2c-0.2,0-0.4,0-0.6-0.1c-0.2-0.1-0.4-0.1-0.5-0.2
		C411.9,256.4,412,255.6,412.1,254.8z"/>
	<path class="st25" d="M403.9,251.6c2.5,0.1,4.9-0.5,7-1.8c-0.2,0.7-0.2,1.5,0,2.2c0.2,0.5,0.4,1,0.7,1.4c0.3,0.4,0.7,0.9,1.1,1.2
		c1-1.4,1.5-3.1,1.2-4.8c0-0.2-0.1-0.4-0.1-0.6c-0.3-0.5-0.7-0.9-1.1-1.3c-0.6-0.6-1.5-1.1-2.3-1.4c-0.5-0.2-1.1-0.3-1.7-0.4
		c-1.2-0.2-2.4-0.1-3.5,0.3c-0.5,0.2-1.1,0.4-1.6,0.8c-0.2,0.2-0.3,0.3-0.5,0.5c-0.4,0.4-0.7,0.9-0.9,1.4c-0.1,0.1-0.1,0.2-0.1,0.4
		c0,0.1-0.1,0.3,0,0.4c0,0.1,0,0.3,0.1,0.4c0.1,0.1,0.1,0.2,0.1,0.3c0.1,0.1,0.1,0.2,0.2,0.3c0.1,0.1,0.2,0.2,0.3,0.3
		c0.1,0.1,0.2,0.2,0.3,0.2c0.1,0.1,0.2,0.1,0.3,0.2C403.5,251.6,403.7,251.6,403.9,251.6z"/>
</svg>
