<svg version="1.1" xmlns="http://www.w3.org/2000/svg" xmlns:xlink="http://www.w3.org/1999/xlink" width="40" height="36" viewBox="0 0 40 36">
<style type="text/css">
	.st0{fill:url(#SVGID_1_);}
</style>
<linearGradient id="SVGID_1_" gradientUnits="userSpaceOnUse" x1="0" y1="18" x2="40" y2="18">
	<stop  offset="0" style="stop-color:#EC8A5B"/>
	<stop  offset="1" style="stop-color:#F8D568"/>
</linearGradient>
<path class="st0" d="M40,24.9c-0.1,0.6-0.2,1.2-0.4,1.8c-1.2,3.1-3.4,4.8-6.7,5.1c0,0-0.1,0-0.2,0c0,0.2,0,0.4,0,0.5
	c0,0.6,0,1.2,0,1.7c0,0.8-0.3,1.4-1.1,1.7c-0.7,0.3-1.4,0.1-2-0.4c-1.2-1.1-2.3-2.2-3.5-3.3c-0.3-0.2-0.5-0.3-0.8-0.3
	c-1.3,0-2.7,0.1-4,0c-2.6-0.2-4.5-1.6-5.8-3.8c0.7,0,1.2,0,1.8,0c0.1,0,0.2,0.1,0.2,0.2c1.2,1.4,2.7,2.1,4.6,2.1c1.3,0,2.7,0,4,0
	c0.2,0,0.4,0.1,0.6,0.2c1.3,1.2,2.7,2.4,4,3.7c0.1,0.1,0.2,0.1,0.4,0.2c0-0.1,0.1-0.3,0.1-0.4c0-1.2,0-2.4,0-3.7c0.3,0,0.5,0,0.7,0
	c1.2,0,2.4-0.1,3.5-0.7c1.9-1.1,3.1-2.7,3.1-5c0.1-4.1,0.1-8.3,0-12.4c0-2.6-1.9-4.8-4.4-5.5c-0.4-0.1-0.5-0.2-0.4-0.6
	c0-0.4,0-0.7,0-1.1c1.2,0.1,2.2,0.6,3.2,1.3c1.8,1.3,2.9,3,3.2,5.3c0,0.1,0,0.1,0.1,0.2C40,16.1,40,20.5,40,24.9z M19,0
	c-0.9,0-1.8,0-2.8,0c-0.6,0-1.1,0-1.7,0c-2.3,0-4.5,0-6.8,0c-0.6,0-1.2,0-1.9,0.2C2.4,1,0,4,0,7.7c0,3.9,0,7.8,0,11.6
	c0,3.4,2,6.2,5.2,7.3c0.2,0.1,0.3,0.2,0.3,0.4c0,1.2,0,2.4,0,3.7c0,0.3,0,0.7,0.2,1c0.5,1.1,1.9,1.3,2.8,0.5
	c1.8-1.6,3.6-3.3,5.3-4.9c0.2-0.2,0.4-0.3,0.7-0.3c0.8,0,1.7,0,2.5,0c2.5,0,5,0,7.6,0c0.8,0,1.5-0.1,2.2-0.3
	c3.1-0.8,5.5-3.7,5.5-6.9c0-3.6,0-7.2,0-10.8c0-0.5,0-1,0-1.5c0-2.2-0.8-4.1-2.4-5.5c-1.5-1.4-3.4-2-5.5-2C22.7,0,20.8,0,19,0z
	 M25.2,19.8h-9.1c-0.6,0-1.2,0-1.9,0c-2.5,0-4.9,0-7.4,0c-0.3,0-0.7-0.1-0.9-0.3C5.3,19,5.6,18,6.4,17.8c0.2,0,0.4-0.1,0.5-0.1h18.4
	c0.4,0,0.8,0,1,0.3c0.3,0.3,0.4,0.6,0.3,1c-0.1,0.4-0.4,0.7-0.9,0.8c-0.1,0-0.2,0-0.3,0C25.3,19.8,25.3,19.8,25.2,19.8z M25.2,9.9
	h-9.1h0c-3.1,0-6.2,0-9.3,0c-0.4,0-0.8-0.1-1-0.5C5.4,8.8,5.7,7.9,6.4,7.8c0.2,0,0.4,0,0.5,0h18.4c0.4,0,0.8,0,1,0.3
	c0.3,0.3,0.4,0.7,0.2,1.1c-0.2,0.4-0.5,0.7-0.9,0.7c-0.1,0-0.2,0-0.3,0C25.3,9.9,25.3,9.9,25.2,9.9z M25.2,15.1h-9.1
	c-3.1,0-6.2,0-9.3,0c-0.4,0-0.8-0.1-1-0.4c-0.2-0.3-0.3-0.7-0.1-1C5.9,13.3,6.1,13,6.6,13c0.1,0,0.3,0,0.4,0h18.3
	c0.9,0,1.4,0.4,1.4,1.1C26.6,14.7,26.1,15.1,25.2,15.1z"/>
</svg>
