<svg version="1.1" xmlns="http://www.w3.org/2000/svg" xmlns:xlink="http://www.w3.org/1999/xlink" width="250" height="160" viewBox="0 0 250 160">
<style type="text/css">
	.st0{fill:#EAF1FB;}
	.st1{fill:#F8F9FD;}
	.st2{fill:#CDE4F7;}
	.st3{fill:#E9EDF4;}
	.st4{fill:#FFFFFF;}
	.st5{fill:#ECF7FE;}
	.st6{fill:#F8C57B;}
	.st7{fill:#E19A53;}
	.st8{fill:#FFDF9A;}
	.st9{fill:#E5E7E6;}
	.st10{fill:#CF8E4E;}
	.st11{fill:#D38238;}
	.st12{fill:#EAB974;}
	.st13{fill:#D4914F;}
	.st14{fill:#F2D492;}
	.st15{fill:#C08448;}
	.st16{fill:#E4B571;}
	.st17{fill:#ECD08F;}
	.st18{fill:#C17631;}
	.st19{fill:#02819F;}
	.st20{fill:#E8815F;}
	.st21{fill:#EAF1FC;}
	.st22{fill:#0B2B46;}
	.st23{fill:#F09976;}
	.st24{fill:#05616B;}
</style>
<path class="st0" d="M124,160c68.5,0,124-8.3,124-18.5S192.5,123,124,123c-68.5,0-124,8.3-124,18.5S55.5,160,124,160z"/>
<path class="st1" d="M229.9,131.4c16.1-32.6,25-94.9-9.9-115.6c-22.8-13.5-46.6,3.9-71.1,4.7C129.8,21.1,111.3,6.4,94,2.2
	C48.7-8.8-13,19.9,18.4,131.5C96.8,131.3,151.5,131.7,229.9,131.4z"/>
<path class="st2" d="M21,39.4h49.7v96.7H21V39.4z"/>
<path class="st3" d="M21,39.4h15.5v96.7H21V39.4z"/>
<path class="st4" d="M65.2,44h2.3v10.7h-2.3V44z M61.1,44h2.3v10.7h-2.3V44z M56.9,44h2.3v10.7h-2.3V44z M52.7,44H55v10.7h-2.3V44z
	 M48.5,44h2.3v10.7h-2.3V44z M44.4,44h2.3v10.7h-2.3V44z M40.2,44h2.3v10.7h-2.3V44z M32.5,44h2.3v10.7h-2.3V44z M28.4,44h2.3v10.7
	h-2.3V44z M24.2,44h2.3v10.7h-2.3V44z M65.2,56.1h2.3v10.7h-2.3V56.1z M61.1,56.1h2.3v10.7h-2.3V56.1z M56.9,56.1h2.3v10.7h-2.3
	V56.1z M52.7,56.1H55v10.7h-2.3V56.1z M48.5,56.1h2.3v10.7h-2.3V56.1z M44.4,56.1h2.3v10.7h-2.3V56.1z M40.2,56.1h2.3v10.7h-2.3
	V56.1z M32.5,56.1h2.3v10.7h-2.3V56.1z M28.4,56.1h2.3v10.7h-2.3V56.1z M24.2,56.1h2.3v10.7h-2.3V56.1z M65.2,68.1h2.3v10.7h-2.3
	V68.1z M61.1,68.1h2.3v10.7h-2.3V68.1z M56.9,68.1h2.3v10.7h-2.3V68.1z M52.7,68.1H55v10.7h-2.3V68.1z M48.5,68.1h2.3v10.7h-2.3
	V68.1z M44.4,68.1h2.3v10.7h-2.3V68.1z M40.2,68.1h2.3v10.7h-2.3V68.1z M32.5,68.1h2.3v10.7h-2.3V68.1z M28.4,68.1h2.3v10.7h-2.3
	V68.1z M24.2,68.1h2.3v10.7h-2.3V68.1z M65.2,80.2h2.3v10.7h-2.3V80.2z M61.1,80.2h2.3v10.7h-2.3V80.2z M56.9,80.2h2.3v10.7h-2.3
	V80.2z M52.7,80.2H55v10.7h-2.3V80.2z M48.5,80.2h2.3v10.7h-2.3V80.2z M44.4,80.2h2.3v10.7h-2.3V80.2z M40.2,80.2h2.3v10.7h-2.3
	V80.2z M32.5,80.2h2.3v10.7h-2.3V80.2z M28.4,80.2h2.3v10.7h-2.3V80.2z M24.2,80.2h2.3v10.7h-2.3V80.2z M65.2,92.3h2.3V103h-2.3
	V92.3z M61.1,92.3h2.3V103h-2.3V92.3z M56.9,92.3h2.3V103h-2.3V92.3z M52.7,92.3H55V103h-2.3V92.3z M48.5,92.3h2.3V103h-2.3V92.3z
	 M44.4,92.3h2.3V103h-2.3V92.3z M40.2,92.3h2.3V103h-2.3V92.3z M32.5,92.3h2.3V103h-2.3V92.3z M28.4,92.3h2.3V103h-2.3V92.3z
	 M24.2,92.3h2.3V103h-2.3V92.3z M65.2,104.4h2.3v10.7h-2.3V104.4z M61.1,104.4h2.3v10.7h-2.3V104.4z M56.9,104.4h2.3v10.7h-2.3
	V104.4z M52.7,104.4H55v10.7h-2.3V104.4z M48.5,104.4h2.3v10.7h-2.3V104.4z M44.4,104.4h2.3v10.7h-2.3V104.4z M40.2,104.4h2.3v10.7
	h-2.3V104.4z M32.5,104.4h2.3v10.7h-2.3V104.4z M28.4,104.4h2.3v10.7h-2.3V104.4z M24.2,104.4h2.3v10.7h-2.3V104.4z M65.2,116.5h2.3
	v10.7h-2.3V116.5z M61.1,116.5h2.3v10.7h-2.3V116.5z M56.9,116.5h2.3v10.7h-2.3V116.5z M52.7,116.5H55v10.7h-2.3V116.5z M48.5,116.5
	h2.3v10.7h-2.3V116.5z M44.4,116.5h2.3v10.7h-2.3V116.5z M40.2,116.5h2.3v10.7h-2.3V116.5z M32.5,116.5h2.3v10.7h-2.3V116.5z
	 M28.4,116.5h2.3v10.7h-2.3V116.5z M24.2,116.5h2.3v10.7h-2.3V116.5z"/>
<path class="st2" d="M112.6,47.4h34.5v88.7h-34.5V47.4z"/>
<path class="st5" d="M112.6,47.4h10.7v88.7h-10.7V47.4z"/>
<path class="st4" d="M112.6,52.3h34.5V53h-34.5V52.3z M112.6,58.1h34.5v0.7h-34.5V58.1z M112.6,64h34.5v0.7h-34.5V64z M112.6,69.8
	h34.5v0.7h-34.5V69.8z M112.6,75.7h34.5v0.7h-34.5V75.7z M112.6,81.5h34.5v0.7h-34.5V81.5z M112.6,87.4h34.5v0.7h-34.5V87.4z
	 M112.6,93.2h34.5V94h-34.5V93.2z M112.6,99.1h34.5v0.7h-34.5V99.1z M112.6,104.9h34.5v0.7h-34.5V104.9z M112.6,110.8h34.5v0.7
	h-34.5V110.8z M112.6,116.7h34.5v0.7h-34.5V116.7z M112.6,122.5h34.5v0.7h-34.5V122.5z M112.6,128.4h34.5v0.7h-34.5V128.4z"/>
<path class="st2" d="M56.3,13.1h63.2v123H56.3V13.1z"/>
<path class="st5" d="M56.3,13.1H76v123H56.3V13.1z"/>
<path class="st4" d="M112.6,19h2.9v3.5h-2.9V19z M107.3,19h2.9v3.5h-2.9V19z M102,19h2.9v3.5H102V19z M96.7,19h2.9v3.5h-2.9V19z
	 M91.3,19h2.9v3.5h-2.9V19z M86,19h2.9v3.5H86V19z M80.7,19h2.9v3.5h-2.9V19z M71,19h2.9v3.5H71V19z M65.7,19h2.9v3.5h-2.9V19z
	 M60.4,19h2.9v3.5h-2.9V19z M112.6,26.4h2.9v3.5h-2.9V26.4z M107.3,26.4h2.9v3.5h-2.9V26.4z M102,26.4h2.9v3.5H102V26.4z M96.7,26.4
	h2.9v3.5h-2.9V26.4z M91.3,26.4h2.9v3.5h-2.9V26.4z M86,26.4h2.9v3.5H86V26.4z M80.7,26.4h2.9v3.5h-2.9V26.4z M71,26.4h2.9v3.5H71
	V26.4z M65.7,26.4h2.9v3.5h-2.9V26.4z M60.4,26.4h2.9v3.5h-2.9V26.4z M112.6,33.8h2.9v3.5h-2.9V33.8z M107.3,33.8h2.9v3.5h-2.9V33.8
	z M102,33.8h2.9v3.5H102V33.8z M96.7,33.8h2.9v3.5h-2.9V33.8z M91.3,33.8h2.9v3.5h-2.9V33.8z M86,33.8h2.9v3.5H86V33.8z M80.7,33.8
	h2.9v3.5h-2.9V33.8z M71,33.8h2.9v3.5H71V33.8z M65.7,33.8h2.9v3.5h-2.9V33.8z M60.4,33.8h2.9v3.5h-2.9V33.8z M112.6,41.2h2.9v3.5
	h-2.9V41.2z M107.3,41.2h2.9v3.5h-2.9V41.2z M102,41.2h2.9v3.5H102V41.2z M96.7,41.2h2.9v3.5h-2.9V41.2z M91.3,41.2h2.9v3.5h-2.9
	V41.2z M86,41.2h2.9v3.5H86V41.2z M80.7,41.2h2.9v3.5h-2.9V41.2z M71,41.2h2.9v3.5H71V41.2z M65.7,41.2h2.9v3.5h-2.9V41.2z
	 M60.4,41.2h2.9v3.5h-2.9V41.2z M112.6,48.6h2.9v3.5h-2.9V48.6z M107.3,48.6h2.9v3.5h-2.9V48.6z M102,48.6h2.9v3.5H102V48.6z
	 M96.7,48.6h2.9v3.5h-2.9V48.6z M91.3,48.6h2.9v3.5h-2.9V48.6z M86,48.6h2.9v3.5H86V48.6z M80.7,48.6h2.9v3.5h-2.9V48.6z M71,48.6
	h2.9v3.5H71V48.6z M65.7,48.6h2.9v3.5h-2.9V48.6z M60.4,48.6h2.9v3.5h-2.9V48.6z M112.6,56h2.9v3.5h-2.9V56z M107.3,56h2.9v3.5h-2.9
	V56z M102,56h2.9v3.5H102V56z M96.7,56h2.9v3.5h-2.9V56z M91.3,56h2.9v3.5h-2.9V56z M86,56h2.9v3.5H86V56z M80.7,56h2.9v3.5h-2.9V56
	z M71,56h2.9v3.5H71V56z M65.7,56h2.9v3.5h-2.9V56z M60.4,56h2.9v3.5h-2.9V56z M112.6,63.5h2.9V67h-2.9V63.5z M107.3,63.5h2.9V67
	h-2.9V63.5z M102,63.5h2.9V67H102V63.5z M96.7,63.5h2.9V67h-2.9V63.5z M91.3,63.5h2.9V67h-2.9V63.5z M86,63.5h2.9V67H86V63.5z
	 M80.7,63.5h2.9V67h-2.9V63.5z M71,63.5h2.9V67H71V63.5z M65.7,63.5h2.9V67h-2.9V63.5z M60.4,63.5h2.9V67h-2.9V63.5z M112.6,70.9
	h2.9v3.5h-2.9V70.9z M107.3,70.9h2.9v3.5h-2.9V70.9z M102,70.9h2.9v3.5H102V70.9z M96.7,70.9h2.9v3.5h-2.9V70.9z M91.3,70.9h2.9v3.5
	h-2.9V70.9z M86,70.9h2.9v3.5H86V70.9z M80.7,70.9h2.9v3.5h-2.9V70.9z M71,70.9h2.9v3.5H71V70.9z M65.7,70.9h2.9v3.5h-2.9V70.9z
	 M60.4,70.9h2.9v3.5h-2.9V70.9z M112.6,78.3h2.9v3.5h-2.9V78.3z M107.3,78.3h2.9v3.5h-2.9V78.3z M102,78.3h2.9v3.5H102V78.3z
	 M96.7,78.3h2.9v3.5h-2.9V78.3z M91.3,78.3h2.9v3.5h-2.9V78.3z M86,78.3h2.9v3.5H86V78.3z M80.7,78.3h2.9v3.5h-2.9V78.3z M71,78.3
	h2.9v3.5H71V78.3z M65.7,78.3h2.9v3.5h-2.9V78.3z M60.4,78.3h2.9v3.5h-2.9V78.3z M112.6,85.7h2.9v3.5h-2.9V85.7z M107.3,85.7h2.9
	v3.5h-2.9V85.7z M102,85.7h2.9v3.5H102V85.7z M96.7,85.7h2.9v3.5h-2.9V85.7z M91.3,85.7h2.9v3.5h-2.9V85.7z M86,85.7h2.9v3.5H86
	V85.7z M80.7,85.7h2.9v3.5h-2.9V85.7z M71,85.7h2.9v3.5H71V85.7z M65.7,85.7h2.9v3.5h-2.9V85.7z M60.4,85.7h2.9v3.5h-2.9V85.7z
	 M112.6,93.1h2.9v3.5h-2.9V93.1z M107.3,93.1h2.9v3.5h-2.9V93.1z M102,93.1h2.9v3.5H102V93.1z M96.7,93.1h2.9v3.5h-2.9V93.1z
	 M91.3,93.1h2.9v3.5h-2.9V93.1z M86,93.1h2.9v3.5H86V93.1z M80.7,93.1h2.9v3.5h-2.9V93.1z M71,93.1h2.9v3.5H71V93.1z M65.7,93.1h2.9
	v3.5h-2.9V93.1z M60.4,93.1h2.9v3.5h-2.9V93.1z M112.6,100.5h2.9v3.5h-2.9V100.5z M107.3,100.5h2.9v3.5h-2.9V100.5z M102,100.5h2.9
	v3.5H102V100.5z M96.7,100.5h2.9v3.5h-2.9V100.5z M91.3,100.5h2.9v3.5h-2.9V100.5z M86,100.5h2.9v3.5H86V100.5z M80.7,100.5h2.9v3.5
	h-2.9V100.5z M71,100.5h2.9v3.5H71V100.5z M65.7,100.5h2.9v3.5h-2.9V100.5z M60.4,100.5h2.9v3.5h-2.9V100.5z M112.6,107.9h2.9v3.5
	h-2.9V107.9z M107.3,107.9h2.9v3.5h-2.9V107.9z M102,107.9h2.9v3.5H102V107.9z M96.7,107.9h2.9v3.5h-2.9V107.9z M91.3,107.9h2.9v3.5
	h-2.9V107.9z M86,107.9h2.9v3.5H86V107.9z M80.7,107.9h2.9v3.5h-2.9V107.9z M71,107.9h2.9v3.5H71V107.9z M65.7,107.9h2.9v3.5h-2.9
	V107.9z M60.4,107.9h2.9v3.5h-2.9V107.9z M112.6,115.4h2.9v3.5h-2.9V115.4z M107.3,115.4h2.9v3.5h-2.9V115.4z M102,115.4h2.9v3.5
	H102V115.4z M96.7,115.4h2.9v3.5h-2.9V115.4z M91.3,115.4h2.9v3.5h-2.9V115.4z M86,115.4h2.9v3.5H86V115.4z M80.7,115.4h2.9v3.5
	h-2.9V115.4z M71,115.4h2.9v3.5H71V115.4z M65.7,115.4h2.9v3.5h-2.9V115.4z M60.4,115.4h2.9v3.5h-2.9V115.4z M112.6,122.8h2.9v3.5
	h-2.9V122.8z M107.3,122.8h2.9v3.5h-2.9V122.8z M102,122.8h2.9v3.5H102V122.8z M96.7,122.8h2.9v3.5h-2.9V122.8z M91.3,122.8h2.9v3.5
	h-2.9V122.8z M86,122.8h2.9v3.5H86V122.8z M80.7,122.8h2.9v3.5h-2.9V122.8z M71,122.8h2.9v3.5H71V122.8z M65.7,122.8h2.9v3.5h-2.9
	V122.8z M60.4,122.8h2.9v3.5h-2.9V122.8z"/>
<path class="st5" d="M110.7,13.1H65.2V8c0-0.5,0.1-1,0.3-1.5C65.7,6,66,5.5,66.4,5.2c0.4-0.4,0.8-0.7,1.3-0.9c0.5-0.2,1-0.3,1.6-0.3
	h37.2c0.5,0,1.1,0.1,1.6,0.3c0.5,0.2,1,0.5,1.3,0.9c0.4,0.4,0.7,0.8,0.9,1.3c0.2,0.5,0.3,1,0.3,1.5V13.1z"/>
<path class="st6" d="M27,124.3h27.1v27.1H27V124.3z"/>
<path class="st7" d="M67.6,119.8l-13.5,4.5v27.1l13.5-4.5V119.8z"/>
<path class="st8" d="M27,124.3l13.5-4.5h27.1l-13.5,4.5H27z"/>
<path class="st9" d="M43.7,126h9.2v4h-9.2V126z"/>
<path class="st10" d="M49.4,119.8l-11.2,4.5h4.7l10.9-4.5H49.4z M38.2,124.3v5.2h4.6l0-5.2H38.2z M38.2,146.3v5.2h4.6l0-5.2H38.2z"
	/>
<path class="st6" d="M58.4,130.7h20.8v20.8H58.4V130.7z"/>
<path class="st7" d="M89.5,127.3l-10.4,3.5v20.8l10.4-3.5V127.3z"/>
<path class="st8" d="M58.4,130.7l10.4-3.5h20.8l-10.4,3.5H58.4z"/>
<path class="st11" d="M82.3,144.6v5.8l3.1-1v-5.8L82.3,144.6z M82.3,129.7v5.8l3.1-1v-5.8L82.3,129.7z"/>
<path class="st7" d="M64.6,128.6l-0.4,0.1l-0.7,0.2l-2.2,0.7h20.9l3.1-1H64.6z"/>
<path class="st12" d="M61.8,113.9h15.4v15.4H61.8V113.9z"/>
<path class="st13" d="M84.9,111.4l-7.7,2.6v15.4l7.7-2.6V111.4z"/>
<path class="st14" d="M61.8,113.9l7.7-2.6h15.4l-7.7,2.6H61.8z"/>
<path class="st9" d="M71.3,114.9h5.2v2.3h-5.2V114.9z"/>
<path class="st15" d="M74.5,111.4l-6.4,2.6h2.7l6.2-2.6H74.5z M68.1,113.9v3h2.6l0-3H68.1z M68.1,126.4v3h2.6l0-3H68.1z"/>
<path class="st6" d="M80.4,124.4h27.1v27.1H80.4V124.4z"/>
<path class="st7" d="M121,119.9l-13.5,4.5v27.1L121,147V119.9z"/>
<path class="st8" d="M80.4,124.4l13.5-4.5H121l-13.5,4.5H80.4z"/>
<path class="st11" d="M111.6,142.5v7.5l4.1-1.3v-7.6L111.6,142.5z M111.6,123.1v7.5l4.1-1.3v-7.6L111.6,123.1z"/>
<path class="st7" d="M88.6,121.7l-0.6,0.2l-0.9,0.3l-2.8,0.9h27.3l4.1-1.4H88.6z"/>
<path class="st9" d="M97.1,126.2h9.2v4h-9.2V126.2z"/>
<path class="st16" d="M31.6,103.7h19.3v19.3H31.6V103.7z"/>
<path class="st10" d="M60.5,100.5l-9.7,3.2v19.3l9.7-3.2V100.5z"/>
<path class="st17" d="M31.6,103.7l9.7-3.2h19.3l-9.7,3.2H31.6z"/>
<path class="st18" d="M53.8,116.7v5.4l2.9-0.9v-5.4L53.8,116.7z M53.8,102.8v5.4l2.9-0.9v-5.4L53.8,102.8z"/>
<path class="st10" d="M37.4,101.8l-0.4,0.1l-0.6,0.2l-2,0.6h19.5l2.9-1H37.4z"/>
<path class="st9" d="M43.5,105h6.6v2.8h-6.6V105z"/>
<path class="st16" d="M80.2,101.7h23.2v23.2H80.2V101.7z"/>
<path class="st10" d="M115,97.8l-11.6,3.9v23.2L115,121V97.8z"/>
<path class="st17" d="M80.2,101.7l11.6-3.9H115l-11.6,3.9H80.2z"/>
<path class="st18" d="M106.9,117.2v6.5l3.5-1.1v-6.5L106.9,117.2z M106.9,100.5v6.5l3.5-1.1v-6.5L106.9,100.5z"/>
<path class="st10" d="M87.2,99.4l-0.5,0.2L86,99.8l-2.4,0.8h23.4l3.5-1.2H87.2z"/>
<path class="st9" d="M94.5,103.2h7.9v3.4h-7.9V103.2z"/>
<path class="st19" d="M181.2,160H165l1.6-50.3L189,109L181.2,160z"/>
<path class="st19" d="M213,160h-17.9L183,107l27,3.6L213,160z"/>
<path class="st20" d="M238,91.7c-6.4-10.1-11.1-21.1-11.1-21.1l-13.8,9.4l10.4,16.5c1.3,2.3,6.9,1.7,8.4-0.5L238,91.7z"/>
<path class="st21" d="M210.2,49.7l-15.7-6.2h-16.4L160,52.8c-1.5,0.9-1.2,2.8-0.7,4.5l7.6,52.2l43.4,0.3l5.9-54
	C216.6,54.1,211.8,50.5,210.2,49.7z"/>
<path class="st21" d="M211.9,50.8c10.4,7.6,15.1,19.8,15.1,19.8l-14.8,14.2l-16.8-16.3L211.9,50.8z M160,52.8
	c0,0-12.4,4.1-14.9,26.1l24.5,7.3l6.8-21.2L160,52.8z"/>
<path class="st22" d="M176.8,13.7c1.6,4.7,2.2,9.7,1.8,14.7c-0.1,1.4-0.3,2.8,0.1,4.2c0.3,1.4,1.3,2.6,2.7,2.8
	c0.6-3.8,1.1-7.6,1.7-11.4c0.2-1.4,0.4-2.9,0-4.2c-0.4-1.4-1.3-2.5-2.5-3.4C179.5,15.3,178.2,14.4,176.8,13.7z"/>
<path class="st23" d="M182.8,48.9c2.4,1.2,5.2,1.3,7.8,0.6c2.6-0.7,5-2.5,7-4.8c-1-1.5-1.9-2.1-2.6-3.8c-0.1-0.3-0.2-0.6-0.4-0.9
	c-0.5-1.3-0.9-2.7-1.1-4.1c-4.9-1.5-9.5-6.1-13.3-9.6c0.4,3.7,0.1,9.6-0.9,13.2c0,0,0,0,0,0.1c-0.3,1.1-0.7,2.2-1.2,3.3
	C177.1,45.3,180.4,47.7,182.8,48.9z"/>
<path class="st20" d="M179.2,39.5C179.3,39.5,179.3,39.5,179.2,39.5c1.4,1,2.9,1.7,4.5,2.1c0.2,0,0.4,0.1,0.6,0.1
	c0.7,0.1,1.3,0.2,2,0.3c2.5,0.2,5.1-0.4,7.4-1.5c0.3-0.2,0.6-0.3,0.9-0.5c-0.5-1.3-0.9-2.7-1.1-4.1c-4.9-1.5-9.5-6.1-13.3-9.6
	C180.6,30,180.3,35.8,179.2,39.5L179.2,39.5z"/>
<path class="st22" d="M195.8,12c0.8,3.2,0.4,6.7-1.1,9.6C193.4,18.7,193.9,14.7,195.8,12z"/>
<path class="st23" d="M180.5,21.4c-0.2-0.5-0.5-1-0.8-1.4c-0.3-0.4-0.8-0.7-1.3-0.8c-1-0.1-1.8,0.7-2.1,1.6
	c-0.3,0.9-0.1,1.9,0.2,2.9c0.2,0.7,0.5,1.4,0.9,2c0.4,0.6,1.1,1.1,1.8,1.3c0.4,0.1,0.7,0.1,1.1,0c0.4-0.1,0.7-0.3,0.9-0.6
	C180.7,24.6,180.3,23.1,180.5,21.4z"/>
<path class="st23" d="M180.3,25.5c0,0.2,0,0.4,0.1,0.6c0.5,3.4,1.5,7,3.9,9.4c2.1,2.2,5.4,3.4,8.4,2.7c3-0.6,5.6-3.1,6.2-6.1
	c0.4-2-0.2-4.1-0.9-6.1c-0.8-1.9-1.7-3.8-2.4-5.7c-0.7-2-1.1-4.7-0.4-6.7l-0.2-0.1c-4.4-2.6-9.5-3.2-14.2-1
	C179.9,16.8,179.7,21.2,180.3,25.5z"/>
<path class="st22" d="M198.6,9.7c-0.6,1.7-1.8,3.1-3.3,4c-1.2,0.7-2.5,1.2-3.9,1.4c-3.1,0.4-6.3-0.5-9.3-1.7c-0.1,0.2-2.7,4-0.7,9.8
	l-2.6-5.7c-0.3-0.9-0.6-1.7-1.1-2.4c-0.5-0.9-1.1-1.7-1.4-2.6c-0.3-0.9-0.3-2.1,0.4-2.8c0.9-0.9,2.3-0.6,3.5-1.1
	c1.9-0.7,2.7-3,3.9-4.7c0.7-1,1.7-1.9,2.7-2.6c1.1-0.7,2.3-1.1,3.6-1.3c1.3-0.1,2.5,0,3.7,0.4c1.2,0.4,2.3,1.2,3.1,2.1
	c0.8,1,1.4,2.1,1.7,3.4C199,7.2,199,8.5,198.6,9.7z"/>
<path class="st19" d="M210,112l-43.5,0.5c0,0-0.1-33.4,1.6-53.6c0.7-8.3,11,9.9,36.8-1.7C209.2,55.3,210,112,210,112z"/>
<path class="st19" d="M172.2,60.7h-4.1v-13l4.1-1.5V60.7z M203.1,61.3h3.9v-13l-3.9-1.5V61.3z"/>
<path class="st23" d="M164.2,125.9c0,0-13.6-10.3-19.5-19.8c-4.1-6.6,0.3-27.2,0.3-27.2l15.4,4.6l-4.9,15.7l11.3,19.3l-0.3,20
	c0,0-4.6-3.4-5.9-8.7c-1.5-6.4,5-10.9,5-10.9"/>
<path class="st23" d="M166.9,118.6l2.3,9.5c0.1,0.4,0,0.8-0.2,1.1c-0.2,0.3-0.5,0.6-0.9,0.7c-0.3,0.1-0.5,0.1-0.8,0
	c-0.2-0.1-0.4-0.2-0.5-0.4c-0.1-0.2-0.2-0.4-0.3-0.6C166.2,127.1,166.9,118.6,166.9,118.6z"/>
<path class="st24" d="M199,73c-7,0.9-14,0.9-21,0c0,0-0.7,13.6,10.5,14.3C199.7,88,199,73,199,73z M187.8,127.3l7.5,32.7h2.8
	l-6.7-33.4L187.8,127.3z"/>
<path class="st23" d="M201.8,88.4c0.3-0.9,0.9-1.8,1.8-2.3c0.8-0.5,1.8-0.8,2.8-0.7l12,0.7c6.1,0.7,8.5,0.5,14.4,2.1l0.3,0.1
	l2.5,1.3c0.9,0.3,1.6,0.8,2.1,1.6c0.5,0.7,0.8,1.6,0.8,2.5c0,0.9-0.1,1.8-0.3,2.6c-1,3.7-6.6,5.4-10.2,4.4l-27.1-7.7
	c-0.1,0-0.2-0.1-0.3-0.2c-0.1-0.1-0.1-0.3,0-0.4v0L201.8,88.4z"/>
<path class="st23" d="M190.9,84.7l0.1,4.6c0.1,1.8,0.8,2.5,2.6,2.8l8.5,1l1.6-12.2l-9.3-1.3C192,79.4,190.7,82.3,190.9,84.7z"/>
<path class="st23" d="M207.3,86c-0.5-0.5-2.8-5.3-3.7-11.8c-0.9-6.5-4-2.1-3.1,2.5c1,4.7-3.7,3.5-3.7,3.5l6.1,7.5L207.3,86z"/>
</svg>
