<svg version="1.1" xmlns="http://www.w3.org/2000/svg" xmlns:xlink="http://www.w3.org/1999/xlink" width="630" height="390" viewBox="0 0 630 390">
<style type="text/css">
	.st0{fill:#EAF1FC;}
	.st1{fill:#F8F8FF;}
	.st2{fill:#FFFFFF;}
	.st3{fill:#D6E0F0;}
	.st4{fill:#E8EDF4;}
	.st5{fill:#FDFCFD;}
	.st6{fill:#E9EDF4;}
	.st7{fill:#CDE4F7;}
	.st8{fill:#FCFBFC;}
	.st9{fill:#EAF1FB;}
	.st10{fill:#F8C47A;}
	.st11{fill:#E19A54;}
	.st12{fill:#FFDF9A;}
	.st13{fill:#E4E6E6;}
	.st14{fill:#CE8D4D;}
	.st15{fill:#D38137;}
	.st16{fill:#EAB973;}
	.st17{fill:#D3914F;}
	.st18{fill:#C08448;}
	.st19{fill:#E5B571;}
	.st20{fill:#ECCF8F;}
	.st21{fill:#C07632;}
	.st22{fill:#E8815F;}
	.st23{fill:#0A273A;}
	.st24{fill:#F09976;}
	.st25{fill:#0B2B46;}
	.st26{fill:#4FA52B;}
	.st27{fill:#02819F;}
	.st28{fill:#AC5C15;}
	.st29{fill:#C8731C;}
	.st30{fill:#FFDA35;}
	.st31{fill:#EF265B;}
	.st32{fill:#FB446C;}
	.st33{fill:#E08F73;}
	.st34{fill:#2C4759;}
	.st35{fill:#DB3E3E;}
	.st36{fill:#05616B;}
	.st37{fill:#047487;}
	.st38{fill:#F19A77;}
</style>
<path class="st0" d="M314.5,388.2c173.7,0,314.5-20.2,314.5-45.1S488.2,298,314.5,298S0,318.2,0,343.1S140.8,388.2,314.5,388.2z"/>
<path class="st1" d="M575.7,321.3c35.9-74.6,55.6-217.3-22.1-264.7c-50.9-31-103.9,8.9-158.3,10.7c-42.7,1.4-83.9-32.3-122.4-41.9
	c-101-25.2-259.8,40.4-190,296C257.5,320.8,401,321.8,575.7,321.3L575.7,321.3z"/>
<path class="st2" d="M329.3,205.7H227c-0.7,0-1.3-0.3-1.8-0.7c-0.5-0.5-0.7-1.1-0.7-1.8V54.8c-3.9-55.5,18.4-53.6,53.6-53.6h0
	c56.1-3.6,53.7,24,53.7,53.7v148.4c0,0.7-0.3,1.3-0.7,1.8C330.6,205.5,329.9,205.7,329.3,205.7z"/>
<path class="st3" d="M329.8,207.9H225.3c-0.8,0-1.6-0.3-2.2-0.9c-0.6-0.6-0.9-1.4-0.9-2.2V32.6c0-8.6,3.4-16.9,9.5-23
	c6.1-6.1,14.3-9.5,23-9.5h45.6c8.6,0,16.9,3.4,23,9.5c6.1,6.1,9.6,14.4,9.6,23v172.2c0,0.8-0.3,1.6-0.9,2.2
	C331.4,207.6,330.6,207.9,329.8,207.9L329.8,207.9z M225.5,204.6h104.1V32.6c0-7.8-3.1-15.2-8.6-20.7c-5.5-5.5-12.9-8.6-20.7-8.6
	h-45.6c-7.8,0-15.2,3.1-20.7,8.6c-5.5,5.5-8.6,12.9-8.6,20.7L225.5,204.6L225.5,204.6z"/>
<path class="st3" d="M277.6,206.6c-0.4,0-0.9-0.2-1.2-0.5c-0.3-0.3-0.5-0.7-0.5-1.2V1.6c0-0.4,0.2-0.9,0.5-1.2
	c0.3-0.3,0.7-0.5,1.2-0.5c0.4,0,0.9,0.2,1.2,0.5c0.3,0.3,0.5,0.7,0.5,1.2V205c0,0.4-0.2,0.9-0.5,1.2
	C278.4,206.4,278,206.6,277.6,206.6L277.6,206.6z"/>
<path class="st3" d="M331.2,159.6H223.9c-0.4,0-0.9-0.2-1.2-0.5c-0.3-0.3-0.5-0.7-0.5-1.2s0.2-0.9,0.5-1.2c0.3-0.3,0.7-0.5,1.2-0.5
	h107.4c0.4,0,0.9,0.2,1.2,0.5c0.3,0.3,0.5,0.7,0.5,1.2s-0.2,0.9-0.5,1.2C332.1,159.5,331.7,159.6,331.2,159.6L331.2,159.6z
	 M331.2,57.6H223.9c-0.4,0-0.9-0.2-1.2-0.5c-0.3-0.3-0.5-0.7-0.5-1.2s0.2-0.9,0.5-1.2c0.3-0.3,0.7-0.5,1.2-0.5h107.4
	c0.4,0,0.9,0.2,1.2,0.5c0.3,0.3,0.5,0.7,0.5,1.2s-0.2,0.9-0.5,1.2C332.1,57.4,331.7,57.6,331.2,57.6L331.2,57.6z M331.2,108.6H223.9
	c-0.4,0-0.9-0.2-1.2-0.5c-0.3-0.3-0.5-0.7-0.5-1.2c0-0.4,0.2-0.9,0.5-1.2c0.3-0.3,0.7-0.5,1.2-0.5h107.4c0.4,0,0.9,0.2,1.2,0.5
	c0.3,0.3,0.5,0.7,0.5,1.2c0,0.4-0.2,0.9-0.5,1.2C332.1,108.4,331.7,108.6,331.2,108.6L331.2,108.6z"/>
<path class="st4" d="M467.7,230.3h-98.2v82.3h98.2V230.3z"/>
<path class="st3" d="M383.4,312.3h-8.7v7.2h8.7V312.3z M463.3,312.3h-8.7v7.2h8.7V312.3z M458.9,271.2h-79.9v33.3h79.9V271.2z
	 M458.9,236.5h-79.9v28.8h79.9V236.5z"/>
<path class="st4" d="M433.8,242.7h-40.3v9.7h40.3V242.7z"/>
<path class="st5" d="M425,252.4h-44v13.1h44V252.4z"/>
<path class="st4" d="M428.2,230.3h7.9l1.6-16.1h-11L428.2,230.3z M409.4,192.3H399c0,0-12.7,27.4-1.3,38h12.2
	C409.9,230.3,422,224.5,409.4,192.3z"/>
<path class="st6" d="M481.7,60.5c-5.5,2-2.9,9.6,0.6,13c3.8,3.7,9.7,5.8,13,1.8c0.2-0.2,0.4-0.5,0.4-0.9c0-0.3,0-0.7-0.2-0.9
	c-0.2-0.3-0.4-0.5-0.7-0.7c-0.3-0.1-0.6-0.2-0.9-0.2c-2.3,0.1-4.2-0.5-3.3-2.3c0.9-1.7,4.5,1.6,5.9,1.6c3,0,4.1-2.2,3.5-4.1
	c-0.6-1.5-4.7-2.1-3.7-3.3c1.4-1.8,3.6,1,5.1-0.2c2.4-2,2-5.8,0.9-7.1c-0.9-1.1-4.3-2.8-6.9-1.7c-2.4,1-1.7,6.4-2.9,6.5
	c-2.2,0.1-0.4-4.6-2.2-6c-1-0.8-4.1-0.3-4.8,1.7c-0.9,2.6,2.7,7.6,0,7.9c-2.4,0.3-1-2.5-1.8-4.1C483.6,61.1,482.8,60.1,481.7,60.5
	L481.7,60.5z"/>
<path class="st7" d="M464.4,103.8L464.4,103.8c-0.1,0-0.1,0-0.2,0c0,0,0,0-0.1-0.1c0,0,0-0.1,0-0.1c0,0,0-0.1,0-0.1
	c6-18.2,18.2-33.7,34.5-43.8c0,0,0.1,0,0.1,0c0,0,0.1,0,0.1,0c0,0,0.1,0,0.1,0c0,0,0,0,0.1,0.1c0,0,0,0.1,0,0.1c0,0,0,0.1,0,0.1
	s0,0.1,0,0.1c0,0,0,0-0.1,0.1c-16.2,10.1-28.3,25.5-34.3,43.6c0,0,0,0.1-0.1,0.1C464.5,103.8,464.5,103.8,464.4,103.8L464.4,103.8z"
	/>
<path class="st6" d="M466.3,45c-4,4.3,1.7,9.8,6.4,11.3c5.1,1.6,11.3,0.8,12.4-4.3c0.1-0.3,0.1-0.6,0-0.9c-0.1-0.3-0.3-0.6-0.6-0.8
	c-0.3-0.2-0.6-0.3-0.9-0.3c-0.3,0-0.6,0.1-0.9,0.3c-2.1,1.1-3.9,1.4-3.9-0.6c0-1.9,4.8-0.6,6-1.2c2.7-1.3,2.7-3.8,1.2-5.2
	c-1.2-1.1-5.1,0.2-4.8-1.3c0.5-2.3,3.7-0.7,4.4-2.5c1.2-2.8-0.8-6-2.4-6.8c-1.2-0.6-5.1-0.6-6.9,1.6c-1.7,2,1.4,6.5,0.3,7.1
	c-1.9,1.1-2.4-3.9-4.6-4.4c-1.3-0.3-3.8,1.6-3.5,3.7c0.3,2.8,5.8,5.6,3.6,7.1c-2,1.4-2.1-1.8-3.4-2.8
	C468.4,44.6,467.2,44.1,466.3,45L466.3,45z"/>
<path class="st7" d="M470.3,91.4c-0.1,0-0.1,0-0.2-0.1c0,0-0.1-0.1-0.1-0.1c-2.8-19,1.1-38.3,11.1-54.6c0,0,0,0,0.1-0.1
	c0,0,0.1,0,0.1,0s0.1,0,0.1,0c0,0,0.1,0,0.1,0c0,0,0,0,0.1,0.1s0,0.1,0,0.1c0,0,0,0.1,0,0.1c0,0,0,0.1,0,0.1
	c-9.9,16.2-13.8,35.5-11.1,54.3c0,0,0,0.1,0,0.1c0,0,0,0.1,0,0.1c0,0,0,0-0.1,0.1C470.4,91.4,470.4,91.4,470.3,91.4L470.3,91.4z"/>
<path class="st6" d="M462.2,54.6c5,3.1,0.9,10-3.2,12.6c-4.5,2.9-10.7,3.7-13.1-0.9c-0.2-0.3-0.2-0.6-0.2-0.9c0-0.3,0.1-0.6,0.4-0.9
	c0.2-0.3,0.5-0.4,0.8-0.5c0.3-0.1,0.6-0.1,1,0c2.3,0.6,4.1,0.3,3.7-1.6c-0.5-1.9-4.8,0.6-6.1,0.4c-2.9-0.6-3.6-3-2.5-4.7
	c0.9-1.4,5-1.1,4.3-2.5c-1.1-2.1-3.7,0.3-4.9-1.3c-1.9-2.4-0.7-6,0.6-7.2c1.1-0.9,4.8-1.9,7.1-0.3c2.2,1.5,0.4,6.6,1.5,6.9
	c2.1,0.6,1.4-4.4,3.3-5.4c1.2-0.6,4.1,0.5,4.4,2.7c0.4,2.8-4.1,6.9-1.6,7.8c2.3,0.8,1.5-2.2,2.6-3.6C460.1,54.8,461.2,54,462.2,54.6
	L462.2,54.6z"/>
<path class="st7" d="M470.3,100.5c-0.1,0-0.1,0-0.2-0.1c0,0-0.1-0.1-0.1-0.1c-2.2-18.9-10.9-36.5-24.7-49.6c0,0,0,0-0.1-0.1
	s0-0.1,0-0.1c0,0,0-0.1,0-0.1c0,0,0-0.1,0.1-0.1c0,0,0,0,0.1-0.1c0,0,0.1,0,0.1,0c0,0,0.1,0,0.1,0c0,0,0.1,0,0.1,0.1
	c13.9,13.2,22.7,30.9,24.9,49.9c0,0,0,0.1,0,0.1c0,0,0,0.1,0,0.1c0,0,0,0-0.1,0.1C470.4,100.5,470.4,100.5,470.3,100.5L470.3,100.5z
	"/>
<path class="st2" d="M460.6,109.4h17.9l2.7-24.6h-23.5L460.6,109.4L460.6,109.4z"/>
<path class="st6" d="M481.3,89.2h-23.7c-0.2,0-0.3-0.1-0.4-0.2c-0.1-0.1-0.2-0.3-0.2-0.4l-0.3-3.1c0-0.2,0.1-0.3,0.2-0.5
	c0.1-0.1,0.3-0.2,0.5-0.2h24.2c0.1,0,0.2,0,0.3,0.1c0.1,0,0.2,0.1,0.2,0.2c0.1,0.1,0.1,0.1,0.1,0.2c0,0.1,0,0.2,0,0.3l-0.3,3.1
	c0,0.2-0.1,0.3-0.2,0.4C481.6,89.1,481.4,89.2,481.3,89.2L481.3,89.2z"/>
<path class="st3" d="M435.8,109.6c-0.2,0-0.3,0.1-0.4,0.2c-0.1,0.1-0.2,0.3-0.2,0.4v1.5c0,0.1,0,0.2,0,0.2c0,0.1,0.1,0.1,0.1,0.2
	c0.1,0.1,0.1,0.1,0.2,0.1c0.1,0,0.1,0,0.2,0h56.9c0.1,0,0.1,0,0.2,0c0.1,0,0.1-0.1,0.2-0.1c0.1-0.1,0.1-0.1,0.1-0.2
	c0-0.1,0-0.1,0-0.2v-1.5c0-0.2-0.1-0.3-0.2-0.4c-0.1-0.1-0.3-0.2-0.4-0.2H435.8z M530.4,160.1c-0.1,0-0.2,0-0.2,0
	c-0.1,0-0.1,0.1-0.2,0.1c-0.1,0.1-0.1,0.1-0.1,0.2c0,0.1,0,0.1,0,0.2v1.5c0,0.1,0,0.2,0,0.2c0,0.1,0.1,0.1,0.1,0.2
	c0.1,0.1,0.1,0.1,0.2,0.1c0.1,0,0.1,0,0.2,0h56.9c0.2,0,0.3-0.1,0.4-0.2c0.1-0.1,0.2-0.3,0.2-0.4v-1.5c0-0.2-0.1-0.3-0.2-0.4
	c-0.1-0.1-0.3-0.2-0.4-0.2H530.4z"/>
<path class="st6" d="M554.3,160.6h5.7V128c-0.9-0.4-1.9-0.7-2.9-0.7c-1,0-2,0.2-2.9,0.7L554.3,160.6L554.3,160.6z"/>
<path class="st7" d="M536.9,160.5h5v-32.5c-0.8-0.4-1.6-0.7-2.5-0.7c-0.9,0-1.7,0.2-2.5,0.7V160.5z"/>
<path class="st2" d="M573.7,160.6l4.5-2.1l-13.6-29.5c-0.9-0.1-1.7,0.1-2.5,0.4c-0.8,0.4-1.5,0.9-2,1.7L573.7,160.6z M541.8,160.5
	h5.7v-32.5c-0.9-0.4-1.9-0.7-2.9-0.7c-1,0-2,0.2-2.9,0.7L541.8,160.5L541.8,160.5z"/>
<path class="st7" d="M547.5,160.6h6.7V128c-2.2-0.9-4.6-0.9-6.7,0L547.5,160.6L547.5,160.6z"/>
<path class="st3" d="M388.3,146.8c15.3,0,27.8-12.4,27.8-27.8s-12.4-27.8-27.8-27.8c-15.3,0-27.8,12.4-27.8,27.8
	S373,146.8,388.3,146.8z"/>
<path class="st8" d="M388.3,140.1c11.6,0,21.1-9.4,21.1-21.1c0-11.6-9.4-21.1-21.1-21.1c-11.6,0-21.1,9.4-21.1,21.1
	C367.3,130.7,376.7,140.1,388.3,140.1z"/>
<path class="st3" d="M376,112.5l11.7,9.4c0.3,0.2,0.6,0.3,1,0.3c0.3,0,0.7-0.2,0.9-0.4l11-10.8c0.3-0.3,0.4-0.6,0.4-1
	c0-0.4-0.1-0.8-0.4-1c-0.3-0.3-0.6-0.4-1-0.4c-0.4,0-0.8,0.1-1,0.4l-10.1,9.9l-10.7-8.5c-0.2-0.2-0.5-0.3-0.8-0.3
	c-0.3,0-0.6,0.1-0.8,0.2c-0.1,0.1-0.3,0.2-0.4,0.3c-0.1,0.1-0.2,0.3-0.3,0.5c-0.1,0.2-0.1,0.4,0,0.6c0,0.2,0.1,0.4,0.2,0.5
	C375.8,112.2,375.9,112.4,376,112.5L376,112.5z"/>
<path class="st3" d="M388.6,123.6c1.6,0,2.9-1.3,2.9-2.9c0-1.6-1.3-2.9-2.9-2.9s-2.9,1.3-2.9,2.9C385.7,122.3,387,123.6,388.6,123.6
	z"/>
<path class="st3" d="M329,358L292.4,241l7.3-1.9L332.2,358H329z"/>
<path class="st3" d="M318.3,320.5l-44.2,0v-4l43,0L318.3,320.5L318.3,320.5z M133.8,358L170.4,241l-7.3-1.9L130.5,358H133.8z"/>
<path class="st3" d="M198.7,358l-27.6-119.1l-7.4,1.8L195.4,358H198.7L198.7,358z"/>
<path class="st3" d="M115.6,320.5l44.2,0l28.8-4l-43,0L115.6,320.5L115.6,320.5z M130,242.1h202.2v-11.7H130V242.1z"/>
<path class="st9" d="M126.7,20.1h2.1v63.3h-2.1V20.1z"/>
<path class="st3" d="M143.8,103.5c-0.1-9-7.4-16.3-16.4-16.3c-9,0-16.4,7.3-16.4,16.3H143.8z"/>
<path class="st3" d="M133.2,87.2c0,4.8-2.7,8.7-6.1,8.7c-3.4,0-6.1-3.9-6.1-8.7s2.7-8.7,6.1-8.7C130.5,78.4,133.2,82.3,133.2,87.2z"
	/>
<path class="st10" d="M209.3,293.7h-73v73h73V293.7z"/>
<path class="st11" d="M99.9,281.5l36.5,12.2v73l-36.5-12.2V281.5z"/>
<path class="st12" d="M209.3,293.7l-36.5-12.2h-73l36.5,12.2H209.3z"/>
<path class="st13" d="M164.3,298.3h-24.8v10.7h24.8V298.3z"/>
<path class="st14" d="M149,281.5l30.2,12.2h-12.6l-29.3-12.2H149z M179.2,293.7v14.1h-12.5l-0.1-14.1H179.2z M179.2,353v14.1h-12.5
	l-0.1-14.1H179.2z"/>
<path class="st10" d="M124.8,311.1h-56v56h56V311.1z"/>
<path class="st11" d="M40.8,301.8l28,9.3v56l-28-9.3V301.8z"/>
<path class="st12" d="M124.8,311.1l-28-9.3h-56l28,9.3H124.8z"/>
<path class="st15" d="M60.3,348.5v15.6l-8.4-2.7v-15.7L60.3,348.5z M60.3,308.3v15.6l-8.4-2.7v-15.7L60.3,308.3z"/>
<path class="st11" d="M107.9,305.5l1.2,0.4l1.8,0.6l5.9,1.8H60.3l-8.4-2.8H107.9z"/>
<path class="st16" d="M115.6,265.8H74.1v43.3h41.5V265.8z"/>
<path class="st17" d="M53.4,258.9l20.8,6.9v43.3l-20.8-7.3V258.9z"/>
<path class="st18" d="M115.6,265.8l-20.8-6.9H53.4l20.8,6.9H115.6z"/>
<path class="st13" d="M90,268.4H75.9v6.1H90V268.4z"/>
<path class="st18" d="M98,301v8h-7.1l-0.1-8H98z"/>
<path class="st19" d="M197,238.3h-52.1v52.1H197V238.3z"/>
<path class="st14" d="M118.9,229.6l26,8.7v52.1l-26-8.7V229.6z"/>
<path class="st20" d="M197,238.3l-26-8.7h-52.1l26,8.7H197z"/>
<path class="st21" d="M137,273.2v14.5l-7.8-2.5v-14.6L137,273.2z M137,235.7v14.5l-7.8-2.5v-14.6L137,235.7z"/>
<path class="st14" d="M181.3,233.1l1.1,0.4l1.6,0.5l5.4,1.7H137l-7.8-2.6H181.3L181.3,233.1z"/>
<path class="st13" d="M164.9,241.6h-17.7v7.7h17.7V241.6z"/>
<path class="st22" d="M286.1,164.8c8.2,6.6,20.1,12.1,31.1,12.9c11.9-5.1,33-16.7,30.7-18.8c-11.2,0.3-18.7,4.4-31.9,8.5
	C310.7,165.1,270.4,146.8,286.1,164.8z M276.4,339.6c-1.5-37.3-3.7-79.8,1.6-117.8c1.6-7-0.4-26.4,7.9-20.3
	c20.9,15.6,0,113.4-0.8,126.9c-2.1,10.3-3.4,28.4-6.7,35.3C276.7,357,277.2,349.2,276.4,339.6L276.4,339.6z"/>
<path class="st23" d="M278.3,366.5c1.4,6.2,18.3,7.1,16.7,1.7c-2.6-2.4-6.8-2.4-10-4.4C279.4,360.1,276.8,359,278.3,366.5
	L278.3,366.5z"/>
<path class="st24" d="M265.5,339.6c-1.5-37.3-3.7-79.8,1.6-117.8c1.6-7-0.4-26.4,7.9-20.3c20.9,15.6,0,113.4-0.8,126.9
	c-2.1,10.3-3.4,28.4-6.8,35.3C265.7,357,266.3,349.2,265.5,339.6z"/>
<path class="st25" d="M266.8,366.5c1.4,6.2,18.3,7.1,16.7,1.7c-2.6-2.4-6.8-2.4-10-4.4C268,360.1,265.3,359,266.8,366.5L266.8,366.5
	z M290.2,193.1c8.8,26.5,7.8,82.4,7.7,86.4c-9.1,4.7-43,6.4-40.6-2.9c-1.5-46.6,11.2-79.6,12.6-83.5
	C268.7,192.5,280.9,191.3,290.2,193.1z M265,113.9c-0.8,3.6,0,8.3-3.4,11c-23.6,17.2,7.2,34.8,23.8,22.8c7.5-5.7-0.2-11.8,2-17.9
	C305.4,106.2,270.3,98.3,265,113.9z"/>
<path class="st24" d="M283.9,150c-3.5,2.2-13.1,1.1-12.9-3.9c2-6.9,2.6-14.1,1.6-21.3c2.6,1.9,7.9,3.7,8.5,7.4
	C281,138.3,281.9,144.3,283.9,150z"/>
<path class="st26" d="M261.6,160.4c1,1.6,2,7.5,4.6,8.3c5.5,11.4,1.7,24.3,5.4,24.7c5.1,1.5,11.1,1.3,16.7,0.1
	c3.5-0.2,2.8-4.2,4.3-7.2c1.6-5.2,3.3-12.5,3.2-20c1.9-1,3.5-2.4,4.9-4c1.2-1.1,0.4-0.8-0.7-3.2
	C287.8,137.2,254.5,134.1,261.6,160.4L261.6,160.4z"/>
<path class="st24" d="M270.7,141.8c3.7,12.7,26.6,8.3,13.9,2.7C280.3,142.6,279.1,140.7,270.7,141.8z"/>
<path class="st22" d="M281.6,140.3c-8.7-2.9-8.6-8.1-9-15.4C283,131.3,280.5,129.1,281.6,140.3z"/>
<path class="st24" d="M272.6,127.7c-0.6,7.5,11.7,14.2,14.3,5c1.3-6.2-4.7-10.6-1.9-16.9C280.5,119.1,270.5,119.4,272.6,127.7
	L272.6,127.7z"/>
<path class="st24" d="M272.8,126.5c-0.8-3.2-4.3,1.3-1.8,3.5C275.1,132.8,273.3,129.1,272.8,126.5z"/>
<path class="st27" d="M350.5,190.9c5.5-17.7-5.4-34.4-1.4-57.6c0.8-4.7,3-9.1,6.2-12.6c0.5-0.5,0.8-1.1,0.9-1.8c0.2-0.7,0.1-1.4,0-2
	c-0.2-0.7-0.5-1.3-1-1.8c-0.5-0.5-1.1-0.9-1.7-1.1l-7.8-2.4c-0.7-0.2-1.3-0.2-2-0.1c-0.7,0.1-1.3,0.4-1.8,0.9
	c-0.5,0.4-0.9,1-1.2,1.6c-0.2,0.6-0.3,1.3-0.2,2c0.7,4.7,0,9.6-2,13.9c-9.8,21.4-28.2,29-33.7,46.8c-1.2,3.9-1.3,8.1-0.3,12
	c1,4,3.1,7.5,6.1,10.4l-0.9,3c-0.1,0.4-0.2,0.9-0.1,1.4c0,0.5,0.2,0.9,0.4,1.3c0.2,0.4,0.5,0.8,0.9,1.1c0.4,0.3,0.8,0.5,1.2,0.7
	l15.8,4.9c0.4,0.1,0.9,0.2,1.4,0.1c0.5,0,0.9-0.2,1.3-0.4s0.8-0.5,1.1-0.9s0.5-0.8,0.7-1.2l0.9-3c4-0.6,7.8-2.4,10.9-5.1
	C347.1,198.3,349.4,194.8,350.5,190.9z"/>
<path class="st2" d="M273.2,130.7c-0.7,2.5-4.1-0.7-1-1.3c0.3,0.1,0.5,0.3,0.7,0.5S273.2,130.4,273.2,130.7L273.2,130.7z"/>
<path class="st24" d="M266,168.6c2.8,5.6,6.9,13.1,11.4,17.8c13.6,4.7,44.2,13.8,43.9,10.7c-4.7-4.7-17.6-9.9-24.4-13.3
	c-4.1-1.9-8.5-3.8-13.1-5.7c-2.2-5.1-4.3-10.3-6.8-15.7C274.2,165.8,270.3,168,266,168.6L266,168.6z"/>
<path class="st24" d="M313.2,192.4c1.4,0.8,9.4-4.4,7.5-1.5c-0.6,1.2-3.8,1.7-1.2,3.4c8.4,1.3,7.3,6.9-0.4,7.3
	C315.2,201,309.2,195.9,313.2,192.4z"/>
<path class="st24" d="M348.7,152.3c0,0,9,1.3,5.7,7.9c-3.3,6.7-8.7,3-8.4-0.2C346.4,156.7,348.2,152.2,348.7,152.3z"/>
<path class="st28" d="M85.8,238.5c-0.4,8.1,10.9,8.6,11.8,1.2C98,231.6,86.8,231.1,85.8,238.5z M60.5,241.5c1.1-7.1,11-5.5,10.5,1.1
	C69.8,249.7,60,248.1,60.5,241.5z M65.3,263c7.2-10.6,5.6-10.2,15.1-11.3c17.1-3.2,18.7,9.2,21.4,14.1H74.1L65.3,263z"/>
<path class="st29" d="M92.1,237.7c-6.4-6.3-29.4-1.7-27,7.1c2.4,8.7,6.1,13.3,18.9,11.7C97.1,254.9,95.2,240.8,92.1,237.7z
	 M70.5,255.2c-31.8,1.6-11.2,28.3,0.3,0H70.5z M94.7,253.9c0,0,19.4,6.8,13.5,12.9C100.3,274.3,94.8,254.3,94.7,253.9z"/>
<path class="st28" d="M85.4,245c-7.2,0-14.5,1.1-3.8,6.6C83.4,252,87.5,245.8,85.4,245z"/>
<path class="st22" d="M151.1,162.1c1.2-1.2,2.3-2.5,3.4-3.9c0.1-0.2,0.3-0.3,0.5-0.4c0.2-0.1,0.4-0.1,0.6,0c0.2,0.1,0.4,0.2,0.5,0.3
	c0.1,0.2,0.2,0.4,0.2,0.6c0.2,1.7,0.8,3.4,2,3.6c1.6,0.2,3.1-0.9,4.6-1.7c0.9-0.6,2.1-0.9,3.2-0.8c0.3,0.1,0.6,0.2,0.9,0.3
	c0.3,0.2,0.5,0.4,0.7,0.7c0.8,1.3-0.2,2.9-1.3,3.9c-1.9,1.7-4.2,2.9-6.7,3.4c-2.5,0.5-5.1,0.3-7.4-0.6
	C151.9,165.7,151.5,164,151.1,162.1z"/>
<path class="st24" d="M174.1,183.8c0,0,7.2,26.8,7.3,45.4c0,0,3.1,9.1-1.2,12.8l-11.4-57.3L174.1,183.8z"/>
<path class="st25" d="M151.3,138c-1.1,0.5-2,1.4-2.6,2.5c-0.6,1.1-0.8,2.3-0.7,3.5c0.2,1.3,0.8,2.5,0.7,3.8
	c-0.1,1.6-1.3,2.9-2.4,4.1c-3.3,3.5-6,7.6-7.8,12.1c-1.8,4.5-2.4,9.5-1.1,14.2c1.2,4.7,4.5,8.9,8.9,10.8c4.4,1.9,9.4,1.3,14,0
	c3.9-1,7.5-2.7,10.7-5.1c3.2-2.4,5.4-5.9,6.2-9.8c0.7-3.9-0.5-8.2-3.5-10.8c-1.5-1.4-3.6-2.3-4.5-4.2c-1.2-2.5,0.3-5.4,0.7-8.2
	c0.2-1.6,0.1-3.1-0.4-4.7c-0.5-1.5-1.2-2.9-2.3-4.1c-2.1-2.3-4.8-3.3-7.8-3.7C156.9,138.1,153.8,136.9,151.3,138L151.3,138z"/>
<path class="st24" d="M187.4,246.7c0.1,0.8,0.2,1.5,0.3,2.3c1,7.7,2.2,15,3.3,21.7c1.1,6.6,2.2,12.6,3.1,17.7
	c0.3,1.6,0.6,3.1,0.8,4.5c0.2,1.3,0.5,2.4,0.7,3.5c1,1,2.2,1.6,3.6,1.9c0.2-1.5,0.3-3.2,0.5-5.1c0.1-1.6,0.3-3.3,0.4-5.2
	c0.4-5.1,0.8-11.2,1.2-18c0.4-6.8,0.8-14.2,1-22c0.1-4.6,0.2-9,0.1-13.3c-5-0.6-10-0.7-15-0.2c-0.4,0-0.9,0.1-1.3,0.1
	C186.5,238.5,186.9,242.5,187.4,246.7L187.4,246.7z M165.3,248.4c0.1,7.8,0.4,15.3,0.7,22.1c0.3,6.8,0.7,12.9,1,18
	c0.1,1.6,0.2,3,0.3,4.4c0.1,1.5,0.2,2.8,0.3,4c0.9,1,2,1.8,3.3,2.1c0.3-1.5,0.7-3.1,1.1-5c0.3-1.6,0.7-3.3,1-5.2
	c1-5.1,2.2-11.1,3.4-17.8c1.2-6.7,2.5-14.1,3.6-21.9c0.1-1,0.3-2,0.4-3c0.6-4.2,1.1-8.3,1.5-12.3h-2.2c-4.8,0-9.6,0.5-14.3,1.4
	C165.3,239.4,165.2,243.8,165.3,248.4L165.3,248.4z M155.4,172.3c1.6,1.1,3.5,1.8,5.5,1.9c2,0.1,3.9-0.4,5.6-1.4
	c-0.5-1.3-0.9-2.7-1.1-4.2c-0.1-0.4-0.1-0.8-0.1-1.2c0-0.2,0-0.5,0-0.7c0-0.2,0-0.4,0-0.6c-3.4-0.5-6.7-1.7-9.7-3.5
	c0.2,1.3,0.2,2.7,0.2,4c0,0.7,0,1.4-0.1,2.1C155.7,170,155.6,171.2,155.4,172.3z"/>
<path class="st22" d="M155.8,166.7c0,0.7,0,1.4-0.1,2.1c1.5,0.6,3.1,0.9,4.7,0.9c1.7,0,3.5-0.3,5-1.1c-0.1-0.4-0.1-0.8-0.1-1.2
	c0-0.2,0-0.5,0-0.7c0-0.2,0-0.4,0-0.6c-3.4-0.5-6.7-1.7-9.7-3.5C155.8,164,155.8,165.4,155.8,166.7L155.8,166.7z"/>
<path class="st24" d="M153.3,158.1c0.2,1,0.5,2,0.6,2.7c0.1,0.2,0.1,0.5,0.2,0.7c0,0.2,0.3,0.6,0.4,0.9c0.9,2,2.3,3.7,4.1,4.8
	c0.6,0.4,1.2,0.7,1.9,0.9c1.5,0.5,3.2,0.6,4.8,0.1h0c1.2-0.3,2.3-1,3.1-2c1.7-2.1,1.6-5.1,0.9-7.6c-0.1-0.2-0.1-0.4-0.2-0.7
	c-0.6-1.7-1.5-4-2.2-6.1c-1.8-0.6-3.3-1.9-4.2-3.5c-1.9,3.9-5,7.1-8.7,9.3L153.3,158.1z"/>
<path class="st24" d="M153.7,158.9c0-0.2-0.1-0.5-0.3-0.6c-0.2-0.2-0.4-0.3-0.7-0.3c-0.2,0-0.5,0.1-0.7,0.2
	c-0.2,0.1-0.4,0.3-0.5,0.5c-0.1,0.2-0.2,0.5-0.2,0.7c0,0.2,0,0.5,0.1,0.7c0.1,0.5,0.4,0.9,0.7,1.3c0.4,0.4,0.8,0.8,1.4,1
	c0.5,0.2,1.1,0.2,1.7-0.1C154.9,161.1,154.4,159.9,153.7,158.9L153.7,158.9z"/>
<path class="st30" d="M166,246.4l38.2-1.6c1.6-24.7-30.7-18-30.9-48.2l3.5-1.5c-2-18-9.4-21.5-9.7-21.7c-0.3-0.3-0.5-0.5-0.6-0.5
	l-11.1-0.5c-0.3,0-0.6,0.1-0.9,0.2c-2.3,0.5-8.2,2.6-11.8,10.1c-1.8,4-2.8,8.3-2.9,12.6c1.2,1.2,2.7,2,4.3,2.4
	C143.3,214.2,150.3,244.6,166,246.4L166,246.4z"/>
<path class="st24" d="M138.8,205.2v0.9c0,1.2,0.1,2.5,0.1,3.7c0.1,0.7,0.1,1.5,0.2,2.2c0,0.5,0.1,1,0.2,1.6c0,0.3,0.1,0.6,0.1,0.9
	c0,0.3,0.1,0.6,0.2,0.9c0.1,0.6,0.2,1.2,0.3,1.8c0.1,0.6,0.2,1.2,0.3,1.7c0.1,0.6,0.3,1.1,0.4,1.7c0.3,1.1,0.5,2.2,0.8,3.2
	c0.6,2.1,1.2,4,1.9,5.8c0.4,0.9,0.7,1.8,1,2.6l1,2.1c-0.3,1.9,0,3.9,0.8,5.6c0.8,1.7,2.2,3.2,3.9,4.1c0.3,0.1,0.5,0.2,0.8,0.2
	c0.3,0,0.6-0.1,0.8-0.2s0.5-0.4,0.6-0.6c0.1-0.3,0.2-0.5,0.2-0.8v-7c0.5,0.2,1.3,0.6,2.2,0.9c0.1,0,0.3,0.1,0.4,0
	c0.1,0,0.2-0.1,0.3-0.2s0.1-0.2,0.1-0.4c0-0.1-0.1-0.3-0.2-0.3c-1.7-1.4-3.5-2.5-5.5-3.4l-0.2-1.3c-0.1-0.8-0.2-1.7-0.3-2.6
	c-0.2-1.8-0.3-3.7-0.4-5.6c-0.1-1,0-2,0-3v-1.5c0-0.5,0-1.1,0.1-1.6l0-1.6v-0.8c0-0.3,0-0.5,0.1-0.8c0.1-1.1,0.2-2.2,0.2-3.3
	c0.1-1.1,0.2-2.2,0.3-3.3c0-0.3,0-0.5,0.1-0.8c0-0.3,0.1-0.5,0.1-0.8l0.2-1.6c0.1-0.5,0.1-1,0.2-1.5c0.1-0.5,0.2-1,0.2-1.5
	c0-0.1,0-0.2,0.1-0.4c0.1-0.9,0.2-1.7,0.4-2.5c0.4-1.9,0.6-3.7,0.9-5.4c0.2-0.8,0.2-1.7,0.4-2.4c0.1-0.8,0.3-1.5,0.4-2.3
	c0.2-1.5,0.4-2.8,0.5-4c0-0.6,0.1-1.2,0.1-1.7c0-0.5,0-1,0-1.5c-0.1-1.9-0.7-3.2-1.6-3.6c-0.9-0.5-2.3,0-3.8,1.3
	c-0.4,0.4-0.8,0.7-1.2,1.1c-0.4,0.5-0.8,1-1.1,1.5c-0.9,1.2-1.6,2.5-2.3,3.9c-0.4,0.8-0.7,1.6-1.1,2.4c-0.4,0.8-0.6,1.8-0.9,2.7
	c-0.6,2-1.1,4-1.5,6.1c-0.2,1.1-0.3,2.2-0.5,3.3c-0.1,0.6-0.1,1.1-0.2,1.7c-0.1,0.6-0.1,1.2-0.1,1.8c0,0.6,0,1.2-0.1,1.8
	L138.8,205.2z"/>
<path class="st30" d="M155.4,172.3c0,0-14.6,1.6-15.6,22.9c0,0,3.8,4.4,13.6,2.4L155.4,172.3z"/>
<path class="st24" d="M154.4,172.5c0.2,1,0.7,1.9,1.3,2.7c0.6,0.8,1.4,1.4,2.3,1.9c0.9,0.5,1.8,0.8,2.8,0.8c1,0.1,2-0.1,2.9-0.4
	c1.3-0.4,2.4-1.3,3-2.5c0.3-0.5,0.4-1.1,0.4-1.7c-0.3-0.3-0.5-0.5-0.6-0.5l-11.1-0.5C155.1,172.4,154.8,172.4,154.4,172.5
	L154.4,172.5z"/>
<path class="st25" d="M215.9,305.1c0,0,0,0.1,0,0.1c0,0,0,0.1-0.1,0.1c0,0-0.1,0.1-0.1,0.1c0,0-0.1,0-0.1,0
	c-1.7,0.6-3.5,0.9-5.3,0.9l-16.3-0.2c0,0-0.1,0-0.1,0c0,0-0.1,0-0.1-0.1c0,0-0.1-0.1-0.1-0.1c0,0,0-0.1,0-0.1v-1.3c0,0,0-0.1,0-0.1
	c0,0,0-0.1,0.1-0.1c0,0,0.1-0.1,0.1-0.1c0,0,0.1,0,0.1,0l16.3,0.2c1.7,0,3.4-0.3,5-0.9c0,0,0.1,0,0.1,0c0,0,0.1,0,0.1,0.1
	c0,0,0.1,0.1,0.1,0.1s0,0.1,0,0.1L215.9,305.1z"/>
<path class="st2" d="M193.9,304.1c0,0-0.7-3.2,0.5-5.2c1.2-1.9-0.4-7.2-0.2-8.6c0.2-1.5,0.7-1.3,3.2-2.5s4.8-1.5,4.6,0.5
	c-0.2,2.1-0.2,11.8,8.7,13.7c2.1-0.4,5.2,0.5,4.6,1.4c-1.6,0.6-3.3,0.9-5,0.9C203.7,304.3,193.9,304.1,193.9,304.1L193.9,304.1z"/>
<path class="st31" d="M202,288.4c0.2-2.1-2.1-1.7-4.6-0.5c-2.5,1.2-3,1-3.2,2.5c-0.2,1.5,1.4,6.7,0.2,8.6c-1.2,1.9-0.5,5.2-0.5,5.2
	l16.3,0.2c0.8,0,1.5,0,2.3-0.2c-0.1-0.5-0.3-0.9-0.7-1.3c-0.3-0.4-0.7-0.6-1.2-0.8C201.8,300.2,201.7,290.5,202,288.4L202,288.4z"/>
<path class="st2" d="M208.9,302.8c0-0.1,0-0.2,0-0.3s-0.1-0.2-0.2-0.2c-0.1-0.1-0.2-0.1-0.3-0.1c-0.1,0-0.2,0-0.3,0.1
	c-0.1,0-0.1,0.1-0.2,0.2c0,0.1-0.1,0.2,0,0.3c0,0.1,0.1,0.2,0.1,0.2c0.1,0.1,0.1,0.1,0.2,0.1c0.1,0,0.1,0,0.2,0c0.1,0,0.1,0,0.2-0.1
	c0.1,0,0.1-0.1,0.1-0.1C208.8,302.9,208.9,302.8,208.9,302.8L208.9,302.8z"/>
<path class="st2" d="M209.1,301.4c0,0,0-0.1,0-0.1c0,0,0-0.1,0-0.1c0,0,0-0.1-0.1-0.1c0,0-0.1,0-0.1,0c0,0-0.1,0-0.1,0
	c0,0-0.1,0-0.1,0c0,0-0.1,0-0.1,0.1c0,0,0,0.1,0,0.1l-0.3,1.1c0,0,0,0.1,0,0.1c0,0,0,0.1,0,0.1s0,0.1,0.1,0.1c0,0,0.1,0,0.1,0
	c0,0,0.1,0,0.1,0c0,0,0.1,0,0.1,0c0,0,0.1,0,0.1-0.1s0-0.1,0-0.1L209.1,301.4z M206.9,302c0.1-0.1,0.1-0.2,0.1-0.4
	c0-0.1-0.1-0.2-0.2-0.3c-0.1-0.1-0.2-0.1-0.4-0.1c-0.1,0-0.2,0.1-0.3,0.2c-0.1,0.1-0.1,0.2-0.1,0.4c0,0.1,0.1,0.2,0.2,0.3
	c0.1,0,0.1,0.1,0.2,0.1c0.1,0,0.1,0,0.2,0c0.1,0,0.1,0,0.2-0.1C206.8,302.1,206.8,302,206.9,302L206.9,302z"/>
<path class="st2" d="M207.4,300.6c0-0.1,0-0.1,0-0.2c0-0.1-0.1-0.1-0.1-0.2c-0.1,0-0.1,0-0.2,0c-0.1,0-0.1,0.1-0.2,0.1l-0.6,1
	c0,0.1,0,0.1,0,0.2c0,0.1,0.1,0.1,0.1,0.2c0.1,0,0.1,0,0.2,0c0.1,0,0.1-0.1,0.2-0.1L207.4,300.6z M204.9,300.7
	c0.1-0.1,0.1-0.2,0.1-0.2s0-0.2,0-0.3c0-0.1-0.1-0.2-0.2-0.2c-0.1,0-0.2-0.1-0.3-0.1c-0.1,0-0.2,0-0.3,0.1c-0.1,0.1-0.1,0.1-0.2,0.2
	c0,0.1,0,0.2,0,0.3c0,0.1,0.1,0.2,0.1,0.2c0,0,0.1,0.1,0.2,0.1c0.1,0,0.1,0,0.2,0c0.1,0,0.1,0,0.2,0
	C204.8,300.8,204.9,300.8,204.9,300.7L204.9,300.7z"/>
<path class="st2" d="M205.9,299.6c0,0,0.1-0.1,0.1-0.2c0-0.1,0-0.1-0.1-0.2c0,0-0.1-0.1-0.2-0.1c-0.1,0-0.1,0-0.2,0.1l-0.9,0.8
	c0,0-0.1,0.1-0.1,0.2c0,0.1,0,0.1,0.1,0.2c0,0,0.1,0.1,0.2,0.1c0.1,0,0.1,0,0.2-0.1L205.9,299.6z M203.4,299c0.1,0,0.1-0.1,0.2-0.2
	c0-0.1,0.1-0.2,0-0.3c0-0.1-0.1-0.2-0.1-0.2c-0.1-0.1-0.1-0.1-0.2-0.1c-0.1,0-0.2,0-0.3,0c-0.1,0-0.2,0.1-0.2,0.2
	c-0.1,0.1-0.1,0.2-0.1,0.3c0,0.1,0,0.2,0.1,0.3c0.1,0.1,0.2,0.2,0.3,0.2C203.1,299,203.3,299,203.4,299z"/>
<path class="st2" d="M204.5,298.1c0.1,0,0.1-0.1,0.1-0.2c0-0.1,0-0.1,0-0.2c0-0.1-0.1-0.1-0.2-0.1s-0.1,0-0.2,0l-1,0.6
	c-0.1,0-0.1,0.1-0.1,0.2c0,0.1,0,0.1,0,0.2c0,0.1,0.1,0.1,0.2,0.1c0.1,0,0.1,0,0.2,0L204.5,298.1z M202.2,296.7
	c0.1,0,0.2-0.1,0.2-0.2c0.1-0.1,0.1-0.2,0.1-0.3c0-0.1,0-0.2-0.1-0.3c-0.1-0.1-0.1-0.1-0.2-0.2c-0.1,0-0.2,0-0.3,0
	c-0.1,0-0.2,0.1-0.2,0.1c-0.1,0.1-0.1,0.1-0.1,0.2c0,0.1,0,0.2,0,0.3c0,0.1,0.1,0.1,0.1,0.2c0,0,0.1,0.1,0.2,0.1c0.1,0,0.1,0,0.2,0
	S202.1,296.7,202.2,296.7L202.2,296.7z"/>
<path class="st2" d="M203.5,296c0.1,0,0.1-0.1,0.1-0.1c0-0.1,0-0.1,0-0.2c0-0.1-0.1-0.1-0.1-0.1c-0.1,0-0.1,0-0.2,0l-1.1,0.4
	c-0.1,0-0.1,0.1-0.1,0.1c0,0.1,0,0.1,0,0.2c0,0.1,0.1,0.1,0.1,0.1c0.1,0,0.1,0,0.2,0L203.5,296z M201.3,294.5c0.1,0,0.2-0.1,0.2-0.1
	c0.1-0.1,0.1-0.2,0.1-0.2c0-0.1,0-0.2,0-0.3c0-0.1-0.1-0.2-0.2-0.2c-0.1,0-0.2-0.1-0.3-0.1c-0.1,0-0.2,0-0.3,0.1
	c-0.1,0.1-0.1,0.1-0.2,0.2c0,0.1,0,0.2,0,0.3c0,0.1,0.1,0.2,0.2,0.3C201.1,294.5,201.2,294.6,201.3,294.5L201.3,294.5z"/>
<path class="st2" d="M202.7,294c0.1,0,0.1-0.1,0.2-0.1c0-0.1,0-0.1,0-0.2c0,0,0-0.1,0-0.1c0,0,0-0.1-0.1-0.1c0,0-0.1,0-0.1,0
	c0,0-0.1,0-0.1,0l-1.1,0.3c-0.1,0-0.1,0.1-0.2,0.1c0,0.1,0,0.1,0,0.2c0,0.1,0.1,0.1,0.1,0.2c0.1,0,0.1,0,0.2,0L202.7,294z
	 M200.9,292.1c0.1,0,0.2,0,0.3-0.1c0.1-0.1,0.1-0.1,0.1-0.2c0-0.1,0-0.2,0-0.3c0-0.1-0.1-0.2-0.2-0.2c-0.1-0.1-0.2-0.1-0.3-0.1
	s-0.2,0-0.3,0.1c-0.1,0-0.1,0.1-0.2,0.2c0,0.1-0.1,0.2-0.1,0.3c0,0.1,0.1,0.2,0.2,0.3C200.6,292.1,200.7,292.1,200.9,292.1
	L200.9,292.1z"/>
<path class="st2" d="M202.3,291.7C202.3,291.7,202.3,291.7,202.3,291.7c0.1,0,0.2-0.1,0.2-0.1s0-0.1,0-0.1c0,0,0-0.1,0-0.1
	c0,0,0-0.1,0-0.1c0,0,0-0.1-0.1-0.1s-0.1,0-0.1,0c0,0-0.1,0-0.1,0l-1.2,0.1c0,0-0.1,0-0.1,0c0,0-0.1,0-0.1,0.1c0,0,0,0.1,0,0.1
	c0,0,0,0.1,0,0.1c0,0,0,0.1,0,0.1c0,0,0,0.1,0.1,0.1c0,0,0.1,0,0.1,0c0,0,0.1,0,0.1,0L202.3,291.7z"/>
<path class="st25" d="M185.4,308.4c0,0.1-0.1,0.2-0.1,0.2c-0.1,0.1-0.2,0.1-0.3,0.1c-1.8,0.3-3.6,0.4-5.4,0.2l-16.2-2.4
	c-0.1,0-0.2-0.1-0.2-0.1c-0.1-0.1-0.1-0.2-0.1-0.3l0.2-1.2c0-0.1,0.1-0.2,0.1-0.2c0.1-0.1,0.2-0.1,0.3-0.1l16.1,2.4
	c1.7,0.2,3.4,0.1,5.1-0.2c0.1,0,0.2,0.1,0.2,0.1c0.1,0.1,0.1,0.2,0.1,0.3L185.4,308.4z"/>
<path class="st2" d="M163.7,304.5c0,0-0.2-3.3,1.2-5s0.6-7.2,1-8.6s0.9-1.2,3.5-2c2.6-0.8,5-0.9,4.5,1.2c-0.5,2-1.8,11.7,6.7,14.7
	c2.1-0.1,5.1,1.3,4.4,2c-1.7,0.4-3.4,0.4-5.1,0.2L163.7,304.5z"/>
<path class="st32" d="M173.9,290c0.5-2.1-1.9-2-4.5-1.2c-2.6,0.8-3.1,0.6-3.5,2c-0.4,1.4,0.4,6.8-1,8.6c-1.4,1.8-1.2,5-1.2,5
	l16.1,2.4c0.8,0.1,1.5,0.2,2.3,0.1c0-0.5-0.2-1-0.5-1.4c-0.3-0.4-0.6-0.7-1.1-1C172.1,301.8,173.4,292.1,173.9,290L173.9,290z"/>
<path class="st2" d="M178.8,305.2c0-0.1,0-0.2,0-0.3c0-0.1-0.1-0.2-0.1-0.2c-0.1-0.1-0.1-0.1-0.2-0.1c-0.1,0-0.2,0-0.3,0
	c-0.1,0-0.2,0.1-0.2,0.2s-0.1,0.2-0.1,0.3c0,0.1,0,0.2,0.1,0.3c0.1,0.1,0.1,0.1,0.2,0.2c0.1,0,0.1,0,0.2,0s0.1,0,0.2,0
	c0.1,0,0.1-0.1,0.2-0.1C178.7,305.3,178.8,305.3,178.8,305.2L178.8,305.2z"/>
<path class="st2" d="M179.2,303.8c0-0.1,0-0.1,0-0.2c0-0.1-0.1-0.1-0.1-0.1c-0.1,0-0.1,0-0.2,0c-0.1,0-0.1,0.1-0.1,0.1l-0.5,1.1
	c0,0.1,0,0.1,0,0.2c0,0.1,0.1,0.1,0.1,0.1c0.1,0,0.1,0,0.2,0c0.1,0,0.1-0.1,0.1-0.1L179.2,303.8z M176.9,304.2
	c0.1-0.1,0.1-0.2,0.1-0.3c0-0.1,0-0.2-0.1-0.3c0-0.1-0.1-0.1-0.2-0.2c-0.1,0-0.2-0.1-0.3,0c-0.1,0-0.2,0-0.2,0.1s-0.1,0.1-0.2,0.2
	c0,0.1,0,0.2,0,0.3c0,0.1,0.1,0.2,0.1,0.2c0,0,0.1,0.1,0.2,0.1c0.1,0,0.1,0,0.2,0c0.1,0,0.1,0,0.2-0.1
	C176.8,304.3,176.9,304.2,176.9,304.2z"/>
<path class="st2" d="M177.7,302.9C177.7,302.9,177.7,302.8,177.7,302.9c0.1-0.1,0.1-0.2,0.1-0.2s0-0.1,0-0.1c0,0,0-0.1-0.1-0.1
	c0,0-0.1,0-0.1,0c0,0-0.1,0-0.1,0c0,0-0.1,0-0.1,0s-0.1,0-0.1,0.1l-0.7,0.9c0,0.1-0.1,0.1-0.1,0.2c0,0.1,0,0.1,0.1,0.2
	c0,0,0.1,0,0.1,0s0.1,0,0.1,0c0,0,0.1,0,0.1,0c0,0,0.1,0,0.1-0.1L177.7,302.9z M175.2,302.7c0.1-0.1,0.1-0.1,0.2-0.2
	c0-0.1,0-0.2,0-0.3c0-0.1-0.1-0.2-0.1-0.2c-0.1-0.1-0.2-0.1-0.2-0.1c-0.1,0-0.2,0-0.3,0c-0.1,0-0.2,0.1-0.2,0.2
	c-0.1,0.1-0.1,0.2-0.1,0.3c0,0.1,0,0.2,0.1,0.3c0,0.1,0.1,0.1,0.1,0.1c0.1,0,0.1,0.1,0.2,0.1c0.1,0,0.1,0,0.2,0
	C175.1,302.7,175.1,302.7,175.2,302.7L175.2,302.7z"/>
<path class="st2" d="M176.2,301.7C176.3,301.7,176.3,301.6,176.2,301.7c0.1-0.1,0.1-0.1,0.1-0.2s0-0.1,0-0.1c0,0,0-0.1,0-0.1
	c0,0,0-0.1-0.1-0.1c0,0-0.1,0-0.1,0c0,0-0.1,0-0.1,0c0,0-0.1,0-0.1,0l-1,0.7c0,0-0.1,0-0.1,0.1c0,0,0,0.1,0,0.1c0,0,0,0.1,0,0.1
	c0,0,0,0.1,0,0.1c0,0,0,0.1,0.1,0.1c0,0,0.1,0,0.1,0c0,0,0.1,0,0.1,0c0,0,0.1,0,0.1,0L176.2,301.7z M173.9,300.7
	c0.1,0,0.2-0.1,0.2-0.2c0.1-0.1,0.1-0.2,0.1-0.3c0-0.1,0-0.2-0.1-0.3c-0.1-0.1-0.1-0.1-0.2-0.2c-0.1,0-0.2,0-0.3,0
	c-0.1,0-0.2,0.1-0.2,0.1c-0.1,0.1-0.1,0.1-0.1,0.2c0,0.1,0,0.2,0,0.3c0,0.1,0.1,0.1,0.1,0.2c0,0,0.1,0.1,0.2,0.1c0.1,0,0.1,0,0.2,0
	C173.8,300.7,173.8,300.7,173.9,300.7z"/>
<path class="st2" d="M175.1,299.9c0.1,0,0.1-0.1,0.1-0.1c0-0.1,0-0.1,0-0.2c0-0.1-0.1-0.1-0.1-0.1c-0.1,0-0.1,0-0.2,0l-1.1,0.4
	c-0.1,0-0.1,0.1-0.1,0.1c0,0.1,0,0.1,0,0.2c0,0,0,0.1,0.1,0.1c0,0,0.1,0,0.1,0.1c0,0,0.1,0,0.1,0c0,0,0.1,0,0.1,0L175.1,299.9z
	 M173,298.3c0.1,0,0.2-0.1,0.2-0.1c0.1-0.1,0.1-0.2,0.1-0.2c0-0.1,0-0.2,0-0.3c0-0.1-0.1-0.2-0.2-0.2c-0.1,0-0.2-0.1-0.3-0.1
	c-0.1,0-0.2,0-0.3,0.1c-0.1,0.1-0.1,0.1-0.2,0.2c0,0.1,0,0.2,0,0.3c0,0.1,0,0.1,0.1,0.2c0,0,0.1,0.1,0.1,0.1c0.1,0,0.1,0.1,0.2,0.1
	C172.9,298.3,172.9,298.3,173,298.3z"/>
<path class="st2" d="M174.3,297.8c0.1,0,0.1-0.1,0.2-0.1c0-0.1,0-0.1,0-0.2c0,0,0-0.1,0-0.1c0,0,0-0.1-0.1-0.1c0,0-0.1,0-0.1,0
	c0,0-0.1,0-0.1,0l-1.1,0.3c-0.1,0-0.1,0.1-0.2,0.1c0,0.1,0,0.1,0,0.2c0,0.1,0.1,0.1,0.1,0.2c0.1,0,0.1,0,0.2,0L174.3,297.8z
	 M172.4,296c0.1,0,0.2,0,0.3-0.1c0.1-0.1,0.1-0.1,0.2-0.2c0-0.1,0-0.2,0-0.3c0-0.1-0.1-0.2-0.2-0.2c-0.1-0.1-0.2-0.1-0.3-0.1
	c-0.1,0-0.2,0-0.3,0.1s-0.1,0.1-0.2,0.2c0,0.1-0.1,0.2-0.1,0.3c0,0.1,0.1,0.2,0.2,0.3C172.2,296,172.3,296,172.4,296L172.4,296z"/>
<path class="st2" d="M173.8,295.7C173.9,295.7,173.9,295.7,173.8,295.7c0.1,0,0.2-0.1,0.2-0.1c0,0,0-0.1,0-0.1c0,0,0-0.1,0-0.1
	c0,0,0-0.1,0-0.1c0,0,0-0.1-0.1-0.1c0,0-0.1,0-0.1,0c0,0-0.1,0-0.1,0l-1.2,0.1c0,0-0.1,0-0.1,0c0,0-0.1,0-0.1,0.1c0,0,0,0.1,0,0.1
	c0,0,0,0.1,0,0.1c0,0,0,0.1,0,0.1c0,0,0,0.1,0.1,0.1c0,0,0.1,0,0.1,0c0,0,0.1,0,0.1,0L173.8,295.7z M172.3,293.6
	c0.1,0,0.2,0,0.3-0.1c0.1,0,0.1-0.1,0.2-0.2c0-0.1,0.1-0.2,0-0.3c0-0.1-0.1-0.2-0.1-0.2c-0.1-0.1-0.1-0.1-0.2-0.1s-0.2,0-0.3,0
	s-0.2,0.1-0.2,0.2c-0.1,0.1-0.1,0.2-0.1,0.3c0,0.1,0,0.1,0,0.2c0,0.1,0.1,0.1,0.1,0.2c0,0,0.1,0.1,0.2,0.1
	C172.2,293.5,172.2,293.6,172.3,293.6L172.3,293.6z"/>
<path class="st2" d="M173.7,293.4c0,0,0.1,0,0.1,0c0,0,0.1,0,0.1-0.1c0,0,0-0.1,0.1-0.1c0,0,0-0.1,0-0.1c0,0,0-0.1,0-0.1
	c0,0,0-0.1-0.1-0.1s-0.1,0-0.1-0.1c0,0-0.1,0-0.1,0l-1.2,0c0,0-0.1,0-0.1,0c0,0-0.1,0-0.1,0.1c0,0,0,0.1-0.1,0.1c0,0,0,0.1,0,0.1
	c0,0,0,0.1,0,0.1c0,0,0,0.1,0.1,0.1s0.1,0,0.1,0.1c0,0,0.1,0,0.1,0L173.7,293.4z"/>
<path class="st33" d="M510.1,220.9c-0.8-0.6-1.6-1.3-2.6-2.1c-1-0.8-2.2-1.6-3.5-2.6c-1.2-1-2.8-2-4.2-3.1c-1.5-1.1-3.1-2.3-4.8-3.6
	c-1.7-1.3-3.3-2.6-5-4s-3.5-2.8-5-4.4c-1.6-1.6-3.2-3-4.6-4.6c-1.5-1.6-2.7-3-3.9-4.5c-0.6-0.8-1.2-1.4-1.7-2.1l-0.8-1
	c-0.3-0.3-0.6-0.7-0.8-1c-0.3-0.3-0.5-0.6-0.8-1c-0.3-0.3-0.5-0.6-0.7-1c-0.4-0.6-0.9-1.2-1.2-1.9c-0.8-1.1-1.5-2.3-2.3-3.3
	c-0.3-0.5-0.7-1-1-1.4c-0.3-0.4-0.6-0.8-1-1.2c-0.1-0.2-0.3-0.3-0.5-0.5c-0.1-0.1-0.3-0.3-0.4-0.4l-0.9-0.7
	c-0.5-0.3-1.1-0.6-1.7-0.5c-0.6,0.1-1.2,0.5-1.5,1c-0.2,0.3-0.4,0.6-0.6,1c-0.1,0.2-0.2,0.4-0.2,0.7l-0.1,0.8
	c-0.1,0.6-0.2,1.2-0.3,1.8c-0.1,0.6,0,1.3,0,2.1c0.1,1.7,0.4,3.3,0.9,4.9c0.3,1,0.6,1.8,0.9,2.8c0.1,0.5,0.3,0.9,0.6,1.4
	c0.3,0.5,0.4,1,0.6,1.5c0.2,0.5,0.5,1,0.8,1.4c0.3,0.5,0.6,0.9,0.8,1.4c0.6,1,1.2,2,2,2.9c1.5,2,3.2,3.8,5,5.5c1.9,1.8,3.9,3.5,6,5
	c2.1,1.5,4.3,2.8,6.5,4.1c2.1,1.2,4.3,2.2,6.3,3.1c2,0.9,3.9,1.7,5.8,2.4c1.9,0.7,3.6,1.2,5.2,1.7c1.4,0.5,2.8,0.9,4.3,1.2
	c1.1,0.3,2.1,0.6,3.3,0.7c1.9,0.3,2.9,0.3,3.2-0.1C512.2,222.9,511.5,222.1,510.1,220.9L510.1,220.9z"/>
<path class="st25" d="M564.6,356.8l5.9,0.1l-1.9-66.9l-12.8-0.1L564.6,356.8z"/>
<path class="st34" d="M550.4,349.4l5.9,0.1l-1.9-66.9l-12.8-0.1L550.4,349.4z"/>
<path class="st34" d="M510.6,349.3l-5.9,0.1l1.9-67l12.8-0.1L510.6,349.3z"/>
<path class="st25" d="M501.7,357l-5.9,0.1l1.9-67l12.8-0.1L501.7,357z"/>
<path class="st25" d="M549.4,220.5l5.6,0l-2.3,60.2l-8,0L549.4,220.5z M519.8,220.3l-5.6,0l1.7,60.2l8,0L519.8,220.3z M537.5,222.4
	l0.1-2l-0.2,0l-5.5,0l-0.2,0l0.1,2l-2.3,58.2l4,0l1.7,0l4.1,0L537.5,222.4z"/>
<path class="st25" d="M497.7,301.2l0-10l69.6,0.3l0,10L497.7,301.2z"/>
<path class="st35" d="M573.7,282.3c0,8.3,2,15-6.4,15l-69-0.3c-8.3,0-6.7-6.8-6.7-15c0.1-8.3,6.8-15,15.1-14.9l52,0.2
	C567,267.2,573.7,274,573.7,282.3L573.7,282.3z M509.9,209.3l47.4,0.2c6.8,0,12.3,5.5,12.2,12.4l-0.1,15.3c0,2.3-1.9,4.1-4.2,4.1
	l-63.6-0.3c-2.3,0-4.1-1.9-4.1-4.2l0.1-15.3C497.6,214.8,503.1,209.3,509.9,209.3L509.9,209.3z"/>
<path class="st25" d="M368.8,330.7l24.8,29.9l-5.9-27.6c-7,1.4-8.2-6.4-8.2-6.4L368.8,330.7L368.8,330.7z"/>
<path class="st2" d="M385.9,345.8c0,0.2,0.1,0.4,0.3,0.6c0.1,0.1,0.2,0.1,0.3,0.1c1.4-0.1,2.8,0.1,4.2,0.4c0.3,0.1,0.7-0.1,0.8-0.4
	c0.1-0.3-0.1-0.7-0.4-0.8c-1.5-0.4-3.1-0.6-4.6-0.5C386.2,345.1,385.9,345.4,385.9,345.8L385.9,345.8z M385.1,342.3
	c0,0.2,0.1,0.4,0.3,0.6c0.1,0.1,0.2,0.1,0.3,0.1c1.4-0.1,2.8,0.1,4.2,0.4c0.3,0.1,0.6-0.1,0.8-0.4v-0.1c0.1-0.3-0.1-0.7-0.4-0.8
	c-1.5-0.5-3-0.6-4.6-0.6C385.3,341.7,385.1,342,385.1,342.3L385.1,342.3z M384.2,338.9c0,0.2,0.1,0.4,0.3,0.5
	c0.1,0.1,0.2,0.1,0.3,0.1c1.4-0.1,2.8,0.1,4.2,0.4c0.3,0.1,0.7-0.1,0.8-0.4c0.1-0.3-0.1-0.7-0.4-0.8c-1.5-0.5-3-0.6-4.6-0.6
	C384.5,338.2,384.2,338.5,384.2,338.9L384.2,338.9z M390.2,362l-23.4-28.4c-0.3-0.5-0.3-1.1,0.2-1.5l1.8-1.5l24.8,29.9l-1.8,1.5
	C391.2,362.5,390.6,362.4,390.2,362L390.2,362z"/>
<path class="st25" d="M454.6,359.5l38.8,1l-24.7-13.7c-3.5,6.2-10.2,2.1-10.2,2.1L454.6,359.5z"/>
<path class="st2" d="M465.8,201.1c-5.6,9.6-12.1,18.5-18.8,27.2c-10.6-3.2-20.3-8.9-28.4-16.5c5.7-9.6,11.6-19.2,18-28.4
	c3.3-4.8,7-9.6,11.5-13.3c4.1-3.4,9.1-5.7,14.2-5.7c0.6,0,1.2,0,1.8,0.1c0.8,3.1,4.7,6.7,7.8,7.2c0.7,1.7,1.1,3.5,1.3,5.3
	c0.3,3.3,0,6.7-1,10C471,192,468.5,196.6,465.8,201.1L465.8,201.1z M477.2,356.4c0.2,0.1,0.5,0.2,0.7,0.1c0.1,0,0.2-0.1,0.3-0.2
	c0.8-1.1,1.9-2.1,3.1-2.9c0.3-0.2,0.3-0.6,0.2-0.9c-0.2-0.3-0.6-0.3-0.8-0.2c-1.3,0.8-2.5,1.9-3.5,3.2
	C476.9,355.8,476.9,356.1,477.2,356.4z M474.1,354.8c0.2,0.1,0.5,0.2,0.7,0.1c0.1,0,0.2-0.1,0.3-0.2c0.9-1.1,1.9-2.1,3.1-2.9
	c0.3-0.2,0.3-0.6,0.1-0.9c-0.2-0.2-0.6-0.3-0.8-0.1c-1.3,0.8-2.5,1.9-3.5,3.2C473.8,354.1,473.8,354.5,474.1,354.8L474.1,354.8
	L474.1,354.8z M470.9,353.2c0.2,0.1,0.5,0.1,0.7,0.1c0.1,0,0.2-0.1,0.3-0.2c0.9-1.1,1.9-2.1,3.1-2.9c0.3-0.1,0.4-0.6,0.2-0.8
	c-0.1-0.3-0.6-0.4-0.8-0.2c0,0-0.1,0-0.1,0.1c-1.3,0.8-2.5,1.9-3.5,3.2C470.6,352.5,470.6,353,470.9,353.2
	C470.9,353.1,470.9,353.1,470.9,353.2L470.9,353.2z M492,363.8l-36.3-1c-0.7,0-1.2-0.6-1.2-1.3l0.1-2.1l38.8,1l-0.1,2.1
	C493.4,363.2,492.7,363.8,492,363.8L492,363.8z"/>
<path class="st24" d="M473,173.9c0.3-0.8,0.7-1.7,1-2.4c0.3-0.8,0.8-1.7,1.2-2.5c0.8-1.5,1.5-3,2.4-4.4c1-1.7,2.1-3.5,3.1-5
	c-1.2-3.5-2.6-6.9-4.5-10.2c-2,2.1-3.9,4.4-6,6.5c-2.1,2.4-4.4,4.7-6.6,7l-0.7,0.7c-0.1,0.1-0.1,0.2-0.2,0.3s-0.3,0.4-0.3,0.6
	c0.3,1.2,0.8,2.4,1.3,3.5c0.7,1.4,1.6,2.7,2.6,3.9c1.9,2.2,4.4,3.9,7.1,4.8C473.3,175.7,473.2,174.8,473,173.9L473,173.9z"/>
<path class="st22" d="M477.6,164.7c1-1.7,2.1-3.5,3.1-5c-1.2-3.5-2.6-6.9-4.5-10.2c-2,2.1-3.9,4.4-6,6.5c0,7.2,2.8,10.2,5,13.1
	C476,167.6,476.8,166.1,477.6,164.7z"/>
<path class="st27" d="M474.6,143.8c0.2-3.7,0.3-7.5,2.6-10.5c1.4-1.9,3.4-3.2,5.7-3.7c2.3-0.5,4.6-0.3,6.8,0.6
	c2.1,0.8,3.9,2.3,5.2,4.1c1.2,1.9,1.5,4.4,0.8,6.5C488.4,140.2,481.3,141.2,474.6,143.8L474.6,143.8z"/>
<path class="st36" d="M485.9,137.2c-1-0.1-2.1-0.6-2.2,0.6c-0.1,0.7,1,2.1,1.3,2.7c1.1,1.7,2.5,3.1,4.1,4.2c2.9,1.8,6.3,2.5,9.6,2
	c1.7-0.2,3.3-1,4.4-2.2c1-1.3,1.2-3.5,0-4.6c-0.9-0.8-2.1-1-3.4-1.1C495.2,138.2,490.5,137.8,485.9,137.2L485.9,137.2z"/>
<path class="st25" d="M491.7,148.7c0.4,0.3,0.6,1.1,1,1.4c-0.7,2.7-2.7,4.8-5.3,5.6c0.1-2.2,0.6-4.4,1.5-6.4
	c0.3-0.5,0.6-1.1,1.2-1.2C490.7,148.1,491.3,148.3,491.7,148.7L491.7,148.7z M481.8,144.7c-1.9,4.4-5.2,8.2-9.3,10.6
	c-1-3.9-0.3-8.2,1.7-11.7c1.2-2.1,3-3.9,5-5.3c0.4-0.2,0.9-0.4,1.4-0.6c1-0.3,1.9-0.6,2.9-0.7C483.5,139.7,482.9,142.2,481.8,144.7z
	"/>
<path class="st24" d="M484,140c-2.4,2-4.7,3.9-6.7,6.3c-2.1,2.4-3.4,5.2-3.9,8.2c-0.5,3.1,0.6,6.2,2.8,8.4c2.2,2.1,5.9,2.7,8.5,1
	c2.6-1.7,3.4-4.7,3.9-7.7c0.6-3,1.2-6,3.3-8.1C490.9,144.1,488.1,140.6,484,140z"/>
<path class="st24" d="M475.6,151.4c-1.9-0.2-3.3-1.9-3-3.7c0.1-0.9,0.6-1.8,1.3-2.4c0.6-0.5,1.2-0.6,2-0.6c0.5,0.2,0.9,0.6,1.2,1
	c0.2,0.5,0.3,1,0.4,1.5C476.7,148.6,476,150,475.6,151.4L475.6,151.4z"/>
<path class="st25" d="M497.6,149.2c0.2-1,0.2-1.9,0.1-2.9c-0.1-0.4-0.1-0.8-0.3-1.1c-1.7-3.9-5.1-6.7-9.2-7.7
	c-1.5-0.3-3.2-0.4-4.7-0.3c-1,0.1-2,0.3-2.9,0.7c-0.3,0.3-0.6,0.4-0.8,0.7c-2,2.3-3.1,5.2-3.2,8.2c1.9-0.1,3.7-0.8,5.3-2
	c1-0.8,1.8-1.9,2.2-3.2c1.8,3.9,4.7,7.3,8.4,9.7c1.7,1,3.7,0.5,4.8-1.2C497.4,149.8,497.5,149.5,497.6,149.2L497.6,149.2z"/>
<path class="st37" d="M439.8,247.4c8,51.7-49.2,94.1-49.2,94.1l-14.7-14.9c51-38.9,40.3-90.2,40.3-90.2L439.8,247.4z"/>
<path class="st36" d="M416.3,236.4l23.6,10.9c2.9,18.7-2.8,36.1-11.1,50.7c-4.3-10.7-9.3-21.2-13.4-31.9
	C418.8,248.8,416.3,236.4,416.3,236.4L416.3,236.4z"/>
<path class="st27" d="M465.8,189.9l-28.1,11.6l-9.8-5.6c0,0-15.8,31.2-10.9,47.7c36,27.6,39.2,111,39.2,111l21.8-6.4
	c4.1-57-26.9-112.4-26.9-112.4c1.2-16,19.4-43.2,19.4-43.2L465.8,189.9L465.8,189.9z"/>
<path class="st37" d="M428.6,197.4c0.3-0.2,0.4-0.5,0.6-0.8c0.3-0.3,0.6-0.7,0.8-1.1c0.1-0.2,0.3-0.4,0.4-0.7
	c0.1-0.3,0.3-0.4,0.5-0.7l0.6-0.8c0.2-0.3,0.3-0.5,0.6-0.8c0.2-0.3,0.4-0.6,0.6-1c0.3-0.3,0.4-0.6,0.7-1c0.4-0.7,1-1.3,1.5-2.1
	c1.1-1.4,2.2-2.9,3.6-4.6c1.4-1.7,2.8-3.2,4.5-4.9c1.7-1.7,3.5-3.3,5.4-4.9c1.9-1.7,4-3,6.3-4.2c2.1-1,4.4-1.2,6.7-0.9
	c0.5,0.1,1,0.3,1.5,0.6l0.3,0.2l0.3,0.2c0.1,0.1,0.3,0.1,0.3,0.2l0.3,0.3c0.8,0.6,1.5,1.4,2.1,2.2c0.6,0.8,1,1.8,1.3,2.8
	c0.1,0.2,0.1,0.5,0.2,0.7c0.1,0.2,0.1,0.5,0.2,0.7c0.1,0.2,0.1,0.5,0.1,0.7c0.1,0.2,0.1,0.5,0.1,0.7c0.1,1.9,0,3.7-0.4,5.5
	c-0.4,1.5-0.9,3-1.5,4.5c-0.5,1.3-1,2.4-1.5,3.3c-0.8,1.8-1.3,2.9-1.1,3c0.2,0.1,1-0.7,2.1-2.4c0.6-0.8,1.3-1.9,2.1-3.2
	c0.8-1.5,1.5-3,2.1-4.6c0.3-1,0.6-1.9,0.8-2.9c0.2-1.1,0.3-2.2,0.3-3.4v-0.9c0-0.3-0.1-0.6-0.1-0.8c0-0.2-0.1-0.6-0.2-1
	c-0.1-0.3-0.1-0.6-0.2-1c-0.3-1.3-0.8-2.6-1.5-3.7c-0.7-1.2-1.7-2.4-2.8-3.4c-0.2-0.1-0.3-0.3-0.4-0.3c-0.1-0.1-0.3-0.3-0.6-0.3
	c-0.2-0.1-0.3-0.2-0.5-0.3l-0.6-0.3c-0.7-0.3-1.4-0.6-2.1-0.8c-1.5-0.4-3.1-0.6-4.6-0.3c-1.6,0.1-3.1,0.6-4.6,1.1
	c-2.7,1.2-5.2,2.8-7.4,4.6c-2,1.7-3.9,3.5-5.7,5.3c-1.7,1.8-3.2,3.6-4.6,5.3c-1.2,1.6-2.4,3.3-3.5,5c-0.4,0.8-1,1.5-1.3,2.4
	c-0.1,0.4-0.3,0.8-0.6,1.1l-0.5,1c-0.1,0.3-0.3,0.6-0.4,1c-0.1,0.3-0.3,0.6-0.3,1c-0.1,0.3-0.3,0.6-0.3,0.9l-0.3,0.8
	c-0.2,0.5-0.3,1-0.4,1.3l-0.2,1c-0.1,0.6,0,0.9,0.1,1C427.9,198,428.2,197.8,428.6,197.4L428.6,197.4z"/>
<path class="st24" d="M466.5,236.6l-9.5-13.3c-3.2-4.5-4.2-10.1-2.8-15.4l3.9-14.2l-15.6-11.7c0,0-5.9,30.1-0.8,37.6
	c7.3,10.8,22.6,26,22.6,26s2.2,2.9,4.2,5.6c2,2.7,1.7,0.6,5.6-4.3c2.4-3,4.3-3.9,1.4-4.5c-2.4-0.6-7.5-4.8-9.4-6.3"/>
<path class="st38" d="M448.9,221c0.2,0.4,0.5,0.9,0.7,1.3l0.8,1.3l1.5,2.5l1.5,2.5l1.5,2.4l1.5,2.3c0.5,0.8,1,1.5,1.5,2.2l3.1,4.2
	l0.7,1c0.2,0.3,0.5,0.7,0.8,1l1.5,1.9l1.5,1.8l0.8,0.9c0,2.9,1.2,5.7,3.2,7.8c2.4,2.4,6,3.4,9.1,2.6c1.1-0.3,2.1-0.9,2.5-2
	c0.3-1.2-0.4-2.5-1.2-3.5c-0.8-1-1.9-1.7-2.4-2.9c-0.5-1.2-0.4-2.8,0.7-3.3c0.7-0.3,1.7-0.1,1.9-0.8c0.1-0.4-0.1-0.8-0.4-1.1
	c-0.3-0.2-0.8-0.3-1.2-0.4l-5.5-0.9"/>
</svg>
