<?xml version="1.0" encoding="utf-8"?>
<!-- Generator: Adobe Illustrator 24.2.3, SVG Export Plug-In . SVG Version: 6.00 Build 0)  -->
<svg version="1.1" id="Слой_1" xmlns="http://www.w3.org/2000/svg" xmlns:xlink="http://www.w3.org/1999/xlink" x="0px" y="0px"
	 viewBox="0 0 630 394" style="enable-background:new 0 0 630 394;" xml:space="preserve">
<style type="text/css">
	.st0{fill:#EAF1FC;}
	.st1{fill:#F8F8FF;}
	.st2{fill:#FBCC99;}
	.st3{fill:#DDAF8A;}
	.st4{fill:#047487;}
	.st5{fill:#FFFFFF;}
	.st6{fill:#D6E0F0;}
	.st7{fill:#FCFBFC;}
	.st8{fill:#E9EDF4;}
	.st9{fill:#CDE4F7;}
	.st10{fill:#FFCB24;}
	.st11{fill:none;stroke:#FFCB24;stroke-width:10;stroke-miterlimit:10;}
	.st12{fill:#FFEB47;}
	.st13{fill:#64CE38;}
	.st14{fill:#FFAE0A;}
	.st15{fill:#02819F;}
	.st16{fill:#ADBF5B;}
	.st17{fill:#C8D540;}
	.st18{fill:#F18419;}
	.st19{fill:#0682A0;}
	.st20{fill:#E08F73;}
	.st21{fill:#ACBBD1;}
	.st22{fill:#52B82D;}
	.st23{fill:#F09976;}
	.st24{fill:#E8815F;}
	.st25{fill:#0B2B46;}
	.st26{fill:#05616B;}
	.st27{fill:#289917;}
	.st28{fill:#FFDA35;}
	.st29{fill:#EAB624;}
</style>
<path class="st0" d="M315,393.5c174,0,315-20.2,315-45.1c0-24.9-141-45.1-315-45.1S0,323.4,0,348.4C0,373.3,141,393.5,315,393.5z"/>
<path class="st1" d="M573.7,331.3c35.9-74.7,55.7-217.7-22.2-265.2C500.6,35.1,447.5,75,393,76.9c-42.8,1.5-84-32.3-122.6-42
	C169.3,9.7,10.2,75.4,80.2,331.3C255,330.9,398.8,331.8,573.7,331.3z"/>
<path class="st2" d="M38.4,116.1h115.1v207.7H38.4V116.1z"/>
<path class="st3" d="M46.7,124.5h98.4v40.6H46.7V124.5z M46.7,174.7h98.4v40.6H46.7V174.7z M46.7,224.7h98.4v40.6H46.7V224.7z
	 M46.7,274.8h98.4v40.6H46.7V274.8z M154.5,116.1h-117c-2.7,0-4.9-2.2-4.9-4.9v-0.3c0-2.7,2.2-4.9,4.9-4.9h116.9
	c2.7,0,4.9,2.2,4.9,4.9v0.3C159.4,114,157.2,116.1,154.5,116.1z M154.5,333.9h-117c-2.7,0-4.9-2.2-4.9-4.9v-0.3
	c0-2.7,2.2-4.9,4.9-4.9h116.9c2.7,0,4.9,2.2,4.9,4.9v0.3C159.4,331.8,157.2,333.9,154.5,333.9z M40.9,333.9l-3.8,14.5H46l10.5-14.5
	H40.9z M151,333.9l3.7,14.5h-8.9l-10.5-14.5H151z"/>
<path class="st4" d="M47.3,215.2h6.6v-31.8c-2.1-0.9-4.5-0.9-6.6,0V215.2z"/>
<path class="st4" d="M54.8,215.2h6.6v-31.8c-2.1-0.9-4.5-0.9-6.6,0V215.2z"/>
<path class="st4" d="M62.4,215.2H69v-31.8c-2.1-0.9-4.5-0.9-6.6,0V215.2z"/>
<path class="st5" d="M280.4,220H177.9c-1.4,0-2.6-1.1-2.6-2.6V68.8c-3.9-55.7,18.4-53.7,53.7-53.7c56.1-3.7,53.7,24,53.7,53.7v148.7
	C282.9,218.9,281.8,220,280.4,220L280.4,220z"/>
<path class="st6" d="M280.9,222.2H176.3c-1.7,0-3.1-1.4-3.1-3.1V46.5c0-18,14.6-32.6,32.6-32.6h45.7c18,0,32.6,14.6,32.6,32.6v172.6
	C284,220.8,282.6,222.2,280.9,222.2z M176.4,219h104.3V46.6c0-16.2-13.2-29.3-29.4-29.3h-45.7c-16.2,0-29.3,13.2-29.3,29.3
	L176.4,219z"/>
<path class="st6" d="M228.5,220.9c-0.9,0-1.7-0.8-1.7-1.7V15.6c0-0.9,0.8-1.7,1.7-1.7c0.9,0,1.7,0.8,1.7,1.7v203.7
	C230.2,220.2,229.5,220.9,228.5,220.9z"/>
<path class="st6" d="M282.3,173.8H174.7c-0.9,0-1.7-0.8-1.7-1.7c0-0.9,0.8-1.7,1.7-1.7h107.6c0.9,0,1.7,0.8,1.7,1.7
	C284,173.1,283.2,173.8,282.3,173.8z M282.3,71.6H174.7c-0.9,0-1.7-0.8-1.7-1.7s0.8-1.7,1.7-1.7h107.6c0.9,0,1.7,0.8,1.7,1.7
	C284,70.9,283.2,71.6,282.3,71.6z M282.3,122.7H174.7c-0.9,0-1.7-0.8-1.7-1.7s0.8-1.7,1.7-1.7h107.6c0.9,0,1.7,0.8,1.7,1.7
	S283.2,122.7,282.3,122.7z"/>
<path class="st0" d="M332.6,0h2.1v97.8h-2.1V0z"/>
<path class="st6" d="M349.8,118c0-9.1-7.4-16.5-16.5-16.5c-9.1,0-16.5,7.4-16.5,16.5H349.8z"/>
<path class="st6" d="M339.1,101.6c0,4.8-2.8,8.8-6.1,8.8s-6.1-3.9-6.1-8.8c0-4.8,2.8-8.8,6.1-8.8S339.1,96.7,339.1,101.6z"/>
<path class="st0" d="M305.5,0h2.1v63.5h-2.1V0z"/>
<path class="st6" d="M322.7,83.7c0-9.1-7.4-16.5-16.5-16.5c-9.1,0-16.5,7.4-16.5,16.5H322.7z"/>
<path class="st6" d="M312,67.4c0,4.8-2.8,8.8-6.1,8.8s-6.1-3.9-6.1-8.8c0-4.8,2.8-8.8,6.1-8.8S312,62.5,312,67.4z"/>
<path class="st6" d="M446.1,162.1c10.6,0,19.2-8.6,19.2-19.2s-8.6-19.2-19.2-19.2c-10.6,0-19.2,8.6-19.2,19.2
	S435.4,162.1,446.1,162.1z"/>
<path class="st7" d="M446.1,157.4c8.1,0,14.6-6.5,14.6-14.6c0-8.1-6.5-14.6-14.6-14.6c-8.1,0-14.6,6.5-14.6,14.6
	C431.4,150.9,438,157.4,446.1,157.4z"/>
<path class="st6" d="M450.3,152.2l-3.5-9.8c-0.1-0.5-0.7-0.8-1.2-0.6l-10.4,2.4c-0.6,0.1-0.8,0.7-0.7,1.2c0.1,0.5,0.6,0.8,1.1,0.7
	l9.6-2.2l3.3,8.9c0.1,0.4,0.5,0.6,0.9,0.6c0.1,0,0.2,0,0.3-0.1C450.3,153.3,450.5,152.7,450.3,152.2L450.3,152.2z"/>
<path class="st6" d="M445.8,144.8c1.1,0,2-0.9,2-2c0-1.1-0.9-2-2-2c-1.1,0-2,0.9-2,2C443.8,143.9,444.7,144.8,445.8,144.8z"/>
<path class="st8" d="M272.6,220.4h4.9v28h-4.9V220.4z"/>
<path class="st6" d="M292.7,249.6h-35.4c0-2.8,2.3-5.1,5.2-5.2h25.1C290.4,244.5,292.7,246.8,292.7,249.6z"/>
<path class="st9" d="M292.9,224.9h-35.8c-1.4,0-2.6-1.1-2.6-2.6c0-0.3,0.1-0.7,0.2-1l10.8-24.2c0.4-0.9,1.3-1.5,2.3-1.5H282
	c1,0,1.9,0.6,2.3,1.5l10.8,24.2c0.6,1.2,0,2.8-1.2,3.3C293.6,224.9,293.3,224.9,292.9,224.9z"/>
<path class="st8" d="M215,249.6h99.4v88H215V249.6z"/>
<path class="st6" d="M223.6,256.4H305v30.8h-81.3V256.4z M223.6,293.7H305v35.7h-81.3V293.7z M219.2,337.6h8.9v7.8h-8.9V337.6z
	 M300.5,337.6h8.9v7.8h-8.9V337.6z"/>
<path class="st7" d="M231.7,305c2.4,0,4.4-2,4.4-4.4s-2-4.4-4.4-4.4c-2.4,0-4.4,2-4.4,4.4S229.3,305,231.7,305z"/>
<path class="st8" d="M228.5,262.3H269V273h-40.4V262.3z"/>
<path class="st7" d="M236.9,273.4h44.6v14.1h-44.6V273.4z"/>
<path class="st10" d="M599.7,345.3H509V87h90.7V345.3z M515.9,338.4h76.8V93.9h-76.8V338.4z"/>
<path class="st11" d="M344.8,341.9V258h251.4v83.8H344.8z"/>
<path class="st10" d="M599.7,261.6H509v-90.8h90.7V261.6z M515.9,254.6h76.8v-76.9h-76.8V254.6z"/>
<path class="st10" d="M515.9,345.3h-90.8v-90.7h90.8V345.3z M432.1,338.4H509v-76.8h-76.9V338.4z"/>
<path class="st10" d="M432.1,345.3h-90.8v-90.7h90.8V345.3z M348.2,338.4h76.9v-76.8h-76.9V338.4L348.2,338.4z"/>
<path class="st10" d="M381,254.8h-90.8v-90.8H381V254.8z M297.1,247.9h76.9V171h-76.9V247.9z"/>
<path class="st12" d="M348.2,321.8h77.2v16.8h-77.2V321.8z M431.9,321.8h77.2v16.8h-77.2V321.8z M515.7,321.8h77.2v16.8h-77.2V321.8
	z M297,232h77.2v16.8H297V232z M515.7,238.7h77.2v16.8h-77.2V238.7z M515.7,154.5h77.2v16.8h-77.2V154.5z"/>
<path class="st13" d="M534.7,163.3h6.2v-35.7c-1.9-1-4.3-1-6.2,0V163.3z"/>
<path class="st14" d="M515.7,163.2h5.4v-35.7c-1.7-1-3.7-1-5.4,0V163.2z"/>
<path class="st15" d="M556,163.2l5-2.3l-15-32.3c-1-0.1-1.9,0.1-2.8,0.5c-0.8,0.4-1.6,1-2.1,1.8L556,163.2L556,163.2z"/>
<path class="st13" d="M521.1,163.2h6.2v-35.7c-1.9-1-4.3-1-6.2,0V163.2z"/>
<path class="st14" d="M527.3,163.3h7.4v-35.7c-2.4-1-5.1-1-7.4,0V163.3z"/>
<path class="st16" d="M405.6,309.1c6.9-7.3,9.8-15.8,6.5-18.9c-3.3-3.1-11.6,0.3-18.5,7.6c-6.9,7.3-9.8,15.8-6.5,18.9
	C390.4,319.8,398.6,316.5,405.6,309.1z"/>
<path class="st16" d="M387.8,316.7c3.3-3.2,0.3-11.6-6.7-18.8c-7-7.2-15.3-10.5-18.6-7.4c-3.3,3.2-0.3,11.6,6.7,18.8
	C376.2,316.6,384.5,319.9,387.8,316.7z"/>
<path class="st17" d="M385.6,319c5.7,0,10.3-10.1,10.3-22.6c0-12.5-4.6-22.6-10.3-22.6s-10.3,10.1-10.3,22.6
	C375.3,308.9,379.9,319,385.6,319z"/>
<path class="st18" d="M387.8,334.9c-7.1,0.1-12.8-5.6-12.8-12.7v-2.1c0-2.3,1.8-4.1,4.1-4.1l17.4-0.1c2.3,0,4.1,1.8,4.1,4.1v2.1
	C400.6,329.1,394.9,334.8,387.8,334.9L387.8,334.9z"/>
<path class="st16" d="M554.6,242.9c1.5-0.3,0.9-10.7-1.4-23.2c-2.3-12.5-5.4-22.5-6.9-22.2c-1.5,0.3-0.9,10.7,1.4,23.2
	C550,233.2,553.1,243.2,554.6,242.9z"/>
<path class="st16" d="M561.1,220.6c2.1-12.6,2.6-22.9,1.1-23.2c-1.5-0.3-4.5,9.7-6.6,22.3c-2.1,12.6-2.6,22.9-1.1,23.2
	C556,243.1,558.9,233.2,561.1,220.6z"/>
<path class="st17" d="M553.2,242.1c1.6,0,3-10.9,3-24.4c0-13.5-1.3-24.4-3-24.4s-3,10.9-3,24.4C550.2,231.1,551.5,242.1,553.2,242.1
	z"/>
<path class="st17" d="M554.6,242.9c1.3-0.5-0.9-9.6-4.9-20.3c-4-10.8-8.3-19.1-9.6-18.6c-1.3,0.5,0.9,9.6,4.9,20.3
	C549.1,235,553.3,243.4,554.6,242.9z"/>
<path class="st17" d="M563.8,224.2c3.9-10.8,5.9-19.9,4.6-20.4c-1.3-0.5-5.5,7.9-9.3,18.7c-3.9,10.8-5.9,19.9-4.6,20.4
	C555.8,243.3,560,235,563.8,224.2z"/>
<path class="st19" d="M557,250.1h-4.6c-2.7,0-5.1-2.2-5.3-5.1l-1.1-12.4c-0.1-0.6,0.4-1.2,1-1.2h0.1l15.1-0.1c0.6,0,1.2,0.5,1.2,1.2
	v0.1l-1,12.3C562,247.8,559.7,250.1,557,250.1z"/>
<path class="st20" d="M296.9,162.9c-1-0.1-2.1-0.3-3.5-0.4c-1.4-0.1-2.9-0.2-4.6-0.3l-5.5-0.3c-1.9-0.2-4-0.3-6.2-0.5
	c-2.2-0.2-4.4-0.4-6.7-0.6c-2.3-0.3-4.7-0.6-6.9-1.1c-2.3-0.4-4.6-0.9-6.7-1.5c-2.1-0.6-4.1-1.2-6-1.7c-0.9-0.4-1.8-0.6-2.7-0.9
	c-0.5-0.2-0.9-0.3-1.3-0.4c-0.4-0.1-0.8-0.3-1.2-0.5c-0.4-0.1-0.8-0.3-1.2-0.5c-0.4-0.2-0.8-0.3-1.1-0.4L241,153
	c-1.4-0.6-2.6-1.1-3.8-1.5c-0.5-0.2-1.1-0.4-1.7-0.6c-0.5-0.2-1-0.4-1.5-0.5l-0.7-0.1c-0.2,0-0.4-0.1-0.6-0.1
	c-0.4-0.1-0.8-0.1-1.2-0.1c-0.7,0-1.3,0.2-1.8,0.6c-0.5,0.4-0.8,1.1-0.8,1.7c0,0.5,0,0.8,0.1,1.2c0,0.2,0.1,0.5,0.2,0.8
	c0,0.3,0.1,0.5,0.3,0.8c0.2,0.6,0.5,1.2,0.8,1.7c0.3,0.6,0.7,1.2,1.2,1.8c1,1.4,2.2,2.7,3.5,3.9c0.7,0.7,1.6,1.2,2.3,1.9
	c0.4,0.3,0.9,0.6,1.3,0.9c0.4,0.3,0.9,0.6,1.4,0.9c0.5,0.3,1,0.6,1.5,0.8c0.5,0.3,1,0.5,1.6,0.8c1,0.5,2.2,1,3.3,1.4
	c2.4,0.9,5,1.6,7.5,2c2.7,0.5,5.4,0.8,8.2,0.9c2.7,0.1,5.3,0.1,8-0.1c2.6-0.1,5-0.5,7.3-0.8c2.3-0.4,4.5-0.8,6.5-1.2
	c2-0.4,3.8-0.9,5.5-1.4c1.7-0.5,3.1-0.9,4.5-1.4c1.3-0.5,2.4-0.8,3.3-1.2c1.8-0.7,2.8-1.4,2.8-1.9
	C299.8,163.5,298.8,163.2,296.9,162.9L296.9,162.9z"/>
<path class="st20" d="M307.6,162.7c-0.3-1.2-1-2.2-2.1-2.8c-1.1-0.6-2.2-1-3.4-1.1c-4.4-0.5-8.7,1.3-11.6,4.7
	C296,165.7,302.3,165.4,307.6,162.7L307.6,162.7z"/>
<path class="st5" d="M256.2,177.9c0.6,12.4-0.1,24.8-1.1,37.1c-11.8,3.6-24.6,4-36.8,1.8c-0.4-12.6-0.8-25.2-0.5-37.8
	c0.2-6.6,0.6-13.4,2.7-19.6c1.9-5.6,5.2-10.9,10-14.1c0.6-0.3,1.1-0.8,1.7-1c2.7,2.4,8.5,3.4,11.8,2c1.7,1.2,3.2,2.6,4.4,4.2
	c2.4,2.9,4.1,6.4,5.2,10C255.4,166.2,255.9,172,256.2,177.9L256.2,177.9z"/>
<path class="st13" d="M292.1,193.1l-4.1-0.3c-0.8-0.1-1.3-0.7-1.2-1.5l1.5-19.7c0.1-0.8,0.7-1.3,1.5-1.2l4.1,0.3
	c0.8,0.1,1.3,0.7,1.2,1.5l-1.5,19.7C293.5,192.6,292.8,193.2,292.1,193.1z"/>
<path class="st6" d="M291.7,171.8h-0.3c-0.5-0.1-0.8-0.5-0.8-0.9l1.2-15.5c0.1-0.5,0.5-0.8,0.9-0.8h0.3c0.5,0.1,0.8,0.5,0.8,0.9
	l-1.2,15.5C292.6,171.4,292.2,171.8,291.7,171.8z"/>
<path class="st21" d="M292.8,155.4c-0.6-0.1-1-0.6-1-1.1l-0.1-3.3l2.9,0.2l-0.6,3.2C293.9,155.1,293.3,155.5,292.8,155.4
	L292.8,155.4z"/>
<path class="st22" d="M290.5,191.4l-0.6-0.1c-0.8-0.1-1.4-0.8-1.3-1.5l1.2-16.3c0.1-0.8,0.8-1.4,1.5-1.3l0.6,0.1
	c0.8,0.1,1.4,0.8,1.3,1.5L292,190C291.9,190.8,291.3,191.4,290.5,191.4L290.5,191.4z"/>
<path class="st23" d="M248.4,150.5c-3.1,0.7-6.4,0.6-9.5-0.2c-1.7-0.5-3.3-1.2-4.7-2c-1.2-0.7-2.3-1.5-3.3-2.4
	c0-0.3-0.1-0.5-0.1-0.8v-0.3l0.2-1c0.7-3.5,1.3-7,1.9-10.5c0.6-3.3,1.1-6.5,1.7-9.7c3.6,1.9,6.9,4.2,10.2,6.8c0,2.2,0,4.4,0.1,6.6
	c0.1,1.9,0.3,3.7,0.5,5.5l0.4,3.1c0.1,1,0.3,1.9,0.5,2.8C247.1,149.1,247.8,149.7,248.4,150.5z"/>
<path class="st24" d="M245.6,142.4c-3.7-3.6-8-6.7-12.5-9.2c0.6-3.3,1.1-6.5,1.7-9.7c3.6,1.9,6.9,4.2,10.2,6.8c0,2.2,0,4.4,0.1,6.6
	C245.1,138.7,245.4,140.6,245.6,142.4L245.6,142.4z"/>
<path class="st25" d="M172.7,331.3c0,0-0.2,8.7,7.6,8.7l0.4,31.2l-20.4-37.7L172.7,331.3L172.7,331.3z"/>
<path class="st5" d="M176.8,371.9l-19.3-35.7c-0.3-0.6-0.1-1.2,0.5-1.5l2.3-1.2l20.4,37.7l-2.3,1.2
	C177.9,372.7,177.2,372.5,176.8,371.9L176.8,371.9z M175.6,346.2c0.1,0.1,0.2,0.1,0.3,0.1c2.7,0.4,4.4,1.4,4.5,1.4
	c0.3,0.2,0.8,0.1,0.9-0.3c0.2-0.3,0-0.8-0.3-1c-0.1-0.1-1.9-1.1-5-1.5c-0.4-0.1-0.7,0.2-0.8,0.6
	C175.2,345.9,175.4,346.1,175.6,346.2L175.6,346.2z M175.7,350.2c0.1,0.1,0.2,0.1,0.3,0.1c2.7,0.4,4.4,1.4,4.5,1.4
	c0.3,0.2,0.8,0.1,0.9-0.3c0.2-0.3,0-0.8-0.3-1c-0.1-0.1-1.9-1.1-5-1.5c-0.4-0.1-0.7,0.2-0.8,0.6C175.4,349.8,175.5,350,175.7,350.2
	L175.7,350.2z M175.8,354c0.1,0.1,0.2,0.1,0.3,0.1c2.7,0.4,4.4,1.4,4.5,1.4c0.3,0.2,0.8,0.1,0.9-0.3c0.2-0.3,0-0.8-0.3-1
	c-0.1-0.1-1.9-1.1-5-1.5c-0.4-0.1-0.7,0.2-0.8,0.6C175.6,353.7,175.6,353.9,175.8,354L175.8,354z"/>
<path class="st25" d="M256.2,357c0,0,7.6,4.2,11.2-2.7l27.8,14.1l-42.9,0.5L256.2,357L256.2,357z"/>
<path class="st5" d="M293.9,372.2l-40.1,0.5c-0.8,0-1.5-0.6-1.5-1.4v-2.4l42.9-0.5v2.4C295.3,371.6,294.6,372.2,293.9,372.2z
	 M270.8,361.4c0.1-0.1,0.2-0.1,0.3-0.2c1.6-2.2,3.3-3.3,3.3-3.3c0.3-0.2,0.4-0.6,0.2-1c-0.2-0.3-0.7-0.4-1-0.2
	c-0.1,0.1-1.9,1.2-3.7,3.7c-0.2,0.3-0.1,0.8,0.2,1C270.3,361.5,270.6,361.5,270.8,361.4L270.8,361.4z M274.4,363.1
	c0.1-0.1,0.2-0.1,0.3-0.2c1.6-2.2,3.3-3.3,3.3-3.3c0.3-0.2,0.4-0.6,0.2-1c-0.2-0.3-0.7-0.4-1-0.2c-0.1,0.1-1.9,1.2-3.7,3.7
	c-0.2,0.3-0.1,0.8,0.2,1C273.9,363.2,274.2,363.2,274.4,363.1L274.4,363.1z M277.9,364.8c0.1-0.1,0.2-0.1,0.3-0.2
	c1.6-2.2,3.3-3.3,3.3-3.3c0.3-0.2,0.4-0.6,0.2-1c-0.2-0.3-0.7-0.4-1-0.2c-0.1,0.1-1.9,1.2-3.7,3.7c-0.2,0.3-0.1,0.8,0.2,1
	C277.4,364.8,277.7,364.9,277.9,364.8L277.9,364.8z"/>
<path class="st4" d="M217.1,235.5c0,0,8.4,55.5-51.8,95l15.3,17.8c0,0,66.9-40.3,62-98.7L217.1,235.5L217.1,235.5z"/>
<path class="st26" d="M213.8,269.2c0.8,1.2,1.7,2.4,2.6,3.7c2.1,3.3,3.9,6.9,5.4,10.5c2.7,6.2,4.8,12.5,6.4,18.9
	c9.5-15.2,16.1-33.1,14.4-52.8l-25.4-14C217.2,235.5,219.2,249.9,213.8,269.2L213.8,269.2z"/>
<path class="st15" d="M256.7,167.5c1.9,17.9,1.5,44.1-1,61.9c0,0,30.4,64.5,21.3,128l-24.9,5.4c0,0-3-83.9-35.2-127.3l-0.1-42
	l26.7-3.5l3-22.4L256.7,167.5L256.7,167.5z"/>
<path class="st4" d="M218.3,198.1c-0.2,0-0.4-0.3-0.7-0.8c-0.1-0.3-0.3-0.6-0.4-1.1c-0.1-0.4-0.3-0.9-0.4-1.5
	c-0.1-0.3-0.1-0.6-0.2-0.9c-0.1-0.3-0.1-0.6-0.2-1c-0.1-0.3-0.1-0.7-0.2-1.1c-0.1-0.4-0.1-0.8-0.2-1.2c-0.1-0.4-0.1-0.8-0.1-1.2
	c-0.1-0.4-0.1-0.9-0.1-1.4c-0.1-1-0.1-1.9-0.2-3c-0.1-2.1,0-4.4,0.1-6.9c0.2-2.5,0.5-5.1,1-7.8c0.5-2.7,1.2-5.5,2.1-8.4
	c0.9-2.9,2.1-6,4.1-8.9c1-1.5,2.2-2.8,3.5-3.8c1.4-1.1,2.9-1.9,4.6-2.5c0.8-0.3,1.7-0.5,2.6-0.6c0.2,0,0.4-0.1,0.6-0.1h1.2
	c0.2,0,0.4,0.1,0.6,0.1c1.7,0.2,3.3,0.8,4.6,1.5c1.4,0.7,2.6,1.6,3.6,2.6l0.8,0.8c0.2,0.3,0.5,0.5,0.7,0.8c0.2,0.3,0.4,0.6,0.6,0.8
	c0.2,0.3,0.4,0.6,0.6,0.8c0.8,1.1,1.3,2.2,1.7,3.3c0.4,1.1,0.8,2.2,1,3.3c0.5,2.1,0.8,4,0.8,5.7c0.1,1.7,0.1,3.1,0,4.2
	c-0.1,2.3-0.3,3.6-0.6,3.6c-0.3,0-0.5-1.2-0.8-3.5c-0.1-1.1-0.3-2.5-0.7-4.1c-0.3-1.5-0.7-3.3-1.4-5.1c-0.7-1.8-1.6-3.7-2.9-5.4
	c-0.2-0.2-0.3-0.4-0.6-0.6c-0.2-0.2-0.3-0.4-0.6-0.6c-0.2-0.2-0.4-0.4-0.6-0.6c-0.2-0.2-0.4-0.3-0.6-0.6c-0.9-0.7-1.9-1.3-2.9-1.8
	c-1-0.5-2.1-0.8-3.3-0.8h-1.2l-0.4,0.1c-0.6,0.1-1.1,0.2-1.7,0.4c-2.2,0.8-4.2,2.6-5.7,4.9c-1.5,2.3-2.6,5-3.4,7.7
	c-0.8,2.7-1.5,5.4-2.1,8c-0.6,2.6-1,5.1-1.2,7.3c-0.3,2.4-0.5,4.5-0.6,6.5c-0.1,1-0.1,1.9-0.1,2.8c0,0.4-0.1,0.9-0.1,1.3v1.2
	c0,0.4,0,0.8-0.1,1.2v2.9c0,0.6-0.1,1.1-0.1,1.5c0,0.4-0.1,0.8-0.1,1.1C218.6,197.8,218.4,198.1,218.3,198.1L218.3,198.1z"/>
<path class="st23" d="M226.7,161.8c0,0.1-0.1,0.3-0.1,0.4c-0.3,3-0.4,6.6,0.2,10.1c0.3,1.8,0.8,3.7,1.4,5.5c0.6,1.9,1.5,3.7,2.5,5.5
	c1,1.8,2.3,3.6,3.7,5.3c1.5,1.7,3.2,3.3,5.1,4.5c1.9,1.3,3.9,2.4,6,3.1c2,0.8,4.1,1.2,6,1.6c1.9,0.3,3.9,0.4,5.7,0.4
	c1.9,0,3.6-0.2,5.3-0.5c3.3-0.6,6.4-1.5,9-2.6c2.6-1.1,4.8-2.4,6.8-3.6c1.9-1.2,3.6-2.4,5-3.5c0.2-0.1,0.3-0.3,0.6-0.4
	c3.4,0.7,7,0,9.9-1.8c3.7-2.3,6.1-6.4,6.4-10.7c0.1-0.8-0.2-1.5-0.7-2c-1.4-1.5-3.5-0.4-4.6,0.9c-1,1.2-2.1,2.6-3.6,2.8
	c-0.9,0.1-1.9-0.2-2.6-0.8c-0.1-0.1-0.2-0.2-0.3-0.3c-0.7-1-2.2-1-2.9-0.1c-0.4,0.6-0.8,1.2-1.1,1.8c-0.6,1.3-1,2.7-1.4,4.2
	c-2.2,0.5-4.9,1.2-8,1.8c-2,0.4-4.2,0.8-6.4,1c-2.3,0.2-4.5,0.2-6.8-0.1c-1.2-0.1-2.3-0.3-3.4-0.6c-1.1-0.3-2.1-0.6-3.2-1
	c-1-0.4-1.9-0.9-2.8-1.5c-0.8-0.6-1.6-1.2-2.3-1.8s-1.2-1.4-1.8-2.2c-0.6-0.8-1-1.6-1.5-2.5c-0.8-1.8-1.5-3.7-1.9-5.7
	c-0.4-1.9-0.6-3.8-0.8-5.8c-0.1-1.5-0.1-3-0.1-4.4C238.8,161.6,232.6,162.6,226.7,161.8L226.7,161.8z"/>
<path class="st15" d="M248,98.6c-0.6-2.7-2.6-5-5.1-6.2c-2.5-1.2-5.4-1.4-8-0.8c-2.8,0.6-5.4,1.9-7.3,4c-1.9,2-3.3,4.8-3.4,7.5
	c-0.3,4.5,2.1,8.7,4.4,12.5C233.3,108.7,240.5,102.5,248,98.6L248,98.6z"/>
<path class="st26" d="M251,93.6c1.3-0.7,2.8-1.4,4.2-1.1c2,0.4,3.3,2.6,3,4.7c-0.2,2.1-1.5,3.8-3,5.2c-3,2.8-7.1,4.4-11.2,4.4
	c-2.4,0-4.8-0.5-7.1-1.5c-0.8-0.3-2.8-1.1-3.2-1.9c-0.6-1.3,0.8-1.5,1.9-2.1C240.8,98.8,245.8,96.2,251,93.6L251,93.6z"/>
<path class="st25" d="M233.9,128.8c-3.5-3.4-5.7-8.2-6-13.2c-0.1-3,0.4-6,1.6-8.7c0.3-0.5,0.6-1,1-1.5c0.8-1,1.6-1.9,2.6-2.7
	c1.7,2.7,2.8,5.8,3.4,8.9C237.5,117.5,236.6,123.6,233.9,128.8L233.9,128.8z M251.3,109.9c1.1,3.1,0.4,6.8-1.7,9.3
	c-1.5-2.2-2.4-4.9-2.6-7.5c-0.1-0.7-0.1-1.5,0.4-2c0.5-0.5,1.2-0.5,1.9-0.4C249.9,109.3,250.6,110,251.3,109.9z"/>
<path class="st23" d="M249.2,108.6c-0.8,3.5,0.7,7.1,2,10.5c1.3,3.3,2.4,7.2,1,10.5c-1.5,3.5-5.6,5.3-9.3,4.6
	c-3.7-0.6-6.8-3.4-8.4-6.7c-1.7-3.4-1.9-7.3-1.5-10.9c0.4-3.7,1.6-7.3,2.7-10.9C240.2,103.4,245.4,105.1,249.2,108.6z"/>
<path class="st23" d="M233.9,117.5c-0.4-0.5-0.9-1-1.5-1.3c-0.6-0.3-1.2-0.5-1.9-0.3c-0.8,0.2-1.5,1-1.7,1.8
	c-0.6,1.5-0.1,3.4,1.2,4.5c1.2,1.1,3.1,1.3,4.6,0.6C234,121,233.9,119.4,233.9,117.5z"/>
<path class="st25" d="M251.7,111.4c-5.3,0-10.7-1.5-15-4.4c0.3,1.6,0.3,3.2-0.2,4.8c-0.6,2.1-2.1,4.2-4,5.5c-1.9-3-3-7.1-2.2-10.5
	c0.1-0.4,0.2-0.8,0.3-1.2c0.8-1,1.6-1.9,2.6-2.7c1.5-1.2,3.2-2.3,5-2.9c4.8-1.7,10.4-1,14.6,1.9l1,1c0.8,0.9,1.5,1.9,1.9,3.1
	C256.6,108.6,254.6,111.4,251.7,111.4L251.7,111.4z"/>
<path class="st13" d="M118.1,56.9c-5.5,2-2.9,9.6,0.6,12.9c3.8,3.7,9.7,5.7,12.9,1.7c1-1.2,0.1-2.7-1.4-2.6
	c-2.4,0.1-4.2-0.6-3.3-2.3c0.8-1.7,4.5,1.6,5.8,1.6c3,0.1,4.2-2.2,3.5-4.1c-0.6-1.5-4.7-2.1-3.7-3.3c1.5-1.8,3.5,1,5.1-0.3
	c2.4-1.9,1.9-5.7,0.9-7.1c-0.8-1.1-4.3-2.8-6.9-1.7c-2.4,1-1.7,6.4-2.8,6.4c-2.2,0.1-0.4-4.6-2.1-6c-1-0.8-4.1-0.3-4.8,1.7
	c-1,2.6,2.6,7.6,0,7.9c-2.4,0.3-1-2.5-1.7-4C120,57.5,119.2,56.5,118.1,56.9L118.1,56.9z"/>
<path class="st27" d="M100.9,100.1L100.9,100.1c-0.2-0.1-0.3-0.1-0.2-0.3c6-18.1,18.2-33.6,34.3-43.6c0.1-0.1,0.3,0,0.3,0.1
	c0.1,0.1,0,0.3-0.1,0.3c-16.1,10-28.2,25.4-34.2,43.4C101.1,100,101,100.1,100.9,100.1L100.9,100.1z"/>
<path class="st13" d="M102.9,41.4c-4,4.2,1.7,9.8,6.4,11.3c5.1,1.6,11.2,0.8,12.4-4.3c0.3-1.5-1.1-2.4-2.4-1.7
	c-2,1.1-3.9,1.4-3.9-0.6c0-1.9,4.7-0.6,6-1.2c2.7-1.3,2.7-3.8,1.2-5.2c-1.2-1.1-5.1,0.3-4.8-1.3c0.5-2.3,3.6-0.7,4.4-2.5
	c1.2-2.8-0.8-6-2.4-6.7c-1.2-0.6-5.1-0.6-6.9,1.6c-1.7,2,1.3,6.4,0.3,7.1c-1.9,1.1-2.4-3.9-4.6-4.4c-1.3-0.3-3.7,1.6-3.5,3.7
	c0.3,2.8,5.8,5.6,3.6,7.1c-2,1.4-2-1.7-3.4-2.8C104.9,41,103.6,40.6,102.9,41.4z"/>
<path class="st27" d="M106.8,87.7c-0.1,0-0.2-0.1-0.2-0.2c-2.8-18.8,1.2-38.1,11.1-54.4c0.1-0.1,0.2-0.1,0.3-0.1
	c0.1,0.1,0.1,0.2,0.1,0.3c-9.9,16.1-13.8,35.4-11,54.1C107,87.6,106.9,87.7,106.8,87.7L106.8,87.7z"/>
<path class="st13" d="M98.6,51c5,3,0.9,9.9-3.3,12.5c-4.5,2.8-10.7,3.7-13.1-0.9c-0.7-1.4,0.4-2.6,1.9-2.3c2.3,0.6,4.2,0.3,3.7-1.5
	c-0.5-1.8-4.7,0.6-6,0.4c-2.9-0.6-3.6-3-2.5-4.7c0.9-1.4,5-1.1,4.3-2.5c-1-2.1-3.7,0.3-4.9-1.2c-1.9-2.4-0.8-6,0.6-7.1
	c1-0.9,4.7-1.9,7.1-0.3c2.1,1.5,0.3,6.6,1.5,6.9c2.1,0.6,1.4-4.4,3.3-5.4c1.2-0.6,4,0.6,4.4,2.6c0.4,2.8-4.2,6.9-1.7,7.8
	c2.3,0.8,1.5-2.2,2.6-3.6C96.6,51.2,97.7,50.4,98.6,51L98.6,51z"/>
<path class="st27" d="M106.7,96.8c-0.1,0-0.2-0.1-0.2-0.2c-2.1-18.8-10.9-36.3-24.6-49.4c-0.1-0.1-0.1-0.2,0-0.3
	c0.1-0.1,0.2-0.1,0.3,0C96,59.9,104.8,77.6,107,96.5C107,96.6,106.9,96.8,106.7,96.8C106.8,96.8,106.7,96.8,106.7,96.8L106.7,96.8z"
	/>
<path class="st28" d="M97,106.6h17.9l2.7-24.5H94.2L97,106.6z"/>
<path class="st29" d="M117.7,86.5H94.1c-0.3,0-0.6-0.3-0.6-0.6l-0.3-3c0-0.4,0.3-0.7,0.6-0.7H118c0.4,0,0.7,0.3,0.6,0.7l-0.3,3
	C118.3,86.3,118,86.5,117.7,86.5z"/>
</svg>
