<svg version="1.1" xmlns="http://www.w3.org/2000/svg" xmlns:xlink="http://www.w3.org/1999/xlink" width="630" height="390" viewBox="0 0 630 390">
<style type="text/css">
	.st0{fill:#EAF1FB;}
	.st1{fill:#F8F9FD;}
	.st2{fill:#FFFFFF;}
	.st3{fill:#D6E0F0;}
	.st4{fill:#E8EDF4;}
	.st5{fill:#CDE4F7;}
	.st6{fill:#FDFCFD;}
	.st7{fill:#F19A77;}
	.st8{fill:#132C45;}
	.st9{fill:#0B1F2E;}
	.st10{fill:#FFDA36;}
	.st11{fill:#E9825F;}
	.st12{fill:#0682A0;}
	.st13{fill:#067487;}
	.st15{fill:#09626C;}
	.st16{fill:#04586C;}
	.st17{fill:#EA505E;}
	.st18{opacity:0.3;fill:#010202;}
	.st19{fill:#F5F5F5;}
	.st20{fill:#9ED2F2;}
	.st22{opacity:0.4;fill:#9ED2F2;}
	.st23{opacity:0.6;fill:#5F96D0;}
	.st24{opacity:0.6;fill:#7DB3E2;}
	.st25{fill:#93C3DB;}
</style>
<path class="st0" d="M314.7,389c173.8,0,314.7-20.2,314.7-45.1c0-24.9-140.9-45.1-314.7-45.1S0,319,0,343.9
	C0,368.8,140.9,389,314.7,389z"/>
<path class="st1" d="M572.9,326.9c35.9-74.6,55.6-217.4-22.1-264.8c-50.9-31-103.9,8.9-158.3,10.7c-42.7,1.4-83.9-32.3-122.4-41.9
	C169,5.7,10.2,71.3,80,326.9C254.7,326.4,398.3,327.4,572.9,326.9z"/>
<path class="st2" d="M471.1,216.7H368.9c-0.7,0-1.3-0.3-1.8-0.7c-0.5-0.5-0.7-1.1-0.7-1.8V65.9c-3.9-55.5,18.3-53.6,53.6-53.6h0
	c56-3.6,53.6,24,53.6,53.6v148.3C473.7,215.6,472.5,216.7,471.1,216.7z"/>
<path class="st3" d="M472.4,218H367.9c-0.8,0-1.6-0.3-2.2-0.9c-0.6-0.6-0.9-1.4-0.9-2.2V42.5c0-8.6,3.4-16.9,9.5-23
	c6.1-6.1,14.4-9.5,23-9.5H443c8.6,0,16.9,3.4,23,9.5c6.1,6.1,9.5,14.4,9.5,23v172.3c0,0.4-0.1,0.8-0.2,1.2s-0.4,0.7-0.7,1
	c-0.3,0.3-0.6,0.5-1,0.7C473.2,217.9,472.8,218,472.4,218L472.4,218z M368.1,214.7h104.1V42.5c0-7.8-3.1-15.2-8.6-20.7
	c-5.5-5.5-12.9-8.6-20.7-8.6h-45.6c-7.8,0-15.2,3.1-20.7,8.6c-5.5,5.5-8.6,12.9-8.6,20.7V214.7L368.1,214.7z"/>
<path class="st3" d="M420.2,216.6c-0.2,0-0.4,0-0.6-0.1c-0.2-0.1-0.4-0.2-0.5-0.4c-0.2-0.2-0.3-0.3-0.4-0.5
	c-0.1-0.2-0.1-0.4-0.1-0.6V11.6c0-0.2,0-0.5,0.1-0.7c0.1-0.2,0.2-0.4,0.3-0.6c0.2-0.2,0.3-0.3,0.5-0.4c0.2-0.1,0.4-0.1,0.7-0.1
	c0.2,0,0.4,0,0.7,0.1c0.2,0.1,0.4,0.2,0.5,0.4c0.2,0.2,0.3,0.4,0.3,0.6c0.1,0.2,0.1,0.4,0.1,0.7V215c0,0.2,0,0.4-0.1,0.6
	c-0.1,0.2-0.2,0.4-0.4,0.5c-0.2,0.2-0.3,0.3-0.5,0.4C420.6,216.6,420.4,216.6,420.2,216.6z"/>
<path class="st3" d="M473.9,169.6H366.5c-0.2,0-0.5,0-0.7-0.1c-0.2-0.1-0.4-0.2-0.6-0.4c-0.2-0.2-0.3-0.3-0.4-0.5
	c-0.1-0.2-0.1-0.4-0.1-0.7c0-0.2,0-0.4,0.1-0.7c0.1-0.2,0.2-0.4,0.4-0.5c0.2-0.2,0.4-0.3,0.6-0.3c0.2-0.1,0.4-0.1,0.7-0.1h107.4
	c0.2,0,0.5,0,0.7,0.1c0.2,0.1,0.4,0.2,0.6,0.3c0.2,0.2,0.3,0.3,0.4,0.5c0.1,0.2,0.1,0.4,0.1,0.7c0,0.2,0,0.4-0.1,0.7
	c-0.1,0.2-0.2,0.4-0.4,0.5c-0.2,0.2-0.4,0.3-0.6,0.4C474.3,169.6,474.1,169.6,473.9,169.6z M473.9,67.5H366.5c-0.2,0-0.5,0-0.7-0.1
	c-0.2-0.1-0.4-0.2-0.6-0.3c-0.2-0.2-0.3-0.3-0.4-0.5c-0.1-0.2-0.1-0.4-0.1-0.7c0-0.2,0-0.4,0.1-0.7c0.1-0.2,0.2-0.4,0.4-0.5
	c0.2-0.2,0.4-0.3,0.6-0.3c0.2-0.1,0.4-0.1,0.7-0.1h107.4c0.2,0,0.5,0,0.7,0.1c0.2,0.1,0.4,0.2,0.6,0.3c0.2,0.2,0.3,0.3,0.4,0.5
	c0.1,0.2,0.1,0.4,0.1,0.7c0,0.2,0,0.4-0.1,0.7c-0.1,0.2-0.2,0.4-0.4,0.5c-0.2,0.2-0.4,0.3-0.6,0.3C474.3,67.5,474.1,67.5,473.9,67.5
	z M473.9,118.6H366.5c-0.2,0-0.5,0-0.7-0.1c-0.2-0.1-0.4-0.2-0.6-0.3c-0.2-0.2-0.3-0.3-0.4-0.5c-0.1-0.2-0.1-0.4-0.1-0.7
	c0-0.2,0-0.4,0.1-0.7c0.1-0.2,0.2-0.4,0.4-0.5c0.2-0.2,0.4-0.3,0.6-0.3c0.2-0.1,0.4-0.1,0.7-0.1h107.4c0.2,0,0.5,0,0.7,0.1
	c0.2,0.1,0.4,0.2,0.6,0.3c0.2,0.2,0.3,0.3,0.4,0.5c0.1,0.2,0.1,0.4,0.1,0.7c0,0.2,0,0.4-0.1,0.7c-0.1,0.2-0.2,0.4-0.4,0.5
	c-0.2,0.2-0.4,0.3-0.6,0.3C474.3,118.6,474.1,118.6,473.9,118.6L473.9,118.6z"/>
<path class="st4" d="M543.6,143.9h5.7v-32.6c-0.9-0.4-1.9-0.7-2.9-0.7s-2,0.2-2.9,0.7V143.9z"/>
<path class="st5" d="M526.2,143.8h5v-32.6c-0.8-0.4-1.6-0.7-2.5-0.7s-1.7,0.2-2.5,0.7V143.8z"/>
<path class="st2" d="M563,143.9l4.5-2.1l-13.7-29.6c-0.9-0.1-1.7,0.1-2.5,0.4c-0.8,0.4-1.5,0.9-2,1.6L563,143.9z M531.1,143.8h5.7
	v-32.6c-0.9-0.4-1.9-0.7-2.9-0.7c-1,0-2,0.2-2.9,0.7V143.8z"/>
<path class="st5" d="M536.8,143.9h6.7v-32.6c-2.2-0.9-4.6-0.9-6.7,0V143.9z"/>
<path class="st3" d="M517.9,144c-0.2,0-0.3,0.1-0.4,0.2c-0.1,0.1-0.2,0.3-0.2,0.4v1.5c0,0.1,0,0.1,0,0.2c0,0.1,0.1,0.1,0.1,0.2
	c0.1,0.1,0.1,0.1,0.2,0.1c0.1,0,0.1,0,0.2,0h56.9c0.2,0,0.3-0.1,0.4-0.2s0.2-0.3,0.2-0.4v-1.5c0-0.2-0.1-0.3-0.2-0.4
	c-0.1-0.1-0.3-0.2-0.4-0.2H517.9z"/>
<path class="st0" d="M141,0h3v57h-3V0z"/>
<path class="st3" d="M159.6,79.6c0-4.4-1.7-8.6-4.8-11.7c-3.1-3.1-7.3-4.8-11.7-4.8s-8.6,1.7-11.7,4.8c-3.1,3.1-4.8,7.3-4.8,11.7
	H159.6z"/>
<path class="st3" d="M149,63.3c0,4.9-2.7,8.8-6.1,8.8c-3.4,0-6.1-3.9-6.1-8.8s2.7-8.8,6.1-8.8C146.2,54.5,149,58.4,149,63.3z"/>
<path class="st3" d="M285.4,134.5c10.6,0,19.2-8.6,19.2-19.2S296.1,96,285.4,96c-10.6,0-19.2,8.6-19.2,19.2S274.8,134.5,285.4,134.5
	z"/>
<path class="st6" d="M285.4,129.9c8.1,0,14.6-6.5,14.6-14.6c0-8.1-6.5-14.6-14.6-14.6c-8.1,0-14.6,6.5-14.6,14.6
	C270.9,123.3,277.4,129.9,285.4,129.9z"/>
<path class="st3" d="M289.7,124.7l-3.5-9.7c-0.1-0.2-0.2-0.4-0.5-0.5c-0.2-0.1-0.5-0.1-0.7-0.1l-10.4,2.4c-0.1,0-0.2,0.1-0.4,0.2
	c-0.1,0.1-0.2,0.2-0.3,0.3c-0.1,0.1-0.1,0.2-0.1,0.4c0,0.1,0,0.3,0,0.4c0,0.1,0.1,0.2,0.2,0.4c0.1,0.1,0.2,0.2,0.3,0.3
	c0.1,0.1,0.2,0.1,0.4,0.1c0.1,0,0.3,0,0.4,0l9.5-2.3l3.2,8.9c0.1,0.2,0.2,0.4,0.4,0.5c0.2,0.1,0.4,0.2,0.6,0.2c0.1,0,0.2,0,0.3-0.1
	c0.1,0,0.2-0.1,0.3-0.2c0.1-0.1,0.2-0.2,0.2-0.3c0.1-0.1,0.1-0.2,0.1-0.4C289.8,124.9,289.7,124.8,289.7,124.7L289.7,124.7z"/>
<path class="st3" d="M285.2,117.3c1.1,0,2-0.9,2-2c0-1.1-0.9-2-2-2c-1.1,0-2,0.9-2,2C283.2,116.4,284.1,117.3,285.2,117.3z"/>
<path class="st3" d="M284.1,357.5l-36.6-117l7.3-1.9l32.6,118.9H284.1z"/>
<path class="st3" d="M219.1,357.5l27.6-119.2l7.4,1.8l-31.7,117.4H219.1L219.1,357.5z"/>
<path class="st3" d="M275.6,320l-44.2,0v-4l43,0L275.6,320L275.6,320z M290,241.7H88V230h202V241.7z"/>
<path class="st4" d="M464.9,258h102.3v90.5H464.9V258z"/>
<path class="st3" d="M473.7,264.9h83.7v31.7h-83.7V264.9z M473.7,303.3h83.7V340h-83.7V303.3z M469.2,348.5h9.1v8h-9.1V348.5z
	 M552.9,348.5h9.1v8h-9.1V348.5z"/>
<path class="st6" d="M482.1,314.9c2.5,0,4.5-2.1,4.4-4.5c0-2.5-2.1-4.5-4.5-4.4c-2.5,0-4.5,2.1-4.4,4.5
	C477.6,312.9,479.7,314.9,482.1,314.9z"/>
<path class="st4" d="M479,270.7l41.6,0l0,11.1l-41.6,0L479,270.7z"/>
<path class="st6" d="M487.7,282.1h45.8v14.4h-45.8V282.1z"/>
<path class="st3" d="M506.4,258h-8.2l-1-10.5h10.2L506.4,258L506.4,258z"/>
<path class="st4" d="M188.6,189.6h63.7V230h-63.7V189.6z"/>
<path class="st6" d="M225,211.4c-0.9,0-1.7-0.3-2.4-0.7c-0.7-0.5-1.3-1.1-1.7-1.9c-0.4-0.8-0.5-1.7-0.3-2.5c0.1-0.9,0.5-1.7,1.1-2.3
	c-0.4-0.1-0.8-0.1-1.1-0.1c-1.1,0-2.2,0.3-3.1,0.9c-0.9,0.6-1.7,1.4-2.2,2.4c-0.5,1-0.7,2.1-0.6,3.2c0.1,1.1,0.5,2.1,1.2,3
	c0.7,0.9,1.6,1.5,2.6,1.9c1,0.4,2.2,0.5,3.2,0.3c1.1-0.2,2.1-0.7,2.9-1.5c0.8-0.8,1.4-1.7,1.7-2.8
	C225.8,211.4,225.4,211.4,225,211.4L225,211.4z"/>
<path class="st7" d="M152.8,195.6c0.2,1.6,0.5,3.3,0.7,5c0.2,1.7,0.5,3.4,0.7,5.1c0.1,0.8,0.2,1.7,0.3,2.6c0.1,0.9,0.2,1.7,0.3,2.6
	c0.3,3.5,0.6,7,0.9,10.6c0.1,3.6,0.3,7.1,0.3,10.6c0,0.9,0,1.7,0.1,2.6l0,2.6c0,1.7-0.1,3.4-0.1,5.1c0,1.7-0.1,3.4-0.1,5
	c0,1.7-0.2,3.3-0.3,4.9c-0.1,1.6-0.2,3.2-0.3,4.9c-0.1,1.6-0.2,3.1-0.4,4.7c-0.4,3.1-0.7,6.1-1.1,9c-0.1,0.7-0.2,1.5-0.3,2.2
	c-0.1,0.7-0.2,1.4-0.3,2.1c-0.2,1.4-0.5,2.8-0.7,4.2c-0.2,1.4-0.5,2.7-0.7,4c-0.1,0.7-0.2,1.4-0.4,2.1c2.5,4.4,3.1,9.7,1.8,14.6
	c-1.6,5.8-6.2,10.4-11.7,11.8c-1.8,0.5-4,0.5-5.4-0.9c-1.6-1.5-1.6-4.2-1.1-6.3c0.5-2.2,1.4-4.3,1.2-6.5c-0.1-2.2-1.9-4.7-3.9-4.3
	c-1.2,0.2-2.6,1.3-3.6,0.4c-0.2-0.3-0.4-0.6-0.4-1c0-0.4,0-0.7,0.2-1.1c0.4-0.6,0.8-1.2,1.4-1.6l7.6-6.1
	c-0.1-40.3-11.4-95.4-14.3-109.1c-0.4-2-0.7-3.1-0.7-3.1c8-1.2,15.6-4.5,21.8-9.7c0.2,0.7,0.5,1.3,0.7,2l1.4,4
	c0.2,0.7,0.5,1.4,0.7,2.1l0.6,2.1c0.8,2.8,1.6,5.8,2.4,8.8c0.4,1.5,0.7,3,1,4.6c0.1,0.4,0.2,0.9,0.3,1.3c0.2,1.1,0.5,2.3,0.7,3.5
	C152.2,192.4,152.5,194,152.8,195.6L152.8,195.6z"/>
<path class="st8" d="M118.9,388.8c-0.8-10.8-1.8-21.2-2.9-30.9c-1.5-13-3.3-25.9-5.5-38.7c-0.9,13.6-1.9,26.5-3,38.6
	c-1,11-2,21.3-3,31.1H66.9c0.6-10.5,1-20.3,1.2-29.5c0.2-8.1,0.4-15.7,0.4-22.9c0.1-10.3,0-19.6-0.2-27.9c0-1.8-0.1-3.6-0.2-5.3
	c-0.2-7.2-0.6-13.6-0.9-19.2c0-0.6-0.1-1.1-0.1-1.6c-0.2-2.4-0.3-4.7-0.5-6.8c0-0.2,0-0.5,0-0.7c-0.1-1.3-0.2-2.6-0.3-3.8
	c-0.5-5.7-1.1-10.1-1.5-13.2l46,1l30,0.6l0.6,3.7c0,0.3,0.1,0.6,0.1,0.8c0.4,2.3,0.8,4.6,1.1,6.8c0.8,5,1.6,10,2.3,15
	c0.5,3.2,0.9,6.4,1.3,9.6c0.5,3.7,0.9,7.3,1.3,11c0.1,1.3,0.3,2.5,0.4,3.8c0.9,8.3,1.7,16.5,2.3,24.6c0.7,8.7,1.2,17.2,1.6,25.5
	c0.5,9.8,0.8,19.4,0.9,28.6"/>
<path class="st9" d="M115.7,356.6l3.1,32.2H131c-1.5-41.7-7.5-72.9-7.5-72.9l-13,3.3c1.9,11.5,3.8,24.5,5.4,38.7"/>
<path class="st10" d="M82.6,96.9c1.6,6,3.2,12,4.9,18.1c1.1,4.2,2.5,8.7,5.9,11.4c1.6,1.2,3.6,1.8,5.6,1.9c2,0.1,4-0.4,5.7-1.5
	c-4.9-4.5-8.6-10.3-10.7-16.6c-1-3-1.6-6.2-3.2-8.9C89.2,98.6,85.8,96.6,82.6,96.9L82.6,96.9z"/>
<path class="st8" d="M142.1,256.7c1.3,8,2.8,16.2,4.5,24.6c-6.4,0.8-12.8,1.4-19.2,1.8c-21,1.3-42,0.4-62.9-2.6
	c-0.1-3.2-0.2-6.9-0.3-10.9c-0.3-8.3-0.6-18.1-1.1-28c-0.4-7.5-0.8-15.1-1.3-22.4c-0.7-10.9-1.6-21-2.6-28.4
	c-1.6-12-3.2-25.7,4.6-35c4.5-5.4,11.2-8.2,17.7-10.8l7.4-3c0.1,0,0.1-0.1,0.2-0.1c4.4-1.8,8.8-3.5,13.3-5.3
	c5.1,2.6,10.8,5.2,16.6,7.8c1.3,0.6,2.5,1.2,3.8,1.7h0c1.1,0.2,44.1-6.1,32,137.6c-6-1-12-1.4-18-1.3c0.4,15.5,0.6-60.2,3.6-38
	c0.2,1.4,0.4,2.8,0.6,4.2C141.2,251.2,141.6,254,142.1,256.7L142.1,256.7z"/>
<path class="st7" d="M94.7,131.6c-0.2,4.9-1.4,9.7-3.5,14.2c8.8,2.2,18,2.5,27,0.9c-1.5-4.6-2.3-9.4-2.4-14.3v-2.7
	c0.1-2.1,0.3-4.1,0.6-6.1c-4.6-8.1-15.9-12.3-26.3-12c3.3,6.1,4.9,13,4.6,19.9C94.7,131.4,94.7,131.5,94.7,131.6z"/>
<path class="st10" d="M119.9,83.4c1.1,3,1.5,6.1,1.2,9.3c-0.3,3.1-1.2,6.2-2.8,9c-0.7-4.4-1.4-8.6-2.1-13.1c-0.3-2-0.5-4.4,1-5.9
	c0.2-0.2,0.5-0.4,0.8-0.5c0.3-0.1,0.6-0.1,0.9-0.1C119.5,82.2,120.2,82.8,119.9,83.4z"/>
<path class="st11" d="M94.5,125.1c0.3,2.1,0.3,4.2,0.3,6.3v0.2c1.9-0.7,4-1,6-0.9c3,0.1,5.8,0.9,8.7,1.4c2.1,0.4,4.3,0.5,6.4,0.3
	v-2.7c0.1-2.1,0.3-4.1,0.6-6.1c-4.6-8.1-15.9-12.3-26.3-12C92.4,115.7,93.9,120.3,94.5,125.1L94.5,125.1z"/>
<path class="st7" d="M118.1,81.4c-1.4,8.7,0,17.7,4.1,25.6c2.3,4.4,5.5,8.8,5.1,13.8c-0.6,6.5-7.9,10.9-14.4,10.1
	S101,125.3,97.1,120c-3.5-4.9-5.9-10.5-7.2-16.3c-1.3-5.9-1.4-11.9-0.3-17.9C98.5,81.6,108.4,80,118.1,81.4L118.1,81.4z"/>
<path class="st10" d="M91.3,108c2.4-6,3.1-12.6,1.8-19c3.1,1.2,6.3,1.8,9.6,1.8c3.3-0.1,6.6-0.8,9.6-2.2c3.4-1.6,6.4-4,8.7-7
	c0.6-0.8,1.1-1.8,1.3-2.8c0.2-1,0.1-2.1-0.2-3.1c-0.3-1-0.8-1.9-1.5-2.7c-0.7-0.8-1.6-1.4-2.6-1.7c-5-1.9-10.2-2.9-15.6-3.2
	c-3.3-0.2-6.8,0.1-9.7,1.8c-1.9,1.2-3.3,2.9-4.2,4.9c-0.8,2-1,4.3-0.6,6.4c-2.7-0.7-5.5,1.5-6.7,4c-1.1,2.6-0.9,5.5-0.2,8.3
	C82.7,99.7,86.1,104.2,91.3,108z"/>
<path class="st7" d="M91.8,107.5c0-0.6-0.2-1.3-0.6-1.8c-0.4-0.5-1-0.8-1.6-0.9c-0.6-0.1-1.3,0-1.9,0.3c-0.6,0.3-1.1,0.7-1.4,1.3
	c-0.7,1.1-0.9,2.4-0.6,3.7c0.3,1.3,0.8,2.4,1.6,3.5c1,1.6,2.6,2.9,4.4,3.6c1.8,0.6,4.1,0.1,5.1-1.5
	C94.4,113.2,91.5,110.8,91.8,107.5L91.8,107.5z"/>
<path class="st4" d="M92.9,147.2h22.3l-7.1,61.3L92.9,147.2L92.9,147.2z"/>
<path class="st2" d="M101,147.5l-7.3-4.8l0.5-6.1l-9.4,7.1l12.6,21.7L101,147.5z M110.4,147.6l6.8-2.2l-0.5-6.1l9.4,7.1l-12.8,18.3
	L110.4,147.6z"/>
<path class="st12" d="M99.8,153.3h11.5l1.3,7.7c0.2,1.1,0.1,2.2-0.3,3.3c-0.4,1-1.1,2-2,2.6l-3.8,2.9l-5-2.5
	c-1.2-0.6-2.2-1.6-2.8-2.8c-0.6-1.2-0.8-2.6-0.5-3.9L99.8,153.3z"/>
<path class="st9" d="M143.9,282.4l-9.3-113.1l5.8,19.4L143.9,282.4z"/>
<path class="st13" d="M101.6,167.4l-0.4,13l7,28l3.5-30.6l-1.6-10.7h-9"/>
<path class="st9" d="M105.9,219.7c1,0,1.9-0.8,1.9-1.9c0-1-0.8-1.9-1.9-1.9s-1.9,0.8-1.9,1.9C104,218.9,104.9,219.7,105.9,219.7z"/>
<path class="st9" d="M105.9,251.9c1,0,1.9-0.8,1.9-1.9c0-1-0.8-1.9-1.9-1.9S104,249,104,250C104,251.1,104.9,251.9,105.9,251.9z"/>
<path class="st9" d="M106.4,267.7c1,0,1.9-0.8,1.9-1.9s-0.8-1.9-1.9-1.9s-1.9,0.8-1.9,1.9S105.4,267.7,106.4,267.7z"/>
<path class="st9" d="M84.4,300.9l61.7-6.3l0.3,2.3L84.4,300.9L84.4,300.9z"/>
<path class="st5" d="M113.7,202.1l6.6,45.1l6.1,1.2l-6.1-44.5L113.7,202.1z"/>
<path class="st6" d="M152.2,233.9l-3.2-45.3l-28.8,15.2l6.1,44.3L152.2,233.9z"/>
<path class="st3" d="M113.7,202.1l6.6,1.7l28.8-15l-5.3-2L113.7,202.1z"/>
<path class="st7" d="M54.8,243.5c0.9,0.1,1.7,0.2,2.6,0.3l2.6,0.2l5.1,0.3l5,0.3l4.9,0.1l4.9,0c1.6,0,3.2,0.1,4.7,0l9.1-0.3l2.2-0.1
	c0.7,0,1.4-0.1,2.2-0.2l4.2-0.4l4.1-0.4l2.1-0.2c4.2,2.8,9.4,3.9,14.4,3c5.9-1.1,10.9-5.3,12.8-10.7c0.6-1.8,0.8-4-0.4-5.5
	c-1.4-1.7-4-1.9-6.2-1.6c-2.2,0.3-4.4,1-6.6,0.7c-2.2-0.3-4.5-2.2-4-4.3c0.3-1.2,1.5-2.5,0.7-3.5c-0.3-0.3-0.6-0.4-1-0.5
	c-0.4-0.1-0.7,0-1.1,0.1c-0.6,0.3-1.2,0.7-1.7,1.3l-6.7,7.1"/>
<path class="st0" d="M144.4,282.5l10.4,1.2l-1.2,2.8l-8.7-0.7L144.4,282.5z"/>
<path class="st8" d="M63.8,155.7c0,0-58.2,58.1-32.4,77.9c25.9,19.8,68.8,12.2,68.8,12.2l0.9-19.2c0,0-45.3-4.7-46.4-15.1
	c-0.6-5.3,14.8-16.5,14.8-16.5L63.8,155.7z"/>
<path class="st0" d="M101.1,226.6h3.4l0,19.2h-4.3L101.1,226.6z"/>
<path class="st9" d="M63.6,246.1c0,0,20.6,5.2,36.6-0.2c0,0-17.4,9.8-36.6,2.5"/>
<path class="st2" d="M537.6,191c-1.2,10.6,1,21.2,1,31.8c9.2,3.7,19.2,5,29.1,3.8c1.1-10.7,2.2-21.5,2.7-32.3
	c0.2-5.7,0.3-11.4-1.1-16.9c-1.3-4.9-3.8-9.6-7.7-12.7c-0.4-0.4-0.9-0.7-1.4-1c-2.5,1.9-7.6,2.4-10.3,1c-1.5,0.9-2.9,2.1-4.1,3.4
	c-2.2,2.4-3.9,5.2-5.1,8.2C538.9,181,538.2,186,537.6,191L537.6,191z"/>
<path class="st7" d="M545.8,168.1c4.1,1.2,8.5,0.8,12.3-1.1c1-0.5,2-1.2,2.9-1.9c0-0.2,0.1-0.4,0.1-0.6c0-0.1,0-0.2,0-0.3
	c0-0.3-0.1-0.6-0.1-0.9c-0.4-3-0.7-6.1-1-9.1c-0.3-2.8-0.6-5.6-0.8-8.4c-3.2,1.4-6.3,3.1-9.2,5.1c-0.1,1.9-0.3,3.8-0.5,5.7
	c-0.2,1.6-0.4,3.2-0.7,4.7c-0.2,0.9-0.3,1.7-0.5,2.6c-0.2,0.9-0.4,1.6-0.6,2.4C547.1,166.8,546.4,167.4,545.8,168.1z"/>
<path class="st11" d="M548.8,161.3c3.3-0.9,7.1-1.7,11.3-7.1c-0.3-2.8-0.6-5.6-0.8-8.4c-3.2,1.4-6.3,3.2-9.2,5.2
	c-0.1,1.9-0.3,3.8-0.5,5.6C549.3,158.1,549.1,159.7,548.8,161.3L548.8,161.3z"/>
<path class="st8" d="M603,329.5c0,0-1.3,7.4-7.9,6.1l-5.5,26.3l23.6-28.5L603,329.5z"/>
<path class="st2" d="M592.7,363.2l22.3-27c0.1-0.1,0.1-0.2,0.2-0.3c0-0.1,0.1-0.3,0-0.4c0-0.1,0-0.3-0.1-0.4
	c-0.1-0.1-0.1-0.2-0.2-0.3l-1.7-1.4l-23.5,28.5l1.7,1.4c0.2,0.2,0.4,0.2,0.7,0.2C592.3,363.5,592.5,363.4,592.7,363.2L592.7,363.2z
	 M598,341.7c-0.1,0-0.2,0.1-0.3,0.1c-1.4-0.1-2.7,0.1-4,0.4c-0.1,0-0.2,0-0.2,0c-0.1,0-0.2,0-0.2-0.1c-0.1,0-0.1-0.1-0.2-0.1
	c0-0.1-0.1-0.1-0.1-0.2c0-0.2,0-0.3,0.1-0.5c0.1-0.1,0.2-0.2,0.4-0.3c1.4-0.4,2.9-0.6,4.4-0.5c0.1,0,0.2,0,0.2,0.1
	c0.1,0,0.1,0.1,0.2,0.1c0.1,0.1,0.1,0.1,0.1,0.2c0,0.1,0,0.2,0,0.2c0,0.1,0,0.2-0.1,0.3C598.2,341.6,598.1,341.6,598,341.7
	L598,341.7z M597.3,344.9c-0.1,0.1-0.2,0.1-0.3,0.1c-1.4-0.1-2.7,0.1-4,0.4c-0.1,0-0.2,0-0.2,0c-0.1,0-0.2,0-0.2-0.1
	c-0.1,0-0.1-0.1-0.2-0.1c0-0.1-0.1-0.1-0.1-0.2c0-0.2,0-0.3,0.1-0.5c0.1-0.1,0.2-0.2,0.4-0.3c1.4-0.4,2.9-0.6,4.4-0.5
	c0.1,0,0.2,0,0.2,0.1c0.1,0,0.1,0.1,0.2,0.1c0.1,0.1,0.1,0.1,0.1,0.2c0,0.1,0,0.2,0,0.2c0,0.1,0,0.2-0.1,0.3
	C597.4,344.8,597.4,344.9,597.3,344.9L597.3,344.9z M596.5,348.3c-0.1,0.1-0.2,0.1-0.3,0.1c-1.4-0.1-2.7,0.1-4,0.4
	c-0.1,0-0.2,0-0.2,0c-0.1,0-0.2,0-0.2-0.1c-0.1,0-0.1-0.1-0.2-0.1c0-0.1-0.1-0.1-0.1-0.2c0-0.2,0-0.3,0.1-0.5
	c0.1-0.1,0.2-0.2,0.4-0.3c1.4-0.4,2.9-0.6,4.4-0.5c0.1,0,0.2,0,0.2,0.1c0.1,0,0.1,0.1,0.2,0.1c0.1,0.1,0.1,0.1,0.1,0.2
	c0,0.1,0,0.2,0,0.2c0,0.1,0,0.2-0.1,0.3C596.7,348.1,596.6,348.2,596.5,348.3z"/>
<path class="st8" d="M527.6,346c0,0-7.1,2.5-9.1-4l-25.7,7.8l36.3,6.9L527.6,346z"/>
<path class="st2" d="M493.3,353.2l33.9,6.5c0.3,0.1,0.6,0,0.9-0.2s0.4-0.5,0.5-0.8l0.4-2l-36.3-6.9l-0.4,2c0,0.2,0,0.3,0,0.5
	c0,0.2,0.1,0.3,0.2,0.4c0.1,0.1,0.2,0.2,0.4,0.3C493,353.1,493.1,353.2,493.3,353.2L493.3,353.2z M514.5,347.5
	c-0.1-0.1-0.2-0.1-0.2-0.2c-0.6-1.2-1.4-2.3-2.3-3.3c-0.1-0.1-0.1-0.1-0.1-0.2c0-0.1,0-0.2,0-0.2c0-0.1,0-0.2,0-0.2
	c0-0.1,0.1-0.1,0.1-0.2c0.1-0.1,0.3-0.2,0.4-0.2c0.2,0,0.3,0.1,0.4,0.2c1,1.1,1.9,2.3,2.6,3.7c0,0.1,0.1,0.1,0.1,0.2
	c0,0.1,0,0.2,0,0.2c0,0.1-0.1,0.1-0.1,0.2c-0.1,0.1-0.1,0.1-0.2,0.1c-0.1,0-0.2,0.1-0.3,0.1C514.7,347.6,514.6,347.6,514.5,347.5
	L514.5,347.5z M511.3,348.4c-0.1-0.1-0.2-0.1-0.2-0.2c-0.6-1.2-1.4-2.3-2.3-3.3c-0.1-0.1-0.1-0.1-0.1-0.2c0-0.1,0-0.1,0-0.2
	s0-0.2,0-0.2c0-0.1,0.1-0.1,0.1-0.2c0.1-0.1,0.3-0.2,0.4-0.2c0.2,0,0.3,0.1,0.4,0.2c1,1.1,1.9,2.3,2.5,3.7c0,0.1,0.1,0.1,0.1,0.2
	c0,0.1,0,0.2,0,0.2c0,0.1-0.1,0.1-0.1,0.2c-0.1,0.1-0.1,0.1-0.2,0.1c-0.1,0-0.2,0.1-0.3,0.1C511.4,348.5,511.3,348.5,511.3,348.4
	L511.3,348.4z M508,349.3c-0.1-0.1-0.1-0.1-0.2-0.2c-0.6-1.2-1.4-2.3-2.3-3.3c-0.1-0.1-0.1-0.1-0.1-0.2c0-0.1,0-0.1,0-0.2
	c0-0.1,0-0.2,0-0.2c0-0.1,0.1-0.1,0.1-0.2c0.1-0.1,0.3-0.2,0.4-0.2c0.2,0,0.3,0.1,0.4,0.2c1,1.1,1.9,2.3,2.6,3.7
	c0,0.1,0.1,0.1,0.1,0.2c0,0.1,0,0.2,0,0.2c0,0.1-0.1,0.1-0.1,0.2c-0.1,0.1-0.1,0.1-0.2,0.1c-0.1,0-0.2,0.1-0.3,0.1
	C508.2,349.4,508.1,349.4,508,349.3L508,349.3z"/>
<path class="st13" d="M567.5,242.6c0,0-10.3,49.4,38.8,86.8l-14.2,14.3c0,0-55-40.9-47.4-90.6L567.5,242.6z"/>
<path class="st15" d="M568.5,271.7c-0.8,1-1.6,2-2.4,3c-2,2.8-3.8,5.7-5.3,8.7c-2.7,5.1-4.9,10.4-6.7,15.8
	c-7.2-13.6-11.8-29.4-9.2-46.3l22.7-10.5C567.5,242.6,565,254.8,568.5,271.7L568.5,271.7z"/>
<path class="st12" d="M537.7,182.1c-2.6,15.2,0.9,37.5,2,52.9c0,0-34.7,53.5-30.7,108.4l20.9,6.1c0,0,7.6-71.6,37.7-106.8l2.6-35.9
	l-22.7-4.6l-1.2-19.3L537.7,182.1z"/>
<path class="st13" d="M568.8,210.6c0.2,0,0.4-0.2,0.6-0.7c0.2-0.3,0.3-0.6,0.4-0.9c0.2-0.4,0.3-0.8,0.5-1.3l0.2-0.8
	c0.1-0.3,0.2-0.5,0.2-0.8c0.1-0.3,0.2-0.6,0.2-0.9c0.1-0.3,0.1-0.7,0.2-1c0.1-0.3,0.1-0.7,0.2-1.1c0.1-0.4,0.1-0.8,0.2-1.2
	c0.1-0.8,0.2-1.6,0.3-2.5c0.2-1.8,0.3-3.7,0.3-5.9c0-4.8-0.6-9.5-1.7-14.1c-0.6-2.7-1.6-5.4-3-7.8c-0.8-1.3-1.7-2.4-2.8-3.5
	c-1.1-1-2.4-1.9-3.8-2.4c-0.7-0.3-1.4-0.5-2.2-0.6l-0.6-0.1l-0.6,0h-1.1c-1.4,0.1-2.8,0.4-4,1c-1.2,0.5-2.3,1.2-3.2,2
	c-0.2,0.2-0.5,0.4-0.7,0.6l-0.6,0.6l-0.6,0.7c-0.2,0.2-0.4,0.4-0.5,0.7c-0.7,0.9-1.2,1.8-1.7,2.8c-0.4,0.9-0.8,1.8-1.1,2.7
	c-0.5,1.6-0.8,3.2-1,4.8c-0.2,1.2-0.3,2.4-0.3,3.6c0,2,0.1,3.1,0.3,3.1s0.5-1.1,0.9-3c0.2-1,0.5-2.1,0.8-3.5
	c0.4-1.5,0.9-2.9,1.5-4.3c0.7-1.6,1.6-3.1,2.8-4.5c0.2-0.2,0.3-0.3,0.5-0.5l0.5-0.5l0.6-0.5c0.2-0.2,0.4-0.3,0.6-0.4
	c0.8-0.6,1.7-1,2.6-1.4c0.9-0.3,1.9-0.5,2.9-0.5h0.4c0.1,0,0.2,0,0.4,0l0.4,0l0.4,0.1c0.5,0.1,0.9,0.3,1.4,0.5c2,1,3.6,2.6,4.6,4.5
	c1.1,2.1,1.9,4.4,2.4,6.8c0.6,2.4,1,4.7,1.3,6.9c0.3,2.2,0.5,4.4,0.6,6.3c0.1,2,0.2,3.9,0.2,5.5c0,0.9,0,1.7,0,2.4v1.1
	c0,0.4,0,0.7,0,1.1c0,0.4,0,0.7,0,1c0,0.3,0,0.6,0,0.9c0,0.3,0,0.6,0,0.8v3C568.5,210.2,568.6,210.5,568.8,210.6L568.8,210.6z"/>
<path class="st12" d="M549.5,128.1c0.3-1,0.9-2,1.6-2.7c0.7-0.8,1.6-1.4,2.6-1.8c2-0.8,4.2-0.8,6.3-0.2c2.1,0.6,4,1.8,5.5,3.5
	c1.4,1.7,2.2,3.9,2.2,6.1c0,3.5-2.1,6.6-4.1,9.5C560.2,136.6,555.3,131.7,549.5,128.1L549.5,128.1z"/>
<path class="st16" d="M547.5,124.1c-1-0.6-2.1-1.2-3.2-1.1c-1.6,0.2-2.7,1.9-2.6,3.5c0.2,1.6,0.9,3.1,2.1,4.2c1.8,1.9,4,3.1,6.5,3.7
	c2.5,0.6,5.1,0.4,7.5-0.5c0.6-0.2,2.2-0.7,2.6-1.3c0.5-1-0.5-1.2-1.3-1.7L547.5,124.1z"/>
<path class="st8" d="M558.9,152.4c2.4-2,4.1-4.7,4.9-7.6c0.8-3,0.7-6.2-0.4-9.1c-0.2-0.4-0.4-0.8-0.7-1.2c-0.5-0.8-1.1-1.6-1.8-2.2
	c-1.5,2-2.5,4.3-3.1,6.8C556.6,143.5,557,148.2,558.9,152.4L558.9,152.4z M546.3,136.8c-0.5,1.2-0.7,2.5-0.5,3.8
	c0.2,1.3,0.6,2.5,1.4,3.5c1.2-1.7,2.1-3.6,2.5-5.7c0.1-0.3,0.1-0.5,0.1-0.8c0-0.3-0.1-0.5-0.3-0.8c-0.2-0.2-0.4-0.3-0.7-0.4
	c-0.3-0.1-0.5-0.1-0.8,0C547.4,136.4,546.8,136.9,546.3,136.8z"/>
<path class="st7" d="M548,135.8c0.4,2.8-0.9,5.5-2.1,8c-1.2,2.5-2.3,5.4-1.3,8.1c1,2.8,4.1,4.4,7,4.2c1.4-0.2,2.8-0.7,4-1.6
	c1.2-0.8,2.2-1.9,2.9-3.2c1.4-2.6,2-5.5,1.8-8.4c-0.2-2.9-0.7-5.8-1.5-8.6C555.3,132.3,551.1,133.4,548,135.8z"/>
<path class="st7" d="M559.5,143.6c0.4-0.4,0.8-0.7,1.2-0.9c0.5-0.2,1-0.3,1.5-0.1c0.3,0.1,0.6,0.3,0.8,0.6c0.2,0.3,0.4,0.6,0.4,0.9
	c0.2,0.6,0.1,1.3-0.1,1.9c-0.2,0.6-0.6,1.1-1.1,1.5c-0.5,0.4-1.1,0.6-1.8,0.7c-0.6,0-1.3-0.1-1.8-0.4
	C559.1,146.4,559.4,145,559.5,143.6L559.5,143.6z"/>
<path class="st8" d="M545.9,137.9c4.1,0.3,8.3-0.6,11.9-2.6c-0.4,1.2-0.4,2.5-0.1,3.7c0.4,1.8,1.4,3.4,2.8,4.5
	c1.7-2.3,2.7-5.4,2.3-8.1c0-0.3-0.1-0.7-0.2-1c-0.5-0.8-1.1-1.6-1.8-2.2c-1.1-1.1-2.3-1.9-3.7-2.5c-1.8-0.8-3.8-1.1-5.8-1
	c-2,0.1-3.9,0.7-5.7,1.6c-0.3,0.2-0.6,0.5-0.9,0.7c-0.7,0.7-1.2,1.4-1.6,2.3c-0.2,0.5-0.3,1-0.3,1.5c0,0.5,0.2,1,0.5,1.5
	c0.3,0.4,0.6,0.8,1.1,1.1C544.9,137.7,545.4,137.9,545.9,137.9L545.9,137.9z"/>
<path class="st7" d="M520.2,241.6c0.4,0.1,0.8,0.2,1.2,0.2l0.7,0.1c0.3,0,0.5,0,0.8,0c0.6,0,1.3,0,2,0c0.7,0,1.5-0.1,2.4-0.2
	s1.8-0.2,2.7-0.4c1-0.2,2-0.4,3-0.6l0.8-0.2c0.3-0.1,0.5-0.2,0.8-0.2l1.7-0.5c0.6-0.2,1.2-0.4,1.7-0.6c0.6-0.2,1.2-0.5,1.8-0.7
	l1.8-0.9c0.3-0.2,0.6-0.3,0.9-0.5l0.9-0.5c0.6-0.3,1.2-0.7,1.9-1.1l1.9-1.2c0.6-0.4,1.2-0.9,1.9-1.4c0.6-0.5,1.3-0.9,1.9-1.5
	l1.8-1.6l1.8-1.8c2.4-2.6,4.5-5.5,6.2-8.5c1.7-3.2,3.1-6.5,4-10c0.2-0.8,0.4-1.7,0.6-2.5c0.2-0.8,0.3-1.7,0.4-2.5
	c0.1-0.8,0.2-1.6,0.2-2.5c0.1-0.8,0.1-1.6,0.1-2.4c0-0.8,0-1.6,0-2.4c0-0.8-0.1-1.5-0.2-2.3c0-0.4-0.1-0.7-0.1-1.1
	c0-0.4-0.1-0.7-0.2-1.1c-0.1-0.6-0.2-1.2-0.3-1.8c-5.8,1.8-12.1,1.5-17.7-0.8c0,0.2,0,0.4,0.1,0.6c0.1,0.4,0.1,0.9,0.1,1.4
	c0,0.5,0.1,0.9,0.1,1.4c0,0.5,0,0.9,0.1,1.4c0,0.2,0,0.5,0,0.7c0,0.2,0,0.5,0,0.7c0,0.5,0,1,0,1.5c0,0.5,0,1,0,1.6c0,0.5,0,1,0,1.6
	c0,0.5,0,1.1-0.1,1.6c-0.1,0.5-0.1,1.1-0.1,1.7c0,0.6-0.1,1.1-0.2,1.7c-0.3,2.3-0.8,4.7-1.5,6.9c-0.7,2.3-1.7,4.6-2.8,6.7l-0.9,1.6
	l-1,1.5c-0.3,0.5-0.7,1-1,1.5s-0.7,1-1,1.4l-1.1,1.4c-0.4,0.4-0.8,0.8-1.1,1.3l-0.6,0.6l-0.6,0.6l-1.2,1.1c-0.4,0.4-0.8,0.7-1.2,1
	c-0.4,0.4-0.8,0.7-1.2,1l-1.2,0.9c-0.2,0.1-0.4,0.3-0.6,0.4l-0.6,0.4c-0.8,0.5-1.5,1.1-2.2,1.5c-0.7,0.4-1.4,0.9-2.1,1.2
	c-0.7,0.3-1.3,0.7-1.9,1c-0.6,0.3-1.2,0.5-1.7,0.8c-0.2,0.1-0.5,0.3-0.7,0.4s-0.4,0.2-0.6,0.3c-0.3,0.2-0.7,0.3-1,0.5
	c-0.5,0.3-0.8,0.6-0.8,0.9C519.3,241.2,519.6,241.4,520.2,241.6L520.2,241.6z"/>
<path class="st17" d="M433.6,239.3l25.4-1.5l1,17.5l-25.4,1.5L433.6,239.3z"/>
<path class="st18" d="M434.1,247.3l25.2-4l-0.3-5.4l-25.4,1.5L434.1,247.3L434.1,247.3z"/>
<path class="st8" d="M421.5,257.3l51.5-3c0.8,0,1.5,0.2,2.1,0.7c0.6,0.5,0.9,1.3,1,2l0.2,2.9l-57.4,3.4l-0.2-2.9
	c0-0.4,0-0.8,0.2-1.1c0.1-0.4,0.3-0.7,0.6-1c0.3-0.3,0.6-0.5,0.9-0.7C420.8,257.4,421.1,257.3,421.5,257.3L421.5,257.3z"/>
<path class="st17" d="M360.5,135.9c-0.8,0.1-1.6,0.4-2.1,1c-0.5,0.6-0.8,1.4-0.8,2.2l6.2,104.9c0,0.8,0.4,1.6,1,2.1
	c0.6,0.5,1.4,0.8,2.2,0.8l158.9-9.3c0.4,0,0.8-0.1,1.2-0.3c0.4-0.2,0.7-0.4,1-0.7c0.3-0.3,0.5-0.7,0.6-1c0.1-0.4,0.2-0.8,0.2-1.2
	l-6.2-104.9c0-0.4-0.1-0.8-0.3-1.2c-0.2-0.4-0.4-0.7-0.7-1c-0.3-0.3-0.7-0.5-1-0.6c-0.4-0.1-0.8-0.2-1.2-0.2L360.5,135.9
	L360.5,135.9z"/>
<path class="st8" d="M367.5,234.4l156.5-9.2c0.5,0,0.9-0.2,1.2-0.6c0.3-0.3,0.5-0.8,0.4-1.2l-5.4-92c0-0.5-0.2-0.9-0.6-1.2
	c-0.3-0.3-0.8-0.5-1.2-0.4l-156.5,9.2c-0.5,0-0.9,0.2-1.2,0.6c-0.3,0.3-0.5,0.8-0.4,1.2l5.4,92c0,0.5,0.2,0.9,0.6,1.2
	C366.6,234.2,367.1,234.4,367.5,234.4L367.5,234.4z"/>
<path class="st19" d="M443.1,235.8c0,0.6,0.3,1.2,0.6,1.7c0.4,0.5,0.9,0.8,1.4,1c0.6,0.2,1.2,0.2,1.8,0.1c0.6-0.2,1.1-0.5,1.5-0.9
	c0.4-0.5,0.7-1,0.7-1.6c0.1-0.6,0-1.2-0.3-1.8c-0.3-0.5-0.7-1-1.2-1.3c-0.5-0.3-1.1-0.5-1.7-0.4c-0.8,0-1.6,0.4-2.1,1
	C443.3,234.2,443,235,443.1,235.8L443.1,235.8z"/>
<path class="st20" d="M372.5,229.5l146.2-8.6c0.4,0,0.8-0.2,1.1-0.5c0.3-0.3,0.4-0.7,0.4-1.1l-4.9-83.2c0-0.2-0.1-0.4-0.2-0.6
	c-0.1-0.2-0.2-0.4-0.4-0.5c-0.2-0.1-0.3-0.2-0.5-0.3c-0.2-0.1-0.4-0.1-0.6-0.1l-146.2,8.6c-0.4,0-0.8,0.2-1.1,0.5
	c-0.3,0.3-0.4,0.7-0.4,1.1l4.9,83.2c0,0.4,0.2,0.8,0.5,1.1C371.7,229.3,372.1,229.5,372.5,229.5L372.5,229.5z"/>
<path class="st2" d="M375.9,226.3l139.1-8.2c0.4,0,0.7-0.2,0.9-0.5c0.2-0.3,0.4-0.6,0.3-1l-4.6-77.6c0-0.4-0.2-0.7-0.5-0.9
	c-0.3-0.2-0.6-0.4-1-0.3l-139.1,8.2c-0.4,0-0.7,0.2-0.9,0.5c-0.2,0.3-0.4,0.6-0.3,1l4.6,77.6c0,0.4,0.2,0.7,0.5,0.9
	C375.2,226.2,375.6,226.3,375.9,226.3z"/>
<path class="st20" d="M392.7,151.1c1.3,0,2.3-1,2.3-2.3c0-1.3-1-2.3-2.3-2.3c-1.3,0-2.3,1-2.3,2.3
	C390.4,150,391.4,151.1,392.7,151.1z"/>
<path class="st20" d="M383.9,151.6c1.3,0,2.3-1,2.3-2.3c0-1.3-1-2.3-2.3-2.3s-2.3,1-2.3,2.3C381.6,150.6,382.6,151.6,383.9,151.6z"
	/>
<path class="st20" d="M375.1,152.1c1.3,0,2.3-1,2.3-2.3c0-1.3-1-2.3-2.3-2.3c-1.3,0-2.3,1-2.3,2.3
	C372.9,151.1,373.9,152.1,375.1,152.1z"/>
<path class="st22" d="M486.5,217.5l26.2-1.5c0.3,0,0.5-0.1,0.7-0.3c0.2-0.2,0.3-0.4,0.2-0.7l-3.8-64.6c0-0.3-0.1-0.5-0.3-0.7
	c-0.2-0.2-0.4-0.3-0.7-0.2l-26.2,1.5c-0.3,0-0.5,0.1-0.7,0.3c-0.2,0.2-0.3,0.4-0.2,0.7l3.8,64.6c0,0.1,0,0.2,0.1,0.4
	c0.1,0.1,0.1,0.2,0.2,0.3c0.1,0.1,0.2,0.1,0.3,0.2C486.2,217.5,486.4,217.5,486.5,217.5L486.5,217.5z M377.7,223.9l104.7-6.2
	c0.3,0,0.5-0.1,0.7-0.3c0.2-0.2,0.3-0.4,0.2-0.7l-3.8-64.6c0-0.1,0-0.2-0.1-0.4c-0.1-0.1-0.1-0.2-0.2-0.3c-0.1-0.1-0.2-0.1-0.3-0.2
	c-0.1,0-0.2-0.1-0.4,0l-104.7,6.2c-0.1,0-0.2,0-0.4,0.1c-0.1,0.1-0.2,0.1-0.3,0.2c-0.1,0.1-0.1,0.2-0.2,0.3c0,0.1-0.1,0.2-0.1,0.4
	l3.8,64.6c0,0.3,0.1,0.5,0.3,0.7C377.2,223.8,377.5,223.9,377.7,223.9L377.7,223.9z"/>
<path class="st23" d="M455.9,156.7l0,0.2c0,0.3,0.2,0.6,0.5,0.8c0.3,0.2,0.6,0.3,0.9,0.3l9.2-0.7c0.3,0,0.7,0.1,0.9,0.3
	c0.3,0.2,0.4,0.5,0.5,0.8l1,11.2c0,0.3-0.1,0.6-0.3,0.8c-0.2,0.2-0.5,0.4-0.9,0.4l-18.7,1.5c-0.3,0-0.7-0.1-0.9-0.3
	c-0.3-0.2-0.4-0.5-0.5-0.8l-1.3-13.8c0-0.3,0.1-0.6,0.3-0.9c0.2-0.2,0.6-0.4,0.9-0.4l6.8-0.6c0.2,0,0.4,0,0.5,0
	c0.2,0,0.3,0.1,0.5,0.2c0.1,0.1,0.2,0.2,0.3,0.4C455.8,156.4,455.8,156.5,455.9,156.7L455.9,156.7z"/>
<path class="st24" d="M450.7,171l0.1-0.4l1.4-7.5c0.1-0.3,0.3-0.7,0.5-0.9c0.3-0.2,0.6-0.4,1-0.4l16.1-1.3c0.1,0,0.3,0,0.4,0
	c0.1,0,0.2,0.1,0.3,0.2c0.1,0.1,0.1,0.2,0.2,0.3c0,0.1,0,0.2,0,0.3l-1.5,7.9c-0.1,0.4-0.3,0.7-0.6,1c-0.3,0.3-0.7,0.4-1.2,0.5
	l-16.3,1.3l-0.7,0.1l-1.4,0.1c0.4,0,0.8-0.2,1-0.4C450.4,171.6,450.6,171.3,450.7,171z"/>
<path class="st23" d="M424.6,159.2l0,0.2c0,0.3,0.2,0.6,0.5,0.8c0.3,0.2,0.6,0.3,0.9,0.3l9.2-0.7c0.3,0,0.7,0.1,0.9,0.3
	c0.3,0.2,0.4,0.5,0.5,0.8l1.1,11.2c0,0.3-0.1,0.6-0.3,0.8c-0.2,0.2-0.5,0.4-0.9,0.4l-18.7,1.5c-0.3,0-0.7-0.1-0.9-0.3
	c-0.3-0.2-0.4-0.5-0.5-0.8l-1.3-13.8c0-0.2,0-0.3,0-0.5c0.1-0.2,0.1-0.3,0.3-0.4c0.1-0.1,0.3-0.2,0.4-0.3c0.2-0.1,0.3-0.1,0.5-0.1
	l6.9-0.6c0.4,0,0.7,0.1,1,0.3C424.4,158.6,424.6,158.9,424.6,159.2L424.6,159.2z"/>
<path class="st24" d="M419.5,173.5l0.1-0.4l1.4-7.5c0.1-0.3,0.3-0.7,0.5-0.9c0.3-0.2,0.6-0.4,1-0.4l16.1-1.3c0.1,0,0.3,0,0.4,0
	c0.1,0,0.2,0.1,0.3,0.2c0.1,0.1,0.1,0.2,0.2,0.3c0,0.1,0,0.2,0,0.3l-1.5,7.9c-0.1,0.4-0.3,0.7-0.6,1c-0.3,0.3-0.7,0.4-1.2,0.5
	l-16.3,1.3l-0.7,0.1l-1.4,0.1c0.4,0,0.8-0.2,1-0.4C419.2,174.2,419.4,173.9,419.5,173.5L419.5,173.5z"/>
<path class="st23" d="M393.4,161.7l0,0.2c0,0.3,0.2,0.6,0.5,0.8c0.3,0.2,0.6,0.3,0.9,0.3l9.2-0.7c0.3,0,0.7,0.1,0.9,0.3
	c0.3,0.2,0.4,0.5,0.5,0.8l1,11.2c0,0.3-0.1,0.6-0.3,0.8c-0.2,0.2-0.5,0.4-0.9,0.4l-18.7,1.5c-0.3,0-0.7-0.1-0.9-0.3
	c-0.3-0.2-0.4-0.5-0.5-0.8l-1.2-13.8c0-0.2,0-0.3,0-0.5c0.1-0.2,0.1-0.3,0.3-0.4c0.1-0.1,0.3-0.2,0.4-0.3c0.2-0.1,0.3-0.1,0.5-0.1
	l6.9-0.6c0.2,0,0.3,0,0.5,0c0.2,0,0.3,0.1,0.5,0.2c0.1,0.1,0.2,0.2,0.3,0.4C393.3,161.4,393.3,161.6,393.4,161.7L393.4,161.7z"/>
<path class="st24" d="M388.2,176.1l0.1-0.4l1.4-7.5c0.1-0.3,0.3-0.7,0.5-0.9c0.3-0.2,0.6-0.4,1-0.4l16.1-1.3c0.1,0,0.3,0,0.4,0
	c0.1,0,0.2,0.1,0.3,0.2c0.1,0.1,0.1,0.2,0.2,0.3c0,0.1,0,0.2,0,0.3l-1.5,7.9c-0.1,0.4-0.3,0.7-0.6,1c-0.3,0.3-0.7,0.4-1.2,0.5
	l-16.3,1.3l-0.7,0.1l-1.4,0.1c0.4,0,0.8-0.2,1-0.4C388,176.7,388.2,176.4,388.2,176.1L388.2,176.1z"/>
<path class="st23" d="M457.9,178.4l0,0.2c0,0.3,0.2,0.6,0.5,0.8c0.3,0.2,0.6,0.3,0.9,0.3l9.2-0.7c0.3,0,0.7,0.1,0.9,0.3
	c0.3,0.2,0.4,0.5,0.5,0.8l1.1,11.2c0,0.3-0.1,0.6-0.3,0.8c-0.2,0.2-0.5,0.4-0.9,0.4L451,194c-0.3,0-0.7-0.1-0.9-0.3
	s-0.4-0.5-0.5-0.8l-1.3-13.8c0-0.3,0.1-0.6,0.3-0.9c0.2-0.2,0.6-0.4,0.9-0.4l6.8-0.6c0.2,0,0.3,0,0.5,0c0.2,0,0.3,0.1,0.5,0.2
	c0.1,0.1,0.2,0.2,0.3,0.4S457.9,178.2,457.9,178.4L457.9,178.4z"/>
<path class="st24" d="M452.8,192.7l0.1-0.4l1.4-7.5c0.1-0.3,0.3-0.7,0.5-0.9c0.3-0.2,0.6-0.4,1-0.4l16.1-1.3c0.1,0,0.3,0,0.4,0
	c0.1,0,0.2,0.1,0.3,0.2s0.1,0.2,0.2,0.3c0,0.1,0,0.2,0,0.3l-1.5,7.9c-0.1,0.4-0.3,0.7-0.6,1c-0.3,0.3-0.7,0.4-1.2,0.5l-16.3,1.3
	l-0.7,0.1l-1.4,0.1c0.4,0,0.8-0.2,1-0.4C452.5,193.3,452.7,193,452.8,192.7L452.8,192.7z"/>
<path class="st23" d="M426.6,180.9l0,0.2c0,0.3,0.2,0.6,0.5,0.8c0.3,0.2,0.6,0.3,0.9,0.3l9.2-0.7c0.3,0,0.7,0.1,0.9,0.3
	c0.3,0.2,0.4,0.5,0.5,0.8l1,11.2c0,0.3-0.1,0.6-0.3,0.8c-0.2,0.2-0.5,0.4-0.9,0.4l-18.7,1.5c-0.3,0-0.7-0.1-0.9-0.3
	c-0.3-0.2-0.4-0.5-0.5-0.8l-1.3-13.8c0-0.2,0-0.3,0-0.5c0.1-0.2,0.1-0.3,0.3-0.4c0.1-0.1,0.3-0.2,0.4-0.3c0.2-0.1,0.3-0.1,0.5-0.1
	l6.9-0.6c0.2,0,0.4,0,0.5,0c0.2,0,0.3,0.1,0.5,0.2c0.1,0.1,0.2,0.2,0.3,0.4C426.6,180.6,426.6,180.8,426.6,180.9L426.6,180.9z"/>
<path class="st24" d="M421.5,195.2l0.1-0.4l1.4-7.5c0.1-0.3,0.3-0.7,0.5-0.9c0.3-0.2,0.6-0.4,1-0.4l16.1-1.3c0.1,0,0.3,0,0.4,0
	s0.2,0.1,0.3,0.2c0.1,0.1,0.1,0.2,0.2,0.3s0,0.2,0,0.3l-1.5,7.9c-0.1,0.4-0.3,0.7-0.6,1c-0.3,0.3-0.7,0.4-1.2,0.5l-16.3,1.3
	l-0.7,0.1l-1.4,0.1c0.4,0,0.7-0.2,1-0.4C421.2,195.9,421.4,195.6,421.5,195.2L421.5,195.2z"/>
<path class="st23" d="M395.4,183.5l0,0.2c0,0.3,0.2,0.6,0.5,0.8c0.3,0.2,0.6,0.3,0.9,0.3l9.2-0.7c0.3,0,0.7,0.1,0.9,0.3
	c0.3,0.2,0.4,0.5,0.5,0.8l1,11.2c0,0.3-0.1,0.6-0.3,0.8c-0.2,0.2-0.5,0.4-0.9,0.4l-18.7,1.5c-0.3,0-0.7-0.1-0.9-0.3
	c-0.3-0.2-0.4-0.5-0.5-0.8l-1.3-13.8c0-0.2,0-0.3,0-0.5c0.1-0.2,0.1-0.3,0.3-0.4c0.1-0.1,0.3-0.2,0.4-0.3c0.2-0.1,0.3-0.1,0.5-0.1
	l6.9-0.6c0.2,0,0.4,0,0.5,0c0.2,0,0.3,0.1,0.5,0.2c0.1,0.1,0.2,0.2,0.3,0.4C395.3,183.2,395.4,183.3,395.4,183.5L395.4,183.5z"/>
<path class="st24" d="M390.3,197.8l0.1-0.4l1.4-7.5c0.1-0.3,0.3-0.7,0.5-0.9c0.3-0.2,0.7-0.4,1-0.4l16.1-1.3c0.1,0,0.3,0,0.4,0
	c0.1,0,0.2,0.1,0.3,0.2c0.1,0.1,0.1,0.2,0.2,0.3c0,0.1,0,0.2,0,0.3l-1.5,7.9c-0.1,0.4-0.3,0.7-0.6,1c-0.3,0.3-0.7,0.4-1.2,0.5
	l-16.3,1.3l-0.7,0.1l-1.4,0.1c0.4,0,0.7-0.2,1-0.4S390.2,198.1,390.3,197.8z"/>
<path class="st23" d="M459.9,200.1l0,0.2c0,0.3,0.2,0.6,0.5,0.8c0.3,0.2,0.6,0.3,0.9,0.3l9.2-0.7c0.3,0,0.7,0.1,0.9,0.3
	c0.3,0.2,0.4,0.5,0.5,0.8l1.1,11.2c0,0.3-0.1,0.6-0.3,0.8c-0.2,0.2-0.5,0.4-0.9,0.4l-18.7,1.5c-0.3,0-0.7-0.1-0.9-0.3
	c-0.3-0.2-0.4-0.5-0.5-0.8l-1.3-13.8c0-0.2,0-0.3,0-0.5c0.1-0.2,0.1-0.3,0.3-0.4c0.1-0.1,0.3-0.2,0.4-0.3c0.2-0.1,0.3-0.1,0.5-0.1
	l6.9-0.6c0.2,0,0.4,0,0.5,0c0.2,0,0.3,0.1,0.5,0.2c0.1,0.1,0.2,0.2,0.3,0.4C459.9,199.8,459.9,200,459.9,200.1z"/>
<path class="st24" d="M454.8,214.4l0.1-0.4l1.4-7.5c0.1-0.3,0.3-0.7,0.5-0.9c0.3-0.2,0.7-0.4,1-0.4L474,204c0.1,0,0.3,0,0.4,0
	c0.1,0,0.2,0.1,0.3,0.2c0.1,0.1,0.1,0.2,0.2,0.3c0,0.1,0,0.2,0,0.3l-1.5,7.9c-0.1,0.4-0.3,0.7-0.6,1c-0.3,0.3-0.7,0.4-1.2,0.5
	l-16.3,1.3l-0.7,0.1l-1.4,0.1c0.4,0,0.8-0.2,1-0.4C454.5,215.1,454.7,214.8,454.8,214.4L454.8,214.4z"/>
<path class="st23" d="M428.7,202.7l0,0.2c0,0.3,0.2,0.6,0.5,0.8s0.6,0.3,0.9,0.3l9.2-0.7c0.3,0,0.7,0.1,0.9,0.3
	c0.3,0.2,0.4,0.5,0.5,0.8l1.1,11.2c0,0.3-0.1,0.6-0.3,0.8c-0.2,0.2-0.5,0.4-0.9,0.4l-18.7,1.5c-0.3,0-0.7-0.1-0.9-0.3
	c-0.3-0.2-0.4-0.5-0.5-0.8l-1.3-13.8c0-0.2,0-0.3,0-0.5c0.1-0.2,0.1-0.3,0.3-0.4c0.1-0.1,0.3-0.2,0.4-0.3c0.2-0.1,0.3-0.1,0.5-0.1
	l6.8-0.6c0.2,0,0.4,0,0.5,0c0.2,0,0.3,0.1,0.5,0.2s0.2,0.2,0.3,0.4C428.6,202.3,428.7,202.5,428.7,202.7L428.7,202.7z"/>
<path class="st24" d="M423.6,217l0.1-0.4l1.4-7.5c0.1-0.3,0.3-0.7,0.5-0.9c0.3-0.2,0.7-0.4,1-0.4l16.1-1.3c0.1,0,0.3,0,0.4,0
	c0.1,0,0.2,0.1,0.3,0.2c0.1,0.1,0.1,0.2,0.2,0.3s0,0.2,0,0.3l-1.5,7.9c-0.1,0.4-0.3,0.7-0.6,1c-0.3,0.3-0.7,0.4-1.2,0.5l-16.3,1.3
	l-0.7,0.1l-1.4,0.1c0.4,0,0.8-0.2,1-0.4C423.3,217.6,423.5,217.3,423.6,217z"/>
<path class="st23" d="M397.4,205.2l0,0.2c0,0.3,0.2,0.6,0.5,0.8c0.3,0.2,0.6,0.3,0.9,0.3l9.2-0.7c0.3,0,0.7,0.1,0.9,0.3
	c0.3,0.2,0.4,0.5,0.5,0.8l1,11.2c0,0.3-0.1,0.6-0.3,0.8c-0.2,0.2-0.5,0.4-0.9,0.4l-18.7,1.5c-0.3,0-0.7-0.1-0.9-0.3
	c-0.3-0.2-0.4-0.5-0.5-0.8l-1.3-13.8c0-0.2,0-0.3,0-0.5c0.1-0.2,0.1-0.3,0.3-0.4c0.1-0.1,0.3-0.2,0.4-0.3c0.2-0.1,0.3-0.1,0.5-0.1
	l6.9-0.6c0.2,0,0.4,0,0.5,0c0.2,0,0.3,0.1,0.5,0.2c0.1,0.1,0.2,0.2,0.3,0.4C397.4,204.9,397.4,205,397.4,205.2L397.4,205.2z"/>
<path class="st24" d="M392.3,219.5l0.1-0.4l1.4-7.5c0.1-0.3,0.3-0.7,0.5-0.9c0.3-0.2,0.6-0.4,1-0.4l16.1-1.3c0.1,0,0.3,0,0.4,0
	c0.1,0,0.2,0.1,0.3,0.2c0.1,0.1,0.1,0.2,0.2,0.3c0,0.1,0,0.2,0,0.3l-1.5,7.9c-0.1,0.4-0.3,0.7-0.6,1c-0.3,0.3-0.7,0.4-1.2,0.5
	l-16.3,1.3l-0.7,0.1l-1.4,0.1c0.4,0,0.8-0.2,1-0.4C392,220.1,392.2,219.8,392.3,219.5L392.3,219.5z"/>
<path class="st2" d="M378,222.9l1.1-0.1c0,0,0.1,0,0.1,0c0,0,0.1,0,0.1-0.1c0,0,0.1-0.1,0.1-0.1c0,0,0-0.1,0-0.1l-3.7-63.8
	c0,0,0-0.1,0-0.1c0,0,0-0.1-0.1-0.1c0,0-0.1-0.1-0.1-0.1c0,0-0.1,0-0.1,0l-1.1,0.1c-0.1,0-0.2,0-0.2,0.1c-0.1,0.1-0.1,0.2-0.1,0.2
	l3.8,63.8c0,0,0,0.1,0,0.1c0,0,0,0.1,0.1,0.1c0,0,0.1,0.1,0.1,0.1C377.9,222.9,378,222.9,378,222.9L378,222.9z"/>
<path class="st25" d="M375.6,182.2l1-0.1c0.1,0,0.2-0.1,0.3-0.1s0.1-0.2,0.1-0.3l-0.6-9.6c0-0.1,0-0.1,0-0.1c0,0-0.1-0.1-0.1-0.1
	c0,0-0.1-0.1-0.1-0.1c0,0-0.1,0-0.1,0l-1,0.1c-0.1,0-0.2,0.1-0.3,0.1c-0.1,0.1-0.1,0.2-0.1,0.3l0.6,9.6c0,0.1,0,0.1,0,0.1
	s0.1,0.1,0.1,0.1c0,0,0.1,0.1,0.1,0.1C375.5,182.2,375.6,182.2,375.6,182.2L375.6,182.2z"/>
<path class="st2" d="M508.1,153.1l-0.1-1.3c0,0,0-0.1,0-0.1c0,0,0-0.1-0.1-0.1c0,0,0,0-0.1,0c0,0-0.1,0-0.1,0l-23.9,1.4
	c-0.1,0-0.1,0-0.2,0.1c0,0-0.1,0.1-0.1,0.2l0.1,1.3c0,0,0,0.1,0,0.1s0,0.1,0.1,0.1c0,0,0,0,0.1,0c0,0,0.1,0,0.1,0l23.9-1.4
	c0.1,0,0.1,0,0.2-0.1C508.1,153.2,508.1,153.2,508.1,153.1L508.1,153.1z M508.3,156.5l-0.1-1.3c0,0,0-0.1,0-0.1c0,0,0,0-0.1-0.1
	c0,0,0,0-0.1,0c0,0-0.1,0-0.1,0l-23.9,1.4c0,0-0.1,0-0.1,0c0,0-0.1,0-0.1,0.1c0,0,0,0,0,0.1c0,0,0,0.1,0,0.1l0.1,1.3
	c0,0,0,0.1,0,0.1c0,0,0,0.1,0.1,0.1c0,0,0,0,0.1,0c0,0,0.1,0,0.1,0l23.9-1.4c0,0,0.1,0,0.1,0s0.1,0,0.1-0.1
	C508.3,156.6,508.3,156.6,508.3,156.5C508.3,156.5,508.3,156.5,508.3,156.5L508.3,156.5z M508.5,159.9l-0.1-1.3c0,0,0-0.1,0-0.1
	c0,0,0-0.1-0.1-0.1c0,0,0,0-0.1,0c0,0-0.1,0-0.1,0l-23.9,1.4c0,0-0.1,0-0.1,0c0,0-0.1,0-0.1,0.1c0,0,0,0,0,0.1c0,0,0,0.1,0,0.1
	l0.1,1.3c0,0.1,0,0.1,0.1,0.2c0,0,0.1,0.1,0.2,0.1l23.9-1.4c0,0,0.1,0,0.1,0c0,0,0.1,0,0.1-0.1C508.4,160,508.5,160,508.5,159.9
	C508.5,159.9,508.5,159.9,508.5,159.9z M508.7,163.2l-0.1-1.3c0-0.1,0-0.1-0.1-0.2c0,0-0.1-0.1-0.2-0.1l-23.9,1.4c0,0-0.1,0-0.1,0
	s-0.1,0-0.1,0.1c0,0,0,0,0,0.1c0,0,0,0.1,0,0.1l0.1,1.3c0,0,0,0.1,0,0.1c0,0,0,0.1,0.1,0.1c0,0,0,0,0.1,0c0,0,0.1,0,0.1,0l23.9-1.4
	c0,0,0.1,0,0.1,0s0.1,0,0.1-0.1C508.7,163.4,508.7,163.3,508.7,163.2C508.7,163.3,508.7,163.3,508.7,163.2L508.7,163.2z
	 M508.9,166.6l-0.1-1.3c0,0,0-0.1,0-0.1c0,0,0-0.1-0.1-0.1c0,0,0,0-0.1,0c0,0-0.1,0-0.1,0l-23.9,1.4c0,0-0.1,0-0.1,0
	c0,0,0,0-0.1,0.1c0,0,0,0,0,0.1c0,0,0,0.1,0,0.1l0.1,1.3c0,0,0,0.1,0,0.1c0,0,0,0.1,0.1,0.1c0,0,0,0,0.1,0c0,0,0.1,0,0.1,0l23.9-1.4
	c0,0,0.1,0,0.1,0s0.1,0,0.1-0.1C508.8,166.7,508.9,166.7,508.9,166.6C508.9,166.7,508.9,166.6,508.9,166.6z M509.1,170l-0.1-1.3
	c0,0,0-0.1,0-0.1c0,0,0-0.1-0.1-0.1c0,0,0,0-0.1,0c0,0-0.1,0-0.1,0l-23.9,1.4c0,0-0.1,0-0.1,0c0,0-0.1,0-0.1,0.1c0,0,0,0,0,0.1
	c0,0,0,0.1,0,0.1l0.1,1.3c0,0,0,0.1,0,0.1c0,0,0,0.1,0.1,0.1c0,0,0,0,0.1,0c0,0,0.1,0,0.1,0l23.9-1.4c0,0,0.1,0,0.1,0
	c0,0,0.1,0,0.1-0.1C509,170.1,509.1,170.1,509.1,170C509.1,170,509.1,170,509.1,170L509.1,170z M509.3,173.3l-0.1-1.3
	c0,0,0-0.1,0-0.1s0-0.1-0.1-0.1c0,0,0,0-0.1,0c0,0-0.1,0-0.1,0l-23.9,1.4c0,0-0.1,0-0.1,0c0,0-0.1,0-0.1,0.1c0,0,0,0,0,0.1
	c0,0,0,0.1,0,0.1l0.1,1.3c0,0,0,0.1,0,0.1s0,0,0.1,0.1c0,0,0,0,0.1,0c0,0,0.1,0,0.1,0l23.9-1.4c0,0,0.1,0,0.1,0c0,0,0,0,0.1-0.1
	C509.2,173.5,509.3,173.5,509.3,173.3C509.3,173.4,509.3,173.4,509.3,173.3L509.3,173.3z M509.5,176.7l-0.1-1.3c0,0,0-0.1,0-0.1
	c0,0,0-0.1-0.1-0.1c0,0,0,0-0.1,0c0,0-0.1,0-0.1,0l-23.9,1.4c0,0-0.1,0-0.1,0s-0.1,0-0.1,0.1c0,0,0,0,0,0.1c0,0,0,0.1,0,0.1l0.1,1.3
	c0,0,0,0.1,0,0.1c0,0,0,0.1,0.1,0.1c0,0,0,0,0.1,0c0,0,0.1,0,0.1,0l23.9-1.4c0,0,0.1,0,0.1,0c0,0,0.1,0,0.1-0.1
	C509.4,176.9,509.5,176.8,509.5,176.7C509.5,176.8,509.5,176.7,509.5,176.7L509.5,176.7z M509.7,180.1l-0.1-1.3c0-0.1,0-0.1-0.1-0.2
	c0,0-0.1-0.1-0.2-0.1l-23.9,1.4c0,0-0.1,0-0.1,0c0,0-0.1,0-0.1,0.1c0,0,0,0,0,0.1s0,0.1,0,0.1l0.1,1.3c0,0,0,0.1,0,0.1
	c0,0,0,0.1,0.1,0.1c0,0,0,0,0.1,0c0,0,0.1,0,0.1,0l23.9-1.4c0,0,0.1,0,0.1,0c0,0,0.1,0,0.1-0.1C509.6,180.2,509.7,180.2,509.7,180.1
	C509.7,180.1,509.7,180.1,509.7,180.1L509.7,180.1z M509.9,183.5l-0.1-1.3c0,0,0-0.1,0-0.1c0,0,0-0.1-0.1-0.1c0,0,0,0-0.1,0
	c0,0-0.1,0-0.1,0l-23.9,1.4c-0.1,0-0.1,0-0.2,0.1c0,0-0.1,0.1-0.1,0.2l0.1,1.3c0,0,0,0.1,0,0.1c0,0,0,0.1,0.1,0.1c0,0,0,0,0.1,0
	c0,0,0.1,0,0.1,0l23.9-1.4c0.1,0,0.1,0,0.2-0.1C509.9,183.6,509.9,183.5,509.9,183.5L509.9,183.5z M510.1,186.8l-0.1-1.3
	c0,0,0-0.1,0-0.1s0,0-0.1-0.1c0,0,0,0-0.1,0c0,0-0.1,0-0.1,0l-23.9,1.4c0,0-0.1,0-0.1,0c0,0-0.1,0-0.1,0.1s0,0,0,0.1
	c0,0,0,0.1,0,0.1l0.1,1.3c0,0,0,0.1,0,0.1c0,0,0,0.1,0.1,0.1c0,0,0,0,0.1,0c0,0,0.1,0,0.1,0l23.9-1.4c0,0,0.1,0,0.1,0
	c0,0,0.1,0,0.1-0.1S510.1,186.9,510.1,186.8C510.1,186.9,510.1,186.9,510.1,186.8L510.1,186.8z M510.3,190.2l-0.1-1.3
	c0-0.1,0-0.1-0.1-0.2c0,0-0.1-0.1-0.2-0.1l-23.9,1.4c-0.1,0-0.1,0-0.2,0.1c0,0-0.1,0.1-0.1,0.2l0.1,1.3c0,0,0,0.1,0,0.1
	c0,0,0,0.1,0.1,0.1c0,0,0,0,0.1,0c0,0,0.1,0,0.1,0l23.9-1.4c0,0,0.1,0,0.1,0c0,0,0,0,0.1-0.1C510.2,190.3,510.2,190.3,510.3,190.2
	C510.3,190.3,510.3,190.2,510.3,190.2L510.3,190.2z M510.5,193.6l-0.1-1.3c0,0,0-0.1,0-0.1c0,0,0,0-0.1-0.1c0,0,0,0-0.1,0
	c0,0-0.1,0-0.1,0l-23.9,1.4c0,0-0.1,0-0.1,0c0,0-0.1,0-0.1,0.1c0,0,0,0,0,0.1c0,0,0,0.1,0,0.1l0.1,1.3c0,0,0,0.1,0,0.1
	c0,0,0,0.1,0.1,0.1c0,0,0,0,0.1,0c0,0,0.1,0,0.1,0l23.9-1.4c0,0,0.1,0,0.1,0c0,0,0,0,0.1-0.1C510.4,193.7,510.4,193.7,510.5,193.6
	C510.5,193.6,510.5,193.6,510.5,193.6L510.5,193.6z M510.7,196.9l-0.1-1.3c0,0,0-0.1,0-0.1c0,0,0-0.1-0.1-0.1c0,0,0,0-0.1,0
	c0,0-0.1,0-0.1,0l-23.9,1.4c0,0-0.1,0-0.1,0c0,0-0.1,0-0.1,0.1c0,0,0,0,0,0.1s0,0.1,0,0.1l0.1,1.3c0,0,0,0.1,0,0.1s0,0,0.1,0.1
	c0,0,0,0,0.1,0c0,0,0.1,0,0.1,0l23.9-1.4c0,0,0.1,0,0.1,0c0,0,0.1,0,0.1-0.1C510.6,197.1,510.6,197.1,510.7,196.9
	C510.7,197,510.7,197,510.7,196.9z M510.9,200.3l-0.1-1.3c0,0,0-0.1,0-0.1c0,0,0,0-0.1-0.1c0,0,0,0-0.1,0c0,0-0.1,0-0.1,0l-23.9,1.4
	c-0.1,0-0.1,0-0.2,0.1c0,0-0.1,0.1-0.1,0.2l0.1,1.3c0,0,0,0.1,0,0.1c0,0,0,0.1,0.1,0.1c0,0,0,0,0.1,0c0,0,0.1,0,0.1,0l23.9-1.4
	c0,0,0.1,0,0.1,0s0.1,0,0.1-0.1C510.8,200.5,510.8,200.4,510.9,200.3C510.9,200.4,510.9,200.3,510.9,200.3L510.9,200.3z
	 M511.1,203.7l-0.1-1.3c0,0,0-0.1,0-0.1c0,0,0-0.1-0.1-0.1c0,0,0,0-0.1,0c0,0-0.1,0-0.1,0l-23.9,1.4c0,0-0.1,0-0.1,0
	c0,0-0.1,0-0.1,0.1c0,0,0,0,0,0.1c0,0,0,0.1,0,0.1l0.1,1.3c0,0.1,0,0.1,0.1,0.2c0,0,0.1,0.1,0.2,0.1l23.9-1.4c0,0,0.1,0,0.1,0
	c0,0,0.1,0,0.1-0.1C511,203.8,511,203.8,511.1,203.7C511.1,203.7,511.1,203.7,511.1,203.7L511.1,203.7z M511.3,207.1l-0.1-1.3
	c0,0,0-0.1,0-0.1c0,0,0,0-0.1-0.1c0,0,0,0-0.1,0c0,0-0.1,0-0.1,0l-23.9,1.4c-0.1,0-0.1,0-0.2,0.1c0,0-0.1,0.1-0.1,0.2l0.1,1.3
	c0,0,0,0.1,0,0.1c0,0,0,0.1,0.1,0.1c0,0,0,0,0.1,0c0,0,0.1,0,0.1,0l23.9-1.4c0,0,0.1,0,0.1,0c0,0,0.1,0,0.1-0.1
	C511.2,207.2,511.2,207.2,511.3,207.1C511.3,207.1,511.3,207.1,511.3,207.1z M511.5,210.4l-0.1-1.3c0,0,0-0.1,0-0.1
	c0,0,0-0.1-0.1-0.1c0,0,0,0-0.1,0c0,0-0.1,0-0.1,0l-23.9,1.4c0,0-0.1,0-0.1,0c0,0-0.1,0-0.1,0.1c0,0,0,0,0,0.1s0,0.1,0,0.1l0.1,1.3
	c0,0.1,0,0.1,0.1,0.2c0,0,0.1,0.1,0.2,0.1l23.9-1.4c0,0,0.1,0,0.1,0c0,0,0,0,0.1-0.1C511.4,210.6,511.4,210.5,511.5,210.4
	C511.5,210.5,511.5,210.5,511.5,210.4L511.5,210.4z M511.7,213.8l-0.1-1.3c0,0,0-0.1,0-0.1c0,0,0-0.1-0.1-0.1c0,0,0,0-0.1,0
	c0,0-0.1,0-0.1,0l-23.9,1.4c0,0-0.1,0-0.1,0c0,0-0.1,0-0.1,0.1c0,0,0,0,0,0.1c0,0,0,0.1,0,0.1l0.1,1.3c0,0.1,0,0.1,0.1,0.2
	c0,0,0.1,0.1,0.2,0.1l23.9-1.4c0,0,0.1,0,0.1,0c0,0,0.1,0,0.1-0.1C511.6,213.9,511.6,213.9,511.7,213.8
	C511.7,213.9,511.7,213.8,511.7,213.8L511.7,213.8z"/>
<path class="st7" d="M513,237.7c0.3,1.7,1.2,3.2,2.5,4.2c1.3,1.1,3,1.6,4.7,1.5c1.7-0.1,3.3-0.8,4.5-1.9c1.2-1.2,2-2.7,2.1-4.4
	C522.4,235.1,517.3,235.6,513,237.7z"/>
<path class="st2" d="M316.3,194c0,10.6,1.2,21.2,2.5,31.7c10.4,2.5,21.2,2.5,31.6,0c-0.2-10.8-0.4-21.6-1.2-32.4
	c-0.4-5.7-1.1-11.4-3.1-16.7c-1.8-4.7-4.9-9.1-9.1-11.7c-0.5-0.3-1-0.6-1.5-0.8c-2.2,2.2-7.2,3.3-10,2.2c-1.4,1.1-2.6,2.4-3.6,3.8
	c-1.9,2.7-3.2,5.6-4,8.8C316.4,183.9,316.3,188.9,316.3,194L316.3,194z"/>
<path class="st12" d="M334,136.6c1.1-0.6,2-1.6,2.6-2.7c0.6-1.1,0.8-2.4,0.6-3.7c-0.4-2.3-2.1-4.2-4.1-5.5c-2.3-1.5-5-2.2-7.7-1.7
	c-3.9,0.8-7.3,4.6-7.3,8.3C323.9,131.7,329.6,133.5,334,136.6L334,136.6z"/>
<path class="st16" d="M340.1,137.8c1,0.6,2.1,1.2,2.5,2.2c0.6,1.5-0.3,3.3-1.7,4c-1.5,0.7-3.1,0.8-4.7,0.3c-2.5-0.6-4.8-1.9-6.5-3.8
	c-1.8-1.9-2.9-4.2-3.4-6.7c-0.1-0.6-0.5-2.3-0.2-2.9c0.6-1,1.3-0.2,2.1,0.3C332.2,133.5,336.1,135.7,340.1,137.8L340.1,137.8z"/>
<path class="st7" d="M321.7,170.2c2.7,0.5,5.5,0.3,8.1-0.6c2.5-0.8,4.8-2.3,6.6-4.2v-0.9l-0.2-0.9c-0.7-3-1.5-5.9-2.1-8.9
	c-0.6-2.8-1.2-5.5-1.8-8.3c-3,1.8-5.9,3.9-8.5,6.2c0.1,1.9,0.2,3.8,0.1,5.7c0,1.6-0.1,3.2-0.2,4.8c-0.1,0.9-0.1,1.8-0.2,2.7
	c-0.1,0.9-0.2,1.6-0.3,2.5C322.8,168.9,322.2,169.5,321.7,170.2z"/>
<path class="st11" d="M323.8,163.1c4,0.1,7.8-3.7,10.4-8.4c-0.6-2.8-1.2-5.5-1.8-8.3c-3,1.8-5.9,3.9-8.5,6.2
	c0.1,1.9,0.2,3.8,0.1,5.7C324,159.9,323.9,161.5,323.8,163.1L323.8,163.1z"/>
<path class="st8" d="M318.5,137.9c-0.4,1.2-0.4,2.5-0.1,3.8c0.3,1.3,0.9,2.4,1.8,3.3c1-1.8,1.6-3.9,1.8-6c0.1-0.3,0-0.6,0-0.8
	s-0.2-0.5-0.4-0.7c-0.2-0.2-0.5-0.3-0.7-0.3c-0.3,0-0.5,0-0.8,0.1C319.5,137.4,319,138,318.5,137.9L318.5,137.9z"/>
<path class="st7" d="M320.1,137.9c0.7,2.7-0.3,5.5-1.2,8.2c-0.9,2.7-1.6,5.7-0.4,8.2c1.2,2.5,4.6,3.9,7.4,3.3c1.4-0.4,2.7-1.1,3.8-2
	c1.1-1,2-2.2,2.5-3.5c1.1-2.7,1.3-5.7,0.8-8.6c-0.6-2.9-1.4-5.7-2.5-8.4C326.9,133.6,322.9,135.1,320.1,137.9z"/>
<path class="st8" d="M397.2,321c0,0-0.3,7.5-7.1,7l-2.3,26.8l19.8-31.2L397.2,321z"/>
<path class="st2" d="M391.2,355.7l18.8-29.6c0.1-0.2,0.2-0.5,0.1-0.7c-0.1-0.3-0.2-0.5-0.4-0.6l-1.9-1.2l-19.8,31.2l1.9,1.2
	c0.1,0.1,0.2,0.1,0.3,0.1c0.1,0,0.3,0,0.4,0c0.1,0,0.2-0.1,0.3-0.1C391,355.9,391.1,355.8,391.2,355.7L391.2,355.7z M393.8,333.7
	c-0.1,0.1-0.2,0.1-0.3,0.1c-1.4,0.1-2.7,0.4-3.9,0.9c-0.1,0-0.1,0.1-0.2,0.1c-0.1,0-0.2,0-0.2,0c-0.1,0-0.1-0.1-0.2-0.1
	c-0.1-0.1-0.1-0.1-0.1-0.2c-0.1-0.2-0.1-0.3,0-0.5c0.1-0.1,0.2-0.3,0.3-0.3c1.4-0.6,2.9-0.9,4.4-1c0.1,0,0.2,0,0.2,0
	s0.1,0.1,0.2,0.1c0.1,0.1,0.1,0.1,0.1,0.2c0,0.1,0,0.1,0,0.2c0,0.1,0,0.2-0.1,0.3C394,333.5,393.9,333.6,393.8,333.7L393.8,333.7z
	 M393.4,337c-0.1,0.1-0.2,0.1-0.3,0.1c-1.4,0.1-2.7,0.4-3.9,0.9c-0.1,0-0.1,0.1-0.2,0.1c-0.1,0-0.2,0-0.2,0c-0.1,0-0.1-0.1-0.2-0.1
	c-0.1-0.1-0.1-0.1-0.1-0.2c-0.1-0.2-0.1-0.3,0-0.5c0.1-0.1,0.2-0.3,0.3-0.3c1.4-0.6,2.9-0.9,4.4-1c0.1,0,0.2,0,0.2,0
	c0.1,0,0.1,0.1,0.2,0.1c0.1,0.1,0.1,0.1,0.1,0.2c0,0.1,0.1,0.1,0.1,0.2c0,0.1,0,0.2-0.1,0.3C393.6,336.9,393.5,337,393.4,337
	L393.4,337z M393.1,340.4c-0.1,0.1-0.2,0.1-0.3,0.1c-1.4,0.1-2.7,0.4-3.9,0.9c-0.1,0-0.1,0.1-0.2,0.1c-0.1,0-0.2,0-0.2,0
	c-0.1,0-0.1-0.1-0.2-0.1c-0.1-0.1-0.1-0.1-0.1-0.2c-0.1-0.2-0.1-0.3,0-0.5c0.1-0.1,0.2-0.3,0.3-0.3c1.4-0.6,2.9-0.9,4.4-1
	c0.1,0,0.2,0,0.2,0c0.1,0,0.1,0.1,0.2,0.1c0.1,0.1,0.1,0.1,0.1,0.2c0,0.1,0,0.2,0,0.2c0,0.1,0,0.2-0.1,0.3
	C393.2,340.3,393.2,340.3,393.1,340.4L393.1,340.4z"/>
<path class="st7" d="M332.4,144.3c0.3-0.4,0.7-0.8,1.1-1.1c0.4-0.3,1-0.4,1.5-0.3c0.3,0.1,0.6,0.3,0.9,0.5c0.2,0.2,0.4,0.5,0.5,0.8
	c0.2,0.6,0.3,1.3,0.2,1.9c-0.1,0.6-0.5,1.2-0.9,1.6c-0.5,0.4-1,0.7-1.7,0.9c-0.6,0.1-1.3,0-1.9-0.2
	C332.3,147.1,332.4,145.7,332.4,144.3L332.4,144.3z"/>
<path class="st13" d="M351.8,233.6c0,0-4.4,55.1,48.8,86.4l-12.4,15.9c0,0-59.5-38.9-57.8-89.1L351.8,233.6z"/>
<path class="st15" d="M356.2,265c-0.9,2.4-2,4.8-3.1,7.1c-1.4,3.1-2.6,6.3-3.6,9.6c-1.3,4.2-2.4,8.5-3.3,12.7
	c-9.3-13.7-16.3-30-15.7-47.7l21.3-13.1C351.8,233.6,350.7,247.3,356.2,265z"/>
<path class="st8" d="M324.4,345.6c0,0-6.8,3.2-9.5-3l-24.8,10.4l36.8,3L324.4,345.6z"/>
<path class="st2" d="M291.1,356.4l34.4,2.8c0.2,0,0.3,0,0.5,0c0.2,0,0.3-0.1,0.4-0.2c0.1-0.1,0.2-0.2,0.3-0.4
	c0.1-0.1,0.1-0.3,0.1-0.5l0.2-2l-36.9-3l-0.2,2c0,0.2,0,0.3,0.1,0.5s0.1,0.3,0.2,0.4c0.1,0.1,0.2,0.2,0.4,0.3
	C290.8,356.3,291,356.4,291.1,356.4L291.1,356.4z M311.6,348.5c-0.1-0.1-0.2-0.1-0.2-0.2c-0.7-1.2-1.6-2.2-2.6-3.1
	c-0.1,0-0.1-0.1-0.2-0.2c0-0.1-0.1-0.1-0.1-0.2c0-0.1,0-0.2,0-0.2c0-0.1,0.1-0.1,0.1-0.2c0.1-0.1,0.3-0.2,0.4-0.2s0.3,0,0.5,0.1
	c1.1,1,2.1,2.1,2.9,3.4c0,0.1,0.1,0.1,0.1,0.2c0,0.1,0,0.2,0,0.2c0,0.1-0.1,0.1-0.1,0.2c0,0.1-0.1,0.1-0.2,0.2
	c-0.1,0-0.2,0.1-0.3,0.1C311.8,348.6,311.7,348.5,311.6,348.5L311.6,348.5z M308.5,349.7c-0.1-0.1-0.2-0.1-0.2-0.2
	c-0.7-1.2-1.6-2.2-2.6-3.1c-0.1,0-0.1-0.1-0.2-0.2c0-0.1-0.1-0.1-0.1-0.2c0-0.1,0-0.2,0-0.2c0-0.1,0.1-0.1,0.1-0.2
	c0.1-0.1,0.3-0.2,0.4-0.2c0.2,0,0.3,0,0.5,0.1c1.2,1,2.1,2.1,2.9,3.4c0,0.1,0.1,0.1,0.1,0.2c0,0.1,0,0.2,0,0.2
	c0,0.1-0.1,0.1-0.1,0.2c0,0.1-0.1,0.1-0.2,0.2c-0.1,0-0.2,0.1-0.3,0.1C308.7,349.8,308.5,349.8,308.5,349.7L308.5,349.7z M305.3,351
	c-0.1,0-0.2-0.1-0.2-0.2c-0.7-1.2-1.6-2.2-2.6-3.1c-0.1,0-0.1-0.1-0.2-0.2c0-0.1-0.1-0.1-0.1-0.2c0-0.1,0-0.2,0-0.2
	c0-0.1,0.1-0.1,0.1-0.2c0.1-0.1,0.3-0.2,0.4-0.2c0.2,0,0.3,0,0.5,0.1c1.2,1,2.1,2.1,2.9,3.4c0,0.1,0.1,0.1,0.1,0.2
	c0,0.1,0,0.2,0,0.2c0,0.1-0.1,0.1-0.1,0.2c0,0.1-0.1,0.1-0.2,0.2c-0.1,0.1-0.2,0.1-0.3,0.1C305.5,351.1,305.4,351,305.3,351
	L305.3,351z"/>
<path class="st12" d="M315.4,185.1c-0.8,15.4,0.6,37.8,3.5,53c0,0-23.9,52.6-13.5,106.6l21.5,3.6c0,0-0.4-68,25.4-106.6l-1.6-35.9
	l-23.1-1.9l-3.5-19.1L315.4,185.1z"/>
<path class="st13" d="M349.6,209.7c0.2,0,0.4-0.2,0.6-0.7c0.1-0.3,0.2-0.6,0.3-0.9c0.1-0.4,0.2-0.8,0.3-1.3c0-0.2,0.1-0.5,0.1-0.8
	c0-0.3,0.1-0.6,0.1-0.9c0-0.3,0.1-0.6,0.1-0.9c0-0.3,0.1-0.7,0.1-1c0-0.3,0.1-0.7,0.1-1.1c0-0.4,0-0.8,0.1-1.2c0-0.8,0-1.7,0-2.6
	c0-1.8-0.2-3.8-0.4-5.9c-0.3-2.2-0.7-4.5-1.2-6.6c-0.6-2.4-1.3-4.8-2.1-7.2c-0.9-2.6-2.2-5.1-3.9-7.4c-0.9-1.2-2-2.2-3.2-3.1
	c-1.2-0.9-2.6-1.6-4-2c-0.7-0.2-1.5-0.3-2.2-0.3h-1.1c-0.2,0-0.4,0-0.5,0l-0.5,0.1c-1.4,0.2-2.7,0.7-3.9,1.4c-1.1,0.6-2.1,1.4-3,2.4
	c-0.2,0.2-0.4,0.4-0.6,0.7l-0.6,0.7l-0.5,0.7c-0.2,0.2-0.3,0.5-0.5,0.7c-0.6,0.9-1,1.9-1.4,2.9c-0.3,0.9-0.6,1.9-0.8,2.8
	c-0.3,1.6-0.5,3.2-0.5,4.9c0,1.2,0,2.4,0.2,3.6c0.2,2,0.5,3,0.6,3s0.4-1.1,0.5-3c0.1-1,0.2-2.1,0.4-3.5c0.2-1.5,0.5-3,1-4.5
	c0.5-1.7,1.3-3.3,2.3-4.8c0.1-0.2,0.3-0.4,0.4-0.6l0.5-0.5l0.5-0.5c0.2-0.2,0.3-0.3,0.5-0.5c0.7-0.7,1.5-1.2,2.4-1.7
	c0.9-0.4,1.8-0.7,2.8-0.9l0.4,0h1.1c0.5,0,1,0.1,1.4,0.3c2.1,0.8,3.9,2.1,5.1,3.9c1.4,2,2.5,4.1,3.2,6.4c0.8,2.3,1.5,4.5,2.1,6.7
	c0.6,2.2,1,4.3,1.4,6.2c0.4,2,0.6,3.8,0.8,5.5c0.1,0.8,0.2,1.7,0.3,2.4c0,0.4,0.1,0.8,0.1,1.1c0,0.4,0.1,0.7,0.1,1.1
	c0,0.4,0.1,0.7,0.1,1c0,0.3,0,0.6,0.1,0.9c0,0.3,0.1,0.6,0.1,0.8c0,0.3,0,0.5,0.1,0.8c0,0.5,0.1,0.9,0.1,1.3c0,0.3,0.1,0.6,0.2,1
	C349.2,209.4,349.4,209.7,349.6,209.7L349.6,209.7z"/>
<path class="st7" d="M330.9,192.1c0,0.6,0,1.3,0,1.9c0,0.6,0.1,1.3,0.1,2c0,0.3,0,0.7,0.1,1c0,0.3,0.1,0.7,0.1,1
	c0.1,0.7,0.2,1.4,0.3,2.1c0.1,0.7,0.3,1.4,0.4,2.1c0.1,0.7,0.3,1.4,0.5,2.1c0.2,0.7,0.3,1.5,0.6,2.2c0.2,0.7,0.4,1.5,0.6,2.2
	c0.2,0.7,0.5,1.5,0.7,2.2c1.1,3.1,2.4,6,3.8,8.9c1.5,2.9,3.1,5.6,4.9,8.3l1.3,1.9c0.5,0.6,0.9,1.2,1.4,1.8c0.5,0.6,0.9,1.2,1.4,1.7
	c0.5,0.6,0.9,1.1,1.4,1.6c0.5,0.5,0.9,1.1,1.4,1.6c0.4,0.5,0.9,1,1.4,1.5c0.2,0.2,0.5,0.5,0.7,0.7c0.2,0.2,0.5,0.5,0.7,0.7l1.4,1.3
	c0.5,0.4,0.9,0.8,1.4,1.2c0.5,0.4,0.9,0.8,1.3,1.2c0.9,0.7,1.6,1.4,2.5,2c0,0,0.1,0.1,0.1,0.1l0.8,0.6c1.9,1.4,4,2.5,6.2,3.5
	c1.4,0.5,2.8,0.9,4.2,1.1c-0.1-0.2-0.2-0.3-0.4-0.5l-0.4-0.5l-0.5-0.6c-0.4-0.4-0.8-0.9-1.2-1.4l-1.4-1.7c-0.5-0.6-1-1.2-1.5-1.8
	l-0.1-0.1c-0.6-0.7-1.1-1.5-1.7-2.3c-0.6-0.8-1.2-1.6-1.8-2.5c-0.3-0.4-0.6-0.9-0.9-1.4c-0.3-0.5-0.6-0.9-0.9-1.4l-0.9-1.5
	c-0.2-0.3-0.3-0.5-0.5-0.8l-0.4-0.8c-0.3-0.5-0.6-1.1-0.9-1.6l-0.9-1.7c-0.3-0.6-0.6-1.1-0.9-1.7c-0.3-0.6-0.6-1.2-0.9-1.8l-0.8-1.8
	c-0.3-0.6-0.5-1.2-0.8-1.9c-1-2.5-2-5.2-2.9-7.9s-1.6-5.4-2.3-8c-0.2-0.6-0.3-1.3-0.5-1.9s-0.3-1.3-0.4-1.9
	c-0.1-0.6-0.3-1.2-0.4-1.9c-0.1-0.6-0.3-1.2-0.4-1.8s-0.2-1.2-0.4-1.8c-0.1-0.6-0.2-1.2-0.3-1.7l-0.2-0.8c0-0.3-0.1-0.6-0.1-0.8
	c-0.1-0.6-0.2-1.1-0.3-1.6c-0.1-0.5-0.2-1.1-0.3-1.6c-0.1-0.5-0.2-0.8-0.2-1.2c-4.2,1.8-9,2-13.3,0.6
	C330.9,190.9,330.9,191.5,330.9,192.1L330.9,192.1z"/>
<path class="st7" d="M359.2,245.4l1,0.7c1.9,1.4,4,2.5,6.2,3.5c1.4,0.5,2.8,0.9,4.2,1.1c1.3,0.1,2.6,0.1,3.9-0.2
	c2-0.5,3.8-1.6,5.1-3.3c0.2-0.2,0.3-0.5,0.3-0.7c0-0.3,0-0.5-0.1-0.8c-0.1-0.2-0.2-0.5-0.4-0.6c-0.2-0.2-0.4-0.3-0.7-0.4
	c-4.4-1.2-9-1.4-13.6-0.7C363.2,244.3,361.2,244.8,359.2,245.4L359.2,245.4z"/>
<path class="st8" d="M315.3,137.6c5.1,1.2,10.5,0.4,15.1-2.1c-0.4,1.2-0.4,2.5-0.1,3.7c0.4,1.8,1.4,3.4,2.8,4.5
	c1.6-2.3,2.7-5.4,2.3-8.1c-0.1-0.6-0.3-1.2-0.7-1.7c-0.4-0.5-0.8-1-1.3-1.5c-1.1-1.1-2.3-1.9-3.7-2.5c-1.8-0.8-3.8-1.1-5.8-1
	c-2,0.1-3.9,0.7-5.7,1.6c-0.3,0.2-0.6,0.5-0.9,0.7c-0.8,0.8-1.5,1.8-1.9,2.9C315.3,135.3,315.2,136.5,315.3,137.6L315.3,137.6z"/>
</svg>
