<svg version="1.1" xmlns="http://www.w3.org/2000/svg" width="40" height="32" viewBox="0 0 40 32">
<style type="text/css">
	.st0{fill:url(#SVGID_1_);}
</style>
<g>
	<linearGradient id="SVGID_1_" gradientUnits="userSpaceOnUse" x1="0" y1="17" x2="40" y2="17">
		<stop  offset="0" style="stop-color:#EC8A5B"/>
		<stop  offset="1" style="stop-color:#F8D568"/>
	</linearGradient>
	<path class="st0" d="M29.5,32.1c0.4,0,0.7,0,1.1,0c0-6.7,0-13.4,0-20.1c0.5,0.1,0.9,0.2,1.3,0.4c2,0.6,4.1,1.2,6.1,1.7
		c0.2,0,0.2,0.1,0.2,0.3c0,5.8,0,11.6,0,17.4c0,0.1,0,0.2,0,0.3c0.6,0,1.2,0,1.8,0c0,0.6,0,1.3,0,1.9c-13.3,0-26.7,0-40,0
		c0-0.6,0-1.3,0-1.9c0.6,0,1.2,0,1.8,0c0-7.7,0-15.3,0-22.9C4.4,8.4,6.9,7.7,9.5,7c0,8.4,0,16.7,0,25.1c0.4,0,0.7,0,1.1,0
		c0-10.7,0-21.4,0-32.1c0.3,0.1,0.7,0.1,1,0.2C15.8,1.1,20,2.1,24.2,3c1.7,0.4,3.4,0.8,5.1,1.1c0.1,0,0.2,0.1,0.1,0.2
		c0,0.1,0,0.1,0,0.2c0,9.1,0,18.3,0,27.4C29.5,31.9,29.5,32,29.5,32.1z M19.6,32.1c0-1.9,0-3.8,0-5.7c-0.1,0-0.1,0-0.2,0
		c-1,0-2,0-2.9,0c-0.2,0-0.2,0-0.2,0.2c0,1.8,0,3.5,0,5.3c0,0.1,0,0.1,0,0.2C17.4,32.1,18.5,32.1,19.6,32.1z M20.4,26.4
		c0,1.9,0,3.8,0,5.6c1.1,0,2.2,0,3.3,0c0,0,0-0.1,0-0.1c0-1.8,0-3.6,0-5.4c0-0.1,0-0.2-0.2-0.2c-1,0-2,0-3,0
		C20.5,26.4,20.5,26.4,20.4,26.4z M4.3,26.4c0,1,0,2,0,3c1,0,1.9,0,2.9,0c0-1,0-2,0-3C6.2,26.4,5.2,26.4,4.3,26.4z M32.9,29.4
		c1,0,1.9,0,2.9,0c0-1,0-2,0-3c-1,0-1.9,0-2.9,0C32.9,27.4,32.9,28.4,32.9,29.4z M13.1,6.4c0,1,0,2,0,3c1,0,1.9,0,2.9,0c0-1,0-2,0-3
		C15,6.4,14.1,6.4,13.1,6.4z M18.6,9.3c1,0,1.9,0,2.9,0c0-1,0-2,0-3c-1,0-1.9,0-2.9,0C18.6,7.4,18.6,8.3,18.6,9.3z M24.1,9.3
		c1,0,1.9,0,2.9,0c0-1,0-2,0-3c-1,0-1.9,0-2.9,0C24.1,7.3,24.1,8.3,24.1,9.3z M4.3,11.4c0,1,0,2,0,3c1,0,1.9,0,2.9,0c0-1,0-2,0-3
		C6.2,11.4,5.2,11.4,4.3,11.4z M13.1,11.4c0,1,0,2,0,3c1,0,1.9,0,2.9,0c0-1,0-2,0-3C15,11.4,14.1,11.4,13.1,11.4z M18.6,11.4
		c0,1,0,2,0,3c1,0,1.9,0,2.9,0c0-1,0-2,0-3C20.5,11.4,19.5,11.4,18.6,11.4z M27,14.4c0-1,0-2,0-3c-1,0-1.9,0-2.9,0c0,1,0,2,0,3
		C25.1,14.4,26,14.4,27,14.4z M7.1,19.4c0-1,0-2,0-3c-1,0-1.9,0-2.9,0c0,1,0,2,0,3C5.2,19.4,6.2,19.4,7.1,19.4z M13.1,19.4
		c1,0,1.9,0,2.9,0c0-1,0-2,0-3c-1,0-1.9,0-2.9,0C13.1,17.4,13.1,18.4,13.1,19.4z M18.6,16.4c0,1,0,2,0,3c1,0,1.9,0,2.9,0
		c0-1,0-2,0-3C20.5,16.4,19.5,16.4,18.6,16.4z M24.1,16.4c0,1,0,2,0,3c1,0,1.9,0,2.9,0c0-1,0-2,0-3C26,16.4,25.1,16.4,24.1,16.4z
		 M35.8,19.4c0-1,0-2,0-3c-1,0-1.9,0-2.9,0c0,1,0,2,0,3C33.9,19.4,34.9,19.4,35.8,19.4z M7.1,21.4c-1,0-1.9,0-2.9,0c0,1,0,2,0,3
		c1,0,1.9,0,2.9,0C7.1,23.4,7.1,22.4,7.1,21.4z M16,24.4c0-1,0-2,0-3c-1,0-1.9,0-2.9,0c0,1,0,2,0,3C14.1,24.4,15,24.4,16,24.4z
		 M18.6,24.4c1,0,1.9,0,2.9,0c0-1,0-2,0-3c-1,0-1.9,0-2.9,0C18.6,22.4,18.6,23.4,18.6,24.4z M27,21.4c-1,0-1.9,0-2.9,0c0,1,0,2,0,3
		c1,0,1.9,0,2.9,0C27,23.4,27,22.4,27,21.4z M32.9,21.4c0,1,0,2,0,3c1,0,1.9,0,2.9,0c0-1,0-2,0-3C34.9,21.4,33.9,21.4,32.9,21.4z"/>
</g>
</svg>
