<svg version="1.1" xmlns="http://www.w3.org/2000/svg" xmlns:xlink="http://www.w3.org/1999/xlink" width="630" height="390" viewBox="0 0 630 390">
<style type="text/css">
	.st0{fill:#EAF1FC;}
	.st1{fill:#F8F8FF;}
	.st2{fill:#E9EDF4;}
	.st3{fill:#D6E0F0;}
	.st4{fill:#ECF7FE;}
	.st5{fill:#FFFFFF;}
	.st6{fill:#D4E2FF;}
	.st7{fill:#F3F3FF;}
	.st8{fill:#CDE4F7;}
	.st9{fill:#FCFBFC;}
	.st10{fill:#092538;}
	.st11{fill:#124C6B;}
	.st12{fill:#0B2B46;}
	.st13{fill:#FFF7FD;}
	.st14{fill:#E8815F;}
	.st15{fill:#F09976;}
	.st16{fill:#FFDA35;}
	.st17{fill:#EF265B;}
	.st18{fill:#FB446C;}
	.st19{fill:#F8C47A;}
	.st20{fill:#E19A54;}
	.st21{fill:#FFDF9A;}
	.st22{fill:#D38137;}
	.st23{fill:#EAB973;}
	.st24{fill:#D3914F;}
	.st25{fill:#F1D392;}
	.st26{fill:#E4E6E6;}
	.st27{fill:#C08448;}
	.st28{fill:#FF8500;}
	.st29{fill:#AF7309;}
	.st30{fill:#A97000;}
	.st31{fill:#F4A721;}
</style>
<path class="st0" d="M315,383.3c174,0,315-20.2,315-45.1s-141-45.1-315-45.1C141,293.1,0,313.3,0,338.2S141,383.3,315,383.3z"/>
<path class="st1" d="M573.4,321.2c35.9-74.6,55.7-217.5-22.1-265c-50.9-31-104,8.9-158.5,10.7c-42.7,1.4-84-32.3-122.5-42
	C169.2-0.3,10.2,65.4,80.1,321.2C254.9,320.7,398.6,321.7,573.4,321.2L573.4,321.2z"/>
<path class="st2" d="M38.4,106.1h115v207.5h-115V106.1z"/>
<path class="st3" d="M46.7,114.5H145V155H46.7V114.5z M46.7,164.6H145v40.5H46.7V164.6z M46.7,214.6H145v40.5H46.7V214.6z
	 M46.7,264.7H145v40.5H46.7V264.7z M154.3,106.1H37.4c-2.7,0-4.9-2.2-4.9-4.9v-0.3c0-2.7,2.2-4.9,4.9-4.9h116.8
	c2.7,0,4.9,2.2,4.9,4.9v0.3C159.2,103.9,157,106.1,154.3,106.1z M154.3,323.8H37.4c-2.7,0-4.9-2.2-4.9-4.9v-0.3
	c0-2.7,2.2-4.9,4.9-4.9h116.8c2.7,0,4.9,2.2,4.9,4.9v0.3C159.2,321.6,157,323.8,154.3,323.8z M40.8,323.8l-3.8,14.5H46l10.5-14.5
	H40.8z M150.9,323.8l3.8,14.5h-8.9l-10.5-14.5H150.9z"/>
<path class="st2" d="M53.8,205.1h5.6v-31.7c0,0-1.2-0.6-2.8-0.6c-1.5,0-2.8,0.6-2.8,0.6L53.8,205.1L53.8,205.1z"/>
<path class="st2" d="M64.3,204.8l6.3-1l-5-31.3c0,0-1.5-0.4-3.2-0.1c-1.7,0.3-3,1.1-3,1.1L64.3,204.8z"/>
<path class="st4" d="M47.2,205.1h6.6v-31.7c0,0-1.5-0.6-3.3-0.6c-1.8,0-3.3,0.6-3.3,0.6L47.2,205.1L47.2,205.1z M125.8,155.1h-6.2
	v-31.7c0,0,1.4-0.6,3.1-0.6c1.7,0,3.1,0.6,3.1,0.6L125.8,155.1L125.8,155.1z"/>
<path class="st5" d="M144.7,155.1h-5.3v-31.7c0,0,1.2-0.6,2.7-0.6c1.5,0,2.7,0.6,2.7,0.6L144.7,155.1L144.7,155.1z"/>
<path class="st2" d="M104.8,155.1l-4.9-2l14.8-28.8c0,0,1.4-0.1,2.8,0.4c1.4,0.6,2.2,1.6,2.2,1.6L104.8,155.1L104.8,155.1z"/>
<path class="st4" d="M139.3,155.1h-6.2v-31.7c0,0,1.4-0.6,3.1-0.6c1.7,0,3.1,0.6,3.1,0.6L139.3,155.1L139.3,155.1z"/>
<path class="st2" d="M133.1,155.1h-7.3v-31.7c0,0,1.6-0.6,3.6-0.6c2,0,3.6,0.6,3.6,0.6L133.1,155.1L133.1,155.1z"/>
<path class="st6" d="M137.4,305.2h-6.2v-31.7c0,0,1.4-0.6,3.1-0.6c1.7,0,3.1,0.6,3.1,0.6L137.4,305.2L137.4,305.2z"/>
<path class="st4" d="M116.3,305.3l-4.9-2l14.8-28.8c0,0,1.4-0.1,2.8,0.4c1.4,0.6,2.2,1.6,2.2,1.6L116.3,305.3L116.3,305.3z
	 M144.7,305.2h-7.3v-31.7c0,0,1.6-0.6,3.7-0.6c2,0,3.7,0.6,3.7,0.6L144.7,305.2L144.7,305.2z"/>
<path class="st7" d="M104.3,197.8c0,0-0.8-1.2-0.8-3.1c0-1.9,0.8-3.1,0.8-3.1h31.7c0,0,0.6,1.4,0.6,3.1c0,1.7-0.6,3.1-0.6,3.1H104.3
	z M66.5,247.8c0,0-0.8-1-0.8-3.1c0-2.1,0.8-3.1,0.8-3.1h31.7c0,0,0.6,1.4,0.6,3.1c0,1.7-0.6,3.1-0.6,3.1H66.5z"/>
<path class="st4" d="M63.5,241.6c0,0-0.8-1-0.8-2.8c0-1.9,0.8-2.8,0.8-2.8H96c0,0,0.7,1.3,0.7,2.8c0,1.6-0.7,2.8-0.7,2.8H63.5z"/>
<path class="st2" d="M102.7,205.1c0,0-0.8-1.7-0.8-3.7c0-1.9,0.8-3.7,0.8-3.7h31.7c0,0,0.6,1.6,0.6,3.7s-0.6,3.7-0.6,3.7H102.7z
	 M65,255.2c0,0-0.8-1.2-0.8-3.7c0-2.5,0.8-3.7,0.8-3.7h31.7c0,0,0.6,1.6,0.6,3.7c0,2-0.6,3.7-0.6,3.7H65L65,255.2z M105.4,47
	c-5.5,2-2.9,9.6,0.6,13c3.8,3.7,9.7,5.8,13,1.8c1-1.2,0.1-2.7-1.4-2.6c-2.3,0.1-4.1-0.5-3.3-2.3c0.9-1.7,4.5,1.6,5.9,1.6
	c3,0,4.1-2.2,3.4-4.1c-0.6-1.5-4.7-2.1-3.7-3.3c1.5-1.8,3.6,1,5.1-0.2c2.4-2,2-5.8,0.9-7.1c-0.8-1.1-4.3-2.8-6.9-1.7
	c-2.5,1-1.7,6.4-2.9,6.5c-2.2,0.1-0.4-4.6-2.2-6c-1-0.8-4.1-0.3-4.8,1.7c-1,2.6,2.7,7.6,0,7.9c-2.4,0.3-1-2.5-1.8-4.1
	C107.4,47.6,106.5,46.6,105.4,47L105.4,47z"/>
<path class="st8" d="M88.2,90.3C88.1,90.3,88.1,90.3,88.2,90.3c-0.1,0-0.2-0.1-0.2-0.1c0-0.1,0-0.1,0-0.2
	c6-18.2,18.3-33.7,34.5-43.8c0.1,0,0.1,0,0.2,0c0.1,0,0.1,0.1,0.1,0.1c0,0.1,0,0.1,0,0.2c0,0.1-0.1,0.1-0.1,0.1
	c-16.2,10-28.3,25.5-34.3,43.6C88.4,90.3,88.3,90.3,88.2,90.3L88.2,90.3z"/>
<path class="st2" d="M90.1,31.4c-4,4.3,1.7,9.9,6.4,11.3c5.1,1.6,11.3,0.8,12.4-4.3c0.3-1.5-1.1-2.5-2.4-1.7
	c-2.1,1.1-3.9,1.4-3.9-0.6c0-1.9,4.8-0.6,6-1.2c2.7-1.3,2.7-3.8,1.2-5.2c-1.2-1.1-5.1,0.2-4.8-1.3c0.5-2.3,3.7-0.7,4.5-2.5
	c1.2-2.8-0.8-6-2.4-6.8c-1.2-0.6-5.1-0.6-6.9,1.6c-1.7,2,1.4,6.5,0.3,7.1c-1.9,1.1-2.5-3.9-4.6-4.4c-1.3-0.3-3.8,1.6-3.5,3.7
	c0.3,2.8,5.8,5.6,3.6,7.1c-2,1.4-2-1.8-3.4-2.8C92.1,31.1,90.9,30.5,90.1,31.4L90.1,31.4z"/>
<path class="st8" d="M94.1,77.9c-0.1,0-0.2-0.1-0.2-0.2C91,58.8,95,39.4,105,23c0-0.1,0.1-0.1,0.1-0.1c0.1,0,0.1,0,0.2,0
	c0.1,0,0.1,0.1,0.1,0.1c0,0.1,0,0.1,0,0.2c-10,16.2-13.9,35.5-11.1,54.4C94.3,77.8,94.2,77.9,94.1,77.9
	C94.1,77.9,94.1,77.9,94.1,77.9L94.1,77.9z"/>
<path class="st2" d="M85.9,41.1c5,3.1,0.9,10-3.2,12.6c-4.5,2.9-10.7,3.7-13.1-0.9c-0.7-1.4,0.4-2.7,1.9-2.3
	c2.3,0.6,4.2,0.3,3.7-1.6c-0.5-1.8-4.8,0.6-6.1,0.4c-2.9-0.6-3.6-3-2.5-4.7c0.9-1.4,5-1.1,4.3-2.5c-1-2.1-3.7,0.3-5-1.3
	c-1.9-2.4-0.7-6.1,0.6-7.2c1.1-0.9,4.8-1.9,7.1-0.3c2.2,1.5,0.4,6.6,1.5,6.9c2.1,0.6,1.4-4.4,3.3-5.5c1.2-0.6,4.1,0.5,4.4,2.7
	c0.4,2.8-4.2,6.9-1.6,7.8c2.3,0.8,1.5-2.2,2.6-3.6C83.9,41.3,84.9,40.5,85.9,41.1L85.9,41.1z"/>
<path class="st8" d="M94,87c-0.1,0-0.2-0.1-0.2-0.2c-2.2-18.9-11-36.5-24.7-49.7c0,0,0,0-0.1-0.1c0,0,0-0.1,0-0.1c0,0,0-0.1,0-0.1
	c0,0,0-0.1,0.1-0.1c0.1-0.1,0.2-0.1,0.3,0c13.9,13.2,22.7,30.9,24.9,50C94.3,86.9,94.2,87,94,87C94,87,94,87,94,87z"/>
<path class="st2" d="M84.3,95.9h18l2.7-24.6H81.4L84.3,95.9z"/>
<path class="st3" d="M105.1,75.7H81.3c-0.3,0-0.6-0.3-0.7-0.6L80.4,72c0-0.1,0-0.2,0-0.3c0-0.1,0.1-0.2,0.1-0.2
	c0.1-0.1,0.1-0.1,0.2-0.2c0.1,0,0.2-0.1,0.3-0.1h24.3c0.4,0,0.7,0.3,0.7,0.7l-0.3,3.1C105.7,75.4,105.4,75.7,105.1,75.7L105.1,75.7z
	"/>
<path class="st5" d="M280.1,210H177.7c-0.7,0-1.3-0.3-1.8-0.7s-0.7-1.1-0.7-1.8V58.8c-3.9-55.6,18.4-53.7,53.7-53.7h0
	c56.1-3.6,53.7,24.1,53.7,53.8v148.6C282.7,208.8,281.6,210,280.1,210L280.1,210z"/>
<path class="st3" d="M280.7,212.1H176.1c-1.7,0-3.1-1.4-3.1-3.1V36.5c0-18,14.6-32.6,32.6-32.6h45.6c18,0,32.6,14.6,32.6,32.6V209
	C283.8,210.7,282.4,212.1,280.7,212.1L280.7,212.1z M176.3,208.8h104.2V36.6c0-16.2-13.1-29.3-29.3-29.3h-45.6
	c-16.1,0-29.3,13.1-29.3,29.3V208.8z"/>
<path class="st3" d="M228.4,210.8c-0.9,0-1.6-0.7-1.6-1.6V5.6c0-0.9,0.7-1.6,1.6-1.6c0.9,0,1.6,0.7,1.6,1.6v203.6
	c0,0.2,0,0.4-0.1,0.6c-0.1,0.2-0.2,0.4-0.4,0.5c-0.2,0.2-0.3,0.3-0.5,0.4C228.8,210.8,228.6,210.8,228.4,210.8L228.4,210.8z"/>
<path class="st3" d="M282.1,163.8H174.6c-0.9,0-1.6-0.7-1.6-1.6c0-0.9,0.7-1.6,1.6-1.6h107.5c0.9,0,1.6,0.7,1.6,1.6
	c0,0.2,0,0.4-0.1,0.6c-0.1,0.2-0.2,0.4-0.4,0.5c-0.2,0.2-0.3,0.3-0.5,0.4C282.6,163.8,282.4,163.8,282.1,163.8L282.1,163.8z
	 M282.1,61.6H174.6c-0.9,0-1.6-0.7-1.6-1.6s0.7-1.6,1.6-1.6h107.5c0.9,0,1.6,0.7,1.6,1.6c0,0.2,0,0.4-0.1,0.6s-0.2,0.4-0.4,0.5
	c-0.2,0.2-0.3,0.3-0.5,0.4C282.6,61.5,282.4,61.6,282.1,61.6L282.1,61.6z M282.1,112.7H174.6c-0.9,0-1.6-0.7-1.6-1.6
	c0-0.9,0.7-1.6,1.6-1.6h107.5c0.9,0,1.6,0.7,1.6,1.6C283.8,112,283,112.7,282.1,112.7z"/>
<path class="st5" d="M472.1,210.5H369.7c-0.7,0-1.3-0.3-1.8-0.7c-0.5-0.5-0.7-1.1-0.7-1.8V59.3c-3.9-55.6,18.4-53.7,53.7-53.7h0
	c56.1-3.6,53.7,24.1,53.7,53.8V208C474.7,209.4,473.5,210.5,472.1,210.5L472.1,210.5z"/>
<path class="st3" d="M472.8,212.1H368.3c-1.7,0-3.1-1.4-3.1-3.1V36.5c0-18,14.6-32.6,32.6-32.6h45.6c18,0,32.6,14.6,32.6,32.6V209
	C475.9,210.7,474.5,212.1,472.8,212.1z M368.4,208.8h104.2V36.6c0-16.2-13.1-29.3-29.3-29.3h-45.6c-16.1,0-29.3,13.1-29.3,29.3
	V208.8z"/>
<path class="st3" d="M420.5,210.8c-0.9,0-1.6-0.7-1.6-1.6V5.6c0-0.9,0.7-1.6,1.6-1.6c0.9,0,1.6,0.7,1.6,1.6v203.6
	C422.2,210.1,421.4,210.8,420.5,210.8L420.5,210.8z"/>
<path class="st3" d="M474.3,163.8H366.8c-0.9,0-1.6-0.7-1.6-1.6c0-0.9,0.7-1.6,1.6-1.6h107.5c0.9,0,1.6,0.7,1.6,1.6
	C475.9,163.1,475.2,163.8,474.3,163.8z M474.3,61.6H366.8c-0.9,0-1.6-0.7-1.6-1.6s0.7-1.6,1.6-1.6h107.5c0.9,0,1.6,0.7,1.6,1.6
	S475.2,61.6,474.3,61.6z M474.3,112.7H366.8c-0.9,0-1.6-0.7-1.6-1.6c0-0.9,0.7-1.6,1.6-1.6h107.5c0.9,0,1.6,0.7,1.6,1.6
	C475.9,112,475.2,112.7,474.3,112.7z"/>
<path class="st2" d="M542.1,63.4c-5.5,2-2.9,9.6,0.6,13c3.8,3.7,9.7,5.8,13,1.8c1-1.2,0.1-2.7-1.4-2.6c-2.3,0.1-4.1-0.5-3.3-2.3
	c0.9-1.7,4.5,1.6,5.9,1.6c3,0,4.1-2.2,3.4-4.1c-0.6-1.5-4.7-2.1-3.7-3.4c1.5-1.8,3.6,1,5.1-0.2c2.4-2,2-5.8,0.9-7.1
	c-0.8-1.1-4.3-2.8-6.9-1.7c-2.5,1-1.7,6.4-2.9,6.5c-2.2,0.1-0.4-4.6-2.2-6c-1-0.8-4.1-0.3-4.8,1.7c-1,2.6,2.7,7.6,0,8
	c-2.4,0.3-1-2.5-1.8-4.1C544.1,64.1,543.2,63.1,542.1,63.4L542.1,63.4z"/>
<path class="st8" d="M524.9,106.8C524.8,106.8,524.8,106.8,524.9,106.8c-0.1,0-0.2-0.1-0.2-0.1c0-0.1,0-0.1,0-0.2
	c6-18.2,18.3-33.7,34.5-43.8c0,0,0.1,0,0.1,0c0,0,0.1,0,0.1,0c0,0,0.1,0,0.1,0c0,0,0,0,0.1,0.1c0,0,0,0.1,0,0.1c0,0,0,0.1,0,0.1
	c0,0,0,0.1,0,0.1c0,0,0,0-0.1,0.1c-16.2,10-28.3,25.5-34.3,43.6C525,106.7,524.9,106.8,524.9,106.8L524.9,106.8z"/>
<path class="st2" d="M526.8,47.9c-4,4.3,1.7,9.9,6.4,11.3c5.1,1.6,11.3,0.8,12.4-4.3c0.3-1.5-1.1-2.5-2.4-1.7
	c-2.1,1.1-3.9,1.4-3.9-0.6c0-1.9,4.8-0.6,6-1.2c2.7-1.3,2.7-3.8,1.2-5.2c-1.2-1.1-5.1,0.2-4.8-1.3c0.5-2.3,3.7-0.7,4.5-2.5
	c1.2-2.8-0.8-6-2.4-6.8c-1.3-0.6-5.1-0.6-6.9,1.6c-1.7,2,1.4,6.5,0.3,7.1c-1.9,1.1-2.5-3.9-4.6-4.4c-1.3-0.3-3.8,1.6-3.5,3.7
	c0.3,2.8,5.8,5.6,3.6,7.1c-2,1.4-2-1.8-3.4-2.8C528.8,47.6,527.6,47,526.8,47.9z"/>
<path class="st8" d="M530.7,94.4c-0.1,0-0.2-0.1-0.2-0.2c-2.8-18.9,1.2-38.4,11.1-54.7c0-0.1,0.1-0.1,0.1-0.1c0.1,0,0.1,0,0.2,0
	c0.1,0,0.1,0.1,0.1,0.1c0,0.1,0,0.1,0,0.2C532.1,56,528.2,75.3,531,94.1C531,94.3,530.9,94.4,530.7,94.4
	C530.8,94.4,530.8,94.4,530.7,94.4z"/>
<path class="st2" d="M522.6,57.5c5,3.1,0.9,9.9-3.2,12.6c-4.5,2.8-10.7,3.7-13.1-0.9c-0.7-1.4,0.4-2.6,1.9-2.3
	c2.3,0.6,4.2,0.3,3.7-1.6c-0.5-1.8-4.8,0.6-6.1,0.4c-2.9-0.6-3.6-3-2.5-4.7c0.9-1.4,5-1.1,4.3-2.5c-1-2.1-3.7,0.3-5-1.3
	c-1.9-2.4-0.7-6,0.6-7.1c1.1-0.9,4.8-1.9,7.1-0.3c2.2,1.5,0.4,6.6,1.5,6.9c2.1,0.6,1.4-4.4,3.3-5.4c1.2-0.6,4.1,0.5,4.4,2.6
	c0.4,2.8-4.2,6.9-1.6,7.7c2.3,0.8,1.5-2.2,2.6-3.6C520.5,57.7,521.6,56.9,522.6,57.5L522.6,57.5z"/>
<path class="st8" d="M530.7,103.5c-0.1,0-0.2-0.1-0.2-0.2c-2.2-18.9-11-36.5-24.7-49.7c0,0,0,0-0.1-0.1s0-0.1,0-0.1c0,0,0-0.1,0-0.1
	c0,0,0-0.1,0.1-0.1c0.1-0.1,0.2-0.1,0.3,0c13.9,13.2,22.7,30.9,24.9,50C531,103.4,530.9,103.5,530.7,103.5
	C530.7,103.5,530.7,103.5,530.7,103.5L530.7,103.5z"/>
<path class="st5" d="M521,112.4h18l2.7-24.6h-23.5L521,112.4z"/>
<path class="st2" d="M541.7,92.2H518c-0.3,0-0.6-0.3-0.7-0.6l-0.3-3.1c0-0.1,0-0.2,0-0.3c0-0.1,0.1-0.2,0.1-0.2
	c0.1-0.1,0.1-0.1,0.2-0.2c0.1,0,0.2-0.1,0.3-0.1H542c0.4,0,0.7,0.3,0.7,0.7l-0.3,3.1C542.3,91.9,542.1,92.2,541.7,92.2z"/>
<path class="st3" d="M496.1,112.6c-0.3,0-0.6,0.3-0.6,0.6v1.5c0,0.3,0.3,0.6,0.6,0.6h57c0.3,0,0.6-0.3,0.6-0.6v-1.5
	c0-0.3-0.3-0.6-0.6-0.6H496.1z"/>
<path class="st2" d="M556.4,186.2h5.7v-32.6c0,0-1.3-0.7-2.8-0.7c-1.6,0-2.8,0.7-2.8,0.7L556.4,186.2L556.4,186.2z"/>
<path class="st8" d="M539,186.1h4.9v-32.6c0,0-1.1-0.7-2.5-0.7c-1.4,0-2.5,0.7-2.5,0.7V186.1L539,186.1z"/>
<path class="st5" d="M575.8,186.1l4.5-2.1l-13.7-29.6c0,0-1.3-0.1-2.5,0.4c-1.3,0.6-2,1.7-2,1.7L575.8,186.1z M544,186.1h5.7v-32.6
	c0,0-1.3-0.7-2.9-0.7c-1.6,0-2.9,0.7-2.9,0.7V186.1z"/>
<path class="st8" d="M549.7,186.2h6.7v-32.6c0,0-1.5-0.7-3.4-0.7c-1.9,0-3.4,0.7-3.4,0.7V186.2z"/>
<path class="st3" d="M530.7,186.3c-0.3,0-0.6,0.3-0.6,0.6v1.5c0,0.3,0.3,0.6,0.6,0.6h57c0.3,0,0.6-0.3,0.6-0.6v-1.5
	c0-0.3-0.3-0.6-0.6-0.6H530.7z"/>
<path class="st0" d="M332,0h3v88h-3V0z"/>
<path class="st3" d="M349.5,107.9c-0.1-9.1-7.4-16.4-16.5-16.4c-9.1,0-16.4,7.3-16.5,16.4H349.5z"/>
<path class="st3" d="M338.9,91.5c0,4.8-2.7,8.8-6.1,8.8c-3.4,0-6.1-3.9-6.1-8.8c0-4.8,2.7-8.8,6.1-8.8
	C336.2,82.8,338.9,86.7,338.9,91.5z"/>
<path class="st0" d="M305,0h2v53h-2V0z"/>
<path class="st3" d="M322.4,73.7c-0.1-9.1-7.4-16.4-16.5-16.4c-9.1,0-16.4,7.3-16.5,16.4H322.4z"/>
<path class="st3" d="M311.8,57.3c0,4.8-2.7,8.8-6.1,8.8c-3.4,0-6.1-3.9-6.1-8.8c0-4.8,2.7-8.8,6.1-8.8
	C309.1,48.6,311.8,52.5,311.8,57.3z"/>
<path class="st3" d="M319.5,154c10.6,0,19.2-8.6,19.2-19.2s-8.6-19.2-19.2-19.2c-10.6,0-19.2,8.6-19.2,19.2S308.9,154,319.5,154z"/>
<path class="st9" d="M319.5,149.3c8.1,0,14.6-6.5,14.6-14.6s-6.5-14.6-14.6-14.6s-14.6,6.5-14.6,14.6S311.5,149.3,319.5,149.3z"/>
<path class="st3" d="M323.8,144.2l-3.5-9.8c-0.2-0.5-0.7-0.7-1.2-0.6l-10.4,2.4c-0.3,0.1-0.5,0.2-0.6,0.4c-0.1,0.2-0.2,0.5-0.1,0.7
	c0.1,0.3,0.2,0.5,0.4,0.6c0.2,0.1,0.5,0.2,0.7,0.1l9.5-2.2l3.2,8.9c0,0.1,0.1,0.2,0.2,0.3c0.1,0.1,0.2,0.2,0.3,0.2
	c0.1,0.1,0.2,0.1,0.4,0.1c0.1,0,0.3,0,0.4-0.1C323.7,145.3,324,144.7,323.8,144.2L323.8,144.2z"/>
<path class="st3" d="M319.3,136.7c1.1,0,2-0.9,2-2c0-1.1-0.9-2-2-2c-1.1,0-2,0.9-2,2C317.3,135.8,318.2,136.7,319.3,136.7z"/>
<path class="st10" d="M471.4,167.7h-17.7c-23.2,0-27.4-17.7-9.4-40.9l-0.9-2.8h-47.7l-86.2,111.1v4.9h153.6v-4.9l18.4-23.8
	c0.8-1.1,1.6-2.2,2.4-3.2C500.6,184.7,495.4,167.7,471.4,167.7z"/>
<path class="st11" d="M296.3,235.2c-4.3,0-7.8,4.1-7.8,9.1c0,5-3.5,13.3-7.8,13.3h-13.3c-4.3,0-7.8,4.1-7.8,9.1v10.5H454v-42H296.3
	L296.3,235.2z"/>
<path class="st12" d="M303.7,235.2c-4.3,0-7.8,4.1-7.8,9.1c0,5-3.5,13.3-7.8,13.3h-13.3c-4.3,0-7.8,4.1-7.8,9.1v10.5h194.3v-42
	H303.7L303.7,235.2z"/>
<path class="st11" d="M305.8,235.2h86v27.4h-86V235.2z"/>
<path class="st13" d="M274,263.5v5.5h74.8v-6.4h-73.9C274.4,262.6,274,263,274,263.5z"/>
<path class="st12" d="M287.8,260.5h61.8v2.1h-61.8V260.5z M440.3,235.2h105.1v42H440.3V235.2z"/>
<path class="st11" d="M259.7,269H351v8.2h-91.3V269z"/>
<path class="st12" d="M373.5,244.3c0,5-3.5,13.3-7.8,13.3h-13.3c-4.3,0-7.8,4.1-7.8,9.1v10.5h89.3v-42h-52.7
	C376.9,235.2,373.5,239.3,373.5,244.3L373.5,244.3z"/>
<path class="st13" d="M287.8,260.5h1.5v2.1h-1.5V260.5z M291.8,260.5h1.5v2.1h-1.5V260.5z M295.8,260.5h1.5v2.1h-1.5V260.5z
	 M299.7,260.5h1.5v2.1h-1.5V260.5z M303.7,260.5h1.5v2.1h-1.5V260.5z M307.6,260.5h1.5v2.1h-1.5V260.5z M311.6,260.5h1.5v2.1h-1.5
	V260.5z M315.5,260.5h1.5v2.1h-1.5V260.5z M319.5,260.5h1.5v2.1h-1.5V260.5z M323.5,260.5h1.5v2.1h-1.5V260.5z M327.4,260.5h1.5v2.1
	h-1.5V260.5z M331.4,260.5h1.5v2.1h-1.5V260.5z M335.3,260.5h1.5v2.1h-1.5V260.5z M339.3,260.5h1.5v2.1h-1.5V260.5z M343.2,260.5
	h1.5v2.1h-1.5V260.5z"/>
<path class="st11" d="M386.5,184.7c-0.9,0-1.4,1-1,1.8l31.2,48.8h2.7l-32-50C387.3,184.9,386.9,184.7,386.5,184.7z M319.5,235.2h54
	l14.2-20.8h-54L319.5,235.2z"/>
<path class="st5" d="M352.2,214.4c-0.2-0.3-0.4-0.5-0.7-0.7c-2.8-1.9-10,0.7-10,0.7l-14.2,20.8h29l14.2-20.8
	C370.4,214.4,352.7,211.4,352.2,214.4L352.2,214.4z"/>
<path class="st10" d="M299.8,277.2h-8.3v7.3h6.4l1.9,67.6H297v7.1h13.1V352h-2.8l1.9-67.6h7v-7.3h-8.9H299.8z"/>
<path class="st12" d="M305.7,277.2h-8.3v7.3h6.4l1.9,67.6h-2.8v7.1H316V352h-2.8l1.9-67.6h7v-7.3h-8.9H305.7z"/>
<path class="st10" d="M495.5,277.2h-8.3v7.3h6.4l1.9,67.6h-2.8v7.1h13.1V352h-2.8l1.9-67.6h7v-7.3h-8.9H495.5z"/>
<path class="st12" d="M501.4,277.2h-8.3v7.3h6.4l1.9,67.6h-2.8v7.1h13.1V352H509l1.9-67.6h7v-7.3H509H501.4z"/>
<path class="st10" d="M395.6,277.2h-8.3v7.3h6.4l1.9,67.6h-2.8v7.1H406V352h-2.8l1.9-67.6h7v-7.3h-8.9H395.6z"/>
<path class="st12" d="M401.5,277.2h-8.3v7.3h6.4l1.9,67.6h-2.8v7.1h13.1V352h-2.8l1.9-67.6h7v-7.3h-8.9H401.5z M355,277.2h4.7v78.3
	H355V277.2z M338.1,277.2h4.7v78.3h-4.7V277.2z"/>
<path class="st12" d="M334.6,350.4h25.1v5.7h-25.1V350.4z"/>
<path class="st12" d="M222.9,302.5h4.1l0.1,23h-4.2V302.5z M220.2,323.8h9.4v24h-9.4V323.8z"/>
<path class="st11" d="M244,296.4h-37.4c-1.2,0-2.2,1-2.2,2.2v3.6c0,1.2,1,2.2,2.2,2.2H244c1.2,0,2.2-1,2.2-2.2v-3.6
	c0-0.6-0.2-1.1-0.6-1.5C245.1,296.6,244.6,296.4,244,296.4L244,296.4z"/>
<path class="st11" d="M230.4,334.1h-10.1c-4.9,0-8.9,4.4-8.9,9.8v15.2h4.6v-15.2c0-2.9,1.9-5.2,4.2-5.2h10.1c2.3,0,4.2,2.3,4.2,5.2
	v15.2h4.6v-15.2C239.3,338.5,235.3,334.1,230.4,334.1L230.4,334.1z"/>
<path class="st14" d="M212.5,228.1c0.9-0.8,2-2.2,3-3.5c0.5-0.7,1.6-0.3,1.7,0.5c0.2,1.5,0.7,3.1,1.8,3.2c1.5,0.2,2.8-0.8,4.1-1.5
	c0.9-0.5,1.8-0.9,2.9-0.7c0.6,0.1,1.1,0.4,1.4,0.9c0.7,1.2-0.1,2.6-1.1,3.5c-3.3,3.1-8.4,4.1-12.7,2.5
	C213.3,231.3,212.9,229.7,212.5,228.1z"/>
<path class="st15" d="M233.2,247.5c0,0,6.4,24.1,6.6,40.7c0,0,2.8,8.2-1.1,11.5l-10.2-51.4L233.2,247.5L233.2,247.5z"/>
<path class="st12" d="M212.8,206.4c-2,0.9-3.2,3.2-3,5.4c0.1,1.2,0.7,2.3,0.6,3.5c-0.1,1.4-1.2,2.6-2.2,3.7
	c-2.9,3.2-5.5,6.8-7.1,10.9c-1.6,4-2.1,8.6-1,12.7c1.1,4.2,4,8,8,9.7c4,1.7,8.5,1.2,12.6,0c3.4-0.9,6.8-2.3,9.6-4.5
	c2.8-2.2,5-5.3,5.6-8.8c0.6-3.5-0.4-7.4-3.1-9.7c-1.4-1.2-3.2-2.1-4-3.8c-1.1-2.3,0.2-4.9,0.6-7.4c0.4-2.8-0.5-5.8-2.4-7.9
	c-1.8-2-4.4-2.9-7-3.3C217.8,206.5,215,205.3,212.8,206.4L212.8,206.4z"/>
<path class="st15" d="M245.2,304.1c0.1,0.7,0.2,1.4,0.3,2c0.9,6.9,1.9,13.5,2.9,19.5c1,6,2,11.4,2.8,15.9c0.3,1.4,0.5,2.8,0.7,4
	c0.2,1.1,0.4,2.2,0.6,3.1c0.7,0.8,1.9,1.4,3.2,1.7c0.1-1.3,0.3-2.9,0.4-4.6c0.1-1.4,0.2-3,0.4-4.7c0.4-4.6,0.7-10.1,1.1-16.2
	c0.4-6.1,0.7-12.8,0.9-19.7c0.1-4.1,0.1-8.1,0.1-11.9c-4.3-0.5-8.8-0.6-13.4-0.2c-0.4,0-0.8,0.1-1.2,0.1
	C244.3,296.7,244.7,300.3,245.2,304.1z M225.3,305.6c0.1,7,0.3,13.7,0.6,19.8c0.3,6.1,0.6,11.6,0.9,16.2c0.1,1.4,0.2,2.7,0.3,3.9
	c0.1,1.3,0.2,2.5,0.3,3.6c0.7,0.8,1.7,1.5,3,1.9c0.3-1.3,0.6-2.8,1-4.5c0.3-1.4,0.6-3,0.9-4.7c0.9-4.6,1.9-10,3-16
	c1.1-6,2.2-12.7,3.2-19.6c0.1-0.9,0.3-1.8,0.4-2.7c0.5-3.8,1-7.5,1.3-11.1c-0.4,0-0.8,0-1.2,0c-0.2,0-0.5,0-0.7,0
	c-4.4,0-8.7,0.5-12.8,1.3C225.2,297.5,225.2,301.5,225.3,305.6L225.3,305.6z M216.4,237.2c2.9,2.1,6.8,2.3,10,0.4
	c-0.5-1.2-0.8-2.4-1-3.7c0-0.4-0.1-0.7-0.1-1.1c0-0.2,0-0.4,0-0.6c0-0.2,0-0.3,0-0.5c-3.2-0.4-6.1-1.5-8.7-3.1
	c0.1,1.2,0.2,2.4,0.2,3.6c0,0.6,0,1.2-0.1,1.9C216.6,235.1,216.5,236.2,216.4,237.2L216.4,237.2z"/>
<path class="st14" d="M216.8,232.2c0,0.6,0,1.2-0.1,1.9c1.3,0.5,2.8,0.8,4.2,0.8c1.6,0,3.1-0.3,4.5-0.9c0-0.4-0.1-0.7-0.1-1.1
	c0-0.2,0-0.4,0-0.6c0-0.2,0-0.3,0-0.5c-3.2-0.4-6.2-1.5-8.7-3.1C216.7,229.7,216.8,230.9,216.8,232.2L216.8,232.2z"/>
<path class="st15" d="M214.5,224.5c0.2,0.9,0.4,1.8,0.6,2.4c0,0.2,0.1,0.4,0.1,0.6c0.1,0.2,0.2,0.5,0.4,0.8c0.8,1.8,2.1,3.4,3.7,4.4
	c0.5,0.3,1.1,0.6,1.7,0.8c1.4,0.5,2.9,0.5,4.3,0.1c0,0,0,0,0,0c1.1-0.3,2.1-0.9,2.8-1.8c1.5-1.9,1.5-4.6,0.8-6.9
	c-0.1-0.2-0.1-0.4-0.2-0.6c-0.5-1.5-1.3-3.6-2-5.5c-1.6-0.6-3-1.7-3.8-3.1c-1.7,3.5-4.5,6.4-7.8,8.4
	C214.9,224.3,214.7,224.4,214.5,224.5L214.5,224.5z"/>
<path class="st15" d="M214.9,225.2c0-0.4-0.4-0.8-0.9-0.8c-0.4,0-0.9,0.2-1.1,0.6c-0.2,0.4-0.3,0.9-0.2,1.3c0.1,0.4,0.4,0.8,0.7,1.1
	c0.3,0.4,0.8,0.7,1.2,0.9c0.5,0.2,1,0.2,1.5,0C216,227.2,215.5,226,214.9,225.2L214.9,225.2z"/>
<path class="st16" d="M225.9,303.8l34.3-1.5c1.4-22.2-27.6-16.1-27.7-43.4l3.1-1.4c-1.8-16.2-8.5-19.4-8.7-19.5h0
	c-0.3-0.3-0.5-0.4-0.5-0.5v0l-10-0.4c0,0-0.3,0-0.8,0.2c-2,0.5-7.4,2.4-10.6,9.1c-1.4,2.8-2.4,6.5-2.6,11.3c0,0,1.2,1.4,3.9,2.1
	C205.5,274.8,211.8,302.2,225.9,303.8L225.9,303.8z"/>
<path class="st15" d="M201.5,266.8c0,0.3,0,0.5,0,0.8c0,1.1,0.1,2.2,0.1,3.4c0.1,0.7,0.1,1.3,0.2,2c0,0.5,0.1,0.9,0.1,1.4
	c0,0.3,0.1,0.5,0.1,0.8c0,0.3,0.1,0.5,0.1,0.8c0.1,0.5,0.2,1.1,0.3,1.6c0.1,0.5,0.2,1,0.3,1.6c0.1,0.5,0.2,1,0.4,1.5
	c0.3,1,0.5,2,0.7,2.9c0.6,1.9,1.1,3.6,1.8,5.2c0.3,0.8,0.6,1.6,0.9,2.3c0.3,0.7,0.6,1.3,0.9,1.9c-0.2,1.6-0.1,3.2,0.6,4.7
	c0.7,1.7,2,3.1,3.6,4c1,0.6,2.3-0.2,2.3-1.3l0-6.3c0.4,0.2,1.2,0.5,2,0.8c0.5,0.2,1-0.5,0.5-0.8c-1.4-1.3-3.3-2.4-5-3
	c-0.1-0.4-0.1-0.8-0.2-1.2c-0.1-0.7-0.1-1.5-0.2-2.3c-0.2-1.6-0.2-3.3-0.3-5c0-0.9,0-1.8,0-2.7l0-1.4c0-0.5,0-0.9,0.1-1.4l0-1.4
	l0-0.7c0-0.2,0-0.5,0-0.7c0.1-1,0.1-2,0.2-3c0.1-1,0.2-2,0.3-2.9c0-0.2,0-0.5,0.1-0.7l0.1-0.7l0.2-1.4l0.2-1.4
	c0.1-0.5,0.1-0.9,0.2-1.3c0-0.1,0-0.2,0.1-0.3c0.1-0.8,0.2-1.5,0.3-2.3c0.3-1.7,0.5-3.3,0.8-4.8c0.1-0.8,0.2-1.5,0.3-2.2
	c0.1-0.7,0.2-1.4,0.3-2c0.2-1.3,0.4-2.5,0.4-3.6c0-0.5,0-1.1,0.1-1.6c0-0.5,0-0.9,0-1.3c-0.1-1.7-0.6-2.9-1.5-3.3
	c-0.9-0.4-2.1,0-3.4,1.2c-0.3,0.3-0.7,0.6-1,1c-0.3,0.4-0.7,0.8-1,1.3c-0.7,1-1.4,2.2-2,3.5c-0.3,0.7-0.6,1.4-1,2.2
	c-0.3,0.8-0.6,1.6-0.8,2.4c-0.6,1.7-0.9,3.5-1.3,5.5c-0.2,1-0.3,2-0.4,3c-0.1,0.5-0.1,1-0.2,1.6l-0.1,1.6l-0.1,1.6
	C201.5,266.2,201.5,266.5,201.5,266.8L201.5,266.8z"/>
<path class="st16" d="M216.4,237.2c0,0-13.1,1.4-14,20.6c0,0,3.4,4,12.2,2.1L216.4,237.2L216.4,237.2z"/>
<path class="st15" d="M215.5,237.4c0.3,1.4,1.1,2.6,2.2,3.5c1.7,1.4,4.1,1.8,6.1,1c1.1-0.4,2.2-1.2,2.7-2.3c0.2-0.5,0.3-1,0.3-1.5
	c-0.3-0.3-0.5-0.4-0.5-0.5v0l-0.3-0.5l-9.4-0.3l-0.3,0.4C216.4,237.2,216,237.3,215.5,237.4z"/>
<path class="st12" d="M270.7,356.5c0,0.2-0.1,0.3-0.3,0.3c0,0-2.4,0.8-4.8,0.8c-3.7,0-14.7-0.2-14.7-0.2c0,0-0.1,0-0.1,0
	c0,0-0.1,0-0.1-0.1c0,0-0.1-0.1-0.1-0.1s0-0.1,0-0.1l0-1.1c0-0.2,0.1-0.3,0.3-0.3c0,0,11,0.2,14.6,0.2c2.2,0,4.5-0.8,4.5-0.8
	c0.2,0,0.3,0.1,0.3,0.3L270.7,356.5L270.7,356.5z"/>
<path class="st5" d="M251,355.7c0,0-0.6-2.9,0.4-4.6c1-1.7-0.4-6.5-0.2-7.8c0.2-1.3,0.6-1.2,2.9-2.2c2.2-1,4.4-1.4,4.2,0.5
	c-0.2,1.9-0.1,10.7,7.8,12.3c1.8-0.4,4.7,0.5,4.1,1.2c-0.3,0-1.9,0.8-4.5,0.8C259.8,355.8,251,355.7,251,355.7L251,355.7z"/>
<path class="st17" d="M258.2,341.5c0.2-1.9-1.9-1.5-4.1-0.5c-2.2,1-2.7,0.9-2.9,2.2c-0.2,1.3,1.2,6,0.2,7.8c-1,1.7-0.4,4.6-0.4,4.6
	s8.8,0.1,14.6,0.2c0.8,0,1.5-0.1,2.1-0.2c0,0-0.3-1.5-1.7-1.9C258.1,352.2,258,343.4,258.2,341.5L258.2,341.5z"/>
<path class="st5" d="M264.6,353.2c0-0.1,0-0.1,0-0.2c0-0.1-0.1-0.1-0.1-0.1s-0.1,0-0.2,0c-0.1,0-0.1,0.1-0.1,0.1l-0.3,1
	c0,0.1,0,0.3,0.2,0.3c0.1,0,0.3,0,0.3-0.2L264.6,353.2z M262.7,353.8c0.1-0.2,0.1-0.5-0.1-0.6c-0.1-0.1-0.2-0.1-0.3,0
	c-0.1,0-0.2,0.1-0.3,0.2c-0.1,0.2-0.1,0.5,0.1,0.6C262.3,354,262.5,354,262.7,353.8z"/>
<path class="st5" d="M263.2,352.5C263.2,352.5,263.2,352.5,263.2,352.5c0-0.1,0-0.1,0-0.2c0,0,0-0.1,0-0.1c0,0,0,0-0.1-0.1
	c0,0-0.1,0-0.1,0c0,0-0.1,0-0.1,0c0,0-0.1,0-0.1,0c0,0,0,0-0.1,0.1l-0.5,0.9c-0.1,0.1,0,0.3,0.1,0.3c0.1,0.1,0.3,0,0.3-0.1
	L263.2,352.5z M260.9,352.7c0.2-0.2,0.2-0.4,0-0.6c0,0-0.1-0.1-0.1-0.1c-0.1,0-0.1,0-0.2,0c-0.1,0-0.1,0-0.2,0
	c-0.1,0-0.1,0.1-0.1,0.1c-0.2,0.2-0.2,0.4,0,0.6C260.5,352.8,260.7,352.8,260.9,352.7z"/>
<path class="st5" d="M261.7,351.6c0.1-0.1,0.1-0.2,0-0.3c0,0,0,0-0.1-0.1c0,0-0.1,0-0.1,0c0,0-0.1,0-0.1,0c0,0-0.1,0-0.1,0l-0.8,0.7
	c-0.1,0.1-0.1,0.2,0,0.3c0.1,0.1,0.2,0.1,0.3,0L261.7,351.6z M259.5,351c0,0,0.1-0.1,0.1-0.1c0,0,0.1-0.1,0.1-0.1c0-0.1,0-0.1,0-0.2
	c0-0.1,0-0.1-0.1-0.2c0,0-0.1-0.1-0.1-0.1c0,0-0.1-0.1-0.1-0.1c-0.1,0-0.1,0-0.2,0c-0.1,0-0.1,0-0.2,0.1c-0.1,0.1-0.2,0.1-0.2,0.3
	c0,0.1,0,0.2,0,0.3c0.1,0.1,0.1,0.2,0.3,0.2C259.3,351.1,259.4,351.1,259.5,351z"/>
<path class="st5" d="M260.5,350.2c0.1-0.1,0.2-0.2,0.1-0.3c0,0,0-0.1-0.1-0.1c0,0-0.1,0-0.1,0s-0.1,0-0.1,0c0,0-0.1,0-0.1,0
	l-0.9,0.5c0,0-0.1,0-0.1,0.1c0,0,0,0.1,0,0.1c0,0,0,0.1,0,0.1c0,0,0,0.1,0,0.1c0.1,0.1,0.2,0.2,0.3,0.1L260.5,350.2z M258.4,349
	c0.2-0.1,0.3-0.3,0.2-0.5c0-0.1-0.1-0.1-0.1-0.1c0,0-0.1-0.1-0.1-0.1c0,0-0.1,0-0.2,0c-0.1,0-0.1,0-0.2,0c-0.2,0.1-0.3,0.3-0.2,0.5
	c0,0.1,0.1,0.1,0.1,0.1c0,0,0.1,0.1,0.1,0.1c0.1,0,0.1,0,0.2,0S258.4,349,258.4,349L258.4,349z"/>
<path class="st5" d="M259.6,348.4c0.1,0,0.2-0.2,0.1-0.3c0-0.1-0.1-0.1-0.1-0.1c-0.1,0-0.1,0-0.2,0l-1,0.4c-0.1,0-0.2,0.2-0.1,0.3
	c0,0.1,0.2,0.2,0.3,0.1L259.6,348.4z M257.7,347.1c0.1,0,0.1,0,0.1-0.1c0,0,0.1-0.1,0.1-0.1c0,0,0-0.1,0.1-0.2c0-0.1,0-0.1,0-0.2
	c0-0.1,0-0.1-0.1-0.1c0,0-0.1-0.1-0.1-0.1c0,0-0.1,0-0.2-0.1c-0.1,0-0.1,0-0.2,0c-0.1,0-0.1,0-0.1,0.1c0,0-0.1,0.1-0.1,0.1
	s0,0.1-0.1,0.2c0,0.1,0,0.1,0,0.2C257.2,347,257.4,347.1,257.7,347.1L257.7,347.1z"/>
<path class="st5" d="M258.9,346.6c0.1,0,0.2-0.2,0.2-0.3c0,0,0-0.1,0-0.1c0,0,0,0-0.1-0.1s-0.1,0-0.1,0s-0.1,0-0.1,0l-1,0.2
	c-0.1,0-0.2,0.2-0.2,0.3c0,0.1,0.2,0.2,0.3,0.2L258.9,346.6z M257.2,344.9c0.2,0,0.4-0.2,0.4-0.5c0-0.1-0.1-0.2-0.2-0.3
	s-0.2-0.1-0.3-0.1c-0.2,0-0.4,0.2-0.4,0.5c0,0.1,0,0.1,0,0.2c0,0,0.1,0.1,0.1,0.1c0,0,0.1,0.1,0.1,0.1
	C257.1,344.9,257.2,344.9,257.2,344.9L257.2,344.9z"/>
<path class="st5" d="M258.5,344.5C258.5,344.5,258.6,344.5,258.5,344.5c0.1,0,0.1-0.1,0.2-0.1c0,0,0,0,0-0.1c0,0,0-0.1,0-0.1
	c0,0,0-0.1,0-0.1c0,0,0,0-0.1-0.1c0,0-0.1,0-0.1,0c0,0-0.1,0-0.1,0l-1.1,0.1c-0.1,0-0.1,0-0.2,0.1c0,0-0.1,0.1-0.1,0.2
	c0,0.1,0,0.1,0.1,0.2c0,0,0.1,0.1,0.2,0L258.5,344.5z"/>
<path class="st12" d="M243.4,359.6c0,0.2-0.2,0.3-0.4,0.3c0,0-2.5,0.5-4.8,0.1c-3.6-0.6-14.5-2.2-14.5-2.2c-0.1,0-0.2-0.1-0.2-0.1
	c0-0.1-0.1-0.1-0.1-0.2l0.2-1.1c0-0.2,0.2-0.3,0.4-0.3l14.5,2.2c2.1,0.3,4.6-0.2,4.6-0.2c0.2,0,0.3,0.2,0.3,0.4L243.4,359.6z"/>
<path class="st5" d="M223.9,356c0,0-0.2-3,1.1-4.5c1.3-1.6,0.5-6.4,0.9-7.7c0.4-1.3,0.8-1.1,3.2-1.8c2.4-0.7,4.5-0.8,4,1.1
	c-0.5,1.8-1.6,10.5,6,13.3c1.9-0.1,4.6,1.1,3.9,1.8c-0.3,0-2,0.6-4.6,0.2C232.6,357.4,223.9,356,223.9,356z"/>
<path class="st18" d="M233,343c0.5-1.8-1.7-1.8-4.1-1.1c-2.4,0.7-2.8,0.6-3.2,1.8c-0.4,1.3,0.4,6.1-0.9,7.7
	c-1.3,1.6-1.1,4.5-1.1,4.5s8.7,1.3,14.5,2.2c0.8,0.1,1.5,0.1,2.1,0.1c0,0-0.1-1.5-1.4-2.1C231.4,353.6,232.6,344.9,233,343L233,343z
	"/>
<path class="st5" d="M237.7,355.4c0-0.1,0-0.1,0-0.2c0-0.1-0.1-0.1-0.1-0.1c-0.1,0-0.1,0-0.2,0c-0.1,0-0.1,0.1-0.1,0.1l-0.4,1
	c0,0.1,0,0.3,0.1,0.3c0.1,0,0.3,0,0.3-0.1L237.7,355.4z M235.7,355.7c0.1-0.2,0.1-0.5-0.1-0.6c-0.1-0.1-0.2-0.1-0.3-0.1
	c-0.1,0-0.2,0.1-0.3,0.2c-0.1,0.2-0.1,0.5,0.1,0.6C235.3,355.9,235.6,355.9,235.7,355.7z"/>
<path class="st5" d="M236.4,354.6c0.1-0.1,0.1-0.2,0-0.3c0,0-0.1-0.1-0.2,0c-0.1,0-0.1,0-0.2,0.1l-0.7,0.8c-0.1,0.1-0.1,0.2,0,0.3
	c0.1,0.1,0.2,0.1,0.3,0L236.4,354.6z M234.2,354.4c0.2-0.1,0.2-0.4,0.1-0.6c0,0-0.1-0.1-0.1-0.1c0,0-0.1,0-0.2-0.1s-0.1,0-0.2,0
	c-0.1,0-0.1,0-0.1,0.1c-0.2,0.1-0.2,0.4-0.1,0.6C233.7,354.5,234,354.5,234.2,354.4z"/>
<path class="st5" d="M235.1,353.5C235.2,353.5,235.2,353.4,235.1,353.5c0.1-0.1,0.1-0.1,0.1-0.2c0,0,0-0.1,0-0.1c0,0,0-0.1,0-0.1
	c0,0,0,0-0.1-0.1c0,0-0.1,0-0.1,0c0,0-0.1,0-0.1,0c0,0-0.1,0-0.1,0l-0.9,0.6c-0.1,0-0.1,0.1-0.1,0.2c0,0.1,0,0.1,0,0.2
	c0,0.1,0.1,0.1,0.2,0.1c0.1,0,0.1,0,0.2,0L235.1,353.5z M233,352.6c0.2-0.1,0.3-0.3,0.2-0.6c0-0.1-0.1-0.1-0.1-0.1
	c0,0-0.1-0.1-0.1-0.1c-0.1,0-0.1,0-0.2,0c-0.1,0-0.1,0-0.2,0c-0.1,0-0.1,0.1-0.1,0.1c0,0-0.1,0.1-0.1,0.1c0,0.1,0,0.1,0,0.2
	c0,0.1,0,0.1,0,0.2C232.5,352.6,232.8,352.7,233,352.6L233,352.6z"/>
<path class="st5" d="M234.1,351.9c0.1,0,0.2-0.2,0.1-0.3c0-0.1-0.1-0.1-0.1-0.1c-0.1,0-0.1,0-0.2,0l-1,0.4c0,0-0.1,0-0.1,0.1
	c0,0,0,0-0.1,0.1c0,0,0,0.1,0,0.1c0,0,0,0.1,0,0.1c0,0.1,0.2,0.2,0.3,0.1L234.1,351.9z M232.2,350.5c0.1,0,0.1,0,0.2-0.1
	c0,0,0.1-0.1,0.1-0.1c0,0,0.1-0.1,0.1-0.2c0-0.1,0-0.1,0-0.2c0-0.1,0-0.1-0.1-0.2c0,0-0.1-0.1-0.1-0.1c-0.1,0-0.1,0-0.2-0.1
	c-0.1,0-0.1,0-0.2,0c-0.1,0-0.2,0.1-0.2,0.2c-0.1,0.1-0.1,0.2,0,0.3c0,0.1,0.1,0.2,0.2,0.3C232,350.5,232.1,350.5,232.2,350.5
	L232.2,350.5z"/>
<path class="st5" d="M233.4,349.9c0.1,0,0.2-0.2,0.2-0.3c0,0,0-0.1,0-0.1c0,0,0,0-0.1-0.1c0,0-0.1,0-0.1,0c0,0-0.1,0-0.1,0l-1,0.3
	c-0.1,0-0.2,0.2-0.2,0.3c0,0.1,0.2,0.2,0.3,0.2L233.4,349.9z M231.7,348.4c0.2,0,0.4-0.2,0.4-0.5c0-0.1,0-0.1,0-0.2
	c0,0-0.1-0.1-0.1-0.1s-0.1-0.1-0.1-0.1c-0.1,0-0.1,0-0.2,0c-0.2,0-0.4,0.2-0.4,0.5C231.3,348.2,231.5,348.4,231.7,348.4z"/>
<path class="st5" d="M233,348.1c0.1,0,0.2-0.1,0.2-0.3c0-0.1,0-0.1-0.1-0.2c0,0-0.1-0.1-0.2-0.1l-1,0.1c-0.1,0-0.2,0.1-0.2,0.3
	c0,0.1,0.1,0.2,0.3,0.2L233,348.1z M231.6,346.2c0.2,0,0.4-0.2,0.4-0.4c0-0.1,0-0.1,0-0.2c0-0.1,0-0.1-0.1-0.1c0,0-0.1-0.1-0.1-0.1
	s-0.1,0-0.2,0c-0.1,0-0.2,0-0.3,0.1s-0.1,0.2-0.1,0.3C231.2,346,231.3,346.2,231.6,346.2z"/>
<path class="st5" d="M232.9,346c0.1,0,0.2-0.1,0.2-0.2c0,0,0-0.1,0-0.1c0,0,0-0.1,0-0.1c0,0,0,0-0.1-0.1c0,0-0.1,0-0.1,0l-1.1,0
	c0,0-0.1,0-0.1,0c0,0-0.1,0-0.1,0c0,0,0,0-0.1,0.1c0,0,0,0.1,0,0.1c0,0.1,0.1,0.2,0.2,0.2L232.9,346z"/>
<path class="st19" d="M77,318.8h46.3v46.3H77V318.8z"/>
<path class="st20" d="M146.4,311l-23.1,7.7v46.3l23.1-7.7V311z"/>
<path class="st21" d="M77,318.8l23.2-7.7h46.3l-23.2,7.7H77z"/>
<path class="st22" d="M130.4,349.7v12.9l6.9-2.3v-13L130.4,349.7z M130.4,316.4v12.9l6.9-2.3v-13L130.4,316.4z"/>
<path class="st20" d="M91,314.1l-1,0.3l-1.5,0.5l-4.8,1.5h46.6l6.9-2.3H91z"/>
<path class="st23" d="M86.1,282.3h34.3v34.3H86.1V282.3z"/>
<path class="st24" d="M137.6,276.6l-17.2,5.7v34.4l17.2-5.7V276.6z"/>
<path class="st25" d="M86.1,282.3l17.2-5.7h34.3l-17.2,5.7H86.1z"/>
<path class="st26" d="M107.3,284.5h11.7v5.1h-11.7V284.5z"/>
<path class="st27" d="M114.5,276.6l-14.2,5.7h5.9l13.8-5.7H114.5z M100.3,282.3v6.6h5.9l0.1-6.6H100.3z M100.3,310.2v6.6h5.9
	l0.1-6.6H100.3z"/>
<path class="st28" d="M497,236c0,0,6.3-5.3,4-13.1c-2.3-7.8-12.7-13.8-25.3-11.3c-12.6,2.5-22.6,15.8-23.5,24.4H497L497,236z"/>
<path class="st29" d="M454.9,218.3c0,0-2.9-3.2-7.6-3.2l1.9,8.3L454.9,218.3z"/>
<path class="st29" d="M461.9,218.8l3.5-5c0,0,5.7,4.3,3.7,9.6C467.1,228.6,461.9,218.8,461.9,218.8L461.9,218.8z"/>
<path class="st28" d="M467.5,220.2c0,0,6.8,5,6.1,10.5c-0.7,5.4-8.2,6.4-18.8,5.9c-10.6-0.5-9-7.7-8.7-9.8
	C446.6,224.7,454.2,209.8,467.5,220.2L467.5,220.2z"/>
<path class="st30" d="M466.8,224.2c0,0-0.7,1.9-3.9,2.1c-3.1,0.1-3.1-1.9-3.1-1.9S463,227.2,466.8,224.2L466.8,224.2z"/>
<path class="st31" d="M462.6,227.9c0,0-1.6-1.3-4.5-0.9c-2.8,0.4-3.7,2-3.9,2.7c-0.2,0.7,1,3.2,4.6,2.7
	C462.4,231.9,464.4,229.4,462.6,227.9z"/>
<path class="st30" d="M457,224.2c0,0-0.7,2.6-3.9,2.8c-3.1,0.2-3.1-2.5-3.1-2.5S453.3,228.2,457,224.2L457,224.2z"/>
<path class="st30" d="M459.4,227.7c0,0-1.6-0.1-2.3,0.3c-0.7,0.5,1.3,1.7,1.3,1.7S460.7,228.2,459.4,227.7z"/>
<path class="st31" d="M470.1,222.8c0,0,9.3,8.3-1.9,13.2C468.2,236,475.6,231.7,470.1,222.8z"/>
<path class="st29" d="M485,234c-7.1-1-9-2.1-9.9,0.7c-0.9,2.8,16.2,6.8,21.9,1.2c5.7-5.7,4.3-11.7,4.3-11.7S498.3,235.9,485,234z"/>
</svg>
