<svg version="1.1" xmlns="http://www.w3.org/2000/svg" xmlns:xlink="http://www.w3.org/1999/xlink" width="630" height="390" viewBox="0 0 630 390">
<style type="text/css">
	.st0{fill:#EAF1FC;}
	.st1{fill:#F8F8FF;}
	.st2{fill:#FFFFFF;}
	.st3{fill:#D6E0F0;}
	.st4{fill:#EDF0F4;}
	.st5{fill:#CDE4F7;}
	.st6{fill:#ACCFE5;}
	.st7{fill:#E9EDF4;}
	.st8{fill:#FCFBFC;}
	.st9{fill:#E8815F;}
	.st10{fill:#F09976;}
	.st11{fill:#0A273A;}
	.st12{fill:#0B2B46;}
	.st13{fill:#E94646;}
	.st14{fill:#4FA52B;}
	.st15{fill:#75C945;}
	.st16{fill:#FFDA35;}
	.st17{fill:#E08F73;}
	.st18{fill:#047487;}
	.st19{fill:#05616B;}
	.st20{fill:#02819F;}
	.st21{fill:#F8C47A;}
	.st22{fill:#E19A54;}
	.st23{fill:#FFDF9A;}
	.st24{fill:#E4E6E6;}
	.st25{fill:#CE8D4D;}
	.st26{fill:#303D48;}
	.st27{fill:#D38137;}
	.st28{fill:#E5B571;}
	.st29{fill:#ECCF8E;}
	.st30{fill:#C07532;}
	.st31{fill:#DADCDC;}
	.st32{fill:#ECCF8F;}
	.st33{fill:#C07632;}
	.st34{fill:#FFA436;}
	.st35{fill:#EFC7A3;}
	.st36{fill:#233C45;}
	.st37{fill:#EA9436;}
	.st38{fill:none;stroke:#75C945;stroke-linecap:round;stroke-miterlimit:10;}
	.st39{fill:none;stroke:#4FA52B;stroke-linecap:round;stroke-miterlimit:10;}
	.st40{fill:#ADBF5B;}
	.st41{fill:#C9D93B;}
	.st42{fill:#FF8500;}
	.st43{fill:#F2F3F5;}
</style>
<path class="st0" d="M315,390c174,0,315-20.5,315-45.7c0-25.2-141-45.7-315-45.7S0,319.1,0,344.3C0,369.5,141,390,315,390z"/>
<path class="st1" d="M573.4,327.1c35.9-75.5,55.7-220.2-22.1-268.2c-50.9-31.4-104,9-158.5,10.8c-42.8,1.4-84-32.7-122.6-42.5
	c-101-25.5-260,41-190.2,299.9C254.9,326.6,398.6,327.6,573.4,327.1z"/>
<path class="st2" d="M280.2,214.5H177.7c-1.4,0-2.5-1.2-2.5-2.5V61.5c-3.9-56.3,18.4-54.3,53.7-54.3h0.1
	c56.2-3.7,53.8,24.4,53.8,54.4V212C282.7,213.4,281.6,214.5,280.2,214.5z"/>
<path class="st3" d="M280.7,216.7H176.1c-1.7,0-3.1-1.4-3.1-3.2V39c0-18.2,14.6-33,32.6-33h45.6c18,0,32.6,14.8,32.6,33v174.6
	C283.8,215.3,282.4,216.7,280.7,216.7z M176.3,213.4h104.2V39c0-16.4-13.1-29.7-29.3-29.7h-45.6c-16.1,0-29.3,13.3-29.3,29.7V213.4z
	"/>
<path class="st3" d="M228.4,215.4c-0.9,0-1.6-0.7-1.6-1.7V7.7c0-0.9,0.7-1.7,1.6-1.7c0.9,0,1.6,0.7,1.6,1.7v206
	C230.1,214.7,229.3,215.4,228.4,215.4z"/>
<path class="st2" d="M471.9,214.5H369.4c-1.4,0-2.5-1.2-2.5-2.5V61.5C363,5.3,385.3,7.2,420.6,7.2h0.1c56.2-3.7,53.8,24.4,53.8,54.4
	V212C474.4,213.4,473.2,214.5,471.9,214.5z"/>
<path class="st3" d="M282.1,167.8H174.6c-0.9,0-1.6-0.7-1.6-1.7s0.7-1.7,1.6-1.7h107.5c0.9,0,1.6,0.7,1.6,1.7
	S283.1,167.8,282.1,167.8z M282.1,64.4H174.6c-0.9,0-1.6-0.7-1.6-1.7c0-0.9,0.7-1.7,1.6-1.7h107.5c0.9,0,1.6,0.7,1.6,1.7
	C283.8,63.6,283.1,64.4,282.1,64.4z M282.1,116.1H174.6c-0.9,0-1.6-0.7-1.6-1.7c0-0.9,0.7-1.7,1.6-1.7h107.5c0.9,0,1.6,0.7,1.6,1.7
	C283.8,115.3,283.1,116.1,282.1,116.1z"/>
<path class="st3" d="M472.9,216.7H368.3c-1.7,0-3.1-1.4-3.1-3.2V39c0-18.2,14.6-33,32.6-33h45.6c18,0,32.6,14.8,32.6,33v174.6
	C476,215.3,474.6,216.7,472.9,216.7z M368.5,213.4h104.2V39c0-16.4-13.1-29.7-29.3-29.7h-45.6c-16.1,0-29.3,13.3-29.3,29.7V213.4z"
	/>
<path class="st3" d="M420.5,215.4c-0.9,0-1.6-0.7-1.6-1.7V7.7c0-0.9,0.7-1.7,1.6-1.7s1.6,0.7,1.6,1.7v206
	C422.2,214.7,421.5,215.4,420.5,215.4z"/>
<path class="st3" d="M474.3,167.8H366.8c-0.9,0-1.6-0.7-1.6-1.7s0.7-1.7,1.6-1.7h107.5c0.9,0,1.6,0.7,1.6,1.7
	S475.2,167.8,474.3,167.8z M474.3,64.4H366.8c-0.9,0-1.6-0.7-1.6-1.7c0-0.9,0.7-1.7,1.6-1.7h107.5c0.9,0,1.6,0.7,1.6,1.7
	C476,63.6,475.2,64.4,474.3,64.4z M474.3,116.1H366.8c-0.9,0-1.6-0.7-1.6-1.7c0-0.9,0.7-1.7,1.6-1.7h107.5c0.9,0,1.6,0.7,1.6,1.7
	C476,115.3,475.2,116.1,474.3,116.1z"/>
<path class="st0" d="M332.4,0h2.1v98.9h-2.1V0z"/>
<path class="st3" d="M349.5,119.3c-0.1-9.2-7.4-16.6-16.5-16.6s-16.4,7.4-16.5,16.6H349.5z"/>
<path class="st3" d="M338.9,102.8c0,4.9-2.7,8.9-6.1,8.9c-3.4,0-6.1-4-6.1-8.9c0-4.9,2.7-8.9,6.1-8.9
	C336.2,93.9,338.9,97.8,338.9,102.8z"/>
<path class="st0" d="M305.3,0h2.1v64.2h-2.1V0z"/>
<path class="st3" d="M322.4,83.8c-0.1-9.1-7.4-16.4-16.5-16.4s-16.4,7.4-16.5,16.4H322.4z"/>
<path class="st3" d="M311.8,67.4c0,4.9-2.7,8.8-6.1,8.8c-3.4,0-6.1-3.9-6.1-8.8c0-4.9,2.7-8.8,6.1-8.8
	C309.1,58.6,311.8,62.6,311.8,67.4z M257.2,362.4l-36.7-117.3l7.3-1.9l32.6,119.3H257.2z"/>
<path class="st3" d="M192.2,354.4l27.6-119.6l7.4,1.8l-31.8,117.8H192.2z"/>
<path class="st3" d="M246.6,316.8l-44.3,0.1v-4.1h43.1L246.6,316.8z M61.7,354.4l36.6-117.3l-7.3-1.9L58.5,354.4H61.7z"/>
<path class="st3" d="M126.8,354.4L99.1,234.9l-7.3,1.8l31.7,117.8H126.8z"/>
<path class="st3" d="M72.4,316.8l44.3,0.1v-4.1H73.6L72.4,316.8z M58,238.2h202.5v-11.8H58V238.2z"/>
<path class="st4" d="M102.2,225.9c0,0.3-0.3,0.6-0.6,0.6H74.3c-0.3,0-0.6-0.3-0.6-0.6v-19.7c0-0.3,0.3-0.6,0.6-0.6h27.3
	c0.3,0,0.6,0.3,0.6,0.6V225.9z"/>
<path class="st3" d="M73.4,208.2v-4.8c0-0.5,0.5-0.9,1.1-0.9h27c0.6,0,1.1,0.4,1.1,0.9v4.8H73.4z"/>
<path class="st4" d="M104.5,225.7c0,0.4,0.4,0.8,0.8,0.8h40.1c0.4,0,0.8-0.4,0.8-0.8v-25.9c0-0.4-0.4-0.8-0.8-0.8h-40.1
	c-0.4,0-0.8,0.4-0.8,0.8V225.7z"/>
<path class="st3" d="M104.5,202.5v-7c0-0.4,0.4-0.9,0.8-0.9h40.1c0.4,0,0.9,0.4,0.9,0.9v7H104.5z M118.9,212.6H143v10.1h-24.2V212.6
	z"/>
<path class="st5" d="M184,220.3l5.3,6.3h31.4l5.4-6.3H184z"/>
<path class="st5" d="M184,216.5l5.3,6.4h31.4l5.4-6.4H184z"/>
<path class="st6" d="M186.6,220.3h35.5l1.3-1.5h-36.8V220.3z"/>
<path class="st5" d="M184,212.5l5.3,6.4h31.4l5.4-6.4H184z"/>
<path class="st6" d="M187.3,216.5h35.3l1.3-1.5h-37.8L187.3,216.5z"/>
<path class="st5" d="M184,208.5l5.3,6.3h31.4l5.4-6.3H184z"/>
<path class="st5" d="M184,204.1l5.3,6.4h31.4l5.4-6.4H184z"/>
<path class="st6" d="M187.2,212.5h35.6l1.3-1.5h-38L187.2,212.5z M187.6,208.5h34.7l1.3-1.5h-37.2L187.6,208.5z"/>
<path class="st7" d="M345.9,164.5c-5.6,2-3,9.7,0.6,13.2c3.9,3.8,9.8,5.9,13.2,1.8c0.2-0.2,0.4-0.6,0.4-0.9c0-0.3,0-0.7-0.2-1
	c-0.2-0.3-0.4-0.5-0.7-0.7c-0.3-0.1-0.6-0.2-1-0.1c-2.4,0.1-4.2-0.6-3.3-2.3c0.9-1.7,4.6,1.6,5.9,1.6c3,0,4.2-2.2,3.5-4.1
	c-0.6-1.6-4.8-2.1-3.8-3.4c1.5-1.8,3.6,1,5.2-0.2c2.4-2,2-5.8,0.9-7.2c-0.9-1.1-4.3-2.8-7-1.7c-2.5,1-1.7,6.5-2.9,6.6
	c-2.2,0.1-0.4-4.7-2.2-6.1c-1-0.9-4.1-0.3-4.9,1.7c-1,2.7,2.7,7.7,0,8c-2.5,0.3-1-2.5-1.8-4.1C347.9,165.2,347,164.1,345.9,164.5
	L345.9,164.5z"/>
<path class="st5" d="M328.4,208.5L328.4,208.5c-0.1,0-0.2-0.1-0.2-0.1c0-0.1,0-0.1,0-0.2c6.1-18.4,18.5-34.2,34.9-44.4
	c0.1,0,0.1,0,0.2,0c0.1,0,0.1,0.1,0.2,0.1c0,0,0,0.1,0,0.1c0,0,0,0.1,0,0.1c0,0,0,0.1,0,0.1c0,0,0,0-0.1,0.1
	c-16.4,10.2-28.7,25.8-34.7,44.1c0,0.1,0,0.1-0.1,0.1C328.5,208.4,328.5,208.5,328.4,208.5L328.4,208.5z"/>
<path class="st7" d="M330.4,148.8c-4.1,4.3,1.7,10,6.5,11.5c5.2,1.6,11.4,0.8,12.6-4.3c0.1-0.3,0.1-0.6,0-1
	c-0.1-0.3-0.3-0.6-0.6-0.8c-0.3-0.2-0.6-0.3-0.9-0.3c-0.3,0-0.6,0.1-0.9,0.3c-2.1,1.1-4,1.4-4-0.6c0-2,4.8-0.6,6-1.2
	c2.7-1.3,2.7-3.9,1.3-5.3c-1.2-1.1-5.2,0.2-4.9-1.3c0.5-2.3,3.7-0.7,4.5-2.5c1.3-2.9-0.9-6.1-2.4-6.9c-1.3-0.6-5.1-0.6-7,1.6
	c-1.7,2.1,1.4,6.6,0.3,7.2c-1.9,1.1-2.5-4-4.7-4.4c-1.3-0.3-3.8,1.6-3.6,3.7c0.3,2.9,5.9,5.7,3.6,7.2c-2,1.4-2.1-1.8-3.4-2.9
	C332.4,148.4,331.2,147.9,330.4,148.8L330.4,148.8z"/>
<path class="st5" d="M334.4,195.9c-0.1,0-0.1,0-0.2-0.1c0,0-0.1-0.1-0.1-0.1c-2.8-19.2,1.1-38.8,11.3-55.4c0,0,0-0.1,0.1-0.1
	c0,0,0.1,0,0.1,0c0,0,0.1,0,0.1,0c0,0,0.1,0,0.1,0c0,0,0,0,0.1,0.1c0,0,0,0.1,0,0.1c0,0,0,0.1,0,0.1c0,0,0,0.1,0,0.1
	c-10.1,16.5-14,36-11.2,55.1c0,0,0,0.1,0,0.1c0,0,0,0.1,0,0.1C334.5,195.8,334.5,195.8,334.4,195.9
	C334.5,195.9,334.4,195.9,334.4,195.9L334.4,195.9z"/>
<path class="st7" d="M326.1,158.5c5.1,3.1,0.9,10.1-3.3,12.8c-4.6,2.9-10.8,3.7-13.3-0.9c-0.2-0.3-0.2-0.6-0.2-0.9
	c0-0.3,0.1-0.6,0.4-0.9c0.2-0.3,0.5-0.4,0.8-0.5c0.3-0.1,0.6-0.1,1,0c2.3,0.6,4.2,0.3,3.7-1.6c-0.5-1.9-4.8,0.7-6.2,0.4
	c-3-0.6-3.7-3.1-2.6-4.8c0.9-1.4,5.1-1.1,4.4-2.6c-1.1-2.1-3.8,0.3-5-1.3c-2-2.4-0.7-6.1,0.6-7.3c1.1-0.9,4.8-1.9,7.1-0.3
	c2.2,1.5,0.4,6.7,1.5,7c2.1,0.6,1.4-4.5,3.4-5.5c1.2-0.6,4.1,0.5,4.4,2.7c0.4,2.9-4.2,7-1.7,7.8c2.3,0.8,1.5-2.3,2.6-3.7
	C324.1,158.8,325.1,157.9,326.1,158.5z"/>
<path class="st5" d="M334.4,205.1c-0.1,0-0.1,0-0.2-0.1c0,0-0.1-0.1-0.1-0.2c-2.2-19.2-11.1-37-25.1-50.3c0,0-0.1-0.1-0.1-0.2
	c0-0.1,0-0.1,0.1-0.2c0,0,0.1-0.1,0.1-0.1c0.1,0,0.1,0,0.2,0c14.1,13.4,23,31.3,25.2,50.6c0,0.1,0,0.1,0,0.2
	C334.5,205.1,334.4,205.1,334.4,205.1L334.4,205.1z"/>
<path class="st3" d="M324.5,214.1h18.2l2.7-24.9h-23.8L324.5,214.1L324.5,214.1z"/>
<path class="st7" d="M345.5,193.6h-24c-0.2,0-0.3-0.1-0.4-0.2c-0.1-0.1-0.2-0.3-0.2-0.4l-0.3-3.1c0-0.2,0.1-0.4,0.2-0.5
	c0.1-0.1,0.3-0.2,0.5-0.2h24.6c0.2,0,0.3,0.1,0.5,0.2c0.1,0.1,0.2,0.3,0.2,0.5v0l-0.3,3.1c0,0.2-0.1,0.3-0.2,0.4
	S345.7,193.6,345.5,193.6z"/>
<path class="st3" d="M299.3,213.7c-0.2,0-0.3,0.1-0.4,0.2c-0.1,0.1-0.2,0.3-0.2,0.4v1.5c0,0.2,0.1,0.3,0.2,0.4
	c0.1,0.1,0.3,0.2,0.4,0.2H357c0.2,0,0.3-0.1,0.4-0.2c0.1-0.1,0.2-0.3,0.2-0.4v-1.5c0-0.2-0.1-0.3-0.2-0.4c-0.1-0.1-0.3-0.2-0.4-0.2
	H299.3z"/>
<path class="st7" d="M528.3,235.4h5v22h-5V235.4z"/>
<path class="st3" d="M548.6,258.4H513c0-1.1,0.5-2.1,1.5-2.9c1-0.8,2.3-1.2,3.7-1.2h25.2c1.4,0,2.7,0.4,3.7,1.2
	C548,256.3,548.6,257.3,548.6,258.4L548.6,258.4z"/>
<path class="st5" d="M548.8,238.9h-35.9c-0.4,0-0.8-0.1-1.2-0.2c-0.4-0.2-0.7-0.4-0.9-0.7c-0.2-0.3-0.4-0.6-0.4-0.9
	c0-0.3,0-0.7,0.2-1l10.9-19c0.2-0.4,0.5-0.6,0.9-0.9s0.9-0.3,1.4-0.3h14.2c0.5,0,1,0.1,1.4,0.3c0.4,0.2,0.7,0.5,0.9,0.9l10.9,19.1
	c0.2,0.3,0.2,0.6,0.2,1c0,0.3-0.2,0.6-0.4,0.9c-0.2,0.3-0.5,0.5-0.9,0.7C549.6,238.8,549.2,238.9,548.8,238.9z"/>
<path class="st7" d="M470.6,258.4h99.8v69.3h-99.8V258.4z"/>
<path class="st3" d="M479.2,263.7h81.7V288h-81.7V263.7z M479.2,293h81.7v28.1h-81.7V293z M474.7,327.7h8.9v6.1h-8.9V327.7z
	 M556.4,327.7h8.9v6.1h-8.9V327.7z"/>
<path class="st8" d="M487.3,302c2.4,0,4.4-1.5,4.4-3.4c0-1.9-2-3.4-4.4-3.4c-2.4,0-4.4,1.5-4.4,3.4C483,300.4,484.9,302,487.3,302z"
	/>
<path class="st7" d="M484.4,268.1l40.6,0l0,8.5l-40.6,0L484.4,268.1z"/>
<path class="st8" d="M492.8,276.9l44.7,0l0,11.1l-44.7,0L492.8,276.9z"/>
<path class="st9" d="M136.5,141.5c0.3,1.6,0.6,3.1,1.1,4.6c0.6,1.8,1.2,3.6,2,5.3c0.9,2,1.9,3.9,2.9,5.8c1.2,2,2.4,4.1,3.8,6.1
	c0.6,0.9,1.3,1.9,2,2.8c0.8,1.1,1.7,2.3,2.6,3.5l1.2,1.7l1.6,0.4l2.6,0.7c10.5,2.8,20.2,4.8,27.3,6c7.1,1.2,11.6,1.6,11.8,0.7
	c0.3-0.9-3.7-3.1-10.3-6.1c-6.6-3-15.8-6.7-26.1-10.2l-0.5-0.2c-1-1.7-1.9-3.4-2.8-5l-3.2-5.9c-0.7-1.2-1.3-2.4-2-3.6
	c-0.3-0.6-0.7-1.2-1-1.7c-1-1.6-1.9-3.2-2.8-4.5c-0.9-1.4-1.8-2.6-2.6-3.6c-0.7-0.9-1.5-1.8-2.4-2.6c-0.6-0.6-1.3-1.1-2.1-1.4
	c-0.6-0.3-1.2-0.3-1.8-0.1c-0.6,0.3-1,0.7-1.2,1.3c-0.3,0.8-0.5,1.7-0.5,2.6C136.2,139.1,136.3,140.3,136.5,141.5L136.5,141.5z"/>
<path class="st10" d="M184.8,172.5c2.3-0.2,5.2-1.7,7.4-2.9c0.1,0,0.2,0,0.2,0c0.1,0,0.2,0.1,0.2,0.2c0,0,0,0.1,0,0.1s0,0.1,0,0.1
	c-0.3,0.6-0.7,1.1-1.2,1.5c-0.5,0.2-1,0.4-1.2,0.9c-0.1,0.2-0.1,0.5,0,0.7c0.1,0.2,0.2,0.4,0.4,0.6c0.4,0.3,0.8,0.5,1.3,0.6l3.3,0.9
	c0.9,0.3,2,0.6,2.2,1.8c0.1,0.5-0.1,1.1-0.3,1.6c-0.5,0.9-1.2,1.7-2.1,2.2c-0.9,0.5-1.9,0.8-2.9,0.9c-2,0.1-3.9-0.6-5.4-1.9
	c-1.5-1.3-2.7-2.9-3.4-4.8C183.6,174.1,184.4,173.3,184.8,172.5L184.8,172.5z"/>
<path class="st9" d="M125.1,326.2c-0.3-7.5-0.7-16.5-1.1-26.5c-0.3-10-0.6-20.9-0.7-32.4c-0.1-11.5,0.1-22.4,0.7-32.3
	c0.3-5,0.6-9.7,1.1-14.1c0.4-4.4,0.9-8.4,1.4-11.9c0.4-3.5,0.8-6.6,1.1-9.3c0.3-2.7,0.5-5,0.7-7c0.1-1.6,0.4-3.3,0.9-4.9
	c0.1-0.5,0.3-1,0.7-1.4c0.3-0.4,0.7-0.8,1.2-1c0.9-0.4,1.9-0.2,3.2,0.7c1.6,1.2,3,2.6,4,4.3c1.6,2.5,2.8,5.2,3.5,8.1
	c0.5,1.7,0.9,3.4,1.2,5.2c0.3,1.8,0.6,3.8,0.7,5.8c0.3,4,0.4,8.3,0.3,12.6c-0.1,4.4-0.3,9.1-0.5,14.1c-0.6,9.9-1.6,20.8-3,32.2
	c-1.4,11.4-2.9,22.2-4.3,32.1c-1.5,9.9-2.9,18.7-4,26.2c-1.2,7.5-2.2,13.5-3,17.6c-0.8,4.1-1.4,6.5-1.9,6.4c-0.5,0-0.8-2.4-1.1-6.6
	C125.8,339.8,125.4,333.7,125.1,326.2z"/>
<path class="st11" d="M126.7,353.9c0.5,1.1,1.2,2.1,2.2,2.9c0.9,0.8,2,1.4,3.2,1.8c2.5,0.8,5.2,0.7,7.8,0.5c1.1,0,2.2-0.2,3.2-0.6
	c1-0.4,1.8-1.4,1.5-2.3c-0.3-1.2-1.9-1.8-3.3-2.3c-3.9-1.1-7.5-2.8-11-4.8c-1.6-1-2.8-2.4-3.8-0.2
	C126,350.5,126.1,352.3,126.7,353.9L126.7,353.9z"/>
<path class="st10" d="M114.4,326.2c-0.3-7.5-0.7-16.5-1.1-26.5c-0.3-10-0.6-20.9-0.7-32.4c-0.1-11.5,0.1-22.4,0.7-32.3
	c0.3-5,0.6-9.7,1.1-14.1c0.4-4.4,1-8.4,1.4-11.9c0.4-3.5,0.8-6.6,1.1-9.3c0.3-2.7,0.5-5,0.7-7c0.1-1.6,0.4-3.3,0.9-4.9
	c0.1-0.5,0.3-1,0.7-1.4c0.3-0.4,0.7-0.8,1.2-1c0.9-0.4,1.9-0.2,3.2,0.7c1.6,1.2,3,2.6,4,4.3c1.6,2.5,2.8,5.2,3.5,8.1
	c0.5,1.7,0.9,3.4,1.2,5.2c0.3,1.8,0.6,3.8,0.7,5.8c0.3,4,0.4,8.3,0.3,12.6c-0.1,4.4-0.3,9.1-0.5,14.1c-0.6,9.9-1.6,20.8-3,32.2
	c-1.4,11.4-2.9,22.2-4.3,32.1c-1.5,9.9-2.9,18.7-4,26.2c-1.2,7.5-2.2,13.5-3,17.6c-0.8,4.1-1.4,6.5-1.9,6.4c-0.5,0-0.8-2.4-1.1-6.6
	C115.1,339.8,114.8,333.7,114.4,326.2L114.4,326.2z"/>
<path class="st12" d="M115.7,354c0.5,1.1,1.2,2.1,2.1,2.8c0.9,0.8,2,1.4,3.1,1.7c2.4,0.8,5,0.6,7.6,0.5c1.1,0,2.1-0.2,3.1-0.6
	c1-0.4,1.7-1.3,1.5-2.2c-0.2-1.2-1.8-1.8-3.2-2.2c-3.7-1.1-7.3-2.7-10.6-4.7c-1.6-1-2.7-2.3-3.7-0.2C115,350.7,115,352.5,115.7,354
	L115.7,354z M139.6,178.2c9.4,27.9,7.9,87.9,7.9,87.9c-16.8,5-28.3,4-34.9,2.4c-2.3-0.5-4.5-1.3-6.5-2.4
	c-2.4-51.2,12.9-88.3,12.9-88.3C119.1,177.6,134.4,176.5,139.6,178.2z M113.9,97.8c-0.7,2.6-0.2,5.6-1.2,8.1
	c-1.5,3.6-5.7,5.2-8.2,8.2c-3.1,3.6-3.3,9.1-1,13.3c2.3,4.2,6.6,7,11.2,8.1c4.6,1.1,9.6,0.6,14.2-0.7c2.2-0.5,4.2-1.4,6-2.7
	c0.9-0.6,1.7-1.4,2.3-2.4c0.6-0.9,1-2,1.2-3.1c0.5-3.8-2.4-7.4-1.8-11.2c0.5-2.9,2.9-5.1,4.3-7.7c1-2,1.5-4.2,1.3-6.4
	c-0.2-2.2-0.9-4.3-2.2-6.1C134.2,87.5,116.9,87.4,113.9,97.8L113.9,97.8z"/>
<path class="st13" d="M110.2,145.2c1,2.9,2.3,5.8,3.8,8.4c0.2,0,0.5,0,0.7-0.1c0,0,0,0.1,0.1,0.1c3,6.6,3.7,17.1,3.8,24.2
	c3.2,1.5,7,1.7,11.5,1.6c3,0,5.8-0.8,8.5-1.3l0.1-0.2c0-0.1,0.1-0.2,0.1-0.3c1.1-2.7,5.5-14.7,5.4-26.5c2.1-1.2,4-2.8,5.5-4.8
	c-1.2-2.4-2.6-4.7-4.3-6.9c-3.2-4.1-7.2-7.5-11.6-10.2l-0.1-0.1l-0.4-0.2c-0.8-0.3-1.7-0.6-2.5-0.7c-3.1-0.6-5.7-1.9-8.9-2.2
	c-0.9-0.1-1.9-0.1-2.8-0.1c-2,0.5-3.8,1.4-5.4,2.7C110.4,131.4,107.4,136.3,110.2,145.2L110.2,145.2z"/>
<path class="st10" d="M119.8,126.1c1.2,3.7,3.6,6.8,6.8,9.1c1,0.7,2.1,1.2,3.2,1.5c0.6,0.1,1.2,0.1,1.8,0c0.6-0.1,1.2-0.4,1.6-0.7
	c1.4-1,1.7-2.9,1.4-4.6c-0.2-0.9-0.6-1.8-1.1-2.6c-0.8-0.3-1.6-0.5-2.5-0.7c-3-0.6-5.5-1.7-8.6-2.1C121.6,126,120.7,126,119.8,126.1
	L119.8,126.1z"/>
<path class="st10" d="M132.6,133.9l-11.4-7.9c0.1-0.4,0.2-0.8,0.2-1.2c0.1-0.5,0.2-0.9,0.2-1.4c0.3-2.1,0.5-4.2,0.5-6.3V115
	c0-2-0.2-4-0.4-6c3,1.7,6,3.7,8.2,6.4c-0.1,1.2-0.1,2.4,0,3.7v0.6c0,0.7,0.1,1.4,0.1,2.2v0.2c0,0.5,0.1,1.1,0.2,1.6l0.1,0.7l0.1,0.5
	v0.1C130.9,127.9,131.6,130.9,132.6,133.9z"/>
<path class="st9" d="M130.5,124.6c-1.3-0.4-2.5-1-3.6-1.8c-2-1.5-3.6-3.5-4.5-5.9v-1.8c0-2.1-0.2-4.1-0.4-6.2c3,1.8,6,3.7,8.2,6.6
	c-0.1,1.3-0.1,2.5,0,3.8v0.6c0,0.7,0.1,1.5,0.1,2.2v0.2c0,0.6,0.1,1.1,0.2,1.6C130.4,124.1,130.4,124.3,130.5,124.6L130.5,124.6z"/>
<path class="st10" d="M121.5,112c0.1,0.8,0.3,1.7,0.3,2.5v0.9l0.2,0.4c1.3,2.2,3.1,4.4,5.5,5.4c2.4,1,5.4,0.7,7.2-1.3
	c1.6-1.8,1.8-4.5,1.2-6.9c-0.5-2.4-1.6-4.6-2.2-6.9c-0.3-1.2-0.4-2.4-0.4-3.7c0.1-1,0.3-1.9,0.8-2.8c-0.9,0.7-2,1.3-3,1.7
	c-1.9,0.7-3.8,1.2-5.6,2.1c-1.8,0.9-3.5,2.3-4,4.3C121.1,109.2,121.1,110.6,121.5,112L121.5,112z"/>
<path class="st10" d="M121.7,110.2c0-0.2-0.1-0.5-0.2-0.7c-0.1-0.2-0.3-0.4-0.5-0.5c-0.2,0-0.5,0-0.7,0.1c-0.2,0.1-0.4,0.3-0.5,0.5
	c-0.4,0.5-0.6,1.1-0.7,1.8c0,0.6,0.1,1.3,0.4,1.8c0.3,0.6,0.8,1,1.3,1.3c0.6,0.3,1.2,0.3,1.8,0.2
	C122.4,113.1,121.9,111.6,121.7,110.2z"/>
<path class="st2" d="M121.9,114.9c0,0.3-0.1,0.5-0.3,0.7c-0.1,0.2-0.3,0.4-0.5,0.4c-0.2,0.1-0.4,0-0.6,0c-0.2-0.1-0.4-0.3-0.5-0.5
	c-0.1-0.2-0.2-0.5-0.2-0.8c0-0.3,0-0.6,0.2-0.8c0.1-0.2,0.3-0.4,0.5-0.6c0.2-0.1,0.4-0.2,0.6-0.1c0.3,0.1,0.5,0.3,0.7,0.6
	C121.9,114.1,122,114.5,121.9,114.9L121.9,114.9z"/>
<path class="st14" d="M155.8,149.7c-9.5-10.1-13.6-21.8-9-26.1c4.6-4.3,16,0.3,25.6,10.4c9.5,10.1,13.6,21.8,9,26.1
	C176.8,164.4,165.4,159.8,155.8,149.7z"/>
<path class="st14" d="M180.5,160c-4.5-4.4-0.4-16,9.3-26c9.7-10,21.2-14.5,25.7-10.1c4.5,4.4,0.4,16-9.3,26
	C196.5,159.9,185,164.4,180.5,160z"/>
<path class="st15" d="M181.1,160.2c-7.9,0-14.1-14.1-14-31.4c0.1-17.3,6.5-31.3,14.4-31.2c7.9,0,14.1,14.1,14,31.4
	C195.4,146.3,188.9,160.3,181.1,160.2z"/>
<path class="st16" d="M180.3,184.5c2.3,0,4.7-0.4,6.8-1.3c2.2-0.9,4.1-2.1,5.8-3.7c1.7-1.6,3-3.5,3.9-5.6c0.9-2.1,1.4-4.3,1.4-6.6
	v-2.9c0-0.7-0.1-1.4-0.4-2.1c-0.3-0.7-0.7-1.3-1.2-1.8c-0.5-0.5-1.2-0.9-1.8-1.2c-0.7-0.3-1.4-0.4-2.2-0.4l-24.3-0.1
	c-1.5,0-3,0.6-4,1.6c-1.1,1-1.7,2.4-1.7,3.9v2.9c0,2.3,0.4,4.5,1.3,6.6c0.9,2.1,2.2,4,3.8,5.6c1.6,1.6,3.6,2.9,5.8,3.8
	C175.6,184,177.9,184.5,180.3,184.5L180.3,184.5z"/>
<path class="st10" d="M114.8,153.1c0.4,0.9,0.9,1.9,1.4,2.9c1.1,2.2,2.4,4.4,3.8,6.7c1.4,2.3,3,4.6,4.7,6.8l1.2,1.7l1.5,0.5l2.7,0.9
	c11,3.7,21.1,6.5,28.5,8.4c7.4,1.8,12.1,2.6,12.5,1.7c0.3-0.9-3.7-3.4-10.5-7c-6.8-3.6-16.3-8.1-27-12.6l-0.6-0.2
	c-0.8-2-1.7-3.9-2.5-5.8c-1-2.3-1.9-4.5-2.8-6.6c-0.3-0.7-0.7-1.5-1-2.2l-0.7-1.5c-3.6,4.6-8.9,6-10.9,6.3L114.8,153.1z"/>
<path class="st10" d="M162.2,177.1c2.5-0.1,5.7-1.5,8.1-2.6c0,0,0.1,0,0.1,0c0,0,0.1,0,0.1,0c0,0,0.1,0,0.1,0.1c0,0,0.1,0.1,0.1,0.1
	c0,0,0,0.1,0,0.1c0,0,0,0.1,0,0.1c-0.3,0.6-0.8,1.2-1.4,1.5c-0.5,0.2-1.1,0.4-1.3,0.8c-0.1,0.2-0.1,0.5,0,0.7
	c0.1,0.2,0.2,0.5,0.4,0.6c0.4,0.3,0.9,0.5,1.4,0.6l3.4,1.1c1,0.3,2.1,0.7,2.2,1.9c0,0.5-0.1,1.1-0.4,1.6c-0.6,0.9-1.4,1.6-2.3,2.1
	c-1,0.5-2,0.8-3.1,0.8c-2.1-0.1-4.1-0.8-5.7-2.2c-1.5-1.4-2.7-3.1-3.4-4.9C160.9,178.8,161.7,177.9,162.2,177.1L162.2,177.1z"/>
<path class="st17" d="M523.1,149.6c-0.6-0.1-1.3,1-2.2,3.1c-0.4,1-0.9,2.2-1.6,3.6c-0.6,1.4-1.2,3-2,4.6c-0.8,1.7-1.7,3.4-2.7,5
	c-0.6,0.8-1.2,1.6-1.8,2.3c-0.6,0.8-1.3,1.5-2.1,2.1c-0.7,0.7-1.5,1.3-2.3,1.8c-0.8,0.5-1.7,1-2.6,1.3c-0.9,0.4-1.8,0.6-2.7,0.8
	c-0.2,0.1-0.4,0.1-0.7,0.1l-0.7,0.1c-0.4,0-0.9,0-1.3,0c-2,0-4-0.3-5.9-0.9c-1-0.3-1.9-0.6-2.9-1c-0.5-0.2-0.9-0.4-1.4-0.6
	c-0.4-0.2-0.9-0.4-1.3-0.6c-0.9-0.4-1.7-0.9-2.6-1.3c-0.8-0.5-1.6-1-2.4-1.5c-1.6-1-3.1-2.1-4.5-3.1c-1.3-1-2.7-1.9-4.1-2.7
	c-1.1-0.7-2.3-1.4-3.5-2c-0.9-0.4-1.9-0.7-2.9-0.8c-0.8-0.1-1.5,0.1-2.2,0.5c-0.6,0.4-1.1,1.1-1.2,1.9c-0.2,1-0.2,2.1,0,3.1
	c0.2,1.5,0.7,2.9,1.3,4.2c0.8,1.8,1.7,3.5,2.8,5.1c1.4,2,3,3.8,4.8,5.4c1,1,2.1,1.8,3.2,2.7c1.2,0.9,2.5,1.7,3.8,2.4
	c0.7,0.4,1.4,0.7,2.1,1.1c0.8,0.3,1.5,0.7,2.3,0.9c1.6,0.6,3.2,1.1,4.9,1.5c3.7,0.8,7.5,0.9,11.2,0.4c1-0.2,2-0.4,2.9-0.6l1.3-0.5
	c0.5-0.1,0.9-0.3,1.4-0.5c1.8-0.7,3.4-1.6,5-2.7c1.5-1,2.8-2.2,4.1-3.5c1.1-1.2,2.1-2.5,3-3.8c0.8-1.3,1.5-2.6,2.1-4
	c0.5-1.3,1-2.5,1.4-3.8c0.6-2.2,1-4.6,1.3-6.9c0.2-1.8,0.2-3.7,0.1-5.5c0-1.3-0.1-2.7-0.3-4C524.2,150.9,523.7,149.7,523.1,149.6
	L523.1,149.6z"/>
<path class="st2" d="M492.2,178.9c0.7,11.3,0.7,22.7,0,34c-10.8,3.6-22.3,4.5-33.6,2.7c-0.8-11.5-1.5-23.1-1.5-34.6
	c0-6.1,0.2-12.2,1.9-18c1.4-5.2,4.4-9.9,8.7-13.2c0.5-0.4,1-0.7,1.5-1c2.5,2.1,7.9,2.9,10.8,1.5c1.6,1,3,2.3,4.2,3.8
	c2.2,2.7,3.9,5.7,5,9C490.9,168.2,491.9,173.6,492.2,178.9L492.2,178.9z"/>
<path class="st10" d="M484.1,154.7c-2.9,0.8-5.9,0.8-8.8,0.1c-1.5-0.4-3-1-4.4-1.8c-1.1-0.6-2.1-1.4-3.1-2.2l-0.1-0.7v-0.3l0.2-1
	c0.6-3.3,1-6.6,1.5-10c0.4-3.1,0.8-6.2,1.2-9.2c3.4,1.7,6.6,3.7,9.7,6.1c0,2.1,0.2,4.1,0.3,6.2c0.1,1.7,0.3,3.5,0.6,5.2
	c0.1,1,0.3,1.9,0.5,2.9c0.2,1,0.3,1.8,0.5,2.7C482.9,153.3,483.5,154,484.1,154.7L484.1,154.7z"/>
<path class="st9" d="M481.3,146.7c-3.4-3.2-7.3-5.9-11.4-8.1c0.4-3,0.8-6,1.2-9c3.3,1.7,6.4,3.7,9.3,5.9c0,2,0.2,4,0.3,6.1
	C480.8,143.3,481,145,481.3,146.7z"/>
<path class="st12" d="M418.4,315.7c0,0,0,7.9,7.3,7.6l1.3,28l-20-33.4L418.4,315.7z"/>
<path class="st2" d="M421.4,334.9c0-0.2,0.1-0.3,0.2-0.4c0.1-0.1,0.3-0.1,0.5-0.1c1.6,0.2,3.2,0.6,4.6,1.2c0.2,0.1,0.3,0.2,0.3,0.4
	c0.1,0.2,0.1,0.3,0,0.5c0,0.1-0.1,0.1-0.1,0.2c-0.1,0.1-0.1,0.1-0.2,0.1c-0.2,0-0.3,0-0.5,0c-1.3-0.6-2.7-1-4.2-1.1
	c-0.1,0-0.2-0.1-0.3-0.1c-0.1-0.1-0.2-0.1-0.2-0.2C421.4,335.1,421.4,335,421.4,334.9L421.4,334.9z M421.2,331.3
	c0-0.1,0-0.2,0.1-0.2c0-0.1,0.1-0.1,0.2-0.2c0.1-0.1,0.1-0.1,0.2-0.1c0.1,0,0.2,0,0.2,0c1.6,0.2,3.2,0.6,4.6,1.2
	c0.1,0,0.1,0.1,0.2,0.2c0.1,0.1,0.1,0.1,0.1,0.2c0.1,0.2,0.1,0.3,0,0.5c0,0.1-0.1,0.1-0.2,0.2c-0.1,0.1-0.1,0.1-0.2,0.1
	c-0.1,0-0.2,0-0.2,0c-0.1,0-0.2,0-0.2-0.1c-1.3-0.6-2.7-1-4.2-1.1c-0.1,0-0.2-0.1-0.3-0.1c-0.1-0.1-0.2-0.1-0.2-0.2
	C421.2,331.6,421.2,331.5,421.2,331.3L421.2,331.3z M420.9,327.8c0-0.1,0-0.2,0.1-0.2c0-0.1,0.1-0.1,0.2-0.2
	c0.1-0.1,0.3-0.1,0.4-0.1c1.6,0.2,3.2,0.6,4.6,1.2c0.1,0.1,0.3,0.2,0.3,0.4c0.1,0.2,0.1,0.3,0,0.5c-0.1,0.1-0.2,0.2-0.4,0.3
	c-0.2,0-0.3,0-0.5,0c-1.3-0.6-2.7-1-4.2-1.1c-0.1,0-0.2-0.1-0.3-0.1c-0.1-0.1-0.2-0.1-0.2-0.3C420.9,328,420.9,327.9,420.9,327.8
	L420.9,327.8z M423.1,351.6c0.1,0.1,0.2,0.2,0.3,0.3c0.1,0.1,0.2,0.1,0.4,0.2c0.1,0,0.3,0,0.4,0c0.1,0,0.3-0.1,0.4-0.1l2.1-1.2
	l-19.8-33.6l-2.1,1.2c-0.1,0.1-0.2,0.2-0.3,0.3c-0.1,0.1-0.1,0.2-0.2,0.4c0,0.1,0,0.3,0,0.4c0,0.1,0.1,0.3,0.1,0.4L423.1,351.6z"/>
<path class="st12" d="M497.9,343.5c0,0,7,3.8,10-2.9l25.4,12.5l-38.5,1.8L497.9,343.5z"/>
<path class="st2" d="M517.6,350.3c-0.1,0.1-0.2,0.1-0.3,0.1s-0.2,0-0.3-0.1c-0.1,0-0.1-0.1-0.2-0.2c0-0.1-0.1-0.1-0.1-0.2
	c0-0.1,0-0.2,0-0.2c0-0.1,0.1-0.2,0.1-0.2c0.9-1.4,1.9-2.6,3.2-3.6c0.1-0.1,0.3-0.1,0.5-0.1c0.2,0,0.3,0.1,0.4,0.3
	c0,0.1,0.1,0.1,0.1,0.2c0,0.1,0,0.2,0,0.2c0,0.1,0,0.2-0.1,0.2c0,0.1-0.1,0.1-0.2,0.2c-1.1,0.9-2.1,2-2.9,3.2
	C517.8,350.2,517.7,350.3,517.6,350.3L517.6,350.3z M514.4,348.9c-0.1,0.1-0.2,0.1-0.3,0.1s-0.2,0-0.3-0.1c-0.1,0-0.1-0.1-0.2-0.2
	c0-0.1-0.1-0.1-0.1-0.2c0-0.1,0-0.2,0-0.2c0-0.1,0-0.2,0.1-0.2c0.9-1.4,1.9-2.6,3.2-3.6c0.1-0.1,0.1-0.1,0.2-0.1c0.1,0,0.2,0,0.3,0
	c0.1,0,0.2,0,0.2,0.1c0.1,0,0.1,0.1,0.2,0.2c0.1,0.1,0.1,0.3,0.1,0.5c0,0.2-0.1,0.3-0.2,0.4c-1.1,0.9-2.1,2-2.9,3.2
	C514.6,348.8,514.5,348.8,514.4,348.9L514.4,348.9z M511.1,347.4c-0.1,0.1-0.2,0.1-0.4,0c-0.1,0-0.2-0.1-0.3-0.2
	c-0.1-0.1-0.1-0.2-0.1-0.4c0-0.1,0-0.3,0.1-0.4c0.9-1.4,1.9-2.6,3.2-3.6c0.1-0.1,0.3-0.1,0.5-0.1c0.2,0,0.3,0.1,0.4,0.3
	c0,0.1,0.1,0.1,0.1,0.2c0,0.1,0,0.2,0,0.2c0,0.2-0.1,0.3-0.2,0.4c-1.1,0.9-2.1,2-2.9,3.2C511.4,347.2,511.3,347.3,511.1,347.4
	L511.1,347.4z M532.6,356.7c0.3-0.2,0.5-0.4,0.7-0.7c0.1-0.2,0.1-0.3,0.1-0.5l-0.1-2.2l-38.4,1.8l0.1,2.2c0,0.2,0.1,0.3,0.1,0.5
	c0.1,0.2,0.2,0.3,0.3,0.4c0.2,0.2,0.6,0.4,0.9,0.4l35.9-1.6C532.3,356.8,532.4,356.8,532.6,356.7L532.6,356.7z"/>
<path class="st18" d="M457.5,222.3c0,0,9.1,53.6-45.4,91.7l14.7,15.9c0,0,61-41.7,54.8-95.4L457.5,222.3z"/>
<path class="st19" d="M455.6,253.8c0.8,1.1,1.7,2.2,2.5,3.4c2,3.1,3.8,6.3,5.3,9.7c2.6,5.6,4.8,11.4,6.5,17.4
	c8.3-14.4,13.8-31.4,11.7-49.7l-23.8-12.3C457.8,222.3,460,235.6,455.6,253.8L455.6,253.8z"/>
<path class="st20" d="M492.5,169.5c2.3,19,2.6,38.1,0.8,57.2c0,0,29.9,58.6,23.4,117.5l-22.9,5.7c0,0-5.2-77.3-36.2-116.5l-1.3-38.8
	l24.6-4l2.1-20.7L492.5,169.5z"/>
<path class="st18" d="M457.9,198.7c-0.2,0-0.4-0.2-0.7-0.8c-0.2-0.3-0.3-0.6-0.4-1c-0.1-0.4-0.3-0.8-0.4-1.3
	c-0.1-0.3-0.2-0.5-0.2-0.8c-0.1-0.3-0.1-0.6-0.2-0.9c-0.1-0.3-0.1-0.6-0.2-1c-0.1-0.4-0.1-0.7-0.2-1.1c-0.1-0.4-0.1-0.8-0.2-1.2
	l-0.2-1.2c-0.1-0.8-0.2-1.8-0.3-2.7c-0.1-2.1-0.1-4.2,0-6.3c0.1-2.4,0.3-4.8,0.7-7.2c0.4-2.6,1-5.2,1.7-7.7c0.7-2.9,1.9-5.6,3.5-8.1
	c0.9-1.3,1.9-2.6,3.2-3.6c1.2-1.1,2.6-1.9,4.2-2.4c0.8-0.3,1.6-0.5,2.4-0.6h2.4c1.5,0.1,2.9,0.5,4.3,1.2c1.2,0.6,2.4,1.3,3.4,2.2
	c0.2,0.2,0.5,0.4,0.7,0.6l0.7,0.7l0.6,0.7c0.2,0.2,0.4,0.5,0.5,0.8c0.7,0.9,1.3,1.9,1.7,3c0.4,1,0.8,1.9,1.1,2.9
	c0.5,1.7,0.8,3.4,0.9,5.1c0.1,1.3,0.2,2.6,0.2,3.9c0,2.1-0.2,3.3-0.4,3.3c-0.2,0-0.5-1.1-0.8-3.2c-0.2-1-0.4-2.3-0.7-3.7
	c-0.3-1.6-0.8-3.2-1.3-4.7c-0.7-1.8-1.6-3.4-2.8-4.9c-0.2-0.2-0.3-0.4-0.5-0.6l-0.5-0.5l-0.6-0.5c-0.2-0.2-0.4-0.3-0.6-0.5
	c-0.8-0.6-1.7-1.1-2.7-1.5c-1-0.4-2-0.6-3.1-0.7h-1.7c-0.5,0.1-1.1,0.2-1.5,0.4c-2.2,1-4,2.6-5.1,4.6c-1.3,2.2-2.3,4.6-2.9,7.1
	c-0.7,2.5-1.3,5-1.7,7.3c-0.4,2.4-0.7,4.6-0.9,6.7c-0.2,2.1-0.3,4.1-0.4,5.9v10.1c0,0.3,0,0.7-0.1,1
	C458.2,198.4,458.1,198.7,457.9,198.7L457.9,198.7z"/>
<path class="st21" d="M503.4,153.8h44.9v44.9h-44.9V153.8z"/>
<path class="st22" d="M571.1,145.3l-22.8,7.6v45.8l22.8-7.6V145.3z"/>
<path class="st23" d="M503.4,153.8l22.6-8.6h45.2l-22.6,8.6H503.4z"/>
<path class="st24" d="M531.2,156h15v6.4h-15V156z"/>
<path class="st25" d="M529.6,189.9l-0.1,8.8h-7.7v-8.8H529.6z M529.6,152.9l-0.1,8.8h-7.7v-8.8H529.6z M540.4,145.3h7.2l-18,7.6
	h-7.7L540.4,145.3L540.4,145.3z"/>
<path class="st10" d="M462.7,170.8v0.4c0,4.9,1.1,9.7,3.3,14.1c0.8,1.7,1.8,3.3,2.9,4.8c1.2,1.6,2.5,3.1,4,4.4
	c3.1,2.8,6.9,4.7,11,5.7c1.9,0.5,3.8,0.7,5.7,0.8c1.8,0.1,3.5-0.1,5.3-0.3c1.6-0.2,3.2-0.6,4.7-1.1c2.7-0.9,5.4-2,7.8-3.5
	c2-1.2,4-2.6,5.8-4.1c1.4-1.2,2.8-2.5,4.1-3.8l0.4-0.5c0.8,0.1,1.6,0,2.4-0.1c0.8-0.1,1.6-0.3,2.4-0.5c0.8-0.3,1.5-0.6,2.2-1
	c0.7-0.4,1.4-0.9,2-1.4c1.2-1.1,2.3-2.4,3-3.9c0.4-0.7,0.7-1.5,0.9-2.3c0.2-0.8,0.4-1.6,0.4-2.4c0-0.6,0-1.1,0-1.7
	c0-0.3-0.1-0.7-0.2-1c-0.1-0.3-0.4-0.6-0.6-0.8c-1.4-1.3-3.2,0-4.1,1.3c-0.9,1.3-1.6,2.6-3,3c-0.4,0.1-0.8,0.1-1.3,0.1
	c-0.4-0.1-0.8-0.3-1.1-0.5c-0.1-0.1-0.2-0.2-0.3-0.3c-0.1-0.2-0.3-0.3-0.5-0.4c-0.2-0.1-0.4-0.2-0.6-0.2c-0.2,0-0.4,0-0.6,0.1
	c-0.2,0.1-0.4,0.2-0.6,0.3c-0.1,0.1-0.2,0.3-0.3,0.4c-0.3,0.6-0.6,1.2-0.8,1.8c-0.4,1.3-0.7,2.7-0.8,4c-2,0.7-4.3,1.6-7.1,2.6
	c-1.9,0.6-3.8,1.2-5.7,1.6c-2,0.5-4.1,0.7-6.2,0.8c-1.1,0-2.1,0-3.2-0.1c-1-0.1-2-0.3-3-0.6c-0.9-0.2-1.8-0.6-2.7-1
	c-0.8-0.4-1.6-0.8-2.3-1.3c-0.7-0.5-1.3-1.1-1.9-1.8c-0.6-0.7-1.1-1.4-1.6-2.1c-1-1.6-1.8-3.2-2.4-5c-0.6-1.7-1-3.4-1.3-5.2
	c-0.3-1.3-0.5-2.7-0.7-4c-2.3,1.6-4.8,2.8-7.4,3.6C468.3,170.4,465.5,170.8,462.7,170.8L462.7,170.8z"/>
<path class="st20" d="M482,106.1c-0.3-1.2-0.9-2.4-1.8-3.3c-0.8-1-1.8-1.7-3-2.2c-2.3-1-4.9-1.2-7.3-0.5c-1.2,0.3-2.4,0.8-3.5,1.4
	c-1.1,0.7-2.1,1.5-3,2.5c-0.9,1-1.5,2.1-2,3.3c-0.5,1.2-0.8,2.5-0.8,3.8c-0.1,4.2,2.1,7.9,4.3,11.4
	C469.3,115.7,475.1,110.1,482,106.1z"/>
<path class="st19" d="M485,101.5c1.1-0.8,2.5-1.2,3.9-1.1c0.5,0.1,0.9,0.3,1.3,0.6c0.4,0.3,0.7,0.6,1,1c0.3,0.4,0.5,0.8,0.6,1.3
	c0.1,0.5,0.2,0.9,0.1,1.4c-0.1,0.9-0.4,1.9-0.9,2.7c-0.5,0.8-1.1,1.6-1.8,2.2c-0.5,0.5-1.1,1-1.7,1.4c-0.6,0.4-1.3,0.8-1.9,1.2
	c-1.4,0.7-2.8,1.2-4.3,1.5c-0.7,0.1-1.5,0.2-2.3,0.3c-1.5,0.1-3-0.1-4.5-0.5c-0.7-0.2-1.5-0.4-2.2-0.7c-0.7-0.3-2.6-0.9-3-1.6
	c-0.6-1.2,0.7-1.3,1.7-1.9C475.7,106.6,480.4,104.1,485,101.5L485,101.5z"/>
<path class="st12" d="M483.8,115.9c-0.3-0.1-0.6-0.1-0.9,0c-0.3,0.1-0.6,0.2-0.8,0.4c-0.2,0.3-0.3,0.6-0.4,0.9s0,0.7,0.1,1
	c0.4,2.5,1.3,4.9,2.7,6.9c0.5-0.6,0.9-1.3,1.2-2c0.6-1.4,0.9-3,0.7-4.5c-0.1-0.8-0.3-1.5-0.5-2.2C485.1,116.6,484.4,116,483.8,115.9
	L483.8,115.9z M472.4,126.8c0.3-2.7,0.2-5.5-0.3-8.2c-0.6-3-1.7-5.8-3.4-8.3c-1.3,1.2-2.3,2.5-3.2,4c-0.7,1.7-1.1,3.5-1.2,5.4
	c-0.1,0.9-0.1,1.8,0,2.8c0.1,0.9,0.2,1.8,0.4,2.7c0.2,0.9,0.5,1.8,0.8,2.6c0.3,0.9,0.7,1.7,1.2,2.5c0.5,0.8,1,1.5,1.5,2.3
	c0.6,0.7,1.2,1.4,1.9,2C471.3,132.1,472,129.5,472.4,126.8L472.4,126.8z"/>
<path class="st10" d="M483.8,115.3c-0.6,3.3,0.9,6.6,2.1,9.8c1.3,3.1,2.4,6.7,1.2,9.8c-0.4,0.8-0.8,1.5-1.4,2.2
	c-0.6,0.6-1.3,1.2-2,1.6c-0.7,0.4-1.6,0.7-2.4,0.9c-0.8,0.2-1.7,0.2-2.5,0c-1.7-0.3-3.3-1-4.6-2.1c-1.4-1.1-2.5-2.4-3.2-4
	c-0.8-1.6-1.3-3.3-1.6-5c-0.3-1.7-0.3-3.5-0.1-5.3c0.4-3.5,1.1-7,2.1-10.3C475.5,110.6,480.3,112.2,483.8,115.3L483.8,115.3z"/>
<path class="st10" d="M469.7,124c-0.4-0.5-0.8-0.9-1.4-1.2c-0.3-0.2-0.6-0.3-0.9-0.3c-0.3,0-0.6,0-0.9,0.1c-0.4,0.1-0.7,0.4-1,0.7
	c-0.3,0.3-0.5,0.7-0.6,1.1c-0.1,0.4-0.2,0.8-0.2,1.2c0,0.4,0,0.8,0.2,1.2c0.1,0.4,0.3,0.7,0.5,1.1c0.2,0.3,0.5,0.6,0.8,0.9
	c0.3,0.3,0.6,0.5,1,0.6c0.4,0.2,0.7,0.2,1.1,0.3c0.4,0,0.8,0,1.1-0.1c0.4-0.1,0.7-0.2,1.1-0.4C470.1,127.5,469.8,125.7,469.7,124
	L469.7,124z"/>
<path class="st26" d="M486.1,117.9c-5,0.2-9.9-1.1-14.2-3.6c0.4,1.4,0.4,3,0,4.4c-0.3,1-0.8,2-1.4,2.9c-0.6,0.9-1.4,1.7-2.3,2.3
	c-2-2.8-2.9-6.2-2.5-9.6c0-0.4,0.1-0.8,0.3-1.2c0.7-0.9,1.5-1.8,2.3-2.6c1.3-1.2,2.9-2.2,4.6-2.8c1.1-0.4,2.3-0.7,3.5-0.8
	c2.4-0.3,4.8-0.1,7.1,0.7c1.1,0.4,2.2,0.9,3.2,1.5c0.4,0.3,0.7,0.6,1,0.9c0.8,0.8,1.4,1.8,1.9,2.8c0.1,0.2,0.1,0.5,0.2,0.7
	c0,0.3,0.1,0.5,0,0.8c0,0.2,0,0.5-0.1,0.7c-0.1,0.2-0.1,0.5-0.3,0.7c-0.1,0.2-0.2,0.4-0.4,0.6c-0.1,0.2-0.3,0.4-0.5,0.6
	c-0.2,0.2-0.4,0.3-0.6,0.4c-0.2,0.1-0.4,0.2-0.7,0.3C486.9,117.8,486.5,117.9,486.1,117.9L486.1,117.9z"/>
<path class="st7" d="M243.7,274h-3.8v21.7h3.8V274z"/>
<path class="st3" d="M228,296.7h27.6c0-2.2-1.8-4-4-4H232C229.8,292.7,228,294.5,228,296.7z"/>
<path class="st5" d="M227.9,277.6h27.8c1.1,0,2-0.9,2-1.9c0-0.3-0.1-0.6-0.2-0.8l-8.4-18.8c-0.3-0.7-1-1.2-1.8-1.2h-11
	c-0.8,0-1.5,0.5-1.8,1.2l-8.4,18.8c-0.5,1,0,2.2,1,2.6C227.3,277.4,227.6,277.6,227.9,277.6z"/>
<path class="st7" d="M288.4,296.7h-77.3v68.4h77.3V296.7z"/>
<path class="st3" d="M281.7,302h-63.3v24h63.3V302z M281.7,331h-63.3v27.7h63.3V331z M285.2,365.2h-6.9v6h6.9V365.2z M221.9,365.2
	h-6.9v6h6.9V365.2z"/>
<path class="st8" d="M275.4,333c-1.9,0-3.4,1.5-3.4,3.4s1.5,3.4,3.4,3.4c1.9,0,3.4-1.5,3.4-3.4C278.8,334.5,277.3,333,275.4,333z"/>
<path class="st7" d="M277.9,306.8h-31.4v8.4h31.4V306.8z"/>
<path class="st8" d="M271.4,315.4h-34.6v10.9h34.6V315.4z"/>
<path class="st27" d="M337.8,359v11.2l-6-1.9V357L337.8,359z"/>
<path class="st28" d="M339.5,336.3h-61.8v36.1h61.8V336.3z"/>
<path class="st24" d="M303.6,344.1h-21v9.1h21V344.1z"/>
<path class="st25" d="M246.7,330.2l30.9,6v36.1l-30.9-6V330.2z"/>
<path class="st29" d="M339.5,336.3l-30.9-6h-61.8l30.9,6H339.5z"/>
<path class="st30" d="M268.2,334.4v10l-9.2-1.7v-10.1L268.2,334.4z"/>
<path class="st25" d="M320.8,332.6l1.3,0.3l2,0.4l6.5,1.2h-62.3l-9.2-1.8H320.8z"/>
<path class="st30" d="M268.2,360.4v10.1l-9.2-1.7v-10.1L268.2,360.4z"/>
<path class="st28" d="M335.3,303.1h-54.9v32h54.9V303.1z"/>
<path class="st31" d="M303.5,306.3h-18.6v8.1h18.6V306.3z"/>
<path class="st25" d="M253.1,297.8l27.4,5.3v32l-27.4-5.3V297.8z"/>
<path class="st29" d="M335.3,303.1l-27.4-5.3h-54.8l27.4,5.3H335.3z"/>
<path class="st30" d="M272.1,301.5v8.9l-8.2-1.6v-8.9L272.1,301.5z"/>
<path class="st25" d="M318.7,299.9l1.1,0.2l1.7,0.3l5.8,1.1h-55.2l-8.2-1.6H318.7z"/>
<path class="st30" d="M272.1,324.5v8.9l-8.2-1.6v-9L272.1,324.5z"/>
<path class="st21" d="M264.2,306.1h-55.4v65.2h55.4V306.1z"/>
<path class="st22" d="M181.1,295.3l27.7,10.8v65.2l-27.7-10.9V295.3z"/>
<path class="st23" d="M264.2,306.1l-27.7-10.8h-55.4l27.7,10.8H264.2z"/>
<path class="st24" d="M230,310.2h-18.8v9.6H230V310.2z"/>
<path class="st25" d="M218.4,295.3l22.9,10.8h-9.6l-22.2-10.8H218.4z"/>
<path class="st25" d="M241.3,306.1v12.6h-9.5l-0.1-12.6H241.3z M241.3,359v12.6h-9.5l-0.1-12.6H241.3z"/>
<path class="st21" d="M316.9,246.3h-55.4v55.4h55.4V246.3z"/>
<path class="st22" d="M233.9,237.1l27.7,9.2v55.5l-27.7-9.2V237.1z"/>
<path class="st23" d="M316.9,246.3l-27.7-9.2h-55.4l27.7,9.2H316.9z"/>
<path class="st24" d="M282.8,249.9H264v8.1h18.8V249.9z"/>
<path class="st25" d="M271.1,237.1l22.9,9.2h-9.6l-22.3-9.2H271.1z M294.1,246.3v10.8h-9.5l-0.1-10.8H294.1z M294.1,291.3V302h-9.5
	l-0.1-10.7H294.1z"/>
<path class="st21" d="M252.8,259.5h-42.5V302h42.5V259.5z"/>
<path class="st22" d="M189,252.4l21.3,7.1V302l-21.3-7.1V252.4z"/>
<path class="st23" d="M252.8,259.5l-21.2-7.1H189l21.3,7.1H252.8z"/>
<path class="st27" d="M203.8,288v11.9l-6.4-2v-11.9L203.8,288z M203.8,257.4v11.8l-6.4-2v-11.9L203.8,257.4z"/>
<path class="st22" d="M239.9,255.2l0.8,0.3l1.4,0.4l4.5,1.4h-42.8l-6.4-2.2H239.9z"/>
<path class="st28" d="M307.6,204.3h-39.5v39.6h39.5V204.3z"/>
<path class="st25" d="M248.3,197.7l19.7,6.6v39.5l-19.7-6.6V197.7z"/>
<path class="st32" d="M307.6,204.3l-19.7-6.6h-39.5l19.7,6.6H307.6z"/>
<path class="st33" d="M262,230.7v11l-5.9-1.9v-11.1L262,230.7z M262,202.2v11l-5.9-1.9v-11.1L262,202.2z"/>
<path class="st25" d="M295.7,200.3l0.8,0.3l1.3,0.4l4.1,1.3H262l-5.9-1.9H295.7z"/>
<path class="st24" d="M283.2,206.8h-13.4v5.8h13.4V206.8z"/>
<path class="st20" d="M380.1,350.4c0.1-14.1-11.4-23.8-13.6-41.7c-0.4-3.6,0.2-7.2,1.8-10.6c0.7-1.5,0.1-3.4-1.5-4.1
	c-0.4-0.2-0.8-0.3-1.3-0.3l-6.2-0.1c-1.7,0-3.1,1.4-3.1,3c0,0.5,0.1,0.9,0.3,1.3c1.5,3.3,2,7,1.6,10.6
	c-2.5,17.8-14.2,27.3-14.3,41.4c-0.1,6.4,3.5,12.2,9.1,15v2.4c0,1.5,1.2,2.7,2.6,2.7l12.5,0.1c1.5,0,2.7-1.2,2.7-2.6v-2.4
	C376.4,362.5,380,356.7,380.1,350.4z"/>
<path class="st34" d="M232.9,219.6c-0.5-1.7-1.2-3.4-2-4.9c-0.3-0.5-0.7-0.9-1.1-1.3c-0.2-0.1-0.4-0.1-0.5,0.1v0.1l-2.9,5.1
	C226.3,218.7,232.3,218.9,232.9,219.6z"/>
<path class="st35" d="M229.7,214.5c-0.3,1.1-0.7,2.9-1.3,3.5c1.5,0.2,2.8,0.6,4.1,1.4c0,0-1.4-3.6-2.2-4.7
	C230,214.2,229.8,214.2,229.7,214.5z"/>
<path class="st34" d="M237.1,227.1c-0.2,3.2-2.4,5.9-5.5,6.8c0,0,0.5,5.8-0.4,8.6c-0.9,2.8-5.1,9.1-4.2,10.8c1,1.7,2.1,1.1,2.2,2.4
	c0.1,1.2,1.5,1.9-2.7,1.9c-3.4-0.1-6.7-0.4-10-0.8c-2.4,1.4-9.3,0.8-11-0.1c-1.6-0.9-3.6-6.7,0-11.6c3.6-4.9,6.8-5.4,9.1-7.7
	c2.3-2.3,3.4-6.1,2.8-7c-0.5-0.9-1.3-4.7,0.1-7c1.3-2.3,5.5-5.6,9.4-5.6C231,217.7,237.6,220.8,237.1,227.1z"/>
<path class="st34" d="M217.3,224.8c-0.5-1.6-0.8-3.3-0.9-5c-0.1-0.6,0-1.2,0.2-1.7c0.1-0.2,0.3-0.3,0.5-0.3c0.1,0,0.1,0,0.1,0.1
	l5.5,2.3C222.6,220.2,217.4,223.9,217.3,224.8z"/>
<path class="st35" d="M217.6,218.8c1.4,0.8,2.4,1.3,3.1,1.6c-1.1,1-2,2.2-2.7,3.4c0,0-1.1-3.3-1.1-4.5
	C217.1,218.7,217.3,218.7,217.6,218.8z"/>
<path class="st36" d="M229.3,226c0.3,0.4,0.7,0.4,1.1,0.2c0.3-0.3,0.3-0.7,0.1-0.9c-0.3-0.3-0.7-0.3-0.9-0.1
	C229.2,225.4,229.2,225.7,229.3,226z M225.6,224.1c-0.5,0.1-0.8,0.5-0.7,1.1c0.1,0.5,0.5,0.8,1.1,0.7c0.5-0.1,0.8-0.5,0.7-1.1
	c0-0.1-0.1-0.2-0.1-0.3C226.5,224.2,226,224,225.6,224.1z M232.1,222.1c-0.2-0.4-0.6-0.7-0.9-0.5c-0.3,0.2-0.4,0.6-0.2,1
	c0.2,0.4,0.6,0.7,0.9,0.5C232.2,223,232.3,222.6,232.1,222.1z"/>
<path class="st35" d="M225.5,234.5c0,0,1.6,2.6,1.6,7.3c-0.2,3.4-0.6,5.3,0.8,7.5c0.8-1.8,1.6-3.5,2.6-5.2c0.9-1.6,1.7-5.2,1.1-10
	C229.7,234.6,227.6,234.7,225.5,234.5z"/>
<path class="st37" d="M216.8,256.7c0.3-0.3,0.5-0.7,0.4-1.2c0-1.4-2-1.6-2.7-1.6c-0.1-0.3-0.1-1.1-0.2-2.4c-0.3-4.1-2.9-5.6-3-5.6
	c-0.1-0.1-0.3-0.1-0.4,0.1c-0.1,0.2,0,0.4,0.2,0.4c0.1,0.1,2.5,1.5,2.7,5.2c0.2,2.6,0.3,2.7,0.4,2.8l0.3,0.1c0.8,0,2.3,0.4,2.4,1.1
	c0.1,0.4,0,0.8-0.3,1.2 M229,257.4c0.3-0.3,0.5-0.6,0.5-0.9v-0.2c0-1-0.3-1.6-1.8-2c-1-0.3-1.8-3.4-1.8-8.1c0-2-0.1-6.9-0.1-6.9
	c0-0.2-0.1-0.3-0.2-0.3c-0.1,0-0.2,0.2-0.1,0.3c0,0.1,0.1,5,0.1,7c0,5.3,0.7,8,2,8.4c1.3,0.4,1.5,0.9,1.5,1.6v0.1
	c-0.1,0.4-0.3,0.8-0.6,1.1 M225.8,257.5c-1.3-0.3-1.5-1.8-1.8-2.4c-0.1-0.3-0.3-0.6-0.5-0.9c-0.4-0.4-4.7-9-4.9-12
	c0-0.2-0.1-0.4-0.2-0.3c-0.2,0-0.2,0.2-0.1,0.4c0.3,3.2,4.5,12,4.8,12.4c0.2,0.2,0.3,0.5,0.4,0.7c0.3,0.7,0.6,1.3,1.1,1.8
	c0.1,0.1,0.3,0.2,0.4,0.3"/>
<path class="st34" d="M202.7,256.3c0.9-0.1,1.9-0.3,2.7-0.8c0.5-0.3,0.6-0.9,0.3-1.4c-0.3-0.4-0.8-0.6-1.3-0.4
	c-0.6,0.4-1.8,0.7-2.2,0.4c-0.2-0.2-0.4-0.8-0.1-2.2c3.1-16.1,2.5-24.5-1.7-25.8c-1.8-0.6-3.2-0.4-4.1,0.6c-2.1,2-1,6.6-0.8,7.1
	c0.1,0.5,0.6,0.9,1.2,0.7c0.5-0.1,0.9-0.6,0.7-1.2v-0.1c-0.3-1.3-0.7-4.3,0.3-5.3c0.4-0.4,1.2-0.4,2.2-0.1c1.4,0.4,4.3,3.6,0.4,23.6
	c-0.4,2-0.1,3.5,0.9,4.1C201.6,256.1,202.1,256.3,202.7,256.3z M231.8,235.8c0,0,10.4-9.5,12.4-4c1.5,3.9-2.7,1.3-5.4,3.4
	c-3.8,2.9-8.8,9.7-8.8,9.7L231.8,235.8z"/>
<path class="st14" d="M261,188.8c-3,0-5.5,2.4-5.5,5.5c0,3,2.4,5.5,5.5,5.5c3,0,5.5-2.4,5.5-5.5C266.5,191.3,264,188.8,261,188.8z"
	/>
<path class="st38" d="M264.2,189.7c0,0-3,6.2-6.4,8.6 M266.7,194.7c0,0-5.7-0.4-10.5-3.2 M261.3,188.8c0,0-3.6,7-0.3,10.9
	 M265.5,197.7c0,0-6.4-2.5-8.2-7.5 M255.6,193.8c3.3,1.7,7,2.4,10.7,1.9"/>
<path class="st39" d="M263.5,198.9c0,0,12.8,0.9,8.1,1.3c-10.9,0.9-19.7-2.5-19.6,0.5c0.2,5.5,0,15.6,0,15.6"/>
<path class="st40" d="M219.8,304.6c2-0.3,5.8,13.3,8.3,30.4c2.6,17.1,3,31.1,0.9,31.5c-2,0.3-5.8-13.3-8.3-30.4
	C218.1,319,217.7,304.9,219.8,304.6z"/>
<path class="st40" d="M231.3,335.1c3.4-16.9,7.9-30.3,9.9-29.9c2,0.4,0.9,14.4-2.5,31.4c-3.4,16.9-7.9,30.3-9.9,29.9
	C226.8,366,227.9,352,231.3,335.1z"/>
<path class="st41" d="M226,327.5c0.5-18.3,2.6-33.1,4.8-33c2.2,0.1,3.6,14.9,3.1,33.2c-0.5,18.3-2.6,33.1-4.8,33
	C226.9,360.7,225.5,345.8,226,327.5z"/>
<path class="st41" d="M211.2,313.1c1.8-0.6,7.2,10.9,12.2,25.6c4.9,14.8,7.5,27.2,5.7,27.8c-1.8,0.6-7.2-10.9-12.2-25.6
	C212,326.1,209.4,313.6,211.2,313.1z"/>
<path class="st41" d="M236,339c5.7-14.4,11.7-25.6,13.4-25c1.7,0.7-1.5,13-7.1,27.4c-5.7,14.4-11.7,25.6-13.4,25
	C227.1,365.7,230.3,353.5,236,339z"/>
<path class="st20" d="M231.9,376.3l-6.2-0.2c-3.6-0.1-6.8-3.2-7-7.2l-1-16.8c-0.1-0.9,0.7-1.7,1.6-1.7l20.4,0.5
	c0.9,0,1.6,0.8,1.5,1.7l-1.9,16.7C238.8,373.4,235.5,376.4,231.9,376.3z"/>
<path class="st40" d="M394.5,342.4c5.5-5.6,12-8.1,14.5-5.7c2.6,2.5,0.2,9-5.3,14.7c-5.5,5.6-12,8.1-14.5,5.7
	C386.7,354.6,389.1,348,394.5,342.4z"/>
<path class="st40" d="M370.3,336.3c2.6-2.4,9,0.3,14.4,6s7.6,12.3,5,14.8c-2.6,2.4-9-0.3-14.4-6C370,345.4,367.7,338.8,370.3,336.3z
	"/>
<path class="st41" d="M381.6,339.4c0.1-9.8,3.8-17.6,8.2-17.6c4.4,0.1,7.9,8,7.8,17.8c-0.1,9.8-3.8,17.6-8.2,17.6
	C385,357.1,381.5,349.2,381.6,339.4z"/>
<path class="st42" d="M391.1,371.3l-3-0.1c-4.7-0.1-8.5-3.9-8.4-8.6l0.1-3.6c0-1.5,1.3-2.7,2.7-2.7l14.5,0.2c1.5,0,2.7,1.3,2.7,2.7
	l-0.1,3.6C399.6,367.6,395.7,371.3,391.1,371.3z"/>
<path class="st12" d="M323.9,329.5l-33.1,2.9l3.7,42.3l33.2-2.9L323.9,329.5z"/>
<path class="st20" d="M294,335.1l3.2,36.4l27.2-2.4l-3.2-36.4L294,335.1z"/>
<path class="st12" d="M318.1,335.9l-0.1-0.7l-8.2,0.7l0.1,0.7L318.1,335.9z"/>
<path class="st12" d="M318.2,337.6l-0.1-0.7l-8.2,0.7l0.1,0.7L318.2,337.6z"/>
<path class="st12" d="M318.4,339.3l-0.1-0.7l-6,0.5l0.1,0.7L318.4,339.3z"/>
<path class="st43" d="M303.4,358.4c-3.1-3.4-2.8-8.7,0.6-11.8c3.4-3.1,8.7-2.8,11.8,0.6c3.1,3.4,2.8,8.7-0.6,11.8
	C311.8,362,306.5,361.8,303.4,358.4z"/>
<path class="st2" d="M299.7,367.7c-1.3-1.4-1.2-3.7,0.2-5c1.4-1.3,3.7-1.2,5,0.2c1.3,1.4,1.2,3.7-0.2,5
	C303.2,369.3,301,369.2,299.7,367.7z"/>
</svg>
