<svg version="1.1" xmlns="http://www.w3.org/2000/svg" xmlns:xlink="http://www.w3.org/1999/xlink" width="630" height="390" viewBox="0 0 630 390">
<style type="text/css">
	.st0{fill:#EAF1FC;}
	.st1{fill:#F8F8FF;}
	.st2{fill:#FFFFFF;}
	.st3{fill:#D6E0F0;}
	.st4{fill:#E9EDF4;}
	.st5{fill:#CDE4F7;}
	.st6{fill:#FF8500;}
	.st7{fill:#AF7309;}
	.st8{fill:#A97000;}
	.st9{fill:#F4A721;}
	.st10{fill:#E08F73;}
	.st11{fill:#0B2B46;}
	.st12{fill:#F09976;}
	.st13{fill:#E8815F;}
	.st14{fill:#02819F;}
	.st15{fill:#05616B;}
	.st16{fill:#047487;}
	.st17{fill:#311649;}
	.st18{fill:#FFDA35;}
	.st19{fill:#EAB624;}
</style>
<path class="st0" d="M314.9,383c173.9,0,314.9-20.2,314.9-45.1s-141-45.1-314.9-45.1C141,292.8,0,313,0,337.9S141,383,314.9,383z"/>
<path class="st1" d="M579.6,326.8c40.2-79.8,62.4-232.4-24.8-283.1c-57-33.2-116.4,9.5-177.4,11.4c-47.9,1.5-94-34.5-137.2-44.8
	C127-16.6-51,53.6,27.3,326.8C223,326.3,383.9,327.4,579.6,326.8z"/>
<path class="st2" d="M347.5,209.9H245c-0.7,0-1.3-0.3-1.8-0.7c-0.5-0.5-0.7-1.1-0.7-1.8V58.5c-3.9-55.7,18.4-53.8,53.8-53.8h0
	C352.4,1.1,350,28.8,350,58.6v148.8C350,208.8,348.9,209.9,347.5,209.9L347.5,209.9z"/>
<path class="st3" d="M347.6,212.2H243.1c-1.7,0-3.1-1.4-3.1-3.1V36.6c0-18,14.6-32.6,32.6-32.6h45.6c18,0,32.6,14.6,32.6,32.6v172.5
	C350.8,210.8,349.4,212.2,347.6,212.2z M243.3,208.9h104.2V36.6c0-16.2-13.1-29.3-29.3-29.3h-45.6c-16.1,0-29.3,13.1-29.3,29.3
	L243.3,208.9L243.3,208.9z"/>
<path class="st3" d="M295.4,210.9c-0.9,0-1.6-0.7-1.6-1.6V5.6c0-0.9,0.7-1.6,1.6-1.6c0.9,0,1.6,0.7,1.6,1.6v203.6
	C297,210.1,296.3,210.9,295.4,210.9L295.4,210.9z"/>
<path class="st3" d="M349.1,163.8H241.7c-0.9,0-1.6-0.7-1.6-1.6s0.7-1.6,1.6-1.6h107.5c0.9,0,1.6,0.7,1.6,1.6S350,163.8,349.1,163.8
	z M349.1,61.6H241.7c-0.9,0-1.6-0.7-1.6-1.6c0-0.9,0.7-1.6,1.6-1.6h107.5c0.9,0,1.6,0.7,1.6,1.6C350.8,60.9,350,61.6,349.1,61.6z
	 M349.1,112.7H241.7c-0.9,0-1.6-0.7-1.6-1.6c0-0.9,0.7-1.6,1.6-1.6h107.5c0.9,0,1.6,0.7,1.6,1.6C350.8,112,350,112.7,349.1,112.7z"
	/>
<path class="st4" d="M560.6,112.7c-5.5,2-2.9,9.6,0.6,13c3.8,3.7,9.7,5.8,13,1.8c1-1.2,0.1-2.7-1.4-2.6c-2.3,0.1-4.1-0.5-3.3-2.3
	c0.9-1.7,4.5,1.6,5.9,1.6c3,0,4.1-2.2,3.4-4.1c-0.6-1.5-4.7-2.1-3.7-3.4c1.4-1.8,3.6,1,5.1-0.2c2.4-2,2-5.8,0.9-7.1
	c-0.8-1.1-4.3-2.8-6.9-1.7c-2.5,1-1.7,6.4-2.9,6.5c-2.2,0.1-0.4-4.6-2.2-6c-1-0.8-4.1-0.3-4.8,1.7c-1,2.6,2.7,7.6,0,7.9
	c-2.4,0.3-1-2.5-1.8-4.1C562.5,113.3,561.7,112.3,560.6,112.7L560.6,112.7z"/>
<path class="st5" d="M543.3,156C543.3,156,543.3,156,543.3,156c-0.1,0-0.2-0.1-0.2-0.1c0-0.1,0-0.1,0-0.2
	c6-18.2,18.3-33.7,34.5-43.8c0,0,0.1,0,0.1,0c0,0,0.1,0,0.1,0c0,0,0.1,0,0.1,0c0,0,0,0,0.1,0.1c0,0,0,0.1,0,0.1c0,0,0,0.1,0,0.1
	s0,0.1,0,0.1c0,0,0,0-0.1,0.1c-16.2,10-28.4,25.5-34.3,43.6C543.5,156,543.4,156,543.3,156L543.3,156z"/>
<path class="st4" d="M545.3,97.1c-4,4.3,1.7,9.9,6.4,11.4c5.1,1.6,11.3,0.8,12.4-4.3c0.3-1.5-1.1-2.5-2.4-1.7
	c-2.1,1.1-3.9,1.4-3.9-0.6c0-1.9,4.8-0.6,6-1.2c2.7-1.3,2.7-3.9,1.2-5.2c-1.2-1.1-5.1,0.2-4.8-1.3c0.5-2.3,3.7-0.7,4.5-2.5
	c1.2-2.8-0.8-6-2.4-6.8c-1.2-0.6-5.1-0.6-6.9,1.6c-1.7,2,1.4,6.5,0.3,7.1c-1.9,1.1-2.4-3.9-4.6-4.4c-1.3-0.3-3.8,1.6-3.5,3.7
	c0.3,2.8,5.8,5.6,3.6,7.1c-2,1.4-2-1.8-3.4-2.8C547.3,96.8,546,96.3,545.3,97.1L545.3,97.1z"/>
<path class="st5" d="M549.2,143.6c-0.1,0-0.2-0.1-0.2-0.2c-2.8-18.9,1.2-38.4,11.1-54.7c0,0,0,0,0.1-0.1c0,0,0.1,0,0.1,0
	c0,0,0.1,0,0.1,0c0,0,0.1,0,0.1,0c0,0,0,0,0.1,0.1c0,0,0,0.1,0,0.1c0,0,0,0.1,0,0.1s0,0.1,0,0.1c-9.9,16.2-13.8,35.5-11.1,54.4
	C549.5,143.5,549.4,143.6,549.2,143.6L549.2,143.6L549.2,143.6z"/>
<path class="st4" d="M541,106.8c5,3.1,0.9,9.9-3.2,12.6c-4.5,2.9-10.7,3.7-13.1-0.9c-0.7-1.4,0.4-2.7,1.9-2.3
	c2.3,0.6,4.2,0.3,3.7-1.6c-0.5-1.8-4.8,0.6-6.1,0.4c-2.9-0.6-3.6-3-2.5-4.7c0.9-1.4,5-1.1,4.3-2.5c-1-2.1-3.7,0.3-4.9-1.3
	c-1.9-2.4-0.7-6,0.6-7.1c1-0.9,4.8-1.9,7.1-0.3c2.2,1.5,0.4,6.6,1.5,6.9c2.1,0.6,1.4-4.4,3.3-5.4c1.2-0.6,4.1,0.5,4.4,2.7
	c0.4,2.8-4.2,6.9-1.6,7.8c2.3,0.8,1.5-2.2,2.6-3.6C539,107,540.1,106.2,541,106.8L541,106.8z"/>
<path class="st5" d="M549.2,152.8c-0.1,0-0.2-0.1-0.2-0.2c-2.2-18.9-11-36.5-24.8-49.7c0,0,0,0-0.1-0.1c0,0,0-0.1,0-0.1
	c0,0,0-0.1,0-0.1c0,0,0-0.1,0.1-0.1c0.1-0.1,0.2-0.1,0.3,0c13.9,13.2,22.7,30.9,24.9,49.9C549.5,152.6,549.4,152.7,549.2,152.8
	L549.2,152.8z"/>
<path class="st2" d="M539.4,161.6h18l2.7-24.5h-23.6L539.4,161.6z"/>
<path class="st4" d="M560.2,141.4h-23.7c-0.3,0-0.6-0.3-0.7-0.6l-0.3-3.1c0-0.1,0-0.2,0-0.3c0-0.1,0.1-0.2,0.1-0.2
	c0.1-0.1,0.1-0.1,0.2-0.2c0.1,0,0.2-0.1,0.3-0.1h24.3c0.4,0,0.7,0.3,0.7,0.7l-0.3,3.1C560.8,141.1,560.5,141.4,560.2,141.4z"/>
<path class="st3" d="M514.6,161.8c-0.3,0-0.6,0.3-0.6,0.6v1.5c0,0.3,0.3,0.6,0.6,0.6h57c0.3,0,0.6-0.3,0.6-0.6v-1.5
	c0-0.3-0.3-0.6-0.6-0.6H514.6z"/>
<path class="st0" d="M144,0h2v88h-2V0z"/>
<path class="st3" d="M160.9,107.8c-0.1-9.1-7.4-16.4-16.5-16.4S128,98.7,128,107.8H160.9z"/>
<path class="st3" d="M150.4,91.3c0,4.8-2.7,8.8-6.1,8.8c-3.4,0-6.1-3.9-6.1-8.8c0-4.8,2.7-8.8,6.1-8.8
	C147.6,82.6,150.4,86.5,150.4,91.3L150.4,91.3z"/>
<path class="st0" d="M117,0h2v53h-2V0z"/>
<path class="st3" d="M133.8,73.5c-0.1-9.1-7.4-16.4-16.5-16.4s-16.4,7.3-16.5,16.4H133.8z"/>
<path class="st3" d="M123.2,57.1c0,4.8-2.7,8.8-6.1,8.8c-3.4,0-6.1-3.9-6.1-8.8c0-4.8,2.7-8.8,6.1-8.8
	C120.5,48.4,123.2,52.3,123.2,57.1z M257.2,351.6l-36.7-117.1l7.3-1.9l32.6,119H257.2z"/>
<path class="st3" d="M192.2,351.5l27.6-119.3l7.4,1.8l-31.7,117.5H192.2z"/>
<path class="st3" d="M246.5,314.1l-44.2,0v-4l43.1,0L246.5,314.1z M61,352.3l36.7-117.1l-7.3-1.9l-32.6,119H61z"/>
<path class="st3" d="M126,352.3L98.4,233l-7.4,1.8l31.7,117.6H126z"/>
<path class="st3" d="M72.4,314l44.2,0l-0.7-3.4l-43.1,0L72.4,314z M58,235.6h202.4v-11.7H58V235.6z"/>
<path class="st4" d="M168.8,175.4c-5.5,2-2.9,9.5,0.6,13c3.8,3.7,9.7,5.8,13,1.8c1-1.2,0.1-2.7-1.4-2.6c-2.3,0.1-4.1-0.5-3.3-2.3
	c0.9-1.7,4.5,1.6,5.9,1.6c3,0,4.1-2.2,3.4-4.1c-0.6-1.5-4.7-2.1-3.7-3.3c1.4-1.8,3.6,1,5.1-0.2c2.4-2,2-5.8,0.9-7.1
	c-0.9-1.1-4.3-2.8-6.9-1.7c-2.5,1-1.7,6.4-2.9,6.5c-2.2,0.1-0.4-4.6-2.2-6c-1-0.8-4.1-0.3-4.8,1.7c-1,2.6,2.7,7.6,0,7.9
	c-2.4,0.3-1-2.5-1.8-4C170.7,176.1,169.8,175.1,168.8,175.4L168.8,175.4z"/>
<path class="st5" d="M151.5,218.8C151.5,218.8,151.5,218.8,151.5,218.8c-0.1,0-0.2-0.1-0.2-0.1c0-0.1,0-0.1,0-0.2
	c6-18.2,18.3-33.7,34.5-43.8c0,0,0.1,0,0.1,0c0,0,0.1,0,0.1,0c0,0,0.1,0,0.1,0c0,0,0,0,0.1,0.1c0,0,0,0.1,0,0.1c0,0,0,0.1,0,0.1
	c0,0,0,0.1,0,0.1c0,0,0,0-0.1,0.1c-16.2,10-28.4,25.5-34.3,43.6C151.7,218.7,151.6,218.8,151.5,218.8L151.5,218.8z"/>
<path class="st4" d="M153.4,159.9c-4,4.3,1.7,9.9,6.4,11.4c5.1,1.6,11.3,0.8,12.4-4.3c0.3-1.5-1.1-2.5-2.4-1.7
	c-2.1,1.1-3.9,1.4-3.9-0.6c0-1.9,4.8-0.6,6-1.2c2.7-1.3,2.7-3.9,1.2-5.2c-1.2-1.1-5.1,0.2-4.8-1.3c0.5-2.3,3.7-0.7,4.5-2.5
	c1.2-2.8-0.8-6-2.4-6.8c-1.2-0.6-5.1-0.6-6.9,1.6c-1.7,2,1.4,6.5,0.3,7.1c-1.9,1.1-2.4-3.9-4.6-4.4c-1.3-0.3-3.8,1.6-3.5,3.7
	c0.3,2.8,5.8,5.6,3.6,7.1c-2,1.4-2-1.8-3.4-2.8C155.5,159.6,154.2,159.1,153.4,159.9L153.4,159.9z"/>
<path class="st5" d="M157.4,206.4c-0.1,0-0.2-0.1-0.2-0.2c-2.8-18.9,1.2-38.4,11.1-54.7c0,0,0,0,0.1-0.1c0,0,0.1,0,0.1,0
	s0.1,0,0.1,0c0,0,0.1,0,0.1,0c0,0,0.1,0,0.1,0.1c0,0,0,0.1,0,0.1c0,0,0,0.1,0,0.1c0,0,0,0.1,0,0.1c-9.9,16.2-13.8,35.5-11.1,54.4
	C157.7,206.3,157.6,206.4,157.4,206.4L157.4,206.4z"/>
<path class="st4" d="M149.2,169.6c5,3.1,0.9,9.9-3.2,12.6c-4.5,2.9-10.7,3.7-13.1-0.9c-0.7-1.4,0.4-2.7,1.9-2.3
	c2.3,0.6,4.2,0.3,3.7-1.6c-0.5-1.8-4.8,0.6-6.1,0.4c-2.9-0.6-3.6-3-2.5-4.7c0.9-1.4,5-1.1,4.3-2.5c-1-2.1-3.7,0.3-4.9-1.3
	c-1.9-2.4-0.7-6,0.6-7.1c1-0.9,4.8-1.9,7.1-0.3c2.2,1.5,0.4,6.6,1.5,6.9c2.1,0.6,1.4-4.4,3.3-5.4c1.2-0.6,4.1,0.5,4.4,2.7
	c0.4,2.8-4.2,6.9-1.6,7.8c2.3,0.8,1.5-2.2,2.6-3.6C147.2,169.8,148.2,168.9,149.2,169.6L149.2,169.6z"/>
<path class="st5" d="M157.4,215.5c-0.1,0-0.2-0.1-0.2-0.2c-2.2-18.9-11-36.5-24.8-49.7c0,0,0,0-0.1-0.1c0,0,0-0.1,0-0.1
	c0,0,0-0.1,0-0.1c0,0,0-0.1,0.1-0.1c0.1-0.1,0.2-0.1,0.3,0c13.9,13.2,22.7,30.9,24.9,49.9C157.6,215.4,157.5,215.5,157.4,215.5
	L157.4,215.5z"/>
<path class="st2" d="M147.6,224.4h18l2.7-24.6h-23.6L147.6,224.4z"/>
<path class="st4" d="M168.3,204.2h-23.7c-0.3,0-0.6-0.3-0.7-0.6l-0.3-3.1c0-0.1,0-0.2,0-0.3c0-0.1,0.1-0.2,0.1-0.2
	c0.1-0.1,0.1-0.1,0.2-0.2c0.1,0,0.2-0.1,0.3-0.1h24.3c0.4,0,0.7,0.3,0.7,0.7l-0.3,3.1C169,203.9,168.7,204.2,168.3,204.2z"/>
<path class="st5" d="M68.8,217.5l5.3,6.4h31.8l5.5-6.4H68.8z"/>
<path class="st3" d="M94.6,210c0,0,5.5-7.2,3.3-11.8c-2.2-4.6-3-7.8-2.4-12.3c0,0-2.2,9.2,0.2,12.6C98.1,201.9,94.6,210,94.6,210z
	 M90.6,210c0,0,4.6-6,2.8-9.9s-2.5-6.6-2-10.3c0,0-1.9,7.7,0.1,10.5C93.5,203.2,90.6,210,90.6,210L90.6,210z M85.1,213.7
	c0,0,6-7.8,3.6-12.8c-2.4-5-3.3-8.5-2.6-13.3c0,0-2.4,10,0.2,13.6C88.9,204.8,85.1,213.7,85.1,213.7L85.1,213.7z M125.6,223.9
	c-3.7,0-6.7-3-6.7-6.8v-10.3h13.5v10.3C132.3,220.9,129.3,223.9,125.6,223.9L125.6,223.9z"/>
<path class="st5" d="M244,217.6l-5.3,6.4h-31.8l-5.5-6.4H244z"/>
<path class="st3" d="M218.2,210.1c0,0-5.5-7.2-3.3-11.8c2.2-4.6,3-7.8,2.4-12.3c0,0,2.2,9.2-0.2,12.5
	C214.7,201.9,218.2,210.1,218.2,210.1z M222.2,210.1c0,0-4.6-6-2.8-9.9c1.9-3.9,2.5-6.6,2-10.3c0,0,1.9,7.7-0.1,10.5
	C219.3,203.2,222.2,210.1,222.2,210.1z M227.7,213.8c0,0-6-7.8-3.6-12.8c2.4-5,3.3-8.5,2.6-13.3c0,0,2.4,10-0.2,13.6
	C223.9,204.9,227.7,213.8,227.7,213.8z M17.7,276.9h54.6v8.9H17.7V276.9z"/>
<path class="st3" d="M19.9,350.2l20.2-64.5l-4-1.1l-17.9,65.6H19.9z M68.6,350.2l-15.2-65.7l-4.1,1l17.5,64.7H68.6z"/>
<path class="st3" d="M134.2,303.2h63.3v9h-63.3V303.2z"/>
<path class="st3" d="M141.6,376.1l20.2-64.5l-4-1.1l-17.9,65.6H141.6z M190.3,376.1l-15.2-65.7l-4,1l17.5,64.7H190.3z"/>
<path class="st6" d="M137.8,303.2c0,0-7.9-6.7-5-16.4c2.8-9.7,16-17.3,31.7-14.2c15.8,3.1,28.3,19.7,29.5,30.6H137.8z"/>
<path class="st7" d="M189.7,281.6c2.7-2.5,6.2-3.9,9.9-3.9l-2.4,10.3L189.7,281.6z M181,282l-4.3-6.6c0,0-6.8,5.6-4.4,12.6
	C174.7,294.8,181,282,181,282L181,282z"/>
<path class="st6" d="M174.6,284.1c0,0-8.5,6.2-7.6,13c0.9,6.8,10.2,8,23.5,7.3c13.2-0.7,11.3-9.5,10.8-12.1
	C200.8,289.7,191.3,271.1,174.6,284.1L174.6,284.1z"/>
<path class="st8" d="M175.9,288.6c0.4,1,1,1.9,1.8,2.6c0.8,0.6,1.8,0.9,2.8,0.9c3.8,0.2,3.7-3.1,3.7-3.1S180.4,293.5,175.9,288.6z"
	/>
<path class="st9" d="M181.6,293.4c0.7-0.6,1.6-1,2.5-1.2c0.9-0.2,1.8-0.2,2.7,0c3.3,0.6,4.3,2.8,4.5,3.7c0.2,0.9-1.2,4.4-5.3,3.7
	C181.8,298.9,179.5,295.4,181.6,293.4z"/>
<path class="st8" d="M188.5,289.3c0.4,0.8,1,1.4,1.8,1.9c0.8,0.5,1.8,0.7,2.8,0.7c3.7,0.2,3.7-2.3,3.7-2.3S192.9,293,188.5,289.3z
	 M185.4,292.7c0.9-0.1,1.8,0,2.7,0.3c0.8,0.5-1.5,1.8-1.5,1.8S184,293.2,185.4,292.7z"/>
<path class="st9" d="M171.4,286.5c0,0-11.6,10.4,2.4,16.7C173.9,303.2,164.5,297.7,171.4,286.5z"/>
<path class="st7" d="M152.5,301c8.7-1.2,11.1-2.5,12.3,0.9c1.2,3.4-20,8.1-27.1,1.4c-7.1-6.7-5.4-14-5.4-14S136.1,303.3,152.5,301
	L152.5,301z"/>
<path class="st10" d="M432.2,205.2c-0.1,0.5-1.2,0.7-3.2,0.7c-1,0-2.1,0-3.5-0.1c-1.4-0.1-2.9-0.2-4.6-0.4c-1.7-0.2-3.5-0.5-5.5-0.8
	c-2-0.3-4.1-0.7-6.3-1.3c-2.2-0.5-4.6-1.1-7-1.9c-2.5-0.8-5-1.8-7.4-2.9c-2.4-1.1-4.8-2.4-7.1-3.9c-2.1-1.4-4.1-3-6-4.7
	c-0.9-0.8-1.8-1.7-2.5-2.5c-0.4-0.4-0.8-0.8-1.1-1.3c-0.4-0.4-0.7-0.9-1.1-1.3c-0.4-0.4-0.7-0.9-1-1.3s-0.6-0.9-0.9-1.3
	c-0.5-0.9-1-1.7-1.4-2.6c-0.8-1.5-1.4-3.1-1.8-4.8c-0.2-0.8-0.3-1.4-0.4-2.1c-0.1-0.6-0.1-1.2-0.1-1.8c0-0.3,0-0.5,0.1-0.8
	c0-0.2,0.1-0.5,0.1-0.7c0.1-0.4,0.2-0.8,0.4-1.2c0.1-0.3,0.3-0.6,0.6-0.8c0.2-0.2,0.5-0.4,0.8-0.5c0.6-0.2,1.3-0.1,1.9,0.1
	c0.4,0.1,0.7,0.3,1,0.5c0.2,0.1,0.4,0.2,0.5,0.4s0.4,0.3,0.6,0.4c0.4,0.3,0.8,0.6,1.2,1c0.4,0.4,0.9,0.7,1.3,1.2
	c0.9,0.8,1.8,1.8,2.9,2.8c0.5,0.5,1.1,1,1.6,1.6l0.9,0.8c0.3,0.3,0.6,0.6,0.9,0.9s0.6,0.6,1,0.9c0.3,0.3,0.7,0.6,1,0.9
	c0.7,0.6,1.4,1.2,2.1,1.9c1.5,1.2,3.1,2.5,4.8,3.8c1.7,1.3,3.6,2.5,5.5,3.8c2,1.3,4,2.4,5.9,3.5c2,1.1,3.9,2.1,5.8,3.1
	c1.9,1,3.7,1.9,5.5,2.7l4.9,2.3c1.5,0.7,2.9,1.4,4.1,2c1.2,0.6,2.2,1.1,3,1.6C431.5,204,432.3,204.7,432.2,205.2L432.2,205.2z"/>
<path class="st11" d="M457.5,215c-1.5,1.1-2.9,2.1-4.4,3.2V218l-22-10.3c-0.3-0.1-0.6-0.3-0.8-0.6c-0.2-0.2-0.4-0.5-0.5-0.8
	c-0.1-0.3-0.2-0.6-0.1-1c0-0.3,0.1-0.6,0.2-0.9s0.3-0.6,0.6-0.8c0.2-0.2,0.5-0.4,0.8-0.5c0.3-0.1,0.6-0.2,1-0.1
	c0.3,0,0.6,0.1,0.9,0.2l24.3,11.4L457.5,215z M311.5,321.2c0,0,1.4,8,8.5,6.6l6,28.4l-25.4-30.7L311.5,321.2z"/>
<path class="st2" d="M322.6,357.5l-24.1-29.1c-0.2-0.2-0.3-0.5-0.2-0.8c0-0.3,0.2-0.5,0.4-0.7l1.9-1.6l25.4,30.8l-1.9,1.6
	c-0.1,0.1-0.2,0.2-0.4,0.2c-0.1,0-0.3,0.1-0.4,0c-0.1,0-0.3-0.1-0.4-0.1C322.8,357.7,322.7,357.6,322.6,357.5z M316.8,334.3
	c0.1,0.1,0.2,0.1,0.3,0.1c1.5-0.1,2.9,0.1,4.3,0.4c0.1,0,0.2,0,0.2,0c0.1,0,0.2,0,0.2-0.1c0.1,0,0.1-0.1,0.2-0.2
	c0.1-0.1,0.1-0.1,0.1-0.2c0-0.2,0-0.3-0.1-0.5c-0.1-0.2-0.2-0.3-0.4-0.3c-1.6-0.4-3.2-0.6-4.8-0.5c-0.1,0-0.2,0-0.2,0.1
	c-0.1,0-0.1,0.1-0.2,0.2c-0.1,0.1-0.1,0.1-0.1,0.2c0,0.1,0,0.2,0,0.3c0,0.1,0.1,0.2,0.1,0.3C316.6,334.2,316.7,334.3,316.8,334.3
	L316.8,334.3z M317.7,337.9c0.1,0,0.2,0.1,0.3,0.1c1.5-0.1,2.9,0.1,4.3,0.4c0.1,0,0.2,0,0.2,0c0.1,0,0.2,0,0.2-0.1
	c0.1,0,0.1-0.1,0.2-0.2c0.1-0.1,0.1-0.1,0.1-0.2c0-0.2,0-0.3-0.1-0.5s-0.2-0.3-0.4-0.3c-1.6-0.4-3.2-0.6-4.8-0.5
	c-0.1,0-0.2,0-0.2,0.1c-0.1,0-0.1,0.1-0.2,0.2c-0.1,0.1-0.1,0.1-0.1,0.2c0,0.1,0,0.2,0,0.3c0,0.1,0.1,0.2,0.1,0.3
	C317.5,337.7,317.6,337.8,317.7,337.9L317.7,337.9z M318.5,341.4c0.1,0.1,0.2,0.1,0.3,0.1c1.5-0.1,2.9,0.1,4.3,0.4
	c0.1,0,0.2,0,0.2,0c0.1,0,0.2,0,0.2-0.1c0.1,0,0.1-0.1,0.2-0.2c0.1-0.1,0.1-0.1,0.1-0.2c0-0.2,0-0.4-0.1-0.5
	c-0.1-0.2-0.2-0.3-0.4-0.3c-1.6-0.4-3.2-0.6-4.8-0.5c-0.1,0-0.2,0-0.2,0.1c-0.1,0-0.1,0.1-0.2,0.2c-0.1,0.1-0.1,0.1-0.1,0.2
	c0,0.1,0,0.2,0,0.3c0,0.1,0.1,0.2,0.1,0.3C318.3,341.3,318.4,341.4,318.5,341.4L318.5,341.4z"/>
<path class="st11" d="M392.7,343.9c0,0,6.9,4.2,10.5-2.1l25.3,14l-39.8-1L392.7,343.9z"/>
<path class="st2" d="M427.2,359.3l-37.2-0.9c-0.2,0-0.3,0-0.5-0.1c-0.2-0.1-0.3-0.2-0.4-0.3c-0.1-0.1-0.2-0.3-0.3-0.4
	c-0.1-0.2-0.1-0.3-0.1-0.5l0.1-2.2l39.9,1l-0.1,2.2c0,0.2,0,0.3-0.1,0.5c-0.1,0.2-0.2,0.3-0.3,0.4c-0.1,0.1-0.3,0.2-0.4,0.3
	C427.5,359.3,427.4,359.3,427.2,359.3L427.2,359.3z M406.2,348.5c0.1,0,0.2-0.1,0.3-0.2c0.9-1.2,2-2.2,3.2-3c0.1,0,0.1-0.1,0.2-0.2
	c0.1-0.1,0.1-0.1,0.1-0.2c0-0.1,0-0.2,0-0.3c0-0.1,0-0.2-0.1-0.2c-0.1-0.1-0.3-0.2-0.4-0.3c-0.2,0-0.4,0-0.5,0.1
	c-1.3,0.9-2.5,2-3.5,3.3c-0.1,0.1-0.1,0.1-0.1,0.2c0,0.1,0,0.2,0,0.3c0,0.1,0,0.2,0.1,0.2c0,0.1,0.1,0.1,0.2,0.2
	c0.1,0.1,0.2,0.1,0.3,0.1C405.9,348.6,406.1,348.6,406.2,348.5z M409.4,350.2c0.1,0,0.2-0.1,0.3-0.2c0.9-1.2,2-2.2,3.2-3
	c0.1,0,0.1-0.1,0.2-0.2c0.1-0.1,0.1-0.1,0.1-0.2c0-0.1,0-0.2,0-0.3c0-0.1,0-0.2-0.1-0.2c-0.1-0.1-0.3-0.2-0.4-0.3
	c-0.2,0-0.3,0-0.5,0.1c-1.3,0.9-2.5,2-3.5,3.3c-0.1,0.1-0.1,0.1-0.1,0.2c0,0.1,0,0.2,0,0.3c0,0.1,0,0.2,0.1,0.2
	c0,0.1,0.1,0.1,0.2,0.2c0.1,0.1,0.2,0.1,0.3,0.1C409.2,350.3,409.3,350.2,409.4,350.2z M412.6,351.9c0.1,0,0.2-0.1,0.3-0.2
	c0.9-1.2,2-2.2,3.2-3c0.1,0,0.1-0.1,0.2-0.2c0-0.1,0.1-0.1,0.1-0.2c0-0.1,0-0.2,0-0.3c0-0.1,0-0.2-0.1-0.2c-0.1-0.1-0.3-0.2-0.4-0.3
	c-0.2,0-0.4,0-0.5,0.1c-1.3,0.9-2.5,2-3.5,3.3c-0.1,0.1-0.1,0.1-0.1,0.2c0,0.1,0,0.2,0,0.3c0,0.1,0,0.2,0.1,0.2
	c0,0.1,0.1,0.1,0.2,0.2c0.1,0.1,0.2,0.1,0.3,0.1C412.4,352,412.5,351.9,412.6,351.9L412.6,351.9z M382.1,180.9
	c1.3,11.3,1.4,22.6,1.3,34c-10.7,4-22.1,5.3-33.5,4c-1.2-11.5-2.4-22.9-2.8-34.5c-0.3-6.1-0.3-12.2,1.2-18.1
	c1.3-5.3,4-10.3,8.2-13.5c0.5-0.4,1-0.7,1.5-1.1c2.6,2,8,2.6,10.9,1.1c1.6,1,3.1,2.2,4.3,3.6c2.3,2.6,4.2,5.6,5.4,8.8
	C380.7,170.2,381.5,175.6,382.1,180.9L382.1,180.9z"/>
<path class="st12" d="M373.2,156.1c-4.4,1.3-9.2,0.9-13.3-1.2c-1.1-0.6-2.2-1.3-3.2-2c0-0.2-0.1-0.5-0.1-0.7v-0.3
	c0-0.3,0.1-0.6,0.1-1c0.4-3.3,0.8-6.6,1.1-9.9c0.3-3,0.6-6.1,0.9-9.1c3.5,1.5,6.8,3.4,9.9,5.6c0.1,2,0.3,4.1,0.6,6.1
	c0.2,1.7,0.5,3.4,0.8,5.1c0.2,0.9,0.4,1.9,0.6,2.8c0.2,0.9,0.4,1.7,0.6,2.6C371.9,154.8,372.6,155.4,373.2,156.1L373.2,156.1z"/>
<path class="st13" d="M370,148.7c-3.6-1-7.7-1.8-12.2-7.6c0.3-3,0.6-6.1,0.9-9.1c3.5,1.5,6.8,3.4,9.9,5.5c0.1,2,0.3,4.1,0.6,6.1
	C369.4,145.3,369.7,147,370,148.7L370,148.7z"/>
<path class="st14" d="M369.2,113c-0.4-1.1-1-2.1-1.8-3c-0.8-0.8-1.8-1.5-2.9-1.9c-2.2-0.8-4.6-0.9-6.8-0.2c-2.3,0.6-4.4,1.9-5.9,3.8
	c-1.5,1.8-2.4,4.2-2.4,6.6c0,3.8,2.3,7.1,4.4,10.2C357.7,122.2,362.9,116.9,369.2,113L369.2,113z"/>
<path class="st15" d="M371.4,108.7c1.1-0.6,2.2-1.3,3.5-1.2c1.7,0.2,2.9,2,2.9,3.8c-0.2,1.7-1,3.4-2.2,4.6c-1.9,2-4.4,3.4-7,4
	c-2.7,0.6-5.5,0.4-8.1-0.5c-0.7-0.2-2.4-0.8-2.8-1.4c-0.6-1.1,0.5-1.3,1.5-1.8L371.4,108.7z"/>
<path class="st11" d="M359.1,139.2c-3.2-2.7-5.2-6.5-5.8-10.7c-0.3-2.5,0-5,0.8-7.4c0.7-1.4,1.6-2.6,2.7-3.7
	c1.6,2.2,2.7,4.7,3.4,7.3C361.5,129.5,361.1,134.6,359.1,139.2L359.1,139.2z M372.6,122.3c0.5,1.3,0.7,2.7,0.6,4.1
	c-0.2,1.4-0.7,2.7-1.5,3.8c-1.3-1.8-2.3-3.9-2.7-6.2c-0.1-0.3-0.1-0.6-0.1-0.9c0-0.3,0.1-0.6,0.3-0.8c0.2-0.2,0.5-0.3,0.7-0.4
	c0.3-0.1,0.6-0.1,0.9,0C371.4,121.9,372.1,122.5,372.6,122.3L372.6,122.3z"/>
<path class="st12" d="M370.8,121.3c-0.4,3,1,5.9,2.3,8.6c1.3,2.7,2.5,5.9,1.5,8.7c-1.1,3-4.4,4.8-7.6,4.5c-3.1-0.3-5.9-2.4-7.5-5.2
	c-1.5-2.8-2.2-6-1.9-9.1c0.2-3.1,0.8-6.3,1.6-9.3C362.9,117.5,367.4,118.6,370.8,121.3L370.8,121.3z"/>
<path class="st12" d="M358.4,129.7c-0.4-0.4-0.8-0.7-1.3-1c-0.5-0.3-1.1-0.3-1.6-0.2c-0.3,0.1-0.6,0.4-0.9,0.6
	c-0.2,0.3-0.4,0.6-0.5,1c-0.2,0.7-0.2,1.4,0,2.1c0.2,0.7,0.6,1.2,1.2,1.7c0.6,0.4,1.2,0.7,1.9,0.7c0.7,0,1.4-0.1,2-0.5
	C358.8,132.7,358.5,131.2,358.4,129.7L358.4,129.7z"/>
<path class="st11" d="M373.1,123.6c-4.5,0.3-8.9-0.6-12.8-2.8c0.4,1.3,0.4,2.7,0.1,4c-0.4,1.9-1.5,3.6-3.1,4.9
	c-1.8-2.5-2.9-5.8-2.5-8.7c0-0.4,0.1-0.7,0.2-1.1c0.6-0.9,1.2-1.7,2-2.4c1.2-1.2,2.5-2.1,4-2.7c2-0.8,4.1-1.2,6.3-1.1
	c2.1,0.1,4.2,0.7,6.1,1.8c0.3,0.2,0.6,0.5,0.9,0.8c0.7,0.7,1.3,1.6,1.7,2.5c0.2,0.5,0.3,1.1,0.3,1.6c0,0.6-0.2,1.1-0.5,1.6
	s-0.7,0.9-1.2,1.2C374.1,123.3,373.6,123.5,373.1,123.6L373.1,123.6z"/>
<path class="st16" d="M349.3,228.5c0,0,11,52.8-41.4,92.7l15.1,15.2c0,0,58.7-43.7,50.5-96.7L349.3,228.5z"/>
<path class="st15" d="M348.4,259c4.1,11.1,9.3,21.8,13.7,32.9c8.6-15.1,14.3-33,11.4-52.1l-24.2-11.2
	C349.3,228.5,352,241.3,348.4,259z"/>
<path class="st14" d="M382,171.4c2.8,16.2,4.2,40.2,3,56.6c0,0,31.9,56.9,27.6,115.5l-22.4,6.5c0,0-8.1-76.4-40.3-114l-2.8-38.3
	l24.2-4.9l1.3-20.6L382,171.4z"/>
<path class="st16" d="M348.8,201.8c-0.2,0-0.4-0.2-0.7-0.7c-0.1-0.3-0.3-0.6-0.5-1c-0.2-0.4-0.3-0.8-0.5-1.3
	c-0.1-0.3-0.2-0.5-0.3-0.8c-0.1-0.3-0.2-0.6-0.2-0.9c-0.1-0.3-0.2-0.6-0.3-1c-0.1-0.3-0.2-0.7-0.2-1.1c-0.1-0.4-0.2-0.8-0.2-1.2
	c-0.1-0.4-0.1-0.8-0.2-1.2c-0.1-0.9-0.2-1.8-0.4-2.7c-0.2-1.9-0.3-4-0.3-6.3c0-5.1,0.6-10.1,1.8-15c0.6-2.9,1.7-5.7,3.2-8.3
	c0.8-1.4,1.8-2.6,3-3.7c1.2-1.1,2.5-2,4-2.6c0.7-0.3,1.5-0.5,2.3-0.7c0.2,0,0.4-0.1,0.6-0.1l0.6,0h1.2c1.5,0.1,2.9,0.4,4.3,1
	c1.2,0.5,2.4,1.2,3.5,2.1c0.2,0.2,0.5,0.4,0.7,0.6l0.7,0.7l0.6,0.7c0.2,0.2,0.4,0.5,0.6,0.7c0.7,0.9,1.3,1.9,1.8,2.9
	c0.5,0.9,0.8,1.9,1.2,2.9c0.5,1.7,0.9,3.4,1.1,5.1c0.2,1.3,0.3,2.6,0.3,3.9c0,2.1-0.1,3.3-0.3,3.3c-0.2,0-0.5-1.1-1-3.1
	c-0.2-1-0.5-2.3-0.9-3.7c-0.4-1.6-0.9-3.1-1.6-4.6c-0.7-1.7-1.8-3.3-3-4.8c-0.2-0.2-0.3-0.4-0.5-0.5l-0.5-0.5l-0.6-0.5
	c-0.2-0.2-0.4-0.3-0.6-0.5c-0.9-0.6-1.8-1.1-2.8-1.5c-1-0.4-2-0.5-3.1-0.5h-0.4l-0.4,0l-0.4,0l-0.4,0.1c-0.5,0.1-1,0.3-1.5,0.5
	c-2.1,1.1-3.8,2.8-4.9,4.9c-1.2,2.3-2.1,4.7-2.6,7.2c-0.6,2.5-1.1,5-1.4,7.4c-0.3,2.4-0.5,4.6-0.7,6.8c-0.1,2.1-0.2,4.1-0.2,5.9
	c0,0.9,0,1.8,0,2.6v1.2c0,0.4,0,0.8,0,1.1c0,0.4,0,0.7,0,1.1l0,1v0.9c0,0.3,0,0.6,0,0.8v1.4c0,0.4,0,0.8,0,1
	C349.1,201.4,349,201.7,348.8,201.8z"/>
<path class="st11" d="M451.3,341.4L427.5,218l-22-10.3c-0.3-0.1-0.6-0.3-0.8-0.5c-0.2-0.2-0.4-0.5-0.6-0.8c-0.1-0.3-0.2-0.6-0.2-1
	c0-0.3,0.1-0.7,0.2-1c0.1-0.3,0.3-0.6,0.6-0.8c0.3-0.2,0.5-0.4,0.9-0.5c0.3-0.1,0.7-0.1,1-0.1c0.3,0,0.7,0.1,1,0.3l24.3,11.4
	l0.2,1.2l23,119.5l103.9-26.2c0.6-0.1,1.3,0,1.8,0.3c0.5,0.3,0.9,0.9,1.1,1.5c0.2,0.6,0.1,1.3-0.3,1.8c-0.3,0.6-0.8,1-1.4,1.1
	L451.3,341.4z"/>
<path class="st11" d="M427.5,337.6l15.3-41.8l5,1.8l-15.3,41.8L427.5,337.6z"/>
<path class="st11" d="M443.4,283l43.6-10.5l1.2,5.1l-43.6,10.5L443.4,283z"/>
<path class="st11" d="M439.2,357.9c7.7,0,14-6.3,14-14c0-7.7-6.3-14-14-14c-7.7,0-14,6.3-14,14C425.2,351.6,431.5,357.9,439.2,357.9
	z"/>
<path class="st14" d="M439.2,352.8c4.9,0,8.9-4,8.9-8.9c0-4.9-4-8.9-8.9-8.9c-4.9,0-8.9,4-8.9,8.9
	C430.4,348.8,434.3,352.8,439.2,352.8z"/>
<path class="st17" d="M439.2,348.2c2.4,0,4.3-1.9,4.3-4.3s-1.9-4.3-4.3-4.3s-4.3,1.9-4.3,4.3S436.9,348.2,439.2,348.2z"/>
<path class="st12" d="M418.7,206.9c-0.3,0.3-0.6,0.5-0.9,0.8c-0.2,0.1-0.4,0.3-0.6,0.5c-0.2,0.2-0.5,0.3-0.7,0.5
	c-0.5,0.3-1.1,0.7-1.7,1c-0.6,0.4-1.4,0.7-2.1,1.1c-0.8,0.4-1.6,0.7-2.5,1c-0.9,0.4-1.9,0.7-3,1l-0.8,0.2c-0.3,0.1-0.5,0.1-0.8,0.2
	l-1.7,0.4c-0.6,0.2-1.2,0.2-1.8,0.3c-0.6,0.1-1.3,0.2-1.9,0.3l-2,0.2c-0.3,0-0.7,0.1-1,0.1h-3.2l-2.2-0.1c-0.8,0-1.5-0.1-2.3-0.2
	s-1.6-0.2-2.4-0.3l-2.4-0.5l-2.4-0.7c-3.4-1-6.7-2.4-9.7-4.2c-3.1-1.8-5.9-4.1-8.5-6.6c-0.6-0.6-1.2-1.3-1.8-1.9
	c-0.6-0.6-1.1-1.3-1.6-2c-0.5-0.7-1-1.3-1.5-2c-0.5-0.7-0.9-1.3-1.3-2c-0.4-0.7-0.8-1.4-1.2-2.1c-0.4-0.7-0.7-1.4-1-2.1l-0.5-1
	c-0.1-0.3-0.3-0.7-0.4-1c-0.2-0.6-0.4-1.2-0.6-1.8c5.9-1.4,11.2-4.8,14.8-9.6c0.1,0.2,0.2,0.4,0.3,0.5c0.2,0.4,0.4,0.8,0.6,1.2
	c0.2,0.4,0.4,0.8,0.6,1.3c0.2,0.4,0.5,0.8,0.7,1.3c0.1,0.2,0.2,0.4,0.3,0.7c0.1,0.2,0.2,0.4,0.4,0.6c0.3,0.4,0.5,0.9,0.7,1.3
	c0.2,0.4,0.5,0.9,0.8,1.3c0.3,0.5,0.6,0.9,0.8,1.3c0.3,0.5,0.6,0.9,0.9,1.4c0.3,0.4,0.6,0.9,0.9,1.4l1,1.3c1.5,1.9,3,3.6,4.8,5.2
	c1.8,1.6,3.8,3.1,5.8,4.4c0.5,0.3,1,0.6,1.6,0.9l1.6,0.8c0.5,0.3,1.1,0.5,1.6,0.8c0.5,0.3,1.1,0.5,1.6,0.7l1.6,0.6
	c0.5,0.2,1.1,0.3,1.6,0.5l0.8,0.3c0.3,0.1,0.5,0.1,0.8,0.2l1.6,0.4c0.5,0.1,1,0.2,1.5,0.3s1,0.2,1.5,0.3l1.5,0.2
	c0.2,0,0.5,0.1,0.7,0.1l0.7,0.1c0.9,0.1,1.8,0.2,2.7,0.1s1.7,0.1,2.4,0c0.8-0.1,1.5,0,2.1-0.1c0.7,0,1.3-0.1,1.8-0.1l0.8,0l0.7-0.1
	c0.4,0,0.8,0,1.1,0c0.6,0,1,0.1,1.1,0.4C419.3,206.1,419.2,206.4,418.7,206.9L418.7,206.9z"/>
<path class="st12" d="M412.9,206.9c0.8-1.5,2.1-2.6,3.7-3.2c1.6-0.6,3.3-0.6,4.9,0c1.6,0.6,2.9,1.7,3.7,3.2c0.8,1.5,1.1,3.2,0.7,4.8
	C421.1,212.2,416.4,210.2,412.9,206.9z"/>
<path class="st10" d="M423.8,201c1.9-1,4-1.5,6.2-1.4c2.1,0,4.2,0.5,6.1,1.5c1.1,0.5,2,1.3,2.7,2.3c0.4,0.5,0.6,1,0.8,1.6
	c0.1,0.6,0.2,1.2,0.1,1.8c-2.9,0.3-5.8-0.1-8.6-1.1C428.3,204.7,425.8,203.1,423.8,201L423.8,201z"/>
<path class="st18" d="M511.3,73l56.3,224.3c0.5,2.1,0.3,4.4-0.7,6.4c-1,2-2.6,3.5-4.7,4.4c-0.4,0.2-0.9,0.3-1.3,0.5l-90.6,22.8
	c-2.4,0.6-4.9,0.2-7-1c-2.1-1.3-3.6-3.3-4.2-5.7l-56.2-224.4c-0.6-2.4-0.2-4.9,1-7c1.3-2.1,3.3-3.6,5.7-4.2l90.6-22.8
	c0.8-0.2,1.5-0.3,2.3-0.3c0.3,0,0.6,0,0.9,0.1c0.4,0,0.9,0.1,1.3,0.2c1.6,0.4,3.1,1.3,4.2,2.4C510.1,70,510.9,71.4,511.3,73
	L511.3,73z"/>
<path class="st19" d="M458.6,323.9l108.8-27.3l2.6,10.2L461.2,334L458.6,323.9z"/>
<path class="st2" d="M435.2,173.7l-0.8,0.2c-1.3,0.3-2.1,1.7-1.8,3l12.3,48.9c0.3,1.3,1.7,2.1,3,1.8l0.8-0.2c1.3-0.3,2.1-1.7,1.8-3
	l-12.3-48.9C437.9,174.1,436.6,173.3,435.2,173.7z"/>
<path class="st2" d="M460.6,274.8l-0.8,0.2c-1.3,0.3-2.1,1.7-1.8,3l7.5,29.7c0.3,1.3,1.7,2.1,3,1.8l0.8-0.2c1.3-0.3,2.1-1.7,1.8-3
	l-7.5-29.7C463.3,275.2,462,274.4,460.6,274.8z"/>
<path class="st19" d="M442.5,259.5l108.8-27.3l1.3,5.1l-108.8,27.3L442.5,259.5z"/>
</svg>
