<svg version="1.1" xmlns="http://www.w3.org/2000/svg" xmlns:xlink="http://www.w3.org/1999/xlink" width="220" height="194" viewBox="0 0 220 194">
<style type="text/css">
	.st0{fill:#F8F8FF;}
	.st1{fill:#E3F4FF;}
	.st2{fill:#3270A7;}
	.st3{fill:none;stroke:#BAD8E8;stroke-width:2;stroke-linecap:round;stroke-miterlimit:10;}
	.st4{fill:#CDE4F7;}
	.st5{fill:#448DCE;}
	.st6{fill:#FF524F;}
	.st7{fill:#FFFFFF;}
	.st8{fill:#1D4259;}
	.st9{fill:#0F222C;}
	.st10{fill:#FF6C45;}
</style>
<path class="st0" d="M109.2,192.9c60.2,0,109.2-10.1,109.2-22.4c0-12.4-48.9-22.4-109.2-22.4C48.9,148.1,0,158.1,0,170.5
	S48.9,192.9,109.2,192.9z"/>
<path class="st0" d="M207.6,160.8c14-41.7,14.9-121.8-13.8-150c-27.2-26.8-40.4,5-61.7,6c-16.6,0.8-45-7.4-60-12.7
	C32.7-10.2-22.8,19.9,10.8,160.8C78.9,160.5,139.4,161,207.6,160.8z"/>
<path class="st1" d="M148.2,34.6c3.1-4.4,5.4-7.3,13.8-7.3c4.9,0,12.9,6.2,17.9,5.6c3.5-0.4,6.9-3.1,10.2-1.9c1.5,0.6,2.7,2,2.9,3.8
	L148.2,34.6z M38.1,23.9c4.5-6,7.6-10.3,19.5-10.3c6.9,0,18.2,8.6,25.1,7.8c4.8-0.6,9.6-4.5,14.3-2.7c2.2,0.8,3.8,2.9,4,5.3
	L38.1,23.9L38.1,23.9z"/>
<path class="st2" d="M202.2,105.4c0.9,0,1.7-0.8,1.7-1.7c0-0.9-0.8-1.7-1.7-1.7s-1.7,0.8-1.7,1.7
	C200.5,104.7,201.3,105.4,202.2,105.4z"/>
<path class="st2" d="M117.1,9.5c1.1-0.8,2.4-1.3,3.6-1.4c0.8,0,1.7-0.3,2.3-1c1.1-1.2,2.9-1.5,4.4-0.8c1.5,0.7,2.4,2.3,2.1,4
	c-0.1,0.8-0.4,1.4-0.9,1.9c-0.6,0.7-0.8,1.5-0.8,2.4c0.2,3.7-2.7,6.9-6.4,7.1c-3.7,0.2-6.9-2.7-7.1-6.4
	C114.2,13,115.2,10.8,117.1,9.5z"/>
<path class="st2" d="M15.6,46.4c2.1,0,3.8-1.7,3.8-3.8c0-2.1-1.7-3.8-3.8-3.8s-3.8,1.7-3.8,3.8C11.8,44.7,13.5,46.4,15.6,46.4z"/>
<path class="st2" d="M183.2,13.5c1.6,0,3-1.4,3-3s-1.4-3-3-3c-1.6,0-3,1.4-3,3S181.6,13.5,183.2,13.5z"/>
<path class="st2" d="M15.6,46.4c2.1,0,3.8-1.7,3.8-3.8c0-2.1-1.7-3.8-3.8-3.8s-3.8,1.7-3.8,3.8C11.8,44.7,13.5,46.4,15.6,46.4z"/>
<path class="st3" d="M11,160.8h197.3"/>
<path class="st4" d="M31.3,63.5H173v113.5H31.3V63.5z"/>
<path class="st5" d="M31.3,53.1H173v25.8H31.3V53.1z"/>
<path class="st6" d="M137.6,100.6h-5.5c-1.5,0-2.7-1.2-2.7-2.7v-5.5c0-1.5,1.2-2.7,2.7-2.7h5.5c1.5,0,2.7,1.2,2.7,2.7v5.5
	C140.3,99.4,139,100.6,137.6,100.6z M159.3,100.6h-5.5c-1.5,0-2.7-1.2-2.7-2.7v-5.5c0-1.5,1.2-2.7,2.7-2.7h5.5
	c1.5,0,2.7,1.2,2.7,2.7v5.5C162,99.4,160.9,100.6,159.3,100.6z"/>
<path class="st7" d="M94,122.4h-5.5c-1.5,0-2.7-1.2-2.7-2.7v-5.5c0-1.5,1.2-2.7,2.7-2.7H94c1.5,0,2.7,1.2,2.7,2.7v5.5
	C96.7,121.3,95.4,122.4,94,122.4z M115.8,122.4h-5.5c-1.5,0-2.7-1.2-2.7-2.7v-5.5c0-1.5,1.2-2.7,2.7-2.7h5.5c1.5,0,2.7,1.2,2.7,2.7
	v5.5C118.5,121.3,117.3,122.4,115.8,122.4z M50.4,122.4h-5.5c-1.5,0-2.7-1.2-2.7-2.7v-5.5c0-1.5,1.2-2.7,2.7-2.7h5.5
	c1.5,0,2.7,1.2,2.7,2.7v5.5C53.1,121.3,51.9,122.4,50.4,122.4z M72.2,122.4h-5.5c-1.5,0-2.7-1.2-2.7-2.7v-5.5c0-1.5,1.2-2.7,2.7-2.7
	h5.5c1.5,0,2.7,1.2,2.7,2.7v5.5C74.9,121.3,73.7,122.4,72.2,122.4z"/>
<path class="st6" d="M137.6,122.4h-5.5c-1.5,0-2.7-1.2-2.7-2.7v-5.5c0-1.5,1.2-2.7,2.7-2.7h5.5c1.5,0,2.7,1.2,2.7,2.7v5.5
	C140.3,121.3,139,122.4,137.6,122.4z M159.3,122.4h-5.5c-1.5,0-2.7-1.2-2.7-2.7v-5.5c0-1.5,1.2-2.7,2.7-2.7h5.5
	c1.5,0,2.7,1.2,2.7,2.7v5.5C162,121.3,160.9,122.4,159.3,122.4z"/>
<path class="st7" d="M94,144.3h-5.5c-1.5,0-2.7-1.2-2.7-2.7v-5.5c0-1.5,1.2-2.7,2.7-2.7H94c1.5,0,2.7,1.2,2.7,2.7v5.5
	C96.7,143,95.4,144.3,94,144.3z M115.8,144.3h-5.5c-1.5,0-2.7-1.2-2.7-2.7v-5.5c0-1.5,1.2-2.7,2.7-2.7h5.5c1.5,0,2.7,1.2,2.7,2.7
	v5.5C118.5,143,117.3,144.3,115.8,144.3z M50.4,144.3h-5.5c-1.5,0-2.7-1.2-2.7-2.7v-5.5c0-1.5,1.2-2.7,2.7-2.7h5.5
	c1.5,0,2.7,1.2,2.7,2.7v5.5C53.1,143,51.9,144.3,50.4,144.3z M72.2,144.3h-5.5c-1.5,0-2.7-1.2-2.7-2.7v-5.5c0-1.5,1.2-2.7,2.7-2.7
	h5.5c1.5,0,2.7,1.2,2.7,2.7v5.5C74.9,143,73.7,144.3,72.2,144.3z"/>
<path class="st6" d="M137.6,144.3h-5.5c-1.5,0-2.7-1.2-2.7-2.7v-5.5c0-1.5,1.2-2.7,2.7-2.7h5.5c1.5,0,2.7,1.2,2.7,2.7v5.5
	C140.3,143,139,144.3,137.6,144.3z"/>
<path class="st4" d="M159.3,144.3h-5.5c-1.5,0-2.7-1.2-2.7-2.7v-5.5c0-1.5,1.2-2.7,2.7-2.7h5.5c1.5,0,2.7,1.2,2.7,2.7v5.5
	C162,143,160.9,144.3,159.3,144.3z"/>
<path class="st7" d="M94,166h-5.5c-1.5,0-2.7-1.2-2.7-2.7v-5.5c0-1.5,1.2-2.7,2.7-2.7H94c1.5,0,2.7,1.2,2.7,2.7v5.5
	C96.7,164.8,95.4,166,94,166z M115.8,166h-5.5c-1.5,0-2.7-1.2-2.7-2.7v-5.5c0-1.5,1.2-2.7,2.7-2.7h5.5c1.5,0,2.7,1.2,2.7,2.7v5.5
	C118.5,164.8,117.3,166,115.8,166z M50.4,166h-5.5c-1.5,0-2.7-1.2-2.7-2.7v-5.5c0-1.5,1.2-2.7,2.7-2.7h5.5c1.5,0,2.7,1.2,2.7,2.7
	v5.5C53.1,164.8,51.9,166,50.4,166z M72.2,166h-5.5c-1.5,0-2.7-1.2-2.7-2.7v-5.5c0-1.5,1.2-2.7,2.7-2.7h5.5c1.5,0,2.7,1.2,2.7,2.7
	v5.5C74.9,164.8,73.7,166,72.2,166z"/>
<path class="st6" d="M137.6,166h-5.5c-1.5,0-2.7-1.2-2.7-2.7v-5.5c0-1.5,1.2-2.7,2.7-2.7h5.5c1.5,0,2.7,1.2,2.7,2.7v5.5
	C140.3,164.8,139,166,137.6,166z"/>
<path class="st4" d="M159.3,166h-5.5c-1.5,0-2.7-1.2-2.7-2.7v-5.5c0-1.5,1.2-2.7,2.7-2.7h5.5c1.5,0,2.7,1.2,2.7,2.7v5.5
	C162,164.8,160.9,166,159.3,166z"/>
<path class="st2" d="M53.7,66.3h96.9v5.8H53.7V66.3z"/>
<path class="st8" d="M49.8,59.5c-0.8,0-1.6-0.7-1.6-1.6v-8.5c0-0.8,0.7-1.6,1.6-1.6c0.8,0,1.6,0.7,1.6,1.6V58
	C51.4,58.8,50.6,59.5,49.8,59.5z M56.3,59.5c-0.8,0-1.6-0.7-1.6-1.6v-8.5c0-0.8,0.7-1.6,1.6-1.6c0.8,0,1.6,0.7,1.6,1.6V58
	C57.9,58.8,57.1,59.5,56.3,59.5z"/>
<path class="st9" d="M49.8,58.2c-0.8,0-1.6-0.7-1.6-1.6v-8.5c0-0.8,0.7-1.6,1.6-1.6c0.8,0,1.6,0.7,1.6,1.6v8.5
	C51.4,57.5,50.6,58.2,49.8,58.2z M56.3,58.2c-0.8,0-1.6-0.7-1.6-1.6v-8.5c0-0.8,0.7-1.6,1.6-1.6c0.8,0,1.6,0.7,1.6,1.6v8.5
	C57.9,57.5,57.1,58.2,56.3,58.2z"/>
<path class="st8" d="M74.2,59.5c-0.8,0-1.6-0.7-1.6-1.6v-8.5c0-0.8,0.7-1.6,1.6-1.6c0.8,0,1.6,0.7,1.6,1.6V58
	C75.8,58.8,75.1,59.5,74.2,59.5z M80.7,59.5c-0.8,0-1.6-0.7-1.6-1.6v-8.5c0-0.8,0.7-1.6,1.6-1.6c0.8,0,1.6,0.7,1.6,1.6V58
	C82.3,58.8,81.7,59.5,80.7,59.5z"/>
<path class="st9" d="M74.2,58.2c-0.8,0-1.6-0.7-1.6-1.6v-8.5c0-0.8,0.7-1.6,1.6-1.6c0.8,0,1.6,0.7,1.6,1.6v8.5
	C75.8,57.5,75.1,58.2,74.2,58.2z M80.7,58.2c-0.8,0-1.6-0.7-1.6-1.6v-8.5c0-0.8,0.7-1.6,1.6-1.6c0.8,0,1.6,0.7,1.6,1.6v8.5
	C82.3,57.5,81.7,58.2,80.7,58.2z"/>
<path class="st8" d="M98.7,59.5c-0.8,0-1.6-0.7-1.6-1.6v-8.5c0-0.8,0.7-1.6,1.6-1.6c0.8,0,1.6,0.7,1.6,1.6V58
	C100.3,58.8,99.6,59.5,98.7,59.5z M105.2,59.5c-0.8,0-1.6-0.7-1.6-1.6v-8.5c0-0.8,0.7-1.6,1.6-1.6c0.8,0,1.6,0.7,1.6,1.6V58
	C106.8,58.8,106.1,59.5,105.2,59.5z"/>
<path class="st9" d="M98.7,58.2c-0.8,0-1.6-0.7-1.6-1.6v-8.5c0-0.8,0.7-1.6,1.6-1.6c0.8,0,1.6,0.7,1.6,1.6v8.5
	C100.3,57.5,99.6,58.2,98.7,58.2z M105.2,58.2c-0.8,0-1.6-0.7-1.6-1.6v-8.5c0-0.8,0.7-1.6,1.6-1.6c0.8,0,1.6,0.7,1.6,1.6v8.5
	C106.8,57.5,106.1,58.2,105.2,58.2z"/>
<path class="st8" d="M124.3,59.5c-0.8,0-1.6-0.7-1.6-1.6v-8.5c0-0.8,0.7-1.6,1.6-1.6c0.8,0,1.6,0.7,1.6,1.6V58
	C125.8,58.8,125.1,59.5,124.3,59.5z M130.8,59.5c-0.8,0-1.6-0.7-1.6-1.6v-8.5c0-0.8,0.7-1.6,1.6-1.6c0.8,0,1.6,0.7,1.6,1.6V58
	C132.3,58.8,131.7,59.5,130.8,59.5z"/>
<path class="st9" d="M124.3,58.2c-0.8,0-1.6-0.7-1.6-1.6v-8.5c0-0.8,0.7-1.6,1.6-1.6c0.8,0,1.6,0.7,1.6,1.6v8.5
	C125.8,57.5,125.1,58.2,124.3,58.2z M130.8,58.2c-0.8,0-1.6-0.7-1.6-1.6v-8.5c0-0.8,0.7-1.6,1.6-1.6c0.8,0,1.6,0.7,1.6,1.6v8.5
	C132.3,57.5,131.7,58.2,130.8,58.2z"/>
<path class="st8" d="M148,59.5c-0.8,0-1.6-0.7-1.6-1.6v-8.5c0-0.8,0.7-1.6,1.6-1.6c0.8,0,1.6,0.7,1.6,1.6V58
	C149.6,58.8,148.8,59.5,148,59.5z M154.5,59.5c-0.8,0-1.6-0.7-1.6-1.6v-8.5c0-0.8,0.7-1.6,1.6-1.6c0.8,0,1.6,0.7,1.6,1.6V58
	C156.1,58.8,155.4,59.5,154.5,59.5z"/>
<path class="st9" d="M148,58.2c-0.8,0-1.6-0.7-1.6-1.6v-8.5c0-0.8,0.7-1.6,1.6-1.6c0.8,0,1.6,0.7,1.6,1.6v8.5
	C149.6,57.5,148.8,58.2,148,58.2z M154.5,58.2c-0.8,0-1.6-0.7-1.6-1.6v-8.5c0-0.8,0.7-1.6,1.6-1.6c0.8,0,1.6,0.7,1.6,1.6v8.5
	C156.1,57.5,155.4,58.2,154.5,58.2z"/>
<path class="st10" d="M159.2,143.9h-5.5c-1.5,0-2.7-1.2-2.7-2.7v-5.5c0-1.5,1.2-2.7,2.7-2.7h5.5c1.5,0,2.7,1.2,2.7,2.7v5.5
	C162,142.7,160.8,143.9,159.2,143.9z M159.2,165.8h-5.5c-1.5,0-2.7-1.2-2.7-2.7v-5.5c0-1.5,1.2-2.7,2.7-2.7h5.5
	c1.5,0,2.7,1.2,2.7,2.7v5.5C162,164.6,160.8,165.8,159.2,165.8z"/>
<path class="st2" d="M174.2,182.3c16.5,0,29.9-13.4,29.9-29.9s-13.4-29.9-29.9-29.9s-29.9,13.4-29.9,29.9S157.8,182.3,174.2,182.3z"
	/>
<path class="st7" d="M150.2,160.9v-2.2l2-1.9c3.4-3,5.1-4.8,5.2-6.6c0-1.3-0.8-2.3-2.5-2.3c-1.3,0-2.5,0.7-3.3,1.3l-1-2.6
	c1.2-0.8,3-1.6,5.2-1.6c3.5,0,5.5,2.1,5.5,4.9c0,2.6-1.9,4.7-4.1,6.7l-1.5,1.2v0.1h5.8v3L150.2,160.9L150.2,160.9L150.2,160.9z
	 M170,160.9v-3.7h-6.9v-2.4l5.9-9.5h4.5v9.1h1.9v2.7h-1.9v3.7H170z M170,154.4V151c0-0.9,0.1-1.9,0.1-2.9H170
	c-0.5,1-0.8,1.9-1.5,2.9l-2.1,3.4v0.1H170z M177,160.9l4.7-15.6h3.1l-4.7,15.6H177z M198.3,145.3v2.3l-6.4,13.4H188l6.4-12.5v-0.1
	h-7.2v-3L198.3,145.3L198.3,145.3z"/>
</svg>
