<svg version="1.1" xmlns="http://www.w3.org/2000/svg" xmlns:xlink="http://www.w3.org/1999/xlink" width="630" height="390" viewBox="0 0 630 390">
<style type="text/css">
	.st0{fill:#EAF1FB;}
	.st1{fill:#F8F9FD;}
	.st2{fill:#FFFFFF;}
	.st3{fill:#D6E0F0;}
	.st4{fill:#E8EDF4;}
	.st5{fill:#CDE4F7;}
	.st6{fill:#FDFCFD;}
	.st7{fill:#E09073;}
	.st8{fill:#132C45;}
	.st9{fill:#F19A77;}
	.st10{fill:#E9825F;}
	.st11{fill:#0682A0;}
	.st12{fill:#067487;}
	.st13{fill:#0C0500;}
	.st14{fill:#09626C;}
	.st15{fill:#0B1F2E;}
	.st16{fill:#1C0D00;}
	.st17{fill:#EA505E;}
	.st18{opacity:0.3;fill:#010202;}
	.st19{fill:#301D49;}
	.st20{fill:#9D9FA3;}
</style>
<path class="st0" d="M630,340c0,0.8-0.1,1.6-0.4,2.4c-0.3,0.8-0.6,1.6-1.1,2.4c-0.5,0.8-1.1,1.5-1.9,2.4c-0.8,0.8-1.6,1.5-2.6,2.3
	c-1,0.8-2.1,1.5-3.4,2.3c-1.3,0.8-2.6,1.5-4.1,2.3c-1.5,0.8-3.1,1.5-4.8,2.3c-1.7,0.7-3.6,1.5-5.6,2.2c-2,0.7-4.1,1.4-6.2,2.2
	c-2.2,0.7-4.5,1.4-7,2.1c-2.4,0.7-5,1.4-7.6,2.1c-2.7,0.7-5.4,1.3-8.3,2c-2.9,0.7-5.8,1.3-8.9,1.9c-3.1,0.6-6.2,1.2-9.5,1.9
	c-3.3,0.6-6.7,1.2-10.1,1.8c-3.4,0.6-7,1.2-10.7,1.7c-3.7,0.6-7.4,1.1-11.2,1.6c-3.8,0.5-7.7,1.1-11.7,1.5c-4,0.5-8.1,1-12.2,1.4
	c-4.1,0.5-8.4,0.9-12.6,1.3c-4.3,0.4-8.6,0.9-13.1,1.2c-4.4,0.4-8.9,0.8-13.4,1.2c-4.5,0.4-9.1,0.7-13.8,1.1
	c-4.7,0.3-9.4,0.7-14.1,1c-4.8,0.3-9.6,0.6-14.4,0.9c-4.8,0.3-9.7,0.5-14.7,0.7c-4.9,0.2-9.9,0.4-14.9,0.6c-5,0.2-10,0.4-15.1,0.5
	c-5.1,0.1-10.1,0.3-15.3,0.4l-15.3,0.3c-5.1,0.1-10.3,0.1-15.4,0.2c-5.2,0-10.3,0-15.4,0c-5.2,0-10.3,0-15.4,0
	c-5.2,0-10.3-0.1-15.4-0.2l-15.3-0.3c-5.1-0.1-10.2-0.2-15.3-0.4c-5.1-0.1-10.1-0.3-15.1-0.5c-5-0.2-10-0.4-14.9-0.6
	c-4.9-0.2-9.8-0.5-14.7-0.7c-4.8-0.2-9.6-0.5-14.4-0.9c-4.8-0.3-9.5-0.6-14.1-1c-4.7-0.3-9.3-0.7-13.8-1.1
	c-4.5-0.4-9.1-0.8-13.4-1.2c-4.4-0.4-8.8-0.8-13.1-1.2c-4.3-0.4-8.5-0.9-12.6-1.3c-4.1-0.5-8.2-1-12.2-1.4c-4-0.5-7.9-1-11.7-1.5
	c-3.8-0.5-7.6-1.1-11.2-1.6c-3.7-0.6-7.2-1.1-10.7-1.7c-3.4-0.6-6.8-1.2-10.1-1.8c-3.3-0.6-6.4-1.2-9.5-1.9c-3.1-0.7-6-1.3-8.9-1.9
	c-2.9-0.7-5.6-1.3-8.3-2c-2.7-0.7-5.2-1.3-7.6-2.1c-2.4-0.7-4.8-1.4-7-2.1c-2.2-0.7-4.3-1.4-6.2-2.2c-2-0.7-3.8-1.4-5.6-2.2
	c-1.7-0.7-3.4-1.5-4.8-2.3c-1.5-0.8-2.9-1.5-4.1-2.3c-1.3-0.8-2.4-1.5-3.4-2.3c-1-0.8-1.9-1.5-2.6-2.3c-0.8-0.8-1.4-1.5-1.9-2.4
	c-0.5-0.8-0.9-1.6-1.1-2.4C0.1,341.6,0,340.8,0,340s0.1-1.6,0.4-2.4c0.2-0.8,0.6-1.6,1.1-2.4c0.5-0.8,1.1-1.5,1.9-2.4
	c0.8-0.8,1.6-1.5,2.6-2.3c1-0.8,2.1-1.5,3.4-2.3c1.3-0.8,2.6-1.5,4.1-2.3c1.5-0.8,3.1-1.5,4.8-2.3c1.7-0.7,3.6-1.5,5.6-2.2
	c2-0.7,4.1-1.4,6.2-2.2c2.2-0.7,4.5-1.4,7-2.1c2.4-0.7,5-1.4,7.6-2.1c2.7-0.7,5.4-1.3,8.3-2c2.9-0.7,5.8-1.3,8.9-1.9
	c3.1-0.6,6.2-1.2,9.5-1.9c3.3-0.6,6.7-1.2,10.1-1.8c3.4-0.6,7-1.2,10.7-1.7c3.7-0.6,7.4-1.1,11.2-1.6c3.8-0.5,7.7-1.1,11.7-1.5
	c4-0.5,8.1-1,12.2-1.4c4.1-0.5,8.4-0.9,12.6-1.3c4.3-0.4,8.6-0.9,13.1-1.2c4.4-0.4,8.9-0.8,13.4-1.2c4.5-0.4,9.1-0.7,13.8-1.1
	c4.7-0.3,9.4-0.7,14.1-1c4.8-0.3,9.6-0.6,14.4-0.9c4.9-0.3,9.7-0.5,14.7-0.7c4.9-0.2,9.9-0.4,14.9-0.6c5-0.2,10.1-0.4,15.1-0.5
	c5.1-0.1,10.1-0.3,15.3-0.4l15.3-0.3c5.1-0.1,10.3-0.1,15.4-0.2c5.2,0,10.3,0,15.4,0c5.2,0,10.3,0,15.4,0c5.2,0,10.3,0.1,15.4,0.2
	c5.2,0.1,10.2,0.2,15.3,0.3c5.1,0.1,10.2,0.2,15.3,0.4c5.1,0.1,10.1,0.3,15.1,0.5c5,0.2,10,0.4,14.9,0.6c4.9,0.2,9.8,0.5,14.7,0.7
	c4.8,0.3,9.6,0.5,14.4,0.9c4.8,0.3,9.5,0.6,14.1,1c4.7,0.3,9.3,0.7,13.8,1.1c4.5,0.4,9.1,0.8,13.4,1.2c4.4,0.4,8.8,0.8,13.1,1.2
	c4.3,0.4,8.5,0.9,12.6,1.3c4.1,0.5,8.2,1,12.2,1.4c4,0.5,7.9,1,11.7,1.5c3.8,0.5,7.6,1.1,11.2,1.6c3.7,0.6,7.2,1.1,10.7,1.7
	c3.4,0.6,6.8,1.2,10.1,1.8c3.3,0.6,6.4,1.2,9.5,1.9c3.1,0.6,6,1.3,8.9,1.9c2.9,0.7,5.6,1.3,8.3,2c2.7,0.7,5.2,1.3,7.6,2.1
	c2.4,0.7,4.8,1.4,7,2.1c2.2,0.7,4.3,1.4,6.2,2.2c2,0.7,3.8,1.4,5.6,2.2c1.7,0.7,3.3,1.5,4.8,2.3c1.5,0.8,2.9,1.5,4.1,2.3
	c1.3,0.8,2.4,1.5,3.4,2.3c1,0.8,1.9,1.5,2.6,2.3c0.8,0.8,1.4,1.5,1.9,2.4c0.5,0.8,0.9,1.6,1.1,2.4C629.9,338.5,630,339.2,630,340z"
	/>
<path class="st1" d="M573.2,320.2c35.9-74.6,55.7-217.5-22.1-265c-50.9-31.1-104,8.9-158.5,10.8c-42.7,1.4-83.9-32.3-122.6-42
	C169-1.3,10.1,64.4,80,320.2C254.8,319.6,398.4,320.7,573.2,320.2L573.2,320.2z"/>
<path class="st2" d="M472.2,209H369.6c-1.4,0-2.5-1.1-2.5-2.5V35.5C367.1,6.7,390.5,4,419.5,4h2.9c28.9,0,52.3,2.6,52.3,31.5v170.9
	C474.7,207.8,473.6,209,472.2,209L472.2,209z"/>
<path class="st3" d="M368.3,207.8h104.2V35.5c0-16.2-13.1-29.3-29.3-29.3h-45.6c-16.2,0-29.3,13.1-29.3,29.3V207.8z M472.7,211.2
	H368.1c-1.7,0-3.1-1.4-3.1-3.1V35.5c0-18,14.6-32.6,32.6-32.6h45.6c18,0,32.6,14.6,32.6,32.6V208
	C475.8,209.7,474.4,211.2,472.7,211.2L472.7,211.2z"/>
<path class="st3" d="M420.4,209.9c-0.9,0-1.7-0.8-1.7-1.7V4.6c0-0.9,0.8-1.7,1.7-1.7c0.9,0,1.7,0.8,1.7,1.7v203.6
	C422.1,209.1,421.3,209.9,420.4,209.9z"/>
<path class="st3" d="M474.2,111.7H366.6c-0.9,0-1.7-0.8-1.7-1.7c0-0.9,0.8-1.7,1.7-1.7h107.5c0.9,0,1.7,0.8,1.7,1.7
	C475.8,110.9,475.1,111.7,474.2,111.7z M474.2,60.6H366.6c-0.9,0-1.7-0.8-1.7-1.7c0-0.9,0.8-1.7,1.7-1.7h107.5
	c0.9,0,1.7,0.8,1.7,1.7C475.8,59.8,475.1,60.6,474.2,60.6z M474.2,162.7H366.6c-0.9,0-1.7-0.8-1.7-1.7s0.8-1.7,1.7-1.7h107.5
	c0.9,0,1.7,0.8,1.7,1.7C475.8,162.1,475.1,162.7,474.2,162.7z"/>
<path class="st4" d="M543.9,137h5.7v-32.6c0,0-1.3-0.7-2.9-0.7s-2.9,0.7-2.9,0.7V137z"/>
<path class="st5" d="M526.5,136.9h4.9v-32.6c0,0-1.1-0.7-2.5-0.7c-1.4,0-2.5,0.7-2.5,0.7L526.5,136.9z"/>
<path class="st2" d="M531.4,136.9h5.7v-32.6c0,0-1.3-0.7-2.9-0.7c-1.6,0-2.9,0.7-2.9,0.7V136.9z M563.3,136.9l4.5-2.1l-13.7-29.6
	c0,0-1.3-0.1-2.6,0.4c-1.3,0.5-2,1.7-2,1.7L563.3,136.9L563.3,136.9z"/>
<path class="st5" d="M537.1,137h6.7v-32.6c0,0-1.4-0.7-3.4-0.7c-1.9,0-3.4,0.7-3.4,0.7L537.1,137z"/>
<path class="st3" d="M518.2,137.2c-0.4,0-0.5,0.3-0.5,0.5v1.5c0,0.4,0.3,0.5,0.5,0.5h57c0.4,0,0.5-0.3,0.5-0.5v-1.5
	c0-0.4-0.3-0.5-0.5-0.5H518.2z"/>
<path class="st0" d="M142,0h3v52h-3V0z"/>
<path class="st3" d="M159.6,72.7c-0.1-9.1-7.4-16.4-16.5-16.4s-16.4,7.4-16.5,16.4H159.6z"/>
<path class="st3" d="M149,56.3c0,4.8-2.7,8.7-6.1,8.7c-3.4,0-6.1-3.9-6.1-8.7s2.7-8.7,6.1-8.7C146.2,47.6,149,51.5,149,56.3z
	 M304.9,108.4c0,0.6,0,1.3-0.1,1.9c0,0.6-0.1,1.3-0.3,1.9c-0.1,0.6-0.3,1.2-0.5,1.9c-0.2,0.6-0.4,1.2-0.6,1.8
	c-0.2,0.6-0.5,1.1-0.8,1.7l-1,1.6c-0.3,0.5-0.7,1-1.1,1.5c-0.8,1-1.7,1.9-2.7,2.7c-0.5,0.4-1,0.8-1.5,1.1s-1.1,0.7-1.6,0.9
	c-0.5,0.3-1.1,0.6-1.7,0.8c-0.6,0.2-1.2,0.5-1.8,0.6s-1.2,0.3-1.9,0.5c-0.6,0.1-1.2,0.2-1.9,0.3c-0.6,0-1.3,0.1-1.9,0.1
	c-0.6,0-1.3,0-1.9-0.1s-1.3-0.1-1.9-0.3c-0.6-0.1-1.2-0.3-1.9-0.5c-0.6-0.2-1.2-0.4-1.8-0.6c-0.6-0.2-1.1-0.5-1.7-0.8l-1.6-0.9
	c-0.5-0.4-1-0.7-1.5-1.1c-1-0.8-1.9-1.7-2.7-2.7c-0.4-0.5-0.8-1-1.1-1.5c-0.4-0.5-0.7-1.1-1-1.6c-0.3-0.5-0.6-1.1-0.8-1.7
	c-0.2-0.6-0.5-1.2-0.6-1.8c-0.2-0.6-0.3-1.2-0.5-1.9c-0.1-0.6-0.2-1.2-0.3-1.9s-0.1-1.3-0.1-1.9c0-0.6,0-1.3,0.1-1.9
	c0-0.6,0.1-1.3,0.3-1.9c0.1-0.6,0.3-1.2,0.5-1.9c0.2-0.6,0.4-1.2,0.6-1.8s0.5-1.1,0.8-1.7l1-1.6c0.4-0.5,0.7-1,1.1-1.5
	c0.8-1,1.7-1.9,2.7-2.7c0.5-0.4,1-0.8,1.5-1.1c0.5-0.4,1.1-0.7,1.6-1c0.5-0.3,1.1-0.6,1.7-0.8c0.6-0.2,1.2-0.5,1.8-0.6
	c0.6-0.2,1.2-0.3,1.9-0.5c0.6-0.1,1.2-0.2,1.9-0.3c0.6,0,1.3-0.1,1.9-0.1c0.6,0,1.3,0,1.9,0.1c0.6,0,1.3,0.1,1.9,0.3
	c0.6,0.1,1.2,0.3,1.9,0.5c0.6,0.2,1.2,0.4,1.8,0.6c0.6,0.2,1.1,0.5,1.7,0.8l1.6,1c0.5,0.4,1,0.7,1.5,1.1c1,0.8,1.9,1.7,2.7,2.7
	c0.4,0.5,0.8,1,1.1,1.5c0.4,0.5,0.7,1.1,1,1.6c0.3,0.5,0.6,1.1,0.8,1.7c0.2,0.6,0.5,1.2,0.6,1.8c0.2,0.6,0.3,1.2,0.5,1.9
	c0.1,0.6,0.2,1.2,0.3,1.9C304.8,107.1,304.9,107.8,304.9,108.4z"/>
<path class="st6" d="M300.2,108.4c0,0.5,0,1-0.1,1.4c0,0.5-0.1,0.9-0.2,1.4c-0.1,0.5-0.2,0.9-0.4,1.4c-0.1,0.5-0.3,0.9-0.5,1.4
	c-0.2,0.5-0.4,0.9-0.6,1.3c-0.2,0.5-0.5,0.8-0.7,1.2c-0.3,0.4-0.5,0.8-0.9,1.1l-1,1.1c-0.3,0.3-0.7,0.7-1.1,1
	c-0.4,0.3-0.8,0.6-1.1,0.9c-0.4,0.3-0.8,0.5-1.2,0.7c-0.4,0.2-0.9,0.5-1.3,0.6c-0.5,0.2-0.9,0.4-1.4,0.5c-0.5,0.1-0.9,0.3-1.4,0.4
	c-0.5,0.1-1,0.2-1.4,0.2c-0.5,0-1,0.1-1.4,0.1c-0.5,0-1,0-1.4-0.1s-1-0.1-1.4-0.2c-0.5-0.1-1-0.2-1.4-0.4c-0.5-0.1-0.9-0.3-1.4-0.5
	c-0.5-0.2-0.9-0.4-1.3-0.6c-0.4-0.2-0.8-0.5-1.2-0.7c-0.4-0.3-0.8-0.5-1.1-0.9l-1.1-1c-0.3-0.3-0.7-0.7-1-1.1
	c-0.3-0.4-0.6-0.8-0.9-1.1c-0.3-0.4-0.5-0.8-0.7-1.2c-0.2-0.4-0.5-0.9-0.6-1.3c-0.2-0.5-0.4-0.9-0.5-1.4c-0.1-0.5-0.3-0.9-0.4-1.4
	c-0.1-0.5-0.2-1-0.2-1.4c0-0.5-0.1-1-0.1-1.4s0-0.9,0.1-1.4c0-0.5,0.1-0.9,0.2-1.4c0.1-0.5,0.2-0.9,0.4-1.4s0.3-0.9,0.5-1.4
	c0.2-0.5,0.4-0.9,0.6-1.3c0.2-0.4,0.5-0.8,0.7-1.2c0.3-0.4,0.5-0.8,0.9-1.1l1-1.1c0.3-0.3,0.7-0.7,1.1-1c0.4-0.3,0.8-0.6,1.1-0.9
	c0.4-0.3,0.8-0.5,1.2-0.7c0.4-0.2,0.9-0.5,1.3-0.6c0.5-0.2,0.9-0.4,1.4-0.5c0.5-0.1,0.9-0.3,1.4-0.4c0.5-0.1,1-0.2,1.4-0.2
	c0.5,0,1-0.1,1.4-0.1c0.5,0,1,0,1.4,0.1c0.5,0,1,0.1,1.4,0.2c0.5,0.1,1,0.2,1.4,0.4c0.5,0.1,0.9,0.3,1.4,0.5
	c0.5,0.2,0.9,0.4,1.3,0.6c0.4,0.2,0.8,0.5,1.2,0.7c0.4,0.3,0.8,0.5,1.1,0.9l1.1,1c0.3,0.3,0.7,0.7,1,1.1c0.3,0.4,0.6,0.8,0.9,1.1
	c0.3,0.4,0.5,0.8,0.7,1.2c0.2,0.4,0.5,0.9,0.6,1.3c0.2,0.5,0.4,0.9,0.5,1.4c0.1,0.5,0.3,0.9,0.4,1.4c0.1,0.5,0.2,0.9,0.2,1.4
	C300.2,107.4,300.2,107.9,300.2,108.4z"/>
<path class="st3" d="M289.8,117.8l-3.5-9.7c-0.1-0.5-0.7-0.8-1.2-0.6l-10.4,2.4c-0.5,0.1-0.9,0.7-0.8,1.2c0.1,0.5,0.7,0.8,1.2,0.8
	l9.6-2.2l3.3,8.9c0.1,0.4,0.5,0.6,0.9,0.6c0.1,0,0.2,0,0.4-0.1C289.7,118.9,290,118.3,289.8,117.8L289.8,117.8z"/>
<path class="st3" d="M287.3,108.4c0,0.1,0,0.3,0,0.4c0,0.1,0,0.3-0.1,0.4c0,0.1-0.1,0.2-0.2,0.4c-0.1,0.1-0.1,0.2-0.3,0.3
	c-0.1,0.1-0.2,0.2-0.3,0.3c-0.1,0.1-0.2,0.1-0.4,0.2c-0.1,0-0.2,0.1-0.4,0.1c-0.1,0-0.3,0-0.4,0s-0.3,0-0.4,0c-0.1,0-0.3,0-0.4-0.1
	c-0.1,0-0.2-0.1-0.4-0.2c-0.1-0.1-0.2-0.1-0.3-0.3c-0.1-0.1-0.2-0.2-0.3-0.3c-0.1-0.1-0.1-0.2-0.2-0.4c0-0.1-0.1-0.2-0.1-0.4
	c0-0.1,0-0.3,0-0.4s0-0.3,0-0.4c0-0.1,0-0.3,0.1-0.4c0-0.1,0.1-0.2,0.2-0.4c0.1-0.1,0.1-0.2,0.3-0.3c0.1-0.1,0.2-0.2,0.3-0.3
	c0.1-0.1,0.2-0.1,0.4-0.2c0.1,0,0.2-0.1,0.4-0.1c0.1,0,0.3,0,0.4,0s0.3,0,0.4,0c0.1,0,0.3,0,0.4,0.1c0.1,0,0.2,0.1,0.4,0.2
	c0.1,0.1,0.2,0.1,0.3,0.3c0.1,0.1,0.2,0.2,0.3,0.3c0.1,0.1,0.1,0.2,0.2,0.4c0,0.1,0.1,0.2,0.1,0.4
	C287.3,108.1,287.3,108.3,287.3,108.4z M284.2,350.8l-36.7-117.1l7.4-1.9l32.6,119H284.2z"/>
<path class="st3" d="M219.2,350.8l27.6-119.3l7.4,1.7l-31.7,117.6H219.2z"/>
<path class="st3" d="M88.7,350.8l36.7-117.1l-7.3-1.9l-32.6,119H88.7L88.7,350.8z M273.5,313.3h-44.3v-4h43.2L273.5,313.3
	L273.5,313.3z"/>
<path class="st3" d="M153.7,350.8l-27.6-119.3l-7.3,1.7l31.7,117.6H153.7z"/>
<path class="st3" d="M85,234.8h202.5v-11.7H85V234.8z M99.4,313.3h44.3v-4h-43.1L99.4,313.3z"/>
<path class="st4" d="M465.2,251.2h102.4v90.6H465.2V251.2z"/>
<path class="st3" d="M553.2,341.8h9.1v8h-9.1V341.8z M469.4,341.8h9.1v8h-9.1V341.8z M474,296.5h83.8v36.8H474V296.5z M474,258.2
	h83.8v31.8H474V258.2z"/>
<path class="st6" d="M486.8,303.6c0,0.3,0,0.6-0.1,0.9c0,0.3-0.1,0.6-0.2,0.9c-0.1,0.3-0.2,0.5-0.4,0.8c-0.2,0.2-0.4,0.5-0.5,0.7
	c-0.2,0.2-0.5,0.4-0.7,0.6s-0.5,0.3-0.8,0.4c-0.3,0.1-0.5,0.2-0.9,0.3c-0.3,0-0.6,0.1-0.9,0.1c-0.3,0-0.6,0-0.9-0.1
	c-0.3,0-0.6-0.1-0.9-0.2c-0.3-0.1-0.5-0.2-0.8-0.4c-0.2-0.2-0.5-0.4-0.7-0.5c-0.2-0.2-0.4-0.5-0.6-0.7c-0.2-0.2-0.3-0.5-0.4-0.8
	c-0.1-0.3-0.2-0.5-0.3-0.9c0-0.3-0.1-0.6-0.1-0.9c0-0.3,0-0.6,0.1-0.9c0-0.3,0.1-0.6,0.2-0.9c0.1-0.3,0.2-0.5,0.4-0.8
	c0.2-0.2,0.4-0.5,0.5-0.7c0.2-0.2,0.5-0.4,0.7-0.6c0.2-0.2,0.5-0.3,0.8-0.4c0.3-0.1,0.5-0.2,0.9-0.3c0.3,0,0.6-0.1,0.9-0.1
	c0.3,0,0.6,0,0.9,0.1c0.3,0,0.6,0.1,0.9,0.2c0.3,0.1,0.5,0.2,0.8,0.4c0.2,0.2,0.5,0.4,0.7,0.5c0.2,0.2,0.4,0.5,0.6,0.7
	c0.2,0.2,0.3,0.5,0.4,0.8c0.1,0.3,0.2,0.5,0.3,0.9C486.8,303,486.8,303.4,486.8,303.6z"/>
<path class="st4" d="M479,264.5h41.6v11.1H479V264.5z"/>
<path class="st6" d="M487.9,275.4h45.9v14.4h-45.9V275.4z"/>
<path class="st4" d="M506.7,251.2h-8.2l-1.7-17.9h11.5L506.7,251.2z M526.3,209h10.8c0,0,13.3,30.4,1.4,42.2h-12.8
	C525.8,251.2,513.2,244.8,526.3,209z"/>
<path class="st4" d="M135.6,223.1h-12.5c0-2.5,2-4.6,4.6-4.6h3.5C133.6,218.5,135.6,220.5,135.6,223.1z M177,182.8h63.7v40.5H177
	V182.8L177,182.8z"/>
<path class="st6" d="M213.4,204.7c-2.5,0-4.5-2-4.5-4.5c0-1.2,0.4-2.2,1.2-3c-0.4-0.1-0.8-0.1-1.2-0.1c-3.3,0-5.9,2.6-5.9,5.9
	c0,3.3,2.6,5.9,5.9,5.9c2.8,0,5.1-1.9,5.7-4.4C214.3,204.6,213.8,204.7,213.4,204.7L213.4,204.7z"/>
<path class="st7" d="M475.8,209.6c0.1,0.5,1.4,0.8,3.5,0.8c1,0,2.4-0.1,3.8-0.1c1.4-0.1,3.2-0.3,5.1-0.5c1.9-0.2,3.9-0.5,6.1-0.8
	c2.2-0.4,4.5-0.8,7-1.4c2.4-0.5,5.1-1.3,7.7-2.2c2.6-0.9,5.4-1.9,8.1-3.2c2.8-1.3,5.4-2.7,7.8-4.3c2.4-1.6,4.7-3.3,6.7-5.1
	c1-0.9,1.9-1.8,2.8-2.8c0.4-0.5,0.9-0.9,1.3-1.4c0.4-0.5,0.8-1,1.2-1.4c0.4-0.5,0.7-1,1-1.4c0.4-0.5,0.6-1,1-1.4
	c0.5-1,1.1-1.9,1.6-2.9c0.9-1.9,1.6-3.7,1.9-5.3c0.2-0.8,0.4-1.6,0.4-2.3c0.1-0.8,0.1-1.4,0.1-2c0-0.3,0-0.6-0.1-0.9
	c-0.1-0.3-0.1-0.5-0.1-0.8c-0.1-0.5-0.3-0.9-0.5-1.3c-0.4-0.8-0.9-1.2-1.5-1.4c-0.6-0.2-1.3-0.1-2.1,0.1c-0.4,0.1-0.8,0.4-1.1,0.5
	c-0.2,0.1-0.4,0.3-0.5,0.4c-0.2,0.1-0.4,0.3-0.6,0.5c-0.4,0.4-0.8,0.7-1.3,1.1c-0.5,0.4-1,0.8-1.4,1.3c-0.9,0.9-2,1.9-3.2,3.1
	c-0.5,0.5-1.2,1.1-1.8,1.7c-0.4,0.3-0.6,0.6-1,0.9c-0.4,0.4-0.6,0.6-1,1c-0.4,0.4-0.7,0.6-1,0.9c-0.4,0.4-0.8,0.6-1.1,1
	c-0.8,0.7-1.5,1.3-2.4,2c-1.7,1.4-3.4,2.8-5.2,4.2c-1.9,1.4-3.9,2.8-6.1,4.2c-2.2,1.4-4.4,2.6-6.5,3.9c-2.2,1.3-4.4,2.4-6.5,3.4
	c-2.1,1-4.1,2-6,3c-1.9,0.9-3.8,1.8-5.3,2.6c-1.7,0.8-3.2,1.5-4.5,2.2c-1.3,0.7-2.4,1.3-3.3,1.8C476.7,208.2,475.7,209,475.8,209.6
	L475.8,209.6z"/>
<path class="st8" d="M448,220.4c1.6,1.2,3.3,2.4,4.8,3.5v-0.2l24.3-11.4c1.4-0.6,1.9-2.3,1.3-3.6c-0.6-1.4-2.3-1.9-3.6-1.3
	l-26.8,12.5L448,220.4L448,220.4z M609.2,337.5c0,0-1.5,8.8-9.4,7.2l-6.7,31.3l1.3,1l28-33.5l-1.3-1.4L609.2,337.5z"/>
<path class="st8" d="M596.8,377.7l26.6-32.2c0.4-0.5,0.4-1.3-0.1-1.6l-2.1-1.7l-28,33.9l2.1,1.7
	C595.7,378.2,596.4,378.2,596.8,377.7z"/>
<path class="st2" d="M601.4,359.9c-0.1,0.1-0.2,0.1-0.4,0.1c-2.9-0.1-4.8,0.5-4.8,0.5c-0.4,0.1-0.8-0.1-0.9-0.5
	c-0.1-0.4,0.1-0.8,0.5-0.9c0.1,0,2.2-0.7,5.3-0.5c0.4,0,0.7,0.4,0.6,0.8C601.8,359.6,601.6,359.8,601.4,359.9z M602.3,356
	c-0.1,0.1-0.2,0.1-0.4,0.1c-2.9-0.1-4.8,0.5-4.8,0.5c-0.4,0.1-0.8-0.1-0.9-0.5c-0.1-0.4,0.1-0.8,0.5-0.9c0.1,0,2.2-0.7,5.3-0.5
	c0.4,0,0.7,0.4,0.6,0.8C602.6,355.6,602.5,355.8,602.3,356z M603.2,352.1c-0.1,0.1-0.2,0.1-0.4,0.1c-2.9-0.1-4.8,0.5-4.8,0.5
	c-0.4,0.1-0.8-0.1-0.9-0.5c-0.1-0.4,0.1-0.8,0.5-0.9c0.1,0,2.2-0.7,5.3-0.5c0.4,0,0.7,0.4,0.6,0.8
	C603.6,351.7,603.4,352,603.2,352.1z"/>
<path class="st8" d="M519.4,362.7c0,0-7.6,4.7-11.6-2.4l-28,15.5v1.2l44-0.7v-1.6L519.4,362.7z"/>
<path class="st8" d="M481.3,379.7l41.1-1c0.8,0,1.4-0.7,1.4-1.4l-0.1-2.4l-44,1.1l0.1,2.4C479.9,379.1,480.5,379.7,481.3,379.7z"/>
<path class="st2" d="M531.1,182.7c-1.4,12.5-1.6,25-1.4,37.5c11.7,4.5,24.5,5.7,37,4.4c1.3-12.7,2.6-25.3,3.1-38
	c0.3-6.7,0.4-13.5-1.3-20c-1.4-5.8-4.4-11.4-9.1-14.9c-0.5-0.4-1.1-0.8-1.7-1.2c-2.9,2.2-8.9,2.9-12,1.2c-1.8,1.1-3.4,2.4-4.8,3.9
	c-2.6,2.8-4.6,6.2-6,9.7C532.7,170.9,531.8,176.8,531.1,182.7z M497.4,371.4c-0.1-0.1-0.2-0.1-0.3-0.2c-1.7-2.2-3.5-3.3-3.5-3.3
	c-0.4-0.2-0.4-0.6-0.2-1c0.2-0.3,0.7-0.4,1-0.2c0.1,0.1,1.9,1.2,3.9,3.6c0.3,0.3,0.2,0.8-0.1,1C498,371.5,497.7,371.6,497.4,371.4z
	 M501,369.6c-0.1-0.1-0.2-0.1-0.3-0.2c-1.7-2.2-3.5-3.3-3.5-3.3c-0.4-0.2-0.4-0.6-0.2-1c0.2-0.4,0.7-0.4,1-0.2
	c0.1,0.1,1.9,1.2,3.9,3.6c0.3,0.3,0.2,0.8-0.1,1C501.5,369.6,501.2,369.7,501,369.6z M504.5,367.7c-0.1-0.1-0.2-0.1-0.3-0.2
	c-1.7-2.2-3.5-3.3-3.5-3.3c-0.4-0.2-0.4-0.6-0.2-1c0.2-0.4,0.7-0.4,1-0.2c0.1,0.1,1.9,1.2,3.9,3.6c0.3,0.3,0.2,0.8-0.1,1
	C505,367.8,504.8,367.9,504.5,367.7z"/>
<path class="st9" d="M541,155.2c3.1,1,6.5,1.1,9.7,0.4c1.7-0.4,3.4-0.9,5-1.7c1.3-0.6,2.4-1.4,3.5-2.2c0.1-0.3,0.1-0.5,0.1-0.8
	c0-0.1,0-0.2,0.1-0.3c-0.1-0.4-0.1-0.7-0.1-1c-0.5-3.6-0.9-7.2-1.3-10.9c-0.4-3.3-0.7-6.7-1-10.1c-3.8,1.7-7.3,3.8-11,6.2
	c-0.1,2.2-0.4,4.5-0.6,6.7c-0.2,1.9-0.5,3.8-0.9,5.6l-0.6,3.1c-0.2,1-0.4,1.9-0.7,2.9C542.4,153.8,541.7,154.6,541,155.2L541,155.2z
	"/>
<path class="st10" d="M544.5,147.2c3.9-1,8.5-2,13.4-8.5c-0.4-3.3-0.7-6.7-1-10c-3.8,1.7-7.3,3.8-11,6.2c-0.1,2.2-0.4,4.5-0.6,6.7
	C545.1,143.4,544.9,145.3,544.5,147.2z"/>
<path class="st11" d="M545.4,107.7c0.8-2.4,2.7-4.4,5.1-5.3c2.4-0.9,5.1-0.9,7.5-0.3c2.5,0.7,4.8,2.2,6.5,4.2c1.7,2,2.7,4.7,2.6,7.2
	c-0.1,4.2-2.5,7.8-4.8,11.3C558.3,118.1,552.1,111.8,545.4,107.7L545.4,107.7z"/>
<path class="st12" d="M543,102.9c-1.2-0.7-2.4-1.4-3.8-1.3c-1.9,0.2-3.2,2.2-3.1,4.2c0.1,1.9,1.2,3.7,2.5,5
	c2.6,2.8,6.3,4.5,10.1,4.8c2.2,0.1,4.5-0.1,6.6-0.9c0.8-0.3,2.6-0.8,3-1.5c0.6-1.2-0.6-1.4-1.6-2C552.1,108.4,547.5,105.6,543,102.9
	L543,102.9z"/>
<path class="st13" d="M541.6,118c-1.3,2.8-0.8,6.2,1,8.7c1.4-1.9,2.5-4.4,2.9-6.8c0.1-0.6,0.2-1.4-0.3-1.9c-0.4-0.5-1.1-0.5-1.8-0.5
	C542.9,117.5,542.2,118.1,541.6,118L541.6,118z M556.5,136.6c3.5-2.9,5.8-7.2,6.4-11.8c0.4-2.7,0-5.6-0.9-8.1l-0.8-1.4
	c-0.6-1-1.4-1.9-2.2-2.6c-1.7,2.4-3,5.2-3.8,8.1C553.9,126,554.3,131.7,556.5,136.6z"/>
<path class="st9" d="M543.7,116.9c0.5,3.4-1.1,6.5-2.6,9.6c-1.4,3-2.7,6.5-1.6,9.6c1.2,3.3,4.8,5.3,8.3,4.9c3.5-0.4,6.5-2.7,8.2-5.7
	c1.7-3,2.3-6.6,2.2-10.1c-0.1-3.5-1-6.9-1.8-10.3C552.3,112.6,547.4,114,543.7,116.9z"/>
<path class="st9" d="M557.3,126.2c0.4-0.4,0.9-0.8,1.5-1.1c0.5-0.3,1.2-0.4,1.8-0.1c0.8,0.3,1.3,1,1.5,1.8c0.4,1.5-0.2,3.2-1.4,4.1
	c-1.3,0.9-3,1-4.3,0.2C556.9,129.4,557.1,127.9,557.3,126.2L557.3,126.2z"/>
<path class="st13" d="M541.2,119.3c4.9,0.4,10-0.7,14.2-3c-0.4,1.4-0.4,3-0.1,4.4c0.5,2,1.7,3.9,3.4,5.3c1.9-2.7,3.2-6.4,2.8-9.7
	c-0.1-0.4-0.1-0.8-0.2-1.2c-0.6-1-1.4-1.9-2.2-2.6c-1.3-1.3-2.8-2.3-4.4-3c-4.3-1.9-9.6-1.5-13.7,0.8c-0.4,0.3-0.7,0.5-1,0.9
	c-0.8,0.8-1.4,1.7-1.9,2.8C536.8,116.4,538.5,119.2,541.2,119.3z"/>
<path class="st12" d="M567.3,235.2c0,0-12.2,58.2,45.7,102.3l-16.7,16.8c0,0-64.8-48.2-55.7-106.8L567.3,235.2L567.3,235.2z"/>
<path class="st14" d="M568.3,268.9c-4.5,12.2-10.3,24.1-15.2,36.3c-9.4-16.7-15.8-36.4-12.5-57.6l26.8-12.4
	C567.3,235.2,564.4,249.4,568.3,268.9z"/>
<path class="st11" d="M531.3,172.2c-3.1,17.9-4.7,44.3-3.3,62.5c0,0-35.2,62.9-30.5,127.5l24.7,7.2c0,0,9-84.4,44.4-125.9l3.1-42.3
	l-26.7-5.4l-1.4-22.8L531.3,172.2L531.3,172.2z"/>
<path class="st12" d="M567.9,205.7c0.2,0.1,0.5-0.2,0.8-0.8c0.1-0.3,0.4-0.6,0.5-1c0.2-0.4,0.4-0.9,0.5-1.4c0.1-0.3,0.2-0.5,0.3-0.9
	c0.1-0.4,0.2-0.6,0.3-0.9c0.1-0.4,0.2-0.7,0.3-1.1c0.1-0.4,0.1-0.8,0.3-1.2c0.1-0.4,0.1-0.8,0.3-1.3c0.1-0.4,0.1-0.9,0.2-1.4
	c0.1-1,0.3-1.9,0.4-3c0.2-2.1,0.4-4.4,0.4-6.9c0-2.5-0.1-5.1-0.5-8c-0.4-2.8-0.8-5.7-1.5-8.7c-0.7-3-1.7-6.2-3.5-9.2
	c-0.9-1.5-2-2.9-3.4-4.1c-1.3-1.2-2.8-2.2-4.4-2.9c-0.8-0.4-1.7-0.6-2.6-0.7c-0.2-0.1-0.4-0.1-0.6-0.1c-0.2,0-0.4,0-0.6-0.1h-1.3
	c-1.7,0.1-3.4,0.5-4.7,1.1c-1.4,0.6-2.7,1.4-3.8,2.4c-0.3,0.2-0.5,0.5-0.8,0.7c-0.3,0.3-0.5,0.5-0.8,0.7c-0.2,0.3-0.5,0.5-0.7,0.8
	c-0.2,0.3-0.4,0.5-0.6,0.8c-0.8,1-1.5,2.2-2,3.3c-0.5,1.1-1,2.2-1.3,3.2c-0.7,2.1-1,3.9-1.3,5.6c-0.2,1.7-0.3,3.1-0.4,4.3
	c-0.1,2.4,0.1,3.6,0.4,3.7c0.3,0,0.5-1.3,1-3.5c0.3-1.1,0.5-2.5,1-4c0.4-1.5,1-3.3,1.7-5.1c0.8-1.8,1.9-3.7,3.4-5.2
	c0.2-0.2,0.4-0.4,0.5-0.6c0.2-0.2,0.4-0.4,0.6-0.5c0.2-0.2,0.4-0.4,0.6-0.5c0.2-0.2,0.5-0.4,0.7-0.5c1-0.6,1.9-1.3,3-1.6
	c1.1-0.4,2.2-0.6,3.4-0.6h0.4c0.1,0,0.3,0,0.4,0.1l0.4,0.1l0.4,0.1c0.5,0.1,1.1,0.3,1.7,0.5c2.2,0.9,4.1,3,5.4,5.3
	c1.4,2.4,2.2,5.2,2.9,8c0.6,2.8,1.2,5.6,1.5,8.1c0.4,2.6,0.6,5.1,0.8,7.5c0.1,2.4,0.2,4.6,0.2,6.6c0,1,0,1.9-0.1,2.9v1.3
	c0,0.4,0,0.8-0.1,1.3c0,0.4,0,0.8-0.1,1.2c0,0.4,0,0.8-0.1,1.1v0.9c0,0.4,0,0.6-0.1,0.9v1.5c0,0.4,0,0.8,0.1,1.1
	C567.6,205.3,567.7,205.6,567.9,205.7L567.9,205.7z"/>
<path class="st9" d="M222.1,205.8c0.3,1.6,0.5,3.1,0.7,4.7c0.2,1.6,0.5,3.2,0.6,4.8c0.1,0.8,0.2,1.6,0.3,2.4
	c0.1,0.8,0.1,1.6,0.3,2.5c0.3,3.3,0.6,6.6,0.8,9.9c0.1,3.4,0.3,6.7,0.3,9.9c0,0.8,0,1.6,0.1,2.5l-0.1,2.4c0,1.6-0.1,3.2-0.1,4.8
	c0,1.6-0.1,3.2-0.1,4.7c-0.1,1.5-0.2,3.1-0.3,4.6s-0.2,3.1-0.3,4.5c-0.1,1.5-0.2,2.9-0.4,4.4c-0.3,2.9-0.7,5.7-1.1,8.4
	c-0.1,0.6-0.2,1.4-0.3,2c0,0.7-0.2,1.4-0.3,2c-0.2,1.3-0.5,2.6-0.6,3.9c-0.2,1.3-0.5,2.5-0.6,3.8c-0.1,0.6-0.3,1.3-0.3,2
	c2.3,4.2,2.9,9.1,1.7,13.7c-1.5,5.5-5.8,9.8-10.9,11.1c-1.7,0.5-3.8,0.5-5.1-0.8c-1.5-1.4-1.5-3.9-1.1-5.9c0.5-2,1.3-4,1.2-6.1
	c-0.1-2.1-1.7-4.4-3.7-4c-1.2,0.2-2.5,1.2-3.4,0.3c-0.5-0.5-0.5-1.3-0.2-2c0.3-0.6,0.8-1.1,1.4-1.5l7.2-5.6
	c-0.1-37.8-10.7-89.6-13.4-102.4c-0.4-1.9-0.6-2.9-0.6-2.9c7.6-1.1,14.6-4.2,20.4-9.1c0.2,0.6,0.5,1.2,0.6,1.8l1.3,3.8
	c0.2,0.6,0.5,1.3,0.6,2l0.6,2c0.8,2.7,1.5,5.4,2.2,8.3c0.4,1.4,0.6,2.8,1,4.3c0.1,0.4,0.1,0.8,0.3,1.2c0.2,1.1,0.5,2.2,0.6,3.3
	C221.6,202.8,221.9,204.3,222.1,205.8L222.1,205.8z"/>
<path class="st8" d="M141.2,280.1c0.1,0.3,0.1,0.5,0.1,0.7c0.1,2,0.3,4.1,0.5,6.4c0.1,0.5,0.1,1.1,0.1,1.6c0.3,5.3,0.6,11.3,0.8,18
	c0.1,1.6,0.1,3.3,0.1,4.9c0.2,7.8,0.3,16.5,0.2,26.2c-0.1,6.7-0.2,13.8-0.4,21.5c-0.1,4.4-0.3,16.7-0.5,29h36
	c0.5-12.5,1-25.3,1.4-30.4c1-11.3,2-23.4,2.8-36.3c1.8,10.8,3.6,23.1,5.1,36.4c0.6,4.7,1.1,17.6,1.5,30.3h32.6
	c-0.1-11.8-0.3-23.6-0.6-28.1c-0.3-7.8-0.8-15.8-1.5-23.9c-0.6-7.6-1.3-15.3-2.2-23.1c-0.1-1.2-0.3-2.4-0.4-3.6
	c-0.4-3.4-0.8-6.8-1.2-10.3c-0.3-3-0.7-6-1.2-9c-0.6-4.6-1.3-9.3-2.1-14.1c-0.3-2.2-0.6-4.3-1.1-6.5c-0.1-0.3-0.1-0.5-0.1-0.8
	l-0.6-3.4l-28.2-0.7l-43.3-0.9c0.5,3,0.9,7.1,1.4,12.4C141,277.8,141.1,278.9,141.2,280.1L141.2,280.1z"/>
<path class="st15" d="M188.9,388.5h11.3c-2.2-34.2-5.6-69.8-5.6-69.8l-12.2,3.1c1.8,10.5,3.5,22.3,5,35.3L188.9,388.5L188.9,388.5z"
	/>
<path class="st16" d="M156.3,113.2c1.5,5.6,3.1,11.3,4.5,17c1.1,3.9,2.3,8.2,5.6,10.7c3.1,2.3,7.3,2.4,10.5,0.5
	c-4.6-4.2-8.1-9.6-10-15.6c-0.9-2.8-1.5-5.8-3-8.4C162.5,114.7,159.2,112.9,156.3,113.2L156.3,113.2z"/>
<path class="st8" d="M212.1,263.2c1.2,7.5,2.6,15.2,4.2,23.1c-6,0.7-12,1.3-18,1.7c-19.7,1.2-39.5,0.4-59-2.4
	c-0.1-3-0.2-6.5-0.3-10.3c-0.3-7.8-0.6-17-1.1-26.4c-0.3-7-0.7-14.2-1.2-21c-0.7-10.3-1.5-19.7-2.5-26.7c-1.6-11.3-3-24.2,4.3-32.9
	c4.2-5,10.5-7.7,16.6-10.1l7-2.8c0.1-0.1,0.1-0.1,0.2-0.1c4.2-1.7,8.3-3.3,12.4-5c4.8,2.4,10.1,4.9,15.5,7.3
	c1.2,0.5,2.3,1.1,3.6,1.6h0.1c1.1,0.1,41.4-5.7,30.1,129.2c-5.6-1-11.3-1.4-16.9-1.2c0.4,14.5,0.6-56.5,3.3-35.7
	c0.2,1.3,0.3,2.6,0.5,3.9C211.3,258,211.7,260.6,212.1,263.2L212.1,263.2z"/>
<path class="st9" d="M167.6,145.7c-0.2,4.6-1.3,9.2-3.3,13.3c8.3,2.1,16.9,2.4,25.3,0.8c-1.4-4.4-2.2-8.8-2.2-13.4v-2.5
	c0.1-2,0.3-3.8,0.6-5.8c-4.4-7.6-14.9-11.6-24.7-11.3c3.1,5.7,4.5,12.2,4.3,18.7C167.7,145.6,167.6,145.6,167.6,145.7L167.6,145.7z"
	/>
<path class="st16" d="M191.2,100.4c2,5.6,1.5,11.9-1.5,17.1c-0.6-4.2-1.3-8.2-2-12.2c-0.3-1.9-0.5-4.2,0.9-5.5
	c0.4-0.5,1.1-0.6,1.6-0.5C190.9,99.4,191.6,99.9,191.2,100.4L191.2,100.4z"/>
<path class="st10" d="M167.4,139.6c0.3,2,0.3,4,0.3,5.9v0.2c1.8-0.6,3.7-0.9,5.6-0.9c2.8,0.1,5.5,0.8,8.2,1.4c2,0.4,3.9,0.5,6,0.3
	v-2.5c0.1-2,0.3-3.8,0.6-5.8c-4.4-7.6-15-11.6-24.7-11.3C165.5,130.8,166.8,135.1,167.4,139.6L167.4,139.6z"/>
<path class="st9" d="M189.6,98.6c-1.4,8.2,0,16.6,3.8,24c2.2,4.2,5.2,8.3,4.8,12.9c-0.6,6.1-7.4,10.3-13.5,9.5
	c-6.1-0.8-11.2-5.1-14.8-10.1c-3.3-4.6-5.6-9.8-6.8-15.3c-1.2-5.5-1.3-11.2-0.3-16.8C171.2,98.7,180.5,97.3,189.6,98.6L189.6,98.6z"
	/>
<path class="st16" d="M164.4,123.5c2.3-5.6,2.8-11.8,1.7-17.8c5.8,2.3,12.4,2.2,18-0.4c3.2-1.5,6-3.8,8.2-6.6
	c2.1-2.7,1.6-6.7-1.2-8.8c-0.5-0.4-1.1-0.7-1.6-0.9c-4.7-1.7-9.6-2.7-14.6-3c-3.1-0.1-6.4,0.1-9,1.6c-3.6,2.2-5.4,6.5-4.4,10.6
	c-2.5-0.6-5.2,1.4-6.3,3.8c-1.1,2.4-0.8,5.2-0.2,7.8C156.3,115.7,159.6,120,164.4,123.5L164.4,123.5z"/>
<path class="st9" d="M164.9,123.1c0-1.2-0.9-2.3-2.2-2.5c-1.2-0.1-2.4,0.5-3.1,1.5c-0.6,1.1-0.9,2.3-0.6,3.5
	c0.3,1.2,0.8,2.3,1.5,3.3c1,1.6,2.4,2.7,4.1,3.3c1.7,0.5,3.8,0.1,4.8-1.4C167.3,128.5,164.6,126.2,164.9,123.1L164.9,123.1z"/>
<path class="st4" d="M165.8,160.4h21l-6.6,57.5L165.8,160.4z"/>
<path class="st2" d="M182.4,160.7l6.4-2.1l-0.5-5.7l8.8,6.6L185,176.8L182.4,160.7L182.4,160.7z M173.5,160.6l-6.8-4.5l0.5-5.7
	l-8.9,6.6l11.8,20.4L173.5,160.6"/>
<path class="st11" d="M172.4,166.1h10.8l1.2,7.2c0.4,2.2-0.5,4.2-2.2,5.6l-3.6,2.7l-4.6-2.3c-2.3-1.2-3.6-3.8-3.1-6.3L172.4,166.1z"
	/>
<path class="st15" d="M213.8,287.2L205,181l5.4,18.2L213.8,287.2z"/>
<path class="st17" d="M211.5,256.2h-17.4c-0.9,0-1.6-0.7-1.6-1.6v-26.4c0-1.8,1.5-3.3,3.3-3.3h13.8c1.8,0,3.3,1.5,3.3,3.3v26.4
	C213,255.5,212.3,256.2,211.5,256.2z"/>
<path class="st12" d="M174.1,179.3l-0.4,12.2l6.5,26.4l3.3-28.8l-1.4-10.1h-8.4"/>
<path class="st15" d="M179.9,226.7c0,0.1,0,0.2,0,0.3c0,0.1,0,0.2-0.1,0.3c0,0.1-0.1,0.2-0.2,0.3c-0.1,0.1-0.1,0.2-0.2,0.3
	c-0.1,0.1-0.2,0.2-0.3,0.2c-0.1,0.1-0.2,0.1-0.3,0.2c-0.1,0-0.2,0.1-0.3,0.1c-0.1,0-0.2,0-0.3,0c-0.1,0-0.2,0-0.3,0
	c-0.1,0-0.2,0-0.3-0.1c-0.1,0-0.2-0.1-0.3-0.2c-0.1-0.1-0.2-0.1-0.3-0.2c-0.1-0.1-0.2-0.2-0.2-0.3c-0.1-0.1-0.1-0.2-0.2-0.3
	c0-0.1-0.1-0.2-0.1-0.3c0-0.1,0-0.2,0-0.3c0-0.1,0-0.2,0-0.3c0-0.1,0-0.2,0.1-0.3c0-0.1,0.1-0.2,0.2-0.3c0.1-0.1,0.1-0.2,0.2-0.3
	c0.1-0.1,0.2-0.2,0.3-0.2c0.1-0.1,0.2-0.1,0.3-0.2c0.1,0,0.2-0.1,0.3-0.1c0.1,0,0.2,0,0.3,0c0.1,0,0.2,0,0.3,0c0.1,0,0.2,0,0.3,0.1
	c0.1,0,0.2,0.1,0.3,0.2c0.1,0.1,0.2,0.1,0.3,0.2c0.1,0.1,0.2,0.2,0.2,0.3c0.1,0.1,0.1,0.2,0.2,0.3c0,0.1,0.1,0.2,0.1,0.3
	C179.9,226.4,179.9,226.6,179.9,226.7z M179.9,256.9c0,0.1,0,0.2,0,0.3c0,0.1,0,0.2-0.1,0.3c0,0.1-0.1,0.2-0.2,0.3
	c-0.1,0.1-0.1,0.2-0.2,0.3c-0.1,0.1-0.2,0.2-0.3,0.2c-0.1,0.1-0.2,0.1-0.3,0.2c-0.1,0-0.2,0.1-0.3,0.1s-0.2,0-0.3,0
	c-0.1,0-0.2,0-0.3,0c-0.1,0-0.2,0-0.3-0.1c-0.1,0-0.2-0.1-0.3-0.2c-0.1-0.1-0.2-0.1-0.3-0.2c-0.1-0.1-0.2-0.2-0.2-0.3
	c-0.1-0.1-0.1-0.2-0.2-0.3c0-0.1-0.1-0.2-0.1-0.3c0-0.1,0-0.2,0-0.3c0-0.1,0-0.2,0-0.3c0-0.1,0-0.2,0.1-0.3c0-0.1,0.1-0.2,0.2-0.3
	c0.1-0.1,0.1-0.2,0.2-0.3c0.1-0.1,0.2-0.2,0.3-0.2c0.1-0.1,0.2-0.1,0.3-0.2c0.1,0,0.2-0.1,0.3-0.1c0.1,0,0.2,0,0.3,0
	c0.1,0,0.2,0,0.3,0c0.1,0,0.2,0,0.3,0.1c0.1,0,0.2,0.1,0.3,0.2c0.1,0.1,0.2,0.1,0.3,0.2c0.1,0.1,0.2,0.2,0.2,0.3
	c0.1,0.1,0.1,0.2,0.2,0.3c0,0.1,0.1,0.2,0.1,0.3C179.9,256.7,179.9,256.8,179.9,256.9z M180.4,271.7c0,0.1,0,0.2,0,0.3
	c0,0.1,0,0.2-0.1,0.3c0,0.1-0.1,0.2-0.2,0.3c-0.1,0.1-0.1,0.2-0.2,0.3c-0.1,0.1-0.2,0.2-0.3,0.2c-0.1,0.1-0.2,0.1-0.3,0.2
	c-0.1,0-0.2,0.1-0.3,0.1c-0.1,0-0.2,0-0.3,0c-0.1,0-0.2,0-0.3,0c-0.1,0-0.2,0-0.3-0.1c-0.1,0-0.2-0.1-0.3-0.2
	c-0.1-0.1-0.2-0.1-0.3-0.2c-0.1-0.1-0.2-0.2-0.2-0.3c-0.1-0.1-0.1-0.2-0.2-0.3c0-0.1-0.1-0.2-0.1-0.3c0-0.1,0-0.2,0-0.3
	c0-0.1,0-0.2,0-0.3c0-0.1,0-0.2,0.1-0.3c0-0.1,0.1-0.2,0.2-0.3c0.1-0.1,0.1-0.2,0.2-0.3c0.1-0.1,0.2-0.2,0.3-0.2
	c0.1-0.1,0.2-0.1,0.3-0.2c0.1,0,0.2-0.1,0.3-0.1c0.1,0,0.2,0,0.3,0c0.1,0,0.2,0,0.3,0c0.1,0,0.2,0,0.3,0.1c0.1,0,0.2,0.1,0.3,0.2
	c0.1,0.1,0.2,0.1,0.3,0.2c0.1,0.1,0.2,0.2,0.2,0.3c0.1,0.1,0.1,0.2,0.2,0.3c0,0.1,0.1,0.2,0.1,0.3
	C180.4,271.5,180.4,271.6,180.4,271.7z M158,304.6l57.9-5.9l0.3,2.2L158,304.6z"/>
<path class="st9" d="M130.1,250.8c0.8,0.1,1.6,0.2,2.4,0.3l2.4,0.1l4.8,0.3l4.7,0.3l4.6,0.1l4.5,0.1c1.5,0,3,0.1,4.4,0l8.5-0.3
	l2-0.1c0.6,0,1.4-0.1,2-0.1l3.9-0.3l3.8-0.3l2-0.2c3.9,2.7,8.8,3.7,13.5,2.8c5.5-1.1,10.2-5,12-10c0.6-1.7,0.8-3.7-0.4-5.1
	c-1.3-1.6-3.8-1.8-5.9-1.6c-2.1,0.3-4.1,1-6.2,0.6c-2.1-0.3-4.2-2.1-3.8-4c0.3-1.2,1.4-2.3,0.6-3.3c-0.5-0.5-1.2-0.6-1.9-0.4
	c-0.6,0.3-1.2,0.7-1.6,1.2l-6.2,6.6"/>
<path class="st9" d="M157.8,235.8l23.3,1.7l-22.9,6.8L157.8,235.8z"/>
<path class="st0" d="M214.3,287.3l9.7,1.1l-1.1,2.6l-8.1-0.6L214.3,287.3z"/>
<path class="st18" d="M209.7,228.9h-13.9c-0.8,0-1.5-0.6-1.5-1.5v-0.1c0-0.8,0.6-1.5,1.5-1.5h13.9c0.8,0,1.5,0.6,1.5,1.5v0.1
	C211.2,228.2,210.6,228.9,209.7,228.9z"/>
<path class="st8" d="M138.6,168.3c0,0-54.6,54.5-30.4,73.2c24.2,18.6,64.6,11.5,64.6,11.5l0.8-18c0,0-42.5-4.4-43.5-14.2
	c-0.5-4.9,13.8-15.5,13.8-15.5L138.6,168.3L138.6,168.3z"/>
<path class="st0" d="M173.7,234.9h3.2l-0.1,18h-4L173.7,234.9z"/>
<path class="st15" d="M138.5,253.1c0,0,19.3,4.9,34.4-0.2c0,0-16.4,9.1-34.4,2.3"/>
<path class="st17" d="M192.7,230.2l-2.2,0.9l-0.8,2.5v0.8l3.1-1.3V230.2z"/>
<path class="st8" d="M454.8,359.9L481,223.7l24.3-11.4c1.4-0.6,1.9-2.3,1.3-3.6c-0.6-1.4-2.3-1.9-3.6-1.3l-26.8,12.5l-0.3,1.4
	l-25.4,131.9l-114.8-29c-1.4-0.4-2.9,0.5-3.4,1.9c-0.4,1.4,0.5,2.9,1.9,3.3L454.8,359.9L454.8,359.9z"/>
<path class="st8" d="M458.4,311.2l5.5-2l17.1,46.4l-5.5,2L458.4,311.2z"/>
<path class="st8" d="M414,289.5l1.4-5.7l48.1,11.5l-1.4,5.7L414,289.5z"/>
<path class="st8" d="M483.5,362.7c0,0.5,0,1-0.1,1.5c0,0.5-0.1,1-0.2,1.5c-0.1,0.5-0.2,1-0.4,1.5c-0.1,0.5-0.3,1-0.5,1.4
	c-0.2,0.5-0.4,0.9-0.6,1.4c-0.2,0.5-0.5,0.9-0.8,1.3c-0.3,0.4-0.6,0.8-0.9,1.2c-0.3,0.4-0.7,0.8-1,1.1c-0.4,0.4-0.7,0.7-1.1,1
	c-0.4,0.3-0.8,0.6-1.2,0.9c-0.4,0.3-0.9,0.5-1.3,0.8c-0.5,0.2-0.9,0.5-1.4,0.6c-0.5,0.2-1,0.4-1.4,0.5c-0.5,0.1-1,0.3-1.5,0.4
	c-0.5,0.1-1,0.2-1.5,0.2c-0.5,0-1,0.1-1.5,0.1c-0.5,0-1,0-1.5-0.1c-0.5,0-1-0.1-1.5-0.2c-0.5-0.1-1-0.2-1.5-0.4
	c-0.5-0.1-1-0.3-1.4-0.5c-0.5-0.2-0.9-0.4-1.4-0.6c-0.5-0.2-0.9-0.5-1.3-0.8c-0.4-0.3-0.8-0.6-1.2-0.9c-0.4-0.3-0.8-0.7-1.1-1
	s-0.7-0.7-1-1.1c-0.3-0.4-0.6-0.8-0.9-1.2c-0.3-0.4-0.5-0.9-0.8-1.3c-0.2-0.5-0.5-0.9-0.6-1.4c-0.2-0.5-0.4-1-0.5-1.4
	c-0.1-0.5-0.3-1-0.4-1.5c-0.1-0.5-0.2-1-0.2-1.5c0-0.5-0.1-1-0.1-1.5c0-0.5,0-1,0.1-1.5c0-0.5,0.1-1,0.2-1.5c0.1-0.5,0.2-1,0.4-1.5
	c0.1-0.5,0.3-1,0.5-1.4c0.2-0.5,0.4-0.9,0.6-1.4c0.2-0.5,0.5-0.9,0.8-1.3c0.3-0.4,0.6-0.8,0.9-1.2c0.3-0.4,0.7-0.8,1-1.1
	s0.7-0.7,1.1-1c0.4-0.3,0.8-0.6,1.2-0.9c0.4-0.3,0.9-0.5,1.3-0.8c0.5-0.2,0.9-0.5,1.4-0.6c0.5-0.2,1-0.4,1.4-0.5
	c0.5-0.1,1-0.3,1.5-0.4c0.5-0.1,1-0.2,1.5-0.2c0.5,0,1-0.1,1.5-0.1c0.5,0,1,0,1.5,0.1c0.5,0,1,0.1,1.5,0.2c0.5,0.1,1,0.2,1.5,0.4
	c0.5,0.1,1,0.3,1.4,0.5c0.5,0.2,0.9,0.4,1.4,0.6c0.5,0.2,0.9,0.5,1.3,0.8c0.4,0.3,0.8,0.6,1.2,0.9c0.4,0.3,0.8,0.7,1.1,1
	c0.4,0.4,0.7,0.7,1,1.1c0.3,0.4,0.6,0.8,0.9,1.2c0.3,0.4,0.5,0.9,0.8,1.3c0.2,0.5,0.5,0.9,0.6,1.4c0.2,0.5,0.4,1,0.5,1.4
	c0.1,0.5,0.3,1,0.4,1.5c0.1,0.5,0.2,1,0.2,1.5C483.5,361.6,483.5,362.1,483.5,362.7z"/>
<path class="st11" d="M477.8,362.7c0,0.3,0,0.6,0,1l-0.1,1c0,0.3-0.1,0.6-0.2,1c-0.1,0.3-0.2,0.6-0.3,0.9c-0.1,0.3-0.3,0.6-0.4,0.9
	c-0.1,0.3-0.3,0.5-0.5,0.8c-0.2,0.3-0.4,0.5-0.6,0.8c-0.2,0.2-0.4,0.5-0.6,0.7c-0.2,0.2-0.5,0.5-0.7,0.6c-0.2,0.2-0.5,0.4-0.8,0.6
	c-0.3,0.2-0.5,0.4-0.8,0.5c-0.3,0.1-0.6,0.3-0.9,0.4c-0.3,0.1-0.6,0.2-0.9,0.3c-0.3,0.1-0.6,0.2-1,0.2l-1,0.1c-0.3,0-0.6,0-1,0
	c-0.3,0-0.6,0-1,0l-0.9-0.1c-0.3,0-0.6-0.1-1-0.2c-0.3-0.1-0.6-0.2-0.9-0.3c-0.3-0.1-0.6-0.3-0.9-0.4c-0.3-0.1-0.5-0.3-0.8-0.5
	c-0.3-0.2-0.5-0.4-0.8-0.6c-0.2-0.2-0.5-0.4-0.7-0.6c-0.2-0.2-0.5-0.5-0.6-0.7c-0.2-0.2-0.4-0.5-0.6-0.8c-0.2-0.3-0.4-0.5-0.5-0.8
	c-0.1-0.3-0.3-0.6-0.4-0.9c-0.1-0.3-0.2-0.6-0.3-0.9c-0.1-0.3-0.2-0.6-0.2-1l-0.1-1c0-0.3,0-0.6,0-1c0-0.3,0-0.6,0-1l0.1-1
	c0-0.3,0.1-0.6,0.2-1c0.1-0.3,0.2-0.6,0.3-0.9c0.1-0.3,0.3-0.6,0.4-0.9c0.1-0.3,0.3-0.5,0.5-0.8c0.2-0.3,0.4-0.5,0.6-0.8
	c0.2-0.2,0.4-0.5,0.6-0.7c0.2-0.2,0.5-0.5,0.7-0.6c0.2-0.2,0.5-0.4,0.8-0.6c0.3-0.2,0.5-0.4,0.8-0.5c0.3-0.1,0.6-0.3,0.9-0.4
	c0.3-0.1,0.6-0.2,0.9-0.3c0.3-0.1,0.6-0.2,1-0.2l0.9-0.1c0.3,0,0.6,0,1,0c0.3,0,0.6,0,1,0l1,0.1c0.3,0,0.6,0.1,1,0.2
	c0.3,0.1,0.6,0.2,0.9,0.3c0.3,0.1,0.6,0.3,0.9,0.4s0.5,0.3,0.8,0.5c0.3,0.2,0.5,0.4,0.8,0.6c0.2,0.2,0.5,0.4,0.7,0.6
	c0.2,0.2,0.5,0.5,0.6,0.7c0.2,0.2,0.4,0.5,0.6,0.8c0.2,0.3,0.4,0.5,0.5,0.8c0.1,0.3,0.3,0.6,0.4,0.9c0.1,0.3,0.2,0.6,0.3,0.9
	c0.1,0.3,0.2,0.6,0.2,1l0.1,1C477.8,362,477.8,362.3,477.8,362.7z"/>
<path class="st19" d="M472.8,362.7c0,0.3,0,0.6-0.1,0.9c0,0.3-0.1,0.6-0.3,0.9c-0.1,0.3-0.3,0.5-0.5,0.8c-0.2,0.3-0.4,0.5-0.6,0.7
	c-0.2,0.2-0.5,0.4-0.7,0.6c-0.3,0.2-0.5,0.3-0.8,0.5c-0.3,0.1-0.6,0.2-0.9,0.3c-0.3,0-0.6,0.1-0.9,0.1c-0.3,0-0.6,0-0.9-0.1
	c-0.3,0-0.6-0.1-0.9-0.3c-0.3-0.1-0.5-0.3-0.8-0.5s-0.5-0.4-0.7-0.6c-0.2-0.2-0.4-0.5-0.6-0.7c-0.2-0.3-0.3-0.5-0.5-0.8
	c-0.1-0.3-0.2-0.6-0.3-0.9c0-0.3-0.1-0.6-0.1-0.9c0-0.3,0-0.6,0.1-0.9c0-0.3,0.1-0.6,0.3-0.9c0.1-0.3,0.3-0.5,0.5-0.8
	c0.2-0.3,0.4-0.5,0.6-0.7c0.2-0.2,0.5-0.4,0.7-0.6s0.5-0.3,0.8-0.5c0.3-0.1,0.6-0.2,0.9-0.3c0.3,0,0.6-0.1,0.9-0.1
	c0.3,0,0.6,0,0.9,0.1c0.3,0,0.6,0.1,0.9,0.3c0.3,0.1,0.5,0.3,0.8,0.5c0.3,0.2,0.5,0.4,0.7,0.6c0.2,0.2,0.4,0.5,0.6,0.7
	c0.2,0.3,0.3,0.5,0.5,0.8c0.1,0.3,0.2,0.6,0.3,0.9C472.8,362,472.8,362.3,472.8,362.7z"/>
<path class="st9" d="M490.7,211.4c0.3,0.3,0.5,0.5,1,0.9c0.2,0.1,0.4,0.4,0.6,0.5c0.2,0.2,0.5,0.4,0.8,0.5c0.5,0.4,1.2,0.8,1.9,1.1
	c0.7,0.4,1.5,0.8,2.4,1.2c0.8,0.4,1.8,0.8,2.8,1.2c1,0.4,2.1,0.7,3.3,1.1c0.3,0.1,0.5,0.2,0.9,0.3c0.3,0.1,0.6,0.1,0.9,0.2l1.9,0.4
	c0.6,0.1,1.3,0.2,2,0.4c0.7,0.1,1.4,0.2,2.1,0.3c0.7,0.1,1.4,0.1,2.2,0.2c0.4,0,0.8,0.1,1.1,0.1h1.2c0.8,0,1.6,0.1,2.4,0
	c0.8-0.1,1.6-0.1,2.4-0.1c0.8,0,1.7-0.1,2.5-0.3c0.8-0.1,1.7-0.2,2.6-0.4c0.9-0.1,1.7-0.4,2.6-0.5c0.9-0.2,1.8-0.5,2.6-0.7
	c3.5-1,7.2-2.6,10.8-4.7c3.5-2.1,6.7-4.6,9.4-7.3c0.7-0.7,1.3-1.4,1.9-2.1c0.6-0.7,1.2-1.4,1.7-2.2c0.6-0.7,1.1-1.4,1.6-2.2
	c0.5-0.8,1-1.4,1.4-2.2c0.4-0.8,0.9-1.5,1.3-2.3c0.4-0.8,0.8-1.5,1.1-2.3c0.1-0.4,0.4-0.8,0.5-1.1c0.1-0.4,0.3-0.8,0.4-1.1
	c0.3-0.6,0.5-1.3,0.7-1.9c-6.5-1.4-12.4-5.3-16.4-10.6c-0.1,0.2-0.2,0.4-0.3,0.6c-0.2,0.4-0.4,0.9-0.7,1.3c-0.2,0.5-0.4,0.9-0.7,1.4
	c-0.3,0.5-0.5,0.9-0.8,1.4c-0.1,0.2-0.2,0.5-0.4,0.7c-0.1,0.2-0.3,0.5-0.4,0.7c-0.3,0.5-0.5,1-0.8,1.4c-0.3,0.5-0.6,0.9-0.9,1.4
	c-0.3,0.5-0.6,1-0.9,1.4c-0.4,0.5-0.6,1-1,1.5c-0.4,0.5-0.7,0.9-1,1.5c-0.4,0.5-0.8,0.9-1.1,1.4c-1.5,1.9-3.3,3.9-5.3,5.7
	c-2,1.8-4.2,3.4-6.5,4.8c-0.5,0.4-1.2,0.7-1.7,1c-0.6,0.3-1.2,0.6-1.7,0.9c-0.5,0.4-1.2,0.5-1.8,0.8c-0.6,0.3-1.2,0.5-1.8,0.8
	c-0.6,0.2-1.2,0.5-1.8,0.7c-0.6,0.2-1.2,0.4-1.8,0.5l-0.9,0.3c-0.3,0.1-0.5,0.1-0.9,0.2c-0.6,0.1-1.2,0.3-1.7,0.4s-1.2,0.2-1.7,0.4
	c-0.5,0.1-1.1,0.3-1.7,0.3c-0.5,0.1-1.1,0.1-1.6,0.2c-0.3,0-0.5,0.1-0.8,0.1c-0.3,0-0.5,0.1-0.8,0.1c-1,0.1-2,0.2-3,0.1
	c-0.9,0-1.9,0.1-2.7,0c-0.8-0.1-1.7-0.1-2.4-0.1c-0.7-0.1-1.4-0.1-2-0.1c-0.3,0-0.6,0-0.9-0.1c-0.3,0-0.5-0.1-0.8-0.1
	c-0.5-0.1-0.9-0.1-1.3-0.1c-0.7,0-1.1,0.1-1.3,0.4C490.1,210.5,490.3,210.9,490.7,211.4L490.7,211.4z"/>
<path class="st9" d="M497.1,211.4c-1.7-3.2-6-4.7-9.4-3.5c-3.4,1.3-5.6,5.2-4.8,8.8C488.1,217.3,493.3,215,497.1,211.4z"/>
<path class="st7" d="M485.1,205c-4.2-2.2-9.4-2.2-13.6,0.1c-1.2,0.6-2.2,1.4-3,2.5c-0.8,1-1.2,2.4-0.9,3.7
	C474,211.9,480.5,209.4,485.1,205L485.1,205z"/>
<path class="st20" d="M367.7,180.9L332.9,324l92,22.6l34.9-143.5L367.7,180.9z"/>
<path class="st18" d="M372.5,188.4l-31.9,131.2l79.5,19.6l32-131.4L372.5,188.4z"/>
<path class="st20" d="M374.5,192l-30.4,125l74,18.2L448.6,210L374.5,192z"/>
<path class="st18" d="M333,323.9l3.3-13.5l92,22.6l-3.3,13.5L333,323.9z"/>
<path class="st8" d="M399.6,256.2l-19.6-4.8c-5.4-1.3-8.7-6.7-7.4-12.1l0.5-1.9c1.3-5.4,6.7-8.7,12.1-7.4l19.6,4.8
	c5.4,1.3,8.7,6.7,7.4,12.1l-0.5,1.9C410.5,254.2,405,257.5,399.6,256.2L399.6,256.2z"/>
<path class="st8" d="M423.6,266.8l-49.6-12c-2.7-0.6-4.3-3.3-3.6-6l5.1-21c0.6-2.7,3.3-4.3,6-3.6l49.6,12c2.7,0.6,4.3,3.3,3.6,6
	l-5.1,21C428.9,265.8,426.2,267.4,423.6,266.8z"/>
<path class="st17" d="M399.8,245.5c-0.3,1.5-1.8,2.3-3.3,2c-1.5-0.3-2.3-1.8-2-3.3c0.3-1.5,1.8-2.3,3.3-2
	C399.3,242.6,400.2,244.1,399.8,245.5z"/>
<path class="st20" d="M413.7,261.1c7,0,12.8-5.7,12.8-12.8s-5.7-12.8-12.8-12.8c-7,0-12.8,5.7-12.8,12.8S406.7,261.1,413.7,261.1z"
	/>
<path class="st8" d="M413.7,257.9c5.3,0,9.6-4.3,9.6-9.6s-4.3-9.6-9.6-9.6s-9.6,4.3-9.6,9.6S408.4,257.9,413.7,257.9z"/>
<path class="st20" d="M411.1,243.1c0.6,0,1-0.4,1-1s-0.4-1-1-1c-0.5,0-1,0.4-1,1S410.6,243.1,411.1,243.1z"/>
<path class="st20" d="M415.1,244c0.5,0,1-0.4,1-1s-0.4-1-1-1c-0.6,0-1,0.4-1,1S414.5,244,415.1,244z"/>
<path class="st20" d="M418.9,244.9c0.6,0,1-0.4,1-1s-0.4-1-1-1c-0.5,0-1,0.4-1,1S418.4,244.9,418.9,244.9z"/>
<path class="st20" d="M410.3,246.6c0.5,0,1-0.4,1-1s-0.4-1-1-1c-0.6,0-1,0.4-1,1S409.7,246.6,410.3,246.6z"/>
<path class="st20" d="M414.2,247.5c0.6,0,1-0.4,1-1s-0.4-1-1-1c-0.5,0-1,0.4-1,1S413.7,247.5,414.2,247.5z"/>
<path class="st20" d="M418,248.5c0.5,0,1-0.4,1-1s-0.4-1-1-1c-0.6,0-1,0.4-1,1S417.5,248.5,418,248.5z"/>
<path class="st20" d="M409.4,250.1c0.6,0,1-0.4,1-1c0-0.5-0.4-1-1-1c-0.5,0-1,0.4-1,1C408.4,249.7,408.9,250.1,409.4,250.1z"/>
<path class="st20" d="M413.3,251.1c0.5,0,1-0.4,1-1s-0.4-1-1-1c-0.6,0-1,0.4-1,1S412.8,251.1,413.3,251.1z"/>
<path class="st20" d="M417.2,252c0.6,0,1-0.4,1-1s-0.4-1-1-1c-0.5,0-1,0.4-1,1S416.6,252,417.2,252z"/>
<path class="st20" d="M408.5,253.6c0.5,0,1-0.4,1-1s-0.4-1-1-1c-0.6,0-1,0.4-1,1S408,253.6,408.5,253.6z"/>
<path class="st20" d="M412.5,254.5c0.6,0,1-0.4,1-1s-0.4-1-1-1c-0.5,0-1,0.4-1,1S411.9,254.5,412.5,254.5z"/>
<path class="st20" d="M416.3,255.5c0.5,0,1-0.4,1-1s-0.4-1-1-1c-0.6,0-1,0.4-1,1S415.8,255.5,416.3,255.5z"/>
<path class="st20" d="M384.8,249.6c4.6,0,8.3-3.7,8.3-8.3c0-4.6-3.7-8.3-8.3-8.3c-4.6,0-8.3,3.7-8.3,8.3
	C376.5,245.9,380.2,249.6,384.8,249.6z"/>
<path class="st8" d="M384.8,247.6c3.5,0,6.3-2.8,6.3-6.3c0-3.5-2.8-6.3-6.3-6.3c-3.5,0-6.3,2.8-6.3,6.3
	C378.5,244.7,381.3,247.6,384.8,247.6z"/>
<path class="st20" d="M384.8,246c2.6,0,4.8-2.1,4.8-4.8c0-2.6-2.1-4.8-4.8-4.8c-2.6,0-4.8,2.1-4.8,4.8
	C380,243.9,382.2,246,384.8,246z"/>
<path class="st18" d="M389.6,242.8l-8.6,1.9c-1.4,0.3-2.7-0.6-3-1.9c-0.3-1.4,0.6-2.7,1.9-3l8.6-1.9c1.4-0.3,2.7,0.6,3,1.9
	C391.9,241.1,391,242.5,389.6,242.8z"/>
<path class="st20" d="M389.4,241.8l-8.6,1.9c-1.4,0.3-2.7-0.6-3-1.9c-0.3-1.4,0.6-2.7,2-3l8.6-1.9c1.4-0.3,2.7,0.6,3,1.9
	C391.7,240.2,390.8,241.5,389.4,241.8z"/>
</svg>
