<svg version="1.1" xmlns="http://www.w3.org/2000/svg" xmlns:xlink="http://www.w3.org/1999/xlink" width="630" height="393" viewBox="0 0 630 393">
<style type="text/css">
	.st0{fill:#EAF1FC;}
	.st1{fill:#F8F8FF;}
	.st2{fill:#FFFFFF;}
	.st3{fill:#D5DFEF;}
	.st4{fill:#E8EDF4;}
	.st5{fill:#D6E0F0;}
	.st6{fill:#EEF8FF;}
	.st7{fill:#CDE4F7;}
	.st8{fill:#FCFBFC;}
	.st9{fill:#D8DFE5;}
	.st10{fill:#E9EDF4;}
	.st11{fill:#608FB6;}
	.st12{fill:#508ABA;}
	.st13{fill:#67A2D2;}
	.st14{fill:#FF8500;}
	.st15{fill:#FEBF00;}
	.st16{fill:#70ACCD;}
	.st17{fill:#778FA4;}
	.st18{fill:#DAA18F;}
	.st19{fill:#D8A683;}
	.st20{fill:#F6CB98;}
	.st21{fill:#F8C47A;}
	.st22{fill:#E19A54;}
	.st23{fill:#FFDF9A;}
	.st24{fill:#D38137;}
	.st25{fill:#EAB973;}
	.st26{fill:#D3914F;}
	.st27{fill:#F1D392;}
	.st28{fill:#E4E6E6;}
	.st29{fill:#C08448;}
	.st30{fill:#E5B571;}
	.st31{fill:#CE8D4D;}
	.st32{fill:#ECCF8F;}
	.st33{fill:#C07632;}
	.st34{fill:#DFE2E1;}
	.st35{fill:#C3C8CE;}
	.st36{fill:#ACACAF;}
	.st37{fill:#302F2B;}
	.st38{fill:#706F77;}
	.st39{fill:#38373D;}
	.st40{fill:#02819F;}
	.st41{fill:#0C5F6B;}
	.st42{fill:#F09976;}
	.st43{fill:#E8815F;}
	.st44{fill:#FFDA35;}
	.st45{fill:#0B2B46;}
	.st46{fill:#047487;}
	.st47{fill:#05616B;}
</style>
<path class="st0" d="M316.6,302.8c173.1,0,313.4,20.2,313.4,45s-140.3,45-313.4,45S3.2,372.6,3.2,347.8S143.5,302.8,316.6,302.8z"/>
<path class="st1" d="M580.1,336.6c40.1-83.4,62.1-243.1-24.7-296c-56.8-34.7-116,9.9-176.8,12C331,54.1,285,16.4,242,5.6
	C129.3-22.6-48,50.8,29.9,336.6C224.9,336,385.2,337.1,580.1,336.6z"/>
<path class="st0" d="M124.2,4.6v33.1h2.1V4.8C125.6,4.7,124.9,4.7,124.2,4.6z M304.2,4.6v33.1h2.1V4.8
	C305.6,4.7,304.9,4.7,304.2,4.6z"/>
<path class="st2" d="M97.3,38.8c2,5.9,8.1,10.2,15.3,10.2c7.2,0,13.2-4.3,15.3-10.2H97.3z M307.8,38.8c2,5.9,8.1,10.2,15.3,10.2
	c7.2,0,13.2-4.3,15.3-10.2H307.8z"/>
<path class="st2" d="M111.8,38.5h213.1v10.2H111.8V38.5z"/>
<path class="st3" d="M96.9,32.9h241.4v5.9H96.9V32.9z"/>
<path class="st4" d="M450.5,94.2h142.7v242.3H450.5V94.2z"/>
<path class="st5" d="M584.7,129.5h-124c-0.5,0-0.9-0.4-0.9-0.9v-0.2c0-0.5,0.4-0.9,0.9-0.9h124c0.5,0,0.9,0.4,0.9,0.9v0.1
	C585.5,129.1,585.2,129.5,584.7,129.5z M584.7,175h-124c-0.5,0-0.9-0.4-0.9-0.9V174c0-0.5,0.4-0.9,0.9-0.9h124
	c0.5,0,0.9,0.4,0.9,0.9v0.1C585.5,174.5,585.2,175,584.7,175z M450.5,314.2h142.7v22.3H450.5V314.2z"/>
<path class="st1" d="M576.7,171.1c-0.1-0.2-0.2-0.5-0.4-0.7c-0.2-0.4-0.4-0.9-0.7-1.4v-0.2c0.6-4.7,0.9-8.6,0.9-12.3v-2
	c0-3.6-0.3-7.5-0.9-12.3V142l0.1-0.1c0.3-0.4,0.5-0.9,0.7-1.4c0,0,0.1-2.1,0.1-3.3c0-0.4-0.4-0.8-0.7-0.8
	c-3.8,0.1-20.3,0.2-24.7,0.3c-0.6,0-1,0.5-1,1.1c0.1,1.1,0.1,2.7,0.1,2.7c0.2,0.4,0.4,0.9,0.7,1.4v0.1c-0.6,4.7-0.9,8.6-0.9,12.3v2
	c0,3.6,0.3,7.5,0.9,12.3v0.2c-0.3,0.4-0.5,0.9-0.7,1.4c-0.1,0.2-0.2,0.5-0.4,0.7c-0.2,0.4-0.3,0.8-0.2,1c0.1,0.1,0.3,0.3,0.6,0.4
	c0.9,0.1,2,0,3-0.5h0.1c1.1,0.3,5.1,0.9,10.2,0.9c3.5,0,6.8-0.3,9.6-0.9h0.1c0.8,0.4,1.7,0.6,2.4,0.6c0.2,0,0.4,0,0.7-0.1
	c0.3-0.1,0.5-0.1,0.6-0.4C577.1,171.9,577,171.5,576.7,171.1z M566.6,139.6c-0.2,1.2-1.2,2-2.4,2h-1.7c-1.2,0-2.2-0.8-2.4-1.9
	c-0.1-0.4,0.3-0.9,0.8-0.9h5C566.3,138.7,566.7,139.1,566.6,139.6z"/>
<path class="st5" d="M575.8,168.9C575.8,168.9,575.8,168.9,575.8,168.9c0.1-2,0.1-3.8,0.2-5.7c-0.7,2.4-1.6,4.6-3.6,6.2
	c-3.3,2.6-8.2,2.6-12.1,2.1c-3.6-0.5-7.1-2-9-5.7c-0.4-0.9-0.8-1.9-1-2.8c0.1,2,0.4,3.9,0.6,5.9c0,0,0,0.1-0.1,0.1
	c-0.4,0.7-0.7,1.4-1.1,2.1c-0.4,0.8-0.4,1.5,0.4,1.6c0.9,0.1,2.1-0.1,3.1-0.5c2,0.5,11.7,1.7,19.9,0c1,0.5,2.2,0.7,3.1,0.5
	c0.9-0.1,0.9-0.8,0.4-1.6C576.5,170.3,576.2,169.6,575.8,168.9z M570.2,154.9c0,3.2-3,6.2-6.8,6.2c-3.8,0-6.8-2.6-6.8-5.7
	s3-5.7,6.8-5.7C567.1,149.7,570.2,151.7,570.2,154.9z"/>
<path class="st5" d="M569.5,152.7c0-1.1-0.1-2.2-0.4-3.3c-0.1-0.4-0.2-0.7-0.4-1c-0.1-0.1-0.2-0.1-0.4-0.1l-2.6,2.7
	C565.6,151,569.2,152.2,569.5,152.7z M557.2,152.7c0-1.1,0.1-2.2,0.4-3.3c0.1-0.4,0.2-0.7,0.4-1c0.1-0.1,0.2-0.1,0.4-0.1l2.6,2.7
	C561.1,151,557.4,152.2,557.2,152.7z"/>
<path class="st0" d="M560.3,154.1c-0.3,0.1-0.5,0.4-0.5,0.7c0.1,0.3,0.4,0.5,0.7,0.5c0.3-0.1,0.5-0.4,0.5-0.7c0-0.1,0-0.1-0.1-0.1
	C560.8,154.2,560.6,154,560.3,154.1z M566.2,154.1c-0.3,0.1-0.5,0.4-0.5,0.7c0.1,0.3,0.4,0.5,0.7,0.5c0.3-0.1,0.5-0.4,0.5-0.7
	c0-0.1,0-0.1-0.1-0.1C566.7,154.2,566.5,154,566.2,154.1z M564.3,156.2c0,0.2-0.4,0.7-1,0.7s-1-0.4-1-0.7c0-0.2,0.4-0.4,1-0.4
	S564.3,156,564.3,156.2z"/>
<path class="st5" d="M575.6,142.3l-11.1,0.4c0,0,7.5,0.4,9.1,2.5c1.5,2.1,2.6,5.2,2.6,5.2L575.6,142.3z"/>
<path class="st1" d="M544.3,171.1c-0.1-0.2-0.2-0.5-0.4-0.7c-0.2-0.4-0.4-0.9-0.7-1.4v-0.2c0.6-4.7,0.9-8.6,0.9-12.3v-2
	c0-3.6-0.3-7.5-0.9-12.3V142l0.1-0.1c0.3-0.4,0.5-0.9,0.7-1.4c0,0,0.1-2.1,0.1-3.3c0-0.4-0.4-0.8-0.7-0.8
	c-3.8,0.1-20.3,0.2-24.7,0.3c-0.6,0-1,0.5-1,1.1c0.1,1.1,0.1,2.7,0.1,2.7c0.2,0.4,0.4,0.9,0.7,1.4v0.1c-0.6,4.7-0.9,8.6-0.9,12.3v2
	c0,3.6,0.3,7.5,0.9,12.3v0.2c-0.3,0.4-0.5,0.9-0.7,1.4c-0.1,0.2-0.2,0.5-0.4,0.7c-0.2,0.4-0.3,0.8-0.2,1c0.1,0.1,0.3,0.3,0.6,0.4
	c0.9,0.1,2,0,3-0.5h0.1c1.1,0.3,5.1,0.9,10.2,0.9c3.5,0,6.8-0.3,9.6-0.9h0.1c0.8,0.4,1.7,0.6,2.4,0.6c0.2,0,0.4,0,0.7-0.1
	c0.3-0.1,0.5-0.1,0.6-0.4C544.6,171.9,544.5,171.5,544.3,171.1z M534.1,139.6c-0.2,1.2-1.2,2-2.4,2H530c-1.2,0-2.2-0.8-2.4-1.9
	c-0.1-0.4,0.3-0.9,0.8-0.9h5C533.8,138.7,534.2,139.1,534.1,139.6z"/>
<path class="st5" d="M543.3,168.9C543.3,168.9,543.2,168.9,543.3,168.9c0.1-2,0.1-3.8,0.2-5.7c-0.7,2.4-1.6,4.6-3.6,6.2
	c-3.3,2.6-8.2,2.6-12.1,2.1c-3.6-0.5-7.1-2-9-5.7c-0.4-0.9-0.8-1.9-1-2.8c0.1,2,0.4,3.9,0.6,5.9c0,0,0,0.1-0.1,0.1
	c-0.4,0.7-0.7,1.4-1.1,2.1c-0.4,0.8-0.4,1.5,0.4,1.6c0.9,0.1,2.1-0.1,3.1-0.5c2,0.5,11.7,1.7,19.9,0c1,0.5,2.2,0.7,3.1,0.5
	c0.9-0.1,0.9-0.8,0.4-1.6C544,170.3,543.7,169.6,543.3,168.9z M537.7,154.9c0,3.2-3,6.2-6.8,6.2c-3.8,0-6.8-2.6-6.8-5.7
	s3-5.7,6.8-5.7C534.6,149.7,537.7,151.7,537.7,154.9z"/>
<path class="st5" d="M536.9,152.7c0-1.1-0.1-2.2-0.4-3.3c-0.1-0.4-0.2-0.7-0.4-1c-0.1-0.1-0.2-0.1-0.4-0.1l-2.6,2.7
	C533.1,151,536.7,152.2,536.9,152.7z M524.7,152.7c0-1.1,0.1-2.2,0.4-3.3c0.1-0.4,0.2-0.7,0.4-1c0.1-0.1,0.2-0.1,0.4-0.1l2.6,2.7
	C528.5,151,525,152.2,524.7,152.7z"/>
<path class="st0" d="M527.8,154.1c-0.3,0.1-0.5,0.4-0.5,0.7c0.1,0.3,0.4,0.5,0.7,0.5c0.3-0.1,0.5-0.4,0.5-0.7c0-0.1,0-0.1-0.1-0.1
	C528.3,154.2,528.1,154,527.8,154.1z M533.8,154.1c-0.3,0.1-0.5,0.4-0.5,0.7c0.1,0.3,0.4,0.5,0.7,0.5c0.3-0.1,0.5-0.4,0.5-0.7
	c0-0.1,0-0.1-0.1-0.1C534.3,154.2,534,154,533.8,154.1z M531.8,156.2c0,0.2-0.4,0.7-1,0.7c-0.6,0-1-0.4-1-0.7c0-0.2,0.4-0.4,1-0.4
	C531.4,155.7,531.8,156,531.8,156.2z"/>
<path class="st5" d="M543.1,142.3l-11.1,0.4c0,0,7.5,0.4,9.1,2.5c1.5,2.1,2.6,5.2,2.6,5.2L543.1,142.3z"/>
<path class="st1" d="M512.7,171.1c-0.1-0.2-0.2-0.5-0.4-0.7c-0.2-0.4-0.4-0.9-0.7-1.4v-0.2c0.6-4.7,0.9-8.6,0.9-12.3v-2
	c0-3.6-0.3-7.5-0.9-12.3V142l0.1-0.1c0.3-0.4,0.5-0.9,0.7-1.4c0,0,0.1-2.1,0.1-3.3c0-0.4-0.4-0.8-0.7-0.8
	c-3.8,0.1-20.3,0.2-24.7,0.3c-0.6,0-1,0.5-1,1.1c0.1,1.1,0.1,2.7,0.1,2.7c0.2,0.4,0.4,0.9,0.7,1.4v0.1c-0.6,4.7-0.9,8.6-0.9,12.3v2
	c0,3.6,0.3,7.5,0.9,12.3v0.2c-0.3,0.4-0.5,0.9-0.7,1.4c-0.1,0.2-0.2,0.5-0.4,0.7c-0.2,0.4-0.3,0.8-0.2,1c0.1,0.1,0.3,0.3,0.6,0.4
	c0.9,0.1,2,0,3-0.5h0.1c1.1,0.3,5.1,0.9,10.2,0.9c3.5,0,6.8-0.3,9.6-0.9h0.1c0.8,0.4,1.7,0.6,2.4,0.6c0.2,0,0.4,0,0.7-0.1
	c0.3-0.1,0.5-0.1,0.6-0.4C513,171.9,512.9,171.5,512.7,171.1z M502.6,139.6c-0.2,1.2-1.2,2-2.4,2h-1.7c-1.2,0-2.2-0.8-2.4-1.9
	c-0.1-0.4,0.3-0.9,0.8-0.9h5C502.3,138.7,502.6,139.1,502.6,139.6z"/>
<path class="st5" d="M511.7,168.9C511.7,168.9,511.7,168.9,511.7,168.9c0.1-2,0.1-3.8,0.2-5.7c-0.7,2.4-1.6,4.6-3.6,6.2
	c-3.3,2.6-8.2,2.6-12.1,2.1c-3.6-0.5-7.1-2-9-5.7c-0.4-0.9-0.8-1.9-1-2.8c0.1,2,0.4,3.9,0.6,5.9c0,0,0,0.1-0.1,0.1
	c-0.4,0.7-0.7,1.4-1.1,2.1c-0.4,0.8-0.4,1.5,0.4,1.6c0.9,0.1,2.1-0.1,3.1-0.5c2,0.5,11.7,1.7,19.9,0c1,0.5,2.2,0.7,3.1,0.5
	c0.9-0.1,0.9-0.8,0.4-1.6C512.5,170.3,512.2,169.6,511.7,168.9z M506.1,154.9c0,3.2-3,6.2-6.8,6.2c-3.8,0-6.8-2.6-6.8-5.7
	s3-5.7,6.8-5.7C503.1,149.7,506.1,151.7,506.1,154.9z"/>
<path class="st5" d="M505.4,152.7c0-1.1-0.1-2.2-0.4-3.3c-0.1-0.4-0.2-0.7-0.4-1c-0.1-0.1-0.2-0.1-0.4-0.1l-2.6,2.7
	C501.5,151,505.2,152.2,505.4,152.7z M493.1,152.7c0-1.1,0.1-2.2,0.4-3.3c0.1-0.4,0.2-0.7,0.4-1c0.1-0.1,0.2-0.1,0.4-0.1l2.6,2.7
	C497,151,493.4,152.2,493.1,152.7z"/>
<path class="st0" d="M496.3,154.1c-0.3,0.1-0.5,0.4-0.5,0.7c0.1,0.3,0.4,0.5,0.7,0.5c0.3-0.1,0.5-0.4,0.5-0.7c0-0.1,0-0.1-0.1-0.1
	C496.8,154.2,496.5,154,496.3,154.1z M502.2,154.1c-0.3,0.1-0.5,0.4-0.5,0.7c0.1,0.3,0.4,0.5,0.7,0.5c0.3-0.1,0.5-0.4,0.5-0.7
	c0-0.1,0-0.1-0.1-0.1C502.7,154.2,502.4,154,502.2,154.1z M500.3,156.2c0,0.2-0.4,0.7-1,0.7s-1-0.4-1-0.7c0-0.2,0.4-0.4,1-0.4
	S500.3,156,500.3,156.2z"/>
<path class="st5" d="M511.5,142.3l-11.1,0.4c0,0,7.5,0.4,9.1,2.5c1.6,2,2.6,5.2,2.6,5.2L511.5,142.3z"/>
<path class="st6" d="M584.9,236.9c0.9,0,1.7-0.7,1.7-1.7v-7.3c0-0.9-0.7-1.7-1.7-1.7c0-2.4-1.4-4.6-3.5-5.7l-17.4-8.8v-0.7
	c0-1-0.9-1.9-1.9-1.9v-7.1c1.2,0,2-0.9,2-2v-6.8c0-1.2-0.9-2-2-2h-11.7c-1.2,0-2,0.9-2,2v6.8c0,1.2,0.9,2,2,2v7.1
	c-1,0-1.9,0.9-1.9,1.9v0.7l-17.4,8.8c-2.2,1.1-3.5,3.3-3.5,5.7c-0.9,0-1.7,0.7-1.7,1.7v7.3c0,0.9,0.7,1.7,1.7,1.7h0.4v12h-0.1
	c-0.9,0-1.7,0.7-1.7,1.7v7c0,0.9,0.7,1.7,1.7,1.7h1v27.6h-0.7c-0.9,0-1.7,0.7-1.7,1.7v7.5c0,4.6,3.7,8.3,8.3,8.3h43
	c4.6,0,8.3-3.7,8.3-8.3v-7.5c0-0.9-0.7-1.7-1.7-1.7h-0.7v-27.6h1c0.9,0,1.7-0.7,1.7-1.7v-7c0-0.9-0.7-1.7-1.7-1.7h-0.4v-12H584.9z"
	/>
<path class="st5" d="M549.3,201.7h14c0.6-0.4,0.9-1,0.9-1.7v-6.8c0-1.2-0.9-2-2-2h-11.7c-1.2,0-2,0.9-2,2v6.8
	C548.4,200.6,548.8,201.3,549.3,201.7z"/>
<path class="st7" d="M583.9,222.8c-0.6-0.9-1.4-1.7-2.5-2.2l-16.7-8.4h-16.8l-16.7,8.4c-1,0.5-1.9,1.3-2.5,2.2H583.9z M527.7,236.9
	h57.2c0.9,0,1.7-0.7,1.7-1.7v-7.3c0-0.9-0.7-1.7-1.7-1.7v-0.1h-57.2v0.1c-0.9,0-1.7,0.7-1.7,1.7v7.3
	C526,236.1,526.7,236.9,527.7,236.9z M527.1,259.2h58.4c0.6-0.3,0.9-0.9,0.9-1.5v-7c0-0.9-0.7-1.7-1.7-1.7h-0.1v-8.9H528v8.8h-0.1
	c-0.9,0-1.7,0.7-1.7,1.7v7C526.2,258.3,526.5,258.9,527.1,259.2z M528.8,264.6h54.8v21.9h-54.8V264.6z M526.5,290.1v5.9
	c0,4.6,3.7,8.3,8.3,8.3h42.9c4.6,0,8.3-3.7,8.3-8.3v-5.9H526.5z"/>
<path class="st6" d="M578,300.7c-3.9-3-12.2-5.1-21.7-5.1c-9.6,0-17.8,2.1-21.7,5.1H578z"/>
<path class="st8" d="M565.5,240.1h14.9V259h-14.9V240.1z M565.5,225.9h14.9v11h-14.9V225.9z M546.1,230.3h-14.9c0-2.5,2-4.4,4.4-4.4
	h10.5V230.3z M562.1,212.1l17.5,10.7h-14.3l-5.3-10.7v-6.3c0-0.3,0.3-0.6,0.6-0.6c0.3,0,0.5,0.1,0.6,0.4L562.1,212.1z"/>
<path class="st5" d="M535.1,221.5c-0.1,0-0.3-0.1-0.4-0.2c-0.1-0.2,0-0.4,0.1-0.5l15.3-8c1-0.5,1.7-1.5,1.9-2.7v-6.1
	c0-0.2,0.1-0.4,0.4-0.4c0.2,0,0.4,0.1,0.4,0.4v6.1c-0.1,1.5-1,2.7-2.3,3.3L535.1,221.5C535.2,221.5,535.1,221.5,535.1,221.5z"/>
<path class="st8" d="M550.1,200.6c-0.2,0-0.4-0.1-0.4-0.4v-6.9c0-0.2,0.1-0.4,0.4-0.4c0.2,0,0.4,0.1,0.4,0.4v6.9
	C550.5,200.4,550.3,200.6,550.1,200.6z M551.9,200.6c-0.2,0-0.4-0.1-0.4-0.4v-6.9c0-0.2,0.1-0.4,0.4-0.4c0.2,0,0.4,0.1,0.4,0.4v6.9
	C552.3,200.4,552.1,200.6,551.9,200.6z M554,200.6c-0.2,0-0.4-0.1-0.4-0.4v-6.9c0-0.2,0.1-0.4,0.4-0.4c0.2,0,0.4,0.1,0.4,0.4v6.9
	C554.3,200.4,554.2,200.6,554,200.6z"/>
<path class="st6" d="M518,236.9c0.9,0,1.7-0.7,1.7-1.7v-7.3c0-0.9-0.7-1.7-1.7-1.7c0-2.4-1.4-4.6-3.5-5.7l-17.4-8.8v-0.7
	c0-1-0.9-1.9-1.9-1.9v-7.1c1.2,0,2-0.9,2-2v-6.8c0-1.2-0.9-2-2-2h-11.7c-1.2,0-2,0.9-2,2v6.8c0,1.2,0.9,2,2,2v7.1
	c-1,0-1.9,0.9-1.9,1.9v0.7l-17.4,8.8c-2.2,1.1-3.5,3.3-3.5,5.7c-0.9,0-1.7,0.7-1.7,1.7v7.3c0,0.9,0.7,1.7,1.7,1.7h0.4v12H461
	c-0.9,0-1.7,0.7-1.7,1.7v7c0,0.9,0.7,1.7,1.7,1.7h1v27.6h-0.7c-0.9,0-1.7,0.7-1.7,1.7v7.5c0,4.6,3.7,8.3,8.3,8.3h43
	c4.6,0,8.3-3.7,8.3-8.3v-7.5c0-0.9-0.7-1.7-1.7-1.7H517v-27.6h1c0.9,0,1.7-0.7,1.7-1.7v-7c0-0.9-0.7-1.7-1.7-1.7h-0.1L518,236.9
	L518,236.9z"/>
<path class="st5" d="M482.4,201.7h14c0.6-0.4,0.9-1,0.9-1.7v-6.8c0-1.2-0.9-2-2-2h-11.7c-1.2,0-2,0.9-2,2v6.8
	C481.5,200.6,481.8,201.3,482.4,201.7z"/>
<path class="st7" d="M517,222.8c-0.6-0.9-1.4-1.7-2.5-2.2l-16.7-8.4H481l-16.7,8.4c-1,0.5-1.9,1.3-2.5,2.2H517z M460.8,236.9H518
	c0.9,0,1.7-0.7,1.7-1.7v-7.3c0-0.9-0.7-1.7-1.7-1.7v-0.1h-57.2v0.1c-0.9,0-1.7,0.7-1.7,1.7v7.3C459.1,236.1,459.8,236.9,460.8,236.9
	z M460.2,259.2h58.4c0.6-0.3,0.9-0.9,0.9-1.5v-7c0-0.9-0.7-1.7-1.7-1.7h-0.1v-8.9h-56.6v8.8H461c-0.9,0-1.7,0.7-1.7,1.7v7
	C459.2,258.3,459.7,258.9,460.2,259.2z M462,264.6h54.8v21.9H462V264.6z M459.6,290.1v5.9c0,4.6,3.7,8.3,8.3,8.3h42.9
	c4.6,0,8.3-3.7,8.3-8.3v-5.9H459.6z"/>
<path class="st6" d="M511.1,300.7c-3.9-3-12.2-5.1-21.7-5.1c-9.6,0-17.8,2.1-21.7,5.1H511.1z"/>
<path class="st8" d="M498.6,240.1h14.9V259h-14.9V240.1z M498.6,225.9h14.9v11h-14.9V225.9z M479.2,230.3h-14.9c0-2.5,2-4.4,4.4-4.4
	h10.5V230.3z M495.3,212.1l17.5,10.7h-14.3l-5.3-10.7v-6.3c0-0.3,0.3-0.6,0.6-0.6s0.5,0.1,0.6,0.4L495.3,212.1z"/>
<path class="st5" d="M468.2,221.5c-0.1,0-0.3-0.1-0.4-0.2c-0.1-0.2,0-0.4,0.1-0.5l15.3-8c1-0.5,1.7-1.5,1.9-2.7v-6.1
	c0-0.2,0.1-0.4,0.4-0.4c0.2,0,0.4,0.1,0.4,0.4v6.1c-0.1,1.5-1,2.7-2.3,3.3L468.2,221.5C468.3,221.5,468.2,221.5,468.2,221.5z"/>
<path class="st8" d="M483.2,200.6c-0.2,0-0.4-0.1-0.4-0.4v-6.9c0-0.2,0.1-0.4,0.4-0.4c0.2,0,0.4,0.1,0.4,0.4v6.9
	C483.6,200.4,483.4,200.6,483.2,200.6z M485,200.6c-0.2,0-0.4-0.1-0.4-0.4v-6.9c0-0.2,0.1-0.4,0.4-0.4c0.2,0,0.4,0.1,0.4,0.4v6.9
	C485.4,200.4,485.2,200.6,485,200.6z M487.1,200.6c-0.2,0-0.4-0.1-0.4-0.4v-6.9c0-0.2,0.1-0.4,0.4-0.4c0.2,0,0.4,0.1,0.4,0.4v6.9
	C487.4,200.4,487.3,200.6,487.1,200.6z"/>
<path class="st7" d="M107.3,332.7h1.4v2.9h-1.4V332.7z"/>
<path class="st7" d="M104.9,331.3h6.2v2.3h-6.2V331.3z M109.5,337.3h-2.9c-0.4,0-0.9-0.4-0.9-0.9c0-0.4,0.4-0.9,0.9-0.9h2.9
	c0.4,0,0.9,0.4,0.9,0.9C110.4,336.9,110,337.3,109.5,337.3z M27.7,332.7h1.4v2.9h-1.4V332.7z"/>
<path class="st7" d="M25.4,331.3h6.2v2.3h-6.2V331.3z M29.9,337.3H27c-0.4,0-0.9-0.4-0.9-0.9c0-0.4,0.4-0.9,0.9-0.9h2.9
	c0.4,0,0.9,0.4,0.9,0.9C30.8,336.9,30.4,337.3,29.9,337.3z"/>
<path class="st5" d="M25.3,95.4h85.7v235.9H25.3V95.4z"/>
<path class="st0" d="M33.2,135H105v189.4H33.2V135z"/>
<path class="st9" d="M35.3,205.1h67.4v1.7H35.3V205.1z M35.3,250.8h67.4v1.7H35.3V250.8z M35.3,297.8h67.4v1.7H35.3V297.8z"/>
<path class="st10" d="M100.8,166.7H37.7l-4.3-27.1h71.8L100.8,166.7z"/>
<path class="st5" d="M27.7,129.9h81v3.6h-81V129.9z"/>
<path class="st7" d="M33.2,231.5l-5-0.5v-35.2l5,2.2V231.5z"/>
<path class="st10" d="M30.4,201.9l1.3-4.4c0.3-0.9-0.4-1.8-1.4-1.8h-1.9l-0.3,0.1c-0.2,0.2-1.9,4.4-1.9,4.6v27.3
	c0,0.3,1.7,4.1,2,4.3l0.3,0.1h1.8c0.9,0,1.7-0.9,1.4-1.9l-1.3-4.3c0-0.1,0-0.2-0.1-0.3v-23.4C30.3,202.2,30.3,202,30.4,201.9z"/>
<path class="st9" d="M33.3,134.9h71.8v4.6H33.3V134.9z"/>
<path class="st10" d="M28.7,99.5h78.9v30.7H28.7V99.5z"/>
<path class="st11" d="M55.1,250.6H38.3v-31.4l8.4-5.9l8.4,5.9V250.6z"/>
<path class="st7" d="M48.2,218.5h-3l0.4-8.6c0-0.6,0.5-1,1-1c0.6,0,1,0.4,1,1L48.2,218.5z"/>
<path class="st6" d="M52.8,220.4H40.6v-0.3l6.1-4.4l6.1,4.4V220.4z"/>
<path class="st7" d="M41.6,224.1h10.4v2.7H41.6V224.1z M41.6,228.4h10.4v2.7H41.6V228.4z M73.9,250.6H57.2v-31.4l8.4-5.9l8.3,5.9
	V250.6z"/>
<path class="st7" d="M67.1,218.5h-3l0.4-8.6c0-0.6,0.5-1,1-1c0.6,0,1,0.4,1,1L67.1,218.5z"/>
<path class="st6" d="M71.7,220.4H59.5v-0.3l6.1-4.4l6.1,4.4V220.4z"/>
<path class="st12" d="M60.4,224.1h10.4v2.7H60.4V224.1z M60.4,228.4h10.4v2.7H60.4V228.4z M55.1,297.2H38.3v-31.4l8.4-5.9l8.4,5.9
	V297.2z"/>
<path class="st7" d="M48.2,265.1h-3l0.4-8.6c0-0.6,0.5-1,1-1c0.6,0,1,0.4,1,1L48.2,265.1z"/>
<path class="st6" d="M52.8,267H40.6v-0.4l6.1-4.3l6.1,4.3V267z"/>
<path class="st7" d="M41.6,270.7h10.4v2.7H41.6V270.7z M41.6,274.9h10.4v2.7H41.6V274.9z M73.9,297.2H57.2v-31.4l8.4-5.9l8.3,5.9
	V297.2z"/>
<path class="st7" d="M67.1,265.1h-3l0.4-8.6c0-0.6,0.5-1,1-1c0.6,0,1,0.4,1,1L67.1,265.1z"/>
<path class="st6" d="M71.7,267H59.5v-0.4l6.1-4.3l6.1,4.3V267z"/>
<path class="st13" d="M60.4,270.7h10.4v2.7H60.4V270.7z M60.4,274.9h10.4v2.7H60.4V274.9z M50.3,181.2l-0.4-0.7
	c-0.9-2-1.2-4.2-1.5-6.5c-0.2-1.6-0.3-3.2-0.3-3.2c-0.1-0.6-0.3-1.1,0.3-1.1c0.5,0,0.9-0.4,0.9-0.9v-2.2c0-0.5-0.4-0.9-0.9-0.9h-6.4
	c-0.5,0-0.9,0.4-0.9,0.9v2.2c0,0.5,0.4,0.9,0.9,0.9c0.6,0,0.4,0.5,0.3,1.1c0,0,0,1.4-0.2,2.9c-0.4,2.4-0.7,4.8-1.7,7l-0.2,0.5
	c-1,1.9-1.5,3.9-1.5,6.1V204c0,0.5,0.4,0.9,0.9,0.9H51c0.5,0,0.9-0.4,0.9-0.9v-16.6C51.8,185.2,51.3,183.1,50.3,181.2z"/>
<path class="st2" d="M49.2,185.9c-0.9,0.1-1.9-0.1-2.8-0.2c-1.1-0.1-2.2-0.3-3.3-0.1c-0.7,0.1-1.7,0.2-2.5,0.5
	c-0.5,0.2-0.8,0.7-0.8,1.2v13.7c0,0.5,0.4,0.9,0.8,0.9h9.3c0.4,0,0.8-0.4,0.8-0.9v-13.8C50.6,186.3,50,185.8,49.2,185.9z"/>
<path class="st7" d="M45.4,204.6c2.5,0,4.6-0.9,4.6-2s-2-2-4.6-2c-2.5,0-4.6,0.9-4.6,2S42.9,204.6,45.4,204.6z"/>
<path class="st14" d="M42,169.8c0.2,0,0.4,0.1,0.6,0.2h5.3c0.1-0.1,0.4-0.2,0.6-0.2c0.5,0,0.9-0.4,0.9-0.9v-2.2
	c0-0.5-0.4-0.9-0.9-0.9H42c-0.5,0-0.9,0.4-0.9,0.9v2.2C41.1,169.4,41.5,169.8,42,169.8z"/>
<path class="st15" d="M49.4,166.7c0-0.6-0.4-1-0.9-1H42c-0.5,0-0.9,0.4-0.9,0.9v0.1H49.4z"/>
<path class="st16" d="M65.7,181.2l-0.4-0.7c-0.9-2-1.2-4.2-1.5-6.5c-0.2-1.6-0.3-3.2-0.3-3.2c-0.1-0.6-0.3-1.1,0.3-1.1
	c0.5,0,0.9-0.4,0.9-0.9v-2.2c0-0.5-0.4-0.9-0.9-0.9h-6.4c-0.5,0-0.9,0.4-0.9,0.9v2.2c0,0.5,0.4,0.9,0.9,0.9c0.6,0,0.4,0.5,0.3,1.1
	c0,0,0,1.4-0.2,2.9c-0.4,2.4-0.7,4.8-1.7,7l-0.2,0.5c-1,1.9-1.5,3.9-1.5,6.1V204c0,0.5,0.4,0.9,0.9,0.9h11.4c0.5,0,0.9-0.4,0.9-0.9
	v-16.6C67.2,185.2,66.7,183.1,65.7,181.2z"/>
<path class="st2" d="M64.6,185.9c-0.9,0.1-1.9-0.1-2.8-0.2c-1.1-0.1-2.2-0.3-3.3-0.1c-0.7,0.1-1.7,0.2-2.5,0.5
	c-0.5,0.2-0.8,0.7-0.8,1.2v13.7c0,0.5,0.4,0.9,0.8,0.9h9.3c0.4,0,0.8-0.4,0.8-0.9v-13.8C66,186.3,65.4,185.8,64.6,185.9z"/>
<path class="st7" d="M60.8,204.6c2.5,0,4.6-0.9,4.6-2s-2-2-4.6-2c-2.5,0-4.6,0.9-4.6,2S58.3,204.6,60.8,204.6z"/>
<path class="st14" d="M57.4,169.8c0.2,0,0.4,0.1,0.6,0.2h5.2c0.1-0.1,0.4-0.2,0.6-0.2c0.5,0,0.9-0.4,0.9-0.9v-2.2
	c0-0.5-0.4-0.9-0.9-0.9h-6.4c-0.5,0-0.9,0.4-0.9,0.9v2.2C56.4,169.4,56.8,169.8,57.4,169.8z"/>
<path class="st15" d="M64.8,166.7c0-0.6-0.4-1-0.9-1h-6.4c-0.5,0-0.9,0.4-0.9,0.9v0.1H64.8z"/>
<path class="st17" d="M81.1,181.2l-0.4-0.7c-0.9-2-1.2-4.2-1.5-6.5c-0.2-1.6-0.3-3.2-0.3-3.2c-0.1-0.6-0.3-1.1,0.3-1.1
	c0.5,0,0.9-0.4,0.9-0.9v-2.2c0-0.5-0.4-0.9-0.9-0.9h-6.4c-0.5,0-0.9,0.4-0.9,0.9v2.2c0,0.5,0.4,0.9,0.9,0.9c0.6,0,0.4,0.5,0.3,1.1
	c0,0,0,1.4-0.2,2.9c-0.4,2.4-0.7,4.8-1.7,7l-0.2,0.5c-1,1.9-1.5,3.9-1.5,6.1V204c0,0.5,0.4,0.9,0.9,0.9h11.4c0.5,0,0.9-0.4,0.9-0.9
	v-16.6C82.6,185.2,82.1,183.1,81.1,181.2z"/>
<path class="st2" d="M80,185.9c-0.9,0.1-1.9-0.1-2.8-0.2c-1.1-0.1-2.2-0.3-3.3-0.1c-0.7,0.1-1.7,0.2-2.5,0.5
	c-0.5,0.2-0.8,0.7-0.8,1.2v13.7c0,0.5,0.4,0.9,0.8,0.9h9.3c0.4,0,0.8-0.4,0.8-0.9v-13.8C81.4,186.3,80.7,185.8,80,185.9z"/>
<path class="st7" d="M76.2,204.6c2.5,0,4.6-0.9,4.6-2s-2-2-4.6-2s-4.6,0.9-4.6,2S73.7,204.6,76.2,204.6z"/>
<path class="st14" d="M72.8,169.8c0.2,0,0.4,0.1,0.6,0.2h5.2c0.1-0.1,0.4-0.2,0.6-0.2c0.5,0,0.9-0.4,0.9-0.9v-2.2
	c0-0.5-0.4-0.9-0.9-0.9h-6.4c-0.5,0-0.9,0.4-0.9,0.9v2.2C71.8,169.4,72.3,169.8,72.8,169.8z"/>
<path class="st15" d="M80.2,166.7c0-0.6-0.4-1-0.9-1h-6.4c-0.5,0-0.9,0.4-0.9,0.9v0.1H80.2z"/>
<path class="st4" d="M121.3,94H264v242.3H121.3V94z"/>
<path class="st5" d="M255.5,129.3H131.4c-0.5,0-0.9-0.4-0.9-0.9v-0.2c0-0.5,0.4-0.9,0.9-0.9h124c0.5,0,0.9,0.4,0.9,0.9v0.1
	C256.3,128.9,256,129.3,255.5,129.3z M255.5,174.8H131.4c-0.5,0-0.9-0.4-0.9-0.9v-0.1c0-0.5,0.4-0.9,0.9-0.9h124
	c0.5,0,0.9,0.4,0.9,0.9v0.1C256.3,174.4,256,174.8,255.5,174.8z M255.5,220.3H131.4c-0.5,0-0.9-0.4-0.9-0.9v-0.1
	c0-0.5,0.4-0.9,0.9-0.9h124c0.5,0,0.9,0.4,0.9,0.9v0.1C256.3,219.9,256,220.3,255.5,220.3z M121.3,314.1H264v22.3H121.3V314.1z"/>
<path class="st18" d="M235.4,167.5c8.3,0,15.1-6.8,15.1-15.1c0-8.3-6.7-15.1-15.1-15.1c-8.3,0-15.1,6.8-15.1,15.1
	C220.4,160.7,227.1,167.5,235.4,167.5z"/>
<path class="st10" d="M225.8,160.2c5.3-6.2,11.8-11.2,19.1-14.7c-1.7-2-4.9-1.9-7.4-1.1c-6.7,2.2-11.7,8.9-11.8,16"/>
<path class="st10" d="M244.8,160.2c-5.3-6.2-11.8-11.2-19.1-14.7c1.7-2,4.9-1.9,7.4-1.1c6.7,2.2,11.7,8.9,11.8,16"/>
<path class="st18" d="M214.1,139.3c0,0,2.5,7.5-25.6,13.7c-28.2,6.2-55.7,14.3-57.7,4.9l-0.1-0.1c-2-9.4,26.3-13.7,54.5-19.9
	s29,1.7,29,1.7L214.1,139.3z"/>
<path class="st10" d="M207.5,145.4c0.6-0.8-1.3-3.3-4.4-5.5c-3-2.2-6-3.3-6.6-2.4c-0.6,0.8,1.3,3.3,4.4,5.5
	C204,145.2,206.9,146.3,207.5,145.4z"/>
<path class="st10" d="M147.4,159.5c0.6-0.8-1.3-3.3-4.4-5.5c-3-2.2-6-3.3-6.6-2.4c-0.6,0.8,1.3,3.3,4.4,5.5
	C143.9,159.3,146.8,160.4,147.4,159.5z"/>
<path class="st10" d="M198.2,148.2c0.6-0.8-1.7-3.5-5.1-6s-6.7-3.8-7.3-3c-0.6,0.8,1.7,3.5,5.1,6S197.6,149,198.2,148.2z"/>
<path class="st10" d="M188.1,150.4c0.6-0.8-1.7-3.5-5.1-6c-3.4-2.5-6.7-3.8-7.3-3c-0.6,0.8,1.7,3.5,5.1,6
	C184.2,149.9,187.5,151.2,188.1,150.4z"/>
<path class="st10" d="M178.1,152.6c0.6-0.8-1.7-3.5-5.1-6c-3.4-2.5-6.7-3.8-7.3-3c-0.6,0.8,1.7,3.5,5.1,6S177.5,153.5,178.1,152.6z"
	/>
<path class="st10" d="M168.1,154.8c0.6-0.8-1.7-3.5-5.1-6c-3.4-2.5-6.7-3.8-7.3-3c-0.6,0.8,1.7,3.5,5.1,6S167.5,155.6,168.1,154.8z"
	/>
<path class="st10" d="M158,157c0.6-0.8-1.7-3.5-5.1-6c-3.4-2.5-6.7-3.8-7.3-3c-0.6,0.8,1.7,3.5,5.1,6
	C154.1,156.5,157.4,157.8,158,157z"/>
<path class="st19" d="M154,190.7c-1.4-1.5-3.3-2.5-5.2-3.1c-4.8-1.7-9.6-1.8-14.6-0.8c-2.3,0.5-4.6,1.4-6.5,2.8
	c-0.9,0.7-1.8,1.5-2.4,2.5c-0.9,1.6-0.9,3.2,0,4.8c0.4,0.7,1,1.3,1.6,1.9c0.2,0.3,0.4,0.5,0.4,0.9v16c0,1.6,1,2.7,2.7,2.7h20.6
	c1.2,0,2.2-0.7,2.5-1.8c0.1-0.3,0.1-0.6,0.1-0.9v-15.8c0-0.4,0.1-0.7,0.4-0.9c0.4-0.3,0.7-0.7,0.9-1c0.7-0.9,1.2-1.8,1.2-2.9
	C155.8,193.3,155.1,191.9,154,190.7z"/>
<path class="st8" d="M157.9,190.7c-1.4-1.5-3.3-2.5-5.2-3.1c-4.8-1.7-9.6-1.8-14.6-0.8c-2.3,0.5-4.6,1.4-6.5,2.8
	c-0.9,0.7-1.8,1.5-2.4,2.5c-0.9,1.6-0.9,3.2,0,4.8c0.4,0.7,1,1.3,1.6,1.9c0.2,0.3,0.4,0.5,0.4,0.9v16c0,1.6,1,2.7,2.7,2.7h20.6
	c1.2,0,2.2-0.7,2.5-1.8c0.1-0.3,0.1-0.6,0.1-0.9v-15.8c0-0.4,0.1-0.7,0.4-0.9c0.4-0.3,0.7-0.7,0.9-1c0.7-0.9,1.2-1.8,1.2-2.9
	C159.8,193.3,159,191.9,157.9,190.7z"/>
<path class="st19" d="M164.8,190.7c-1.4-1.5-3.3-2.5-5.2-3.1c-4.8-1.7-9.6-1.8-14.6-0.8c-2.3,0.5-4.6,1.4-6.5,2.8
	c-0.9,0.7-1.8,1.5-2.4,2.5c-0.9,1.6-0.9,3.2,0,4.8c0.4,0.7,1,1.3,1.6,1.9c0.2,0.3,0.4,0.5,0.4,0.9v16c0,1.6,1,2.7,2.7,2.7h20.6
	c1.2,0,2.2-0.7,2.5-1.8c0.1-0.3,0.1-0.6,0.1-0.9v-15.8c0-0.4,0.1-0.7,0.4-0.9c0.4-0.3,0.7-0.7,0.9-1c0.7-0.9,1.2-1.8,1.2-2.9
	C166.7,193.3,165.9,191.9,164.8,190.7z"/>
<path class="st8" d="M168.8,190.7c-1.4-1.5-3.3-2.5-5.2-3.1c-4.8-1.7-9.6-1.8-14.6-0.8c-2.3,0.5-4.6,1.4-6.5,2.8
	c-0.9,0.7-1.8,1.5-2.4,2.5c-0.9,1.6-0.9,3.2,0,4.8c0.4,0.7,1,1.3,1.6,1.9c0.2,0.3,0.4,0.5,0.4,0.9v16c0,1.6,1,2.7,2.7,2.7h20.6
	c1.2,0,2.2-0.7,2.5-1.8c0.1-0.3,0.1-0.6,0.1-0.9v-15.8c0-0.4,0.1-0.7,0.4-0.9c0.4-0.3,0.7-0.7,0.9-1c0.7-0.9,1.2-1.8,1.2-2.9
	C170.6,193.3,169.9,191.9,168.8,190.7z"/>
<path class="st19" d="M174.2,190.7c-1.4-1.5-3.3-2.5-5.2-3.1c-4.8-1.7-9.6-1.8-14.6-0.8c-2.3,0.5-4.6,1.4-6.5,2.8
	c-0.9,0.7-1.8,1.5-2.4,2.5c-0.9,1.6-0.9,3.2,0,4.8c0.4,0.7,1,1.3,1.6,1.9c0.2,0.3,0.4,0.5,0.4,0.9v16c0,1.6,1,2.7,2.7,2.7h20.6
	c1.2,0,2.2-0.7,2.5-1.8c0.1-0.3,0.1-0.6,0.1-0.9v-15.8c0-0.4,0.1-0.7,0.4-0.9c0.4-0.3,0.7-0.7,0.9-1c0.7-0.9,1.2-1.8,1.2-2.9
	C176.1,193.3,175.3,191.9,174.2,190.7z"/>
<path class="st8" d="M178.2,190.7c-1.4-1.5-3.3-2.5-5.2-3.1c-4.8-1.7-9.6-1.8-14.6-0.8c-2.3,0.5-4.6,1.4-6.5,2.8
	c-0.9,0.7-1.8,1.5-2.4,2.5c-0.9,1.6-0.9,3.2,0,4.8c0.4,0.7,1,1.3,1.6,1.9c0.2,0.3,0.4,0.5,0.4,0.9v16c0,1.6,1,2.7,2.7,2.7h20.6
	c1.2,0,2.2-0.7,2.5-1.8c0.1-0.3,0.1-0.6,0.1-0.9v-15.8c0-0.4,0.1-0.7,0.4-0.9c0.4-0.3,0.7-0.7,0.9-1c0.7-0.9,1.2-1.8,1.2-2.9
	C180,193.3,179.3,191.9,178.2,190.7z"/>
<path class="st20" d="M242.9,165c0,0,0.2,8-28.5,5.7c-28.7-2.2-57.4-2.4-56.7-12v-0.1c0.7-9.6,29.1-5.6,57.9-3.3
	c28.7,2.2,27.3,10.1,27.3,10.1L242.9,165z"/>
<path class="st8" d="M234.8,168.9c0.8-0.6-0.3-3.5-2.6-6.5c-2.3-3-4.8-4.8-5.6-4.2c-0.8,0.6,0.3,3.5,2.6,6.5
	C231.5,167.7,234,169.6,234.8,168.9z"/>
<path class="st8" d="M173.3,165.1c0.8-0.6-0.3-3.5-2.6-6.5c-2.3-3-4.8-4.8-5.6-4.2c-0.8,0.6,0.3,3.5,2.6,6.5
	C169.9,163.8,172.4,165.7,173.3,165.1z"/>
<path class="st8" d="M225.2,168.9c0.8-0.6-0.6-3.9-3.2-7.2c-2.6-3.4-5.3-5.6-6.2-4.9c-0.8,0.6,0.6,3.9,3.2,7.2
	C221.6,167.3,224.4,169.5,225.2,168.9z"/>
<path class="st8" d="M214.9,168.1c0.8-0.6-0.6-3.9-3.2-7.2c-2.6-3.4-5.3-5.6-6.2-4.9c-0.8,0.6,0.6,3.9,3.2,7.2
	S214.1,168.7,214.9,168.1z"/>
<path class="st8" d="M204.7,167.3c0.8-0.6-0.6-3.9-3.2-7.2c-2.6-3.4-5.3-5.6-6.2-4.9c-0.8,0.6,0.6,3.9,3.2,7.2
	C201.1,165.7,203.9,167.9,204.7,167.3z"/>
<path class="st8" d="M194.4,166.5c0.8-0.6-0.6-3.9-3.2-7.2c-2.6-3.4-5.3-5.6-6.2-4.9c-0.8,0.6,0.6,3.9,3.2,7.2
	C190.8,164.9,193.6,167.1,194.4,166.5z"/>
<path class="st8" d="M184.2,165.7c0.8-0.6-0.6-3.9-3.2-7.2c-2.6-3.4-5.3-5.6-6.2-4.9c-0.8,0.6,0.6,3.9,3.2,7.2
	C180.6,164.1,183.4,166.3,184.2,165.7z"/>
<path class="st21" d="M65.2,322.7h46V370h-46V322.7z"/>
<path class="st22" d="M134.3,314.9l-23,7.9V370l23-7.9V314.9z"/>
<path class="st23" d="M65.2,322.7l23-7.9h46l-23,7.9H65.2z"/>
<path class="st24" d="M118.3,320.3v13.1l6.9-2.3v-13.2L118.3,320.3z M118.3,354.3v13.1l6.9-2.3v-13.2L118.3,354.3z"/>
<path class="st22" d="M79.1,318l-1,0.3l-1.5,0.5l-4.8,1.6h46.4l6.9-2.3H79.1L79.1,318z"/>
<path class="st25" d="M72.7,284.5h34.1v35H72.7V284.5z"/>
<path class="st26" d="M123.9,278.6l-17.1,5.8v35l17.1-5.8V278.6L123.9,278.6z"/>
<path class="st27" d="M72.7,284.5l17.1-5.8h34.1l-17.1,5.8H72.7z"/>
<path class="st28" d="M93.9,286.7h11.5v5.1H93.9V286.7z"/>
<path class="st29" d="M86.9,312.9v6.8h5.8l0.1-6.8H86.9z M86.9,284.5v6.8h5.8l0.1-6.8H86.9z M101,278.6l-14.2,5.8h5.9l13.7-5.8H101
	L101,278.6z"/>
<path class="st21" d="M114,308.4H174v61.5H114V308.4L114,308.4z"/>
<path class="st22" d="M204,298.1l-30,10.3v61.5l30-10.3V298.1z"/>
<path class="st23" d="M114,308.4l30-10.3h60l-30,10.3H114z"/>
<path class="st24" d="M183.2,305.3v17.1l9-3v-17.2L183.2,305.3z M183.2,349.6v17.1l9-3v-17.2L183.2,349.6z"/>
<path class="st22" d="M132.2,302.1l-1.3,0.4l-1.8,0.7l-6.3,2h60.4l9-3.1H132.2z"/>
<path class="st28" d="M151.1,312.2h20.4v9h-20.4V312.2z"/>
<path class="st30" d="M113.5,256.7h51.4v52.8h-51.4V256.7z"/>
<path class="st31" d="M190.7,247.9l-25.7,8.7v52.8l25.7-8.7V247.9z"/>
<path class="st32" d="M113.5,256.7l25.7-8.7h51.4l-25.7,8.7H113.5z"/>
<path class="st33" d="M172.8,254.1v14.7l7.8-2.5v-14.8L172.8,254.1z M172.8,291.9v14.7l7.8-2.5v-14.8L172.8,291.9z"/>
<path class="st31" d="M129.1,251.4l-1.1,0.4l-1.6,0.6l-5.3,1.7h51.8l7.7-2.6L129.1,251.4L129.1,251.4z"/>
<path class="st34" d="M404,172.5h-91.6l-0.1,0.1c-1.9,5.1-10.5,35.9-6.2,97.3v0.4H404V172.5z"/>
<path class="st35" d="M404,270.2v-13.1h-55.3v-8.4h-23.3v-76.2h-13l-0.1,0.1c-1.9,5.1-10.5,35.9-6.2,97.3v0.4L404,270.2L404,270.2z"
	/>
<path class="st36" d="M404,172.5h-91.6l-0.1,0.1c-0.4,1.1-1.1,3.5-2,7.1H404V172.5z"/>
<path class="st35" d="M404,175.8h-92.7c-0.3,1.1-0.6,2.3-1,3.9H404V175.8z M404,204.2h-78.8v5.2H404V204.2z"/>
<path class="st35" d="M404,204.2h-78.8v5.2H404V204.2z M404,216.8h-78.8l-1.9,19.7H404V216.8z"/>
<path class="st36" d="M404,236.6h-80.7l-17.1,33.5l97.8,0.2V236.6z M404,209.4h-78.8v7.4H404V209.4z"/>
<path class="st37" d="M339.6,227.4c-0.5,0-0.9,0.4-0.9,0.9v5.3c0,0.5,0.4,0.9,0.9,0.9s0.9-0.4,0.9-0.9v-5.3
	C340.5,227.8,340.1,227.4,339.6,227.4z M339.6,218.1c-0.5,0-0.9,0.4-0.9,0.9v5.3c0,0.5,0.4,0.9,0.9,0.9s0.9-0.4,0.9-0.9v-5.3
	C340.5,218.6,340.1,218.1,339.6,218.1z M343.4,227.4c-0.5,0-0.9,0.4-0.9,0.9v5.3c0,0.5,0.4,0.9,0.9,0.9s0.9-0.4,0.9-0.9v-5.3
	C344.4,227.8,344,227.4,343.4,227.4z M343.4,218.1c-0.5,0-0.9,0.4-0.9,0.9v5.3c0,0.5,0.4,0.9,0.9,0.9s0.9-0.4,0.9-0.9v-5.3
	C344.4,218.6,344,218.1,343.4,218.1z M348.3,227.4c-0.5,0-0.9,0.4-0.9,0.9v5.3c0,0.5,0.4,0.9,0.9,0.9c0.5,0,0.9-0.4,0.9-0.9v-5.3
	C349.2,227.8,348.8,227.4,348.3,227.4z M348.3,218.1c-0.5,0-0.9,0.4-0.9,0.9v5.3c0,0.5,0.4,0.9,0.9,0.9c0.5,0,0.9-0.4,0.9-0.9v-5.3
	C349.2,218.6,348.8,218.1,348.3,218.1z M352.2,227.4c-0.5,0-0.9,0.4-0.9,0.9v5.3c0,0.5,0.4,0.9,0.9,0.9c0.5,0,0.9-0.4,0.9-0.9v-5.3
	C353.1,227.8,352.7,227.4,352.2,227.4z M352.2,218.1c-0.5,0-0.9,0.4-0.9,0.9v5.3c0,0.5,0.4,0.9,0.9,0.9c0.5,0,0.9-0.4,0.9-0.9v-5.3
	C353.1,218.6,352.7,218.1,352.2,218.1z M356.7,227.4c-0.5,0-0.9,0.4-0.9,0.9v5.3c0,0.5,0.4,0.9,0.9,0.9s0.9-0.4,0.9-0.9v-5.3
	C357.6,227.8,357.2,227.4,356.7,227.4z M356.7,218.1c-0.5,0-0.9,0.4-0.9,0.9v5.3c0,0.5,0.4,0.9,0.9,0.9s0.9-0.4,0.9-0.9v-5.3
	C357.6,218.6,357.2,218.1,356.7,218.1z M360.6,227.4c-0.5,0-0.9,0.4-0.9,0.9v5.3c0,0.5,0.4,0.9,0.9,0.9c0.5,0,0.9-0.4,0.9-0.9v-5.3
	C361.5,227.8,361,227.4,360.6,227.4z M360.6,218.1c-0.5,0-0.9,0.4-0.9,0.9v5.3c0,0.5,0.4,0.9,0.9,0.9c0.5,0,0.9-0.4,0.9-0.9v-5.3
	C361.5,218.6,361,218.1,360.6,218.1z M365.4,227.4c-0.5,0-0.9,0.4-0.9,0.9v5.3c0,0.5,0.4,0.9,0.9,0.9c0.5,0,0.9-0.4,0.9-0.9v-5.3
	C366.3,227.8,365.9,227.4,365.4,227.4z M365.4,218.1c-0.5,0-0.9,0.4-0.9,0.9v5.3c0,0.5,0.4,0.9,0.9,0.9c0.5,0,0.9-0.4,0.9-0.9v-5.3
	C366.3,218.6,365.9,218.1,365.4,218.1z M369.3,227.4c-0.5,0-0.9,0.4-0.9,0.9v5.3c0,0.5,0.4,0.9,0.9,0.9c0.5,0,0.9-0.4,0.9-0.9v-5.3
	C370.2,227.8,369.8,227.4,369.3,227.4z M369.3,218.1c-0.5,0-0.9,0.4-0.9,0.9v5.3c0,0.5,0.4,0.9,0.9,0.9c0.5,0,0.9-0.4,0.9-0.9v-5.3
	C370.2,218.6,369.8,218.1,369.3,218.1z M382.3,227.4c-0.5,0-0.9,0.4-0.9,0.9v5.3c0,0.5,0.4,0.9,0.9,0.9c0.5,0,0.9-0.4,0.9-0.9v-5.3
	C383.3,227.8,382.8,227.4,382.3,227.4z M382.3,218.1c-0.5,0-0.9,0.4-0.9,0.9v5.3c0,0.5,0.4,0.9,0.9,0.9c0.5,0,0.9-0.4,0.9-0.9v-5.3
	C383.3,218.6,382.8,218.1,382.3,218.1z M386.2,227.4c-0.5,0-0.9,0.4-0.9,0.9v5.3c0,0.5,0.4,0.9,0.9,0.9c0.5,0,0.9-0.4,0.9-0.9v-5.3
	C387.1,227.8,386.7,227.4,386.2,227.4z M386.2,218.1c-0.5,0-0.9,0.4-0.9,0.9v5.3c0,0.5,0.4,0.9,0.9,0.9c0.5,0,0.9-0.4,0.9-0.9v-5.3
	C387.1,218.6,386.7,218.1,386.2,218.1z M391.1,227.4c-0.5,0-0.9,0.4-0.9,0.9v5.3c0,0.5,0.4,0.9,0.9,0.9c0.5,0,0.9-0.4,0.9-0.9v-5.3
	C391.9,227.8,391.5,227.4,391.1,227.4z M391.1,218.1c-0.5,0-0.9,0.4-0.9,0.9v5.3c0,0.5,0.4,0.9,0.9,0.9c0.5,0,0.9-0.4,0.9-0.9v-5.3
	C391.9,218.6,391.5,218.1,391.1,218.1z M394.9,227.4c-0.5,0-0.9,0.4-0.9,0.9v5.3c0,0.5,0.4,0.9,0.9,0.9c0.5,0,0.9-0.4,0.9-0.9v-5.3
	C395.9,227.8,395.4,227.4,394.9,227.4z M394.9,218.1c-0.5,0-0.9,0.4-0.9,0.9v5.3c0,0.5,0.4,0.9,0.9,0.9c0.5,0,0.9-0.4,0.9-0.9v-5.3
	C395.9,218.6,395.4,218.1,394.9,218.1z M399.4,227.4c-0.5,0-0.9,0.4-0.9,0.9v5.3c0,0.5,0.4,0.9,0.9,0.9s0.9-0.4,0.9-0.9v-5.3
	C400.3,227.8,399.9,227.4,399.4,227.4z M399.4,218.1c-0.5,0-0.9,0.4-0.9,0.9v5.3c0,0.5,0.4,0.9,0.9,0.9s0.9-0.4,0.9-0.9v-5.3
	C400.3,218.6,399.9,218.1,399.4,218.1z M404,227.7c-0.2-0.2-0.4-0.3-0.7-0.3c-0.5,0-0.9,0.4-0.9,0.9v5.3c0,0.5,0.4,0.9,0.9,0.9
	c0.3,0,0.5-0.1,0.7-0.3V227.7z M404,218.5c-0.2-0.2-0.4-0.3-0.7-0.3c-0.5,0-0.9,0.4-0.9,0.9v5.3c0,0.5,0.4,0.9,0.9,0.9
	c0.3,0,0.5-0.1,0.7-0.3V218.5z"/>
<path class="st36" d="M329.1,216.8h-3.9l-1.9,19.7h5.8V216.8z"/>
<path class="st8" d="M362.6,197.4h-46.2l5.9-12.3h46.2L362.6,197.4z"/>
<path class="st38" d="M404,266.6h-96l-1.8,3.5l97.8,0.2V266.6z"/>
<path class="st35" d="M302.6,278c0.5,0.8,1.2,1.6,2.1,2.4c6.7,5.6,13.8,9.7,13.8,9.7h42.6l0.1-12.1H302.6z"/>
<path class="st38" d="M404,288h-79.2v31.9H404V288z"/>
<path class="st8" d="M404,268.3l-42.4,0.2h-58.3c0,0-5.2,6.3,1.5,11.9c6.7,5.6,13.8,9.7,13.8,9.7H404V268.3z"/>
<path class="st38" d="M404,273.5H301.4c-0.1,2.1,0.6,4.5,3.4,6.9c6.7,5.6,13.8,9.7,13.8,9.7H404V273.5z"/>
<path class="st34" d="M404.5,268.5l-43.1-0.2v0.2H404.5z"/>
<path class="st38" d="M312.1,268.5h-8.8c0,0-5.2,6.3,1.5,11.9c6.7,5.6,13.8,9.7,13.8,9.7h8.8c0,0-7.1-4.1-13.8-9.7
	C307,274.8,312.1,268.5,312.1,268.5z"/>
<path class="st34" d="M310.2,273.5c0.1-2.9,1.9-4.9,1.9-4.9h-8.8c0,0-1.7,2.1-1.9,4.9H310.2z"/>
<path class="st38" d="M311.2,285.4c4.1,2.9,7.3,4.7,7.3,4.7h8.8c0,0-3.2-1.9-7.3-4.7H311.2z"/>
<path class="st34" d="M390.3,172.5h91.6l0.1,0.1c1.9,5.1,10.5,35.9,6.2,97.3v0.4h-97.9V172.5z"/>
<path class="st35" d="M390.3,270.2v-13.1h55.3v-8.4h23.3v-76.2h13l0.1,0.1c1.9,5.1,10.5,35.9,6.2,97.3v0.4L390.3,270.2L390.3,270.2z
	"/>
<path class="st36" d="M390.3,172.5h91.6l0.1,0.1c0.4,1.1,1.1,3.5,2,7.1h-93.6L390.3,172.5L390.3,172.5z"/>
<path class="st35" d="M390.3,175.8H483c0.3,1.1,0.6,2.3,1,3.9h-93.6L390.3,175.8L390.3,175.8z M469.1,204.2h-78.8v5.2h78.8V204.2z"
	/>
<path class="st35" d="M469.1,204.2h-78.8v5.2h78.8V204.2z M390.3,216.8h78.8l1.9,19.7h-80.6V216.8z"/>
<path class="st36" d="M390.3,236.6H471l17.1,33.5l-97.8,0.2V236.6z M469.1,209.4h-78.8v7.4h78.8V209.4z"/>
<path class="st37" d="M454.7,227.4c0.5,0,0.9,0.4,0.9,0.9v5.3c0,0.5-0.4,0.9-0.9,0.9c-0.5,0-0.9-0.4-0.9-0.9v-5.3
	C453.8,227.8,454.2,227.4,454.7,227.4z M454.7,218.1c0.5,0,0.9,0.4,0.9,0.9v5.3c0,0.5-0.4,0.9-0.9,0.9c-0.5,0-0.9-0.4-0.9-0.9v-5.3
	C453.8,218.6,454.2,218.1,454.7,218.1z M450.9,227.4c0.5,0,0.9,0.4,0.9,0.9v5.3c0,0.5-0.4,0.9-0.9,0.9s-0.9-0.4-0.9-0.9v-5.3
	C449.9,227.8,450.3,227.4,450.9,227.4z M450.9,218.1c0.5,0,0.9,0.4,0.9,0.9v5.3c0,0.5-0.4,0.9-0.9,0.9s-0.9-0.4-0.9-0.9v-5.3
	C449.9,218.6,450.3,218.1,450.9,218.1z M446,227.4c0.5,0,0.9,0.4,0.9,0.9v5.3c0,0.5-0.4,0.9-0.9,0.9c-0.5,0-0.9-0.4-0.9-0.9v-5.3
	C445.1,227.8,445.5,227.4,446,227.4z M446,218.1c0.5,0,0.9,0.4,0.9,0.9v5.3c0,0.5-0.4,0.9-0.9,0.9c-0.5,0-0.9-0.4-0.9-0.9v-5.3
	C445.1,218.6,445.5,218.1,446,218.1z M442.1,227.4c0.5,0,0.9,0.4,0.9,0.9v5.3c0,0.5-0.4,0.9-0.9,0.9c-0.5,0-0.9-0.4-0.9-0.9v-5.3
	C441.2,227.8,441.6,227.4,442.1,227.4z M442.1,218.1c0.5,0,0.9,0.4,0.9,0.9v5.3c0,0.5-0.4,0.9-0.9,0.9c-0.5,0-0.9-0.4-0.9-0.9v-5.3
	C441.2,218.6,441.6,218.1,442.1,218.1z M437.6,227.4c0.5,0,0.9,0.4,0.9,0.9v5.3c0,0.5-0.4,0.9-0.9,0.9c-0.5,0-0.9-0.4-0.9-0.9v-5.3
	C436.7,227.8,437.1,227.4,437.6,227.4z M437.6,218.1c0.5,0,0.9,0.4,0.9,0.9v5.3c0,0.5-0.4,0.9-0.9,0.9c-0.5,0-0.9-0.4-0.9-0.9v-5.3
	C436.7,218.6,437.1,218.1,437.6,218.1z M433.7,227.4c0.5,0,0.9,0.4,0.9,0.9v5.3c0,0.5-0.4,0.9-0.9,0.9c-0.5,0-0.9-0.4-0.9-0.9v-5.3
	C432.8,227.8,433.2,227.4,433.7,227.4z M433.7,218.1c0.5,0,0.9,0.4,0.9,0.9v5.3c0,0.5-0.4,0.9-0.9,0.9c-0.5,0-0.9-0.4-0.9-0.9v-5.3
	C432.8,218.6,433.2,218.1,433.7,218.1z M428.9,227.4c0.5,0,0.9,0.4,0.9,0.9v5.3c0,0.5-0.4,0.9-0.9,0.9c-0.5,0-0.9-0.4-0.9-0.9v-5.3
	C427.9,227.8,428.3,227.4,428.9,227.4z M428.9,218.1c0.5,0,0.9,0.4,0.9,0.9v5.3c0,0.5-0.4,0.9-0.9,0.9c-0.5,0-0.9-0.4-0.9-0.9v-5.3
	C427.9,218.6,428.3,218.1,428.9,218.1z M425,227.4c0.5,0,0.9,0.4,0.9,0.9v5.3c0,0.5-0.4,0.9-0.9,0.9c-0.5,0-0.9-0.4-0.9-0.9v-5.3
	C424.1,227.8,424.5,227.4,425,227.4z M425,218.1c0.5,0,0.9,0.4,0.9,0.9v5.3c0,0.5-0.4,0.9-0.9,0.9c-0.5,0-0.9-0.4-0.9-0.9v-5.3
	C424.1,218.6,424.5,218.1,425,218.1z M411.9,227.4c0.5,0,0.9,0.4,0.9,0.9v5.3c0,0.5-0.4,0.9-0.9,0.9c-0.5,0-0.9-0.4-0.9-0.9v-5.3
	C411,227.8,411.4,227.4,411.9,227.4z M411.9,218.1c0.5,0,0.9,0.4,0.9,0.9v5.3c0,0.5-0.4,0.9-0.9,0.9c-0.5,0-0.9-0.4-0.9-0.9v-5.3
	C411,218.6,411.4,218.1,411.9,218.1z M408.1,227.4c0.5,0,0.9,0.4,0.9,0.9v5.3c0,0.5-0.4,0.9-0.9,0.9c-0.5,0-0.9-0.4-0.9-0.9v-5.3
	C407.1,227.8,407.5,227.4,408.1,227.4z M408.1,218.1c0.5,0,0.9,0.4,0.9,0.9v5.3c0,0.5-0.4,0.9-0.9,0.9c-0.5,0-0.9-0.4-0.9-0.9v-5.3
	C407.1,218.6,407.5,218.1,408.1,218.1z M403.2,227.4c0.5,0,0.9,0.4,0.9,0.9v5.3c0,0.5-0.4,0.9-0.9,0.9c-0.5,0-0.9-0.4-0.9-0.9v-5.3
	C402.3,227.8,402.7,227.4,403.2,227.4z M403.2,218.1c0.5,0,0.9,0.4,0.9,0.9v5.3c0,0.5-0.4,0.9-0.9,0.9c-0.5,0-0.9-0.4-0.9-0.9v-5.3
	C402.3,218.6,402.7,218.1,403.2,218.1z M399.3,227.4c0.5,0,0.9,0.4,0.9,0.9v5.3c0,0.5-0.4,0.9-0.9,0.9c-0.5,0-0.9-0.4-0.9-0.9v-5.3
	C398.4,227.8,398.8,227.4,399.3,227.4z M399.3,218.1c0.5,0,0.9,0.4,0.9,0.9v5.3c0,0.5-0.4,0.9-0.9,0.9c-0.5,0-0.9-0.4-0.9-0.9v-5.3
	C398.4,218.6,398.8,218.1,399.3,218.1z M394.8,227.4c0.5,0,0.9,0.4,0.9,0.9v5.3c0,0.5-0.4,0.9-0.9,0.9s-0.9-0.4-0.9-0.9v-5.3
	C393.9,227.8,394.3,227.4,394.8,227.4z M394.8,218.1c0.5,0,0.9,0.4,0.9,0.9v5.3c0,0.5-0.4,0.9-0.9,0.9s-0.9-0.4-0.9-0.9v-5.3
	C393.9,218.6,394.3,218.1,394.8,218.1z M390.3,227.7c0.2-0.2,0.4-0.3,0.7-0.3c0.5,0,0.9,0.4,0.9,0.9v5.3c0,0.5-0.4,0.9-0.9,0.9
	c-0.3,0-0.5-0.1-0.7-0.3V227.7z M390.3,218.5c0.2-0.2,0.4-0.3,0.7-0.3c0.5,0,0.9,0.4,0.9,0.9v5.3c0,0.5-0.4,0.9-0.9,0.9
	c-0.3,0-0.5-0.1-0.7-0.3V218.5z"/>
<path class="st36" d="M465.2,216.8h3.9l1.9,19.7h-5.7V216.8z"/>
<path class="st38" d="M323.2,236.6H471l16.5,32.1L318,246.9L323.2,236.6z"/>
<path class="st38" d="M390.3,266.6h96l1.8,3.5l-97.8,0.2V266.6z"/>
<path class="st35" d="M491.7,278c-0.5,0.8-1.2,1.6-2.1,2.4c-6.7,5.6-13.8,9.7-13.8,9.7h-42.6L433,278H491.7z"/>
<path class="st38" d="M469.5,288h-79.2v31.9h79.2V288z"/>
<path class="st8" d="M390.3,268.3l42.4,0.2H491c0,0,5.2,6.3-1.5,11.9s-13.8,9.7-13.8,9.7h-85.4L390.3,268.3L390.3,268.3z"/>
<path class="st38" d="M390.3,273.5h102.6c0.1,2.1-0.6,4.5-3.4,6.9c-6.7,5.6-13.8,9.7-13.8,9.7h-85.4V273.5z"/>
<path class="st34" d="M389.8,268.5l43.1-0.2l0.1,0.2H389.8z"/>
<path class="st38" d="M482.2,268.5h8.8c0,0,5.2,6.3-1.5,11.9s-13.8,9.7-13.8,9.7h-8.8c0,0,7.1-4.1,13.8-9.7S482.2,268.5,482.2,268.5
	z"/>
<path class="st34" d="M484.1,273.5c-0.1-2.9-1.9-4.9-1.9-4.9h8.8c0,0,1.7,2.1,1.9,4.9H484.1z"/>
<path class="st38" d="M483.1,285.4c-4.1,2.9-7.3,4.7-7.3,4.7h-8.8c0,0,3.2-1.9,7.3-4.7H483.1z"/>
<path class="st8" d="M376.6,257.5h-60.8l6.5-7.7h60.8L376.6,257.5z"/>
<path class="st39" d="M455,300.9h-15.7c-1.1,0-1.9-0.9-1.9-1.9v-1.3h19.6v1.3C456.9,300,456.1,300.9,455,300.9z M455,305.9h-15.7
	c-1.1,0-1.9-0.9-1.9-1.9v-1.3h19.6v1.3C456.9,305.1,456.1,305.9,455,305.9z M455,310.9h-15.7c-1.1,0-1.9-0.9-1.9-1.9v-1.3h19.6v1.3
	C456.9,310.1,456.1,310.9,455,310.9z"/>
<path class="st2" d="M536.6,230.2c-0.2,9.7-0.9,19.5-2.3,29.2c-9.5,2.3-19.5,2.3-29,0c0.2-9.9,0.3-19.8,1.1-29.7
	c0.4-5.2,1-10.5,2.9-15.4c1.5-4.4,4.5-8.1,8.4-10.7c0.5-0.3,0.9-0.5,1.4-0.7c2,2,6.6,3,9.2,2c1.3,1,2.4,2.2,3.3,3.5
	c1.7,2.5,3,5.2,3.7,8.1C536.4,220.9,536.8,225.6,536.6,230.2z"/>
<path class="st40" d="M520.5,177.5c-2.1-1.1-3.3-3.5-3-5.9c0.5-2.1,1.9-3.9,3.7-5c2.1-1.4,4.6-2,7.1-1.5c3.6,0.7,6.7,4.3,6.7,7.6
	C529.8,172.9,524.8,174.5,520.5,177.5z"/>
<path class="st41" d="M514.9,178.6c-1,0.4-1.8,1.1-2.3,2.1c-0.5,1.5,0.2,3,1.5,3.7c1.3,0.7,2.9,0.7,4.3,0.3c4.7-1.1,8.3-4.9,9.1-9.6
	c0.1-0.6,0.5-2.1,0.1-2.6c-0.5-0.9-1.2-0.1-2,0.3L514.9,178.6z"/>
<path class="st42" d="M531.6,208.3c-3.9,0.7-7.9-0.1-11.1-2.3c-0.9-0.6-1.7-1.3-2.5-2.1v-0.9l0.2-0.8c0.7-2.7,1.3-5.5,1.9-8.2
	c0.6-2.5,1.1-5.1,1.7-7.6c2.8,1.7,5.4,3.5,7.8,5.7c-0.1,1.7-0.1,3.5-0.1,5.2c0,1.5,0.1,2.9,0.1,4.4c0,0.8,0.1,1.6,0.2,2.5
	c0.1,0.8,0.1,1.5,0.3,2.3C530.6,207.1,531.2,207.7,531.6,208.3z"/>
<path class="st43" d="M529.7,201.9c-3.7,0.1-7.1-3.3-9.5-7.7c0.6-2.5,1.1-5.1,1.7-7.6c2.8,1.7,5.4,3.6,7.8,5.7
	c-0.1,1.7-0.1,3.5-0.1,5.2C529.6,198.9,529.6,200.4,529.7,201.9z"/>
<path class="st44" d="M534.6,178.7c0.7,2.3,0.1,4.8-1.6,6.5c-0.9-1.7-1.5-3.5-1.6-5.5c-0.1-0.5,0.1-1,0.4-1.4
	c0.4-0.3,0.9-0.4,1.4-0.2C533.6,178.2,534.1,178.8,534.6,178.7z"/>
<path class="st42" d="M533.1,178.7c-0.7,2.5,0.3,5.1,1.1,7.5s1.5,5.2,0.3,7.5c-1.3,2.4-4.1,3.6-6.8,3c-2.6-0.7-4.8-2.6-5.8-5.1
	c-1-2.5-1.2-5.3-0.7-7.9c0.5-2.6,1.3-5.2,2.3-7.7C526.9,174.7,530.6,176.2,533.1,178.7z"/>
<path class="st45" d="M462.4,346.9c0,0,0.3,6.9,6.5,6.5l2.1,24.6l-18.1-28.6L462.4,346.9z"/>
<path class="st2" d="M467.9,378.8l-17.2-27.2c-0.3-0.4-0.1-0.9,0.3-1.2l1.7-1.1l18.2,28.6l-1.7,1.1
	C468.7,379.3,468.2,379.2,467.9,378.8z M465.5,358.5c0.1,0.1,0.2,0.1,0.3,0.1c1.3,0.1,2.5,0.3,3.6,0.9c0.3,0.1,0.6,0,0.7-0.3
	c0.1-0.3,0-0.6-0.3-0.7c-1.3-0.5-2.6-0.9-4-0.9c-0.3,0-0.5,0.2-0.5,0.5C465.3,358.2,465.3,358.4,465.5,358.5z M465.9,361.6
	c0.1,0.1,0.2,0.1,0.3,0.1c1.3,0.1,2.5,0.4,3.6,0.8c0.3,0.1,0.5,0.1,0.7-0.2c0.1-0.3,0-0.6-0.3-0.7c-1.3-0.5-2.6-0.9-4-0.9
	c-0.3,0-0.5,0.2-0.6,0.5v0.1C465.6,361.3,465.7,361.5,465.9,361.6z M466.2,364.7c0.1,0.1,0.2,0.1,0.3,0.1c1.3,0.1,2.5,0.4,3.6,0.9
	c0.3,0.1,0.6,0,0.7-0.3c0.1-0.3,0-0.6-0.3-0.7c-1.3-0.5-2.6-0.9-4-0.9c-0.3,0-0.5,0.2-0.6,0.5C465.9,364.4,466,364.6,466.2,364.7z"
	/>
<path class="st42" d="M521.9,184.6c-0.3-0.4-0.6-0.7-1-1c-0.4-0.3-0.9-0.4-1.3-0.3c-0.6,0.2-1.1,0.7-1.3,1.2
	c-0.6,1.5,0.1,3.3,1.7,3.9c0.7,0.3,1.6,0.3,2.3-0.1C521.9,187.2,521.8,185.9,521.9,184.6z"/>
<path class="st46" d="M504.1,266.5c0,0,4.1,50.6-44.8,79.4l11.3,14.6c0,0,54.6-35.7,53-81.9L504.1,266.5z"/>
<path class="st47" d="M500,295.4c0.8,2.3,1.9,4.4,2.9,6.5c1.3,2.9,2.3,5.8,3.3,8.7c1.2,3.9,2.3,7.7,3.1,11.7
	c8.5-12.6,15-27.6,14.4-43.9l-19.5-12.1C504.1,266.5,505.1,279.2,500,295.4z"/>
<path class="st45" d="M529.2,369.5c0,0,6.2,2.9,8.7-2.7l22.7,9.6l-33.8,2.7L529.2,369.5z"/>
<path class="st2" d="M559.7,379.4l-31.5,2.6c-0.6,0.1-1.1-0.4-1.2-1l-0.1-1.9l33.8-2.7l0.1,1.9C560.8,378.8,560.3,379.3,559.7,379.4
	z M540.9,372.2c0.1-0.1,0.2-0.1,0.2-0.2c0.7-1.1,1.5-2,2.4-2.8c0.2-0.2,0.3-0.5,0.1-0.7c-0.2-0.2-0.5-0.3-0.8-0.1
	c-1.1,0.9-2,1.9-2.7,3.1c-0.1,0.3-0.1,0.6,0.1,0.7C540.5,372.2,540.8,372.2,540.9,372.2z M543.8,373.3l0.2-0.2
	c0.7-1.1,1.5-2,2.4-2.8c0.3-0.2,0.3-0.5,0.1-0.7c-0.2-0.2-0.5-0.3-0.8-0.1c-1.1,0.9-1.9,1.9-2.7,3.1c-0.1,0.3-0.1,0.6,0.2,0.7
	C543.4,373.4,543.6,373.4,543.8,373.3z M546.7,374.4c0.1-0.1,0.2-0.1,0.2-0.2c0.7-1.1,1.5-2,2.4-2.8c0.2-0.1,0.3-0.5,0.1-0.7
	c-0.2-0.2-0.5-0.3-0.8-0.1c-1.1,0.9-1.9,1.9-2.7,3.1c-0.1,0.3-0.1,0.5,0.1,0.7C546.3,374.5,546.5,374.5,546.7,374.4z"/>
<path class="st40" d="M537.4,222c0.7,16.3-0.4,32.6-3.2,48.7c0,0,21.9,48.3,12.3,97.9l-19.7,3.3c0,0,0.3-62.5-23.3-97.9l1.5-33
	l21.1-1.7l3.3-17.5L537.4,222z"/>
<path class="st46" d="M506.1,244.6c-0.1,0-0.3-0.2-0.5-0.7c-0.1-0.3-0.2-0.6-0.3-0.9c-0.1-0.3-0.2-0.7-0.3-1.2
	c0-0.3-0.1-0.5-0.1-0.7l-0.1-0.8l-0.1-0.9c0-0.3-0.1-0.6-0.1-0.9c0-0.3-0.1-0.7-0.1-1v-3.5c0-1.8,0.1-3.6,0.4-5.4
	c0.3-2.1,0.6-4.1,1.1-6.1c0.5-2.2,1.2-4.4,2-6.5c0.9-2.4,2.1-4.7,3.5-6.8c0.9-1.1,1.9-2.1,2.9-2.9c1.1-0.8,2.4-1.4,3.7-1.8
	c0.7-0.2,1.3-0.3,2.1-0.3h1.5l0.5,0.1c1.3,0.2,2.5,0.7,3.6,1.3c1,0.6,1.9,1.3,2.7,2.1c0.2,0.2,0.4,0.4,0.5,0.6l0.5,0.7l0.5,0.7
	c0.1,0.2,0.3,0.5,0.4,0.7c0.5,0.9,0.9,1.7,1.3,2.7c0.3,0.9,0.5,1.7,0.7,2.6c0.3,1.5,0.4,3,0.5,4.5c0,1.1-0.1,2.3-0.1,3.3
	c-0.2,1.8-0.4,2.8-0.6,2.8c-0.2,0-0.3-1-0.5-2.8c-0.1-0.9-0.2-2-0.4-3.2c-0.2-1.4-0.5-2.7-0.9-4.1c-0.5-1.5-1.1-3.1-2.1-4.4
	c-0.1-0.2-0.3-0.3-0.4-0.5l-0.4-0.5l-0.5-0.5l-0.5-0.5c-0.7-0.6-1.4-1.1-2.3-1.5c-0.8-0.4-1.7-0.7-2.6-0.8h-1.3
	c-0.5,0-0.9,0.1-1.3,0.3c-1.9,0.7-3.5,1.9-4.7,3.6c-1.3,1.8-2.3,3.8-2.9,5.9c-0.8,2.1-1.4,4.1-1.9,6.1c-0.5,2-0.9,3.9-1.3,5.7
	c-0.3,1.8-0.5,3.5-0.7,5.1c-0.1,0.8-0.2,1.5-0.3,2.3l-0.1,1c0,0.3,0,0.7-0.1,0.9l-0.1,0.9c0,0.3,0,0.5-0.1,0.9l-0.1,0.8l-0.1,0.7
	c0,0.4-0.1,0.8-0.1,1.2c0,0.3-0.1,0.6-0.1,0.9C506.4,244.4,506.3,244.6,506.1,244.6z"/>
<path class="st42" d="M523.3,228.5v1.7c0,0.6-0.1,1.2-0.1,1.8c0,0.3-0.1,0.6-0.1,0.9s-0.1,0.6-0.1,0.9c-0.1,0.6-0.1,1.3-0.3,1.9
	c-0.1,0.7-0.2,1.3-0.3,1.9l-0.4,2c-0.1,0.7-0.3,1.3-0.5,2l-0.6,2c-0.2,0.7-0.5,1.3-0.7,2.1c-1,2.8-2.1,5.5-3.5,8.2
	c-1.3,2.6-2.9,5.1-4.5,7.6l-1.2,1.7c-0.4,0.5-0.9,1.1-1.3,1.7s-0.9,1.1-1.3,1.6c-0.4,0.5-0.9,1-1.3,1.5l-1.3,1.5
	c-0.4,0.5-0.9,0.9-1.3,1.3l-0.7,0.7l-0.7,0.6l-1.3,1.2c-0.4,0.4-0.9,0.7-1.3,1.1c-0.4,0.3-0.8,0.7-1.2,1.1c-0.8,0.7-1.5,1.3-2.3,1.9
	l-0.1,0.1l-0.7,0.5c-1.8,1.3-3.7,2.3-5.7,3.1c-1.3,0.5-2.5,0.8-3.9,1l0.4-0.5c0.1-0.1,0.3-0.3,0.4-0.5l0.5-0.6
	c0.3-0.4,0.7-0.9,1.1-1.3l1.3-1.6c0.5-0.5,0.9-1.1,1.3-1.7l0.1-0.1c0.5-0.7,1-1.3,1.5-2.1c0.5-0.7,1.1-1.5,1.6-2.3
	c0.3-0.4,0.5-0.8,0.8-1.3c0.3-0.4,0.5-0.9,0.9-1.3l0.8-1.4l0.4-0.7l0.4-0.7c0.3-0.5,0.5-0.9,0.8-1.5l0.8-1.5l0.8-1.6
	c0.3-0.5,0.5-1.1,0.8-1.6c0.3-0.5,0.5-1.1,0.7-1.7c0.3-0.5,0.5-1.1,0.7-1.7c1-2.3,1.9-4.7,2.7-7.2c0.8-2.5,1.5-4.9,2.1-7.3l0.5-1.7
	l0.4-1.7c0.1-0.6,0.3-1.1,0.4-1.7c0.1-0.6,0.3-1.1,0.3-1.7c0.1-0.5,0.2-1.1,0.3-1.6c0.1-0.5,0.2-1.1,0.3-1.6c0-0.3,0.1-0.5,0.1-0.8
	l0.2-0.7c0.1-0.5,0.2-1,0.3-1.5c0.1-0.5,0.2-1,0.3-1.5c0.1-0.5,0.1-0.8,0.2-1.1c3.9,1.7,8.2,1.9,12.2,0.5V228.5z"/>
<path class="st42" d="M497.3,277.4l-0.9,0.6c-1.8,1.3-3.7,2.3-5.7,3.1c-1.3,0.5-2.5,0.8-3.9,1c-1.2,0.1-2.4,0.1-3.6-0.2
	c-1.9-0.4-3.5-1.5-4.6-3c-0.5-0.7-0.3-1.6,0.3-2.1c0.1-0.1,0.3-0.2,0.5-0.3c4.1-1.1,8.3-1.3,12.4-0.6
	C493.6,276.4,495.5,276.8,497.3,277.4z"/>
<path class="st44" d="M537.5,178.4c-4.7,1.1-9.7,0.4-13.9-1.9c0.3,1.1,0.3,2.3,0.1,3.3c-0.4,1.6-1.3,3.1-2.6,4.1
	c-1.6-2.1-2.3-4.7-2.1-7.4c0.1-0.6,0.3-1.1,0.7-1.6c0.3-0.5,0.7-0.9,1.2-1.3c0.9-1,2.1-1.7,3.3-2.3c3.4-1.4,7.3-1.2,10.5,0.6
	c0.3,0.2,0.5,0.5,0.8,0.7C537.1,174.1,537.8,176.3,537.5,178.4z"/>
<path class="st2" d="M284.9,226.3c1,9.7,1.3,19.5,1.1,29.2c-9.2,3.4-19,4.6-28.7,3.5c-1-9.9-2-19.8-2.5-29.6
	c-0.2-5.2-0.3-10.5,1-15.6c1-4.5,3.5-8.6,7.1-11.6c0.4-0.3,0.9-0.7,1.3-0.9c2.3,1.7,6.9,2.3,9.3,0.9c1.4,0.9,2.7,1.9,3.7,3.1
	c2,2.2,3.5,4.8,4.6,7.5C283.5,217.1,284.5,221.7,284.9,226.3z"/>
<path class="st42" d="M277.3,205.3c-2.4,0.7-5,0.9-7.5,0.3c-2.4-0.5-4.6-1.5-6.5-3.1c0-0.2-0.1-0.4-0.1-0.6v-0.3
	c0-0.3,0.1-0.5,0.1-0.8c0.3-2.8,0.7-5.6,0.9-8.3c0.3-2.6,0.5-5.1,0.7-7.7c2.9,1.3,5.8,2.9,8.4,4.7c0.1,1.7,0.3,3.5,0.5,5.2
	c0.2,1.5,0.4,2.9,0.7,4.3c0.1,0.8,0.3,1.6,0.5,2.4c0.2,0.8,0.3,1.5,0.5,2.3C276.2,204.1,276.8,204.7,277.3,205.3z"/>
<path class="st43" d="M274.6,199c-3.1-0.8-6.5-1.5-10.3-6.5c0.3-2.6,0.5-5.1,0.7-7.7c2.9,1.3,5.8,2.9,8.4,4.7
	c0.1,1.7,0.3,3.5,0.5,5.2C274.1,196,274.3,197.5,274.6,199z"/>
<path class="st45" d="M224.2,347.1c0,0,1.1,6.8,7.3,5.6l5.1,24.2L215,350.7L224.2,347.1z"/>
<path class="st2" d="M233.6,378.1l-20.5-24.8c-0.3-0.4-0.3-0.9,0.1-1.2l1.6-1.3l21.6,26.2l-1.6,1.3
	C234.5,378.5,234,378.5,233.6,378.1z M228.7,358.3c0.1,0.1,0.2,0.1,0.3,0.1c1.3-0.1,2.5,0.1,3.7,0.4c0.3,0.1,0.5-0.1,0.7-0.3
	c0.1-0.3-0.1-0.6-0.4-0.7c-1.3-0.3-2.7-0.5-4.1-0.4c-0.3,0-0.5,0.3-0.5,0.6C228.4,358.1,228.5,358.3,228.7,358.3z M229.4,361.3
	c0.1,0.1,0.2,0.1,0.3,0.1c1.3-0.1,2.5,0.1,3.7,0.4c0.3,0.1,0.5-0.1,0.7-0.3c0.1-0.3-0.1-0.6-0.4-0.7c-1.3-0.4-2.7-0.5-4.1-0.4
	c-0.3,0-0.5,0.3-0.5,0.5C229.1,361.1,229.2,361.3,229.4,361.3z M230.1,364.4c0.1,0.1,0.2,0.1,0.3,0.1c1.3-0.1,2.5,0.1,3.7,0.4
	c0.3,0.1,0.5-0.1,0.7-0.3c0.1-0.3-0.1-0.6-0.4-0.7c-1.3-0.3-2.7-0.5-4.1-0.4c-0.3,0-0.5,0.3-0.5,0.6
	C229.8,364.2,229.9,364.3,230.1,364.4z"/>
<path class="st45" d="M294,368.7c0,0,6.5,2.3,8.4-3.7l23.6,7.1l-33.3,6.3L294,368.7z"/>
<path class="st2" d="M325.5,375.2l-31.1,5.9c-0.6,0.1-1.2-0.3-1.3-0.9l-0.3-1.8l33.3-6.3l0.3,1.8
	C326.5,374.6,326.1,375.2,325.5,375.2z M306,370l0.2-0.2c0.5-1.1,1.3-2.1,2.1-3.1c0.2-0.2,0.2-0.5,0-0.7c-0.2-0.2-0.6-0.2-0.8,0
	c-0.9,1-1.7,2.1-2.3,3.3c-0.1,0.3,0,0.6,0.3,0.7C305.6,370.2,305.9,370.2,306,370z M309,370.9l0.2-0.2c0.5-1.1,1.3-2.1,2.1-3.1
	c0.2-0.2,0.2-0.5,0-0.7c-0.2-0.2-0.6-0.2-0.8,0c-0.9,1-1.7,2.1-2.3,3.3c-0.1,0.3-0.1,0.5,0.2,0.7h0.1C308.6,371,308.8,371,309,370.9
	z M312,371.7l0.2-0.2c0.5-1.1,1.3-2.1,2.1-3.1c0.2-0.2,0.2-0.5,0-0.7c-0.2-0.2-0.6-0.2-0.8,0c-0.9,1-1.7,2.1-2.3,3.3
	c-0.1,0.3-0.1,0.5,0.2,0.7C311.6,371.8,311.8,371.8,312,371.7z"/>
<path class="st46" d="M256.7,267.3c0,0,9.5,45.4-35.5,79.8l13,13.1c0,0,50.5-37.6,43.4-83.3L256.7,267.3z"/>
<path class="st47" d="M255.8,294.1c0.7,0.9,1.5,1.8,2.3,2.8c1.9,2.5,3.5,5.2,4.9,8c2.5,4.7,4.5,9.5,6.1,14.6
	c6.6-12.5,10.9-27,8.5-42.5l-20.8-9.7C256.6,267.3,259,278.6,255.8,294.1z"/>
<path class="st40" d="M284.7,218c2.6,16.1,3.5,32.4,2.6,48.7c0,0,27.4,49,23.7,99.4l-19.2,5.6c0,0-6.9-65.8-34.6-98.1l-2.5-33
	l20.8-4.3l1.1-17.8L284.7,218z"/>
<path class="st46" d="M256.2,244.2c-0.1,0-0.3-0.2-0.6-0.6l-0.4-0.8c-0.1-0.3-0.3-0.7-0.4-1.1c-0.1-0.2-0.1-0.5-0.2-0.7l-0.2-0.8
	l-0.2-0.9c-0.1-0.3-0.1-0.6-0.2-0.9l-0.2-1l-0.2-1.1c-0.1-0.7-0.2-1.5-0.3-2.3c-0.1-1.6-0.3-3.5-0.3-5.4c0.1-4.3,0.6-8.7,1.6-13
	c0.5-2.5,1.5-4.9,2.7-7.1c0.7-1.2,1.6-2.3,2.6-3.2c1-0.9,2.2-1.7,3.5-2.3c0.7-0.3,1.3-0.5,2-0.5l0.5-0.1h1.5
	c1.3,0.1,2.5,0.3,3.7,0.9c1.1,0.5,2.1,1.1,3,1.8c0.2,0.2,0.4,0.3,0.6,0.5l0.6,0.6l0.5,0.6c0.2,0.2,0.3,0.4,0.5,0.6
	c0.6,0.8,1.1,1.7,1.5,2.5c0.4,0.8,0.7,1.6,1,2.5c0.5,1.4,0.8,2.9,0.9,4.4c0.1,1.1,0.2,2.2,0.3,3.3c0,1.8-0.1,2.8-0.3,2.9
	c-0.2,0-0.5-0.9-0.8-2.7c-0.2-0.9-0.4-1.9-0.7-3.1c-0.3-1.3-0.8-2.7-1.3-3.9c-0.7-1.5-1.5-2.9-2.6-4.1c-0.1-0.1-0.3-0.3-0.5-0.5
	l-0.5-0.5l-0.5-0.4c-0.1-0.1-0.3-0.3-0.5-0.4c-0.7-0.5-1.5-0.9-2.4-1.3c-0.9-0.3-1.7-0.5-2.7-0.5h-1.1l-0.3,0.1
	c-0.5,0.1-0.9,0.2-1.3,0.4c-1.8,0.9-3.3,2.4-4.3,4.1c-1,1.9-1.8,4.1-2.3,6.2c-0.5,2.2-0.9,4.3-1.2,6.3c-0.3,2.1-0.5,4-0.6,5.8
	c-0.1,1.9-0.1,3.5-0.1,5.1v9.5C256.5,243.9,256.4,244.2,256.2,244.2z"/>
<path class="st40" d="M273.9,168.5c-0.6-1.9-2.1-3.4-3.9-4.1c-1.9-0.7-3.9-0.7-5.8-0.2c-1.9,0.5-3.7,1.7-5.1,3.2
	c-1.3,1.5-2.1,3.5-2.1,5.6c0,3.2,1.9,6.1,3.7,8.7C264.1,176.4,268.6,171.8,273.9,168.5z"/>
<path class="st41" d="M275.8,164.8c0.8-0.7,1.9-1,2.9-1c1.5,0.3,2.5,1.7,2.4,3.2c-0.1,1.5-0.8,2.9-1.9,3.9c-2.1,2.1-4.9,3.5-7.8,3.7
	c-1.7,0.1-3.5-0.1-5.1-0.7c-0.5-0.2-2.1-0.7-2.3-1.2c-0.5-0.9,0.5-1.1,1.3-1.5L275.8,164.8z"/>
<path class="st45" d="M265.4,190.8c-2.7-2.3-4.5-5.5-4.9-9.1c-0.3-2.1,0-4.3,0.7-6.3c0.2-0.4,0.4-0.7,0.7-1.1
	c0.5-0.7,1.1-1.4,1.7-2.1c1.3,1.9,2.3,4,2.9,6.2C267.4,182.6,267,186.9,265.4,190.8z M276.8,176.4c0.9,2.2,0.7,4.8-0.8,6.7
	c-1.1-1.5-1.9-3.3-2.3-5.3c-0.1-0.5-0.1-1,0.2-1.5c0.4-0.3,0.9-0.5,1.3-0.4C275.8,176.2,276.4,176.6,276.8,176.4z"/>
<path class="st42" d="M275.2,175.6c-0.4,2.5,0.9,5,1.9,7.3c1.1,2.3,2.1,5,1.2,7.4c-1.1,2.5-3.7,4.1-6.4,3.8c-2.7-0.4-5.1-2-6.3-4.4
	c-1.3-2.4-1.8-5.1-1.6-7.7c0.2-2.7,0.7-5.3,1.3-7.9C268.6,172.3,272.4,173.3,275.2,175.6z"/>
<path class="st42" d="M264.8,182.8c-0.3-0.3-0.7-0.6-1.1-0.9c-0.4-0.2-0.9-0.3-1.4-0.1c-0.6,0.3-1,0.8-1.1,1.4
	c-0.5,1.6,0.5,3.2,2.1,3.7c0.8,0.2,1.7,0.1,2.3-0.3C265.1,185.3,264.9,184,264.8,182.8z"/>
<path class="st45" d="M277.2,177.5c-3.8,0.3-7.6-0.5-10.9-2.4c0.3,1.1,0.3,2.3,0.1,3.4c-0.4,1.6-1.3,3.1-2.6,4.1
	c-1.6-2.1-2.3-4.7-2.1-7.4c0.1-0.3,0.1-0.6,0.2-0.9c0.5-0.7,1.1-1.4,1.7-2.1c1-1,2.1-1.7,3.4-2.3c3.4-1.5,7.3-1.2,10.5,0.6
	c0.3,0.2,0.5,0.5,0.8,0.7c0.6,0.6,1.1,1.3,1.5,2.1c0.7,1.5,0,3.2-1.5,3.9h-0.1C277.8,177.4,277.5,177.4,277.2,177.5z"/>
<path class="st42" d="M306.4,277c-0.1,0.3-0.5,0.5-1.1,0.5c-0.4,0-0.7,0-1.1-0.1l-0.7-0.1l-0.7-0.1c-0.5-0.1-1.1-0.3-1.7-0.5
	c-0.6-0.2-1.3-0.4-2-0.7s-1.5-0.6-2.3-0.9c-0.8-0.3-1.6-0.7-2.5-1.1c-0.9-0.4-1.7-0.9-2.7-1.4l-1.4-0.8c-0.5-0.3-0.9-0.6-1.4-0.9
	l-1.5-0.9l-0.7-0.5l-0.7-0.5c-0.5-0.3-1-0.7-1.5-1.1l-1.5-1.2c-0.5-0.4-1-0.9-1.5-1.3c-0.5-0.4-1-0.9-1.5-1.3l-1.5-1.4l-1.5-1.5
	c-2-2.1-3.9-4.4-5.6-6.9c-1.7-2.4-3.2-5-4.5-7.6l-0.9-1.9l-0.8-1.9c-0.3-0.6-0.5-1.3-0.7-1.9c-0.3-0.6-0.5-1.3-0.7-1.9
	c-0.2-0.6-0.4-1.3-0.5-1.9c-0.2-0.6-0.3-1.2-0.5-1.8c-0.1-0.3-0.1-0.6-0.2-0.9c-0.1-0.3-0.1-0.6-0.2-0.9c-0.1-0.6-0.2-1.2-0.3-1.7
	c0-0.3-0.1-0.5-0.1-0.8c4.5-1.5,8.7-3.7,12.4-6.6c0.2,0.5,0.3,0.9,0.5,1.4c0.1,0.5,0.3,0.9,0.5,1.3l0.5,1.3l0.5,1.4
	c0.1,0.2,0.2,0.5,0.3,0.7l0.3,0.7l0.5,1.5c0.2,0.5,0.4,1,0.5,1.5c0.2,0.5,0.4,1,0.6,1.5c0.2,0.5,0.4,1,0.6,1.5
	c0.2,0.5,0.4,1,0.7,1.5c0.2,0.5,0.5,1.1,0.7,1.6c0.9,2.1,1.9,4.3,3.1,6.5s2.3,4.3,3.6,6.3l0.9,1.5l0.9,1.4l1,1.4
	c0.3,0.5,0.7,0.9,1,1.3c0.3,0.5,0.7,0.9,1,1.3l1,1.3l0.5,0.6l0.5,0.6l0.9,1.2l1,1.1l0.9,1.1c0.7,0.7,1.2,1.4,1.9,2
	c0.6,0.6,1.1,1.3,1.7,1.8c0.6,0.5,1.1,1.1,1.6,1.6l1.4,1.4c0.4,0.4,0.8,0.9,1.2,1.2c0.2,0.2,0.3,0.4,0.5,0.5l0.5,0.5
	c0.3,0.3,0.5,0.5,0.7,0.9C306.4,276.2,306.5,276.6,306.4,277z"/>
<path class="st42" d="M298.7,275.3c2.3,5,8.1,7.2,13.1,4.9c0.9-0.4,1.7-0.9,2.5-1.6c0.5-0.4,0.6-1.1,0.2-1.6
	c-0.1-0.2-0.4-0.3-0.7-0.4c-3.2-0.9-6.5-1.7-9.7-2.6c-0.9-0.3-1.7-0.4-2.7-0.4C300.4,273.8,299.4,274.4,298.7,275.3z"/>
</svg>
