<svg version="1.1" xmlns="http://www.w3.org/2000/svg" xmlns:xlink="http://www.w3.org/1999/xlink" width="630" height="390" viewBox="0 0 630 390">
<style type="text/css">
	.st0{fill:#EAF1FC;}
	.st1{fill:#F8F8FF;}
	.st2{fill:#E9EDF4;}
	.st3{fill:#D6E0F0;}
	.st4{fill:#ECF7FE;}
	.st5{fill:#CDE4F7;}
	.st6{fill:#FFFFFF;}
	.st7{fill:#FCFBFC;}
	.st8{fill:#E08F73;}
	.st9{fill:#0B2B46;}
	.st10{fill:#FFAE0A;}
	.st11{fill:#FFDA35;}
	.st12{fill:#FFCB24;}
	.st13{fill:#FFEB47;}
	.st14{fill:#FF8500;}
	.st15{fill:#AF7309;}
	.st16{fill:#A97000;}
	.st17{fill:#F4A721;}
	.st18{fill:#F09976;}
	.st19{fill:#E8815F;}
	.st20{fill:#02819F;}
	.st21{fill:#05616B;}
	.st22{fill:#047487;}
	.st23{fill:#F19A77;}
</style>
<path class="st0" d="M315.1,393.5c174,0,315.1-20.2,315.1-45.1c0-24.9-141.1-45.1-315.1-45.1C141.1,303.2,0,323.4,0,348.4
	C0,373.3,141.1,393.5,315.1,393.5z"/>
<path class="st1" d="M573.7,331.4c36-74.7,55.7-217.7-22.2-265.1C500.6,35.2,447.5,75.1,393,77c-42.8,1.4-84-32.4-122.6-42
	C169.3,9.7,10.2,75.4,80.1,331.4C255,330.9,398.8,331.9,573.7,331.4z"/>
<path class="st2" d="M38.4,116.1h115.1v207.7H38.4V116.1z"/>
<path class="st3" d="M46.7,124.6h98.4v40.5H46.7V124.6z M46.7,174.7h98.4v40.5H46.7V174.7z M46.7,224.8h98.4v40.5H46.7V224.8z
	 M46.7,274.8h98.4v40.5H46.7V274.8z M154.4,116.1H37.4c-1.3,0-2.6-0.5-3.5-1.4c-0.9-0.9-1.4-2.2-1.4-3.5v-0.3c0-1.3,0.5-2.6,1.4-3.5
	c0.9-0.9,2.2-1.4,3.5-1.4h116.9c1.3,0,2.6,0.5,3.5,1.4c0.9,0.9,1.4,2.2,1.4,3.5v0.3c0,1.3-0.5,2.6-1.4,3.5
	C156.9,115.6,155.7,116.1,154.4,116.1L154.4,116.1z M154.4,334H37.4c-1.3,0-2.6-0.5-3.5-1.4c-0.9-0.9-1.4-2.2-1.4-3.5v-0.3
	c0-1.3,0.5-2.6,1.4-3.5c0.9-0.9,2.2-1.4,3.5-1.4h116.9c1.3,0,2.6,0.5,3.5,1.4c0.9,0.9,1.4,2.2,1.4,3.5v0.3c0,1.3-0.5,2.6-1.4,3.5
	C156.9,333.4,155.7,334,154.4,334L154.4,334z M40.9,334l-3.8,14.5H46L56.5,334H40.9L40.9,334z M150.9,334l3.8,14.5h-8.9L135.3,334
	H150.9z"/>
<path class="st4" d="M47.2,215.2h6.6v-31.7c-2.1-0.9-4.5-0.9-6.6,0V215.2z"/>
<path class="st2" d="M105.5,57c-5.5,2-2.9,9.6,0.6,13c3.8,3.7,9.7,5.8,13.1,1.8c0.2-0.2,0.4-0.5,0.4-0.9c0-0.3,0-0.7-0.2-0.9
	c-0.2-0.3-0.4-0.5-0.7-0.7c-0.3-0.1-0.6-0.2-0.9-0.2c-2.3,0.1-4.2-0.5-3.3-2.3c0.9-1.7,4.5,1.6,5.9,1.6c3,0,4.2-2.2,3.5-4.1
	c-0.6-1.5-4.7-2.1-3.7-3.4c1.5-1.8,3.6,1,5.1-0.2c2.4-2,2-5.8,0.9-7.1c-0.9-1.1-4.3-2.8-6.9-1.7c-2.5,1-1.7,6.4-2.9,6.5
	c-2.2,0.1-0.4-4.6-2.2-6c-1-0.8-4.1-0.3-4.9,1.7c-0.9,2.6,2.7,7.6,0,8c-2.4,0.3-1-2.5-1.8-4.1C107.4,57.6,106.6,56.6,105.5,57
	L105.5,57z"/>
<path class="st5" d="M88.2,100.4L88.2,100.4c-0.1,0-0.1,0-0.2,0c0,0,0,0-0.1-0.1c0,0,0-0.1,0-0.1c0,0,0-0.1,0-0.1
	c6-18.2,18.3-33.8,34.6-43.9c0,0,0.1,0,0.1,0c0,0,0.1,0,0.1,0c0,0,0.1,0,0.1,0c0,0,0,0,0.1,0.1c0,0,0,0.1,0,0.1c0,0,0,0.1,0,0.1
	c0,0,0,0.1,0,0.1s0,0-0.1,0.1c-16.2,10.1-28.4,25.5-34.4,43.6c0,0,0,0.1-0.1,0.1C88.3,100.4,88.3,100.4,88.2,100.4L88.2,100.4z"/>
<path class="st2" d="M90.1,41.4c-4,4.3,1.7,9.9,6.4,11.4c5.1,1.6,11.3,0.8,12.5-4.3c0.1-0.3,0.1-0.7,0-1c-0.1-0.3-0.3-0.6-0.6-0.8
	c-0.3-0.2-0.6-0.3-0.9-0.3s-0.7,0.1-0.9,0.3c-2.1,1.1-4,1.4-3.9-0.6c0-1.9,4.8-0.6,6-1.2c2.7-1.3,2.7-3.9,1.2-5.2
	c-1.2-1.1-5.2,0.2-4.9-1.3c0.5-2.3,3.7-0.7,4.5-2.5c1.2-2.8-0.8-6-2.4-6.8c-1.2-0.6-5.1-0.6-6.9,1.6c-1.7,2,1.4,6.5,0.3,7.1
	c-1.9,1.1-2.5-3.9-4.6-4.4c-1.3-0.3-3.8,1.6-3.5,3.7c0.3,2.8,5.8,5.6,3.6,7.1c-2,1.4-2.1-1.8-3.4-2.8C92.2,41.1,90.9,40.6,90.1,41.4
	L90.1,41.4z"/>
<path class="st5" d="M94.1,88c-0.1,0-0.1,0-0.2-0.1c0,0-0.1-0.1-0.1-0.1c-2.8-19,1.2-38.3,11.1-54.7c0-0.1,0.1-0.1,0.1-0.1
	c0.1,0,0.1,0,0.2,0c0.1,0,0.1,0.1,0.1,0.1c0,0.1,0,0.1,0,0.2c-9.9,16.3-13.9,35.5-11.1,54.4c0,0,0,0.1,0,0.1c0,0,0,0.1,0,0.1
	c0,0,0,0-0.1,0.1C94.2,88,94.2,88,94.1,88L94.1,88z"/>
<path class="st2" d="M86,51.1c5,3.1,0.9,10-3.3,12.6c-4.5,2.9-10.7,3.7-13.2-0.9c-0.2-0.3-0.2-0.6-0.2-0.9c0-0.3,0.1-0.6,0.4-0.9
	c0.2-0.3,0.5-0.4,0.8-0.5c0.3-0.1,0.6-0.1,1,0c2.3,0.6,4.2,0.3,3.7-1.6c-0.5-1.9-4.8,0.7-6.1,0.4c-2.9-0.6-3.6-3-2.5-4.7
	c0.9-1.4,5-1.1,4.3-2.5c-1.1-2.1-3.7,0.3-5-1.3c-1.9-2.4-0.7-6.1,0.6-7.2c1.1-0.9,4.8-1.9,7.1-0.3c2.2,1.5,0.4,6.6,1.5,6.9
	c2.1,0.6,1.4-4.4,3.3-5.5c1.2-0.6,4.1,0.5,4.4,2.7c0.4,2.8-4.2,6.9-1.6,7.8c2.3,0.8,1.5-2.2,2.6-3.6C83.9,51.3,85,50.5,86,51.1
	L86,51.1z"/>
<path class="st5" d="M94.1,97C94,97,94,97,93.9,97c0,0-0.1-0.1-0.1-0.1c-2.2-18.9-11-36.5-24.8-49.7c0,0-0.1-0.1-0.1-0.2
	c0-0.1,0-0.1,0.1-0.2s0.1-0.1,0.2-0.1c0.1,0,0.1,0,0.2,0.1c13.9,13.2,22.7,30.9,24.9,49.9c0,0,0,0.1,0,0.1s0,0.1,0,0.1
	c0,0,0,0-0.1,0.1C94.2,97,94.2,97,94.1,97L94.1,97z"/>
<path class="st2" d="M84.3,105.9h17.9l2.7-24.6H81.4L84.3,105.9L84.3,105.9z"/>
<path class="st2" d="M105.1,85.7H81.4c-0.2,0-0.3-0.1-0.4-0.2c-0.1-0.1-0.2-0.3-0.2-0.4l-0.3-3.1c0-0.2,0.1-0.3,0.2-0.5
	c0.1-0.1,0.3-0.2,0.5-0.2h24.3c0.1,0,0.2,0,0.3,0.1c0.1,0,0.2,0.1,0.2,0.2c0.1,0.1,0.1,0.1,0.1,0.2c0,0.1,0,0.2,0,0.3l-0.3,3.1
	c0,0.2-0.1,0.3-0.2,0.4C105.4,85.7,105.2,85.7,105.1,85.7L105.1,85.7z"/>
<path class="st6" d="M280.3,220H177.9c-0.3,0-0.7-0.1-1-0.2c-0.3-0.1-0.6-0.3-0.8-0.6c-0.2-0.2-0.4-0.5-0.5-0.8
	c-0.1-0.3-0.2-0.6-0.2-1V68.8c-3.9-55.6,18.4-53.7,53.8-53.7h0c56.1-3.7,53.8,24,53.8,53.7v148.7c0,0.3-0.1,0.7-0.2,1
	c-0.1,0.3-0.3,0.6-0.5,0.8c-0.2,0.2-0.5,0.4-0.8,0.5S280.7,220,280.3,220L280.3,220z"/>
<path class="st3" d="M280.8,222.3H176.2c-0.4,0-0.8-0.1-1.2-0.2c-0.4-0.2-0.7-0.4-1-0.7c-0.3-0.3-0.5-0.6-0.7-1
	c-0.2-0.4-0.2-0.8-0.2-1.2V46.6c0-8.6,3.4-16.9,9.6-23c6.1-6.1,14.4-9.5,23-9.6h45.7c8.6,0,16.9,3.4,23.1,9.6
	c6.1,6.1,9.6,14.4,9.6,23.1v172.6c0,0.4-0.1,0.8-0.2,1.2c-0.2,0.4-0.4,0.7-0.7,1c-0.3,0.3-0.6,0.5-1,0.7
	C281.6,222.2,281.2,222.3,280.8,222.3L280.8,222.3z M176.4,219h104.3V46.6c0-7.8-3.1-15.2-8.6-20.7c-5.5-5.5-13-8.6-20.7-8.6h-45.7
	c-7.8,0-15.2,3.1-20.7,8.6c-5.5,5.5-8.6,12.9-8.6,20.7L176.4,219L176.4,219z"/>
<path class="st3" d="M228.5,221c-0.4,0-0.9-0.2-1.2-0.5c-0.3-0.3-0.5-0.7-0.5-1.2V15.6c0-0.4,0.2-0.9,0.5-1.2
	c0.3-0.3,0.7-0.5,1.2-0.5c0.4,0,0.9,0.2,1.2,0.5c0.3,0.3,0.5,0.7,0.5,1.2v203.7c0,0.4-0.2,0.9-0.5,1.2
	C229.4,220.8,229,221,228.5,221L228.5,221z"/>
<path class="st3" d="M282.3,173.9H174.7c-0.4,0-0.9-0.2-1.2-0.5c-0.3-0.3-0.5-0.7-0.5-1.2c0-0.4,0.2-0.9,0.5-1.2
	c0.3-0.3,0.7-0.5,1.2-0.5h107.5c0.4,0,0.9,0.2,1.2,0.5s0.5,0.7,0.5,1.2c0,0.4-0.2,0.9-0.5,1.2C283.1,173.7,282.7,173.9,282.3,173.9
	L282.3,173.9z M282.3,71.6H174.7c-0.4,0-0.9-0.2-1.2-0.5c-0.3-0.3-0.5-0.7-0.5-1.2c0-0.4,0.2-0.9,0.5-1.2c0.3-0.3,0.7-0.5,1.2-0.5
	h107.5c0.4,0,0.9,0.2,1.2,0.5c0.3,0.3,0.5,0.7,0.5,1.2c0,0.4-0.2,0.9-0.5,1.2S282.7,71.6,282.3,71.6L282.3,71.6z M282.3,122.8H174.7
	c-0.4,0-0.9-0.2-1.2-0.5c-0.3-0.3-0.5-0.7-0.5-1.2c0-0.4,0.2-0.9,0.5-1.2c0.3-0.3,0.7-0.5,1.2-0.5h107.5c0.4,0,0.9,0.2,1.2,0.5
	s0.5,0.7,0.5,1.2c0,0.4-0.2,0.9-0.5,1.2C283.1,122.6,282.7,122.8,282.3,122.8L282.3,122.8z"/>
<path class="st6" d="M472.4,219.1H369.9c-0.3,0-0.7-0.1-1-0.2c-0.3-0.1-0.6-0.3-0.8-0.5c-0.2-0.2-0.4-0.5-0.5-0.8
	c-0.1-0.3-0.2-0.6-0.2-1V67.9c-3.9-55.6,18.4-53.7,53.8-53.7h0c56.1-3.7,53.8,24,53.8,53.7v148.7c0,0.3-0.1,0.7-0.2,1
	c-0.1,0.3-0.3,0.6-0.5,0.8c-0.2,0.2-0.5,0.4-0.8,0.5S472.7,219.1,472.4,219.1L472.4,219.1z"/>
<path class="st3" d="M473.1,222.3H368.5c-0.8,0-1.6-0.3-2.2-0.9c-0.6-0.6-0.9-1.4-0.9-2.2V46.6c0-8.6,3.4-16.9,9.6-23
	c6.1-6.1,14.4-9.5,23-9.6h45.7c8.6,0,16.9,3.4,23.1,9.6c6.1,6.1,9.6,14.4,9.6,23.1v172.6c0,0.4-0.1,0.8-0.2,1.2
	c-0.2,0.4-0.4,0.7-0.7,1s-0.6,0.5-1,0.7S473.5,222.3,473.1,222.3L473.1,222.3z M368.6,219h104.3V46.6c0-7.8-3.1-15.2-8.6-20.7
	c-5.5-5.5-12.9-8.6-20.7-8.6h-45.7c-7.8,0-15.2,3.1-20.7,8.6c-5.5,5.5-8.6,12.9-8.6,20.7L368.6,219z"/>
<path class="st3" d="M420.8,221c-0.4,0-0.9-0.2-1.2-0.5c-0.3-0.3-0.5-0.7-0.5-1.2V15.6c0-0.4,0.2-0.9,0.5-1.2
	c0.3-0.3,0.7-0.5,1.2-0.5c0.4,0,0.9,0.2,1.2,0.5c0.3,0.3,0.5,0.7,0.5,1.2v203.7c0,0.4-0.2,0.9-0.5,1.2S421.2,221,420.8,221
	L420.8,221z"/>
<path class="st3" d="M474.5,173.9H367c-0.4,0-0.9-0.2-1.2-0.5c-0.3-0.3-0.5-0.7-0.5-1.2c0-0.4,0.2-0.9,0.5-1.2
	c0.3-0.3,0.7-0.5,1.2-0.5h107.5c0.4,0,0.9,0.2,1.2,0.5c0.3,0.3,0.5,0.7,0.5,1.2c0,0.4-0.2,0.9-0.5,1.2
	C475.4,173.7,475,173.9,474.5,173.9L474.5,173.9z M474.5,71.6H367c-0.4,0-0.9-0.2-1.2-0.5c-0.3-0.3-0.5-0.7-0.5-1.2
	c0-0.4,0.2-0.9,0.5-1.2c0.3-0.3,0.7-0.5,1.2-0.5h107.5c0.4,0,0.9,0.2,1.2,0.5c0.3,0.3,0.5,0.7,0.5,1.2c0,0.4-0.2,0.9-0.5,1.2
	C475.4,71.4,475,71.6,474.5,71.6L474.5,71.6z M474.5,122.8H367c-0.4,0-0.9-0.2-1.2-0.5c-0.3-0.3-0.5-0.7-0.5-1.2
	c0-0.4,0.2-0.9,0.5-1.2c0.3-0.3,0.7-0.5,1.2-0.5h107.5c0.4,0,0.9,0.2,1.2,0.5c0.3,0.3,0.5,0.7,0.5,1.2c0,0.4-0.2,0.9-0.5,1.2
	C475.4,122.6,475,122.8,474.5,122.8L474.5,122.8z"/>
<path class="st2" d="M542.4,73.5c-5.5,2-2.9,9.6,0.6,13c3.8,3.7,9.7,5.8,13.1,1.8c0.2-0.2,0.4-0.5,0.4-0.9c0-0.3,0-0.7-0.2-0.9
	c-0.2-0.3-0.4-0.5-0.7-0.7c-0.3-0.1-0.6-0.2-0.9-0.2c-2.3,0.1-4.2-0.5-3.3-2.3c0.9-1.7,4.5,1.6,5.9,1.6c3,0,4.2-2.2,3.5-4.1
	c-0.6-1.5-4.7-2.1-3.7-3.4c1.5-1.8,3.6,1,5.1-0.2c2.4-2,2-5.8,0.9-7.1c-0.9-1.1-4.3-2.8-6.9-1.7c-2.5,1-1.7,6.4-2.9,6.5
	c-2.2,0.1-0.4-4.6-2.2-6c-1-0.8-4.1-0.3-4.9,1.7c-1,2.6,2.7,7.6,0,8c-2.4,0.3-1-2.5-1.8-4.1C544.3,74.1,543.5,73.1,542.4,73.5
	L542.4,73.5z"/>
<path class="st5" d="M525.1,116.8L525.1,116.8c-0.1,0-0.1,0-0.2,0c0,0,0,0-0.1-0.1c0,0,0-0.1,0-0.1c0,0,0-0.1,0-0.1
	c6-18.2,18.2-33.7,34.5-43.8c0.1,0,0.1,0,0.2,0c0.1,0,0.1,0.1,0.1,0.1c0,0.1,0,0.1,0,0.2c0,0.1-0.1,0.1-0.1,0.1
	c-16.2,10.1-28.3,25.5-34.3,43.6c0,0,0,0.1-0.1,0.1C525.2,116.8,525.2,116.8,525.1,116.8L525.1,116.8z"/>
<path class="st2" d="M527,57.9c-4,4.3,1.7,9.9,6.4,11.3c5.1,1.6,11.3,0.8,12.4-4.3c0.1-0.3,0.1-0.7,0-1c-0.1-0.3-0.3-0.6-0.6-0.8
	c-0.3-0.2-0.6-0.3-0.9-0.3c-0.3,0-0.7,0.1-0.9,0.3c-2.1,1.1-3.9,1.4-3.9-0.6c0-1.9,4.8-0.6,6-1.2c2.7-1.3,2.7-3.8,1.2-5.2
	c-1.2-1.1-5.1,0.2-4.8-1.3c0.5-2.3,3.6-0.7,4.4-2.5c1.2-2.8-0.8-6-2.4-6.8c-1.2-0.6-5.1-0.6-6.9,1.6c-1.7,2,1.4,6.5,0.3,7.1
	c-1.9,1.1-2.4-3.9-4.6-4.4c-1.3-0.3-3.8,1.6-3.5,3.7c0.3,2.8,5.8,5.6,3.6,7.1c-2,1.4-2.1-1.8-3.4-2.8
	C529.1,57.6,527.8,57.1,527,57.9L527,57.9z"/>
<path class="st5" d="M531,104.5c-0.1,0-0.1,0-0.2-0.1c0,0-0.1-0.1-0.1-0.1c-2.8-19,1.2-38.3,11.1-54.7c0,0,0,0,0.1-0.1
	c0,0,0.1,0,0.1,0c0,0,0.1,0,0.1,0c0,0,0.1,0,0.1,0c0,0,0,0,0.1,0.1c0,0,0,0.1,0,0.1c0,0,0,0.1,0,0.1c0,0,0,0.1,0,0.1
	c-9.9,16.3-13.9,35.5-11.1,54.4c0,0,0,0.1,0,0.1c0,0,0,0.1,0,0.1c0,0,0,0-0.1,0.1C531.1,104.5,531.1,104.5,531,104.5L531,104.5z"/>
<path class="st2" d="M522.9,67.6c5,3.1,0.9,10-3.3,12.6c-4.5,2.9-10.7,3.7-13.2-0.9c-0.2-0.3-0.2-0.6-0.2-0.9c0-0.3,0.1-0.6,0.4-0.9
	c0.2-0.3,0.5-0.4,0.8-0.5c0.3-0.1,0.6-0.1,1,0c2.3,0.6,4.2,0.3,3.7-1.6c-0.5-1.9-4.8,0.6-6.1,0.4c-2.9-0.6-3.6-3-2.5-4.7
	c0.9-1.4,5-1.1,4.3-2.5c-1.1-2.1-3.7,0.3-5-1.3c-1.9-2.4-0.7-6.1,0.6-7.2c1.1-0.9,4.8-1.9,7.1-0.3c2.2,1.5,0.4,6.6,1.5,6.9
	c2.1,0.6,1.4-4.4,3.3-5.5c1.2-0.6,4.1,0.5,4.4,2.7c0.4,2.8-4.2,6.9-1.7,7.8c2.3,0.8,1.5-2.2,2.6-3.6C520.8,67.8,521.9,67,522.9,67.6
	L522.9,67.6z"/>
<path class="st5" d="M531,113.5c-0.1,0-0.1,0-0.2-0.1c0,0-0.1-0.1-0.1-0.1c-2.2-18.9-11-36.5-24.8-49.7c0,0-0.1-0.1-0.1-0.2
	c0-0.1,0-0.1,0.1-0.2c0,0,0.1-0.1,0.2-0.1c0.1,0,0.1,0,0.2,0.1c13.9,13.2,22.7,30.9,24.9,49.9c0,0,0,0.1,0,0.1c0,0,0,0.1,0,0.1
	c0,0,0,0-0.1,0.1C531.1,113.5,531.1,113.5,531,113.5L531,113.5z"/>
<path class="st6" d="M521.2,122.4h18l2.7-24.6h-23.5L521.2,122.4z"/>
<path class="st2" d="M542,102.2h-23.7c-0.2,0-0.3-0.1-0.4-0.2c-0.1-0.1-0.2-0.3-0.2-0.4l-0.3-3.1c0-0.2,0.1-0.3,0.2-0.5
	c0.1-0.1,0.3-0.2,0.5-0.2h24.3c0.1,0,0.2,0,0.3,0.1c0.1,0,0.2,0.1,0.2,0.2c0.1,0.1,0.1,0.1,0.1,0.2c0,0.1,0,0.2,0,0.3l-0.3,3.1
	c0,0.2-0.1,0.3-0.2,0.4C542.3,102.2,542.1,102.2,542,102.2L542,102.2z"/>
<path class="st3" d="M496.4,122.7c-0.2,0-0.3,0.1-0.4,0.2c-0.1,0.1-0.2,0.3-0.2,0.4v1.5c0,0.2,0.1,0.3,0.2,0.4s0.3,0.2,0.4,0.2h57
	c0.1,0,0.2,0,0.2,0c0.1,0,0.1-0.1,0.2-0.1c0.1-0.1,0.1-0.1,0.1-0.2c0-0.1,0-0.1,0-0.2v-1.5c0-0.2-0.1-0.3-0.2-0.4
	c-0.1-0.1-0.3-0.2-0.4-0.2H496.4z"/>
<path class="st2" d="M556.7,196.3h5.7v-32.6c-0.9-0.4-1.9-0.7-2.9-0.7c-1,0-2,0.2-2.9,0.7V196.3z"/>
<path class="st5" d="M539.3,196.1h5v-32.6c-0.8-0.4-1.6-0.7-2.5-0.7s-1.7,0.2-2.5,0.7V196.1z"/>
<path class="st6" d="M576.2,196.3l4.5-2.1L567,164.6c-0.9-0.1-1.8,0.1-2.5,0.4c-0.8,0.4-1.5,1-2,1.7L576.2,196.3z M544.2,196.2h5.7
	v-32.6c-0.9-0.4-1.9-0.7-2.9-0.7s-2,0.2-2.9,0.7V196.2z"/>
<path class="st5" d="M549.9,196.3h6.8v-32.6c-2.2-0.9-4.6-0.9-6.8,0V196.3z"/>
<path class="st3" d="M531,196.4c-0.1,0-0.2,0-0.2,0c-0.1,0-0.1,0.1-0.2,0.1c-0.1,0.1-0.1,0.1-0.1,0.2c0,0.1,0,0.1,0,0.2v1.5
	c0,0.2,0.1,0.3,0.2,0.4c0.1,0.1,0.3,0.2,0.4,0.2h57c0.1,0,0.2,0,0.2,0c0.1,0,0.1-0.1,0.2-0.1c0.1-0.1,0.1-0.1,0.1-0.2
	c0-0.1,0-0.1,0-0.2V197c0-0.2-0.1-0.3-0.2-0.4c-0.1-0.1-0.3-0.2-0.4-0.2H531z"/>
<path class="st0" d="M333,3h2v95h-2V3z"/>
<path class="st3" d="M349.7,118c0-4.4-1.7-8.6-4.8-11.7c-3.1-3.1-7.3-4.8-11.7-4.8s-8.6,1.7-11.7,4.8c-3.1,3.1-4.8,7.3-4.8,11.7
	H349.7z"/>
<path class="st3" d="M339.1,101.6c0,4.8-2.8,8.8-6.1,8.8c-3.4,0-6.1-3.9-6.1-8.8c0-4.8,2.8-8.8,6.1-8.8
	C336.3,92.8,339.1,96.7,339.1,101.6z"/>
<path class="st0" d="M305,3h2v61h-2V3z"/>
<path class="st3" d="M322.6,83.7c0-4.4-1.7-8.6-4.8-11.7c-3.1-3.1-7.3-4.8-11.7-4.8s-8.6,1.7-11.7,4.8c-3.1,3.1-4.8,7.3-4.8,11.7
	H322.6z"/>
<path class="st3" d="M312,67.3c0,4.8-2.8,8.8-6.1,8.8c-3.4,0-6.1-3.9-6.1-8.8s2.8-8.8,6.1-8.8C309.2,58.6,312,62.5,312,67.3z"/>
<path class="st3" d="M319.7,164.1c10.6,0,19.2-8.6,19.2-19.2c0-10.6-8.6-19.2-19.2-19.2s-19.2,8.6-19.2,19.2
	C300.4,155.5,309.1,164.1,319.7,164.1z"/>
<path class="st7" d="M319.7,159.4c8.1,0,14.6-6.5,14.6-14.6c0-8.1-6.5-14.6-14.6-14.6c-8.1,0-14.6,6.5-14.6,14.6
	C305.1,152.9,311.6,159.4,319.7,159.4z"/>
<path class="st3" d="M323.9,154.3l-3.5-9.8c-0.1-0.2-0.2-0.4-0.5-0.5c-0.2-0.1-0.5-0.1-0.7-0.1l-10.4,2.4c-0.2,0.1-0.5,0.2-0.6,0.5
	c-0.1,0.2-0.2,0.5-0.1,0.7c0.1,0.3,0.2,0.5,0.4,0.6c0.2,0.1,0.5,0.2,0.7,0.1l9.5-2.2l3.2,8.9c0.1,0.2,0.2,0.4,0.4,0.5
	c0.2,0.1,0.4,0.2,0.6,0.2c0.1,0,0.2,0,0.3-0.1c0.1,0,0.2-0.1,0.3-0.2c0.1-0.1,0.2-0.2,0.2-0.3c0.1-0.1,0.1-0.2,0.1-0.4
	C324,154.5,324,154.4,323.9,154.3L323.9,154.3z"/>
<path class="st3" d="M319.5,146.9c1.1,0,2-0.9,2-2c0-1.1-0.9-2-2-2c-1.1,0-2,0.9-2,2C317.5,146,318.4,146.9,319.5,146.9z"/>
<path class="st2" d="M272.5,220.5h4.9v28h-4.9V220.5z"/>
<path class="st5" d="M292.8,225h-35.8c-0.4,0-0.8-0.1-1.2-0.3c-0.4-0.2-0.7-0.5-0.9-0.8c-0.2-0.4-0.4-0.8-0.4-1.2
	c0-0.4,0-0.8,0.2-1.2l10.8-24.1c0.2-0.4,0.5-0.8,0.9-1.1s0.9-0.4,1.4-0.4H282c0.5,0,1,0.1,1.4,0.4c0.4,0.3,0.7,0.6,0.9,1.1
	l10.8,24.1c0.2,0.4,0.2,0.8,0.2,1.2c0,0.4-0.2,0.8-0.4,1.2c-0.2,0.4-0.6,0.6-0.9,0.8C293.7,224.9,293.2,225,292.8,225L292.8,225z"/>
<path class="st8" d="M239.4,243.9c-0.8-0.6-1.6-1.3-2.6-2.1c-1-0.8-2.2-1.6-3.5-2.6c-1.2-1-2.8-2-4.2-3.1c-1.5-1.1-3.1-2.3-4.8-3.6
	c-1.7-1.3-3.3-2.6-5.1-4c-1.7-1.5-3.5-2.8-5.1-4.4c-1.6-1.6-3.2-3-4.6-4.6c-1.5-1.6-2.7-3-3.9-4.5c-0.6-0.8-1.2-1.4-1.7-2.1l-0.8-1
	c-0.3-0.3-0.6-0.7-0.8-1c-0.3-0.3-0.5-0.6-0.8-1c-0.3-0.3-0.5-0.6-0.7-1c-0.4-0.6-0.9-1.2-1.2-1.9c-0.8-1.1-1.5-2.3-2.3-3.3
	c-0.3-0.5-0.7-1-1-1.4c-0.3-0.4-0.6-0.8-1-1.2c-0.1-0.2-0.3-0.3-0.5-0.5c-0.1-0.1-0.3-0.3-0.4-0.4l-0.9-0.7
	c-0.5-0.3-1.1-0.6-1.7-0.5c-0.6,0.1-1.2,0.5-1.5,1c-0.2,0.3-0.4,0.6-0.6,1c-0.1,0.2-0.2,0.4-0.2,0.7l-0.1,0.8
	c-0.1,0.6-0.2,1.2-0.3,1.8s0,1.3,0,2.1c0.1,1.7,0.4,3.3,0.9,4.9c0.3,1,0.6,1.8,0.9,2.8c0.1,0.5,0.3,0.9,0.6,1.4
	c0.3,0.5,0.4,1,0.6,1.5c0.2,0.5,0.5,1,0.8,1.4c0.3,0.5,0.6,0.9,0.8,1.4c0.6,1,1.2,2,2,2.9c1.5,2,3.2,3.8,5,5.5c1.9,1.8,3.9,3.5,6,5
	c2.1,1.5,4.3,2.8,6.5,4.1c2.1,1.2,4.3,2.2,6.3,3.1c2,0.9,3.9,1.7,5.8,2.4c1.9,0.7,3.6,1.2,5.2,1.7c1.4,0.5,2.8,0.9,4.3,1.2
	c1.1,0.3,2.1,0.6,3.3,0.7c1.9,0.3,2.9,0.3,3.2-0.1C241.4,246,240.7,245.1,239.4,243.9L239.4,243.9z"/>
<path class="st8" d="M490,250.2c0.8-0.6,1.6-1.3,2.6-2.1c1-0.8,2.2-1.6,3.5-2.6c1.2-1,2.8-2,4.2-3.1s3.1-2.3,4.8-3.6
	c1.7-1.3,3.3-2.6,5.1-4c1.7-1.5,3.5-2.9,5.1-4.5c1.6-1.6,3.2-3.1,4.6-4.7c1.5-1.6,2.7-3.1,3.9-4.5c0.6-0.8,1.2-1.4,1.7-2.2l0.8-1
	c0.3-0.3,0.6-0.7,0.8-1c0.3-0.3,0.5-0.6,0.8-1c0.3-0.3,0.5-0.6,0.7-1c0.4-0.6,0.9-1.3,1.2-1.9c0.8-1.1,1.5-2.3,2.3-3.3
	c0.3-0.5,0.7-1,1-1.4c0.3-0.4,0.6-0.8,1-1.2c0.1-0.2,0.3-0.3,0.5-0.5c0.1-0.1,0.3-0.3,0.4-0.4l0.9-0.7c0.5-0.3,1.1-0.6,1.7-0.5
	c0.6,0.1,1.2,0.5,1.5,1c0.2,0.3,0.4,0.6,0.6,1c0.1,0.2,0.2,0.4,0.2,0.7l0.1,0.8c0.1,0.6,0.2,1.2,0.3,1.8c0.1,0.6,0,1.3,0,2.1
	c-0.1,1.7-0.4,3.3-0.9,4.9c-0.3,1-0.6,1.8-0.9,2.8c-0.1,0.5-0.3,0.9-0.6,1.4c-0.3,0.5-0.4,1-0.6,1.5s-0.5,1-0.8,1.4
	c-0.3,0.5-0.6,0.9-0.8,1.4c-0.6,1-1.2,2-2,2.9c-1.5,2-3.2,3.8-5,5.6c-1.9,1.8-3.9,3.5-6,5c-2.1,1.5-4.3,2.9-6.5,4.1
	c-2.1,1.2-4.3,2.2-6.3,3.1c-2,0.9-3.9,1.7-5.8,2.4c-1.9,0.7-3.6,1.3-5.2,1.7c-1.4,0.5-2.8,0.9-4.3,1.2c-1.1,0.3-2.1,0.6-3.3,0.7
	c-1.9,0.3-2.9,0.3-3.2-0.1C487.9,252.2,488.6,251.3,490,250.2L490,250.2z"/>
<path class="st9" d="M239.9,369.8h-6.1c-0.3,0-0.5-0.1-0.7-0.3c-0.2-0.2-0.3-0.5-0.3-0.7l-2.7-34.2h13.6l-2.7,34.2
	c0,0.3-0.1,0.5-0.3,0.7C240.5,369.7,240.2,369.8,239.9,369.8L239.9,369.8z M492.3,369.8h-6.1c-0.3,0-0.5-0.1-0.7-0.3
	c-0.2-0.2-0.3-0.5-0.3-0.7l-2.7-34.2H496l-2.7,34.2c0,0.3-0.1,0.6-0.3,0.8C492.8,369.7,492.5,369.8,492.3,369.8L492.3,369.8z"/>
<path class="st10" d="M496,309.5H230.1v30.3c0,0.3,0.1,0.5,0.3,0.7c0.2,0.2,0.4,0.3,0.7,0.3h264c0.3,0,0.5-0.1,0.7-0.3
	c0.2-0.2,0.3-0.4,0.3-0.7V309.5z"/>
<path class="st11" d="M363,333.9H496v-94.8c0-1.5-0.6-3-1.7-4.1c-1.1-1.1-2.5-1.7-4.1-1.7H368.8c-0.8,0-1.5,0.1-2.2,0.4
	c-0.7,0.3-1.3,0.7-1.9,1.2c-0.5,0.5-1,1.2-1.3,1.9c-0.3,0.7-0.4,1.4-0.4,2.2V333.9z"/>
<path class="st10" d="M455.9,267.1c0,0.7,0.2,1.3,0.6,1.8c0.4,0.5,0.9,1,1.5,1.2s1.3,0.3,1.9,0.2c0.6-0.1,1.2-0.5,1.7-0.9
	c0.5-0.5,0.8-1.1,0.9-1.7c0.1-0.6,0.1-1.3-0.2-1.9c-0.3-0.6-0.7-1.1-1.2-1.5c-0.5-0.4-1.2-0.6-1.8-0.6c-0.4,0-0.9,0.1-1.3,0.3
	c-0.4,0.2-0.8,0.4-1.1,0.7c-0.3,0.3-0.6,0.7-0.7,1.1C455.9,266.2,455.9,266.6,455.9,267.1L455.9,267.1z M396.6,267.1
	c0,0.7,0.2,1.3,0.6,1.8c0.4,0.5,0.9,1,1.5,1.2s1.3,0.3,1.9,0.2c0.6-0.1,1.2-0.5,1.7-0.9c0.5-0.5,0.8-1.1,0.9-1.7
	c0.1-0.6,0.1-1.3-0.2-1.9c-0.3-0.6-0.7-1.1-1.2-1.5c-0.5-0.4-1.2-0.6-1.8-0.6c-0.4,0-0.9,0.1-1.3,0.3c-0.4,0.2-0.8,0.4-1.1,0.7
	c-0.3,0.3-0.6,0.7-0.7,1.1C396.7,266.2,396.6,266.6,396.6,267.1L396.6,267.1z"/>
<path class="st11" d="M363,333.9H230.1v-94.8c0-1.5,0.6-3,1.7-4.1c1.1-1.1,2.5-1.7,4.1-1.7h121.4c1.5,0,3,0.6,4.1,1.7
	c1.1,1.1,1.7,2.5,1.7,4.1L363,333.9L363,333.9z"/>
<path class="st12" d="M362.7,236.3c-0.5,17.4-0.5,34.8-0.3,52.1c0,1.1,2,1.1,2,0c-0.2-17.4-0.6-34.7-0.7-52.1
	C363.7,235.7,362.7,235.7,362.7,236.3L362.7,236.3z M230.1,289.8H496V321H230.1V289.8z"/>
<path class="st10" d="M363.8,298c-0.1-2,0.1-4.3-0.6-6.2c0,0,0-0.1-0.1-0.1c0,0-0.1,0-0.1,0c0,0-0.1,0-0.1,0c0,0-0.1,0.1-0.1,0.1
	c-0.7,1.8-0.5,3.9-0.6,5.8c-0.1,2.5-0.1,5.1-0.2,7.6c0,2.6-0.5,5.7,0,8.3c0,0.2,0.2,0.4,0.3,0.6c0.2,0.1,0.4,0.2,0.6,0.2
	s0.4-0.1,0.6-0.2c0.2-0.1,0.3-0.3,0.3-0.6c0.5-2.6,0-5.7,0-8.3"/>
<path class="st11" d="M359.2,314.4H223.6c-1,0-2,0.4-2.7,1.1c-0.7,0.7-1.1,1.7-1.1,2.7v13c0,1,0.4,2,1.1,2.7
	c0.7,0.7,1.7,1.1,2.7,1.1h135.7c1,0,2-0.4,2.7-1.1c0.7-0.7,1.1-1.7,1.1-2.7v-13c0-1-0.4-2-1.1-2.7
	C361.2,314.8,360.3,314.4,359.2,314.4L359.2,314.4z"/>
<path class="st13" d="M245.6,298c0-9.9-7.5-17.9-16.6-17.2c-7.8,0.6-14,7.7-14.4,16.4c-0.2,4.4,1.1,8.7,3.8,12.2
	c0.6,0.7,1,1.5,1.2,2.4c0.2,0.9,0.3,1.8,0.1,2.7c-0.5,3.4,1.8,6.5,4.9,6.5h10.7c3.1,0,5.4-3.1,4.9-6.5c-0.1-0.9-0.1-1.8,0.1-2.7
	c0.2-0.9,0.6-1.7,1.2-2.4C244.2,306.1,245.6,302.1,245.6,298L245.6,298z"/>
<path class="st10" d="M270.3,267.1c0,0.7-0.2,1.3-0.6,1.8c-0.4,0.5-0.9,1-1.5,1.2s-1.3,0.3-1.9,0.2c-0.6-0.1-1.2-0.5-1.7-0.9
	c-0.5-0.5-0.8-1.1-0.9-1.7c-0.1-0.6-0.1-1.3,0.2-1.9c0.3-0.6,0.7-1.1,1.2-1.5c0.5-0.4,1.2-0.6,1.8-0.6c0.4,0,0.9,0.1,1.3,0.3
	c0.4,0.2,0.8,0.4,1.1,0.7c0.3,0.3,0.6,0.7,0.7,1.1C270.2,266.2,270.3,266.6,270.3,267.1L270.3,267.1z"/>
<path class="st10" d="M326.2,270.4c1.8,0,3.3-1.5,3.3-3.4c0-1.9-1.5-3.4-3.3-3.4s-3.3,1.5-3.3,3.4
	C322.9,268.9,324.4,270.4,326.2,270.4z"/>
<path class="st11" d="M366.9,314.4h135.7c1,0,2,0.4,2.7,1.1c0.7,0.7,1.1,1.7,1.1,2.7v13c0,1-0.4,2-1.1,2.7c-0.7,0.7-1.7,1.1-2.7,1.1
	H366.9c-1,0-2-0.4-2.7-1.1c-0.7-0.7-1.1-1.7-1.1-2.7v-13c0-1,0.4-2,1.1-2.7C364.9,314.8,365.8,314.4,366.9,314.4L366.9,314.4z"/>
<path class="st13" d="M480.5,298c0-9.9,7.5-17.9,16.6-17.2c7.8,0.6,14,7.7,14.4,16.4c0.2,4.4-1.1,8.7-3.8,12.2
	c-0.6,0.7-1,1.5-1.2,2.4c-0.2,0.9-0.3,1.8-0.1,2.7c0.5,3.4-1.8,6.5-4.9,6.5h-10.7c-3.1,0-5.4-3.1-4.9-6.5c0.1-0.9,0.1-1.8-0.1-2.7
	c-0.2-0.9-0.6-1.7-1.2-2.4C481.8,306.2,480.5,302.1,480.5,298L480.5,298z"/>
<path class="st14" d="M424,312.7c0,0-7-5.9-4.5-14.5c2.5-8.6,14.2-15.3,28.2-12.6s25.1,17.5,26.2,27.1H424z"/>
<path class="st15" d="M470.9,293.4c2.4-2.2,5.5-3.4,8.8-3.4l-2.2,8.9L470.9,293.4z M463.1,293.7l-3.8-5.8c0,0-6.1,4.9-3.9,10.9
	C457.5,304.9,463.1,293.7,463.1,293.7L463.1,293.7z"/>
<path class="st14" d="M456.7,295.5c0,0-7.6,5.6-6.8,11.6c0.7,6,9.1,7.1,20.9,6.5c11.8-0.6,10.1-8.5,9.6-10.8
	C480,300.5,471.6,284,456.7,295.5z"/>
<path class="st16" d="M457.8,299.4c0.3,0.8,0.9,1.5,1.7,2c0.7,0.5,1.6,0.7,2.5,0.7c3.4,0.2,3.3-2.4,3.3-2.4
	c-0.5,0.5-1.1,0.9-1.7,1.2c-0.7,0.3-1.4,0.4-2.1,0.4c-0.7,0-1.4-0.2-2-0.5C458.8,300.4,458.2,299.9,457.8,299.4z"/>
<path class="st17" d="M462.7,303.9c0.7-0.5,1.5-0.8,2.3-1c0.8-0.2,1.7-0.2,2.5,0c3.1,0.5,4,2.3,4.2,3c0.2,0.8-1.1,3.6-5,3
	C463,308.4,460.8,305.5,462.7,303.9z"/>
<path class="st16" d="M469,299.9c0.3,0.8,0.9,1.5,1.7,2c0.8,0.5,1.6,0.7,2.5,0.7c3.4,0.2,3.3-2.5,3.3-2.5c-0.5,0.5-1.1,0.9-1.8,1.2
	c-0.7,0.3-1.4,0.4-2.1,0.4c-0.7,0-1.4-0.2-2-0.5S469.4,300.4,469,299.9L469,299.9z M466.1,303.5c0.8-0.1,1.7,0,2.4,0.4
	c0.7,0.5-1.4,1.9-1.4,1.9S464.8,304.1,466.1,303.5z"/>
<path class="st17" d="M454,298.1c0,0-10.1,9.2,2.1,14.7C456,312.8,448,308,454,298.1z"/>
<path class="st15" d="M437.4,310.7c8-1.1,10.1-2.3,11.1,0.8c1,3.1-18.1,7.6-24.5,1.3c-6.4-6.3-4.9-13-4.9-13
	S422.6,312.8,437.4,310.7L437.4,310.7z"/>
<path class="st9" d="M96.4,348.4l24.8,30l-5.9-27.6c-7,1.4-8.2-6.4-8.2-6.4L96.4,348.4L96.4,348.4z"/>
<path class="st6" d="M113.5,363.5c0,0.2,0.1,0.4,0.3,0.6c0.1,0.1,0.2,0.1,0.3,0.1c1.4-0.1,2.8,0.1,4.2,0.4c0.3,0.1,0.7-0.1,0.8-0.4
	c0.1-0.3-0.1-0.7-0.4-0.8c-1.5-0.4-3.1-0.6-4.6-0.5C113.8,362.8,113.5,363.1,113.5,363.5L113.5,363.5z M112.7,360
	c0,0.2,0.1,0.4,0.3,0.6c0.1,0.1,0.2,0.1,0.3,0.1c1.4-0.1,2.8,0.1,4.2,0.4c0.3,0.1,0.6-0.1,0.8-0.4v-0.1c0.1-0.3-0.1-0.7-0.4-0.8
	c-1.5-0.5-3-0.6-4.6-0.6C112.9,359.4,112.7,359.7,112.7,360L112.7,360z M111.9,356.5c0,0.2,0.1,0.4,0.3,0.5c0.1,0.1,0.2,0.1,0.3,0.1
	c1.4-0.1,2.8,0.1,4.2,0.4c0.3,0.1,0.7-0.1,0.8-0.4c0.1-0.3-0.1-0.7-0.4-0.8c-1.5-0.5-3-0.6-4.6-0.6
	C112.2,355.9,111.9,356.2,111.9,356.5L111.9,356.5z M117.8,379.7l-23.5-28.4c-0.3-0.5-0.3-1.1,0.2-1.5l1.8-1.5l24.8,30l-1.8,1.5
	C118.9,380.2,118.3,380.1,117.8,379.7L117.8,379.7z"/>
<path class="st9" d="M182.3,377.2l38.8,1l-24.7-13.7c-3.5,6.2-10.2,2.1-10.2,2.1L182.3,377.2z"/>
<path class="st6" d="M193.6,218.6c-5.6,9.6-12.1,18.5-18.8,27.3c-10.7-3.2-20.4-8.9-28.4-16.5c5.7-9.6,11.6-19.2,18-28.5
	c3.3-4.8,7-9.6,11.5-13.4c4.2-3.4,9.1-5.7,14.3-5.7c0.6,0,1.2,0,1.8,0.1c0.8,3.1,4.7,6.7,7.8,7.2c0.7,1.7,1.1,3.5,1.3,5.3
	c0.3,3.3,0,6.7-1,10C198.8,209.5,196.3,214.1,193.6,218.6L193.6,218.6z M204.9,374.1c0.2,0.1,0.5,0.2,0.7,0.1c0.1,0,0.2-0.1,0.3-0.2
	c0.8-1.1,1.9-2.1,3.1-2.9c0.3-0.2,0.3-0.6,0.2-0.9c-0.2-0.3-0.6-0.3-0.8-0.2c-1.3,0.8-2.5,1.9-3.5,3.2
	C204.7,373.5,204.7,373.8,204.9,374.1z M201.8,372.5c0.2,0.1,0.5,0.2,0.7,0.1c0.1,0,0.2-0.1,0.3-0.2c0.9-1.1,1.9-2.1,3.1-2.9
	c0.3-0.2,0.3-0.6,0.1-0.9c-0.2-0.2-0.6-0.3-0.8-0.1c-1.3,0.8-2.5,1.9-3.5,3.2C201.5,371.8,201.5,372.2,201.8,372.5L201.8,372.5
	L201.8,372.5z M198.6,370.9c0.2,0.1,0.5,0.1,0.7,0.1c0.1,0,0.2-0.1,0.3-0.2c0.9-1.1,1.9-2.1,3.1-2.9c0.3-0.1,0.4-0.6,0.2-0.8
	c-0.1-0.3-0.6-0.4-0.8-0.2c0,0-0.1,0-0.1,0.1c-1.3,0.8-2.5,1.9-3.5,3.2C198.4,370.2,198.4,370.7,198.6,370.9
	C198.6,370.8,198.6,370.8,198.6,370.9L198.6,370.9z M219.8,381.5l-36.3-1c-0.7,0-1.2-0.6-1.2-1.3l0.1-2.1l38.8,1l-0.1,2.1
	C221.1,380.9,220.5,381.5,219.8,381.5L219.8,381.5z"/>
<path class="st18" d="M200.7,191.4c0.3-0.8,0.7-1.7,1-2.4c0.3-0.8,0.8-1.7,1.2-2.5c0.8-1.5,1.5-3,2.4-4.4c1-1.7,2.1-3.5,3.1-5.1
	c-1.2-3.5-2.6-6.9-4.5-10.2c-2,2.1-3.9,4.4-6,6.5c-2.1,2.4-4.4,4.7-6.6,7l-0.7,0.7c-0.1,0.1-0.1,0.2-0.2,0.3
	c-0.1,0.1-0.3,0.4-0.3,0.6c0.3,1.2,0.8,2.4,1.3,3.5c0.7,1.4,1.6,2.7,2.6,3.9c1.9,2.2,4.4,3.9,7.1,4.8
	C201.1,193.2,201,192.3,200.7,191.4L200.7,191.4z"/>
<path class="st19" d="M205.3,182.1c1-1.7,2.1-3.5,3.1-5.1c-1.2-3.5-2.6-6.9-4.5-10.2c-2,2.1-3.9,4.4-6,6.5c0,7.2,2.8,10.2,5,13.1
	C203.8,185.1,204.5,183.6,205.3,182.1z"/>
<path class="st20" d="M202.4,161.3c0.2-3.7,0.3-7.5,2.6-10.5c1.4-1.9,3.4-3.2,5.7-3.7c2.3-0.5,4.6-0.3,6.8,0.6
	c2.1,0.8,3.9,2.3,5.2,4.2c1.2,1.9,1.5,4.4,0.8,6.5C216.2,157.6,209,158.7,202.4,161.3L202.4,161.3z"/>
<path class="st21" d="M213.7,154.7c-1-0.1-2.1-0.6-2.2,0.6c-0.1,0.7,1,2.1,1.3,2.7c1.1,1.7,2.5,3.1,4.2,4.2c2.9,1.8,6.3,2.5,9.6,2
	c1.7-0.2,3.3-1,4.4-2.2c1-1.3,1.2-3.5,0-4.6c-0.9-0.8-2.1-1-3.4-1.1C222.9,155.6,218.3,155.2,213.7,154.7L213.7,154.7z"/>
<path class="st9" d="M219.5,166.2c0.4,0.3,0.6,1.1,1,1.4c-0.7,2.7-2.7,4.8-5.3,5.6c0.1-2.2,0.6-4.4,1.5-6.4c0.3-0.5,0.6-1.1,1.2-1.2
	C218.5,165.5,219.1,165.7,219.5,166.2L219.5,166.2z M209.6,162.1c-1.9,4.4-5.2,8.2-9.3,10.6c-1-3.9-0.3-8.2,1.7-11.7
	c1.2-2.1,3-3.9,5-5.3c0.4-0.2,0.9-0.4,1.4-0.6c1-0.3,1.9-0.6,2.9-0.7C211.2,157.2,210.7,159.7,209.6,162.1z"/>
<path class="st18" d="M211.7,157.5c-2.4,2-4.7,3.9-6.7,6.3c-2.1,2.4-3.4,5.2-3.9,8.2c-0.5,3.1,0.6,6.2,2.8,8.4c2.2,2.1,6,2.7,8.5,1
	c2.6-1.7,3.4-4.7,3.9-7.7s1.2-6,3.3-8.1C218.6,161.6,215.9,158.1,211.7,157.5z"/>
<path class="st18" d="M203.3,168.9c-1.9-0.2-3.3-1.9-3-3.7c0.1-0.9,0.6-1.8,1.3-2.4c0.6-0.5,1.2-0.6,2-0.6c0.5,0.2,0.9,0.6,1.2,1
	c0.2,0.5,0.3,1,0.4,1.5C204.4,166.1,203.8,167.5,203.3,168.9L203.3,168.9z"/>
<path class="st9" d="M225.4,166.6c0.2-1,0.2-1.9,0.1-2.9c-0.1-0.4-0.1-0.8-0.3-1.1c-1.7-3.9-5.1-6.7-9.2-7.8
	c-1.5-0.3-3.2-0.4-4.7-0.3c-1,0.1-2,0.3-2.9,0.7c-0.3,0.3-0.6,0.4-0.8,0.7c-2,2.3-3.1,5.2-3.2,8.2c1.9-0.1,3.7-0.8,5.3-2
	c1-0.8,1.8-1.9,2.2-3.2c1.8,3.9,4.7,7.3,8.4,9.7c1.7,1,3.7,0.5,4.8-1.2C225.1,167.3,225.3,167,225.4,166.6L225.4,166.6z"/>
<path class="st22" d="M167.5,264.9c8,51.7-49.2,94.2-49.2,94.2l-14.7-14.9c51.1-38.9,40.4-90.3,40.4-90.3L167.5,264.9z"/>
<path class="st21" d="M143.9,254l23.6,10.9c2.9,18.7-2.8,36.1-11.1,50.7c-4.3-10.7-9.3-21.3-13.4-32
	C146.5,266.4,143.9,254,143.9,254L143.9,254z"/>
<path class="st20" d="M193.5,207.4L165.3,219l-9.8-5.6c0,0-15.8,31.2-10.9,47.8c36,27.6,39.3,111.1,39.3,111.1l21.8-6.4
	c4.2-57-26.9-112.6-26.9-112.6c1.2-16,19.5-43.2,19.5-43.2L193.5,207.4L193.5,207.4z"/>
<path class="st22" d="M156.3,214.9c0.3-0.2,0.4-0.5,0.6-0.8c0.3-0.3,0.6-0.7,0.8-1.1c0.1-0.2,0.3-0.4,0.4-0.7
	c0.1-0.3,0.3-0.4,0.5-0.7l0.6-0.8c0.2-0.3,0.3-0.5,0.6-0.8c0.2-0.3,0.4-0.6,0.6-1c0.3-0.3,0.4-0.6,0.7-1c0.4-0.7,1-1.3,1.5-2.1
	c1.1-1.4,2.2-2.9,3.6-4.6c1.4-1.7,2.8-3.2,4.5-4.9c1.7-1.7,3.5-3.3,5.4-4.9c1.9-1.7,4-3,6.3-4.2c2.1-1,4.4-1.2,6.7-0.9
	c0.5,0.1,1,0.3,1.5,0.6l0.3,0.2l0.3,0.2c0.1,0.1,0.3,0.1,0.3,0.2l0.3,0.3c0.8,0.6,1.5,1.4,2.1,2.2c0.6,0.8,1,1.8,1.3,2.8
	c0.1,0.2,0.1,0.5,0.2,0.7c0.1,0.2,0.1,0.5,0.2,0.7c0.1,0.2,0.1,0.5,0.1,0.7c0.1,0.2,0.1,0.5,0.1,0.7c0.1,1.9,0,3.7-0.4,5.5
	c-0.4,1.5-0.9,3-1.5,4.5c-0.5,1.3-1,2.4-1.5,3.3c-0.8,1.8-1.3,2.9-1.1,3c0.2,0.1,1-0.7,2.1-2.4c0.6-0.8,1.3-1.9,2.1-3.2
	c0.8-1.5,1.5-3,2.1-4.6c0.3-1,0.6-1.9,0.8-2.9c0.2-1.1,0.3-2.2,0.3-3.4v-0.9c0-0.3-0.1-0.6-0.1-0.8c0-0.2-0.1-0.6-0.2-1
	c-0.1-0.3-0.1-0.6-0.2-1c-0.3-1.3-0.8-2.6-1.5-3.7c-0.7-1.2-1.7-2.4-2.8-3.4c-0.2-0.1-0.3-0.3-0.4-0.3c-0.1-0.1-0.3-0.3-0.6-0.3
	c-0.2-0.1-0.3-0.2-0.5-0.3l-0.6-0.3c-0.7-0.3-1.4-0.6-2.1-0.8c-1.5-0.4-3.1-0.6-4.6-0.3c-1.6,0.1-3.1,0.6-4.6,1.1
	c-2.7,1.2-5.2,2.8-7.4,4.6c-2,1.7-3.9,3.5-5.7,5.3c-1.7,1.8-3.2,3.6-4.6,5.3c-1.2,1.6-2.4,3.3-3.5,5.1c-0.4,0.8-1,1.5-1.3,2.4
	c-0.1,0.4-0.3,0.8-0.6,1.1l-0.5,1c-0.1,0.3-0.3,0.6-0.4,1c-0.1,0.3-0.3,0.6-0.3,1c-0.1,0.3-0.3,0.6-0.3,0.9l-0.3,0.8
	c-0.2,0.5-0.3,1-0.4,1.3l-0.2,1c-0.1,0.6,0,0.9,0.1,1C155.6,215.5,155.9,215.3,156.3,214.9L156.3,214.9z"/>
<path class="st18" d="M194.3,254.1l-9.6-13.4c-3.2-4.5-4.2-10.1-2.8-15.4l3.9-14.2l-15.6-11.7c0,0-5.9,30.1-0.8,37.7
	c7.3,10.8,22.6,26,22.6,26s2.2,2.9,4.2,5.6c2,2.7,1.7,0.6,5.6-4.3c2.4-3,4.3-3.9,1.4-4.5c-2.4-0.6-7.5-4.8-9.4-6.3"/>
<path class="st23" d="M176.6,238.5c0.2,0.4,0.5,0.9,0.7,1.3l0.8,1.3l1.5,2.5l1.5,2.5l1.5,2.4l1.5,2.3c0.5,0.8,1,1.5,1.5,2.2l3.1,4.2
	l0.7,1c0.2,0.3,0.5,0.7,0.8,1l1.5,1.9l1.5,1.8l0.8,0.9c0,2.9,1.2,5.7,3.2,7.8c2.4,2.4,6,3.4,9.2,2.6c1.1-0.3,2.1-0.9,2.5-2
	c0.3-1.2-0.4-2.5-1.2-3.5c-0.8-1-1.9-1.7-2.4-2.9c-0.5-1.2-0.4-2.8,0.7-3.3c0.7-0.3,1.7-0.1,1.9-0.8c0.1-0.4-0.1-0.8-0.4-1.1
	c-0.3-0.2-0.8-0.3-1.2-0.4l-5.5-0.9"/>
<path class="st9" d="M619.9,345.6l-24.8,30L601,348c7,1.4,8.2-6.4,8.2-6.4L619.9,345.6L619.9,345.6z"/>
<path class="st6" d="M602.8,360.7c0,0.2-0.1,0.4-0.3,0.6c-0.1,0.1-0.2,0.1-0.3,0.1c-1.4-0.1-2.8,0.1-4.2,0.4
	c-0.3,0.1-0.7-0.1-0.8-0.4c-0.1-0.3,0.1-0.7,0.4-0.8c1.5-0.4,3.1-0.6,4.6-0.5C602.5,360.1,602.8,360.3,602.8,360.7L602.8,360.7z
	 M603.6,357.2c0,0.2-0.1,0.4-0.3,0.6c-0.1,0.1-0.2,0.1-0.3,0.1c-1.4-0.1-2.8,0.1-4.2,0.4c-0.3,0.1-0.6-0.1-0.8-0.4v-0.1
	c-0.1-0.3,0.1-0.7,0.4-0.8c1.5-0.5,3-0.6,4.6-0.6C603.4,356.6,603.6,356.9,603.6,357.2L603.6,357.2z M604.5,353.8
	c0,0.2-0.1,0.4-0.3,0.5c-0.1,0.1-0.2,0.1-0.3,0.1c-1.4-0.1-2.8,0.1-4.2,0.4c-0.3,0.1-0.7-0.1-0.8-0.4c-0.1-0.3,0.1-0.7,0.4-0.8
	c1.5-0.5,3-0.6,4.6-0.6C604.2,353.1,604.5,353.4,604.5,353.8L604.5,353.8z M598.5,376.9l23.5-28.4c0.3-0.5,0.3-1.1-0.2-1.5l-1.8-1.5
	l-24.8,30l1.8,1.5C597.5,377.4,598.1,377.4,598.5,376.9L598.5,376.9z"/>
<path class="st9" d="M534,374.4l-38.8,1l24.7-13.7c3.5,6.2,10.2,2.1,10.2,2.1L534,374.4z"/>
<path class="st6" d="M522.8,215.9c5.6,9.6,12.1,18.5,18.8,27.3c10.7-3.2,20.4-8.9,28.4-16.5c-5.7-9.6-11.6-19.2-18-28.5
	c-3.3-4.8-7-9.6-11.5-13.4c-4.2-3.4-9.1-5.7-14.3-5.7c-0.6,0-1.2,0-1.8,0.1c-0.8,3.1-4.7,6.7-7.8,7.2c-0.7,1.7-1.1,3.5-1.3,5.3
	c-0.3,3.3,0,6.7,1,10C517.6,206.7,520.1,211.4,522.8,215.9L522.8,215.9z M511.4,371.4c-0.2,0.1-0.5,0.2-0.7,0.1
	c-0.1,0-0.2-0.1-0.3-0.2c-0.8-1.1-1.9-2.1-3.1-2.9c-0.3-0.2-0.3-0.6-0.2-0.9c0.2-0.3,0.6-0.3,0.8-0.2c1.3,0.8,2.5,1.9,3.5,3.2
	C511.7,370.7,511.7,371.1,511.4,371.4z M514.5,369.7c-0.2,0.1-0.5,0.2-0.7,0.1c-0.1,0-0.2-0.1-0.3-0.2c-0.9-1.1-1.9-2.1-3.1-2.9
	c-0.3-0.2-0.3-0.6-0.1-0.9c0.2-0.2,0.6-0.3,0.8-0.1c1.3,0.8,2.5,1.9,3.5,3.2C514.8,369,514.8,369.4,514.5,369.7L514.5,369.7
	L514.5,369.7z M517.7,368.1c-0.2,0.1-0.5,0.1-0.7,0.1c-0.1,0-0.2-0.1-0.3-0.2c-0.9-1.1-1.9-2.1-3.1-2.9c-0.3-0.1-0.4-0.6-0.2-0.8
	c0.1-0.3,0.6-0.4,0.8-0.2c0,0,0.1,0,0.1,0.1c1.3,0.8,2.5,1.9,3.5,3.2C518,367.5,518,367.9,517.7,368.1
	C517.7,368,517.7,368,517.7,368.1L517.7,368.1z M496.5,378.8l36.3-1c0.7,0,1.2-0.6,1.2-1.3l-0.1-2.1l-38.8,1l0.1,2.1
	C495.2,378.1,495.8,378.8,496.5,378.8L496.5,378.8z"/>
<path class="st18" d="M515.6,188.7c-0.3-0.8-0.7-1.7-1-2.4c-0.3-0.8-0.8-1.7-1.2-2.5c-0.8-1.5-1.5-3-2.4-4.4c-1-1.7-2.1-3.5-3.1-5.1
	c1.2-3.5,2.6-6.9,4.5-10.2c2,2.1,3.9,4.4,6,6.5c2.1,2.4,4.4,4.7,6.6,7l0.7,0.7c0.1,0.1,0.1,0.2,0.2,0.3c0.1,0.1,0.3,0.4,0.3,0.6
	c-0.3,1.2-0.8,2.4-1.3,3.5c-0.7,1.4-1.6,2.7-2.6,3.9c-1.9,2.2-4.4,3.9-7.1,4.8C515.3,190.5,515.4,189.6,515.6,188.7L515.6,188.7z"/>
<path class="st19" d="M511,179.4c-1-1.7-2.1-3.5-3.1-5.1c1.2-3.5,2.6-6.9,4.5-10.2c2,2.1,3.9,4.4,6,6.5c0,7.2-2.8,10.2-5,13.1
	C512.6,182.3,511.8,180.8,511,179.4z"/>
<path class="st20" d="M514,158.5c-0.2-3.7-0.3-7.5-2.6-10.5c-1.4-1.9-3.4-3.2-5.7-3.7c-2.3-0.5-4.6-0.3-6.8,0.6
	c-2.1,0.8-3.9,2.3-5.2,4.2c-1.2,1.9-1.5,4.4-0.8,6.5C500.1,154.9,507.3,155.9,514,158.5L514,158.5z"/>
<path class="st21" d="M502.7,151.9c1-0.1,2.1-0.6,2.2,0.6c0.1,0.7-1,2.1-1.3,2.7c-1.1,1.7-2.5,3.1-4.2,4.2c-2.9,1.8-6.3,2.5-9.6,2
	c-1.7-0.2-3.3-1-4.4-2.2c-1-1.3-1.2-3.5,0-4.6c0.9-0.8,2.1-1,3.4-1.1C493.4,152.9,498,152.4,502.7,151.9L502.7,151.9z"/>
<path class="st9" d="M496.9,163.4c-0.4,0.3-0.6,1.1-1,1.4c0.7,2.7,2.7,4.8,5.3,5.6c-0.1-2.2-0.6-4.4-1.5-6.4
	c-0.3-0.5-0.6-1.1-1.2-1.2C497.8,162.8,497.3,163,496.9,163.4L496.9,163.4z M506.8,159.4c1.9,4.4,5.2,8.2,9.3,10.6
	c1-3.9,0.3-8.2-1.7-11.7c-1.2-2.1-3-3.9-5-5.3c-0.4-0.2-0.9-0.4-1.4-0.6c-1-0.3-1.9-0.6-2.9-0.7
	C505.1,154.4,505.7,156.9,506.8,159.4z"/>
<path class="st18" d="M504.6,154.7c2.4,2,4.7,3.9,6.7,6.3c2.1,2.4,3.4,5.2,3.9,8.2c0.5,3.1-0.6,6.2-2.8,8.4c-2.2,2.1-6,2.7-8.5,1
	c-2.6-1.7-3.4-4.7-3.9-7.7c-0.6-3-1.2-6-3.3-8.1C497.7,158.8,500.5,155.3,504.6,154.7z"/>
<path class="st18" d="M513,166.1c1.9-0.2,3.3-1.9,3-3.7c-0.1-0.9-0.6-1.8-1.3-2.4c-0.6-0.5-1.2-0.6-2-0.6c-0.5,0.2-0.9,0.6-1.2,1
	c-0.2,0.5-0.3,1-0.4,1.5C511.9,163.3,512.6,164.7,513,166.1L513,166.1z"/>
<path class="st9" d="M491,163.9c-0.2-1-0.2-1.9-0.1-2.9c0.1-0.4,0.1-0.8,0.3-1.1c1.7-3.9,5.1-6.7,9.2-7.8c1.5-0.3,3.2-0.4,4.7-0.3
	c1,0.1,2,0.3,2.9,0.7c0.3,0.3,0.6,0.4,0.8,0.7c2,2.3,3.1,5.2,3.2,8.2c-1.9-0.1-3.7-0.8-5.3-2c-1-0.8-1.8-1.9-2.2-3.2
	c-1.8,3.9-4.7,7.3-8.4,9.7c-1.7,1-3.7,0.5-4.8-1.2C491.2,164.5,491.1,164.2,491,163.9L491,163.9z"/>
<path class="st22" d="M548.9,262.2c-8,51.7,49.2,94.2,49.2,94.2l14.7-14.9c-51.1-38.9-40.4-90.3-40.4-90.3L548.9,262.2z"/>
<path class="st21" d="M572.4,251.2l-23.6,10.9c-2.9,18.7,2.8,36.1,11.1,50.7c4.3-10.7,9.3-21.3,13.4-32
	C569.8,263.6,572.4,251.2,572.4,251.2L572.4,251.2z"/>
<path class="st20" d="M522.8,204.6l28.2,11.6l9.8-5.6c0,0,15.8,31.2,10.9,47.8c-36,27.6-39.3,111.1-39.3,111.1l-21.8-6.4
	c-4.2-57,26.9-112.6,26.9-112.6c-1.2-16-19.5-43.2-19.5-43.2L522.8,204.6L522.8,204.6z"/>
<path class="st22" d="M560,212.1c-0.3-0.2-0.4-0.5-0.6-0.8c-0.3-0.3-0.6-0.7-0.8-1.1c-0.1-0.2-0.3-0.4-0.4-0.7
	c-0.1-0.3-0.3-0.4-0.5-0.7l-0.6-0.8c-0.2-0.3-0.3-0.5-0.6-0.8c-0.2-0.3-0.4-0.6-0.6-1c-0.3-0.3-0.4-0.6-0.7-1
	c-0.4-0.7-1-1.3-1.5-2.1c-1.1-1.4-2.2-2.9-3.6-4.6c-1.4-1.7-2.8-3.2-4.5-4.9c-1.7-1.7-3.5-3.3-5.4-4.9c-1.9-1.7-4-3-6.3-4.2
	c-2.1-1-4.4-1.2-6.7-0.9c-0.5,0.1-1,0.3-1.5,0.6l-0.3,0.2l-0.3,0.2c-0.1,0.1-0.3,0.1-0.3,0.2l-0.3,0.3c-0.8,0.6-1.5,1.4-2.1,2.2
	c-0.6,0.8-1,1.8-1.3,2.8c-0.1,0.2-0.1,0.5-0.2,0.7c-0.1,0.2-0.1,0.5-0.2,0.7c-0.1,0.2-0.1,0.5-0.1,0.7c-0.1,0.2-0.1,0.5-0.1,0.7
	c-0.1,1.9,0,3.7,0.4,5.5c0.4,1.5,0.9,3,1.5,4.5c0.5,1.3,1,2.4,1.5,3.3c0.8,1.8,1.3,2.9,1.1,3c-0.2,0.1-1-0.7-2.1-2.4
	c-0.6-0.8-1.3-1.9-2.1-3.2c-0.8-1.5-1.5-3-2.1-4.6c-0.3-1-0.6-1.9-0.8-2.9c-0.2-1.1-0.3-2.2-0.3-3.4V192c0-0.3,0.1-0.6,0.1-0.8
	c0-0.2,0.1-0.6,0.2-1c0.1-0.3,0.1-0.6,0.2-1c0.3-1.3,0.8-2.6,1.5-3.7c0.7-1.2,1.7-2.4,2.8-3.4c0.2-0.1,0.3-0.3,0.4-0.3
	c0.1-0.1,0.3-0.3,0.6-0.3c0.2-0.1,0.3-0.2,0.5-0.3l0.6-0.3c0.7-0.3,1.4-0.6,2.1-0.8c1.5-0.4,3.1-0.6,4.6-0.3
	c1.6,0.1,3.1,0.6,4.6,1.1c2.7,1.2,5.2,2.8,7.4,4.6c2,1.7,3.9,3.5,5.7,5.3c1.7,1.8,3.2,3.6,4.6,5.3c1.2,1.6,2.4,3.3,3.5,5.1
	c0.4,0.8,1,1.5,1.3,2.4c0.1,0.4,0.3,0.8,0.6,1.1l0.5,1c0.1,0.3,0.3,0.6,0.4,1c0.1,0.3,0.3,0.6,0.3,1c0.1,0.3,0.3,0.6,0.3,0.9
	l0.3,0.8c0.2,0.5,0.3,1,0.4,1.3l0.2,1c0.1,0.6,0,0.9-0.1,1C560.7,212.7,560.4,212.5,560,212.1L560,212.1z"/>
<path class="st18" d="M522.1,251.4l9.6-13.4c3.2-4.5,4.2-10.1,2.8-15.4l-3.9-14.2l15.6-11.7c0,0,5.9,30.1,0.8,37.7
	c-7.3,10.8-22.6,26-22.6,26s-2.2,2.9-4.2,5.6s-1.7,0.6-5.6-4.3c-2.4-3-4.3-3.9-1.4-4.5c2.4-0.6,7.5-4.8,9.4-6.3"/>
<path class="st23" d="M539.7,235.7c-0.2,0.4-0.5,0.9-0.7,1.3l-0.8,1.3l-1.5,2.5l-1.5,2.5l-1.5,2.4l-1.5,2.3c-0.5,0.8-1,1.5-1.5,2.2
	l-3.1,4.2l-0.7,1c-0.2,0.3-0.5,0.7-0.8,1l-1.5,1.9l-1.5,1.8l-0.8,0.9c0,2.9-1.2,5.7-3.2,7.8c-2.4,2.4-6,3.4-9.2,2.6
	c-1.1-0.3-2.1-0.9-2.5-2c-0.3-1.2,0.4-2.5,1.2-3.5c0.8-1,1.9-1.7,2.4-2.9c0.5-1.2,0.4-2.8-0.7-3.3c-0.7-0.3-1.7-0.1-1.9-0.8
	c-0.1-0.4,0.1-0.8,0.4-1.1c0.3-0.2,0.8-0.3,1.2-0.4l5.5-0.9"/>
</svg>
