<svg version="1.1" xmlns="http://www.w3.org/2000/svg" xmlns:xlink="http://www.w3.org/1999/xlink" width="630" height="390" viewBox="0 0 630 390">
<style type="text/css">
	.st0{fill:#EAF1FC;}
	.st1{fill:#F8F8FF;}
	.st2{fill:#E3F4FF;}
	.st3{fill:#CDE4F7;}
	.st4{fill:#FFFFFF;}
	.st5{fill:#E9825F;}
	.st6{fill:#ADBF5B;}
	.st7{fill:#C8D540;}
	.st8{fill:#0682A0;}
	.st9{fill:#F09976;}
	.st10{fill:#0B2B46;}
	.st11{fill:#FFDA35;}
	.st12{fill:#E8815F;}
	.st13{fill:#EF265B;}
	.st14{fill:#FB446C;}
	.st15{fill:#0A273A;}
	.st16{fill:#4FA52B;}
	.st17{fill:#081E2D;}
	.st18{fill:#02819F;}
	.st19{fill:#035159;}
	.st20{fill:#AC5C15;}
	.st21{fill:#BD6618;}
	.st22{fill:#C8731C;}
	.st23{fill:#2D3A48;}
	.st24{fill:#233C45;}
	.st25{fill:#F8C47A;}
	.st26{fill:#E19A54;}
	.st27{fill:#FFDF9A;}
	.st28{fill:#D38137;}
	.st29{fill:#EAB973;}
	.st30{fill:#D3914F;}
	.st31{fill:#F1D392;}
	.st32{fill:#E4E6E6;}
	.st33{fill:#C08448;}
	.st34{fill:#E5B571;}
	.st35{fill:#CE8D4D;}
	.st36{fill:#ECCF8F;}
	.st37{fill:#C07632;}
	.st38{fill:#E08F73;}
	.st39{fill:#047487;}
	.st40{fill:#05616B;}
	.st41{fill:#0F222C;}
	.st42{fill:#2C6292;}
	.st43{fill:#154774;}
	.st44{fill:#0B3052;}
	.st45{fill:#205381;}
	.st46{opacity:0.43;fill:#699FCF;}
	.st47{opacity:0.25;fill:#2F6494;}
	.st48{fill:#144674;}
	.st49{opacity:0.25;fill:#CFCCCD;}
	.st50{fill:#3A7FBC;}
	.st51{fill:#2F699D;}
	.st52{fill:#0C2F4F;}
	.st53{fill:#1D4259;}
	.st54{fill:#448DCE;}
	.st55{fill:#3270A7;}
	.st56{fill:#222846;}
	.st57{fill:#FF524F;}
	.st58{fill:#F2F2F2;}
	.st59{fill:#F19100;}
</style>
<path class="st0" d="M314.5,385C140.8,385,0,362.6,0,335s140.8-50,314.5-50S629,307.4,629,335S488.1,385,314.5,385z"/>
<path class="st1" d="M557.8,318.9c37.7-79.1,58.5-230.3-23.2-280.4c-53.4-32.9-109.2,9.4-166.4,11.4c-44.9,1.5-88.2-34.2-128.6-44.4
	C133.6-21.4-33.3,48.1,40.1,318.9C223.5,318.3,374.4,319.4,557.8,318.9z"/>
<path class="st2" d="M40.9,105.1c6.8-10.4,11.7-17.5,29.8-17.5c10.7,0,28,14.7,38.6,13.3c7.5-1,14.8-7.5,21.9-4.8
	c3.5,1.3,5.7,5,6.3,8.9H40.9z M226.1,82.6c-9.1-4.1-18.2-8.2-27.3-12.2c-7.6-3.4-17.1-6.5-23.4-0.7c-3.9,3.7-6.4,10.5-11.5,10
	c-7.2-0.7-12-18.3-20.1-6.6c-2.8,4-1.9,8.6,0.5,12.4h86.6C229.6,84.2,227.8,83.3,226.1,82.6z M462.3,84.1
	c6.4-9.6,10.9-16.3,27.8-16.3c10,0,26.1,13.7,36,12.4c7-0.9,13.8-6.9,20.5-4.4c3.2,1.2,5.3,4.6,5.8,8.3H462.3z"/>
<path class="st3" d="M87.7,197.9c-0.1-0.9-0.3-1.8-0.7-2.6c-0.6-1.1-1.6-1.8-2.1-3c-0.5-1-0.5-2.3-0.5-3.5c-0.1-7.1-0.5-14.2-6-18.1
	c-1-0.6-2-1.1-2.8-2c-1.9-2.2-1.9-6-2.4-9.2c-1-6.1-4.4-13.1-9.5-11.9c-0.2,0.1-0.4,0.1-0.7,0.2c-5,1.8-9.7,7-9.9,14.4
	c0,1.5,0.1,3-0.2,4.4c-0.8,3.5-3.9,5.4-5.2,8.4c-1.7,3.8-3.1,8.7-4.3,12.8c-0.5,1.8-1,3.6-0.9,5.5c0.1,3.1,1.5,6,1.5,9.1
	c0,2.9-1.2,5.5-2,8.1c-1.8,5.8-0.8,11.5-0.6,17.5c0.3,5.5,0.6,11.1,1.4,16.6c1.2,7.4,3,14.9,6.6,21c3.4,5.9,8.5,10.6,14.2,11
	c0.3,0,0.6,0,0.9,0c0,0,23.5,2.7,23.8-55.1C88.4,213.5,89.1,206,87.7,197.9z M332,205.4c-0.2-1-0.4-2.1-0.8-3
	c-0.7-1.3-1.8-2.1-2.4-3.5c-0.6-1.2-0.6-2.7-0.6-4.1c-0.1-8.4-0.6-16.8-7-21.3c-1.1-0.7-2.3-1.3-3.2-2.4c-2.2-2.6-2.3-7-2.9-10.9
	c-1.2-7.2-5.2-15.4-11.1-14c-0.3,0.1-0.6,0.1-0.8,0.3c-5.9,2.1-11.5,8.3-11.7,16.9c-0.1,1.8,0.1,3.6-0.3,5.3c-1,4.2-4.6,6.3-6.1,9.9
	c-1.9,4.4-3.7,10.2-5,15.1c-0.6,2.1-1.1,4.3-1.1,6.5c0.1,3.7,1.8,7.1,1.8,10.8c0,3.4-1.4,6.5-2.4,9.6c-2.1,6.8-1,13.5-0.6,20.5
	c0.3,6.6,0.7,13,1.7,19.5c1.4,8.7,3.6,17.6,7.7,24.7c3.9,6.9,10,12.5,16.7,12.8c0.3,0,0.8,0.1,1.1,0c0,0,27.6,3.1,28-64.8
	C332.8,223.7,333.6,214.9,332,205.4z"/>
<path class="st4" d="M308,336h-5l1.6-104.4l0.8-2.6L308,336z"/>
<path class="st3" d="M572.5,155.6h-229c-1,0-2.1,0.4-2.8,1.2c-0.8,0.8-1.2,1.8-1.2,2.8v150.3c0,2.2,1.8,4,4,4h229c2.2,0,4-1.8,4-4
	V159.6c0-0.6-0.1-1-0.3-1.5c-0.2-0.5-0.5-0.9-0.9-1.3c-0.3-0.3-0.8-0.7-1.3-0.9C573.5,155.7,573,155.6,572.5,155.6z"/>
<path class="st4" d="M342,344.6h-4.9c-0.3,0-0.7-0.1-1-0.4c-0.3-0.3-0.4-0.6-0.4-1v-36.7c0-0.8,0.6-1.3,1.3-1.3h4.9
	c0.8,0,1.3,0.6,1.3,1.3v36.7C343.3,344,342.8,344.6,342,344.6z M356.9,344.5H352c-0.3,0-0.7-0.1-1-0.4c-0.3-0.3-0.4-0.6-0.4-1v-36.7
	c0-0.8,0.6-1.3,1.3-1.3h5c0.8,0,1.3,0.6,1.3,1.3v36.7C358.2,343.9,357.6,344.5,356.9,344.5z M372.7,344.6h-4.9c-0.3,0-0.7-0.1-1-0.4
	c-0.3-0.3-0.4-0.6-0.4-1v-36.7c0-0.8,0.6-1.3,1.3-1.3h4.9c0.8,0,1.3,0.6,1.3,1.3v36.7C374,344,373.4,344.6,372.7,344.6z
	 M387.5,344.5h-4.9c-0.3,0-0.7-0.1-1-0.4c-0.3-0.3-0.4-0.6-0.4-1v-36.7c0-0.8,0.6-1.3,1.3-1.3h4.9c0.8,0,1.3,0.6,1.3,1.3v36.7
	C388.9,343.9,388.3,344.5,387.5,344.5z M404.2,344.5h-4.9c-0.3,0-0.7-0.1-1-0.4c-0.3-0.3-0.4-0.6-0.4-1v-36.7c0-0.8,0.6-1.3,1.3-1.3
	h4.9c0.8,0,1.3,0.6,1.3,1.3v36.7C405.5,344,404.9,344.5,404.2,344.5z M419.1,344.5h-4.9c-0.3,0-0.7-0.1-1-0.4
	c-0.3-0.3-0.4-0.6-0.4-1v-36.7c0-0.8,0.6-1.3,1.3-1.3h4.9c0.8,0,1.3,0.6,1.3,1.3v36.7C420.4,343.8,419.8,344.5,419.1,344.5z"/>
<path class="st3" d="M440.7,324.3c5.5,0,10-1.2,10-2.8c0-1.5-4.5-2.8-10-2.8c-5.5,0-10,1.2-10,2.8
	C430.7,323.1,435.2,324.3,440.7,324.3z"/>
<path class="st3" d="M469.7,331.9c8.2,0,14.9-1.7,14.9-3.8s-6.6-3.8-14.9-3.8s-14.9,1.7-14.9,3.8S461.5,331.9,469.7,331.9z"/>
<path class="st3" d="M465.6,320.9c3.6,0,6.6-0.8,6.6-1.7c0-1-3-1.7-6.6-1.7c-3.6,0-6.6,0.8-6.6,1.7
	C459,320.1,461.9,320.9,465.6,320.9z"/>
<path class="st3" d="M432.7,336.1c8.4,0,15.2-1.5,15.2-3.5c0-1.9-6.8-3.5-15.2-3.5c-8.4,0-15.2,1.5-15.2,3.5
	C417.5,334.6,424.3,336.1,432.7,336.1z"/>
<path class="st3" d="M449,343.7c3.2,0,5.9-0.6,5.9-1.4c0-0.8-2.6-1.4-5.9-1.4c-3.2,0-5.9,0.6-5.9,1.4
	C443.1,343.1,445.7,343.7,449,343.7z"/>
<path class="st3" d="M439.6,354.1c6.3,0,11.4-1.4,11.4-3.1c0-1.7-5.1-3.1-11.4-3.1c-6.3,0-11.4,1.4-11.4,3.1
	C428.2,352.7,433.3,354.1,439.6,354.1z"/>
<path class="st0" d="M428.6,204.7h53.2v98.9h-53.2V204.7z"/>
<path class="st3" d="M433.4,209.5H477v94.1h-43.5V209.5z"/>
<path class="st0" d="M468.3,264.2c2.1,0,3.8-1.5,3.8-3.5c0-1.9-1.7-3.5-3.8-3.5s-3.8,1.5-3.8,3.5
	C464.5,262.6,466.2,264.2,468.3,264.2z"/>
<path class="st0" d="M425.1,303.6h59.4V314h-59.4V303.6z"/>
<path class="st4" d="M512.2,341.7h-4.9c-0.3,0-0.7-0.1-1-0.4c-0.3-0.3-0.4-0.6-0.4-1v-36.7c0-0.8,0.6-1.3,1.3-1.3h4.9
	c0.8,0,1.3,0.6,1.3,1.3v36.7C513.5,341.1,513,341.7,512.2,341.7z M527.1,341.6h-4.9c-0.3,0-0.7-0.1-1-0.4c-0.3-0.3-0.4-0.6-0.4-1
	v-36.7c0-0.8,0.6-1.3,1.3-1.3h4.9c0.8,0,1.3,0.6,1.3,1.3v36.7C528.4,341,527.8,341.6,527.1,341.6z M542.9,341.7H538
	c-0.3,0-0.7-0.1-1-0.4c-0.3-0.3-0.4-0.6-0.4-1v-36.7c0-0.8,0.6-1.3,1.3-1.3h4.9c0.8,0,1.3,0.6,1.3,1.3v36.7
	C544.2,341.1,543.6,341.7,542.9,341.7z M557.7,341.6h-4.9c-0.3,0-0.7-0.1-1-0.4c-0.3-0.3-0.4-0.6-0.4-1v-36.7c0-0.8,0.6-1.3,1.3-1.3
	h4.9c0.8,0,1.3,0.6,1.3,1.3v36.7C559.1,341,558.5,341.6,557.7,341.6z M574.4,341.6h-4.9c-0.3,0-0.7-0.1-1-0.4
	c-0.3-0.3-0.4-0.6-0.4-1v-36.7c0-0.8,0.6-1.3,1.3-1.3h4.9c0.8,0,1.3,0.6,1.3,1.3v36.7C575.7,341.1,575.1,341.6,574.4,341.6z
	 M589.3,341.5h-4.9c-0.3,0-0.7-0.1-1-0.4c-0.3-0.3-0.4-0.6-0.4-1v-36.7c0-0.8,0.6-1.3,1.3-1.3h4.9c0.8,0,1.3,0.6,1.3,1.3v36.7
	C590.6,340.9,589.9,341.5,589.3,341.5z"/>
<path class="st0" d="M335.4,157.5l117.9-63.7c1.2-0.6,2.6-0.6,3.9,0l121.3,63.7c3.8,2,2.4,7.7-1.9,7.7H337.3
	C333.1,165.3,331.6,159.5,335.4,157.5z"/>
<path class="st3" d="M340,164.9L456.4,103L576,164.9v6.6L340,173V164.9z"/>
<path class="st0" d="M348.4,205.4h51.1v46.3h-51.1V205.4z"/>
<path class="st3" d="M353.3,210.2h41.5v38h-41.5V210.2z"/>
<path class="st0" d="M503.2,204.7H555v47h-51.8V204.7z"/>
<path class="st3" d="M508.7,209.5h41.5v38h-41.5V209.5z"/>
<path class="st4" d="M373.3,210.2c0,0,1.4,24.3-20.7,21.2v-21.2H373.3z"/>
<path class="st4" d="M360,231c0,0,7.4,13.1,6.3,18.7h-13.7V231L360,231z"/>
<path class="st4" d="M529.5,209.5c0,0-1.4,24.3,20.7,21.2v-21.2H529.5z"/>
<path class="st4" d="M542.8,229.6c0,0-7.4,12.6-6.3,18h13.7v-17.9L542.8,229.6z"/>
<path class="st0" d="M455.5,163.9c8.8,0,15.9-7.1,15.9-15.9c0-8.8-7.1-15.9-15.9-15.9c-8.8,0-15.9,7.1-15.9,15.9
	C439.6,156.8,446.8,163.9,455.5,163.9z"/>
<path class="st3" d="M454.8,159.1c6.1,0,11.1-5,11.1-11.1c0-6.1-5-11.1-11.1-11.1c-6.1,0-11.1,5-11.1,11.1
	C443.8,154.1,448.7,159.1,454.8,159.1z"/>
<path class="st0" d="M453.5,136.2h3.5v24.2h-3.5V136.2z"/>
<path class="st0" d="M467.3,145.9v4.2h-24.2v-4.2H467.3z"/>
<path class="st0" d="M382.6,190.7h-12.2c-0.7,0-1.2-0.6-1.2-1.2v-4.1c0-0.7,0.6-1.2,1.2-1.2h12.2c0.7,0,1.2,0.6,1.2,1.2v4.1
	C383.8,190.1,383.3,190.7,382.6,190.7z M390.5,198.5h-12.2c-0.7,0-1.2-0.6-1.2-1.2v-4.1c0-0.7,0.6-1.2,1.2-1.2h12.2
	c0.7,0,1.2,0.6,1.2,1.2v4.1C391.8,197.9,391.2,198.5,390.5,198.5z M520.3,155.9h-12.2c-0.7,0-1.2-0.6-1.2-1.2v-4.1
	c0-0.7,0.6-1.2,1.2-1.2h12.2c0.7,0,1.2,0.6,1.2,1.2v4.1C521.5,155.3,521,155.9,520.3,155.9z M528.2,163.7H516
	c-0.7,0-1.2-0.6-1.2-1.2v-4.1c0-0.7,0.6-1.2,1.2-1.2h12.2c0.7,0,1.2,0.6,1.2,1.2v4.1C529.5,163.1,528.9,163.7,528.2,163.7z"/>
<path class="st5" d="M458.2,253.8c-0.3,0.7-0.6,1.4-1,2.2c-0.4,0.8-0.9,1.6-1.5,2.5s-1.2,1.8-1.8,2.6c-0.7,1-1.4,1.9-2.1,2.8
	c-0.3,0.4-0.7,0.8-1,1.2c-0.5,0.5-0.9,1-1.4,1.5l-0.6,0.7l-0.6,0.1l-1.2,0.3c-3.9,0.9-6.6,1.7-6.6,1.7l-1-3.9c0,0,5.3-1,7.2-1.7
	c0,0,1.2-1.4,1.2-1.4c0.6-0.8,1.1-1.5,1.7-2.3c0.6-0.9,1.3-1.8,1.9-2.7c0.4-0.6,0.8-1.1,1.2-1.6c0.2-0.3,0.4-0.6,0.6-0.8
	c0.5-0.7,1-1.4,1.6-2c0.5-0.6,1-1.1,1.4-1.6c0.4-0.4,0.8-0.8,1.2-1.1c0.3-0.3,0.6-0.4,0.9-0.5c0.3-0.1,0.5,0,0.6,0.1
	c0.1,0.1,0.2,0.4,0.2,0.8c0,0.3-0.1,0.8-0.2,1.3C458.7,252.6,458.5,253.2,458.2,253.8z"/>
<path class="st6" d="M439.9,269.9c-1-0.2-0.6-7,0.9-15.2c1.5-8.2,3.5-14.7,4.5-14.5c1,0.2,0.6,7-0.9,15.2
	C442.9,263.6,440.9,270.1,439.9,269.9z"/>
<path class="st6" d="M435.7,255.3c-1.4-8.2-1.7-15-0.8-15.2c1-0.1,2.9,6.4,4.3,14.6c1.4,8.2,1.7,15,0.8,15.2
	C439,270,437.1,263.5,435.7,255.3z"/>
<path class="st7" d="M440.8,269.3c-1.1,0-1.9-7.2-1.9-16c0-8.9,0.9-16,1.9-16c1.1,0,1.9,7.2,1.9,16
	C442.8,262.2,441.9,269.3,440.8,269.3z"/>
<path class="st7" d="M439.9,269.9c-0.8-0.3,0.6-6.3,3.2-13.3c2.6-7.1,5.4-12.5,6.3-12.2c0.8,0.3-0.6,6.3-3.2,13.3
	C443.5,264.8,440.8,270.1,439.9,269.9z"/>
<path class="st7" d="M433.9,257.6c-2.6-7.1-3.9-13.1-3-13.3c0.8-0.3,3.6,5.2,6.1,12.2c2.6,7.1,3.9,13.1,3,13.3
	C439.2,270.1,436.4,264.7,433.9,257.6z"/>
<path class="st8" d="M438.4,274.6h3c1.8,0,3.3-1.5,3.5-3.4l0.8-8.1c0.1-0.4-0.3-0.8-0.7-0.8h-0.1l-9.9-0.1c-0.4,0-0.8,0.3-0.8,0.8
	v0.1l0.6,8C435.1,273.1,436.6,274.6,438.4,274.6z"/>
<path class="st9" d="M435.1,264.8c0,0-2.6,0.4-1.7,2.7c1,2.2,2.5,1,2.4-0.1C435.8,266.3,435.2,264.8,435.1,264.8z"/>
<path class="st10" d="M536.8,258.3c1.2,0.6,1.9,1.9,1.7,3.2c-0.1,0.7-0.4,1.3-0.3,2c0.1,0.8,0.7,1.5,1.2,2.1c1.7,1.9,3.2,4,4.1,6.4
	c0.9,2.4,1.2,5,0.6,7.5c-0.7,2.5-2.4,4.7-4.7,5.7c-2.4,1-5,0.7-7.4,0c-2-0.6-4-1.4-5.7-2.7c-1.7-1.3-2.9-3.1-3.3-5.2
	c-0.3-2.1,0.3-4.4,1.8-5.7c0.8-0.7,1.9-1.2,2.4-2.2c0.6-1.3-0.1-2.9-0.3-4.4c-0.3-1.7,0.3-3.4,1.4-4.6c1.1-1.2,2.6-1.7,4.1-1.9
	C533.8,258.4,535.5,257.7,536.8,258.3z"/>
<path class="st9" d="M532.5,317.2c0,0.5,0,1,0,1.6c-0.1,5.3-0.2,10.3-0.3,14.9s-0.3,8.7-0.6,12.2c-0.1,1.1-0.1,2.1-0.1,3
	c-0.1,0.9-0.1,1.7-0.1,2.4c-0.3,0.7-1,1.2-1.7,1.6c-0.1-1-0.3-2.1-0.6-3.4c-0.1-1-0.3-2.2-0.6-3.5c-0.6-3.4-1.1-7.5-1.8-12
	c-0.6-4.5-1.3-9.5-1.9-14.7c-0.3-3.1-0.6-6.1-0.9-8.9c2.6-0.8,5.2-1.2,7.8-1.4c0.2,0,0.5,0,0.7,0
	C532.5,311.6,532.5,314.4,532.5,317.2z"/>
<path class="st9" d="M535.5,269.4c0-0.3,0.3-0.5,0.5-0.5c0.3,0,0.5,0.1,0.6,0.3c0.1,0.2,0.1,0.5,0.1,0.8c-0.1,0.3-0.2,0.5-0.4,0.7
	c-0.2,0.2-0.4,0.4-0.8,0.5c-0.3,0.1-0.6,0.1-0.9,0C534.8,270.6,535.2,269.9,535.5,269.4z"/>
<path class="st9" d="M540.4,318.8c-0.1,5.3-0.2,10.3-0.3,14.9s-0.3,8.7-0.6,12.2c-0.1,1-0.1,2-0.1,3c-0.1,1-0.1,1.9-0.1,2.7
	c-0.4,0.6-1,1.1-1.7,1.5c-0.1-1-0.3-2.1-0.6-3.4c-0.1-1.1-0.3-2.3-0.6-3.5c-0.6-3.4-1.1-7.5-1.8-12c-0.6-4.5-1.3-9.5-1.9-14.7
	c-0.1-0.7-0.1-1.3-0.2-2c-0.3-2.8-0.6-5.6-0.8-8.3c0.2,0,0.5,0,0.7,0c0.1,0,0.3,0,0.4,0c2.6,0,5.1,0.3,7.5,1
	C540.4,312.7,540.4,315.7,540.4,318.8z M534.6,276.4c-1.7,1.2-4,1.3-5.9,0.3c0.3-0.7,0.5-1.5,0.6-2.2c0-0.2,0.1-0.4,0.1-0.6v-0.3
	c0-0.1,0-0.2,0-0.3c1.9-0.3,3.6-0.9,5.1-1.9c-0.1,0.7-0.1,1.4-0.1,2.1c0,0.3,0,0.8,0.1,1.1C534.5,275.2,534.6,275.8,534.6,276.4z"/>
<path class="st11" d="M543.1,321.8c0,0-0.9,0.2-2.4,0.5c-4.1,0.7-12.9,1.7-19.8-1l0.2-0.1c-0.1-7.1,2.1-21.9,4.1-31.9l-2.9-1
	c2.4-9.6,6-11.2,6.2-11.3l0.5,1h4.5l1.6-1.5c1.2,0.3,4.4,1.4,6.3,5.4c0.8,1.7,1.4,3.9,1.5,6.7c0,0-0.7,0.8-2.3,1.2
	C541.1,298.6,541.9,313.3,543.1,321.8z"/>
<path class="st12" d="M534.4,273.5c0,0.3,0,0.8,0.1,1.1c-0.8,0.3-1.6,0.5-2.5,0.5s-1.9-0.2-2.7-0.6c0-0.2,0.1-0.4,0.1-0.6v-0.3
	c0-0.1,0-0.2,0-0.3c1.9-0.3,3.6-0.9,5.1-1.9C534.5,272.1,534.4,272.8,534.4,273.5z"/>
<path class="st9" d="M535.7,269c-0.1,0.6-0.3,1-0.3,1.5c0,0.1-0.1,0.3-0.1,0.3c-0.1,0.1-0.1,0.3-0.2,0.5c-0.5,1-1.2,2-2.2,2.6
	c-0.3,0.2-0.6,0.3-1,0.5c-0.8,0.3-1.7,0.3-2.5,0.1c-0.6-0.2-1.2-0.6-1.7-1c-0.9-1.1-0.9-2.7-0.5-4c0.1-0.1,0.1-0.2,0.1-0.3
	c0.3-0.9,0.8-2.1,1.2-3.3c1-0.3,1.7-1,2.2-1.9c1,2.1,2.6,3.7,4.6,5C535.5,268.8,535.6,268.9,535.7,269z"/>
<path class="st9" d="M543.4,293.9c0,0.1,0,0.3,0,0.5c0,0.6-0.1,1.3-0.1,2c-0.1,0.4-0.1,0.8-0.1,1.2l-0.1,0.8l-0.1,0.5
	c0,0.1-0.1,0.3-0.1,0.5c-0.1,0.3-0.1,0.6-0.1,1l-0.1,0.9c-0.1,0.3-0.1,0.6-0.2,0.9c-0.1,0.6-0.3,1.2-0.4,1.7c-0.3,1.1-0.6,2.1-1,3.1
	c-0.2,0.5-0.3,0.9-0.6,1.4c-0.2,0.4-0.3,0.8-0.5,1.1c0.1,0.9,0.1,1.9-0.3,2.8c-0.4,1-1.2,1.8-2.1,2.4c-0.6,0.3-1.3-0.1-1.3-0.8V310
	c-0.3,0.1-0.7,0.3-1.2,0.5c-0.3,0.1-0.6-0.3-0.3-0.5c0.8-0.8,2-1.4,2.9-1.8c0.1-0.2,0.1-0.5,0.1-0.7c0.1-0.4,0.1-0.9,0.1-1.4
	c0.1-0.9,0.1-1.9,0.2-3c0-0.6,0-1,0-1.6c0-0.3,0-0.6,0-0.8c0-0.3,0-0.6,0-0.8c0-0.3,0-0.6,0-0.8c0-0.1,0-0.3,0-0.4
	c0-0.1,0-0.3,0-0.4c-0.1-0.6-0.1-1.2-0.1-1.7c-0.1-0.6-0.1-1.2-0.2-1.7c0-0.1,0-0.3-0.1-0.4c0-0.1-0.1-0.3-0.1-0.4l-0.1-0.8
	c-0.1-0.3-0.1-0.6-0.1-0.8c-0.1-0.3-0.1-0.6-0.1-0.8c0-0.1,0-0.1,0-0.2c-0.1-0.5-0.1-0.9-0.2-1.3c-0.2-1-0.3-1.9-0.5-2.8
	c-0.1-0.4-0.1-0.9-0.2-1.3c-0.1-0.4-0.1-0.8-0.2-1.2c-0.1-0.8-0.2-1.5-0.3-2.1c0-0.3,0-0.6-0.1-0.9c0-0.3,0-0.6,0-0.8
	c0.1-1,0.3-1.7,0.9-1.9c0.5-0.3,1.2,0,2,0.7c0.2,0.2,0.4,0.3,0.6,0.6c0.2,0.2,0.4,0.5,0.6,0.8c0.4,0.6,0.8,1.2,1.2,2.1
	c0.2,0.4,0.3,0.8,0.6,1.2c0.2,0.4,0.3,0.9,0.5,1.5c0.3,1,0.6,2.1,0.8,3.2c0.1,0.6,0.1,1.2,0.3,1.8c0.1,0.3,0.1,0.6,0.1,0.9
	s0,0.6,0.1,1l0.1,1C543.4,293.5,543.4,293.7,543.4,293.9z"/>
<path class="st11" d="M534.6,276.4c0,0,7.7,0.8,8.2,12.1c0,0-2,2.4-7.2,1.2L534.6,276.4z"/>
<path class="st9" d="M535.1,276.5c-0.2,0.8-0.7,1.5-1.3,2.1c-1,0.8-2.4,1-3.6,0.6c-0.7-0.2-1.2-0.7-1.6-1.3
	c-0.1-0.3-0.2-0.6-0.2-0.9c0.2-0.1,0.6-0.6,0.6-0.6h5.6C535,276.4,534.8,276.4,535.1,276.5z"/>
<path class="st10" d="M521,354.9c0,0.1,0.1,0.2,0.2,0.1c0,0,1.5,0.4,2.8,0.3l8.6-0.6c0.1,0,0.1,0,0.1-0.1c0-0.1,0.1-0.1,0.1-0.1
	l-0.1-0.7c0-0.1-0.1-0.2-0.2-0.1l-8.6,0.6c-1.2,0.1-2.7-0.3-2.7-0.3c-0.1,0-0.2,0.1-0.1,0.2L521,354.9z"/>
<path class="st4" d="M532.5,353.7c0,0,0.3-1.7-0.4-2.7c-0.7-1,0-3.8-0.1-4.6c-0.1-0.8-0.4-0.7-1.8-1.2c-1.4-0.6-2.6-0.7-2.4,0.4
	c0.2,1.1,0.5,6.2-4.1,7.5c-1.1-0.1-2.8,0.5-2.4,0.8c0.1,0,1.2,0.4,2.7,0.3C527.3,354.1,532.5,353.7,532.5,353.7z"/>
<path class="st13" d="M527.7,345.7c-0.2-1.1,1.1-1,2.4-0.4c1.4,0.6,1.6,0.5,1.8,1.2c0.1,0.8-0.5,3.6,0.1,4.6c0.7,1,0.4,2.7,0.4,2.7
	l-8.6,0.6c-0.5,0.1-0.9,0-1.2,0c0,0,0.1-0.9,0.9-1.2C528.2,351.9,527.9,346.8,527.7,345.7z"/>
<path class="st4" d="M524.5,353.5L524.5,353.5v-0.1l0.1-0.1l0.1-0.1h0.1h0.1l0.1,0.1l0.1,0.1c0.1,0.1,0,0.3-0.1,0.3
	C524.8,353.7,524.6,353.6,524.5,353.5z"/>
<path class="st4" d="M524.4,352.7c0-0.1,0-0.1,0-0.1l0.1-0.1c0.1,0,0.1,0,0.1,0l0.1,0.1l0.2,0.6c0,0.1,0,0.1-0.1,0.2
	c-0.1,0-0.1,0-0.2-0.1L524.4,352.7z M525.6,353c-0.1-0.1-0.1-0.3,0.1-0.3c0.1-0.1,0.1-0.1,0.2-0.1c0.1,0,0.1,0.1,0.1,0.1
	c0.1,0.1,0.1,0.3-0.1,0.3C525.8,353.1,525.7,353.1,525.6,353z"/>
<path class="st4" d="M525.2,352.3c0,0,0-0.1,0-0.1s0-0.1,0.1-0.1c0.1-0.1,0.1,0,0.2,0.1l0.3,0.5c0.1,0.1,0,0.1-0.1,0.2
	c-0.1,0.1-0.1,0-0.2-0.1L525.2,352.3z M526.5,352.3c-0.1-0.1-0.1-0.3-0.1-0.3l0.1-0.1h0.1h0.1c0,0,0.1,0,0.1,0.1
	c0.1,0.1,0.1,0.3,0.1,0.3C526.8,352.4,526.7,352.4,526.5,352.3z"/>
<path class="st4" d="M526.1,351.7c-0.1-0.1-0.1-0.1,0-0.2l0.1-0.1c0.1,0,0.1,0,0.1,0l0.5,0.4c0.1,0.1,0.1,0.1,0,0.2
	c-0.1,0.1-0.1,0.1-0.2,0L526.1,351.7z M527.3,351.3c-0.1-0.1-0.1-0.2-0.1-0.3l0.1-0.1l0.1-0.1h0.1h0.1c0.1,0.1,0.1,0.2,0.1,0.3
	S527.4,351.3,527.3,351.3z"/>
<path class="st4" d="M526.7,350.8c-0.1-0.1-0.1-0.1-0.1-0.2c0.1-0.1,0.1-0.1,0.2-0.1l0.6,0.3c0.1,0.1,0.1,0.1,0.1,0.2
	c-0.1,0.1-0.1,0.1-0.2,0.1L526.7,350.8z M527.9,350.1C527.9,350.1,527.8,350.1,527.9,350.1l-0.1-0.1v-0.1v-0.1c0,0,0-0.1,0.1-0.1
	l0.1-0.1h0.1h0.1c0,0,0.1,0,0.1,0.1l0.1,0.1v0.1v0.1C528.1,350,528,350.1,527.9,350.1z"/>
<path class="st4" d="M527.2,349.7c-0.1,0-0.1-0.1-0.1-0.2c0-0.1,0.1-0.1,0.1-0.1s0.1,0,0.1,0l0.6,0.2c0.1,0,0.1,0.1,0.1,0.2
	c0,0.1-0.1,0.1-0.2,0.1L527.2,349.7z M528.3,348.9C528.3,348.9,528.2,348.9,528.3,348.9l-0.1-0.1c0,0,0-0.1-0.1-0.1v-0.1
	c0,0,0-0.1,0.1-0.1l0.1-0.1c0,0,0.1,0,0.1-0.1h0.1c0.1,0,0.2,0.1,0.2,0.3C528.6,348.8,528.4,348.9,528.3,348.9z"/>
<path class="st4" d="M527.5,348.6C527.4,348.6,527.4,348.6,527.5,348.6c-0.1-0.1-0.1-0.1-0.1-0.1v-0.1v-0.1c0,0,0,0,0.1-0.1
	c0,0,0,0,0.1,0h0.1l0.6,0.1h0.1c0,0,0,0,0.1,0.1c0,0,0,0,0,0.1v0.1c0,0.1-0.1,0.1-0.1,0.1L527.5,348.6z M528.4,347.6
	c-0.1,0-0.3-0.1-0.2-0.3c0-0.1,0-0.1,0.1-0.1c0.1-0.1,0.1-0.1,0.2-0.1c0.1,0,0.3,0.1,0.2,0.3C528.7,347.5,528.6,347.6,528.4,347.6z"
	/>
<path class="st4" d="M527.7,347.5c-0.1,0-0.1-0.1-0.1-0.1c0-0.1,0.1-0.1,0.1-0.1h0.6c0.1,0,0.1,0.1,0.1,0.1c0,0.1-0.1,0.1-0.1,0.1
	H527.7z"/>
<path class="st10" d="M528.8,354.5c0,0.1,0.1,0.2,0.2,0.1c0,0,1.5,0.4,2.8,0.3l8.6-0.5c0.1,0,0.1,0,0.1-0.1c0-0.1,0.1-0.1,0.1-0.1
	l-0.1-0.7c0-0.1-0.1-0.2-0.2-0.1l-8.6,0.5c-1.2,0.1-2.7-0.3-2.7-0.3c-0.1,0-0.2,0.1-0.1,0.2L528.8,354.5z"/>
<path class="st4" d="M540.4,353.5c0,0,0.3-1.7-0.3-2.7c-0.6-1,0.1-3.8-0.1-4.6c-0.1-0.8-0.4-0.7-1.7-1.2c-1.3-0.6-2.6-0.7-2.4,0.4
	c0.2,1.1,0.3,6.3-4.3,7.4c-1.1-0.1-2.8,0.4-2.4,0.8c0.1,0,1.1,0.5,2.7,0.3C535.2,353.8,540.4,353.5,540.4,353.5z"/>
<path class="st14" d="M535.7,345.4c-0.2-1.1,1.1-1,2.4-0.4c1.3,0.6,1.6,0.5,1.7,1.2c0.1,0.8-0.6,3.6,0.1,4.6c0.6,1,0.3,2.7,0.3,2.7
	s-5.2,0.3-8.6,0.5c-0.5,0-0.9,0-1.2-0.1c0,0,0.1-0.9,0.9-1.1C536.1,351.7,536,346.5,535.7,345.4z"/>
<path class="st4" d="M533.1,352c-0.1-0.1,0-0.1,0.1-0.2c0,0,0,0,0.1,0h0.1c0,0,0,0,0.1,0c0,0,0,0,0.1,0.1l0.3,0.6
	c0.1,0.1,0,0.1-0.1,0.2c-0.1,0.1-0.1,0-0.2-0.1L533.1,352z M534.5,352c-0.1-0.1-0.1-0.3,0-0.3l0.1-0.1h0.1h0.1c0,0,0.1,0,0.1,0.1
	c0.1,0.1,0.1,0.3,0,0.3C534.7,352.1,534.6,352.1,534.5,352z"/>
<path class="st4" d="M533.9,351.4c-0.1-0.1-0.1-0.1,0-0.2l0.1-0.1c0.1,0,0.1,0,0.1,0l0.5,0.4c0.1,0.1,0.1,0.1,0,0.2
	c-0.1,0.1-0.1,0.1-0.2,0L533.9,351.4z M535.3,351c-0.1-0.1-0.1-0.2-0.1-0.3c0-0.1,0.1-0.1,0.1-0.1c0.1,0,0.1,0,0.2,0
	c0.1,0.1,0.1,0.2,0.1,0.3C535.5,351.1,535.4,351.1,535.3,351z"/>
<path class="st4" d="M534.6,350.6c-0.1-0.1-0.1-0.1-0.1-0.2l0.1-0.1c0.1,0,0.1,0,0.1,0l0.6,0.3c0.1,0.1,0.1,0.1,0.1,0.2
	c-0.1,0.1-0.1,0.1-0.2,0.1L534.6,350.6z M535.8,349.8c-0.1-0.1-0.2-0.2-0.1-0.3c0,0,0-0.1,0.1-0.1l0.1-0.1h0.1h0.1
	c0.1,0.1,0.2,0.2,0.1,0.3C536.1,349.8,536,349.9,535.8,349.8z"/>
<path class="st4" d="M535.2,349.5c-0.1,0-0.1-0.1-0.1-0.2c0,0,0,0,0-0.1c0,0,0,0,0.1,0c0,0,0,0,0.1,0h0.1l0.6,0.2
	c0.1,0,0.1,0.1,0.1,0.2c0,0.1-0.1,0.1-0.2,0.1L535.2,349.5z M536.2,348.6c-0.1,0-0.2-0.1-0.2-0.3c0,0,0-0.1,0.1-0.1l0.1-0.1
	c0,0,0.1,0,0.1-0.1h0.1c0.1,0,0.2,0.1,0.2,0.3S536.4,348.6,536.2,348.6z"/>
<path class="st4" d="M535.5,348.4c-0.1,0-0.1-0.1-0.1-0.1c0-0.1,0-0.1,0.1-0.1h0.1l0.6,0.1c0.1,0,0.1,0.1,0.1,0.1s-0.1,0.1-0.1,0.1
	L535.5,348.4z M536.4,347.3c-0.1,0-0.3-0.1-0.2-0.3c0-0.1,0.1-0.1,0.1-0.1c0.1-0.1,0.1-0.1,0.2-0.1c0.1,0,0.3,0.1,0.2,0.3
	C536.7,347.3,536.6,347.3,536.4,347.3z"/>
<path class="st4" d="M535.7,347.2C535.6,347.2,535.6,347.2,535.7,347.2c-0.1-0.1-0.1-0.1-0.1-0.1V347v-0.1c0,0,0,0,0-0.1
	c0,0,0,0,0.1,0h0.1l0.6,0.1h0.1c0,0,0,0,0.1,0c0,0,0,0,0,0.1v0.1v0.1c0,0,0,0,0,0.1c0,0,0,0-0.1,0h-0.1H535.7z"/>
<path class="st12" d="M463.8,339.2c0.1-3.5,0.3-7.6,0.5-12.2c0.1-4.6,0.3-9.6,0.3-14.9c0-5.3-0.1-10.3-0.3-14.9
	c-0.1-2.3-0.3-4.4-0.5-6.5c-0.2-2-0.4-3.9-0.6-5.5c-0.2-1.6-0.3-3-0.5-4.3s-0.2-2.3-0.3-3.3c-0.1-0.9-0.2-1.7-0.4-2.2
	c-0.2-0.6-0.5-1-0.8-1.1c-0.4-0.1-0.9-0.1-1.5,0.3c-0.6,0.3-1.2,1-1.9,2c-0.6,1-1.2,2.2-1.7,3.7c-0.2,0.8-0.4,1.5-0.6,2.4
	c-0.1,0.8-0.3,1.7-0.3,2.6c-0.1,1.9-0.1,3.8-0.1,5.8c0,2,0.1,4.2,0.3,6.5c0.3,4.6,0.8,9.5,1.4,14.8c0.6,5.3,1.3,10.2,2,14.8
	c0.7,4.6,1.3,8.6,1.9,12c0.6,3.5,1,6.2,1.4,8.1c0.3,1.9,0.6,3,0.8,3c0.2,0,0.3-1.1,0.6-3C463.5,345.4,463.6,342.6,463.8,339.2z"/>
<path class="st15" d="M462.9,351.7c-0.4,1-1.2,1.7-2.4,2.1c-1.1,0.3-2.3,0.3-3.5,0.2c-0.5,0-1-0.1-1.5-0.3c-0.4-0.2-0.8-0.6-0.7-1
	c0.1-0.6,0.8-0.8,1.5-1c1.7-0.6,3.3-1.2,4.8-2.1c0.7-0.4,1.2-1,1.7-0.1C463.3,350.1,463.2,351,462.9,351.7z"/>
<path class="st9" d="M468.8,339.2c0.1-3.5,0.3-7.6,0.5-12.2c0.1-4.6,0.3-9.6,0.3-14.9c0-5.3-0.1-10.3-0.3-14.9
	c-0.1-2.3-0.3-4.4-0.5-6.5c-0.2-2-0.4-3.9-0.6-5.5c-0.2-1.6-0.3-3-0.5-4.3c-0.1-1.2-0.2-2.3-0.3-3.3c-0.1-0.9-0.2-1.7-0.4-2.2
	c-0.2-0.6-0.5-1-0.8-1.1c-0.4-0.1-0.9-0.1-1.5,0.3c-0.6,0.3-1.2,1-1.9,2c-0.6,1-1.2,2.2-1.7,3.7c-0.2,0.8-0.4,1.5-0.6,2.4
	c-0.1,0.8-0.3,1.7-0.3,2.6c-0.1,1.9-0.1,3.8-0.1,5.8c0,2,0.1,4.2,0.3,6.5c0.3,4.6,0.8,9.5,1.4,14.8c0.6,5.3,1.3,10.2,2,14.8
	c0.7,4.6,1.3,8.6,1.9,12c0.6,3.5,1,6.2,1.4,8.1c0.3,1.9,0.6,3,0.8,3c0.2,0,0.3-1.1,0.6-3C468.5,345.4,468.7,342.6,468.8,339.2z"/>
<path class="st10" d="M468.3,351.7c-0.4,1-1.2,1.7-2.4,2.1c-1.1,0.3-2.3,0.3-3.5,0.2c-0.5,0-1-0.1-1.5-0.3c-0.4-0.2-0.8-0.6-0.7-1
	c0.1-0.6,0.8-0.8,1.5-1c1.7-0.6,3.3-1.2,4.8-2.1c0.7-0.4,1.2-1,1.7-0.1C468.6,350.1,468.5,351,468.3,351.7z M457.3,270.9
	c-4.3,12.9-3.6,40.4-3.6,40.4c7.6,2.3,12.9,1.9,15.8,1.1c2-0.5,3-1.1,3-1.1c1.1-23.5-5.9-40.5-5.9-40.5
	C466.7,270.6,459.8,270.1,457.3,270.9z M469.1,234c0.3,1.2,0.1,2.6,0.6,3.7c0.7,1.7,2.6,2.4,3.7,3.7c1.4,1.7,1.5,4.2,0.5,6.1
	c-1,1.9-3,3.2-5.1,3.7c-2.1,0.5-4.4,0.3-6.4-0.3c-1-0.3-1.9-0.6-2.8-1.2c-0.8-0.6-1.5-1.5-1.6-2.5c-0.2-1.7,1.1-3.4,0.8-5.1
	c-0.2-1.3-1.3-2.4-1.9-3.5c-1-1.8-0.8-4.1,0.4-5.7C459.8,229.3,467.6,229.2,469.1,234z"/>
<path class="st16" d="M470.7,255.7c-0.3,1.2-1,2.4-1.8,3.9c0,0-0.1,0-0.3-0.1v0.1c-1.4,3-1.7,7.9-1.7,11.1c-1.5,0.7-3.2,0.8-5.4,0.8
	c-1.4,0-2.7-0.3-3.9-0.6c0-0.1,0-0.1-0.1-0.1c0-0.1-0.1-0.1-0.1-0.1c-0.5-1.2-2.6-6.8-2.5-12.2c-1.5-0.8-2.6-2.2-2.6-2.2
	c0.6-1.2,1.2-2.2,2-3.2c2.1-2.7,4.6-4.3,5.5-4.7h0.1c0.1-0.1,0.1-0.1,0.1-0.1c0.4-0.1,0.8-0.3,1.2-0.3c1.5-0.3,2.6-0.9,4.1-1
	c0.4-0.1,0.9-0.1,1.3-0.1c0.1,0,1.4,0.3,2.5,1.2C470.6,249.3,472,251.5,470.7,255.7z"/>
<path class="st9" d="M466.5,246.7c-0.6,1.8-1.7,3.4-3.2,4.5c-0.5,0.3-1,0.6-1.6,0.8c-0.6,0.1-1.2,0-1.7-0.3
	c-0.7-0.5-0.8-1.5-0.7-2.2c0.1-0.5,0.3-0.9,0.6-1.2c0.3-0.1,0.8-0.3,1.2-0.3c1.5-0.3,2.6-0.9,4.1-1
	C465.6,246.7,466.1,246.7,466.5,246.7z"/>
<path class="st9" d="M460.3,250.9l5.5-3.8l-0.1-0.6c-0.1-0.2-0.1-0.4-0.1-0.6c-0.1-1-0.2-1.9-0.3-2.9c0-0.1,0-0.1,0-0.1
	c0-0.3,0-0.6,0-0.8c0-1,0.1-1.9,0.2-2.8c-1.5,0.8-2.9,1.7-4,3c0,0.6,0,1.2,0,1.7c0,0.1,0,0.2,0,0.3c0,0.3,0,0.7-0.1,1v0.1
	c0,0.3-0.1,0.5-0.1,0.8c0,0.1,0,0.2-0.1,0.3c0,0.1,0,0.1,0,0.2C461.2,248,458.8,250,460.3,250.9z"/>
<path class="st12" d="M461.4,246.4c0.6-0.2,1.2-0.5,1.8-0.8c1-0.7,1.7-1.6,2.2-2.7c0-0.3,0-0.6,0-0.8c0-1,0.1-1.9,0.2-2.8
	c-1.5,0.8-2.9,1.7-4,3c0,0.6,0,1.2,0,1.7c0,0.1,0,0.2,0,0.3c0,0.3,0,0.7-0.1,1v0.1c0,0.3-0.1,0.5-0.1,0.8
	C461.4,246.1,461.4,246.2,461.4,246.4z"/>
<path class="st9" d="M465.5,240.5c-0.1,0.3-0.1,0.8-0.1,1.1c0,0.1,0,0.3,0,0.4c-0.1,0.1-0.1,0.1-0.1,0.2c-0.6,1-1.4,2-2.5,2.4
	c-1.1,0.5-2.5,0.3-3.2-0.6c-0.8-0.8-0.8-2-0.6-3.1c0.2-1,0.8-2.1,1-3.1c0.1-0.6,0.2-1.1,0.1-1.7c0-0.5-0.1-0.9-0.3-1.2
	c0.4,0.3,0.9,0.6,1.4,0.8c0.8,0.3,1.7,0.6,2.6,1c0.8,0.4,1.6,1,1.9,1.9C465.7,239.2,465.6,239.9,465.5,240.5z"/>
<path class="st9" d="M465.4,239.9c0.1-0.2,0.1-0.5,0.3-0.6s0.4,0.1,0.6,0.3c0.3,0.5,0.4,1.2,0.1,1.7c-0.3,0.5-0.9,0.8-1.5,0.7
	C465.2,241.2,465.4,240.5,465.4,239.9z"/>
<path class="st4" d="M465.3,241.9c0,0.1,0.1,0.1,0.1,0.2c0.1,0.1,0.1,0.1,0.1,0.1c0.1,0.1,0.1,0.1,0.2,0.1s0.1,0,0.2,0
	s0.1-0.1,0.2-0.1s0.1-0.1,0.1-0.1c0.1-0.1,0.1-0.1,0.1-0.2c0-0.1,0-0.1,0-0.2s-0.1-0.1-0.1-0.2c0-0.1-0.1-0.1-0.1-0.1
	c-0.1-0.1-0.1-0.1-0.2-0.1s-0.1,0-0.2,0C465.4,241.2,465.2,241.5,465.3,241.9z"/>
<path class="st9" d="M468.6,259.5c-0.2,0.4-0.4,0.9-0.6,1.3c-0.5,1-1.1,2-1.7,3c-0.6,1-1.4,2.1-2.1,3.1l-0.6,0.8l-0.7,0.2
	c-0.4,0.1-0.8,0.3-1.2,0.4c-5,1.7-9.7,3-13.1,3.8c-3.4,0.8-5.5,1.2-5.7,0.8c-0.1-0.4,1.7-1.6,4.8-3.2c3.1-1.6,7.5-3.7,12.4-5.7
	c0.1-0.1,0.2-0.1,0.3-0.1c0.4-0.9,0.8-1.8,1.1-2.6c0.5-1,0.9-2.1,1.3-3c0.1-0.3,0.3-0.7,0.4-1c0.1-0.2,0.2-0.5,0.3-0.7
	c1.7,2.1,4.1,2.7,5,2.8C468.5,259.5,468.6,259.5,468.6,259.5z"/>
<path class="st9" d="M446.6,270.6c-1.1-0.1-2.5-0.7-3.5-1.2c-0.1-0.1-0.2,0.1-0.2,0.2c0.1,0.3,0.4,0.6,0.6,0.7
	c0.2,0.1,0.5,0.1,0.6,0.3c0.1,0.2,0,0.5-0.1,0.6c-0.1,0.1-0.4,0.2-0.6,0.3l-1.5,0.5c-0.4,0.1-0.9,0.3-1,0.8c0,0.3,0.1,0.5,0.2,0.7
	c0.5,0.8,1.5,1.3,2.4,1.3c0.9,0,1.8-0.4,2.4-1c0.7-0.6,1.2-1.4,1.5-2.2C447.2,271.3,446.8,271,446.6,270.6z M512.9,351.5
	c-0.8-2.1-1.6-4.5-2.5-7.1l5-1c0.4,2.6,0.8,5,1.1,7.3L512.9,351.5z M493.5,352.7c-0.6-2.2-1.1-4.6-1.7-7.3l5.1-0.4
	c0.1,2.6,0.2,5.1,0.3,7.4L493.5,352.7z M487.8,250.7c-0.1,0.5-0.1,1-0.2,1.5c-0.1,0.8-0.2,1.6-0.3,2.4c0,0.3-0.1,0.6-0.1,0.8
	c-0.1,1.1-0.2,2.1-0.3,3.3c-0.1,1.1-0.1,2.2-0.1,3.3v0.8c0,0.3,0,0.6,0,0.8c0,0.6,0,1,0,1.6c0,0.6,0,1,0.1,1.5s0.1,1,0.1,1.5
	l0.1,1.5c0.1,0.5,0.1,1,0.1,1.5c0.1,1,0.2,1.9,0.3,2.8c0,0.2,0.1,0.5,0.1,0.7s0.1,0.4,0.1,0.7c0.1,0.4,0.1,0.9,0.2,1.3
	c0.1,0.4,0.1,0.8,0.2,1.2c0.1,0.2,0.1,0.4,0.1,0.6c-0.8,1.4-1,3-0.6,4.5c0.5,1.8,1.9,3.3,3.6,3.7c0.6,0.1,1.2,0.1,1.7-0.3
	c0.5-0.5,0.5-1.3,0.3-1.9c-0.1-0.7-0.4-1.3-0.4-2c0.1-0.7,0.6-1.5,1.2-1.3c0.4,0.1,0.8,0.4,1.1,0.1c0.1-0.1,0.1-0.4,0.1-0.6
	c-0.1-0.2-0.3-0.3-0.4-0.5c-0.8-0.6-1.6-1.2-2.4-1.9c0.1-12.4,3.5-29.5,4.4-33.7c0.1-0.6,0.2-1,0.2-1c-2.5-0.3-4.8-1.4-6.7-3
	c-0.1,0.2-0.1,0.4-0.2,0.6c-0.1,0.4-0.3,0.8-0.4,1.2c-0.1,0.2-0.1,0.4-0.2,0.6c-0.1,0.2-0.1,0.4-0.2,0.6c-0.3,0.9-0.5,1.8-0.8,2.7
	c-0.1,0.5-0.2,1-0.3,1.5c0,0.1-0.1,0.3-0.1,0.4l-0.2,1C488,249.7,487.9,250.2,487.8,250.7z"/>
<path class="st10" d="M488.1,301.7c0.3-5.2,0.6-10.4,1.2-15.5c0.1-0.4,0.1-0.8,0.1-1.2c0.1-1.1,0.3-2.3,0.4-3.4c0.1-1,0.3-1.9,0.4-3
	c0.2-1.5,0.5-3.1,0.7-4.6c0.1-0.7,0.2-1.4,0.3-2.1c0-0.1,0-0.1,0.1-0.3l0.2-1.1l9.3-0.2l14.2-0.3c-0.1,1-0.3,2.4-0.5,4.1
	c-0.1,0.3-0.1,0.8-0.1,1.2v0.2c-0.1,0.6-0.1,1.4-0.1,2.1l-0.1,0.5c-0.1,2.5-0.3,5-0.3,7.6c-0.1,2.6-0.1,5.5-0.1,8.6
	c0,2.2,0.1,4.6,0.1,7.1c0.3,11.7,1.4,26.8,3.7,45.6c-2.6,0.3-5.7,0.8-8.4,1.1c-2.3-8.2-5.3-22.7-7.5-47.2c-0.3-3.7-0.6-7.7-0.9-12
	c-0.6,3.5-1.2,7.6-1.7,12c-1.5,13.1-2.4,29.6-0.7,47.5h-8.4C488.8,338.7,487.1,322.1,488.1,301.7z"/>
<path class="st17" d="M498.6,348.4H497c-4.4-25.8-0.1-60.5-0.1-60.5l4,1c-0.6,3.5-1.2,7.6-1.7,12C497.7,314,496.9,330.5,498.6,348.4
	z"/>
<path class="st11" d="M509.5,220.1c-0.5,1.9-1,3.7-1.5,5.6c-0.3,1.3-0.8,2.7-1.9,3.5c-1,0.8-2.4,0.8-3.5,0.1
	c1.5-1.5,2.7-3.2,3.3-5.1c0.3-0.9,0.5-1.9,1-2.8C507.5,220.7,508.6,220.1,509.5,220.1z"/>
<path class="st14" d="M491.2,269.6c-0.4,2.5-0.8,5-1.4,7.6c2,0.3,3.9,0.4,5.9,0.6c6.5,0.4,13,0.1,19.4-0.8c0.1-4,0.3-8,0.4-12
	c0.1-2.4,0.3-4.7,0.4-6.9c0.2-3.4,0.5-6.5,0.8-8.8c0.5-3.7,1-8-1.4-10.9c-1.4-1.7-3.5-2.5-5.5-3.3c-0.8-0.3-1.5-0.6-2.3-0.9h-0.1
	c-1.4-0.6-2.7-1.1-4.1-1.7c-1.6,0.8-3.4,1.6-5.1,2.4l-1.2,0.6c-0.3,0.1-6.8,1.3-9.3,11.3c0,0,2.3,1.3,5.3,1.4
	c-0.1,4.8-0.5,10.9-1.5,17.8c-0.1,0.4-0.1,0.9-0.2,1.3C491.4,267.9,491.3,268.8,491.2,269.6z"/>
<path class="st9" d="M505.8,230.9c0.1,1.5,0.4,3,1.1,4.4c-2.7,0.7-5.6,0.8-8.4,0.3c0.5-1.5,0.7-2.9,0.7-4.4c0-0.3,0-0.6,0-0.8
	c0-0.6-0.1-1.2-0.2-1.9c1.5-2.5,4.9-3.8,8.2-3.7c-0.7,1.3-1.2,2.8-1.3,4.2C505.8,229.6,505.7,230.2,505.8,230.9
	C505.8,230.9,505.8,230.9,505.8,230.9z"/>
<path class="st9" d="M497.2,235.4c0.1,0.4,0.4,0.8,0.7,1.1c1.1,1.3,2.8,2,4.6,1.9c1.7-0.1,3.3-1,4.3-2.4c0.4-0.6,0.8-1.2,1-1.9h-0.1
	c-1.4-0.6-2.7-1.1-4.1-1.7c-1.6,0.8-3.4,1.6-5.1,2.4C497.9,235,497.5,235.2,497.2,235.4z"/>
<path class="st11" d="M498,216c-0.7,1.8-0.5,3.9,0.5,5.7c0.2-1.4,0.4-2.7,0.6-4c0.1-0.6,0.1-1.4-0.3-1.8c-0.1-0.1-0.3-0.2-0.6-0.2
	C498.1,215.6,497.9,215.8,498,216z"/>
<path class="st12" d="M505.9,228.9c-0.1,0.6-0.1,1.3-0.1,1.9v0.1c-0.6-0.2-1.2-0.3-1.9-0.3c-0.9,0-1.8,0.3-2.7,0.4
	c-0.6,0.1-1.3,0.2-2,0.1c0-0.3,0-0.6,0-0.8c0-0.6-0.1-1.2-0.2-1.9c1.5-2.5,4.9-3.8,8.2-3.7C506.5,226,506,227.4,505.9,228.9z"/>
<path class="st9" d="M498.6,215.4c0.4,2.7,0,5.5-1.2,7.9c-0.7,1.4-1.7,2.7-1.6,4.3c0.2,2,2.4,3.4,4.4,3.1c2-0.3,3.7-1.7,4.8-3.3
	c2.1-3,3-6.9,2.4-10.6C504.8,215.4,501.4,214.9,498.6,215.4z"/>
<path class="st11" d="M506.8,223.6c-0.8-1.9-1-3.9-0.6-5.9c-1.9,0.8-4.1,0.7-5.9-0.1c-1-0.5-2-1.2-2.7-2.1c-0.8-1.1-0.3-2.7,0.9-3.2
	c1.5-0.6,3.2-0.9,4.8-1c1-0.1,2.1,0,3,0.6c1.2,0.7,1.8,2.2,1.5,3.5c0.8-0.2,1.7,0.5,2.1,1.2c0.3,0.8,0.3,1.7,0.1,2.6
	C509.5,221,508.4,222.4,506.8,223.6z"/>
<path class="st9" d="M506.7,223.5c0-0.4,0.3-0.8,0.7-0.8c0.4-0.1,0.8,0.1,1,0.5c0.2,0.3,0.3,0.8,0.2,1.2c-0.1,0.4-0.3,0.8-0.5,1.1
	c-0.3,0.5-0.8,0.9-1.4,1.1c-0.6,0.2-1.2,0-1.6-0.5C505.9,225.2,506.8,224.5,506.7,223.5z M518.5,252.1c0,0.5,0,1,0,1.6v1.6
	c0,0.3,0,0.6,0,0.8c0,0.3,0,0.6-0.1,0.8c-0.1,1.1-0.1,2.1-0.2,3.3c-0.1,1.1-0.2,2.2-0.3,3.3l-0.1,0.8c-0.1,0.3-0.1,0.6-0.1,0.8
	c-0.1,0.6-0.1,1-0.3,1.6c-0.1,0.5-0.1,1-0.3,1.5c-0.1,0.5-0.2,1-0.3,1.5c-0.1,0.5-0.2,1-0.3,1.5c-0.1,0.5-0.2,1-0.3,1.5l-0.7,2.7
	c-0.1,0.2-0.1,0.4-0.2,0.6c-0.1,0.2-0.1,0.4-0.2,0.6c-0.1,0.4-0.3,0.8-0.4,1.2c-0.1,0.4-0.3,0.8-0.4,1.2c-0.1,0.2-0.1,0.4-0.2,0.6
	c0.6,1.5,0.6,3.1-0.1,4.6c-0.8,1.7-2.4,2.9-4.1,3.1c-0.6,0.1-1.2,0-1.7-0.5c-0.4-0.6-0.3-1.3-0.1-2c0.3-0.6,0.6-1.2,0.7-1.9
	c0.1-0.7-0.3-1.5-1-1.5c-0.4,0-0.9,0.3-1.1-0.1c-0.1-0.2-0.1-0.5,0-0.6c0.1-0.2,0.3-0.3,0.5-0.4c0.9-0.5,1.7-1,2.6-1.5
	c1.7-12.4,0.6-29.7,0.2-34c-0.1-0.6-0.1-1-0.1-1c2.5,0,5-0.8,7.1-2.1c0.1,0.2,0.1,0.4,0.1,0.6c0.1,0.4,0.1,0.8,0.3,1.3
	c0.1,0.2,0.1,0.4,0.1,0.7c0,0.2,0.1,0.4,0.1,0.7c0.1,0.9,0.3,1.9,0.3,2.8c0.1,0.5,0.1,1,0.1,1.5c0,0.1,0,0.3,0,0.4l0.1,1.1
	C518.5,251.1,518.5,251.6,518.5,252.1z"/>
<path class="st14" d="M515.3,238.3c0,0,3.8,4,3.3,13.4c0,0-3.9,2.6-10-0.6l1.5-12.7L515.3,238.3L515.3,238.3z"/>
<path d="M509.9,349.6l1.7-1.1c0,0,1.2,1.1,0.1,2.2C510.4,351.8,509.9,349.6,509.9,349.6z"/>
<path class="st18" d="M502,353.9c0,0-0.1-1,0.7-1.3c0.8-0.3,2.8-0.8,4.2-1.5c2-0.9,3.2-2.4,4.1-2.4c0.9-0.1,0.7,1.4,2.6,1.5
	c1.9,0.1,3.4-0.8,3.5-0.8c0.4,0.3,1.1,3.2,0.6,3.9c-0.6,0.7-5.2,0.9-5.2,0.9l-3.7,0.6h-3.7L502,353.9z"/>
<path d="M501.7,353.8c0,0,2.3,0.7,5.3,0.7c3,0.1,5.7-0.8,7.1-0.9c1.5-0.2,3.9-0.4,3.9-0.4l0.1,1.5c0,0-2.4,0.3-4.7,0.3
	c0-0.3,0-0.7,0-0.7s-2.6,0.4-3.9,0.7c-1.2,0.3-6.7,0.1-8-0.6C501.7,354.2,501.7,353.8,501.7,353.8z"/>
<path class="st19" d="M508.4,350.8c0.1,0.1,0,0.2-0.1,0.3s-0.2,0-0.3-0.1c0-0.1-0.1-0.1,0-0.1c0-0.1,0.1-0.1,0.1-0.1
	C508.2,350.6,508.4,350.7,508.4,350.8z M509,350.4c0.1,0.1,0,0.2-0.1,0.3s-0.2,0-0.3-0.1c-0.1-0.1,0-0.2,0.1-0.3
	C508.8,350.3,508.9,350.4,509,350.4z M509.5,350.2c0.1,0.1,0,0.2-0.1,0.3c-0.1,0.1-0.2,0-0.3-0.1c-0.1-0.1,0-0.2,0.1-0.3
	c0.1,0,0.1,0,0.1,0C509.5,350,509.5,350.1,509.5,350.2z M510.2,349.8c0.1,0.1,0,0.2-0.1,0.3s-0.2,0-0.3-0.1c-0.1-0.1,0-0.2,0.1-0.3
	S510.1,349.7,510.2,349.8z M510.7,349.5c0.1,0.1,0,0.2-0.1,0.3s-0.2,0-0.3-0.1c0-0.1-0.1-0.1,0-0.1c0-0.1,0.1-0.1,0.1-0.1h0.1h0.1
	C510.6,349.3,510.6,349.4,510.7,349.5C510.7,349.4,510.7,349.4,510.7,349.5z"/>
<path d="M510.4,349.6c0,0.1,0.1,0.1,0.1,0.1h0.1c0.1,0,0.1-0.1,0.1-0.1l-0.3-0.6c-0.1,0.1-0.1,0.1-0.2,0.1L510.4,349.6z
	 M509.8,349.9C509.8,349.9,509.9,349.9,509.8,349.9c0.1,0.1,0.1,0.1,0.1,0.1h0.1c0,0,0,0,0-0.1c0,0,0,0,0-0.1c0,0,0,0,0-0.1
	l-0.3-0.6c-0.1,0.1-0.1,0.1-0.2,0.1L509.8,349.9z M509,349.7l0.3,0.5c0,0,0,0,0.1,0.1h0.1h0.1c0.1,0,0.1-0.1,0.1-0.1l-0.3-0.6
	C509.1,349.7,509.1,349.7,509,349.7z M508.7,350.6c0,0.1,0.1,0.1,0.1,0.1h0.1c0.1,0,0.1-0.1,0.1-0.1l-0.3-0.5
	c-0.1,0.1-0.1,0.1-0.2,0.1L508.7,350.6z M508.1,350.9C508.1,350.9,508.2,351,508.1,350.9c0.1,0.1,0.1,0.1,0.1,0.1h0.1
	c0.1,0,0.1-0.1,0.1-0.1l-0.3-0.5c-0.1,0.1-0.1,0.1-0.2,0.1L508.1,350.9z M490.5,349.9l1.7-1.2c0,0,1.3,1.1,0.1,2.2
	C491.1,352.1,490.5,349.9,490.5,349.9z"/>
<path class="st18" d="M482.7,354.4c0,0-0.2-1,0.7-1.3c0.8-0.3,2.8-0.9,4.1-1.6c1.9-1,3.1-2.4,4-2.5s0.7,1.4,2.6,1.5
	c1.9,0.1,3.3-0.9,3.5-1c0.4,0.3,1.2,3.2,0.6,3.9c-0.6,0.7-5.2,1-5.2,1l-3.7,0.7l-3.7,0.1L482.7,354.4z"/>
<path d="M482.4,354.2c0,0,2.4,0.6,5.3,0.6c3,0,5.7-0.8,7.1-1.1c1.5-0.2,3.9-0.5,3.9-0.5l0.1,1.5c0,0-2.4,0.4-4.7,0.3
	c0-0.3,0-0.7,0-0.7s-2.6,0.5-3.9,0.8c-1.2,0.3-6.7,0.3-8-0.4C482.3,354.6,482.4,354.2,482.4,354.2z"/>
<path class="st19" d="M489,351.1c0.1,0.1,0,0.2-0.1,0.3c-0.1,0.1-0.2,0-0.3-0.1c0-0.1-0.1-0.1,0-0.1c0-0.1,0.1-0.1,0.1-0.1
	C488.8,350.9,488.9,351,489,351.1z M489.6,350.7c0.1,0.1,0,0.2-0.1,0.3s-0.2,0-0.3-0.1c0-0.1-0.1-0.1,0-0.1c0-0.1,0.1-0.1,0.1-0.1
	C489.4,350.6,489.5,350.6,489.6,350.7z M490.2,350.4c0.1,0.1,0,0.2-0.1,0.3s-0.2,0-0.3-0.1c0-0.1-0.1-0.1,0-0.1
	c0-0.1,0.1-0.1,0.1-0.1c0.1,0,0.1-0.1,0.1,0C490,350.3,490.1,350.3,490.2,350.4z M490.7,350c0.1,0.1,0,0.2-0.1,0.3
	c-0.1,0.1-0.2,0-0.3-0.1c0-0.1-0.1-0.1,0-0.1s0.1-0.1,0.1-0.1h0.1h0.1C490.6,349.9,490.7,349.9,490.7,350
	C490.7,350,490.7,350,490.7,350z M491.3,349.7c0.1,0.1,0,0.2-0.1,0.3c-0.1,0.1-0.2,0-0.3-0.1c0-0.1-0.1-0.1,0-0.1
	c0-0.1,0.1-0.1,0.1-0.1h0.1h0.1C491.2,349.6,491.2,349.6,491.3,349.7C491.2,349.6,491.3,349.7,491.3,349.7z"/>
<path d="M491,349.8c0,0.1,0.1,0.1,0.1,0.1h0.1c0,0,0,0,0-0.1c0,0,0,0,0-0.1c0,0,0,0,0-0.1l-0.3-0.6c-0.1,0.1-0.1,0.1-0.2,0.1
	L491,349.8z M490.4,350.2c0,0.1,0.1,0.1,0.1,0.1h0.1c0,0,0,0,0-0.1c0,0,0,0,0-0.1c0,0,0,0,0-0.1l-0.3-0.6c-0.1,0.1-0.1,0.1-0.2,0.1
	L490.4,350.2z M489.6,350l0.3,0.5c0,0.1,0.1,0.1,0.1,0.1h0.1c0,0,0,0,0-0.1c0,0,0,0,0-0.1c0,0,0,0,0-0.1l-0.3-0.6
	C489.6,349.9,489.6,349.9,489.6,350z M489.3,350.8c0,0.1,0.1,0.1,0.1,0.1h0.1c0,0,0,0,0-0.1c0,0,0,0,0-0.1c0,0,0,0,0-0.1l-0.3-0.5
	c-0.1,0.1-0.1,0.1-0.2,0.1L489.3,350.8z M488.7,351.2c0,0.1,0.1,0.1,0.1,0.1h0.1c0,0,0,0,0-0.1c0,0,0,0,0-0.1c0,0,0,0,0-0.1
	l-0.3-0.4l-0.2,0.1L488.7,351.2z"/>
<path class="st20" d="M572.7,353.1c0,0,6.4,0.3,7.6-4.6c0.9-3.8-2.7-8.7-4.6-11.7c-0.3-0.5,0.3-1,0.8-0.8c1,0.6,2.2,1.5,3.4,2.8
	c3.7,4.1,5.5,10.9,2.3,14.2c-3.2,3.3-10.2,1.2-10.2,1.2L572.7,353.1z"/>
<path class="st21" d="M569.3,355.1c-1.3,0.3-7.6,0.1-9.5,0c-0.3,0-0.6-0.2-0.7-0.5c-0.1-0.3-0.1-0.7,0.3-0.9
	c0.8-0.5,2.7-0.9,2.7-0.9s-1.7-0.6-2.3-2.5c0,0-0.6-1.8,0.3-3.5c1-1.7,1.5-1.7,1.5-1.7l7.1,5v2.5L569.3,355.1z"/>
<path class="st22" d="M553.2,319.4c0.7,0.1,1.5-0.1,2-0.6c0.9-0.6,2.2-1.2,3.9-1.1c3.1,0.2,5.2,3,5.2,5.5c0,4.1-4.8,7.4-1.6,9.5
	c8.3,5.6,14,11.4,13.7,16.5c-0.3,5-3,6.3-4.6,6.6c-1.3,0.3-7.6,0.1-9.5,0c-0.3,0-0.6-0.2-0.7-0.5c-0.1-0.3,0-0.7,0.6-1.1
	c0.8-0.5,2.4-0.7,2.4-0.7s-2.1-1-2.3-2.5c-0.1-1.3,0-1.4,0-1.4l-4.4-2.5c0,0-0.7,6-0.7,6.9c0,0.8-0.1,2.2-0.8,2.4
	c-0.6,0.1-2.3,0.4-2.7-0.3c-0.4-0.7,0.6-1.2,1-1.5c0.3-0.2-0.3-3.3-0.3-3.3l0.3,3.4c0,0,0.3,1.3-0.8,1.3c-1,0-1.9,0.1-2.1-0.5
	c-0.3-0.6,1.1-1.3,1.1-1.3s-1.1-9.3-1.3-11.5c-0.4-4.6-0.5-5.7,1.2-11.3c0.9-2.8-0.6-5.7-1.7-6.4c-1.1-0.6-2.4-2.1-2.4-3.5
	s0.3-2.4,1.7-2.4C551.3,319.3,552.3,319.3,553.2,319.4z"/>
<path class="st20" d="M559.9,322.9c0,0-2.2,8.4-1,10.4c1.2,2,2.8,2.1,4.5,1.2c1.7-0.9,1.4-4.6,1-7.5c-0.3-2.8-0.9-4.5-1.4-4.9
	C561.8,321,560.2,321.1,559.9,322.9z"/>
<path class="st23" d="M550.8,319.3c0,0-0.7,1.6-1.9,1.8c0,0-0.3-1,0.3-1.5C549.7,319.1,550.8,319.3,550.8,319.3z"/>
<path class="st21" d="M562.2,350C562.2,350,562.2,350,562.2,350l0.1-0.1c0.2-2.2,2.2-3.4,2.2-3.4s0,0,0.1-0.1c0,0,0,0,0-0.1v-0.1
	v-0.1c0,0,0,0-0.1-0.1c0,0,0,0-0.1,0h-0.1h-0.1c-0.1,0.1-2.2,1.3-2.3,3.7C562,349.9,562.1,350,562.2,350z M553.1,342.1l1.5,9.4
	l0.3,3c0,0.1-0.1,0.3-0.1,0.3c-0.4,0.2-1.2,0.7-1,1.4c-0.2,0-0.4,0-0.6,0c-0.1-1.1,1.2-1.7,1.2-1.7L553.1,342.1z"/>
<path class="st24" d="M557.4,321c-0.3-0.1-0.6,0.1-0.8,0.4c-0.2,0.3-0.1,0.8,0.1,0.9c0.3,0.1,0.6-0.1,0.8-0.4
	C557.7,321.5,557.7,321.2,557.4,321z"/>
<path class="st21" d="M557.2,322.1c0.1,0.1,0.3,0.1,0.5,0.1c0.7,0,1.4-0.3,1.4-0.3c0.1,0,0.1-0.1,0.1-0.1s0-0.1,0-0.1
	c-0.1-0.1-0.1-0.1-0.3-0.1c0,0-1.1,0.6-1.9,0.1l-0.1-0.1C556.8,321.6,557,321.9,557.2,322.1z"/>
<path class="st9" d="M522.3,288.3l-1.7,5.7l-8.8-10.7l-1.9,2.8c0,0,9.1,15.5,10.4,15.2c1.4-0.3,3-1.7,3-1.7l1.9-10.5L522.3,288.3z"
	/>
<path class="st12" d="M508.9,282c0,0-3.3,2.4-1.5,3.7s2.8,0.4,3-0.3C510.6,284.7,508.9,282,508.9,282z"/>
<path class="st25" d="M423.1,334.4h-19.2v19.3h19.2V334.4z"/>
<path class="st26" d="M394.2,331.2l9.6,3.2v19.3l-9.6-3.2V331.2z"/>
<path class="st27" d="M423.1,334.4l-9.6-3.2h-19.2l9.6,3.2H423.1z"/>
<path class="st28" d="M400.9,347.3v5.4l-2.9-1v-5.4L400.9,347.3z M400.9,333.4v5.4l-2.9-1v-5.4L400.9,333.4z"/>
<path class="st26" d="M417.3,332.5l0.4,0.1l0.6,0.2l2,0.6h-19.4l-2.9-1H417.3z"/>
<path class="st29" d="M420,318.8h-14.3v14.3H420V318.8z"/>
<path class="st30" d="M398.5,316.5l7.1,2.4v14.3l-7.1-2.4V316.5z"/>
<path class="st31" d="M420,318.8l-7.1-2.4h-14.3l7.1,2.4H420z"/>
<path class="st32" d="M411.1,319.7h-4.8v2.1h4.8V319.7z"/>
<path class="st33" d="M408.1,316.5l5.9,2.4h-2.5l-5.7-2.4H408.1z M414,318.8v2.8h-2.4v-2.8H414z M414,330.4v2.8h-2.4v-2.8H414z"/>
<path class="st25" d="M402.7,328.6h-25.1v25.1h25.1V328.6z"/>
<path class="st26" d="M365,324.4l12.6,4.2v25.1l-12.6-4.2V324.4z"/>
<path class="st27" d="M402.7,328.6l-12.6-4.2H365l12.6,4.2H402.7z"/>
<path class="st28" d="M373.7,345.4v7l-3.7-1.2v-7.1L373.7,345.4z M373.7,327.3v7.1l-3.7-1.2V326L373.7,327.3z"/>
<path class="st26" d="M395.1,326l0.5,0.1l0.8,0.3l2.6,0.8h-25.3l-3.7-1.2H395.1z"/>
<path class="st32" d="M387.1,330.2h-8.5v3.7h8.5V330.2z"/>
<path class="st34" d="M402.9,307.5h-21.5V329h21.5V307.5z"/>
<path class="st35" d="M370.6,303.9l10.8,3.6V329l-10.8-3.6V303.9z"/>
<path class="st36" d="M402.9,307.5l-10.8-3.6h-21.5l10.8,3.6H402.9z"/>
<path class="st37" d="M378.1,321.9v6l-3.2-1v-6L378.1,321.9z M378.1,306.4v6l-3.2-1v-6L378.1,306.4z"/>
<path class="st35" d="M396.4,305.3l0.4,0.1l0.7,0.2l2.3,0.7h-21.6l-3.2-1.1L396.4,305.3L396.4,305.3z"/>
<path class="st32" d="M389.6,308.9h-7.3v3.2h7.3V308.9z"/>
<path class="st38" d="M346.9,268.4c-0.3-0.1-0.6,0.5-1,1.5c-0.2,0.5-0.4,1-0.8,1.7c-0.3,0.7-0.6,1.4-0.9,2.2
	c-0.3,0.8-0.8,1.6-1.2,2.4c-0.3,0.3-0.6,0.8-0.8,1.1c-0.3,0.3-0.6,0.7-1,1c-0.3,0.3-0.7,0.6-1.1,0.8c-0.3,0.3-0.8,0.5-1.2,0.6
	c-0.4,0.2-0.8,0.3-1.2,0.4c-0.1,0-0.2,0.1-0.3,0.1l-0.3,0.1c-0.2,0-0.4,0-0.6,0c-0.9,0-1.9-0.1-2.8-0.4c-0.5-0.1-0.9-0.3-1.4-0.5
	c-0.2-0.1-0.4-0.2-0.6-0.3s-0.4-0.2-0.6-0.3c-0.4-0.2-0.8-0.4-1.2-0.6c-0.4-0.2-0.8-0.5-1.1-0.8c-0.8-0.5-1.5-1-2.1-1.5
	c-0.6-0.5-1.2-0.9-1.9-1.2c-0.5-0.3-1-0.7-1.7-1c-0.4-0.2-0.9-0.3-1.3-0.4c-0.3-0.1-0.7,0-1,0.2c-0.3,0.2-0.5,0.6-0.6,0.9
	c-0.1,0.5-0.1,1,0,1.5c0.1,0.7,0.3,1.4,0.6,2c0.3,0.8,0.8,1.7,1.3,2.4c0.6,1,1.4,1.8,2.2,2.6c0.5,0.5,1,0.9,1.5,1.2
	c0.6,0.4,1.2,0.8,1.8,1.2c0.3,0.2,0.6,0.3,1,0.5c0.3,0.1,0.7,0.3,1,0.4c0.8,0.3,1.5,0.5,2.3,0.7c1.7,0.4,3.5,0.4,5.3,0.1
	c0.5-0.1,0.9-0.2,1.4-0.3l0.6-0.2c0.2-0.1,0.4-0.1,0.6-0.3c0.8-0.3,1.6-0.8,2.4-1.2c0.7-0.5,1.3-1,1.9-1.7c0.6-0.6,1-1.2,1.4-1.8
	c0.4-0.6,0.7-1.2,1-1.9c0.3-0.6,0.5-1.2,0.6-1.8c0.3-1,0.5-2.1,0.6-3.3c0.1-0.9,0.1-1.7,0.1-2.6c0-0.6-0.1-1.2-0.1-1.9
	C347.4,269,347.2,268.4,346.9,268.4z"/>
<path class="st4" d="M332.2,282.4c0.3,5.4,0.3,10.7,0,16.1c-5.1,1.7-10.6,2.1-15.9,1.3c-0.3-5.5-0.7-10.9-0.8-16.4
	c0-2.9,0.1-5.8,0.9-8.5c0.6-2.5,2.1-4.7,4.1-6.3c0.2-0.1,0.5-0.3,0.8-0.5c1.2,1,3.7,1.4,5.1,0.7c0.8,0.5,1.4,1.1,2,1.8
	c1,1.2,1.9,2.7,2.4,4.3C331.6,277.3,332.1,279.9,332.2,282.4z"/>
<path class="st9" d="M328.5,270.6c-1.4,0.3-2.8,0.3-4.1,0c-0.8-0.2-1.5-0.5-2.1-0.8c-0.6-0.3-1-0.6-1.5-1l-0.1-0.3v-0.1l0.1-0.5
	c0.3-1.5,0.5-3,0.7-4.6c0.2-1.4,0.4-2.8,0.6-4.2c1.6,0.8,3.1,1.7,4.6,2.8c0,1,0.1,1.9,0.1,2.8c0.1,0.8,0.1,1.6,0.3,2.4
	c0.1,0.4,0.1,0.9,0.2,1.3c0.1,0.4,0.1,0.8,0.2,1.2C327.9,270,328.2,270.4,328.5,270.6z"/>
<path class="st12" d="M327.1,267.2c-1.7-1.5-3.5-2.8-5.5-3.8c0.2-1.5,0.4-2.8,0.6-4.2c1.6,0.8,3.1,1.7,4.6,2.8c0,1,0.1,1.9,0.1,2.8
	C326.9,265.6,327,266.3,327.1,267.2z"/>
<path class="st10" d="M297.4,346.3c0,0,0,3.8,3.4,3.7l0.6,13.5l-9.3-16L297.4,346.3z"/>
<path class="st4" d="M299,355.9c0-0.1,0.1-0.1,0.1-0.2s0.1-0.1,0.2-0.1c0.8,0.1,1.5,0.3,2.2,0.6c0.1,0.1,0.1,0.1,0.1,0.2
	c0,0.1,0,0.1,0,0.2l-0.1,0.1l-0.1,0.1c-0.1,0-0.1,0-0.2,0c-0.6-0.3-1.3-0.5-1.9-0.6c-0.1,0-0.1,0-0.1-0.1c-0.1,0-0.1-0.1-0.1-0.1
	C299,356,299,355.9,299,355.9z M298.9,354.2c0-0.1,0-0.1,0-0.1c0-0.1,0.1-0.1,0.1-0.1l0.1-0.1c0.1,0,0.1,0,0.1,0
	c0.8,0.1,1.5,0.3,2.2,0.6c0.1,0,0.1,0.1,0.1,0.1s0.1,0.1,0.1,0.1s0,0.1,0,0.2l-0.1,0.1l-0.1,0.1c-0.1,0-0.1,0-0.1,0s-0.1,0-0.1,0
	c-0.6-0.3-1.3-0.5-1.9-0.6c-0.1,0-0.1,0-0.1-0.1c-0.1,0-0.1-0.1-0.1-0.1C298.9,354.3,298.9,354.2,298.9,354.2z M298.8,352.5
	c0-0.1,0-0.1,0-0.1l0.1-0.1c0.1-0.1,0.1-0.1,0.2-0.1c0.8,0.1,1.5,0.3,2.2,0.6c0.1,0.1,0.1,0.1,0.1,0.2s0,0.1,0,0.2
	c-0.1,0.1-0.1,0.1-0.1,0.1s-0.1,0-0.2,0c-0.6-0.3-1.3-0.5-1.9-0.6c-0.1,0-0.1,0-0.1-0.1c-0.1,0-0.1-0.1-0.1-0.1
	C298.8,352.6,298.8,352.5,298.8,352.5z M299.8,363.8c0,0.1,0.1,0.1,0.1,0.1c0.1,0.1,0.1,0.1,0.1,0.1c0.1,0,0.1,0,0.2,0
	c0.1,0,0.1,0,0.2-0.1l1-0.6l-9.3-16l-1,0.6c-0.1,0-0.1,0.1-0.1,0.1s-0.1,0.1-0.1,0.1c0,0.1,0,0.1,0,0.2s0,0.1,0.1,0.2L299.8,363.8z"
	/>
<path class="st10" d="M334.7,360c0,0,3.3,1.7,4.8-1.3l12.2,5.7l-18.5,0.8L334.7,360z"/>
<path class="st4" d="M344.3,363.2c-0.1,0-0.1,0.1-0.1,0.1c-0.1,0-0.1,0-0.1-0.1l-0.1-0.1c0,0-0.1-0.1-0.1-0.1c0-0.1,0-0.1,0-0.1
	s0-0.1,0.1-0.1c0.4-0.6,1-1.2,1.5-1.7c0.1-0.1,0.1-0.1,0.2-0.1c0.1,0,0.1,0.1,0.2,0.1c0,0,0,0.1,0.1,0.1c0,0.1,0,0.1,0,0.1
	s0,0.1-0.1,0.1l-0.1,0.1c-0.6,0.4-1,0.9-1.4,1.5C344.3,363.1,344.3,363.1,344.3,363.2z M342.7,362.5c-0.1,0-0.1,0.1-0.1,0.1
	s-0.1,0-0.1-0.1l-0.1-0.1c0,0,0-0.1-0.1-0.1c0-0.1,0-0.1,0-0.1c0-0.1,0-0.1,0.1-0.1c0.4-0.6,1-1.2,1.5-1.7c0,0,0.1-0.1,0.1-0.1
	c0.1,0,0.1,0,0.1,0s0.1,0,0.1,0.1c0.1,0,0.1,0.1,0.1,0.1c0.1,0.1,0.1,0.1,0.1,0.2c0,0.1-0.1,0.1-0.1,0.2c-0.6,0.4-1,0.9-1.4,1.5
	C342.8,362.4,342.8,362.5,342.7,362.5z M341.1,361.8c-0.1,0-0.1,0-0.2,0c-0.1,0-0.1-0.1-0.1-0.1c-0.1-0.1-0.1-0.1-0.1-0.1
	c0-0.1,0-0.1,0.1-0.2c0.4-0.6,1-1.2,1.5-1.7c0.1-0.1,0.1-0.1,0.2-0.1c0.1,0,0.1,0.1,0.2,0.1l0.1,0.1c0,0.1,0,0.1,0,0.1
	s-0.1,0.1-0.1,0.2c-0.6,0.4-1,0.9-1.4,1.5C341.3,361.7,341.2,361.8,341.1,361.8z M351.5,366.1c0.1-0.1,0.3-0.2,0.3-0.3
	c0-0.1,0.1-0.1,0.1-0.2l-0.1-1l-18.6,0.8l0.1,1c0,0.1,0,0.1,0.1,0.2c0,0.1,0.1,0.1,0.1,0.2c0.1,0.1,0.3,0.1,0.4,0.1l17.4-0.8
	C351.4,366.1,351.4,366.1,351.5,366.1z"/>
<path class="st39" d="M315.9,302.9c0,0,4.3,25.2-21.3,43.2l6.9,7.5c0,0,28.6-19.6,25.6-44.9L315.9,302.9z"/>
<path class="st40" d="M314.9,317.6c0.4,0.6,0.8,1,1.2,1.6c1,1.5,1.8,2.9,2.5,4.5c1.2,2.6,2.3,5.3,3,8.1c3.9-6.7,6.5-14.6,5.5-23.1
	l-11.2-5.7C316,302.9,317,309.1,314.9,317.6z"/>
<path class="st18" d="M332.3,277.9c1.1,8.9,1.2,17.9,0.4,26.8c0,0,14,27.5,11,55.2l-10.7,2.7c0,0-2.4-36.3-17-54.7l-0.6-18.2
	l11.5-1.9l1-9.8L332.3,277.9z"/>
<path class="st39" d="M316.1,291.7c-0.1,0-0.2-0.1-0.3-0.3c-0.1-0.1-0.1-0.3-0.2-0.5c-0.1-0.2-0.1-0.4-0.2-0.6
	c0-0.1-0.1-0.3-0.1-0.4s-0.1-0.3-0.1-0.4c-0.1-0.1-0.1-0.3-0.1-0.5c0-0.1-0.1-0.3-0.1-0.5c0-0.2-0.1-0.3-0.1-0.6l-0.1-0.6
	c-0.1-0.4-0.1-0.8-0.1-1.2c-0.1-1-0.1-2,0-3c0.1-1.1,0.1-2.3,0.3-3.4c0.2-1.2,0.5-2.5,0.8-3.7c0.3-1.4,0.9-2.7,1.7-3.9
	c0.4-0.6,0.9-1.2,1.5-1.7c0.6-0.5,1.2-0.9,1.9-1.2c0.3-0.1,0.8-0.2,1.1-0.3h1c0.7,0.1,1.4,0.3,2,0.6c0.6,0.3,1.1,0.6,1.6,1
	c0.1,0.1,0.2,0.2,0.3,0.3l0.3,0.3l0.3,0.3c0.1,0.1,0.2,0.2,0.3,0.3c0.3,0.4,0.6,0.9,0.8,1.5c0.2,0.5,0.3,0.9,0.5,1.4
	c0.2,0.8,0.3,1.6,0.4,2.4c0.1,0.6,0.1,1.2,0.1,1.9c0,1-0.1,1.5-0.2,1.6c-0.1,0-0.2-0.6-0.4-1.5c-0.1-0.5-0.2-1.1-0.3-1.7
	c-0.1-0.8-0.3-1.5-0.6-2.2c-0.3-0.8-0.8-1.6-1.3-2.3c-0.1-0.1-0.1-0.2-0.2-0.3l-0.3-0.3l-0.3-0.3c-0.1-0.1-0.2-0.1-0.3-0.2
	c-0.4-0.3-0.8-0.6-1.2-0.8c-0.5-0.2-1-0.3-1.5-0.3h-0.8c-0.3,0.1-0.5,0.1-0.8,0.2c-1,0.5-1.9,1.2-2.4,2.2c-0.6,1-1,2.2-1.4,3.4
	c-0.3,1.2-0.6,2.4-0.8,3.5c-0.2,1.1-0.3,2.2-0.4,3.2c-0.1,1-0.1,1.9-0.2,2.8v4.8c0,0.1,0,0.3-0.1,0.5
	C316.2,291.5,316.2,291.7,316.1,291.7z"/>
<path class="st25" d="M337.4,270.2h21.4v21.4h-21.4V270.2z"/>
<path class="st26" d="M369.5,266.6l-10.7,3.6v21.4l10.7-3.6V266.6z"/>
<path class="st27" d="M337.4,270.2l10.7-3.6h21.4l-10.7,3.6H337.4z"/>
<path class="st32" d="M350.6,271.5h7.3v3.1h-7.3V271.5z"/>
<path class="st35" d="M349.9,287.6v4.1h-3.7v-4.1H349.9z M349.9,270.2v4.1h-3.7v-4.1H349.9z M355.1,266.6h3.5l-8.6,3.6h-3.7
	L355.1,266.6z"/>
<path class="st9" d="M318.3,278.3v0.2c0,2.3,0.6,4.6,1.5,6.6c0.4,0.8,0.8,1.5,1.4,2.2c0.6,0.8,1.2,1.5,1.9,2.1
	c1.5,1.3,3.2,2.2,5.2,2.7c0.9,0.2,1.8,0.3,2.7,0.3c0.8,0,1.7,0,2.5-0.1c0.8-0.1,1.5-0.3,2.2-0.5c1.3-0.4,2.6-1,3.7-1.7
	c1-0.6,1.9-1.2,2.7-1.9c0.7-0.6,1.3-1.2,1.9-1.8l0.2-0.2c0.4,0,0.8,0,1.2,0c0.4-0.1,0.8-0.1,1.1-0.3c0.3-0.1,0.7-0.3,1-0.5
	c0.3-0.2,0.6-0.4,1-0.7c0.6-0.5,1-1.1,1.4-1.8c0.2-0.3,0.3-0.7,0.4-1.1c0.1-0.3,0.1-0.8,0.2-1.1c0-0.3,0-0.6,0-0.8
	c0-0.1-0.1-0.3-0.1-0.5c-0.1-0.1-0.1-0.3-0.3-0.3c-0.7-0.6-1.5,0-1.9,0.6c-0.4,0.6-0.8,1.2-1.4,1.5c-0.2,0.1-0.4,0.1-0.6,0
	c-0.2-0.1-0.4-0.1-0.6-0.3c-0.1-0.1-0.1-0.1-0.1-0.1c-0.1-0.1-0.1-0.1-0.3-0.2c-0.1-0.1-0.2-0.1-0.3-0.1c-0.1,0-0.2,0-0.3,0.1
	s-0.2,0.1-0.3,0.1c-0.1,0.1-0.1,0.1-0.1,0.2c-0.1,0.3-0.3,0.6-0.3,0.8c-0.2,0.6-0.3,1.2-0.3,1.9c-0.9,0.3-2.1,0.8-3.3,1.2
	c-0.9,0.3-1.8,0.6-2.7,0.8c-1,0.2-1.9,0.3-2.9,0.3c-0.5,0-1,0-1.5-0.1c-0.5-0.1-1-0.1-1.5-0.3c-0.4-0.1-0.8-0.3-1.2-0.5
	c-0.4-0.2-0.8-0.4-1.1-0.6c-0.3-0.3-0.6-0.6-0.9-0.8s-0.6-0.6-0.8-1c-0.5-0.8-0.8-1.5-1.1-2.4c-0.3-0.8-0.5-1.6-0.6-2.4
	c-0.1-0.6-0.2-1.2-0.3-1.9c-1,0.8-2.3,1.3-3.5,1.7C321,278.1,319.6,278.3,318.3,278.3z"/>
<path class="st18" d="M327.6,248.2c-0.1-0.6-0.5-1.1-0.8-1.6c-0.4-0.4-0.9-0.8-1.5-1c-1.1-0.5-2.4-0.6-3.5-0.3
	c-0.6,0.1-1.2,0.3-1.7,0.7c-0.6,0.3-1,0.7-1.5,1.2c-0.4,0.5-0.8,1-1,1.5c-0.2,0.6-0.3,1.2-0.4,1.8c-0.1,1.9,1,3.7,2.1,5.3
	C321.5,252.6,324.3,250,327.6,248.2z"/>
<path class="st40" d="M328.8,245.9c0.6-0.3,1.2-0.6,1.8-0.6c0.2,0.1,0.4,0.1,0.6,0.3c0.2,0.1,0.3,0.3,0.5,0.5s0.2,0.4,0.3,0.6
	c0.1,0.2,0.1,0.4,0.1,0.6c-0.1,0.4-0.2,0.9-0.4,1.2c-0.2,0.4-0.5,0.8-0.8,1c-0.3,0.3-0.6,0.5-0.8,0.7c-0.3,0.2-0.6,0.4-0.9,0.6
	c-0.6,0.3-1.3,0.6-2,0.7c-0.3,0.1-0.7,0.1-1,0.1c-0.7,0-1.5-0.1-2.1-0.2c-0.3-0.1-0.7-0.2-1-0.3c-0.3-0.1-1.2-0.4-1.4-0.8
	c-0.3-0.6,0.3-0.6,0.8-0.9C324.5,248.3,326.6,247.1,328.8,245.9z"/>
<path class="st10" d="M328.3,252.7c-0.1-0.1-0.3-0.1-0.4,0s-0.3,0.1-0.4,0.2c-0.1,0.1-0.1,0.3-0.2,0.4c0,0.1,0,0.3,0,0.5
	c0.1,1.2,0.6,2.3,1.2,3.3c0.2-0.3,0.4-0.6,0.6-0.9c0.3-0.6,0.4-1.4,0.3-2.1c-0.1-0.3-0.1-0.7-0.3-1
	C328.9,253.1,328.6,252.7,328.3,252.7z M323,257.8c0.1-1.2,0.1-2.6-0.1-3.8c-0.3-1.4-0.8-2.7-1.6-3.9c-0.6,0.6-1.1,1.2-1.5,1.9
	c-0.3,0.8-0.5,1.7-0.6,2.5c-0.1,0.4-0.1,0.8,0,1.3c0,0.4,0.1,0.8,0.2,1.2c0.1,0.4,0.2,0.8,0.4,1.2c0.1,0.4,0.3,0.8,0.6,1.2
	c0.2,0.3,0.5,0.7,0.8,1c0.3,0.3,0.6,0.6,0.9,0.9C322.4,260.3,322.8,259,323,257.8z"/>
<path class="st9" d="M328.3,252.4c-0.3,1.5,0.4,3,1,4.5c0.6,1.5,1.2,3,0.6,4.5c-0.1,0.3-0.4,0.7-0.7,1c-0.3,0.3-0.6,0.6-1,0.8
	c-0.3,0.2-0.8,0.3-1.1,0.4c-0.4,0.1-0.8,0.1-1.2,0c-0.8-0.1-1.6-0.5-2.2-1c-0.6-0.5-1.2-1.1-1.5-1.9c-0.3-0.8-0.6-1.5-0.8-2.3
	c-0.1-0.8-0.1-1.6-0.1-2.4c0.2-1.6,0.6-3.2,1-4.8C324.3,250.3,326.6,251,328.3,252.4z"/>
<path class="st9" d="M321.7,256.5c-0.2-0.2-0.4-0.4-0.6-0.6c-0.1-0.1-0.3-0.1-0.4-0.1c-0.1,0-0.3,0-0.4,0c-0.2,0.1-0.3,0.1-0.5,0.3
	c-0.1,0.1-0.2,0.3-0.3,0.5c-0.1,0.1-0.1,0.3-0.1,0.6c0,0.2,0,0.3,0.1,0.6c0.1,0.1,0.1,0.3,0.2,0.5c0.1,0.1,0.2,0.3,0.3,0.4
	s0.3,0.2,0.5,0.3c0.1,0.1,0.3,0.1,0.5,0.1c0.2,0,0.3,0,0.6,0c0.2-0.1,0.3-0.1,0.5-0.2C321.9,258,321.8,257.3,321.7,256.5z"/>
<path class="st10" d="M329.4,253.6c-2.3,0.1-4.6-0.5-6.6-1.7c0.2,0.7,0.2,1.4,0,2.1c-0.1,0.5-0.3,1-0.6,1.4c-0.3,0.4-0.6,0.8-1,1.1
	c-0.9-1.3-1.3-2.9-1.2-4.5c0-0.2,0.1-0.3,0.1-0.6c0.3-0.4,0.7-0.8,1-1.2c0.6-0.6,1.3-1,2.1-1.3c0.5-0.2,1-0.3,1.6-0.4
	c1.1-0.1,2.2,0,3.3,0.3c0.6,0.2,1,0.4,1.5,0.7c0.1,0.1,0.3,0.3,0.5,0.4c0.3,0.4,0.6,0.8,0.8,1.3c0.1,0.1,0.1,0.2,0.1,0.3
	c0,0.1,0,0.3,0,0.3c0,0.1,0,0.2-0.1,0.3c0,0.1-0.1,0.2-0.1,0.3c-0.1,0.1-0.1,0.2-0.2,0.3c-0.1,0.1-0.1,0.2-0.2,0.3s-0.2,0.1-0.3,0.2
	c-0.1,0.1-0.2,0.1-0.3,0.1C329.7,253.6,329.6,253.6,329.4,253.6z"/>
<path class="st41" d="M76.2,327.4c0-4.8,1.3-9.4,3.9-13.3c2.5-3.9,6.1-7.1,10.3-8.9c4.2-1.8,8.8-2.3,13.2-1.4
	c4.4,0.9,8.5,3.2,11.8,6.6c3.2,3.4,5.4,7.6,6.3,12.3c0.9,4.6,0.4,9.5-1.3,13.9c-1.7,4.4-4.7,8.2-8.4,10.8c-3.7,2.6-8.2,4.1-12.7,4.1
	c-6.1,0-11.9-2.6-16.2-7.1C78.6,339.9,76.2,333.8,76.2,327.4z M201.6,327.8c0-4.7,1.3-9.3,3.8-13.2c2.5-3.9,6-7,10.2-8.8
	c4.1-1.8,8.7-2.3,13.1-1.4c4.4,0.9,8.4,3.2,11.6,6.5c3.2,3.3,5.3,7.5,6.2,12.2c0.9,4.6,0.4,9.4-1.3,13.8s-4.6,8.1-8.4,10.7
	c-3.7,2.6-8.1,4-12.6,4c-6,0-11.8-2.6-16-7C204.1,340.1,201.7,334,201.6,327.8z"/>
<path class="st42" d="M297,205h-79v108h79V205z"/>
<path class="st43" d="M253.6,312.3c0,0.1,0.1,0.3,0.1,0.3s0.2,0.1,0.3,0.1l26.8,0.1c0.1,0,0.3-0.1,0.3-0.1s0.1-0.2,0.1-0.3l0.1-33.7
	c0-0.1-0.1-0.3-0.1-0.3c-0.1-0.1-0.2-0.1-0.3-0.1l-26.8-0.1c-0.1,0-0.3,0.1-0.3,0.1s-0.1,0.2-0.1,0.3L253.6,312.3z"/>
<path class="st44" d="M253.6,283.2v-4.6c0-0.1,0.1-0.3,0.1-0.3s0.2-0.1,0.3-0.1l26.8,0.1c0.1,0,0.3,0.1,0.3,0.1
	c0.1,0.1,0.1,0.2,0.1,0.3v4.6L253.6,283.2z"/>
<path class="st42" d="M256,296.4c0,2.3,0.7,4.5,1.9,6.4c1.2,1.9,3,3.4,5.2,4.3c2.1,0.9,4.4,1.1,6.7,0.7c2.2-0.4,4.3-1.5,5.9-3.2
	c1.6-1.6,2.7-3.7,3.2-5.9c0.5-2.2,0.2-4.6-0.6-6.7c-0.9-2.1-2.4-3.9-4.2-5.2c-1.9-1.2-4.1-1.9-6.4-1.9c-3,0-6,1.2-8.2,3.4
	C257.1,290.3,256,293.3,256,296.4z"/>
<path class="st45" d="M258.7,296.4c0,1.7,0.5,3.5,1.5,4.8c1,1.4,2.4,2.6,3.9,3.3c1.6,0.7,3.4,0.8,5,0.5c1.7-0.3,3.2-1.2,4.5-2.4
	c1.2-1.2,2.1-2.8,2.4-4.5c0.3-1.7,0.2-3.5-0.5-5c-0.7-1.6-1.8-3-3.2-3.9c-1.5-1-3.1-1.5-4.8-1.5c-1.2,0-2.3,0.2-3.3,0.6
	c-1,0.4-2,1.1-2.8,1.9c-0.8,0.8-1.5,1.8-1.9,2.8C259,294.1,258.7,295.2,258.7,296.4z"/>
<path class="st46" d="M260.9,296.4c0,1.3,0.3,2.6,1.1,3.7c0.8,1.1,1.7,1.9,3,2.4c1.2,0.5,2.5,0.6,3.8,0.4c1.2-0.3,2.4-0.9,3.4-1.8
	c1-0.9,1.5-2.1,1.8-3.4c0.3-1.2,0.1-2.6-0.3-3.8c-0.5-1.2-1.3-2.2-2.4-3c-1.1-0.7-2.4-1.1-3.7-1.1c-0.8,0-1.7,0.1-2.5,0.5
	c-0.8,0.3-1.5,0.8-2.1,1.4c-0.6,0.6-1.1,1.3-1.5,2.1C261.1,294.6,260.9,295.5,260.9,296.4z"/>
<path class="st47" d="M265.2,281c0,0.3,0.1,0.8,0.3,1c0.2,0.3,0.5,0.6,0.8,0.7c0.3,0.1,0.8,0.2,1.1,0.1c0.3-0.1,0.7-0.3,1-0.5
	c0.3-0.3,0.4-0.6,0.6-1c0.1-0.3,0.1-0.8-0.1-1.1c-0.1-0.3-0.4-0.6-0.7-0.8c-0.3-0.2-0.7-0.3-1-0.3c-0.3,0-0.5,0.1-0.8,0.1
	c-0.2,0.1-0.4,0.2-0.6,0.4c-0.2,0.2-0.3,0.4-0.4,0.6C265.2,280.5,265.2,280.7,265.2,281z"/>
<path class="st42" d="M265.5,280.6c0,0.3,0.1,0.8,0.3,1c0.2,0.3,0.5,0.6,0.8,0.7c0.3,0.1,0.8,0.2,1.1,0.1c0.3-0.1,0.7-0.3,1-0.5
	c0.3-0.3,0.4-0.6,0.6-1c0.1-0.3,0.1-0.8-0.1-1.1c-0.1-0.3-0.4-0.6-0.7-0.8c-0.3-0.2-0.7-0.3-1-0.3c-0.3,0-0.5,0.1-0.8,0.1
	c-0.2,0.1-0.4,0.2-0.6,0.4c-0.2,0.2-0.3,0.4-0.4,0.6C265.6,280.1,265.5,280.4,265.5,280.6z"/>
<path d="M268.1,279.6c0,0.1,0,0.1,0.1,0.1c0.1,0,0.1,0.1,0.1,0.1s0.1,0,0.1,0c0.1,0,0.1-0.1,0.1-0.1c0.1-0.1,0.1-0.1,0.1-0.1
	s0-0.1,0-0.1c0-0.1-0.1-0.1-0.1-0.1c-0.1,0-0.1-0.1-0.1-0.1s-0.1,0-0.2,0.1C268.1,279.5,268.1,279.5,268.1,279.6z"/>
<path class="st42" d="M280.3,279.3h-8.4v1.5h8.4V279.3z"/>
<path class="st48" d="M279.3,279.5h-6.4v1h6.4V279.5z"/>
<path class="st49" d="M261.6,282.1c0,0.1,0.1,0.3,0.1,0.4c0.1,0.1,0.2,0.2,0.3,0.3s0.3,0.1,0.4,0.1s0.3-0.1,0.3-0.2
	c0.1-0.1,0.1-0.2,0.2-0.3c0-0.1,0-0.3-0.1-0.4s-0.1-0.2-0.3-0.3c-0.1-0.1-0.3-0.1-0.4-0.1c-0.2,0-0.3,0.1-0.5,0.2
	C261.7,281.8,261.6,281.9,261.6,282.1z M258.9,282.1c0,0.1,0.1,0.3,0.1,0.4c0.1,0.1,0.2,0.2,0.3,0.3c0.1,0.1,0.3,0.1,0.4,0.1
	c0.1,0,0.3-0.1,0.3-0.2c0.1-0.1,0.1-0.2,0.2-0.3c0-0.1,0-0.3-0.1-0.4c-0.1-0.1-0.1-0.2-0.3-0.3c-0.1-0.1-0.3-0.1-0.4-0.1
	c-0.2,0-0.3,0.1-0.5,0.2C258.9,281.8,258.9,281.9,258.9,282.1z M256.1,282.1c0,0.1,0.1,0.3,0.1,0.4c0.1,0.1,0.2,0.2,0.3,0.3
	c0.1,0.1,0.3,0.1,0.4,0.1c0.1,0,0.3-0.1,0.3-0.2c0.1-0.1,0.1-0.2,0.2-0.3c0-0.1,0-0.3-0.1-0.4s-0.1-0.2-0.3-0.3
	c-0.1-0.1-0.3-0.1-0.4-0.1c-0.1,0-0.2,0-0.3,0.1s-0.1,0.1-0.2,0.1c-0.1,0.1-0.1,0.1-0.1,0.2S256.1,282,256.1,282.1z"/>
<path class="st42" d="M261.8,282c0,0.1,0.1,0.3,0.1,0.4c0.1,0.1,0.2,0.2,0.3,0.3s0.3,0.1,0.4,0.1s0.3-0.1,0.3-0.2
	c0.1-0.1,0.1-0.2,0.2-0.3c0.1-0.1,0-0.3-0.1-0.4c-0.1-0.1-0.1-0.2-0.3-0.3c-0.1-0.1-0.3-0.1-0.4-0.1c-0.1,0-0.2,0-0.3,0.1
	c-0.1,0.1-0.1,0.1-0.2,0.1s-0.1,0.1-0.1,0.2C261.8,281.8,261.8,281.8,261.8,282z M259.1,281.9c0,0.1,0.1,0.3,0.1,0.4
	c0.1,0.1,0.2,0.2,0.3,0.3c0.1,0.1,0.3,0.1,0.4,0.1s0.3-0.1,0.3-0.2c0.1-0.1,0.1-0.2,0.2-0.3c0-0.1,0-0.3-0.1-0.4
	c-0.1-0.1-0.1-0.2-0.3-0.3c-0.1-0.1-0.3-0.1-0.4-0.1c-0.2,0-0.3,0.1-0.5,0.2C259.1,281.6,259.1,281.8,259.1,281.9z M256.3,281.9
	c0,0.1,0.1,0.3,0.1,0.4s0.2,0.2,0.3,0.3c0.1,0.1,0.3,0.1,0.4,0.1c0.1,0,0.3-0.1,0.3-0.2c0.1-0.1,0.1-0.2,0.2-0.3
	c0-0.1,0-0.3-0.1-0.4c-0.1-0.1-0.1-0.2-0.3-0.3c-0.1-0.1-0.3-0.1-0.4-0.1c-0.2,0-0.3,0.1-0.5,0.2
	C256.4,281.6,256.3,281.8,256.3,281.9z M257.9,292.8c0.6-0.1,1.1-0.2,1.7-0.1c0.6,0.1,1.1,0.3,1.5,0.7c0.5,0.3,0.8,0.8,1.1,1.3
	c0.3,0.5,0.4,1.1,0.4,1.7c0,0.6-0.1,1.1-0.4,1.7c-0.3,0.5-0.6,1-1.1,1.3c-0.5,0.3-1,0.6-1.6,0.7c-0.6,0.1-1.2,0.1-1.7-0.1
	L257.9,292.8z"/>
<path class="st50" d="M220.1,275.1l8.6,0.3v37.5l-8.6,0.1V275.1z"/>
<path class="st51" d="M261.2,275.3h-32.6v37.2h32.6V275.3z"/>
<path class="st52" d="M256.4,287.4h-22.7c-0.6,0-1,0.5-1,1l-0.1,20.1c0,0.6,0.4,1,0.9,1h22.7c0.6,0,1-0.5,1-1l0.1-20.1
	C257.4,287.8,256.9,287.4,256.4,287.4z"/>
<path class="st43" d="M255.6,288.2h-21.1c-0.5,0-0.9,0.3-0.9,0.6v19c0,0.3,0.4,0.6,0.9,0.6h21.1c0.5,0,0.9-0.3,0.9-0.6v-19
	C256.5,288.5,256,288.2,255.6,288.2z"/>
<path class="st43" d="M255.9,278.1h-5.2c-1.3,0-2.3,1.1-2.3,2.5s1,2.5,2.3,2.5h5.2c1.3,0,2.4-1.1,2.4-2.5
	C258.2,279.3,257.1,278.1,255.9,278.1z"/>
<path class="st50" d="M255.3,282.9c-1.1,0-1.9-0.9-1.9-2.1c0-1.2,0.9-2.1,1.9-2.1c1.1,0,1.9,0.9,1.9,2.1
	C257.4,281.9,256.5,282.9,255.3,282.9z"/>
<path class="st53" d="M220,312.7H13.6c-2,0-3.6,1.9-3.6,4.2v9.1c0,2.3,1.6,4.2,3.6,4.2H220V312.7z"/>
<path class="st54" d="M15.5,312.7h92.9v-80.4H61.8c-4.5,0-8.8,1.2-12.9,3.4c-3.9,2.2-7.3,5.5-9.8,9.3l-19,29.7
	c-3,4.8-4.6,10.4-4.6,16.2V312.7z"/>
<path class="st41" d="M86.9,279.8v-38.6H62.4c-3.1,0-6.2,0.8-8.9,2.4c-2.8,1.5-5.1,3.7-6.8,6.4l-19.2,29.8H86.9z"/>
<path class="st55" d="M106.9,232.3h-8.7v80.4h8.7V232.3z"/>
<path class="st56" d="M76.7,286.2H85c0.5,0,1-0.2,1.3-0.6c0.3-0.3,0.6-0.9,0.6-1.4v-1.2H74.8v1.2c0,0.6,0.2,1,0.6,1.4
	C75.7,286,76.2,286.2,76.7,286.2z"/>
<path class="st11" d="M22.7,302.4c0-2-0.8-3.9-2.1-5.4c-1.4-1.5-3.2-2.2-5.1-2.2v15.3c1.9,0,3.8-0.8,5.2-2.3
	C22,306.5,22.7,304.4,22.7,302.4z"/>
<path class="st10" d="M296.8,312.7h-76.7c-0.6,0-1.3,0.1-1.9,0.4c-0.6,0.3-1.2,0.6-1.6,1.1c-0.5,0.5-0.8,1-1,1.7
	c-0.2,0.6-0.3,1.3-0.3,2v7.1c0,1.4,0.5,2.7,1.5,3.7c0.9,1,2.1,1.5,3.5,1.5h76.7c1.3,0,2.6-0.6,3.5-1.5c0.9-1,1.5-2.3,1.5-3.7v-7.1
	c0-1.4-0.6-2.7-1.5-3.7C299.4,313.2,298.1,312.7,296.8,312.7z"/>
<path class="st57" d="M228.9,321.4c0-0.8-0.2-1.5-0.6-2.1c-0.4-0.6-1-1.1-1.6-1.4c-0.6-0.3-1.4-0.3-2.1-0.2c-0.7,0.1-1.3,0.5-1.8,1
	c-0.5,0.6-0.8,1.2-1,1.9c-0.1,0.7-0.1,1.5,0.2,2.1c0.3,0.7,0.7,1.2,1.3,1.7c0.6,0.4,1.2,0.6,1.9,0.6c0.5,0,0.9-0.1,1.4-0.3
	c0.4-0.2,0.8-0.5,1.2-0.8c0.3-0.3,0.6-0.8,0.8-1.2C228.9,322.4,228.9,321.9,228.9,321.4z"/>
<path class="st11" d="M235,321.4c0-0.5-0.2-1-0.5-1.3c-0.3-0.3-0.8-0.6-1.2-0.6c-0.5,0-0.9,0.2-1.2,0.6c-0.3,0.3-0.6,0.8-0.6,1.3
	c0,0.2,0.1,0.5,0.1,0.7s0.2,0.4,0.3,0.6c0.1,0.1,0.3,0.3,0.6,0.4c0.2,0.1,0.4,0.1,0.7,0.1h0.1c0.4,0,0.9-0.1,1.2-0.4
	c0.3-0.3,0.6-0.8,0.6-1.2V321.4z"/>
<path class="st57" d="M290.1,321.4c0,0.8,0.2,1.5,0.6,2.1c0.4,0.6,1,1.1,1.6,1.4c0.6,0.3,1.4,0.3,2.1,0.2c0.7-0.1,1.3-0.5,1.8-1
	c0.5-0.6,0.8-1.2,1-1.9c0.1-0.7,0.1-1.5-0.2-2.1c-0.3-0.7-0.7-1.2-1.3-1.7c-0.6-0.4-1.2-0.6-1.9-0.6c-1,0-1.8,0.4-2.5,1.1
	C290.4,319.5,290.1,320.4,290.1,321.4z"/>
<path class="st11" d="M284,321.4c0,0.3,0.1,0.7,0.3,1c0.2,0.3,0.5,0.6,0.8,0.7c0.3,0.1,0.7,0.2,1,0.1c0.3-0.1,0.6-0.3,0.9-0.5
	c0.3-0.3,0.4-0.6,0.5-0.9c0.1-0.3,0-0.7-0.1-1c-0.1-0.3-0.3-0.6-0.6-0.8c-0.3-0.2-0.6-0.3-1-0.3c-0.4,0-0.9,0.1-1.2,0.5
	C284.2,320.5,284.1,320.9,284,321.4L284,321.4z"/>
<path class="st55" d="M297,205h-78v5h78V205z"/>
<path class="st58" d="M98.1,295.4l-38.6,12.9c0,0,3.8,2.7,5,4.4h33.5V295.4z"/>
<path class="st59" d="M59.5,308.3l38.6-12.9v-8.9l-45.4,18.9C55.2,306,57.5,306.9,59.5,308.3z"/>
<path class="st54" d="M220.1,205H106.9v107.7h113.2V205z"/>
<path class="st58" d="M220.1,291l-113.2,3.4v18.3h113.2V291z"/>
<path class="st41" d="M170.2,304.7c6.4,0,12.6,2.7,17.1,7.5c4.6,4.8,7.1,11.2,7.1,18H146c0-3.3,0.6-6.6,1.8-9.7
	c1.2-3.1,3-5.9,5.3-8.2c2.2-2.4,4.9-4.2,7.8-5.5C163.7,305.4,166.9,304.8,170.2,304.7L170.2,304.7L170.2,304.7z"/>
<path class="st41" d="M173.3,308.6c5.3,0.1,10.2,2.4,14,6.2c3.7,3.9,5.9,9.1,6,14.6c0.1,5.5-1.7,10.9-5.3,14.9
	c-3.5,4.1-8.4,6.6-13.6,7.1h-6.8v-42.9L173.3,308.6L173.3,308.6L173.3,308.6z"/>
<path class="st10" d="M148.8,330c0-4.2,1.2-8.4,3.5-11.9c2.2-3.5,5.5-6.3,9.2-7.9c3.7-1.6,7.8-2.1,11.8-1.2
	c3.9,0.8,7.6,2.8,10.4,5.9c2.8,3,4.8,6.8,5.6,11c0.8,4.1,0.4,8.4-1.2,12.4c-1.5,3.9-4.1,7.3-7.5,9.6c-3.4,2.4-7.3,3.6-11.3,3.6
	c-5.4,0-10.6-2.3-14.4-6.3C151,341.2,148.8,335.7,148.8,330z"/>
<path class="st58" d="M169.2,340.5c-5.5,0-10-4.7-10-10.5c0-5.8,4.5-10.5,10-10.5c5.5,0,10,4.7,10,10.5
	C179.2,335.8,174.7,340.5,169.2,340.5z"/>
<path class="st59" d="M106.9,294.3l113.2-3.4v-11l-113.3,5.4L106.9,294.3z"/>
<path class="st41" d="M47,304.7c6.4,0,12.6,2.7,17.1,7.5s7.1,11.2,7.1,18H22.8c0-3.3,0.6-6.6,1.8-9.7c1.2-3.1,3-5.9,5.3-8.2
	c2.2-2.4,4.9-4.2,7.8-5.5S43.7,304.8,47,304.7L47,304.7L47,304.7z"/>
<path class="st41" d="M50.2,308.6c5.3,0.1,10.2,2.4,14,6.2c3.7,3.9,5.9,9.1,6,14.6c0.1,5.5-1.7,10.9-5.3,14.9
	c-3.5,4.1-8.4,6.6-13.6,7.1h-6.8v-42.9L50.2,308.6L50.2,308.6z"/>
<path class="st10" d="M25.7,330c0-4.2,1.2-8.4,3.5-11.9c2.2-3.5,5.5-6.3,9.2-7.9c3.7-1.6,7.8-2.1,11.8-1.2c3.9,0.8,7.6,2.8,10.4,5.9
	c2.8,3,4.8,6.8,5.6,11c0.8,4.1,0.4,8.4-1.2,12.4c-1.5,3.9-4.1,7.3-7.5,9.6c-3.4,2.4-7.3,3.6-11.3,3.6c-5.4,0-10.6-2.3-14.4-6.3
	C27.8,341.2,25.7,335.7,25.7,330z"/>
<path class="st58" d="M46,340.5c-5.5,0-10-4.7-10-10.5c0-5.8,4.5-10.5,10-10.5c5.5,0,10,4.7,10,10.5C56,335.8,51.5,340.5,46,340.5z"
	/>
</svg>
