<?xml version="1.0" encoding="utf-8"?>
<!-- Generator: Adobe Illustrator 24.2.3, SVG Export Plug-In . SVG Version: 6.00 Build 0)  -->
<svg version="1.1" id="Слой_1" xmlns="http://www.w3.org/2000/svg" xmlns:xlink="http://www.w3.org/1999/xlink" x="0px" y="0px"
	 viewBox="0 0 630 394" style="enable-background:new 0 0 630 394;" xml:space="preserve">
<style type="text/css">
	.st0{fill:#EAF1FC;}
	.st1{fill:#F8F8FF;}
	.st2{fill:#D6E0F0;}
	.st3{fill:#E9EDF4;}
	.st4{fill:#CDE4F7;}
	.st5{fill:#FFFFFF;}
	.st6{fill:#E5B571;}
	.st7{fill:#CE8D4D;}
	.st8{fill:#F8C47A;}
	.st9{fill:#E19A54;}
	.st10{fill:#FFDF9A;}
	.st11{fill:#E4E6E6;}
	.st12{fill:#ECCF8F;}
	.st13{fill:#C07632;}
	.st14{fill:#ACCFE5;}
	.st15{fill:#DDEFFF;}
	.st16{fill:#64CE38;}
	.st17{fill:#289917;}
	.st18{fill:#FFDA35;}
	.st19{fill:#EAB624;}
	.st20{fill:#E08F73;}
	.st21{fill:#0B2B46;}
	.st22{fill:#F09976;}
	.st23{fill:#E8815F;}
	.st24{fill:#02819F;}
	.st25{fill:#05616B;}
	.st26{fill:#047487;}
	.st27{fill:#FF8500;}
	.st28{fill:#AF7309;}
	.st29{fill:#A97000;}
	.st30{fill:#F4A721;}
</style>
<path class="st0" d="M314.9,393.3c173.9,0,314.9-20.2,314.9-45.1c0-24.9-141-45.1-314.9-45.1C141,303,0,323.2,0,348.2
	C0,373.1,141,393.3,314.9,393.3z"/>
<path class="st1" d="M575.4,325c35.9-74.6,55.7-217.5-22.2-264.9c-51-31-104,8.9-158.5,10.7c-42.7,1.5-83.9-32.3-122.5-42
	C171.3,3.7,12.3,69.3,82.2,325C256.9,324.6,400.6,325.6,575.4,325z"/>
<path class="st1" d="M280.1,219.9H177.6c-1.4,0-2.5-1.1-2.5-2.5V68.7C171.3,13.2,193.5,15,228.9,15c56.1-3.6,53.7,24.1,53.7,53.7
	v148.6C282.6,218.7,281.5,219.9,280.1,219.9z"/>
<path class="st2" d="M280.6,222.1H176.1c-1.7,0-3.1-1.4-3.1-3.1V46.5c0-17.9,14.6-32.5,32.5-32.5h45.6c18,0,32.6,14.5,32.6,32.5V219
	C283.7,220.6,282.3,222.1,280.6,222.1z M176.3,218.8h104.2V46.5c0-16.2-13.2-29.3-29.3-29.3h-45.6c-16.1,0-29.3,13.1-29.3,29.3
	V218.8z"/>
<path class="st2" d="M228.3,220.7c-0.9,0-1.7-0.8-1.7-1.7V15.5c0-0.9,0.8-1.7,1.7-1.7c0.9,0,1.7,0.8,1.7,1.7V219
	C230,220,229.2,220.7,228.3,220.7z"/>
<path class="st2" d="M282,173.7H174.6c-0.9,0-1.7-0.8-1.7-1.7c0-0.9,0.8-1.7,1.7-1.7H282c0.9,0,1.7,0.8,1.7,1.7
	C283.7,172.9,282.9,173.7,282,173.7z M282,71.5H174.6c-0.9,0-1.7-0.8-1.7-1.7c0-0.9,0.8-1.7,1.7-1.7H282c0.9,0,1.7,0.8,1.7,1.7
	C283.7,70.8,282.9,71.5,282,71.5z M282,122.6H174.6c-0.9,0-1.7-0.8-1.7-1.7s0.8-1.7,1.7-1.7H282c0.9,0,1.7,0.8,1.7,1.7
	C283.7,121.9,282.9,122.6,282,122.6z"/>
<path class="st1" d="M472.7,219.9H370.2c-1.4,0-2.5-1.1-2.5-2.5V68.7C363.8,13.2,386.1,15,421.4,15c56.1-3.6,53.7,24.1,53.7,53.7
	v148.6C475.2,218.7,474,219.9,472.7,219.9z"/>
<path class="st2" d="M472.7,222.1H368.2c-1.7,0-3.1-1.4-3.1-3.1V46.5c0-17.9,14.6-32.5,32.5-32.5h45.6c18,0,32.5,14.6,32.6,32.6V219
	C475.8,220.6,474.4,222,472.7,222.1z M368.4,218.8h104.1V46.5c0-16.2-13.2-29.3-29.3-29.3h-45.6c-16.1,0-29.3,13.1-29.3,29.3
	L368.4,218.8z"/>
<path class="st2" d="M420.4,220.7c-0.9,0-1.7-0.8-1.7-1.7V15.5c0-0.9,0.8-1.7,1.7-1.7c0.9,0,1.7,0.8,1.7,1.7V219
	C422,220,421.3,220.7,420.4,220.7z"/>
<path class="st2" d="M474.2,173.7H366.6c-0.9,0-1.7-0.8-1.7-1.7c0-0.9,0.8-1.7,1.7-1.7h107.4c0.9,0,1.7,0.8,1.7,1.7
	C475.8,172.9,475.1,173.7,474.2,173.7z M474.2,71.5H366.6c-0.9,0-1.7-0.8-1.7-1.7c0-0.9,0.8-1.7,1.7-1.7h107.4
	c0.9,0,1.7,0.8,1.7,1.7C475.8,70.8,475.1,71.5,474.2,71.5z M474.2,122.6H366.6c-0.9,0-1.7-0.8-1.7-1.7s0.8-1.7,1.7-1.7h107.4
	c0.9,0,1.7,0.8,1.7,1.7C475.8,121.9,475.1,122.6,474.2,122.6z"/>
<path class="st3" d="M537.6,149h5.7v-32.6c-0.9-0.4-1.9-0.7-2.9-0.7s-2,0.2-2.9,0.7L537.6,149z"/>
<path class="st4" d="M520.2,148.8h5v-32.6c-1.5-0.9-3.4-0.9-5,0V148.8z"/>
<path class="st5" d="M557,148.9l4.5-2.1L548,117.3c-0.9-0.1-1.7,0.1-2.6,0.4c-0.8,0.4-1.5,1-2,1.7L557,148.9z M525.2,148.8h5.7
	v-32.6c-0.9-0.4-1.9-0.7-2.9-0.7c-1,0-2,0.2-2.9,0.7L525.2,148.8z"/>
<path class="st4" d="M530.9,149h6.8v-32.6c-2.1-0.9-4.6-0.9-6.8,0V149z"/>
<path class="st2" d="M512,149.1c-0.3,0-0.6,0.3-0.6,0.6v1.5c0,0.3,0.3,0.6,0.6,0.6h56.9c0.3,0,0.6-0.3,0.6-0.6v-1.5
	c0-0.3-0.3-0.6-0.6-0.6H512z"/>
<path class="st0" d="M331.7,0.1h2.1v21.5h-2.1V0.1z"/>
<path class="st2" d="M349.3,43.6c0-9.1-7.4-16.5-16.5-16.5c-9.1,0-16.5,7.4-16.5,16.5H349.3z"/>
<path class="st2" d="M338.7,27.2c0,4.8-2.8,8.8-6.1,8.8s-6.1-3.9-6.1-8.8c0-4.8,2.8-8.8,6.1-8.8S338.7,22.4,338.7,27.2z"/>
<path class="st0" d="M304.6,0h2.1v62.7h-2.1V0z"/>
<path class="st2" d="M321.8,82.9c0-9.1-7.4-16.5-16.5-16.5c-9.1,0-16.5,7.4-16.5,16.5H321.8z"/>
<path class="st2" d="M311.1,66.5c0,4.8-2.8,8.8-6.1,8.8s-6.1-3.9-6.1-8.8c0-4.8,2.8-8.8,6.1-8.8S311.1,61.7,311.1,66.5z"/>
<path class="st6" d="M296.5,323.9l-44.2,0.1l0-4.1l43.1-0.1L296.5,323.9z"/>
<path class="st7" d="M240.7,361l27.6-119.3l7.3,1.7L244,361H240.7z"/>
<path class="st7" d="M110.2,361l36.7-117.1l-7.3-1.9L107,361H110.2z"/>
<path class="st6" d="M175.3,361l-27.6-119.3l-7.4,1.7L172,361H175.3z"/>
<path class="st6" d="M121.4,323.4h44.2v-4l-43.1-0.1L121.4,323.4z M107,244.9h202.4v-11.7H107V244.9z"/>
<path class="st6" d="M305.3,361.5l-36.6-116.9l7.3-1.9l32.5,118.8H305.3z"/>
<path class="st8" d="M509.3,303H556v46.7h-46.7V303z"/>
<path class="st9" d="M485.9,295.2l23.3,7.8v46.7l-23.3-7.8V295.2z"/>
<path class="st10" d="M556.1,303l-23.4-7.8h-46.7l23.3,7.8H556.1z"/>
<path class="st11" d="M511.3,306h15.9v6.9h-15.9V306z"/>
<path class="st7" d="M536.7,341v9.1h-8l-0.1-9.1H536.7z"/>
<path class="st6" d="M514.8,267.5h33.4v33.4h-33.4V267.5z"/>
<path class="st7" d="M498.1,262l16.7,5.5v33.4l-16.7-5.5V262z"/>
<path class="st12" d="M548.1,267.5l-16.6-5.5h-33.4l16.7,5.5H548.1z"/>
<path class="st13" d="M509.7,265.8v9.3l-5-1.6v-9.3L509.7,265.8z"/>
<path class="st7" d="M538.1,264.2l0.7,0.2l1,0.3l3.5,1.1h-33.6l-5-1.7H538.1z"/>
<path class="st11" d="M516.2,269.7h11.4v4.9h-11.4V269.7z"/>
<path class="st4" d="M416.4,315.3h38.9v38.9h-38.9V315.3z"/>
<path class="st14" d="M397,308.8l19.5,6.4v39l-19.5-6.5V308.8z"/>
<path class="st15" d="M455.3,315.3l-19.5-6.4H397l19.5,6.4H455.3z"/>
<path class="st11" d="M418.1,317.8h13.2v5.7h-13.2V317.8z"/>
<path class="st14" d="M423.1,308.8l16.1,6.4h-6.7l-15.6-6.4H423.1z M439.2,315.3v7.5h-6.6l-0.1-7.5H439.2z M439.2,346.9v7.5h-6.6
	l-0.1-7.5H439.2z"/>
<path class="st4" d="M539.2,259.1l-4.6,5.6h-27.8l-4.8-5.6H539.2z"/>
<path class="st4" d="M538.9,255.8l-4.6,5.6h-27.8l-4.8-5.6H538.9z"/>
<path class="st14" d="M536.1,259.1h-31.6l-1.1-1.3h33.8L536.1,259.1z"/>
<path class="st4" d="M538.3,252.2l-4.6,5.6h-27.7l-4.8-5.6H538.3z"/>
<path class="st14" d="M535.3,255.8h-31.2l-1.1-1.3h33.4L535.3,255.8z"/>
<path class="st4" d="M538.3,248.7l-4.6,5.6h-27.7l-4.8-5.6H538.3z"/>
<path class="st4" d="M538.3,244.9l-4.6,5.6h-27.7l-4.8-5.6H538.3z"/>
<path class="st14" d="M535.5,252.2h-31.4l-1.2-1.3h33.6L535.5,252.2z M535.1,248.7h-30.7l-1.1-1.3h32.9L535.1,248.7z"/>
<path class="st2" d="M511.4,302.1c-3.7,0-6.7-3-6.7-6.7v-10.2h13.4v10.2C518.1,299.1,515.1,302.1,511.4,302.1z"/>
<path class="st4" d="M439.2,314c-3.7,0-6.7-3-6.7-6.7V297h13.4v10.2C445.9,310.9,442.9,314,439.2,314z"/>
<path class="st2" d="M509.5,357.3c-3.7,0-6.7-3-6.7-6.7v-10.2h13.4v10.2C516.2,354.3,513.2,357.3,509.5,357.3z"/>
<path class="st16" d="M561.5,307.4c-5.5,2-2.9,9.6,0.6,12.9c3.8,3.7,9.7,5.7,12.9,1.7c1-1.2,0.1-2.7-1.4-2.6
	c-2.4,0.1-4.2-0.6-3.3-2.3c0.8-1.7,4.5,1.6,5.8,1.6c3,0.1,4.2-2.2,3.5-4.1c-0.6-1.5-4.7-2.1-3.7-3.3c1.5-1.8,3.5,1,5.1-0.3
	c2.4-1.9,1.9-5.7,0.9-7.1c-0.8-1.1-4.3-2.8-6.9-1.7c-2.4,1-1.7,6.4-2.8,6.4c-2.2,0.1-0.4-4.6-2.1-6c-1-0.8-4.1-0.3-4.8,1.7
	c-1,2.6,2.6,7.6,0,7.9c-2.4,0.3-1-2.5-1.7-4C563.4,308,562.6,307,561.5,307.4z"/>
<path class="st17" d="M544.3,350.6L544.3,350.6c-0.2-0.1-0.3-0.1-0.2-0.3c6-18.1,18.2-33.6,34.3-43.6c0.1-0.1,0.3,0,0.3,0.1
	c0.1,0.1,0,0.3-0.1,0.3c-16.1,10-28.2,25.4-34.2,43.4C544.5,350.5,544.4,350.6,544.3,350.6z"/>
<path class="st16" d="M546.2,291.9c-4,4.2,1.7,9.8,6.4,11.3c5.1,1.6,11.2,0.8,12.4-4.3c0.3-1.5-1.1-2.4-2.4-1.7
	c-2,1.1-3.9,1.4-3.9-0.6c0-1.9,4.7-0.6,6-1.2c2.7-1.3,2.7-3.8,1.2-5.2c-1.2-1.1-5.1,0.3-4.8-1.3c0.5-2.3,3.6-0.7,4.4-2.5
	c1.2-2.8-0.8-6-2.4-6.7c-1.2-0.6-5.1-0.6-6.9,1.6c-1.7,2,1.3,6.4,0.3,7.1c-1.9,1.1-2.4-3.9-4.6-4.4c-1.3-0.3-3.7,1.6-3.5,3.7
	c0.3,2.8,5.8,5.6,3.6,7.1c-2,1.4-2-1.7-3.4-2.8C548.2,291.5,547,291,546.2,291.9z"/>
<path class="st17" d="M550.2,338.2c-0.1,0-0.2-0.1-0.2-0.2c-2.8-18.8,1.2-38.1,11.1-54.4c0.1-0.1,0.2-0.1,0.3-0.1
	c0.1,0.1,0.1,0.2,0.1,0.3c-9.9,16.1-13.8,35.4-11,54.1C550.4,338.1,550.3,338.2,550.2,338.2z"/>
<path class="st16" d="M542,301.5c5,3,0.9,9.9-3.3,12.5c-4.5,2.8-10.7,3.7-13.1-0.9c-0.7-1.4,0.4-2.6,1.9-2.3
	c2.3,0.6,4.2,0.3,3.7-1.5c-0.5-1.8-4.7,0.6-6,0.4c-2.9-0.6-3.6-3-2.5-4.7c0.9-1.4,5-1.1,4.3-2.5c-1-2.1-3.7,0.3-4.9-1.2
	c-1.9-2.4-0.8-6,0.6-7.1c1-0.9,4.7-1.9,7.1-0.3c2.1,1.5,0.3,6.6,1.5,6.9c2.1,0.6,1.4-4.4,3.3-5.4c1.2-0.6,4,0.6,4.4,2.6
	c0.4,2.8-4.2,6.9-1.7,7.8c2.3,0.8,1.5-2.2,2.6-3.6C540,301.7,541,300.9,542,301.5z"/>
<path class="st17" d="M550.1,347.3c-0.1,0-0.2-0.1-0.2-0.2c-2.1-18.8-10.9-36.3-24.6-49.4c-0.1-0.1-0.1-0.2,0-0.3
	c0.1-0.1,0.2-0.1,0.3,0c13.8,13.2,22.6,30.8,24.8,49.7C550.4,347.1,550.2,347.3,550.1,347.3z"/>
<path class="st18" d="M540.4,357.1h17.9l2.7-24.5h-23.4L540.4,357.1z"/>
<path class="st19" d="M561,336.9h-23.6c-0.3,0-0.6-0.3-0.6-0.6l-0.3-3c0-0.4,0.3-0.7,0.6-0.7h24.2c0.4,0,0.7,0.3,0.6,0.7l-0.3,3
	C561.7,336.7,561.4,336.9,561,336.9z"/>
<path class="st20" d="M282.5,202.6c0.8-0.5,1.9-1,3.2-1.6c1.2-0.6,2.6-1.2,4.2-1.9c1.5-0.7,3.3-1.5,5.1-2.2c1.8-0.8,3.7-1.7,5.7-2.6
	c1.9-0.9,4-1.9,6-3c2-1,4.1-2.2,6.2-3.4c2-1.2,3.9-2.5,5.7-3.7c1.8-1.2,3.5-2.5,5-3.7c0.8-0.6,1.5-1.2,2.2-1.8
	c0.3-0.3,0.7-0.6,1-0.9c0.3-0.3,0.7-0.6,1-0.9c0.3-0.3,0.6-0.6,1-0.8c0.3-0.3,0.6-0.6,0.9-0.8c0.6-0.6,1.2-1.1,1.7-1.6
	c1.1-1,2.1-1.9,3-2.8c0.5-0.4,0.9-0.8,1.3-1.2c0.4-0.3,0.8-0.7,1.2-1l0.6-0.4c0.2-0.1,0.3-0.3,0.6-0.3c0.3-0.2,0.7-0.3,1-0.5
	c0.7-0.2,1.3-0.3,1.9-0.1c0.6,0.2,1,0.6,1.3,1.3c0.1,0.3,0.3,0.8,0.4,1.2c0.1,0.2,0.1,0.5,0.1,0.8v0.8c0,0.6-0.1,1.2-0.1,1.9
	c-0.1,0.7-0.3,1.4-0.5,2.1c-0.4,1.5-1,3.1-1.9,4.8c-0.4,0.8-1,1.7-1.5,2.6c-0.3,0.4-0.6,0.8-1,1.3c-0.3,0.4-0.6,0.9-1,1.3
	c-0.3,0.4-0.8,0.8-1.1,1.3c-0.4,0.4-0.8,0.8-1.2,1.3c-0.8,0.9-1.7,1.7-2.7,2.5c-1.9,1.6-4,3.2-6.3,4.6c-2.3,1.4-4.8,2.7-7.3,3.8
	c-2.6,1.1-5.1,2-7.6,2.7c-2.5,0.8-4.9,1.3-7.2,1.8c-2.3,0.5-4.4,0.8-6.5,1.1c-2,0.3-3.9,0.5-5.7,0.6c-1.7,0.1-3.3,0.3-4.6,0.3
	c-1.4,0.1-2.6,0.1-3.5,0c-1.9-0.1-3.1-0.3-3.2-0.8C279.8,204.2,280.7,203.5,282.5,202.6z"/>
<path class="st21" d="M438.5,332.7l-26,31.4l6.2-28.9c7.3,1.5,8.7-6.7,8.7-6.7L438.5,332.7z"/>
<path class="st5" d="M414.5,365.7l-1.9-1.6l26-31.4l1.9,1.6c0.5,0.3,0.5,1,0.1,1.5L416,365.5C415.6,366,414.9,366.1,414.5,365.7z
	 M422.2,341.3c0.1-0.3-0.2-0.7-0.6-0.7c-2.8-0.1-4.8,0.5-4.9,0.5c-0.3,0.1-0.6,0.5-0.5,0.8c0.1,0.3,0.5,0.6,0.8,0.4
	c0,0,1.8-0.6,4.4-0.5c0.1,0,0.3,0,0.3-0.1C422.1,341.8,422.2,341.6,422.2,341.3z M421.4,344.9c0.1-0.3-0.2-0.7-0.6-0.7
	c-2.8-0.1-4.8,0.5-4.9,0.5c-0.3,0.1-0.6,0.5-0.5,0.8c0.1,0.3,0.5,0.6,0.8,0.4c0,0,1.8-0.6,4.4-0.5c0.1,0,0.3,0,0.3-0.1
	C421.3,345.4,421.4,345.2,421.4,344.9z M420.6,348.6c0.1-0.3-0.2-0.7-0.6-0.7c-2.8-0.1-4.8,0.5-4.9,0.5c-0.3,0.1-0.6,0.5-0.5,0.8
	c0.1,0.3,0.5,0.6,0.8,0.4c0,0,1.8-0.6,4.4-0.5c0.1,0,0.3,0,0.3-0.1C420.4,349,420.5,348.8,420.6,348.6z"/>
<path class="st21" d="M348.4,362.8l-40.7,1l25.9-14.4c3.7,6.4,10.7,2.1,10.7,2.1L348.4,362.8z"/>
<path class="st5" d="M307.7,366.1l-0.1-2.2l40.7-1l0.1,2.2c0,0.8-0.6,1.4-1.3,1.4l-38.1,1C308.4,367.4,307.7,366.9,307.7,366.1z
	 M331.3,356.3c0.3-0.2,0.3-0.6,0.1-0.9c-1.8-2.2-3.5-3.3-3.6-3.4c-0.3-0.2-0.8-0.1-1,0.2c-0.2,0.3-0.1,0.7,0.2,0.9c0,0,1.7,1,3.3,3
	c0.1,0.1,0.2,0.1,0.3,0.2C330.8,356.5,331.1,356.4,331.3,356.3z M327.9,358c0.3-0.2,0.3-0.6,0.1-0.9c-1.8-2.2-3.5-3.3-3.6-3.4
	c-0.3-0.2-0.8-0.1-1,0.2c-0.2,0.3-0.1,0.7,0.2,0.9c0,0,1.7,1,3.3,3c0.1,0.1,0.2,0.1,0.3,0.2C327.5,358.2,327.7,358.1,327.9,358z
	 M324.7,359.7c0.3-0.2,0.3-0.6,0.1-0.9c-1.8-2.2-3.5-3.3-3.6-3.4c-0.3-0.2-0.8-0.1-1,0.2c-0.2,0.3-0.1,0.7,0.2,0.9c0,0,1.7,1,3.3,3
	c0.1,0.1,0.2,0.1,0.3,0.2C324.2,359.9,324.5,359.9,324.7,359.7z M329.7,181.8c-1-3.4-1.4-7-1-10.5c0.2-1.9,0.6-3.8,1.4-5.6
	c3.3-0.6,7.3-4.3,8.2-7.5c0.6-0.1,1.2-0.1,1.9-0.1c5.4,0.1,10.7,2.6,15,6c4.8,3.9,8.6,8.9,12,14.1c6.7,9.7,12.8,19.8,18.8,29.9
	c-8.4,8-18.6,14.1-29.8,17.3c-7.1-9.2-13.9-18.6-19.7-28.6C333.8,192,331.1,187.1,329.7,181.8z"/>
<path class="st22" d="M329.1,168.2c-0.3-0.8-0.8-1.7-1.1-2.5c-0.4-0.9-0.8-1.8-1.2-2.6c-0.8-1.6-1.6-3.1-2.5-4.6
	c-1-1.8-2.1-3.6-3.3-5.3c1.3-3.8,2.8-7.3,4.7-10.7c2.1,2.3,4.2,4.6,6.3,6.9c2.3,2.5,4.6,4.9,7,7.3l0.7,0.7c0.1,0.1,0.1,0.1,0.1,0.3
	c0.1,0.2,0.2,0.4,0.3,0.6c-0.3,1.2-0.8,2.5-1.3,3.6c-0.7,1.5-1.7,2.8-2.7,4c-2,2.3-4.6,4-7.4,5.1C328.7,170,328.8,169.1,329.1,168.2
	z"/>
<path class="st23" d="M324.2,158.4c-1-1.8-2.1-3.6-3.3-5.3c1.3-3.8,2.8-7.3,4.7-10.7c2.1,2.3,4.2,4.6,6.3,6.9
	c-0.1,7.5-2.9,10.7-5.3,13.7C325.9,161.4,325.1,159.9,324.2,158.4z"/>
<path class="st24" d="M327.5,136.5c-0.1-3.9-0.4-8-2.7-11.1c-1.5-1.9-3.6-3.3-6-3.9c-2.4-0.6-4.9-0.3-7.1,0.6
	c-2.2,0.8-4.2,2.4-5.4,4.4c-1.2,2-1.6,4.6-0.8,6.8C312.6,132.6,320.7,133.8,327.5,136.5z"/>
<path class="st25" d="M315.6,129.6c1.1-0.1,2.1-0.6,2.3,0.6c0.1,0.8-1,2.2-1.4,2.8c-1.1,1.7-2.6,3.3-4.4,4.4
	c-3,1.9-6.6,2.6-10.1,2.1c-1.7-0.3-3.5-1-4.6-2.4c-1.1-1.4-1.2-3.6,0-4.8c0.9-0.9,2.3-1,3.5-1.2
	C305.9,130.6,310.7,130.2,315.6,129.6z"/>
<path class="st21" d="M319.8,137.5c-1.1-2.6-1.7-5.3-1.7-8c1,0.1,2.1,0.4,3.1,0.8c0.5,0.1,1,0.3,1.5,0.6c2.1,1.4,3.9,3.3,5.2,5.5
	c2.1,3.7,2.8,8.1,1.9,12.3C325.3,146.1,321.8,142.1,319.8,137.5z M309.5,141.6c0.4-0.4,1-0.8,1.6-0.6c0.6,0.1,1,0.7,1.2,1.2
	c1,2.1,1.6,4.4,1.6,6.6c-2.7-0.8-4.9-3.1-5.6-5.9C308.8,142.8,309,142,309.5,141.6z"/>
<path class="st22" d="M317.6,132.6c2.5,2,5,4.1,7,6.6c2.1,2.5,3.7,5.4,4,8.6c0.4,3.2-0.6,6.6-2.9,8.8c-2.4,2.1-6.2,2.8-8.9,1
	c-2.6-1.7-3.5-5-4.2-8c-0.6-3-1.2-6.3-3.5-8.4C310.3,136.9,313.3,133.1,317.6,132.6z"/>
<path class="st22" d="M326.4,144.5c1.4-0.1,2.6-1.2,3-2.6c0.4-1.4-0.1-2.9-1.2-3.8c-0.6-0.5-1.4-0.8-2.1-0.5c-0.6,0.1-1,0.6-1.2,1.1
	c-0.3,0.5-0.4,1.1-0.5,1.7C325.2,141.7,325.9,143,326.4,144.5z"/>
<path class="st21" d="M303.3,142.1c-0.2-1-0.3-2.1-0.1-3.1c0.1-0.4,0.1-0.8,0.3-1.2c1.7-4,5.4-7.1,9.7-8.2c1.6-0.4,3.3-0.5,5-0.2
	c1,0.1,2.1,0.4,3.1,0.8c0.3,0.2,0.6,0.5,0.8,0.8c2.1,2.1,3.3,5.5,3.3,8.7c-2.1-0.1-4-0.8-5.5-2.1c-1-0.9-1.9-2-2.4-3.3
	c-1.8,4.1-4.9,7.7-8.7,10.2C306.6,145.7,303.9,144.6,303.3,142.1z"/>
<path class="st26" d="M363.9,245.2c-8.4,54.2,51.6,98.8,51.6,98.8l15.4-15.6c-53.6-40.8-42.3-94.7-42.3-94.7L363.9,245.2z"/>
<path class="st25" d="M388.7,233.7l-24.8,11.5c-3,19.5,2.8,37.9,11.6,53.3c4.5-11.2,9.8-22.3,14.1-33.6
	C386,246.8,388.7,233.7,388.7,233.7z"/>
<path class="st24" d="M336.7,184.9l29.5,12.2l10.2-5.9c0,0,16.5,32.7,11.6,50.1c-37.7,28.9-41.1,116.5-41.1,116.5l-22.8-6.6
	c-4.4-59.8,28.2-118,28.2-118c-1.2-16.8-20.4-45.3-20.4-45.3L336.7,184.9z"/>
<path class="st26" d="M375.6,192.8c-0.2-0.2-0.4-0.5-0.7-0.8c-0.3-0.3-0.6-0.7-0.8-1.2c-0.1-0.2-0.3-0.5-0.5-0.7
	c-0.1-0.3-0.3-0.5-0.6-0.8c-0.2-0.3-0.3-0.6-0.6-0.8c-0.2-0.3-0.4-0.6-0.6-0.9c-0.2-0.3-0.4-0.6-0.6-1c-0.2-0.3-0.5-0.6-0.7-1
	c-0.5-0.7-1-1.4-1.6-2.1c-1.1-1.5-2.4-3.1-3.8-4.8c-1.5-1.7-3-3.4-4.7-5.1c-1.7-1.7-3.6-3.5-5.7-5.2c-2-1.7-4.2-3.3-6.6-4.3
	c-2.4-1-4.8-1.4-7-0.9c-0.6,0.1-1,0.3-1.5,0.5l-0.3,0.1l-0.3,0.2c-0.1,0.1-0.2,0.1-0.3,0.2l-0.3,0.2c-0.8,0.6-1.6,1.5-2.1,2.4
	c-0.6,0.9-1,1.9-1.4,2.9c-0.1,0.3-0.1,0.5-0.2,0.8c-0.1,0.3-0.1,0.5-0.2,0.8c-0.1,0.3-0.1,0.5-0.1,0.8c-0.1,0.3-0.1,0.5-0.1,0.8
	c-0.2,2,0.1,3.9,0.5,5.7c0.4,1.8,1,3.3,1.5,4.7c0.6,1.4,1.1,2.6,1.5,3.5c0.9,1.9,1.4,3,1.2,3.2c-0.2,0.1-1-0.8-2.3-2.5
	c-0.6-0.9-1.4-2-2.1-3.3c-0.8-1.3-1.6-3-2.2-4.8c-0.3-1-0.6-2-0.8-3c-0.2-1.1-0.3-2.3-0.3-3.5c0-0.3,0-0.6,0.1-0.9
	c0-0.3,0.1-0.6,0.1-1c0.1-0.3,0.1-0.6,0.1-1c0.1-0.3,0.1-0.6,0.2-1c0.3-1.3,0.8-2.6,1.5-3.9c0.7-1.2,1.7-2.5,2.9-3.5
	c0.1-0.1,0.3-0.3,0.5-0.3c0.1-0.1,0.3-0.2,0.5-0.3c0.1-0.1,0.3-0.2,0.5-0.3c0.2-0.1,0.3-0.2,0.6-0.3c0.7-0.4,1.5-0.7,2.3-0.9
	c1.6-0.4,3.3-0.6,4.9-0.3c1.6,0.1,3.3,0.6,4.8,1.2c3,1.2,5.5,3,7.7,4.8c2.2,1.8,4.2,3.7,6,5.5c1.8,1.9,3.4,3.7,4.8,5.6
	c1.4,1.9,2.6,3.7,3.6,5.3c0.5,0.8,1,1.7,1.4,2.4c0.2,0.4,0.4,0.8,0.6,1.1c0.2,0.3,0.3,0.8,0.6,1.1c0.2,0.3,0.3,0.7,0.5,1
	c0.1,0.3,0.3,0.6,0.4,1c0.1,0.3,0.2,0.6,0.3,0.9c0.1,0.3,0.2,0.6,0.3,0.8c0.1,0.6,0.3,1,0.4,1.4c0.1,0.4,0.2,0.8,0.2,1
	c0.1,0.6,0.1,0.9-0.1,1C376.4,193.4,376.1,193.2,375.6,192.8z"/>
<path class="st22" d="M321.6,239.9c-0.1-0.3,0.2-0.6,0.7-1c0.3-0.2,0.6-0.4,1-0.6c0.2-0.1,0.4-0.3,0.6-0.3c0.2-0.1,0.4-0.3,0.7-0.4
	c0.5-0.3,1-0.6,1.6-1c0.6-0.3,1.2-0.8,1.8-1.2c0.6-0.4,1.3-1,2-1.5c0.7-0.5,1.4-1.2,2.1-1.8c0.2-0.1,0.3-0.3,0.6-0.5
	c0.2-0.1,0.3-0.3,0.6-0.5c0.3-0.3,0.7-0.7,1.1-1c0.3-0.3,0.7-0.8,1-1.2c0.3-0.4,0.7-0.8,1.1-1.2c0.3-0.4,0.7-0.8,1-1.3
	c0.1-0.2,0.3-0.4,0.6-0.6l0.5-0.7c0.3-0.5,0.7-0.9,1-1.4c0.3-0.5,0.6-1,0.9-1.5c0.3-0.5,0.6-1,0.9-1.6c0.3-0.6,0.6-1,0.8-1.6
	c0.3-0.6,0.6-1.1,0.8-1.7c0.2-0.6,0.5-1.2,0.7-1.7c0.9-2.4,1.6-4.7,2.1-7.2c0.4-2.5,0.6-4.8,0.7-7.2v-1.7c-0.1-0.6-0.1-1.1-0.1-1.7
	c0-0.6-0.1-1.1-0.1-1.7c-0.1-0.6-0.1-1.1-0.1-1.6c-0.1-0.6-0.1-1-0.1-1.6c-0.1-0.6-0.1-1-0.2-1.5c0-0.3-0.1-0.5-0.1-0.8
	c-0.1-0.3-0.1-0.5-0.1-0.8l-0.2-1.5c-0.1-0.5-0.2-1-0.3-1.4c-0.1-0.5-0.1-0.9-0.3-1.4c-0.1-0.2-0.1-0.4-0.1-0.6
	c5.9,1.7,12.4,1.3,18-1.2c0.2,0.6,0.4,1.2,0.6,1.8c0.1,0.3,0.2,0.7,0.3,1.1c0.1,0.3,0.1,0.8,0.3,1.1c0.1,0.8,0.3,1.5,0.5,2.3
	c0.1,0.8,0.2,1.6,0.3,2.4c0.1,0.8,0.1,1.7,0.2,2.5c0.1,0.8,0.1,1.7,0.1,2.6c0,0.8-0.1,1.7-0.1,2.6c-0.1,0.8-0.2,1.7-0.3,2.6
	c-0.5,3.5-1.4,7.1-2.8,10.6c-1.5,3.5-3.3,6.6-5.3,9.4c-0.6,0.7-1,1.4-1.6,2l-1.7,1.9c-0.6,0.6-1.1,1.2-1.7,1.7
	c-0.6,0.6-1.1,1.1-1.7,1.6c-0.6,0.5-1.2,1-1.7,1.5c-0.6,0.5-1.2,0.9-1.8,1.3c-0.3,0.2-0.6,0.4-0.9,0.6c-0.3,0.2-0.6,0.4-0.9,0.6
	c-0.6,0.3-1.2,0.8-1.7,1.1c-0.6,0.3-1.2,0.6-1.7,1c-0.6,0.3-1.1,0.6-1.7,0.8c-0.6,0.3-1.1,0.5-1.7,0.8c-0.3,0.1-0.6,0.3-0.8,0.3
	s-0.6,0.2-0.8,0.3c-1,0.4-2,0.8-3,1c-1,0.3-1.9,0.6-2.7,0.7c-0.8,0.1-1.7,0.3-2.4,0.4c-0.8,0.1-1.4,0.1-2,0.2
	c-0.3,0-0.6,0.1-0.8,0.1h-0.8c-0.5,0-0.9-0.1-1.2-0.1C322,240.3,321.6,240.2,321.6,239.9z"/>
<path class="st22" d="M319.8,248.7c-2.5-2.2-3-6.4-1.2-9.2c1.8-2.8,5.8-4,8.9-2.6C326.6,241.7,323.9,246.3,319.8,248.7z"/>
<path class="st20" d="M272.3,206.1c-0.2-1.2,0.2-2.4,1-3.4c0.8-1,1.7-1.7,2.8-2.2c3.9-1.9,8.7-1.9,12.5,0.3
	C284.3,204.8,278.2,206.9,272.3,206.1z"/>
<path class="st27" d="M113.1,232.8c0,0-5.3-4.4-3.3-10.9c1.9-6.4,10.6-11.4,21.1-9.4c10.5,2,18.8,13.1,19.7,20.3H113.1z"/>
<path class="st28" d="M148,218.2c1.8-1.6,4.2-2.5,6.6-2.5l-1.6,6.6L148,218.2z M142.3,218.5l-2.8-4.3c0,0-4.6,3.7-2.9,8.2
	C138.1,226.9,142.3,218.5,142.3,218.5z"/>
<path class="st27" d="M137.5,219.8c0,0-5.7,4.2-5.1,8.7c0.6,4.5,6.8,5.3,15.6,4.8c8.8-0.5,7.5-6.4,7.2-8.1
	C154.9,223.5,148.6,211.2,137.5,219.8z"/>
<path class="st29" d="M138.3,222.7c0.5,1.2,1.7,2.1,3.1,2.1c2.5,0.1,2.5-1.9,2.5-1.9S141.3,225.7,138.3,222.7z M146.6,223.1
	c0.5,1.2,1.7,2.1,3.1,2.1c2.5,0.1,2.5-1.9,2.5-1.9S149.6,226,146.6,223.1z M144.5,225.8c0.6-0.1,1.2,0,1.8,0.3c0.6,0.3-1,1.5-1,1.5
	S143.6,226.2,144.5,225.8z"/>
<path class="st30" d="M135.3,221.7c0,0-7.5,6.9,1.6,11C136.9,232.8,130.9,229.2,135.3,221.7z"/>
<path class="st28" d="M123.1,231.2c5.9-0.8,7.5-1.7,8.3,0.6c0.8,2.4-13.5,5.6-18.3,1c-4.8-4.7-3.6-9.7-3.6-9.7
	S111.9,232.8,123.1,231.2z"/>
</svg>
