<svg version="1.1" xmlns="http://www.w3.org/2000/svg" xmlns:xlink="http://www.w3.org/1999/xlink" width="30" height="30" viewBox="0 0 30 30">
<style type="text/css">
	.st0{fill:#FFFFFF;}
	.st1{fill:url(#bg);}
	.st2{fill:#C8DAEA;}
	.st3{fill:#A9C6D8;}
</style>
<path class="st0" d="M9.2,0h11.5C25.8,0,30,4.2,30,9.2v11.5c0,5.1-4.2,9.2-9.2,9.2H9.2C4.2,30,0,25.8,0,20.8V9.2C0,4.2,4.2,0,9.2,0z
	"/>
<linearGradient id="bg" gradientUnits="userSpaceOnUse" x1="15" y1="4.4999" x2="15" y2="29.5" gradientTransform="matrix(1 0 0 -1 0 32)">
	<stop  offset="0" style="stop-color:#1D93D2"/>
	<stop  offset="1" style="stop-color:#38B0E3"/>
</linearGradient>
<path class="st1" d="M2.5,15c0,6.9,5.5,12.5,12.5,12.5c6.9,0,12.5-5.7,12.5-12.5c0-6.9-5.5-12.5-12.5-12.5C8.1,2.5,2.5,8.1,2.5,15z"
	/>
<path class="st2" d="M9.7,15.7l1.7,5c0,0,0.2,0.5,0.5,0.5c0.2,0,3.8-3.7,3.8-3.7l3.9-7.6l-9.9,4.6V15.7z"/>
<path class="st3" d="M12.1,17l-0.5,3.8c0,0,0,0.9,1-0.3c1.2-1.2,2.2-2,2.2-2"/>
<path class="st0" d="M9.7,15.8L6,14.7c0,0-0.5-0.2-0.3-0.6c0-0.1,0.1-0.1,0.2-0.2C6.9,13.2,21,8.1,21,8.1s0.3-0.1,0.7,0
	c0.1,0,0.2,0.1,0.2,0.2c0,0.1,0,0.2,0,0.3c0,0.1,0,0.2,0,0.3c-0.1,1.4-2.7,11.8-2.7,11.8s-0.1,0.6-0.7,0.6c-0.2,0-0.5,0-0.7-0.2
	c-1-0.9-4.8-3.5-5.7-4L12.1,17c0-0.1,0-0.1,0-0.1s6.6-5.9,6.7-6.5c0,0,0-0.1-0.1,0c-0.5,0.1-8,5-8.8,5.4H9.7z"/>
</svg>
