<svg version="1.1" xmlns="http://www.w3.org/2000/svg" xmlns:xlink="http://www.w3.org/1999/xlink" width="630" height="390" viewBox="0 0 630 390">
<style type="text/css">
	.st0{fill:#EAF1FC;}
	.st1{fill:#F8F8FF;}
	.st2{fill:#FFFFFF;}
	.st3{fill:#D6E0F0;}
	.st4{fill:#FCFBFC;}
	.st5{fill:#E9EDF4;}
	.st6{fill:#CDE4F7;}
	.st7{fill:#F8C47A;}
	.st8{fill:#E19A54;}
	.st9{fill:#FFDF9A;}
	.st10{fill:#E4E6E6;}
	.st11{fill:#CE8D4D;}
	.st12{fill:#E5B571;}
	.st13{fill:#ECCF8F;}
	.st14{fill:#ECCF8E;}
	.st15{fill:#C07532;}
	.st16{fill:#DADCDC;}
	.st17{fill:#0B2B46;}
	.st18{fill:#DB3E3E;}
	.st19{fill:#C93D37;}
	.st20{fill:#EE4D4A;}
	.st21{fill:#FF8500;}
	.st22{fill:#AF7309;}
	.st23{fill:#A97000;}
	.st24{fill:#F4A721;}
	.st25{fill:#E8815F;}
	.st26{fill:#0A273A;}
	.st27{fill:#F09976;}
	.st28{fill:#4FA52B;}
	.st29{fill:#02819F;}
	.st30{fill:#E08F73;}
	.st31{fill:#047487;}
	.st32{fill:#05616B;}
</style>
<path class="st0" d="M314.9,387.2c173.9,0,314.9-19,314.9-42.5c0-23.5-141-42.5-314.9-42.5C141,302.2,0,321.3,0,344.7
	C0,368.2,141,387.2,314.9,387.2z"/>
<path class="st1" d="M575.3,324.2c35.9-74.6,55.7-217.5-22.2-264.9c-50.9-31-104,8.9-158.4,10.7c-42.7,1.4-83.9-32.3-122.5-42
	c-101-25.3-259.9,40.4-190,296.1C256.9,323.7,400.6,324.7,575.3,324.2z"/>
<path class="st2" d="M296.2,206H193.7c-0.7,0-1.3-0.3-1.8-0.7c-0.5-0.5-0.7-1.1-0.7-1.8V54.8c-3.9-55.6,18.4-53.7,53.7-53.7h0
	c56.1-3.6,53.7,24.1,53.7,53.7v148.6c0,0.7-0.3,1.3-0.7,1.8C297.5,205.7,296.8,206,296.2,206z"/>
<path class="st3" d="M296.7,208.2H192.1c-0.8,0-1.6-0.3-2.2-0.9c-0.6-0.6-0.9-1.4-0.9-2.2V32.6c0-8.6,3.4-16.9,9.5-23
	c6.1-6.1,14.4-9.5,23-9.5h45.6c8.6,0,16.9,3.4,23,9.5c6.1,6.1,9.6,14.4,9.6,23v172.4c0,0.8-0.3,1.6-0.9,2.2S297.5,208.2,296.7,208.2
	L296.7,208.2z M192.3,204.9h104.2V32.6c0-7.8-3.1-15.2-8.6-20.7c-5.5-5.5-12.9-8.6-20.7-8.6h-45.6c-7.8,0-15.2,3.1-20.7,8.6
	c-5.5,5.5-8.6,12.9-8.6,20.7L192.3,204.9L192.3,204.9z"/>
<path class="st3" d="M244.4,206.8c-0.4,0-0.9-0.2-1.2-0.5c-0.3-0.3-0.5-0.7-0.5-1.2V1.6c0-0.4,0.2-0.9,0.5-1.2
	c0.3-0.3,0.7-0.5,1.2-0.5s0.9,0.2,1.2,0.5c0.3,0.3,0.5,0.7,0.5,1.2v203.5c0,0.4-0.2,0.9-0.5,1.2
	C245.3,206.7,244.8,206.8,244.4,206.8L244.4,206.8z"/>
<path class="st3" d="M298.1,159.8H190.7c-0.4,0-0.9-0.2-1.2-0.5c-0.3-0.3-0.5-0.7-0.5-1.2c0-0.4,0.2-0.9,0.5-1.2
	c0.3-0.3,0.7-0.5,1.2-0.5h107.5c0.4,0,0.9,0.2,1.2,0.5c0.3,0.3,0.5,0.7,0.5,1.2c0,0.4-0.2,0.9-0.5,1.2
	C299,159.6,298.6,159.8,298.1,159.8L298.1,159.8z M298.1,57.6H190.7c-0.4,0-0.9-0.2-1.2-0.5c-0.3-0.3-0.5-0.7-0.5-1.2
	s0.2-0.9,0.5-1.2c0.3-0.3,0.7-0.5,1.2-0.5h107.5c0.4,0,0.9,0.2,1.2,0.5c0.3,0.3,0.5,0.7,0.5,1.2s-0.2,0.9-0.5,1.2
	C299,57.5,298.6,57.6,298.1,57.6L298.1,57.6z M298.1,108.7H190.7c-0.4,0-0.9-0.2-1.2-0.5c-0.3-0.3-0.5-0.7-0.5-1.2
	c0-0.4,0.2-0.9,0.5-1.2c0.3-0.3,0.7-0.5,1.2-0.5h107.5c0.4,0,0.9,0.2,1.2,0.5c0.3,0.3,0.5,0.7,0.5,1.2c0,0.4-0.2,0.9-0.5,1.2
	C299,108.6,298.6,108.7,298.1,108.7L298.1,108.7z"/>
<path class="st3" d="M368.7,140.6c10.6,0,19.2-8.6,19.2-19.2s-8.6-19.2-19.2-19.2s-19.2,8.6-19.2,19.2S358.1,140.6,368.7,140.6z"/>
<path class="st4" d="M368.7,135.9c8,0,14.5-6.5,14.5-14.5c0-8-6.5-14.5-14.5-14.5c-8,0-14.5,6.5-14.5,14.5
	C354.1,129.4,360.6,135.9,368.7,135.9z"/>
<path class="st3" d="M364.1,130.7l3.4-9.8c0.1-0.5,0.7-0.8,1.1-0.6l9.9,2.4c0.5,0.1,0.8,0.6,0.7,1.2c-0.1,0.6-0.6,0.8-1.1,0.8
	l-9.1-2.2l-3.1,8.9c-0.1,0.4-0.5,0.6-0.9,0.6c-0.1,0-0.2,0-0.3-0.1C364.1,131.8,363.9,131.2,364.1,130.7L364.1,130.7z"/>
<path class="st3" d="M368.4,123.4c1.1,0,2-0.9,2-2c0-1.1-0.9-2-2-2c-1.1,0-2,0.9-2,2C366.4,122.5,367.3,123.4,368.4,123.4z"/>
<path class="st5" d="M248,183.5c-5.5,2-2.9,9.6,0.6,12.9c3.8,3.7,9.7,5.7,12.9,1.7c0.6-0.6,0.6-1.7-0.1-2.2
	c-0.3-0.3-0.8-0.5-1.3-0.4c-2.4,0.1-4.2-0.6-3.3-2.3c0.9-1.7,4.5,1.6,5.8,1.6c3,0.1,4.2-2.2,3.5-4.1c-0.6-1.5-4.7-2.1-3.7-3.3
	c1.5-1.8,3.5,1,5.1-0.3c2.4-1.9,1.9-5.7,0.9-7.1c-0.8-1.1-4.3-2.8-6.9-1.7c-2.4,1-1.7,6.4-2.8,6.4c-2.2,0.1-0.4-4.6-2.1-6
	c-1-0.8-4.1-0.3-4.8,1.7c-1,2.6,2.6,7.6,0,7.9c-2.4,0.3-1-2.5-1.7-4C250,184.1,249.1,183.1,248,183.5L248,183.5z"/>
<path class="st6" d="M230.8,226.7L230.8,226.7c-0.2-0.1-0.3-0.2-0.2-0.3c6-18.1,18.1-33.6,34.3-43.6c0.1-0.1,0.3-0.1,0.3,0.1
	c0.1,0.1,0.1,0.3-0.1,0.3c-16.1,10-28.2,25.4-34.2,43.4C231,226.7,230.9,226.7,230.8,226.7L230.8,226.7z"/>
<path class="st5" d="M232.7,168c-4,4.2,1.7,9.8,6.4,11.3c5.1,1.6,11.2,0.8,12.4-4.3c0.3-0.8-0.2-1.7-1-1.9c-0.5-0.1-1-0.1-1.3,0.2
	c-2.1,1.1-3.9,1.4-3.9-0.6c0-1.9,4.7-0.6,6-1.2c2.7-1.3,2.7-3.8,1.2-5.2c-1.2-1.1-5.1,0.3-4.8-1.3c0.5-2.3,3.6-0.7,4.4-2.5
	c1.2-2.8-0.8-6-2.4-6.7c-1.2-0.6-5.1-0.6-6.9,1.6c-1.7,2,1.4,6.4,0.3,7.1c-1.9,1.1-2.4-3.9-4.6-4.4c-1.3-0.3-3.8,1.6-3.5,3.7
	c0.3,2.8,5.8,5.6,3.6,7.1c-2,1.4-2-1.8-3.4-2.8C234.7,167.7,233.6,167.2,232.7,168L232.7,168z"/>
<path class="st6" d="M236.7,214.3c-0.1,0-0.2-0.1-0.2-0.2c-2.8-18.9,1.1-38.1,11.1-54.4c0.1-0.1,0.2-0.1,0.3-0.1
	c0.1,0.1,0.1,0.2,0.1,0.3c-9.9,16.2-13.8,35.4-11,54.1C237,214.2,236.9,214.3,236.7,214.3C236.8,214.3,236.8,214.3,236.7,214.3
	L236.7,214.3z"/>
<path class="st5" d="M228.6,177.6c5,3,0.9,9.9-3.3,12.5c-4.5,2.8-10.7,3.7-13.1-0.9c-0.4-0.8-0.2-1.7,0.6-2.1
	c0.4-0.2,0.9-0.3,1.3-0.1c2.3,0.6,4.2,0.3,3.7-1.5c-0.5-1.9-4.7,0.6-6,0.4c-2.9-0.6-3.6-3-2.6-4.7c0.9-1.4,5-1.1,4.3-2.5
	c-1-2.1-3.7,0.3-4.9-1.2c-1.9-2.4-0.8-6,0.6-7.1c1-0.9,4.7-1.9,7.1-0.3c2.2,1.5,0.3,6.6,1.5,6.9c2.1,0.6,1.4-4.4,3.3-5.4
	c1.2-0.6,4,0.6,4.4,2.6c0.4,2.8-4.2,6.9-1.7,7.8c2.3,0.8,1.5-2.2,2.6-3.6C226.6,177.8,227.6,177,228.6,177.6z"/>
<path class="st6" d="M236.7,223.4c-0.1,0-0.2-0.1-0.2-0.2c-2.1-18.8-10.9-36.3-24.6-49.4c-0.1-0.1-0.1-0.2,0-0.3
	c0.1-0.1,0.2-0.1,0.3,0c13.8,13.2,22.6,30.7,24.8,49.7C236.9,223.3,236.8,223.4,236.7,223.4L236.7,223.4z"/>
<path class="st2" d="M227,232.2h17.9l2.7-24.4h-23.5L227,232.2z"/>
<path class="st5" d="M247.6,212.1H224c-0.3,0-0.6-0.3-0.6-0.6l-0.3-3c0-0.3,0.3-0.7,0.6-0.7h24.2c0.3,0,0.6,0.3,0.6,0.7l-0.3,3
	C248.2,211.8,248,212.1,247.6,212.1z"/>
<path class="st5" d="M537.6,148.1h5.7v-32.6c-0.9-0.4-1.9-0.7-2.9-0.7c-1,0-2,0.2-2.9,0.7L537.6,148.1L537.6,148.1z"/>
<path class="st6" d="M520.2,148h5v-32.6c-0.8-0.4-1.6-0.7-2.5-0.7c-0.9,0-1.7,0.2-2.5,0.7V148z"/>
<path class="st2" d="M557,148.1l4.5-2.1l-13.7-29.6c-0.9-0.1-1.7,0.1-2.5,0.4c-0.8,0.4-1.5,0.9-2,1.7L557,148.1z M525.2,148h5.7
	v-32.6c-0.9-0.4-1.9-0.7-2.9-0.7c-1,0-2,0.2-2.9,0.7L525.2,148L525.2,148z"/>
<path class="st6" d="M530.9,148.1h6.8v-32.6c-2.2-0.9-4.6-0.9-6.8,0L530.9,148.1L530.9,148.1z"/>
<path class="st3" d="M511.9,148.3c-0.2,0-0.3,0.1-0.4,0.2c-0.1,0.1-0.2,0.3-0.2,0.4v1.5c0,0.2,0.1,0.3,0.2,0.4
	c0.1,0.1,0.3,0.2,0.4,0.2h56.9c0.2,0,0.3-0.1,0.4-0.2c0.1-0.1,0.2-0.3,0.2-0.4v-1.5c0-0.2-0.1-0.3-0.2-0.4c-0.1-0.1-0.3-0.2-0.4-0.2
	H511.9z"/>
<path class="st0" d="M334.4,4.7h2.1v78.2h-2.1V4.7z"/>
<path class="st3" d="M352.4,104.4c0-4.2-1.8-8.3-4.9-11.3c-3.1-3-7.3-4.7-11.7-4.7c-4.4,0-8.6,1.7-11.7,4.7c-3.1,3-4.9,7-4.9,11.3
	H352.4z"/>
<path class="st3" d="M341.3,88.1c0,4.8-2.6,8.7-5.9,8.7c-3.3,0-5.9-3.9-5.9-8.7c0-4.8,2.6-8.7,5.9-8.7
	C338.7,79.5,341.3,83.3,341.3,88.1L341.3,88.1z"/>
<path class="st0" d="M304.6,4.7h2.1v61.6h-2.1V4.7z"/>
<path class="st3" d="M321.9,86.4c0-4.4-1.8-8.6-4.9-11.7c-3.1-3.1-7.3-4.9-11.7-4.9c-4.4,0-8.6,1.8-11.7,4.9
	c-3.1,3.1-4.9,7.3-4.9,11.7H321.9z"/>
<path class="st3" d="M310.8,70.1c0,4.8-2.8,8.6-6.1,8.6c-3.3,0-6.1-3.9-6.1-8.6c0-4.8,2.7-8.6,6.1-8.6
	C308.1,61.5,310.8,65.3,310.8,70.1z M256.6,359.8l-36.4-115.2l7.3-1.9l32.4,117.1H256.6z"/>
<path class="st3" d="M191.6,360.1l27.6-119.3l7.4,1.8l-31.7,117.5H191.6L191.6,360.1z"/>
<path class="st3" d="M245.9,322.6l-44.2,0v-4l43.1,0L245.9,322.6L245.9,322.6z M61.1,360.1l36.7-117.1l-7.3-1.9l-32.6,119H61.1
	L61.1,360.1z"/>
<path class="st3" d="M126.1,360.1L98.5,240.8l-7.4,1.8l31.7,117.5H126.1z"/>
<path class="st3" d="M71.8,322.6l44.2,0v-4l-43.1,0L71.8,322.6z M57.4,244.1h202.4v-11.7H57.4V244.1z"/>
<path class="st7" d="M183,312.7h49.8v45.8H183V312.7z"/>
<path class="st8" d="M257.8,305.1l-24.9,7.6v45.8l24.9-7.6V305.1z"/>
<path class="st9" d="M183,312.7l24.9-7.6h49.8l-24.9,7.6H183z"/>
<path class="st10" d="M213.8,315.6h16.9v6.7h-16.9V315.6z"/>
<path class="st11" d="M224.2,305.1l-20.6,7.6h8.6l20-7.6H224.2z M203.6,312.7v8.9h8.5l0.1-8.9H203.6z M203.6,349.9v8.9h8.5l0.1-8.9
	H203.6z"/>
<path class="st12" d="M191.4,277.9H227v32.7h-35.6V277.9z"/>
<path class="st11" d="M244.8,272.5l-17.8,5.5v32.7l17.8-5.5V272.5z"/>
<path class="st13" d="M191.4,277.9l17.8-5.5h35.6l-17.8,5.5H191.4z"/>
<path class="st11" d="M202.2,274.6l-0.7,0.2l-1.1,0.3l-3.7,1.1h35.8l5.3-1.6H202.2L202.2,274.6z"/>
<path class="st10" d="M213.4,280h12.1v4.8h-12.1V280z"/>
<path class="st12" d="M236.3,310.1h67.4v47.6h-67.4V310.1z"/>
<path class="st10" d="M275.4,320.4h22.9v12h-22.9V320.4z"/>
<path class="st11" d="M337.4,302.1l-33.7,7.9v47.6l33.7-7.9V302.1L337.4,302.1z"/>
<path class="st14" d="M236.3,310.1l33.7-7.9h67.4l-33.7,7.9H236.3z"/>
<path class="st15" d="M314,307.6v13.3l10.1-2.3v-13.3L314,307.6L314,307.6z"/>
<path class="st11" d="M256.7,305.3l-1.4,0.3l-2.1,0.5l-7.1,1.6H314l10.1-2.4H256.7L256.7,305.3z"/>
<path class="st15" d="M314,341.9v13.3l10.1-2.3v-13.3L314,341.9L314,341.9z"/>
<path class="st12" d="M240.9,266.3h59.7v42.2h-59.7V266.3z"/>
<path class="st16" d="M275.5,270.6h20.3v10.6h-20.3V270.6z"/>
<path class="st11" d="M330.5,259.3l-29.9,7v42.2l29.9-7V259.3z"/>
<path class="st14" d="M240.9,266.3l29.9-7h59.7l-29.9,7H240.9z"/>
<path class="st15" d="M309.7,264.2V276l8.9-2.1v-11.8L309.7,264.2L309.7,264.2z"/>
<path class="st11" d="M258.9,262.1l-1.2,0.3l-1.9,0.4l-6.3,1.4h60.2l8.9-2.1H258.9z"/>
<path class="st15" d="M309.7,294.6v11.8l8.9-2.1v-11.8L309.7,294.6z"/>
<path class="st17" d="M492.2,335.5h-5.9l2.1-40.8h12.9L492.2,335.5L492.2,335.5z"/>
<path class="st17" d="M567.3,335.8h5.9l-2.1-40.9h-12.9L567.3,335.8L567.3,335.8z"/>
<path class="st17" d="M477.3,296.6h106.1v10H477.3V296.6z"/>
<path class="st18" d="M575.9,267.4c0,3.7-1.6,7.3-4.2,10c-2.7,2.6-6.2,4.1-10,4.2h-67.1c-3.7,0-7.3-1.5-9.9-4.2
	c-2.6-2.6-4.1-6.2-4-9.9v-65.5c0-1.8,0.3-3.6,1-5.3c0.7-1.7,1.7-3.2,3-4.5c1.3-1.3,2.8-2.3,4.5-3c1.7-0.7,3.5-1,5.3-1h67.1
	c7.7,0,14.2,6.2,14.2,13.9V267.4z"/>
<path class="st19" d="M498.7,288.3c0.7,2.3,0.4,4.9-0.8,7c-1.2,2.1-3.1,3.7-5.5,4.4l-10,2.9c-2.3,0.7-4.9,0.4-7-0.8
	c-2.1-1.2-3.7-3.1-4.4-5.5l-12.8-43.9c-0.7-2.3-0.4-4.9,0.8-7c1.2-2.1,3.1-3.7,5.5-4.4l10-2.9c2.3-0.7,4.9-0.4,7,0.8
	s3.7,3.1,4.4,5.5L498.7,288.3z M559,288.3c-0.7,2.3-0.4,4.9,0.8,7c1.2,2.1,3.1,3.7,5.5,4.4l10,2.9c2.3,0.7,4.9,0.4,7-0.8
	c2.1-1.2,3.7-3.1,4.4-5.5l12.8-43.9c0.7-2.3,0.4-4.9-0.8-7c-1.2-2.1-3.1-3.7-5.5-4.4l-10-2.9c-2.3-0.7-4.9-0.4-7,0.8
	c-2.1,1.2-3.7,3.1-4.4,5.5L559,288.3z"/>
<path class="st20" d="M575.9,287.4c0,4-1.6,7.8-4.4,10.6c-2.8,2.8-6.6,4.4-10.6,4.4h-65.1c-4,0-7.8-1.6-10.6-4.4
	c-2.8-2.8-4.4-6.6-4.4-10.6c0-4,1.6-7.8,4.4-10.6s6.6-4.4,10.6-4.4h65.1c4,0,7.8,1.6,10.6,4.4C574.3,279.6,575.9,283.4,575.9,287.4
	L575.9,287.4z"/>
<path class="st21" d="M515.6,283.7c0,0-6.6-5.6-4.2-13.7c2.4-8.1,13.3-14.4,26.6-11.9c13.3,2.5,23.7,16.5,24.8,25.5H515.6z"/>
<path class="st22" d="M559.7,265.3c2.3-2,5.2-3.1,8.3-3.1l-2,8.4L559.7,265.3z M552.4,265.7l-3.6-5.4c0,0-5.8,4.6-3.7,10.3
	C547.2,276.2,552.4,265.7,552.4,265.7L552.4,265.7z"/>
<path class="st21" d="M546.4,267.3c0,0-7.1,5.2-6.4,10.9c0.7,5.7,8.5,6.7,19.6,6.1c11.1-0.6,9.5-8,9.1-10.2
	C568.3,272,560.5,256.5,546.4,267.3z"/>
<path class="st23" d="M547.4,271c0.6,1.6,2.2,2.6,3.9,2.6c3.1,0.2,3.1-2.4,3.1-2.4S551.2,274.8,547.4,271z M557.9,271.4
	c0.6,1.6,2.2,2.6,3.9,2.6c3.1,0.2,3.1-2.4,3.1-2.4S561.7,275.2,557.9,271.4z M555.2,274.9c0.8-0.1,1.6,0,2.3,0.3
	c0.7,0.4-1.3,1.8-1.3,1.8S554.1,275.5,555.2,274.9z"/>
<path class="st24" d="M543.7,269.8c0,0-9.5,8.6,2,13.9C545.7,283.7,538.1,279.1,543.7,269.8z"/>
<path class="st22" d="M528.3,281.6c7.4-1,9.5-2.2,10.5,0.8c1,3-17,7.1-23.1,1.2c-6-5.9-4.5-12.2-4.5-12.2S514.3,283.7,528.3,281.6
	L528.3,281.6z"/>
<path class="st25" d="M124.2,165.2c7.8,6.3,18.9,11.4,29.3,12.1c11.3-4.8,31.2-15.7,29-17.8c-10.6,0.3-17.6,4.1-30.2,8.1
	C147.4,165.5,109.3,148.2,124.2,165.2z M115,330.3c-1.4-35.2-3.5-75.4,1.5-111.2c1.6-6.6-0.3-24.9,7.4-19.2
	c19.8,14.7,0,107.1-0.7,119.9c-2,9.7-3.2,26.8-6.4,33.3C115.2,346.7,115.7,339.3,115,330.3L115,330.3z"/>
<path class="st26" d="M116.8,355.6c1.3,5.8,17.3,6.7,15.8,1.6c-2.4-2.2-6.4-2.3-9.4-4.2C117.9,349.6,115.3,348.6,116.8,355.6
	L116.8,355.6z"/>
<path class="st27" d="M104.7,330.3c-1.4-35.2-3.5-75.4,1.5-111.2c1.6-6.6-0.3-24.9,7.4-19.2c19.8,14.7,0,107.1-0.7,119.9
	c-2,9.7-3.2,26.8-6.4,33.3C104.9,346.7,105.4,339.3,104.7,330.3z"/>
<path class="st17" d="M106,355.6c1.3,5.8,17.3,6.7,15.8,1.6c-2.4-2.2-6.4-2.3-9.4-4.2C107.1,349.6,104.5,348.6,106,355.6L106,355.6z
	 M128,191.9c8.3,25,7.4,77.8,7.3,81.6c-8.6,4.4-40.6,6-38.3-2.8c-1.4-44,10.6-75.1,11.9-78.9C107.8,191.3,119.2,190.2,128,191.9z
	 M104.3,117.1c-0.8,3.4,0,7.8-3.2,10.4c-22.3,16.2,6.8,32.9,22.5,21.6c7.1-5.4-0.2-11.1,1.9-16.9
	C142.4,109.8,109.2,102.4,104.3,117.1z"/>
<path class="st28" d="M101.1,161c0.9,1.5,1.8,7,4.3,7.8c5.2,10.7,1.6,22.9,5.1,23.3c4.8,1.4,10.5,1.3,15.7,0.1c3.4-0.2,2.6-4,4-6.8
	c1.5-4.9,3.1-11.8,3-18.8c1.8-1,3.3-2.3,4.6-3.8c1.1-1,0.4-0.7-0.7-3C125.7,139.1,94.3,136.2,101.1,161L101.1,161z"/>
<path class="st27" d="M109.6,143.5c3.5,12,25.1,7.8,13.2,2.6C118.6,144.2,117.5,142.4,109.6,143.5z"/>
<path class="st27" d="M122.1,150l-11.4-5.2c1.9-6.5,1.7-10.6,0.8-17.3c2.5,1.8,7.5,3.5,8.1,7C119.3,140.2,120.2,144.6,122.1,150z"/>
<path class="st25" d="M119.9,142c-8.3-2.7-8.1-7.6-8.5-14.6C121.2,133.5,118.9,131.5,119.9,142z"/>
<path class="st27" d="M111.5,130.2c-0.6,7.1,11,13.5,13.5,4.7c1.2-5.8-4.5-10-1.8-15.9C118.9,122,109.4,122.3,111.5,130.2
	L111.5,130.2z"/>
<path class="st27" d="M111.6,129c-0.8-3.1-4.1,1.2-1.7,3.3C113.7,134.9,112.1,131.5,111.6,129z"/>
<path class="st29" d="M185,189.8c5.2-16.8-5.1-32.5-1.3-54.4c0.8-4.5,2.8-8.6,5.9-11.9c0.4-0.5,0.7-1.1,0.9-1.7
	c0.2-0.6,0.1-1.3,0-1.9s-0.5-1.2-0.9-1.7c-0.4-0.5-1-0.8-1.6-1l-7.4-2.3c-0.6-0.2-1.3-0.2-1.9-0.1c-0.6,0.1-1.2,0.4-1.7,0.8
	c-0.5,0.4-0.9,1-1.1,1.6c-0.2,0.6-0.3,1.3-0.2,1.9c0.6,4.5,0,9-1.9,13.2c-9.3,20.2-26.6,27.4-31.8,44.2c-1.2,3.7-1.3,7.6-0.3,11.4
	c1,3.7,3,7.1,5.8,9.8l-0.9,2.9c-0.1,0.4-0.2,0.9-0.1,1.3c0,0.4,0.2,0.9,0.4,1.2c0.2,0.4,0.5,0.7,0.8,1c0.3,0.3,0.7,0.5,1.1,0.6
	l14.9,4.6c0.4,0.1,0.9,0.2,1.3,0.1c0.4,0,0.9-0.2,1.2-0.4c0.4-0.2,0.7-0.5,1-0.8c0.3-0.3,0.5-0.7,0.6-1.1l0.9-2.9
	c3.8-0.6,7.4-2.3,10.3-4.8C181.8,196.8,183.9,193.5,185,189.8z"/>
<path class="st2" d="M112,132.9c-0.7,2.3-3.9-0.7-0.9-1.3c0.3,0.1,0.5,0.2,0.7,0.5C111.9,132.4,112,132.7,112,132.9L112,132.9z"/>
<path class="st27" d="M105.1,168.8c2.6,5.3,6.5,12.4,10.8,16.8c12.8,4.4,41.7,13,41.4,10.1c-4.4-4.5-16.6-9.3-23-12.5
	c-3.9-1.8-8-3.6-12.4-5.4c-2.1-4.8-4.1-9.7-6.4-14.8C112.9,166.1,109.2,168.2,105.1,168.8L105.1,168.8z"/>
<path class="st27" d="M149.8,191.2c1.4,0.7,8.8-4.1,7.1-1.4c-0.6,1.1-3.6,1.6-1.1,3.2c7.9,1.2,6.9,6.6-0.4,6.9
	C151.6,199.4,146,194.5,149.8,191.2z"/>
<path class="st27" d="M183.3,153.3c0,0,8.5,1.2,5.4,7.5c-3.1,6.3-8.2,2.8-7.9-0.2C181.1,157.6,182.8,153.2,183.3,153.3z"/>
<path class="st30" d="M457.9,155.9c-0.6-0.1-1.3,1-2.2,3.1c-0.4,1-0.9,2.3-1.6,3.7c-0.6,1.4-1.2,3-2,4.7c-0.8,1.7-1.7,3.4-2.7,5
	c-0.6,0.8-1.2,1.6-1.8,2.3c-0.6,0.8-1.3,1.5-2.1,2.2c-0.7,0.7-1.5,1.3-2.3,1.8c-0.8,0.5-1.7,1-2.6,1.4c-0.9,0.4-1.8,0.6-2.7,0.8
	c-0.2,0.1-0.4,0.1-0.7,0.1l-0.7,0.1c-0.4,0-0.9,0-1.3,0c-2,0-4-0.3-5.9-0.9c-1-0.3-1.9-0.6-2.9-1c-0.5-0.2-0.9-0.4-1.4-0.6
	c-0.4-0.2-0.9-0.4-1.3-0.6c-0.9-0.4-1.7-0.9-2.6-1.4c-0.8-0.5-1.6-1-2.4-1.6c-1.6-1-3.1-2.1-4.5-3.1c-1.3-1-2.7-1.9-4.1-2.7
	c-1.1-0.8-2.3-1.4-3.5-2c-0.9-0.4-1.9-0.7-2.9-0.8c-0.8-0.1-1.5,0-2.2,0.5c-0.6,0.4-1.1,1.1-1.2,1.9c-0.2,1-0.2,2.1,0,3.2
	c0.2,1.5,0.7,2.9,1.3,4.3c0.8,1.8,1.7,3.5,2.8,5.1c1.4,2,3,3.9,4.8,5.5c1,1,2.1,1.9,3.2,2.7c1.2,0.9,2.5,1.7,3.9,2.5
	c0.7,0.4,1.4,0.7,2.1,1.1c0.8,0.4,1.5,0.7,2.3,0.9c1.6,0.6,3.2,1.1,4.9,1.5c3.7,0.8,7.5,1,11.2,0.4c1-0.2,2-0.4,2.9-0.7l1.3-0.5
	c0.5-0.1,0.9-0.3,1.4-0.5c1.8-0.7,3.4-1.6,5-2.7c1.5-1,2.8-2.2,4.1-3.5c1.1-1.2,2.1-2.5,3-3.9c0.8-1.3,1.5-2.7,2.1-4.1
	c0.5-1.3,1-2.6,1.4-3.9c0.6-2.3,1-4.6,1.3-7c0.2-1.9,0.2-3.7,0.1-5.6c0-1.4-0.1-2.7-0.3-4.1C458.9,157.2,458.5,156,457.9,155.9
	L457.9,155.9z"/>
<path class="st2" d="M426.5,185.9c0.7,11.5,0.7,23,0,34.5c-11,3.6-22.7,4.6-34.1,2.8c-0.8-11.7-1.5-23.4-1.6-35
	c0-6.2,0.2-12.4,1.9-18.3c1.4-5.3,4.5-10,8.8-13.4c0.5-0.4,1-0.7,1.6-1c2.6,2.1,8,2.9,11,1.5c1.6,1.1,3,2.3,4.3,3.8
	c2.3,2.7,4,5.8,5.1,9.1C425.2,175,426.2,180.4,426.5,185.9L426.5,185.9z"/>
<path class="st27" d="M418.5,160.7c-2.9,0.8-5.9,0.8-8.8,0.1c-1.6-0.4-3-1-4.4-1.8c-1.1-0.6-2.2-1.3-3.1-2.2l-0.1-0.7v-0.3l0.2-1
	c0.6-3.3,1-6.5,1.5-9.8c0.4-3,0.8-6.1,1.2-9.1c3.4,1.7,6.7,3.7,9.7,6c0,2.1,0.2,4.1,0.3,6.1c0.1,1.7,0.4,3.4,0.6,5.1
	c0.1,1,0.3,1.9,0.5,2.8c0.2,0.9,0.3,1.8,0.5,2.7C417.3,159.3,417.9,160,418.5,160.7L418.5,160.7z"/>
<path class="st25" d="M415.6,153.2c-3.6-3.2-7.6-6-11.9-8.1c0.4-3,0.8-6.1,1.2-9.1c3.4,1.7,6.7,3.7,9.7,6c0,2.1,0.2,4.1,0.3,6.1
	C415.2,149.8,415.4,151.5,415.6,153.2z"/>
<path class="st17" d="M352,322.6c0,0,0,8.1,7.3,7.8l1.4,28.9l-20-34.4L352,322.6z"/>
<path class="st2" d="M355.4,343.1c0-0.2,0.1-0.3,0.2-0.4c0.1-0.1,0.3-0.2,0.5-0.1c1.6,0.2,3.2,0.6,4.7,1.3c0.2,0.1,0.3,0.2,0.3,0.4
	c0.1,0.2,0.1,0.3,0,0.5c0,0.1-0.1,0.1-0.2,0.2c-0.1,0.1-0.1,0.1-0.2,0.1c-0.2,0-0.3,0-0.5,0c-1.3-0.6-2.8-1-4.2-1.1
	c-0.1,0-0.2-0.1-0.3-0.1c-0.1-0.1-0.2-0.1-0.3-0.3C355.4,343.4,355.4,343.2,355.4,343.1L355.4,343.1z M355.2,339.5
	c0-0.1,0-0.2,0.1-0.2s0.1-0.1,0.2-0.2c0.1-0.1,0.1-0.1,0.2-0.1c0.1,0,0.2,0,0.2,0c1.6,0.2,3.2,0.6,4.7,1.3c0.1,0,0.1,0.1,0.2,0.2
	c0.1,0.1,0.1,0.1,0.1,0.2c0.1,0.2,0.1,0.3,0,0.5c0,0.1-0.1,0.1-0.2,0.2c-0.1,0.1-0.1,0.1-0.2,0.1c-0.1,0-0.2,0-0.2,0
	c-0.1,0-0.2,0-0.2-0.1c-1.3-0.6-2.8-1-4.2-1.1c-0.1,0-0.2-0.1-0.3-0.1c-0.1-0.1-0.2-0.1-0.3-0.2
	C355.2,339.8,355.2,339.6,355.2,339.5L355.2,339.5z M354.9,335.9c0-0.1,0-0.2,0.1-0.2c0-0.1,0.1-0.1,0.2-0.2
	c0.1-0.1,0.3-0.1,0.4-0.1c1.6,0.2,3.2,0.6,4.7,1.3c0.2,0.1,0.3,0.2,0.3,0.4c0.1,0.2,0.1,0.3,0,0.5c-0.1,0.1-0.2,0.3-0.4,0.3
	c-0.2,0-0.3,0-0.5,0c-1.3-0.6-2.8-1-4.2-1.1c-0.1,0-0.2-0.1-0.3-0.1c-0.1-0.1-0.2-0.1-0.2-0.3C354.9,336.1,354.9,336,354.9,335.9
	L354.9,335.9z M357.1,360.2c0.1,0.1,0.2,0.2,0.3,0.3c0.1,0.1,0.2,0.1,0.4,0.2c0.1,0,0.3,0,0.4,0c0.1,0,0.3-0.1,0.4-0.1l2.1-1.2
	l-20-34.4l-2.1,1.2c-0.1,0.1-0.2,0.2-0.3,0.3c-0.1,0.1-0.1,0.2-0.2,0.4c0,0.1,0,0.3,0,0.4c0,0.1,0.1,0.3,0.1,0.4L357.1,360.2z"/>
<path class="st17" d="M431.9,352.1c0,0,7.2,3.7,10.3-2.8l26.2,12.3l-39.7,1.7L431.9,352.1z"/>
<path class="st2" d="M452.2,358.7c-0.1,0.1-0.2,0.1-0.3,0.1s-0.2,0-0.3-0.1c-0.1,0-0.1-0.1-0.2-0.2c0-0.1-0.1-0.1-0.1-0.2
	c0-0.1,0-0.2,0-0.2c0-0.1,0.1-0.2,0.1-0.2c0.9-1.3,2-2.5,3.3-3.5c0.1-0.1,0.3-0.1,0.5-0.1c0.2,0,0.3,0.1,0.4,0.3
	c0,0.1,0.1,0.1,0.1,0.2c0,0.1,0,0.2,0,0.2c0,0.1,0,0.2-0.1,0.2c0,0.1-0.1,0.1-0.2,0.2c-1.1,0.9-2.1,2-3,3.2
	C452.4,358.6,452.4,358.7,452.2,358.7L452.2,358.7z M449,357.2c-0.1,0.1-0.2,0.1-0.3,0.1s-0.2,0-0.3-0.1c-0.1,0-0.1-0.1-0.2-0.2
	s-0.1-0.1-0.1-0.2c0-0.1,0-0.2,0-0.2c0-0.1,0.1-0.2,0.1-0.2c0.9-1.3,2-2.5,3.3-3.5c0.1-0.1,0.2-0.1,0.2-0.1c0.1,0,0.2,0,0.3,0
	c0.1,0,0.2,0,0.2,0.1c0.1,0,0.1,0.1,0.2,0.2c0.1,0.1,0.1,0.3,0.1,0.5c0,0.2-0.1,0.3-0.3,0.4c-1.2,0.9-2.2,2-3,3.2
	C449.2,357.1,449.1,357.2,449,357.2L449,357.2z M445.6,355.8c-0.1,0.1-0.3,0.1-0.4,0c-0.1,0-0.2-0.1-0.3-0.2
	c-0.1-0.1-0.1-0.2-0.2-0.4c0-0.1,0-0.3,0.1-0.4c0.9-1.3,2-2.5,3.3-3.5c0.1-0.1,0.3-0.1,0.5-0.1c0.2,0,0.3,0.1,0.4,0.3
	c0,0.1,0.1,0.1,0.1,0.2c0,0.1,0,0.2,0,0.2c0,0.2-0.1,0.3-0.3,0.4c-1.1,0.9-2.2,2-3,3.2C445.8,355.6,445.7,355.7,445.6,355.8
	L445.6,355.8z M467.8,365c0.3-0.2,0.6-0.4,0.7-0.7c0.1-0.2,0.1-0.3,0.1-0.5l-0.1-2.2l-39.8,1.7l0.1,2.2c0,0.2,0.1,0.3,0.1,0.5
	c0.1,0.2,0.2,0.3,0.3,0.4c0.3,0.2,0.6,0.4,0.9,0.4l37.2-1.6C467.5,365.1,467.6,365,467.8,365L467.8,365z"/>
<path class="st31" d="M391.5,229.8c0,0,9.1,53.9-45.6,92.4l14.7,16c0,0,61.2-42,55-96.1L391.5,229.8z"/>
<path class="st32" d="M389.5,261.2c0.8,1.1,1.7,2.2,2.5,3.4c2.1,3,3.8,6.3,5.3,9.6c2.7,5.6,4.8,11.4,6.5,17.3
	c8.3-14.3,14-31.2,11.8-49.5l-24-12.3C391.7,229.8,393.9,243.1,389.5,261.2L389.5,261.2z"/>
<path class="st29" d="M426.7,176.2c2.3,19.1,2.6,38.3,0.8,57.5c0,0,30.1,59,23.6,118.2l-23,5.7c0,0-5.2-77.8-36.4-117.1l-1.3-39
	l24.7-4.1l2.1-20.9L426.7,176.2z"/>
<path class="st31" d="M392,205.8c-0.2,0-0.4-0.2-0.7-0.8c-0.2-0.3-0.3-0.6-0.4-1c-0.1-0.4-0.3-0.9-0.4-1.4c-0.1-0.3-0.2-0.5-0.2-0.8
	c-0.1-0.3-0.1-0.6-0.2-0.9c-0.1-0.3-0.1-0.7-0.2-1s-0.1-0.7-0.2-1.1c-0.1-0.4-0.1-0.8-0.2-1.2l-0.2-1.3c-0.1-0.9-0.2-1.8-0.3-2.7
	c-0.1-2.1-0.1-4.3,0-6.4c0.1-2.4,0.3-4.9,0.7-7.3c0.4-2.7,1-5.3,1.7-7.9c0.7-2.9,1.9-5.7,3.5-8.3c0.9-1.4,2-2.6,3.2-3.7
	c1.2-1.1,2.7-1.9,4.2-2.5c0.8-0.3,1.6-0.5,2.4-0.6h2.4c1.5,0.1,3,0.5,4.3,1.2c1.2,0.6,2.4,1.4,3.4,2.3c0.2,0.2,0.5,0.4,0.7,0.7
	l0.7,0.7l0.6,0.7c0.2,0.2,0.4,0.5,0.6,0.8c0.7,1,1.3,2,1.8,3c0.4,1,0.8,2,1.1,3c0.5,1.7,0.8,3.5,0.9,5.2c0.1,1.3,0.2,2.6,0.2,3.9
	c0,2.1-0.2,3.3-0.4,3.3c-0.2,0-0.5-1.2-0.9-3.2c-0.2-1-0.4-2.3-0.7-3.8c-0.3-1.6-0.8-3.2-1.3-4.8c-0.7-1.8-1.7-3.5-2.9-5
	c-0.2-0.2-0.3-0.4-0.5-0.6l-0.5-0.6l-0.6-0.5c-0.2-0.2-0.4-0.3-0.6-0.5c-0.8-0.6-1.7-1.2-2.7-1.6c-1-0.4-2-0.6-3.1-0.7h-1.7
	c-0.5,0.1-1.1,0.2-1.6,0.4c-2.2,1-4,2.7-5.2,4.7c-1.3,2.3-2.3,4.7-2.9,7.2c-0.7,2.5-1.3,5-1.7,7.4c-0.4,2.4-0.7,4.7-0.9,6.8
	c-0.2,2.2-0.3,4.2-0.4,6v10.2c0,0.4,0,0.7-0.1,1.1C392.2,205.4,392.1,205.7,392,205.8L392,205.8z"/>
<path class="st7" d="M437.6,159.7h45.8v45.8h-45.8V159.7z"/>
<path class="st8" d="M506.3,152l-22.9,7.6v45.8l22.9-7.6V152z"/>
<path class="st9" d="M437.6,159.7l22.9-7.6h45.8l-22.9,7.6H437.6z"/>
<path class="st10" d="M465.9,162.6h15.6v6.7h-15.6V162.6z"/>
<path class="st11" d="M464.5,196.9l-0.1,8.9h-7.9v-8.9H464.5z M464.5,159.7l-0.1,8.9h-7.9v-8.9H464.5z M475.5,152h7.4l-18.4,7.6
	h-7.9L475.5,152L475.5,152z"/>
<path class="st27" d="M396.7,177v0.4c0,4.9,1.1,9.8,3.3,14.2c0.8,1.7,1.8,3.3,2.9,4.8c1.2,1.6,2.6,3.1,4.1,4.4
	c3.2,2.8,7,4.8,11.1,5.7c1.9,0.5,3.8,0.7,5.7,0.8c1.8,0.1,3.6-0.1,5.3-0.3c1.6-0.2,3.2-0.6,4.8-1.1c2.8-0.9,5.4-2.1,7.9-3.6
	c2.1-1.2,4-2.6,5.8-4.1c1.5-1.2,2.9-2.5,4.2-3.8l0.4-0.5c0.8,0.1,1.7,0,2.5-0.1c0.8-0.1,1.6-0.3,2.4-0.5c0.8-0.3,1.5-0.6,2.3-1
	c0.7-0.4,1.4-0.9,2-1.4c1.3-1.1,2.3-2.4,3-3.9c0.4-0.7,0.7-1.5,0.9-2.3c0.2-0.8,0.4-1.6,0.4-2.4c0-0.6,0-1.1,0-1.7
	c0-0.3-0.1-0.7-0.2-1c-0.1-0.3-0.4-0.6-0.6-0.8c-1.5-1.3-3.2,0-4.2,1.4c-1,1.4-1.6,2.6-3,3.1c-0.4,0.1-0.9,0.1-1.3,0.1
	c-0.4-0.1-0.8-0.3-1.2-0.5c-0.1-0.1-0.2-0.2-0.3-0.3c-0.1-0.2-0.3-0.3-0.5-0.4c-0.2-0.1-0.4-0.2-0.6-0.2c-0.2,0-0.4,0-0.6,0.1
	c-0.2,0.1-0.4,0.2-0.6,0.3c-0.1,0.1-0.2,0.3-0.3,0.4c-0.3,0.6-0.6,1.2-0.8,1.8c-0.4,1.3-0.7,2.7-0.8,4.1c-2,0.7-4.4,1.6-7.2,2.6
	c-1.9,0.6-3.8,1.2-5.8,1.6c-2,0.5-4.1,0.7-6.2,0.8c-1.1,0-2.1,0-3.2-0.1c-1-0.1-2.1-0.3-3.1-0.6c-0.9-0.3-1.8-0.6-2.7-1
	c-0.8-0.4-1.6-0.8-2.3-1.4c-0.7-0.5-1.3-1.1-1.9-1.8c-0.6-0.7-1.2-1.4-1.6-2.1c-1-1.6-1.8-3.3-2.4-5c-0.6-1.7-1-3.5-1.4-5.2
	c-0.3-1.3-0.5-2.7-0.7-4.1c-2.3,1.6-4.8,2.8-7.5,3.7C402.4,176.7,399.6,177,396.7,177L396.7,177z"/>
<path class="st29" d="M416.6,112.5c-0.4-1.2-1-2.4-1.8-3.3c-0.8-1-1.9-1.7-3.1-2.2c-2.4-1-5-1.2-7.5-0.5c-1.3,0.3-2.5,0.8-3.6,1.4
	c-1.1,0.7-2.2,1.5-3.1,2.5c-0.9,1-1.6,2.1-2.1,3.3c-0.5,1.2-0.8,2.5-0.8,3.8c-0.1,4.2,2.2,8,4.4,11.5
	C403.5,122.1,409.6,116.5,416.6,112.5z"/>
<path class="st32" d="M419.2,107.7c1.1-0.8,2.5-1.2,3.9-1.1c0.5,0.1,0.9,0.3,1.3,0.6c0.4,0.3,0.7,0.6,1,1c0.3,0.4,0.5,0.8,0.6,1.3
	c0.1,0.5,0.2,0.9,0.1,1.4c-0.1,1-0.4,1.9-0.9,2.7c-0.5,0.8-1.1,1.6-1.8,2.2c-0.5,0.5-1.1,1-1.7,1.5c-0.6,0.4-1.3,0.8-1.9,1.2
	c-1.3,0.7-2.8,1.2-4.3,1.5c-0.7,0.1-1.5,0.2-2.3,0.3c-1.5,0.1-3-0.1-4.5-0.5c-0.7-0.2-1.5-0.4-2.1-0.7c-0.7-0.3-2.6-0.9-3-1.7
	c-0.6-1.2,0.7-1.3,1.7-2C409.9,112.9,414.6,110.3,419.2,107.7L419.2,107.7z"/>
<path class="st17" d="M418.1,122.3c-0.3-0.1-0.6-0.1-1,0c-0.3,0.1-0.6,0.2-0.8,0.4c-0.2,0.3-0.3,0.6-0.4,0.9c-0.1,0.3,0,0.7,0.1,1
	c0.4,2.5,1.3,4.8,2.7,6.9c0.5-0.6,0.9-1.3,1.2-2c0.6-1.4,0.9-2.9,0.7-4.5c-0.1-0.8-0.3-1.5-0.5-2.2
	C419.4,123,418.7,122.3,418.1,122.3L418.1,122.3z M406.6,133.1c0.3-2.7,0.2-5.4-0.3-8.1c-0.6-2.9-1.8-5.7-3.4-8.2
	c-1.3,1.2-2.3,2.5-3.2,4c-0.7,1.7-1.1,3.5-1.2,5.3c-0.1,0.9-0.1,1.8,0,2.7c0.1,0.9,0.2,1.8,0.4,2.7c0.2,0.9,0.5,1.8,0.8,2.6
	c0.3,0.9,0.7,1.7,1.2,2.5c0.5,0.8,1,1.5,1.6,2.2c0.6,0.7,1.2,1.4,1.9,2C405.5,138.4,406.3,135.8,406.6,133.1L406.6,133.1z"/>
<path class="st27" d="M418,121.6c-0.6,3.3,0.9,6.5,2.2,9.6c1.3,3.1,2.5,6.6,1.2,9.7c-0.4,0.8-0.9,1.5-1.4,2.1
	c-0.6,0.6-1.3,1.2-2,1.6c-0.8,0.4-1.6,0.7-2.4,0.8c-0.9,0.2-1.7,0.2-2.6,0c-1.7-0.3-3.3-1-4.7-2.1c-1.4-1-2.5-2.4-3.3-4
	c-0.8-1.6-1.3-3.2-1.6-4.9c-0.3-1.7-0.3-3.5-0.1-5.2c0.4-3.5,1.1-6.9,2.2-10.2C409.5,117.1,414.4,118.6,418,121.6L418,121.6z"/>
<path class="st27" d="M404,130.4c-0.4-0.5-0.8-0.8-1.4-1.2c-0.3-0.2-0.6-0.3-0.9-0.3c-0.3,0-0.6,0-0.9,0.1c-0.4,0.1-0.7,0.4-1,0.7
	c-0.3,0.3-0.5,0.7-0.6,1.1c-0.1,0.4-0.2,0.7-0.2,1.1c0,0.4,0,0.8,0.2,1.1c0.1,0.4,0.3,0.7,0.5,1c0.2,0.3,0.5,0.6,0.8,0.8
	c0.3,0.2,0.6,0.4,1,0.6c0.4,0.1,0.7,0.2,1.1,0.3c0.4,0,0.8,0,1.1-0.1c0.4-0.1,0.7-0.2,1.1-0.4C404.4,133.7,404.1,132.1,404,130.4
	L404,130.4z"/>
<path class="st17" d="M420.4,124.2c-4.9,0.2-9.8-1.1-14-3.6c0.4,1.4,0.4,3,0,4.4c-0.3,1-0.8,2-1.4,2.9c-0.6,0.9-1.4,1.7-2.2,2.3
	c-2-2.8-2.9-6.2-2.5-9.7c0-0.4,0.1-0.8,0.3-1.2c0.7-0.9,1.4-1.8,2.3-2.6c1.3-1.2,2.9-2.2,4.5-2.8c1.1-0.4,2.3-0.7,3.4-0.8
	c2.4-0.3,4.8-0.1,7,0.7c1.1,0.4,2.2,0.9,3.2,1.5c0.3,0.3,0.7,0.6,1,0.9c0.8,0.8,1.4,1.8,1.8,2.8c0.1,0.2,0.1,0.5,0.2,0.7
	c0,0.3,0.1,0.5,0,0.8c0,0.2,0,0.5-0.1,0.7c-0.1,0.2-0.1,0.5-0.2,0.7c-0.1,0.2-0.2,0.4-0.4,0.6c-0.1,0.2-0.3,0.4-0.5,0.6
	c-0.2,0.2-0.4,0.3-0.6,0.5c-0.2,0.1-0.4,0.2-0.7,0.3C421.2,124.2,420.8,124.2,420.4,124.2L420.4,124.2z"/>
</svg>
