<svg version="1.1" xmlns="http://www.w3.org/2000/svg" xmlns:xlink="http://www.w3.org/1999/xlink" width="630" height="391" viewBox="0 0 630 391">
<style type="text/css">
	.st0{fill:#E9F0FA;}
	.st1{fill:#F7F8FC;}
	.st2{fill:#CCE3F6;}
	.st3{fill:#E7ECF3;}
	.st4{fill:#FFFFFF;}
	.st5{fill:#EAF6FD;}
	.st6{fill:#ECF7FE;}
	.st7{fill:#E9EDF4;}
	.st8{fill:#0F222C;}
	.st9{fill:#2C6292;}
	.st10{fill:#1A568C;}
	.st11{fill:#114574;}
	.st12{fill:#164F83;}
	.st13{fill:#C07632;}
	.st14{fill:#0C3860;}
	.st15{fill:#11426D;}
	.st16{fill:#25649D;}
	.st17{fill:#3873A9;}
	.st18{fill:#164C7C;}
	.st19{fill:#3679B6;}
	.st20{fill:#2A6EAC;}
	.st21{fill:#23619A;}
	.st22{fill:#1D4259;}
	.st23{fill:#448DCE;}
	.st24{fill:#3270A7;}
	.st25{fill:#222846;}
	.st26{fill:#FFDA35;}
	.st27{fill:#0B2B46;}
	.st28{fill:#FF524F;}
	.st29{fill:#F2F2F2;}
	.st30{fill:#F19100;}
	.st31{fill:#EAB624;}
	.st32{fill:#F8C47A;}
	.st33{fill:#E19A54;}
	.st34{fill:#FFDF9A;}
	.st35{fill:#E4E6E6;}
	.st36{fill:#CE8D4D;}
	.st37{fill:#E5B571;}
	.st38{fill:#ECCF8F;}
	.st39{fill:#ECCF8E;}
	.st40{fill:#C07532;}
	.st41{fill:#DADCDC;}
	.st42{fill:#132C45;}
	.st43{fill:#ADBF5B;}
	.st44{fill:#C8D540;}
	.st45{fill:#0682A0;}
	.st46{fill:#F18419;}
	.st47{fill:#E08F73;}
	.st48{fill:#F09976;}
	.st49{fill:#E8815F;}
	.st50{fill:#047487;}
	.st51{fill:#05616B;}
	.st52{fill:#02819F;}
</style>
<path class="st0" d="M314.6,389.6c173.8,0,314.6-25.9,314.6-58s-140.9-58-314.6-58S0,299.5,0,331.6S140.9,389.6,314.6,389.6z"/>
<path class="st1" d="M572.5,301.9c35.9-74.6,55.6-217.2-22.1-264.6c-50.9-31-103.9,8.8-158.2,10.7c-42.7,1.4-83.9-32.3-122.4-42
	C169-19.2,10.2,46.4,80,301.9C254.5,301.4,398,302.4,572.5,301.9z"/>
<path class="st2" d="M374.1,115.3H492v200.1H374.1V115.3z"/>
<path class="st3" d="M374.1,115.3h36.7v200.1h-36.7V115.3z"/>
<path class="st4" d="M479.1,124.8h5.5v5.7h-5.5V124.8z M469.1,124.8h5.5v5.7h-5.5V124.8z M459.2,124.8h5.5v5.7h-5.5V124.8z
	 M449.3,124.8h5.5v5.7h-5.5V124.8z M439.4,124.8h5.5v5.7h-5.5V124.8z M429.5,124.8h5.5v5.7h-5.5V124.8z M419.6,124.8h5.5v5.7h-5.5
	V124.8z M401.5,124.8h5.5v5.7h-5.5V124.8z M391.6,124.8h5.5v5.7h-5.5V124.8z M381.6,124.8h5.5v5.7h-5.5V124.8z M479.1,136.8h5.5v5.7
	h-5.5V136.8z M469.1,136.8h5.5v5.7h-5.5V136.8z M459.2,136.8h5.5v5.7h-5.5V136.8z M449.3,136.8h5.5v5.7h-5.5V136.8z M439.4,136.8
	h5.5v5.7h-5.5V136.8z M429.5,136.8h5.5v5.7h-5.5V136.8z M419.6,136.8h5.5v5.7h-5.5V136.8z M401.5,136.8h5.5v5.7h-5.5V136.8z
	 M391.6,136.8h5.5v5.7h-5.5V136.8z M381.6,136.8h5.5v5.7h-5.5V136.8z M479.1,148.9h5.5v5.7h-5.5V148.9z M469.1,148.9h5.5v5.7h-5.5
	V148.9z M459.2,148.9h5.5v5.7h-5.5V148.9z M449.3,148.9h5.5v5.7h-5.5V148.9z M439.4,148.9h5.5v5.7h-5.5V148.9z M429.5,148.9h5.5v5.7
	h-5.5V148.9z M419.6,148.9h5.5v5.7h-5.5V148.9z M401.5,148.9h5.5v5.7h-5.5V148.9z M391.6,148.9h5.5v5.7h-5.5V148.9z M381.6,148.9
	h5.5v5.7h-5.5V148.9z M479.1,161h5.5v5.7h-5.5V161z M469.1,161h5.5v5.7h-5.5V161z M459.2,161h5.5v5.7h-5.5V161z M449.3,161h5.5v5.7
	h-5.5V161z M439.4,161h5.5v5.7h-5.5V161z M429.5,161h5.5v5.7h-5.5V161z M419.6,161h5.5v5.7h-5.5V161z M401.5,161h5.5v5.7h-5.5V161z
	 M391.6,161h5.5v5.7h-5.5V161z M381.6,161h5.5v5.7h-5.5V161z M479.1,173.1h5.5v5.7h-5.5V173.1z M469.1,173.1h5.5v5.7h-5.5V173.1z
	 M459.2,173.1h5.5v5.7h-5.5V173.1z M449.3,173.1h5.5v5.7h-5.5V173.1z M439.4,173.1h5.5v5.7h-5.5V173.1z M429.5,173.1h5.5v5.7h-5.5
	V173.1z M419.6,173.1h5.5v5.7h-5.5V173.1z M401.5,173.1h5.5v5.7h-5.5V173.1z M391.6,173.1h5.5v5.7h-5.5V173.1z M381.6,173.1h5.5v5.7
	h-5.5V173.1z M479.1,185.1h5.5v5.7h-5.5V185.1z M469.1,185.1h5.5v5.7h-5.5V185.1z M459.2,185.1h5.5v5.7h-5.5V185.1z M449.3,185.1
	h5.5v5.7h-5.5V185.1z M439.4,185.1h5.5v5.7h-5.5V185.1z M429.5,185.1h5.5v5.7h-5.5V185.1z M419.6,185.1h5.5v5.7h-5.5V185.1z
	 M401.5,185.1h5.5v5.7h-5.5V185.1z M391.6,185.1h5.5v5.7h-5.5V185.1z M381.6,185.1h5.5v5.7h-5.5V185.1z M479.1,197.2h5.5v5.7h-5.5
	V197.2z M469.1,197.2h5.5v5.7h-5.5V197.2z M459.2,197.2h5.5v5.7h-5.5V197.2z M449.3,197.2h5.5v5.7h-5.5V197.2z M439.4,197.2h5.5v5.7
	h-5.5V197.2z M429.5,197.2h5.5v5.7h-5.5V197.2z M419.6,197.2h5.5v5.7h-5.5V197.2z M401.5,197.2h5.5v5.7h-5.5V197.2z M391.6,197.2
	h5.5v5.7h-5.5V197.2z M381.6,197.2h5.5v5.7h-5.5V197.2z M479.1,209.2h5.5v5.7h-5.5V209.2z M469.1,209.2h5.5v5.7h-5.5V209.2z
	 M459.2,209.2h5.5v5.7h-5.5V209.2z M449.3,209.2h5.5v5.7h-5.5V209.2z M439.4,209.2h5.5v5.7h-5.5V209.2z M429.5,209.2h5.5v5.7h-5.5
	V209.2z M419.6,209.2h5.5v5.7h-5.5V209.2z M401.5,209.2h5.5v5.7h-5.5V209.2z M391.6,209.2h5.5v5.7h-5.5V209.2z M381.6,209.2h5.5v5.7
	h-5.5V209.2z M479.1,221.3h5.5v5.7h-5.5V221.3z M469.1,221.3h5.5v5.7h-5.5V221.3z M459.2,221.3h5.5v5.7h-5.5V221.3z M449.3,221.3
	h5.5v5.7h-5.5V221.3z M439.4,221.3h5.5v5.7h-5.5V221.3z M429.5,221.3h5.5v5.7h-5.5V221.3z M419.6,221.3h5.5v5.7h-5.5V221.3z
	 M401.5,221.3h5.5v5.7h-5.5V221.3z M391.6,221.3h5.5v5.7h-5.5V221.3z M381.6,221.3h5.5v5.7h-5.5V221.3z M479.1,233.3h5.5v5.7h-5.5
	V233.3z M469.1,233.3h5.5v5.7h-5.5V233.3z M459.2,233.3h5.5v5.7h-5.5V233.3z M449.3,233.3h5.5v5.7h-5.5V233.3z M439.4,233.3h5.5v5.7
	h-5.5V233.3z M429.5,233.3h5.5v5.7h-5.5V233.3z M419.6,233.3h5.5v5.7h-5.5V233.3z M401.5,233.3h5.5v5.7h-5.5V233.3z M391.6,233.3
	h5.5v5.7h-5.5V233.3z M381.6,233.3h5.5v5.7h-5.5V233.3z M479.1,245.5h5.5v5.7h-5.5V245.5z M469.1,245.5h5.5v5.7h-5.5V245.5z
	 M459.2,245.5h5.5v5.7h-5.5V245.5z M449.3,245.5h5.5v5.7h-5.5V245.5z M439.4,245.5h5.5v5.7h-5.5V245.5z M429.5,245.5h5.5v5.7h-5.5
	V245.5z M419.6,245.5h5.5v5.7h-5.5V245.5z M381.6,245.5h5.5v5.7h-5.5V245.5z M479.1,257.5h5.5v5.7h-5.5V257.5z M469.1,257.5h5.5v5.7
	h-5.5V257.5z M459.2,257.5h5.5v5.7h-5.5V257.5z M449.3,257.5h5.5v5.7h-5.5V257.5z M439.4,257.5h5.5v5.7h-5.5V257.5z M429.5,257.5
	h5.5v5.7h-5.5V257.5z M419.6,257.5h5.5v5.7h-5.5V257.5z M381.6,257.5h5.5v5.7h-5.5V257.5z M479.1,269.6h5.5v5.7h-5.5V269.6z
	 M469.1,269.6h5.5v5.7h-5.5V269.6z M459.2,269.6h5.5v5.7h-5.5V269.6z M449.3,269.6h5.5v5.7h-5.5V269.6z M439.4,269.6h5.5v5.7h-5.5
	V269.6z M429.5,269.6h5.5v5.7h-5.5V269.6z M419.6,269.6h5.5v5.7h-5.5V269.6z M381.6,269.6h5.5v5.7h-5.5V269.6z M479.1,281.6h5.5v5.7
	h-5.5V281.6z M469.1,281.6h5.5v5.7h-5.5V281.6z M459.2,281.6h5.5v5.7h-5.5V281.6z M449.3,281.6h5.5v5.7h-5.5V281.6z M439.4,281.6
	h5.5v5.7h-5.5V281.6z M429.5,281.6h5.5v5.7h-5.5V281.6z M419.6,281.6h5.5v5.7h-5.5V281.6z M381.6,281.6h5.5v5.7h-5.5V281.6z
	 M479.1,293.7h5.5v5.7h-5.5V293.7z M469.1,293.7h5.5v5.7h-5.5V293.7z M459.2,293.7h5.5v5.7h-5.5V293.7z M449.3,293.7h5.5v5.7h-5.5
	V293.7z M439.4,293.7h5.5v5.7h-5.5V293.7z M429.5,293.7h5.5v5.7h-5.5V293.7z M419.6,293.7h5.5v5.7h-5.5V293.7z M381.6,293.7h5.5v5.7
	h-5.5V293.7z"/>
<path class="st2" d="M281.2,149.7h109.5v165.7H281.2V149.7z"/>
<path class="st3" d="M281.2,149.7h34.1v165.7h-34.1V149.7z"/>
<path class="st4" d="M380.5,302h5.2v-19h-5.2V302z M371,302h5.2v-19H371V302z M361.6,302h5.2v-19h-5.2V302z M352,302.1h5.2v-19H352
	V302.1z M342.6,302.1h5.2v-19h-5.2V302.1z M333.1,302.1h5.2v-19h-5.2V302.1z M323.6,302.1h5.2v-19h-5.2V302.1z M306.2,302.2h5.2v-19
	h-5.2V302.2z M296.8,302.2h5.2v-19h-5.2V302.2z M380.4,280.5h5.2v-19h-5.2V280.5z M371,280.5h5.2v-19H371V280.5z M361.5,280.6h5.2
	v-19h-5.2V280.6z M352,280.6h5.2v-19H352V280.6z M342.5,280.6h5.2v-19h-5.2V280.6z M333.1,280.6h5.2v-19h-5.2V280.6z M323.6,280.6
	h5.2v-19h-5.2V280.6z M306.2,280.7h5.2v-19h-5.2V280.7z M296.7,280.7h5.2v-19h-5.2V280.7z M287.3,280.7h5.2v-19h-5.2V280.7z
	 M380.4,259h5.2v-19h-5.2V259z M370.9,259.1h5.2v-19h-5.2V259.1z M361.5,259.1h5.2v-19h-5.2V259.1z M351.9,259.1h5.2v-19h-5.2V259.1
	z M342.5,259.1h5.2v-19h-5.2V259.1z M333,259.1h5.2v-19H333V259.1z M323.6,259.2h5.2v-19h-5.2V259.2z M306.1,259.2h5.2v-19h-5.2
	V259.2z M296.7,259.2h5.2v-19h-5.2V259.2z M287.2,259.2h5.2v-19h-5.2V259.2z M380.4,237.5h5.2v-19h-5.2V237.5z M370.9,237.6h5.2v-19
	h-5.2V237.6z M361.4,237.6h5.2v-19h-5.2V237.6z M351.9,237.6h5.2v-19h-5.2V237.6z M342.4,237.6h5.2v-19h-5.2V237.6z M333,237.6h5.2
	v-19H333V237.6z M323.5,237.7h5.2v-19h-5.2V237.7z M306.1,237.7h5.2v-19h-5.2V237.7z M296.6,237.7h5.2v-19h-5.2V237.7z M287.2,237.7
	h5.2v-19h-5.2V237.7z M380.3,216.1h5.2v-19h-5.2V216.1z M370.8,216.1h5.2v-19h-5.2V216.1z M361.4,216.1h5.2v-19h-5.2V216.1z
	 M351.9,216.1h5.2v-19h-5.2V216.1z M342.4,216.1h5.2v-19h-5.2V216.1z M332.9,216.2h5.2v-19h-5.2V216.2z M323.5,216.2h5.2v-19h-5.2
	V216.2z M306.1,216.2h5.2v-19h-5.2V216.2z M296.6,216.2h5.2v-19h-5.2V216.2z M287.1,216.3h5.2v-19h-5.2V216.3z M380.3,194.6h5.2v-19
	h-5.2V194.6z M370.8,194.6h5.2v-19h-5.2V194.6z M361.3,194.6h5.2v-19h-5.2V194.6z M351.8,194.6h5.2v-19h-5.2V194.6z M342.3,194.6
	h5.2v-19h-5.2V194.6z M332.9,194.7h5.2v-19h-5.2V194.7z M323.4,194.7h5.2v-19h-5.2V194.7z M306,194.7h5.2v-19H306V194.7z
	 M296.5,194.7h5.2v-19h-5.2V194.7z M287.1,194.8h5.2v-19h-5.2V194.8z M380.2,173h5.2v-19h-5.2V173z M370.8,173h5.2v-19h-5.2V173z
	 M361.3,173.1h5.2v-19h-5.2V173.1z M351.8,173.1h5.2v-19h-5.2V173.1z M342.3,173.1h5.2v-19h-5.2V173.1z M332.8,173.1h5.2v-19h-5.2
	V173.1z M323.4,173.1h5.2v-19h-5.2V173.1z M306,173.2h5.2v-19H306V173.2z M296.5,173.2h5.2v-19h-5.2V173.2z M287,173.2h5.2v-19H287
	V173.2z"/>
<path class="st2" d="M25.4,91.4h109.5v224H25.4V91.4z"/>
<path class="st3" d="M25.4,91.4h34.1v224H25.4V91.4z"/>
<path class="st4" d="M122.8,102.1h5v24.7h-5V102.1z M113.6,102.1h5v24.7h-5V102.1z M104.4,102.1h5v24.7h-5V102.1z M95.2,102.1h5
	v24.7h-5V102.1z M86,102.1h5v24.7h-5V102.1z M76.8,102.1h5v24.7h-5V102.1z M67.6,102.1h5v24.7h-5V102.1z M50.7,102.1h5v24.7h-5
	V102.1z M41.6,102.1h5v24.7h-5V102.1z M122.8,130.1h5v24.7h-5V130.1z M113.6,130.1h5v24.7h-5V130.1z M104.4,130.1h5v24.7h-5V130.1z
	 M95.2,130.1h5v24.7h-5V130.1z M86,130.1h5v24.7h-5V130.1z M76.8,130.1h5v24.7h-5V130.1z M67.6,130.1h5v24.7h-5V130.1z M50.7,130.1
	h5v24.7h-5V130.1z M41.6,130.1h5v24.7h-5V130.1z M32.4,130.1h5v24.7h-5V130.1z M122.8,158h5v24.7h-5V158z M113.6,158h5v24.7h-5V158z
	 M104.4,158h5v24.7h-5V158z M95.2,158h5v24.7h-5V158z M86,158h5v24.7h-5V158z M76.8,158h5v24.7h-5V158z M67.6,158h5v24.7h-5V158z
	 M50.7,158h5v24.7h-5V158z M41.6,158h5v24.7h-5V158z M32.4,158h5v24.7h-5V158z M122.8,186h5v24.7h-5V186z M113.6,186h5v24.7h-5V186z
	 M104.4,186h5v24.7h-5V186z M95.2,186h5v24.7h-5V186z M86,186h5v24.7h-5V186z M76.8,186h5v24.7h-5V186z M67.6,186h5v24.7h-5V186z
	 M50.7,186h5v24.7h-5V186z M41.6,186h5v24.7h-5V186z M32.4,186h5v24.7h-5V186z M122.8,213.9h5v24.7h-5V213.9z M113.6,213.9h5v24.7
	h-5V213.9z M104.4,213.9h5v24.7h-5V213.9z M95.2,213.9h5v24.7h-5V213.9z M86,213.9h5v24.7h-5V213.9z M76.8,213.9h5v24.7h-5V213.9z
	 M67.6,213.9h5v24.7h-5V213.9z M50.7,213.9h5v24.7h-5V213.9z M41.6,213.9h5v24.7h-5V213.9z M32.4,213.9h5v24.7h-5V213.9z
	 M122.8,241.9h5v24.7h-5V241.9z M113.6,241.9h5v24.7h-5V241.9z M104.4,241.9h5v24.7h-5V241.9z M95.2,241.9h5v24.7h-5V241.9z
	 M86,241.9h5v24.7h-5V241.9z M76.8,241.9h5v24.7h-5V241.9z M67.6,241.9h5v24.7h-5V241.9z M50.7,241.9h5v24.7h-5V241.9z M41.6,241.9
	h5v24.7h-5V241.9z M32.4,241.9h5v24.7h-5V241.9z M122.8,269.9h5v24.7h-5V269.9z M113.6,269.9h5v24.7h-5V269.9z M104.4,269.9h5v24.7
	h-5V269.9z M95.2,269.9h5v24.7h-5V269.9z M86,269.9h5v24.7h-5V269.9z M76.8,269.9h5v24.7h-5V269.9z M67.6,269.9h5v24.7h-5V269.9z
	 M50.7,269.9h5v24.7h-5V269.9z M41.6,269.9h5v24.7h-5V269.9z M32.4,269.9h5v24.7h-5V269.9z"/>
<path class="st2" d="M227,109.9h75.9v205.4H227V109.9z"/>
<path class="st5" d="M227,109.9h23.6v205.4H227V109.9z"/>
<path class="st4" d="M227,121.2h75.9v1.7H227V121.2z M227,134.7h75.9v1.7H227V134.7z M227,148.3h75.9v1.7H227V148.3z M227,161.9
	h75.9v1.7H227V161.9z M227,175.5h75.9v1.8H227V175.5z M227,189h75.9v1.7H227V189z M227,202.6h75.9v1.8H227V202.6z M227,216.1h75.9
	v1.8H227V216.1z M227,229.7h75.9v1.8H227V229.7z M227,243.2h75.9v1.8H227V243.2z M227,256.8h75.9v1.7H227V256.8z M227,270.3h75.9
	v1.8H227V270.3z M227,283.9h75.9v1.8H227V283.9z M227,297.5h75.9v1.7H227V297.5z"/>
<path class="st2" d="M491,150.9h119.2v164.5H491V150.9z"/>
<path class="st3" d="M491,150.9h37.1v164.5H491V150.9z"/>
<path class="st4" d="M491,159.8h119.2v1.4H491V159.8z M491,170.7h119.2v1.4H491V170.7z M491,181.6h119.2v1.4H491V181.6z M491,192.4
	h119.2v1.4H491V192.4z M491,203.3h119.2v1.4H491V203.3z M491,214.1h119.2v1.4H491V214.1z M491,225h119.2v1.4H491V225z M491,235.9
	h119.2v1.4H491V235.9z M491,246.7h119.2v1.4H491V246.7z M491,257.6h119.2v1.4H491V257.6z M491,268.5h119.2v1.4H491V268.5z
	 M491,279.3h119.2v1.4H491V279.3z M491,290.2h119.2v1.4H491V290.2z M491,301h119.2v1.4H491V301z"/>
<path class="st2" d="M103.2,30.6h139.2v284.8H103.2V30.6z"/>
<path class="st5" d="M103.2,30.6h43.4v284.8h-43.4V30.6z"/>
<path class="st4" d="M227,44.1h6.4v8.1H227V44.1z M215.3,44.1h6.4v8.1h-6.4V44.1z M203.6,44.1h6.4v8.1h-6.4V44.1z M191.9,44.1h6.4
	v8.1h-6.4V44.1z M180.2,44.1h6.4v8.1h-6.4V44.1z M168.5,44.1h6.4v8.1h-6.4V44.1z M156.8,44.1h6.4v8.1h-6.4V44.1z M135.5,44.1h6.4
	v8.1h-6.4V44.1z M123.8,44.1h6.4v8.1h-6.4V44.1z M112.1,44.1h6.4v8.1h-6.4V44.1z M227,61.3h6.4v8.1H227V61.3z M215.3,61.3h6.4v8.1
	h-6.4V61.3z M203.6,61.3h6.4v8.1h-6.4V61.3z M191.9,61.3h6.4v8.1h-6.4V61.3z M180.2,61.3h6.4v8.1h-6.4V61.3z M168.5,61.3h6.4v8.1
	h-6.4V61.3z M156.8,61.3h6.4v8.1h-6.4V61.3z M135.5,61.3h6.4v8.1h-6.4V61.3z M123.8,61.3h6.4v8.1h-6.4V61.3z M112.1,61.3h6.4v8.1
	h-6.4V61.3z M227,78.5h6.4v8.1H227V78.5z M215.3,78.5h6.4v8.1h-6.4V78.5z M203.6,78.5h6.4v8.1h-6.4V78.5z M191.9,78.5h6.4v8.1h-6.4
	V78.5z M180.2,78.5h6.4v8.1h-6.4V78.5z M168.5,78.5h6.4v8.1h-6.4V78.5z M156.8,78.5h6.4v8.1h-6.4V78.5z M135.5,78.5h6.4v8.1h-6.4
	V78.5z M123.8,78.5h6.4v8.1h-6.4V78.5z M112.1,78.5h6.4v8.1h-6.4V78.5z M227,95.6h6.4v8.1H227V95.6z M215.3,95.6h6.4v8.1h-6.4V95.6z
	 M203.6,95.6h6.4v8.1h-6.4V95.6z M191.9,95.6h6.4v8.1h-6.4V95.6z M180.2,95.6h6.4v8.1h-6.4V95.6z M168.5,95.6h6.4v8.1h-6.4V95.6z
	 M156.8,95.6h6.4v8.1h-6.4V95.6z M135.5,95.6h6.4v8.1h-6.4V95.6z M123.8,95.6h6.4v8.1h-6.4V95.6z M112.1,95.6h6.4v8.1h-6.4V95.6z
	 M227,112.8h6.4v8.1H227V112.8z M215.3,112.8h6.4v8.1h-6.4V112.8z M203.6,112.8h6.4v8.1h-6.4V112.8z M191.9,112.8h6.4v8.1h-6.4
	V112.8z M180.2,112.8h6.4v8.1h-6.4V112.8z M168.5,112.8h6.4v8.1h-6.4V112.8z M156.8,112.8h6.4v8.1h-6.4V112.8z M135.5,112.8h6.4v8.1
	h-6.4V112.8z M123.8,112.8h6.4v8.1h-6.4V112.8z M112.1,112.8h6.4v8.1h-6.4V112.8z M227,130h6.4v8.1H227V130z M215.3,130h6.4v8.1
	h-6.4V130z M203.6,130h6.4v8.1h-6.4V130z M191.9,130h6.4v8.1h-6.4V130z M180.2,130h6.4v8.1h-6.4V130z M168.5,130h6.4v8.1h-6.4V130z
	 M156.8,130h6.4v8.1h-6.4V130z M135.5,130h6.4v8.1h-6.4V130z M123.8,130h6.4v8.1h-6.4V130z M112.1,130h6.4v8.1h-6.4V130z M227,147.1
	h6.4v8.1H227V147.1z M215.3,147.1h6.4v8.1h-6.4V147.1z M203.6,147.1h6.4v8.1h-6.4V147.1z M191.9,147.1h6.4v8.1h-6.4V147.1z
	 M180.2,147.1h6.4v8.1h-6.4V147.1z M168.5,147.1h6.4v8.1h-6.4V147.1z M156.8,147.1h6.4v8.1h-6.4V147.1z M135.5,147.1h6.4v8.1h-6.4
	V147.1z M123.8,147.1h6.4v8.1h-6.4V147.1z M112.1,147.1h6.4v8.1h-6.4V147.1z M227,164.3h6.4v8.1H227V164.3z M215.3,164.3h6.4v8.1
	h-6.4V164.3z M203.6,164.3h6.4v8.1h-6.4V164.3z M191.9,164.3h6.4v8.1h-6.4V164.3z M180.2,164.3h6.4v8.1h-6.4V164.3z M168.5,164.3
	h6.4v8.1h-6.4V164.3z M156.8,164.3h6.4v8.1h-6.4V164.3z M135.5,164.3h6.4v8.1h-6.4V164.3z M123.8,164.3h6.4v8.1h-6.4V164.3z
	 M112.1,164.3h6.4v8.1h-6.4V164.3z M227,181.5h6.4v8.1H227V181.5z M215.3,181.5h6.4v8.1h-6.4V181.5z M203.6,181.5h6.4v8.1h-6.4
	V181.5z M191.9,181.5h6.4v8.1h-6.4V181.5z M180.2,181.5h6.4v8.1h-6.4V181.5z M168.5,181.5h6.4v8.1h-6.4V181.5z M156.8,181.5h6.4v8.1
	h-6.4V181.5z M135.5,181.5h6.4v8.1h-6.4V181.5z M123.8,181.5h6.4v8.1h-6.4V181.5z M112.1,181.5h6.4v8.1h-6.4V181.5z M227,198.7h6.4
	v8.1H227V198.7z M215.3,198.7h6.4v8.1h-6.4V198.7z M203.6,198.7h6.4v8.1h-6.4V198.7z M191.9,198.7h6.4v8.1h-6.4V198.7z M180.2,198.7
	h6.4v8.1h-6.4V198.7z M168.5,198.7h6.4v8.1h-6.4V198.7z M156.8,198.7h6.4v8.1h-6.4V198.7z M135.5,198.7h6.4v8.1h-6.4V198.7z
	 M123.8,198.7h6.4v8.1h-6.4V198.7z M112.1,198.7h6.4v8.1h-6.4V198.7z M227,215.8h6.4v8.1H227V215.8z M215.3,215.8h6.4v8.1h-6.4
	V215.8z M203.6,215.8h6.4v8.1h-6.4V215.8z M191.9,215.8h6.4v8.1h-6.4V215.8z M180.2,215.8h6.4v8.1h-6.4V215.8z M168.5,215.8h6.4v8.1
	h-6.4V215.8z M156.8,215.8h6.4v8.1h-6.4V215.8z M135.5,215.8h6.4v8.1h-6.4V215.8z M123.8,215.8h6.4v8.1h-6.4V215.8z M112.1,215.8
	h6.4v8.1h-6.4V215.8z M227,233h6.4v8.1H227V233z M215.3,233h6.4v8.1h-6.4V233z M203.6,233h6.4v8.1h-6.4V233z M191.9,233h6.4v8.1
	h-6.4V233z M180.2,233h6.4v8.1h-6.4V233z M168.5,233h6.4v8.1h-6.4V233z M156.8,233h6.4v8.1h-6.4V233z M135.5,233h6.4v8.1h-6.4V233z
	 M123.8,233h6.4v8.1h-6.4V233z M112.1,233h6.4v8.1h-6.4V233z M227,250.2h6.4v8.1H227V250.2z M215.3,250.2h6.4v8.1h-6.4V250.2z
	 M203.6,250.2h6.4v8.1h-6.4V250.2z M191.9,250.2h6.4v8.1h-6.4V250.2z M180.2,250.2h6.4v8.1h-6.4V250.2z M168.5,250.2h6.4v8.1h-6.4
	V250.2z M156.8,250.2h6.4v8.1h-6.4V250.2z M135.5,250.2h6.4v8.1h-6.4V250.2z M123.8,250.2h6.4v8.1h-6.4V250.2z M112.1,250.2h6.4v8.1
	h-6.4V250.2z M227,267.3h6.4v8.1H227V267.3z M215.3,267.3h6.4v8.1h-6.4V267.3z M203.6,267.3h6.4v8.1h-6.4V267.3z M191.9,267.3h6.4
	v8.1h-6.4V267.3z M180.2,267.3h6.4v8.1h-6.4V267.3z M168.5,267.3h6.4v8.1h-6.4V267.3z M156.8,267.3h6.4v8.1h-6.4V267.3z
	 M135.5,267.3h6.4v8.1h-6.4V267.3z M123.8,267.3h6.4v8.1h-6.4V267.3z M112.1,267.3h6.4v8.1h-6.4V267.3z M227,284.5h6.4v8.1H227
	V284.5z M215.3,284.5h6.4v8.1h-6.4V284.5z M203.6,284.5h6.4v8.1h-6.4V284.5z M191.9,284.5h6.4v8.1h-6.4V284.5z M180.2,284.5h6.4v8.1
	h-6.4V284.5z M168.5,284.5h6.4v8.1h-6.4V284.5z M156.8,284.5h6.4v8.1h-6.4V284.5z M135.5,284.5h6.4v8.1h-6.4V284.5z M123.8,284.5
	h6.4v8.1h-6.4V284.5z M112.1,284.5h6.4v8.1h-6.4V284.5z"/>
<path class="st5" d="M222.8,30.5H122.7V18.6c-0.1-5,4-9.1,9-9.2h81.9c5,0.1,9.1,4.1,9.2,9.2V30.5z"/>
<path class="st2" d="M50.7,330.1H32.2c0-1.9,1.5-3.4,3.4-3.4h11.7C49.2,326.7,50.7,328.2,50.7,330.1z"/>
<path class="st2" d="M44.5,305.7h-5.7c-0.6,0-1.1,0.4-1.2,1.1l-1,20.8h9.6l-0.5-20.8C45.7,306.2,45.2,305.7,44.5,305.7z"/>
<path class="st2" d="M38.6,298.3h5.6c0.7,0,1.3,0.6,1.3,1.3v5.2c0,0.7-0.6,1.3-1.3,1.3h-5.6c-0.7,0-1.3-0.6-1.3-1.3v-5.3
	C37.4,298.9,37.9,298.3,38.6,298.3z"/>
<path class="st2" d="M40.2,234.5h2.4v63.9h-2.4V234.5z"/>
<path class="st2" d="M46.5,236H36.3c-0.8,0-1.4-0.6-1.4-1.4c0-0.8,0.6-1.4,1.4-1.4h10.3c0.8,0,1.4,0.6,1.4,1.4
	C48,235.4,47.3,236,46.5,236z"/>
<path class="st4" d="M46.5,233.1h-10l-1.6-14.6h13.2L46.5,233.1z"/>
<path class="st2" d="M48.9,219.2H34c-0.8,0-1.4-0.6-1.4-1.4s0.6-1.4,1.4-1.4h14.9c0.8,0,1.4,0.6,1.4,1.4S49.7,219.2,48.9,219.2z
	 M43,211.6h-3.1v-1.4c0-0.8,0.7-1.5,1.5-1.5c0.8,0,1.5,0.7,1.5,1.5L43,211.6L43,211.6z"/>
<path class="st2" d="M49.6,216.7H33.4c0-3.2,2.6-5.8,5.8-5.8h4.6C47,210.9,49.6,213.5,49.6,216.7z"/>
<path class="st6" d="M457,223.1c3.5-0.7,6,3.2,6.6,6.6c0.3,1.8,0.3,3.9,1.7,5.1c0.6,0.4,1.2,0.8,1.9,1.1c3.9,2.1,4.2,6,4.2,9.9
	c-0.1,0.7,0.1,1.3,0.3,1.9c0.3,0.7,1,1,1.5,1.6c0.3,0.4,0.4,0.9,0.5,1.5c1,4.5,0.5,8.6,0.4,13.1c-0.2,31.8-16.7,30.3-16.7,30.3h-0.5
	c-4-0.2-7.6-2.8-10-6c-2.4-3.3-3.8-7.5-4.6-11.6c-0.6-3-0.9-6.1-1-9.1c-0.2-3.3-0.8-6.4,0.3-9.6c0.6-1.4,1.4-2.9,1.5-4.5
	c0-1.7-1-3.3-1-5.1c0-1,0.2-2.1,0.6-3c0.8-2.4,1.9-4.8,3-7c1-1.7,3.1-2.7,3.7-4.6c0.1-0.8,0.2-1.6,0.1-2.5c0.1-4.1,3.5-6.9,7-7.9
	L457,223.1z"/>
<path class="st7" d="M460.1,326.8h-4l1.3-51l0.6-1.3L460.1,326.8z"/>
<path class="st6" d="M522.1,223.1c3.5-0.7,6,3.2,6.6,6.6c0.3,1.8,0.3,3.9,1.7,5.1c0.6,0.4,1.2,0.8,1.9,1.1c3.9,2.1,4.2,6,4.2,9.9
	c-0.1,0.7,0.1,1.3,0.3,1.9c0.3,0.7,1,1,1.5,1.6c0.3,0.4,0.4,0.9,0.5,1.5c1,4.5,0.5,8.6,0.4,13.1c-0.2,31.8-16.7,30.3-16.7,30.3H522
	c-4-0.2-7.6-2.8-10-6c-2.4-3.3-3.8-7.5-4.6-11.6c-0.6-3-0.9-6.1-1-9.1c-0.2-3.3-0.8-6.4,0.3-9.6c0.6-1.4,1.4-2.9,1.5-4.5
	c0-1.7-1-3.3-1-5.1c0-1,0.2-2.1,0.6-3c0.8-2.4,1.9-4.8,3-7c1-1.7,3.1-2.7,3.7-4.6c0.1-0.8,0.2-1.6,0.1-2.5c0.1-4.1,3.5-6.9,7-7.9
	L522.1,223.1z"/>
<path class="st7" d="M525.2,326.8h-4l1.3-51l0.6-1.3L525.2,326.8z"/>
<path class="st8" d="M131.9,331.5c0-5.3,1.5-10.5,4.3-15c2.8-4.4,6.8-7.9,11.5-9.9c4.7-2,9.9-2.6,14.8-1.5c5,1,9.6,3.6,13.2,7.4
	c3.6,3.8,6,8.6,7,13.8c1,5.2,0.5,10.6-1.5,15.6c-1.9,4.9-5.2,9.1-9.5,12.1c-4.2,3-9.2,4.5-14.3,4.5c-6.8,0-13.3-2.9-18.1-7.9
	C134.6,345.5,131.9,338.6,131.9,331.5z M272.6,331.8c0-5.3,1.5-10.4,4.3-14.8c2.8-4.4,6.8-7.8,11.4-9.8c4.7-2,9.8-2.5,14.7-1.5
	c4.9,1,9.5,3.6,13,7.3c3.6,3.7,6,8.5,7,13.7c1,5.2,0.5,10.5-1.5,15.4c-1.9,4.9-5.2,9-9.4,12c-4.2,2.9-9.1,4.5-14.1,4.5
	c-6.7,0-13.2-2.8-18-7.8C275.4,345.7,272.6,338.9,272.6,331.8z"/>
<path class="st9" d="M379.9,195.7H288v121h91.8V195.7z"/>
<path class="st10" d="M366.7,288.4h-24.3v26.7h24.3V288.4z"/>
<path class="st11" d="M330.4,283.9l12.2,4.5V315l-12.2-4.4V283.9z"/>
<path class="st12" d="M366.7,288.4l-12.1-4.5h-24.3l12.2,4.5H366.7z"/>
<path class="st13" d="M338.8,306.2v7.4l-3.7-1.3v-7.4L338.8,306.2z"/>
<path class="st14" d="M338.8,287v7.4l-3.7-1.3v-7.4L338.8,287z"/>
<path class="st15" d="M359.4,285.7l0.5,0.2l0.8,0.3l2.6,0.8h-24.4l-3.7-1.3H359.4z"/>
<path class="st16" d="M351.7,299.4h-14.3v15.7h14.3V299.4z"/>
<path class="st10" d="M330.2,296.7l7.2,2.6V315l-7.2-2.6V296.7z"/>
<path class="st17" d="M351.7,299.4l-7.1-2.6h-14.3l7.2,2.6H351.7z"/>
<path class="st15" d="M335.3,309.9v4.4l-2.2-0.8v-4.4L335.3,309.9z M335.3,298.5v4.4l-2.2-0.8v-4.4L335.3,298.5z"/>
<path class="st18" d="M347.4,297.8l0.2,0.1l0.5,0.2l1.5,0.5h-14.4l-2.2-0.8L347.4,297.8z"/>
<path class="st19" d="M334,264.9h-31.2v50H334V264.9z"/>
<path class="st20" d="M287.3,264.3l15.6,0.7v50l-15.6,0.1V264.3z"/>
<path class="st21" d="M298.1,300.9V315h-4.7v-16.5L298.1,300.9z"/>
<path class="st22" d="M293.3,314.9H61.8c-2.3,0-4,2.1-4,4.7v10.2c0,2.6,1.8,4.7,4,4.7h231.5V314.9z"/>
<path class="st23" d="M63.8,314.9h104.2v-90.1h-52.3c-5,0-10,1.3-14.4,3.8s-8.2,6.1-11,10.5l-21.3,33.4c-3.4,5.4-5.2,11.7-5.2,18.2
	V314.9z"/>
<path class="st8" d="M143.9,278.1v-43.2h-27.5c-3.5,0-6.9,0.9-10,2.6c-3.1,1.7-5.7,4.2-7.7,7.2l-21.5,33.4H143.9z"/>
<path class="st24" d="M166.3,224.9h-9.7V315h9.7V224.9z"/>
<path class="st25" d="M132.4,285.3h9.3c0.6,0,1.1-0.2,1.5-0.6c0.4-0.4,0.6-1,0.6-1.6v-1.3h-13.6v1.3c0,0.6,0.3,1.2,0.7,1.6
	C131.4,285,131.9,285.3,132.4,285.3z"/>
<path class="st26" d="M71.9,303.5c0-2.3-0.9-4.4-2.4-6s-3.6-2.5-5.8-2.5v17.1c2.2,0,4.2-0.9,5.8-2.6
	C71.2,307.9,71.9,305.8,71.9,303.5z"/>
<path class="st27" d="M379.4,314.9h-86.1c-0.7,0-1.4,0.1-2.1,0.4c-0.7,0.3-1.3,0.7-1.8,1.3c-0.5,0.5-0.9,1.2-1.2,1.9
	c-0.3,0.7-0.4,1.5-0.4,2.2v8c0,1.5,0.6,3,1.6,4.1c1,1.1,2.4,1.7,3.9,1.7h86.1c1.5,0,2.9-0.6,3.9-1.7c1-1.1,1.6-2.6,1.6-4.1v-8
	c0-1.5-0.6-3-1.6-4.1C382.3,315.6,380.9,315,379.4,314.9z"/>
<path class="st28" d="M303.3,324.8c0-0.8-0.2-1.6-0.7-2.3c-0.4-0.7-1.1-1.2-1.8-1.5s-1.5-0.4-2.3-0.2c-0.8,0.2-1.5,0.6-2,1.1
	c-0.6,0.6-0.9,1.3-1.1,2.1c-0.2,0.8-0.1,1.6,0.2,2.4c0.3,0.8,0.8,1.4,1.5,1.9c0.7,0.5,1.4,0.7,2.2,0.7c0.5,0,1-0.1,1.5-0.3
	c0.5-0.2,0.9-0.5,1.3-0.9c0.4-0.4,0.7-0.8,0.9-1.3C303.1,326,303.3,325.3,303.3,324.8z"/>
<path class="st26" d="M310,324.8c0-0.5-0.2-1.1-0.6-1.4c-0.4-0.4-0.8-0.6-1.4-0.6c-0.5,0-1,0.2-1.4,0.6s-0.6,0.9-0.6,1.4
	c0,0.3,0.1,0.5,0.2,0.8c0.1,0.2,0.2,0.5,0.4,0.7c0.2,0.2,0.4,0.3,0.6,0.4c0.2,0.1,0.5,0.2,0.7,0.2h0.1c0.5,0,1-0.2,1.3-0.5
	c0.4-0.3,0.6-0.8,0.6-1.3L310,324.8L310,324.8z"/>
<path class="st28" d="M371.8,324.8c0,0.8,0.2,1.6,0.7,2.3c0.4,0.7,1.1,1.2,1.8,1.5c0.7,0.3,1.5,0.4,2.3,0.2c0.8-0.2,1.5-0.6,2-1.1
	c0.6-0.6,0.9-1.3,1.1-2.1c0.2-0.8,0.1-1.6-0.2-2.4c-0.3-0.8-0.8-1.4-1.5-1.9c-0.7-0.5-1.4-0.7-2.2-0.7c-1.1,0-2.1,0.5-2.8,1.2
	C372.3,322.6,371.9,323.7,371.8,324.8z"/>
<path class="st26" d="M365,324.8c0,0.4,0.1,0.8,0.3,1.1c0.2,0.3,0.5,0.6,0.9,0.8c0.4,0.2,0.7,0.2,1.1,0.1c0.4-0.1,0.7-0.3,1-0.6
	c0.3-0.3,0.5-0.6,0.5-1c0.1-0.4,0-0.8-0.1-1.2s-0.4-0.7-0.7-0.9c-0.3-0.2-0.7-0.3-1.1-0.3c-0.5,0-1,0.2-1.4,0.5
	c-0.4,0.4-0.6,0.9-0.6,1.4v0.1H365z"/>
<path class="st24" d="M379.9,194.2h-86.6l-0.9,5.8h87.5V194.2z"/>
<path class="st29" d="M156.6,295.6l-43.3,14.5c0,0,4.3,3,5.7,4.9h37.6V295.6z"/>
<path class="st30" d="M113.3,310.1l43.3-14.5v-9.9l-50.8,21.2C108.3,307.4,110.9,308.5,113.3,310.1z"/>
<path class="st23" d="M293.4,194.2h-127v120.7h127V194.2z"/>
<path class="st29" d="M293.4,290.6l-127,3.8V315h127V290.6z"/>
<path class="st8" d="M237.4,306c7.2,0,14.1,3,19.2,8.4c5.1,5.3,8,12.6,8,20.1h-54.4c0-3.7,0.7-7.4,2-10.9c1.3-3.5,3.4-6.6,5.9-9.2
	s5.5-4.7,8.8-6.2c3.3-1.4,6.8-2.2,10.4-2.2H237.4z"/>
<path class="st8" d="M240.9,310.4c5.9,0.1,11.5,2.6,15.7,7c4.2,4.3,6.6,10.2,6.8,16.4c0.2,6.2-1.9,12.2-5.9,16.7
	c-3.9,4.6-9.4,7.4-15.3,7.9h-7.6v-48H240.9z"/>
<path class="st27" d="M213.4,334.4c0-4.8,1.3-9.4,3.9-13.3c2.5-4,6.1-7,10.3-8.8c4.2-1.8,8.8-2.3,13.2-1.4c4.4,0.9,8.5,3.2,11.7,6.6
	s5.4,7.6,6.3,12.3c0.9,4.7,0.4,9.5-1.3,13.9c-1.7,4.4-4.7,8.1-8.4,10.8c-3.8,2.6-8.2,4-12.7,4c-6.1,0-11.9-2.5-16.2-7
	C215.9,346.9,213.4,340.8,213.4,334.4z"/>
<path class="st29" d="M236.3,346.2c-6.2,0-11.2-5.3-11.2-11.8s5-11.8,11.2-11.8s11.2,5.3,11.2,11.8S242.4,346.2,236.3,346.2z"/>
<path class="st30" d="M166.4,294.4l127-3.8v-12.3l-127.1,6L166.4,294.4z"/>
<path class="st8" d="M99.2,306c7.2,0,14.1,3,19.2,8.4c5.1,5.3,8,12.6,8,20.1H71.9c0-3.7,0.7-7.4,2-10.9c1.3-3.5,3.3-6.6,5.9-9.2
	c2.5-2.6,5.5-4.7,8.8-6.2C91.9,306.8,95.4,306,99.2,306L99.2,306z"/>
<path class="st8" d="M102.8,310.4c5.9,0.1,11.5,2.6,15.7,7c4.2,4.3,6.6,10.2,6.7,16.4c0.2,6.2-1.9,12.2-5.9,16.7
	c-3.9,4.6-9.4,7.4-15.3,7.9h-7.6v-48H102.8z"/>
<path class="st27" d="M75.3,334.4c0-4.8,1.3-9.4,3.9-13.3c2.5-4,6.1-7,10.3-8.8c4.2-1.8,8.8-2.3,13.2-1.4s8.5,3.2,11.7,6.6
	c3.2,3.4,5.4,7.6,6.3,12.3c0.9,4.7,0.4,9.5-1.3,13.9c-1.7,4.4-4.7,8.1-8.4,10.8c-3.8,2.6-8.2,4-12.7,4c-6.1,0-11.9-2.5-16.2-7
	C77.7,346.9,75.3,340.8,75.3,334.4z"/>
<path class="st29" d="M98.2,346.2c-6.2,0-11.2-5.3-11.2-11.8s5-11.8,11.2-11.8c6.2,0,11.2,5.3,11.2,11.8S104.3,346.2,98.2,346.2z"/>
<path class="st26" d="M598.8,224.1v114.3c0,2.3-1.7,4.2-4.1,4.5c-0.2,0-0.5,0.1-0.7,0h-48.5c-2.6,0-4.8-2-4.8-4.6V224
	c0-2.5,2.1-4.6,4.8-4.6H594c0.4,0,0.8,0,1.2,0.1c0.2,0,0.3,0.1,0.5,0.1c0.2,0.1,0.4,0.2,0.6,0.3
	C597.8,220.9,598.8,222.4,598.8,224.1z"/>
<path class="st31" d="M598.8,337.7h-58.1v5.2h58.1V337.7z"/>
<path class="st4" d="M547.8,290.4c-0.8,0-1.5-0.7-1.5-1.4v-24.5c0-0.8,0.7-1.4,1.5-1.4s1.5,0.7,1.5,1.4V289
	C549.3,289.8,548.5,290.4,547.8,290.4z M547.7,332.1c-0.8,0-1.5-0.7-1.5-1.4V316c0-0.8,0.7-1.4,1.5-1.4c0.8,0,1.5,0.7,1.5,1.4v14.7
	C549.2,331.4,548.5,332.1,547.7,332.1z"/>
<path class="st31" d="M598.8,305h-58.1v2.6h58.1V305z"/>
<path class="st32" d="M456.8,321H484v25h-27.2V321z"/>
<path class="st33" d="M497.6,316.9L484,321v25l13.6-4.2V316.9z"/>
<path class="st34" d="M456.8,321l13.6-4.2h27.2L484,321H456.8z"/>
<path class="st35" d="M473.6,322.6h9.2v3.7h-9.2V322.6z"/>
<path class="st36" d="M479.3,316.9L468,321h4.7l10.9-4.2H479.3z M468,321v4.9h4.6l0.1-4.9H468z M468,341.3v4.9h4.6l0.1-4.9H468z"/>
<path class="st37" d="M461.3,302h19.4v17.9h-19.4V302z"/>
<path class="st36" d="M490.5,299.1l-9.7,3v17.9l9.7-3V299.1z"/>
<path class="st38" d="M461.3,302l9.7-3h19.4l-9.7,3H461.3z"/>
<path class="st36" d="M467.2,300.2l-0.4,0.1l-0.6,0.2l-2,0.6h19.6l2.9-0.9H467.2z"/>
<path class="st35" d="M473.4,303.2h6.6v2.6h-6.6V303.2z"/>
<path class="st37" d="M485.7,319.8h26.5v25.8h-26.5V319.8z"/>
<path class="st35" d="M500.9,325.5h8.8v6.3h-8.8V325.5z"/>
<path class="st36" d="M524.8,315.4l-12.6,4.3v25.9l12.6-4.3V315.4z"/>
<path class="st39" d="M485.7,319.8l13-4.4h26l-13,4.4H485.7z"/>
<path class="st40" d="M516,318.5v7l3.8-1.2v-7L516,318.5z"/>
<path class="st36" d="M493.6,317.3l-0.5,0.2l-0.8,0.3l-2.8,0.8h26.3l3.9-1.3H493.6z"/>
<path class="st40" d="M516,336.8v7.5l3.8-1.3v-7.5L516,336.8z"/>
<path class="st37" d="M487.6,295.8h23.3v22.7h-23.3V295.8z"/>
<path class="st41" d="M500.9,297.7h8.2v6.3h-8.2V297.7z"/>
<path class="st36" d="M522.3,292.1l-11.3,3.8v22.7l11.3-3.8V292.1z"/>
<path class="st39" d="M487.6,295.8l11.6-3.8h23.1l-11.6,3.8H487.6z"/>
<path class="st40" d="M514.1,294.5v6.4l3.1-1.1v-6.4L514.1,294.5z"/>
<path class="st36" d="M494.4,293.3l-0.5,0.2l-0.7,0.2l-2.4,0.8h23.1l3.4-1.3H494.4z"/>
<path class="st40" d="M514.1,310.9v7l3.1-1.2v-7L514.1,310.9z"/>
<path class="st42" d="M545.2,291.4h0.3c0.9,0,1.7-0.7,1.7-1.7s-0.7-1.7-1.7-1.7l-13.6,0c-0.9,0-1.7,0.7-1.7,1.7s0.7,1.7,1.7,1.7h0.3
	l-5.5,54.2l1.3,0.1l0.9-8.8l9.3,0v8.8h1.3l0-8.8l9.3,0l0.9,8.8l1.2-0.1L545.2,291.4z M548.4,333.8l-9,0l-0.1-27.2h6.2L548.4,333.8z
	 M545.4,305.4h-6.1l0-13.9h4.7L545.4,305.4z M538.2,335.7l-9.2,0l0.1-0.6l9.1,0V335.7z M538.2,333.8l-9,0l2.7-27.2h6.2L538.2,333.8z
	 M538.1,305.4H532l1.4-13.9h4.7L538.1,305.4z M539.4,335.7v-0.6l9.1,0l0.1,0.6L539.4,335.7z"/>
<path class="st43" d="M522.5,338.9c1.7-0.3,1-11.7-1.6-25.5c-2.5-13.8-5.9-24.7-7.6-24.4c-1.7,0.3-1,11.7,1.6,25.5
	C517.5,328.2,520.9,339.2,522.5,338.9z"/>
<path class="st43" d="M529.6,314.4c2.3-13.8,2.9-25.3,1.2-25.5c-1.7-0.3-4.9,10.7-7.3,24.5s-2.9,25.3-1.2,25.5
	S527.3,328.2,529.6,314.4z"/>
<path class="st44" d="M521.5,334.5c1.8,0,3.3-12.1,3.3-26.9s-1.5-26.9-3.3-26.9s-3.3,12.1-3.3,26.9S519.7,334.5,521.5,334.5z"/>
<path class="st44" d="M522.5,338.9c1.4-0.5-1-10.6-5.4-22.4c-4.4-11.8-9.1-21-10.6-20.5c-1.4,0.5,1,10.6,5.4,22.4
	C516.4,330.3,521.1,339.4,522.5,338.9z"/>
<path class="st44" d="M532.7,318.3c4.3-11.9,6.5-22,5.1-22.5c-1.4-0.5-6.1,8.7-10.3,20.6c-4.3,11.9-6.5,22-5.1,22.5
	C523.8,339.4,528.4,330.2,532.7,318.3z"/>
<path class="st45" d="M525.1,346.8l-5.1,0c-3,0-5.6-2.4-5.9-5.7l-1.3-13.6c-0.1-0.7,0.4-1.3,1.2-1.4h0.1l16.6-0.1
	c0.7,0,1.3,0.6,1.3,1.3v0.1l-1.1,13.6C530.6,344.3,528,346.8,525.1,346.8z"/>
<path class="st43" d="M549.8,272.2c4.4-4.7,6.3-10.1,4.1-12.1c-2.1-2-7.4,0.1-11.8,4.8c-4.4,4.7-6.3,10.1-4.1,12.1
	C540.1,279,545.4,276.8,549.8,272.2z"/>
<path class="st43" d="M538.4,277c2.1-2,0.2-7.4-4.3-12c-4.5-4.6-9.8-6.7-11.9-4.7c-2.1,2-0.2,7.4,4.3,12
	C531,276.9,536.3,279,538.4,277z"/>
<path class="st44" d="M537.2,277.4c3.6,0,6.6-6.5,6.6-14.4c0-8-2.9-14.4-6.6-14.4s-6.6,6.5-6.6,14.4
	C530.7,271,533.6,277.4,537.2,277.4z"/>
<path class="st46" d="M538.5,288.5c-4.5,0-8.2-3.6-8.2-8.1V279c0-1.4,1.2-2.6,2.6-2.6l11.1-0.1c1.4,0,2.6,1.2,2.6,2.6v1.4
	C546.6,284.8,543,288.5,538.5,288.5z"/>
<path class="st47" d="M385.3,268.4c0.3-0.1,0.6,0.5,1.1,1.6c0.2,0.5,0.5,1.1,0.8,1.8c0.3,0.7,0.6,1.5,1,2.3c0.4,0.9,0.9,1.7,1.3,2.5
	c0.3,0.4,0.6,0.8,0.9,1.2c0.3,0.4,0.6,0.8,1,1.1c0.4,0.3,0.8,0.6,1.2,0.9c0.4,0.3,0.8,0.5,1.3,0.7c0.4,0.2,0.9,0.3,1.3,0.4
	c0.1,0,0.2,0.1,0.3,0.1l0.3,0.1c0.2,0,0.4,0,0.6,0c1,0,2-0.2,2.9-0.4c0.5-0.2,1-0.3,1.4-0.5c0.2-0.1,0.5-0.2,0.7-0.3
	c0.2-0.1,0.5-0.2,0.6-0.3c0.4-0.2,0.9-0.4,1.3-0.7c0.4-0.2,0.8-0.5,1.2-0.8c0.8-0.5,1.5-1,2.2-1.6c0.6-0.5,1.3-0.9,2-1.3
	c0.5-0.4,1.1-0.7,1.7-1c0.4-0.2,0.9-0.4,1.5-0.4c0.4-0.1,0.8,0,1.1,0.2c0.3,0.2,0.5,0.5,0.6,1c0.1,0.5,0.1,1.1,0,1.6
	c-0.1,0.8-0.3,1.4-0.6,2.1c-0.4,0.9-0.9,1.8-1.4,2.5c-0.7,1-1.5,1.9-2.4,2.7c-0.5,0.5-1,0.9-1.6,1.3c-0.6,0.4-1.2,0.9-1.9,1.2
	c-0.3,0.2-0.7,0.4-1.1,0.5s-0.8,0.3-1.1,0.5c-0.8,0.3-1.6,0.5-2.4,0.8c-1.8,0.4-3.7,0.5-5.6,0.2c-0.5-0.1-1-0.2-1.4-0.3l-0.6-0.2
	c-0.2-0.1-0.5-0.2-0.7-0.3c-0.9-0.4-1.7-0.8-2.5-1.3c-0.8-0.5-1.4-1.1-2-1.8c-0.5-0.6-1.1-1.2-1.5-1.9c-0.4-0.6-0.8-1.3-1.1-2
	c-0.3-0.6-0.5-1.3-0.7-1.9c-0.3-1.1-0.5-2.3-0.6-3.4c-0.1-0.9-0.1-1.8-0.1-2.8c0-0.7,0.1-1.3,0.2-2
	C384.8,269.1,385,268.4,385.3,268.4z"/>
<path class="st4" d="M400.9,283.3c-0.3,5.7-0.3,11.4,0,17.1c5.5,1.8,11.3,2.3,17,1.4c0.4-5.8,0.8-11.6,0.8-17.4c0-3.1-0.1-6.2-1-9.1
	c-0.7-2.6-2.3-5-4.4-6.7c-0.3-0.2-0.5-0.4-0.8-0.5c-1.3,1.1-4,1.5-5.5,0.8c-0.8,0.5-1.5,1.2-2.1,1.9c-1.1,1.3-2,2.9-2.5,4.6
	C401.5,277.9,401,280.6,400.9,283.3z"/>
<path class="st48" d="M404.9,270.8c1.5,0.4,3,0.4,4.4,0.1c0.8-0.2,1.5-0.5,2.2-0.9c0.5-0.3,1.1-0.6,1.6-1.1l0.1-0.3v-0.2l-0.1-0.5
	c-0.3-1.6-0.5-3.3-0.8-4.9c-0.2-1.5-0.4-3-0.6-4.5c-1.7,0.9-3.3,1.8-4.8,3c0,1-0.1,2-0.2,3.1c-0.1,0.9-0.2,1.7-0.3,2.6
	c-0.1,0.5-0.2,1-0.2,1.4c-0.1,0.5-0.2,0.9-0.3,1.3C405.5,270.1,405.2,270.4,404.9,270.8z"/>
<path class="st49" d="M406.3,267.1c1.8-1.6,3.8-3,5.9-4c-0.2-1.5-0.4-3-0.6-4.5c-1.7,0.9-3.3,1.8-4.8,3c0,1-0.1,2-0.2,3.1
	C406.5,265.4,406.4,266.2,406.3,267.1z"/>
<path class="st27" d="M437.9,351.3c0,0,0,4-3.7,3.9l-0.7,14.4l10-17.1L437.9,351.3z"/>
<path class="st4" d="M436.3,361.5c0-0.1-0.1-0.2-0.1-0.2c-0.1-0.1-0.2-0.1-0.2-0.1c-0.8,0.1-1.6,0.3-2.3,0.6
	c-0.1,0.1-0.2,0.1-0.2,0.2c-0.1,0.1-0.1,0.2,0,0.3c0,0.1,0.1,0.1,0.1,0.1c0.1,0,0.1,0.1,0.1,0.1c0.1,0,0.2,0,0.2,0
	c0.6-0.3,1.3-0.5,2.1-0.6c0.1,0,0.1-0.1,0.2-0.1c0.1-0.1,0.1-0.1,0.1-0.1C436.3,361.6,436.3,361.5,436.3,361.5z M436.4,359.7
	c0-0.1,0-0.1-0.1-0.1c0-0.1-0.1-0.1-0.1-0.1c-0.1,0-0.1-0.1-0.1-0.1c-0.1,0-0.1,0-0.1,0c-0.8,0.1-1.6,0.3-2.3,0.6
	c-0.1,0-0.1,0.1-0.1,0.1c-0.1,0.1-0.1,0.1-0.1,0.1c-0.1,0.1-0.1,0.2,0,0.3c0,0.1,0.1,0.1,0.1,0.1c0.1,0,0.1,0.1,0.1,0.1
	c0.1,0,0.1,0,0.1,0c0.1,0,0.1,0,0.1-0.1c0.6-0.3,1.3-0.5,2.1-0.6c0.1,0,0.1-0.1,0.2-0.1c0.1,0,0.1-0.1,0.1-0.1
	C436.4,359.8,436.4,359.8,436.4,359.7z M436.5,357.9c0-0.1,0-0.1-0.1-0.1c0-0.1-0.1-0.1-0.1-0.1c-0.1-0.1-0.2-0.1-0.2-0.1
	c-0.8,0.1-1.6,0.3-2.3,0.6c-0.1,0.1-0.1,0.1-0.2,0.2c-0.1,0.1-0.1,0.2,0,0.3c0.1,0.1,0.1,0.1,0.2,0.2c0.1,0,0.2,0,0.2,0
	c0.6-0.3,1.3-0.5,2.1-0.6c0.1,0,0.1-0.1,0.2-0.1c0.1-0.1,0.1-0.1,0.1-0.1C436.5,358,436.5,358,436.5,357.9z M435.4,370
	c-0.1,0.1-0.1,0.1-0.2,0.2c-0.1,0.1-0.1,0.1-0.2,0.1c-0.1,0-0.2,0-0.2,0c-0.1,0-0.2-0.1-0.2-0.1l-1.1-0.6l9.9-17.1l1.1,0.6
	c0.1,0.1,0.1,0.1,0.2,0.1c0.1,0.1,0.1,0.1,0.1,0.2c0,0.1,0,0.2,0,0.2c0,0.1-0.1,0.1-0.1,0.2L435.4,370z"/>
<path class="st27" d="M398.3,366c0,0-3.5,1.8-5.2-1.4l-13,6.1l19.8,0.9L398.3,366z"/>
<path class="st4" d="M388.1,369.2c0.1,0.1,0.1,0.1,0.2,0.1c0.1,0,0.1,0,0.2-0.1c0.1,0,0.1-0.1,0.1-0.1c0-0.1,0.1-0.1,0.1-0.1
	c0-0.1,0-0.1,0-0.1c0-0.1,0-0.1-0.1-0.1c-0.4-0.6-1-1.2-1.6-1.8c-0.1-0.1-0.2-0.1-0.3-0.1c-0.1,0-0.2,0.1-0.2,0.1
	c0,0.1-0.1,0.1-0.1,0.1c0,0.1,0,0.1,0,0.1c0,0.1,0,0.1,0.1,0.1c0,0.1,0.1,0.1,0.1,0.1c0.6,0.4,1.1,1,1.4,1.6
	C388,369.2,388,369.2,388.1,369.2z M389.7,368.5c0.1,0.1,0.1,0.1,0.2,0.1c0.1,0,0.1,0,0.2-0.1c0.1,0,0.1-0.1,0.1-0.1
	c0-0.1,0.1-0.1,0.1-0.1c0-0.1,0-0.1,0-0.1c0-0.1,0-0.1-0.1-0.1c-0.4-0.6-1-1.2-1.6-1.8c-0.1,0-0.1-0.1-0.1-0.1c-0.1,0-0.1,0-0.1,0
	c-0.1,0-0.1,0-0.1,0.1c-0.1,0-0.1,0.1-0.1,0.1c-0.1,0.1-0.1,0.2-0.1,0.2c0,0.1,0.1,0.2,0.1,0.2c0.6,0.4,1.1,1,1.4,1.6
	C389.6,368.5,389.7,368.5,389.7,368.5z M391.4,367.8c0.1,0.1,0.1,0.1,0.2,0c0.1,0,0.1-0.1,0.2-0.1c0.1-0.1,0.1-0.1,0.1-0.2
	c0-0.1,0-0.1-0.1-0.2c-0.4-0.6-1-1.2-1.6-1.8c-0.1-0.1-0.2-0.1-0.3-0.1c-0.1,0-0.2,0.1-0.2,0.1c0,0.1-0.1,0.1-0.1,0.1
	c0,0.1,0,0.1,0,0.1c0,0.1,0.1,0.2,0.1,0.2c0.6,0.4,1.1,1,1.5,1.6C391.3,367.7,391.3,367.8,391.4,367.8z M380.4,372.3
	c-0.2-0.1-0.3-0.2-0.3-0.4c-0.1-0.1-0.1-0.2-0.1-0.3l0.1-1.1l19.8,0.9l-0.1,1.1c0,0.1-0.1,0.2-0.1,0.3c-0.1,0.1-0.1,0.2-0.2,0.2
	c-0.1,0.1-0.3,0.2-0.5,0.2l-18.5-0.8C380.5,372.4,380.5,372.4,380.4,372.3z"/>
<path class="st50" d="M418.3,305.2c0,0-4.6,26.8,22.7,45.9l-7.3,7.9c0,0-30.4-20.9-27.3-47.8L418.3,305.2z"/>
<path class="st51" d="M419.3,320.8c-0.4,0.5-0.9,1.1-1.2,1.7c-1,1.5-1.9,3.1-2.6,4.8c-1.3,2.8-2.4,5.6-3.3,8.6
	c-4.1-7.1-6.9-15.5-5.9-24.6l11.9-6.1C418.2,305.2,417.1,311.8,419.3,320.8z"/>
<path class="st52" d="M400.8,278.5c-1.2,9.5-1.3,19.1-0.4,28.6c0,0-15,29.3-11.7,58.7l11.4,2.8c0,0,2.6-38.7,18.1-58.3l0.6-19.4
	l-12.3-2l-1.1-10.4L400.8,278.5z"/>
<path class="st50" d="M418.1,293.2c0.1,0,0.2-0.1,0.3-0.4c0.1-0.2,0.2-0.3,0.2-0.5c0.1-0.2,0.2-0.4,0.2-0.7c0.1-0.1,0.1-0.3,0.1-0.4
	c0.1-0.2,0.1-0.3,0.1-0.5c0.1-0.2,0.1-0.3,0.1-0.5c0.1-0.2,0.1-0.4,0.1-0.5c0-0.2,0.1-0.4,0.1-0.6l0.1-0.6c0.1-0.4,0.1-0.9,0.1-1.3
	c0.1-1.1,0.1-2.1,0-3.2c-0.1-1.2-0.2-2.4-0.4-3.6c-0.2-1.3-0.5-2.6-0.9-3.9c-0.4-1.5-1-2.8-1.7-4.1c-0.4-0.7-1-1.3-1.6-1.8
	c-0.6-0.5-1.3-1-2.1-1.2c-0.4-0.2-0.8-0.2-1.2-0.3h-1.2c-0.8,0.1-1.5,0.3-2.1,0.6c-0.6,0.3-1.2,0.7-1.7,1.1
	c-0.1,0.1-0.2,0.2-0.4,0.3l-0.3,0.3l-0.3,0.4c-0.1,0.1-0.2,0.3-0.3,0.4c-0.3,0.5-0.6,1-0.9,1.5c-0.2,0.5-0.4,1-0.5,1.5
	c-0.2,0.9-0.4,1.7-0.5,2.6c-0.1,0.6-0.1,1.3-0.1,1.9c0,1.1,0.1,1.7,0.2,1.7c0.1,0,0.2-0.6,0.4-1.6c0.1-0.5,0.2-1.2,0.4-1.9
	c0.2-0.8,0.4-1.6,0.6-2.4c0.3-0.9,0.8-1.7,1.5-2.5c0.1-0.1,0.2-0.2,0.3-0.3l0.3-0.3l0.3-0.3c0.1-0.1,0.2-0.2,0.3-0.2
	c0.4-0.3,0.9-0.6,1.3-0.8c0.5-0.2,1-0.3,1.6-0.3h0.8c0.3,0.1,0.5,0.1,0.8,0.2c1.1,0.5,2,1.3,2.6,2.4c0.6,1.1,1.1,2.3,1.4,3.6
	c0.4,1.3,0.6,2.5,0.9,3.7c0.2,1.2,0.4,2.3,0.5,3.4c0.1,1.1,0.2,2.1,0.2,3v5.1c0,0.2,0,0.4,0.1,0.5C418,293,418,293.2,418.1,293.2z"
	/>
<path class="st32" d="M395.4,270.3h-22.8v22.8h22.8V270.3z"/>
<path class="st33" d="M361.2,266.5l11.4,3.8v22.8l-11.4-3.8V266.5z"/>
<path class="st34" d="M395.4,270.3l-11.4-3.8h-22.8l11.4,3.8H395.4z"/>
<path class="st35" d="M381.3,271.7h-7.7v3.3h7.7V271.7z"/>
<path class="st36" d="M382,288.8l0.1,4.4h3.9v-4.4H382z M382,270.3l0.1,4.4h3.9v-4.4H382z M376.6,266.5h-3.7l9.1,3.8h3.9
	L376.6,266.5z"/>
<path class="st48" d="M415.7,278.9v0.2c0,2.5-0.5,4.9-1.7,7c-0.4,0.9-0.9,1.6-1.4,2.4c-0.6,0.8-1.3,1.6-2,2.2
	c-1.6,1.4-3.5,2.4-5.5,2.8c-0.9,0.2-1.9,0.4-2.8,0.4c-0.9,0.1-1.8-0.1-2.6-0.2c-0.8-0.1-1.6-0.3-2.4-0.5c-1.4-0.4-2.7-1-4-1.8
	c-1-0.6-2-1.3-2.9-2c-0.7-0.6-1.4-1.2-2.1-1.9l-0.2-0.2c-0.4,0.1-0.8,0-1.2,0c-0.4-0.1-0.8-0.2-1.2-0.3c-0.4-0.1-0.8-0.3-1.1-0.5
	c-0.4-0.2-0.7-0.4-1-0.7c-0.6-0.5-1.1-1.2-1.5-1.9c-0.2-0.4-0.3-0.8-0.4-1.2c-0.1-0.4-0.2-0.8-0.2-1.2c0-0.3,0-0.6,0-0.9
	c0-0.2,0.1-0.3,0.1-0.5c0.1-0.2,0.2-0.3,0.3-0.4c0.8-0.6,1.6,0,2.1,0.7c0.5,0.7,0.8,1.3,1.5,1.5c0.2,0.1,0.4,0.1,0.6,0.1
	c0.2-0.1,0.4-0.1,0.6-0.3c0.1-0.1,0.1-0.1,0.2-0.1c0.1-0.1,0.2-0.2,0.3-0.2c0.1-0.1,0.2-0.1,0.3-0.1c0.1,0,0.2,0,0.3,0.1
	c0.1,0.1,0.2,0.1,0.3,0.2c0.1,0.1,0.1,0.1,0.2,0.2c0.2,0.3,0.3,0.6,0.4,0.9c0.2,0.6,0.3,1.3,0.4,2c1,0.3,2.2,0.8,3.5,1.3
	c1,0.3,1.9,0.6,2.8,0.8c1,0.2,2,0.4,3.1,0.4c0.5,0,1.1,0,1.6-0.1c0.5-0.1,1-0.2,1.5-0.3c0.5-0.1,0.9-0.3,1.3-0.5
	c0.4-0.2,0.8-0.4,1.2-0.7c0.3-0.3,0.6-0.6,1-0.9c0.3-0.3,0.6-0.7,0.8-1.1c0.5-0.8,0.9-1.6,1.2-2.5c0.3-0.9,0.5-1.7,0.7-2.6
	c0.1-0.6,0.2-1.3,0.3-2c1.1,0.8,2.4,1.4,3.7,1.8C412.9,278.7,414.3,278.9,415.7,278.9z"/>
<path class="st52" d="M405.8,246.8c0.2-0.6,0.5-1.2,0.9-1.7c0.4-0.5,1-0.9,1.5-1.1c1.2-0.5,2.5-0.6,3.7-0.3c0.6,0.2,1.2,0.4,1.8,0.7
	c0.5,0.3,1.1,0.8,1.5,1.2c0.4,0.5,0.8,1,1,1.7c0.3,0.6,0.4,1.2,0.4,1.9c0.1,2.1-1.1,4-2.2,5.7C412.3,251.6,409.3,248.8,405.8,246.8z
	"/>
<path class="st51" d="M404.5,244.5c-0.5-0.4-1.2-0.6-1.9-0.5c-0.2,0.1-0.4,0.2-0.6,0.3c-0.2,0.1-0.4,0.3-0.5,0.5
	c-0.2,0.2-0.2,0.4-0.3,0.6c-0.1,0.2-0.1,0.5-0.1,0.7c0.1,0.5,0.2,0.9,0.4,1.3c0.2,0.4,0.5,0.8,0.9,1.1c0.3,0.3,0.5,0.5,0.9,0.7
	c0.3,0.2,0.6,0.4,1,0.6c0.6,0.3,1.4,0.6,2.1,0.8c0.4,0.1,0.8,0.1,1.1,0.1c0.8,0.1,1.5-0.1,2.3-0.2c0.4-0.1,0.7-0.2,1.1-0.4
	c0.4-0.2,1.3-0.5,1.5-0.8c0.3-0.6-0.3-0.6-0.8-1C409.2,247,406.8,245.7,404.5,244.5z"/>
<path class="st27" d="M405.1,251.7c0.2-0.1,0.3-0.1,0.5,0c0.2,0.1,0.3,0.1,0.4,0.2c0.1,0.1,0.2,0.3,0.2,0.4c0.1,0.2,0,0.3-0.1,0.5
	c-0.2,1.2-0.6,2.4-1.3,3.4c-0.2-0.3-0.4-0.6-0.6-1c-0.3-0.7-0.4-1.5-0.3-2.2c0.1-0.4,0.1-0.8,0.3-1.1
	C404.4,252.1,404.7,251.7,405.1,251.7z M410.8,257.1c-0.2-1.3-0.1-2.7,0.2-4c0.3-1.4,0.9-2.8,1.7-4.1c0.6,0.6,1.2,1.2,1.6,2
	c0.3,0.9,0.5,1.7,0.6,2.6c0.1,0.4,0.1,0.9,0,1.3c-0.1,0.4-0.1,0.9-0.2,1.3c-0.1,0.4-0.2,0.9-0.4,1.3c-0.2,0.4-0.4,0.9-0.6,1.2
	c-0.2,0.4-0.5,0.8-0.8,1.1c-0.3,0.4-0.6,0.7-1,1C411.4,259.7,410.9,258.4,410.8,257.1z"/>
<path class="st48" d="M405.1,251.4c0.3,1.6-0.4,3.3-1.1,4.8c-0.6,1.6-1.2,3.3-0.6,4.8c0.2,0.4,0.4,0.8,0.7,1.1
	c0.3,0.3,0.6,0.6,1,0.8c0.4,0.2,0.8,0.3,1.2,0.4c0.4,0.1,0.9,0.1,1.3,0c0.9-0.2,1.7-0.5,2.4-1c0.7-0.5,1.2-1.2,1.7-2
	c0.4-0.8,0.6-1.6,0.8-2.5c0.2-0.9,0.2-1.7,0.1-2.6c-0.2-1.7-0.5-3.4-1.1-5C409.4,249.1,406.9,249.9,405.1,251.4z"/>
<path class="st48" d="M412.1,255.8c0.2-0.2,0.4-0.4,0.7-0.6c0.1-0.1,0.3-0.1,0.4-0.2c0.2,0,0.3,0,0.4,0.1c0.2,0.1,0.4,0.2,0.5,0.3
	c0.1,0.2,0.2,0.3,0.3,0.5c0.1,0.2,0.1,0.4,0.1,0.5c0,0.2,0,0.4-0.1,0.5c-0.1,0.2-0.2,0.4-0.2,0.5c-0.1,0.2-0.2,0.3-0.4,0.4
	c-0.2,0.1-0.3,0.2-0.5,0.3c-0.2,0.1-0.4,0.1-0.5,0.2c-0.2,0-0.4,0-0.6-0.1c-0.2-0.1-0.4-0.1-0.5-0.2
	C411.9,257.4,412,256.6,412.1,255.8z"/>
<path class="st27" d="M403.9,252.6c2.5,0.1,4.9-0.5,7-1.8c-0.2,0.7-0.2,1.5,0,2.2c0.2,0.5,0.4,1,0.7,1.4c0.3,0.4,0.7,0.9,1.1,1.2
	c1-1.4,1.5-3.1,1.2-4.8c0-0.2-0.1-0.4-0.1-0.6c-0.3-0.5-0.7-0.9-1.1-1.3c-0.6-0.6-1.5-1.1-2.3-1.4c-0.5-0.2-1.1-0.3-1.7-0.4
	c-1.2-0.2-2.4-0.1-3.5,0.3c-0.5,0.2-1.1,0.4-1.6,0.8c-0.2,0.2-0.3,0.3-0.5,0.5c-0.4,0.4-0.7,0.9-0.9,1.4c-0.1,0.1-0.1,0.2-0.1,0.4
	c0,0.1-0.1,0.3,0,0.4c0,0.1,0,0.3,0.1,0.4c0.1,0.1,0.1,0.2,0.1,0.3c0.1,0.1,0.1,0.2,0.2,0.3c0.1,0.1,0.2,0.2,0.3,0.3
	c0.1,0.1,0.2,0.2,0.3,0.2c0.1,0.1,0.2,0.1,0.3,0.2C403.5,252.6,403.7,252.6,403.9,252.6z"/>
</svg>
