<svg version="1.1" xmlns="http://www.w3.org/2000/svg" xmlns:xlink="http://www.w3.org/1999/xlink" width="630" height="390" viewBox="0 0 630 390">
<style type="text/css">
	.st0{fill:#EAF1FC;}
	.st1{fill:#F8F8FF;}
	.st2{fill:#CDE4F7;}
	.st3{fill:#E9EDF4;}
	.st4{fill:#FFFFFF;}
	.st5{fill:#ECF7FE;}
	.st6{fill:#0F222C;}
	.st7{fill:#0B2B46;}
	.st8{fill:#1D4259;}
	.st9{fill:#8C8FAD;}
	.st10{fill:#448DCE;}
	.st11{fill:#F2F2F2;}
	.st12{fill:#F19100;}
	.st13{fill:#FFDA35;}
	.st14{fill:#FF524F;}
	.st15{fill:#1B313C;}
	.st16{fill:#2C6292;}
	.st17{fill:#3270A7;}
	.st18{fill:#1A568C;}
	.st19{fill:#114574;}
	.st20{fill:#164F83;}
	.st21{fill:#C07632;}
	.st22{fill:#0C3860;}
	.st23{fill:#11426D;}
	.st24{fill:#25649D;}
	.st25{fill:#3873A9;}
	.st26{fill:#164C7C;}
	.st27{fill:#3679B6;}
	.st28{fill:#2A6EAC;}
	.st29{fill:#23619A;}
	.st30{fill:#F9F8F9;}
	.st31{fill:#191F43;}
	.st32{fill:#2275BF;}
	.st33{fill:#203348;}
	.st34{opacity:0.62;fill:none;stroke:#FFFFFF;stroke-linecap:round;stroke-miterlimit:10;enable-background:new    ;}
	.st35{fill:#E08F73;}
	.st36{fill:#F09976;}
	.st37{fill:#E8815F;}
	.st38{fill:#047487;}
	.st39{fill:#05616B;}
	.st40{fill:#02819F;}
	.st41{fill:#F8C47A;}
	.st42{fill:#E19A54;}
	.st43{fill:#FFDF9A;}
	.st44{fill:#E4E6E6;}
	.st45{fill:#CE8D4D;}
</style>
<path class="st0" d="M315,374.3c172.9,0,313-20.9,313-46.6S487.9,281,315,281S2,301.9,2,327.6S142.1,374.3,315,374.3z"/>
<path class="st1" d="M575.2,314.6c40.5-78,62.8-227.2-24.9-276.7C492.9,5.5,433.1,47.1,371.7,49c-48.2,1.6-94.6-33.7-138-43.7
	C119.8-21.2-59.3,47.5,19.4,314.6C216.4,314.1,378.2,315.2,575.2,314.6z"/>
<path class="st2" d="M379,104.6h118.8v209.5H379V104.6z"/>
<path class="st3" d="M379,104.6h37v209.5h-37V104.6z"/>
<path class="st4" d="M483.5,110.5h5.5v6.3h-5.5V110.5z M473.4,110.5h5.5v6.3h-5.5V110.5z M463.3,110.5h5.5v6.3h-5.5V110.5z
	 M453.3,110.5h5.5v6.3h-5.5V110.5z M443.2,110.5h5.5v6.3h-5.5V110.5z M433.1,110.5h5.5v6.3h-5.5V110.5z M423,110.5h5.5v6.3H423
	V110.5z M404.5,110.5h5.5v6.3h-5.5V110.5z M394.5,110.5h5.5v6.3h-5.5V110.5z M384.4,110.5h5.5v6.3h-5.5V110.5z M483.5,123.7h5.5v6.3
	h-5.5V123.7z M473.4,123.7h5.5v6.3h-5.5V123.7z M463.3,123.7h5.5v6.3h-5.5V123.7z M453.3,123.7h5.5v6.3h-5.5V123.7z M443.2,123.7
	h5.5v6.3h-5.5V123.7z M433.1,123.7h5.5v6.3h-5.5V123.7z M423,123.7h5.5v6.3H423V123.7z M404.5,123.7h5.5v6.3h-5.5V123.7z
	 M394.5,123.7h5.5v6.3h-5.5V123.7z M384.4,123.7h5.5v6.3h-5.5V123.7z M483.5,136.8h5.5v6.3h-5.5V136.8z M473.4,136.8h5.5v6.3h-5.5
	V136.8z M463.3,136.8h5.5v6.3h-5.5V136.8z M453.3,136.8h5.5v6.3h-5.5V136.8z M443.2,136.8h5.5v6.3h-5.5V136.8z M433.1,136.8h5.5v6.3
	h-5.5V136.8z M423,136.8h5.5v6.3H423V136.8z M404.5,136.8h5.5v6.3h-5.5V136.8z M394.5,136.8h5.5v6.3h-5.5V136.8z M384.4,136.8h5.5
	v6.3h-5.5V136.8z M483.5,149.9h5.5v6.3h-5.5V149.9z M473.4,149.9h5.5v6.3h-5.5V149.9z M463.3,149.9h5.5v6.3h-5.5V149.9z
	 M453.3,149.9h5.5v6.3h-5.5V149.9z M443.2,149.9h5.5v6.3h-5.5V149.9z M433.1,149.9h5.5v6.3h-5.5V149.9z M423,149.9h5.5v6.3H423
	V149.9z M404.5,149.9h5.5v6.3h-5.5V149.9z M394.5,149.9h5.5v6.3h-5.5V149.9z M384.4,149.9h5.5v6.3h-5.5V149.9z M483.5,163.1h5.5v6.3
	h-5.5V163.1z M473.4,163.1h5.5v6.3h-5.5V163.1z M463.3,163.1h5.5v6.3h-5.5V163.1z M453.3,163.1h5.5v6.3h-5.5V163.1z M443.2,163.1
	h5.5v6.3h-5.5V163.1z M433.1,163.1h5.5v6.3h-5.5V163.1z M423,163.1h5.5v6.3H423V163.1z M404.5,163.1h5.5v6.3h-5.5V163.1z
	 M394.5,163.1h5.5v6.3h-5.5V163.1z M384.4,163.1h5.5v6.3h-5.5V163.1z M483.5,176.2h5.5v6.3h-5.5V176.2z M473.4,176.2h5.5v6.3h-5.5
	V176.2z M463.3,176.2h5.5v6.3h-5.5V176.2z M453.3,176.2h5.5v6.3h-5.5V176.2z M443.2,176.2h5.5v6.3h-5.5V176.2z M433.1,176.2h5.5v6.3
	h-5.5V176.2z M423,176.2h5.5v6.3H423V176.2z M404.5,176.2h5.5v6.3h-5.5V176.2z M394.5,176.2h5.5v6.3h-5.5V176.2z M384.4,176.2h5.5
	v6.3h-5.5V176.2z M483.5,189.4h5.5v6.3h-5.5V189.4z M473.4,189.4h5.5v6.3h-5.5V189.4z M463.3,189.4h5.5v6.3h-5.5V189.4z
	 M453.3,189.4h5.5v6.3h-5.5V189.4z M443.2,189.4h5.5v6.3h-5.5V189.4z M433.1,189.4h5.5v6.3h-5.5V189.4z M423,189.4h5.5v6.3H423
	V189.4z M404.5,189.4h5.5v6.3h-5.5V189.4z M394.5,189.4h5.5v6.3h-5.5V189.4z M384.4,189.4h5.5v6.3h-5.5V189.4z M483.5,202.5h5.5v6.3
	h-5.5V202.5z M473.4,202.5h5.5v6.3h-5.5V202.5z M463.3,202.5h5.5v6.3h-5.5V202.5z M453.3,202.5h5.5v6.3h-5.5V202.5z M443.2,202.5
	h5.5v6.3h-5.5V202.5z M433.1,202.5h5.5v6.3h-5.5V202.5z M423,202.5h5.5v6.3H423V202.5z M404.5,202.5h5.5v6.3h-5.5V202.5z
	 M394.5,202.5h5.5v6.3h-5.5V202.5z M384.4,202.5h5.5v6.3h-5.5V202.5z M483.5,215.6h5.5v6.3h-5.5V215.6z M473.4,215.6h5.5v6.3h-5.5
	V215.6z M463.3,215.6h5.5v6.3h-5.5V215.6z M453.3,215.6h5.5v6.3h-5.5V215.6z M443.2,215.6h5.5v6.3h-5.5V215.6z M433.1,215.6h5.5v6.3
	h-5.5V215.6z M423,215.6h5.5v6.3H423V215.6z M404.5,215.6h5.5v6.3h-5.5V215.6z M394.5,215.6h5.5v6.3h-5.5V215.6z M384.4,215.6h5.5
	v6.3h-5.5V215.6z M483.5,228.8h5.5v6.3h-5.5V228.8z M473.4,228.8h5.5v6.3h-5.5V228.8z M463.3,228.8h5.5v6.3h-5.5V228.8z
	 M453.3,228.8h5.5v6.3h-5.5V228.8z M443.2,228.8h5.5v6.3h-5.5V228.8z M433.1,228.8h5.5v6.3h-5.5V228.8z M423,228.8h5.5v6.3H423
	V228.8z M404.5,228.8h5.5v6.3h-5.5V228.8z M384.4,228.8h5.5v6.3h-5.5V228.8z M483.5,241.9h5.5v6.3h-5.5V241.9z M473.4,241.9h5.5v6.3
	h-5.5V241.9z M463.3,241.9h5.5v6.3h-5.5V241.9z M453.3,241.9h5.5v6.3h-5.5V241.9z M443.2,241.9h5.5v6.3h-5.5V241.9z M433.1,241.9
	h5.5v6.3h-5.5V241.9z M423,241.9h5.5v6.3H423V241.9z M404.5,241.9h5.5v6.3h-5.5V241.9z M384.4,241.9h5.5v6.3h-5.5V241.9z
	 M483.5,255.1h5.5v6.3h-5.5V255.1z M473.4,255.1h5.5v6.3h-5.5V255.1z M463.3,255.1h5.5v6.3h-5.5V255.1z M453.3,255.1h5.5v6.3h-5.5
	V255.1z M443.2,255.1h5.5v6.3h-5.5V255.1z M433.1,255.1h5.5v6.3h-5.5V255.1z M423,255.1h5.5v6.3H423V255.1z M404.5,255.1h5.5v6.3
	h-5.5V255.1z M384.4,255.1h5.5v6.3h-5.5V255.1z M483.5,268.2h5.5v6.3h-5.5V268.2z M473.4,268.2h5.5v6.3h-5.5V268.2z M463.3,268.2
	h5.5v6.3h-5.5V268.2z M453.3,268.2h5.5v6.3h-5.5V268.2z M443.2,268.2h5.5v6.3h-5.5V268.2z M433.1,268.2h5.5v6.3h-5.5V268.2z
	 M423,268.2h5.5v6.3H423V268.2z M404.5,268.2h5.5v6.3h-5.5V268.2z M384.4,268.2h5.5v6.3h-5.5V268.2z M483.5,281.4h5.5v6.3h-5.5
	V281.4z M473.4,281.4h5.5v6.3h-5.5V281.4z M463.3,281.4h5.5v6.3h-5.5V281.4z M453.3,281.4h5.5v6.3h-5.5V281.4z M443.2,281.4h5.5v6.3
	h-5.5V281.4z M433.1,281.4h5.5v6.3h-5.5V281.4z M423,281.4h5.5v6.3H423V281.4z M404.5,281.4h5.5v6.3h-5.5V281.4z M384.4,281.4h5.5
	v6.3h-5.5V281.4z M483.5,294.5h5.5v6.3h-5.5V294.5z M473.4,294.5h5.5v6.3h-5.5V294.5z M463.3,294.5h5.5v6.3h-5.5V294.5z
	 M453.3,294.5h5.5v6.3h-5.5V294.5z M443.2,294.5h5.5v6.3h-5.5V294.5z M433.1,294.5h5.5v6.3h-5.5V294.5z M423,294.5h5.5v6.3H423
	V294.5z M404.5,294.5h5.5v6.3h-5.5V294.5z M394.7,228.8h5.5v6.3h-5.5V228.8z M394.7,241.9h5.5v6.3h-5.5V241.9z M394.7,255.1h5.5v6.3
	h-5.5V255.1z M394.7,268.2h5.5v6.3h-5.5V268.2z M394.7,281.4h5.5v6.3h-5.5V281.4z M394.7,294.5h5.5v6.3h-5.5V294.5z M384.4,294.5
	h5.5v6.3h-5.5V294.5z"/>
<path class="st2" d="M285.8,54h109.7v260.4H285.8V54z"/>
<path class="st3" d="M285.8,54H320v260.4h-34.2V54z"/>
<path class="st4" d="M383.3,60.3h5.1v44.5h-5.1V60.3z M374,60.3h5.1v44.5H374V60.3z M364.7,60.3h5.1v44.5h-5.1V60.3z M355.4,60.3
	h5.1v44.5h-5.1V60.3z M346.1,60.3h5.1v44.5h-5.1V60.3z M336.8,60.3h5.1v44.5h-5.1V60.3z M327.5,60.3h5.1v44.5h-5.1V60.3z
	 M310.4,60.3h5.1v44.5h-5.1V60.3z M301.1,60.3h5.1v44.5h-5.1V60.3z M291.8,60.3h5.1v44.5h-5.1V60.3z M383.3,110.6h5.1v44.5h-5.1
	V110.6z M374,110.6h5.1v44.5H374V110.6z M364.7,110.6h5.1v44.5h-5.1V110.6z M355.4,110.6h5.1v44.5h-5.1V110.6z M346.1,110.6h5.1
	v44.5h-5.1V110.6z M336.8,110.6h5.1v44.5h-5.1V110.6z M327.5,110.6h5.1v44.5h-5.1V110.6z M310.4,110.6h5.1v44.5h-5.1V110.6z
	 M301.1,110.6h5.1v44.5h-5.1V110.6z M291.8,110.6h5.1v44.5h-5.1V110.6z M383.3,160.9h5.1v44.5h-5.1V160.9z M374,160.9h5.1v44.5H374
	V160.9z M364.7,160.9h5.1v44.5h-5.1V160.9z M355.4,160.9h5.1v44.5h-5.1V160.9z M346.1,160.9h5.1v44.5h-5.1V160.9z M336.8,160.9h5.1
	v44.5h-5.1V160.9z M327.5,160.9h5.1v44.5h-5.1V160.9z M310.4,160.9h5.1v44.5h-5.1V160.9z M301.1,160.9h5.1v44.5h-5.1V160.9z
	 M291.8,160.9h5.1v44.5h-5.1V160.9z M383.3,211.2h5.1v44.5h-5.1V211.2z M374,211.2h5.1v44.5H374V211.2z M364.7,211.2h5.1v44.5h-5.1
	V211.2z M355.4,211.2h5.1v44.5h-5.1V211.2z M346.1,211.2h5.1v44.5h-5.1V211.2z M336.8,211.2h5.1v44.5h-5.1V211.2z M327.5,211.2h5.1
	v44.5h-5.1V211.2z M310.4,211.2h5.1v44.5h-5.1V211.2z M301.1,211.2h5.1v44.5h-5.1V211.2z M291.8,211.2h5.1v44.5h-5.1V211.2z
	 M383.3,261.5h5.1V306h-5.1V261.5z M374,261.5h5.1V306H374V261.5z M364.7,261.5h5.1V306h-5.1V261.5z M355.4,261.5h5.1V306h-5.1
	V261.5z M346.1,261.5h5.1V306h-5.1V261.5z M336.8,261.5h5.1V306h-5.1V261.5z M327.5,261.5h5.1V306h-5.1V261.5z M310.4,261.5h5.1V306
	h-5.1V261.5z M301.1,261.5h5.1V306h-5.1V261.5z M291.8,261.5h5.1V306h-5.1V261.5z"/>
<path class="st2" d="M27.7,79.6H138v234.5H27.7V79.6z"/>
<path class="st3" d="M27.7,79.6h34.4v234.5H27.7V79.6z"/>
<path class="st4" d="M125.9,90.8h5.1v25.9h-5.1V90.8z M116.6,90.8h5.1v25.9h-5.1V90.8z M107.3,90.8h5.1v25.9h-5.1V90.8z M98,90.8
	h5.1v25.9H98V90.8z M88.8,90.8h5.1v25.9h-5.1V90.8z M79.5,90.8h5.1v25.9h-5.1V90.8z M70.3,90.8h5.1v25.9h-5.1V90.8z M53.3,90.8h5.1
	v25.9h-5.1V90.8z M44,90.8h5.1v25.9H44V90.8z M34.8,90.8h5.1v25.9h-5.1V90.8z M125.9,120h5.1V146h-5.1V120z M116.6,120h5.1V146h-5.1
	V120z M107.3,120h5.1V146h-5.1V120z M98,120h5.1V146H98V120z M88.8,120h5.1V146h-5.1V120z M79.5,120h5.1V146h-5.1V120z M70.3,120
	h5.1V146h-5.1V120z M53.3,120h5.1V146h-5.1V120z M44,120h5.1V146H44V120z M34.8,120h5.1V146h-5.1V120z M125.9,149.3h5.1v25.9h-5.1
	V149.3z M116.6,149.3h5.1v25.9h-5.1V149.3z M107.3,149.3h5.1v25.9h-5.1V149.3z M98,149.3h5.1v25.9H98V149.3z M88.8,149.3h5.1v25.9
	h-5.1V149.3z M79.5,149.3h5.1v25.9h-5.1V149.3z M70.3,149.3h5.1v25.9h-5.1V149.3z M53.3,149.3h5.1v25.9h-5.1V149.3z M44,149.3h5.1
	v25.9H44V149.3z M34.8,149.3h5.1v25.9h-5.1V149.3z M116.6,178.6h5.1v25.9h-5.1V178.6z M107.3,178.6h5.1v25.9h-5.1V178.6z M98,178.6
	h5.1v25.9H98V178.6z M88.8,178.6h5.1v25.9h-5.1V178.6z M79.5,178.6h5.1v25.9h-5.1V178.6z M70.3,178.6h5.1v25.9h-5.1V178.6z
	 M53.3,178.6h5.1v25.9h-5.1V178.6z M44,178.6h5.1v25.9H44V178.6z M34.8,178.6h5.1v25.9h-5.1V178.6z M116.6,207.9h5.1v25.9h-5.1
	V207.9z M107.3,207.9h5.1v25.9h-5.1V207.9z M98,207.9h5.1v25.9H98V207.9z M88.8,207.9h5.1v25.9h-5.1V207.9z M79.5,207.9h5.1v25.9
	h-5.1V207.9z M70.3,207.9h5.1v25.9h-5.1V207.9z M53.3,207.9h5.1v25.9h-5.1V207.9z M44,207.9h5.1v25.9H44V207.9z M34.8,207.9h5.1
	v25.9h-5.1V207.9z M116.6,237.2h5.1v25.9h-5.1V237.2z M107.3,237.2h5.1v25.9h-5.1V237.2z M98,237.2h5.1v25.9H98V237.2z M88.8,237.2
	h5.1v25.9h-5.1V237.2z M79.5,237.2h5.1v25.9h-5.1V237.2z M70.3,237.2h5.1v25.9h-5.1V237.2z M53.3,237.2h5.1v25.9h-5.1V237.2z
	 M44,237.2h5.1v25.9H44V237.2z M34.8,237.2h5.1v25.9h-5.1V237.2z M116.6,266.4h5.1v25.9h-5.1V266.4z M107.3,266.4h5.1v25.9h-5.1
	V266.4z M98,266.4h5.1v25.9H98V266.4z M88.8,266.4h5.1v25.9h-5.1V266.4z M79.5,266.4h5.1v25.9h-5.1V266.4z M70.3,266.4h5.1v25.9
	h-5.1V266.4z M53.3,266.4h5.1v25.9h-5.1V266.4z M44,266.4h5.1v25.9H44V266.4z M34.8,266.4h5.1v25.9h-5.1V266.4z"/>
<path class="st2" d="M230.8,99h76.5v215h-76.5V99z"/>
<path class="st5" d="M230.8,99h23.8v215h-23.8V99z"/>
<path class="st4" d="M230.8,110.8h76.5v1.8h-76.5V110.8z M230.8,125h76.5v1.8h-76.5V125z M230.8,139.2h76.5v1.8h-76.5V139.2z
	 M230.8,153.4h76.5v1.8h-76.5V153.4z M230.8,167.6h76.5v1.8h-76.5V167.6z M230.8,181.8h76.5v1.8h-76.5V181.8z M230.8,196h76.5v1.8
	h-76.5V196z M230.8,210.2h76.5v1.8h-76.5V210.2z M230.8,224.3h76.5v1.8h-76.5V224.3z M230.8,238.6h76.5v1.8h-76.5V238.6z
	 M230.8,252.7h76.5v1.8h-76.5V252.7z M230.8,267h76.5v1.8h-76.5V267z M230.8,281.1h76.5v1.8h-76.5V281.1z M230.8,295.4h76.5v1.8
	h-76.5V295.4z"/>
<path class="st2" d="M493,141.8h120.1v172.3H493V141.8z"/>
<path class="st3" d="M496.9,141.8h37.4v172.3h-37.4V141.8z"/>
<path class="st4" d="M493,151.3h120.1v1.5H493V151.3z M493,162.6h120.1v1.5H493V162.6z M493,174h120.1v1.5H493V174z M493,185.3
	h120.1v1.5H493V185.3z M493,196.7h120.1v1.5H493V196.7z M493,208.1h120.1v1.5H493V208.1z M493,219.5h120.1v1.5H493V219.5z
	 M493,230.9h120.1v1.5H493V230.9z M493,242.2h120.1v1.5H493V242.2z M493,253.6h120.1v1.5H493V253.6z M493,264.9h120.1v1.5H493V264.9
	z M493,276.3h120.1v1.5H493V276.3z M493,287.7h120.1v1.5H493V287.7z M493,299.1h120.1v1.5H493V299.1z"/>
<path class="st2" d="M106.1,16h140.2v298.1H106.1V16z"/>
<path class="st5" d="M106.1,16h43.7v298.1h-43.7V16z"/>
<path class="st4" d="M230.8,30.1h6.4v8.6h-6.4V30.1z M219,30.1h6.4v8.6H219V30.1z M207.3,30.1h6.4v8.6h-6.4V30.1z M195.5,30.1h6.4
	v8.6h-6.4V30.1z M183.7,30.1h6.4v8.6h-6.4V30.1z M172,30.1h6.4v8.6H172V30.1z M160.2,30.1h6.4v8.6h-6.4V30.1z M138.6,30.1h6.4v8.6
	h-6.4V30.1z M126.8,30.1h6.4v8.6h-6.4V30.1z M115,30.1h6.4v8.6H115V30.1z M230.8,48.1h6.4v8.6h-6.4V48.1z M219,48.1h6.4v8.6H219
	V48.1z M207.3,48.1h6.4v8.6h-6.4V48.1z M195.5,48.1h6.4v8.6h-6.4V48.1z M183.7,48.1h6.4v8.6h-6.4V48.1z M172,48.1h6.4v8.6H172V48.1z
	 M160.2,48.1h6.4v8.6h-6.4V48.1z M138.6,48.1h6.4v8.6h-6.4V48.1z M126.8,48.1h6.4v8.6h-6.4V48.1z M115,48.1h6.4v8.6H115V48.1z
	 M230.8,66.1h6.4v8.6h-6.4V66.1z M219,66.1h6.4v8.6H219V66.1z M207.3,66.1h6.4v8.6h-6.4V66.1z M195.5,66.1h6.4v8.6h-6.4V66.1z
	 M183.7,66.1h6.4v8.6h-6.4V66.1z M172,66.1h6.4v8.6H172V66.1z M160.2,66.1h6.4v8.6h-6.4V66.1z M138.6,66.1h6.4v8.6h-6.4V66.1z
	 M126.8,66.1h6.4v8.6h-6.4V66.1z M115,66.1h6.4v8.6H115V66.1z M230.8,84.1h6.4v8.6h-6.4V84.1z M219,84.1h6.4v8.6H219V84.1z
	 M207.3,84.1h6.4v8.6h-6.4V84.1z M195.5,84.1h6.4v8.6h-6.4V84.1z M183.7,84.1h6.4v8.6h-6.4V84.1z M172,84.1h6.4v8.6H172V84.1z
	 M160.2,84.1h6.4v8.6h-6.4V84.1z M138.6,84.1h6.4v8.6h-6.4V84.1z M126.8,84.1h6.4v8.6h-6.4V84.1z M115,84.1h6.4v8.6H115V84.1z
	 M230.8,102h6.4v8.6h-6.4V102z M219,102h6.4v8.6H219V102z M207.3,102h6.4v8.6h-6.4V102z M195.5,102h6.4v8.6h-6.4V102z M183.7,102
	h6.4v8.6h-6.4V102z M172,102h6.4v8.6H172V102z M160.2,102h6.4v8.6h-6.4V102z M138.6,102h6.4v8.6h-6.4V102z M126.8,102h6.4v8.6h-6.4
	V102z M115,102h6.4v8.6H115V102z M230.8,120h6.4v8.6h-6.4V120z M219,120h6.4v8.6H219V120z M207.3,120h6.4v8.6h-6.4V120z M195.5,120
	h6.4v8.6h-6.4V120z M183.7,120h6.4v8.6h-6.4V120z M172,120h6.4v8.6H172V120z M160.2,120h6.4v8.6h-6.4V120z M138.6,120h6.4v8.6h-6.4
	V120z M126.8,120h6.4v8.6h-6.4V120z M115,120h6.4v8.6H115V120z M230.8,138h6.4v8.6h-6.4V138z M219,138h6.4v8.6H219V138z M207.3,138
	h6.4v8.6h-6.4V138z M195.5,138h6.4v8.6h-6.4V138z M183.7,138h6.4v8.6h-6.4V138z M172,138h6.4v8.6H172V138z M160.2,138h6.4v8.6h-6.4
	V138z M138.6,138h6.4v8.6h-6.4V138z M126.8,138h6.4v8.6h-6.4V138z M115,138h6.4v8.6H115V138z M230.8,156h6.4v8.6h-6.4V156z M219,156
	h6.4v8.6H219V156z M207.3,156h6.4v8.6h-6.4V156z M195.5,156h6.4v8.6h-6.4V156z M183.7,156h6.4v8.6h-6.4V156z M172,156h6.4v8.6H172
	V156z M160.2,156h6.4v8.6h-6.4V156z M138.6,156h6.4v8.6h-6.4V156z M126.8,156h6.4v8.6h-6.4V156z M115,156h6.4v8.6H115V156z
	 M230.8,173.9h6.4v8.6h-6.4V173.9z M219,173.9h6.4v8.6H219V173.9z M207.3,173.9h6.4v8.6h-6.4V173.9z M195.5,173.9h6.4v8.6h-6.4
	V173.9z M183.7,173.9h6.4v8.6h-6.4V173.9z M172,173.9h6.4v8.6H172V173.9z M160.2,173.9h6.4v8.6h-6.4V173.9z M138.6,173.9h6.4v8.6
	h-6.4V173.9z M126.8,173.9h6.4v8.6h-6.4V173.9z M115,173.9h6.4v8.6H115V173.9z M230.8,191.9h6.4v8.6h-6.4V191.9z M219,191.9h6.4v8.6
	H219V191.9z M207.3,191.9h6.4v8.6h-6.4V191.9z M195.5,191.9h6.4v8.6h-6.4V191.9z M183.7,191.9h6.4v8.6h-6.4V191.9z M172,191.9h6.4
	v8.6H172V191.9z M160.2,191.9h6.4v8.6h-6.4V191.9z M138.6,191.9h6.4v8.6h-6.4V191.9z M115,191.9h6.4v8.6H115V191.9z M230.8,209.9
	h6.4v8.6h-6.4V209.9z M219,209.9h6.4v8.6H219V209.9z M207.3,209.9h6.4v8.6h-6.4V209.9z M195.5,209.9h6.4v8.6h-6.4V209.9z
	 M183.7,209.9h6.4v8.6h-6.4V209.9z M172,209.9h6.4v8.6H172V209.9z M160.2,209.9h6.4v8.6h-6.4V209.9z M138.6,209.9h6.4v8.6h-6.4
	V209.9z M115,209.9h6.4v8.6H115V209.9z M230.8,227.9h6.4v8.6h-6.4V227.9z M219,227.9h6.4v8.6H219V227.9z M207.3,227.9h6.4v8.6h-6.4
	V227.9z M195.5,227.9h6.4v8.6h-6.4V227.9z M183.7,227.9h6.4v8.6h-6.4V227.9z M172,227.9h6.4v8.6H172V227.9z M160.2,227.9h6.4v8.6
	h-6.4V227.9z M138.6,227.9h6.4v8.6h-6.4V227.9z M115,227.9h6.4v8.6H115V227.9z M230.8,245.8h6.4v8.6h-6.4V245.8z M219,245.8h6.4v8.6
	H219V245.8z M207.3,245.8h6.4v8.6h-6.4V245.8z M195.5,245.8h6.4v8.6h-6.4V245.8z M183.7,245.8h6.4v8.6h-6.4V245.8z M172,245.8h6.4
	v8.6H172V245.8z M160.2,245.8h6.4v8.6h-6.4V245.8z M138.6,245.8h6.4v8.6h-6.4V245.8z M115,245.8h6.4v8.6H115V245.8z M230.8,263.8
	h6.4v8.6h-6.4V263.8z M219,263.8h6.4v8.6H219V263.8z M207.3,263.8h6.4v8.6h-6.4V263.8z M195.5,263.8h6.4v8.6h-6.4V263.8z
	 M183.7,263.8h6.4v8.6h-6.4V263.8z M172,263.8h6.4v8.6H172V263.8z M160.2,263.8h6.4v8.6h-6.4V263.8z M138.6,263.8h6.4v8.6h-6.4
	V263.8z M115,263.8h6.4v8.6H115V263.8z M230.8,281.8h6.4v8.6h-6.4V281.8z M219,281.8h6.4v8.6H219V281.8z M207.3,281.8h6.4v8.6h-6.4
	V281.8z M195.5,281.8h6.4v8.6h-6.4V281.8z M183.7,281.8h6.4v8.6h-6.4V281.8z M172,281.8h6.4v8.6H172V281.8z M160.2,281.8h6.4v8.6
	h-6.4V281.8z M138.6,281.8h6.4v8.6h-6.4V281.8z M127.1,191.9h6.4v8.6h-6.4V191.9z M127.1,209.9h6.4v8.6h-6.4V209.9z M127.1,227.9
	h6.4v8.6h-6.4V227.9z M127.1,245.8h6.4v8.6h-6.4V245.8z M127.1,263.8h6.4v8.6h-6.4V263.8z M127.1,281.8h6.4v8.6h-6.4V281.8z
	 M115,281.8h6.4v8.6H115V281.8z"/>
<path class="st5" d="M212,16h-72V6.9c0-3.8,2.9-6.9,6.6-6.9h58.8c3.6,0,6.6,3.1,6.6,6.9V16L212,16z"/>
<path class="st0" d="M590.7,233.1c-3.4-0.6-5.7,2.9-6.4,6c-0.3,1.7-0.3,3.6-1.7,4.6c-0.6,0.4-1.2,0.8-1.9,1c-3.7,1.9-3.9,5.5-4,9.1
	c0.1,0.6-0.1,1.2-0.3,1.7c-0.3,0.6-1,0.9-1.4,1.5c-0.3,0.4-0.4,0.8-0.5,1.3c-0.9,4.1-0.5,7.8-0.4,11.9c0.2,29,16.1,27.6,16.1,27.6
	h0.6c3.8-0.2,7.3-2.5,9.6-5.5c2.3-3,3.7-6.9,4.4-10.5c0.6-2.8,0.8-5.5,1-8.4c0.2-3,0.8-5.8-0.3-8.8c-0.6-1.3-1.3-2.6-1.4-4.1
	c0-1.6,1-3,1-4.6c0-0.9-0.2-1.9-0.6-2.8c-0.8-2.2-1.7-4.4-2.8-6.4c-0.9-1.6-3-2.4-3.5-4.2c-0.1-0.8-0.2-1.5-0.1-2.3
	c-0.1-3.7-3.3-6.3-6.7-7.2H590.7z"/>
<path class="st4" d="M587.8,327.7h3.7l-1.2-46.5l-0.6-1.1L587.8,327.7z"/>
<path class="st6" d="M376.5,347.2l13.8-20.5l-13.8-20.5h10.5c7.6,0,13.8,9.2,13.8,20.5c0,11.3-6.2,20.5-13.8,20.5H376.5z"/>
<path class="st7" d="M376.5,306.2c7.6,0,13.8,9.2,13.8,20.5c0,11.3-6.2,20.5-13.8,20.5s-13.8-9.2-13.8-20.5
	C362.7,315.3,368.9,306.2,376.5,306.2z"/>
<path class="st6" d="M165.5,347.2l13.8-20.5l-13.8-20.5H176c7.6,0,13.8,9.2,13.8,20.5c0,11.3-6.2,20.5-13.8,20.5H165.5z"/>
<path class="st7" d="M165.5,306.2c7.6,0,13.8,9.2,13.8,20.5c0,11.3-6.2,20.5-13.8,20.5c-7.6,0-13.8-9.2-13.8-20.5
	C151.7,315.3,157.9,306.2,165.5,306.2z"/>
<path class="st8" d="M384.6,307.9H61.7c-2.3,0-4.3,2.2-4.3,4.8v10.5c0,2.6,1.9,4.9,4.3,4.9h322.9V307.9z"/>
<path class="st7" d="M490.4,309.8v-2l-106.8,1l-0.9,0.9c-3.8,0-6.9,2.5-6.9,5.4v7.4c0,3,3.1,5.3,6.9,5.4h107.8
	c3.8,0,6.9-2.5,6.9-5.4v-7.4C497.3,312.3,494.2,309.9,490.4,309.8z"/>
<path class="st9" d="M187.2,328h10.4c1.6,0,2.8-1,2.8-2.2v-14.6h-16v14.6C184.4,327,185.6,328,187.2,328z"/>
<path class="st9" d="M169.3,328h10.4c1.6,0,2.8-1,2.8-2.2v-14.6h-16v14.6C166.5,327,167.7,328,169.3,328z"/>
<path class="st10" d="M381,176l-230.8,6v129.2H381V176z"/>
<path class="st11" d="M381,275.1l-232.4,8.7l-0.5,27.5H381V275.1z"/>
<path class="st12" d="M150.3,285.5l229.1-7.4v-16l-229.1,14.2V285.5z"/>
<path class="st13" d="M400.7,319.5c0,1.5,1.2,2.5,2.7,2.5s2.7-1.2,2.7-2.5s-1.2-2.5-2.7-2.5C402,316.9,400.7,318.1,400.7,319.5
	C400.7,319.4,400.7,319.4,400.7,319.5z"/>
<path class="st14" d="M386,319c0,2.9,2.3,5,5,5s5-2.3,5-5c0-2.7-2.3-5-5-5C388.3,313.8,386,316.1,386,319
	C386,318.8,386,318.8,386,319z"/>
<path class="st14" d="M478,320c0,2.9,2.3,5,5,5s5-2.3,5-5c0-2.7-2.3-5-5-5C480.3,314.8,478,317.1,478,320
	C478,319.8,478,319.8,478,320z"/>
<path class="st13" d="M466,319.5c0,1.5,1.2,2.5,2.7,2.5s2.7-1.2,2.7-2.5s-1.2-2.5-2.7-2.5C467.2,316.9,466,318.1,466,319.5
	C466,319.4,466,319.4,466,319.5z"/>
<path class="st15" d="M338.1,328c0-22.1-14.4-31.1-27.4-31.1c-13.1,0-27.2,8.8-27.2,31.1"/>
<path class="st16" d="M493.7,311.2H378.4V176h115.3V311.2z"/>
<rect x="378.4" y="176" class="st17" width="115.3" height="5"/>
<path class="st18" d="M487.2,277.8h-33.3v33.7h33.3V277.8z"/>
<path class="st19" d="M437.3,272.2l16.7,5.7v33.6l-16.7-5.6V272.2z"/>
<path class="st20" d="M487.2,277.8l-16.6-5.7h-33.3l16.7,5.7H487.2L487.2,277.8z"/>
<path class="st21" d="M448.9,300.4v9.3l-5-1.6v-9.4L448.9,300.4z"/>
<path class="st22" d="M448.9,276.1v9.4l-5-1.6v-9.4L448.9,276.1z"/>
<path class="st23" d="M477.2,274.4l0.7,0.2l1,0.4l3.5,1.1h-33.5l-5-1.6H477.2L477.2,274.4z"/>
<path class="st24" d="M466.7,291.7H447v19.9h19.7V291.7z"/>
<path class="st18" d="M437.2,288.4l9.9,3.3v19.8l-9.9-3.3V288.4z"/>
<path class="st25" d="M466.7,291.7l-9.8-3.3h-19.7l9.9,3.3H466.7z"/>
<path class="st23" d="M444.1,304.9v5.5l-3-0.9v-5.6L444.1,304.9L444.1,304.9z M444.1,290.6v5.5l-3-1v-5.5L444.1,290.6L444.1,290.6z"
	/>
<path class="st26" d="M460.8,289.6l0.4,0.1l0.6,0.3l2.1,0.6h-19.7l-3-1H460.8z"/>
<path class="st27" d="M442.4,248.3h-42.8v63.2h42.8V248.3z"/>
<path class="st28" d="M378.2,247.4l21.4,0.8v63.2l-21.4,0.1V247.4z"/>
<path class="st29" d="M385.4,293v17.9H379V290L385.4,293z"/>
<path class="st6" d="M304.8,350.9l15.9-23.6l-15.9-23.6h12.1c8.8,0,15.9,10.6,15.9,23.6c0,13.1-7.1,23.6-15.9,23.6H304.8z"/>
<path class="st7" d="M304.8,303.7c8.8,0,15.9,10.6,15.9,23.6c0,13.1-7.1,23.6-15.9,23.6c-8.8,0-15.9-10.6-15.9-23.6
	C289,314.3,296.1,303.7,304.8,303.7z"/>
<path class="st30" d="M295.9,327.3c0,7.4,4,13.4,9,13.4c4.9,0,9-6,9-13.4c0-7.4-4-13.4-9-13.4C299.9,313.9,295.9,319.9,295.9,327.3z
	"/>
<path class="st17" d="M150.4,192.8l-2.7,0.5l-2.2,0.5L145,311.2h5.4V192.8z"/>
<path class="st17" d="M95.5,213.9l51.8,2.2c0.2,0,0.4-0.2,0.4-0.4v-6.3c0-0.2-0.2-0.4-0.4-0.4l-51,3.4L95.5,213.9z"/>
<path class="st10" d="M147.3,213.9l-89.1,10.2c0,0-14.2,57.3-14.2,60.7l0.3,21.1c0,0,4.5,16.9,8.2,16.9h83.1c6.7,0,12-4.8,12-10.8
	v-97.7C147.7,214.1,147.5,213.9,147.3,213.9z"/>
<path class="st13" d="M53.2,295.3c0-2.2-0.9-4.4-2.4-5.9c-1.5-1.6-4.7-2.5-6.8-2.5l0.3,16.8c2.2,0,5-0.8,6.5-2.4
	C52.4,299.6,53.2,297.5,53.2,295.3z"/>
<path class="st11" d="M83.9,305.9l18.2-17l45.7-4.3v21.1c0,0.2-0.2,0.4-0.4,0.4L83.9,305.9z"/>
<path class="st10" d="M58.3,225.3h89.4v-11.4H77.2c-8,0-15.4,3.8-19.6,10.2C57.2,224.6,57.7,225.3,58.3,225.3z"/>
<path class="st10" d="M147.7,213.2H96c0,0,7.7-15.9,51.7-20.4V213.2z"/>
<path class="st17" d="M57.6,226.4l90.1-0.4c0,0,0-0.2,0-0.4v-0.4H57.9L57.6,226.4z"/>
<path class="st8" d="M147.3,328.1h-36.9v-30.3h36.9c0.2,0,0.4,0.2,0.4,0.4v29.6C147.7,328,147.5,328.1,147.3,328.1z"/>
<path class="st10" d="M51.9,328.2h35.4l2.6-19.4H44.3V322C44.3,325.4,47.7,328.2,51.9,328.2z"/>
<path class="st8" d="M44.3,305.8h47v2.9h-47V305.8z"/>
<path class="st16" d="M54.4,318.7H77v8.5H54.4V318.7z"/>
<path class="st16" d="M54.4,308.7H77v8.5H54.4V308.7z"/>
<path class="st6" d="M54.4,325.3H77v1.9H54.4V325.3z"/>
<path class="st6" d="M54.4,315.3H77v1.9H54.4V315.3z"/>
<path class="st6" d="M57.2,228h55.3c6.6,0,6.6,0,6.6,4.2v21.4c0,2.5-1.8,4.7-4.3,5.3l-66.3,5.4"/>
<path class="st31" d="M61,273.6c-2.5,0-4.5-1.9-4.5-4.2v-11.9H61V273.6z"/>
<path class="st10" d="M61,249.6v7.8h-4.5v-3.6C56.5,251.5,58.5,249.6,61,249.6z"/>
<path class="st32" d="M56.5,257.4H61v9.2h-4.5V257.4z"/>
<path class="st31" d="M56.5,264.3c-1.6,0-2.8,1.2-2.8,2.7c0,1.5,1.3,2.7,2.8,2.7"/>
<path class="st17" d="M141.5,261.1l-62.7,5.1c-2.8,0.3-4.9,2.6-4.8,5.3c0.1,2.7,2.4,4.8,5.2,5l62.9,0.9"/>
<path class="st33" d="M106.6,269.8h5c1.7,0,3.1-1.3,3.1-2.9h-5C107.9,266.9,106.6,268.2,106.6,269.8z"/>
<path class="st12" d="M147.7,276.6c0,0-54.7-1.9-66.5,29.2h10.1c0,0,5.8-20.1,56.4-20.1"/>
<path class="st34" d="M121.8,263.2v20.4c0,4.4-3.8,7.9-8.4,7.9h-8.2c-2.3,0-9.8,0.3-12,2.4c-2.8,2.7-6.9,6.7-6.9,6.7
	c-1.6,1.5-3.8,2.4-6,2.4H60c-2.7,0-5-2.1-5-4.7v-20.2"/>
<path class="st15" d="M137.8,328.2c0-22.1-14.4-30.5-27.4-30.5c-13.1,0-27.4,8.2-27.4,30.5"/>
<path class="st6" d="M104.6,349.2l15.9-23.6L104.6,302h12.1c8.8,0,15.9,10.6,15.9,23.6c0,13.1-7.1,23.6-15.9,23.6H104.6z"/>
<path class="st7" d="M104.6,302c8.8,0,15.9,10.6,15.9,23.6c0,13.1-7.1,23.6-15.9,23.6c-8.8,0-15.9-10.6-15.9-23.6
	C88.7,312.6,95.8,302,104.6,302z"/>
<path class="st30" d="M95.6,325.6c0,7.4,4,13.4,9,13.4c4.9,0,9-6,9-13.4c0-7.4-4-13.4-9-13.4C99.6,312.2,95.6,318.2,95.6,325.6z"/>
<path class="st35" d="M489.2,276.7c0.3,0,0.6,0.4,0.9,1.3c0.2,0.4,0.4,0.9,0.6,1.5c0.3,0.6,0.5,1.2,0.8,1.9c0.3,0.7,0.7,1.4,1.1,2.1
	c0.2,0.3,0.5,0.7,0.8,1c0.3,0.3,0.6,0.6,0.9,0.9c0.3,0.3,0.6,0.5,1,0.8c0.3,0.2,0.7,0.4,1.1,0.6c0.4,0.2,0.7,0.3,1.1,0.3
	c0.1,0,0.2,0,0.3,0.1l0.3,0c0.2,0,0.4,0,0.6,0c0.8,0,1.7-0.1,2.4-0.4c0.4-0.1,0.8-0.3,1.2-0.4c0.2-0.1,0.4-0.2,0.6-0.2
	c0.2-0.1,0.4-0.2,0.6-0.3c0.4-0.2,0.7-0.4,1.1-0.6c0.3-0.2,0.7-0.4,1-0.6c0.6-0.4,1.3-0.9,1.9-1.3c0.5-0.4,1.1-0.8,1.7-1.1
	c0.5-0.3,0.9-0.6,1.5-0.8c0.4-0.2,0.8-0.3,1.2-0.4c0.3,0,0.6,0,0.9,0.2c0.3,0.2,0.4,0.5,0.5,0.8c0.1,0.4,0.1,0.9,0,1.3
	c-0.1,0.6-0.3,1.2-0.5,1.8c-0.3,0.7-0.7,1.5-1.2,2.1c-0.6,0.8-1.2,1.6-2,2.3c-0.4,0.4-0.9,0.8-1.3,1.1c-0.5,0.4-1,0.7-1.6,1
	c-0.3,0.2-0.6,0.3-0.9,0.4c-0.3,0.1-0.6,0.3-0.9,0.4c-0.7,0.3-1.3,0.5-2,0.6c-1.5,0.3-3.1,0.4-4.7,0.2c-0.4-0.1-0.8-0.2-1.2-0.3
	l-0.6-0.2c-0.2-0.1-0.4-0.1-0.6-0.2c-0.7-0.3-1.4-0.7-2.1-1.1c-0.6-0.4-1.2-0.9-1.7-1.5c-0.5-0.5-0.9-1-1.3-1.6
	c-0.3-0.5-0.6-1.1-0.9-1.7c-0.2-0.5-0.4-1.1-0.6-1.6c-0.3-0.9-0.4-1.9-0.5-2.9c-0.1-0.8-0.1-1.5-0.1-2.3c0-0.6,0.1-1.1,0.1-1.7
	C488.7,277.3,488.9,276.8,489.2,276.7L489.2,276.7z"/>
<path class="st4" d="M502.2,289.2c-0.3,4.8-0.3,9.6,0,14.4c4.6,1.5,9.4,1.9,14.2,1.2c0.3-4.9,0.6-9.7,0.6-14.6
	c0-2.6-0.1-5.2-0.8-7.6c-0.6-2.2-1.9-4.2-3.7-5.6c-0.2-0.2-0.4-0.3-0.6-0.4c-1.1,0.9-3.3,1.2-4.6,0.6c-0.7,0.4-1.3,1-1.8,1.6
	c-0.9,1.1-1.7,2.4-2.1,3.8C502.7,284.7,502.3,287,502.2,289.2L502.2,289.2z"/>
<path class="st36" d="M505.5,278.8c1.2,0.3,2.5,0.3,3.7,0c0.6-0.2,1.3-0.4,1.9-0.7c0.5-0.3,0.9-0.6,1.3-0.9l0-0.3v-0.1l-0.1-0.4
	c-0.2-1.4-0.4-2.7-0.6-4.1c-0.2-1.3-0.4-2.5-0.5-3.8c-1.4,0.7-2.8,1.5-4.1,2.5c0,0.9-0.1,1.7-0.1,2.6c-0.1,0.7-0.1,1.4-0.2,2.1
	c-0.1,0.4-0.1,0.8-0.2,1.2c-0.1,0.4-0.1,0.7-0.2,1.1C506,278.2,505.8,278.5,505.5,278.8L505.5,278.8z"/>
<path class="st37" d="M506.7,275.6c1.5-1.3,3.2-2.5,5-3.4c-0.2-1.3-0.3-2.5-0.5-3.8c-1.4,0.7-2.8,1.5-4.1,2.5c0,0.9-0.1,1.7-0.1,2.6
	C506.9,274.2,506.8,274.9,506.7,275.6z"/>
<path class="st7" d="M533.2,346.1c0,0,0,3.4-3,3.3l-0.6,12l8.3-14.3L533.2,346.1z"/>
<path class="st4" d="M531.8,354.7c0-0.1,0-0.1-0.1-0.2c-0.1,0-0.1-0.1-0.2-0.1c-0.7,0.1-1.3,0.2-1.9,0.5c-0.1,0-0.1,0.1-0.1,0.2
	c0,0.1,0,0.1,0,0.2c0,0,0,0.1,0.1,0.1c0,0,0.1,0,0.1,0c0.1,0,0.1,0,0.2,0c0.6-0.2,1.1-0.4,1.7-0.5c0.1,0,0.1,0,0.1-0.1
	c0,0,0.1-0.1,0.1-0.1C531.8,354.8,531.8,354.7,531.8,354.7L531.8,354.7z M531.9,353.2C531.9,353.1,531.9,353.1,531.9,353.2
	c0-0.1-0.1-0.2-0.1-0.2c0,0-0.1,0-0.1,0c0,0-0.1,0-0.1,0c-0.7,0.1-1.3,0.2-1.9,0.5c0,0-0.1,0-0.1,0.1c0,0,0,0.1-0.1,0.1
	c0,0.1,0,0.1,0,0.2c0,0,0,0.1,0.1,0.1s0.1,0,0.1,0c0,0,0.1,0,0.1,0c0,0,0.1,0,0.1,0c0.6-0.2,1.1-0.4,1.7-0.5c0,0,0.1,0,0.1-0.1
	c0,0,0.1-0.1,0.1-0.1C531.9,353.3,531.9,353.2,531.9,353.2L531.9,353.2z M532,351.6C532,351.6,532,351.6,532,351.6
	c0-0.1-0.1-0.2-0.1-0.2c-0.1,0-0.1-0.1-0.2,0c-0.7,0.1-1.3,0.2-1.9,0.5c-0.1,0-0.1,0.1-0.1,0.2c0,0.1,0,0.1,0,0.2
	c0,0.1,0.1,0.1,0.2,0.1c0.1,0,0.1,0,0.2,0c0.6-0.2,1.1-0.4,1.7-0.5c0,0,0.1,0,0.1-0.1c0,0,0.1-0.1,0.1-0.1
	C532,351.8,532,351.7,532,351.6L532,351.6z M531.1,361.8c0,0.1-0.1,0.1-0.1,0.1c0,0-0.1,0.1-0.2,0.1c-0.1,0-0.1,0-0.2,0
	c-0.1,0-0.1,0-0.2-0.1l-0.9-0.5l8.3-14.3l0.9,0.5c0,0,0.1,0.1,0.1,0.1c0,0,0.1,0.1,0.1,0.2c0,0.1,0,0.1,0,0.2c0,0.1,0,0.1-0.1,0.2
	L531.1,361.8z"/>
<path class="st7" d="M500,358.4c0,0-3,1.5-4.3-1.2l-10.9,5.1l16.5,0.7L500,358.4z"/>
<path class="st4" d="M491.5,361.1c0,0,0.1,0,0.1,0s0.1,0,0.1,0c0,0,0.1,0,0.1-0.1c0,0,0-0.1,0-0.1c0,0,0-0.1,0-0.1c0,0,0-0.1,0-0.1
	c-0.4-0.6-0.8-1.1-1.4-1.5c-0.1,0-0.1-0.1-0.2,0c-0.1,0-0.1,0-0.2,0.1c0,0,0,0.1,0,0.1c0,0,0,0.1,0,0.1c0,0,0,0.1,0,0.1
	c0,0,0,0.1,0.1,0.1c0.5,0.4,0.9,0.8,1.2,1.3C491.4,361.1,491.5,361.1,491.5,361.1L491.5,361.1z M492.9,360.5c0,0,0.1,0,0.1,0
	s0.1,0,0.1,0c0,0,0,0,0.1-0.1c0,0,0-0.1,0-0.1c0,0,0-0.1,0-0.1c0,0,0-0.1,0-0.1c-0.4-0.6-0.8-1-1.4-1.5c0,0-0.1,0-0.1,0
	c0,0-0.1,0-0.1,0c0,0-0.1,0-0.1,0c0,0-0.1,0-0.1,0.1c0,0.1,0,0.1,0,0.2c0,0.1,0.1,0.1,0.1,0.2c0.5,0.4,0.9,0.8,1.2,1.3
	C492.8,360.5,492.8,360.5,492.9,360.5L492.9,360.5z M494.3,359.9c0.1,0,0.1,0,0.2,0c0.1,0,0.1,0,0.1-0.1c0,0,0.1-0.1,0.1-0.1
	c0-0.1,0-0.1,0-0.2c-0.4-0.6-0.8-1.1-1.4-1.5c-0.1,0-0.1-0.1-0.2,0c-0.1,0-0.1,0-0.2,0.1c0,0,0,0.1,0,0.1c0,0,0,0.1,0,0.1
	c0,0.1,0.1,0.1,0.1,0.2c0.5,0.4,0.9,0.8,1.2,1.3C494.2,359.9,494.2,359.9,494.3,359.9L494.3,359.9z M485,363.8
	c-0.1-0.1-0.2-0.2-0.3-0.3c0-0.1,0-0.1,0-0.2l0-0.9l16.5,0.7l0,0.9c0,0.1,0,0.1-0.1,0.2c0,0.1-0.1,0.1-0.1,0.2
	c-0.1,0.1-0.2,0.2-0.4,0.2l-15.5-0.7C485.2,363.8,485.1,363.8,485,363.8L485,363.8z"/>
<path class="st38" d="M516.8,307.5c0,0-3.8,22.4,19,38.4l-6.1,6.7c0,0-25.5-17.5-22.9-40L516.8,307.5z"/>
<path class="st39" d="M517.6,320.6c-0.4,0.5-0.7,0.9-1,1.4c-0.9,1.3-1.6,2.6-2.2,4c-1.1,2.3-2,4.7-2.7,7.2c-3.5-6-5.8-13-4.9-20.6
	l10-5.1C516.7,307.5,515.8,313,517.6,320.6L517.6,320.6z"/>
<path class="st40" d="M502.1,285.2c-1,7.9-1.1,16-0.4,23.9c0,0-12.5,24.5-9.8,49.2l9.6,2.4c0,0,2.2-32.4,15.1-48.7l0.6-16.2L507,294
	l-0.9-8.7L502.1,285.2z"/>
<path class="st38" d="M516.6,297.5c0.1,0,0.2-0.1,0.3-0.3c0.1-0.1,0.1-0.3,0.2-0.4c0.1-0.2,0.1-0.4,0.2-0.6c0-0.1,0.1-0.2,0.1-0.3
	c0-0.1,0.1-0.2,0.1-0.4c0-0.1,0.1-0.3,0.1-0.4c0-0.1,0.1-0.3,0.1-0.5c0-0.2,0.1-0.3,0.1-0.5l0.1-0.5c0.1-0.4,0.1-0.7,0.1-1.1
	c0-0.9,0-1.8,0-2.7c0-1-0.1-2-0.3-3c-0.2-1.1-0.4-2.2-0.7-3.3c-0.3-1.2-0.8-2.4-1.5-3.4c-0.4-0.6-0.8-1.1-1.3-1.5
	c-0.5-0.4-1.1-0.8-1.7-1c-0.3-0.1-0.7-0.2-1-0.2h-1c-0.6,0.1-1.2,0.2-1.8,0.5c-0.5,0.2-1,0.6-1.4,0.9c-0.1,0.1-0.2,0.2-0.3,0.3
	l-0.3,0.3l-0.3,0.3c-0.1,0.1-0.2,0.2-0.2,0.3c-0.3,0.4-0.5,0.8-0.7,1.3c-0.2,0.4-0.3,0.8-0.4,1.2c-0.2,0.7-0.3,1.4-0.4,2.2
	c0,0.5-0.1,1.1-0.1,1.6c0,0.9,0.1,1.4,0.2,1.4c0.1,0,0.2-0.5,0.4-1.3c0.1-0.4,0.2-1,0.3-1.6c0.1-0.7,0.3-1.3,0.6-2
	c0.3-0.7,0.7-1.4,1.2-2.1c0.1-0.1,0.1-0.2,0.2-0.2l0.2-0.2l0.2-0.2c0.1-0.1,0.2-0.1,0.3-0.2c0.3-0.3,0.7-0.5,1.1-0.6
	c0.4-0.2,0.9-0.3,1.3-0.3h0.7c0.2,0,0.4,0.1,0.6,0.2c0.9,0.4,1.7,1.1,2.2,2c0.5,0.9,0.9,1.9,1.2,3c0.3,1.1,0.5,2.1,0.7,3.1
	c0.2,1,0.3,1.9,0.4,2.8c0.1,0.9,0.1,1.7,0.2,2.5v4.3c0,0.1,0,0.3,0,0.4C516.5,297.4,516.5,297.5,516.6,297.5L516.6,297.5z"/>
<path class="st41" d="M497.6,278.3h-19.1v19.1h19.1V278.3z"/>
<path class="st42" d="M469,275.2l9.5,3.2v19.1l-9.5-3.2V275.2z"/>
<path class="st43" d="M497.6,278.3l-9.5-3.2H469l9.5,3.2H497.6z"/>
<path class="st44" d="M485.8,279.5h-6.5v2.8h6.5V279.5z"/>
<path class="st45" d="M486.4,293.8l0,3.7h3.3v-3.7H486.4z M486.4,278.3l0,3.7h3.3v-3.7H486.4z M481.8,275.2h-3.1l7.7,3.2h3.3
	L481.8,275.2L481.8,275.2z"/>
<path class="st36" d="M514.6,285.5v0.2c0,2.1-0.5,4.1-1.4,5.9c-0.3,0.7-0.8,1.4-1.2,2c-0.5,0.7-1.1,1.3-1.7,1.8
	c-1.3,1.2-2.9,2-4.6,2.4c-0.8,0.2-1.6,0.3-2.4,0.3c-0.7,0-1.5,0-2.2-0.1c-0.7-0.1-1.3-0.3-2-0.4c-1.2-0.4-2.3-0.9-3.3-1.5
	c-0.9-0.5-1.7-1.1-2.4-1.7c-0.6-0.5-1.2-1-1.7-1.6l-0.2-0.2c-0.3,0-0.7,0-1,0c-0.3,0-0.7-0.1-1-0.2c-0.3-0.1-0.6-0.2-0.9-0.4
	c-0.3-0.2-0.6-0.4-0.8-0.6c-0.5-0.5-0.9-1-1.3-1.6c-0.2-0.3-0.3-0.6-0.4-1c-0.1-0.3-0.1-0.7-0.2-1c0-0.2,0-0.5,0-0.7
	c0-0.1,0-0.3,0.1-0.4c0.1-0.1,0.1-0.2,0.3-0.3c0.6-0.5,1.3,0,1.7,0.6c0.4,0.6,0.7,1.1,1.2,1.3c0.2,0.1,0.4,0.1,0.5,0
	c0.2,0,0.3-0.1,0.5-0.2c0,0,0.1-0.1,0.1-0.1c0.1-0.1,0.1-0.1,0.2-0.2c0.1,0,0.2-0.1,0.3-0.1c0.1,0,0.2,0,0.3,0
	c0.1,0,0.2,0.1,0.2,0.1c0.1,0,0.1,0.1,0.1,0.2c0.1,0.2,0.2,0.5,0.3,0.8c0.2,0.6,0.3,1.1,0.3,1.7c0.8,0.3,1.8,0.7,3,1.1
	c0.8,0.3,1.6,0.5,2.4,0.7c0.9,0.2,1.7,0.3,2.6,0.3c0.4,0,0.9,0,1.3-0.1c0.4,0,0.9-0.1,1.3-0.2c0.4-0.1,0.8-0.2,1.1-0.4
	c0.3-0.2,0.7-0.3,1-0.6c0.3-0.2,0.6-0.5,0.8-0.7c0.3-0.3,0.5-0.6,0.7-0.9c0.4-0.7,0.7-1.4,1-2.1c0.2-0.7,0.4-1.4,0.6-2.2
	c0.1-0.6,0.2-1.1,0.3-1.7c1,0.7,2,1.2,3.1,1.5C512.3,285.4,513.4,285.6,514.6,285.5L514.6,285.5z"/>
<path class="st40" d="M506.3,258.7c0.1-0.5,0.4-1,0.8-1.4c0.4-0.4,0.8-0.7,1.3-0.9c1-0.4,2.1-0.5,3.1-0.2c0.5,0.1,1,0.3,1.5,0.6
	c0.5,0.3,0.9,0.6,1.3,1c0.4,0.4,0.7,0.9,0.9,1.4c0.2,0.5,0.3,1,0.4,1.6c0,1.7-0.9,3.3-1.8,4.8C511.8,262.7,509.3,260.4,506.3,258.7z
	"/>
<path class="st39" d="M505.2,256.7c-0.5-0.3-1-0.5-1.6-0.5c-0.2,0.1-0.4,0.1-0.5,0.3c-0.2,0.1-0.3,0.3-0.4,0.4
	c-0.1,0.2-0.2,0.3-0.2,0.5c-0.1,0.2-0.1,0.4,0,0.6c0.1,0.4,0.2,0.8,0.4,1.1c0.2,0.4,0.4,0.7,0.8,0.9c0.2,0.2,0.5,0.4,0.7,0.6
	c0.3,0.2,0.5,0.3,0.8,0.5c0.6,0.3,1.2,0.5,1.8,0.6c0.3,0.1,0.6,0.1,0.9,0.1c0.6,0,1.3,0,1.9-0.2c0.3-0.1,0.6-0.2,0.9-0.3
	c0.3-0.1,1.1-0.4,1.2-0.7c0.2-0.5-0.3-0.6-0.7-0.8C509.1,258.9,507.2,257.8,505.2,256.7L505.2,256.7z"/>
<path class="st7" d="M505.7,262.8c0.1,0,0.3,0,0.4,0c0.1,0,0.2,0.1,0.4,0.2c0.1,0.1,0.1,0.2,0.2,0.4c0,0.1,0,0.3,0,0.4
	c-0.2,1-0.5,2-1.1,2.9c-0.2-0.2-0.4-0.5-0.5-0.8c-0.3-0.6-0.4-1.2-0.3-1.9c0-0.3,0.1-0.6,0.2-0.9
	C505.2,263.1,505.4,262.8,505.7,262.8L505.7,262.8z M510.5,267.3c-0.1-1.1-0.1-2.3,0.1-3.4c0.2-1.2,0.7-2.4,1.4-3.4
	c0.5,0.5,1,1,1.3,1.7c0.3,0.7,0.5,1.5,0.5,2.2c0,0.4,0,0.8,0,1.1c0,0.4-0.1,0.8-0.2,1.1c-0.1,0.4-0.2,0.7-0.3,1.1
	c-0.1,0.4-0.3,0.7-0.5,1c-0.2,0.3-0.4,0.6-0.6,0.9c-0.2,0.3-0.5,0.6-0.8,0.8C510.9,269.5,510.6,268.4,510.5,267.3L510.5,267.3z"/>
<path class="st36" d="M505.7,262.5c0.3,1.4-0.4,2.7-0.9,4c-0.5,1.3-1,2.7-0.5,4c0.2,0.3,0.4,0.6,0.6,0.9c0.2,0.3,0.5,0.5,0.8,0.6
	c0.3,0.2,0.7,0.3,1,0.4c0.4,0.1,0.7,0.1,1.1,0c0.7-0.1,1.4-0.4,2-0.9c0.6-0.4,1.1-1,1.4-1.6c0.3-0.7,0.5-1.3,0.7-2.1
	c0.1-0.7,0.1-1.4,0.1-2.2c-0.2-1.4-0.5-2.9-0.9-4.2C509.3,260.6,507.2,261.2,505.7,262.5L505.7,262.5z"/>
<path class="st36" d="M511.6,266.2c0.2-0.2,0.4-0.4,0.6-0.5c0.1-0.1,0.2-0.1,0.4-0.1c0.1,0,0.3,0,0.4,0c0.2,0.1,0.3,0.2,0.4,0.3
	c0.1,0.1,0.2,0.3,0.2,0.4c0,0.2,0.1,0.3,0.1,0.5c0,0.2,0,0.3-0.1,0.5c0,0.2-0.1,0.3-0.2,0.4c-0.1,0.1-0.2,0.3-0.3,0.4
	c-0.1,0.1-0.3,0.2-0.4,0.2c-0.1,0.1-0.3,0.1-0.5,0.1c-0.2,0-0.3,0-0.5,0c-0.2,0-0.3-0.1-0.4-0.2
	C511.4,267.5,511.5,266.9,511.6,266.2L511.6,266.2z"/>
<path class="st7" d="M504.7,263.6c2,0.1,4.1-0.5,5.8-1.5c-0.2,0.6-0.2,1.2,0,1.8c0.1,0.4,0.3,0.8,0.6,1.2c0.3,0.4,0.6,0.7,0.9,1
	c0.8-1.2,1.2-2.6,1-4c0-0.2-0.1-0.3-0.1-0.5c-0.3-0.4-0.6-0.7-1-1.1c-0.6-0.5-1.2-0.9-1.9-1.2c-0.5-0.2-0.9-0.3-1.4-0.4
	c-1-0.1-2,0-2.9,0.3c-0.5,0.2-0.9,0.4-1.3,0.6c-0.1,0.1-0.3,0.2-0.4,0.4c-0.3,0.3-0.6,0.7-0.8,1.2c0,0.1-0.1,0.2-0.1,0.3
	c0,0.1,0,0.2,0,0.3c0,0.1,0,0.2,0,0.3c0,0.1,0.1,0.2,0.1,0.3c0,0.1,0.1,0.2,0.2,0.3c0.1,0.1,0.1,0.2,0.2,0.2
	c0.1,0.1,0.2,0.1,0.2,0.2c0.1,0.1,0.2,0.1,0.3,0.1C504.4,263.6,504.6,263.6,504.7,263.6L504.7,263.6z"/>
</svg>
