<svg version="1.1" xmlns="http://www.w3.org/2000/svg" xmlns:xlink="http://www.w3.org/1999/xlink" width="630" height="390" viewBox="0 0 630 390">
<style type="text/css">
	.st0{fill:#EAF1FC;}
	.st1{fill:#F8F8FF;}
	.st2{fill:#CDE4F7;}
	.st3{fill:#E9EDF4;}
	.st4{fill:#FFFFFF;}
	.st5{fill:#ECF7FE;}
	.st6{fill:#0F222C;}
	.st7{fill:#2C6292;}
	.st8{fill:#1A568C;}
	.st9{fill:#114574;}
	.st10{fill:#164F83;}
	.st11{fill:#C07632;}
	.st12{fill:#0C3860;}
	.st13{fill:#11426D;}
	.st14{fill:#25649D;}
	.st15{fill:#3873A9;}
	.st16{fill:#164C7C;}
	.st17{fill:#3679B6;}
	.st18{fill:#2A6EAC;}
	.st19{fill:#23619A;}
	.st20{fill:#1D4259;}
	.st21{fill:#8C8FAD;}
	.st22{fill:#448DCE;}
	.st23{fill:#3270A7;}
	.st24{fill:#222846;}
	.st25{fill:#FFDA35;}
	.st26{fill:#0B2B46;}
	.st27{fill:#FF524F;}
	.st28{fill:#F2F2F2;}
	.st29{fill:#F19100;}
	.st30{fill:#E08F73;}
	.st31{fill:#F09976;}
	.st32{fill:#E8815F;}
	.st33{fill:#047487;}
	.st34{fill:#05616B;}
	.st35{fill:#02819F;}
	.st36{fill:#F8C47A;}
	.st37{fill:#E19A54;}
	.st38{fill:#FFDF9A;}
	.st39{fill:#E4E6E6;}
	.st40{fill:#CE8D4D;}
</style>
<path class="st0" d="M314.5,380c173.7,0,314.5-25.1,314.5-56s-140.8-56-314.5-56S0,293.1,0,324S140.8,380,314.5,380z"/>
<path class="st1" d="M599.6,301.9c29.2-73.2,48.3-220.3-40.2-266.7c-57.9-30.3-118.3,8.7-180.2,10.5C330.6,47,283.7,14,239.9,4.6
	c-115-24.7-295.8,47-216.3,297.3C222.4,301.4,400.8,302.3,599.6,301.9z"/>
<path class="st2" d="M368.4,120.5H471V303H368.4V120.5z"/>
<path class="st3" d="M368.4,120.5h32V303h-32V120.5z"/>
<path class="st4" d="M457.2,124h4.8v6.2h-4.8V124z M448.6,124h4.8v6.2h-4.8V124z M439.9,124h4.8v6.2h-4.8V124z M431.2,124h4.8v6.2
	h-4.8V124z M422.5,124h4.8v6.2h-4.8V124z M413.9,124h4.8v6.2h-4.8V124z M405.2,124h4.8v6.2h-4.8V124z M389.3,124h4.8v6.2h-4.8V124z
	 M380.7,124h4.8v6.2h-4.8V124z M372,124h4.8v6.2H372V124z M457.2,137.1h4.8v6.2h-4.8V137.1z M448.6,137.1h4.8v6.2h-4.8V137.1z
	 M439.9,137.1h4.8v6.2h-4.8V137.1z M431.2,137.1h4.8v6.2h-4.8V137.1z M422.5,137.1h4.8v6.2h-4.8V137.1z M413.9,137.1h4.8v6.2h-4.8
	V137.1z M405.2,137.1h4.8v6.2h-4.8V137.1z M389.3,137.1h4.8v6.2h-4.8V137.1z M380.7,137.1h4.8v6.2h-4.8V137.1z M372,137.1h4.8v6.2
	H372V137.1z M457.2,150.1h4.8v6.2h-4.8V150.1z M448.6,150.1h4.8v6.2h-4.8V150.1z M439.9,150.1h4.8v6.2h-4.8V150.1z M431.2,150.1h4.8
	v6.2h-4.8V150.1z M422.5,150.1h4.8v6.2h-4.8V150.1z M413.9,150.1h4.8v6.2h-4.8V150.1z M405.2,150.1h4.8v6.2h-4.8V150.1z
	 M389.3,150.1h4.8v6.2h-4.8V150.1z M380.7,150.1h4.8v6.2h-4.8V150.1z M372,150.1h4.8v6.2H372V150.1z M457.2,163.2h4.8v6.2h-4.8
	V163.2z M448.6,163.2h4.8v6.2h-4.8V163.2z M439.9,163.2h4.8v6.2h-4.8V163.2z M431.2,163.2h4.8v6.2h-4.8V163.2z M422.5,163.2h4.8v6.2
	h-4.8V163.2z M413.9,163.2h4.8v6.2h-4.8V163.2z M405.2,163.2h4.8v6.2h-4.8V163.2z M389.3,163.2h4.8v6.2h-4.8V163.2z M380.7,163.2
	h4.8v6.2h-4.8V163.2z M372,163.2h4.8v6.2H372V163.2z M457.2,176.3h4.8v6.2h-4.8V176.3z M448.6,176.3h4.8v6.2h-4.8V176.3z
	 M439.9,176.3h4.8v6.2h-4.8V176.3z M431.2,176.3h4.8v6.2h-4.8V176.3z M422.5,176.3h4.8v6.2h-4.8V176.3z M413.9,176.3h4.8v6.2h-4.8
	V176.3z M405.2,176.3h4.8v6.2h-4.8V176.3z M389.3,176.3h4.8v6.2h-4.8V176.3z M380.7,176.3h4.8v6.2h-4.8V176.3z M372,176.3h4.8v6.2
	H372V176.3z M457.2,189.3h4.8v6.2h-4.8V189.3z M448.6,189.3h4.8v6.2h-4.8V189.3z M439.9,189.3h4.8v6.2h-4.8V189.3z M431.2,189.3h4.8
	v6.2h-4.8V189.3z M422.5,189.3h4.8v6.2h-4.8V189.3z M413.9,189.3h4.8v6.2h-4.8V189.3z M405.2,189.3h4.8v6.2h-4.8V189.3z
	 M389.3,189.3h4.8v6.2h-4.8V189.3z M380.7,189.3h4.8v6.2h-4.8V189.3z M372,189.3h4.8v6.2H372V189.3z M457.2,202.3h4.8v6.2h-4.8
	V202.3z M448.6,202.3h4.8v6.2h-4.8V202.3z M439.9,202.3h4.8v6.2h-4.8V202.3z M431.2,202.3h4.8v6.2h-4.8V202.3z M422.5,202.3h4.8v6.2
	h-4.8V202.3z M413.9,202.3h4.8v6.2h-4.8V202.3z M405.2,202.3h4.8v6.2h-4.8V202.3z M389.3,202.3h4.8v6.2h-4.8V202.3z M380.7,202.3
	h4.8v6.2h-4.8V202.3z M372,202.3h4.8v6.2H372V202.3z M457.2,215.4h4.8v6.2h-4.8V215.4z M448.6,215.4h4.8v6.2h-4.8V215.4z
	 M439.9,215.4h4.8v6.2h-4.8V215.4z M431.2,215.4h4.8v6.2h-4.8V215.4z M422.5,215.4h4.8v6.2h-4.8V215.4z M413.9,215.4h4.8v6.2h-4.8
	V215.4z M405.2,215.4h4.8v6.2h-4.8V215.4z M389.3,215.4h4.8v6.2h-4.8V215.4z M380.7,215.4h4.8v6.2h-4.8V215.4z M372,215.4h4.8v6.2
	H372V215.4z M457.2,228.5h4.8v6.2h-4.8V228.5z M448.6,228.5h4.8v6.2h-4.8V228.5z M439.9,228.5h4.8v6.2h-4.8V228.5z M431.2,228.5h4.8
	v6.2h-4.8V228.5z M422.5,228.5h4.8v6.2h-4.8V228.5z M413.9,228.5h4.8v6.2h-4.8V228.5z M405.2,228.5h4.8v6.2h-4.8V228.5z
	 M389.3,228.5h4.8v6.2h-4.8V228.5z M380.7,228.5h4.8v6.2h-4.8V228.5z M372,228.5h4.8v6.2H372V228.5z M457.2,241.5h4.8v6.2h-4.8
	V241.5z M448.6,241.5h4.8v6.2h-4.8V241.5z M439.9,241.5h4.8v6.2h-4.8V241.5z M431.2,241.5h4.8v6.2h-4.8V241.5z M422.5,241.5h4.8v6.2
	h-4.8V241.5z M413.9,241.5h4.8v6.2h-4.8V241.5z M405.2,241.5h4.8v6.2h-4.8V241.5z M389.3,241.5h4.8v6.2h-4.8V241.5z M380.7,241.5
	h4.8v6.2h-4.8V241.5z M372,241.5h4.8v6.2H372V241.5z M457.2,254.6h4.8v6.2h-4.8V254.6z M448.6,254.6h4.8v6.2h-4.8V254.6z
	 M439.9,254.6h4.8v6.2h-4.8V254.6z M431.2,254.6h4.8v6.2h-4.8V254.6z M422.5,254.6h4.8v6.2h-4.8V254.6z M413.9,254.6h4.8v6.2h-4.8
	V254.6z M405.2,254.6h4.8v6.2h-4.8V254.6z M389.3,254.6h4.8v6.2h-4.8V254.6z M380.7,254.6h4.8v6.2h-4.8V254.6z M372,254.6h4.8v6.2
	H372V254.6z M457.2,267.6h4.8v6.2h-4.8V267.6z M448.6,267.6h4.8v6.2h-4.8V267.6z M439.9,267.6h4.8v6.2h-4.8V267.6z M431.2,267.6h4.8
	v6.2h-4.8V267.6z M422.5,267.6h4.8v6.2h-4.8V267.6z M413.9,267.6h4.8v6.2h-4.8V267.6z M405.2,267.6h4.8v6.2h-4.8V267.6z
	 M389.3,267.6h4.8v6.2h-4.8V267.6z M380.7,267.6h4.8v6.2h-4.8V267.6z M372,267.6h4.8v6.2H372V267.6z M457.2,280.7h4.8v6.2h-4.8
	V280.7z M448.6,280.7h4.8v6.2h-4.8V280.7z M439.9,280.7h4.8v6.2h-4.8V280.7z M431.2,280.7h4.8v6.2h-4.8V280.7z M422.5,280.7h4.8v6.2
	h-4.8V280.7z M413.9,280.7h4.8v6.2h-4.8V280.7z M405.2,280.7h4.8v6.2h-4.8V280.7z M389.3,280.7h4.8v6.2h-4.8V280.7z M380.7,280.7
	h4.8v6.2h-4.8V280.7z M372,280.7h4.8v6.2H372V280.7z M457.2,293.8h4.8v6.2h-4.8V293.8z M448.6,293.8h4.8v6.2h-4.8V293.8z
	 M439.9,293.8h4.8v6.2h-4.8V293.8z M431.2,293.8h4.8v6.2h-4.8V293.8z M422.5,293.8h4.8v6.2h-4.8V293.8z M413.9,293.8h4.8v6.2h-4.8
	V293.8z M405.2,293.8h4.8v6.2h-4.8V293.8z M389.3,293.8h4.8v6.2h-4.8V293.8z M380.7,293.8h4.8v6.2h-4.8V293.8z M372,293.8h4.8v6.2
	H372V293.8z"/>
<path class="st2" d="M287.6,151.9h95.2V303h-95.2V151.9z"/>
<path class="st3" d="M287.6,151.9h29.7V303h-29.7V151.9z"/>
<path class="st4" d="M372.3,159.5h4.4V182h-4.4V159.5z M364.3,159.5h4.4V182h-4.4V159.5z M356.3,159.5h4.4V182h-4.4V159.5z
	 M348.3,159.5h4.4V182h-4.4V159.5z M340.3,159.5h4.4V182h-4.4V159.5z M332.3,159.5h4.4V182h-4.4V159.5z M324.3,159.5h4.4V182h-4.4
	V159.5z M309.7,159.5h4.4V182h-4.4V159.5z M301.7,159.5h4.4V182h-4.4V159.5z M293.7,159.5h4.4V182h-4.4V159.5z M372.3,184.9h4.4
	v22.6h-4.4V184.9z M364.3,184.9h4.4v22.6h-4.4V184.9z M356.3,184.9h4.4v22.6h-4.4V184.9z M348.3,184.9h4.4v22.6h-4.4V184.9z
	 M340.3,184.9h4.4v22.6h-4.4V184.9z M332.3,184.9h4.4v22.6h-4.4V184.9z M324.3,184.9h4.4v22.6h-4.4V184.9z M309.7,184.9h4.4v22.6
	h-4.4V184.9z M301.7,184.9h4.4v22.6h-4.4V184.9z M293.7,184.9h4.4v22.6h-4.4V184.9z M372.3,210.5h4.4V233h-4.4V210.5z M364.3,210.5
	h4.4V233h-4.4V210.5z M356.3,210.5h4.4V233h-4.4V210.5z M348.3,210.5h4.4V233h-4.4V210.5z M340.3,210.5h4.4V233h-4.4V210.5z
	 M332.3,210.5h4.4V233h-4.4V210.5z M324.3,210.5h4.4V233h-4.4V210.5z M309.7,210.5h4.4V233h-4.4V210.5z M301.7,210.5h4.4V233h-4.4
	V210.5z M293.7,210.5h4.4V233h-4.4V210.5z M372.3,236h4.4v22.6h-4.4V236z M364.3,236h4.4v22.6h-4.4V236z M356.3,236h4.4v22.6h-4.4
	V236z M348.3,236h4.4v22.6h-4.4V236z M340.3,236h4.4v22.6h-4.4V236z M332.3,236h4.4v22.6h-4.4V236z M324.3,236h4.4v22.6h-4.4V236z
	 M309.7,236h4.4v22.6h-4.4V236z M301.7,236h4.4v22.6h-4.4V236z M293.7,236h4.4v22.6h-4.4V236z M372.3,261.5h4.4v22.6h-4.4V261.5z
	 M364.3,261.5h4.4v22.6h-4.4V261.5z M356.3,261.5h4.4v22.6h-4.4V261.5z M348.3,261.5h4.4v22.6h-4.4V261.5z M340.3,261.5h4.4v22.6
	h-4.4V261.5z M332.3,261.5h4.4v22.6h-4.4V261.5z M324.3,261.5h4.4v22.6h-4.4V261.5z M309.7,261.5h4.4v22.6h-4.4V261.5z M301.7,261.5
	h4.4v22.6h-4.4V261.5z M293.7,261.5h4.4v22.6h-4.4V261.5z"/>
<path class="st2" d="M18,152h95v158H18V152z"/>
<path class="st3" d="M18,152h30v158H18V152z"/>
<path class="st4" d="M78.6,159H83v17.5h-4.4V159L78.6,159z M70.6,159H75v17.5h-4.4V159z M62.7,159h4.4v17.5h-4.4V159z M54.6,159H59
	v17.5h-4.4V159z M40,159h4.4v17.5H40V159z M32,159h4.4v17.5H32V159z M24,159h4.4v17.5H24V159z M78.6,178.8H83v17.5h-4.4V178.8
	L78.6,178.8z M70.6,178.8H75v17.5h-4.4V178.8z M62.7,178.8h4.4v17.5h-4.4V178.8z M54.6,178.8H59v17.5h-4.4V178.8z M40,178.8h4.4
	v17.5H40V178.8z M32,178.8h4.4v17.5H32V178.8z M24,178.8h4.4v17.5H24V178.8z M78.6,198.6H83V216h-4.4V198.6L78.6,198.6z M70.6,198.6
	H75V216h-4.4V198.6z M62.7,198.6h4.4V216h-4.4V198.6z M54.6,198.6H59V216h-4.4V198.6z M40,198.6h4.4V216H40V198.6z M32,198.6h4.4
	V216H32V198.6z M24,198.6h4.4V216H24V198.6z M78.6,218.2H83v17.5h-4.4V218.2L78.6,218.2z M70.6,218.2H75v17.5h-4.4V218.2z
	 M62.7,218.2h4.4v17.5h-4.4V218.2z M54.6,218.2H59v17.5h-4.4V218.2z M40,218.2h4.4v17.5H40V218.2z M32,218.2h4.4v17.5H32V218.2z
	 M24,218.2h4.4v17.5H24V218.2z M70.6,238H75v17.4h-4.4V238z M62.7,238h4.4v17.4h-4.4V238z M54.6,238H59v17.4h-4.4V238z M40,238h4.4
	v17.4H40V238z M32,238h4.4v17.4H32V238z M24,238h4.4v17.4H24V238z M62.7,257.8h4.4v17.5h-4.4V257.8z M54.6,257.8H59v17.5h-4.4V257.8
	z M40,257.8h4.4v17.5H40V257.8z M32,257.8h4.4v17.5H32V257.8z M24,257.8h4.4v17.5H24V257.8z M62.7,277.5h4.4V295h-4.4V277.5z
	 M54.6,277.5H59V295h-4.4V277.5z M40,277.5h4.4V295H40V277.5z M32,277.5h4.4V295H32V277.5z M24,277.5h4.4V295H24V277.5z"/>
<path class="st2" d="M65,98.7h95.2v204.2H65V98.7z"/>
<path class="st3" d="M65,98.7h29.7v204.2H65V98.7z"/>
<path class="st4" d="M125.7,108.4h4.4V131h-4.4V108.4L125.7,108.4z M117.7,108.4h4.4V131h-4.4V108.4z M109.8,108.4h4.4V131h-4.4
	V108.4z M101.7,108.4h4.4V131h-4.4V108.4z M87.1,108.4h4.4V131h-4.4V108.4z M79.1,108.4h4.4V131h-4.4V108.4z M71.1,108.4h4.4V131
	h-4.4V108.4z M125.7,134h4.4v22.6h-4.4V134L125.7,134z M117.7,134h4.4v22.6h-4.4V134z M109.8,134h4.4v22.6h-4.4V134z M101.7,134h4.4
	v22.6h-4.4V134z M87.1,134h4.4v22.6h-4.4V134z M79.1,134h4.4v22.6h-4.4V134z M71.1,134h4.4v22.6h-4.4V134z M125.7,159.5h4.4V182
	h-4.4V159.5L125.7,159.5z M117.7,159.5h4.4V182h-4.4V159.5z M109.8,159.5h4.4V182h-4.4V159.5z M101.7,159.5h4.4V182h-4.4V159.5z
	 M87.1,159.5h4.4V182h-4.4V159.5z M79.1,159.5h4.4V182h-4.4V159.5z M71.1,159.5h4.4V182h-4.4V159.5z M125.7,184.9h4.4v22.6h-4.4
	V184.9L125.7,184.9z M117.7,184.9h4.4v22.6h-4.4V184.9z M109.8,184.9h4.4v22.6h-4.4V184.9z M101.7,184.9h4.4v22.6h-4.4V184.9z
	 M87.1,184.9h4.4v22.6h-4.4V184.9z M79.1,184.9h4.4v22.6h-4.4V184.9z M71.1,184.9h4.4v22.6h-4.4V184.9z M117.7,210.5h4.4V233h-4.4
	V210.5z M109.8,210.5h4.4V233h-4.4V210.5z M101.7,210.5h4.4V233h-4.4V210.5z M87.1,210.5h4.4V233h-4.4V210.5z M79.1,210.5h4.4V233
	h-4.4V210.5z M71.1,210.5h4.4V233h-4.4V210.5z M109.8,236h4.4v22.6h-4.4V236z M101.7,236h4.4v22.6h-4.4V236z M87.1,236h4.4v22.6
	h-4.4V236z M79.1,236h4.4v22.6h-4.4V236z M71.1,236h4.4v22.6h-4.4V236z M109.8,261.5h4.4v22.6h-4.4V261.5z M101.7,261.5h4.4v22.6
	h-4.4V261.5z M87.1,261.5h4.4v22.6h-4.4V261.5z M79.1,261.5h4.4v22.6h-4.4V261.5z M71.1,261.5h4.4v22.6h-4.4V261.5z"/>
<path class="st2" d="M240.4,115.7h66.1V303h-66.1V115.7z"/>
<path class="st5" d="M240.4,115.7h20.5V303h-20.5V115.7L240.4,115.7z"/>
<path class="st4" d="M240.5,122.4h66.1v1.6h-66.1V122.4L240.5,122.4z M240.5,134.7h66.1v1.6h-66.1V134.7L240.5,134.7z M240.5,147.1
	h66.1v1.6h-66.1V147.1L240.5,147.1z M240.5,159.5h66.1v1.6h-66.1V159.5L240.5,159.5z M240.5,171.9h66.1v1.6h-66.1V171.9L240.5,171.9
	z M240.5,184.2h66.1v1.6h-66.1V184.2L240.5,184.2z M240.5,196.6h66.1v1.6h-66.1V196.6L240.5,196.6z M240.5,208.9h66.1v1.6h-66.1
	V208.9L240.5,208.9z M240.5,221.3h66.1v1.6h-66.1V221.3L240.5,221.3z M240.5,233.7h66.1v1.6h-66.1V233.7L240.5,233.7z M240.5,246.1
	h66.1v1.6h-66.1V246.1L240.5,246.1z M240.5,258.4h66.1v1.6h-66.1V258.4L240.5,258.4z M240.5,270.8h66.1v1.6h-66.1V270.8L240.5,270.8
	z M240.5,283.1h66.1v1.6h-66.1V283.1L240.5,283.1z"/>
<path class="st2" d="M470.1,153h103.7v150H470.1V153z"/>
<path class="st3" d="M470.1,153h32.3v150h-32.3V153z"/>
<path class="st4" d="M470.1,161.1h103.7v1.2H470.1V161.1z M470.1,171h103.7v1.2H470.1V171z M470.1,180.9h103.7v1.2H470.1V180.9z
	 M470.1,190.8h103.7v1.2H470.1V190.8z M470.1,200.7h103.7v1.2H470.1V200.7z M470.1,210.7h103.7v1.2H470.1V210.7z M470.1,220.5h103.7
	v1.2H470.1V220.5z M470.1,230.5h103.7v1.2H470.1V230.5z M470.1,240.3h103.7v1.2H470.1V240.3z M470.1,250.3h103.7v1.2H470.1V250.3z
	 M470.1,260.1h103.7v1.2H470.1V260.1z M470.1,270.1h103.7v1.2H470.1V270.1z M470.1,279.9h103.7v1.2H470.1V279.9z M470.1,289.9h103.7
	v1.2H470.1V289.9z"/>
<path class="st2" d="M132.7,43.3h121.1V303H132.7V43.3z"/>
<path class="st5" d="M132.7,43.3h37.7V303h-37.7V43.3z"/>
<path class="st4" d="M240.4,55.6h5.6v7.5h-5.6V55.6z M230.2,55.6h5.6v7.5h-5.6V55.6z M220.1,55.6h5.6v7.5h-5.6V55.6z M209.9,55.6
	h5.6v7.5h-5.6V55.6z M199.7,55.6h5.6v7.5h-5.6V55.6z M189.5,55.6h5.6v7.5h-5.6V55.6z M179.4,55.6h5.6v7.5h-5.6V55.6z M160.8,55.6
	h5.6v7.5h-5.6V55.6z M150.6,55.6h5.6v7.5h-5.6V55.6z M140.4,55.6h5.6v7.5h-5.6V55.6z M240.4,71.3h5.6v7.5h-5.6V71.3z M230.2,71.3
	h5.6v7.5h-5.6V71.3z M220.1,71.3h5.6v7.5h-5.6V71.3z M209.9,71.3h5.6v7.5h-5.6V71.3z M199.7,71.3h5.6v7.5h-5.6V71.3z M189.5,71.3
	h5.6v7.5h-5.6V71.3z M179.4,71.3h5.6v7.5h-5.6V71.3z M160.8,71.3h5.6v7.5h-5.6V71.3z M150.6,71.3h5.6v7.5h-5.6V71.3z M140.4,71.3
	h5.6v7.5h-5.6V71.3z M240.4,87h5.6v7.5h-5.6V87z M230.2,87h5.6v7.5h-5.6V87z M220.1,87h5.6v7.5h-5.6V87z M209.9,87h5.6v7.5h-5.6V87z
	 M199.7,87h5.6v7.5h-5.6V87z M189.5,87h5.6v7.5h-5.6V87z M179.4,87h5.6v7.5h-5.6V87z M160.8,87h5.6v7.5h-5.6V87z M150.6,87h5.6v7.5
	h-5.6V87z M140.4,87h5.6v7.5h-5.6V87z M240.4,102.6h5.6v7.5h-5.6V102.6z M230.2,102.6h5.6v7.5h-5.6V102.6z M220.1,102.6h5.6v7.5
	h-5.6V102.6z M209.9,102.6h5.6v7.5h-5.6V102.6z M199.7,102.6h5.6v7.5h-5.6V102.6z M189.5,102.6h5.6v7.5h-5.6V102.6z M179.4,102.6
	h5.6v7.5h-5.6V102.6z M160.8,102.6h5.6v7.5h-5.6V102.6z M150.6,102.6h5.6v7.5h-5.6V102.6z M140.4,102.6h5.6v7.5h-5.6V102.6z
	 M240.4,118.3h5.6v7.5h-5.6V118.3z M230.2,118.3h5.6v7.5h-5.6V118.3z M220.1,118.3h5.6v7.5h-5.6V118.3z M209.9,118.3h5.6v7.5h-5.6
	V118.3z M199.7,118.3h5.6v7.5h-5.6V118.3z M189.5,118.3h5.6v7.5h-5.6V118.3z M179.4,118.3h5.6v7.5h-5.6V118.3z M160.8,118.3h5.6v7.5
	h-5.6V118.3z M150.6,118.3h5.6v7.5h-5.6V118.3z M140.4,118.3h5.6v7.5h-5.6V118.3z M240.4,134h5.6v7.5h-5.6V134z M230.2,134h5.6v7.5
	h-5.6V134z M220.1,134h5.6v7.5h-5.6V134z M209.9,134h5.6v7.5h-5.6V134z M199.7,134h5.6v7.5h-5.6V134z M189.5,134h5.6v7.5h-5.6V134z
	 M179.4,134h5.6v7.5h-5.6V134z M160.8,134h5.6v7.5h-5.6V134z M150.6,134h5.6v7.5h-5.6V134z M140.4,134h5.6v7.5h-5.6V134z
	 M240.4,149.5h5.6v7.5h-5.6V149.5z M230.2,149.5h5.6v7.5h-5.6V149.5z M220.1,149.5h5.6v7.5h-5.6V149.5z M209.9,149.5h5.6v7.5h-5.6
	V149.5z M199.7,149.5h5.6v7.5h-5.6V149.5z M189.5,149.5h5.6v7.5h-5.6V149.5z M179.4,149.5h5.6v7.5h-5.6V149.5z M160.8,149.5h5.6v7.5
	h-5.6V149.5z M150.6,149.5h5.6v7.5h-5.6V149.5z M140.4,149.5h5.6v7.5h-5.6V149.5z M240.4,165.2h5.6v7.5h-5.6V165.2z M230.2,165.2
	h5.6v7.5h-5.6V165.2z M220.1,165.2h5.6v7.5h-5.6V165.2z M209.9,165.2h5.6v7.5h-5.6V165.2z M199.7,165.2h5.6v7.5h-5.6V165.2z
	 M189.5,165.2h5.6v7.5h-5.6V165.2z M179.4,165.2h5.6v7.5h-5.6V165.2z M160.8,165.2h5.6v7.5h-5.6V165.2z M150.6,165.2h5.6v7.5h-5.6
	V165.2z M140.4,165.2h5.6v7.5h-5.6V165.2z M240.4,180.9h5.6v7.5h-5.6V180.9z M230.2,180.9h5.6v7.5h-5.6V180.9z M220.1,180.9h5.6v7.5
	h-5.6V180.9z M209.9,180.9h5.6v7.5h-5.6V180.9z M199.7,180.9h5.6v7.5h-5.6V180.9z M189.5,180.9h5.6v7.5h-5.6V180.9z M179.4,180.9
	h5.6v7.5h-5.6V180.9z M160.8,180.9h5.6v7.5h-5.6V180.9z M150.6,180.9h5.6v7.5h-5.6V180.9z M140.4,180.9h5.6v7.5h-5.6V180.9z
	 M240.4,196.5h5.6v7.5h-5.6V196.5z M230.2,196.5h5.6v7.5h-5.6V196.5z M220.1,196.5h5.6v7.5h-5.6V196.5z M209.9,196.5h5.6v7.5h-5.6
	V196.5z M199.7,196.5h5.6v7.5h-5.6V196.5z M189.5,196.5h5.6v7.5h-5.6V196.5z M179.4,196.5h5.6v7.5h-5.6V196.5z M160.8,196.5h5.6v7.5
	h-5.6V196.5z M150.6,196.5h5.6v7.5h-5.6V196.5z M140.4,196.5h5.6v7.5h-5.6V196.5z M240.4,212.2h5.6v7.5h-5.6V212.2z M230.2,212.2
	h5.6v7.5h-5.6V212.2z M220.1,212.2h5.6v7.5h-5.6V212.2z M209.9,212.2h5.6v7.5h-5.6V212.2z M199.7,212.2h5.6v7.5h-5.6V212.2z
	 M189.5,212.2h5.6v7.5h-5.6V212.2z M179.4,212.2h5.6v7.5h-5.6V212.2z M160.8,212.2h5.6v7.5h-5.6V212.2z M150.6,212.2h5.6v7.5h-5.6
	V212.2z M140.4,212.2h5.6v7.5h-5.6V212.2z M240.4,227.9h5.6v7.5h-5.6V227.9z M230.2,227.9h5.6v7.5h-5.6V227.9z M220.1,227.9h5.6v7.5
	h-5.6V227.9z M209.9,227.9h5.6v7.5h-5.6V227.9z M199.7,227.9h5.6v7.5h-5.6V227.9z M189.5,227.9h5.6v7.5h-5.6V227.9z M179.4,227.9
	h5.6v7.5h-5.6V227.9z M160.8,227.9h5.6v7.5h-5.6V227.9z M150.6,227.9h5.6v7.5h-5.6V227.9z M140.4,227.9h5.6v7.5h-5.6V227.9z
	 M240.4,243.5h5.6v7.5h-5.6V243.5z M230.2,243.5h5.6v7.5h-5.6V243.5z M220.1,243.5h5.6v7.5h-5.6V243.5z M209.9,243.5h5.6v7.5h-5.6
	V243.5z M199.7,243.5h5.6v7.5h-5.6V243.5z M189.5,243.5h5.6v7.5h-5.6V243.5z M179.4,243.5h5.6v7.5h-5.6V243.5z M160.8,243.5h5.6v7.5
	h-5.6V243.5z M150.6,243.5h5.6v7.5h-5.6V243.5z M140.4,243.5h5.6v7.5h-5.6V243.5z M240.4,259.2h5.6v7.5h-5.6V259.2z M230.2,259.2
	h5.6v7.5h-5.6V259.2z M220.1,259.2h5.6v7.5h-5.6V259.2z M209.9,259.2h5.6v7.5h-5.6V259.2z M199.7,259.2h5.6v7.5h-5.6V259.2z
	 M189.5,259.2h5.6v7.5h-5.6V259.2z M179.4,259.2h5.6v7.5h-5.6V259.2z M160.8,259.2h5.6v7.5h-5.6V259.2z M150.6,259.2h5.6v7.5h-5.6
	V259.2z M140.4,259.2h5.6v7.5h-5.6V259.2z"/>
<path class="st5" d="M236.7,43.3h-87.1v-11c0-4.6,3.5-8.3,8-8.3h71.1c4.4,0,8,3.7,8,8.3V43.3z"/>
<path class="st2" d="M591.8,292.5H588c-0.4,0-0.8,0.3-0.8,0.7l-0.6,14.5h6.4l-0.3-14.5C592.6,292.8,592.2,292.5,591.8,292.5z"/>
<path class="st2" d="M591.2,292.7h-2.9c-0.7,0-1.3-0.6-1.3-1.4v-2.6c0-0.7,0.6-1.4,1.3-1.4h2.9c0.7,0,1.3,0.6,1.3,1.4v2.7
	C592.5,292.1,591.9,292.7,591.2,292.7z"/>
<path class="st2" d="M591.9,231h-4.7c-1.1,0-2.1-0.5-2.1-1.3v-2.4c0-0.7,0.9-1.3,2.1-1.3h4.7c1.1,0,2.1,0.5,2.1,1.3v2.5
	C594,230.5,593.1,231,591.9,231z"/>
<path class="st2" d="M589,242.8h1.6v44.6H589V242.8z"/>
<path class="st2" d="M593.2,243.9h-6.8c-0.6,0-1-0.4-1-1c0-0.6,0.4-1,1-1h6.8c0.6,0,1,0.4,1,1C594.1,243.5,593.7,243.9,593.2,243.9z
	"/>
<path class="st4" d="M593.1,241.9h-6.7l-1-10.2h8.8L593.1,241.9z"/>
<path class="st2" d="M594.7,232.2h-10c-0.6,0-1-0.4-1-1c0-0.6,0.4-1,1-1h10c0.6,0,1,0.4,1,1C595.7,231.7,595.3,232.2,594.7,232.2z
	 M590.8,226.9h-2.1v-1c0-0.6,0.5-1.1,1-1.1c0.6,0,1,0.5,1,1.1L590.8,226.9L590.8,226.9z"/>
<path class="st4" d="M33.1,316.6H37l-1.2-48.8l-0.7-1.2L33.1,316.6z"/>
<path class="st0" d="M34,221.1c3.5-0.7,6,3.2,6.6,6.6c0.3,1.8,0.3,3.9,1.7,5.1c0.6,0.4,1.2,0.8,1.9,1.1c3.9,2.1,4.2,6,4.2,9.9
	c-0.1,0.7,0.1,1.3,0.3,1.9c0.3,0.7,1,1,1.5,1.6c0.3,0.4,0.4,0.9,0.5,1.5c1,4.5,0.5,8.6,0.4,13.1c-0.2,31.8-16.7,30.3-16.7,30.3h-0.5
	c-4-0.2-7.6-2.8-10-6c-2.4-3.3-3.8-7.5-4.6-11.6c-0.6-3-0.9-6.1-1-9.1c-0.2-3.3-0.8-6.4,0.3-9.6c0.6-1.4,1.4-2.9,1.5-4.5
	c0-1.7-1-3.3-1-5.1c0-1,0.2-2.1,0.6-3c0.8-2.4,1.9-4.8,3-7c1-1.7,3.1-2.7,3.7-4.6c0.1-0.8,0.2-1.6,0.1-2.5c0.1-4.1,3.5-6.9,7-7.9
	L34,221.1z"/>
<path class="st4" d="M549.2,316.6h3.9l-1.2-48.8l-0.7-1.2L549.2,316.6z"/>
<path class="st5" d="M550.1,221.1c3.5-0.7,6,3.2,6.6,6.6c0.3,1.8,0.3,3.9,1.7,5.1c0.6,0.4,1.2,0.8,1.9,1.1c3.9,2.1,4.2,6,4.2,9.9
	c-0.1,0.7,0.1,1.3,0.3,1.9c0.3,0.7,1,1,1.5,1.6c0.3,0.4,0.4,0.9,0.5,1.5c1,4.5,0.5,8.6,0.4,13.1c-0.2,31.8-16.7,30.3-16.7,30.3H550
	c-4-0.2-7.6-2.8-10-6c-2.4-3.3-3.8-7.5-4.6-11.6c-0.6-3-0.9-6.1-1-9.1c-0.2-3.3-0.8-6.4,0.3-9.6c0.6-1.4,1.4-2.9,1.5-4.5
	c0-1.7-1-3.3-1-5.1c0-1,0.2-2.1,0.6-3c0.8-2.4,1.9-4.8,3-7c1-1.7,3.1-2.7,3.7-4.6c0.1-0.8,0.2-1.6,0.1-2.5c0.1-4.1,3.5-6.9,7-7.9
	L550.1,221.1z"/>
<path class="st6" d="M351.6,294.1c-3.2,4.9-5,10.6-5,16.4c0,7.8,3.1,15.4,8.7,20.8c5.5,5.5,13,8.6,20.9,8.7c5.8,0,11.5-1.7,16.4-5
	c4.9-3.2,8.6-7.8,10.9-13.2c2.2-5.4,2.8-11.3,1.7-17.1c-1.1-5.7-3.9-11-8.1-15.1c-4.2-4.2-9.4-7-15.1-8.1c-5.7-1.1-11.6-0.6-17,1.7
	C359.4,285.4,354.8,289.2,351.6,294.1z"/>
<path class="st6" d="M145,294.1c-3.2,4.9-5,10.6-5,16.4c0,7.8,3.1,15.4,8.7,20.8c5.5,5.5,13,8.6,20.9,8.7c5.8,0,11.5-1.7,16.4-5
	c4.9-3.2,8.6-7.8,10.9-13.2c2.2-5.4,2.8-11.3,1.7-17.1c-1.1-5.7-3.9-11-8.1-15.1c-4.2-4.2-9.4-7-15.1-8.1c-5.7-1.1-11.6-0.6-17,1.7
	C152.7,285.4,148.2,289.2,145,294.1z"/>
<path class="st7" d="M479.3,153.3H369.6v139.6h109.7V153.3z"/>
<path class="st8" d="M474.9,258.4h-33v33h33V258.4z"/>
<path class="st9" d="M425.5,252.8l16.5,5.5v32.9l-16.5-5.4V252.8z"/>
<path class="st10" d="M474.9,258.4l-16.4-5.5h-33l16.5,5.5H474.9z"/>
<path class="st11" d="M437,280.5v9.2l-4.9-1.6v-9.3L437,280.5z"/>
<path class="st12" d="M437,256.7v9.3l-4.9-1.6v-9.3L437,256.7z"/>
<path class="st13" d="M465,255.1l0.7,0.2l1,0.3l3.5,1.1H437l-4.9-1.6H465z"/>
<path class="st14" d="M454.6,271.9h-19.5v19.5h19.5V271.9z"/>
<path class="st8" d="M425.4,268.7l9.8,3.2v19.4l-9.8-3.2V268.7z"/>
<path class="st15" d="M454.6,271.9l-9.7-3.2h-19.5l9.8,3.2H454.6z"/>
<path class="st13" d="M432.2,285v5.4l-3-0.9v-5.4L432.2,285z M432.2,270.9v5.4l-3-1V270L432.2,270.9z"/>
<path class="st16" d="M448.7,270l0.3,0.1l0.6,0.3l2,0.6h-19.6l-3-1h19.6V270z"/>
<path class="st17" d="M430.5,229.4h-42.4v61.9h42.4V229.4z"/>
<path class="st18" d="M367,228.6l21.2,0.9v61.9l-21.2,0.1V228.6z"/>
<path class="st19" d="M381.7,273.8v17.5h-6.4v-20.5L381.7,273.8z"/>
<path class="st20" d="M382,291H53.7c-3.2,0-5.7,2.5-5.7,5.5v11.9c0,3,2.5,5.5,5.7,5.5l328.3-0.4V291z"/>
<path class="st21" d="M196.2,314h11.7c1.7,0,3.2-1.3,3.2-3v-20h-18v20C193,312.7,194.4,314,196.2,314z"/>
<path class="st22" d="M55.1,291.4H180v-103h-62.8c-6,0-11.9,1.5-17.3,4.4c-5.3,2.9-9.8,7-13.2,12l-25.6,38.1
	c-4,6.2-6.3,13.4-6.3,20.8L55.1,291.4z"/>
<path class="st6" d="M151.1,249.2v-49.4h-32.9c-4.2,0-8.3,1.1-12,3c-3.7,1.9-6.8,4.8-9.2,8.2l-25.9,38.3H151.1z"/>
<path class="st23" d="M180,188h-14v104h14V188z"/>
<path class="st24" d="M137.4,257.4h11.1c0.6,0,1.3-0.2,1.8-0.7c0.4-0.4,0.7-1.1,0.7-1.8v-1.5h-16.2v1.5c0,0.6,0.3,1.3,0.7,1.8
	C136.1,257.2,136.7,257.4,137.4,257.4z"/>
<path class="st25" d="M64.8,278.2c0-2.6-1.1-5.1-2.9-6.9c-1.8-1.8-4.4-2.9-6.9-2.9V288c2.6,0,5.1-1.1,6.9-2.9
	C63.8,283.3,64.8,280.8,64.8,278.2z"/>
<path class="st26" d="M479.1,291.4H376c-0.9,0-1.7,0.2-2.6,0.5c-0.9,0.3-1.5,0.9-2.1,1.4c-0.6,0.6-1.1,1.4-1.5,2.1
	c-0.3,0.9-0.5,1.7-0.5,2.6v9.1c0,1.7,0.6,3.4,1.9,4.7c1.3,1.3,2.9,1.9,4.7,1.9h103.2c1.7,0,3.4-0.6,4.7-1.9c1.3-1.3,1.9-2.9,1.9-4.7
	V298c0-1.7-0.7-3.4-1.9-4.7C482.6,292,480.9,291.4,479.1,291.4z"/>
<path class="st27" d="M387.9,302.6c0-1-0.3-1.8-0.9-2.7c-0.5-0.7-1.3-1.4-2.1-1.7c-0.9-0.3-1.8-0.4-2.8-0.3c-1,0.1-1.8,0.6-2.5,1.3
	c-0.6,0.6-1.1,1.5-1.3,2.5c-0.2,1-0.1,1.9,0.3,2.8c0.3,0.9,1,1.6,1.7,2.1c0.7,0.5,1.7,0.9,2.7,0.9c0.6,0,1.3-0.1,1.8-0.3
	c0.5-0.2,1.1-0.5,1.5-1.1c0.4-0.4,0.7-1,1.1-1.5C387.8,303.9,387.9,303.2,387.9,302.6z"/>
<path class="st25" d="M396.1,302.6c0-0.6-0.2-1.2-0.6-1.6s-1.1-0.6-1.6-0.6c-0.6,0-1.2,0.2-1.7,0.6c-0.4,0.4-0.7,1.1-0.7,1.6
	c0,0.3,0.1,0.6,0.2,0.9c0.1,0.2,0.3,0.5,0.5,0.7c0.2,0.2,0.4,0.4,0.7,0.5c0.3,0.1,0.6,0.2,0.9,0.2h0.1c0.6,0,1.2-0.2,1.6-0.5
	c0.4-0.4,0.7-1,0.7-1.5v-0.3H396.1z"/>
<path class="st27" d="M470,302.6c0,1,0.3,1.8,0.9,2.7c0.5,0.7,1.3,1.4,2.1,1.7c0.9,0.3,1.8,0.4,2.8,0.3c1-0.1,1.8-0.6,2.5-1.3
	c0.6-0.6,1.1-1.5,1.3-2.5c0.2-1,0.1-1.9-0.3-2.8c-0.3-0.9-1-1.6-1.7-2.1c-0.7-0.5-1.7-0.9-2.7-0.9c-1.3,0-2.4,0.5-3.3,1.4
	C470.6,300.1,470,301.3,470,302.6z"/>
<path class="st25" d="M461.8,302.6c0,0.4,0.1,1,0.4,1.3c0.2,0.4,0.6,0.6,1.1,0.9c0.4,0.2,0.9,0.2,1.4,0.1c0.4-0.1,0.9-0.3,1.2-0.6
	c0.3-0.3,0.5-0.7,0.6-1.2c0.1-0.4,0-1-0.1-1.4c-0.2-0.4-0.4-0.7-0.9-1.1c-0.4-0.2-0.9-0.4-1.3-0.4c-0.6,0-1.2,0.2-1.6,0.6
	s-0.7,1-0.7,1.6v0.2H461.8z"/>
<path class="st23" d="M479.3,153.3h-53.8h-27h-13.4h-6.7H376l-4.3,6.4h107.6V153.3z"/>
<path class="st28" d="M166,267.3l-52.2,18.3c0,0,5.1,3.8,6.8,6.2H166V267.3z"/>
<path class="st29" d="M114.3,285.7l51.9-16.6v-11.3L105.3,282C108.5,282.8,111.6,284,114.3,285.7z"/>
<path class="st22" d="M376,153H178v138h198V153z"/>
<path class="st28" d="M376,263l-198,4.4V292h198V263z"/>
<path class="st29" d="M178,268l198-4.2V250l-198,6.8V268z"/>
<path class="st6" d="M302.6,281.1c8.6,0,16.9,3.4,23,9.6c6.1,6.1,9.6,14.4,9.6,23H270c0-4.3,0.9-8.5,2.5-12.5c1.6-3.9,4-7.6,7-10.5
	c3-3,6.6-5.4,10.5-7c3.9-1.6,8.2-2.5,12.5-2.5h0.1V281.1z"/>
<path class="st6" d="M306.9,286.2c7,0.1,13.7,3,18.8,8c5,5,7.9,11.6,8.1,18.8c0.2,7-2.3,13.9-7,19.2c-4.7,5.2-11.3,8.4-18.3,9.1
	h-9.2v-54.9L306.9,286.2z"/>
<path class="st26" d="M274,313.5c0-5.4,1.6-10.8,4.6-15.2c3-4.5,7.4-8,12.4-10.1c5-2.1,10.5-2.7,15.9-1.6c5.3,1.1,10.2,3.6,14.1,7.6
	c3.8,3.8,6.5,8.7,7.6,14.1c1.1,5.3,0.5,10.9-1.6,15.9c-2.1,5-5.6,9.3-10.1,12.4c-4.5,3-9.8,4.6-15.2,4.6c-7.2,0-14.3-2.9-19.4-8
	C276.9,327.8,274,320.9,274,313.5z"/>
<path class="st28" d="M301.3,327.1c-7.5,0-13.4-6.1-13.4-13.4c0-7.5,6.1-13.4,13.4-13.4c7.4,0,13.4,6.1,13.4,13.4
	C314.9,321,308.8,327.1,301.3,327.1z"/>
<path class="st6" d="M97.4,281.1c8.6,0,16.9,3.4,23,9.6c6.1,6.1,9.6,14.4,9.6,23H64.8c0-4.3,0.9-8.5,2.5-12.5c1.6-3.9,4-7.6,7-10.5
	c3-3,6.6-5.4,10.5-7c3.9-1.6,8.2-2.5,12.5-2.5h0.1V281.1z"/>
<path class="st6" d="M101.8,286.2c7,0.1,13.7,3,18.8,8c5,5,7.9,11.7,8.1,18.8c0.2,7-2.3,13.9-7,19.2c-4.7,5.2-11.3,8.4-18.3,9.1
	h-9.1v-54.9L101.8,286.2z"/>
<path class="st26" d="M68.7,313.5c0-5.4,1.6-10.8,4.6-15.2c3-4.5,7.4-8,12.4-10.1c5-2.1,10.5-2.7,15.9-1.6
	c5.3,1.1,10.2,3.6,14.1,7.6c3.8,3.8,6.5,8.7,7.6,14.1c1.1,5.3,0.5,10.9-1.6,15.9c-2.1,5-5.6,9.3-10.1,12.4c-4.5,3-9.8,4.6-15.2,4.6
	c-7.2,0-14.3-2.9-19.4-8C71.7,327.8,68.7,320.9,68.7,313.5z"/>
<path class="st28" d="M96.1,327.1c-7.5,0-13.4-6.1-13.4-13.4c0-7.5,6.1-13.4,13.4-13.4c7.4,0,13.4,6.1,13.4,13.4
	C109.7,321,103.6,327.1,96.1,327.1z"/>
<path class="st30" d="M489.2,238c0.3,0,0.7,0.6,1.2,1.7c0.2,0.5,0.5,1.2,0.8,1.9c0.3,0.8,0.6,1.6,1.1,2.4c0.4,0.9,0.9,1.8,1.5,2.6
	c0.3,0.4,0.6,0.9,1,1.3c0.3,0.4,0.7,0.8,1.1,1.2c0.4,0.4,0.8,0.7,1.3,1c0.4,0.3,0.9,0.5,1.4,0.7c0.5,0.2,0.9,0.3,1.4,0.4
	c0.1,0,0.2,0.1,0.4,0.1l0.4,0.1c0.2,0,0.5,0,0.7,0c1.1,0,2-0.2,3-0.5c0.5-0.2,1-0.3,1.6-0.5c0.3-0.1,0.5-0.2,0.7-0.3
	s0.5-0.2,0.7-0.3c0.5-0.2,0.9-0.5,1.4-0.7c0.4-0.3,0.9-0.5,1.3-0.8c0.8-0.6,1.6-1.1,2.3-1.7c0.7-0.5,1.4-1,2.1-1.4
	c0.6-0.4,1.2-0.8,1.8-1.1c0.5-0.2,1-0.4,1.5-0.5c0.4-0.1,0.8,0,1.2,0.2c0.3,0.2,0.6,0.6,0.6,1c0.1,0.6,0.1,1.1,0,1.7
	c-0.1,0.8-0.4,1.6-0.7,2.2c-0.4,1-0.9,1.8-1.5,2.6c-0.7,1.1-1.6,2-2.5,2.9c-0.5,0.5-1.1,1-1.7,1.5c-0.7,0.5-1.3,0.9-2,1.3
	c-0.4,0.2-0.7,0.4-1.1,0.6c-0.4,0.2-0.8,0.4-1.2,0.5c-0.9,0.3-1.7,0.6-2.5,0.8c-1.9,0.4-3.9,0.5-5.8,0.2c-0.5-0.1-1.1-0.2-1.6-0.4
	l-0.7-0.2c-0.3-0.1-0.5-0.2-0.7-0.3c-0.9-0.4-1.8-0.9-2.6-1.5c-0.8-0.6-1.5-1.2-2.1-1.8c-0.6-0.6-1.1-1.3-1.6-2
	c-0.4-0.7-0.8-1.4-1.2-2.1c-0.3-0.7-0.5-1.4-0.7-2c-0.3-1.2-0.6-2.4-0.7-3.6c-0.1-1-0.1-1.9-0.1-2.9c0-0.7,0.1-1.5,0.2-2.1
	C488.6,238.7,488.9,238.1,489.2,238z"/>
<path class="st4" d="M505.6,253.6c-0.4,6-0.4,12,0,18c5.7,1.8,11.8,2.3,17.8,1.5c0.4-6.1,0.8-12.2,0.8-18.3c0-3.2-0.1-6.4-1-9.5
	c-0.8-2.7-2.3-5.3-4.6-7c-0.3-0.2-0.5-0.4-0.8-0.5c-1.4,1.1-4.2,1.6-5.7,0.8c-0.9,0.6-1.6,1.3-2.2,1.9c-1.2,1.4-2,3-2.6,4.8
	C506.2,248,505.8,250.8,505.6,253.6z"/>
<path class="st31" d="M509.7,240.5c1.6,0.4,3.1,0.4,4.6,0c0.8-0.2,1.6-0.5,2.3-0.9c0.6-0.3,1.2-0.7,1.7-1.2v-0.4V238l-0.1-0.5
	c-0.3-1.7-0.6-3.4-0.8-5.2c-0.2-1.6-0.5-3.1-0.7-4.8c-1.8,0.9-3.5,1.9-5.1,3.1c0,1.1-0.1,2.1-0.2,3.2c-0.1,0.9-0.2,1.8-0.3,2.7
	c-0.1,0.5-0.1,1-0.2,1.5c-0.1,0.5-0.2,1-0.3,1.5C510.4,239.8,510,240.1,509.7,240.5z"/>
<path class="st32" d="M511.2,236.6c1.8-1.7,4-3.1,6.2-4.2c-0.2-1.6-0.4-3.1-0.7-4.8c-1.8,0.9-3.5,1.9-5.1,3.1c0,1.1-0.1,2.1-0.2,3.2
	C511.5,234.8,511.4,235.7,511.2,236.6z"/>
<path class="st26" d="M544.4,325c0,0,0,4.2-3.8,4.1l-0.7,15.1l10.4-17.9L544.4,325z"/>
<path class="st4" d="M542.6,335.6c0-0.1-0.1-0.2-0.1-0.2c-0.1-0.1-0.2-0.1-0.2-0.1c-0.9,0.1-1.7,0.3-2.4,0.7c-0.1,0-0.1,0.1-0.2,0.2
	c0,0.1,0,0.2,0,0.3c0,0,0,0.1,0.1,0.1c0,0,0.1,0,0.1,0.1c0.1,0,0.2,0,0.3,0c0.7-0.3,1.5-0.5,2.2-0.6c0.1,0,0.1,0,0.2-0.1
	c0.1,0,0.1-0.1,0.1-0.1C542.6,335.8,542.6,335.7,542.6,335.6z M542.7,333.7L542.7,333.7c0-0.1,0-0.2-0.1-0.2c0,0-0.1,0-0.1-0.1h-0.1
	c-0.9,0.1-1.7,0.3-2.4,0.7c0,0-0.1,0-0.1,0.1c0,0.1-0.1,0.1-0.1,0.1c0,0.1,0,0.2,0,0.3c0,0,0,0.1,0.1,0.1c0,0,0.1,0,0.1,0.1h0.1h0.1
	c0.7-0.3,1.5-0.5,2.2-0.6c0.1,0,0.1,0,0.2-0.1c0.1,0,0.1-0.1,0.1-0.1C542.7,333.8,542.7,333.8,542.7,333.7z M542.9,331.9
	L542.9,331.9c0-0.1,0-0.2-0.1-0.2c-0.1,0-0.1-0.1-0.2-0.1c-0.9,0.1-1.7,0.3-2.4,0.7c-0.1,0-0.1,0.1-0.2,0.2c0,0.1,0,0.2,0,0.3
	c0,0.1,0.1,0.1,0.2,0.2c0.1,0,0.2,0,0.3,0c0.7-0.3,1.5-0.5,2.2-0.6c0.1,0,0.1,0,0.2-0.1c0.1,0,0.1-0.1,0.1-0.1
	C542.9,332,542.9,331.9,542.9,331.9z M541.8,344.5c0,0.1-0.1,0.1-0.1,0.2c-0.1,0-0.1,0.1-0.2,0.1c-0.1,0-0.1,0-0.2,0s-0.1,0-0.2-0.1
	L540,344l10.4-17.9l1.1,0.7c0.1,0,0.1,0.1,0.2,0.1c0,0.1,0.1,0.1,0.1,0.2c0,0.1,0,0.1,0,0.2c0,0.1,0,0.1-0.1,0.2L541.8,344.5z"/>
<path class="st26" d="M502.7,340.3c0,0-3.7,1.9-5.4-1.5l-13.7,6.4l20.7,0.9L502.7,340.3z"/>
<path class="st4" d="M492.1,343.7c0.1,0,0.1,0,0.2,0c0.1,0,0.1,0,0.2,0l0.1-0.1v-0.1v-0.1c0,0,0-0.1-0.1-0.1
	c-0.5-0.7-1.1-1.4-1.8-1.8c-0.1-0.1-0.2-0.1-0.3-0.1c-0.1,0-0.2,0.1-0.2,0.1v0.1v0.1v0.1l0.1,0.1c0.6,0.5,1.1,1.1,1.6,1.7
	C492,343.6,492.1,343.7,492.1,343.7z M493.9,343c0.1,0,0.1,0,0.2,0c0.1,0,0.1,0,0.2,0l0.1-0.1v-0.1v-0.1c0,0,0-0.1-0.1-0.1
	c-0.5-0.7-1.1-1.4-1.8-1.8c0,0-0.1,0-0.1-0.1h-0.1h-0.1l-0.1,0.1c0,0.1-0.1,0.2,0,0.2c0,0.1,0.1,0.2,0.1,0.2
	c0.6,0.5,1.2,1.1,1.6,1.7C493.8,343,493.8,343,493.9,343z M495.6,342.2c0.1,0,0.1,0,0.2,0c0.1,0,0.1-0.1,0.2-0.1
	c0-0.1,0.1-0.1,0.1-0.2c0-0.1,0-0.1,0-0.2c-0.5-0.7-1.1-1.4-1.8-1.9c-0.1-0.1-0.2-0.1-0.3-0.1c-0.1,0-0.2,0.1-0.2,0.1v0.1v0.1
	c0,0.1,0.1,0.2,0.1,0.2c0.6,0.5,1.2,1.1,1.6,1.7C495.5,342.1,495.5,342.2,495.6,342.2z M484,347.1c-0.2-0.1-0.3-0.2-0.4-0.4
	c0-0.1,0-0.2,0-0.3v-1.2l20.7,0.9l-0.1,1.2c0,0.1,0,0.2-0.1,0.3c0,0.1-0.1,0.2-0.2,0.2c-0.1,0.1-0.3,0.2-0.5,0.2L484,347.1
	C484.2,347.1,484.1,347.1,484,347.1z"/>
<path class="st33" d="M523.8,276.5c0,0-4.8,28.1,23.7,48.2l-7.7,8.4c0,0-31.9-21.9-28.6-50.1L523.8,276.5z"/>
<path class="st34" d="M524.8,292.9c-0.5,0.6-0.9,1.2-1.3,1.8c-1.1,1.6-2,3.3-2.8,5.1c-1.4,2.9-2.5,5.9-3.4,9.1
	c-4.4-7.5-7.3-16.3-6.1-25.8l12.6-6.4C523.8,276.6,522.6,283.5,524.8,292.9z"/>
<path class="st35" d="M505.5,248.6c-1.3,9.9-1.4,20-0.5,30c0,0-15.7,30.8-12.3,61.6l12,3c0,0,2.7-40.6,19-61.1l0.7-20.3l-12.8-2.1
	l-1.2-10.9L505.5,248.6z"/>
<path class="st33" d="M523.6,264c0.1,0,0.2-0.1,0.4-0.4c0.1-0.2,0.2-0.3,0.2-0.5c0.1-0.2,0.2-0.5,0.2-0.7c0-0.1,0.1-0.3,0.1-0.4
	c0-0.1,0.1-0.3,0.1-0.5c0-0.2,0.1-0.4,0.1-0.5c0-0.2,0.1-0.4,0.1-0.6c0-0.2,0.1-0.4,0.1-0.6l0.1-0.7c0.1-0.5,0.1-1,0.1-1.4
	c0.1-1.1,0.1-2.2,0-3.3c-0.1-1.3-0.2-2.5-0.4-3.8c-0.2-1.4-0.5-2.7-0.9-4.1c-0.4-1.6-1-3-1.8-4.3c-0.5-0.7-1.1-1.4-1.7-1.9
	c-0.7-0.6-1.4-1-2.1-1.3c-0.4-0.2-0.8-0.3-1.3-0.3h-1.3c-0.8,0.1-1.6,0.3-2.2,0.6c-0.7,0.3-1.3,0.7-1.8,1.2
	c-0.1,0.1-0.3,0.2-0.4,0.4l-0.4,0.4l-0.3,0.4c-0.1,0.1-0.2,0.3-0.3,0.4c-0.4,0.5-0.7,1.1-0.9,1.6c-0.2,0.5-0.4,1.1-0.6,1.6
	c-0.3,0.9-0.4,1.8-0.5,2.7c-0.1,0.7-0.1,1.4-0.1,2c0,1.2,0.1,1.8,0.2,1.8c0.1,0,0.3-0.6,0.5-1.7c0.1-0.6,0.2-1.3,0.4-1.9
	c0.2-0.9,0.4-1.7,0.7-2.5c0.4-1,0.9-1.8,1.5-2.6c0.1-0.1,0.2-0.2,0.3-0.3l0.3-0.3l0.3-0.3c0.1-0.1,0.2-0.2,0.3-0.3
	c0.4-0.3,0.9-0.6,1.4-0.8c0.5-0.2,1.1-0.3,1.7-0.4h0.9c0.3,0,0.6,0.1,0.8,0.2c1.2,0.5,2,1.4,2.7,2.4c0.7,1.2,1.2,2.4,1.6,3.8
	c0.4,1.4,0.7,2.6,0.9,3.9c0.2,1.3,0.4,2.4,0.5,3.6c0.1,1.2,0.2,2.1,0.2,3.1v5.4c0,0.2,0,0.4,0,0.6
	C523.5,263.8,523.5,263.9,523.6,264z"/>
<path class="st36" d="M499.8,240H476v23.8h23.8V240z"/>
<path class="st37" d="M464,236l12,4v23.8l-12-4V236z"/>
<path class="st38" d="M499.8,240l-12-4H464l12,4H499.8z"/>
<path class="st39" d="M485,241.5h-8.1v3.5h8.1V241.5z"/>
<path class="st40" d="M485.8,259.4v4.6h4.1v-4.6H485.8z M485.8,240v4.7h4.1V240H485.8L485.8,240z M480.1,236h-3.8l9.6,4h4.1
	L480.1,236z"/>
<path class="st31" d="M521.1,249v0.2c0,2.5-0.6,5.1-1.8,7.4c-0.4,0.9-1,1.8-1.6,2.5c-0.6,0.9-1.4,1.7-2.1,2.3
	c-1.7,1.5-3.6,2.5-5.7,3c-1,0.2-1.9,0.4-3,0.4c-1,0-1.9,0-2.8-0.2c-0.9-0.1-1.7-0.3-2.5-0.6c-1.5-0.5-2.8-1.1-4.2-1.8
	c-1.1-0.6-2-1.4-3-2.1c-0.8-0.6-1.5-1.3-2.1-2l-0.2-0.2c-0.4,0-0.9,0-1.3,0c-0.4-0.1-0.9-0.2-1.3-0.3c-0.4-0.1-0.8-0.3-1.2-0.5
	c-0.4-0.2-0.7-0.5-1.1-0.8c-0.7-0.6-1.2-1.3-1.6-2c-0.2-0.4-0.4-0.8-0.5-1.3c-0.1-0.4-0.2-0.9-0.2-1.3c0-0.3,0-0.6,0-0.9
	c0-0.2,0.1-0.4,0.1-0.5c0.1-0.2,0.2-0.3,0.3-0.4c0.8-0.7,1.7,0,2.1,0.7c0.5,0.7,0.9,1.4,1.6,1.6c0.2,0.1,0.5,0.1,0.7,0
	c0.2,0,0.4-0.1,0.6-0.3c0.1,0,0.1-0.1,0.1-0.1c0.1-0.1,0.2-0.2,0.3-0.2c0.1-0.1,0.2-0.1,0.3-0.1c0.1,0,0.2,0,0.3,0
	c0.1,0,0.2,0.1,0.3,0.2c0.1,0.1,0.1,0.1,0.2,0.2c0.2,0.3,0.3,0.6,0.4,1c0.2,0.7,0.4,1.4,0.4,2.1c1.1,0.4,2.2,0.9,3.7,1.4
	c1,0.3,1.9,0.6,3,0.9c1.1,0.2,2.1,0.4,3.2,0.4c0.6,0,1.1,0,1.7-0.1c0.6-0.1,1.1-0.2,1.6-0.3c0.5-0.1,1-0.3,1.4-0.5
	c0.4-0.2,0.9-0.4,1.3-0.7c0.4-0.3,0.7-0.6,1-1c0.3-0.4,0.6-0.7,0.9-1.2c0.5-0.8,1-1.7,1.3-2.6c0.3-0.9,0.6-1.8,0.7-2.7
	c0.1-0.7,0.3-1.4,0.4-2.1c1.2,0.9,2.5,1.5,3.9,1.9C518.1,248.9,519.6,249,521.1,249z"/>
<path class="st35" d="M510.7,215.4c0.2-0.7,0.5-1.3,1-1.8c0.5-0.5,1-0.9,1.6-1.2c1.3-0.5,2.6-0.6,3.9-0.3c0.7,0.2,1.3,0.4,1.9,0.8
	c0.6,0.4,1.2,0.8,1.6,1.3c0.5,0.5,0.9,1.1,1.1,1.8c0.3,0.7,0.4,1.3,0.5,1.9c0.1,2.1-1.2,4.2-2.3,5.9
	C517.5,220.4,514.4,217.5,510.7,215.4z"/>
<path class="st34" d="M509.4,212.9c-0.6-0.4-1.3-0.6-2-0.6c-0.2,0.1-0.5,0.2-0.7,0.3c-0.2,0.1-0.4,0.3-0.5,0.5
	c-0.1,0.2-0.3,0.4-0.3,0.7c-0.1,0.2-0.1,0.5-0.1,0.8c0.1,0.5,0.2,1,0.5,1.5c0.2,0.5,0.6,0.9,1,1.2c0.3,0.3,0.6,0.5,0.9,0.8
	c0.3,0.2,0.7,0.4,1,0.6c0.7,0.4,1.5,0.6,2.2,0.8c0.4,0.1,0.8,0.1,1.2,0.1c0.8,0,1.6-0.1,2.3-0.3c0.4-0.1,0.8-0.2,1.1-0.4
	c0.4-0.2,1.4-0.5,1.6-0.9c0.3-0.6-0.4-0.7-0.9-1C514.2,215.6,511.8,214.2,509.4,212.9z"/>
<path class="st26" d="M509.9,220.4c0.2,0,0.3,0,0.5,0s0.3,0.1,0.5,0.2c0.1,0.1,0.2,0.3,0.2,0.5c0,0.2,0,0.4,0,0.5
	c-0.2,1.3-0.7,2.5-1.4,3.6c-0.3-0.3-0.5-0.7-0.6-1c-0.3-0.8-0.5-1.6-0.4-2.3c0-0.4,0.1-0.8,0.3-1.2
	C509.3,220.8,509.6,220.5,509.9,220.4z M516,226.1c-0.2-1.4-0.1-2.8,0.2-4.2c0.3-1.6,0.9-3,1.8-4.3c0.7,0.6,1.3,1.3,1.7,2
	c0.4,0.9,0.6,1.8,0.7,2.8c0,0.5,0,1,0,1.5s-0.1,1-0.2,1.5c-0.1,0.5-0.3,0.9-0.4,1.4c-0.2,0.5-0.4,0.9-0.6,1.3
	c-0.2,0.4-0.5,0.8-0.8,1.2c-0.3,0.4-0.7,0.7-1,1.1C516.5,228.9,516.1,227.5,516,226.1z"/>
<path class="st31" d="M510,220.1c0.3,1.8-0.5,3.4-1.2,5.1c-0.7,1.7-1.3,3.4-0.7,5.1c0.2,0.4,0.5,0.8,0.8,1.1
	c0.3,0.3,0.7,0.6,1.1,0.8c0.4,0.2,0.8,0.4,1.3,0.5c0.5,0.1,0.9,0.1,1.4,0c0.9-0.2,1.8-0.5,2.4-1.1c0.7-0.6,1.4-1.3,1.8-2
	c0.4-0.8,0.7-1.7,0.9-2.5c0.2-0.9,0.2-1.8,0.1-2.7c-0.2-1.8-0.6-3.6-1.2-5.3C514.4,217.8,511.9,218.6,510,220.1z"/>
<path class="st31" d="M517.3,224.7c0.2-0.2,0.5-0.5,0.7-0.6c0.1-0.1,0.3-0.1,0.5-0.2c0.2,0,0.3,0,0.5,0c0.2,0.1,0.4,0.2,0.5,0.4
	c0.1,0.2,0.2,0.4,0.3,0.6c0.1,0.2,0.1,0.4,0.1,0.6c0,0.2,0,0.4-0.1,0.6c-0.1,0.2-0.1,0.4-0.3,0.6c-0.1,0.2-0.3,0.3-0.4,0.5
	c-0.2,0.1-0.3,0.2-0.5,0.3c-0.2,0.1-0.4,0.1-0.6,0.1c-0.2,0-0.4,0-0.6,0c-0.2,0-0.4-0.1-0.6-0.2C517,226.5,517.2,225.6,517.3,224.7z
	"/>
<path class="st26" d="M508.8,221.5c2.5,0.1,5.1-0.6,7.3-1.8c-0.2,0.8-0.2,1.6,0,2.3c0.2,0.6,0.4,1.1,0.7,1.6
	c0.3,0.5,0.7,0.9,1.2,1.3c1.1-1.5,1.5-3.2,1.3-5.1c0-0.2-0.1-0.4-0.1-0.6c-0.4-0.5-0.8-1-1.2-1.4c-0.7-0.7-1.5-1.2-2.3-1.5
	c-0.6-0.2-1.2-0.4-1.8-0.5c-1.3-0.2-2.4,0-3.7,0.4c-0.6,0.2-1.2,0.5-1.7,0.8c-0.2,0.2-0.4,0.3-0.5,0.5c-0.4,0.4-0.7,1-1,1.5
	c0,0.1-0.1,0.3-0.1,0.4s0,0.3,0,0.4c0,0.1,0,0.3,0.1,0.4c0,0.1,0.1,0.3,0.1,0.4c0.1,0.1,0.1,0.2,0.2,0.3c0.1,0.1,0.2,0.2,0.3,0.3
	c0.1,0.1,0.2,0.2,0.3,0.2c0.1,0.1,0.2,0.1,0.4,0.2C508.3,221.5,508.5,221.5,508.8,221.5z"/>
</svg>
