<svg version="1.1" xmlns="http://www.w3.org/2000/svg" xmlns:xlink="http://www.w3.org/1999/xlink" width="630" height="390" viewBox="0 0 630 390">
<style type="text/css">
	.st0{fill:#EAF1FC;}
	.st1{fill:#F8F8FF;}
	.st2{fill:#CDE4F7;}
	.st3{fill:#E9EDF4;}
	.st4{fill:#FFFFFF;}
	.st5{fill:#ECF7FE;}
	.st6{fill:#0F222C;}
	.st7{fill:#0B2B46;}
	.st8{fill:#1D4259;}
	.st9{fill:#448DCE;}
	.st10{fill:#222846;}
	.st11{fill:#FFDA35;}
	.st12{fill:#F2F2F2;}
	.st13{fill:#F19100;}
	.st14{fill:#3378B6;}
	.st15{fill:#2C6292;}
	.st16{fill:#1A568C;}
	.st17{fill:#114574;}
	.st18{fill:#164F83;}
	.st19{fill:#C07632;}
	.st20{fill:#0C3860;}
	.st21{fill:#11426D;}
	.st22{fill:#25649D;}
	.st23{fill:#3873A9;}
	.st24{fill:#164C7C;}
	.st25{fill:#3679B6;}
	.st26{fill:#2A6EAC;}
	.st27{fill:#23619A;}
	.st28{fill:#FF6A67;}
	.st29{fill:#57B7FF;}
	.st30{fill:#276195;}
	.st31{fill:#FF524F;}
	.st32{fill:#1B313C;}
	.st33{fill:#F9F8F9;}
	.st34{fill:#F8C47A;}
	.st35{fill:#E19A54;}
	.st36{fill:#FFDF9A;}
	.st37{fill:#D38137;}
	.st38{fill:#E4E6E6;}
	.st39{fill:#E5B571;}
	.st40{fill:#CE8D4D;}
	.st41{fill:#ECCF8F;}
	.st42{fill:#ADBF5B;}
	.st43{fill:#C8D540;}
	.st44{fill:#F18419;}
	.st45{fill:#E08F73;}
	.st46{fill:#F09976;}
	.st47{fill:#E8815F;}
	.st48{fill:#047487;}
	.st49{fill:#05616B;}
	.st50{fill:#02819F;}
</style>
<path class="st0" d="M314.5,380c173.7,0,314.5-25.1,314.5-56s-140.8-56-314.5-56S0,293.1,0,324S140.8,380,314.5,380z"/>
<path class="st1" d="M599.6,301.9c29.2-73.2,48.3-220.3-40.2-266.7c-57.9-30.3-118.3,8.7-180.2,10.5C330.6,47,283.7,14,239.9,4.6
	C124.9-20.1-55.9,51.6,23.6,301.9C222.4,301.4,400.8,302.3,599.6,301.9z"/>
<path class="st2" d="M368,68h103v235H368V68z"/>
<path class="st3" d="M368,68h32v235h-32V68z"/>
<path class="st4" d="M459.1,74h4.9v8h-4.9V74z M450.3,74h4.9v8h-4.9V74z M441.4,74h4.9v8h-4.9V74z M432.5,74h4.9v8h-4.9V74z
	 M423.7,74h4.9v8h-4.9V74z M414.8,74h4.9v8h-4.9V74z M405.9,74h4.9v8h-4.9V74z M389.7,74h4.9v8h-4.9V74z M380.9,74h4.9v8h-4.9V74z
	 M372,74h4.9v8H372V74z M459.1,90.8h4.9v8h-4.9V90.8z M450.3,90.8h4.9v8h-4.9V90.8z M441.4,90.8h4.9v8h-4.9V90.8z M432.5,90.8h4.9v8
	h-4.9V90.8z M423.7,90.8h4.9v8h-4.9V90.8z M414.8,90.8h4.9v8h-4.9V90.8z M405.9,90.8h4.9v8h-4.9V90.8z M389.7,90.8h4.9v8h-4.9V90.8z
	 M380.9,90.8h4.9v8h-4.9V90.8z M372,90.8h4.9v8H372V90.8z M459.1,107.6h4.9v8h-4.9V107.6z M450.3,107.6h4.9v8h-4.9V107.6z
	 M441.4,107.6h4.9v8h-4.9V107.6z M432.5,107.6h4.9v8h-4.9V107.6z M423.7,107.6h4.9v8h-4.9V107.6z M414.8,107.6h4.9v8h-4.9V107.6z
	 M405.9,107.6h4.9v8h-4.9V107.6z M389.7,107.6h4.9v8h-4.9V107.6z M380.9,107.6h4.9v8h-4.9V107.6z M372,107.6h4.9v8H372V107.6z
	 M459.1,124.3h4.9v8h-4.9V124.3z M450.3,124.3h4.9v8h-4.9V124.3z M441.4,124.3h4.9v8h-4.9V124.3z M432.5,124.3h4.9v8h-4.9V124.3z
	 M423.7,124.3h4.9v8h-4.9V124.3z M414.8,124.3h4.9v8h-4.9V124.3z M405.9,124.3h4.9v8h-4.9V124.3z M389.7,124.3h4.9v8h-4.9V124.3z
	 M380.9,124.3h4.9v8h-4.9V124.3z M372,124.3h4.9v8H372V124.3z M459.1,141.1h4.9v8h-4.9V141.1z M450.3,141.1h4.9v8h-4.9V141.1z
	 M441.4,141.1h4.9v8h-4.9V141.1z M432.5,141.1h4.9v8h-4.9V141.1z M423.7,141.1h4.9v8h-4.9V141.1z M414.8,141.1h4.9v8h-4.9V141.1z
	 M405.9,141.1h4.9v8h-4.9V141.1z M389.7,141.1h4.9v8h-4.9V141.1z M380.9,141.1h4.9v8h-4.9V141.1z M372,141.1h4.9v8H372V141.1z
	 M459.1,157.9h4.9v8h-4.9V157.9z M450.3,157.9h4.9v8h-4.9V157.9z M441.4,157.9h4.9v8h-4.9V157.9z M432.5,157.9h4.9v8h-4.9V157.9z
	 M423.7,157.9h4.9v8h-4.9V157.9z M414.8,157.9h4.9v8h-4.9V157.9z M405.9,157.9h4.9v8h-4.9V157.9z M389.7,157.9h4.9v8h-4.9V157.9z
	 M380.9,157.9h4.9v8h-4.9V157.9z M372,157.9h4.9v8H372V157.9z M459.1,174.6h4.9v8h-4.9V174.6z M450.3,174.6h4.9v8h-4.9V174.6z
	 M441.4,174.6h4.9v8h-4.9V174.6z M432.5,174.6h4.9v8h-4.9V174.6z M423.7,174.6h4.9v8h-4.9V174.6z M414.8,174.6h4.9v8h-4.9V174.6z
	 M405.9,174.6h4.9v8h-4.9V174.6z M389.7,174.6h4.9v8h-4.9V174.6z M380.9,174.6h4.9v8h-4.9V174.6z M372,174.6h4.9v8H372V174.6z
	 M459.1,191.3h4.9v8h-4.9V191.3z M450.3,191.3h4.9v8h-4.9V191.3z M441.4,191.3h4.9v8h-4.9V191.3z M432.5,191.3h4.9v8h-4.9V191.3z
	 M423.7,191.3h4.9v8h-4.9V191.3z M414.8,191.3h4.9v8h-4.9V191.3z M405.9,191.3h4.9v8h-4.9V191.3z M389.7,191.3h4.9v8h-4.9V191.3z
	 M380.9,191.3h4.9v8h-4.9V191.3z M372,191.3h4.9v8H372V191.3z M459.1,208.1h4.9v8h-4.9V208.1z M450.3,208.1h4.9v8h-4.9V208.1z
	 M441.4,208.1h4.9v8h-4.9V208.1z M432.5,208.1h4.9v8h-4.9V208.1z M423.7,208.1h4.9v8h-4.9V208.1z M414.8,208.1h4.9v8h-4.9V208.1z
	 M405.9,208.1h4.9v8h-4.9V208.1z M389.7,208.1h4.9v8h-4.9V208.1z M380.9,208.1h4.9v8h-4.9V208.1z M372,208.1h4.9v8H372V208.1z
	 M459.1,224.9h4.9v8h-4.9V224.9z M450.3,224.9h4.9v8h-4.9V224.9z M441.4,224.9h4.9v8h-4.9V224.9z M432.5,224.9h4.9v8h-4.9V224.9z
	 M423.7,224.9h4.9v8h-4.9V224.9z M414.8,224.9h4.9v8h-4.9V224.9z M405.9,224.9h4.9v8h-4.9V224.9z M389.7,224.9h4.9v8h-4.9V224.9z
	 M380.9,224.9h4.9v8h-4.9V224.9z M372,224.9h4.9v8H372V224.9z M459.1,241.7h4.9v8h-4.9V241.7z M450.3,241.7h4.9v8h-4.9V241.7z
	 M441.4,241.7h4.9v8h-4.9V241.7z M432.5,241.7h4.9v8h-4.9V241.7z M423.7,241.7h4.9v8h-4.9V241.7z M414.8,241.7h4.9v8h-4.9V241.7z
	 M405.9,241.7h4.9v8h-4.9V241.7z M389.7,241.7h4.9v8h-4.9V241.7z M380.9,241.7h4.9v8h-4.9V241.7z M372,241.7h4.9v8H372V241.7z
	 M459.1,258.5h4.9v8h-4.9V258.5z M450.3,258.5h4.9v8h-4.9V258.5z M441.4,258.5h4.9v8h-4.9V258.5z M432.5,258.5h4.9v8h-4.9V258.5z
	 M423.7,258.5h4.9v8h-4.9V258.5z M414.8,258.5h4.9v8h-4.9V258.5z M405.9,258.5h4.9v8h-4.9V258.5z M389.7,258.5h4.9v8h-4.9V258.5z
	 M380.9,258.5h4.9v8h-4.9V258.5z M372,258.5h4.9v8H372V258.5z M459.1,275.2h4.9v8h-4.9V275.2z M450.3,275.2h4.9v8h-4.9V275.2z
	 M441.4,275.2h4.9v8h-4.9V275.2z M432.5,275.2h4.9v8h-4.9V275.2z M423.7,275.2h4.9v8h-4.9V275.2z M414.8,275.2h4.9v8h-4.9V275.2z
	 M405.9,275.2h4.9v8h-4.9V275.2z M389.7,275.2h4.9v8h-4.9V275.2z M380.9,275.2h4.9v8h-4.9V275.2z M372,275.2h4.9v8H372V275.2z
	 M459.1,292h4.9v8h-4.9V292z M450.3,292h4.9v8h-4.9V292z M441.4,292h4.9v8h-4.9V292z M432.5,292h4.9v8h-4.9V292z M423.7,292h4.9v8
	h-4.9V292z M414.8,292h4.9v8h-4.9V292z M405.9,292h4.9v8h-4.9V292z M389.7,292h4.9v8h-4.9V292z M380.9,292h4.9v8h-4.9V292z M372,292
	h4.9v8H372V292z"/>
<path class="st2" d="M65,98.7h95.2v204.2H65V98.7z"/>
<path class="st3" d="M65,98.7h29.7v204.2H65V98.7z"/>
<path class="st4" d="M125.7,108.4h4.4V131h-4.4V108.4z M117.7,108.4h4.4V131h-4.4V108.4z M109.8,108.4h4.4V131h-4.4V108.4z
	 M101.7,108.4h4.4V131h-4.4V108.4z M87.1,108.4h4.4V131h-4.4V108.4z M79.1,108.4h4.4V131h-4.4V108.4z M71.1,108.4h4.4V131h-4.4
	V108.4z M125.7,134h4.4v22.6h-4.4V134z M117.7,134h4.4v22.6h-4.4V134z M109.8,134h4.4v22.6h-4.4V134z M101.7,134h4.4v22.6h-4.4V134z
	 M87.1,134h4.4v22.6h-4.4V134z M79.1,134h4.4v22.6h-4.4V134z M71.1,134h4.4v22.6h-4.4V134z M125.7,159.5h4.4V182h-4.4V159.5z
	 M117.7,159.5h4.4V182h-4.4V159.5z M109.8,159.5h4.4V182h-4.4V159.5z M101.7,159.5h4.4V182h-4.4V159.5z M87.1,159.5h4.4V182h-4.4
	V159.5z M79.1,159.5h4.4V182h-4.4V159.5z M71.1,159.5h4.4V182h-4.4V159.5z M125.7,184.9h4.4v22.6h-4.4V184.9z M117.7,184.9h4.4v22.6
	h-4.4V184.9z M109.8,184.9h4.4v22.6h-4.4V184.9z M101.7,184.9h4.4v22.6h-4.4V184.9z M87.1,184.9h4.4v22.6h-4.4V184.9z M79.1,184.9
	h4.4v22.6h-4.4V184.9z M71.1,184.9h4.4v22.6h-4.4V184.9z M117.7,210.5h4.4V233h-4.4V210.5z M109.8,210.5h4.4V233h-4.4V210.5z
	 M101.7,210.5h4.4V233h-4.4V210.5z M87.1,210.5h4.4V233h-4.4V210.5z M79.1,210.5h4.4V233h-4.4V210.5z M71.1,210.5h4.4V233h-4.4
	V210.5z M109.8,236h4.4v22.6h-4.4V236z M101.7,236h4.4v22.6h-4.4V236z M87.1,236h4.4v22.6h-4.4V236z M79.1,236h4.4v22.6h-4.4V236z
	 M71.1,236h4.4v22.6h-4.4V236z M109.8,261.5h4.4v22.6h-4.4V261.5z M101.7,261.5h4.4v22.6h-4.4V261.5z M87.1,261.5h4.4v22.6h-4.4
	V261.5z M79.1,261.5h4.4v22.6h-4.4V261.5z M71.1,261.5h4.4v22.6h-4.4V261.5z"/>
<path class="st2" d="M240.4,115.7h66.1V303h-66.1V115.7z"/>
<path class="st5" d="M240.4,115.7h20.5V303h-20.5V115.7z"/>
<path class="st4" d="M240.5,122.4h66.1v1.6h-66.1V122.4z M240.5,134.7h66.1v1.6h-66.1V134.7z M240.5,147.1h66.1v1.6h-66.1V147.1z
	 M240.5,159.5h66.1v1.6h-66.1V159.5z M240.5,171.9h66.1v1.6h-66.1V171.9z M240.5,184.2h66.1v1.6h-66.1V184.2z M240.5,196.6h66.1v1.6
	h-66.1V196.6z M240.5,208.9h66.1v1.6h-66.1V208.9z M240.5,221.3h66.1v1.6h-66.1V221.3z M240.5,233.7h66.1v1.6h-66.1V233.7z
	 M240.5,246.1h66.1v1.6h-66.1V246.1z M240.5,258.4h66.1v1.6h-66.1V258.4z M240.5,270.8h66.1v1.6h-66.1V270.8z M240.5,283.1h66.1v1.6
	h-66.1V283.1z"/>
<path class="st2" d="M470.1,153h103.7V303H470.1V153z"/>
<path class="st3" d="M470.1,153h32.3V303h-32.3V153z"/>
<path class="st4" d="M470.1,161.1h103.7v1.2H470.1V161.1z M470.1,171h103.7v1.2H470.1V171z M470.1,180.9h103.7v1.2H470.1V180.9z
	 M470.1,190.8h103.7v1.2H470.1V190.8z M470.1,200.7h103.7v1.2H470.1V200.7z M470.1,210.7h103.7v1.2H470.1V210.7z M470.1,220.5h103.7
	v1.2H470.1V220.5z M470.1,230.5h103.7v1.2H470.1V230.5z M470.1,240.3h103.7v1.2H470.1V240.3z M470.1,250.3h103.7v1.2H470.1V250.3z
	 M470.1,260.1h103.7v1.2H470.1V260.1z M470.1,270.1h103.7v1.2H470.1V270.1z M470.1,279.9h103.7v1.2H470.1V279.9z M470.1,289.9h103.7
	v1.2H470.1V289.9z"/>
<path class="st2" d="M132.7,43.3h121.1V303H132.7V43.3z"/>
<path class="st5" d="M132.7,43.3h37.7V303h-37.7V43.3z"/>
<path class="st4" d="M240.4,55.6h5.6v7.5h-5.6V55.6z M230.2,55.6h5.6v7.5h-5.6V55.6z M220.1,55.6h5.6v7.5h-5.6V55.6z M209.9,55.6
	h5.6v7.5h-5.6V55.6z M199.7,55.6h5.6v7.5h-5.6V55.6z M189.5,55.6h5.6v7.5h-5.6V55.6z M179.4,55.6h5.6v7.5h-5.6V55.6z M160.8,55.6
	h5.6v7.5h-5.6V55.6z M150.6,55.6h5.6v7.5h-5.6V55.6z M140.4,55.6h5.6v7.5h-5.6V55.6z M240.4,71.3h5.6v7.5h-5.6V71.3z M230.2,71.3
	h5.6v7.5h-5.6V71.3z M220.1,71.3h5.6v7.5h-5.6V71.3z M209.9,71.3h5.6v7.5h-5.6V71.3z M199.7,71.3h5.6v7.5h-5.6V71.3z M189.5,71.3
	h5.6v7.5h-5.6V71.3z M179.4,71.3h5.6v7.5h-5.6V71.3z M160.8,71.3h5.6v7.5h-5.6V71.3z M150.6,71.3h5.6v7.5h-5.6V71.3z M140.4,71.3
	h5.6v7.5h-5.6V71.3z M240.4,87h5.6v7.5h-5.6V87z M230.2,87h5.6v7.5h-5.6V87z M220.1,87h5.6v7.5h-5.6V87z M209.9,87h5.6v7.5h-5.6V87z
	 M199.7,87h5.6v7.5h-5.6V87z M189.5,87h5.6v7.5h-5.6V87z M179.4,87h5.6v7.5h-5.6V87z M160.8,87h5.6v7.5h-5.6V87z M150.6,87h5.6v7.5
	h-5.6V87z M140.4,87h5.6v7.5h-5.6V87z M240.4,102.6h5.6v7.5h-5.6V102.6z M230.2,102.6h5.6v7.5h-5.6V102.6z M220.1,102.6h5.6v7.5
	h-5.6V102.6z M209.9,102.6h5.6v7.5h-5.6V102.6z M199.7,102.6h5.6v7.5h-5.6V102.6z M189.5,102.6h5.6v7.5h-5.6V102.6z M179.4,102.6
	h5.6v7.5h-5.6V102.6z M160.8,102.6h5.6v7.5h-5.6V102.6z M150.6,102.6h5.6v7.5h-5.6V102.6z M140.4,102.6h5.6v7.5h-5.6V102.6z
	 M240.4,118.3h5.6v7.5h-5.6V118.3z M230.2,118.3h5.6v7.5h-5.6V118.3z M220.1,118.3h5.6v7.5h-5.6V118.3z M209.9,118.3h5.6v7.5h-5.6
	V118.3z M199.7,118.3h5.6v7.5h-5.6V118.3z M189.5,118.3h5.6v7.5h-5.6V118.3z M179.4,118.3h5.6v7.5h-5.6V118.3z M160.8,118.3h5.6v7.5
	h-5.6V118.3z M150.6,118.3h5.6v7.5h-5.6V118.3z M140.4,118.3h5.6v7.5h-5.6V118.3z M240.4,134h5.6v7.5h-5.6V134z M230.2,134h5.6v7.5
	h-5.6V134z M220.1,134h5.6v7.5h-5.6V134z M209.9,134h5.6v7.5h-5.6V134z M199.7,134h5.6v7.5h-5.6V134z M189.5,134h5.6v7.5h-5.6V134z
	 M179.4,134h5.6v7.5h-5.6V134z M160.8,134h5.6v7.5h-5.6V134z M150.6,134h5.6v7.5h-5.6V134z M140.4,134h5.6v7.5h-5.6V134z
	 M240.4,149.5h5.6v7.5h-5.6V149.5z M230.2,149.5h5.6v7.5h-5.6V149.5z M220.1,149.5h5.6v7.5h-5.6V149.5z M209.9,149.5h5.6v7.5h-5.6
	V149.5z M199.7,149.5h5.6v7.5h-5.6V149.5z M189.5,149.5h5.6v7.5h-5.6V149.5z M179.4,149.5h5.6v7.5h-5.6V149.5z M160.8,149.5h5.6v7.5
	h-5.6V149.5z M150.6,149.5h5.6v7.5h-5.6V149.5z M140.4,149.5h5.6v7.5h-5.6V149.5z M240.4,165.2h5.6v7.5h-5.6V165.2z M230.2,165.2
	h5.6v7.5h-5.6V165.2z M220.1,165.2h5.6v7.5h-5.6V165.2z M209.9,165.2h5.6v7.5h-5.6V165.2z M199.7,165.2h5.6v7.5h-5.6V165.2z
	 M189.5,165.2h5.6v7.5h-5.6V165.2z M179.4,165.2h5.6v7.5h-5.6V165.2z M160.8,165.2h5.6v7.5h-5.6V165.2z M150.6,165.2h5.6v7.5h-5.6
	V165.2z M140.4,165.2h5.6v7.5h-5.6V165.2z M240.4,180.9h5.6v7.5h-5.6V180.9z M230.2,180.9h5.6v7.5h-5.6V180.9z M220.1,180.9h5.6v7.5
	h-5.6V180.9z M209.9,180.9h5.6v7.5h-5.6V180.9z M199.7,180.9h5.6v7.5h-5.6V180.9z M189.5,180.9h5.6v7.5h-5.6V180.9z M179.4,180.9
	h5.6v7.5h-5.6V180.9z M160.8,180.9h5.6v7.5h-5.6V180.9z M150.6,180.9h5.6v7.5h-5.6V180.9z M140.4,180.9h5.6v7.5h-5.6V180.9z
	 M240.4,196.5h5.6v7.5h-5.6V196.5z M230.2,196.5h5.6v7.5h-5.6V196.5z M220.1,196.5h5.6v7.5h-5.6V196.5z M209.9,196.5h5.6v7.5h-5.6
	V196.5z M199.7,196.5h5.6v7.5h-5.6V196.5z M189.5,196.5h5.6v7.5h-5.6V196.5z M179.4,196.5h5.6v7.5h-5.6V196.5z M160.8,196.5h5.6v7.5
	h-5.6V196.5z M150.6,196.5h5.6v7.5h-5.6V196.5z M140.4,196.5h5.6v7.5h-5.6V196.5z M240.4,212.2h5.6v7.5h-5.6V212.2z M230.2,212.2
	h5.6v7.5h-5.6V212.2z M220.1,212.2h5.6v7.5h-5.6V212.2z M209.9,212.2h5.6v7.5h-5.6V212.2z M199.7,212.2h5.6v7.5h-5.6V212.2z
	 M189.5,212.2h5.6v7.5h-5.6V212.2z M179.4,212.2h5.6v7.5h-5.6V212.2z M160.8,212.2h5.6v7.5h-5.6V212.2z M150.6,212.2h5.6v7.5h-5.6
	V212.2z M140.4,212.2h5.6v7.5h-5.6V212.2z M240.4,227.9h5.6v7.5h-5.6V227.9z M230.2,227.9h5.6v7.5h-5.6V227.9z M220.1,227.9h5.6v7.5
	h-5.6V227.9z M209.9,227.9h5.6v7.5h-5.6V227.9z M199.7,227.9h5.6v7.5h-5.6V227.9z M189.5,227.9h5.6v7.5h-5.6V227.9z M179.4,227.9
	h5.6v7.5h-5.6V227.9z M160.8,227.9h5.6v7.5h-5.6V227.9z M150.6,227.9h5.6v7.5h-5.6V227.9z M140.4,227.9h5.6v7.5h-5.6V227.9z
	 M240.4,243.5h5.6v7.5h-5.6V243.5z M230.2,243.5h5.6v7.5h-5.6V243.5z M220.1,243.5h5.6v7.5h-5.6V243.5z M209.9,243.5h5.6v7.5h-5.6
	V243.5z M199.7,243.5h5.6v7.5h-5.6V243.5z M189.5,243.5h5.6v7.5h-5.6V243.5z M179.4,243.5h5.6v7.5h-5.6V243.5z M160.8,243.5h5.6v7.5
	h-5.6V243.5z M150.6,243.5h5.6v7.5h-5.6V243.5z M140.4,243.5h5.6v7.5h-5.6V243.5z M240.4,259.2h5.6v7.5h-5.6V259.2z M230.2,259.2
	h5.6v7.5h-5.6V259.2z M220.1,259.2h5.6v7.5h-5.6V259.2z M209.9,259.2h5.6v7.5h-5.6V259.2z M199.7,259.2h5.6v7.5h-5.6V259.2z
	 M189.5,259.2h5.6v7.5h-5.6V259.2z M179.4,259.2h5.6v7.5h-5.6V259.2z M160.8,259.2h5.6v7.5h-5.6V259.2z M150.6,259.2h5.6v7.5h-5.6
	V259.2z M140.4,259.2h5.6v7.5h-5.6V259.2z"/>
<path class="st5" d="M236.7,43.3h-87.1v-11c0-4.6,3.5-8.3,8-8.3h71.1c4.4,0,8,3.7,8,8.3L236.7,43.3z"/>
<path class="st2" d="M591.8,292.5H588c-0.4,0-0.8,0.3-0.8,0.7l-0.6,14.5h6.4l-0.3-14.5C592.6,292.8,592.2,292.5,591.8,292.5z"/>
<path class="st2" d="M591.2,292.7h-2.9c-0.7,0-1.3-0.6-1.3-1.4v-2.6c0-0.7,0.6-1.4,1.3-1.4h2.9c0.7,0,1.3,0.6,1.3,1.4v2.7
	C592.5,292.1,591.9,292.7,591.2,292.7z"/>
<path class="st2" d="M591.9,231h-4.7c-1.1,0-2.1-0.5-2.1-1.3v-2.4c0-0.7,0.9-1.3,2.1-1.3h4.7c1.1,0,2.1,0.5,2.1,1.3v2.5
	C594,230.5,593.1,231,591.9,231z"/>
<path class="st2" d="M589,242.8h1.6v44.6H589V242.8z"/>
<path class="st2" d="M593.2,243.9h-6.8c-0.6,0-1-0.4-1-1s0.4-1,1-1h6.8c0.6,0,1,0.4,1,1C594.1,243.5,593.7,243.9,593.2,243.9z"/>
<path class="st4" d="M593.1,241.9h-6.7l-1-10.2h8.8L593.1,241.9z"/>
<path class="st2" d="M594.7,232.2h-10c-0.6,0-1-0.4-1-1c0-0.6,0.4-1,1-1h10c0.6,0,1,0.4,1,1C595.7,231.7,595.3,232.2,594.7,232.2z
	 M590.8,226.9h-2.1v-1c0-0.6,0.5-1.1,1-1.1c0.6,0,1,0.5,1,1.1V226.9z"/>
<path class="st0" d="M552.7,228.1c-3.4-0.6-5.7,2.9-6.4,6c-0.3,1.7-0.3,3.6-1.7,4.6c-0.6,0.4-1.2,0.8-1.9,1c-3.7,1.9-3.9,5.5-4,9.1
	c0.1,0.6-0.1,1.2-0.3,1.7c-0.3,0.6-1,0.9-1.4,1.5c-0.3,0.4-0.4,0.8-0.5,1.3c-0.9,4.1-0.5,7.8-0.4,11.9c0.2,29,16.1,27.6,16.1,27.6
	h0.6c3.8-0.2,7.3-2.5,9.6-5.5c2.3-3,3.7-6.9,4.4-10.5c0.6-2.8,0.8-5.5,1-8.4c0.2-3,0.8-5.8-0.3-8.8c-0.6-1.3-1.3-2.6-1.4-4.1
	c0-1.6,1-3,1-4.6c0-0.9-0.2-1.9-0.6-2.8c-0.8-2.2-1.7-4.4-2.8-6.4c-0.9-1.6-3-2.4-3.5-4.2c-0.1-0.8-0.2-1.5-0.1-2.3
	c-0.1-3.7-3.3-6.3-6.7-7.2H552.7z"/>
<path class="st4" d="M549.8,322.7h3.7l-1.2-46.5l-0.6-1.1L549.8,322.7z"/>
<path class="st6" d="M311.4,335.8l15.5-25.3l-15.5-25.3h11.8c8.6,0,15.5,11.3,15.5,25.3c0,14-6.9,25.3-15.5,25.3H311.4z"/>
<path class="st7" d="M311.4,285.2c8.6,0,15.5,11.3,15.5,25.3c0,14-6.9,25.3-15.5,25.3c-8.6,0-15.5-11.3-15.5-25.3
	C295.9,296.5,302.8,285.2,311.4,285.2z"/>
<path class="st6" d="M134.1,335.8c-0.1,0.2,15.5-25.3,15.5-25.3l-15.5-25.3h11.8c8.6,0,15.5,11.3,15.5,25.3c0,14-6.9,25.3-15.5,25.3
	H134.1z"/>
<path class="st7" d="M134.1,285.2c8.6,0,15.5,11.3,15.5,25.3c0,14-6.9,25.3-15.5,25.3s-15.5-11.3-15.5-25.3
	C118.6,296.5,125.5,285.2,134.1,285.2z"/>
<path class="st8" d="M311.4,310.5l-239.2-2l-13.8-6.3H42.1c-2.6,0-2,8.3-2,8.3s0.7,7.1,3.3,7.1h268.1V310.5z"/>
<path class="st9" d="M40,309.3l112,1.5V180.4c0,0-26.7,0-41.4,0c-14.6,0-34.3,54.8-43,70.2c-3,5.2-27.6,21.7-27.6,42.5
	C40,313.8,40,309.3,40,309.3z"/>
<path class="st6" d="M82,240.1h57.2l0.8-52c0,0-13,0-25.7,0S87.4,227.7,82,240.1z"/>
<path class="st8" d="M66.5,236.3c-0.1-1.7,0-3.5,0.7-4.9c0.7-1.5,2.3-2.6,3.8-2.2c1.6,0.4,2.4,2.2,2.8,3.8c0.4,1.7,0.4,3.5,1,5.1
	c1.2,3.2,4.4,4.6,7.4,5.8c-1.2,1.1-3,1.7-4.6,1.5c-1.1-0.1-2.2-0.6-3.3-0.3c-1.2,0.3-2,1.3-3,2C66.6,251,66.5,239.3,66.5,236.3z"/>
<path class="st10" d="M120.5,253.5h8.1c0.5,0,1-0.2,1.3-0.6c0.3-0.4,0.5-0.9,0.5-1.4v-1.2h-11.9v1.2c0,0.5,0.2,1.1,0.6,1.4
	C119.5,253.3,120,253.5,120.5,253.5L120.5,253.5z"/>
<path class="st11" d="M47.1,299.9c0-2.1-0.8-4.1-2.1-5.5c-1.3-1.5-3.2-2.3-5-2.3v15.7c1.9,0,3.7-0.9,5.1-2.3
	C46.4,304,47.1,302,47.1,299.9z"/>
<path class="st12" d="M148.1,291.2L96,305.9c0,0,5.1,3,6.8,4.9h45.3V291.2z"/>
<path class="st13" d="M98.5,307.4l49.6-15.2v-10.4L89.8,304C92.9,304.6,95.8,305.8,98.5,307.4z"/>
<path class="st9" d="M316.9,180.4H148.1v130.4h168.8V180.4z"/>
<path class="st14" d="M384.9,180c-10.5,0-59.1,0-67.3,0c-8.2,0-8.9,8.5-8.9,11.5c0,3,0,120.2,0,120.2l87.9,3c0,0,0-110.8,0-119.7
	S395.4,180,384.9,180z"/>
<path class="st15" d="M380.6,184.7c-9.1,0-51.3,0-58.3,0c-7.1,0-7.8,8.3-7.8,11.1c0,2.9,0,116.4,0,116.4l76.2,2.9
	c0,0,0-107.3,0-115.9C390.8,190.5,389.7,184.7,380.6,184.7z"/>
<path class="st16" d="M389,285.8h-22.6V311H389V285.8z"/>
<path class="st17" d="M355.1,281.5l11.3,4.2v25.2l-11.3-4.2V281.5z"/>
<path class="st18" d="M389,285.8l-11.3-4.2h-22.6l11.3,4.2H389z"/>
<path class="st19" d="M363,302.6v7l-3.4-1.2v-7.1L363,302.6z"/>
<path class="st20" d="M363,284.5v7.1l-3.4-1.2v-7.1L363,284.5z"/>
<path class="st21" d="M382.2,283.2l0.5,0.1l0.7,0.3l2.4,0.8H363l-3.4-1.2H382.2z"/>
<path class="st22" d="M375,296.1h-13.4V311H375V296.1z"/>
<path class="st16" d="M355,293.7l6.7,2.5v14.8l-6.7-2.5V293.7z"/>
<path class="st23" d="M375,296.1l-6.6-2.5H355l6.7,2.5H375z"/>
<path class="st21" d="M359.7,306.1v4.1l-2-0.7v-4.2L359.7,306.1z M359.7,295.4v4.1l-2-0.8v-4.1L359.7,295.4z"/>
<path class="st24" d="M371,294.6l0.2,0.1l0.4,0.2l1.4,0.5h-13.4l-2-0.8H371z"/>
<path class="st25" d="M358.6,263.6h-29v47.3h29V263.6z"/>
<path class="st26" d="M315,263l14.5,0.6v47.3L315,311V263z"/>
<path class="st27" d="M319.4,297.3v13.4H315V295L319.4,297.3z"/>
<path class="st28" d="M311.1,254.6h0.7c1.1,0,2,0.9,2,2V273c0,1.1-0.9,2-2,2h-0.7c-1.1,0-2-0.9-2-2v-16.5
	C309.1,255.5,310,254.6,311.1,254.6z"/>
<path class="st28" d="M393.5,254.6h0.7c1.1,0,2,0.9,2,2V273c0,1.1-0.9,2-2,2h-0.7c-1.1,0-2-0.9-2-2v-16.5
	C391.5,255.5,392.4,254.6,393.5,254.6z"/>
<rect x="72.7" y="263.9" class="st29" width="233.3" height="1.7"/>
<path class="st30" d="M441,185.6c0-0.2,0-0.4,0-0.6c0,0,0,0,0-0.1c-0.2-2.1-1.4-3.6-3.2-3.6h-0.1h-21.2c-2.8,0-6.8,0.1-10,1.1
	c-6.6,2.2-8,7.2-8,10v8.7v92.4v19.9h39.2h0.1c1.9,0,3-1.6,3.2-3.6c0,0,0,0,0-0.1c0-0.2,0-0.4,0-0.6c0-0.1,0-0.3,0-0.3V185.9
	C441,185.8,441,185.7,441,185.6z"/>
<path class="st9" d="M437.1,185.5h-20.7c-4.1,0-15.3-0.5-15.3,8.3v9.2v107.8h35.9c1,0,1.4-0.8,1.4-2V308V188v-0.6
	C438.5,186.1,438.2,185.5,437.1,185.5z"/>
<path class="st7" d="M391.8,310.8h-80.6c-0.7,0-1.4,0.1-2,0.2c-0.6,0.1-1.2,0.3-1.7,0.5c-0.5,0.2-0.9,0.5-1.1,0.7
	c-0.3,0.3-0.4,0.6-0.4,0.9v3.1c0,0.6,0.5,1.2,1.5,1.6c1,0.4,2.3,0.7,3.7,0.7h80.6c1.4,0,2.7-0.2,3.7-0.7c1-0.4,1.5-1,1.5-1.6v-3.1
	c0-0.6-0.6-1.2-1.5-1.6C394.5,311.1,393.2,310.8,391.8,310.8z"/>
<path class="st31" d="M317.6,314.6c0-0.6-0.2-1.2-0.5-1.7c-0.3-0.5-0.7-0.9-1.2-1.1c-0.5-0.2-1-0.3-1.6-0.2c-0.5,0.1-1,0.4-1.4,0.8
	c-0.4,0.4-0.6,0.9-0.7,1.5c-0.1,0.6-0.1,1.2,0.2,1.7c0.2,0.5,0.6,1,1,1.3c0.4,0.3,1,0.5,1.5,0.5c0.4,0,0.7-0.1,1-0.2
	c0.3-0.1,0.6-0.4,0.9-0.6c0.3-0.3,0.5-0.6,0.6-1C317.6,315.5,317.6,315.1,317.6,314.6L317.6,314.6z"/>
<path class="st11" d="M325,314.4c0-0.5-0.2-1-0.5-1.3s-0.7-0.5-1.2-0.6h0c-0.5,0-0.9,0.2-1.2,0.6c-0.3,0.3-0.5,0.8-0.5,1.3
	c0,0.2,0,0.5,0.1,0.7c0.1,0.2,0.2,0.4,0.4,0.6c0.2,0.2,0.3,0.3,0.6,0.4c0.2,0.1,0.4,0.1,0.7,0.1h0.1c0.4,0,0.8-0.1,1.2-0.5
	c0.3-0.3,0.5-0.8,0.5-1.2V314.4z"/>
<path class="st31" d="M386.9,314.6c0,0.6,0.2,1.2,0.5,1.7c0.3,0.5,0.7,0.9,1.2,1.1s1,0.3,1.6,0.2c0.5-0.1,1-0.4,1.4-0.8
	c0.4-0.4,0.6-0.9,0.7-1.5c0.1-0.6,0.1-1.2-0.2-1.7c-0.2-0.5-0.6-1-1-1.3s-1-0.5-1.5-0.5c-0.7,0-1.4,0.3-1.9,0.9
	C387.2,313.1,386.9,313.9,386.9,314.6z"/>
<path class="st11" d="M379.9,314.4c0,0.4,0.1,0.7,0.3,1c0.2,0.3,0.5,0.5,0.8,0.7c0.3,0.1,0.7,0.2,1,0.1c0.3-0.1,0.6-0.3,0.9-0.5
	c0.2-0.3,0.4-0.6,0.5-1s0-0.7-0.1-1.1s-0.3-0.6-0.6-0.8c-0.3-0.2-0.6-0.3-0.9-0.3c-0.4,0-0.9,0.2-1.2,0.5c-0.3,0.3-0.5,0.8-0.5,1.3
	V314.4z"/>
<path class="st7" d="M148.1,188.1h-0.8v122.7h0.8V188.1z"/>
<path class="st12" d="M308.7,286.9l-160.6,5.1v18.7h160.6V286.9z"/>
<path class="st13" d="M148.1,292.1l160.6-3.4l-0.1-11.9L148,281.8L148.1,292.1z"/>
<path class="st32" d="M283.4,317.8c0-24.8-14.7-34.2-28-34.2c-13.5,0-28,9.2-28,34.2"/>
<path class="st6" d="M249.4,341.4l16.2-26.5l-16.2-26.5h12.3c9,0,16.2,11.8,16.2,26.5c0,14.7-7.3,26.5-16.2,26.5H249.4z"/>
<path class="st7" d="M249.4,288.4c9,0,16.2,11.8,16.2,26.5c0,14.7-7.3,26.5-16.2,26.5c-9,0-16.2-11.8-16.2-26.5
	C233.2,300.3,240.5,288.4,249.4,288.4z"/>
<path class="st33" d="M240.3,314.9c0,8.3,4.1,15,9.2,15c5.1,0,9.2-6.7,9.2-15c0-8.3-4.1-15-9.2-15
	C244.4,299.9,240.3,306.6,240.3,314.9z"/>
<path class="st30" d="M264,184.7c0-0.2,0-0.4,0-0.6c0,0,0,0,0-0.1c0.2-2.1,1.4-3.6,3.2-3.6h0.1h21.2c2.8,0,6.8,0.1,10,1.1
	c6.6,2.2,8,7.2,8,10v8.7v92.4v19.9h-39.2h-0.1c-1.9,0-3-1.6-3.2-3.6c0,0,0,0,0-0.1c0-0.2,0-0.4,0-0.6c0-0.1,0-0.3,0-0.3V185.1
	C264,184.9,264,184.8,264,184.7z"/>
<path class="st9" d="M267.9,184.7h20.7c4.1,0,15.3-0.5,15.3,8.3v9.2V310h-35.9c-1,0-1.4-0.8-1.4-2v-0.7v-120v-0.7
	C266.5,185.2,266.8,184.7,267.9,184.7z"/>
<path class="st6" d="M402,283.6h-8.6c-1,0-1.9-0.9-1.9-2v-2c0-1.1,0.9-2,1.9-2h8.6c1,0,1.9,0.9,1.9,2v2
	C403.8,282.7,403,283.6,402,283.6z"/>
<path class="st6" d="M311,285.3h-8.6c-1,0-1.9-0.9-1.9-2v-2c0-1.1,0.9-2,1.9-2h8.6c1,0,1.9,0.9,1.9,2v2
	C312.8,284.4,312,285.3,311,285.3z"/>
<path class="st32" d="M108.4,317.8c0-24.8-14.7-34.2-28-34.2c-13.5,0-28,9.2-28,34.2"/>
<path class="st6" d="M74.4,341.4l16.2-26.5l-16.2-26.5h12.3c9,0,16.2,11.8,16.2,26.5c0,14.7-7.3,26.5-16.2,26.5H74.4z"/>
<path class="st7" d="M74.4,288.4c9,0,16.2,11.8,16.2,26.5c0,14.7-7.3,26.5-16.2,26.5c-9,0-16.2-11.8-16.2-26.5
	C58.2,300.3,65.5,288.4,74.4,288.4z"/>
<path class="st33" d="M65.3,314.9c0,8.3,4.1,15,9.2,15s9.2-6.7,9.2-15c0-8.3-4.1-15-9.2-15S65.3,306.6,65.3,314.9z"/>
<path class="st34" d="M543.2,323.3h-34.4v34.4h34.4V323.3z"/>
<path class="st35" d="M491.6,317.5l17.2,5.7v34.4l-17.2-5.7V317.5z"/>
<path class="st36" d="M543.2,323.3l-17.2-5.7h-34.4l17.2,5.7H543.2z"/>
<path class="st37" d="M503.6,346.3v9.6l-5.1-1.7v-9.6L503.6,346.3z M503.6,321.5v9.6l-5.1-1.7v-9.6L503.6,321.5z"/>
<path class="st35" d="M532.8,319.8l0.7,0.2l1.1,0.4l3.6,1.1h-34.6l-5.1-1.7H532.8z"/>
<path class="st38" d="M521.9,325.5h-11.7v5.1h11.7V325.5z"/>
<path class="st39" d="M536.8,294.3h-27.2v27.2h27.2V294.3z"/>
<path class="st40" d="M496,289.8l13.6,4.5v27.2L496,317V289.8z"/>
<path class="st41" d="M536.8,294.3l-13.6-4.5H496l13.6,4.5H536.8z"/>
<path class="st19" d="M505.5,312.5v7.6l-4.1-1.3v-7.6L505.5,312.5z M505.5,292.9v7.6l-4.1-1.3v-7.6L505.5,292.9z"/>
<path class="st40" d="M528.6,291.6l0.6,0.2l0.8,0.3l2.8,0.9h-27.3l-4.1-1.4H528.6z"/>
<path class="st38" d="M520,296h-9.2v4h9.2V296z"/>
<path class="st42" d="M547,341.9c-3.8-4.1-5.5-8.8-3.6-10.5c1.9-1.8,6.5,0.1,10.3,4.2c3.8,4.1,5.5,8.8,3.6,10.5
	C555.4,347.9,550.8,346,547,341.9z"/>
<path class="st42" d="M556.9,346.1c-1.8-1.8-0.1-6.5,3.7-10.5c3.9-4,8.5-5.9,10.4-4.1c1.8,1.8,0.1,6.5-3.7,10.5
	S558.8,347.9,556.9,346.1z"/>
<path class="st43" d="M557.2,346.2c-3.2,0-5.7-5.7-5.7-12.7c0-7,2.6-12.6,5.8-12.6c3.2,0,5.7,5.7,5.7,12.7
	C563,340.6,560.3,346.2,557.2,346.2z"/>
<path class="st44" d="M556.7,356c0.9,0,1.9-0.2,2.7-0.5c0.9-0.3,1.7-0.8,2.3-1.5s1.2-1.4,1.6-2.2c0.4-0.8,0.6-1.7,0.6-2.6v-1.2
	c0-0.6-0.2-1.1-0.7-1.5c-0.4-0.4-1-0.6-1.6-0.7l-9.7-0.1c-0.6,0-1.2,0.2-1.6,0.6c-0.4,0.4-0.7,0.9-0.7,1.5v1.1
	c0,0.9,0.2,1.8,0.5,2.6s0.9,1.6,1.5,2.2c0.7,0.6,1.4,1.1,2.3,1.5C554.8,355.9,555.7,356,556.7,356L556.7,356z"/>
<path class="st45" d="M432.2,261.6c0.3,0,0.7,0.5,1.1,1.5c0.2,0.5,0.5,1.1,0.8,1.8s0.6,1.5,1,2.3c0.4,0.9,0.8,1.7,1.4,2.5
	c0.3,0.4,0.6,0.8,0.9,1.2c0.3,0.4,0.7,0.7,1,1.1c0.4,0.3,0.8,0.6,1.2,0.9c0.4,0.3,0.8,0.5,1.3,0.7c0.4,0.2,0.9,0.3,1.3,0.4
	c0.1,0,0.2,0,0.3,0.1l0.3,0c0.2,0,0.4,0,0.7,0c1,0,2-0.2,2.9-0.4c0.5-0.1,1-0.3,1.4-0.5c0.2-0.1,0.5-0.2,0.7-0.3
	c0.2-0.1,0.5-0.2,0.7-0.3c0.4-0.2,0.9-0.5,1.3-0.7c0.4-0.2,0.8-0.5,1.2-0.8c0.8-0.5,1.5-1,2.2-1.5c0.7-0.5,1.3-0.9,2-1.3
	c0.6-0.4,1.1-0.7,1.7-1c0.5-0.2,0.9-0.4,1.4-0.4c0.4-0.1,0.8,0,1.1,0.2c0.3,0.2,0.5,0.6,0.6,0.9c0.1,0.5,0.1,1,0,1.6
	c-0.1,0.7-0.3,1.4-0.6,2.1c-0.4,0.9-0.9,1.7-1.4,2.5c-0.7,1-1.5,1.9-2.4,2.7c-0.5,0.5-1,0.9-1.6,1.3c-0.6,0.4-1.3,0.9-1.9,1.2
	c-0.3,0.2-0.7,0.4-1.1,0.5c-0.4,0.2-0.7,0.3-1.1,0.5c-0.8,0.3-1.6,0.5-2.5,0.7c-1.8,0.4-3.7,0.5-5.6,0.2c-0.5-0.1-1-0.2-1.5-0.3
	l-0.7-0.2c-0.2-0.1-0.5-0.2-0.7-0.3c-0.9-0.4-1.7-0.8-2.5-1.3c-0.7-0.5-1.4-1.1-2-1.7c-0.6-0.6-1.1-1.2-1.5-1.9
	c-0.4-0.6-0.8-1.3-1.1-2c-0.3-0.6-0.5-1.3-0.7-1.9c-0.3-1.1-0.5-2.3-0.6-3.4c-0.1-0.9-0.1-1.8-0.1-2.8c0-0.7,0.1-1.3,0.2-2
	C431.7,262.3,431.9,261.6,432.2,261.6L432.2,261.6z"/>
<path class="st4" d="M447.8,276.5c-0.4,5.7-0.4,11.4,0,17.1c5.5,1.8,11.3,2.3,17,1.4c0.4-5.8,0.8-11.6,0.8-17.3c0-3.1-0.1-6.1-1-9
	c-0.7-2.6-2.3-5-4.4-6.6c-0.3-0.2-0.5-0.3-0.8-0.5c-1.3,1.1-4,1.4-5.5,0.7c-0.8,0.5-1.5,1.2-2.1,1.9c-1.1,1.3-2,2.9-2.6,4.5
	C448.5,271.1,448,273.8,447.8,276.5z"/>
<path class="st46" d="M451.8,264c1.4,0.4,3,0.4,4.4,0c0.8-0.2,1.5-0.5,2.2-0.9c0.6-0.3,1.1-0.7,1.6-1.1l0-0.3v-0.1l-0.1-0.5
	c-0.3-1.6-0.5-3.2-0.8-4.9c-0.2-1.5-0.4-3-0.6-4.5c-1.7,0.8-3.3,1.8-4.9,3c0,1-0.1,2-0.2,3c-0.1,0.8-0.2,1.7-0.3,2.5
	c-0.1,0.5-0.1,0.9-0.2,1.4c-0.1,0.5-0.2,0.9-0.3,1.3C452.5,263.3,452.1,263.6,451.8,264L451.8,264z"/>
<path class="st47" d="M453.3,260.3c1.8-1.6,3.8-3,6-4c-0.2-1.5-0.4-3-0.6-4.5c-1.7,0.8-3.3,1.8-4.9,3c0,1-0.1,2-0.2,3
	C453.5,258.6,453.4,259.4,453.3,260.3z"/>
<path class="st7" d="M485,344.2c0,0,0,4-3.7,3.9l-0.7,14.3l10-17L485,344.2z"/>
<path class="st4" d="M483.4,354.3c0-0.1-0.1-0.2-0.1-0.2c-0.1-0.1-0.1-0.1-0.2-0.1c-0.8,0.1-1.6,0.3-2.3,0.6c-0.1,0-0.1,0.1-0.2,0.2
	c0,0.1,0,0.2,0,0.3c0,0,0,0.1,0.1,0.1c0,0,0.1,0,0.1,0.1c0.1,0,0.2,0,0.2,0c0.7-0.3,1.4-0.5,2.1-0.6c0.1,0,0.1,0,0.2-0.1
	c0.1,0,0.1-0.1,0.1-0.1C483.4,354.4,483.4,354.4,483.4,354.3z M483.5,352.5c0,0,0-0.1,0-0.1c0,0,0-0.1-0.1-0.1c0,0-0.1,0-0.1-0.1
	c0,0-0.1,0-0.1,0c-0.8,0.1-1.6,0.3-2.3,0.6c0,0-0.1,0-0.1,0.1c0,0,0,0.1-0.1,0.1c0,0.1,0,0.2,0,0.3c0,0,0,0.1,0.1,0.1
	c0,0,0.1,0,0.1,0.1s0.1,0,0.1,0c0,0,0.1,0,0.1,0c0.7-0.3,1.4-0.5,2.1-0.6c0.1,0,0.1,0,0.2-0.1c0.1,0,0.1-0.1,0.1-0.1
	C483.5,352.6,483.5,352.6,483.5,352.5L483.5,352.5z M483.6,350.7c0,0,0-0.1,0-0.1c0,0,0-0.1-0.1-0.1c-0.1,0-0.1-0.1-0.2-0.1
	c-0.8,0.1-1.6,0.3-2.3,0.6c-0.1,0-0.1,0.1-0.2,0.2c0,0.1,0,0.2,0,0.3c0,0.1,0.1,0.1,0.2,0.2c0.1,0,0.2,0,0.2,0
	c0.7-0.3,1.4-0.5,2.1-0.6c0.1,0,0.1,0,0.2-0.1c0.1,0,0.1-0.1,0.1-0.1C483.6,350.8,483.6,350.8,483.6,350.7L483.6,350.7z
	 M482.5,362.8c0,0.1-0.1,0.1-0.1,0.2c-0.1,0-0.1,0.1-0.2,0.1c-0.1,0-0.1,0-0.2,0c-0.1,0-0.1,0-0.2-0.1l-1.1-0.6l10-17l1.1,0.6
	c0.1,0,0.1,0.1,0.2,0.1c0,0.1,0.1,0.1,0.1,0.2c0,0.1,0,0.1,0,0.2c0,0.1,0,0.1-0.1,0.2L482.5,362.8z"/>
<path class="st7" d="M445.2,358.8c0,0-3.6,1.8-5.2-1.4l-13.1,6.1l19.8,0.9L445.2,358.8z"/>
<path class="st4" d="M435,362c0.1,0,0.1,0,0.2,0c0.1,0,0.1,0,0.2,0c0,0,0.1-0.1,0.1-0.1s0-0.1,0-0.1c0,0,0-0.1,0-0.1
	c0,0,0-0.1-0.1-0.1c-0.4-0.7-1-1.3-1.6-1.7c-0.1,0-0.2-0.1-0.2-0.1c-0.1,0-0.2,0.1-0.2,0.1c0,0,0,0.1,0,0.1c0,0,0,0.1,0,0.1
	c0,0,0,0.1,0,0.1c0,0,0.1,0.1,0.1,0.1c0.6,0.4,1.1,1,1.5,1.6C434.9,362,434.9,362,435,362L435,362z M436.6,361.3c0.1,0,0.1,0,0.2,0
	c0.1,0,0.1,0,0.2,0c0,0,0.1-0.1,0.1-0.1c0,0,0-0.1,0-0.1c0,0,0-0.1,0-0.1c0,0,0-0.1,0-0.1c-0.5-0.7-1-1.2-1.6-1.7c0,0-0.1,0-0.1-0.1
	c0,0-0.1,0-0.1,0c0,0-0.1,0-0.1,0c0,0-0.1,0.1-0.1,0.1c0,0.1-0.1,0.1,0,0.2c0,0.1,0.1,0.1,0.1,0.2c0.6,0.4,1.1,1,1.5,1.6
	C436.5,361.2,436.6,361.3,436.6,361.3L436.6,361.3z M438.3,360.6c0.1,0,0.1,0,0.2,0c0.1,0,0.1,0,0.2-0.1c0,0,0.1-0.1,0.1-0.2
	s0-0.1,0-0.2c-0.5-0.7-1-1.3-1.6-1.7c-0.1,0-0.2-0.1-0.2-0.1s-0.2,0.1-0.2,0.1c0,0,0,0.1,0,0.1c0,0,0,0.1,0,0.1
	c0,0.1,0.1,0.1,0.1,0.2c0.6,0.4,1.1,1,1.5,1.6C438.2,360.5,438.2,360.5,438.3,360.6L438.3,360.6z M427.2,365.1
	c-0.2-0.1-0.3-0.2-0.3-0.4c0-0.1,0-0.2,0-0.2l0-1.1l19.9,0.9l0,1.1c0,0.1,0,0.2-0.1,0.2c0,0.1-0.1,0.1-0.1,0.2
	c-0.1,0.1-0.3,0.2-0.5,0.2l-18.6-0.8C427.4,365.2,427.3,365.2,427.2,365.1L427.2,365.1z"/>
<path class="st48" d="M465.3,298.2c0,0-4.6,26.7,22.8,45.7l-7.4,7.9c0,0-30.6-20.8-27.4-47.6L465.3,298.2z"/>
<path class="st49" d="M466.3,313.8c-0.4,0.6-0.8,1.1-1.2,1.7c-1,1.5-1.9,3.1-2.7,4.8c-1.3,2.8-2.4,5.6-3.3,8.6
	c-4.2-7.1-7-15.4-5.9-24.5l12-6.1C465.2,298.2,464.1,304.8,466.3,313.8z"/>
<path class="st50" d="M447.7,271.6c-1.2,9.4-1.3,19-0.4,28.5c0,0-15,29.2-11.8,58.5l11.5,2.8c0,0,2.6-38.5,18.2-58l0.7-19.3l-12.3-2
	l-1.1-10.3L447.7,271.6z"/>
<path class="st48" d="M465.1,286.3c0.1,0,0.2-0.1,0.3-0.4c0.1-0.2,0.2-0.3,0.2-0.5c0.1-0.2,0.1-0.4,0.2-0.7c0-0.1,0.1-0.3,0.1-0.4
	c0-0.1,0.1-0.3,0.1-0.5s0.1-0.3,0.1-0.5s0.1-0.4,0.1-0.5c0-0.2,0.1-0.4,0.1-0.6l0.1-0.6c0.1-0.4,0.1-0.9,0.1-1.3
	c0.1-1.1,0.1-2.1,0-3.2c-0.1-1.2-0.2-2.4-0.4-3.6c-0.2-1.3-0.5-2.6-0.9-3.9c-0.4-1.4-1-2.8-1.7-4.1c-0.4-0.7-1-1.3-1.6-1.8
	c-0.6-0.5-1.3-0.9-2.1-1.2c-0.4-0.1-0.8-0.2-1.2-0.3h-1.2c-0.7,0.1-1.5,0.3-2.2,0.6c-0.6,0.3-1.2,0.7-1.7,1.1
	c-0.1,0.1-0.2,0.2-0.4,0.3l-0.3,0.3l-0.3,0.4c-0.1,0.1-0.2,0.2-0.3,0.4c-0.3,0.5-0.6,1-0.9,1.5c-0.2,0.5-0.4,1-0.5,1.5
	c-0.2,0.8-0.4,1.7-0.5,2.6c-0.1,0.6-0.1,1.3-0.1,1.9c0,1.1,0.1,1.6,0.2,1.7c0.1,0,0.2-0.6,0.4-1.6c0.1-0.5,0.2-1.2,0.4-1.9
	c0.2-0.8,0.4-1.6,0.7-2.4c0.3-0.9,0.8-1.7,1.4-2.5c0.1-0.1,0.2-0.2,0.3-0.3l0.3-0.3l0.3-0.3c0.1-0.1,0.2-0.2,0.3-0.2
	c0.4-0.3,0.9-0.6,1.3-0.8c0.5-0.2,1-0.3,1.6-0.3h0.8c0.3,0,0.5,0.1,0.8,0.2c1.1,0.5,2,1.3,2.6,2.3c0.6,1.1,1.1,2.3,1.5,3.6
	c0.4,1.3,0.6,2.5,0.8,3.7c0.2,1.2,0.4,2.3,0.5,3.4c0.1,1.1,0.2,2.1,0.2,3v5.1c0,0.2,0,0.4,0,0.5C465,286.1,465,286.3,465.1,286.3
	L465.1,286.3z"/>
<path class="st34" d="M442.3,263.5h-22.9v22.7h22.9V263.5z"/>
<path class="st35" d="M408,259.7l11.4,3.8v22.7l-11.4-3.8V259.7z"/>
<path class="st36" d="M442.3,263.5l-11.4-3.8H408l11.4,3.8H442.3z"/>
<path class="st38" d="M428.2,264.9h-7.8v3.3h7.8V264.9z"/>
<path class="st40" d="M428.9,281.9l0,4.4h3.9v-4.4H428.9z M428.9,263.5l0,4.4h3.9v-4.4H428.9z M423.4,259.7h-3.7l9.2,3.8h3.9
	L423.4,259.7z"/>
<path class="st46" d="M462.7,272.1v0.2c0,2.4-0.6,4.8-1.7,7c-0.4,0.8-0.9,1.6-1.5,2.4c-0.6,0.8-1.3,1.5-2,2.2
	c-1.6,1.4-3.5,2.4-5.5,2.8c-0.9,0.2-1.9,0.4-2.9,0.4c-0.9,0-1.8,0-2.7-0.2c-0.8-0.1-1.6-0.3-2.4-0.5c-1.4-0.4-2.7-1-4-1.8
	c-1-0.6-2-1.3-2.9-2c-0.7-0.6-1.4-1.2-2.1-1.9l-0.2-0.2c-0.4,0-0.8,0-1.2,0c-0.4-0.1-0.8-0.1-1.2-0.3c-0.4-0.1-0.8-0.3-1.1-0.5
	c-0.4-0.2-0.7-0.4-1-0.7c-0.6-0.5-1.1-1.2-1.5-1.9c-0.2-0.4-0.3-0.8-0.4-1.2c-0.1-0.4-0.2-0.8-0.2-1.2c0-0.3,0-0.6,0-0.9
	c0-0.2,0-0.3,0.1-0.5c0.1-0.2,0.2-0.3,0.3-0.4c0.7-0.6,1.6,0,2.1,0.7c0.5,0.7,0.8,1.3,1.5,1.5c0.2,0.1,0.4,0.1,0.6,0
	c0.2,0,0.4-0.1,0.6-0.3c0,0,0.1-0.1,0.1-0.1c0.1-0.1,0.2-0.1,0.3-0.2c0.1,0,0.2-0.1,0.3-0.1c0.1,0,0.2,0,0.3,0
	c0.1,0,0.2,0.1,0.3,0.2c0.1,0.1,0.1,0.1,0.2,0.2c0.2,0.3,0.3,0.6,0.4,0.9c0.2,0.7,0.3,1.3,0.4,2c1,0.3,2.2,0.8,3.6,1.3
	c0.9,0.3,1.9,0.6,2.9,0.8c1,0.2,2.1,0.4,3.1,0.4c0.5,0,1.1,0,1.6-0.1c0.5,0,1-0.1,1.5-0.3c0.5-0.1,0.9-0.3,1.3-0.5
	c0.4-0.2,0.8-0.4,1.2-0.7c0.3-0.3,0.7-0.6,0.9-0.9c0.3-0.3,0.6-0.7,0.8-1.1c0.5-0.8,0.9-1.6,1.2-2.5c0.3-0.8,0.5-1.7,0.7-2.6
	c0.1-0.7,0.2-1.3,0.3-2c1.1,0.8,2.4,1.4,3.7,1.8C459.9,271.9,461.3,272.1,462.7,272.1L462.7,272.1z"/>
<path class="st50" d="M452.8,240.1c0.2-0.6,0.5-1.2,0.9-1.6c0.4-0.5,0.9-0.9,1.5-1.1c1.2-0.5,2.5-0.6,3.7-0.3
	c0.6,0.1,1.3,0.4,1.8,0.7c0.6,0.3,1.1,0.7,1.5,1.2c0.4,0.5,0.8,1,1,1.6c0.3,0.6,0.4,1.2,0.4,1.9c0.1,2.1-1.1,3.9-2.2,5.7
	C459.3,244.9,456.3,242.1,452.8,240.1z"/>
<path class="st49" d="M451.5,237.8c-0.6-0.4-1.3-0.6-1.9-0.6c-0.2,0.1-0.4,0.2-0.6,0.3c-0.2,0.1-0.4,0.3-0.5,0.5
	c-0.1,0.2-0.2,0.4-0.3,0.6c-0.1,0.2-0.1,0.5-0.1,0.7c0.1,0.5,0.2,0.9,0.4,1.3c0.2,0.4,0.5,0.8,0.9,1.1c0.3,0.3,0.6,0.5,0.9,0.7
	c0.3,0.2,0.6,0.4,1,0.6c0.7,0.3,1.4,0.6,2.1,0.7c0.4,0.1,0.7,0.1,1.1,0.1c0.8,0,1.5,0,2.3-0.2c0.4-0.1,0.7-0.2,1.1-0.4
	c0.4-0.1,1.3-0.5,1.5-0.8c0.3-0.6-0.3-0.7-0.8-1C456.1,240.3,453.8,239,451.5,237.8z"/>
<path class="st7" d="M452,245c0.2,0,0.3,0,0.5,0c0.2,0,0.3,0.1,0.4,0.2c0.1,0.1,0.2,0.3,0.2,0.4c0,0.2,0,0.3,0,0.5
	c-0.2,1.2-0.6,2.4-1.3,3.4c-0.2-0.3-0.4-0.6-0.6-1c-0.3-0.7-0.4-1.5-0.4-2.2c0-0.4,0.1-0.7,0.3-1.1C451.4,245.3,451.7,245,452,245z
	 M457.8,250.3c-0.2-1.3-0.1-2.7,0.2-4c0.3-1.5,0.9-2.8,1.7-4.1c0.6,0.6,1.2,1.2,1.6,2c0.3,0.8,0.6,1.7,0.6,2.6c0,0.5,0,0.9,0,1.4
	c0,0.5-0.1,0.9-0.2,1.3c-0.1,0.4-0.2,0.9-0.4,1.3c-0.2,0.4-0.4,0.8-0.6,1.2c-0.2,0.4-0.5,0.8-0.8,1.1c-0.3,0.4-0.6,0.7-0.9,1
	C458.3,253,457.9,251.7,457.8,250.3z"/>
<path class="st46" d="M452.1,244.7c0.3,1.6-0.4,3.2-1.1,4.8c-0.6,1.5-1.2,3.3-0.6,4.8c0.2,0.4,0.4,0.7,0.7,1.1
	c0.3,0.3,0.6,0.6,1,0.8c0.4,0.2,0.8,0.3,1.2,0.4c0.4,0.1,0.9,0.1,1.3,0c0.9-0.2,1.7-0.5,2.4-1c0.7-0.5,1.3-1.2,1.6-2
	c0.4-0.8,0.7-1.6,0.8-2.4c0.1-0.8,0.2-1.7,0.1-2.6c-0.2-1.7-0.6-3.4-1.1-5C456.3,242.4,453.9,243.1,452.1,244.7L452.1,244.7z"/>
<path class="st46" d="M459.1,249c0.2-0.2,0.4-0.4,0.7-0.6c0.1-0.1,0.3-0.1,0.4-0.1c0.2,0,0.3,0,0.5,0c0.2,0.1,0.4,0.2,0.5,0.3
	c0.1,0.1,0.2,0.3,0.3,0.5c0.1,0.2,0.1,0.4,0.1,0.6c0,0.2,0,0.4-0.1,0.6c-0.1,0.2-0.1,0.4-0.2,0.5c-0.1,0.2-0.2,0.3-0.4,0.4
	c-0.1,0.1-0.3,0.2-0.5,0.3c-0.2,0.1-0.4,0.1-0.6,0.1c-0.2,0-0.4,0-0.6,0c-0.2,0-0.4-0.1-0.5-0.2C458.9,250.6,459,249.8,459.1,249
	L459.1,249z"/>
<path class="st7" d="M450.9,245.9c2.5,0.1,4.9-0.5,7-1.8c-0.2,0.7-0.2,1.5,0,2.2c0.1,0.5,0.4,1,0.7,1.4c0.3,0.4,0.7,0.8,1.1,1.2
	c1-1.4,1.4-3.1,1.2-4.8c0-0.2-0.1-0.4-0.1-0.6c-0.3-0.5-0.7-0.9-1.1-1.3c-0.7-0.6-1.4-1.1-2.3-1.4c-0.6-0.2-1.1-0.3-1.7-0.4
	c-1.2-0.1-2.4,0-3.5,0.3c-0.6,0.2-1.1,0.4-1.6,0.7c-0.2,0.1-0.3,0.3-0.5,0.5c-0.4,0.4-0.7,0.9-0.9,1.4c0,0.1-0.1,0.2-0.1,0.4
	c0,0.1,0,0.3,0,0.4c0,0.1,0,0.2,0.1,0.4c0,0.1,0.1,0.2,0.1,0.3c0.1,0.1,0.1,0.2,0.2,0.3c0.1,0.1,0.2,0.2,0.2,0.3
	c0.1,0.1,0.2,0.2,0.3,0.2c0.1,0.1,0.2,0.1,0.3,0.2C450.5,245.9,450.7,245.9,450.9,245.9L450.9,245.9z"/>
</svg>
