<svg version="1.1" xmlns="http://www.w3.org/2000/svg" xmlns:xlink="http://www.w3.org/1999/xlink" width="630" height="390" viewBox="0 0 630 390">
<style type="text/css">
	.st0{fill:#EAF1FC;}
	.st1{fill:#F8F8FF;}
	.st2{fill:#CDE4F7;}
	.st3{fill:#E9EDF4;}
	.st4{fill:#FFFFFF;}
	.st5{fill:#ECF7FE;}
	.st6{fill:#0F222C;}
	.st7{fill:#0B2B46;}
	.st8{fill:#1D4259;}
	.st9{fill:#8C8FAD;}
	.st10{fill:#448DCE;}
	.st11{fill:#F2F2F2;}
	.st12{fill:#F19100;}
	.st13{fill:#FFDA35;}
	.st14{fill:#FF524F;}
	.st15{fill:#2C6292;}
	.st16{fill:#3270A7;}
	.st17{fill:#1A568C;}
	.st18{fill:#114574;}
	.st19{fill:#164F83;}
	.st20{fill:#C07632;}
	.st21{fill:#0C3860;}
	.st22{fill:#11426D;}
	.st23{fill:#25649D;}
	.st24{fill:#3873A9;}
	.st25{fill:#164C7C;}
	.st26{fill:#3679B6;}
	.st27{fill:#2A6EAC;}
	.st28{fill:#23619A;}
	.st29{fill:#1B313C;}
	.st30{fill:#F9F8F9;}
	.st31{fill:#191F43;}
	.st32{fill:#2275BF;}
	.st33{fill:#203348;}
	.st34{opacity:0.62;fill:none;stroke:#FFFFFF;stroke-linecap:round;stroke-miterlimit:10;enable-background:new    ;}
	.st35{fill:#E08F73;}
	.st36{fill:#F09976;}
	.st37{fill:#E8815F;}
	.st38{fill:#047487;}
	.st39{fill:#05616B;}
	.st40{fill:#02819F;}
	.st41{fill:#F8C47A;}
	.st42{fill:#E19A54;}
	.st43{fill:#FFDF9A;}
	.st44{fill:#E4E6E6;}
	.st45{fill:#CE8D4D;}
</style>
<path class="st0" d="M315,381c172.9,0,313-22.4,313-50s-140.1-50-313-50S2,303.4,2,331S142.1,381,315,381z"/>
<path class="st1" d="M584.8,314.8c41.1-78,63.8-227.4-25.3-277C501.2,5.5,440.4,47.1,377.9,49c-49,1.6-96.2-33.7-140.4-43.8
	C121.8-21.2-60.3,47.5,19.7,314.8C220,314.3,384.5,315.4,584.8,314.8z"/>
<path class="st2" d="M379,104.6h118.8v209.5H379V104.6z"/>
<path class="st3" d="M379,104.6h37v209.5h-37V104.6z"/>
<path class="st4" d="M483.5,110.5h5.5v6.3h-5.5V110.5z M473.4,110.5h5.5v6.3h-5.5V110.5z M463.3,110.5h5.5v6.3h-5.5V110.5z
	 M453.3,110.5h5.5v6.3h-5.5V110.5z M443.2,110.5h5.5v6.3h-5.5V110.5z M433.1,110.5h5.5v6.3h-5.5V110.5z M423,110.5h5.5v6.3H423
	V110.5z M404.5,110.5h5.5v6.3h-5.5V110.5z M394.5,110.5h5.5v6.3h-5.5V110.5z M384.4,110.5h5.5v6.3h-5.5V110.5z M483.5,123.7h5.5v6.3
	h-5.5V123.7z M473.4,123.7h5.5v6.3h-5.5V123.7z M463.3,123.7h5.5v6.3h-5.5V123.7z M453.3,123.7h5.5v6.3h-5.5V123.7z M443.2,123.7
	h5.5v6.3h-5.5V123.7z M433.1,123.7h5.5v6.3h-5.5V123.7z M423,123.7h5.5v6.3H423V123.7z M404.5,123.7h5.5v6.3h-5.5V123.7z
	 M394.5,123.7h5.5v6.3h-5.5V123.7z M384.4,123.7h5.5v6.3h-5.5V123.7z M483.5,136.8h5.5v6.3h-5.5V136.8z M473.4,136.8h5.5v6.3h-5.5
	V136.8z M463.3,136.8h5.5v6.3h-5.5V136.8z M453.3,136.8h5.5v6.3h-5.5V136.8z M443.2,136.8h5.5v6.3h-5.5V136.8z M433.1,136.8h5.5v6.3
	h-5.5V136.8z M423,136.8h5.5v6.3H423V136.8z M404.5,136.8h5.5v6.3h-5.5V136.8z M394.5,136.8h5.5v6.3h-5.5V136.8z M384.4,136.8h5.5
	v6.3h-5.5V136.8z M483.5,149.9h5.5v6.3h-5.5V149.9z M473.4,149.9h5.5v6.3h-5.5V149.9z M463.3,149.9h5.5v6.3h-5.5V149.9z
	 M453.3,149.9h5.5v6.3h-5.5V149.9z M443.2,149.9h5.5v6.3h-5.5V149.9z M433.1,149.9h5.5v6.3h-5.5V149.9z M423,149.9h5.5v6.3H423
	V149.9z M404.5,149.9h5.5v6.3h-5.5V149.9z M394.5,149.9h5.5v6.3h-5.5V149.9z M384.4,149.9h5.5v6.3h-5.5V149.9z M483.5,163.1h5.5v6.3
	h-5.5V163.1z M473.4,163.1h5.5v6.3h-5.5V163.1z M463.3,163.1h5.5v6.3h-5.5V163.1z M453.3,163.1h5.5v6.3h-5.5V163.1z M443.2,163.1
	h5.5v6.3h-5.5V163.1z M433.1,163.1h5.5v6.3h-5.5V163.1z M423,163.1h5.5v6.3H423V163.1z M404.5,163.1h5.5v6.3h-5.5V163.1z
	 M394.5,163.1h5.5v6.3h-5.5V163.1z M384.4,163.1h5.5v6.3h-5.5V163.1z M483.5,176.2h5.5v6.3h-5.5V176.2z M473.4,176.2h5.5v6.3h-5.5
	V176.2z M463.3,176.2h5.5v6.3h-5.5V176.2z M453.3,176.2h5.5v6.3h-5.5V176.2z M443.2,176.2h5.5v6.3h-5.5V176.2z M433.1,176.2h5.5v6.3
	h-5.5V176.2z M423,176.2h5.5v6.3H423V176.2z M404.5,176.2h5.5v6.3h-5.5V176.2z M394.5,176.2h5.5v6.3h-5.5V176.2z M384.4,176.2h5.5
	v6.3h-5.5V176.2z M483.5,189.4h5.5v6.3h-5.5V189.4z M473.4,189.4h5.5v6.3h-5.5V189.4z M463.3,189.4h5.5v6.3h-5.5V189.4z
	 M453.3,189.4h5.5v6.3h-5.5V189.4z M443.2,189.4h5.5v6.3h-5.5V189.4z M433.1,189.4h5.5v6.3h-5.5V189.4z M423,189.4h5.5v6.3H423
	V189.4z M404.5,189.4h5.5v6.3h-5.5V189.4z M394.5,189.4h5.5v6.3h-5.5V189.4z M384.4,189.4h5.5v6.3h-5.5V189.4z M483.5,202.5h5.5v6.3
	h-5.5V202.5z M473.4,202.5h5.5v6.3h-5.5V202.5z M463.3,202.5h5.5v6.3h-5.5V202.5z M453.3,202.5h5.5v6.3h-5.5V202.5z M443.2,202.5
	h5.5v6.3h-5.5V202.5z M433.1,202.5h5.5v6.3h-5.5V202.5z M423,202.5h5.5v6.3H423V202.5z M404.5,202.5h5.5v6.3h-5.5V202.5z
	 M394.5,202.5h5.5v6.3h-5.5V202.5z M384.4,202.5h5.5v6.3h-5.5V202.5z M483.5,215.6h5.5v6.3h-5.5V215.6z M473.4,215.6h5.5v6.3h-5.5
	V215.6z M463.3,215.6h5.5v6.3h-5.5V215.6z M453.3,215.6h5.5v6.3h-5.5V215.6z M443.2,215.6h5.5v6.3h-5.5V215.6z M433.1,215.6h5.5v6.3
	h-5.5V215.6z M423,215.6h5.5v6.3H423V215.6z M404.5,215.6h5.5v6.3h-5.5V215.6z M394.5,215.6h5.5v6.3h-5.5V215.6z M384.4,215.6h5.5
	v6.3h-5.5V215.6z M483.5,228.8h5.5v6.3h-5.5V228.8z M473.4,228.8h5.5v6.3h-5.5V228.8z M463.3,228.8h5.5v6.3h-5.5V228.8z
	 M453.3,228.8h5.5v6.3h-5.5V228.8z M443.2,228.8h5.5v6.3h-5.5V228.8z M433.1,228.8h5.5v6.3h-5.5V228.8z M423,228.8h5.5v6.3H423
	V228.8z M404.5,228.8h5.5v6.3h-5.5V228.8z M384.4,228.8h5.5v6.3h-5.5V228.8z M483.5,241.9h5.5v6.3h-5.5V241.9z M473.4,241.9h5.5v6.3
	h-5.5V241.9z M463.3,241.9h5.5v6.3h-5.5V241.9z M453.3,241.9h5.5v6.3h-5.5V241.9z M443.2,241.9h5.5v6.3h-5.5V241.9z M433.1,241.9
	h5.5v6.3h-5.5V241.9z M423,241.9h5.5v6.3H423V241.9z M404.5,241.9h5.5v6.3h-5.5V241.9z M384.4,241.9h5.5v6.3h-5.5V241.9z
	 M483.5,255.1h5.5v6.3h-5.5V255.1z M473.4,255.1h5.5v6.3h-5.5V255.1z M463.3,255.1h5.5v6.3h-5.5V255.1z M453.3,255.1h5.5v6.3h-5.5
	V255.1z M443.2,255.1h5.5v6.3h-5.5V255.1z M433.1,255.1h5.5v6.3h-5.5V255.1z M423,255.1h5.5v6.3H423V255.1z M404.5,255.1h5.5v6.3
	h-5.5V255.1z M384.4,255.1h5.5v6.3h-5.5V255.1z M483.5,268.2h5.5v6.3h-5.5V268.2z M473.4,268.2h5.5v6.3h-5.5V268.2z M463.3,268.2
	h5.5v6.3h-5.5V268.2z M453.3,268.2h5.5v6.3h-5.5V268.2z M443.2,268.2h5.5v6.3h-5.5V268.2z M433.1,268.2h5.5v6.3h-5.5V268.2z
	 M423,268.2h5.5v6.3H423V268.2z M404.5,268.2h5.5v6.3h-5.5V268.2z M384.4,268.2h5.5v6.3h-5.5V268.2z M483.5,281.4h5.5v6.3h-5.5
	V281.4z M473.4,281.4h5.5v6.3h-5.5V281.4z M463.3,281.4h5.5v6.3h-5.5V281.4z M453.3,281.4h5.5v6.3h-5.5V281.4z M443.2,281.4h5.5v6.3
	h-5.5V281.4z M433.1,281.4h5.5v6.3h-5.5V281.4z M423,281.4h5.5v6.3H423V281.4z M404.5,281.4h5.5v6.3h-5.5V281.4z M384.4,281.4h5.5
	v6.3h-5.5V281.4z M483.5,294.5h5.5v6.3h-5.5V294.5z M473.4,294.5h5.5v6.3h-5.5V294.5z M463.3,294.5h5.5v6.3h-5.5V294.5z
	 M453.3,294.5h5.5v6.3h-5.5V294.5z M443.2,294.5h5.5v6.3h-5.5V294.5z M433.1,294.5h5.5v6.3h-5.5V294.5z M423,294.5h5.5v6.3H423
	V294.5z M404.5,294.5h5.5v6.3h-5.5V294.5z M394.7,228.8h5.5v6.3h-5.5V228.8z M394.7,241.9h5.5v6.3h-5.5V241.9z M394.7,255.1h5.5v6.3
	h-5.5V255.1z M394.7,268.2h5.5v6.3h-5.5V268.2z M394.7,281.4h5.5v6.3h-5.5V281.4z M394.7,294.5h5.5v6.3h-5.5V294.5z M384.4,294.5
	h5.5v6.3h-5.5V294.5z"/>
<path class="st2" d="M285.8,54h109.7v260.4H285.8V54z"/>
<path class="st3" d="M285.8,54H320v260.4h-34.2V54z"/>
<path class="st4" d="M383.3,60.3h5.1v44.5h-5.1V60.3z M374,60.3h5.1v44.5H374V60.3z M364.7,60.3h5.1v44.5h-5.1V60.3z M355.4,60.3
	h5.1v44.5h-5.1V60.3z M346.1,60.3h5.1v44.5h-5.1V60.3z M336.8,60.3h5.1v44.5h-5.1V60.3z M327.5,60.3h5.1v44.5h-5.1V60.3z
	 M310.4,60.3h5.1v44.5h-5.1V60.3z M301.1,60.3h5.1v44.5h-5.1V60.3z M291.8,60.3h5.1v44.5h-5.1V60.3z M383.3,110.6h5.1v44.5h-5.1
	V110.6z M374,110.6h5.1v44.5H374V110.6z M364.7,110.6h5.1v44.5h-5.1V110.6z M355.4,110.6h5.1v44.5h-5.1V110.6z M346.1,110.6h5.1
	v44.5h-5.1V110.6z M336.8,110.6h5.1v44.5h-5.1V110.6z M327.5,110.6h5.1v44.5h-5.1V110.6z M310.4,110.6h5.1v44.5h-5.1V110.6z
	 M301.1,110.6h5.1v44.5h-5.1V110.6z M291.8,110.6h5.1v44.5h-5.1V110.6z M383.3,160.9h5.1v44.5h-5.1V160.9z M374,160.9h5.1v44.5H374
	V160.9z M364.7,160.9h5.1v44.5h-5.1V160.9z M355.4,160.9h5.1v44.5h-5.1V160.9z M346.1,160.9h5.1v44.5h-5.1V160.9z M336.8,160.9h5.1
	v44.5h-5.1V160.9z M327.5,160.9h5.1v44.5h-5.1V160.9z M310.4,160.9h5.1v44.5h-5.1V160.9z M301.1,160.9h5.1v44.5h-5.1V160.9z
	 M291.8,160.9h5.1v44.5h-5.1V160.9z M383.3,211.2h5.1v44.5h-5.1V211.2z M374,211.2h5.1v44.5H374V211.2z M364.7,211.2h5.1v44.5h-5.1
	V211.2z M355.4,211.2h5.1v44.5h-5.1V211.2z M346.1,211.2h5.1v44.5h-5.1V211.2z M336.8,211.2h5.1v44.5h-5.1V211.2z M327.5,211.2h5.1
	v44.5h-5.1V211.2z M310.4,211.2h5.1v44.5h-5.1V211.2z M301.1,211.2h5.1v44.5h-5.1V211.2z M291.8,211.2h5.1v44.5h-5.1V211.2z
	 M383.3,261.5h5.1V306h-5.1V261.5z M374,261.5h5.1V306H374V261.5z M364.7,261.5h5.1V306h-5.1V261.5z M355.4,261.5h5.1V306h-5.1
	V261.5z M346.1,261.5h5.1V306h-5.1V261.5z M336.8,261.5h5.1V306h-5.1V261.5z M327.5,261.5h5.1V306h-5.1V261.5z M310.4,261.5h5.1V306
	h-5.1V261.5z M301.1,261.5h5.1V306h-5.1V261.5z M291.8,261.5h5.1V306h-5.1V261.5z"/>
<path class="st2" d="M27.7,79.6H138v234.5H27.7V79.6z"/>
<path class="st3" d="M27.7,79.6h34.4v234.5H27.7V79.6z"/>
<path class="st4" d="M125.9,90.8h5.1v25.9h-5.1V90.8z M116.6,90.8h5.1v25.9h-5.1V90.8z M107.3,90.8h5.1v25.9h-5.1V90.8z M98,90.8
	h5.1v25.9H98V90.8z M88.8,90.8h5.1v25.9h-5.1V90.8z M79.5,90.8h5.1v25.9h-5.1V90.8z M70.3,90.8h5.1v25.9h-5.1V90.8z M53.3,90.8h5.1
	v25.9h-5.1V90.8z M44,90.8h5.1v25.9H44V90.8z M34.8,90.8h5.1v25.9h-5.1V90.8z M125.9,120h5.1V146h-5.1V120z M116.6,120h5.1V146h-5.1
	V120z M107.3,120h5.1V146h-5.1V120z M98,120h5.1V146H98V120z M88.8,120h5.1V146h-5.1V120z M79.5,120h5.1V146h-5.1V120z M70.3,120
	h5.1V146h-5.1V120z M53.3,120h5.1V146h-5.1V120z M44,120h5.1V146H44V120z M34.8,120h5.1V146h-5.1V120z M125.9,149.3h5.1v25.9h-5.1
	V149.3z M116.6,149.3h5.1v25.9h-5.1V149.3z M107.3,149.3h5.1v25.9h-5.1V149.3z M98,149.3h5.1v25.9H98V149.3z M88.8,149.3h5.1v25.9
	h-5.1V149.3z M79.5,149.3h5.1v25.9h-5.1V149.3z M70.3,149.3h5.1v25.9h-5.1V149.3z M53.3,149.3h5.1v25.9h-5.1V149.3z M44,149.3h5.1
	v25.9H44V149.3z M34.8,149.3h5.1v25.9h-5.1V149.3z M116.6,178.6h5.1v25.9h-5.1V178.6z M107.3,178.6h5.1v25.9h-5.1V178.6z M98,178.6
	h5.1v25.9H98V178.6z M88.8,178.6h5.1v25.9h-5.1V178.6z M79.5,178.6h5.1v25.9h-5.1V178.6z M70.3,178.6h5.1v25.9h-5.1V178.6z
	 M53.3,178.6h5.1v25.9h-5.1V178.6z M44,178.6h5.1v25.9H44V178.6z M34.8,178.6h5.1v25.9h-5.1V178.6z M116.6,207.9h5.1v25.9h-5.1
	V207.9z M107.3,207.9h5.1v25.9h-5.1V207.9z M98,207.9h5.1v25.9H98V207.9z M88.8,207.9h5.1v25.9h-5.1V207.9z M79.5,207.9h5.1v25.9
	h-5.1V207.9z M70.3,207.9h5.1v25.9h-5.1V207.9z M53.3,207.9h5.1v25.9h-5.1V207.9z M44,207.9h5.1v25.9H44V207.9z M34.8,207.9h5.1
	v25.9h-5.1V207.9z M116.6,237.2h5.1v25.9h-5.1V237.2z M107.3,237.2h5.1v25.9h-5.1V237.2z M98,237.2h5.1v25.9H98V237.2z M88.8,237.2
	h5.1v25.9h-5.1V237.2z M79.5,237.2h5.1v25.9h-5.1V237.2z M70.3,237.2h5.1v25.9h-5.1V237.2z M53.3,237.2h5.1v25.9h-5.1V237.2z
	 M44,237.2h5.1v25.9H44V237.2z M34.8,237.2h5.1v25.9h-5.1V237.2z M116.6,266.4h5.1v25.9h-5.1V266.4z M107.3,266.4h5.1v25.9h-5.1
	V266.4z M98,266.4h5.1v25.9H98V266.4z M88.8,266.4h5.1v25.9h-5.1V266.4z M79.5,266.4h5.1v25.9h-5.1V266.4z M70.3,266.4h5.1v25.9
	h-5.1V266.4z M53.3,266.4h5.1v25.9h-5.1V266.4z M44,266.4h5.1v25.9H44V266.4z M34.8,266.4h5.1v25.9h-5.1V266.4z"/>
<path class="st2" d="M493,141.8h120.1v172.3H493V141.8z"/>
<path class="st3" d="M496.9,141.8h37.4v172.3h-37.4V141.8z"/>
<path class="st4" d="M493,151.3h120.1v1.5H493V151.3z M493,162.6h120.1v1.5H493V162.6z M493,174h120.1v1.5H493V174z M493,185.3
	h120.1v1.5H493V185.3z M493,196.7h120.1v1.5H493V196.7z M493,208.1h120.1v1.5H493V208.1z M493,219.5h120.1v1.5H493V219.5z
	 M493,230.9h120.1v1.5H493V230.9z M493,242.2h120.1v1.5H493V242.2z M493,253.6h120.1v1.5H493V253.6z M493,264.9h120.1v1.5H493V264.9
	z M493,276.3h120.1v1.5H493V276.3z M493,287.7h120.1v1.5H493V287.7z M493,299.1h120.1v1.5H493V299.1z"/>
<path class="st2" d="M106.1,16h140.2v298.1H106.1V16z"/>
<path class="st5" d="M106.1,16h43.7v298.1h-43.7V16z"/>
<path class="st4" d="M230.8,30.1h6.4v8.6h-6.4V30.1z M219,30.1h6.4v8.6H219V30.1z M207.3,30.1h6.4v8.6h-6.4V30.1z M195.5,30.1h6.4
	v8.6h-6.4V30.1z M183.7,30.1h6.4v8.6h-6.4V30.1z M172,30.1h6.4v8.6H172V30.1z M160.2,30.1h6.4v8.6h-6.4V30.1z M138.6,30.1h6.4v8.6
	h-6.4V30.1z M126.8,30.1h6.4v8.6h-6.4V30.1z M115,30.1h6.4v8.6H115V30.1z M230.8,48.1h6.4v8.6h-6.4V48.1z M219,48.1h6.4v8.6H219
	V48.1z M207.3,48.1h6.4v8.6h-6.4V48.1z M195.5,48.1h6.4v8.6h-6.4V48.1z M183.7,48.1h6.4v8.6h-6.4V48.1z M172,48.1h6.4v8.6H172V48.1z
	 M160.2,48.1h6.4v8.6h-6.4V48.1z M138.6,48.1h6.4v8.6h-6.4V48.1z M126.8,48.1h6.4v8.6h-6.4V48.1z M115,48.1h6.4v8.6H115V48.1z
	 M230.8,66.1h6.4v8.6h-6.4V66.1z M219,66.1h6.4v8.6H219V66.1z M207.3,66.1h6.4v8.6h-6.4V66.1z M195.5,66.1h6.4v8.6h-6.4V66.1z
	 M183.7,66.1h6.4v8.6h-6.4V66.1z M172,66.1h6.4v8.6H172V66.1z M160.2,66.1h6.4v8.6h-6.4V66.1z M138.6,66.1h6.4v8.6h-6.4V66.1z
	 M126.8,66.1h6.4v8.6h-6.4V66.1z M115,66.1h6.4v8.6H115V66.1z M230.8,84.1h6.4v8.6h-6.4V84.1z M219,84.1h6.4v8.6H219V84.1z
	 M207.3,84.1h6.4v8.6h-6.4V84.1z M195.5,84.1h6.4v8.6h-6.4V84.1z M183.7,84.1h6.4v8.6h-6.4V84.1z M172,84.1h6.4v8.6H172V84.1z
	 M160.2,84.1h6.4v8.6h-6.4V84.1z M138.6,84.1h6.4v8.6h-6.4V84.1z M126.8,84.1h6.4v8.6h-6.4V84.1z M115,84.1h6.4v8.6H115V84.1z
	 M230.8,102h6.4v8.6h-6.4V102z M219,102h6.4v8.6H219V102z M207.3,102h6.4v8.6h-6.4V102z M195.5,102h6.4v8.6h-6.4V102z M183.7,102
	h6.4v8.6h-6.4V102z M172,102h6.4v8.6H172V102z M160.2,102h6.4v8.6h-6.4V102z M138.6,102h6.4v8.6h-6.4V102z M126.8,102h6.4v8.6h-6.4
	V102z M115,102h6.4v8.6H115V102z M230.8,120h6.4v8.6h-6.4V120z M219,120h6.4v8.6H219V120z M207.3,120h6.4v8.6h-6.4V120z M195.5,120
	h6.4v8.6h-6.4V120z M183.7,120h6.4v8.6h-6.4V120z M172,120h6.4v8.6H172V120z M160.2,120h6.4v8.6h-6.4V120z M138.6,120h6.4v8.6h-6.4
	V120z M126.8,120h6.4v8.6h-6.4V120z M115,120h6.4v8.6H115V120z M230.8,138h6.4v8.6h-6.4V138z M219,138h6.4v8.6H219V138z M207.3,138
	h6.4v8.6h-6.4V138z M195.5,138h6.4v8.6h-6.4V138z M183.7,138h6.4v8.6h-6.4V138z M172,138h6.4v8.6H172V138z M160.2,138h6.4v8.6h-6.4
	V138z M138.6,138h6.4v8.6h-6.4V138z M126.8,138h6.4v8.6h-6.4V138z M115,138h6.4v8.6H115V138z M230.8,156h6.4v8.6h-6.4V156z M219,156
	h6.4v8.6H219V156z M207.3,156h6.4v8.6h-6.4V156z M195.5,156h6.4v8.6h-6.4V156z M183.7,156h6.4v8.6h-6.4V156z M172,156h6.4v8.6H172
	V156z M160.2,156h6.4v8.6h-6.4V156z M138.6,156h6.4v8.6h-6.4V156z M126.8,156h6.4v8.6h-6.4V156z M115,156h6.4v8.6H115V156z
	 M230.8,173.9h6.4v8.6h-6.4V173.9z M219,173.9h6.4v8.6H219V173.9z M207.3,173.9h6.4v8.6h-6.4V173.9z M195.5,173.9h6.4v8.6h-6.4
	V173.9z M183.7,173.9h6.4v8.6h-6.4V173.9z M172,173.9h6.4v8.6H172V173.9z M160.2,173.9h6.4v8.6h-6.4V173.9z M138.6,173.9h6.4v8.6
	h-6.4V173.9z M126.8,173.9h6.4v8.6h-6.4V173.9z M115,173.9h6.4v8.6H115V173.9z M230.8,191.9h6.4v8.6h-6.4V191.9z M219,191.9h6.4v8.6
	H219V191.9z M207.3,191.9h6.4v8.6h-6.4V191.9z M195.5,191.9h6.4v8.6h-6.4V191.9z M183.7,191.9h6.4v8.6h-6.4V191.9z M172,191.9h6.4
	v8.6H172V191.9z M160.2,191.9h6.4v8.6h-6.4V191.9z M138.6,191.9h6.4v8.6h-6.4V191.9z M115,191.9h6.4v8.6H115V191.9z M230.8,209.9
	h6.4v8.6h-6.4V209.9z M219,209.9h6.4v8.6H219V209.9z M207.3,209.9h6.4v8.6h-6.4V209.9z M195.5,209.9h6.4v8.6h-6.4V209.9z
	 M183.7,209.9h6.4v8.6h-6.4V209.9z M172,209.9h6.4v8.6H172V209.9z M160.2,209.9h6.4v8.6h-6.4V209.9z M138.6,209.9h6.4v8.6h-6.4
	V209.9z M115,209.9h6.4v8.6H115V209.9z M230.8,227.9h6.4v8.6h-6.4V227.9z M219,227.9h6.4v8.6H219V227.9z M207.3,227.9h6.4v8.6h-6.4
	V227.9z M195.5,227.9h6.4v8.6h-6.4V227.9z M183.7,227.9h6.4v8.6h-6.4V227.9z M172,227.9h6.4v8.6H172V227.9z M160.2,227.9h6.4v8.6
	h-6.4V227.9z M138.6,227.9h6.4v8.6h-6.4V227.9z M115,227.9h6.4v8.6H115V227.9z M230.8,245.8h6.4v8.6h-6.4V245.8z M219,245.8h6.4v8.6
	H219V245.8z M207.3,245.8h6.4v8.6h-6.4V245.8z M195.5,245.8h6.4v8.6h-6.4V245.8z M183.7,245.8h6.4v8.6h-6.4V245.8z M172,245.8h6.4
	v8.6H172V245.8z M160.2,245.8h6.4v8.6h-6.4V245.8z M138.6,245.8h6.4v8.6h-6.4V245.8z M115,245.8h6.4v8.6H115V245.8z M230.8,263.8
	h6.4v8.6h-6.4V263.8z M219,263.8h6.4v8.6H219V263.8z M207.3,263.8h6.4v8.6h-6.4V263.8z M195.5,263.8h6.4v8.6h-6.4V263.8z
	 M183.7,263.8h6.4v8.6h-6.4V263.8z M172,263.8h6.4v8.6H172V263.8z M160.2,263.8h6.4v8.6h-6.4V263.8z M138.6,263.8h6.4v8.6h-6.4
	V263.8z M115,263.8h6.4v8.6H115V263.8z M230.8,281.8h6.4v8.6h-6.4V281.8z M219,281.8h6.4v8.6H219V281.8z M207.3,281.8h6.4v8.6h-6.4
	V281.8z M195.5,281.8h6.4v8.6h-6.4V281.8z M183.7,281.8h6.4v8.6h-6.4V281.8z M172,281.8h6.4v8.6H172V281.8z M160.2,281.8h6.4v8.6
	h-6.4V281.8z M138.6,281.8h6.4v8.6h-6.4V281.8z M127.1,191.9h6.4v8.6h-6.4V191.9z M127.1,209.9h6.4v8.6h-6.4V209.9z M127.1,227.9
	h6.4v8.6h-6.4V227.9z M127.1,245.8h6.4v8.6h-6.4V245.8z M127.1,263.8h6.4v8.6h-6.4V263.8z M127.1,281.8h6.4v8.6h-6.4V281.8z
	 M115,281.8h6.4v8.6H115V281.8z"/>
<path class="st5" d="M212,16h-72V6.9c0-3.8,2.9-6.9,6.6-6.9h58.8c3.6,0,6.6,3.1,6.6,6.9V16z"/>
<path class="st6" d="M462.5,354.3l11.5-17.2L462.5,320h8.8c6.4,0,11.5,7.7,11.5,17.1c0,9.5-5.2,17.2-11.5,17.2H462.5z"/>
<path class="st7" d="M462.5,320c6.4,0,11.5,7.7,11.5,17.1c0,9.5-5.2,17.2-11.5,17.2c-6.4,0-11.5-7.7-11.5-17.2
	C451,327.7,456.2,320,462.5,320z"/>
<path class="st6" d="M406.5,352.3l11.5-17.2L406.5,318h8.8c6.4,0,11.5,7.7,11.5,17.1c0,9.5-5.2,17.2-11.5,17.2H406.5z"/>
<path class="st7" d="M406.5,318c6.4,0,11.5,7.7,11.5,17.1c0,9.5-5.2,17.2-11.5,17.2c-6.4,0-11.5-7.7-11.5-17.2
	C395,325.7,400.2,318,406.5,318z"/>
<path class="st6" d="M364.5,352.3l11.5-17.2L364.5,318h8.8c6.4,0,11.5,7.7,11.5,17.1c0,9.5-5.2,17.2-11.5,17.2H364.5z"/>
<path class="st7" d="M364.5,318c6.4,0,11.5,7.7,11.5,17.1c0,9.5-5.2,17.2-11.5,17.2c-6.4,0-11.5-7.7-11.5-17.2
	C353,325.7,358.2,318,364.5,318z"/>
<path class="st6" d="M225.5,349.3l11.5-17.2L225.5,315h8.8c6.4,0,11.5,7.7,11.5,17.1c0,9.5-5.2,17.2-11.5,17.2H225.5z"/>
<path class="st7" d="M225.5,315c6.4,0,11.5,7.7,11.5,17.1c0,9.5-5.2,17.2-11.5,17.2c-6.4,0-11.5-7.7-11.5-17.2
	C214,322.7,219.2,315,225.5,315z"/>
<path class="st6" d="M175.3,349l11.5-17.1l-11.5-17.1h8.8c6.4,0,11.5,7.7,11.5,17.1c0,9.5-5.2,17.1-11.5,17.1H175.3z"/>
<path class="st7" d="M175.3,314.7c6.4,0,11.5,7.7,11.5,17.1c0,9.5-5.2,17.1-11.5,17.1c-6.4,0-11.5-7.7-11.5-17.1
	C163.8,322.3,168.9,314.7,175.3,314.7z"/>
<path class="st6" d="M87.7,349l11.5-17.1l-11.5-17.1h8.8c6.4,0,11.5,7.7,11.5,17.1c0,9.5-5.2,17.1-11.5,17.1H87.7z"/>
<path class="st7" d="M87.7,314.7c6.4,0,11.5,7.7,11.5,17.1c0,9.5-5.2,17.1-11.5,17.1c-6.4,0-11.5-7.7-11.5-17.1
	C76.2,322.3,81.3,314.7,87.7,314.7z"/>
<path class="st8" d="M486.5,317.9h-238L269,333c3.6,2.6,7.6,4,11.8,4h205.7v-4.5V317.9z"/>
<path class="st9" d="M277.7,328.4h39.5c0.7,0,1.4,0.9,1.4,2v0.7c0,1.1-0.6,2-1.4,2h-39.5c-0.7,0-1.4-0.9-1.4-2v-0.7
	C276.3,329.3,277,328.4,277.7,328.4z"/>
<path class="st9" d="M277.7,320.8h39.5c0.7,0,1.4,0.9,1.4,2v0.7c0,1.1-0.6,2-1.4,2h-39.5c-0.7,0-1.4-0.9-1.4-2v-0.7
	C276.3,321.7,277,320.8,277.7,320.8z"/>
<path class="st8" d="M261.7,340.4v-13.9h3.8v13.9h1.1v2.9h-6v-2.9H261.7z"/>
<path class="st8" d="M470.2,327.4h-2.9v19h2.9V327.4z"/>
<rect x="227.6" y="322.7" class="st8" width="2.9" height="20.9"/>
<path class="st8" d="M235.1,317.9H14.3c-1.6,0-2.9,1.9-2.9,4.3v9.4c0,2.4,1.3,4.4,2.9,4.4h203.6c0,0,4.6,0,11.6,0
	C236.5,336,235.1,317.9,235.1,317.9z"/>
<path class="st7" d="M571.2,318.1V316l-89.5,1.1l-0.8,1c-3.2,0-5.8,2.5-5.8,5.6v7.6c0,3.1,2.6,5.5,5.8,5.6h90.3
	c3.2,0,5.8-2.5,5.8-5.6v-7.6C577,320.6,574.4,318.2,571.2,318.1z"/>
<path class="st9" d="M121.4,336h14.4c1.3,0,2.4-1.1,2.4-2.4v-15.8H119v15.8C119,335,120.1,336,121.4,336z"/>
<path class="st9" d="M106.2,336h8.7c1.3,0,2.4-1.1,2.4-2.4v-15.8h-13.4v15.8C103.8,335,104.9,336,106.2,336z"/>
<path class="st9" d="M91.1,336h8.7c1.3,0,2.4-1.1,2.4-2.4v-15.8H88.7v15.8C88.7,335,89.8,336,91.1,336z"/>
<path class="st10" d="M483,198l-5.9-1l-388.1,5.4v116.5h393.8L483,198z"/>
<path class="st11" d="M482.7,290.5l-396.6,9l-0.8,19.4h397.4V290.5z"/>
<path class="st12" d="M89,299.5l390.9-6.1V282L89,291.8V299.5z"/>
<path class="st13" d="M501,328.1c0,1.2,1,2.1,2.2,2.1c1.2,0,2.2-1,2.2-2.1s-1-2.1-2.2-2.1C502,325.9,501,326.9,501,328.1
	C501,328,501,328,501,328.1z"/>
<path class="st14" d="M484,328c0,2.9,2.3,5,5,5c2.7,0,5-2.3,5-5c0-2.7-2.3-5-5-5C486.3,322.8,484,325.1,484,328
	C484,327.8,484,327.8,484,328z"/>
<path class="st13" d="M552,328.1c0,1.2,1,2.1,2.2,2.1c1.2,0,2.2-1,2.2-2.1s-1-2.1-2.2-2.1C553,325.9,552,326.9,552,328.1
	C552,328,552,328,552,328.1z"/>
<path class="st14" d="M561,328c0,2.9,2.3,5,5,5c2.7,0,5-2.3,5-5c0-2.7-2.3-5-5-5C563.3,322.8,561,325.1,561,328
	C561,327.8,561,327.8,561,328z"/>
<path class="st15" d="M573,319h-96V198h96V319z"/>
<path class="st16" d="M573,197l-96,0v3l96,0V197z"/>
<path class="st17" d="M568.2,290h-27.9v28.2h27.9V290z"/>
<path class="st18" d="M526.4,285.3l13.9,4.7v28.1l-13.9-4.7V285.3z"/>
<path class="st19" d="M568.2,290l-13.9-4.7h-27.9l13.9,4.7H568.2z"/>
<path class="st20" d="M536.1,308.9v7.8l-4.2-1.4v-7.9L536.1,308.9z"/>
<path class="st21" d="M536.1,288.6v7.9l-4.2-1.4v-7.9L536.1,288.6z"/>
<path class="st22" d="M559.8,287.2l0.6,0.2l0.8,0.3l3,0.9h-28l-4.2-1.4H559.8z"/>
<path class="st23" d="M551,301.6h-16.5v16.6H551V301.6z"/>
<path class="st17" d="M526.4,298.9l8.3,2.8v16.6l-8.3-2.8V298.9z"/>
<path class="st24" d="M551,301.6l-8.2-2.8h-16.5l8.3,2.8H551z"/>
<path class="st22" d="M532.1,312.7v4.6l-2.5-0.8v-4.7L532.1,312.7z M532.1,300.8v4.6l-2.5-0.8v-4.6L532.1,300.8z"/>
<path class="st25" d="M546.1,299.9l0.3,0.1l0.5,0.2l1.7,0.5h-16.5l-2.5-0.8H546.1z"/>
<path class="st26" d="M530.7,265.3h-35.8v52.9h35.8V265.3z"/>
<path class="st27" d="M477,264.6l17.9,0.7v52.9l-17.9,0.1V264.6z"/>
<path class="st28" d="M482.4,303.5v14.9H477V301L482.4,303.5z"/>
<path class="st29" d="M456.1,337c0-18.7-12.5-26.7-23.4-26.7c-11,0-22.3,7.9-22.3,26.7"/>
<path class="st6" d="M428.1,355.5l13.3-19.8l-13.3-19.8h10.1c7.3,0,13.3,8.8,13.3,19.8s-6,19.8-13.3,19.8H428.1z"/>
<path class="st7" d="M428.1,315.9c7.3,0,13.3,8.8,13.3,19.8c0,10.9-6,19.8-13.3,19.8c-7.3,0-13.3-8.8-13.3-19.8
	C414.9,324.8,420.8,315.9,428.1,315.9z"/>
<path class="st30" d="M420.6,335.7c0,6.2,3.4,11.2,7.5,11.2c4.1,0,7.5-5,7.5-11.2c0-6.2-3.4-11.2-7.5-11.2
	C424,324.5,420.6,329.5,420.6,335.7z"/>
<path class="st29" d="M412.3,337c0-18.3-12.5-26.7-23.4-26.7c-11,0-22.3,8.2-22.3,26.7"/>
<path class="st6" d="M385.3,355.5l13.3-19.8l-13.3-19.8h10.1c7.3,0,13.3,8.8,13.3,19.8s-6,19.8-13.3,19.8H385.3z"/>
<path class="st7" d="M385.3,315.9c7.3,0,13.3,8.8,13.3,19.8c0,10.9-6,19.8-13.3,19.8s-13.3-8.8-13.3-19.8
	C372,324.8,378,315.9,385.3,315.9z"/>
<path class="st30" d="M377.8,335.7c0,6.2,3.4,11.2,7.5,11.2c4.1,0,7.5-5,7.5-11.2c0-6.2-3.4-11.2-7.5-11.2
	C381.2,324.5,377.8,329.5,377.8,335.7z"/>
<path class="st29" d="M369.4,337c0-18.3-12.5-26.2-23.4-26.2c-11,0-22.3,7.8-22.3,26.2"/>
<path class="st6" d="M341.5,355.5l13.3-19.8l-13.3-19.8h10.1c7.3,0,13.3,8.8,13.3,19.8s-6,19.8-13.3,19.8H341.5z"/>
<path class="st7" d="M341.5,315.9c7.3,0,13.3,8.8,13.3,19.8c0,10.9-6,19.8-13.3,19.8c-7.3,0-13.3-8.8-13.3-19.8
	C328.2,324.8,334.2,315.9,341.5,315.9z"/>
<path class="st30" d="M334,335.7c0,6.2,3.4,11.2,7.5,11.2c4.1,0,7.5-5,7.5-11.2c0-6.2-3.4-11.2-7.5-11.2
	C337.4,324.5,334,329.5,334,335.7z"/>
<path class="st29" d="M225.7,336c0-18-12.4-26.7-23.3-26.7c-11,0-22.4,8.5-22.4,26.7"/>
<path class="st6" d="M197.7,352.1l13.3-19.8l-13.3-19.8h10.1c7.3,0,13.3,8.8,13.3,19.8c0,10.9-6,19.8-13.3,19.8H197.7z"/>
<path class="st7" d="M197.7,312.6c7.3,0,13.3,8.8,13.3,19.8c0,10.9-6,19.8-13.3,19.8s-13.3-8.8-13.3-19.8
	C184.4,321.5,190.4,312.6,197.7,312.6z"/>
<path class="st30" d="M190.2,332.3c0,6.2,3.4,11.2,7.5,11.2c4.1,0,7.5-5,7.5-11.2c0-6.2-3.4-11.2-7.5-11.2
	C193.6,321.2,190.2,326.2,190.2,332.3z"/>
<path class="st29" d="M184.7,336c0-18.3-12.5-26.2-23.4-26.2c-11,0-22.3,7.8-22.3,26.2"/>
<path class="st6" d="M156.8,352.1l13.3-19.8l-13.3-19.8h10.1c7.3,0,13.3,8.8,13.3,19.8c0,10.9-6,19.8-13.3,19.8H156.8z"/>
<path class="st7" d="M156.8,312.6c7.3,0,13.3,8.8,13.3,19.8c0,10.9-6,19.8-13.3,19.8s-13.3-8.8-13.3-19.8
	C143.5,321.5,149.5,312.6,156.8,312.6z"/>
<path class="st30" d="M149.3,332.3c0,6.2,3.4,11.2,7.5,11.2c4.1,0,7.5-5,7.5-11.2c0-6.2-3.4-11.2-7.5-11.2
	C152.6,321.2,149.3,326.2,149.3,332.3z"/>
<path class="st16" d="M89.5,219.4l-2.4,0.3l-1.9,0.6l-0.5,98.5l4.8,0.1V219.4z"/>
<path class="st16" d="M43.1,237.9l43.4,1.9c0.2,0,0.3-0.1,0.3-0.3v-5.4c0-0.2-0.2-0.3-0.3-0.3l-42.6,2.9L43.1,237.9z"/>
<path class="st10" d="M86.5,237.9l-74.6,8.7c0,0-11.9,49.2-11.9,52.1l0.3,18.1c0,0,3.8,14.5,6.9,14.5h69.6c5.6,0,10.1-4.1,10.1-9.2
	v-83.9C86.8,238.1,86.6,237.9,86.5,237.9z"/>
<path class="st13" d="M7.7,307.7c0-1.9-0.7-3.7-2-5.1c-1.3-1.4-3.9-2.1-5.7-2.1L0.2,315c1.8,0,4.2-0.7,5.5-2.1
	C7,311.5,7.7,309.7,7.7,307.7z"/>
<path class="st11" d="M33.4,316.9l15.2-14.6l38.2-3.7v18.1c0,0.2-0.1,0.3-0.3,0.3L33.4,316.9z"/>
<path class="st10" d="M12,247.7h74.8v-9.8h-59c-6.7,0-12.9,3.3-16.4,8.7C11.1,247.1,11.4,247.7,12,247.7z"/>
<path class="st10" d="M86.8,237.3H43.5c0,0,6.5-13.6,43.3-17.5V237.3z"/>
<path class="st16" d="M11.4,248.7l75.4-0.3c0,0,0-0.1,0-0.3v-0.3H11.7L11.4,248.7z"/>
<path class="st8" d="M86.9,336H55v-25.7h31.9V336z"/>
<path class="st10" d="M6.6,336h29.6l2.2-16.7H0.3v11.4C0.3,333.6,3.1,336,6.6,336z"/>
<path class="st8" d="M0.3,316.8h39.3v2.5H0.3V316.8z"/>
<path class="st15" d="M8.7,327.9h18.9v7.3H8.7V327.9z"/>
<path class="st15" d="M8.7,319.3h18.9v7.3H8.7V319.3z"/>
<path class="st6" d="M8.7,333.5h18.9v1.6H8.7V333.5z"/>
<path class="st6" d="M8.7,325h18.9v1.6H8.7V325z"/>
<path class="st6" d="M11.1,250h46.2c5.5,0,5.5,0,5.5,3.6V272c0,2.2-1.5,4-3.6,4.5l-55.5,4.7"/>
<path class="st31" d="M14.2,289.1c-2.1,0-3.8-1.6-3.8-3.6v-10.2h3.8V289.1z"/>
<path class="st10" d="M14.2,268.5v6.7h-3.8v-3.1C10.4,270.2,12.1,268.5,14.2,268.5z"/>
<path class="st32" d="M10.4,275.3h3.8v7.9h-3.8V275.3z"/>
<path class="st31" d="M10.4,281.2c-1.3,0-2.4,1-2.4,2.3c0,1.3,1.1,2.3,2.4,2.3"/>
<path class="st16" d="M81.6,278.4l-52.5,4.4c-2.4,0.3-4.1,2.2-4,4.5c0.1,2.3,2,4.1,4.4,4.3l52.7,0.7"/>
<path class="st33" d="M52.3,285.9h4.2c1.4,0,2.6-1.1,2.6-2.5h-4.2C53.5,283.4,52.3,284.5,52.3,285.9z"/>
<path class="st12" d="M86.8,291.7c0,0-45.8-1.6-55.7,25.1h8.4c0,0,4.9-17.2,47.2-17.2"/>
<path class="st34" d="M65.1,280.2v17.5c0,3.8-3.2,6.8-7.1,6.8h-6.9c-1.9,0-8.2,0.3-10,2.1c-2.4,2.3-5.8,5.7-5.8,5.7
	c-1.3,1.3-3.2,2.1-5.1,2.1H13.4c-2.3,0-4.2-1.8-4.2-4V293"/>
<path class="st29" d="M78.8,336c0-18.5-12.4-27.5-23.3-27.5c-11,0-22.5,8.9-22.5,27.5"/>
<path class="st6" d="M50.7,350.7L64,330.9c0,0.1-13.3-19.8-13.3-19.8h10.1c7.3,0,13.3,8.8,13.3,19.8c0,10.9-6,19.8-13.3,19.8H50.7z"
	/>
<path class="st7" d="M50.7,311.2c7.3,0,13.3,8.8,13.3,19.8c0,10.9-6,19.8-13.3,19.8s-13.3-8.8-13.3-19.8
	C37.4,320.1,43.4,311.2,50.7,311.2z"/>
<path class="st30" d="M43.2,330.9c0,6.2,3.4,11.2,7.5,11.2c4.1,0,7.5-5,7.5-11.2c0-6.2-3.4-11.2-7.5-11.2
	C46.6,319.8,43.2,324.8,43.2,330.9z"/>
<path class="st35" d="M588,292.5c0.2,0,0.5,0.4,0.8,1.1c0.2,0.4,0.3,0.8,0.5,1.3c0.2,0.5,0.4,1,0.7,1.6c0.3,0.6,0.6,1.2,0.9,1.8
	c0.2,0.3,0.4,0.6,0.6,0.8c0.2,0.3,0.5,0.5,0.7,0.8c0.3,0.2,0.5,0.4,0.8,0.6c0.3,0.2,0.6,0.3,0.9,0.5c0.3,0.1,0.6,0.2,0.9,0.3
	c0.1,0,0.2,0,0.2,0l0.2,0c0.2,0,0.3,0,0.5,0c0.7,0,1.4-0.1,2.1-0.3c0.3-0.1,0.7-0.2,1-0.3c0.2-0.1,0.3-0.1,0.5-0.2
	c0.1-0.1,0.3-0.1,0.5-0.2c0.3-0.1,0.6-0.3,0.9-0.5c0.3-0.2,0.6-0.3,0.9-0.5c0.5-0.4,1.1-0.7,1.6-1.1c0.5-0.3,0.9-0.7,1.4-0.9
	c0.4-0.3,0.8-0.5,1.2-0.7c0.3-0.2,0.7-0.3,1-0.3c0.3,0,0.5,0,0.8,0.2c0.2,0.2,0.4,0.4,0.4,0.7c0.1,0.4,0.1,0.7,0,1.1
	c-0.1,0.5-0.2,1-0.4,1.5c-0.3,0.6-0.6,1.2-1,1.8c-0.5,0.7-1.1,1.4-1.7,1.9c-0.4,0.3-0.7,0.7-1.1,0.9c-0.4,0.3-0.9,0.6-1.4,0.9
	c-0.2,0.1-0.5,0.3-0.7,0.4c-0.3,0.1-0.5,0.2-0.8,0.3c-0.6,0.2-1.1,0.4-1.7,0.5c-1.3,0.3-2.6,0.3-3.9,0.1c-0.3-0.1-0.7-0.1-1-0.2
	l-0.5-0.2c-0.2-0.1-0.3-0.1-0.5-0.2c-0.6-0.3-1.2-0.6-1.8-0.9c-0.5-0.4-1-0.8-1.4-1.2c-0.4-0.4-0.7-0.9-1.1-1.4
	c-0.3-0.5-0.5-0.9-0.8-1.4c-0.2-0.4-0.3-0.9-0.5-1.4c-0.2-0.8-0.4-1.6-0.4-2.4c-0.1-0.6-0.1-1.3-0.1-2c0-0.5,0.1-1,0.1-1.4
	C587.6,293,587.8,292.5,588,292.5L588,292.5z"/>
<path class="st4" d="M599,303c-0.2,4-0.2,8.1,0,12.1c3.9,1.3,7.9,1.6,12,1c0.3-4.1,0.5-8.2,0.5-12.3c0-2.2-0.1-4.3-0.7-6.4
	c-0.5-1.9-1.6-3.5-3.1-4.7c-0.2-0.1-0.4-0.2-0.5-0.4c-0.9,0.7-2.8,1-3.9,0.5c-0.6,0.4-1.1,0.8-1.5,1.3c-0.8,0.9-1.4,2-1.8,3.2
	C599.4,299.2,599.1,301.1,599,303z"/>
<path class="st36" d="M601.8,294.2c1,0.3,2.1,0.3,3.1,0c0.5-0.1,1.1-0.3,1.6-0.6c0.4-0.2,0.8-0.5,1.1-0.8l0-0.2v-0.1l-0.1-0.3
	c-0.2-1.1-0.4-2.3-0.5-3.4c-0.2-1.1-0.3-2.1-0.4-3.2c-1.2,0.6-2.3,1.3-3.4,2.1c0,0.7-0.1,1.4-0.1,2.2c-0.1,0.6-0.1,1.2-0.2,1.8
	c0,0.3-0.1,0.7-0.2,1c-0.1,0.3-0.1,0.6-0.2,0.9C602.2,293.7,602,293.9,601.8,294.2L601.8,294.2z"/>
<path class="st37" d="M602.8,291.6c1.3-1.1,2.7-2.1,4.2-2.8c-0.2-1.1-0.3-2.1-0.4-3.2c-1.2,0.6-2.3,1.3-3.4,2.1
	c0,0.7-0.1,1.4-0.1,2.2C603,290.4,602.9,291,602.8,291.6z"/>
<path class="st7" d="M625.1,351c0,0,0,2.8-2.6,2.7l-0.5,10.1l7-12.1L625.1,351z"/>
<path class="st4" d="M623.9,358.2c0-0.1,0-0.1-0.1-0.1c0,0-0.1-0.1-0.2,0c-0.6,0.1-1.1,0.2-1.6,0.4c-0.1,0-0.1,0.1-0.1,0.1
	c0,0.1,0,0.1,0,0.2c0,0,0,0,0.1,0.1c0,0,0,0,0.1,0c0.1,0,0.1,0,0.2,0c0.5-0.2,1-0.3,1.5-0.4c0,0,0.1,0,0.1,0c0,0,0.1-0.1,0.1-0.1
	C623.9,358.2,623.9,358.2,623.9,358.2z M624,356.9C624,356.9,624,356.8,624,356.9c0-0.1-0.1-0.1-0.1-0.1c0,0,0,0-0.1,0
	c0,0-0.1,0-0.1,0c-0.6,0.1-1.1,0.2-1.6,0.4c0,0-0.1,0-0.1,0.1c0,0,0,0,0,0.1c0,0.1,0,0.1,0,0.2c0,0,0,0,0.1,0.1c0,0,0,0,0.1,0
	c0,0,0.1,0,0.1,0c0,0,0.1,0,0.1,0c0.5-0.2,1-0.3,1.5-0.4c0,0,0.1,0,0.1,0c0,0,0.1,0,0.1-0.1S624,356.9,624,356.9L624,356.9z
	 M624.1,355.6C624.1,355.6,624.1,355.6,624.1,355.6c0-0.1-0.1-0.1-0.1-0.1c0,0-0.1,0-0.2,0c-0.6,0.1-1.1,0.2-1.6,0.4
	c-0.1,0-0.1,0.1-0.1,0.1c0,0.1,0,0.1,0,0.2c0,0.1,0.1,0.1,0.1,0.1c0.1,0,0.1,0,0.2,0c0.5-0.2,1-0.3,1.5-0.4c0,0,0.1,0,0.1,0
	c0,0,0.1-0.1,0.1-0.1C624.1,355.7,624.1,355.7,624.1,355.6L624.1,355.6z M623.3,364.2c0,0-0.1,0.1-0.1,0.1c0,0-0.1,0-0.1,0.1
	c0,0-0.1,0-0.1,0c0,0-0.1,0-0.1,0l-0.7-0.4l7-12.1l0.7,0.4c0,0,0.1,0.1,0.1,0.1c0,0,0,0.1,0.1,0.1c0,0,0,0.1,0,0.1c0,0,0,0.1,0,0.1
	L623.3,364.2z"/>
<path class="st7" d="M597.1,361.3c0,0-2.5,1.3-3.6-1l-9.2,4.3l13.9,0.6L597.1,361.3z"/>
<path class="st4" d="M590,363.6c0,0,0.1,0,0.1,0c0,0,0.1,0,0.1,0c0,0,0,0,0.1-0.1c0,0,0-0.1,0-0.1c0,0,0-0.1,0-0.1c0,0,0-0.1,0-0.1
	c-0.3-0.5-0.7-0.9-1.2-1.2c0,0-0.1,0-0.2,0c-0.1,0-0.1,0-0.2,0.1c0,0,0,0,0,0.1c0,0,0,0.1,0,0.1c0,0,0,0.1,0,0.1c0,0,0,0,0.1,0.1
	C589.2,362.7,589.6,363.1,590,363.6C589.9,363.6,589.9,363.6,590,363.6L590,363.6z M591.1,363.1c0,0,0.1,0,0.1,0c0,0,0.1,0,0.1,0
	c0,0,0,0,0.1-0.1c0,0,0-0.1,0-0.1c0,0,0-0.1,0-0.1c0,0,0-0.1,0-0.1c-0.3-0.5-0.7-0.9-1.2-1.2c0,0-0.1,0-0.1,0c0,0-0.1,0-0.1,0
	c0,0-0.1,0-0.1,0c0,0,0,0-0.1,0.1c0,0,0,0.1,0,0.2c0,0.1,0,0.1,0.1,0.1C590.4,362.2,590.7,362.6,591.1,363.1
	C591,363.1,591.1,363.1,591.1,363.1L591.1,363.1z M592.3,362.6c0,0,0.1,0,0.1,0c0,0,0.1,0,0.1-0.1c0,0,0-0.1,0.1-0.1
	c0,0,0-0.1,0-0.1c-0.3-0.5-0.7-0.9-1.2-1.2c-0.1,0-0.1,0-0.2,0c-0.1,0-0.1,0-0.2,0.1c0,0,0,0,0,0.1c0,0,0,0.1,0,0.1
	c0,0.1,0,0.1,0.1,0.1c0.4,0.3,0.8,0.7,1,1.1C592.2,362.5,592.2,362.6,592.3,362.6L592.3,362.6z M584.5,365.8
	c-0.1-0.1-0.2-0.1-0.2-0.3c0-0.1,0-0.1,0-0.2l0-0.8l13.9,0.6l0,0.8c0,0.1,0,0.1,0,0.2c0,0.1-0.1,0.1-0.1,0.1
	c-0.1,0.1-0.2,0.1-0.3,0.1l-13-0.6C584.6,365.9,584.6,365.8,584.5,365.8L584.5,365.8z"/>
<path class="st38" d="M611.3,318.4c0,0-3.2,18.9,16,32.4l-5.2,5.6c0,0-21.5-14.7-19.3-33.7L611.3,318.4z"/>
<path class="st39" d="M612,329.4c-0.3,0.4-0.6,0.8-0.9,1.2c-0.7,1.1-1.3,2.2-1.9,3.4c-0.9,2-1.7,4-2.3,6.1c-2.9-5-4.9-10.9-4.1-17.3
	l8.4-4.3C611.2,318.4,610.4,323.1,612,329.4z"/>
<path class="st40" d="M598.9,299.6c-0.8,6.7-0.9,13.4-0.3,20.2c0,0-10.6,20.7-8.3,41.5l8.1,2c0,0,1.8-27.3,12.8-41.1l0.5-13.7
	L603,307l-0.8-7.3L598.9,299.6z"/>
<path class="st38" d="M611.1,310c0.1,0,0.1-0.1,0.2-0.3c0.1-0.1,0.1-0.2,0.1-0.3c0.1-0.1,0.1-0.3,0.2-0.5c0-0.1,0.1-0.2,0.1-0.3
	c0-0.1,0-0.2,0.1-0.3c0-0.1,0.1-0.2,0.1-0.4c0-0.1,0-0.3,0.1-0.4c0-0.1,0-0.3,0.1-0.4l0.1-0.4c0-0.3,0.1-0.6,0.1-0.9
	c0-0.7,0-1.5,0-2.2c0-0.9-0.1-1.7-0.3-2.6c-0.1-0.9-0.3-1.9-0.6-2.8c-0.3-1-0.7-2-1.2-2.9c-0.3-0.5-0.7-0.9-1.1-1.3
	c-0.4-0.4-0.9-0.7-1.5-0.9c-0.3-0.1-0.5-0.2-0.8-0.2h-0.8c-0.5,0-1,0.2-1.5,0.4c-0.4,0.2-0.8,0.5-1.2,0.8c-0.1,0.1-0.2,0.2-0.3,0.2
	l-0.2,0.2l-0.2,0.3c-0.1,0.1-0.1,0.2-0.2,0.3c-0.2,0.3-0.4,0.7-0.6,1.1c-0.1,0.3-0.3,0.7-0.4,1c-0.2,0.6-0.3,1.2-0.3,1.8
	c0,0.5-0.1,0.9-0.1,1.4c0,0.8,0.1,1.2,0.2,1.2c0.1,0,0.2-0.4,0.3-1.1c0.1-0.4,0.1-0.8,0.3-1.3c0.1-0.6,0.3-1.1,0.5-1.7
	c0.2-0.6,0.6-1.2,1-1.7c0.1-0.1,0.1-0.1,0.2-0.2l0.2-0.2l0.2-0.2c0.1-0.1,0.1-0.1,0.2-0.2c0.3-0.2,0.6-0.4,0.9-0.5
	c0.3-0.1,0.7-0.2,1.1-0.2h0.6c0.2,0,0.4,0.1,0.5,0.2c0.8,0.4,1.4,0.9,1.8,1.7c0.5,0.8,0.8,1.6,1,2.5c0.2,0.9,0.4,1.8,0.6,2.6
	c0.2,0.8,0.3,1.6,0.3,2.4c0.1,0.8,0.1,1.5,0.1,2.1v3.6c0,0.1,0,0.2,0,0.4C611,309.9,611,310,611.1,310L611.1,310z"/>
<path class="st41" d="M595.1,293.8H579v16.1h16.1V293.8z"/>
<path class="st42" d="M571,291.1l8,2.7v16.1l-8-2.7V291.1z"/>
<path class="st43" d="M595.1,293.8l-8-2.7H571l8,2.7H595.1z"/>
<path class="st44" d="M585.2,294.8h-5.5v2.4h5.5V294.8z"/>
<path class="st45" d="M585.7,306.9l0,3.1h2.8v-3.1H585.7z M585.7,293.8l0,3.1h2.8v-3.1H585.7z M581.8,291.1h-2.6l6.5,2.7h2.8
	L581.8,291.1z"/>
<path class="st36" d="M609.4,299.9v0.1c0,1.7-0.4,3.4-1.2,5c-0.3,0.6-0.6,1.2-1,1.7c-0.4,0.6-0.9,1.1-1.4,1.5c-1.1,1-2.5,1.7-3.9,2
	c-0.7,0.2-1.3,0.3-2,0.3c-0.6,0-1.3,0-1.9-0.1c-0.6-0.1-1.1-0.2-1.7-0.4c-1-0.3-1.9-0.7-2.8-1.3c-0.7-0.4-1.4-0.9-2-1.4
	c-0.5-0.4-1-0.9-1.5-1.3l-0.2-0.2c-0.3,0-0.6,0-0.9,0c-0.3,0-0.6-0.1-0.8-0.2c-0.3-0.1-0.5-0.2-0.8-0.3c-0.3-0.1-0.5-0.3-0.7-0.5
	c-0.4-0.4-0.8-0.8-1.1-1.4c-0.1-0.3-0.2-0.5-0.3-0.8c-0.1-0.3-0.1-0.6-0.1-0.9c0-0.2,0-0.4,0-0.6c0-0.1,0-0.2,0.1-0.3
	c0.1-0.1,0.1-0.2,0.2-0.3c0.5-0.4,1.1,0,1.5,0.5s0.6,0.9,1,1.1c0.1,0,0.3,0.1,0.5,0c0.1,0,0.3-0.1,0.4-0.2c0,0,0.1-0.1,0.1-0.1
	c0.1-0.1,0.1-0.1,0.2-0.1c0.1,0,0.1-0.1,0.2-0.1c0.1,0,0.2,0,0.2,0c0.1,0,0.1,0.1,0.2,0.1c0,0,0.1,0.1,0.1,0.1
	c0.1,0.2,0.2,0.4,0.3,0.6c0.1,0.5,0.2,0.9,0.3,1.4c0.7,0.2,1.5,0.6,2.5,0.9c0.7,0.2,1.3,0.4,2,0.6c0.7,0.2,1.4,0.3,2.2,0.3
	c0.4,0,0.7,0,1.1,0c0.4,0,0.7-0.1,1.1-0.2c0.3-0.1,0.6-0.2,0.9-0.4c0.3-0.1,0.6-0.3,0.8-0.5c0.2-0.2,0.5-0.4,0.7-0.6
	c0.2-0.2,0.4-0.5,0.6-0.8c0.3-0.6,0.6-1.1,0.8-1.8c0.2-0.6,0.4-1.2,0.5-1.8c0.1-0.5,0.2-0.9,0.2-1.4c0.8,0.6,1.7,1,2.6,1.3
	C607.5,299.8,608.4,299.9,609.4,299.9L609.4,299.9z"/>
<path class="st40" d="M602.5,277.3c0.1-0.4,0.3-0.8,0.6-1.2c0.3-0.3,0.7-0.6,1.1-0.8c0.8-0.4,1.8-0.4,2.6-0.2
	c0.5,0.1,0.9,0.3,1.3,0.5c0.4,0.2,0.8,0.5,1.1,0.9c0.3,0.3,0.6,0.7,0.7,1.2c0.2,0.4,0.3,0.9,0.3,1.3c0,1.5-0.8,2.8-1.6,4
	C607,280.7,604.9,278.7,602.5,277.3z"/>
<path class="st39" d="M601.5,275.6c-0.4-0.3-0.9-0.4-1.4-0.4c-0.2,0-0.3,0.1-0.4,0.2c-0.1,0.1-0.3,0.2-0.3,0.3
	c-0.1,0.1-0.2,0.3-0.2,0.4c0,0.2-0.1,0.3,0,0.5c0,0.3,0.2,0.7,0.3,1c0.2,0.3,0.4,0.6,0.6,0.8c0.2,0.2,0.4,0.4,0.6,0.5
	c0.2,0.2,0.4,0.3,0.7,0.4c0.5,0.2,1,0.4,1.5,0.5c0.3,0.1,0.5,0.1,0.8,0.1c0.5,0,1.1,0,1.6-0.2c0.3-0.1,0.5-0.2,0.8-0.3
	c0.3-0.1,0.9-0.3,1-0.6c0.2-0.4-0.2-0.5-0.6-0.7C604.8,277.4,603.2,276.5,601.5,275.6z"/>
<path class="st7" d="M601.9,280.7c0.1,0,0.2,0,0.3,0s0.2,0.1,0.3,0.2c0.1,0.1,0.1,0.2,0.1,0.3c0,0.1,0,0.2,0,0.3
	c-0.1,0.9-0.5,1.7-0.9,2.4c-0.2-0.2-0.3-0.4-0.4-0.7c-0.2-0.5-0.3-1-0.2-1.6c0-0.3,0.1-0.5,0.2-0.8
	C601.5,281,601.7,280.7,601.9,280.7z M606,284.5c-0.1-0.9-0.1-1.9,0.1-2.8c0.2-1,0.6-2,1.2-2.9c0.4,0.4,0.8,0.9,1.1,1.4
	c0.2,0.6,0.4,1.2,0.4,1.9c0,0.3,0,0.6,0,1c0,0.3-0.1,0.6-0.1,1c-0.1,0.3-0.2,0.6-0.3,0.9c-0.1,0.3-0.3,0.6-0.4,0.9
	c-0.2,0.3-0.3,0.5-0.5,0.8c-0.2,0.2-0.4,0.5-0.7,0.7C606.3,286.4,606.1,285.5,606,284.5z"/>
<path class="st36" d="M602,280.5c0.2,1.2-0.3,2.3-0.8,3.4c-0.5,1.1-0.9,2.3-0.4,3.4c0.1,0.3,0.3,0.5,0.5,0.7
	c0.2,0.2,0.4,0.4,0.7,0.5c0.3,0.1,0.6,0.2,0.9,0.3c0.3,0.1,0.6,0.1,0.9,0c0.6-0.1,1.2-0.4,1.7-0.7c0.5-0.4,0.9-0.8,1.2-1.4
	c0.3-0.5,0.5-1.1,0.6-1.7c0.1-0.6,0.1-1.2,0-1.8c-0.1-1.2-0.4-2.4-0.8-3.6C605,278.9,603.2,279.4,602,280.5L602,280.5z"/>
<path class="st36" d="M606.9,283.6c0.1-0.2,0.3-0.3,0.5-0.4c0.1-0.1,0.2-0.1,0.3-0.1c0.1,0,0.2,0,0.3,0c0.1,0,0.3,0.1,0.3,0.2
	c0.1,0.1,0.2,0.2,0.2,0.4c0,0.1,0.1,0.3,0.1,0.4c0,0.1,0,0.3-0.1,0.4c0,0.1-0.1,0.3-0.2,0.4c-0.1,0.1-0.2,0.2-0.3,0.3
	c-0.1,0.1-0.2,0.2-0.3,0.2c-0.1,0.1-0.3,0.1-0.4,0.1c-0.1,0-0.3,0-0.4,0c-0.1,0-0.3-0.1-0.4-0.1
	C606.7,284.7,606.8,284.1,606.9,283.6L606.9,283.6z"/>
<path class="st7" d="M601.1,281.4c1.7,0.1,3.4-0.4,4.9-1.3c-0.1,0.5-0.1,1,0,1.6c0.1,0.4,0.3,0.7,0.5,1c0.2,0.3,0.5,0.6,0.8,0.8
	c0.7-1,1-2.2,0.9-3.4c0-0.1,0-0.3-0.1-0.4c-0.2-0.3-0.5-0.6-0.8-0.9c-0.5-0.4-1-0.8-1.6-1c-0.4-0.1-0.8-0.2-1.2-0.3
	c-0.8-0.1-1.7,0-2.5,0.2c-0.4,0.1-0.8,0.3-1.1,0.5c-0.1,0.1-0.2,0.2-0.3,0.3c-0.3,0.3-0.5,0.6-0.6,1c0,0.1,0,0.2-0.1,0.3
	c0,0.1,0,0.2,0,0.3c0,0.1,0,0.2,0,0.3c0,0.1,0,0.2,0.1,0.2s0.1,0.2,0.1,0.2c0.1,0.1,0.1,0.1,0.2,0.2c0.1,0.1,0.1,0.1,0.2,0.2
	c0.1,0,0.2,0.1,0.2,0.1C600.8,281.4,601,281.4,601.1,281.4L601.1,281.4z"/>
</svg>
