<svg version="1.1" xmlns="http://www.w3.org/2000/svg" xmlns:xlink="http://www.w3.org/1999/xlink" width="630" height="390" viewBox="0 0 630 390">
<style type="text/css">
	.st0{fill:#EAF1FC;}
	.st1{fill:#F8F8FF;}
	.st2{fill:#CDE4F7;}
	.st3{fill:#E9EDF4;}
	.st4{fill:#FFFFFF;}
	.st5{fill:#ECF7FE;}
	.st6{fill:#0F222C;}
	.st7{fill:#0B2B46;}
	.st8{fill:#1D4259;}
	.st9{fill:#8C8FAD;}
	.st10{fill:#448DCE;}
	.st11{fill:#F2F2F2;}
	.st12{fill:#F19100;}
	.st13{fill:#FFDA35;}
	.st14{fill:#FF524F;}
	.st15{fill:#2C6292;}
	.st16{fill:#3270A7;}
	.st17{fill:#1A568C;}
	.st18{fill:#114574;}
	.st19{fill:#164F83;}
	.st20{fill:#C07632;}
	.st21{fill:#0C3860;}
	.st22{fill:#11426D;}
	.st23{fill:#25649D;}
	.st24{fill:#3873A9;}
	.st25{fill:#164C7C;}
	.st26{fill:#3679B6;}
	.st27{fill:#2A6EAC;}
	.st28{fill:#23619A;}
	.st29{fill:#1B313C;}
	.st30{fill:#F9F8F9;}
	.st31{fill:#222846;}
	.st32{opacity:0.62;fill:none;stroke:#FFFFFF;stroke-linecap:round;stroke-miterlimit:10;enable-background:new    ;}
	.st33{fill:#191F43;}
	.st34{fill:#2275BF;}
	.st35{fill:#E08F73;}
	.st36{fill:#F09976;}
	.st37{fill:#E8815F;}
	.st38{fill:#047487;}
	.st39{fill:#05616B;}
	.st40{fill:#02819F;}
	.st41{fill:#F8C47A;}
	.st42{fill:#E19A54;}
	.st43{fill:#FFDF9A;}
	.st44{fill:#E4E6E6;}
	.st45{fill:#CE8D4D;}
</style>
<path class="st0" d="M315,374.3c172.9,0,313-20.9,313-46.6S487.9,281,315,281S2,301.9,2,327.6S142.1,374.3,315,374.3z"/>
<path class="st1" d="M575.2,314.6c40.5-78,62.8-227.2-24.9-276.7C492.9,5.5,433.1,47.1,371.7,49c-48.2,1.6-94.6-33.7-138-43.7
	C119.8-21.2-59.3,47.5,19.4,314.6C216.4,314.1,378.2,315.2,575.2,314.6z"/>
<path class="st2" d="M379,104.6h118.8v209.5H379V104.6z"/>
<path class="st3" d="M379,104.6h37v209.5h-37V104.6z"/>
<path class="st4" d="M483.5,110.5h5.5v6.3h-5.5V110.5z M473.4,110.5h5.5v6.3h-5.5V110.5z M463.3,110.5h5.5v6.3h-5.5V110.5z
	 M453.3,110.5h5.5v6.3h-5.5V110.5z M443.2,110.5h5.5v6.3h-5.5V110.5z M433.1,110.5h5.5v6.3h-5.5V110.5z M423,110.5h5.5v6.3H423
	V110.5z M404.5,110.5h5.5v6.3h-5.5V110.5z M394.5,110.5h5.5v6.3h-5.5V110.5z M384.4,110.5h5.5v6.3h-5.5V110.5z M483.5,123.7h5.5v6.3
	h-5.5V123.7z M473.4,123.7h5.5v6.3h-5.5V123.7z M463.3,123.7h5.5v6.3h-5.5V123.7z M453.3,123.7h5.5v6.3h-5.5V123.7z M443.2,123.7
	h5.5v6.3h-5.5V123.7z M433.1,123.7h5.5v6.3h-5.5V123.7z M423,123.7h5.5v6.3H423V123.7z M404.5,123.7h5.5v6.3h-5.5V123.7z
	 M394.5,123.7h5.5v6.3h-5.5V123.7z M384.4,123.7h5.5v6.3h-5.5V123.7z M483.5,136.8h5.5v6.3h-5.5V136.8z M473.4,136.8h5.5v6.3h-5.5
	V136.8z M463.3,136.8h5.5v6.3h-5.5V136.8z M453.3,136.8h5.5v6.3h-5.5V136.8z M443.2,136.8h5.5v6.3h-5.5V136.8z M433.1,136.8h5.5v6.3
	h-5.5V136.8z M423,136.8h5.5v6.3H423V136.8z M404.5,136.8h5.5v6.3h-5.5V136.8z M394.5,136.8h5.5v6.3h-5.5V136.8z M384.4,136.8h5.5
	v6.3h-5.5V136.8z M483.5,149.9h5.5v6.3h-5.5V149.9z M473.4,149.9h5.5v6.3h-5.5V149.9z M463.3,149.9h5.5v6.3h-5.5V149.9z
	 M453.3,149.9h5.5v6.3h-5.5V149.9z M443.2,149.9h5.5v6.3h-5.5V149.9z M433.1,149.9h5.5v6.3h-5.5V149.9z M423,149.9h5.5v6.3H423
	V149.9z M404.5,149.9h5.5v6.3h-5.5V149.9z M394.5,149.9h5.5v6.3h-5.5V149.9z M384.4,149.9h5.5v6.3h-5.5V149.9z M483.5,163.1h5.5v6.3
	h-5.5V163.1z M473.4,163.1h5.5v6.3h-5.5V163.1z M463.3,163.1h5.5v6.3h-5.5V163.1z M453.3,163.1h5.5v6.3h-5.5V163.1z M443.2,163.1
	h5.5v6.3h-5.5V163.1z M433.1,163.1h5.5v6.3h-5.5V163.1z M423,163.1h5.5v6.3H423V163.1z M404.5,163.1h5.5v6.3h-5.5V163.1z
	 M394.5,163.1h5.5v6.3h-5.5V163.1z M384.4,163.1h5.5v6.3h-5.5V163.1z M483.5,176.2h5.5v6.3h-5.5V176.2z M473.4,176.2h5.5v6.3h-5.5
	V176.2z M463.3,176.2h5.5v6.3h-5.5V176.2z M453.3,176.2h5.5v6.3h-5.5V176.2z M443.2,176.2h5.5v6.3h-5.5V176.2z M433.1,176.2h5.5v6.3
	h-5.5V176.2z M423,176.2h5.5v6.3H423V176.2z M404.5,176.2h5.5v6.3h-5.5V176.2z M394.5,176.2h5.5v6.3h-5.5V176.2z M384.4,176.2h5.5
	v6.3h-5.5V176.2z M483.5,189.4h5.5v6.3h-5.5V189.4z M473.4,189.4h5.5v6.3h-5.5V189.4z M463.3,189.4h5.5v6.3h-5.5V189.4z
	 M453.3,189.4h5.5v6.3h-5.5V189.4z M443.2,189.4h5.5v6.3h-5.5V189.4z M433.1,189.4h5.5v6.3h-5.5V189.4z M423,189.4h5.5v6.3H423
	V189.4z M404.5,189.4h5.5v6.3h-5.5V189.4z M394.5,189.4h5.5v6.3h-5.5V189.4z M384.4,189.4h5.5v6.3h-5.5V189.4z M483.5,202.5h5.5v6.3
	h-5.5V202.5z M473.4,202.5h5.5v6.3h-5.5V202.5z M463.3,202.5h5.5v6.3h-5.5V202.5z M453.3,202.5h5.5v6.3h-5.5V202.5z M443.2,202.5
	h5.5v6.3h-5.5V202.5z M433.1,202.5h5.5v6.3h-5.5V202.5z M423,202.5h5.5v6.3H423V202.5z M404.5,202.5h5.5v6.3h-5.5V202.5z
	 M394.5,202.5h5.5v6.3h-5.5V202.5z M384.4,202.5h5.5v6.3h-5.5V202.5z M483.5,215.6h5.5v6.3h-5.5V215.6z M473.4,215.6h5.5v6.3h-5.5
	V215.6z M463.3,215.6h5.5v6.3h-5.5V215.6z M453.3,215.6h5.5v6.3h-5.5V215.6z M443.2,215.6h5.5v6.3h-5.5V215.6z M433.1,215.6h5.5v6.3
	h-5.5V215.6z M423,215.6h5.5v6.3H423V215.6z M404.5,215.6h5.5v6.3h-5.5V215.6z M394.5,215.6h5.5v6.3h-5.5V215.6z M384.4,215.6h5.5
	v6.3h-5.5V215.6z M483.5,228.8h5.5v6.3h-5.5V228.8z M473.4,228.8h5.5v6.3h-5.5V228.8z M463.3,228.8h5.5v6.3h-5.5V228.8z
	 M453.3,228.8h5.5v6.3h-5.5V228.8z M443.2,228.8h5.5v6.3h-5.5V228.8z M433.1,228.8h5.5v6.3h-5.5V228.8z M423,228.8h5.5v6.3H423
	V228.8z M404.5,228.8h5.5v6.3h-5.5V228.8z M384.4,228.8h5.5v6.3h-5.5V228.8z M483.5,241.9h5.5v6.3h-5.5V241.9z M473.4,241.9h5.5v6.3
	h-5.5V241.9z M463.3,241.9h5.5v6.3h-5.5V241.9z M453.3,241.9h5.5v6.3h-5.5V241.9z M443.2,241.9h5.5v6.3h-5.5V241.9z M433.1,241.9
	h5.5v6.3h-5.5V241.9z M423,241.9h5.5v6.3H423V241.9z M404.5,241.9h5.5v6.3h-5.5V241.9z M384.4,241.9h5.5v6.3h-5.5V241.9z
	 M483.5,255.1h5.5v6.3h-5.5V255.1z M473.4,255.1h5.5v6.3h-5.5V255.1z M463.3,255.1h5.5v6.3h-5.5V255.1z M453.3,255.1h5.5v6.3h-5.5
	V255.1z M443.2,255.1h5.5v6.3h-5.5V255.1z M433.1,255.1h5.5v6.3h-5.5V255.1z M423,255.1h5.5v6.3H423V255.1z M404.5,255.1h5.5v6.3
	h-5.5V255.1z M384.4,255.1h5.5v6.3h-5.5V255.1z M483.5,268.2h5.5v6.3h-5.5V268.2z M473.4,268.2h5.5v6.3h-5.5V268.2z M463.3,268.2
	h5.5v6.3h-5.5V268.2z M453.3,268.2h5.5v6.3h-5.5V268.2z M443.2,268.2h5.5v6.3h-5.5V268.2z M433.1,268.2h5.5v6.3h-5.5V268.2z
	 M423,268.2h5.5v6.3H423V268.2z M404.5,268.2h5.5v6.3h-5.5V268.2z M384.4,268.2h5.5v6.3h-5.5V268.2z M483.5,281.4h5.5v6.3h-5.5
	V281.4z M473.4,281.4h5.5v6.3h-5.5V281.4z M463.3,281.4h5.5v6.3h-5.5V281.4z M453.3,281.4h5.5v6.3h-5.5V281.4z M443.2,281.4h5.5v6.3
	h-5.5V281.4z M433.1,281.4h5.5v6.3h-5.5V281.4z M423,281.4h5.5v6.3H423V281.4z M404.5,281.4h5.5v6.3h-5.5V281.4z M384.4,281.4h5.5
	v6.3h-5.5V281.4z M483.5,294.5h5.5v6.3h-5.5V294.5z M473.4,294.5h5.5v6.3h-5.5V294.5z M463.3,294.5h5.5v6.3h-5.5V294.5z
	 M453.3,294.5h5.5v6.3h-5.5V294.5z M443.2,294.5h5.5v6.3h-5.5V294.5z M433.1,294.5h5.5v6.3h-5.5V294.5z M423,294.5h5.5v6.3H423
	V294.5z M404.5,294.5h5.5v6.3h-5.5V294.5z M394.7,228.8h5.5v6.3h-5.5V228.8z M394.7,241.9h5.5v6.3h-5.5V241.9z M394.7,255.1h5.5v6.3
	h-5.5V255.1z M394.7,268.2h5.5v6.3h-5.5V268.2z M394.7,281.4h5.5v6.3h-5.5V281.4z M394.7,294.5h5.5v6.3h-5.5V294.5z M384.4,294.5
	h5.5v6.3h-5.5V294.5z"/>
<path class="st2" d="M285.8,54h109.7v260.4H285.8V54z"/>
<path class="st3" d="M285.8,54H320v260.4h-34.2V54z"/>
<path class="st4" d="M383.3,60.3h5.1v44.5h-5.1V60.3z M374,60.3h5.1v44.5H374V60.3z M364.7,60.3h5.1v44.5h-5.1V60.3z M355.4,60.3
	h5.1v44.5h-5.1V60.3z M346.1,60.3h5.1v44.5h-5.1V60.3z M336.8,60.3h5.1v44.5h-5.1V60.3z M327.5,60.3h5.1v44.5h-5.1V60.3z
	 M310.4,60.3h5.1v44.5h-5.1V60.3z M301.1,60.3h5.1v44.5h-5.1V60.3z M291.8,60.3h5.1v44.5h-5.1V60.3z M383.3,110.6h5.1v44.5h-5.1
	V110.6z M374,110.6h5.1v44.5H374V110.6z M364.7,110.6h5.1v44.5h-5.1V110.6z M355.4,110.6h5.1v44.5h-5.1V110.6z M346.1,110.6h5.1
	v44.5h-5.1V110.6z M336.8,110.6h5.1v44.5h-5.1V110.6z M327.5,110.6h5.1v44.5h-5.1V110.6z M310.4,110.6h5.1v44.5h-5.1V110.6z
	 M301.1,110.6h5.1v44.5h-5.1V110.6z M291.8,110.6h5.1v44.5h-5.1V110.6z M383.3,160.9h5.1v44.5h-5.1V160.9z M374,160.9h5.1v44.5H374
	V160.9z M364.7,160.9h5.1v44.5h-5.1V160.9z M355.4,160.9h5.1v44.5h-5.1V160.9z M346.1,160.9h5.1v44.5h-5.1V160.9z M336.8,160.9h5.1
	v44.5h-5.1V160.9z M327.5,160.9h5.1v44.5h-5.1V160.9z M310.4,160.9h5.1v44.5h-5.1V160.9z M301.1,160.9h5.1v44.5h-5.1V160.9z
	 M291.8,160.9h5.1v44.5h-5.1V160.9z M383.3,211.2h5.1v44.5h-5.1V211.2z M374,211.2h5.1v44.5H374V211.2z M364.7,211.2h5.1v44.5h-5.1
	V211.2z M355.4,211.2h5.1v44.5h-5.1V211.2z M346.1,211.2h5.1v44.5h-5.1V211.2z M336.8,211.2h5.1v44.5h-5.1V211.2z M327.5,211.2h5.1
	v44.5h-5.1V211.2z M310.4,211.2h5.1v44.5h-5.1V211.2z M301.1,211.2h5.1v44.5h-5.1V211.2z M291.8,211.2h5.1v44.5h-5.1V211.2z
	 M383.3,261.5h5.1V306h-5.1V261.5z M374,261.5h5.1V306H374V261.5z M364.7,261.5h5.1V306h-5.1V261.5z M355.4,261.5h5.1V306h-5.1
	V261.5z M346.1,261.5h5.1V306h-5.1V261.5z M336.8,261.5h5.1V306h-5.1V261.5z M327.5,261.5h5.1V306h-5.1V261.5z M310.4,261.5h5.1V306
	h-5.1V261.5z M301.1,261.5h5.1V306h-5.1V261.5z M291.8,261.5h5.1V306h-5.1V261.5z"/>
<path class="st2" d="M27.7,79.6H138v234.5H27.7V79.6z"/>
<path class="st3" d="M27.7,79.6h34.4v234.5H27.7V79.6z"/>
<path class="st4" d="M125.9,90.8h5.1v25.9h-5.1V90.8z M116.6,90.8h5.1v25.9h-5.1V90.8z M107.3,90.8h5.1v25.9h-5.1V90.8z M98,90.8
	h5.1v25.9H98V90.8z M88.8,90.8h5.1v25.9h-5.1V90.8z M79.5,90.8h5.1v25.9h-5.1V90.8z M70.3,90.8h5.1v25.9h-5.1V90.8z M53.3,90.8h5.1
	v25.9h-5.1V90.8z M44,90.8h5.1v25.9H44V90.8z M34.8,90.8h5.1v25.9h-5.1V90.8z M125.9,120h5.1V146h-5.1V120z M116.6,120h5.1V146h-5.1
	V120z M107.3,120h5.1V146h-5.1V120z M98,120h5.1V146H98V120z M88.8,120h5.1V146h-5.1V120z M79.5,120h5.1V146h-5.1V120z M70.3,120
	h5.1V146h-5.1V120z M53.3,120h5.1V146h-5.1V120z M44,120h5.1V146H44V120z M34.8,120h5.1V146h-5.1V120z M125.9,149.3h5.1v25.9h-5.1
	V149.3z M116.6,149.3h5.1v25.9h-5.1V149.3z M107.3,149.3h5.1v25.9h-5.1V149.3z M98,149.3h5.1v25.9H98V149.3z M88.8,149.3h5.1v25.9
	h-5.1V149.3z M79.5,149.3h5.1v25.9h-5.1V149.3z M70.3,149.3h5.1v25.9h-5.1V149.3z M53.3,149.3h5.1v25.9h-5.1V149.3z M44,149.3h5.1
	v25.9H44V149.3z M34.8,149.3h5.1v25.9h-5.1V149.3z M116.6,178.6h5.1v25.9h-5.1V178.6z M107.3,178.6h5.1v25.9h-5.1V178.6z M98,178.6
	h5.1v25.9H98V178.6z M88.8,178.6h5.1v25.9h-5.1V178.6z M79.5,178.6h5.1v25.9h-5.1V178.6z M70.3,178.6h5.1v25.9h-5.1V178.6z
	 M53.3,178.6h5.1v25.9h-5.1V178.6z M44,178.6h5.1v25.9H44V178.6z M34.8,178.6h5.1v25.9h-5.1V178.6z M116.6,207.9h5.1v25.9h-5.1
	V207.9z M107.3,207.9h5.1v25.9h-5.1V207.9z M98,207.9h5.1v25.9H98V207.9z M88.8,207.9h5.1v25.9h-5.1V207.9z M79.5,207.9h5.1v25.9
	h-5.1V207.9z M70.3,207.9h5.1v25.9h-5.1V207.9z M53.3,207.9h5.1v25.9h-5.1V207.9z M44,207.9h5.1v25.9H44V207.9z M34.8,207.9h5.1
	v25.9h-5.1V207.9z M116.6,237.2h5.1v25.9h-5.1V237.2z M107.3,237.2h5.1v25.9h-5.1V237.2z M98,237.2h5.1v25.9H98V237.2z M88.8,237.2
	h5.1v25.9h-5.1V237.2z M79.5,237.2h5.1v25.9h-5.1V237.2z M70.3,237.2h5.1v25.9h-5.1V237.2z M53.3,237.2h5.1v25.9h-5.1V237.2z
	 M44,237.2h5.1v25.9H44V237.2z M34.8,237.2h5.1v25.9h-5.1V237.2z M116.6,266.4h5.1v25.9h-5.1V266.4z M107.3,266.4h5.1v25.9h-5.1
	V266.4z M98,266.4h5.1v25.9H98V266.4z M88.8,266.4h5.1v25.9h-5.1V266.4z M79.5,266.4h5.1v25.9h-5.1V266.4z M70.3,266.4h5.1v25.9
	h-5.1V266.4z M53.3,266.4h5.1v25.9h-5.1V266.4z M44,266.4h5.1v25.9H44V266.4z M34.8,266.4h5.1v25.9h-5.1V266.4z"/>
<path class="st2" d="M230.8,99h76.5v215h-76.5V99z"/>
<path class="st5" d="M230.8,99h23.8v215h-23.8V99z"/>
<path class="st4" d="M230.8,110.8h76.5v1.8h-76.5V110.8z M230.8,125h76.5v1.8h-76.5V125z M230.8,139.2h76.5v1.8h-76.5V139.2z
	 M230.8,153.4h76.5v1.8h-76.5V153.4z M230.8,167.6h76.5v1.8h-76.5V167.6z M230.8,181.8h76.5v1.8h-76.5V181.8z M230.8,196h76.5v1.8
	h-76.5V196z M230.8,210.2h76.5v1.8h-76.5V210.2z M230.8,224.3h76.5v1.8h-76.5V224.3z M230.8,238.6h76.5v1.8h-76.5V238.6z
	 M230.8,252.7h76.5v1.8h-76.5V252.7z M230.8,267h76.5v1.8h-76.5V267z M230.8,281.1h76.5v1.8h-76.5V281.1z M230.8,295.4h76.5v1.8
	h-76.5V295.4z"/>
<path class="st2" d="M493,141.8h120.1v172.3H493V141.8z"/>
<path class="st3" d="M496.9,141.8h37.4v172.3h-37.4V141.8z"/>
<path class="st4" d="M493,151.3h120.1v1.5H493V151.3z M493,162.6h120.1v1.5H493V162.6z M493,174h120.1v1.5H493V174z M493,185.3
	h120.1v1.5H493V185.3z M493,196.7h120.1v1.5H493V196.7z M493,208.1h120.1v1.5H493V208.1z M493,219.5h120.1v1.5H493V219.5z
	 M493,230.9h120.1v1.5H493V230.9z M493,242.2h120.1v1.5H493V242.2z M493,253.6h120.1v1.5H493V253.6z M493,264.9h120.1v1.5H493V264.9
	z M493,276.3h120.1v1.5H493V276.3z M493,287.7h120.1v1.5H493V287.7z M493,299.1h120.1v1.5H493V299.1z"/>
<path class="st2" d="M106.1,16h140.2v298.1H106.1V16z"/>
<path class="st5" d="M106.1,16h43.7v298.1h-43.7V16z"/>
<path class="st4" d="M230.8,30.1h6.4v8.6h-6.4V30.1z M219,30.1h6.4v8.6H219V30.1z M207.3,30.1h6.4v8.6h-6.4V30.1z M195.5,30.1h6.4
	v8.6h-6.4V30.1z M183.7,30.1h6.4v8.6h-6.4V30.1z M172,30.1h6.4v8.6H172V30.1z M160.2,30.1h6.4v8.6h-6.4V30.1z M138.6,30.1h6.4v8.6
	h-6.4V30.1z M126.8,30.1h6.4v8.6h-6.4V30.1z M115,30.1h6.4v8.6H115V30.1z M230.8,48.1h6.4v8.6h-6.4V48.1z M219,48.1h6.4v8.6H219
	V48.1z M207.3,48.1h6.4v8.6h-6.4V48.1z M195.5,48.1h6.4v8.6h-6.4V48.1z M183.7,48.1h6.4v8.6h-6.4V48.1z M172,48.1h6.4v8.6H172V48.1z
	 M160.2,48.1h6.4v8.6h-6.4V48.1z M138.6,48.1h6.4v8.6h-6.4V48.1z M126.8,48.1h6.4v8.6h-6.4V48.1z M115,48.1h6.4v8.6H115V48.1z
	 M230.8,66.1h6.4v8.6h-6.4V66.1z M219,66.1h6.4v8.6H219V66.1z M207.3,66.1h6.4v8.6h-6.4V66.1z M195.5,66.1h6.4v8.6h-6.4V66.1z
	 M183.7,66.1h6.4v8.6h-6.4V66.1z M172,66.1h6.4v8.6H172V66.1z M160.2,66.1h6.4v8.6h-6.4V66.1z M138.6,66.1h6.4v8.6h-6.4V66.1z
	 M126.8,66.1h6.4v8.6h-6.4V66.1z M115,66.1h6.4v8.6H115V66.1z M230.8,84.1h6.4v8.6h-6.4V84.1z M219,84.1h6.4v8.6H219V84.1z
	 M207.3,84.1h6.4v8.6h-6.4V84.1z M195.5,84.1h6.4v8.6h-6.4V84.1z M183.7,84.1h6.4v8.6h-6.4V84.1z M172,84.1h6.4v8.6H172V84.1z
	 M160.2,84.1h6.4v8.6h-6.4V84.1z M138.6,84.1h6.4v8.6h-6.4V84.1z M126.8,84.1h6.4v8.6h-6.4V84.1z M115,84.1h6.4v8.6H115V84.1z
	 M230.8,102h6.4v8.6h-6.4V102z M219,102h6.4v8.6H219V102z M207.3,102h6.4v8.6h-6.4V102z M195.5,102h6.4v8.6h-6.4V102z M183.7,102
	h6.4v8.6h-6.4V102z M172,102h6.4v8.6H172V102z M160.2,102h6.4v8.6h-6.4V102z M138.6,102h6.4v8.6h-6.4V102z M126.8,102h6.4v8.6h-6.4
	V102z M115,102h6.4v8.6H115V102z M230.8,120h6.4v8.6h-6.4V120z M219,120h6.4v8.6H219V120z M207.3,120h6.4v8.6h-6.4V120z M195.5,120
	h6.4v8.6h-6.4V120z M183.7,120h6.4v8.6h-6.4V120z M172,120h6.4v8.6H172V120z M160.2,120h6.4v8.6h-6.4V120z M138.6,120h6.4v8.6h-6.4
	V120z M126.8,120h6.4v8.6h-6.4V120z M115,120h6.4v8.6H115V120z M230.8,138h6.4v8.6h-6.4V138z M219,138h6.4v8.6H219V138z M207.3,138
	h6.4v8.6h-6.4V138z M195.5,138h6.4v8.6h-6.4V138z M183.7,138h6.4v8.6h-6.4V138z M172,138h6.4v8.6H172V138z M160.2,138h6.4v8.6h-6.4
	V138z M138.6,138h6.4v8.6h-6.4V138z M126.8,138h6.4v8.6h-6.4V138z M115,138h6.4v8.6H115V138z M230.8,156h6.4v8.6h-6.4V156z M219,156
	h6.4v8.6H219V156z M207.3,156h6.4v8.6h-6.4V156z M195.5,156h6.4v8.6h-6.4V156z M183.7,156h6.4v8.6h-6.4V156z M172,156h6.4v8.6H172
	V156z M160.2,156h6.4v8.6h-6.4V156z M138.6,156h6.4v8.6h-6.4V156z M126.8,156h6.4v8.6h-6.4V156z M115,156h6.4v8.6H115V156z
	 M230.8,173.9h6.4v8.6h-6.4V173.9z M219,173.9h6.4v8.6H219V173.9z M207.3,173.9h6.4v8.6h-6.4V173.9z M195.5,173.9h6.4v8.6h-6.4
	V173.9z M183.7,173.9h6.4v8.6h-6.4V173.9z M172,173.9h6.4v8.6H172V173.9z M160.2,173.9h6.4v8.6h-6.4V173.9z M138.6,173.9h6.4v8.6
	h-6.4V173.9z M126.8,173.9h6.4v8.6h-6.4V173.9z M115,173.9h6.4v8.6H115V173.9z M230.8,191.9h6.4v8.6h-6.4V191.9z M219,191.9h6.4v8.6
	H219V191.9z M207.3,191.9h6.4v8.6h-6.4V191.9z M195.5,191.9h6.4v8.6h-6.4V191.9z M183.7,191.9h6.4v8.6h-6.4V191.9z M172,191.9h6.4
	v8.6H172V191.9z M160.2,191.9h6.4v8.6h-6.4V191.9z M138.6,191.9h6.4v8.6h-6.4V191.9z M115,191.9h6.4v8.6H115V191.9z M230.8,209.9
	h6.4v8.6h-6.4V209.9z M219,209.9h6.4v8.6H219V209.9z M207.3,209.9h6.4v8.6h-6.4V209.9z M195.5,209.9h6.4v8.6h-6.4V209.9z
	 M183.7,209.9h6.4v8.6h-6.4V209.9z M172,209.9h6.4v8.6H172V209.9z M160.2,209.9h6.4v8.6h-6.4V209.9z M138.6,209.9h6.4v8.6h-6.4
	V209.9z M115,209.9h6.4v8.6H115V209.9z M230.8,227.9h6.4v8.6h-6.4V227.9z M219,227.9h6.4v8.6H219V227.9z M207.3,227.9h6.4v8.6h-6.4
	V227.9z M195.5,227.9h6.4v8.6h-6.4V227.9z M183.7,227.9h6.4v8.6h-6.4V227.9z M172,227.9h6.4v8.6H172V227.9z M160.2,227.9h6.4v8.6
	h-6.4V227.9z M138.6,227.9h6.4v8.6h-6.4V227.9z M115,227.9h6.4v8.6H115V227.9z M230.8,245.8h6.4v8.6h-6.4V245.8z M219,245.8h6.4v8.6
	H219V245.8z M207.3,245.8h6.4v8.6h-6.4V245.8z M195.5,245.8h6.4v8.6h-6.4V245.8z M183.7,245.8h6.4v8.6h-6.4V245.8z M172,245.8h6.4
	v8.6H172V245.8z M160.2,245.8h6.4v8.6h-6.4V245.8z M138.6,245.8h6.4v8.6h-6.4V245.8z M115,245.8h6.4v8.6H115V245.8z M230.8,263.8
	h6.4v8.6h-6.4V263.8z M219,263.8h6.4v8.6H219V263.8z M207.3,263.8h6.4v8.6h-6.4V263.8z M195.5,263.8h6.4v8.6h-6.4V263.8z
	 M183.7,263.8h6.4v8.6h-6.4V263.8z M172,263.8h6.4v8.6H172V263.8z M160.2,263.8h6.4v8.6h-6.4V263.8z M138.6,263.8h6.4v8.6h-6.4
	V263.8z M115,263.8h6.4v8.6H115V263.8z M230.8,281.8h6.4v8.6h-6.4V281.8z M219,281.8h6.4v8.6H219V281.8z M207.3,281.8h6.4v8.6h-6.4
	V281.8z M195.5,281.8h6.4v8.6h-6.4V281.8z M183.7,281.8h6.4v8.6h-6.4V281.8z M172,281.8h6.4v8.6H172V281.8z M160.2,281.8h6.4v8.6
	h-6.4V281.8z M138.6,281.8h6.4v8.6h-6.4V281.8z M127.1,191.9h6.4v8.6h-6.4V191.9z M127.1,209.9h6.4v8.6h-6.4V209.9z M127.1,227.9
	h6.4v8.6h-6.4V227.9z M127.1,245.8h6.4v8.6h-6.4V245.8z M127.1,263.8h6.4v8.6h-6.4V263.8z M127.1,281.8h6.4v8.6h-6.4V281.8z
	 M115,281.8h6.4v8.6H115V281.8z"/>
<path class="st5" d="M212,16h-72V6.9c0-3.8,2.9-6.9,6.6-6.9h58.8c3.6,0,6.6,3.1,6.6,6.9V16L212,16z"/>
<path class="st0" d="M590.7,233.1c-3.4-0.6-5.7,2.9-6.4,6c-0.3,1.7-0.3,3.6-1.7,4.6c-0.6,0.4-1.2,0.8-1.9,1c-3.7,1.9-3.9,5.5-4,9.1
	c0.1,0.6-0.1,1.2-0.3,1.7c-0.3,0.6-1,0.9-1.4,1.5c-0.3,0.4-0.4,0.8-0.5,1.3c-0.9,4.1-0.5,7.8-0.4,11.9c0.2,29,16.1,27.6,16.1,27.6
	h0.6c3.8-0.2,7.3-2.5,9.6-5.5c2.3-3,3.7-6.9,4.4-10.5c0.6-2.8,0.8-5.5,1-8.4c0.2-3,0.8-5.8-0.3-8.8c-0.6-1.3-1.3-2.6-1.4-4.1
	c0-1.6,1-3,1-4.6c0-0.9-0.2-1.9-0.6-2.8c-0.8-2.2-1.7-4.4-2.8-6.4c-0.9-1.6-3-2.4-3.5-4.2c-0.1-0.8-0.2-1.5-0.1-2.3
	c-0.1-3.7-3.3-6.3-6.7-7.2H590.7z"/>
<path class="st4" d="M587.8,327.7h3.7l-1.2-46.5l-0.6-1.1L587.8,327.7z"/>
<path class="st6" d="M350.3,347.9l14.9-22.1l-14.9-22.1h11.3c8.2,0,14.9,9.9,14.9,22.1s-6.7,22.1-14.9,22.1H350.3z"/>
<path class="st7" d="M350.3,303.6c8.2,0,14.9,9.9,14.9,22.1s-6.7,22.1-14.9,22.1c-8.2,0-14.9-9.9-14.9-22.1S342.1,303.6,350.3,303.6
	z"/>
<path class="st6" d="M137.2,347.9l14.9-22.1l-14.9-22.1h11.3c8.2,0,14.9,9.9,14.9,22.1s-6.7,22.1-14.9,22.1H137.2z"/>
<path class="st7" d="M137.2,303.6c8.2,0,14.9,9.9,14.9,22.1s-6.7,22.1-14.9,22.1c-8.2,0-14.9-9.9-14.9-22.1S129,303.6,137.2,303.6z"
	/>
<path class="st8" d="M449.9,305.6H25.7c-3.1,0-5.7,2.3-5.7,5.1v11.2c0,2.8,2.5,5.2,5.7,5.2h424.2V305.6z"/>
<path class="st7" d="M507.9,307.5v-2.1l-115.4,1.1l-1,1c-4.1,0-7.5,2.6-7.5,5.8v7.9c0,3.2,3.3,5.8,7.5,5.8h116.4
	c4.1,0,7.5-2.6,7.5-5.8v-7.9C515.3,310.2,512,307.6,507.9,307.5z"/>
<path class="st9" d="M180,327.2h11.2c1.7,0,3-1.1,3-2.4v-15.7H177v15.7C177,326.1,178.3,327.2,180,327.2z"/>
<path class="st9" d="M160.6,327.1h11.2c1.7,0,3-1.1,3-2.4V309h-17.3v15.7C157.6,326.1,158.9,327.1,160.6,327.1z"/>
<path class="st9" d="M141.3,327.1h11.2c1.7,0,3-1.1,3-2.4V309h-17.3v15.7C138.3,326.1,139.6,327.1,141.3,327.1z"/>
<path class="st10" d="M391.6,163l-271.9,6.4V309h271.9V163z"/>
<path class="st11" d="M391.6,270l-273.8,9.4l-0.5,29.6h274.3V270z"/>
<path class="st12" d="M119.7,281.2l269.9-7.9V256l-269.9,15.4V281.2z"/>
<path class="st13" d="M411.1,318c0,1.6,1.3,2.7,2.9,2.7c1.6,0,2.9-1.3,2.9-2.7c0-1.5-1.3-2.7-2.9-2.7
	C412.4,315.2,411.1,316.4,411.1,318C411.1,317.9,411.1,317.9,411.1,318z"/>
<path class="st14" d="M395.2,317.5c0,3.1,2.5,5.4,5.4,5.4c2.9,0,5.4-2.5,5.4-5.4s-2.5-5.4-5.4-5.4
	C397.7,311.9,395.2,314.3,395.2,317.5C395.2,317.2,395.2,317.2,395.2,317.5z"/>
<path class="st14" d="M494.5,318.5c0,3.1,2.5,5.4,5.4,5.4s5.4-2.5,5.4-5.4c0-2.9-2.5-5.4-5.4-5.4C497,312.9,494.5,315.4,494.5,318.5
	C494.5,318.3,494.5,318.3,494.5,318.5z"/>
<path class="st13" d="M481.6,318c0,1.6,1.3,2.7,2.9,2.7c1.6,0,2.9-1.3,2.9-2.7c0-1.5-1.3-2.7-2.9-2.7
	C482.9,315.2,481.6,316.4,481.6,318C481.6,317.9,481.6,317.9,481.6,318z"/>
<path class="st15" d="M511.5,309H386.9V163h124.6V309z"/>
<rect x="386.9" y="163" class="st16" width="124.6" height="5.4"/>
<path class="st17" d="M504.5,273h-36v36.4h36V273z"/>
<path class="st18" d="M450.6,266.9l18,6.1v36.3l-18-6V266.9z"/>
<path class="st19" d="M504.5,273l-17.9-6.1h-36l18,6.1H504.5L504.5,273z"/>
<path class="st20" d="M463.1,297.3v10.1l-5.4-1.8v-10.2L463.1,297.3z"/>
<path class="st21" d="M463.1,271.1v10.2l-5.4-1.8v-10.2L463.1,271.1z"/>
<path class="st22" d="M493.6,269.3l0.8,0.2l1.1,0.4l3.8,1.2h-36.2l-5.4-1.8H493.6L493.6,269.3z"/>
<path class="st23" d="M482.3,287.9H461v21.5h21.2V287.9z"/>
<path class="st17" d="M450.5,284.4l10.7,3.6v21.4l-10.7-3.6V284.4z"/>
<path class="st24" d="M482.3,287.9l-10.6-3.6h-21.2l10.7,3.6H482.3z"/>
<path class="st22" d="M457.9,302.3v5.9l-3.2-1v-6L457.9,302.3L457.9,302.3z M457.9,286.8v5.9l-3.2-1.1v-5.9L457.9,286.8L457.9,286.8
	z"/>
<path class="st25" d="M475.9,285.7l0.4,0.1l0.7,0.3l2.3,0.7h-21.3l-3.2-1.1H475.9z"/>
<path class="st26" d="M456.1,241h-46.2v68.2h46.2V241z"/>
<path class="st27" d="M386.8,240.1l23.1,0.9v68.2l-23.1,0.1V240.1z"/>
<path class="st28" d="M394.5,289.4v19.3h-6.9v-22.6L394.5,289.4z"/>
<path class="st29" d="M328.4,327.2c0-23.9-15.5-33.6-29.5-33.6c-14.2,0-29.4,9.5-29.4,33.6"/>
<path class="st6" d="M292.5,351.9l17.1-25.5l-17.1-25.5h13c9.5,0,17.1,11.4,17.1,25.5c0,14.1-7.7,25.5-17.1,25.5H292.5z"/>
<path class="st7" d="M292.5,300.9c9.5,0,17.1,11.4,17.1,25.5c0,14.1-7.7,25.5-17.1,25.5c-9.5,0-17.1-11.4-17.1-25.5
	C275.3,312.4,283,300.9,292.5,300.9z"/>
<path class="st30" d="M282.8,326.4c0,7.9,4.3,14.4,9.7,14.4c5.3,0,9.7-6.5,9.7-14.4s-4.3-14.4-9.7-14.4
	C287.1,312,282.8,318.4,282.8,326.4z"/>
<path class="st16" d="M120.5,180.7l-2.5,0.7l-2.1,1l-0.4,126.7h5.1V180.7z"/>
<path class="st16" d="M65.2,204l52.6,2.4c0.2,0,0.4-0.2,0.4-0.4v-6.8c0-0.2-0.2-0.4-0.4-0.4l-51.7,3.7L65.2,204z"/>
<path class="st10" d="M118.2,203.1H65.7c0,0,7.8-17,52.5-21.9V203.1z"/>
<path class="st8" d="M117.7,327.3H80.3v-32.8h37.4c0.2,0,0.4,0.2,0.4,0.4v32C118.1,327.1,117.9,327.3,117.7,327.3z"/>
<path class="st10" d="M21,327.4h35.9l2.7-21H13.3v14.3C13.3,324.4,16.8,327.4,21,327.4z"/>
<path class="st8" d="M13.3,303.2h47.6v3.1H13.3V303.2z"/>
<path class="st15" d="M23.5,317.1h22.9v9.2H23.5V317.1z"/>
<path class="st15" d="M23.5,306.4h22.9v9.2H23.5V306.4z"/>
<path class="st6" d="M23.5,324.2h22.9v2.1H23.5V324.2z"/>
<path class="st6" d="M23.5,313.5h22.9v2.1H23.5V313.5z"/>
<path class="st10" d="M50.7,204H118l0.5,99.4H13.3L13,276v-30.3C13,220.9,29.7,204,50.7,204z"/>
<path class="st13" d="M21.8,282.9c-0.2,14.4-3.8,18.4-8.4,18.4l-0.2-18.4H21.8z"/>
<path class="st11" d="M53.4,303.3l18.4-18.4l46.3-4.6V303c0,0.2-0.2,0.4-0.4,0.4L53.4,303.3z"/>
<path class="st12" d="M118.2,271.7c0,0-55.1-1.7-67.2,31.8h10c0,0,5.8-22,57.2-22"/>
<path class="st6" d="M91,211v30.6c0,11.2-7.8,20.4-17.2,20.4H20.2L20,244.8C19.9,226.2,32.5,211,48.2,211H91L91,211z"/>
<path class="st31" d="M74.9,269.9h8.6c1.1,0,1.9-1.4,1.9-2.7v-1.6H72.8v1.6C72.8,268.7,73.8,269.9,74.9,269.9z"/>
<path class="st32" d="M91.1,257v22.2c0,4.8-3.5,8.6-7.8,8.6h-7.6c-2.1,0-9.1,0.3-11.1,2.6c-2.6,2.9-6.4,7.2-6.4,7.2
	c-1.5,1.7-3.5,2.6-5.6,2.6H33.8c-2.5,0-4.6-2.3-4.6-5.1v-22"/>
<path class="st33" d="M27.5,274.2c-2.5,0-4.6-2-4.6-4.6v-12.9h4.6V274.2z"/>
<path class="st10" d="M27.5,248.3v8.4H23v-3.9C23,250.4,25,248.3,27.5,248.3z"/>
<path class="st34" d="M23,256.8h4.6v9.9H23V256.8z"/>
<path class="st33" d="M23,264.2c-1.6,0-2.9,1.3-2.9,2.9c0,1.6,1.3,2.9,2.9,2.9"/>
<path class="st29" d="M107.3,327.4c0-23.9-15.5-32.9-29.5-32.9c-14.2,0-29.5,8.9-29.5,32.9"/>
<path class="st6" d="M71.4,350.1l17.1-25.5l-17.1-25.5h13c9.5,0,17.1,11.4,17.1,25.5c0,14.1-7.7,25.5-17.1,25.5H71.4z"/>
<path class="st7" d="M71.4,299.1c9.5,0,17.1,11.4,17.1,25.5c0,14.1-7.7,25.5-17.1,25.5s-17.1-11.4-17.1-25.5
	C54.3,310.6,62,299.1,71.4,299.1z"/>
<path class="st30" d="M61.7,324.6c0,7.9,4.3,14.4,9.7,14.4c5.3,0,9.7-6.5,9.7-14.4s-4.3-14.4-9.7-14.4
	C66.1,310.1,61.7,316.6,61.7,324.6z"/>
<path class="st35" d="M504.8,257.5c0.3,0,0.7,0.5,1.1,1.6c0.2,0.5,0.5,1.2,0.8,1.9c0.3,0.7,0.6,1.5,1,2.4c0.4,0.9,0.9,1.7,1.4,2.6
	c0.3,0.4,0.6,0.8,0.9,1.2c0.3,0.4,0.7,0.8,1.1,1.1c0.4,0.3,0.8,0.7,1.2,0.9c0.4,0.3,0.9,0.5,1.3,0.7c0.4,0.2,0.9,0.3,1.4,0.4
	c0.1,0,0.2,0,0.3,0.1l0.4,0c0.2,0,0.5,0,0.7,0c1,0,2-0.2,3-0.4c0.5-0.2,1-0.3,1.5-0.5c0.2-0.1,0.5-0.2,0.7-0.3
	c0.2-0.1,0.5-0.2,0.7-0.3c0.5-0.2,0.9-0.5,1.3-0.7c0.4-0.2,0.8-0.5,1.2-0.8c0.8-0.5,1.6-1.1,2.3-1.6c0.7-0.5,1.4-1,2.1-1.4
	c0.6-0.4,1.2-0.7,1.8-1c0.5-0.2,1-0.4,1.5-0.4c0.4-0.1,0.8,0,1.1,0.2c0.3,0.2,0.5,0.6,0.6,1c0.1,0.5,0.1,1.1,0,1.6
	c-0.1,0.8-0.3,1.5-0.6,2.2c-0.4,0.9-0.9,1.8-1.5,2.6c-0.7,1-1.5,2-2.4,2.8c-0.5,0.5-1.1,1-1.6,1.4c-0.6,0.5-1.3,0.9-2,1.3
	c-0.3,0.2-0.7,0.4-1.1,0.6s-0.8,0.3-1.2,0.5c-0.8,0.3-1.7,0.6-2.5,0.8c-1.9,0.4-3.8,0.5-5.7,0.2c-0.5-0.1-1-0.2-1.5-0.3l-0.7-0.2
	c-0.2-0.1-0.5-0.2-0.7-0.3c-0.9-0.4-1.8-0.8-2.6-1.4c-0.8-0.5-1.4-1.1-2.1-1.8c-0.6-0.6-1.1-1.3-1.5-2c-0.4-0.7-0.8-1.4-1.1-2.1
	c-0.3-0.6-0.5-1.3-0.7-2c-0.3-1.2-0.5-2.4-0.6-3.6c-0.1-0.9-0.1-1.9-0.1-2.8c0-0.7,0.1-1.4,0.2-2.1
	C504.2,258.2,504.5,257.5,504.8,257.5L504.8,257.5z"/>
<path class="st4" d="M520.8,272.8c-0.4,5.9-0.4,11.8,0,17.6c5.6,1.8,11.6,2.3,17.4,1.4c0.4-6,0.8-11.9,0.8-17.9c0-3.2-0.1-6.3-1-9.3
	c-0.7-2.7-2.3-5.1-4.5-6.9c-0.3-0.2-0.5-0.4-0.8-0.5c-1.3,1.1-4.1,1.5-5.6,0.8c-0.8,0.5-1.6,1.2-2.2,1.9c-1.2,1.4-2,3-2.6,4.7
	C521.4,267.3,520.9,270,520.8,272.8L520.8,272.8z"/>
<path class="st36" d="M524.9,260c1.5,0.4,3,0.4,4.5,0c0.8-0.2,1.6-0.5,2.3-0.9c0.6-0.3,1.1-0.7,1.6-1.1l0-0.4v-0.1l-0.1-0.5
	c-0.3-1.7-0.5-3.3-0.8-5c-0.2-1.5-0.4-3.1-0.6-4.6c-1.8,0.9-3.4,1.9-5,3c0,1.1-0.1,2.1-0.2,3.1c-0.1,0.9-0.2,1.8-0.3,2.6
	c-0.1,0.5-0.1,1-0.2,1.5c-0.1,0.5-0.2,0.9-0.3,1.4C525.5,259.3,525.2,259.6,524.9,260L524.9,260z"/>
<path class="st37" d="M526.4,256.1c1.8-1.7,3.9-3.1,6.1-4.1c-0.2-1.6-0.4-3.1-0.6-4.6c-1.8,0.9-3.4,1.9-5,3c0,1.1-0.1,2.1-0.2,3.1
	C526.6,254.4,526.5,255.3,526.4,256.1z"/>
<path class="st7" d="M558.9,342.7c0,0,0,4.1-3.7,4l-0.7,14.8l10.2-17.6L558.9,342.7z"/>
<path class="st4" d="M557.2,353.2c0-0.1-0.1-0.2-0.1-0.2c-0.1-0.1-0.2-0.1-0.2-0.1c-0.8,0.1-1.6,0.3-2.4,0.7c-0.1,0-0.1,0.1-0.2,0.2
	c0,0.1,0,0.2,0,0.3c0,0,0,0.1,0.1,0.1c0,0,0.1,0,0.1,0.1c0.1,0,0.2,0,0.2,0c0.7-0.3,1.4-0.5,2.1-0.6c0.1,0,0.1,0,0.2-0.1
	c0.1,0,0.1-0.1,0.1-0.1S557.2,353.3,557.2,353.2L557.2,353.2z M557.3,351.4c0,0,0-0.1,0-0.1c0,0,0-0.1-0.1-0.1c0,0-0.1,0-0.1-0.1
	c0,0-0.1,0-0.1,0c-0.8,0.1-1.6,0.3-2.4,0.7c0,0-0.1,0-0.1,0.1c0,0,0,0.1-0.1,0.1c0,0.1,0,0.2,0,0.3c0,0,0,0.1,0.1,0.1s0.1,0,0.1,0.1
	c0,0,0.1,0,0.1,0c0,0,0.1,0,0.1,0c0.7-0.3,1.4-0.5,2.1-0.6c0.1,0,0.1,0,0.2-0.1c0.1,0,0.1-0.1,0.1-0.1
	C557.3,351.5,557.3,351.4,557.3,351.4L557.3,351.4z M557.4,349.5c0,0,0-0.1,0-0.1c0,0,0-0.1-0.1-0.1c-0.1,0-0.1-0.1-0.2-0.1
	c-0.8,0.1-1.6,0.3-2.4,0.6c-0.1,0-0.1,0.1-0.2,0.2c0,0.1,0,0.2,0,0.3c0,0.1,0.1,0.1,0.2,0.2c0.1,0,0.2,0,0.2,0
	c0.7-0.3,1.4-0.5,2.1-0.6c0.1,0,0.1,0,0.2-0.1c0.1,0,0.1-0.1,0.1-0.1S557.4,349.6,557.4,349.5L557.4,349.5z M556.3,362
	c0,0.1-0.1,0.1-0.1,0.2c-0.1,0-0.1,0.1-0.2,0.1c-0.1,0-0.1,0-0.2,0c-0.1,0-0.1,0-0.2-0.1l-1.1-0.6l10.2-17.6l1.1,0.6
	c0.1,0,0.1,0.1,0.2,0.1c0,0.1,0.1,0.1,0.1,0.2c0,0.1,0,0.1,0,0.2c0,0.1,0,0.1-0.1,0.2L556.3,362z"/>
<path class="st7" d="M518.1,357.8c0,0-3.7,1.9-5.3-1.4l-13.4,6.3l20.3,0.9L518.1,357.8z"/>
<path class="st4" d="M507.6,361.2c0.1,0,0.1,0,0.2,0c0.1,0,0.1,0,0.2,0c0,0,0.1-0.1,0.1-0.1c0,0,0-0.1,0-0.1c0,0,0-0.1,0-0.1
	c0,0,0-0.1-0.1-0.1c-0.5-0.7-1-1.3-1.7-1.8c-0.1-0.1-0.2-0.1-0.3-0.1c-0.1,0-0.2,0.1-0.2,0.1c0,0,0,0.1,0,0.1c0,0,0,0.1,0,0.1
	c0,0,0,0.1,0,0.1c0,0,0.1,0.1,0.1,0.1c0.6,0.5,1.1,1,1.5,1.6C507.5,361.1,507.6,361.2,507.6,361.2L507.6,361.2z M509.3,360.4
	c0.1,0,0.1,0,0.2,0s0.1,0,0.2,0c0,0,0.1-0.1,0.1-0.1s0-0.1,0-0.1c0,0,0-0.1,0-0.1c0,0,0-0.1-0.1-0.1c-0.5-0.7-1-1.3-1.7-1.8
	c0,0-0.1,0-0.1-0.1c0,0-0.1,0-0.1,0c0,0-0.1,0-0.1,0c0,0-0.1,0.1-0.1,0.1c0,0.1-0.1,0.2,0,0.2c0,0.1,0.1,0.2,0.1,0.2
	c0.6,0.5,1.1,1,1.5,1.6C509.2,360.4,509.2,360.4,509.3,360.4L509.3,360.4z M511,359.7c0.1,0,0.1,0,0.2,0c0.1,0,0.1,0,0.2-0.1
	c0,0,0.1-0.1,0.1-0.2s0-0.1,0-0.2c-0.5-0.7-1-1.3-1.7-1.8c-0.1-0.1-0.2-0.1-0.3-0.1c-0.1,0-0.2,0.1-0.2,0.1c0,0,0,0.1,0,0.1
	c0,0,0,0.1,0,0.1c0,0.1,0.1,0.2,0.1,0.2c0.6,0.5,1.1,1,1.5,1.6C510.9,359.6,511,359.6,511,359.7L511,359.7z M499.7,364.4
	c-0.2-0.1-0.3-0.2-0.3-0.4c0-0.1,0-0.2,0-0.3l0-1.1l20.3,0.9l0,1.1c0,0.1,0,0.2-0.1,0.3c0,0.1-0.1,0.1-0.2,0.2
	c-0.1,0.1-0.3,0.2-0.5,0.2l-19-0.8C499.9,364.4,499.8,364.4,499.7,364.4L499.7,364.4z"/>
<path class="st38" d="M538.7,295.3c0,0-4.7,27.6,23.3,47.2l-7.5,8.2c0,0-31.3-21.5-28.1-49.1L538.7,295.3z"/>
<path class="st39" d="M539.7,311.4c-0.4,0.6-0.9,1.1-1.3,1.7c-1.1,1.6-2,3.2-2.7,4.9c-1.4,2.9-2.5,5.8-3.3,8.9
	c-4.3-7.3-7.1-16-6-25.3l12.3-6.3C538.6,295.3,537.5,302.1,539.7,311.4L539.7,311.4z"/>
<path class="st40" d="M520.7,267.9c-1.2,9.8-1.3,19.6-0.4,29.4c0,0-15.4,30.1-12,60.4l11.8,2.9c0,0,2.7-39.8,18.6-59.9l0.7-19.9
	l-12.6-2.1l-1.1-10.7L520.7,267.9z"/>
<path class="st38" d="M538.5,283c0.1,0,0.2-0.1,0.3-0.4c0.1-0.2,0.2-0.3,0.2-0.5c0.1-0.2,0.1-0.4,0.2-0.7c0-0.1,0.1-0.3,0.1-0.4
	c0-0.1,0.1-0.3,0.1-0.5s0.1-0.3,0.1-0.5c0-0.2,0.1-0.4,0.1-0.6c0-0.2,0.1-0.4,0.1-0.6l0.1-0.6c0.1-0.4,0.1-0.9,0.1-1.4
	c0.1-1.1,0.1-2.2,0-3.3c-0.1-1.2-0.2-2.5-0.4-3.7c-0.2-1.4-0.5-2.7-0.9-4c-0.4-1.5-1-2.9-1.8-4.2c-0.5-0.7-1-1.3-1.6-1.9
	c-0.6-0.6-1.4-1-2.1-1.3c-0.4-0.1-0.8-0.2-1.2-0.3h-1.2c-0.8,0.1-1.5,0.3-2.2,0.6c-0.6,0.3-1.2,0.7-1.8,1.2
	c-0.1,0.1-0.2,0.2-0.4,0.3l-0.3,0.4l-0.3,0.4c-0.1,0.1-0.2,0.3-0.3,0.4c-0.3,0.5-0.6,1-0.9,1.6c-0.2,0.5-0.4,1-0.5,1.5
	c-0.2,0.9-0.4,1.8-0.5,2.7c-0.1,0.7-0.1,1.3-0.1,2c0,1.1,0.1,1.7,0.2,1.7c0.1,0,0.2-0.6,0.4-1.7c0.1-0.5,0.2-1.2,0.4-1.9
	c0.2-0.8,0.4-1.7,0.7-2.5c0.4-0.9,0.8-1.8,1.5-2.5c0.1-0.1,0.2-0.2,0.3-0.3l0.3-0.3l0.3-0.3c0.1-0.1,0.2-0.2,0.3-0.2
	c0.4-0.3,0.9-0.6,1.4-0.8c0.5-0.2,1-0.3,1.6-0.3h0.9c0.3,0,0.5,0.1,0.8,0.2c1.1,0.5,2,1.4,2.7,2.4c0.7,1.2,1.2,2.4,1.5,3.7
	c0.4,1.3,0.6,2.6,0.9,3.8c0.2,1.2,0.4,2.4,0.5,3.5c0.1,1.1,0.2,2.1,0.2,3.1v5.2c0,0.2,0,0.4,0,0.5C538.3,282.8,538.4,283,538.5,283
	L538.5,283z"/>
<path class="st41" d="M515.1,259.4h-23.4v23.4h23.4V259.4z"/>
<path class="st42" d="M480,255.5l11.7,3.9v23.4L480,279V255.5z"/>
<path class="st43" d="M515.1,259.4l-11.7-3.9H480l11.7,3.9H515.1z"/>
<path class="st44" d="M500.7,260.9h-8v3.4h8V260.9z"/>
<path class="st45" d="M501.4,278.5l0,4.5h4v-4.5H501.4z M501.4,259.4l0,4.5h4v-4.5H501.4z M495.8,255.5H492l9.4,3.9h4L495.8,255.5
	L495.8,255.5z"/>
<path class="st36" d="M536,268.3v0.2c0,2.5-0.6,5-1.7,7.3c-0.4,0.9-0.9,1.7-1.5,2.4c-0.6,0.8-1.3,1.6-2.1,2.2
	c-1.6,1.4-3.6,2.4-5.7,2.9c-1,0.2-1.9,0.4-2.9,0.4c-0.9,0-1.8,0-2.7-0.2c-0.8-0.1-1.7-0.3-2.5-0.6c-1.4-0.4-2.8-1.1-4.1-1.8
	c-1-0.6-2-1.3-3-2.1c-0.7-0.6-1.5-1.3-2.1-2l-0.2-0.2c-0.4,0-0.8,0-1.3,0c-0.4-0.1-0.8-0.1-1.2-0.3c-0.4-0.1-0.8-0.3-1.2-0.5
	c-0.4-0.2-0.7-0.5-1-0.7c-0.6-0.6-1.2-1.2-1.5-2c-0.2-0.4-0.3-0.8-0.5-1.2c-0.1-0.4-0.2-0.8-0.2-1.2c0-0.3,0-0.6,0-0.9
	c0-0.2,0-0.3,0.1-0.5c0.1-0.2,0.2-0.3,0.3-0.4c0.7-0.6,1.6,0,2.1,0.7c0.5,0.7,0.8,1.3,1.5,1.6c0.2,0.1,0.4,0.1,0.7,0
	c0.2,0,0.4-0.1,0.6-0.3c0.1,0,0.1-0.1,0.1-0.1c0.1-0.1,0.2-0.2,0.3-0.2c0.1-0.1,0.2-0.1,0.3-0.1c0.1,0,0.2,0,0.3,0
	c0.1,0,0.2,0.1,0.3,0.2c0.1,0.1,0.1,0.1,0.2,0.2c0.2,0.3,0.3,0.6,0.4,0.9c0.2,0.7,0.3,1.4,0.4,2.1c1,0.4,2.2,0.8,3.7,1.3
	c1,0.3,2,0.6,3,0.8c1,0.2,2.1,0.4,3.2,0.4c0.5,0,1.1,0,1.6-0.1c0.5-0.1,1.1-0.1,1.6-0.3c0.5-0.1,0.9-0.3,1.4-0.5
	c0.4-0.2,0.8-0.4,1.2-0.7c0.4-0.3,0.7-0.6,1-0.9c0.3-0.3,0.6-0.7,0.8-1.1c0.5-0.8,0.9-1.7,1.2-2.6c0.3-0.9,0.5-1.8,0.7-2.7
	c0.1-0.7,0.2-1.4,0.3-2.1c1.2,0.8,2.5,1.5,3.8,1.9C533.1,268.1,534.6,268.3,536,268.3L536,268.3z"/>
<path class="st40" d="M525.8,235.3c0.2-0.6,0.5-1.2,0.9-1.7c0.4-0.5,1-0.9,1.6-1.1c1.2-0.5,2.6-0.6,3.8-0.3c0.7,0.1,1.3,0.4,1.9,0.7
	c0.6,0.3,1.1,0.8,1.6,1.3c0.5,0.5,0.8,1.1,1.1,1.7c0.3,0.6,0.4,1.3,0.4,2c0.1,2.1-1.1,4.1-2.3,5.9
	C532.5,240.2,529.5,237.4,525.8,235.3z"/>
<path class="st39" d="M524.5,232.9c-0.6-0.4-1.3-0.6-2-0.6c-0.2,0.1-0.5,0.2-0.7,0.3c-0.2,0.1-0.4,0.3-0.5,0.5
	c-0.1,0.2-0.2,0.4-0.3,0.7c-0.1,0.2-0.1,0.5-0.1,0.7c0.1,0.5,0.2,1,0.5,1.4c0.2,0.4,0.5,0.8,0.9,1.1c0.3,0.3,0.6,0.5,0.9,0.7
	c0.3,0.2,0.6,0.4,1,0.6c0.7,0.4,1.4,0.6,2.2,0.8c0.4,0.1,0.8,0.1,1.2,0.1c0.8,0,1.6,0,2.3-0.2c0.4-0.1,0.7-0.2,1.1-0.4
	c0.4-0.2,1.3-0.5,1.5-0.8c0.3-0.6-0.3-0.7-0.9-1C529.3,235.5,526.9,234.2,524.5,232.9L524.5,232.9z"/>
<path class="st7" d="M525.1,240.3c0.2,0,0.3,0,0.5,0c0.2,0,0.3,0.1,0.4,0.2c0.1,0.1,0.2,0.3,0.2,0.5c0,0.2,0,0.3,0,0.5
	c-0.2,1.3-0.7,2.5-1.4,3.5c-0.2-0.3-0.4-0.6-0.6-1c-0.3-0.7-0.4-1.5-0.4-2.3c0-0.4,0.1-0.8,0.3-1.1
	C524.4,240.7,524.8,240.4,525.1,240.3L525.1,240.3z M531,245.9c-0.2-1.4-0.1-2.8,0.2-4.1c0.3-1.5,0.9-2.9,1.8-4.2
	c0.6,0.6,1.2,1.3,1.6,2c0.4,0.9,0.6,1.8,0.6,2.7c0,0.5,0,0.9,0,1.4c0,0.5-0.1,0.9-0.2,1.4c-0.1,0.5-0.2,0.9-0.4,1.3
	s-0.4,0.9-0.6,1.3c-0.2,0.4-0.5,0.8-0.8,1.1c-0.3,0.4-0.6,0.7-1,1C531.5,248.6,531.1,247.2,531,245.9L531,245.9z"/>
<path class="st36" d="M525.1,240c0.3,1.7-0.4,3.3-1.1,4.9c-0.7,1.6-1.3,3.4-0.6,5c0.2,0.4,0.4,0.8,0.7,1.1c0.3,0.3,0.7,0.6,1,0.8
	c0.4,0.2,0.8,0.4,1.2,0.4c0.4,0.1,0.9,0.1,1.3,0c0.9-0.2,1.7-0.5,2.4-1.1s1.3-1.2,1.7-2c0.4-0.8,0.7-1.6,0.8-2.5
	c0.1-0.9,0.2-1.8,0.1-2.7c-0.2-1.8-0.6-3.5-1.1-5.2C529.5,237.7,527,238.4,525.1,240L525.1,240z"/>
<path class="st36" d="M532.3,244.5c0.2-0.2,0.4-0.4,0.7-0.6c0.1-0.1,0.3-0.1,0.4-0.2c0.2,0,0.3,0,0.5,0c0.2,0.1,0.4,0.2,0.5,0.3
	c0.1,0.2,0.2,0.3,0.3,0.5c0.1,0.2,0.1,0.4,0.1,0.6c0,0.2,0,0.4-0.1,0.6c-0.1,0.2-0.1,0.4-0.2,0.5c-0.1,0.2-0.2,0.3-0.4,0.4
	c-0.2,0.1-0.3,0.2-0.5,0.3c-0.2,0.1-0.4,0.1-0.6,0.1c-0.2,0-0.4,0-0.6,0c-0.2,0-0.4-0.1-0.5-0.2
	C532.1,246.2,532.2,245.3,532.3,244.5L532.3,244.5z"/>
<path class="st7" d="M523.9,241.3c2.5,0.1,5-0.6,7.2-1.8c-0.2,0.7-0.2,1.5,0,2.3c0.1,0.5,0.4,1,0.7,1.5c0.3,0.5,0.7,0.9,1.1,1.2
	c1-1.4,1.5-3.2,1.3-4.9c0-0.2-0.1-0.4-0.1-0.6c-0.3-0.5-0.7-0.9-1.2-1.3c-0.7-0.6-1.5-1.1-2.3-1.4c-0.6-0.2-1.2-0.4-1.8-0.4
	c-1.2-0.2-2.4,0-3.6,0.4c-0.6,0.2-1.1,0.5-1.6,0.8c-0.2,0.1-0.3,0.3-0.5,0.5c-0.4,0.4-0.7,0.9-0.9,1.4c0,0.1-0.1,0.2-0.1,0.4
	c0,0.1,0,0.3,0,0.4c0,0.1,0,0.3,0.1,0.4c0,0.1,0.1,0.2,0.1,0.4c0.1,0.1,0.1,0.2,0.2,0.3c0.1,0.1,0.2,0.2,0.3,0.3
	c0.1,0.1,0.2,0.2,0.3,0.2c0.1,0.1,0.2,0.1,0.3,0.2C523.5,241.3,523.7,241.3,523.9,241.3L523.9,241.3z"/>
</svg>
