<svg version="1.1" xmlns="http://www.w3.org/2000/svg" xmlns:xlink="http://www.w3.org/1999/xlink" width="630" height="390" viewBox="0 0 630 390">
<style type="text/css">
	.st0{fill:#EAF1FC;}
	.st1{fill:#F8F8FF;}
	.st2{fill:#D6E0F0;}
	.st3{fill:#CDE4F7;}
	.st4{fill:#0F222C;}
	.st5{fill:#C1721B;}
	.st6{fill:#FF8500;}
	.st7{fill:#B6CAD5;}
	.st8{fill:#0B2B46;}
	.st9{fill:#E3862D;}
	.st10{fill:#232526;}
	.st11{fill:#646464;}
	.st12{fill:#228211;}
	.st13{fill:#53AF28;}
	.st14{fill:#C18D54;}
	.st15{fill:#469721;}
	.st16{fill:#19670B;}
	.st17{fill:#E7A45B;}
	.st18{fill:#F0FCFB;}
	.st19{fill:#2C6292;}
	.st20{fill:#448DCE;}
	.st21{fill:#FFFFFF;}
	.st22{fill:#F09976;}
	.st23{fill:#E8815F;}
	.st24{fill:#02819F;}
	.st25{fill:#05616B;}
	.st26{fill:#CB775E;}
	.st27{fill:#047487;}
	.st28{opacity:0.5;fill:#B94614;}
</style>
<path class="st0" d="M0,336.7c0,0.8,0.1,1.5,0.4,2.2c0.3,0.8,0.7,1.5,1.1,2.2c0.6,0.8,1.2,1.5,1.9,2.2c0.8,0.8,1.7,1.5,2.6,2.2
	c1.1,0.8,2.2,1.5,3.4,2.2c1.2,0.7,2.6,1.4,4.1,2.1c1.5,0.7,3.1,1.4,4.8,2.1c1.7,0.7,3.6,1.4,5.6,2.1s4.1,1.4,6.3,2
	c2.2,0.7,4.5,1.3,7,2c2.4,0.7,5,1.3,7.6,1.9c2.6,0.6,5.4,1.3,8.2,1.9c2.9,0.6,5.8,1.2,8.8,1.8c3.1,0.6,6.2,1.2,9.4,1.7
	c3.3,0.6,6.6,1.1,10,1.7c3.5,0.5,7,1.1,10.6,1.6c3.7,0.5,7.4,1,11.1,1.5s7.7,1,11.6,1.4c4,0.5,7.9,0.9,12.1,1.4
	c4.1,0.4,8.2,0.9,12.5,1.3c4.3,0.4,8.5,0.8,13,1.2c4.4,0.4,8.8,0.7,13.3,1.1c4.5,0.4,9,0.7,13.7,1s9.3,0.6,14,0.9
	c4.7,0.3,9.5,0.5,14.3,0.8c4.8,0.2,9.6,0.5,14.6,0.7c4.9,0.2,9.8,0.4,14.8,0.6c5,0.2,9.9,0.3,15,0.5c5.1,0.1,10,0.3,15.1,0.4
	c5.1,0.1,10.1,0.2,15.2,0.3c5.1,0.1,10.2,0.1,15.3,0.2c5.2,0,10.2,0.1,15.3,0.1c5.1,0,10.2,0,15.4-0.1s10.2-0.1,15.3-0.2
	c5.1-0.1,10.1-0.2,15.2-0.3s10.1-0.2,15.1-0.4c5.1-0.1,10-0.3,15-0.5c5-0.2,9.9-0.4,14.8-0.6c4.9-0.2,9.7-0.4,14.6-0.7
	c4.8-0.3,9.6-0.5,14.3-0.8c4.8-0.3,9.4-0.6,14-0.9c4.7-0.3,9.2-0.6,13.7-1c4.5-0.3,8.9-0.7,13.4-1.1c4.4-0.4,8.7-0.8,13-1.2
	c4.3-0.4,8.4-0.8,12.5-1.3c4.1-0.4,8.1-0.9,12.1-1.4c4-0.5,7.8-0.9,11.6-1.4c3.8-0.5,7.5-1,11.1-1.5c3.6-0.5,7.2-1,10.6-1.6
	c3.4-0.6,6.8-1.1,10-1.7c3.3-0.6,6.4-1.1,9.4-1.7s6-1.2,8.8-1.8c2.9-0.6,5.6-1.2,8.2-1.9c2.6-0.6,5.2-1.3,7.6-1.9
	c2.4-0.6,4.7-1.3,6.9-2c2.2-0.7,4.3-1.3,6.3-2c2-0.7,3.8-1.4,5.6-2.1c1.7-0.7,3.4-1.4,4.8-2.1c1.5-0.7,2.9-1.4,4.1-2.1
	c1.2-0.7,2.3-1.4,3.4-2.2c0.9-0.7,1.8-1.4,2.6-2.2c0.7-0.7,1.3-1.4,1.9-2.2c0.5-0.7,0.9-1.4,1.1-2.2c0.5-1.4,0.5-3,0-4.4
	c-0.3-0.8-0.7-1.5-1.1-2.2c-0.6-0.8-1.2-1.5-1.9-2.2c-0.8-0.8-1.7-1.5-2.6-2.2c-1.1-0.8-2.2-1.5-3.4-2.2c-1.3-0.7-2.6-1.4-4.1-2.1
	c-1.5-0.7-3.1-1.4-4.8-2.1c-1.7-0.7-3.6-1.4-5.6-2.1c-2-0.7-4.1-1.4-6.3-2c-2.2-0.7-4.5-1.3-6.9-2c-2.4-0.7-5-1.3-7.6-1.9
	c-2.7-0.6-5.4-1.3-8.2-1.9c-2.9-0.6-5.8-1.2-8.8-1.8c-3.1-0.6-6.2-1.2-9.4-1.7c-3.3-0.6-6.6-1.1-10-1.7c-3.5-0.5-7-1.1-10.6-1.6
	c-3.6-0.5-7.4-1-11.1-1.5c-3.8-0.5-7.7-1-11.6-1.4c-4-0.5-8-0.9-12.1-1.4c-4.1-0.4-8.3-0.9-12.5-1.3c-4.3-0.4-8.6-0.8-13-1.2
	s-8.8-0.7-13.4-1.1c-4.6-0.4-9-0.7-13.7-1c-4.7-0.3-9.3-0.6-14-0.9c-4.7-0.3-9.5-0.5-14.3-0.8c-4.9-0.2-9.6-0.5-14.6-0.7
	c-4.9-0.2-9.8-0.4-14.8-0.6c-5-0.2-9.9-0.3-15-0.5c-5.1-0.1-10-0.3-15.1-0.4s-10.1-0.2-15.2-0.3c-5.1-0.1-10.2-0.1-15.3-0.2
	c-5.1,0-10.2-0.1-15.4-0.1s-10.2,0-15.3,0.1c-5.1,0-10.2,0.1-15.3,0.2c-5.1,0.1-10.1,0.2-15.2,0.3c-5.1,0.1-10.1,0.2-15.1,0.4
	c-5,0.1-10,0.3-15,0.5c-5,0.2-9.9,0.4-14.8,0.6c-4.9,0.2-9.7,0.4-14.6,0.7c-4.9,0.3-9.6,0.5-14.3,0.8c-4.8,0.3-9.4,0.6-14,0.9
	c-4.7,0.3-9.2,0.6-13.7,1c-4.5,0.3-8.9,0.7-13.3,1.1c-4.4,0.4-8.7,0.8-13,1.2c-4.3,0.4-8.4,0.8-12.5,1.3c-4.1,0.4-8.1,0.9-12.1,1.4
	c-4,0.5-7.8,0.9-11.6,1.4s-7.5,1-11.1,1.5c-3.6,0.5-7.2,1-10.6,1.6c-3.4,0.5-6.8,1.1-10,1.7c-3.3,0.6-6.4,1.1-9.4,1.7
	c-3.1,0.6-6,1.2-8.8,1.8c-2.9,0.6-5.6,1.2-8.2,1.9c-2.7,0.6-5.2,1.3-7.6,1.9s-4.7,1.3-7,2c-2.2,0.7-4.3,1.3-6.3,2
	c-2,0.7-3.8,1.4-5.6,2.1c-1.7,0.7-3.4,1.4-4.8,2.1c-1.5,0.7-2.9,1.4-4.1,2.1c-1.2,0.7-2.3,1.4-3.4,2.2c-0.9,0.7-1.8,1.4-2.6,2.2
	c-0.7,0.7-1.3,1.4-1.9,2.2c-0.5,0.7-0.9,1.4-1.1,2.2C0.1,335.2,0,336,0,336.7z"/>
<path class="st1" d="M44.9,321.8C4,242-18.5,89.4,70.1,38.7c57.9-33.1,118.3,9.6,180.3,11.5c48.6,1.6,95.6-34.6,139.5-44.8
	c115.1-27,296,43.2,216.5,316.4C407.5,321.3,243.9,322.4,44.9,321.8z"/>
<path class="st2" d="M542.5,317.5H122.6v4.5h419.9V317.5z"/>
<path class="st2" d="M525.2,147.5H132.4v170h392.8V147.5z"/>
<path class="st0" d="M551.9,150.7H109.1L334.5,67L551.9,150.7z"/>
<path class="st3" d="M176.4,139.5l308.3-0.4L334.4,81.8L176.4,139.5z"/>
<path class="st3" d="M542.5,150.7H120.7v7.1h421.8V150.7z"/>
<path class="st0" d="M193.5,150.7H152v10.8h41.5V150.7z"/>
<path class="st0" d="M184.2,161.5h-22.9v156h22.9V161.5z"/>
<path class="st0" d="M283.3,150.7h-41.5v10.8h41.5V150.7z"/>
<path class="st0" d="M274,161.5h-22.9v156H274V161.5z"/>
<path class="st0" d="M424.4,150.7H383v10.8h41.5V150.7z"/>
<path class="st0" d="M415.2,161.5h-22.9v156h22.9V161.5z"/>
<path class="st0" d="M508.9,150.7h-41.5v10.8h41.5V150.7z"/>
<path class="st0" d="M499.7,161.5h-22.9v156h22.9V161.5z"/>
<path class="st0" d="M309.9,218.8H283v-21c0-5.3,4.3-9.7,9.6-9.7h8.1c5,0,9.1,4.1,9.1,9.1v21.6H309.9z"/>
<path class="st0" d="M459.4,218.8h-26.9v-21c0-5.3,4.3-9.7,9.6-9.7h8.1c5,0,9.1,4.1,9.1,9.1v21.6H459.4z"/>
<path class="st0" d="M459.4,284.9h-26.9v-21c0-5.3,4.3-9.7,9.6-9.7h8.1c5,0,9.1,4.1,9.1,9.1v21.6H459.4z"/>
<path class="st0" d="M310.1,284.9h-26.9v-21c0-5.3,4.3-9.7,9.6-9.7h8.1c5,0,9.1,4.1,9.1,9.1v21.6H310.1z"/>
<path class="st0" d="M291,104.4c1.5-0.2,3.9-0.4,6.3-0.4c3.4,0,5.6,0.4,7.3,1.4c1.4,0.8,2.2,1.9,2.2,3.5c0,1.9-1.7,3.6-4.5,4.3v0.1
	c2.5,0.4,5.5,2,5.5,4.9c0,1.7-0.9,3-2.2,3.9c-1.9,1.2-4.9,1.8-9.2,1.8c-2.3,0-4.2-0.1-5.3-0.2v-19.3H291z M294.5,112.5h3.1
	c3.7,0,5.8-1.4,5.8-3.2c0-2.3-2.3-3.2-5.9-3.2c-1.5,0-2.5,0.1-3.1,0.2v6.2H294.5z M294.5,121.9c0.7,0.1,1.7,0.1,2.9,0.1
	c3.5,0,6.9-1,6.9-3.8c0-2.7-3.1-3.8-6.9-3.8h-2.9V121.9z"/>
<path class="st0" d="M316.9,117.7l-2.8,6.1h-3.5l9.1-19.6h4.2l9.1,19.6h-3.7l-2.9-6.1H316.9L316.9,117.7z M325.6,115.7L323,110
	c-0.6-1.2-1-2.4-1.4-3.6h-0.1c-0.4,1.1-0.9,2.3-1.3,3.6l-2.7,5.7H325.6z"/>
<path class="st0" d="M336.8,123.8v-19.6h3.8l8.5,9.9c2,2.3,3.5,4.3,4.8,6.3h0.1c-0.3-2.6-0.4-5-0.4-8v-8.2h3.2v19.6h-3.3l-8.5-9.9
	c-1.9-2.2-3.7-4.5-5-6.6h-0.1c0.2,2.4,0.3,4.8,0.3,8v8.4h-3.3V123.8z"/>
<path class="st0" d="M362.9,104.2h3.4v9.5h0.1c0.7-0.8,1.4-1.4,2.1-2.1l8.2-7.3h4.3l-9.6,8.4l10.4,11.2h-4.1l-8.7-9.6l-2.5,2.1v7.5
	H363v-19.6H362.9z"/>
<path class="st3" d="M84.4,62.1c1,0.6,1.9,1.2,2.8,1.8c2.6,2,6.3,4.8,7.4,7.9c1.3,3.7-1.7,7.9,1.3,11.3c1.6,1.8,4.2,2.2,6.4,3
	c4.3,1.6,7.6,5.4,9,9.7c1.5,4.3,1.3,9.1,0,13.5c-0.7,2.3-1.8,4.5-2,6.9c-0.2,1.8,0.2,3.6,0.6,5.4c3.6,16,10.9,29.9,11.5,46.7
	c0.4,9.9-3.7,18.5-4.3,28.6c-0.9,16.1-3.6,33.4-12.1,47.4c-6.6,10.6-17.8,19.8-30.8,19.5c-0.1,0-0.1,0-0.2,0h-1.7
	c-3.4,0-9.3,0.8-11.3-2.5c-1.2-2-1.5-4.4-2.2-6.6c-2.3-7-9.1-11.7-11.8-18.6c-1.7-4.3-1.6-9.1-1.5-13.7c0.4-14.2,0.9-28.3,1.1-42.5
	c0.2-10.5,4-19.5,3.1-30.3c-0.6-7.5-1.3-14.9-1.9-22.4c-0.7-7.7-1.1-16.1,3.3-22.4c2.2-3.2,5.6-5.6,7-9.3c0.7-1.9,0.8-4,1-6
	C60.2,77,68.1,52.8,84.4,62.1z"/>
<path class="st0" d="M73.5,322l5.7-177l1.6,4.3l3.6,172.5H73.5V322z"/>
<path class="st3" d="M568.8,90.2c0.4,0.3,0.7,0.3,1.5,0.3c7,3.1,13.4,11.1,13.6,22.8c-0.2,2.2-0.2,4.7,0.2,7
	c1.1,5.6,5.3,8.6,7.1,13.4c2.4,6.7,4.4,13.4,6,20.3c0.7,2.8,1.3,5.6,1.3,8.6c-0.2,4.7-2.2,9.5-2.2,14.5c0,4.5,1.6,8.6,2.7,12.8
	c2.4,9.2,1.1,18.1,0.7,27.6c-0.2,8.9-0.9,17.6-2,26.2c-1.6,11.7-4.4,23.7-9.1,33.2c-4.6,9.5-11.6,16.7-19.5,17.3h-1.3
	c0,0-32.4,4.2-32.9-86.9c0-12.5-0.9-24.5,0.9-37.3c0-1.4,0.4-2.8,0.9-3.9c0.9-2,2.2-2.8,2.9-4.7c0.4-1.7,0.7-3.6,0.5-5.6
	c0.2-11.1,0.7-22.3,8.3-28.4c1.5-0.8,2.7-2,3.8-3.3c2.7-3.6,2.7-9.5,3.5-14.8C557.2,99.4,561.8,88.2,568.8,90.2z"/>
<path class="st0" d="M564.4,322l3.6-144l1,3.5l2.3,140.3h-7V322z"/>
<path class="st3" d="M597.5,190.6c0.3,0.1,0.6,0.1,1.1,0.1c5.3,1.5,10.2,5.6,10.3,11.4c-0.1,1.1-0.1,2.4,0.1,3.5
	c0.8,2.8,4,4.3,5.4,6.7c1.8,3.3,3.3,6.7,4.6,10.1c0.6,1.4,1,2.8,1,4.3c-0.1,2.4-1.7,4.7-1.7,7.2c0,2.2,1.3,4.3,2.1,6.4
	c1.8,4.6,0.8,9,0.6,13.8c-0.1,4.4-0.7,8.8-1.5,13.1c-1.3,5.8-3.3,11.8-6.9,16.5c-3.5,4.7-8.8,8.3-14.8,8.6h-1
	c0,0-24.5,2.1-24.9-43.4c0-6.3-0.7-12.2,0.7-18.6c0-0.7,0.3-1.4,0.7-1.9c0.7-1,1.7-1.4,2.2-2.4c0.3-0.8,0.6-1.8,0.4-2.8
	c0.1-5.6,0.6-11.1,6.4-14.2c1.1-0.4,2.1-1,2.9-1.7c2.1-1.8,2.1-4.7,2.6-7.4C588.7,195.2,592.2,189.6,597.5,190.6z"/>
<path class="st0" d="M593,339l3.1-74.8l0.8,1.8l1.9,72.9H593V339z"/>
<path class="st4" d="M272.5,307.2c-6.3,0-12.2-4-14.4-10.3l-5.6-16.3c-2.8-7.9,1.5-16.6,9.5-19.4c7.9-2.8,16.6,1.5,19.4,9.5
	l5.6,16.3c2.8,7.9-1.5,16.6-9.5,19.4C275.8,307,274.1,307.2,272.5,307.2z"/>
<path class="st4" d="M278.6,324.6c0,3.4-2.8,6.2-6.2,6.2h-20c-3.4,0-6.2-2.8-6.2-6.2v-2c0-3.4,2.8-6.2,6.2-6.2h20
	c3.4,0,6.2,2.8,6.2,6.2V324.6z"/>
<path class="st4" d="M280.1,312.4c0,6.8-5.4,12.3-12.2,12.3c-6.7,0-12.2-4.7-12.2-10.4c0-5.7,0-14.1,0-18.7c0-4.6,5.4-8.2,12.2-8.2
	c6.7,0,12.2,5.5,12.2,12.3V312.4z"/>
<path class="st5" d="M307.6,325.5c0.8,7.4-4.8,13.5-12.2,13.5h-20.8c-7.4,0-12.8-6-11.8-13.5l4-31c1-7.4,7.8-13.5,15.4-13.5h7.4
	c7.4,0,14.1,6.1,14.9,13.5L307.6,325.5z"/>
<path class="st6" d="M317.6,339h-39.1c-2.1,0-3.9-0.9-5.1-2.3c-1-1.3-1.6-3.1-1.3-5.1l5.6-43.3c0.6-4,4.3-7.4,8.4-7.4h12.4
	c1,0,2,0.2,3,0.6c3.1,1.1,5.8,3.5,6.8,6.5l14.5,43.8C324,335.9,321.7,339,317.6,339z"/>
<path class="st5" d="M326.7,338.1h-48.8l2.3-8.2l2.1-7.4c1.1-4.6,3.8-7.4,7.9-7.4h19.1c4.1,0,8.2,3.3,9.1,7.4l3.2,7.4L326.7,338.1z"
	/>
<path class="st4" d="M268.7,282.3c-1.4,0.2-3-1.1-3.8-3.4l-27.1-75.6c-1.1-2.9-0.6-6.2,1.1-7.4c1.6-1.2,3.8,0.1,4.8,3l27.1,75.6
	c1.1,2.9,0.6,6.2-1,7.4C269.4,282.1,269.1,282.2,268.7,282.3z"/>
<path class="st4" d="M287.6,330.6c0.1,0,0.2,0,0.2,0c5.1,0.2,9.2,6.1,9.2,13.5c0,7.4-4.2,13.5-9.4,13.5h-6.6l-0.8-27L287.6,330.6z"
	/>
<path class="st7" d="M281.3,354.6c-3.2,0-6.1-4.4-6.4-9.7c0-0.2,0-0.5,0-0.7c0-5.5,3-10.5,6.4-10.5h0.1h0.1
	c3.1,0.1,6.2,4.3,6.2,10.5C287.7,349.7,284.8,354.6,281.3,354.6z"/>
<path class="st8" d="M281.3,336.8c1,0,3.3,2.7,3.3,7.4c0,4.7-2.3,7.4-3.3,7.4c-0.9,0-3.2-2.4-3.3-6.9c0-0.2,0-0.4,0-0.6
	C278,339.5,280.3,336.8,281.3,336.8z M281.3,330.6c-5.2,0-9.4,6-9.4,13.5c0,0.3,0,0.6,0,0.9c0.3,7.1,4.4,12.7,9.4,12.7
	c5.2,0,9.4-6,9.4-13.5c0-7.4-4.1-13.3-9.2-13.5C281.5,330.6,281.4,330.6,281.3,330.6z"/>
<path class="st4" d="M272.8,330.6c0.1,0,0.2,0,0.2,0c5.1,0.2,9.2,6.1,9.2,13.5c0,7.4-4.2,13.5-9.4,13.5h-6.3l1.1-27L272.8,330.6z"/>
<path class="st7" d="M266.5,354.6c-3.2,0-6.1-4.4-6.4-9.7c0-0.2,0-0.5,0-0.7c0-5.5,3-10.5,6.4-10.5h0.1h0.1
	c3.1,0.1,6.2,4.3,6.2,10.5C272.9,349.7,270,354.6,266.5,354.6z"/>
<path class="st8" d="M266.5,336.8c1.1,0,3.3,2.7,3.3,7.4c0,4.7-2.3,7.4-3.3,7.4c-0.9,0-3.1-2.4-3.3-6.9c0-0.2,0-0.4,0-0.6
	C263.2,339.5,265.5,336.8,266.5,336.8z M266.5,330.6c-5.2,0-9.4,6-9.4,13.5c0,0.3,0,0.6,0,0.9c0.3,7.1,4.4,12.7,9.4,12.7
	c5.2,0,9.4-6,9.4-13.5c0-7.4-4.1-13.3-9.2-13.5C266.7,330.6,266.6,330.6,266.5,330.6z"/>
<path class="st5" d="M325,334.4c0,2.9-2.8,5.3-6.3,5.3h-71.4c-3.5,0-6.3-2.3-6.4-5.3c-0.1-2.9,2.7-5.3,6.2-5.3h71.7
	C322.2,329.1,325,331.5,325,334.4z"/>
<path class="st6" d="M334.3,328.7c3.4,0,6.2,2.4,6.2,5.3s-2.8,5.3-6.2,5.3h-59.7c-3.4,0-6.2-2.4-6.2-5.3s2.8-5.3,6.2-5.3H334.3z"/>
<path class="st9" d="M409,332.6H286.3v8.2H409V332.6z"/>
<path class="st4" d="M249.7,229.6c-7.7,0-16.7-6.9-20.6-15.7l-0.7-1.6c-2.2-5.1-2.1-10.1,0.3-13.9c2.2-3.3,6-5.3,10.6-5.4
	c0.1,0,0.1,0,0.2,0c9,0,18.1,7.4,21,16.7l0.2,0.6c1.7,5.6,1.1,11.1-1.7,14.8C256.8,228,253.6,229.6,249.7,229.6
	C249.7,229.6,249.8,229.6,249.7,229.6z M239.5,201.6c-1.2,0-2.8,0.3-3.6,1.4c-0.9,1.2-0.7,3.4,0.3,5.8l0.7,1.6
	c2.7,6,8.9,10.5,12.7,10.5c1.1,0,1.7-0.4,2.3-1.1c0.9-1.1,1.4-3.7,0.4-7.3L252,212C250.6,206.5,244.7,201.6,239.5,201.6z"/>
<path class="st5" d="M408.6,332.9H241v8.2h167.7V332.9z"/>
<path class="st9" d="M508,332.6h-99.1v8.2H508V332.6z"/>
<path class="st10" d="M459.6,340.3c3.4,0,6.2,3.9,6.2,8.7c0,4.8-2.8,8.7-6.2,8.7h-8.8v-17.4H459.6L459.6,340.3z"/>
<path class="st8" d="M451.2,357.7c3.4,0,6.2-3.9,6.2-8.7c0-4.8-2.8-8.7-6.2-8.7s-6.2,3.9-6.2,8.7C445,353.8,447.8,357.7,451.2,357.7
	z"/>
<path class="st7" d="M451.2,352.4c1.4,0,2.5-1.5,2.5-3.4c0-1.9-1.1-3.4-2.5-3.4s-2.5,1.5-2.5,3.4
	C448.7,350.9,449.8,352.4,451.2,352.4z"/>
<path class="st4" d="M473.6,340.3c3.4,0,6.2,3.9,6.2,8.7c0,4.8-2.8,8.7-6.2,8.7h-8.8v-17.4H473.6L473.6,340.3z"/>
<path class="st8" d="M465.2,357.7c3.4,0,6.2-3.9,6.2-8.7c0-4.8-2.8-8.7-6.2-8.7c-3.4,0-6.2,3.9-6.2,8.7
	C459,353.8,461.8,357.7,465.2,357.7z"/>
<path class="st7" d="M465.2,352.4c1.4,0,2.5-1.5,2.5-3.4c0-1.9-1.1-3.4-2.5-3.4s-2.5,1.5-2.5,3.4
	C462.7,350.9,463.9,352.4,465.2,352.4z"/>
<path class="st10" d="M412.3,340.3c3.4,0,6.2,3.9,6.2,8.7c0,4.8-2.8,8.7-6.2,8.7h-8.8v-17.4H412.3L412.3,340.3z"/>
<path class="st8" d="M403.9,357.7c3.4,0,6.2-3.9,6.2-8.7c0-4.8-2.8-8.7-6.2-8.7c-3.4,0-6.2,3.9-6.2,8.7
	C397.7,353.8,400.5,357.7,403.9,357.7z"/>
<path class="st7" d="M403.9,352.4c1.4,0,2.5-1.5,2.5-3.4c0-1.9-1.1-3.4-2.5-3.4s-2.5,1.5-2.5,3.4
	C401.5,350.9,402.6,352.4,403.9,352.4z"/>
<path class="st4" d="M426.4,340.3c3.4,0,6.2,3.9,6.2,8.7c0,4.8-2.8,8.7-6.2,8.7h-8.8v-17.4H426.4L426.4,340.3z"/>
<path class="st8" d="M417.9,357.7c3.4,0,6.2-3.9,6.2-8.7c0-4.8-2.8-8.7-6.2-8.7c-3.4,0-6.2,3.9-6.2,8.7
	C411.7,353.8,414.4,357.7,417.9,357.7z"/>
<path class="st7" d="M417.9,352.4c1.4,0,2.5-1.5,2.5-3.4c0-1.9-1.1-3.4-2.5-3.4c-1.4,0-2.5,1.5-2.5,3.4
	C415.4,350.9,416.5,352.4,417.9,352.4z"/>
<path class="st11" d="M347.8,121l-27.9-0.7v196.9h54.8v-96.4C374.7,209.3,359.3,127.7,347.8,121z"/>
<path class="st12" d="M370,323h-57V176.7c0-9.8,7.7-17.7,17.1-17.7h39.8L370,323L370,323z"/>
<path class="st12" d="M345.5,120.3h-31.3c-1.8,0-3.2,1.5-3.2,3.4v11.7c0,1.9,1.4,3.4,3.2,3.4h38.3
	C350.1,129.3,347.7,122.2,345.5,120.3z"/>
<path class="st12" d="M313.4,144.9c-1.3,0-2.4,1-2.4,2.5v1.9c0,1.3,1.1,2.5,2.4,2.5h41.8c-0.5-2.4-1-4.6-1.4-6.8L313.4,144.9
	L313.4,144.9z"/>
<path class="st13" d="M398,120.7l-53-0.7c0,0,19.6,91.8,19.6,103.5V323H433v-99.4C433,211.4,418.7,121.6,398,120.7z"/>
<path class="st14" d="M411.9,200.6l1.4,13.3c0.2,1.6,1.5,3,3.1,3l8.4,0.3c2,0.1,3.5-1.7,3.2-3.8l-1.6-13.1c-0.2-1.6-1.4-2.9-3.1-3
	l-8.3-0.5C413.2,196.8,411.6,198.6,411.9,200.6z"/>
<path class="st15" d="M437.7,317.1h-69v16h69V317.1z"/>
<path class="st16" d="M369,317.1h-57.9v16H369V317.1z"/>
<path class="st17" d="M412.2,204.2c0.8-0.5,13.9,0.5,14.8,0.8l-0.6-4.7c-0.2-1.6-1.4-2.9-3.1-3l-8.3-0.5c-2-0.1-3.6,1.6-3.3,3.7
	L412.2,204.2z"/>
<path class="st18" d="M373.1,218.8c-2.5,0-4.5-1.9-4.8-4.4c-1.2-12.2-4.2-34.3-8.1-56.2l-0.5-2.6h35.9c4.6,0,8.6,3.4,9.5,8.2
	c4.1,21.6,5.8,45.8,6.3,52.7l0.2,2.3H373.1L373.1,218.8z"/>
<path class="st7" d="M370.4,214.2c-1.5-14.2-4.5-36.2-8.2-56.3h33.3c3.6,0,6.8,2.8,7.5,6.5c3.5,18.4,5.4,39.5,6.3,52.4h-36.3
	C371.7,216.6,370.5,215.6,370.4,214.2z"/>
<path class="st19" d="M369.1,203.2c0.5,4,1,7.6,1.2,10.9c0.2,1.4,1.3,2.5,2.7,2.5h36.3c-0.3-3.8-0.6-8.4-1-13.5L369.1,203.2
	L369.1,203.2z"/>
<path class="st20" d="M388.5,165.2c3.6,0,6.8,2.8,7.5,6.5c2.9,15.2,3.5,18.8,4.5,31.6l8.9,13.5c-0.9-12.9-2.8-34-6.3-52.4
	c-0.8-3.7-3.8-6.5-7.5-6.5h-33.3c0.5,2.5,0.9,4.9,1.3,7.4H388.5L388.5,165.2z"/>
<path class="st18" d="M392.3,174.6h-24.7c-0.3,0-0.5-0.3-0.5-0.6c0-0.3,0.2-0.6,0.5-0.6h24.7c0.3,0,0.5,0.3,0.5,0.6
	C392.9,174.4,392.6,174.6,392.3,174.6z"/>
<path class="st18" d="M391.6,171.4h-24.7c-0.3,0-0.5-0.3-0.5-0.6s0.2-0.6,0.5-0.6h24.7c0.3,0,0.5,0.3,0.5,0.6
	S391.9,171.4,391.6,171.4z"/>
<path class="st14" d="M410.5,229.8H374c-0.9,0-1.5-0.8-1.5-1.6c0-0.9,0.7-1.6,1.5-1.6h36.5c0.9,0,1.5,0.8,1.5,1.6
	C412,229.2,411.4,229.8,410.5,229.8z"/>
<path class="st17" d="M374,228.7h36.5c0.5,0,0.9,0.2,1.1,0.6c0.2-0.3,0.4-0.7,0.4-1.1c0-0.9-0.7-1.6-1.5-1.6H374
	c-0.9,0-1.5,0.8-1.5,1.6c0,0.4,0.1,0.8,0.4,1.1C373.2,229,373.6,228.7,374,228.7z"/>
<path class="st14" d="M425.8,183.8l-15.8,0.7c-0.4,0-0.7-0.7-0.8-1.5c0-0.9,0.2-1.6,0.6-1.6l15.8-0.7c0.4,0,0.7,0.7,0.8,1.5
	C426.5,183,426.2,183.8,425.8,183.8z"/>
<path class="st18" d="M411.2,195.1c-3-3.8,2.4-7.9-0.6-11.7c4.7-0.2,9.5-0.4,14.1-0.6c2.9,3.8-2.6,7.9,0.3,11.7
	C420.5,194.7,415.8,194.9,411.2,195.1z"/>
<path class="st17" d="M410,183.3l15.8-0.7c0.2,0,0.4,0.2,0.6,0.6c0.1-0.3,0.1-0.7,0.1-1.1c0-0.9-0.4-1.6-0.8-1.5l-15.8,0.7
	c-0.4,0-0.7,0.8-0.6,1.6c0,0.4,0.1,0.8,0.2,1.1C409.7,183.5,409.9,183.3,410,183.3z"/>
<path class="st8" d="M213.6,344.3c0,0,6.5,3.7,9.6-2.3l23.9,12.5l-0.9,0.7h-35.8l-0.3-0.7L213.6,344.3z"/>
<path class="st21" d="M231.5,350.3c1-1.2,2-2.4,3.2-3.2c0.2-0.1,0.6-0.1,0.8,0.2c0.1,0.3,0.1,0.7-0.2,0.9c-1.1,0.8-2.2,1.8-2.9,2.9
	c-0.1,0.1-0.2,0.2-0.3,0.2c-0.2,0.1-0.5,0-0.7-0.1C231.2,350.8,231.2,350.5,231.5,350.3z M228.6,349.6c-0.3-0.3-0.3-0.7-0.1-0.8
	c1-1.2,2-2.4,3.2-3.2c0.2-0.2,0.6-0.1,0.8,0.1c0.2,0.3,0.2,0.7-0.1,0.9c-1.1,0.8-2.1,1.8-2.9,2.9c-0.1,0.1-0.2,0.2-0.3,0.2
	C229.1,349.8,228.8,349.7,228.6,349.6z M225.4,348.2C225.4,348.1,225.4,348.1,225.4,348.2c-0.3-0.2-0.3-0.6-0.1-0.7
	c1-1.2,2-2.4,3.2-3.1c0-0.1,0.1-0.1,0.1-0.1c0.2-0.2,0.7-0.1,0.8,0.2c0.2,0.2,0.1,0.7-0.2,0.8c-1.1,0.8-2.1,1.8-2.9,2.9
	c-0.1,0.1-0.2,0.2-0.3,0.2C225.9,348.3,225.6,348.3,225.4,348.2z M246,357.8c0.7,0,1.2-0.7,1.2-1.2v-2h-37v2c0,0.7,0.5,1.2,1.1,1.2
	H246z"/>
<path class="st8" d="M172.5,344.3c0,0,6.5,3.7,9.6-2.3l23.9,12.5l-1.2,0.7h-35.1l-0.7-0.7L172.5,344.3z"/>
<path class="st21" d="M190.5,350.3c1-1.2,2-2.4,3.2-3.2c0.2-0.1,0.6-0.1,0.8,0.2c0.1,0.3,0.1,0.7-0.2,0.9c-1.1,0.8-2.2,1.8-2.9,2.9
	c-0.1,0.1-0.2,0.2-0.3,0.2c-0.2,0.1-0.5,0-0.7-0.1C190.2,350.8,190.2,350.5,190.5,350.3z M187.5,349.6c-0.3-0.3-0.3-0.7-0.1-0.8
	c1-1.2,2-2.4,3.2-3.2c0.2-0.2,0.6-0.1,0.8,0.1c0.2,0.3,0.2,0.7-0.1,0.9c-1.1,0.8-2.1,1.8-2.9,2.9c-0.1,0.1-0.2,0.2-0.3,0.2
	C188,349.8,187.7,349.7,187.5,349.6z M184.4,348.2C184.4,348.1,184.4,348.1,184.4,348.2c-0.3-0.2-0.3-0.6-0.1-0.7
	c1-1.2,2-2.4,3.2-3.1c0-0.1,0.1-0.1,0.1-0.1c0.2-0.2,0.7-0.1,0.8,0.2c0.2,0.2,0.1,0.7-0.2,0.8c-1.1,0.8-2.1,1.8-2.9,2.9
	c-0.1,0.1-0.2,0.2-0.3,0.2C184.8,348.3,184.6,348.3,184.4,348.2z M204.9,357.8c0.7,0,1.2-0.7,1.2-1.2v-2h-37v2
	c0,0.7,0.5,1.2,1.1,1.2H204.9z"/>
<path class="st22" d="M206.9,147.3c1,0.7,1.7,1.5,2.6,2.3c-3.3,1.3-7.2,1.7-10.7,1.1c-1.9-0.4-3.8-0.9-5.6-1.6
	c-1.3-0.7-2.9-1.4-4.1-2.3c-0.2-0.2-0.2-0.7-0.2-0.9c0-0.2-0.1-0.3-0.1-0.5l0.1-1.2c0.3-4,0.7-8.1,0.7-12.1
	c0.3-3.7,0.3-7.4,0.6-11.1c4.5,1.6,8.6,3.8,12.6,6.2c0.3,2.4,0.8,5,1.1,7.4c0.3,2.1,0.8,4.1,1.2,6.2c0.3,1.1,0.5,2.4,0.9,3.3
	C206.1,145.1,206.5,146.3,206.9,147.3z"/>
<path class="st23" d="M205,140.7c-4.5-1.1-9.5-1.6-15.4-8.6c0.3-3.7,0.3-7.4,0.6-11.1c4.5,1.6,8.6,3.8,12.6,6.2
	c0.3,2.4,0.8,5,1.1,7.4C204.1,136.6,204.6,138.7,205,140.7z"/>
<path class="st24" d="M184,116.8c4.4-7.9,10.5-14.7,18-19.9c-1.1-2.6-3.3-4.8-6-5.6c-2.8-0.8-5.7-0.8-8.4,0.2
	c-2.9,1-5.3,2.6-7.1,4.9c-1.8,2.4-2.7,5.3-2.5,8.2C178.3,109.4,181.2,113.1,184,116.8z"/>
<path class="st25" d="M189.6,101.4c5-3.3,9.7-6.6,14.7-9.6c1.3-1,2.7-1.7,4.2-1.7c2,0.1,3.6,2.4,3.7,4.5c-0.1,2-1,4.1-2.5,5.6
	c-2.8,3.2-6.6,5.3-10.9,5.8c-2.5,0.3-5,0.1-7.4-0.7c-0.8-0.4-3-0.8-3.4-1.5C187,102.5,188.6,102.1,189.6,101.4z"/>
<path class="st8" d="M204.5,107.8c-0.7-0.1-1.3,0.2-2,0.7c-0.5,0.6-0.3,1.4-0.2,2.1c0.8,2.7,2,5.2,3.7,7.4c1.9-2.9,2.1-6.5,0.6-9.6
	C205.9,108.3,205.1,107.8,204.5,107.8z M187.1,103.1c-0.9,0.9-1.5,1.9-2.2,3.1c-0.3,0.6-0.7,1.2-0.9,1.7c-0.8,3-1.1,6.2-0.6,9.2
	c0.9,5,3.7,9.7,7.8,12.7c2-5.6,2.1-11.9,0.4-17.8C190.8,108.6,189.3,105.8,187.1,103.1z"/>
<path class="st22" d="M204.2,107.1c-0.3,3.7,1.5,7.1,3.3,10.5c1.9,3.3,3.6,6.9,2.5,10.6c-1.1,3.6-5.2,6.1-9,5.9
	c-3.9-0.4-7.4-2.5-9.5-5.8c-1.9-3.3-3-7.1-2.9-11.1c0-3.9,0.7-7.6,1.3-11.5C194.5,102.9,200,104,204.2,107.1z"/>
<path class="st22" d="M191.1,123.4c-0.8-1.7-1.2-3.6-1.5-5.6c-0.5-0.4-1-0.8-1.6-1.1c-0.6-0.2-1.3-0.2-2,0c-0.8,0.7-1.2,1.2-1.4,2.2
	c-0.2,1.1,0.1,2.4,0.7,3.3C186.4,124.3,189.1,124.8,191.1,123.4z"/>
<path class="st8" d="M210.5,103.5c0.2,0.4,0.3,0.8,0.4,1.1c0.3,2.5-1.2,4.6-3.6,5.1c-5.5,0.7-11.1-0.3-15.9-2.6
	c0.7,1.6,0.8,3.2,0.5,4.9c-0.6,2.5-1.7,4.6-3.5,6.2c-2.3-3-3.6-6.7-3.5-10.5c-0.1-0.5,0.2-0.8,0.2-1.3c0.6-1.1,1.3-2.1,2.2-3.1
	c1.3-1.3,3.1-2.6,4.8-3.5c4.9-2.3,10.4-2.3,15.2,0.1c0.5,0.1,0.8,0.5,1.1,0.9C209.2,101.5,210,102.4,210.5,103.5z"/>
<path class="st26" d="M225.6,195.3c-0.8,0.8-2.1,1.1-4.3,1c-2.7-0.3-2.8-1.7-4-3.8c-1.2-2.2-2.5-4.5-3.1-7c-0.5-2.2-0.3-4.5-0.1-6.7
	c0.2-3.1,1.1-6.8,0.7-9.8c-0.2-1.7-0.9-3.5-1.2-5.2c-0.5-2.3,1.1-4.6,3.3-5.1c2.7-0.6,4.7,1.3,5.2,3.8c0.5,2.4,1.7,4.3,2.8,6.6
	c2.9,6.6,2.8,11.6,2.1,18.6C226.7,190.7,227.1,193.8,225.6,195.3z"/>
<path class="st27" d="M231.1,343.3c-0.6,1.3-2.1,2.1-3.3,2.6c-3.6,1.4-7.6,2-11.6,2.2c-1.6,0.1-3.8,0.3-5.3-0.7
	c-1.6-1.1-1.1-3-1.1-4.6c-0.2-3.1-0.3-6.1-0.5-9.2l-0.2-2.8v-0.7l-0.1-2.3v-0.4v-0.7l-0.1-1.8v-0.4v-0.1l-0.2-2.9v-0.4l-1.6-29.5
	c-0.1-1-0.3-3.2-0.6-4.4c-2.6-9.7-4.2-32.3-4.1-39l-12.1-36.1l23.2-5.7c0,0,3.8,2.1,5,16c1.7,20.5,10.4,61.1,10.6,65.8l1.1,29.6
	l0.1,1.8l0.1,1.5l0.1,1.4v0.4l0.1,1.7l0.1,1.4l0.1,2v0.3l0.2,3.4c0.1,2.2,0.2,4.4,0.3,6.7c0.1,1.2,0.4,2.9,0.2,4.1
	C231.2,342.9,231.2,343.1,231.1,343.3z"/>
<path class="st21" d="M214.9,187.9c-0.9-1.3-1.5-3-1.9-4.6c-0.5-2.2-0.4-4.5-0.2-6.8c0.2-2.5,0.6-4.9,0.8-7.4
	c0.4,1.8,0.8,3.6,1.1,5.4l1.3,6.9l14.9-2.8c0,0-3.2-13.7-4.7-20.9c-1.4-7-6.6-12.8-15.6-12.7c-0.9,0-1.5,0.1-2,0.2
	c-0.5-0.4-1-0.6-1.8-0.7c-1.1-0.1-2.4,0.1-3.5,0.1c-4.8,0-9.5,0-14.2,0c-6.2,0-12.4,5.2-12.4,11.7v77.3c0,0,7.7-17.7,26.7-17.8
	c15-0.1,13.7,1.6,13.4,1.8c0.2-0.1,1.1-0.9,1.1-1.2c0.2-4.8,0.3-9.5,0.4-14.2c0-2,0.1-3.9,0.1-5.9c0-1.5,0.6-3.9-0.2-5.3
	C217.6,190.2,215.8,189.2,214.9,187.9z"/>
<path class="st25" d="M211.9,250.2c0.7-6.3,1.6-12.5,2.8-18.8c-3,3.9-6,7.7-9.4,11.4c-1.1,1.2-2.9,2.5-3.5,3.9
	c-0.6,1.3-0.5,2.9-0.4,4.2c0,2.1,0.1,4.3,0.2,6.4l5.2,30.1c0.1,0.2,0.1,0.5,0.2,0.8c-0.1-0.5-0.1-1-0.1-1.5
	c-0.4-7,1.4-14.1,2.8-20.9C210.5,260.7,211.3,255.5,211.9,250.2z"/>
<path class="st28" d="M188.1,161l-1.7-0.4h-0.5l-5.4,3.6l-1.9,22.8l2.9,6.6l13.3-5.1l0.6-17.7L188.1,161z"/>
<path class="st24" d="M217.7,166.4c-0.4-1.3-0.4-2.9-1.3-4c-0.3-0.4-0.9-0.5-1.3-0.3c-2.6,1-5.3,0.9-8,0.9c-4.9,0-9.7,0-14.6,0
	c0,4.8,1.9,22.1-4.6,24.4c-0.5,0.2-1.1,0.2-1.7,0.2c-3.2,0-5.5,0.3-5.5,0.3v-6.8l-3.6-1.7c0,0-0.6,40-0.2,53.2c0,0.3,0.1,0.6,0.1,1
	c0,0.7,0.1,1.2,0.1,1.7v0.1c0,28.7,0.5,53.8,0.3,54.3L173,318l-0.5,3.1l-0.3,2.1l-0.5,3.1c-0.4,2.5-0.8,5.1-1.1,7.5
	c-0.5,3.3-1.5,7.5,0.2,10.7c1.2,2.3,4.4,2.8,6.8,3c3.3,0.4,7.1,0.5,10.3-0.3c3.2-0.7,3.8-3.4,4.3-6.2c0.7-3.6,1.1-7.3,1.7-10.9
	c0.2-1.1,0.3-2,0.5-3.2c0.1-0.8,0.2-1.4,0.3-2.2c0.2-1.1,0.3-2.1,0.5-3.2c1.8-13.1,5-33.7,5-33.7c1.1-7.6,1.1-15.3,1.1-23
	c0.1-4.3-0.1-8.3,1.4-12.4c1.4-4,3.6-7.7,5.9-11.3c2.3-3.5,4.9-7.1,6.9-10.8c1.1-1.9,1.9-3.8,2.6-5.9c0.7-2.1,0.5-4.3,0.5-6.5
	c0.1-3.4,0.4-19.8,0.5-31.4C219.1,179.7,219.5,173.1,217.7,166.4z"/>
<path class="st25" d="M193.3,208.7c-8.4,0-16.3,8-16.3,23.9c0-13.7,0-55.5,0-55.5c4.5,4.4,10.3,9.4,12.5,15.1
	c1.5,3.9,4.9,5.3,8.8,5.9c2.1,0.3,18.8-1.4,18.8,1.1C217.1,209.2,208.9,208.7,193.3,208.7z"/>
<path class="st24" d="M207.8,144.4c-0.4,0-1.6,0.1-1.7,0c0.6,0.8,1.4,1.4,2,2.3c1.3,2.2,1.6,5,2.2,7.4c0.7,2.8,0.9,5.6,0.8,8.5
	l2.9,3.4l2-3.4c0-3.1-0.1-6.3-0.9-9.4c-0.6-2.6-1.5-5.2-3.2-7.3C210.7,144.5,209.6,144.7,207.8,144.4
	C207.9,144.4,207.9,144.4,207.8,144.4z"/>
<path class="st22" d="M241.6,195c1.9,1.5,2.4,4,3.8,5.9c0.8,1,1.5,1.6,2.7,1.8c1,0.2,3.8,0.1,4.6-0.5c1.2-1,1.4-4.3,1.1-5.6
	c-0.7-3.1-2.9-4.4-5.9-4.2c-2.9,0.2-5.1-0.1-7.8,1c-0.1,0.1-0.3,0.1-0.3,0.3c0,0.2,0.2,0.3,0.4,0.4
	C240.6,194.4,241.1,194.6,241.6,195z"/>
<path class="st22" d="M239.6,195.6c-0.2-0.5-0.5-1-0.8-1.2c-1.1-1.2-2.4-1.1-4-1.2c-3.6-0.3-6.7,0.1-10.2,0.9
	c-7,0.6-13.9,1.5-20.9,1.3c-0.8,0-1.5-0.1-2.2,0.3c-0.1,0.1-0.3,0.2-0.5,0.1c-0.1,0-0.2-0.2-0.3-0.3c-1.7-2.8-2.1-6.3-3.2-9.4
	c-1.1-3.2-2.6-6.3-4.2-9.3c-2.5-4.6-6.1-8.5-8.1-13.3c-1-2.2-3.5-3.2-5.7-2.3c-2.9,1.2-2.3,3.9-2.6,6.4c-0.4,3.2,0,6.4,0.8,9.5
	c1.2,5.1,3.3,9.9,6.1,14.3c1.2,1.9,2.9,3.4,4,5.3c0.9,1.3,1.8,2.6,2.8,3.8c0.9,1.1,1.5,2.6,2.6,3.6c1.2,1.1,2.2,1,3.7,1.1
	c1.3,0.2,2.6,0.7,3.9,1c3.4,0.8,7,0.8,10.4,0.2c3.2-0.6,6.4-1.5,9.5-2.6c3.2-1.1,6.7-0.9,9.7-2.8c0.1-0.1,0.3-0.2,0.5-0.2
	c0.1,0,0.1,0.1,0.2,0.1c1.1,0.9,0.3,2.6,1.4,3.2c0.9,0.5,3.1,0.3,4,0.2c3-0.3,4.3-2.1,4.1-5.1C240.5,198.3,240.2,196.8,239.6,195.6z
	"/>
<path class="st21" d="M190.9,144.9c-17.6-0.5-21.2,7.9-20.8,15.1c0.4,7,11.6,30.7,11.6,30.7l18.4-4.7l-10.6-25.3L190.9,144.9z"/>
<path class="st24" d="M189.2,144.7c6.8,0,8.3,10.8,8.2,17.9l-2.3,5.2l-2.7-5.2c0.1-7.2-1.6-17.8-9.2-17.3c0,0,1.7-0.3,2.9-0.5
	C187.4,144.7,189.2,144.7,189.2,144.7z"/>
</svg>
