<svg version="1.1" xmlns="http://www.w3.org/2000/svg" xmlns:xlink="http://www.w3.org/1999/xlink" width="630" height="390" viewBox="0 0 630 390">
<style type="text/css">
	.st0{fill:#EAF1FC;}
	.st1{fill:#F8F8FF;}
	.st2{fill:#CDE4F7;}
	.st3{fill:#E9EDF4;}
	.st4{fill:#FFFFFF;}
	.st5{fill:#ECF7FE;}
	.st6{fill:#0F222C;}
	.st7{fill:#0B2B46;}
	.st8{fill:#1D4259;}
	.st9{fill:#8C8FAD;}
	.st10{fill:#448DCE;}
	.st11{fill:#F2F2F2;}
	.st12{fill:#F19100;}
	.st13{fill:#2C6292;}
	.st14{fill:#3270A7;}
	.st15{fill:#FFDA35;}
	.st16{fill:#222846;}
	.st17{opacity:0.62;fill:none;stroke:#FFFFFF;stroke-linecap:round;stroke-miterlimit:10;enable-background:new    ;}
	.st18{fill:#191F43;}
	.st19{fill:#2275BF;}
	.st20{fill:#1B313C;}
	.st21{fill:#F9F8F9;}
	.st22{fill:#3075B2;}
	.st23{fill:#5996CC;}
	.st24{fill:#4B87BC;}
	.st25{fill:#FF524F;}
	.st26{fill:#2F7CC0;}
	.st27{fill:#1A568C;}
	.st28{fill:#114574;}
	.st29{fill:#164F83;}
	.st30{fill:#C07632;}
	.st31{fill:#0C3860;}
	.st32{fill:#11426D;}
	.st33{fill:#25649D;}
	.st34{fill:#3873A9;}
	.st35{fill:#164C7C;}
	.st36{fill:#478CCA;}
	.st37{fill:#2A6EAC;}
	.st38{fill:#23619A;}
	.st39{fill:#F8C47A;}
	.st40{fill:#E19A54;}
	.st41{fill:#FFDF9A;}
	.st42{fill:#D38137;}
	.st43{fill:#EAB973;}
	.st44{fill:#D3914F;}
	.st45{fill:#F1D392;}
	.st46{fill:#E4E6E6;}
	.st47{fill:#C08448;}
	.st48{fill:#E5B571;}
	.st49{fill:#CE8D4D;}
	.st50{fill:#ECCF8F;}
	.st51{fill:#E08F73;}
	.st52{fill:#F09976;}
	.st53{fill:#E8815F;}
	.st54{fill:#047487;}
	.st55{fill:#05616B;}
	.st56{fill:#02819F;}
</style>
<path class="st0" d="M311,390c171.8,0,311-27.2,311-60.7c0-33.5-139.2-60.7-311-60.7S0,295.8,0,329.3C0,362.8,139.2,390,311,390z"/>
<path class="st1" d="M589.5,305.8c36.9-75.8,57.2-220.9-22.7-269.1C514.5,5.3,460,45.8,404,47.6c-44,1.6-86.3-32.7-125.9-42.5
	C174.2-20.6,10.9,46.2,82.7,305.8C262.3,305.3,409.9,306.4,589.5,305.8z"/>
<path class="st2" d="M377,111.7h118v194.5H377V111.7z"/>
<path class="st3" d="M377,111.7h37v194.5h-37V111.7z"/>
<path class="st4" d="M480.5,117.1h5.5v5.8h-5.5V117.1z M470.5,117.1h5.5v5.8h-5.5V117.1z M460.5,117.1h5.5v5.8h-5.5V117.1z
	 M450.5,117.1h5.5v5.8h-5.5V117.1z M440.5,117.1h5.5v5.8h-5.5V117.1z M430.5,117.1h5.5v5.8h-5.5V117.1z M420.4,117.1h5.5v5.8h-5.5
	V117.1z M402,117.1h5.5v5.8H402V117.1z M392,117.1h5.5v5.8H392V117.1z M382,117.1h5.5v5.8H382V117.1z M480.5,129.3h5.5v5.8h-5.5
	V129.3z M470.5,129.3h5.5v5.8h-5.5V129.3z M460.5,129.3h5.5v5.8h-5.5V129.3z M450.5,129.3h5.5v5.8h-5.5V129.3z M440.5,129.3h5.5v5.8
	h-5.5V129.3z M430.5,129.3h5.5v5.8h-5.5V129.3z M420.4,129.3h5.5v5.8h-5.5V129.3z M402,129.3h5.5v5.8H402V129.3z M392,129.3h5.5v5.8
	H392V129.3z M382,129.3h5.5v5.8H382V129.3z M480.5,141.4h5.5v5.8h-5.5V141.4z M470.5,141.4h5.5v5.8h-5.5V141.4z M460.5,141.4h5.5
	v5.8h-5.5V141.4z M450.5,141.4h5.5v5.8h-5.5V141.4z M440.5,141.4h5.5v5.8h-5.5V141.4z M430.5,141.4h5.5v5.8h-5.5V141.4z
	 M420.4,141.4h5.5v5.8h-5.5V141.4z M402,141.4h5.5v5.8H402V141.4z M392,141.4h5.5v5.8H392V141.4z M382,141.4h5.5v5.8H382V141.4z
	 M480.5,153.6h5.5v5.8h-5.5V153.6z M470.5,153.6h5.5v5.8h-5.5V153.6z M460.5,153.6h5.5v5.8h-5.5V153.6z M450.5,153.6h5.5v5.8h-5.5
	V153.6z M440.5,153.6h5.5v5.8h-5.5V153.6z M430.5,153.6h5.5v5.8h-5.5V153.6z M420.4,153.6h5.5v5.8h-5.5V153.6z M402,153.6h5.5v5.8
	H402V153.6z M392,153.6h5.5v5.8H392V153.6z M382,153.6h5.5v5.8H382V153.6z M480.5,165.8h5.5v5.8h-5.5V165.8z M470.5,165.8h5.5v5.8
	h-5.5V165.8z M460.5,165.8h5.5v5.8h-5.5V165.8z M450.5,165.8h5.5v5.8h-5.5V165.8z M440.5,165.8h5.5v5.8h-5.5V165.8z M430.5,165.8
	h5.5v5.8h-5.5V165.8z M420.4,165.8h5.5v5.8h-5.5V165.8z M402,165.8h5.5v5.8H402V165.8z M392,165.8h5.5v5.8H392V165.8z M382,165.8
	h5.5v5.8H382V165.8z M480.5,178h5.5v5.8h-5.5V178z M470.5,178h5.5v5.8h-5.5V178z M460.5,178h5.5v5.8h-5.5V178z M450.5,178h5.5v5.8
	h-5.5V178z M440.5,178h5.5v5.8h-5.5V178z M430.5,178h5.5v5.8h-5.5V178z M420.4,178h5.5v5.8h-5.5V178z M402,178h5.5v5.8H402V178z
	 M392,178h5.5v5.8H392V178z M382,178h5.5v5.8H382V178z M480.5,190.1h5.5v5.8h-5.5V190.1z M470.5,190.1h5.5v5.8h-5.5V190.1z
	 M460.5,190.1h5.5v5.8h-5.5V190.1z M450.5,190.1h5.5v5.8h-5.5V190.1z M440.5,190.1h5.5v5.8h-5.5V190.1z M430.5,190.1h5.5v5.8h-5.5
	V190.1z M420.4,190.1h5.5v5.8h-5.5V190.1z M402,190.1h5.5v5.8H402V190.1z M392,190.1h5.5v5.8H392V190.1z M382,190.1h5.5v5.8H382
	V190.1z M480.5,202.3h5.5v5.8h-5.5V202.3z M470.5,202.3h5.5v5.8h-5.5V202.3z M460.5,202.3h5.5v5.8h-5.5V202.3z M450.5,202.3h5.5v5.8
	h-5.5V202.3z M440.5,202.3h5.5v5.8h-5.5V202.3z M430.5,202.3h5.5v5.8h-5.5V202.3z M420.4,202.3h5.5v5.8h-5.5V202.3z M402,202.3h5.5
	v5.8H402V202.3z M392,202.3h5.5v5.8H392V202.3z M382,202.3h5.5v5.8H382V202.3z M480.5,214.5h5.5v5.8h-5.5V214.5z M470.5,214.5h5.5
	v5.8h-5.5V214.5z M460.5,214.5h5.5v5.8h-5.5V214.5z M450.5,214.5h5.5v5.8h-5.5V214.5z M440.5,214.5h5.5v5.8h-5.5V214.5z
	 M430.5,214.5h5.5v5.8h-5.5V214.5z M420.4,214.5h5.5v5.8h-5.5V214.5z M402,214.5h5.5v5.8H402V214.5z M392,214.5h5.5v5.8H392V214.5z
	 M382,214.5h5.5v5.8H382V214.5z M480.5,226.7h5.5v5.8h-5.5V226.7z M470.5,226.7h5.5v5.8h-5.5V226.7z M460.5,226.7h5.5v5.8h-5.5
	V226.7z M450.5,226.7h5.5v5.8h-5.5V226.7z M440.5,226.7h5.5v5.8h-5.5V226.7z M430.5,226.7h5.5v5.8h-5.5V226.7z M420.4,226.7h5.5v5.8
	h-5.5V226.7z M402,226.7h5.5v5.8H402V226.7z M382,226.7h5.5v5.8H382V226.7z M480.5,238.8h5.5v5.8h-5.5V238.8z M470.5,238.8h5.5v5.8
	h-5.5V238.8z M460.5,238.8h5.5v5.8h-5.5V238.8z M450.5,238.8h5.5v5.8h-5.5V238.8z M440.5,238.8h5.5v5.8h-5.5V238.8z M430.5,238.8
	h5.5v5.8h-5.5V238.8z M420.4,238.8h5.5v5.8h-5.5V238.8z M402,238.8h5.5v5.8H402V238.8z M382,238.8h5.5v5.8H382V238.8z M480.5,251
	h5.5v5.8h-5.5V251z M470.5,251h5.5v5.8h-5.5V251z M460.5,251h5.5v5.8h-5.5V251z M450.5,251h5.5v5.8h-5.5V251z M440.5,251h5.5v5.8
	h-5.5V251z M430.5,251h5.5v5.8h-5.5V251z M420.4,251h5.5v5.8h-5.5V251z M402,251h5.5v5.8H402V251z M382,251h5.5v5.8H382V251z
	 M480.5,263.2h5.5v5.8h-5.5V263.2z M470.5,263.2h5.5v5.8h-5.5V263.2z M460.5,263.2h5.5v5.8h-5.5V263.2z M450.5,263.2h5.5v5.8h-5.5
	V263.2z M440.5,263.2h5.5v5.8h-5.5V263.2z M430.5,263.2h5.5v5.8h-5.5V263.2z M420.4,263.2h5.5v5.8h-5.5V263.2z M402,263.2h5.5v5.8
	H402V263.2z M382,263.2h5.5v5.8H382V263.2z M480.5,275.4h5.5v5.8h-5.5V275.4z M470.5,275.4h5.5v5.8h-5.5V275.4z M460.5,275.4h5.5
	v5.8h-5.5V275.4z M450.5,275.4h5.5v5.8h-5.5V275.4z M440.5,275.4h5.5v5.8h-5.5V275.4z M430.5,275.4h5.5v5.8h-5.5V275.4z
	 M420.4,275.4h5.5v5.8h-5.5V275.4z M402,275.4h5.5v5.8H402V275.4z M382,275.4h5.5v5.8H382V275.4z M480.5,287.5h5.5v5.8h-5.5V287.5z
	 M470.5,287.5h5.5v5.8h-5.5V287.5z M460.5,287.5h5.5v5.8h-5.5V287.5z M450.5,287.5h5.5v5.8h-5.5V287.5z M440.5,287.5h5.5v5.8h-5.5
	V287.5z M430.5,287.5h5.5v5.8h-5.5V287.5z M420.4,287.5h5.5v5.8h-5.5V287.5z M402,287.5h5.5v5.8H402V287.5z M392.3,226.7h5.5v5.8
	h-5.5V226.7z M392.3,238.8h5.5v5.8h-5.5V238.8z M392.3,251h5.5v5.8h-5.5V251z M392.3,263.2h5.5v5.8h-5.5V263.2z M392.3,275.4h5.5
	v5.8h-5.5V275.4z M392.3,287.5h5.5v5.8h-5.5V287.5z M382,287.5h5.5v5.8H382V287.5z"/>
<path class="st2" d="M284,145h109v161.2H284V145z"/>
<path class="st3" d="M284,145h34v161.2h-34V145z"/>
<path class="st4" d="M380.9,149.3h5.1v27h-5.1V149.3z M371.7,149.3h5.1v27h-5.1V149.3z M362.4,149.3h5.1v27h-5.1V149.3z
	 M353.2,149.3h5.1v27h-5.1V149.3z M343.9,149.3h5.1v27h-5.1V149.3z M334.7,149.3h5.1v27h-5.1V149.3z M325.4,149.3h5.1v27h-5.1V149.3
	z M308.5,149.3h5.1v27h-5.1V149.3z M299.2,149.3h5.1v27h-5.1V149.3z M290,149.3h5.1v27H290V149.3z M380.9,179.9h5.1v27h-5.1V179.9z
	 M371.7,179.9h5.1v27h-5.1V179.9z M362.4,179.9h5.1v27h-5.1V179.9z M353.2,179.9h5.1v27h-5.1V179.9z M343.9,179.9h5.1v27h-5.1V179.9
	z M334.7,179.9h5.1v27h-5.1V179.9z M325.4,179.9h5.1v27h-5.1V179.9z M308.5,179.9h5.1v27h-5.1V179.9z M299.2,179.9h5.1v27h-5.1
	V179.9z M290,179.9h5.1v27H290V179.9z M380.9,210.5h5.1v27h-5.1V210.5z M371.7,210.5h5.1v27h-5.1V210.5z M362.4,210.5h5.1v27h-5.1
	V210.5z M353.2,210.5h5.1v27h-5.1V210.5z M343.9,210.5h5.1v27h-5.1V210.5z M334.7,210.5h5.1v27h-5.1V210.5z M325.4,210.5h5.1v27
	h-5.1V210.5z M308.5,210.5h5.1v27h-5.1V210.5z M299.2,210.5h5.1v27h-5.1V210.5z M290,210.5h5.1v27H290V210.5z M380.9,241.1h5.1v27
	h-5.1V241.1z M371.7,241.1h5.1v27h-5.1V241.1z M362.4,241.1h5.1v27h-5.1V241.1z M353.2,241.1h5.1v27h-5.1V241.1z M343.9,241.1h5.1
	v27h-5.1V241.1z M334.7,241.1h5.1v27h-5.1V241.1z M325.4,241.1h5.1v27h-5.1V241.1z M308.5,241.1h5.1v27h-5.1V241.1z M299.2,241.1
	h5.1v27h-5.1V241.1z M290,241.1h5.1v27H290V241.1z M380.9,271.6h5.1v27h-5.1V271.6z M371.7,271.6h5.1v27h-5.1V271.6z M362.4,271.6
	h5.1v27h-5.1V271.6z M353.2,271.6h5.1v27h-5.1V271.6z M343.9,271.6h5.1v27h-5.1V271.6z M334.7,271.6h5.1v27h-5.1V271.6z
	 M325.4,271.6h5.1v27h-5.1V271.6z M308.5,271.6h5.1v27h-5.1V271.6z M299.2,271.6h5.1v27h-5.1V271.6z M290,271.6h5.1v27H290V271.6z"
	/>
<path class="st2" d="M28,88.1h109v218.1H28V88.1z"/>
<path class="st3" d="M28,88.1h34v218.1H28V88.1z"/>
<path class="st4" d="M125,98.8h5v24h-5V98.8z M115.8,98.8h5v24h-5V98.8z M106.7,98.8h5v24h-5V98.8z M97.5,98.8h5v24h-5V98.8z
	 M88.4,98.8h5v24h-5V98.8z M79.2,98.8h5v24h-5V98.8z M70.1,98.8h5v24h-5V98.8z M53.3,98.8h5v24h-5V98.8z M44.1,98.8h5v24h-5V98.8z
	 M35,98.8h5v24h-5V98.8z M125,126h5v24h-5V126z M115.8,126h5v24h-5V126z M106.7,126h5v24h-5V126z M97.5,126h5v24h-5V126z M88.4,126
	h5v24h-5V126z M79.2,126h5v24h-5V126z M70.1,126h5v24h-5V126z M53.3,126h5v24h-5V126z M44.1,126h5v24h-5V126z M35,126h5v24h-5V126z
	 M125,153.1h5v24h-5V153.1z M115.8,153.1h5v24h-5V153.1z M106.7,153.1h5v24h-5V153.1z M97.5,153.1h5v24h-5V153.1z M88.4,153.1h5v24
	h-5V153.1z M79.2,153.1h5v24h-5V153.1z M70.1,153.1h5v24h-5V153.1z M53.3,153.1h5v24h-5V153.1z M44.1,153.1h5v24h-5V153.1z
	 M35,153.1h5v24h-5V153.1z M115.8,180.3h5v24h-5V180.3z M106.7,180.3h5v24h-5V180.3z M97.5,180.3h5v24h-5V180.3z M88.4,180.3h5v24
	h-5V180.3z M79.2,180.3h5v24h-5V180.3z M70.1,180.3h5v24h-5V180.3z M53.3,180.3h5v24h-5V180.3z M44.1,180.3h5v24h-5V180.3z
	 M35,180.3h5v24h-5V180.3z M115.8,207.5h5v24h-5V207.5z M106.7,207.5h5v24h-5V207.5z M97.5,207.5h5v24h-5V207.5z M88.4,207.5h5v24
	h-5V207.5z M79.2,207.5h5v24h-5V207.5z M70.1,207.5h5v24h-5V207.5z M53.3,207.5h5v24h-5V207.5z M44.1,207.5h5v24h-5V207.5z
	 M35,207.5h5v24h-5V207.5z M115.8,234.6h5v24h-5V234.6z M106.7,234.6h5v24h-5V234.6z M97.5,234.6h5v24h-5V234.6z M88.4,234.6h5v24
	h-5V234.6z M79.2,234.6h5v24h-5V234.6z M70.1,234.6h5v24h-5V234.6z M53.3,234.6h5v24h-5V234.6z M44.1,234.6h5v24h-5V234.6z
	 M35,234.6h5v24h-5V234.6z M115.8,261.7h5v24h-5V261.7z M106.7,261.7h5v24h-5V261.7z M97.5,261.7h5v24h-5V261.7z M88.4,261.7h5v24
	h-5V261.7z M79.2,261.7h5v24h-5V261.7z M70.1,261.7h5v24h-5V261.7z M53.3,261.7h5v24h-5V261.7z M44.1,261.7h5v24h-5V261.7z
	 M35,261.7h5v24h-5V261.7z"/>
<path class="st2" d="M229,106.4h76v199.8h-76V106.4z"/>
<path class="st5" d="M229,106.4h24v199.8h-24V106.4z"/>
<path class="st4" d="M229,117.1h76v1.7h-76V117.1z M229,130.3h76v1.7h-76V130.3z M229,143.5h76v1.7h-76V143.5z M229,156.6h76v1.7
	h-76V156.6z M229,169.8h76v1.7h-76V169.8z M229,183h76v1.7h-76V183z M229,196.2h76v1.7h-76V196.2z M229,209.3h76v1.7h-76V209.3z
	 M229,222.5h76v1.7h-76V222.5z M229,235.7h76v1.7h-76V235.7z M229,248.8h76v1.7h-76V248.8z M229,262h76v1.7h-76V262z M229,275.2h76
	v1.7h-76V275.2z M229,288.4h76v1.7h-76V288.4z"/>
<path class="st2" d="M494,146h106v160H494V146z"/>
<path class="st3" d="M494,146h33v160h-33V146z"/>
<path class="st4" d="M494,155h106v1.3H494V155z M494,165.5h106v1.3H494V165.5z M494,176h106v1.3H494V176z M494,186.5h106v1.3H494
	V186.5z M494,197h106v1.3H494V197z M494,207.5h106v1.3H494V207.5z M494,218.1h106v1.3H494V218.1z M494,228.6h106v1.3H494V228.6z
	 M494,239.1h106v1.3H494V239.1z M494,249.6h106v1.3H494V249.6z M494,260.1h106v1.3H494V260.1z M494,270.6h106v1.3H494V270.6z
	 M494,281.1h106v1.3H494V281.1z M494,291.7h106v1.3H494V291.7z"/>
<path class="st2" d="M105,30.1h140v276.1H105V30.1z"/>
<path class="st5" d="M105,30.1h44v276.1h-44V30.1z"/>
<path class="st4" d="M229.6,43h6.4v7.9h-6.4V43z M217.8,43h6.4v7.9h-6.4V43z M206.1,43h6.4v7.9h-6.4V43z M194.4,43h6.4v7.9h-6.4V43z
	 M182.6,43h6.4v7.9h-6.4V43z M170.9,43h6.4v7.9h-6.4V43z M159.1,43h6.4v7.9h-6.4V43z M137.5,43h6.4v7.9h-6.4V43z M125.8,43h6.4v7.9
	h-6.4V43z M114,43h6.4v7.9H114V43z M229.6,59.6h6.4v7.9h-6.4V59.6z M217.8,59.6h6.4v7.9h-6.4V59.6z M206.1,59.6h6.4v7.9h-6.4V59.6z
	 M194.4,59.6h6.4v7.9h-6.4V59.6z M182.6,59.6h6.4v7.9h-6.4V59.6z M170.9,59.6h6.4v7.9h-6.4V59.6z M159.1,59.6h6.4v7.9h-6.4V59.6z
	 M137.5,59.6h6.4v7.9h-6.4V59.6z M125.8,59.6h6.4v7.9h-6.4V59.6z M114,59.6h6.4v7.9H114V59.6z M229.6,76.2h6.4v7.9h-6.4V76.2z
	 M217.8,76.2h6.4v7.9h-6.4V76.2z M206.1,76.2h6.4v7.9h-6.4V76.2z M194.4,76.2h6.4v7.9h-6.4V76.2z M182.6,76.2h6.4v7.9h-6.4V76.2z
	 M170.9,76.2h6.4v7.9h-6.4V76.2z M159.1,76.2h6.4v7.9h-6.4V76.2z M137.5,76.2h6.4v7.9h-6.4V76.2z M125.8,76.2h6.4v7.9h-6.4V76.2z
	 M114,76.2h6.4v7.9H114V76.2z M229.6,92.9h6.4v7.9h-6.4V92.9z M217.8,92.9h6.4v7.9h-6.4V92.9z M206.1,92.9h6.4v7.9h-6.4V92.9z
	 M194.4,92.9h6.4v7.9h-6.4V92.9z M182.6,92.9h6.4v7.9h-6.4V92.9z M170.9,92.9h6.4v7.9h-6.4V92.9z M159.1,92.9h6.4v7.9h-6.4V92.9z
	 M137.5,92.9h6.4v7.9h-6.4V92.9z M125.8,92.9h6.4v7.9h-6.4V92.9z M114,92.9h6.4v7.9H114V92.9z M229.6,109.5h6.4v7.9h-6.4V109.5z
	 M217.8,109.5h6.4v7.9h-6.4V109.5z M206.1,109.5h6.4v7.9h-6.4V109.5z M194.4,109.5h6.4v7.9h-6.4V109.5z M182.6,109.5h6.4v7.9h-6.4
	V109.5z M170.9,109.5h6.4v7.9h-6.4V109.5z M159.1,109.5h6.4v7.9h-6.4V109.5z M137.5,109.5h6.4v7.9h-6.4V109.5z M125.8,109.5h6.4v7.9
	h-6.4V109.5z M114,109.5h6.4v7.9H114V109.5z M229.6,126.1h6.4v7.9h-6.4V126.1z M217.8,126.1h6.4v7.9h-6.4V126.1z M206.1,126.1h6.4
	v7.9h-6.4V126.1z M194.4,126.1h6.4v7.9h-6.4V126.1z M182.6,126.1h6.4v7.9h-6.4V126.1z M170.9,126.1h6.4v7.9h-6.4V126.1z
	 M159.1,126.1h6.4v7.9h-6.4V126.1z M137.5,126.1h6.4v7.9h-6.4V126.1z M125.8,126.1h6.4v7.9h-6.4V126.1z M114,126.1h6.4v7.9H114
	V126.1z M229.6,142.7h6.4v7.9h-6.4V142.7z M217.8,142.7h6.4v7.9h-6.4V142.7z M206.1,142.7h6.4v7.9h-6.4V142.7z M194.4,142.7h6.4v7.9
	h-6.4V142.7z M182.6,142.7h6.4v7.9h-6.4V142.7z M170.9,142.7h6.4v7.9h-6.4V142.7z M159.1,142.7h6.4v7.9h-6.4V142.7z M137.5,142.7
	h6.4v7.9h-6.4V142.7z M125.8,142.7h6.4v7.9h-6.4V142.7z M114,142.7h6.4v7.9H114V142.7z M229.6,159.4h6.4v7.9h-6.4V159.4z
	 M217.8,159.4h6.4v7.9h-6.4V159.4z M206.1,159.4h6.4v7.9h-6.4V159.4z M194.4,159.4h6.4v7.9h-6.4V159.4z M182.6,159.4h6.4v7.9h-6.4
	V159.4z M170.9,159.4h6.4v7.9h-6.4V159.4z M159.1,159.4h6.4v7.9h-6.4V159.4z M137.5,159.4h6.4v7.9h-6.4V159.4z M125.8,159.4h6.4v7.9
	h-6.4V159.4z M114,159.4h6.4v7.9H114V159.4z M229.6,176h6.4v7.9h-6.4V176z M217.8,176h6.4v7.9h-6.4V176z M206.1,176h6.4v7.9h-6.4
	V176z M194.4,176h6.4v7.9h-6.4V176z M182.6,176h6.4v7.9h-6.4V176z M170.9,176h6.4v7.9h-6.4V176z M159.1,176h6.4v7.9h-6.4V176z
	 M137.5,176h6.4v7.9h-6.4V176z M125.8,176h6.4v7.9h-6.4V176z M114,176h6.4v7.9H114V176z M229.6,192.6h6.4v7.9h-6.4V192.6z
	 M217.8,192.6h6.4v7.9h-6.4V192.6z M206.1,192.6h6.4v7.9h-6.4V192.6z M194.4,192.6h6.4v7.9h-6.4V192.6z M182.6,192.6h6.4v7.9h-6.4
	V192.6z M170.9,192.6h6.4v7.9h-6.4V192.6z M159.1,192.6h6.4v7.9h-6.4V192.6z M137.5,192.6h6.4v7.9h-6.4V192.6z M114,192.6h6.4v7.9
	H114V192.6z M229.6,209.2h6.4v7.9h-6.4V209.2z M217.8,209.2h6.4v7.9h-6.4V209.2z M206.1,209.2h6.4v7.9h-6.4V209.2z M194.4,209.2h6.4
	v7.9h-6.4V209.2z M182.6,209.2h6.4v7.9h-6.4V209.2z M170.9,209.2h6.4v7.9h-6.4V209.2z M159.1,209.2h6.4v7.9h-6.4V209.2z
	 M137.5,209.2h6.4v7.9h-6.4V209.2z M114,209.2h6.4v7.9H114V209.2z M229.6,225.9h6.4v7.9h-6.4V225.9z M217.8,225.9h6.4v7.9h-6.4
	V225.9z M206.1,225.9h6.4v7.9h-6.4V225.9z M194.4,225.9h6.4v7.9h-6.4V225.9z M182.6,225.9h6.4v7.9h-6.4V225.9z M170.9,225.9h6.4v7.9
	h-6.4V225.9z M159.1,225.9h6.4v7.9h-6.4V225.9z M137.5,225.9h6.4v7.9h-6.4V225.9z M114,225.9h6.4v7.9H114V225.9z M229.6,242.5h6.4
	v7.9h-6.4V242.5z M217.8,242.5h6.4v7.9h-6.4V242.5z M206.1,242.5h6.4v7.9h-6.4V242.5z M194.4,242.5h6.4v7.9h-6.4V242.5z
	 M182.6,242.5h6.4v7.9h-6.4V242.5z M170.9,242.5h6.4v7.9h-6.4V242.5z M159.1,242.5h6.4v7.9h-6.4V242.5z M137.5,242.5h6.4v7.9h-6.4
	V242.5z M114,242.5h6.4v7.9H114V242.5z M229.6,259.1h6.4v7.9h-6.4V259.1z M217.8,259.1h6.4v7.9h-6.4V259.1z M206.1,259.1h6.4v7.9
	h-6.4V259.1z M194.4,259.1h6.4v7.9h-6.4V259.1z M182.6,259.1h6.4v7.9h-6.4V259.1z M170.9,259.1h6.4v7.9h-6.4V259.1z M159.1,259.1
	h6.4v7.9h-6.4V259.1z M137.5,259.1h6.4v7.9h-6.4V259.1z M114,259.1h6.4v7.9H114V259.1z M229.6,275.7h6.4v7.9h-6.4V275.7z
	 M217.8,275.7h6.4v7.9h-6.4V275.7z M206.1,275.7h6.4v7.9h-6.4V275.7z M194.4,275.7h6.4v7.9h-6.4V275.7z M182.6,275.7h6.4v7.9h-6.4
	V275.7z M170.9,275.7h6.4v7.9h-6.4V275.7z M159.1,275.7h6.4v7.9h-6.4V275.7z M137.5,275.7h6.4v7.9h-6.4V275.7z M126.1,192.6h6.4v7.9
	h-6.4V192.6z M126.1,209.2h6.4v7.9h-6.4V209.2z M126.1,225.9h6.4v7.9h-6.4V225.9z M126.1,242.5h6.4v7.9h-6.4V242.5z M126.1,259.1
	h6.4v7.9h-6.4V259.1z M126.1,275.7h6.4v7.9h-6.4V275.7z M114,275.7h6.4v7.9H114V275.7z"/>
<path class="st5" d="M225,30.4H125V18.9c0-4.9,4.1-8.9,9.1-8.9h81.7c5.1,0,9.1,4,9.1,8.9V30.4L225,30.4z"/>
<path class="st3" d="M581,320.2h-18c0-1.8,1.5-3.2,3.3-3.2h11.4C579.6,316.9,581.1,318.4,581,320.2L581,320.2z"/>
<path class="st2" d="M523.3,228.1c3.4-0.6,5.7,2.9,6.4,6c0.3,1.7,0.3,3.6,1.7,4.6c0.6,0.4,1.2,0.8,1.8,1.1c3.7,1.9,4,5.5,4,9.1
	c-0.1,0.6,0.1,1.2,0.3,1.7c0.3,0.6,1,0.9,1.4,1.5c0.3,0.4,0.4,0.9,0.5,1.3c0.9,4.1,0.5,7.8,0.4,11.9c-0.2,29-16,27.7-16,27.7h-0.6
	c-3.8-0.2-7.3-2.5-9.5-5.5c-2.2-3.2-3.7-6.8-4.3-10.5c-0.5-2.8-0.9-5.6-1-8.4c-0.2-3.1-0.8-5.8,0.3-8.8c0.5-1.3,1.3-2.7,1.4-4.1
	c0-1.6-1-3.1-1-4.6c0-1,0.2-1.9,0.6-2.8c0.8-2.2,1.7-4.4,2.8-6.4c0.9-1.6,3-2.5,3.5-4.2c0.1-0.7,0.2-1.5,0.1-2.3
	c0.1-3.7,3.3-6.3,6.7-7.2L523.3,228.1z"/>
<path class="st4" d="M526,323h-4l1.3-46.9l0.6-1.1L526,323L526,323z"/>
<path class="st6" d="M146.1,341l10.5-15.7l-10.5-15.7h8c5.8,0,10.5,7,10.5,15.7c0,8.7-4.7,15.7-10.5,15.7H146.1z"/>
<path class="st7" d="M146.1,309.7c5.8,0,10.5,7,10.5,15.7c0,8.7-4.7,15.7-10.5,15.7c-5.8,0-10.5-7-10.5-15.7
	C135.5,316.7,140.2,309.7,146.1,309.7z"/>
<path class="st8" d="M367.7,311.1H67c-2.2,0-4,1.6-4,3.6v8c0,2,1.7,3.7,4,3.7h300.7V311.1z"/>
<path class="st7" d="M408.8,312.5v-1.5l-81.8,0.8l-0.7,0.7c-2.9,0-5.3,1.9-5.3,4.1v5.6c0,2.3,2.4,4.1,5.3,4.1h82.5
	c2.9,0,5.3-1.9,5.3-4.1v-5.6C414.1,314.3,411.7,312.5,408.8,312.5z"/>
<path class="st9" d="M176.4,326.4h8c1.2,0,2.2-0.8,2.2-1.7v-11.1h-12.3v11.1C174.2,325.6,175.2,326.4,176.4,326.4z"/>
<path class="st9" d="M162.6,326.3h8c1.2,0,2.2-0.8,2.2-1.7v-11.1h-12.3v11.1C160.5,325.6,161.5,326.3,162.6,326.3z"/>
<path class="st9" d="M149,326.3h8c1.2,0,2.2-0.8,2.2-1.7v-11.1h-12.3v11.1C146.8,325.6,147.8,326.3,149,326.3z"/>
<path class="st10" d="M326.4,210l-192.7,4.6v99h192.7V210z"/>
<path class="st11" d="M326.4,285.9l-194.1,6.6l-0.4,21h194.5V285.9z"/>
<path class="st12" d="M133.6,293.8l191.3-5.6v-12.3l-191.3,10.9V293.8z"/>
<path class="st13" d="M411.3,313.5H323V210h88.3V313.5z"/>
<rect x="323" y="210" class="st14" width="88.3" height="3.9"/>
<path class="st14" d="M134.2,222.5l-1.8,0.5l-1.5,0.7l-0.3,89.8h3.6V222.5z"/>
<path class="st14" d="M95,239l37.3,1.7c0.2,0,0.3-0.1,0.3-0.3v-4.8c0-0.2-0.1-0.3-0.3-0.3L95.6,238L95,239z"/>
<path class="st10" d="M132.5,238.4H95.3c0,0,5.6-12.1,37.2-15.5V238.4z"/>
<path class="st8" d="M132.2,326.5h-26.5v-23.2h26.5c0.2,0,0.3,0.1,0.3,0.3v22.7C132.5,326.3,132.4,326.5,132.2,326.5z"/>
<path class="st10" d="M63.7,326.5h25.4l1.9-14.9H58.2v10.2C58.2,324.4,60.7,326.5,63.7,326.5z"/>
<path class="st8" d="M58.2,309.4H92v2.2H58.2V309.4z"/>
<path class="st13" d="M65.5,319.3h16.3v6.5H65.5V319.3z"/>
<path class="st13" d="M65.5,311.6h16.3v6.5H65.5V311.6z"/>
<path class="st6" d="M65.5,324.3h16.3v1.5H65.5V324.3z"/>
<path class="st6" d="M65.5,316.7h16.3v1.5H65.5V316.7z"/>
<path class="st10" d="M84.7,239.1h47.7l0.3,70.5H58.2L58,290.1v-21.5C58,251,69.8,239.1,84.7,239.1z"/>
<path class="st15" d="M64.2,295c-0.1,10.2-2.7,13-6,13l-0.2-13H64.2z"/>
<path class="st11" d="M86.7,309.5l13.1-13.1l32.8-3.3v16.1c0,0.2-0.1,0.3-0.3,0.3L86.7,309.5z"/>
<path class="st12" d="M132.5,287c0,0-39.1-1.2-47.6,22.6H92c0,0,4.1-15.6,40.5-15.6"/>
<path class="st6" d="M113.3,244v21.7c0,7.9-5.5,14.4-12.2,14.4H63.1L63,268c-0.1-13.2,8.9-24,20-24H113.3L113.3,244z"/>
<path class="st16" d="M101.9,285.8h6.1c0.8,0,1.4-1,1.4-1.9v-1.1h-9v1.1C100.4,285,101.1,285.8,101.9,285.8z"/>
<path class="st17" d="M113.3,276.6v15.7c0,3.4-2.5,6.1-5.5,6.1h-5.4c-1.5,0-6.4,0.2-7.9,1.8c-1.9,2.1-4.5,5.1-4.5,5.1
	c-1,1.2-2.5,1.8-4,1.8H72.8c-1.8,0-3.3-1.6-3.3-3.6v-15.6"/>
<path class="st18" d="M68.3,288.8c-1.8,0-3.2-1.5-3.2-3.2v-9.1h3.2V288.8z"/>
<path class="st10" d="M68.3,270.5v6h-3.2v-2.7C65.1,271.9,66.5,270.5,68.3,270.5z"/>
<path class="st19" d="M65.1,276.5h3.2v7h-3.2V276.5z"/>
<path class="st18" d="M65.1,281.7c-1.1,0-2,0.9-2,2c0,1.1,0.9,2,2,2"/>
<path class="st20" d="M124.8,326.5c0-17-11-23.4-20.9-23.4c-10.1,0-20.9,6.3-20.9,23.4"/>
<path class="st6" d="M99.4,342.6l12.2-18.1l-12.2-18.1h9.2c6.7,0,12.2,8.1,12.2,18.1s-5.4,18.1-12.2,18.1H99.4z"/>
<path class="st7" d="M99.4,306.4c6.7,0,12.2,8.1,12.2,18.1s-5.4,18.1-12.2,18.1c-6.7,0-12.2-8.1-12.2-18.1
	C87.3,314.6,92.7,306.4,99.4,306.4z"/>
<path class="st21" d="M92.5,324.5c0,5.6,3.1,10.2,6.9,10.2c3.8,0,6.9-4.6,6.9-10.2s-3.1-10.2-6.9-10.2
	C95.6,314.3,92.5,318.9,92.5,324.5z"/>
<path class="st6" d="M264.3,349c0-3.8,1.1-7.6,3.3-10.8c2.1-3.2,5.2-5.7,8.7-7.2c3.5-1.5,7.5-1.9,11.2-1.1c3.8,0.7,7.2,2.6,9.9,5.3
	c2.7,2.7,4.6,6.2,5.3,9.9c0.8,3.8,0.4,7.7-1.1,11.2c-1.5,3.5-4,6.6-7.2,8.7c-3.2,2.1-6.9,3.3-10.8,3.3c-5.1,0-10.1-2.1-13.7-5.7
	C266.4,359.1,264.3,354.1,264.3,349L264.3,349z M370.7,349.2c0-3.8,1.1-7.5,3.2-10.7c2.1-3.2,5.1-5.6,8.6-7.1
	c3.5-1.5,7.4-1.8,11.1-1.1c3.7,0.7,7.2,2.6,9.9,5.3c2.7,2.7,4.5,6.1,5.3,9.9c0.7,3.7,0.4,7.6-1.1,11.1c-1.5,3.5-3.9,6.5-7.1,8.6
	c-3.2,2.1-6.9,3.2-10.7,3.2c-5.1,0-10-2.1-13.6-5.7C372.8,359.2,370.8,354.3,370.7,349.2L370.7,349.2z"/>
<path class="st22" d="M451.5,250h-69.2v88h69.2V250z"/>
<path class="st8" d="M386.3,337.1h-175c-1.7,0-3.1,1.5-3.1,3.4v7.4c0,1.9,1.4,3.4,3.1,3.4h175V337.1z"/>
<path class="st23" d="M212.9,337.1h78.8v-65h-39.5c-3.8,0-7.5,1-10.9,2.8c-3.3,1.8-6.2,4.4-8.3,7.6l-16.1,24.1
	c-2.6,3.9-3.9,8.4-3.9,13.1L212.9,337.1z"/>
<path class="st6" d="M273.4,310.5v-31.2h-20.8c-2.6,0-5.2,0.6-7.6,1.9c-2.3,1.2-4.3,3-5.8,5.2L223,310.5L273.4,310.5z"/>
<path class="st24" d="M290.3,272.1H283v65h7.4V272.1z"/>
<path class="st16" d="M264.8,315.7h7c0.4,0,0.8-0.2,1.1-0.5c0.3-0.3,0.5-0.7,0.5-1.1v-1h-10.2v1c0,0.4,0.2,0.8,0.5,1.1
	C263.9,315.5,264.3,315.7,264.8,315.7L264.8,315.7z"/>
<path class="st15" d="M219,328.8c0-1.6-0.7-3.2-1.8-4.4c-1.2-1.2-2.7-1.8-4.4-1.8V335c1.6,0,3.2-0.7,4.4-1.8
	C218.4,332,219,330.4,219,328.8L219,328.8z"/>
<path class="st7" d="M451.4,337.1h-65.1c-0.5,0-1.1,0.1-1.6,0.3c-0.5,0.2-1,0.5-1.4,0.9c-0.4,0.4-0.7,0.8-0.9,1.4
	c-0.2,0.5-0.3,1-0.3,1.6v5.7c0,1.1,0.4,2.2,1.2,3c0.8,0.8,1.8,1.2,2.9,1.2h65.1c1.1,0,2.2-0.4,3-1.2c0.8-0.8,1.2-1.8,1.2-2.9v-5.7
	c0-1.1-0.5-2.2-1.2-2.9C453.6,337.5,452.5,337.1,451.4,337.1z"/>
<path class="st25" d="M393.9,344.1c0-0.6-0.2-1.2-0.5-1.7c-0.3-0.5-0.8-0.9-1.3-1.1c-0.5-0.2-1.2-0.3-1.7-0.2
	c-0.6,0.1-1.1,0.4-1.5,0.8c-0.4,0.4-0.7,1-0.8,1.5c-0.1,0.6-0.1,1.2,0.2,1.7c0.2,0.5,0.6,1,1.1,1.3c0.5,0.3,1.1,0.5,1.7,0.5
	c0.4,0,0.8-0.1,1.1-0.2c0.4-0.1,0.7-0.4,1-0.6c0.3-0.3,0.5-0.6,0.7-1C393.8,344.9,393.9,344.6,393.9,344.1L393.9,344.1z"/>
<path class="st15" d="M399,344.1c0-0.4-0.1-0.8-0.4-1s-0.6-0.4-1-0.4h0c-0.4,0-0.8,0.2-1.1,0.4c-0.3,0.3-0.5,0.6-0.5,1
	c0,0.2,0,0.4,0.1,0.6c0.1,0.2,0.2,0.3,0.3,0.5c0.1,0.1,0.3,0.2,0.5,0.3c0.2,0.1,0.4,0.1,0.6,0.1h0c0.4,0,0.7-0.1,1-0.4
	c0.3-0.2,0.4-0.6,0.5-1V344.1z"/>
<path class="st25" d="M445.7,344.1c0,0.6,0.2,1.2,0.5,1.7c0.3,0.5,0.8,0.9,1.3,1.1c0.5,0.2,1.2,0.3,1.7,0.2c0.6-0.1,1.1-0.4,1.5-0.8
	c0.4-0.4,0.7-1,0.8-1.5s0.1-1.2-0.2-1.7c-0.2-0.5-0.6-1-1.1-1.3c-0.5-0.3-1.1-0.5-1.7-0.5c-0.8,0-1.6,0.3-2.1,0.9
	S445.7,343.3,445.7,344.1z"/>
<path class="st15" d="M440.5,344.1c0,0.3,0.1,0.6,0.2,0.8c0.2,0.2,0.4,0.4,0.7,0.5c0.3,0.1,0.6,0.1,0.9,0.1c0.3-0.1,0.5-0.2,0.8-0.4
	c0.2-0.2,0.3-0.5,0.4-0.8c0.1-0.3,0-0.6-0.1-0.9c-0.1-0.3-0.3-0.5-0.5-0.7c-0.2-0.2-0.5-0.2-0.8-0.2c-0.4,0-0.7,0.1-1,0.4
	S440.5,343.7,440.5,344.1L440.5,344.1z"/>
<path class="st26" d="M451.5,250h-33.9h-17h-8.5h-4.2h-1.6l-2.7,4h67.9V250z"/>
<path class="st11" d="M282.8,321.9l-32.9,11.6c0,0,3.2,2.4,4.3,3.9h28.6V321.9z"/>
<path class="st12" d="M250.2,333.5l32.7-10.5v-7.1l-38.4,15.3C246.5,331.6,248.5,332.4,250.2,333.5L250.2,333.5z"/>
<path class="st27" d="M451.3,316h-19.9V337h19.9V316z"/>
<path class="st28" d="M421.5,312.4l9.9,3.5v21l-9.9-3.5V312.4z"/>
<path class="st29" d="M451.3,316l-9.9-3.5h-19.9l9.9,3.5H451.3L451.3,316z"/>
<path class="st30" d="M428.4,330.1v5.8l-3-1V329L428.4,330.1z"/>
<path class="st31" d="M428.4,314.9v5.9l-3-1v-5.9L428.4,314.9z"/>
<path class="st32" d="M445.3,313.9l0.4,0.1l0.6,0.2l2.1,0.7h-20l-3-1H445.3L445.3,313.9z"/>
<path class="st33" d="M439,324.6h-11.7V337H439V324.6z"/>
<path class="st27" d="M421.4,322.6l5.9,2.1V337l-5.9-2.1V322.6z"/>
<path class="st34" d="M439,324.6l-5.8-2.1h-11.7l5.9,2.1H439z"/>
<path class="st32" d="M425.5,332.9v3.4l-1.8-0.6v-3.5L425.5,332.9L425.5,332.9z M425.5,324v3.4l-1.8-0.6v-3.4L425.5,324L425.5,324z"
	/>
<path class="st35" d="M435.5,323.4l0.2,0.1l0.4,0.2l1.2,0.4h-11.8l-1.8-0.6H435.5z"/>
<path class="st36" d="M424.5,297.5H399V337h25.5V297.5z"/>
<path class="st37" d="M386.3,297l12.8,0.5V337l-12.8,0.1V297z"/>
<path class="st38" d="M390.5,325.5v11.2h-3.8v-13L390.5,325.5z"/>
<path class="st23" d="M386.4,250h-96v87.1h96V250z"/>
<path class="st11" d="M386.4,319.5l-96,2.7v14.8h96V319.5z"/>
<path class="st6" d="M344,330.6c5.4,0,10.7,2.2,14.5,6c3.9,3.9,6,9.1,6,14.5h-41.1c0-2.7,0.5-5.4,1.5-7.9c1-2.5,2.5-4.8,4.4-6.7
	c1.9-1.9,4.2-3.4,6.6-4.5C338.6,331.1,341.2,330.6,344,330.6L344,330.6z"/>
<path class="st6" d="M346.7,333.8c4.4,0.1,8.7,1.9,11.8,5c3.2,3.1,5,7.4,5.1,11.8s-1.5,8.8-4.4,12.1c-3,3.3-7.1,5.3-11.5,5.7h-5.8
	v-34.6L346.7,333.8L346.7,333.8z"/>
<path class="st7" d="M326,351.1c0-3.4,1-6.8,2.9-9.6c1.9-2.8,4.6-5.1,7.8-6.4c3.2-1.3,6.6-1.7,10-1c3.4,0.7,6.4,2.3,8.9,4.7
	c2.4,2.4,4.1,5.5,4.7,8.9c0.7,3.4,0.3,6.8-1,10c-1.3,3.2-3.5,5.9-6.4,7.8c-2.8,1.9-6.2,2.9-9.6,2.9c-4.6,0-9-1.8-12.2-5.1
	C327.8,360.1,326,355.7,326,351.1L326,351.1z"/>
<path class="st11" d="M343.2,359.6c-4.7,0-8.5-3.8-8.5-8.5c0-4.7,3.8-8.5,8.5-8.5s8.5,3.8,8.5,8.5
	C351.7,355.8,347.9,359.6,343.2,359.6z"/>
<path class="st12" d="M290.4,322.2l96-2.7v-8.9l-96.1,4.4L290.4,322.2L290.4,322.2z"/>
<path class="st6" d="M239.6,330.6c5.4,0,10.7,2.2,14.5,6c3.9,3.9,6,9.1,6,14.5H219c0-2.7,0.5-5.4,1.5-7.9c1-2.5,2.5-4.8,4.4-6.7
	s4.2-3.4,6.6-4.5C234.1,331.1,236.8,330.6,239.6,330.6L239.6,330.6z"/>
<path class="st6" d="M242.3,333.8c4.4,0.1,8.7,1.9,11.8,5s5,7.4,5.1,11.8c0.1,4.4-1.5,8.8-4.4,12.1c-3,3.3-7.1,5.3-11.5,5.7h-5.7
	v-34.6L242.3,333.8L242.3,333.8z"/>
<path class="st7" d="M221.5,351.1c0-3.4,1-6.8,2.9-9.6c1.9-2.8,4.6-5.1,7.8-6.4c3.2-1.3,6.6-1.7,10-1c3.4,0.7,6.4,2.3,8.9,4.7
	c2.4,2.4,4.1,5.5,4.7,8.9c0.7,3.4,0.3,6.8-1,10c-1.3,3.2-3.5,5.9-6.4,7.8c-2.8,1.9-6.2,2.9-9.6,2.9c-4.6,0-9-1.8-12.2-5.1
	C223.3,360.1,221.5,355.7,221.5,351.1L221.5,351.1z"/>
<path class="st11" d="M238.8,359.6c-4.7,0-8.5-3.8-8.5-8.5c0-4.7,3.8-8.5,8.5-8.5c4.7,0,8.5,3.8,8.5,8.5
	C247.3,355.8,243.5,359.6,238.8,359.6z"/>
<path class="st39" d="M533,339.4h18.1V358H533V339.4z"/>
<path class="st40" d="M560.1,336.3l-9,3.1V358l9-3.1V336.3z"/>
<path class="st41" d="M533,339.4l9-3.1h18.1l-9,3.1H533z"/>
<path class="st42" d="M553.8,338.4v5.2l2.7-0.9v-5.2L553.8,338.4z M553.8,351.8v5.2l2.7-0.9v-5.2L553.8,351.8z"/>
<path class="st40" d="M538.5,337.5l-0.4,0.1l-0.6,0.2l-1.9,0.6h18.2l2.7-0.9H538.5L538.5,337.5z"/>
<path class="st43" d="M535.9,324.4h13.4v13.7h-13.4V324.4z"/>
<path class="st44" d="M556.1,322.1l-6.7,2.3v13.7l6.7-2.3V322.1L556.1,322.1z"/>
<path class="st45" d="M535.9,324.4l6.7-2.3h13.4l-6.7,2.3H535.9z"/>
<path class="st46" d="M544.2,325.2h4.5v2h-4.5V325.2z"/>
<path class="st47" d="M541.5,335.5v2.7h2.3l0-2.7H541.5z M541.5,324.4v2.7h2.3l0-2.7H541.5z M547.1,322.1l-5.6,2.3h2.3l5.4-2.3
	H547.1L547.1,322.1z"/>
<path class="st39" d="M552.2,333.7h23.6v24.2h-23.6V333.7L552.2,333.7z"/>
<path class="st40" d="M587.5,329.7l-11.8,4v24.2l11.8-4V329.7z"/>
<path class="st41" d="M552.2,333.7l11.8-4h23.6l-11.8,4H552.2z"/>
<path class="st42" d="M579.4,332.5v6.7l3.5-1.2v-6.8L579.4,332.5z M579.4,349.9v6.7l3.5-1.2v-6.8L579.4,349.9z"/>
<path class="st40" d="M559.3,331.3l-0.5,0.2l-0.7,0.3l-2.5,0.8h23.7l3.5-1.2H559.3z"/>
<path class="st46" d="M566.7,335.3h8v3.6h-8V335.3z"/>
<path class="st48" d="M552,313.4h20.2v20.7H552V313.4z"/>
<path class="st49" d="M582.3,310l-10.1,3.4v20.7l10.1-3.4V310z"/>
<path class="st50" d="M552,313.4l10.1-3.4h20.2l-10.1,3.4H552z"/>
<path class="st30" d="M575.3,312.4v5.8l3.1-1v-5.8L575.3,312.4z M575.3,327.3v5.8l3.1-1v-5.8L575.3,327.3z"/>
<path class="st49" d="M558.1,311.4l-0.4,0.2l-0.6,0.2l-2.1,0.7h20.4l3-1L558.1,311.4L558.1,311.4z"/>
<path class="st51" d="M479.2,302.5c0.2,0,0.5,0.4,0.8,1.1c0.2,0.4,0.3,0.8,0.5,1.3c0.2,0.5,0.4,1,0.7,1.6c0.3,0.6,0.6,1.2,1,1.8
	c0.2,0.3,0.4,0.6,0.6,0.8c0.2,0.3,0.5,0.5,0.7,0.8c0.3,0.2,0.5,0.4,0.8,0.6c0.3,0.2,0.6,0.3,0.9,0.5c0.3,0.1,0.6,0.2,0.9,0.3
	c0.1,0,0.2,0,0.2,0l0.2,0c0.2,0,0.3,0,0.5,0c0.7,0,1.4-0.1,2.1-0.3c0.3-0.1,0.7-0.2,1-0.3c0.2-0.1,0.3-0.1,0.5-0.2
	c0.1-0.1,0.3-0.1,0.5-0.2c0.3-0.1,0.6-0.3,0.9-0.5c0.3-0.2,0.6-0.3,0.9-0.5c0.5-0.4,1.1-0.7,1.6-1.1c0.5-0.3,0.9-0.7,1.4-0.9
	c0.4-0.3,0.8-0.5,1.2-0.7c0.3-0.2,0.7-0.3,1-0.3c0.3,0,0.5,0,0.8,0.2c0.2,0.2,0.4,0.4,0.4,0.7c0.1,0.4,0.1,0.7,0,1.1
	c-0.1,0.5-0.2,1-0.4,1.5c-0.3,0.6-0.6,1.2-1,1.8c-0.5,0.7-1.1,1.4-1.7,1.9c-0.4,0.3-0.7,0.7-1.1,0.9c-0.4,0.3-0.9,0.6-1.4,0.9
	c-0.2,0.1-0.5,0.3-0.7,0.4c-0.3,0.1-0.5,0.2-0.8,0.3c-0.6,0.2-1.1,0.4-1.7,0.5c-1.3,0.3-2.6,0.3-3.9,0.1c-0.3-0.1-0.7-0.1-1-0.2
	l-0.5-0.2c-0.2-0.1-0.3-0.1-0.5-0.2c-0.6-0.3-1.2-0.6-1.8-0.9c-0.5-0.4-1-0.8-1.4-1.2c-0.4-0.4-0.7-0.9-1.1-1.4
	c-0.3-0.5-0.5-0.9-0.8-1.4c-0.2-0.4-0.3-0.9-0.5-1.4c-0.2-0.8-0.4-1.6-0.4-2.4c-0.1-0.6-0.1-1.3-0.1-2c0-0.5,0.1-1,0.1-1.4
	C478.9,303,479,302.5,479.2,302.5L479.2,302.5z"/>
<path class="st4" d="M490.2,313c-0.2,4-0.2,8.1,0,12.1c3.9,1.3,7.9,1.6,12,1c0.3-4.1,0.5-8.2,0.5-12.3c0-2.2-0.1-4.3-0.7-6.4
	c-0.5-1.9-1.6-3.5-3.1-4.7c-0.2-0.1-0.4-0.2-0.5-0.4c-0.9,0.7-2.8,1-3.9,0.5c-0.6,0.4-1.1,0.8-1.5,1.3c-0.8,0.9-1.4,2-1.8,3.2
	C490.7,309.2,490.3,311.1,490.2,313L490.2,313z"/>
<path class="st52" d="M493,304.2c1,0.3,2.1,0.3,3.1,0c0.5-0.1,1.1-0.3,1.6-0.6c0.4-0.2,0.8-0.5,1.1-0.8l0-0.2v-0.1l-0.1-0.3
	c-0.2-1.1-0.4-2.3-0.5-3.4c-0.2-1.1-0.3-2.1-0.4-3.2c-1.2,0.6-2.3,1.3-3.4,2.1c0,0.7-0.1,1.4-0.1,2.2c-0.1,0.6-0.1,1.2-0.2,1.8
	c0,0.3-0.1,0.7-0.2,1c-0.1,0.3-0.1,0.6-0.2,0.9C493.5,303.7,493.3,303.9,493,304.2L493,304.2z"/>
<path class="st53" d="M494.1,301.6c1.3-1.1,2.7-2.1,4.2-2.8c-0.2-1.1-0.3-2.1-0.4-3.2c-1.2,0.6-2.3,1.3-3.4,2.1
	c0,0.7-0.1,1.4-0.1,2.2C494.2,300.4,494.1,301,494.1,301.6z"/>
<path class="st7" d="M516.3,361c0,0,0,2.8-2.6,2.7l-0.5,10.1l7-12.1L516.3,361z"/>
<path class="st4" d="M515.2,368.2c0-0.1,0-0.1-0.1-0.1c0,0-0.1-0.1-0.2,0c-0.6,0.1-1.1,0.2-1.6,0.4c-0.1,0-0.1,0.1-0.1,0.1
	c0,0.1,0,0.1,0,0.2c0,0,0,0,0.1,0.1c0,0,0,0,0.1,0c0.1,0,0.1,0,0.2,0c0.5-0.2,1-0.3,1.5-0.4c0,0,0.1,0,0.1,0c0,0,0.1-0.1,0.1-0.1
	C515.2,368.2,515.2,368.2,515.2,368.2L515.2,368.2z M515.3,366.9C515.3,366.9,515.2,366.8,515.3,366.9c0-0.1-0.1-0.1-0.1-0.1
	c0,0,0,0-0.1,0c0,0-0.1,0-0.1,0c-0.6,0.1-1.1,0.2-1.6,0.4c0,0-0.1,0-0.1,0.1c0,0,0,0,0,0.1c0,0.1,0,0.1,0,0.2c0,0,0,0,0.1,0.1
	c0,0,0,0,0.1,0c0,0,0.1,0,0.1,0c0,0,0.1,0,0.1,0c0.5-0.2,1-0.3,1.5-0.4c0,0,0.1,0,0.1,0c0,0,0.1,0,0.1-0.1
	C515.3,367,515.3,366.9,515.3,366.9L515.3,366.9z M515.3,365.6C515.3,365.6,515.3,365.6,515.3,365.6c0-0.1-0.1-0.1-0.1-0.1
	c0,0-0.1,0-0.2,0c-0.6,0.1-1.1,0.2-1.6,0.4c-0.1,0-0.1,0.1-0.1,0.1c0,0.1,0,0.1,0,0.2c0,0.1,0.1,0.1,0.1,0.1c0.1,0,0.1,0,0.2,0
	c0.5-0.2,1-0.3,1.5-0.4c0,0,0.1,0,0.1,0c0,0,0.1-0.1,0.1-0.1S515.4,365.7,515.3,365.6L515.3,365.6z M514.6,374.2
	c0,0-0.1,0.1-0.1,0.1c0,0-0.1,0-0.1,0.1c0,0-0.1,0-0.1,0c0,0-0.1,0-0.1,0l-0.7-0.4l7-12.1l0.7,0.4c0,0,0.1,0.1,0.1,0.1
	c0,0,0,0.1,0.1,0.1c0,0,0,0.1,0,0.1c0,0,0,0.1,0,0.1L514.6,374.2z"/>
<path class="st7" d="M488.4,371.3c0,0-2.5,1.3-3.6-1l-9.2,4.3l13.9,0.6L488.4,371.3z"/>
<path class="st4" d="M481.2,373.6c0,0,0.1,0,0.1,0c0,0,0.1,0,0.1,0c0,0,0,0,0.1-0.1c0,0,0-0.1,0-0.1c0,0,0-0.1,0-0.1
	c0,0,0-0.1,0-0.1c-0.3-0.5-0.7-0.9-1.2-1.2c0,0-0.1,0-0.2,0c-0.1,0-0.1,0-0.2,0.1c0,0,0,0,0,0.1c0,0,0,0.1,0,0.1c0,0,0,0.1,0,0.1
	c0,0,0,0,0.1,0.1C480.5,372.7,480.8,373.1,481.2,373.6C481.1,373.6,481.2,373.6,481.2,373.6L481.2,373.6z M482.4,373.1
	c0,0,0.1,0,0.1,0c0,0,0.1,0,0.1,0c0,0,0,0,0.1-0.1c0,0,0-0.1,0-0.1c0,0,0-0.1,0-0.1c0,0,0-0.1,0-0.1c-0.3-0.5-0.7-0.9-1.2-1.2
	c0,0-0.1,0-0.1,0s-0.1,0-0.1,0c0,0-0.1,0-0.1,0s0,0-0.1,0.1c0,0,0,0.1,0,0.2c0,0.1,0,0.1,0.1,0.1C481.6,372.2,482,372.6,482.4,373.1
	C482.3,373.1,482.3,373.1,482.4,373.1L482.4,373.1z M483.5,372.6c0,0,0.1,0,0.1,0c0,0,0.1,0,0.1-0.1c0,0,0-0.1,0.1-0.1
	c0,0,0-0.1,0-0.1c-0.3-0.5-0.7-0.9-1.2-1.2c-0.1,0-0.1,0-0.2,0c-0.1,0-0.1,0-0.2,0.1c0,0,0,0,0,0.1c0,0,0,0.1,0,0.1
	c0,0.1,0,0.1,0.1,0.1c0.4,0.3,0.8,0.7,1,1.1C483.5,372.5,483.5,372.6,483.5,372.6L483.5,372.6z M475.8,375.8
	c-0.1-0.1-0.2-0.1-0.2-0.3c0-0.1,0-0.1,0-0.2l0-0.8l13.9,0.6l0,0.8c0,0.1,0,0.1,0,0.2c0,0.1-0.1,0.1-0.1,0.1
	c-0.1,0.1-0.2,0.1-0.3,0.1l-13-0.6C475.9,375.9,475.8,375.8,475.8,375.8L475.8,375.8z"/>
<path class="st54" d="M502.5,328.4c0,0-3.2,18.9,16,32.4l-5.2,5.6c0,0-21.5-14.7-19.3-33.7L502.5,328.4z"/>
<path class="st55" d="M503.2,339.4c-0.3,0.4-0.6,0.8-0.9,1.2c-0.7,1.1-1.3,2.2-1.9,3.4c-0.9,2-1.7,4-2.3,6.1
	c-2.9-5-4.9-10.9-4.1-17.3l8.4-4.3C502.5,328.4,501.7,333.1,503.2,339.4L503.2,339.4z"/>
<path class="st56" d="M490.2,309.6c-0.8,6.7-0.9,13.4-0.3,20.2c0,0-10.6,20.7-8.3,41.5l8.1,2c0,0,1.8-27.3,12.8-41.1l0.5-13.7
	l-8.7-1.4l-0.8-7.3L490.2,309.6z"/>
<path class="st54" d="M502.4,320c0.1,0,0.1-0.1,0.2-0.3c0.1-0.1,0.1-0.2,0.1-0.3c0.1-0.1,0.1-0.3,0.2-0.5c0-0.1,0.1-0.2,0.1-0.3
	c0-0.1,0-0.2,0.1-0.3s0.1-0.2,0.1-0.4c0-0.1,0-0.3,0.1-0.4c0-0.1,0-0.3,0.1-0.4l0.1-0.4c0-0.3,0.1-0.6,0.1-0.9c0-0.7,0-1.5,0-2.2
	c0-0.9-0.1-1.7-0.3-2.6c-0.1-0.9-0.3-1.9-0.6-2.8c-0.3-1-0.7-2-1.2-2.9c-0.3-0.5-0.7-0.9-1.1-1.3c-0.4-0.4-0.9-0.7-1.5-0.9
	c-0.3-0.1-0.5-0.2-0.8-0.2h-0.8c-0.5,0-1,0.2-1.5,0.4c-0.4,0.2-0.8,0.5-1.2,0.8c-0.1,0.1-0.2,0.2-0.3,0.2l-0.2,0.2l-0.2,0.3
	c-0.1,0.1-0.1,0.2-0.2,0.3c-0.2,0.3-0.4,0.7-0.6,1.1c-0.1,0.3-0.3,0.7-0.4,1c-0.2,0.6-0.3,1.2-0.3,1.8c0,0.5-0.1,0.9-0.1,1.4
	c0,0.8,0.1,1.2,0.2,1.2c0.1,0,0.2-0.4,0.3-1.1c0.1-0.4,0.1-0.8,0.3-1.3c0.1-0.6,0.3-1.1,0.5-1.7c0.2-0.6,0.6-1.2,1-1.7
	c0.1-0.1,0.1-0.1,0.2-0.2l0.2-0.2l0.2-0.2c0.1-0.1,0.1-0.1,0.2-0.2c0.3-0.2,0.6-0.4,0.9-0.5c0.3-0.1,0.7-0.2,1.1-0.2h0.6
	c0.2,0,0.4,0.1,0.5,0.2c0.8,0.4,1.4,0.9,1.8,1.7c0.5,0.8,0.8,1.6,1,2.5c0.2,0.9,0.4,1.8,0.6,2.6c0.2,0.8,0.3,1.6,0.3,2.4
	c0.1,0.8,0.1,1.5,0.1,2.1v3.6c0,0.1,0,0.2,0,0.4C502.3,319.9,502.3,320,502.4,320L502.4,320z"/>
<path class="st39" d="M486.4,303.8h-16.1v16.1h16.1V303.8z"/>
<path class="st40" d="M462.3,301.1l8,2.7v16.1l-8-2.7V301.1z"/>
<path class="st41" d="M486.4,303.8l-8-2.7h-16.1l8,2.7H486.4z"/>
<path class="st46" d="M476.4,304.8H471v2.4h5.5V304.8z"/>
<path class="st49" d="M476.9,316.9l0,3.1h2.8v-3.1H476.9z M476.9,303.8l0,3.1h2.8v-3.1H476.9z M473.1,301.1h-2.6l6.5,2.7h2.8
	L473.1,301.1L473.1,301.1z"/>
<path class="st52" d="M500.7,309.9v0.1c0,1.7-0.4,3.4-1.2,5c-0.3,0.6-0.6,1.2-1,1.7c-0.4,0.6-0.9,1.1-1.4,1.5c-1.1,1-2.5,1.7-3.9,2
	c-0.7,0.2-1.3,0.3-2,0.3c-0.6,0-1.3,0-1.9-0.1c-0.6-0.1-1.1-0.2-1.7-0.4c-1-0.3-1.9-0.7-2.8-1.3c-0.7-0.4-1.4-0.9-2-1.4
	c-0.5-0.4-1-0.9-1.5-1.3l-0.2-0.2c-0.3,0-0.6,0-0.9,0s-0.6-0.1-0.8-0.2c-0.3-0.1-0.5-0.2-0.8-0.4c-0.3-0.1-0.5-0.3-0.7-0.5
	c-0.4-0.4-0.8-0.8-1.1-1.4c-0.1-0.3-0.2-0.5-0.3-0.8c-0.1-0.3-0.1-0.6-0.1-0.9c0-0.2,0-0.4,0-0.6c0-0.1,0-0.2,0.1-0.3
	c0.1-0.1,0.1-0.2,0.2-0.3c0.5-0.4,1.1,0,1.5,0.5s0.6,0.9,1,1.1c0.1,0,0.3,0.1,0.5,0c0.1,0,0.3-0.1,0.4-0.2c0,0,0.1-0.1,0.1-0.1
	c0.1-0.1,0.1-0.1,0.2-0.1c0.1,0,0.1-0.1,0.2-0.1c0.1,0,0.2,0,0.2,0c0.1,0,0.1,0.1,0.2,0.1c0,0,0.1,0.1,0.1,0.1
	c0.1,0.2,0.2,0.4,0.3,0.6c0.1,0.5,0.2,0.9,0.3,1.4c0.7,0.2,1.5,0.6,2.5,0.9c0.7,0.2,1.3,0.4,2,0.6c0.7,0.2,1.4,0.3,2.2,0.3
	c0.4,0,0.7,0,1.1,0c0.4,0,0.7-0.1,1.1-0.2c0.3-0.1,0.6-0.2,0.9-0.4c0.3-0.1,0.6-0.3,0.8-0.5c0.2-0.2,0.5-0.4,0.7-0.6
	c0.2-0.2,0.4-0.5,0.6-0.8c0.3-0.6,0.6-1.1,0.8-1.8c0.2-0.6,0.4-1.2,0.5-1.8c0.1-0.5,0.2-0.9,0.2-1.4c0.8,0.6,1.7,1,2.6,1.3
	C498.7,309.8,499.7,309.9,500.7,309.9L500.7,309.9z"/>
<path class="st56" d="M493.7,287.3c0.1-0.4,0.3-0.8,0.6-1.2c0.3-0.3,0.7-0.6,1.1-0.8c0.8-0.4,1.8-0.4,2.6-0.2
	c0.4,0.1,0.9,0.3,1.3,0.5c0.4,0.2,0.8,0.5,1.1,0.9c0.3,0.3,0.6,0.7,0.7,1.2c0.2,0.4,0.3,0.9,0.3,1.3c0,1.5-0.8,2.8-1.6,4
	C498.3,290.7,496.2,288.7,493.7,287.3z"/>
<path class="st55" d="M492.8,285.6c-0.4-0.3-0.9-0.4-1.4-0.4c-0.2,0-0.3,0.1-0.4,0.2c-0.1,0.1-0.3,0.2-0.3,0.3
	c-0.1,0.1-0.2,0.3-0.2,0.4c0,0.2-0.1,0.3,0,0.5c0,0.3,0.2,0.7,0.3,1c0.2,0.3,0.4,0.6,0.6,0.8c0.2,0.2,0.4,0.4,0.6,0.5
	c0.2,0.2,0.4,0.3,0.7,0.4c0.5,0.2,1,0.4,1.5,0.5c0.3,0.1,0.5,0.1,0.8,0.1c0.5,0,1.1,0,1.6-0.2c0.3-0.1,0.5-0.2,0.8-0.3
	c0.3-0.1,0.9-0.3,1-0.6c0.2-0.4-0.2-0.5-0.6-0.7C496.1,287.4,494.4,286.5,492.8,285.6L492.8,285.6z"/>
<path class="st7" d="M493.2,290.7c0.1,0,0.2,0,0.3,0c0.1,0,0.2,0.1,0.3,0.2c0.1,0.1,0.1,0.2,0.1,0.3c0,0.1,0,0.2,0,0.3
	c-0.1,0.9-0.5,1.7-0.9,2.4c-0.2-0.2-0.3-0.4-0.4-0.7c-0.2-0.5-0.3-1-0.2-1.6c0-0.3,0.1-0.5,0.2-0.8C492.7,291,493,290.7,493.2,290.7
	L493.2,290.7z M497.2,294.5c-0.1-0.9-0.1-1.9,0.1-2.8c0.2-1,0.6-2,1.2-2.9c0.4,0.4,0.8,0.9,1.1,1.4c0.2,0.6,0.4,1.2,0.4,1.9
	c0,0.3,0,0.6,0,1s-0.1,0.6-0.1,1c-0.1,0.3-0.2,0.6-0.3,0.9c-0.1,0.3-0.3,0.6-0.4,0.9c-0.2,0.3-0.3,0.5-0.5,0.8
	c-0.2,0.2-0.4,0.5-0.7,0.7C497.6,296.4,497.3,295.5,497.2,294.5L497.2,294.5z"/>
<path class="st52" d="M493.2,290.5c0.2,1.2-0.3,2.3-0.8,3.4c-0.5,1.1-0.9,2.3-0.4,3.4c0.1,0.3,0.3,0.5,0.5,0.7
	c0.2,0.2,0.4,0.4,0.7,0.5c0.3,0.1,0.6,0.2,0.9,0.3c0.3,0.1,0.6,0.1,0.9,0c0.6-0.1,1.2-0.4,1.7-0.7c0.5-0.4,0.9-0.8,1.2-1.4
	c0.3-0.5,0.5-1.1,0.6-1.7c0.1-0.6,0.1-1.2,0-1.8c-0.1-1.2-0.4-2.4-0.8-3.6C496.2,288.9,494.5,289.4,493.2,290.5L493.2,290.5z"/>
<path class="st52" d="M498.1,293.6c0.1-0.2,0.3-0.3,0.5-0.4c0.1-0.1,0.2-0.1,0.3-0.1c0.1,0,0.2,0,0.3,0c0.1,0,0.3,0.1,0.3,0.2
	c0.1,0.1,0.2,0.2,0.2,0.4c0,0.1,0.1,0.3,0.1,0.4c0,0.1,0,0.3-0.1,0.4c0,0.1-0.1,0.3-0.2,0.4c-0.1,0.1-0.2,0.2-0.3,0.3
	c-0.1,0.1-0.2,0.2-0.3,0.2c-0.1,0.1-0.3,0.1-0.4,0.1c-0.1,0-0.3,0-0.4,0c-0.1,0-0.3-0.1-0.4-0.1C498,294.7,498.1,294.1,498.1,293.6
	L498.1,293.6z"/>
<path class="st7" d="M492.4,291.4c1.7,0.1,3.4-0.4,4.9-1.3c-0.1,0.5-0.1,1,0,1.6c0.1,0.4,0.3,0.7,0.5,1c0.2,0.3,0.5,0.6,0.8,0.8
	c0.7-1,1-2.2,0.9-3.4c0-0.1,0-0.3-0.1-0.4c-0.2-0.3-0.5-0.6-0.8-0.9c-0.5-0.4-1-0.8-1.6-1c-0.4-0.1-0.8-0.2-1.2-0.3
	c-0.8-0.1-1.7,0-2.5,0.2c-0.4,0.1-0.8,0.3-1.1,0.5c-0.1,0.1-0.2,0.2-0.3,0.3c-0.3,0.3-0.5,0.6-0.6,1c0,0.1,0,0.2-0.1,0.3
	c0,0.1,0,0.2,0,0.3c0,0.1,0,0.2,0,0.3c0,0.1,0,0.2,0.1,0.2c0,0.1,0.1,0.2,0.1,0.2c0,0.1,0.1,0.1,0.2,0.2c0.1,0.1,0.1,0.1,0.2,0.2
	c0.1,0,0.2,0.1,0.2,0.1C492.1,291.4,492.2,291.4,492.4,291.4L492.4,291.4z"/>
</svg>
