<svg version="1.1" xmlns="http://www.w3.org/2000/svg" xmlns:xlink="http://www.w3.org/1999/xlink" width="630" height="390" viewBox="0 0 630 390">
<style type="text/css">
	.st0{fill:#EAF1FC;}
	.st1{fill:#F8F8FF;}
	.st2{fill:#CDE4F7;}
	.st3{fill:#E9EDF4;}
	.st4{fill:#FFFFFF;}
	.st5{fill:#ECF7FE;}
	.st6{fill:#0F222C;}
	.st7{fill:#0B2B46;}
	.st8{fill:#1D4259;}
	.st9{fill:#8C8FAD;}
	.st10{fill:#448DCE;}
	.st11{fill:#F2F2F2;}
	.st12{fill:#F19100;}
	.st13{fill:#FFDA35;}
	.st14{fill:#FF524F;}
	.st15{fill:#2C6292;}
	.st16{fill:#3270A7;}
	.st17{fill:#1B313C;}
	.st18{fill:#F9F8F9;}
	.st19{fill:#191F43;}
	.st20{fill:#2275BF;}
	.st21{fill:#203348;}
	.st22{opacity:0.62;fill:none;stroke:#FFFFFF;stroke-linecap:round;stroke-miterlimit:10;enable-background:new;}
	.st23{fill:none;stroke:#05616B;stroke-width:1.9945;stroke-miterlimit:10;}
	.st24{fill:#05616B;}
	.st25{fill:#F68895;}
	.st26{fill:#D6D6D6;}
	.st27{fill:#F09976;}
	.st28{fill:#EDEDED;}
	.st29{fill:#E8815F;}
	.st30{fill:#02819F;}
</style>
<path class="st0" d="M315,381c172.9,0,313-22.4,313-50s-140.1-50-313-50S2,303.4,2,331S142.1,381,315,381z"/>
<path class="st1" d="M584.8,314.8c41.1-78,63.8-227.4-25.3-277C501.2,5.5,440.4,47.1,377.9,49c-49,1.6-96.2-33.7-140.4-43.8
	C121.8-21.2-60.3,47.5,19.7,314.8C220,314.3,384.5,315.4,584.8,314.8z"/>
<path class="st2" d="M379,104.6h118.8v209.5H379V104.6z"/>
<path class="st3" d="M379,104.6h37v209.5h-37V104.6z"/>
<path class="st4" d="M483.5,110.5h5.5v6.3h-5.5V110.5z M473.4,110.5h5.5v6.3h-5.5V110.5z M463.3,110.5h5.5v6.3h-5.5V110.5z
	 M453.3,110.5h5.5v6.3h-5.5V110.5z M443.2,110.5h5.5v6.3h-5.5V110.5z M433.1,110.5h5.5v6.3h-5.5V110.5z M423,110.5h5.5v6.3H423
	V110.5z M404.5,110.5h5.5v6.3h-5.5V110.5z M394.5,110.5h5.5v6.3h-5.5V110.5z M384.4,110.5h5.5v6.3h-5.5V110.5z M483.5,123.7h5.5v6.3
	h-5.5V123.7z M473.4,123.7h5.5v6.3h-5.5V123.7z M463.3,123.7h5.5v6.3h-5.5V123.7z M453.3,123.7h5.5v6.3h-5.5V123.7z M443.2,123.7
	h5.5v6.3h-5.5V123.7z M433.1,123.7h5.5v6.3h-5.5V123.7z M423,123.7h5.5v6.3H423V123.7z M404.5,123.7h5.5v6.3h-5.5V123.7z
	 M394.5,123.7h5.5v6.3h-5.5V123.7z M384.4,123.7h5.5v6.3h-5.5V123.7z M483.5,136.8h5.5v6.3h-5.5V136.8z M473.4,136.8h5.5v6.3h-5.5
	V136.8z M463.3,136.8h5.5v6.3h-5.5V136.8z M453.3,136.8h5.5v6.3h-5.5V136.8z M443.2,136.8h5.5v6.3h-5.5V136.8z M433.1,136.8h5.5v6.3
	h-5.5V136.8z M423,136.8h5.5v6.3H423V136.8z M404.5,136.8h5.5v6.3h-5.5V136.8z M394.5,136.8h5.5v6.3h-5.5V136.8z M384.4,136.8h5.5
	v6.3h-5.5V136.8z M483.5,149.9h5.5v6.3h-5.5V149.9z M473.4,149.9h5.5v6.3h-5.5V149.9z M463.3,149.9h5.5v6.3h-5.5V149.9z
	 M453.3,149.9h5.5v6.3h-5.5V149.9z M443.2,149.9h5.5v6.3h-5.5V149.9z M433.1,149.9h5.5v6.3h-5.5V149.9z M423,149.9h5.5v6.3H423
	V149.9z M404.5,149.9h5.5v6.3h-5.5V149.9z M394.5,149.9h5.5v6.3h-5.5V149.9z M384.4,149.9h5.5v6.3h-5.5V149.9z M483.5,163.1h5.5v6.3
	h-5.5V163.1z M473.4,163.1h5.5v6.3h-5.5V163.1z M463.3,163.1h5.5v6.3h-5.5V163.1z M453.3,163.1h5.5v6.3h-5.5V163.1z M443.2,163.1
	h5.5v6.3h-5.5V163.1z M433.1,163.1h5.5v6.3h-5.5V163.1z M423,163.1h5.5v6.3H423V163.1z M404.5,163.1h5.5v6.3h-5.5V163.1z
	 M394.5,163.1h5.5v6.3h-5.5V163.1z M384.4,163.1h5.5v6.3h-5.5V163.1z M483.5,176.2h5.5v6.3h-5.5V176.2z M473.4,176.2h5.5v6.3h-5.5
	V176.2z M463.3,176.2h5.5v6.3h-5.5V176.2z M453.3,176.2h5.5v6.3h-5.5V176.2z M443.2,176.2h5.5v6.3h-5.5V176.2z M433.1,176.2h5.5v6.3
	h-5.5V176.2z M423,176.2h5.5v6.3H423V176.2z M404.5,176.2h5.5v6.3h-5.5V176.2z M394.5,176.2h5.5v6.3h-5.5V176.2z M384.4,176.2h5.5
	v6.3h-5.5V176.2z M483.5,189.4h5.5v6.3h-5.5V189.4z M473.4,189.4h5.5v6.3h-5.5V189.4z M463.3,189.4h5.5v6.3h-5.5V189.4z
	 M453.3,189.4h5.5v6.3h-5.5V189.4z M443.2,189.4h5.5v6.3h-5.5V189.4z M433.1,189.4h5.5v6.3h-5.5V189.4z M423,189.4h5.5v6.3H423
	V189.4z M404.5,189.4h5.5v6.3h-5.5V189.4z M394.5,189.4h5.5v6.3h-5.5V189.4z M384.4,189.4h5.5v6.3h-5.5V189.4z M483.5,202.5h5.5v6.3
	h-5.5V202.5z M473.4,202.5h5.5v6.3h-5.5V202.5z M463.3,202.5h5.5v6.3h-5.5V202.5z M453.3,202.5h5.5v6.3h-5.5V202.5z M443.2,202.5
	h5.5v6.3h-5.5V202.5z M433.1,202.5h5.5v6.3h-5.5V202.5z M423,202.5h5.5v6.3H423V202.5z M404.5,202.5h5.5v6.3h-5.5V202.5z
	 M394.5,202.5h5.5v6.3h-5.5V202.5z M384.4,202.5h5.5v6.3h-5.5V202.5z M483.5,215.6h5.5v6.3h-5.5V215.6z M473.4,215.6h5.5v6.3h-5.5
	V215.6z M463.3,215.6h5.5v6.3h-5.5V215.6z M453.3,215.6h5.5v6.3h-5.5V215.6z M443.2,215.6h5.5v6.3h-5.5V215.6z M433.1,215.6h5.5v6.3
	h-5.5V215.6z M423,215.6h5.5v6.3H423V215.6z M404.5,215.6h5.5v6.3h-5.5V215.6z M394.5,215.6h5.5v6.3h-5.5V215.6z M384.4,215.6h5.5
	v6.3h-5.5V215.6z M483.5,228.8h5.5v6.3h-5.5V228.8z M473.4,228.8h5.5v6.3h-5.5V228.8z M463.3,228.8h5.5v6.3h-5.5V228.8z
	 M453.3,228.8h5.5v6.3h-5.5V228.8z M443.2,228.8h5.5v6.3h-5.5V228.8z M433.1,228.8h5.5v6.3h-5.5V228.8z M423,228.8h5.5v6.3H423
	V228.8z M404.5,228.8h5.5v6.3h-5.5V228.8z M384.4,228.8h5.5v6.3h-5.5V228.8z M483.5,241.9h5.5v6.3h-5.5V241.9z M473.4,241.9h5.5v6.3
	h-5.5V241.9z M463.3,241.9h5.5v6.3h-5.5V241.9z M453.3,241.9h5.5v6.3h-5.5V241.9z M443.2,241.9h5.5v6.3h-5.5V241.9z M433.1,241.9
	h5.5v6.3h-5.5V241.9z M423,241.9h5.5v6.3H423V241.9z M404.5,241.9h5.5v6.3h-5.5V241.9z M384.4,241.9h5.5v6.3h-5.5V241.9z
	 M483.5,255.1h5.5v6.3h-5.5V255.1z M473.4,255.1h5.5v6.3h-5.5V255.1z M463.3,255.1h5.5v6.3h-5.5V255.1z M453.3,255.1h5.5v6.3h-5.5
	V255.1z M443.2,255.1h5.5v6.3h-5.5V255.1z M433.1,255.1h5.5v6.3h-5.5V255.1z M423,255.1h5.5v6.3H423V255.1z M404.5,255.1h5.5v6.3
	h-5.5V255.1z M384.4,255.1h5.5v6.3h-5.5V255.1z M483.5,268.2h5.5v6.3h-5.5V268.2z M473.4,268.2h5.5v6.3h-5.5V268.2z M463.3,268.2
	h5.5v6.3h-5.5V268.2z M453.3,268.2h5.5v6.3h-5.5V268.2z M443.2,268.2h5.5v6.3h-5.5V268.2z M433.1,268.2h5.5v6.3h-5.5V268.2z
	 M423,268.2h5.5v6.3H423V268.2z M404.5,268.2h5.5v6.3h-5.5V268.2z M384.4,268.2h5.5v6.3h-5.5V268.2z M483.5,281.4h5.5v6.3h-5.5
	V281.4z M473.4,281.4h5.5v6.3h-5.5V281.4z M463.3,281.4h5.5v6.3h-5.5V281.4z M453.3,281.4h5.5v6.3h-5.5V281.4z M443.2,281.4h5.5v6.3
	h-5.5V281.4z M433.1,281.4h5.5v6.3h-5.5V281.4z M423,281.4h5.5v6.3H423V281.4z M404.5,281.4h5.5v6.3h-5.5V281.4z M384.4,281.4h5.5
	v6.3h-5.5V281.4z M483.5,294.5h5.5v6.3h-5.5V294.5z M473.4,294.5h5.5v6.3h-5.5V294.5z M463.3,294.5h5.5v6.3h-5.5V294.5z
	 M453.3,294.5h5.5v6.3h-5.5V294.5z M443.2,294.5h5.5v6.3h-5.5V294.5z M433.1,294.5h5.5v6.3h-5.5V294.5z M423,294.5h5.5v6.3H423
	V294.5z M404.5,294.5h5.5v6.3h-5.5V294.5z M394.7,228.8h5.5v6.3h-5.5V228.8z M394.7,241.9h5.5v6.3h-5.5V241.9z M394.7,255.1h5.5v6.3
	h-5.5V255.1z M394.7,268.2h5.5v6.3h-5.5V268.2z M394.7,281.4h5.5v6.3h-5.5V281.4z M394.7,294.5h5.5v6.3h-5.5V294.5z M384.4,294.5
	h5.5v6.3h-5.5V294.5z"/>
<path class="st2" d="M285.8,54h109.7v260.4H285.8V54z"/>
<path class="st3" d="M285.8,54H320v260.4h-34.2V54z"/>
<path class="st4" d="M383.3,60.3h5.1v44.5h-5.1V60.3z M374,60.3h5.1v44.5H374V60.3z M364.7,60.3h5.1v44.5h-5.1V60.3z M355.4,60.3
	h5.1v44.5h-5.1V60.3z M346.1,60.3h5.1v44.5h-5.1V60.3z M336.8,60.3h5.1v44.5h-5.1V60.3z M327.5,60.3h5.1v44.5h-5.1V60.3z
	 M310.4,60.3h5.1v44.5h-5.1V60.3z M301.1,60.3h5.1v44.5h-5.1V60.3z M291.8,60.3h5.1v44.5h-5.1V60.3z M383.3,110.6h5.1v44.5h-5.1
	V110.6z M374,110.6h5.1v44.5H374V110.6z M364.7,110.6h5.1v44.5h-5.1V110.6z M355.4,110.6h5.1v44.5h-5.1V110.6z M346.1,110.6h5.1
	v44.5h-5.1V110.6z M336.8,110.6h5.1v44.5h-5.1V110.6z M327.5,110.6h5.1v44.5h-5.1V110.6z M310.4,110.6h5.1v44.5h-5.1V110.6z
	 M301.1,110.6h5.1v44.5h-5.1V110.6z M291.8,110.6h5.1v44.5h-5.1V110.6z M383.3,160.9h5.1v44.5h-5.1V160.9z M374,160.9h5.1v44.5H374
	V160.9z M364.7,160.9h5.1v44.5h-5.1V160.9z M355.4,160.9h5.1v44.5h-5.1V160.9z M346.1,160.9h5.1v44.5h-5.1V160.9z M336.8,160.9h5.1
	v44.5h-5.1V160.9z M327.5,160.9h5.1v44.5h-5.1V160.9z M310.4,160.9h5.1v44.5h-5.1V160.9z M301.1,160.9h5.1v44.5h-5.1V160.9z
	 M291.8,160.9h5.1v44.5h-5.1V160.9z M383.3,211.2h5.1v44.5h-5.1V211.2z M374,211.2h5.1v44.5H374V211.2z M364.7,211.2h5.1v44.5h-5.1
	V211.2z M355.4,211.2h5.1v44.5h-5.1V211.2z M346.1,211.2h5.1v44.5h-5.1V211.2z M336.8,211.2h5.1v44.5h-5.1V211.2z M327.5,211.2h5.1
	v44.5h-5.1V211.2z M310.4,211.2h5.1v44.5h-5.1V211.2z M301.1,211.2h5.1v44.5h-5.1V211.2z M291.8,211.2h5.1v44.5h-5.1V211.2z
	 M383.3,261.5h5.1V306h-5.1V261.5z M374,261.5h5.1V306H374V261.5z M364.7,261.5h5.1V306h-5.1V261.5z M355.4,261.5h5.1V306h-5.1
	V261.5z M346.1,261.5h5.1V306h-5.1V261.5z M336.8,261.5h5.1V306h-5.1V261.5z M327.5,261.5h5.1V306h-5.1V261.5z M310.4,261.5h5.1V306
	h-5.1V261.5z M301.1,261.5h5.1V306h-5.1V261.5z M291.8,261.5h5.1V306h-5.1V261.5z"/>
<path class="st2" d="M27.7,79.6H138v234.5H27.7V79.6z"/>
<path class="st3" d="M27.7,79.6h34.4v234.5H27.7V79.6z"/>
<path class="st4" d="M125.9,90.8h5.1v25.9h-5.1V90.8z M116.6,90.8h5.1v25.9h-5.1V90.8z M107.3,90.8h5.1v25.9h-5.1V90.8z M98,90.8
	h5.1v25.9H98V90.8z M88.8,90.8h5.1v25.9h-5.1V90.8z M79.5,90.8h5.1v25.9h-5.1V90.8z M70.3,90.8h5.1v25.9h-5.1V90.8z M53.3,90.8h5.1
	v25.9h-5.1V90.8z M44,90.8h5.1v25.9H44V90.8z M34.8,90.8h5.1v25.9h-5.1V90.8z M125.9,120h5.1V146h-5.1V120z M116.6,120h5.1V146h-5.1
	V120z M107.3,120h5.1V146h-5.1V120z M98,120h5.1V146H98V120z M88.8,120h5.1V146h-5.1V120z M79.5,120h5.1V146h-5.1V120z M70.3,120
	h5.1V146h-5.1V120z M53.3,120h5.1V146h-5.1V120z M44,120h5.1V146H44V120z M34.8,120h5.1V146h-5.1V120z M125.9,149.3h5.1v25.9h-5.1
	V149.3z M116.6,149.3h5.1v25.9h-5.1V149.3z M107.3,149.3h5.1v25.9h-5.1V149.3z M98,149.3h5.1v25.9H98V149.3z M88.8,149.3h5.1v25.9
	h-5.1V149.3z M79.5,149.3h5.1v25.9h-5.1V149.3z M70.3,149.3h5.1v25.9h-5.1V149.3z M53.3,149.3h5.1v25.9h-5.1V149.3z M44,149.3h5.1
	v25.9H44V149.3z M34.8,149.3h5.1v25.9h-5.1V149.3z M116.6,178.6h5.1v25.9h-5.1V178.6z M107.3,178.6h5.1v25.9h-5.1V178.6z M98,178.6
	h5.1v25.9H98V178.6z M88.8,178.6h5.1v25.9h-5.1V178.6z M79.5,178.6h5.1v25.9h-5.1V178.6z M70.3,178.6h5.1v25.9h-5.1V178.6z
	 M53.3,178.6h5.1v25.9h-5.1V178.6z M44,178.6h5.1v25.9H44V178.6z M34.8,178.6h5.1v25.9h-5.1V178.6z M116.6,207.9h5.1v25.9h-5.1
	V207.9z M107.3,207.9h5.1v25.9h-5.1V207.9z M98,207.9h5.1v25.9H98V207.9z M88.8,207.9h5.1v25.9h-5.1V207.9z M79.5,207.9h5.1v25.9
	h-5.1V207.9z M70.3,207.9h5.1v25.9h-5.1V207.9z M53.3,207.9h5.1v25.9h-5.1V207.9z M44,207.9h5.1v25.9H44V207.9z M34.8,207.9h5.1
	v25.9h-5.1V207.9z M116.6,237.2h5.1v25.9h-5.1V237.2z M107.3,237.2h5.1v25.9h-5.1V237.2z M98,237.2h5.1v25.9H98V237.2z M88.8,237.2
	h5.1v25.9h-5.1V237.2z M79.5,237.2h5.1v25.9h-5.1V237.2z M70.3,237.2h5.1v25.9h-5.1V237.2z M53.3,237.2h5.1v25.9h-5.1V237.2z
	 M44,237.2h5.1v25.9H44V237.2z M34.8,237.2h5.1v25.9h-5.1V237.2z M116.6,266.4h5.1v25.9h-5.1V266.4z M107.3,266.4h5.1v25.9h-5.1
	V266.4z M98,266.4h5.1v25.9H98V266.4z M88.8,266.4h5.1v25.9h-5.1V266.4z M79.5,266.4h5.1v25.9h-5.1V266.4z M70.3,266.4h5.1v25.9
	h-5.1V266.4z M53.3,266.4h5.1v25.9h-5.1V266.4z M44,266.4h5.1v25.9H44V266.4z M34.8,266.4h5.1v25.9h-5.1V266.4z"/>
<path class="st2" d="M493,141.8h120.1v172.3H493V141.8z"/>
<path class="st3" d="M496.9,141.8h37.4v172.3h-37.4V141.8z"/>
<path class="st4" d="M493,151.3h120.1v1.5H493V151.3z M493,162.6h120.1v1.5H493V162.6z M493,174h120.1v1.5H493V174z M493,185.3
	h120.1v1.5H493V185.3z M493,196.7h120.1v1.5H493V196.7z M493,208.1h120.1v1.5H493V208.1z M493,219.5h120.1v1.5H493V219.5z
	 M493,230.9h120.1v1.5H493V230.9z M493,242.2h120.1v1.5H493V242.2z M493,253.6h120.1v1.5H493V253.6z M493,264.9h120.1v1.5H493V264.9
	z M493,276.3h120.1v1.5H493V276.3z M493,287.7h120.1v1.5H493V287.7z M493,299.1h120.1v1.5H493V299.1z"/>
<path class="st2" d="M106.1,16h140.2v298.1H106.1V16z"/>
<path class="st5" d="M106.1,16h43.7v298.1h-43.7V16z"/>
<path class="st4" d="M230.8,30.1h6.4v8.6h-6.4V30.1z M219,30.1h6.4v8.6H219V30.1z M207.3,30.1h6.4v8.6h-6.4V30.1z M195.5,30.1h6.4
	v8.6h-6.4V30.1z M183.7,30.1h6.4v8.6h-6.4V30.1z M172,30.1h6.4v8.6H172V30.1z M160.2,30.1h6.4v8.6h-6.4V30.1z M138.6,30.1h6.4v8.6
	h-6.4V30.1z M126.8,30.1h6.4v8.6h-6.4V30.1z M115,30.1h6.4v8.6H115V30.1z M230.8,48.1h6.4v8.6h-6.4V48.1z M219,48.1h6.4v8.6H219
	V48.1z M207.3,48.1h6.4v8.6h-6.4V48.1z M195.5,48.1h6.4v8.6h-6.4V48.1z M183.7,48.1h6.4v8.6h-6.4V48.1z M172,48.1h6.4v8.6H172V48.1z
	 M160.2,48.1h6.4v8.6h-6.4V48.1z M138.6,48.1h6.4v8.6h-6.4V48.1z M126.8,48.1h6.4v8.6h-6.4V48.1z M115,48.1h6.4v8.6H115V48.1z
	 M230.8,66.1h6.4v8.6h-6.4V66.1z M219,66.1h6.4v8.6H219V66.1z M207.3,66.1h6.4v8.6h-6.4V66.1z M195.5,66.1h6.4v8.6h-6.4V66.1z
	 M183.7,66.1h6.4v8.6h-6.4V66.1z M172,66.1h6.4v8.6H172V66.1z M160.2,66.1h6.4v8.6h-6.4V66.1z M138.6,66.1h6.4v8.6h-6.4V66.1z
	 M126.8,66.1h6.4v8.6h-6.4V66.1z M115,66.1h6.4v8.6H115V66.1z M230.8,84.1h6.4v8.6h-6.4V84.1z M219,84.1h6.4v8.6H219V84.1z
	 M207.3,84.1h6.4v8.6h-6.4V84.1z M195.5,84.1h6.4v8.6h-6.4V84.1z M183.7,84.1h6.4v8.6h-6.4V84.1z M172,84.1h6.4v8.6H172V84.1z
	 M160.2,84.1h6.4v8.6h-6.4V84.1z M138.6,84.1h6.4v8.6h-6.4V84.1z M126.8,84.1h6.4v8.6h-6.4V84.1z M115,84.1h6.4v8.6H115V84.1z
	 M230.8,102h6.4v8.6h-6.4V102z M219,102h6.4v8.6H219V102z M207.3,102h6.4v8.6h-6.4V102z M195.5,102h6.4v8.6h-6.4V102z M183.7,102
	h6.4v8.6h-6.4V102z M172,102h6.4v8.6H172V102z M160.2,102h6.4v8.6h-6.4V102z M138.6,102h6.4v8.6h-6.4V102z M126.8,102h6.4v8.6h-6.4
	V102z M115,102h6.4v8.6H115V102z M230.8,120h6.4v8.6h-6.4V120z M219,120h6.4v8.6H219V120z M207.3,120h6.4v8.6h-6.4V120z M195.5,120
	h6.4v8.6h-6.4V120z M183.7,120h6.4v8.6h-6.4V120z M172,120h6.4v8.6H172V120z M160.2,120h6.4v8.6h-6.4V120z M138.6,120h6.4v8.6h-6.4
	V120z M126.8,120h6.4v8.6h-6.4V120z M115,120h6.4v8.6H115V120z M230.8,138h6.4v8.6h-6.4V138z M219,138h6.4v8.6H219V138z M207.3,138
	h6.4v8.6h-6.4V138z M195.5,138h6.4v8.6h-6.4V138z M183.7,138h6.4v8.6h-6.4V138z M172,138h6.4v8.6H172V138z M160.2,138h6.4v8.6h-6.4
	V138z M138.6,138h6.4v8.6h-6.4V138z M126.8,138h6.4v8.6h-6.4V138z M115,138h6.4v8.6H115V138z M230.8,156h6.4v8.6h-6.4V156z M219,156
	h6.4v8.6H219V156z M207.3,156h6.4v8.6h-6.4V156z M195.5,156h6.4v8.6h-6.4V156z M183.7,156h6.4v8.6h-6.4V156z M172,156h6.4v8.6H172
	V156z M160.2,156h6.4v8.6h-6.4V156z M138.6,156h6.4v8.6h-6.4V156z M126.8,156h6.4v8.6h-6.4V156z M115,156h6.4v8.6H115V156z
	 M230.8,173.9h6.4v8.6h-6.4V173.9z M219,173.9h6.4v8.6H219V173.9z M207.3,173.9h6.4v8.6h-6.4V173.9z M195.5,173.9h6.4v8.6h-6.4
	V173.9z M183.7,173.9h6.4v8.6h-6.4V173.9z M172,173.9h6.4v8.6H172V173.9z M160.2,173.9h6.4v8.6h-6.4V173.9z M138.6,173.9h6.4v8.6
	h-6.4V173.9z M126.8,173.9h6.4v8.6h-6.4V173.9z M115,173.9h6.4v8.6H115V173.9z M230.8,191.9h6.4v8.6h-6.4V191.9z M219,191.9h6.4v8.6
	H219V191.9z M207.3,191.9h6.4v8.6h-6.4V191.9z M195.5,191.9h6.4v8.6h-6.4V191.9z M183.7,191.9h6.4v8.6h-6.4V191.9z M172,191.9h6.4
	v8.6H172V191.9z M160.2,191.9h6.4v8.6h-6.4V191.9z M138.6,191.9h6.4v8.6h-6.4V191.9z M115,191.9h6.4v8.6H115V191.9z M230.8,209.9
	h6.4v8.6h-6.4V209.9z M219,209.9h6.4v8.6H219V209.9z M207.3,209.9h6.4v8.6h-6.4V209.9z M195.5,209.9h6.4v8.6h-6.4V209.9z
	 M183.7,209.9h6.4v8.6h-6.4V209.9z M172,209.9h6.4v8.6H172V209.9z M160.2,209.9h6.4v8.6h-6.4V209.9z M138.6,209.9h6.4v8.6h-6.4
	V209.9z M115,209.9h6.4v8.6H115V209.9z M230.8,227.9h6.4v8.6h-6.4V227.9z M219,227.9h6.4v8.6H219V227.9z M207.3,227.9h6.4v8.6h-6.4
	V227.9z M195.5,227.9h6.4v8.6h-6.4V227.9z M183.7,227.9h6.4v8.6h-6.4V227.9z M172,227.9h6.4v8.6H172V227.9z M160.2,227.9h6.4v8.6
	h-6.4V227.9z M138.6,227.9h6.4v8.6h-6.4V227.9z M115,227.9h6.4v8.6H115V227.9z M230.8,245.8h6.4v8.6h-6.4V245.8z M219,245.8h6.4v8.6
	H219V245.8z M207.3,245.8h6.4v8.6h-6.4V245.8z M195.5,245.8h6.4v8.6h-6.4V245.8z M183.7,245.8h6.4v8.6h-6.4V245.8z M172,245.8h6.4
	v8.6H172V245.8z M160.2,245.8h6.4v8.6h-6.4V245.8z M138.6,245.8h6.4v8.6h-6.4V245.8z M115,245.8h6.4v8.6H115V245.8z M230.8,263.8
	h6.4v8.6h-6.4V263.8z M219,263.8h6.4v8.6H219V263.8z M207.3,263.8h6.4v8.6h-6.4V263.8z M195.5,263.8h6.4v8.6h-6.4V263.8z
	 M183.7,263.8h6.4v8.6h-6.4V263.8z M172,263.8h6.4v8.6H172V263.8z M160.2,263.8h6.4v8.6h-6.4V263.8z M138.6,263.8h6.4v8.6h-6.4
	V263.8z M115,263.8h6.4v8.6H115V263.8z M230.8,281.8h6.4v8.6h-6.4V281.8z M219,281.8h6.4v8.6H219V281.8z M207.3,281.8h6.4v8.6h-6.4
	V281.8z M195.5,281.8h6.4v8.6h-6.4V281.8z M183.7,281.8h6.4v8.6h-6.4V281.8z M172,281.8h6.4v8.6H172V281.8z M160.2,281.8h6.4v8.6
	h-6.4V281.8z M138.6,281.8h6.4v8.6h-6.4V281.8z M127.1,191.9h6.4v8.6h-6.4V191.9z M127.1,209.9h6.4v8.6h-6.4V209.9z M127.1,227.9
	h6.4v8.6h-6.4V227.9z M127.1,245.8h6.4v8.6h-6.4V245.8z M127.1,263.8h6.4v8.6h-6.4V263.8z M127.1,281.8h6.4v8.6h-6.4V281.8z
	 M115,281.8h6.4v8.6H115V281.8z"/>
<path class="st5" d="M212,16h-72V6.9c0-3.8,2.9-6.9,6.6-6.9h58.8c3.6,0,6.6,3.1,6.6,6.9V16L212,16z"/>
<path class="st6" d="M499.7,359.1l11.9-17.7l-11.9-17.7h9c6.6,0,11.9,7.9,11.9,17.7c0,9.8-5.3,17.7-11.9,17.7H499.7z"/>
<path class="st7" d="M499.7,323.8c6.6,0,11.9,7.9,11.9,17.7c0,9.8-5.3,17.7-11.9,17.7c-6.6,0-11.9-7.9-11.9-17.7
	C487.8,331.7,493.1,323.8,499.7,323.8z"/>
<path class="st6" d="M442,357.1l11.9-17.7L442,321.7h9c6.6,0,11.9,7.9,11.9,17.7c0,9.8-5.3,17.7-11.9,17.7H442z"/>
<path class="st7" d="M442,321.7c6.6,0,11.9,7.9,11.9,17.7c0,9.8-5.3,17.7-11.9,17.7c-6.6,0-11.9-7.9-11.9-17.7
	C430.1,329.6,435.4,321.7,442,321.7z"/>
<path class="st6" d="M398.7,357.1l11.9-17.7l-11.9-17.7h9c6.6,0,11.9,7.9,11.9,17.7c0,9.8-5.3,17.7-11.9,17.7H398.7z"/>
<path class="st7" d="M398.7,321.7c6.6,0,11.9,7.9,11.9,17.7c0,9.8-5.3,17.7-11.9,17.7c-6.6,0-11.9-7.9-11.9-17.7
	C386.8,329.6,392.1,321.7,398.7,321.7z"/>
<path class="st6" d="M255.4,354l11.9-17.7l-11.9-17.7h9c6.6,0,11.9,7.9,11.9,17.7c0,9.8-5.3,17.7-11.9,17.7H255.4z"/>
<path class="st7" d="M255.4,318.6c6.6,0,11.9,7.9,11.9,17.7c0,9.8-5.3,17.7-11.9,17.7c-6.6,0-11.9-7.9-11.9-17.7
	C243.6,326.5,248.9,318.6,255.4,318.6z"/>
<path class="st6" d="M203.7,353.6l11.9-17.7l-11.9-17.7h9c6.6,0,11.9,7.9,11.9,17.7c0,9.8-5.3,17.7-11.9,17.7H203.7z"/>
<path class="st7" d="M203.7,318.3c6.6,0,11.9,7.9,11.9,17.7c0,9.8-5.3,17.7-11.9,17.7c-6.6,0-11.9-7.9-11.9-17.7
	C191.8,326.2,197.1,318.3,203.7,318.3z"/>
<path class="st6" d="M113.4,353.6l11.9-17.7l-11.9-17.7h9c6.6,0,11.9,7.9,11.9,17.7c0,9.8-5.3,17.7-11.9,17.7H113.4z"/>
<path class="st7" d="M113.4,318.3c6.6,0,11.9,7.9,11.9,17.7c0,9.8-5.3,17.7-11.9,17.7c-6.6,0-11.9-7.9-11.9-17.7
	C101.5,326.2,106.8,318.3,113.4,318.3z"/>
<path class="st8" d="M524.5,321.6H279.1l21.2,15.5c3.7,2.7,7.8,4.1,12.1,4.1h212.1v-4.6V321.6z"/>
<path class="st9" d="M309.2,332.4h40.7c0.8,0,1.4,0.9,1.4,2.1v0.7c0,1.2-0.6,2.1-1.4,2.1h-40.7c-0.8,0-1.4-0.9-1.4-2.1v-0.7
	C307.8,333.4,308.4,332.4,309.2,332.4z"/>
<path class="st9" d="M309.2,324.6h40.7c0.8,0,1.4,0.9,1.4,2.1v0.7c0,1.2-0.6,2.1-1.4,2.1h-40.7c-0.8,0-1.4-0.9-1.4-2.1v-0.7
	C307.8,325.5,308.4,324.6,309.2,324.6z"/>
<path class="st8" d="M292.8,344.8v-14.3h3.9v14.3h1.2v3h-6.2v-3H292.8z"/>
<path class="st8" d="M507.6,331.4h-3v19.6h3V331.4z"/>
<rect x="257.5" y="326.5" class="st8" width="2.9" height="21.6"/>
<path class="st8" d="M265.3,321.6H37.7c-1.6,0-3,2-3,4.4v9.7c0,2.4,1.3,4.5,3,4.5h209.9c0,0,4.8,0,12,0
	C266.7,340.3,265.3,321.6,265.3,321.6z"/>
<path class="st7" d="M611.7,321.8v-2.1l-92.3,1.1l-0.8,1c-3.3,0-6,2.6-6,5.8v7.9c0,3.2,2.7,5.7,6,5.8h93.1c3.3,0,6-2.6,6-5.8v-7.9
	C617.7,324.4,615,321.9,611.7,321.8z"/>
<path class="st9" d="M148.1,340.3H163c1.3,0,2.4-1.1,2.4-2.4v-16.2h-19.7v16.2C145.7,339.2,146.8,340.3,148.1,340.3z"/>
<path class="st9" d="M132.4,340.3h9c1.3,0,2.4-1.1,2.4-2.4v-16.2H130v16.2C130,339.2,131.1,340.3,132.4,340.3z"/>
<path class="st9" d="M116.9,340.3h9c1.3,0,2.4-1.1,2.4-2.4v-16.2h-13.8v16.2C114.4,339.2,115.5,340.3,116.9,340.3z"/>
<path class="st10" d="M520.8,198l-6.1-1l-400,5.5v120.1h405.9L520.8,198z"/>
<path class="st11" d="M520.5,293.4l-408.7,9.3l-0.8,20h409.6V293.4z"/>
<path class="st12" d="M114.7,302.6l402.9-6.3v-11.7l-402.9,10.1V302.6z"/>
<path class="st13" d="M539.4,332.1c0,1.3,1.1,2.2,2.3,2.2c1.2,0,2.3-1,2.3-2.2s-1.1-2.2-2.3-2.2
	C540.4,329.9,539.4,330.9,539.4,332.1C539.4,332,539.4,332,539.4,332.1z"/>
<path class="st14" d="M521.8,332c0,3,2.4,5.1,5.2,5.1s5.2-2.4,5.2-5.1s-2.4-5.1-5.2-5.1C524.2,326.7,521.8,329.1,521.8,332
	C521.8,331.8,521.8,331.8,521.8,332z"/>
<path class="st13" d="M589.5,332.1c0,1.3,1.1,2.2,2.3,2.2c1.2,0,2.3-1,2.3-2.2s-1.1-2.2-2.3-2.2
	C590.5,329.9,589.5,330.9,589.5,332.1C589.5,332,589.5,332,589.5,332.1z"/>
<path class="st14" d="M601.2,332c0,3,2.4,5.1,5.2,5.1c2.8,0,5.2-2.4,5.2-5.1s-2.4-5.1-5.2-5.1C603.6,326.7,601.2,329.1,601.2,332
	C601.2,331.8,601.2,331.8,601.2,332z"/>
<path class="st15" d="M613.6,322.7h-98.9V198h98.9V322.7z"/>
<path class="st16" d="M613.6,197l-98.9,0v3.1l98.9,0V197z"/>
<path class="st17" d="M493.1,341.3c0-19.2-12.9-27.5-24.1-27.5c-11.4,0-23,8.1-23,27.5"/>
<path class="st6" d="M464.3,360.3L478,340l-13.7-20.4h10.4c7.6,0,13.7,9.1,13.7,20.4c0,11.3-6.1,20.4-13.7,20.4H464.3z"/>
<path class="st7" d="M464.3,319.6c7.6,0,13.7,9.1,13.7,20.4c0,11.3-6.1,20.4-13.7,20.4s-13.7-9.1-13.7-20.4
	C450.6,328.8,456.7,319.6,464.3,319.6z"/>
<path class="st18" d="M456.5,340c0,6.3,3.5,11.5,7.7,11.5c4.3,0,7.7-5.2,7.7-11.5c0-6.3-3.5-11.5-7.7-11.5
	C460,328.4,456.5,333.6,456.5,340z"/>
<path class="st17" d="M447.9,341.3c0-18.9-12.9-27.5-24.1-27.5c-11.4,0-23,8.5-23,27.5"/>
<path class="st6" d="M420.1,360.3l13.7-20.4l-13.7-20.4h10.4c7.6,0,13.7,9.1,13.7,20.4c0,11.3-6.1,20.4-13.7,20.4H420.1z"/>
<path class="st7" d="M420.1,319.6c7.6,0,13.7,9.1,13.7,20.4c0,11.3-6.1,20.4-13.7,20.4s-13.7-9.1-13.7-20.4
	C406.4,328.8,412.6,319.6,420.1,319.6z"/>
<path class="st18" d="M412.4,340c0,6.3,3.5,11.5,7.7,11.5c4.3,0,7.7-5.2,7.7-11.5c0-6.3-3.5-11.5-7.7-11.5
	C415.8,328.4,412.4,333.6,412.4,340z"/>
<path class="st17" d="M403.8,341.3c0-18.9-12.9-27-24.1-27c-11.4,0-23,8-23,27"/>
<path class="st6" d="M375,360.3l13.7-20.4L375,319.6h10.4c7.6,0,13.7,9.1,13.7,20.4c0,11.3-6.1,20.4-13.7,20.4H375z"/>
<path class="st7" d="M375,319.6c7.6,0,13.7,9.1,13.7,20.4c0,11.3-6.1,20.4-13.7,20.4s-13.7-9.1-13.7-20.4
	C361.3,328.8,367.4,319.6,375,319.6z"/>
<path class="st18" d="M367.2,340c0,6.3,3.5,11.5,7.7,11.5c4.3,0,7.7-5.2,7.7-11.5c0-6.3-3.5-11.5-7.7-11.5
	C370.7,328.4,367.2,333.6,367.2,340z"/>
<path class="st17" d="M255.6,340.3c0-18.6-12.8-27.5-24-27.5c-11.4,0-23.1,8.8-23.1,27.5"/>
<path class="st6" d="M226.8,356.9l13.7-20.4l-13.7-20.4h10.4c7.6,0,13.7,9.1,13.7,20.4s-6.1,20.4-13.7,20.4H226.8z"/>
<path class="st7" d="M226.8,316.1c7.6,0,13.7,9.1,13.7,20.4c0,11.3-6.1,20.4-13.7,20.4s-13.7-9.1-13.7-20.4
	C213.1,325.3,219.2,316.1,226.8,316.1z"/>
<path class="st18" d="M219.1,336.5c0,6.3,3.5,11.5,7.7,11.5c4.3,0,7.7-5.2,7.7-11.5c0-6.3-3.5-11.5-7.7-11.5
	C222.5,325,219.1,330.1,219.1,336.5z"/>
<path class="st17" d="M213.4,340.3c0-18.9-12.9-27-24.1-27c-11.4,0-23,8-23,27"/>
<path class="st6" d="M184.6,356.9l13.7-20.4l-13.7-20.4H195c7.6,0,13.7,9.1,13.7,20.4s-6.1,20.4-13.7,20.4H184.6z"/>
<path class="st7" d="M184.6,316.1c7.6,0,13.7,9.1,13.7,20.4c0,11.3-6.1,20.4-13.7,20.4c-7.6,0-13.7-9.1-13.7-20.4
	C170.9,325.3,177,316.1,184.6,316.1z"/>
<path class="st18" d="M176.9,336.5c0,6.3,3.5,11.5,7.7,11.5c4.3,0,7.7-5.2,7.7-11.5c0-6.3-3.5-11.5-7.7-11.5
	C180.3,325,176.9,330.1,176.9,336.5z"/>
<path class="st16" d="M115.2,220.1l-2.5,0.4l-2,0.6l-0.5,101.6l4.9,0.1V220.1z"/>
<path class="st16" d="M67.4,239.2l44.7,1.9c0.2,0,0.3-0.1,0.3-0.3v-5.5c0-0.2-0.2-0.3-0.4-0.3l-44,3L67.4,239.2z"/>
<path class="st10" d="M112.1,239.2l-76.9,9c0,0-12.3,50.7-12.3,53.7l0.3,18.7c0,0,3.9,14.9,7.1,14.9h71.7c5.7,0,10.4-4.3,10.4-9.5
	v-86.5C112.4,239.3,112.3,239.2,112.1,239.2z"/>
<path class="st13" d="M31,311.1c0-2-0.8-3.9-2.1-5.2c-1.3-1.4-4-2.2-5.9-2.2l0.3,14.9c1.9,0,4.3-0.7,5.6-2.2
	C30.2,315,31,313.1,31,311.1z"/>
<path class="st11" d="M57.4,320.6l15.7-15.1l39.4-3.8v18.6c0,0.2-0.2,0.3-0.3,0.3L57.4,320.6z"/>
<path class="st10" d="M35.4,249.3h77.1v-10.1H51.6c-6.9,0-13.3,3.4-16.9,9C34.4,248.7,34.8,249.3,35.4,249.3z"/>
<path class="st10" d="M112.4,238.5H67.8c0,0,6.7-14.1,44.6-18V238.5z"/>
<path class="st16" d="M34.8,250.3l77.7-0.3c0,0,0-0.1,0-0.3v-0.3H35L34.8,250.3z"/>
<path class="st8" d="M112.6,340.3H79.7v-26.5h32.9V340.3z"/>
<path class="st10" d="M29.8,340.3h30.5l2.3-17.2H23.3v11.7C23.3,337.8,26.2,340.3,29.8,340.3z"/>
<path class="st8" d="M23.3,320.5h40.5v2.6H23.3V320.5z"/>
<path class="st15" d="M32,331.9h19.5v7.5H32V331.9z"/>
<path class="st15" d="M32,323.1h19.5v7.5H32V323.1z"/>
<path class="st6" d="M32,337.7h19.5v1.7H32V337.7z"/>
<path class="st6" d="M32,328.9h19.5v1.7H32V328.9z"/>
<path class="st6" d="M34.4,251.6h47.7c5.7,0,5.7,0,5.7,3.7v18.9c0,2.2-1.5,4.2-3.7,4.7l-57.2,4.8"/>
<path class="st19" d="M37.6,291.9c-2.1,0-3.9-1.7-3.9-3.7v-10.5h3.9V291.9z"/>
<path class="st10" d="M37.6,270.7v6.9h-3.9v-3.2C33.8,272.4,35.5,270.7,37.6,270.7z"/>
<path class="st20" d="M33.8,277.7h3.9v8.1h-3.9V277.7z"/>
<path class="st19" d="M33.8,283.7c-1.3,0-2.4,1.1-2.4,2.4c0,1.3,1.1,2.4,2.4,2.4"/>
<path class="st16" d="M107.1,280.9L53,285.4c-2.4,0.3-4.2,2.3-4.1,4.7c0.1,2.4,2,4.3,4.5,4.4l54.3,0.8"/>
<path class="st21" d="M77,288.6h4.3c1.5,0,2.6-1.1,2.6-2.5h-4.3C78.1,286.1,77,287.2,77,288.6z"/>
<path class="st12" d="M112.4,294.6c0,0-47.2-1.6-57.4,25.9h8.7c0,0,5-17.8,48.7-17.8"/>
<path class="st22" d="M90.1,282.8v18.1c0,3.9-3.3,7-7.3,7h-7.1c-2,0-8.4,0.3-10.4,2.1c-2.4,2.4-6,5.9-6,5.9
	c-1.4,1.4-3.2,2.1-5.2,2.1H36.8c-2.4,0-4.3-1.9-4.3-4.1v-17.9"/>
<path class="st17" d="M104.2,340.3c0-19.1-12.8-28.3-24-28.3c-11.3,0-23.2,9.1-23.2,28.3"/>
<path class="st6" d="M75.2,355.4L88.9,335c0,0.1-13.7-20.4-13.7-20.4h10.4c7.6,0,13.7,9.1,13.7,20.4s-6.1,20.4-13.7,20.4H75.2z"/>
<path class="st7" d="M75.2,314.7c7.6,0,13.7,9.1,13.7,20.4s-6.1,20.4-13.7,20.4s-13.7-9.1-13.7-20.4
	C61.6,323.8,67.7,314.7,75.2,314.7z"/>
<path class="st18" d="M67.5,335c0,6.3,3.5,11.5,7.7,11.5c4.3,0,7.7-5.2,7.7-11.5c0-6.3-3.5-11.5-7.7-11.5
	C71,323.5,67.5,328.7,67.5,335z"/>
<path class="st23" d="M48.3,279.3c1.8-0.7,2-4.2,0.6-7.9s-4-6.1-5.8-5.4c-1.8,0.7-2,4.2-0.6,7.9C44,277.5,46.6,280,48.3,279.3z"/>
<path class="st24" d="M48.8,270.1l-6.2,2.1c0,0,0,0.6,0.5,0.6c2.4,0,3.6,1.8,4.7,7c0,0,2.2,0.6,2.4-1.2c0,0-3.4-5.1-1-7.8"/>
<path class="st25" d="M65.6,263.9c0.1,0.3,0.3,0.5,0.5,0.8c0.4,0.4,0.9,0.8,1.4,1c0.5,0.2,1.1,0.3,1.7,0.3c0.8-0.1,1.6-0.4,2.3-0.9
	c0.6-0.5,1.1-1.2,1.3-2h0l-2.8-1.1c-1.1,0.6-2.3,1.1-3.5,1.7C66.2,263.7,65.9,263.8,65.6,263.9z"/>
<path class="st4" d="M81.6,273c-0.7,0.5-1.5,0.9-2.3,1.2c-0.1,0.4-0.1,0.9-0.2,1.4c-0.5,5.2-0.3,0.7-0.4,5.1
	c-1.4,0.2-18.5,0.6-18.5,0.6l1.1-8.5l-2-0.4c0-2,0.5-3.9,1.5-5.6c0.5-0.8,1.2-1.5,2.1-1.9c0.6-0.3,1.7-0.7,2.2-0.9l0.8-0.4
	c1.3-0.6,2.5-1.1,3.6-1.7l2.9,1.2h0l1.6,0.7l1.1,0.4c0.5,0.1,1,0.1,1.5,0.3c0.9,0.2,1.7,0.7,2.3,1.4c0.6,0.8,1,1.8,1.2,2.8
	C80.8,270.1,81.2,271.5,81.6,273z"/>
<path class="st26" d="M72.5,262.1c0,0-3.9-0.5-6,0.8c0,0,0.3,0.9,0.7,1c1.3,0.1,5-0.7,5-0.7L72.5,262.1z"/>
<path class="st27" d="M71.6,260.8c0,1.1,0.3,2.1,0.7,3c-1.9,0.5-3.9,0.5-5.8,0.2c0.3-1,0.5-2,0.5-3.1v-0.6c0-0.4-0.1-0.9-0.1-1.3
	c1-1.7,3.4-2.6,5.6-2.6c-0.5,0.9-0.8,1.9-0.9,2.9C71.6,259.8,71.6,260.3,71.6,260.8C71.6,260.7,71.6,260.8,71.6,260.8z"/>
<path class="st28" d="M72.5,262.1c0,0-1.3,2.2-4.7,2.1l0.9,2.3c0,0,3.3-0.5,4.5-2.9L72.5,262.1z"/>
<path class="st29" d="M71.7,259.4c-0.1,0.4-0.1,0.9-0.1,1.4v0c-0.4-0.1-0.9-0.2-1.3-0.2c-0.6,0.1-1.3,0.2-1.9,0.3
	c-0.4,0.1-0.9,0.1-1.4,0.1v-0.6c0-0.4-0.1-0.9-0.1-1.3c1-1.7,3.4-2.6,5.6-2.6C72.1,257.4,71.8,258.4,71.7,259.4z"/>
<path class="st28" d="M67.9,264.2c-0.3-0.1-0.6-0.2-0.8-0.4c-0.2-0.2-0.4-0.5-0.5-0.8l-0.8,1c0,0,0,1.6,0.8,2.3L67.9,264.2z"/>
<path class="st30" d="M67.3,248.4c0.1-0.4,0.4-0.9,0.7-1.2c0.3-0.3,0.7-0.6,1.1-0.8c0.9-0.4,1.8-0.4,2.7-0.2
	c0.9,0.2,1.8,0.7,2.4,1.4c0.6,0.7,1,1.6,1.1,2.6c0,1.5-0.8,2.9-1.6,4.2C72.1,251.9,69.9,249.8,67.3,248.4z"/>
<path class="st24" d="M66.4,246.6c-0.4-0.3-0.9-0.4-1.4-0.4c-0.3,0.1-0.6,0.3-0.8,0.6c-0.2,0.3-0.3,0.6-0.3,1c0.1,0.7,0.4,1.3,1,1.8
	c0.8,0.8,1.8,1.3,2.9,1.5s2.2,0.1,3.2-0.3c0.3-0.1,1-0.3,1.1-0.6c0.2-0.4-0.2-0.5-0.6-0.7L66.4,246.6z"/>
<path class="st7" d="M71.8,258.7c1-0.9,1.7-2.1,2-3.4c0.3-1.3,0.2-2.7-0.3-3.9c-0.1-0.2-0.2-0.4-0.3-0.5c-0.2-0.3-0.5-0.7-0.8-0.9
	c-0.6,0.9-1,1.9-1.2,3C70.6,254.9,70.9,256.9,71.8,258.7z M66.1,252.1c-0.2,0.5-0.2,1.1-0.2,1.6c0.1,0.6,0.3,1.1,0.7,1.5
	c0.5-0.8,0.8-1.6,1-2.5c0-0.1,0-0.2,0-0.4s-0.1-0.2-0.1-0.3c-0.1-0.1-0.2-0.1-0.3-0.2c-0.1,0-0.2,0-0.3,0
	C66.5,252,66.3,252.2,66.1,252.1z"/>
<path class="st27" d="M66.8,251.7c0.2,1.2-0.3,2.4-0.8,3.5c-0.5,1.1-0.9,2.4-0.5,3.5c0.3,0.6,0.7,1.1,1.3,1.4
	c0.6,0.3,1.2,0.4,1.8,0.3c0.6-0.1,1.2-0.4,1.7-0.7c0.5-0.4,0.9-0.9,1.2-1.4c0.5-1.1,0.8-2.4,0.6-3.7c-0.1-1.3-0.4-2.5-0.8-3.7
	C69.9,250.1,68.1,250.6,66.8,251.7z"/>
<path class="st27" d="M71.9,254.9c0.2-0.2,0.3-0.3,0.5-0.4c0.2-0.1,0.4-0.1,0.6-0.1c0.1,0.1,0.3,0.1,0.4,0.2
	c0.1,0.1,0.2,0.2,0.2,0.4c0.1,0.3,0.1,0.6,0,0.8c-0.1,0.3-0.2,0.5-0.5,0.7c-0.2,0.2-0.5,0.3-0.8,0.3c-0.3,0-0.6,0-0.8-0.2
	C71.8,256.1,71.9,255.5,71.9,254.9z"/>
<path class="st7" d="M65.9,252.6c1.8,0.1,3.6-0.4,5.1-1.3c-0.1,0.5-0.1,1.1,0,1.6c0.2,0.8,0.7,1.4,1.3,1.9c0.7-1,1-2.3,0.9-3.5
	c0-0.1-0.1-0.3-0.1-0.4c-0.2-0.3-0.5-0.7-0.8-0.9c-0.5-0.4-1-0.8-1.7-1c-0.8-0.3-1.7-0.4-2.5-0.3c-0.9,0.1-1.7,0.4-2.4,0.8
	c-0.1,0.1-0.2,0.2-0.4,0.3c-0.3,0.3-0.5,0.7-0.7,1c-0.1,0.3-0.1,0.7,0,1.1c0.1,0.3,0.4,0.6,0.8,0.7
	C65.6,252.6,65.7,252.6,65.9,252.6z"/>
<path class="st27" d="M81.6,273l1.2,4.8c0.1,0.4,0.1,0.8,0,1.2c-0.1,0.4-0.2,0.8-0.5,1.1c-0.3,0.4-0.6,0.6-1,0.8
	c-0.4,0.2-0.8,0.3-1.2,0.3L66,281.3c0,0-4.9,2.4-6.5,2c-1.6-0.4,0.1-1.4,1.8-3.2c1.6-1.7,2.1-1.3,4.7-1.4c0.5,0,12.2-1.3,12.2-1.3
	l-1-3.8L81.6,273z"/>
<path class="st29" d="M59.7,272.3c0,0-0.9,5.4-1.4,6.5c-0.1,0.3-8.2-3.7-8.2-3.7s-3.8-4.7-4.1-2.9c-0.2,1.1,1.7,3,1.7,3
	s-1.4-0.6-1.6-0.2c-0.1,0.4,2.8,1.7,3.1,1.6c0.8-0.3,2.7,2.6,6.3,4.8l4.8-0.3l1.1-8.5L59.7,272.3z"/>
</svg>
