<svg version="1.1" xmlns="http://www.w3.org/2000/svg" xmlns:xlink="http://www.w3.org/1999/xlink" width="630" height="390" viewBox="0 0 630 390">
<style type="text/css">
	.st0{fill:#EAF1FC;}
	.st1{fill:#F8F8FF;}
	.st2{fill:#CDE4F7;}
	.st3{fill:#E9EDF4;}
	.st4{fill:#FFFFFF;}
	.st5{fill:#ECF7FE;}
	.st6{fill:#0F222C;}
	.st7{fill:#0B2B46;}
	.st8{fill:#1D4259;}
	.st9{fill:#8C8FAD;}
	.st10{fill:#337BBC;}
	.st11{fill:#F2F2F2;}
	.st12{fill:#F19100;}
	.st13{fill:#20527F;}
	.st14{fill:#3270A7;}
	.st15{fill:#FFDA35;}
	.st16{fill:#191F43;}
	.st17{fill:#2275BF;}
	.st18{fill:#203348;}
	.st19{opacity:0.62;fill:none;stroke:#FFFFFF;stroke-linecap:round;stroke-miterlimit:10;}
	.st20{fill:#1B313C;}
	.st21{fill:#F9F8F9;}
	.st22{fill:#3075B2;}
	.st23{fill:#5996CC;}
	.st24{fill:#498CC7;}
	.st25{fill:#222846;}
	.st26{fill:#FF524F;}
	.st27{fill:#2F7CC0;}
	.st28{fill:#E08F73;}
	.st29{fill:#F09976;}
	.st30{fill:#E8815F;}
	.st31{fill:#047487;}
	.st32{fill:#05616B;}
	.st33{fill:#02819F;}
	.st34{fill:#F8C47A;}
	.st35{fill:#E19A54;}
	.st36{fill:#FFDF9A;}
	.st37{fill:#E4E6E6;}
	.st38{fill:#CE8D4D;}
</style>
<path class="st0" d="M311,378c171.8,0,311-28,311-62.5S482.8,253,311,253S0,281,0,315.5S139.2,378,311,378z"/>
<path class="st1" d="M589.7,309.8c41.2-76.8,63.9-223.8-25.3-272.6c-58.4-31.9-119.3,9.1-181.9,11c-49.1,1.6-96.4-33.2-140.6-43.1
	C126-20.8-56.4,46.8,23.7,309.8C224.3,309.3,389.1,310.4,589.7,309.8z"/>
<path class="st2" d="M361.4,95.6h118v217h-118V95.6z"/>
<path class="st3" d="M361.4,95.6h37v217h-37V95.6z"/>
<path class="st4" d="M465,99.6h5.5v6.6H465V99.6z M454.9,99.6h5.5v6.6h-5.5V99.6z M444.9,99.6h5.5v6.6h-5.5V99.6z M434.9,99.6h5.5
	v6.6h-5.5V99.6z M424.9,99.6h5.5v6.6h-5.5V99.6z M414.9,99.6h5.5v6.6h-5.5V99.6z M404.8,99.6h5.5v6.6h-5.5V99.6z M386.5,99.6h5.5
	v6.6h-5.5V99.6z M376.5,99.6h5.5v6.6h-5.5V99.6z M366.4,99.6h5.5v6.6h-5.5V99.6z M465,113.4h5.5v6.6H465V113.4z M454.9,113.4h5.5
	v6.6h-5.5V113.4z M444.9,113.4h5.5v6.6h-5.5V113.4z M434.9,113.4h5.5v6.6h-5.5V113.4z M424.9,113.4h5.5v6.6h-5.5V113.4z
	 M414.9,113.4h5.5v6.6h-5.5V113.4z M404.8,113.4h5.5v6.6h-5.5V113.4z M386.5,113.4h5.5v6.6h-5.5V113.4z M376.5,113.4h5.5v6.6h-5.5
	V113.4z M366.4,113.4h5.5v6.6h-5.5V113.4z M465,127.2h5.5v6.6H465V127.2z M454.9,127.2h5.5v6.6h-5.5V127.2z M444.9,127.2h5.5v6.6
	h-5.5V127.2z M434.9,127.2h5.5v6.6h-5.5V127.2z M424.9,127.2h5.5v6.6h-5.5V127.2z M414.9,127.2h5.5v6.6h-5.5V127.2z M404.8,127.2
	h5.5v6.6h-5.5V127.2z M386.5,127.2h5.5v6.6h-5.5V127.2z M376.5,127.2h5.5v6.6h-5.5V127.2z M366.4,127.2h5.5v6.6h-5.5V127.2z
	 M465,141h5.5v6.6H465V141z M454.9,141h5.5v6.6h-5.5V141z M444.9,141h5.5v6.6h-5.5V141z M434.9,141h5.5v6.6h-5.5V141z M424.9,141
	h5.5v6.6h-5.5V141z M414.9,141h5.5v6.6h-5.5V141z M404.8,141h5.5v6.6h-5.5V141z M386.5,141h5.5v6.6h-5.5V141z M376.5,141h5.5v6.6
	h-5.5V141z M366.4,141h5.5v6.6h-5.5V141z M465,154.8h5.5v6.6H465V154.8z M454.9,154.8h5.5v6.6h-5.5V154.8z M444.9,154.8h5.5v6.6
	h-5.5V154.8z M434.9,154.8h5.5v6.6h-5.5V154.8z M424.9,154.8h5.5v6.6h-5.5V154.8z M414.9,154.8h5.5v6.6h-5.5V154.8z M404.8,154.8
	h5.5v6.6h-5.5V154.8z M386.5,154.8h5.5v6.6h-5.5V154.8z M376.5,154.8h5.5v6.6h-5.5V154.8z M366.4,154.8h5.5v6.6h-5.5V154.8z
	 M465,168.7h5.5v6.6H465V168.7z M454.9,168.7h5.5v6.6h-5.5V168.7z M444.9,168.7h5.5v6.6h-5.5V168.7z M434.9,168.7h5.5v6.6h-5.5
	V168.7z M424.9,168.7h5.5v6.6h-5.5V168.7z M414.9,168.7h5.5v6.6h-5.5V168.7z M404.8,168.7h5.5v6.6h-5.5V168.7z M386.5,168.7h5.5v6.6
	h-5.5V168.7z M376.5,168.7h5.5v6.6h-5.5V168.7z M366.4,168.7h5.5v6.6h-5.5V168.7z M465,182.5h5.5v6.6H465V182.5z M454.9,182.5h5.5
	v6.6h-5.5V182.5z M444.9,182.5h5.5v6.6h-5.5V182.5z M434.9,182.5h5.5v6.6h-5.5V182.5z M424.9,182.5h5.5v6.6h-5.5V182.5z
	 M414.9,182.5h5.5v6.6h-5.5V182.5z M404.8,182.5h5.5v6.6h-5.5V182.5z M386.5,182.5h5.5v6.6h-5.5V182.5z M376.5,182.5h5.5v6.6h-5.5
	V182.5z M366.4,182.5h5.5v6.6h-5.5V182.5z M465,196.3h5.5v6.6H465V196.3z M454.9,196.3h5.5v6.6h-5.5V196.3z M444.9,196.3h5.5v6.6
	h-5.5V196.3z M434.9,196.3h5.5v6.6h-5.5V196.3z M424.9,196.3h5.5v6.6h-5.5V196.3z M414.9,196.3h5.5v6.6h-5.5V196.3z M404.8,196.3
	h5.5v6.6h-5.5V196.3z M386.5,196.3h5.5v6.6h-5.5V196.3z M376.5,196.3h5.5v6.6h-5.5V196.3z M366.4,196.3h5.5v6.6h-5.5V196.3z
	 M465,210.1h5.5v6.6H465V210.1z M454.9,210.1h5.5v6.6h-5.5V210.1z M444.9,210.1h5.5v6.6h-5.5V210.1z M434.9,210.1h5.5v6.6h-5.5
	V210.1z M424.9,210.1h5.5v6.6h-5.5V210.1z M414.9,210.1h5.5v6.6h-5.5V210.1z M404.8,210.1h5.5v6.6h-5.5V210.1z M386.5,210.1h5.5v6.6
	h-5.5V210.1z M376.5,210.1h5.5v6.6h-5.5V210.1z M366.4,210.1h5.5v6.6h-5.5V210.1z M465,223.9h5.5v6.6H465V223.9z M454.9,223.9h5.5
	v6.6h-5.5V223.9z M444.9,223.9h5.5v6.6h-5.5V223.9z M434.9,223.9h5.5v6.6h-5.5V223.9z M424.9,223.9h5.5v6.6h-5.5V223.9z
	 M414.9,223.9h5.5v6.6h-5.5V223.9z M404.8,223.9h5.5v6.6h-5.5V223.9z M386.5,223.9h5.5v6.6h-5.5V223.9z M366.4,223.9h5.5v6.6h-5.5
	V223.9z M465,237.7h5.5v6.6H465V237.7z M454.9,237.7h5.5v6.6h-5.5V237.7z M444.9,237.7h5.5v6.6h-5.5V237.7z M434.9,237.7h5.5v6.6
	h-5.5V237.7z M424.9,237.7h5.5v6.6h-5.5V237.7z M414.9,237.7h5.5v6.6h-5.5V237.7z M404.8,237.7h5.5v6.6h-5.5V237.7z M386.5,237.7
	h5.5v6.6h-5.5V237.7z M366.4,237.7h5.5v6.6h-5.5V237.7z M465,251.6h5.5v6.6H465V251.6z M454.9,251.6h5.5v6.6h-5.5V251.6z
	 M444.9,251.6h5.5v6.6h-5.5V251.6z M434.9,251.6h5.5v6.6h-5.5V251.6z M424.9,251.6h5.5v6.6h-5.5V251.6z M414.9,251.6h5.5v6.6h-5.5
	V251.6z M404.8,251.6h5.5v6.6h-5.5V251.6z M386.5,251.6h5.5v6.6h-5.5V251.6z M366.4,251.6h5.5v6.6h-5.5V251.6z M465,265.4h5.5v6.6
	H465V265.4z M454.9,265.4h5.5v6.6h-5.5V265.4z M444.9,265.4h5.5v6.6h-5.5V265.4z M434.9,265.4h5.5v6.6h-5.5V265.4z M424.9,265.4h5.5
	v6.6h-5.5V265.4z M414.9,265.4h5.5v6.6h-5.5V265.4z M404.8,265.4h5.5v6.6h-5.5V265.4z M386.5,265.4h5.5v6.6h-5.5V265.4z
	 M366.4,265.4h5.5v6.6h-5.5V265.4z M465,279.2h5.5v6.6H465V279.2z M454.9,279.2h5.5v6.6h-5.5V279.2z M444.9,279.2h5.5v6.6h-5.5
	V279.2z M434.9,279.2h5.5v6.6h-5.5V279.2z M424.9,279.2h5.5v6.6h-5.5V279.2z M414.9,279.2h5.5v6.6h-5.5V279.2z M404.8,279.2h5.5v6.6
	h-5.5V279.2z M386.5,279.2h5.5v6.6h-5.5V279.2z M366.4,279.2h5.5v6.6h-5.5V279.2z M465,293h5.5v6.6H465V293z M454.9,293h5.5v6.6
	h-5.5V293z M444.9,293h5.5v6.6h-5.5V293z M434.9,293h5.5v6.6h-5.5V293z M424.9,293h5.5v6.6h-5.5V293z M414.9,293h5.5v6.6h-5.5V293z
	 M404.8,293h5.5v6.6h-5.5V293z M386.5,293h5.5v6.6h-5.5V293z M376.7,223.9h5.5v6.6h-5.5V223.9z M376.7,237.7h5.5v6.6h-5.5V237.7z
	 M376.7,251.6h5.5v6.6h-5.5V251.6z M376.7,265.4h5.5v6.6h-5.5V265.4z M376.7,279.2h5.5v6.6h-5.5V279.2z M376.7,293h5.5v6.6h-5.5V293
	z M366.4,293h5.5v6.6h-5.5V293z"/>
<path class="st2" d="M268.1,146.4h109.6v165.9H268.1V146.4z"/>
<path class="st3" d="M268.1,146.4h34.2v165.9h-34.2V146.4z"/>
<path class="st4" d="M365.4,150.6h5.1v27.9h-5.1V150.6z M356.1,150.6h5.1v27.9h-5.1V150.6z M346.9,150.6h5.1v27.9h-5.1V150.6z
	 M337.6,150.6h5.1v27.9h-5.1V150.6z M328.4,150.6h5.1v27.9h-5.1V150.6z M319.1,150.6h5.1v27.9h-5.1V150.6z M309.9,150.6h5.1v27.9
	h-5.1V150.6z M292.9,150.6h5.1v27.9h-5.1V150.6z M283.7,150.6h5.1v27.9h-5.1V150.6z M274.4,150.6h5.1v27.9h-5.1V150.6z M365.4,182.1
	h5.1V210h-5.1V182.1z M356.1,182.1h5.1V210h-5.1V182.1z M346.9,182.1h5.1V210h-5.1V182.1z M337.6,182.1h5.1V210h-5.1V182.1z
	 M328.4,182.1h5.1V210h-5.1V182.1z M319.1,182.1h5.1V210h-5.1V182.1z M309.9,182.1h5.1V210h-5.1V182.1z M292.9,182.1h5.1V210h-5.1
	V182.1z M283.7,182.1h5.1V210h-5.1V182.1z M274.4,182.1h5.1V210h-5.1V182.1z M365.4,213.6h5.1v27.9h-5.1V213.6z M356.1,213.6h5.1
	v27.9h-5.1V213.6z M346.9,213.6h5.1v27.9h-5.1V213.6z M337.6,213.6h5.1v27.9h-5.1V213.6z M328.4,213.6h5.1v27.9h-5.1V213.6z
	 M319.1,213.6h5.1v27.9h-5.1V213.6z M309.9,213.6h5.1v27.9h-5.1V213.6z M292.9,213.6h5.1v27.9h-5.1V213.6z M283.7,213.6h5.1v27.9
	h-5.1V213.6z M274.4,213.6h5.1v27.9h-5.1V213.6z M365.4,245.2h5.1V273h-5.1V245.2z M356.1,245.2h5.1V273h-5.1V245.2z M346.9,245.2
	h5.1V273h-5.1V245.2z M337.6,245.2h5.1V273h-5.1V245.2z M328.4,245.2h5.1V273h-5.1V245.2z M319.1,245.2h5.1V273h-5.1V245.2z
	 M309.9,245.2h5.1V273h-5.1V245.2z M292.9,245.2h5.1V273h-5.1V245.2z M283.7,245.2h5.1V273h-5.1V245.2z M274.4,245.2h5.1V273h-5.1
	V245.2z M365.4,276.7h5.1v27.9h-5.1V276.7z M356.1,276.7h5.1v27.9h-5.1V276.7z M346.9,276.7h5.1v27.9h-5.1V276.7z M337.6,276.7h5.1
	v27.9h-5.1V276.7z M328.4,276.7h5.1v27.9h-5.1V276.7z M319.1,276.7h5.1v27.9h-5.1V276.7z M309.9,276.7h5.1v27.9h-5.1V276.7z
	 M292.9,276.7h5.1v27.9h-5.1V276.7z M283.7,276.7h5.1v27.9h-5.1V276.7z M274.4,276.7h5.1v27.9h-5.1V276.7z"/>
<path class="st2" d="M12,88h109.6v224.3H12V88z"/>
<path class="st3" d="M12,88h34.2v224.3H12V88z"/>
<path class="st4" d="M109.5,98.7h5.1v24.8h-5.1V98.7z M100.3,98.7h5.1v24.8h-5.1V98.7z M91.1,98.7h5.1v24.8h-5.1V98.7z M81.9,98.7
	h5.1v24.8h-5.1V98.7z M72.7,98.7h5.1v24.8h-5.1V98.7z M63.5,98.7h5.1v24.8h-5.1V98.7z M54.3,98.7h5.1v24.8h-5.1V98.7z M37.4,98.7
	h5.1v24.8h-5.1V98.7z M28.2,98.7h5.1v24.8h-5.1V98.7z M19,98.7h5.1v24.8H19V98.7z M109.5,126.7h5.1v24.8h-5.1V126.7z M100.3,126.7
	h5.1v24.8h-5.1V126.7z M91.1,126.7h5.1v24.8h-5.1V126.7z M81.9,126.7h5.1v24.8h-5.1V126.7z M72.7,126.7h5.1v24.8h-5.1V126.7z
	 M63.5,126.7h5.1v24.8h-5.1V126.7z M54.3,126.7h5.1v24.8h-5.1V126.7z M37.4,126.7h5.1v24.8h-5.1V126.7z M28.2,126.7h5.1v24.8h-5.1
	V126.7z M19,126.7h5.1v24.8H19V126.7z M109.5,154.7h5.1v24.8h-5.1V154.7z M100.3,154.7h5.1v24.8h-5.1V154.7z M91.1,154.7h5.1v24.8
	h-5.1V154.7z M81.9,154.7h5.1v24.8h-5.1V154.7z M72.7,154.7h5.1v24.8h-5.1V154.7z M63.5,154.7h5.1v24.8h-5.1V154.7z M54.3,154.7h5.1
	v24.8h-5.1V154.7z M37.4,154.7h5.1v24.8h-5.1V154.7z M28.2,154.7h5.1v24.8h-5.1V154.7z M19,154.7h5.1v24.8H19V154.7z M100.3,182.8
	h5.1v24.8h-5.1V182.8z M91.1,182.8h5.1v24.8h-5.1V182.8z M81.9,182.8h5.1v24.8h-5.1V182.8z M72.7,182.8h5.1v24.8h-5.1V182.8z
	 M63.5,182.8h5.1v24.8h-5.1V182.8z M54.3,182.8h5.1v24.8h-5.1V182.8z M37.4,182.8h5.1v24.8h-5.1V182.8z M28.2,182.8h5.1v24.8h-5.1
	V182.8z M19,182.8h5.1v24.8H19V182.8z M100.3,210.7h5.1v24.8h-5.1V210.7z M91.1,210.7h5.1v24.8h-5.1V210.7z M81.9,210.7h5.1v24.8
	h-5.1V210.7z M72.7,210.7h5.1v24.8h-5.1V210.7z M63.5,210.7h5.1v24.8h-5.1V210.7z M54.3,210.7h5.1v24.8h-5.1V210.7z M37.4,210.7h5.1
	v24.8h-5.1V210.7z M28.2,210.7h5.1v24.8h-5.1V210.7z M19,210.7h5.1v24.8H19V210.7z M100.3,238.7h5.1v24.8h-5.1V238.7z M91.1,238.7
	h5.1v24.8h-5.1V238.7z M81.9,238.7h5.1v24.8h-5.1V238.7z M72.7,238.7h5.1v24.8h-5.1V238.7z M63.5,238.7h5.1v24.8h-5.1V238.7z
	 M54.3,238.7h5.1v24.8h-5.1V238.7z M37.4,238.7h5.1v24.8h-5.1V238.7z M28.2,238.7h5.1v24.8h-5.1V238.7z M19,238.7h5.1v24.8H19V238.7
	z M100.3,266.7h5.1v24.8h-5.1V266.7z M91.1,266.7h5.1v24.8h-5.1V266.7z M81.9,266.7h5.1v24.8h-5.1V266.7z M72.7,266.7h5.1v24.8h-5.1
	V266.7z M63.5,266.7h5.1v24.8h-5.1V266.7z M54.3,266.7h5.1v24.8h-5.1V266.7z M37.4,266.7h5.1v24.8h-5.1V266.7z M28.2,266.7h5.1v24.8
	h-5.1V266.7z M19,266.7h5.1v24.8H19V266.7z"/>
<path class="st2" d="M478.2,147.5h119.4v164.7H478.2V147.5z"/>
<path class="st3" d="M478.2,147.5h37.2v164.7h-37.2V147.5z"/>
<path class="st4" d="M478.2,156.6h119.4v1.4H478.2V156.6z M478.2,167.4h119.4v1.4H478.2V167.4z M478.2,178.3h119.4v1.4H478.2V178.3z
	 M478.2,189.1h119.4v1.4H478.2V189.1z M478.2,200h119.4v1.4H478.2V200z M478.2,210.9h119.4v1.4H478.2V210.9z M478.2,221.8h119.4v1.4
	H478.2V221.8z M478.2,232.7h119.4v1.4H478.2V232.7z M478.2,243.5h119.4v1.4H478.2V243.5z M478.2,254.4h119.4v1.4H478.2V254.4z
	 M478.2,265.3h119.4v1.4H478.2V265.3z M478.2,276.2h119.4v1.4H478.2V276.2z M478.2,287h119.4v1.4H478.2V287z M478.2,297.9h119.4v1.4
	H478.2V297.9z"/>
<path class="st2" d="M89.4,46h140v266h-140V46z"/>
<path class="st5" d="M89.4,46h44v266h-44V46z"/>
<path class="st4" d="M214,55h6.4v7.7H214V55z M202.2,55h6.4v7.7h-6.4V55z M190.5,55h6.4v7.7h-6.4V55z M178.8,55h6.4v7.7h-6.4V55z
	 M167,55h6.4v7.7H167V55z M155.3,55h6.4v7.7h-6.4V55z M143.5,55h6.4v7.7h-6.4V55z M121.9,55h6.4v7.7h-6.4V55z M110.2,55h6.4v7.7
	h-6.4V55z M98.4,55h6.4v7.7h-6.4V55z M214,71.3h6.4V79H214V71.3z M202.2,71.3h6.4V79h-6.4V71.3z M190.5,71.3h6.4V79h-6.4V71.3z
	 M178.8,71.3h6.4V79h-6.4V71.3z M167,71.3h6.4V79H167V71.3z M155.3,71.3h6.4V79h-6.4V71.3z M143.5,71.3h6.4V79h-6.4V71.3z
	 M121.9,71.3h6.4V79h-6.4V71.3z M110.2,71.3h6.4V79h-6.4V71.3z M98.4,71.3h6.4V79h-6.4V71.3z M214,87.5h6.4v7.7H214V87.5z
	 M202.2,87.5h6.4v7.7h-6.4V87.5z M190.5,87.5h6.4v7.7h-6.4V87.5z M178.8,87.5h6.4v7.7h-6.4V87.5z M167,87.5h6.4v7.7H167V87.5z
	 M155.3,87.5h6.4v7.7h-6.4V87.5z M143.5,87.5h6.4v7.7h-6.4V87.5z M121.9,87.5h6.4v7.7h-6.4V87.5z M110.2,87.5h6.4v7.7h-6.4V87.5z
	 M98.4,87.5h6.4v7.7h-6.4V87.5z M214,103.7h6.4v7.7H214V103.7z M202.2,103.7h6.4v7.7h-6.4V103.7z M190.5,103.7h6.4v7.7h-6.4V103.7z
	 M178.8,103.7h6.4v7.7h-6.4V103.7z M167,103.7h6.4v7.7H167V103.7z M155.3,103.7h6.4v7.7h-6.4V103.7z M143.5,103.7h6.4v7.7h-6.4
	V103.7z M121.9,103.7h6.4v7.7h-6.4V103.7z M110.2,103.7h6.4v7.7h-6.4V103.7z M98.4,103.7h6.4v7.7h-6.4V103.7z M214,119.9h6.4v7.7
	H214V119.9z M202.2,119.9h6.4v7.7h-6.4V119.9z M190.5,119.9h6.4v7.7h-6.4V119.9z M178.8,119.9h6.4v7.7h-6.4V119.9z M167,119.9h6.4
	v7.7H167V119.9z M155.3,119.9h6.4v7.7h-6.4V119.9z M143.5,119.9h6.4v7.7h-6.4V119.9z M121.9,119.9h6.4v7.7h-6.4V119.9z M110.2,119.9
	h6.4v7.7h-6.4V119.9z M98.4,119.9h6.4v7.7h-6.4V119.9z M214,136.2h6.4v7.7H214V136.2z M202.2,136.2h6.4v7.7h-6.4V136.2z
	 M190.5,136.2h6.4v7.7h-6.4V136.2z M178.8,136.2h6.4v7.7h-6.4V136.2z M167,136.2h6.4v7.7H167V136.2z M155.3,136.2h6.4v7.7h-6.4
	V136.2z M143.5,136.2h6.4v7.7h-6.4V136.2z M121.9,136.2h6.4v7.7h-6.4V136.2z M110.2,136.2h6.4v7.7h-6.4V136.2z M98.4,136.2h6.4v7.7
	h-6.4V136.2z M214,152.4h6.4v7.7H214V152.4z M202.2,152.4h6.4v7.7h-6.4V152.4z M190.5,152.4h6.4v7.7h-6.4V152.4z M178.8,152.4h6.4
	v7.7h-6.4V152.4z M167,152.4h6.4v7.7H167V152.4z M155.3,152.4h6.4v7.7h-6.4V152.4z M143.5,152.4h6.4v7.7h-6.4V152.4z M121.9,152.4
	h6.4v7.7h-6.4V152.4z M110.2,152.4h6.4v7.7h-6.4V152.4z M98.4,152.4h6.4v7.7h-6.4V152.4z M214,168.7h6.4v7.7H214V168.7z
	 M202.2,168.7h6.4v7.7h-6.4V168.7z M190.5,168.7h6.4v7.7h-6.4V168.7z M178.8,168.7h6.4v7.7h-6.4V168.7z M167,168.7h6.4v7.7H167
	V168.7z M155.3,168.7h6.4v7.7h-6.4V168.7z M143.5,168.7h6.4v7.7h-6.4V168.7z M121.9,168.7h6.4v7.7h-6.4V168.7z M110.2,168.7h6.4v7.7
	h-6.4V168.7z M98.4,168.7h6.4v7.7h-6.4V168.7z M214,184.9h6.4v7.7H214V184.9z M202.2,184.9h6.4v7.7h-6.4V184.9z M190.5,184.9h6.4
	v7.7h-6.4V184.9z M178.8,184.9h6.4v7.7h-6.4V184.9z M167,184.9h6.4v7.7H167V184.9z M155.3,184.9h6.4v7.7h-6.4V184.9z M143.5,184.9
	h6.4v7.7h-6.4V184.9z M121.9,184.9h6.4v7.7h-6.4V184.9z M110.2,184.9h6.4v7.7h-6.4V184.9z M98.4,184.9h6.4v7.7h-6.4V184.9z
	 M214,201.1h6.4v7.7H214V201.1z M202.2,201.1h6.4v7.7h-6.4V201.1z M190.5,201.1h6.4v7.7h-6.4V201.1z M178.8,201.1h6.4v7.7h-6.4
	V201.1z M167,201.1h6.4v7.7H167V201.1z M155.3,201.1h6.4v7.7h-6.4V201.1z M143.5,201.1h6.4v7.7h-6.4V201.1z M121.9,201.1h6.4v7.7
	h-6.4V201.1z M98.4,201.1h6.4v7.7h-6.4V201.1z M214,217.3h6.4v7.7H214V217.3z M202.2,217.3h6.4v7.7h-6.4V217.3z M190.5,217.3h6.4
	v7.7h-6.4V217.3z M178.8,217.3h6.4v7.7h-6.4V217.3z M167,217.3h6.4v7.7H167V217.3z M155.3,217.3h6.4v7.7h-6.4V217.3z M143.5,217.3
	h6.4v7.7h-6.4V217.3z M121.9,217.3h6.4v7.7h-6.4V217.3z M98.4,217.3h6.4v7.7h-6.4V217.3z M214,233.6h6.4v7.7H214V233.6z
	 M202.2,233.6h6.4v7.7h-6.4V233.6z M190.5,233.6h6.4v7.7h-6.4V233.6z M178.8,233.6h6.4v7.7h-6.4V233.6z M167,233.6h6.4v7.7H167
	V233.6z M155.3,233.6h6.4v7.7h-6.4V233.6z M143.5,233.6h6.4v7.7h-6.4V233.6z M121.9,233.6h6.4v7.7h-6.4V233.6z M98.4,233.6h6.4v7.7
	h-6.4V233.6z M214,249.8h6.4v7.7H214V249.8z M202.2,249.8h6.4v7.7h-6.4V249.8z M190.5,249.8h6.4v7.7h-6.4V249.8z M178.8,249.8h6.4
	v7.7h-6.4V249.8z M167,249.8h6.4v7.7H167V249.8z M155.3,249.8h6.4v7.7h-6.4V249.8z M143.5,249.8h6.4v7.7h-6.4V249.8z M121.9,249.8
	h6.4v7.7h-6.4V249.8z M98.4,249.8h6.4v7.7h-6.4V249.8z M214,266.1h6.4v7.7H214V266.1z M202.2,266.1h6.4v7.7h-6.4V266.1z
	 M190.5,266.1h6.4v7.7h-6.4V266.1z M178.8,266.1h6.4v7.7h-6.4V266.1z M167,266.1h6.4v7.7H167V266.1z M155.3,266.1h6.4v7.7h-6.4
	V266.1z M143.5,266.1h6.4v7.7h-6.4V266.1z M121.9,266.1h6.4v7.7h-6.4V266.1z M98.4,266.1h6.4v7.7h-6.4V266.1z M214,282.3h6.4v7.7
	H214V282.3z M202.2,282.3h6.4v7.7h-6.4V282.3z M190.5,282.3h6.4v7.7h-6.4V282.3z M178.8,282.3h6.4v7.7h-6.4V282.3z M167,282.3h6.4
	v7.7H167V282.3z M155.3,282.3h6.4v7.7h-6.4V282.3z M143.5,282.3h6.4v7.7h-6.4V282.3z M121.9,282.3h6.4v7.7h-6.4V282.3z M110.5,201.1
	h6.4v7.7h-6.4V201.1z M110.5,217.3h6.4v7.7h-6.4V217.3z M110.5,233.6h6.4v7.7h-6.4V233.6z M110.5,249.8h6.4v7.7h-6.4V249.8z
	 M110.5,266.1h6.4v7.7h-6.4V266.1z M110.5,282.3h6.4v7.7h-6.4V282.3z M98.4,282.3h6.4v7.7h-6.4V282.3z"/>
<path class="st5" d="M208.6,46.1H108.4V34.2c0-5.1,4.1-9.2,9.2-9.2h81.9c5.1,0,9.2,4.1,9.2,9.2V46.1z"/>
<path class="st2" d="M495.8,225.6c3.4-0.6,5.7,2.9,6.4,6c0.3,1.7,0.3,3.6,1.7,4.6c0.6,0.4,1.2,0.8,1.8,1.1c3.7,1.9,4,5.5,4,9.1
	c-0.1,0.6,0.1,1.2,0.3,1.7c0.3,0.6,1,0.9,1.4,1.5c0.3,0.4,0.4,0.9,0.5,1.3c0.9,4.1,0.5,7.8,0.4,11.9c-0.2,29-16,27.7-16,27.7h-0.6
	c-3.8-0.2-7.3-2.5-9.5-5.5c-2.2-3.2-3.7-6.8-4.3-10.5c-0.5-2.8-0.9-5.5-1-8.4c-0.2-3-0.8-5.8,0.3-8.8c0.5-1.3,1.3-2.7,1.4-4.1
	c0-1.6-1-3-1-4.6c0-1,0.2-1.9,0.6-2.8c0.8-2.2,1.7-4.4,2.8-6.4c0.9-1.6,3-2.5,3.5-4.2c0.1-0.7,0.2-1.5,0.1-2.3
	c0.1-3.7,3.3-6.3,6.7-7.2L495.8,225.6z"/>
<path class="st4" d="M498.4,320.6h-4l1.3-46.9l0.6-1.1L498.4,320.6z"/>
<path class="st6" d="M168.2,340.6l9.8-17.1l-9.8-17.1h8.7c6.3,0,11.5,7.6,11.5,17.1c0,9.4-5.1,17.1-11.5,17.1H168.2z"/>
<path class="st7" d="M168.2,306.4c6.3,0,11.5,7.6,11.5,17.1c0,9.4-5.1,17.1-11.5,17.1c-6.3,0-11.5-7.6-11.5-17.1
	C156.7,314.1,161.9,306.4,168.2,306.4z"/>
<path class="st8" d="M350.8,307.8h-269c-2,0-3.6,1.8-3.6,4v8.7c0,2.2,1.6,4.1,3.6,4.1h269V307.8z"/>
<path class="st9" d="M216.4,324.6h14.4c1.3,0,2.3-0.8,2.3-1.8v-12.1H214v12.1C214,323.8,215.1,324.6,216.4,324.6z"/>
<path class="st9" d="M201.2,324.6h8.7c1.3,0,2.3-0.8,2.3-1.8v-12.1h-13.4v12.1C198.9,323.8,199.9,324.6,201.2,324.6z"/>
<path class="st9" d="M186.3,324.6h8.7c1.3,0,2.3-0.8,2.3-1.8v-12.1h-13.4v12.1C183.9,323.8,185,324.6,186.3,324.6z"/>
<path class="st9" d="M171.4,324.6h8.7c1.3,0,2.3-0.8,2.3-1.8v-12.1H169v12.1C169,323.8,170.1,324.6,171.4,324.6z"/>
<path class="st10" d="M347.8,198l-192.3,5v107.7h192.3V198z"/>
<path class="st11" d="M347.8,280.6l-193.6,7.2l-0.4,22.9h194V280.6z"/>
<path class="st12" d="M155.5,289.2l190.9-6.1v-13.3l-190.9,11.9V289.2z"/>
<path class="st13" d="M441.6,310.6h-96.1V198h96.1V310.6z"/>
<rect x="345.5" y="198" class="st14" width="96.1" height="4.2"/>
<path class="st14" d="M155.6,212l-2.2,0.4l-1.9,0.4l-0.4,97.9h4.5V212z"/>
<path class="st14" d="M109.9,229.6l43.2,1.8c0.2,0,0.3-0.1,0.3-0.3v-5.2c0-0.2-0.2-0.3-0.3-0.3l-42.5,2.8L109.9,229.6z"/>
<path class="st10" d="M153.1,229.6l-74.2,8.5c0,0-11.8,47.7-11.8,50.6l0.3,17.6c0,0,3.8,14,6.8,14h69.2c5.5,0,10-4,10-9v-81.4
	C153.4,229.7,153.2,229.6,153.1,229.6z"/>
<path class="st15" d="M74.7,297.3c0-1.9-0.7-3.6-2-4.9c-1.3-1.3-3.9-2-5.7-2.1l0.2,14c1.8,0,4.2-0.7,5.5-2
	C74,301,74.7,299.2,74.7,297.3z"/>
<path class="st11" d="M100.2,306.2l15.1-14.2l38-3.6V306c0,0.2-0.1,0.3-0.3,0.3L100.2,306.2z"/>
<path class="st10" d="M78.9,239.1h74.4v-9.5H94.7c-6.6,0-12.8,3.2-16.3,8.5C78,238.5,78.4,239.1,78.9,239.1z"/>
<path class="st10" d="M153.4,229h-43.1c0,0,6.4-13.2,43.1-17V229z"/>
<path class="st14" d="M78.4,240l75-0.3c0,0,0-0.1,0-0.3v-0.3H78.6L78.4,240z"/>
<path class="st8" d="M153,324.7h-30.7v-25.3H153c0.2,0,0.3,0.1,0.3,0.3v24.7C153.4,324.6,153.2,324.7,153,324.7z"/>
<path class="st10" d="M73.6,324.8H103l2.2-16.2H67.3v11.1C67.3,322.5,70.1,324.8,73.6,324.8z"/>
<path class="st8" d="M67.3,306.1h39.1v2.4H67.3V306.1z"/>
<path class="st13" d="M75.6,316.9h18.8v7.1H75.6V316.9z"/>
<path class="st13" d="M75.6,308.6h18.8v7.1H75.6V308.6z"/>
<path class="st6" d="M75.6,322.4h18.8v1.6H75.6V322.4z"/>
<path class="st6" d="M75.6,314.1h18.8v1.6H75.6V314.1z"/>
<path class="st6" d="M78,241.3h46c5.5,0,5.5,0,5.5,3.5v17.8c0,2.1-1.5,3.9-3.6,4.4l-55.3,4.5"/>
<path class="st16" d="M81.1,279.3c-2.1,0-3.8-1.6-3.8-3.5v-9.9h3.8V279.3z"/>
<path class="st10" d="M81.1,259.3v6.5h-3.8v-3C77.4,260.9,79.1,259.3,81.1,259.3z"/>
<path class="st17" d="M77.4,265.8h3.8v7.6h-3.8V265.8z"/>
<path class="st16" d="M77.4,271.6c-1.3,0-2.4,1-2.4,2.2c0,1.2,1.1,2.2,2.4,2.2"/>
<path class="st14" d="M148.3,268.9L96,273.1c-2.3,0.3-4.1,2.2-4,4.4c0.1,2.2,2,4,4.3,4.1l52.4,0.7"/>
<path class="st18" d="M119.1,276.1h4.1c1.4,0,2.5-1.1,2.5-2.4h-4.1C120.3,273.7,119.1,274.8,119.1,276.1z"/>
<path class="st12" d="M153.4,281.8c0,0-45.5-1.5-55.4,24.3h8.4c0,0,4.8-16.7,47-16.7"/>
<path class="st19" d="M131.8,270.6v17c0,3.6-3.1,6.6-7,6.6h-6.9c-1.9,0-8.1,0.2-10,2c-2.4,2.2-5.7,5.6-5.7,5.6c-1.3,1.3-3.1,2-5,2
	H80.4c-2.3,0-4.1-1.7-4.1-3.9V283"/>
<path class="st20" d="M145.1,324.8c0-18.5-12-25.4-22.8-25.4c-11,0-22.8,6.9-22.8,25.4"/>
<path class="st6" d="M117.5,342.3l12-19.7l-12-19.7h10c7.3,0,13.2,8.8,13.2,19.7c0,10.9-5.9,19.7-13.2,19.7H117.5z"/>
<path class="st7" d="M117.5,302.9c7.3,0,13.2,8.8,13.2,19.7c0,10.9-5.9,19.7-13.2,19.7c-7.3,0-13.2-8.8-13.2-19.7
	C104.2,311.8,110.2,302.9,117.5,302.9z"/>
<path class="st21" d="M110,322.6c0,6.1,3.3,11.1,7.5,11.1c4.1,0,7.5-5,7.5-11.1c0-6.1-3.3-11.1-7.5-11.1
	C113.3,311.5,110,316.5,110,322.6z"/>
<path class="st6" d="M277,340.7c0-4.2,1.2-8.3,3.6-11.7c2.3-3.5,5.6-6.2,9.5-7.8s8.1-2,12.2-1.2c4.1,0.8,7.9,2.8,10.8,5.8
	c3,3,5,6.7,5.8,10.8c0.8,4.1,0.4,8.3-1.2,12.2s-4.3,7.2-7.8,9.5c-3.5,2.3-7.6,3.6-11.7,3.6c-5.6,0-11-2.2-14.9-6.2
	C279.2,351.6,277,346.3,277,340.7z M392.7,340.9c0-4.1,1.2-8.2,3.5-11.6c2.3-3.4,5.6-6.1,9.4-7.7c3.8-1.6,8-2,12.1-1.2
	c4.1,0.8,7.8,2.8,10.7,5.7c2.9,2.9,4.9,6.7,5.7,10.7c0.8,4.1,0.4,8.3-1.2,12.1c-1.6,3.8-4.3,7.1-7.7,9.4c-3.4,2.3-7.5,3.5-11.6,3.5
	c-5.5,0-10.9-2.2-14.8-6.2C394.9,351.8,392.7,346.5,392.7,340.9z"/>
<path class="st22" d="M480.6,233h-75.3v95.7h75.3V233z"/>
<path class="st8" d="M409.7,327.7H219.3c-1.9,0-3.3,1.7-3.3,3.7v8c0,2,1.5,3.7,3.3,3.7h190.3V327.7z"/>
<path class="st23" d="M221,327.7h85.7V257h-43c-4.1,0-8.2,1-11.8,3c-3.6,2-6.8,4.8-9.1,8.2l-17.5,26.2c-2.8,4.2-4.3,9.2-4.3,14.3
	L221,327.7z"/>
<path class="st6" d="M286.9,298.8v-33.9h-22.6c-2.9,0-5.7,0.7-8.2,2c-2.5,1.3-4.7,3.3-6.3,5.7L232,298.8L286.9,298.8z"/>
<path class="st24" d="M305.3,257h-8v70.6h8V257z"/>
<path class="st25" d="M277.5,304.4h7.6c0.5,0,0.9-0.2,1.2-0.5c0.3-0.3,0.5-0.8,0.5-1.2v-1.1h-11.1v1.1c0,0.5,0.2,0.9,0.5,1.2
	C276.6,304.2,277,304.4,277.5,304.4L277.5,304.4z"/>
<path class="st15" d="M227.7,318.7c0-1.8-0.7-3.5-2-4.7c-1.3-1.3-3-2-4.7-2v13.5c1.8,0,3.5-0.7,4.7-2
	C227,322.2,227.7,320.5,227.7,318.7z"/>
<path class="st7" d="M480.4,327.7h-70.8c-0.6,0-1.2,0.1-1.7,0.3c-0.6,0.2-1.1,0.6-1.5,1s-0.8,0.9-1,1.5c-0.2,0.6-0.3,1.1-0.3,1.7
	v6.2c0,1.2,0.5,2.4,1.3,3.2c0.8,0.9,2,1.3,3.2,1.3h70.8c1.2,0,2.4-0.5,3.2-1.3c0.9-0.9,1.3-2,1.3-3.2v-6.2c0-1.2-0.5-2.4-1.3-3.2
	S481.6,327.7,480.4,327.7z"/>
<path class="st26" d="M417.9,335.4c0-0.6-0.2-1.3-0.5-1.8c-0.4-0.5-0.9-1-1.5-1.2c-0.6-0.2-1.3-0.3-1.9-0.2
	c-0.6,0.1-1.2,0.4-1.7,0.9c-0.5,0.5-0.8,1-0.9,1.7c-0.1,0.6-0.1,1.3,0.2,1.9c0.2,0.6,0.7,1.1,1.2,1.5c0.5,0.4,1.2,0.5,1.8,0.5
	c0.4,0,0.8-0.1,1.2-0.2c0.4-0.2,0.8-0.4,1.1-0.7c0.3-0.3,0.5-0.7,0.7-1C417.8,336.3,417.9,335.8,417.9,335.4L417.9,335.4z"/>
<path class="st15" d="M423.5,335.4c0-0.4-0.2-0.8-0.5-1.1c-0.3-0.3-0.7-0.5-1.1-0.5h0c-0.4,0-0.8,0.2-1.1,0.5
	c-0.3,0.3-0.5,0.7-0.5,1.1c0,0.2,0,0.4,0.1,0.6c0.1,0.2,0.2,0.4,0.3,0.5c0.1,0.1,0.3,0.3,0.5,0.3c0.2,0.1,0.4,0.1,0.6,0.1h0.1
	c0.4,0,0.8-0.1,1.1-0.4c0.3-0.3,0.5-0.6,0.5-1V335.4z"/>
<path class="st26" d="M474.2,335.4c0,0.6,0.2,1.3,0.5,1.8c0.4,0.5,0.9,1,1.5,1.2c0.6,0.2,1.3,0.3,1.9,0.2c0.6-0.1,1.2-0.4,1.7-0.9
	c0.5-0.5,0.8-1,0.9-1.7c0.1-0.6,0.1-1.3-0.2-1.9c-0.2-0.6-0.7-1.1-1.2-1.5c-0.5-0.4-1.2-0.6-1.8-0.6c-0.9,0-1.7,0.4-2.3,1
	C474.6,333.7,474.2,334.5,474.2,335.4z"/>
<path class="st15" d="M468.6,335.4c0,0.3,0.1,0.6,0.3,0.9c0.2,0.3,0.4,0.5,0.7,0.6c0.3,0.1,0.6,0.2,0.9,0.1c0.3-0.1,0.6-0.2,0.8-0.4
	c0.2-0.2,0.4-0.5,0.4-0.8c0.1-0.3,0-0.6-0.1-0.9c-0.1-0.3-0.3-0.5-0.6-0.7c-0.3-0.2-0.6-0.3-0.9-0.3c-0.4,0-0.8,0.1-1.1,0.4
	C468.8,334.5,468.6,334.9,468.6,335.4L468.6,335.4z"/>
<path class="st27" d="M480.6,233h-36.9h-18.5H416h-4.6h-1.7l-2.9,4.4h73.8V233z"/>
<path class="st11" d="M297.1,311.2l-35.8,12.6c0,0,3.5,2.6,4.7,4.2h31.1V311.2z"/>
<path class="st12" d="M261.6,323.9l35.6-11.4v-7.8l-41.8,16.6C257.6,321.8,259.7,322.6,261.6,323.9z"/>
<path class="st23" d="M409.7,233H305.3v94.7h104.4V233z"/>
<path class="st11" d="M409.7,308.6l-104.4,3v16.1h104.4V308.6z"/>
<path class="st6" d="M363.7,320.7c5.9,0,11.6,2.4,15.8,6.6c4.2,4.2,6.5,9.9,6.6,15.8h-44.7c0-2.9,0.6-5.8,1.7-8.5
	c1.1-2.7,2.8-5.2,4.8-7.2c2.1-2.1,4.5-3.7,7.2-4.8C357.7,321.3,360.6,320.7,363.7,320.7L363.7,320.7z"/>
<path class="st6" d="M366.6,324.1c4.8,0.1,9.4,2.1,12.9,5.5c3.4,3.4,5.4,8,5.5,12.8c0.1,4.8-1.6,9.5-4.8,13.1
	c-3.2,3.6-7.7,5.8-12.5,6.2h-6.3V324L366.6,324.1L366.6,324.1z"/>
<path class="st7" d="M344,342.9c0-3.7,1.1-7.4,3.2-10.5c2.1-3.1,5-5.5,8.5-6.9c3.4-1.4,7.2-1.8,10.9-1.1c3.7,0.7,7,2.5,9.6,5.2
	c2.6,2.6,4.4,6,5.2,9.6c0.7,3.7,0.4,7.4-1.1,10.9c-1.4,3.4-3.8,6.4-6.9,8.5c-3.1,2.1-6.7,3.2-10.5,3.2c-5,0-9.8-2-13.3-5.5
	C346,352.7,344,347.9,344,342.9z"/>
<path class="st11" d="M362.8,352.2c-5.1,0-9.2-4.1-9.2-9.2c0-5.1,4.1-9.2,9.2-9.2c5.1,0,9.2,4.1,9.2,9.2
	C372,348,367.9,352.2,362.8,352.2z"/>
<path class="st12" d="M305.3,311.5l104.4-3v-9.7l-104.5,4.7L305.3,311.5z"/>
<path class="st6" d="M250.1,320.7c5.9,0,11.6,2.4,15.8,6.6s6.5,9.9,6.6,15.8h-44.7c0-2.9,0.6-5.8,1.7-8.5c1.1-2.7,2.8-5.2,4.8-7.2
	c2.1-2.1,4.5-3.7,7.2-4.8C244.2,321.3,247.1,320.7,250.1,320.7L250.1,320.7z"/>
<path class="st6" d="M253,324.1c4.8,0.1,9.4,2.1,12.9,5.5c3.4,3.4,5.4,8,5.5,12.8c0.1,4.8-1.6,9.5-4.8,13.1
	c-3.2,3.6-7.7,5.8-12.5,6.2h-6.2V324L253,324.1L253,324.1z"/>
<path class="st7" d="M230.4,342.9c0-3.7,1.1-7.4,3.2-10.5c2.1-3.1,5-5.5,8.5-6.9c3.4-1.4,7.2-1.8,10.9-1.1c3.7,0.7,7,2.5,9.6,5.2
	c2.6,2.6,4.4,6,5.2,9.6c0.7,3.7,0.4,7.4-1.1,10.9c-1.4,3.4-3.8,6.4-6.9,8.5c-3.1,2.1-6.7,3.2-10.5,3.2c-5,0-9.8-2-13.3-5.5
	C232.4,352.7,230.4,347.9,230.4,342.9z"/>
<path class="st11" d="M249.2,352.2c-5.1,0-9.2-4.1-9.2-9.2c0-5.1,4.1-9.2,9.2-9.2c5.1,0,9.2,4.1,9.2,9.2
	C258.4,348,254.3,352.2,249.2,352.2z"/>
<path class="st28" d="M513,285.5c0.2,0,0.5,0.4,0.8,1.1c0.2,0.4,0.3,0.8,0.5,1.3c0.2,0.5,0.4,1,0.7,1.6c0.3,0.6,0.6,1.2,0.9,1.8
	c0.2,0.3,0.4,0.6,0.6,0.8c0.2,0.3,0.5,0.5,0.7,0.8c0.3,0.2,0.5,0.4,0.8,0.6c0.3,0.2,0.6,0.3,0.9,0.5c0.3,0.1,0.6,0.2,0.9,0.3
	c0.1,0,0.2,0,0.2,0l0.2,0c0.2,0,0.3,0,0.5,0c0.7,0,1.4-0.1,2.1-0.3c0.3-0.1,0.7-0.2,1-0.3c0.2-0.1,0.3-0.1,0.5-0.2
	c0.1-0.1,0.3-0.1,0.5-0.2c0.3-0.1,0.6-0.3,0.9-0.5c0.3-0.2,0.6-0.3,0.9-0.5c0.5-0.4,1.1-0.7,1.6-1.1c0.5-0.3,0.9-0.7,1.4-0.9
	c0.4-0.3,0.8-0.5,1.2-0.7c0.3-0.2,0.7-0.3,1-0.3c0.3,0,0.5,0,0.8,0.2c0.2,0.2,0.4,0.4,0.4,0.7c0.1,0.4,0.1,0.7,0,1.1
	c-0.1,0.5-0.2,1-0.4,1.5c-0.3,0.6-0.6,1.2-1,1.8c-0.5,0.7-1.1,1.4-1.7,1.9c-0.4,0.3-0.7,0.7-1.1,0.9c-0.4,0.3-0.9,0.6-1.4,0.9
	c-0.2,0.1-0.5,0.3-0.7,0.4c-0.3,0.1-0.5,0.2-0.8,0.3c-0.6,0.2-1.1,0.4-1.7,0.5c-1.3,0.3-2.6,0.3-3.9,0.1c-0.3-0.1-0.7-0.1-1-0.2
	l-0.5-0.2c-0.2-0.1-0.3-0.1-0.5-0.2c-0.6-0.3-1.2-0.6-1.8-0.9c-0.5-0.4-1-0.8-1.4-1.2c-0.4-0.4-0.7-0.9-1.1-1.4
	c-0.3-0.5-0.5-0.9-0.8-1.4c-0.2-0.4-0.3-0.9-0.5-1.4c-0.2-0.8-0.4-1.6-0.4-2.4c-0.1-0.6-0.1-1.3-0.1-2c0-0.5,0.1-1,0.1-1.4
	C512.6,286,512.8,285.5,513,285.5L513,285.5z"/>
<path class="st4" d="M524,296c-0.2,4-0.2,8.1,0,12.1c3.9,1.3,7.9,1.6,12,1c0.3-4.1,0.5-8.2,0.5-12.3c0-2.2-0.1-4.3-0.7-6.4
	c-0.5-1.9-1.6-3.5-3.1-4.7c-0.2-0.1-0.4-0.2-0.5-0.4c-0.9,0.7-2.8,1-3.9,0.5c-0.6,0.4-1.1,0.8-1.5,1.3c-0.8,0.9-1.4,2-1.8,3.2
	C524.4,292.2,524.1,294.1,524,296z"/>
<path class="st29" d="M526.8,287.2c1,0.3,2.1,0.3,3.1,0c0.5-0.1,1.1-0.3,1.6-0.6c0.4-0.2,0.8-0.5,1.1-0.8l0-0.2v-0.1l-0.1-0.3
	c-0.2-1.1-0.4-2.3-0.5-3.4c-0.2-1.1-0.3-2.1-0.4-3.2c-1.2,0.6-2.3,1.3-3.4,2.1c0,0.7-0.1,1.4-0.1,2.2c-0.1,0.6-0.1,1.2-0.2,1.8
	c0,0.3-0.1,0.7-0.2,1c-0.1,0.3-0.1,0.6-0.2,0.9C527.2,286.7,527,286.9,526.8,287.2L526.8,287.2z"/>
<path class="st30" d="M527.8,284.6c1.3-1.1,2.7-2.1,4.2-2.8c-0.2-1.1-0.3-2.1-0.4-3.2c-1.2,0.6-2.3,1.3-3.4,2.1
	c0,0.7-0.1,1.4-0.1,2.2C528,283.4,527.9,284,527.8,284.6z"/>
<path class="st7" d="M550.1,344c0,0,0,2.8-2.6,2.7l-0.5,10.1l7-12.1L550.1,344z"/>
<path class="st4" d="M548.9,351.2c0-0.1,0-0.1-0.1-0.1c0,0-0.1-0.1-0.2,0c-0.6,0.1-1.1,0.2-1.6,0.4c-0.1,0-0.1,0.1-0.1,0.1
	c0,0.1,0,0.1,0,0.2c0,0,0,0,0.1,0.1c0,0,0,0,0.1,0c0.1,0,0.1,0,0.2,0c0.5-0.2,1-0.3,1.5-0.4c0,0,0.1,0,0.1,0c0,0,0.1-0.1,0.1-0.1
	C548.9,351.2,548.9,351.2,548.9,351.2z M549,349.9C549,349.9,549,349.8,549,349.9c0-0.1-0.1-0.1-0.1-0.1c0,0,0,0-0.1,0
	c0,0-0.1,0-0.1,0c-0.6,0.1-1.1,0.2-1.6,0.4c0,0-0.1,0-0.1,0.1c0,0,0,0,0,0.1c0,0.1,0,0.1,0,0.2c0,0,0,0,0.1,0.1c0,0,0,0,0.1,0
	c0,0,0.1,0,0.1,0c0,0,0.1,0,0.1,0c0.5-0.2,1-0.3,1.5-0.4c0,0,0.1,0,0.1,0c0,0,0.1,0,0.1-0.1S549,349.9,549,349.9L549,349.9z
	 M549.1,348.6C549.1,348.6,549.1,348.6,549.1,348.6c0-0.1-0.1-0.1-0.1-0.1c0,0-0.1,0-0.2,0c-0.6,0.1-1.1,0.2-1.6,0.4
	c-0.1,0-0.1,0.1-0.1,0.1c0,0.1,0,0.1,0,0.2c0,0.1,0.1,0.1,0.1,0.1c0.1,0,0.1,0,0.2,0c0.5-0.2,1-0.3,1.5-0.4c0,0,0.1,0,0.1,0
	c0,0,0.1-0.1,0.1-0.1C549.1,348.7,549.1,348.7,549.1,348.6L549.1,348.6z M548.3,357.2c0,0-0.1,0.1-0.1,0.1c0,0-0.1,0-0.1,0.1
	c0,0-0.1,0-0.1,0c0,0-0.1,0-0.1,0l-0.7-0.4l7-12.1l0.7,0.4c0,0,0.1,0.1,0.1,0.1c0,0,0,0.1,0.1,0.1c0,0,0,0.1,0,0.1c0,0,0,0.1,0,0.1
	L548.3,357.2z"/>
<path class="st7" d="M522.1,354.3c0,0-2.5,1.3-3.6-1l-9.2,4.3l13.9,0.6L522.1,354.3z"/>
<path class="st4" d="M515,356.6c0,0,0.1,0,0.1,0c0,0,0.1,0,0.1,0c0,0,0,0,0.1-0.1c0,0,0-0.1,0-0.1c0,0,0-0.1,0-0.1c0,0,0-0.1,0-0.1
	c-0.3-0.5-0.7-0.9-1.2-1.2c0,0-0.1,0-0.2,0c-0.1,0-0.1,0-0.2,0.1c0,0,0,0,0,0.1c0,0,0,0.1,0,0.1c0,0,0,0.1,0,0.1c0,0,0,0,0.1,0.1
	C514.2,355.7,514.6,356.1,515,356.6C514.9,356.6,514.9,356.6,515,356.6L515,356.6z M516.1,356.1c0,0,0.1,0,0.1,0c0,0,0.1,0,0.1,0
	c0,0,0,0,0.1-0.1c0,0,0-0.1,0-0.1c0,0,0-0.1,0-0.1c0,0,0-0.1,0-0.1c-0.3-0.5-0.7-0.9-1.2-1.2c0,0-0.1,0-0.1,0c0,0-0.1,0-0.1,0
	c0,0-0.1,0-0.1,0c0,0,0,0-0.1,0.1c0,0,0,0.1,0,0.2c0,0.1,0,0.1,0.1,0.1C515.4,355.2,515.7,355.6,516.1,356.1
	C516,356.1,516.1,356.1,516.1,356.1L516.1,356.1z M517.3,355.6c0,0,0.1,0,0.1,0c0,0,0.1,0,0.1-0.1c0,0,0-0.1,0.1-0.1
	c0,0,0-0.1,0-0.1c-0.3-0.5-0.7-0.9-1.2-1.2c-0.1,0-0.1,0-0.2,0c-0.1,0-0.1,0-0.2,0.1c0,0,0,0,0,0.1c0,0,0,0.1,0,0.1
	c0,0.1,0,0.1,0.1,0.1c0.4,0.3,0.8,0.7,1,1.1C517.2,355.5,517.2,355.6,517.3,355.6L517.3,355.6z M509.5,358.8
	c-0.1-0.1-0.2-0.1-0.2-0.3c0-0.1,0-0.1,0-0.2l0-0.8l13.9,0.6l0,0.8c0,0.1,0,0.1,0,0.2c0,0.1-0.1,0.1-0.1,0.1
	c-0.1,0.1-0.2,0.1-0.3,0.1l-13-0.6C509.6,358.9,509.6,358.8,509.5,358.8L509.5,358.8z"/>
<path class="st31" d="M536.3,311.4c0,0-3.2,18.9,16,32.4l-5.2,5.6c0,0-21.5-14.7-19.3-33.7L536.3,311.4z"/>
<path class="st32" d="M537,322.4c-0.3,0.4-0.6,0.8-0.9,1.2c-0.7,1.1-1.3,2.2-1.9,3.4c-0.9,2-1.7,4-2.3,6.1c-2.9-5-4.9-10.9-4.1-17.3
	l8.4-4.3C536.2,311.4,535.4,316.1,537,322.4z"/>
<path class="st33" d="M523.9,292.6c-0.8,6.7-0.9,13.4-0.3,20.2c0,0-10.6,20.7-8.3,41.5l8.1,2c0,0,1.8-27.3,12.8-41.1l0.5-13.7
	L528,300l-0.8-7.3L523.9,292.6z"/>
<path class="st31" d="M536.1,303c0.1,0,0.1-0.1,0.2-0.3c0.1-0.1,0.1-0.2,0.1-0.3c0.1-0.1,0.1-0.3,0.2-0.5c0-0.1,0.1-0.2,0.1-0.3
	c0-0.1,0-0.2,0.1-0.3c0-0.1,0.1-0.2,0.1-0.4c0-0.1,0-0.3,0.1-0.4c0-0.1,0-0.3,0.1-0.4l0.1-0.4c0-0.3,0.1-0.6,0.1-0.9
	c0-0.7,0-1.5,0-2.2c0-0.9-0.1-1.7-0.3-2.6c-0.1-0.9-0.3-1.9-0.6-2.8c-0.3-1-0.7-2-1.2-2.9c-0.3-0.5-0.7-0.9-1.1-1.3
	c-0.4-0.4-0.9-0.7-1.5-0.9c-0.3-0.1-0.5-0.2-0.8-0.2h-0.8c-0.5,0-1,0.2-1.5,0.4c-0.4,0.2-0.8,0.5-1.2,0.8c-0.1,0.1-0.2,0.2-0.3,0.2
	l-0.2,0.2l-0.2,0.3c-0.1,0.1-0.1,0.2-0.2,0.3c-0.2,0.3-0.4,0.7-0.6,1.1c-0.1,0.3-0.3,0.7-0.4,1c-0.2,0.6-0.3,1.2-0.3,1.8
	c0,0.5-0.1,0.9-0.1,1.4c0,0.8,0.1,1.2,0.2,1.2c0.1,0,0.2-0.4,0.3-1.1c0.1-0.4,0.1-0.8,0.3-1.3c0.1-0.6,0.3-1.1,0.5-1.7
	c0.2-0.6,0.6-1.2,1-1.7c0.1-0.1,0.1-0.1,0.2-0.2l0.2-0.2l0.2-0.2c0.1-0.1,0.1-0.1,0.2-0.2c0.3-0.2,0.6-0.4,0.9-0.5
	c0.3-0.1,0.7-0.2,1.1-0.2h0.6c0.2,0,0.4,0.1,0.5,0.2c0.8,0.4,1.4,0.9,1.8,1.7c0.5,0.8,0.8,1.6,1,2.5c0.2,0.9,0.4,1.8,0.6,2.6
	c0.2,0.8,0.3,1.6,0.3,2.4c0.1,0.8,0.1,1.5,0.1,2.1v3.6c0,0.1,0,0.2,0,0.4C536,302.9,536,303,536.1,303L536.1,303z"/>
<path class="st34" d="M520.1,286.8H504v16.1h16.1V286.8z"/>
<path class="st35" d="M496,284.1l8,2.7v16.1l-8-2.7V284.1z"/>
<path class="st36" d="M520.1,286.8l-8-2.7H496l8,2.7H520.1z"/>
<path class="st37" d="M510.2,287.8h-5.5v2.4h5.5V287.8z"/>
<path class="st38" d="M510.7,299.9l0,3.1h2.8v-3.1H510.7z M510.7,286.8l0,3.1h2.8v-3.1H510.7z M506.8,284.1h-2.6l6.5,2.7h2.8
	L506.8,284.1z"/>
<path class="st29" d="M534.4,292.9v0.1c0,1.7-0.4,3.4-1.2,5c-0.3,0.6-0.6,1.2-1,1.7c-0.4,0.6-0.9,1.1-1.4,1.5c-1.1,1-2.5,1.7-3.9,2
	c-0.7,0.2-1.3,0.3-2,0.3c-0.6,0-1.3,0-1.9-0.1c-0.6-0.1-1.1-0.2-1.7-0.4c-1-0.3-1.9-0.7-2.8-1.3c-0.7-0.4-1.4-0.9-2-1.4
	c-0.5-0.4-1-0.9-1.5-1.3l-0.2-0.2c-0.3,0-0.6,0-0.9,0c-0.3,0-0.6-0.1-0.8-0.2c-0.3-0.1-0.5-0.2-0.8-0.3c-0.3-0.1-0.5-0.3-0.7-0.5
	c-0.4-0.4-0.8-0.8-1.1-1.4c-0.1-0.3-0.2-0.5-0.3-0.8c-0.1-0.3-0.1-0.6-0.1-0.9c0-0.2,0-0.4,0-0.6c0-0.1,0-0.2,0.1-0.3
	c0.1-0.1,0.1-0.2,0.2-0.3c0.5-0.4,1.1,0,1.5,0.5s0.6,0.9,1,1.1c0.1,0,0.3,0.1,0.5,0c0.1,0,0.3-0.1,0.4-0.2c0,0,0.1-0.1,0.1-0.1
	c0.1-0.1,0.1-0.1,0.2-0.1c0.1,0,0.1-0.1,0.2-0.1c0.1,0,0.2,0,0.2,0c0.1,0,0.1,0.1,0.2,0.1c0,0,0.1,0.1,0.1,0.1
	c0.1,0.2,0.2,0.4,0.3,0.6c0.1,0.5,0.2,0.9,0.3,1.4c0.7,0.2,1.5,0.6,2.5,0.9c0.7,0.2,1.3,0.4,2,0.6c0.7,0.2,1.4,0.3,2.2,0.3
	c0.4,0,0.7,0,1.1,0c0.4,0,0.7-0.1,1.1-0.2c0.3-0.1,0.6-0.2,0.9-0.4c0.3-0.1,0.6-0.3,0.8-0.5c0.2-0.2,0.5-0.4,0.7-0.6
	c0.2-0.2,0.4-0.5,0.6-0.8c0.3-0.6,0.6-1.1,0.8-1.8c0.2-0.6,0.4-1.2,0.5-1.8c0.1-0.5,0.2-0.9,0.2-1.4c0.8,0.6,1.7,1,2.6,1.3
	C532.5,292.8,533.4,292.9,534.4,292.9L534.4,292.9z"/>
<path class="st33" d="M527.5,270.3c0.1-0.4,0.3-0.8,0.6-1.2c0.3-0.3,0.7-0.6,1.1-0.8c0.8-0.4,1.8-0.4,2.6-0.2
	c0.5,0.1,0.9,0.3,1.3,0.5c0.4,0.2,0.8,0.5,1.1,0.9c0.3,0.3,0.6,0.7,0.7,1.2c0.2,0.4,0.3,0.9,0.3,1.3c0,1.5-0.8,2.8-1.6,4
	C532,273.7,529.9,271.7,527.5,270.3z"/>
<path class="st32" d="M526.5,268.6c-0.4-0.3-0.9-0.4-1.4-0.4c-0.2,0-0.3,0.1-0.4,0.2c-0.1,0.1-0.3,0.2-0.3,0.3
	c-0.1,0.1-0.2,0.3-0.2,0.4c0,0.2-0.1,0.3,0,0.5c0,0.3,0.2,0.7,0.3,1c0.2,0.3,0.4,0.6,0.6,0.8c0.2,0.2,0.4,0.4,0.6,0.5
	c0.2,0.2,0.4,0.3,0.7,0.4c0.5,0.2,1,0.4,1.5,0.5c0.3,0.1,0.5,0.1,0.8,0.1c0.5,0,1.1,0,1.6-0.2c0.3-0.1,0.5-0.2,0.8-0.3
	c0.3-0.1,0.9-0.3,1-0.6c0.2-0.4-0.2-0.5-0.6-0.7C529.8,270.4,528.2,269.5,526.5,268.6z"/>
<path class="st7" d="M526.9,273.7c0.1,0,0.2,0,0.3,0s0.2,0.1,0.3,0.2c0.1,0.1,0.1,0.2,0.1,0.3c0,0.1,0,0.2,0,0.3
	c-0.1,0.9-0.5,1.7-0.9,2.4c-0.2-0.2-0.3-0.4-0.4-0.7c-0.2-0.5-0.3-1-0.2-1.6c0-0.3,0.1-0.5,0.2-0.8
	C526.5,274,526.7,273.7,526.9,273.7z M531,277.5c-0.1-0.9-0.1-1.9,0.1-2.8c0.2-1,0.6-2,1.2-2.9c0.4,0.4,0.8,0.9,1.1,1.4
	c0.2,0.6,0.4,1.2,0.4,1.9c0,0.3,0,0.6,0,1c0,0.3-0.1,0.6-0.1,1c-0.1,0.3-0.2,0.6-0.3,0.9c-0.1,0.3-0.3,0.6-0.4,0.9
	c-0.2,0.3-0.3,0.5-0.5,0.8c-0.2,0.2-0.4,0.5-0.7,0.7C531.3,279.4,531.1,278.5,531,277.5z"/>
<path class="st29" d="M527,273.5c0.2,1.2-0.3,2.3-0.8,3.4c-0.5,1.1-0.9,2.3-0.4,3.4c0.1,0.3,0.3,0.5,0.5,0.7
	c0.2,0.2,0.4,0.4,0.7,0.5c0.3,0.1,0.6,0.2,0.9,0.3c0.3,0.1,0.6,0.1,0.9,0c0.6-0.1,1.2-0.4,1.7-0.7c0.5-0.4,0.9-0.8,1.2-1.4
	c0.3-0.5,0.5-1.1,0.6-1.7c0.1-0.6,0.1-1.2,0-1.8c-0.1-1.2-0.4-2.4-0.8-3.6C530,271.9,528.2,272.4,527,273.5L527,273.5z"/>
<path class="st29" d="M531.9,276.6c0.1-0.2,0.3-0.3,0.5-0.4c0.1-0.1,0.2-0.1,0.3-0.1c0.1,0,0.2,0,0.3,0c0.1,0,0.3,0.1,0.3,0.2
	c0.1,0.1,0.2,0.2,0.2,0.4c0,0.1,0.1,0.3,0.1,0.4c0,0.1,0,0.3-0.1,0.4c0,0.1-0.1,0.3-0.2,0.4c-0.1,0.1-0.2,0.2-0.3,0.3
	c-0.1,0.1-0.2,0.2-0.3,0.2c-0.1,0.1-0.3,0.1-0.4,0.1c-0.1,0-0.3,0-0.4,0c-0.1,0-0.3-0.1-0.4-0.1
	C531.7,277.7,531.8,277.1,531.9,276.6L531.9,276.6z"/>
<path class="st7" d="M526.1,274.4c1.7,0.1,3.4-0.4,4.9-1.3c-0.1,0.5-0.1,1,0,1.6c0.1,0.4,0.3,0.7,0.5,1c0.2,0.3,0.5,0.6,0.8,0.8
	c0.7-1,1-2.2,0.9-3.4c0-0.1,0-0.3-0.1-0.4c-0.2-0.3-0.5-0.6-0.8-0.9c-0.5-0.4-1-0.8-1.6-1c-0.4-0.1-0.8-0.2-1.2-0.3
	c-0.8-0.1-1.7,0-2.5,0.2c-0.4,0.1-0.8,0.3-1.1,0.5c-0.1,0.1-0.2,0.2-0.3,0.3c-0.3,0.3-0.5,0.6-0.6,1c0,0.1,0,0.2-0.1,0.3
	c0,0.1,0,0.2,0,0.3c0,0.1,0,0.2,0,0.3c0,0.1,0,0.2,0.1,0.2s0.1,0.2,0.1,0.2c0.1,0.1,0.1,0.1,0.2,0.2c0.1,0.1,0.1,0.1,0.2,0.2
	c0.1,0,0.2,0.1,0.2,0.1C525.8,274.4,526,274.4,526.1,274.4L526.1,274.4z"/>
</svg>
