<svg version="1.1" xmlns="http://www.w3.org/2000/svg" xmlns:xlink="http://www.w3.org/1999/xlink" width="30" height="30" viewBox="0 0 30 30">
<style type="text/css">
	.st0{fill:#FFFFFF;}
	.st1{fill:#665CA7;}
	.st2{fill-rule:evenodd;clip-rule:evenodd;fill:#FFFFFF;}
</style>
<path class="st0" d="M9.2,0h11.5C25.8,0,30,4.2,30,9.2v11.5c0,5.1-4.2,9.2-9.2,9.2H9.2C4.2,30,0,25.8,0,20.8V9.2C0,4.2,4.2,0,9.2,0z
	"/>
<path class="st1" d="M2.5,15c0,6.9,5.5,12.5,12.5,12.5c6.9,0,12.5-5.7,12.5-12.5c0-6.9-5.5-12.5-12.5-12.5C8.1,2.5,2.5,8.1,2.5,15z"
	/>
<path class="st2" d="M6.9,14.4C6.9,9.9,7.7,7,15,7c7.3,0,8.1,2.8,8.1,7.4c0,4.5-0.8,7.4-8.1,7.4h-1.3l-2.7,3.1
	c-0.2,0.2-0.3,0-0.3-0.1v-3.5c-0.3,0-1.5-0.6-1.8-0.9C7.6,19.2,6.9,18.3,6.9,14.4z M5.4,14.4c0-6.3,2.8-8.9,9.6-8.9
	c6.8,0,9.6,2.5,9.6,8.9c0,6.3-2.8,8.9-9.6,8.9c-0.5,0-0.9,0-1.6-0.1l-1.8,2.2c-0.3,0.3-1.4,0.6-1.4-0.7v-2.1c-0.3,0-1-0.3-2-0.9
	C7.2,21,5.4,19.5,5.4,14.4z"/>
<path class="st0" d="M20.3,17.9c0-0.1-0.1-0.1-0.1-0.2c-0.2-0.3-1.4-1.3-2-1.6c-0.3-0.2-0.6-0.2-0.8-0.2c-0.2,0-0.3,0.1-0.7,0.6
	c-0.1,0.1-0.2,0.3-0.3,0.3c-0.1,0.1-0.2,0.1-0.3,0.1c-0.3,0-0.8-0.2-1.3-0.5c-0.3-0.2-0.7-0.6-1-0.9c-0.3-0.3-0.6-0.8-0.8-1.2
	c-0.2-0.5-0.3-0.8-0.2-1c0-0.1,0.1-0.1,0.1-0.1s0.2-0.1,0.3-0.3c0.3-0.2,0.5-0.3,0.5-0.6c0.1-0.2,0.1-0.5-0.1-0.8
	c-0.1-0.2-0.3-0.6-0.6-0.9c-0.2-0.3-0.9-1.2-1-1.3c0,0.1-0.3,0.1-0.7,0.2c-0.3,0.1-0.9,0.7-1.2,1c-0.2,0.2-0.3,0.5-0.3,0.8
	c0,0.2,0,0.3,0.1,0.7c1,2.4,2.5,4.5,4.6,6c1,0.8,2.2,1.4,3.3,1.8c0.7,0.2,0.9,0.2,1.4,0c0.1-0.1,0.5-0.5,0.7-0.7
	c0.3-0.5,0.5-0.7,0.5-0.8C20.3,18.2,20.3,18,20.3,17.9z"/>
<path class="st0" d="M17.7,13.4c0-0.3-0.1-0.7-0.3-0.9c-0.2-0.3-0.6-0.5-1-0.6c-0.3-0.1-0.5-0.1-0.6,0c-0.1,0.1-0.1,0.3,0,0.5
	c0,0.1,0.1,0.1,0.3,0.1c0.2,0,0.5,0.1,0.6,0.2c0.3,0.2,0.5,0.5,0.5,0.9c0,0.2,0,0.2,0.1,0.3c0.1,0.1,0.3,0.1,0.5,0
	c0-0.1,0-0.1,0-0.2C17.7,13.6,17.7,13.4,17.7,13.4z"/>
<path class="st0" d="M18.9,13.7c-0.1-1-0.5-2-1.3-2.5c-0.5-0.3-0.9-0.6-1.5-0.7c-0.2,0-0.6-0.1-0.7,0c-0.1,0-0.1,0.1-0.2,0.1
	c0,0.1,0,0.2,0,0.3c0,0.1,0.1,0.2,0.5,0.2c0.5,0,0.9,0.2,1.3,0.5c0.3,0.2,0.7,0.7,0.9,1c0.2,0.3,0.2,0.9,0.2,1.4
	c0,0.2,0,0.2,0.1,0.3c0.1,0.1,0.2,0.1,0.3,0.1C18.9,14.3,18.9,14.2,18.9,13.7z"/>
<path class="st0" d="M20.2,14c0-0.6-0.1-1.2-0.3-1.6c-0.2-0.6-0.5-0.9-0.8-1.4c-0.3-0.5-0.7-0.7-1.2-1c-0.7-0.3-1.5-0.7-2.3-0.8
	c-0.3,0-0.3,0-0.5,0c-0.2,0.1-0.2,0.5,0,0.6c0.1,0,0.1,0,0.3,0.1c0.3,0,0.6,0.1,0.9,0.2c1.2,0.3,2,0.9,2.5,1.8
	c0.5,0.8,0.7,1.5,0.7,2.5c0,0.3,0,0.3,0,0.5c0.1,0.1,0.3,0.2,0.5,0c0.1-0.1,0.1-0.1,0.1-0.5C20.2,14.3,20.2,14.1,20.2,14z"/>
</svg>
