<svg version="1.1" xmlns="http://www.w3.org/2000/svg" xmlns:xlink="http://www.w3.org/1999/xlink" width="630" height="390" viewBox="0 0 630 390">
<style type="text/css">
	.st0{fill:#F8F8FF;}
	.st1{fill:#EAF1FC;}
	.st2{fill:#CDE4F7;}
	.st3{fill:#B4C9D6;}
	.st4{fill:#899BA3;}
	.st5{fill:#0B2B46;}
	.st6{fill:#1D4259;}
	.st7{fill:#448DCE;}
	.st8{fill:#DBA657;}
	.st9{fill:#EDB663;}
	.st10{fill:#FF524F;}
	.st11{fill:#9B7947;}
	.st12{fill:#0E2B3A;}
	.st13{fill:#4473CE;}
	.st14{fill:#1B4B76;}
	.st15{fill:#0F3456;}
	.st16{fill:#2C6292;}
	.st17{fill:#0F222C;}
	.st18{fill:#FFFFFF;}
	.st19{fill:#E08F73;}
	.st20{fill:#B6CAD5;}
	.st21{fill:#F09976;}
	.st22{fill:#E8815F;}
	.st23{fill:#047487;}
	.st24{fill:#05616B;}
	.st25{fill:#02819F;}
	.st26{fill:#FFDA35;}
</style>
<path class="st0" d="M608.5,344c10.5-32,44.2-254.6-45.2-305.3C505,5.6,444.1,48.3,381.6,50.2C332.5,51.8,285.3,15.6,241,5.4
	C125-21.6-57.4,48.6,22.7,321.8C223.3,321.3,608.5,344,608.5,344z"/>
<path class="st1" d="M630,335c0,0.9-0.1,1.8-0.4,2.6c-0.3,0.9-0.7,1.8-1.1,2.6c-0.6,0.9-1.2,1.8-1.9,2.6c-0.8,0.9-1.7,1.8-2.6,2.6
	c-1.1,0.9-2.2,1.8-3.4,2.6c-1.2,0.8-2.6,1.7-4.1,2.5s-3.1,1.7-4.8,2.5s-3.6,1.7-5.5,2.5c-2,0.8-4.1,1.7-6.2,2.4
	c-2.2,0.8-4.5,1.5-6.9,2.4c-2.4,0.9-5,1.5-7.6,2.2s-5.3,1.5-8.3,2.2c-2.9,0.7-5.7,1.5-8.9,2.2c-3.1,0.7-6.1,1.5-9.5,2
	c-3.3,0.7-6.5,1.3-10.1,2c-3.5,0.6-6.9,1.3-10.7,1.9c-3.7,0.6-7.3,1.2-11.2,1.8c-3.8,0.5-7.7,1.2-11.7,1.7c-4,0.6-8,1.1-12.2,1.7
	c-4.1,0.5-8.3,1.1-12.6,1.5c-4.3,0.5-8.6,0.9-13.1,1.5c-4.4,0.5-8.9,0.8-13.4,1.3s-9.1,0.8-13.8,1.2s-9.4,0.7-14.1,1.1
	c-4.7,0.4-9.6,0.6-14.4,0.9c-4.8,0.2-9.7,0.6-14.7,0.8c-4.9,0.2-9.9,0.5-14.9,0.7s-10,0.4-15,0.6c-5,0.2-10.1,0.4-15.1,0.5
	c-5,0.2-10.2,0.2-15.2,0.4s-10.3,0.2-15.3,0.2c-5.1,0-10.3,0.2-15.3,0.2s-10.3,0-15.4-0.2c-5.1-0.2-10.3-0.2-15.3-0.2
	c-5-0.2-10.2-0.2-15.2-0.4c-5-0.2-10.2-0.2-15.1-0.5c-5-0.2-10.1-0.4-15-0.6c-5-0.2-10-0.5-14.9-0.7c-4.9-0.2-9.8-0.5-14.7-0.8
	c-4.8-0.4-9.7-0.6-14.4-0.9c-4.8-0.4-9.5-0.7-14.1-1.1c-4.7-0.4-9.3-0.7-13.8-1.2c-4.5-0.4-9-0.8-13.5-1.3
	c-4.4-0.5-8.8-0.9-13.1-1.5c-4.3-0.5-8.5-0.9-12.6-1.5c-4.1-0.5-8.2-1.1-12.2-1.7c-4-0.6-7.9-1.1-11.7-1.7s-7.5-1.2-11.2-1.8
	c-3.6-0.6-7.1-1.2-10.7-1.9c-3.4-0.7-6.7-1.3-10.1-2c-3.3-0.7-6.3-1.3-9.5-2c-3.1-0.7-5.9-1.5-8.9-2.2c-2.9-0.7-5.5-1.5-8.3-2.2
	c-2.6-0.7-5.1-1.5-7.6-2.2c-2.4-0.7-4.7-1.5-6.8-2.4c-2.2-0.8-4.3-1.5-6.2-2.4c-2-0.8-3.8-1.7-5.5-2.5c-1.7-0.8-3.4-1.7-4.8-2.5
	c-1.5-0.8-2.9-1.7-4.1-2.5s-2.3-1.7-3.4-2.6c-0.9-0.8-1.8-1.7-2.6-2.6c-0.7-0.8-1.3-1.7-1.9-2.6c-0.5-0.8-0.9-1.7-1.1-2.6
	c-0.5-1.7-0.5-3.6,0-5.2c0.3-0.9,0.7-1.8,1.1-2.6c0.6-0.9,1.2-1.8,1.9-2.6c0.8-0.9,1.7-1.8,2.6-2.6c1.1-0.9,2.2-1.8,3.4-2.6
	c1.3-0.8,2.6-1.7,4.1-2.5s3.1-1.7,4.8-2.5c1.7-0.8,3.6-1.7,5.5-2.5c1.9-0.8,4.1-1.7,6.2-2.4c2.2-0.8,4.5-1.5,6.8-2.4
	c2.3-0.8,5-1.5,7.6-2.2c2.7-0.7,5.3-1.5,8.3-2.2c2.9-0.7,5.7-1.5,8.9-2.1c3.1-0.7,6.1-1.5,9.5-2c3.3-0.7,6.5-1.3,10.1-2
	c3.5-0.6,6.9-1.3,10.7-1.9c3.6-0.6,7.4-1.2,11.2-1.8s7.7-1.2,11.7-1.7c4-0.6,8-1.1,12.2-1.7c4.1-0.5,8.4-1.1,12.6-1.5
	c4.3-0.5,8.7-0.9,13.1-1.5c4.4-0.5,8.9-0.8,13.5-1.3c4.6-0.5,9.1-0.8,13.8-1.2c4.7-0.4,9.4-0.7,14.1-1.1s9.6-0.6,14.4-0.9
	c4.9-0.2,9.7-0.6,14.7-0.8c4.9-0.2,9.9-0.5,14.9-0.7c5-0.2,10-0.4,15-0.6s10.1-0.4,15.1-0.5c5-0.2,10.2-0.2,15.2-0.4
	c5-0.2,10.3-0.2,15.3-0.2s10.3-0.2,15.4-0.2s10.3,0,15.3,0.2c5,0,10.3,0.2,15.3,0.2c5,0.2,10.2,0.2,15.2,0.4s10.2,0.2,15.1,0.5
	c5,0.2,10.1,0.4,15,0.6c5,0.2,10,0.5,14.9,0.7c4.9,0.2,9.8,0.5,14.7,0.8c4.9,0.3,9.7,0.6,14.4,0.9c4.8,0.4,9.5,0.7,14.1,1.1
	c4.7,0.4,9.3,0.7,13.8,1.2c4.5,0.4,9,0.8,13.4,1.3c4.4,0.5,8.8,0.9,13.1,1.5c4.3,0.5,8.5,0.9,12.6,1.5c4.1,0.5,8.2,1.1,12.2,1.7
	c4,0.6,7.9,1.1,11.7,1.7s7.5,1.2,11.2,1.8c3.6,0.6,7.1,1.2,10.7,1.9c3.4,0.6,6.7,1.3,10.1,2c3.3,0.7,6.3,1.3,9.5,2
	c3.1,0.7,5.9,1.5,8.9,2.1c2.9,0.7,5.5,1.5,8.3,2.2c2.7,0.7,5.1,1.5,7.6,2.2c2.4,0.7,4.7,1.5,6.9,2.4c2.2,0.8,4.3,1.5,6.2,2.4
	c1.9,0.8,3.8,1.7,5.5,2.5s3.4,1.7,4.8,2.5c1.5,0.8,2.9,1.7,4.1,2.5c1.2,0.8,2.3,1.7,3.4,2.6c0.9,0.8,1.8,1.7,2.6,2.6
	c0.7,0.8,1.3,1.7,1.9,2.6c0.5,0.8,0.9,1.7,1.1,2.6C629.9,333.2,630,334.2,630,335z"/>
<path class="st2" d="M299.2,99.6c12.8,7,5-3.6,15.6-11.7c2.8-2.2,6.7-1.8,9.8-0.1c3.1,1.7,5.5,4.5,7.8,7.4c1.7-4.2,5.6-7,9.7-7.1
	c9.2-0.2,10,10.4,16.7,13.9c10.4-22.9,34.3-11.7,42.7,4.9c10.8-15.1,33.8-29.1,50.7-19.4c12.5,7.1,18.7,33,34.3,32.1
	c9.9-0.5,16.1-13,25.7-15.2c8.3-1.8,16.2,4.3,22.8,10.2c3.5-21.1,26.5-35.3,44.6-27.5c3.8,1.6,7.7,4.4,9,8.7c0.8,2.6,0.6,5.4,1.4,8
	c2.4,7.1,11,8.1,16.9,12.1c16.3,11,5.9,57.4,6.2,75.9c0.1,9.4,0.4,19-1.4,28.3c-6.3,31.9-31.8,32-56.3,29.3
	c-35.1-3.8-70.2-7.6-105.3-11.3c-29.7-3.2-62.5-13.1-91.1-1.6c-8.7,3.6-16.4,11.8-25,14.7c-28.9,9.7-60.2-9.7-87.6-15.7
	c-34.5-7.6-67.6-22.9-102.8-26.3c-15.1-1.5-30.8-0.6-45-6.4c-7.7-3.1-15.1-8.3-19.1-16.3c-2.5-5.2-3.5-11-3.5-16.9
	c-0.1-26.6,17.8-48.7,34.6-67.9c3.9-4.4,8.1-9.1,13.5-10.6c5-1.3,10.2,0,15.2,1.5c12.3,3.7,25.2,8.2,33.6,19.6
	c-0.4-11.2,2.9-23.3,6.5-33.9c0.3-0.9,0.6-1.7,1.3-2.2c0.9-0.6,2.2-0.4,3.2,0.1c5.8,2.9,7.9,10.8,9.3,17.7c1.5,7.1,3,14.1,4.4,21.2
	c-3-14.5,10.1-22.9,21.1-25.4c5.2-1.1,12.7-1.8,17.8,0.1c2.4,0.9,17.1,14.1,17.2,13.9c4.5-5.5,9.3-11.3,15.7-13.9
	c8.3-3.4,20.3,4,27.6,8.3C297.7,98.7,298.5,99.1,299.2,99.6z"/>
<path class="st3" d="M366.7,215.6c12.1-7.9,26.2-14,41.1-14.5c14.9-0.5,30.5,5.3,38.4,16.8c14.4-14.7,41.1-17.4,58.6-6.1
	c2,1.3,4.3,2.9,6.8,2.6c1.8-0.2,3.3-1.4,4.7-2.5c9.8-7.3,22.8-11.5,35.2-9.3c12.4,2.2,23.5,11.4,25.1,22.9
	c11.9-4.1,26.2,0.7,34.1,9.8c4.5,5.1,8,12.1,2.7,17.7c-2.9,3-8.2,2.8-11.1,5.1c-3.4,2.7-3.6,9-5.8,12.7c-0.8,1.3-1.6,2.6-3,3.4
	c-2.1,1.3-5.1,1.3-7.8,1.2c-46.7-1.4-93.5-1.9-140.3-1.2c-11.5,0.2-23.1,0.4-34.2-1.9c-11.4-2.3-21.7-7-31.4-12.1
	c-4.9-2.6-8.1-4.9-13.6-5.5c-5.7-0.6-12.4,0.4-18.1,0.7c-13.2,0.6-29.5,6.3-42.3,1.9c-3.9-1.4-18-22.7-15.2-23.5
	c15-3.9,17-20.9,33-25.8C338,203.5,355.4,205.9,366.7,215.6z"/>
<path class="st4" d="M457.2,269.4c-1,0-1.9,1-1.9,2.2v1.2c0,0.9-0.7,1.7-1.5,1.7h-9.5c-0.8,0-1.5-0.8-1.5-1.7v-1.2
	c0-1.2-0.9-2.2-1.9-2.2s-1.9,1-1.9,2.2v14.6c0,1.2,0.9,2.2,1.9,2.2s1.9-1,1.9-2.2v-1.1c0-0.9,0.6-1.6,1.4-1.6h9.6
	c0.8,0,1.4,0.7,1.4,1.6v1.1c0,1.2,0.9,2.2,1.9,2.2s1.9-1,1.9-2.2v-14.6C459.1,270.3,458.2,269.4,457.2,269.4z"/>
<path class="st5" d="M414,296.8v-3.9c0-2.6-2.7-4.5-5.8-4.5l-5.7-1.9H16l-2,1.9c1,4.3,2,8.6,3.1,13h391.1
	C411.3,301.4,414,299.4,414,296.8z"/>
<path class="st6" d="M433.4,288.4c3.1,0,5.6-1.9,5.6-4v-11.9c0-2.1-2.5-4.1-5.6-4.1H428l-2.5-2.4L16,264l-6.2,4.4
	c1.2,6.5,2.6,13.2,4.2,20h394.2H433.4z"/>
<path class="st7" d="M428,136.3c0-2.2-2.6-3.9-5.2-3.9H11.3c-9.9,36.5-11.6,81.4-1.5,136H428V136.3z"/>
<path class="st4" d="M25.8,331.4l2.3-7h18l2.3,7h17.4l2.3-7h18l2.3,7h17.4l2.3-7h18l2.3,7h17.4l2.3-7h18l2.3,7h17.4l2.3-7h18l2.3,7
	h17.4l2.3-7h18l2.3,7h17.4l2.3-7h18l2.3,7h17.4l2.3-7h18l2.3,7h17.4l2.3-7h18l2.3,7h17.4l2.3-7h18l2.3,7h17.4l2.3-7h18l2.3,7h17.4
	l2.3-7h18l2.3,7h17.4l2.3-7h18l2.3,7h17.4l2.3-7h18l2.3,7h17.4l2.3-7h18l2.3,7h17.4l1.2-3.7c-0.1-0.2-0.3-0.4-0.4-0.5
	c-0.8-0.9-1.7-1.8-2.6-2.6c-1.1-0.9-2.2-1.8-3.4-2.6c-1.2-0.8-2.6-1.7-4.1-2.5c-0.1,0-0.1-0.1-0.2-0.1H15.6c-0.1,0-0.1,0.1-0.2,0.1
	c-1,0.6-2,1.2-2.9,1.7c-0.4,0.3-0.8,0.5-1.2,0.8c-1.2,0.8-2.3,1.7-3.4,2.6c-0.4,0.4-0.9,0.8-1.3,1.2l1.8,5.6H25.8z"/>
<path class="st5" d="M501,292.9v3.9c0,2.6,2.2,4.6,5.3,4.6h110.6c0.6-4.1,1.2-8.5,1.7-13l-1.7-1.9H508.5l-2.2,1.9
	C503.2,288.4,501,290.3,501,292.9z"/>
<path class="st6" d="M511,268h0.1h-27c-3.1,0-6.1,1.9-6.1,3.8v7.6v0.6v3.4c0,2.6,3,5,6.1,5h22.2h112.3c0.7-5.5,1.3-11.4,1.9-17.4
	l-1.9-3H511z"/>
<path class="st8" d="M613,168c-4.1,0-7.4,3-7.4,8h16.8c-0.2-2.7-0.4-5.3-0.6-8H617H613z"/>
<path class="st9" d="M527,176c-25.9,0-47,20.8-47,46.7c0,6.8,1.5,13,4.1,18.9c0,0,0,0,0.1,0c8,6.6,18.2,10.4,29.3,10.4H622
	c0.5-7.5,0.9-15.2,1.1-23H495.8c-3.2,0-5.8-2.3-5.8-5.5s2.6-5.5,5.8-5.5h127.6c0.2-13.8-0.1-28-1.1-42h-16.8H527z"/>
<path class="st10" d="M490,223.5c0,3.2,2.6,5.5,5.8,5.5h127.4c0.1-3.6,0.2-7.3,0.2-11H495.8C492.6,218,490,220.3,490,223.5z"/>
<path class="st11" d="M484.2,241.6c-0.2-0.1-0.3-0.2-0.5-0.3c5.1,12.3,15,22.1,27.4,26.7c3,1.1,6.1,1.9,9.3,2.4
	c2.1,0.3,4.3,0.6,6.6,0.6h93.5c0.6-6.1,1.1-12.5,1.5-19H513.5C502.4,252,492.2,248.2,484.2,241.6z"/>
<path class="st12" d="M269.4,259.7H128.2V147.4c0-1.8,0.7-3.3,1.5-3.3h138.2c0.8,0,1.5,1.5,1.5,3.3V259.7z"/>
<path class="st13" d="M208.8,258.1c-5.7,1-11.4,1.5-17.1,1.5c-5.4,0.1-10.8-0.4-16.1-1.5h-0.1c-1.2,0.6-2.6,0.9-4,1
	c-0.4,0-0.7,0-1.1-0.1c-0.2,0-0.4-0.1-0.5-0.2c-0.2-0.1-0.3-0.2-0.4-0.4c-0.1-0.3-0.1-0.6,0-0.9s0.2-0.6,0.4-0.8
	c0.2-0.4,0.4-0.8,0.6-1.2c0.4-0.8,0.7-1.5,1.2-2.2v-0.1c0-0.1,0-0.1,0-0.2c-0.9-6.8-1.4-13.6-1.4-20.4v-3.4
	c0.1-6.8,0.6-13.6,1.5-20.3c0-0.1,0-0.1,0-0.2l-0.1-0.1c-0.4-0.7-0.8-1.5-1.2-2.2c-0.2-0.4-0.4-0.8-0.6-1.2
	c-0.2-0.2-0.3-0.5-0.4-0.8c-0.1-0.3-0.1-0.6,0-0.9c0.1-0.2,0.2-0.3,0.4-0.4c0.2-0.1,0.4-0.2,0.5-0.2c1.7-0.2,3.5,0.1,5.1,0.9h0.1
	c3.2-0.8,14-1.7,16.4-1.7h0.3c2.4,0,13.2,0.9,16.4,1.7h0.1c1.6-0.8,3.3-1.1,5.1-0.9c0.2,0,0.4,0.1,0.5,0.2c0.2,0.1,0.3,0.2,0.4,0.4
	c0.1,0.3,0.1,0.6,0,0.9c-0.1,0.3-0.2,0.6-0.4,0.8c-0.2,0.4-0.4,0.8-0.6,1.2c-0.4,0.8-0.8,1.6-1.2,2.3v0.1c0,0.1-0.1,0.1,0,0.2
	c0.9,6.8,1.4,13.6,1.4,20.4v3.4c-0.1,6.8-0.6,13.6-1.4,20.4c0,0.1,0,0.1,0,0.2v0.1c0.4,0.7,0.8,1.5,1.2,2.3c0.2,0.4,0.4,0.8,0.6,1.2
	c0.2,0.2,0.3,0.5,0.4,0.8c0.1,0.3,0.1,0.6,0,0.9c-0.1,0.2-0.2,0.3-0.4,0.4c-0.2,0.1-0.4,0.2-0.5,0.2c-1.7,0.2-3.5-0.1-5.1-0.9V258.1
	z"/>
<path class="st14" d="M171.4,253.2l0.1-0.1c-0.4-3.1-0.7-6.2-0.9-9.3c1.2,4,3.1,7.6,6.6,10.3c5.6,4.3,13.6,4.4,20.1,3.5
	c6-0.9,11.9-3.4,14.9-9.5c0.7-1.5,1.3-3.1,1.7-4.7c-0.3,3.3-0.6,6.5-1,9.8l0.1,0.1c0.7,1.1,1.2,2.3,1.8,3.5c0.7,1.3,0.7,2.4-0.8,2.7
	c-1.8,0.2-3.6-0.1-5.2-0.9c-3.3,0.9-19.4,2.8-33.2,0c-1.6,0.8-3.4,1.1-5.2,0.9c-1.5-0.3-1.4-1.3-0.8-2.7
	C170.2,255.5,170.7,254.3,171.4,253.2z M205.1,234.7l2.4-12.5l-26.5-5l-2.4,12.5L205.1,234.7z M205,223.8l-1.6,8.4L181,228l1.6-8.4
	L205,223.8z M128.1,235.4c2.1-1.7,4.7-2.7,7.4-2.8h13.8c5.8,0,10.4,4.7,11.3,8.4c1.2,0.5,2.3,1.2,2.3,2.6c0,0.6-1.5,0.9-3.1,1.1
	c-1.2,1.2-3.4,1.4-5.8,1.4h-23c-0.9,0-1.9,0-2.8-0.1L128.1,235.4z"/>
<path class="st15" d="M128,244.1c11.1,0.6,22.2,0.4,33.2-0.5c0.1,0.1,0.2,0.2,0.3,0.3l0.1,0.1l0.1,0.2c-5.1,1-9,3.1-20.9,3.1
	c-4.3,0.1-8.6-0.3-12.8-1.1V244.1z"/>
<path class="st7" d="M128.1,235.4c2.1-1.7,4.7-2.7,7.4-2.8h13.8c2.1,0.1,4.2,0.7,6,1.8c1.8,1.1,3.3,2.7,4.4,4.5
	c-3-0.9-6-1.5-9.1-1.8c-4.1-0.4-8.2-0.5-12.3-0.3c-3.4,0.1-6.8,0.5-10.2,1.1V235.4z"/>
<path class="st14" d="M128.1,248.8c2.1-1.7,4.7-2.7,7.4-2.8h13.8c5.8,0,10.4,4.7,11.3,8.4c1.2,0.5,2.3,1.2,2.3,2.6
	c0,0.6-1.5,0.9-3.1,1.1c-1.2,1.2-3.4,1.4-5.8,1.4h-23c-0.9,0-1.9,0-2.8-0.1L128.1,248.8z"/>
<path class="st15" d="M128.1,256.6c11.1,0.6,22.2,0.4,33.2-0.5c0.1,0.1,0.2,0.2,0.3,0.3l0.1,0.1l0.1,0.2c-5.1,1-9,3.1-20.9,3.1
	c-4.3,0.1-8.6-0.3-12.8-1.1V256.6z"/>
<path class="st7" d="M128.1,248.8c2.1-1.7,4.7-2.7,7.4-2.8h13.8c2.1,0.1,4.2,0.7,6,1.8c1.8,1.1,3.3,2.7,4.4,4.5
	c-3-0.9-6-1.5-9.1-1.8c-4.1-0.4-8.2-0.5-12.3-0.3c-3.4,0.1-6.8,0.5-10.2,1.1V248.8z"/>
<path class="st14" d="M128.1,218.4h0.3c5.8,0,10.4,4.7,11.3,8.4c1.2,0.5,2.3,1.2,2.3,2.6c0,0.6-1.5,0.9-3.1,1.1
	c-1.2,1.2-3.3,1.4-5.9,1.4h-4.9V218.4z"/>
<path class="st7" d="M128.1,218.4h0.3c2.1,0.1,4.2,0.7,6,1.8c1.8,1.1,3.3,2.7,4.4,4.5c-3-0.9-6-1.5-9.1-1.8
	c-0.6-0.1-1.1-0.1-1.7-0.1L128.1,218.4z"/>
<path class="st14" d="M162.2,256.7c0-1.4,1.1-2.1,2.3-2.6c0.8-3.7,5.6-8.4,11.3-8.4h13.8c5.8,0,10.4,4.7,11.3,8.4
	c1.2,0.5,2.3,1.2,2.3,2.6c0,0.6-1.5,0.9-3.1,1.1c-1.2,1.2-3.3,1.4-5.8,1.4h-23c-2.5,0-4.7-0.2-5.9-1.4
	C163.7,257.6,162.2,257.3,162.2,256.7z"/>
<path class="st15" d="M163.1,256.5l0.1-0.2l0.1-0.1l0.1-0.1l0.2-0.2c12.7,0.9,25.4,0.9,38.1-0.2l0.3,0.3l0.1,0.1l0.1,0.2
	c-5.1,1-9,3.1-20.9,3.1c-12.3,0-15.1-1.8-18.2-2.7V256.5z"/>
<path class="st7" d="M190.9,250.1c-4.1-0.4-8.2-0.5-12.3-0.3c-4.1,0.1-8.3,0.6-12.3,1.5l-0.6,0.2c1.9-3,5.7-5.8,10.1-5.8h13.8
	c2.1,0.1,4.2,0.7,6,1.8c1.8,1.1,3.3,2.7,4.4,4.5C197,251.1,194,250.5,190.9,250.1z"/>
<path class="st14" d="M158.1,243.7c0-1.4,1.1-2.1,2.3-2.6c0.8-3.7,5.6-8.4,11.3-8.4h13.8c5.8,0,10.5,4.7,11.3,8.4
	c1.2,0.5,2.3,1.2,2.3,2.6c0,0.6-1.5,0.9-3.1,1.1c-1.2,1.2-3.4,1.4-5.9,1.4h-23c-2.5,0-4.7-0.2-5.9-1.4
	C159.6,244.6,158.1,244.3,158.1,243.7z"/>
<path class="st15" d="M158.9,243.5l0.1-0.2l0.1-0.1l0.1-0.1l0.2-0.2c12.7,1,25.4,0.9,38.1-0.2l0.3,0.3l0.1,0.1l0.1,0.2
	c-5.1,1-9,3.1-20.9,3.1c-12.3,0-15.1-1.9-18.2-2.7C158.9,243.6,158.9,243.6,158.9,243.5z"/>
<path class="st7" d="M186.8,237.2c-4.1-0.4-8.2-0.5-12.3-0.3c-4.1,0.1-8.3,0.6-12.3,1.5l-0.6,0.1c1.9-3,5.7-5.8,10.1-5.8h13.8
	c2.1,0.1,4.2,0.7,6,1.8s3.3,2.7,4.4,4.5C192.9,238.1,189.9,237.5,186.8,237.2z"/>
<path class="st16" d="M39.6,255.5c0,1.9-2.1,3.5-4.7,3.5c-2.6,0-4.7-1.5-4.7-3.5V146c0-1.9,2.1-3.5,4.7-3.5c2.6,0,4.7,1.5,4.7,3.5
	V255.5z"/>
<path class="st16" d="M76.2,255.5c0,1.9-2.1,3.5-4.8,3.5c-2.6,0-4.7-1.5-4.7-3.5V146c0-1.9,2.1-3.5,4.7-3.5s4.8,1.5,4.8,3.5V255.5z"
	/>
<path class="st16" d="M112.9,255.5c0,1.9-2.1,3.5-4.7,3.5c-2.6,0-4.7-1.5-4.7-3.5V146c0-1.9,2.1-3.5,4.7-3.5c2.6,0,4.7,1.5,4.7,3.5
	V255.5z"/>
<path class="st16" d="M296.4,255.5c0,1.9-2.1,3.5-4.7,3.5c-2.6,0-4.8-1.5-4.8-3.5V146c0-1.9,2.1-3.5,4.8-3.5c2.6,0,4.7,1.5,4.7,3.5
	V255.5z"/>
<path class="st16" d="M333.1,255.5c0,1.9-2.1,3.5-4.8,3.5c-2.6,0-4.7-1.5-4.7-3.5V146c0-1.9,2.1-3.5,4.7-3.5c2.6,0,4.8,1.5,4.8,3.5
	V255.5z"/>
<path class="st16" d="M369.7,255.5c0,1.9-2.1,3.5-4.7,3.5s-4.7-1.5-4.7-3.5V146c0-1.9,2.1-3.5,4.7-3.5s4.7,1.5,4.7,3.5V255.5z"/>
<path class="st16" d="M406.4,255.5c0,1.9-2.1,3.5-4.7,3.5c-2.6,0-4.7-1.5-4.7-3.5V146c0-1.9,2.1-3.5,4.7-3.5c2.6,0,4.7,1.5,4.7,3.5
	V255.5z"/>
<path class="st17" d="M53,305c0,8-6.5,14.4-14.4,14.4c-8,0-14.4-6.5-14.4-14.4c0-8,6.5-14.4,14.4-14.4C46.6,290.6,53,297.1,53,305z"
	/>
<path class="st18" d="M38.6,310.7c3.1,0,5.7-2.6,5.7-5.7s-2.6-5.7-5.7-5.7c-3.1,0-5.7,2.6-5.7,5.7S35.5,310.7,38.6,310.7z"/>
<path class="st17" d="M97.2,305.2c0,8-6.5,14.4-14.4,14.4c-8,0-14.4-6.5-14.4-14.4c0-8,6.5-14.4,14.4-14.4S97.2,297.2,97.2,305.2z"
	/>
<path class="st18" d="M82.8,310.9c3.1,0,5.7-2.6,5.7-5.7c0-3.1-2.6-5.7-5.7-5.7c-3.1,0-5.7,2.6-5.7,5.7
	C77.1,308.3,79.7,310.9,82.8,310.9z"/>
<path class="st17" d="M209.3,305c0,8-6.5,14.4-14.4,14.4c-8,0-14.4-6.5-14.4-14.4c0-8,6.5-14.4,14.4-14.4
	C202.8,290.6,209.3,297.1,209.3,305z"/>
<path class="st18" d="M194.8,310.7c3.1,0,5.7-2.6,5.7-5.7s-2.6-5.7-5.7-5.7c-3.1,0-5.7,2.6-5.7,5.7S191.7,310.7,194.8,310.7z"/>
<path class="st17" d="M253.4,305.3c0,8-6.5,14.4-14.4,14.4c-8,0-14.4-6.5-14.4-14.4c0-8,6.5-14.4,14.4-14.4
	C247,290.9,253.4,297.4,253.4,305.3z"/>
<path class="st18" d="M239,311c3.1,0,5.7-2.6,5.7-5.7c0-3.1-2.6-5.7-5.7-5.7s-5.7,2.6-5.7,5.7C233.3,308.4,235.9,311,239,311z"/>
<path class="st17" d="M404.1,305.2c0,8-6.5,14.4-14.4,14.4c-8,0-14.4-6.5-14.4-14.4c0-8,6.5-14.4,14.4-14.4
	C397.7,290.8,404.1,297.2,404.1,305.2z"/>
<path class="st18" d="M389.7,310.9c3.1,0,5.7-2.6,5.7-5.7c0-3.1-2.6-5.7-5.7-5.7c-3.1,0-5.7,2.6-5.7,5.7
	C384,308.3,386.6,310.9,389.7,310.9z"/>
<path class="st17" d="M362.1,305.2c0,8-6.5,14.4-14.4,14.4c-8,0-14.4-6.5-14.4-14.4c0-8,6.5-14.4,14.4-14.4
	C355.7,290.8,362.1,297.2,362.1,305.2z"/>
<path class="st18" d="M347.7,310.9c3.1,0,5.7-2.6,5.7-5.7c0-3.1-2.6-5.7-5.7-5.7c-3.1,0-5.7,2.6-5.7,5.7
	C342,308.3,344.6,310.9,347.7,310.9z"/>
<path class="st4" d="M476.2,269.4c-1,0-1.9,1-1.9,2.2v1.2c0,0.9-0.7,1.7-1.5,1.7h-9.5c-0.8,0-1.5-0.8-1.5-1.7v-1.2
	c0-1.2-0.9-2.2-1.9-2.2s-1.9,1-1.9,2.2v14.6c0,1.2,0.9,2.2,1.9,2.2s1.9-1,1.9-2.2v-1.1c0-0.9,0.6-1.6,1.4-1.6h9.6
	c0.8,0,1.4,0.7,1.4,1.6v1.1c0,1.2,0.9,2.2,1.9,2.2s1.9-1,1.9-2.2v-14.6C478.1,270.3,477.2,269.4,476.2,269.4z"/>
<path class="st17" d="M557,299.5c-2.2-5.2-7.3-8.9-13.3-8.9c-5.7,0-10.7,3.4-13,8.2C539.5,298.7,548.3,298.6,557,299.5z"/>
<path class="st17" d="M601.2,299.7c-2.2-5.2-7.3-8.9-13.3-8.9c-5.7,0-10.7,3.4-13,8.2C583.7,298.9,592.4,298.8,601.2,299.7z"/>
<path class="st17" d="M558.1,305c0,8-6.5,14.4-14.4,14.4c-8,0-14.4-6.5-14.4-14.4c0-8,6.5-14.4,14.4-14.4
	C551.6,290.6,558.1,297.1,558.1,305z"/>
<path class="st18" d="M543.7,310.7c3.1,0,5.7-2.6,5.7-5.7s-2.6-5.7-5.7-5.7c-3.1,0-5.7,2.6-5.7,5.7S540.6,310.7,543.7,310.7z"/>
<path class="st17" d="M602.2,305.2c0,8-6.5,14.4-14.4,14.4c-8,0-14.4-6.5-14.4-14.4c0-8,6.5-14.4,14.4-14.4
	C595.8,290.8,602.2,297.2,602.2,305.2z"/>
<path class="st18" d="M587.8,310.9c3.1,0,5.7-2.6,5.7-5.7c0-3.1-2.6-5.7-5.7-5.7c-3.1,0-5.7,2.6-5.7,5.7
	C582.1,308.3,584.7,310.9,587.8,310.9z"/>
<path class="st19" d="M359.8,272.7c-0.3,0-0.7,0.5-1.2,1.6c-0.3,0.5-0.5,1.1-0.9,1.9c-0.3,0.7-0.7,1.5-1.1,2.4s-0.9,1.7-1.5,2.6
	c-0.6,0.8-1.3,1.6-2,2.3c-0.4,0.3-0.8,0.6-1.2,0.9c-0.4,0.3-0.9,0.5-1.4,0.7c-0.4,0.2-0.9,0.3-1.4,0.4c-0.1,0-0.3,0-0.4,0h-0.4h-0.7
	c-1,0-2-0.2-3-0.5c-0.5-0.2-1-0.4-1.5-0.6c-0.3-0.1-0.5-0.2-0.7-0.3c-0.2-0.1-0.5-0.2-0.7-0.4c-0.5-0.3-0.9-0.5-1.3-0.7
	c-0.4-0.3-0.8-0.5-1.2-0.8c-0.7-0.6-1.5-1.1-2.3-1.7c-0.8-0.6-1.4-1-2-1.5c-0.6-0.4-1.2-0.8-1.8-1.1c-0.5-0.3-1-0.4-1.5-0.5
	c-0.4-0.1-0.8,0-1.1,0.2c-0.3,0.2-0.6,0.6-0.7,1c-0.1,0.5-0.2,1.1-0.1,1.6c0.1,0.8,0.3,1.5,0.6,2.2c0.4,0.9,0.8,1.9,1.4,2.7
	c0.7,1.1,1.5,2,2.4,2.9c0.5,0.5,1.1,1,1.6,1.5c0.6,0.5,1.3,0.9,2,1.3c0.4,0.2,0.7,0.4,1.1,0.6c0.4,0.2,0.7,0.4,1.1,0.5
	c0.8,0.3,1.7,0.6,2.5,0.9c1.9,0.5,3.9,0.6,5.8,0.4c0.5-0.1,1-0.2,1.5-0.3l0.7-0.2c0.3-0.1,0.5-0.2,0.7-0.3c0.9-0.4,1.8-0.8,2.6-1.4
	c0.8-0.5,1.5-1.1,2.1-1.8c0.6-0.6,1.1-1.3,1.6-2c0.4-0.6,0.8-1.3,1.2-2c0.3-0.6,0.6-1.3,0.8-2c0.4-1.2,0.6-2.4,0.7-3.6
	c0.1-1,0.2-1.9,0.1-2.9c0-0.7,0-1.4-0.1-2.1C360.3,273.4,360.1,272.7,359.8,272.7z"/>
<path class="st20" d="M366.5,275c1.7-4.9,2.8-9.8,3.5-14.9c0.7-4.8,1-9.6,0.8-14.4v-0.1c0.7-1,1.2-2.2,1.4-3.4c0-0.3,0.1-0.6,0.1-1
	c0-0.2,0-0.3-0.1-0.5c-0.1-0.2-0.2-0.3-0.3-0.4c-0.3-0.1-0.5-0.1-0.8-0.1c-0.3,0-0.5,0.1-0.8,0.2l-1.1,0.4c-0.7,0.2-1.5,0.5-2.1,0.8
	H367c-0.1,0-0.1,0-0.2,0c-5.9-1.7-11.8-3-17.8-3.9l-1.1-0.2h-0.3l-0.4-0.1c-0.4-0.1-0.7-0.1-1.1-0.2c-6-0.8-12.1-1.3-18.2-1.4
	c-0.1,0-0.1,0-0.2-0.1l-0.1-0.1c-0.6-0.5-1.2-0.9-1.8-1.4l-1-0.7c-0.2-0.2-0.4-0.3-0.7-0.4c-0.2-0.1-0.5-0.1-0.8-0.1
	c-0.3,0.1-0.5,0.3-0.6,0.8c-0.4,1.5-0.4,3.1,0.1,4.6v0.1c-1.1,2.7-3.3,12.1-3.6,14.2v0.3c-0.3,2.2-0.9,11.8-0.6,14.7v0.1
	c-0.9,1.3-1.4,2.8-1.4,4.3c0,0.2,0,0.3,0.1,0.5c0.1,0.2,0.2,0.3,0.3,0.4c0.3,0.1,0.5,0.1,0.8,0.1c0.3,0,0.5-0.1,0.8-0.2l1.1-0.4
	c0.7-0.2,1.5-0.5,2.2-0.8h0.1c0.1,0,0.1,0,0.2,0c5.9,1.7,11.8,3,17.8,3.9l3,0.4c6,0.8,12.1,1.3,18.2,1.4h0.1h0.1h0.1
	c0.6,0.5,1.2,0.9,1.8,1.4c0.3,0.2,0.7,0.4,1,0.7c0.2,0.2,0.4,0.3,0.7,0.4c0.2,0.1,0.5,0.1,0.8,0.1c0.2-0.1,0.3-0.2,0.4-0.3
	c0.1-0.1,0.2-0.3,0.2-0.5C367.1,278.1,367.1,276.5,366.5,275C366.6,275,366.5,275,366.5,275z"/>
<path class="st4" d="M367,241.3c0,0-0.1,0-0.1,0.1c-2.7-0.7-5.4-1.4-8.1-2c3.4,1.6,6.3,3.8,8.2,7.2c3.1,5.5,2.1,12.6,0.5,18.2
	c-1.5,5.2-4.5,10-10.3,11.9c-1.4,0.5-2.9,0.8-4.3,0.9c2.9,0.2,5.8,0.3,8.8,0.4l0.1,0.1c0.9,0.7,1.9,1.4,2.8,2c1.1,0.8,2,0.9,2.4-0.3
	c0.4-1.5,0.4-3.2-0.1-4.7c1.2-2.8,5-16.8,4.3-29.4c0.9-1.3,1.4-2.9,1.5-4.5c0-1.4-1-1.5-2.2-1C369.2,240.6,368.1,240.9,367,241.3z
	 M346.3,268.7l-11.4,0.5l-1-24.1l11.4-0.5L346.3,268.7z M336.7,267.2l7.6-0.3l-0.8-20.4l-7.6,0.3L336.7,267.2z"/>
<path class="st18" d="M343,287.7c0.2,6,0,11.9-0.5,17.9c-5.7,1.7-11.8,2-17.7,0.9c-0.2-6.1-0.4-12.1-0.2-18.2c0-3.2,0.4-6.4,1.3-9.4
	c0.8-2.7,2.5-5.1,4.8-6.8c0.3-0.2,0.5-0.4,0.8-0.5c0.8,0.6,1.7,1,2.7,1.2c1,0.2,2,0.1,2.9-0.2c0.8,0.6,1.5,1.3,2.1,2
	c1.1,1.4,2,3.1,2.5,4.8C342.6,282.1,343,284.9,343,287.7z"/>
<path class="st21" d="M339.3,274.5c-2.3,0.5-4.8,0.2-6.8-1.1c-0.6-0.3-1.1-0.7-1.6-1.2v-0.5c0-0.2,0.1-0.3,0.1-0.5
	c0.3-1.7,0.7-3.4,0.9-5.1c0.2-1.6,0.5-3.1,0.7-4.7c1.7,0.9,3.4,2,4.9,3.2c0,1.1,0,2.1,0.1,3.2c0,0.9,0.1,1.8,0.2,2.7
	c0,0.5,0.1,1,0.2,1.5s0.1,0.9,0.2,1.4C338.7,273.8,339,274.1,339.3,274.5z"/>
<path class="st22" d="M337.9,270.6c-1.8-1.7-3.9-3.2-6.1-4.4c0.3-1.6,0.5-3.1,0.7-4.7c1.8,0.9,3.4,2,4.9,3.2c0,1.1,0,2.1,0.1,3.2
	C337.8,268.8,337.9,269.7,337.9,270.6z"/>
<path class="st5" d="M302.3,361.2c0,0-0.1,4.2,3.7,4.2l0.2,15l-9.9-18.2L302.3,361.2z"/>
<path class="st18" d="M304.4,380.7l-9.3-17.2c-0.1-0.1-0.1-0.3-0.1-0.4s0.1-0.3,0.2-0.3l1.1-0.6l9.9,18.2l-1.1,0.6
	c-0.1,0.1-0.3,0.1-0.4,0C304.6,380.9,304.5,380.9,304.4,380.7z M303.8,368.3C303.8,368.4,303.8,368.4,303.8,368.3
	c0.1,0.1,0.1,0.1,0.2,0.1c0.8,0.1,1.5,0.3,2.2,0.6h0.1h0.1c0,0,0.1,0,0.1-0.1l0.1-0.1c0-0.1,0-0.2,0-0.3s-0.1-0.2-0.1-0.2
	c-0.7-0.4-1.6-0.6-2.4-0.7H304h-0.1l-0.1,0.1v0.1c0,0.1,0,0.1,0,0.2C303.7,368.2,303.7,368.3,303.8,368.3z M303.8,370.3
	c0,0,0.1,0.1,0.2,0.1c0.8,0.1,1.5,0.3,2.2,0.6h0.1h0.1c0,0,0.1,0,0.1-0.1l0.1-0.1c0-0.1,0-0.2,0-0.3s-0.1-0.2-0.2-0.2
	c-0.7-0.4-1.6-0.6-2.4-0.7h-0.1h-0.1l-0.1,0.1v0.1c0,0.1,0,0.1,0,0.2C303.7,370.2,303.8,370.2,303.8,370.3z M303.9,372.1
	C303.9,372.2,304,372.2,303.9,372.1c0.1,0.1,0.1,0.1,0.2,0.1c0.8,0.1,1.5,0.3,2.2,0.6h0.1h0.1c0,0,0.1,0,0.1-0.1l0.1-0.1
	c0-0.1,0-0.2,0-0.3c0-0.1-0.1-0.2-0.1-0.2c-0.7-0.4-1.6-0.6-2.4-0.7h-0.1H304l-0.1,0.1v0.1C303.8,372,303.8,372.1,303.9,372.1z"/>
<path class="st5" d="M343.2,373.9c0,0,3.7,2,5.4-1.3l13.4,6.8l-20.6,0.3L343.2,373.9z"/>
<path class="st18" d="M361.4,381.2l-19.3,0.3c-0.2,0-0.4-0.1-0.5-0.2c-0.1-0.1-0.2-0.3-0.2-0.5v-1.1l20.6-0.3v1.1c0,0.1,0,0.2,0,0.3
	c0,0.1-0.1,0.2-0.1,0.2c-0.1,0.1-0.1,0.1-0.2,0.2C361.6,381.2,361.5,381.2,361.4,381.2z M350.2,376c0.1,0,0.1-0.1,0.1-0.1
	c0.4-0.6,1-1.1,1.6-1.6c0.1,0,0.1-0.1,0.1-0.2s0-0.2,0-0.2c-0.1-0.1-0.1-0.1-0.2-0.1c-0.1,0-0.2,0-0.2,0.1c-0.7,0.5-1.3,1.1-1.7,1.8
	c0,0.1-0.1,0.2-0.1,0.2c0,0.1,0.1,0.2,0.1,0.2c0.1,0,0.1,0,0.2,0L350.2,376z M352,376.8c0.1,0,0.1-0.1,0.1-0.1
	c0.4-0.6,1-1.1,1.6-1.6c0.1,0,0.1-0.1,0.1-0.2s0-0.2,0-0.2c-0.1-0.1-0.1-0.1-0.2-0.1s-0.2,0-0.2,0.1c-0.7,0.5-1.3,1.1-1.7,1.8
	c-0.1,0.1-0.1,0.2-0.1,0.2l0.1,0.2C351.7,376.9,351.9,376.9,352,376.8z M353.7,377.6c0.1,0,0.1-0.1,0.1-0.1c0.4-0.6,1-1.1,1.6-1.6
	c0.1,0,0.1-0.1,0.1-0.2c0-0.1,0-0.2,0-0.2c-0.1-0.1-0.1-0.1-0.2-0.1c-0.1,0-0.2,0-0.2,0.1c-0.7,0.5-1.3,1.1-1.7,1.8
	c0,0.1-0.1,0.2-0.1,0.2c0,0.1,0.1,0.2,0.1,0.2C353.5,377.7,353.6,377.7,353.7,377.6z"/>
<path class="st23" d="M324.3,313.7c0,0,3.9,28.1-25.1,47.2l7.4,8.5c0,0,32.4-20.8,30-48.9L324.3,313.7z"/>
<path class="st24" d="M322.7,329.9c0.4,0.6,0.8,1.2,1.2,1.8c1,1.6,1.9,3.3,2.6,5.1c1.3,2.9,2.3,6,3.1,9.1c4.6-7.3,7.7-16,6.9-25.4
	l-12.3-6.7C324.3,313.7,325.3,320.6,322.7,329.9z"/>
<path class="st25" d="M343.3,282.7c0.9,9.9,0.7,19.9-0.5,29.8c0,0,14.7,31,10.4,61.6l-12,2.6c0,0-1.5-40.4-17-61.3l-0.1-20.2
	l12.9-1.7l1.4-10.8H343.3z"/>
<path class="st23" d="M324.9,297.5c-0.1,0-0.2-0.1-0.3-0.4c-0.1-0.2-0.2-0.4-0.2-0.5c-0.1-0.2-0.1-0.5-0.2-0.7
	c0-0.1-0.1-0.3-0.1-0.4s-0.1-0.3-0.1-0.5l-0.1-0.6c0-0.2,0-0.4-0.1-0.6c-0.1-0.2,0-0.4-0.1-0.6c0-0.2,0-0.4-0.1-0.6
	c0-0.5-0.1-0.9-0.1-1.4c0-1.1,0-2.2,0.1-3.3c0.1-1.3,0.3-2.5,0.5-3.8c0.3-1.4,0.6-2.7,1-4.1c0.4-1.5,1.1-2.9,2-4.3
	c0.5-0.7,1-1.3,1.7-1.9c0.6-0.5,1.4-1,2.2-1.2c0.4-0.1,0.8-0.2,1.2-0.2h1.3c0.8,0.1,1.5,0.3,2.2,0.7c0.6,0.3,1.2,0.8,1.7,1.2
	l0.4,0.4l0.3,0.4l0.3,0.4l0.3,0.4c0.3,0.5,0.6,1.1,0.9,1.6c0.2,0.5,0.4,1,0.5,1.5c0.2,0.9,0.3,1.8,0.4,2.7c0,0.8,0,1.5,0,2
	c0,1.1-0.2,1.7-0.3,1.7c-0.1,0-0.2-0.6-0.4-1.7c-0.1-0.5-0.2-1.2-0.3-2c-0.2-0.8-0.4-1.7-0.7-2.5c-0.3-0.9-0.8-1.8-1.4-2.6
	c-0.1-0.1-0.2-0.2-0.3-0.3l-0.3-0.3l-0.3-0.3l-0.3-0.3c-0.4-0.4-0.9-0.6-1.4-0.9c-0.5-0.2-1-0.4-1.6-0.4h-0.8
	c-0.3,0-0.6,0.1-0.8,0.2c-1.1,0.5-2.1,1.3-2.7,2.4c-0.7,1.2-1.3,2.4-1.6,3.7c-0.4,1.3-0.7,2.6-1,3.8c-0.3,1.2-0.5,2.4-0.6,3.5
	c-0.1,1.1-0.3,2.2-0.3,3.1c0,0.5-0.1,0.9-0.1,1.4v4c0,0.2,0,0.4,0,0.5C325,297.3,324.9,297.5,324.9,297.5z"/>
<path class="st21" d="M331.8,285.6l0.1,0.1c1.2,1.1,2.5,2.1,4,2.9c1.7,0.9,3.5,1.4,5.3,1.7c1,0.1,2.1,0.2,3.1,0.1
	c1.1-0.1,2.2-0.3,3.2-0.6c1-0.3,2-0.8,2.9-1.4c0.9-0.5,1.6-1.1,2.4-1.9c0.7-0.6,1.3-1.3,1.8-2.1c0.5-0.7,1-1.4,1.4-2.2
	c0.7-1.3,1.3-2.8,1.6-4.2c0.3-1.2,0.5-2.4,0.6-3.7c0.1-1,0.1-2,0.1-3v-0.2c1.3-1.1,2.1-2.8,2.2-4.5c0.1-1.7-0.5-3.4-1.6-4.7
	c-0.2-0.2-0.4-0.4-0.6-0.6c-0.1-0.1-0.3-0.2-0.4-0.3c-0.2-0.1-0.3-0.1-0.5-0.1c-1,0.1-1.2,1.2-1,2c0.2,0.8,0.4,1.5,0,2.2
	c-0.1,0.2-0.3,0.4-0.4,0.5c-0.2,0.1-0.4,0.2-0.6,0.2H355c-0.1,0-0.2,0-0.3,0c-0.1,0-0.2,0.1-0.3,0.2s-0.2,0.2-0.2,0.3
	c0,0.1-0.1,0.2-0.1,0.3s0,0.2,0,0.3c0.1,0.3,0.2,0.7,0.4,1c0.3,0.6,0.7,1.2,1.2,1.7c-0.5,1-1,2.2-1.6,3.6c-0.5,0.9-1,1.8-1.5,2.7
	c-0.6,0.9-1.3,1.8-2,2.6c-0.7,0.8-1.5,1.5-2.5,2c-0.4,0.3-0.9,0.5-1.4,0.6c-0.4,0.2-0.9,0.3-1.4,0.4c-0.4,0.1-0.9,0.1-1.4,0
	c-0.5,0-0.9-0.1-1.4-0.2c-0.9-0.2-1.8-0.5-2.7-0.9c-0.9-0.4-1.7-0.8-2.5-1.4c-0.6-0.4-1.2-0.8-1.7-1.2
	C335.2,280.9,333.8,283.5,331.8,285.6z"/>
<path class="st25" d="M339.1,249.5c-0.2-0.6-0.5-1.2-0.9-1.7c-0.4-0.5-0.9-0.9-1.5-1.2c-1.2-0.6-2.6-0.7-3.9-0.4
	c-1.3,0.3-2.6,0.9-3.5,1.9c-1,1-1.5,2.3-1.6,3.7c-0.1,2.1,1,4.2,2.1,6C332.2,254.3,335.4,251.5,339.1,249.5z"/>
<path class="st24" d="M340.5,247.1c0.6-0.4,1.3-0.6,2-0.5c0.5,0.1,0.9,0.4,1.2,0.9c0.3,0.4,0.4,0.9,0.3,1.4c-0.2,1-0.7,1.9-1.5,2.5
	c-1.2,1.1-2.6,1.8-4.2,2c-1.6,0.2-3.2,0-4.6-0.6c-0.4-0.2-1.4-0.5-1.5-0.9c-0.3-0.6,0.4-0.7,0.9-1
	C335.6,249.6,338.1,248.4,340.5,247.1z"/>
<path class="st26" d="M332.3,264.1c-1.7-1.7-2.7-3.9-2.9-6.3c-0.1-1.4,0.2-2.9,0.7-4.2c0.1-0.2,0.3-0.5,0.5-0.7
	c0.4-0.5,0.8-0.9,1.2-1.3c0.8,1.3,1.4,2.8,1.6,4.3C334,258.7,333.6,261.6,332.3,264.1z M340.7,255c0.3,0.8,0.3,1.6,0.2,2.3
	c-0.1,0.8-0.5,1.5-1,2.1c-0.7-1.1-1.1-2.3-1.3-3.6c0-0.2,0-0.3,0-0.5s0.1-0.3,0.2-0.5c0.1-0.1,0.3-0.2,0.4-0.2c0.2,0,0.3,0,0.5,0
	C340,254.7,340.4,255,340.7,255z"/>
<path class="st21" d="M339.7,254.3c-0.4,1.7,0.4,3.4,1,5c0.6,1.6,1.2,3.5,0.5,5c-0.4,0.8-1,1.5-1.9,1.9c-0.8,0.4-1.7,0.5-2.6,0.4
	c-0.9-0.2-1.7-0.6-2.4-1.1c-0.7-0.6-1.3-1.3-1.6-2.1c-0.7-1.6-1-3.5-0.7-5.3c0.2-1.8,0.7-3.5,1.3-5.2
	C335.3,251.8,337.9,252.6,339.7,254.3z"/>
<path class="st21" d="M332.3,258.6c-0.2-0.2-0.4-0.5-0.7-0.6c-0.1-0.1-0.3-0.1-0.4-0.2c-0.2,0-0.3,0-0.5,0c-0.2,0.1-0.4,0.2-0.5,0.3
	c-0.1,0.1-0.2,0.3-0.3,0.5c-0.1,0.2-0.1,0.5-0.1,0.8c0,0.3,0.1,0.5,0.2,0.8c0.1,0.2,0.3,0.4,0.5,0.6c0.2,0.2,0.4,0.3,0.7,0.4
	c0.3,0.1,0.5,0.1,0.8,0.1s0.5-0.1,0.8-0.2C332.4,260.3,332.3,259.5,332.3,258.6z"/>
<path class="st26" d="M340.9,255.7c-2.6,0-5.1-0.7-7.2-2.1c0.2,0.8,0.1,1.5-0.1,2.3c-0.3,1.1-1,2-2,2.7c-1-1.5-1.4-3.3-1.1-5.1
	c0-0.2,0.1-0.4,0.1-0.6c0.4-0.5,0.8-0.9,1.2-1.3c0.7-0.6,1.5-1.1,2.4-1.4c1.2-0.4,2.4-0.5,3.6-0.4c1.2,0.2,2.4,0.6,3.4,1.3
	c0.2,0.1,0.3,0.3,0.5,0.5c0.4,0.4,0.7,0.9,0.9,1.5c0.1,0.2,0.1,0.5,0.1,0.8c0,0.3-0.1,0.5-0.2,0.8c-0.1,0.2-0.3,0.4-0.4,0.6
	c-0.2,0.2-0.4,0.3-0.7,0.4C341.3,255.6,341.1,255.7,340.9,255.7z"/>
</svg>
