<svg version="1.1" xmlns="http://www.w3.org/2000/svg" xmlns:xlink="http://www.w3.org/1999/xlink" width="630" height="390" viewBox="0 0 630 390">
<style type="text/css">
	.st0{fill:#F8F8FF;}
	.st1{fill:#EAF1FC;}
	.st2{fill:#E9EDF4;}
	.st3{fill:#D6E0F0;}
	.st4{fill:#FCFBFC;}
	.st5{fill:#E7ECF3;}
	.st6{fill:#FFFFFF;}
	.st7{fill:#E4E6E5;}
	.st8{fill:#D5DFEF;}
	.st9{fill:#F8C47A;}
	.st10{fill:#E19A54;}
	.st11{fill:#FFDF9A;}
	.st12{fill:#D38137;}
	.st13{fill:#EAB973;}
	.st14{fill:#D3914F;}
	.st15{fill:#F1D392;}
	.st16{fill:#E4E6E6;}
	.st17{fill:#C08448;}
	.st18{fill:#E5B571;}
	.st19{fill:#CE8D4D;}
	.st20{fill:#ECCF8F;}
	.st21{fill:#C07632;}
	.st22{fill:#E08F73;}
	.st23{fill:#F09976;}
	.st24{fill:#E8815F;}
	.st25{fill:#0B2B46;}
	.st26{fill:#047487;}
	.st27{fill:#05616B;}
	.st28{fill:#02819F;}
	.st29{fill:#132B45;}
	.st30{fill:#DF8E73;}
	.st31{fill:#F09876;}
	.st32{fill:#E8805E;}
	.st33{fill:#FFDA35;}
	.st34{fill:#027486;}
	.st35{fill:#07626C;}
	.st36{fill:#301D49;}
	.st37{fill:#E3B370;}
	.st38{fill:#CE8C4D;}
	.st39{fill:#D9A863;}
</style>
<path class="st0" d="M586.5,327.8c41-81.2,63.6-236.7-25.3-288.3c-58.1-33.8-118.7,9.7-180.9,11.6c-48.8,1.6-95.8-35.2-139.8-45.7
	C125.2-22-56.3,49.5,23.5,327.8C223,327.3,387,328.4,586.5,327.8z"/>
<path class="st1" d="M629.5,340.9c0,0.8-0.1,1.5-0.4,2.2c-0.3,0.8-0.7,1.5-1.1,2.2c-0.6,0.8-1.2,1.5-1.9,2.2
	c-0.8,0.8-1.7,1.5-2.6,2.2c-1.1,0.8-2.2,1.5-3.4,2.2c-1.3,0.7-2.6,1.4-4.1,2.1c-1.5,0.7-3.1,1.4-4.8,2.1c-1.7,0.7-3.6,1.4-5.6,2.1
	c-1.9,0.7-4.1,1.4-6.3,2c-2.2,0.7-4.5,1.3-6.9,2c-2.4,0.7-5,1.3-7.6,1.9c-2.6,0.6-5.4,1.3-8.3,1.9c-2.9,0.6-5.8,1.2-8.9,1.8
	c-3.1,0.6-6.2,1.2-9.5,1.7c-3.3,0.6-6.6,1.1-10.1,1.7c-3.5,0.6-7,1.1-10.7,1.6c-3.6,0.5-7.4,1-11.2,1.5c-3.8,0.5-7.7,1-11.7,1.4
	c-4,0.5-8,1-12.1,1.4c-4.1,0.4-8.3,0.9-12.6,1.3c-4.3,0.4-8.6,0.8-13.1,1.2c-4.4,0.4-8.9,0.7-13.4,1.1c-4.5,0.4-9.1,0.7-13.8,1
	c-4.7,0.3-9.4,0.6-14.1,0.9c-4.8,0.3-9.6,0.5-14.4,0.8c-4.9,0.2-9.7,0.5-14.7,0.7c-4.9,0.2-9.9,0.4-14.9,0.6c-5,0.2-10,0.3-15.1,0.5
	c-15.3,0.4-30.6,0.7-45.9,0.8c-5.1,0-10.3,0.1-15.5,0.1c-5.2,0-10.3,0-15.4-0.1c-5.1-0.1-10.3-0.1-15.4-0.2
	c-5.1-0.1-10.2-0.2-15.3-0.3c-5.1-0.1-10.2-0.2-15.2-0.4c-5.1-0.1-10.1-0.3-15.1-0.5c-5-0.2-10-0.4-14.9-0.6
	c-4.9-0.2-9.8-0.4-14.7-0.7c-4.8-0.3-9.7-0.5-14.4-0.8c-4.8-0.3-9.5-0.6-14.1-0.9s-9.3-0.6-13.8-1c-4.5-0.3-9-0.7-13.4-1.1
	c-4.4-0.4-8.8-0.8-13.1-1.2c-4.3-0.4-8.5-0.8-12.6-1.3c-4.1-0.4-8.2-0.9-12.2-1.4c-4-0.5-7.9-0.9-11.7-1.4c-3.8-0.5-7.6-1-11.2-1.5
	c-3.6-0.5-7.2-1-10.7-1.6c-3.4-0.5-6.8-1.1-10.1-1.7s-6.4-1.2-9.5-1.7c-3.1-0.6-6-1.2-8.9-1.8c-2.9-0.6-5.6-1.2-8.3-1.9
	c-2.6-0.6-5.2-1.3-7.6-1.9c-2.4-0.7-4.7-1.3-6.9-2c-2.2-0.7-4.3-1.3-6.3-2c-2-0.7-3.8-1.4-5.6-2.1c-1.7-0.7-3.3-1.4-4.8-2.1
	c-1.5-0.7-2.9-1.4-4.1-2.1c-1.2-0.7-2.3-1.4-3.4-2.2c-0.9-0.7-1.8-1.4-2.6-2.2c-0.7-0.7-1.3-1.4-1.9-2.2c-0.5-0.7-0.9-1.4-1.1-2.2
	c-0.5-1.4-0.5-3,0-4.4c0.3-0.8,0.7-1.5,1.1-2.2c0.6-0.8,1.2-1.5,1.9-2.2c0.8-0.8,1.7-1.5,2.6-2.2c1.1-0.8,2.2-1.5,3.4-2.2
	c1.2-0.7,2.6-1.4,4.1-2.1c1.5-0.7,3.1-1.4,4.8-2.1c1.7-0.7,3.6-1.4,5.6-2.1c1.9-0.7,4.1-1.3,6.3-2c2.2-0.7,4.5-1.3,6.9-2
	c2.4-0.7,5-1.3,7.6-1.9c2.6-0.6,5.4-1.3,8.3-1.9c2.9-0.6,5.8-1.2,8.9-1.8c3.1-0.6,6.2-1.2,9.5-1.7c3.3-0.6,6.6-1.1,10.1-1.7
	c3.5-0.5,7-1.1,10.7-1.6c3.6-0.5,7.4-1,11.2-1.5c3.8-0.5,7.7-1,11.7-1.4c8.3-1,16.5-1.8,24.8-2.6c4.3-0.4,8.6-0.8,13.1-1.2
	c4.4-0.4,8.9-0.7,13.4-1.1c4.5-0.4,9.1-0.7,13.8-1s9.4-0.6,14.1-0.9c4.7-0.3,9.6-0.5,14.4-0.8c4.9-0.2,9.7-0.5,14.7-0.7
	c4.9-0.2,9.9-0.4,14.9-0.6c5-0.2,10-0.3,15.1-0.5c5-0.1,10.1-0.3,15.2-0.4c5.1-0.1,10.2-0.2,15.3-0.3c5.1-0.1,10.3-0.1,15.4-0.2
	c5.1,0,10.3-0.1,15.4-0.1c5.2,0,10.3,0,15.5,0.1c5.1,0.1,10.3,0.1,15.4,0.2c5.1,0.1,10.2,0.2,15.3,0.3c5.1,0.1,10.2,0.2,15.2,0.4
	c5,0.1,10.1,0.3,15.1,0.5c5,0.2,10,0.4,14.9,0.6c4.9,0.2,9.8,0.4,14.7,0.7c4.8,0.3,9.7,0.5,14.4,0.8c4.8,0.3,9.5,0.6,14.1,0.9
	c4.7,0.3,9.3,0.6,13.8,1c4.5,0.3,9,0.7,13.4,1.1c4.4,0.4,8.8,0.8,13.1,1.2c4.3,0.4,8.5,0.8,12.6,1.3c4.1,0.4,8.2,0.9,12.2,1.4
	c4,0.5,7.9,0.9,11.7,1.4c3.8,0.5,7.6,1,11.2,1.5s7.2,1,10.7,1.6c3.4,0.6,6.8,1.1,10.1,1.7c3.3,0.6,6.4,1.1,9.5,1.7
	c3.1,0.6,6,1.2,8.9,1.8s5.6,1.2,8.3,1.9c2.6,0.6,5.2,1.3,7.6,1.9c2.4,0.6,4.7,1.3,6.9,2c2.2,0.7,4.3,1.3,6.3,2
	c2,0.7,3.8,1.4,5.6,2.1c1.7,0.7,3.4,1.4,4.8,2.1s2.9,1.4,4.1,2.1c1.2,0.7,2.3,1.4,3.4,2.2c0.9,0.7,1.8,1.4,2.6,2.2
	c0.7,0.7,1.3,1.4,1.9,2.2c0.5,0.7,0.9,1.4,1.1,2.2C629.4,339.4,629.5,340.1,629.5,340.9L629.5,340.9z"/>
<path class="st2" d="M231,58.8h166.4v269H231V58.8z"/>
<path class="st3" d="M242.3,66.9h32.8v33.6h-32.8V66.9z M278.2,79.8h20.3v20.7h-20.3V79.8z M301.7,69.5H332v31h-30.3V69.5z
	 M335.1,83.9h16.3v16.7h-16.3V83.9z M353.8,84.2h16v16.3h-16V84.2z M242.8,111.6h25.3v25.9h-25.3V111.6z M278.2,123.1h14.2v14.5
	h-14.2V123.1z M317.3,116.4H338v21.2h-20.7V116.4z M341,108.5h28.4v29.1H341V108.5z M372.6,120.9h16.2v16.6h-16.2V120.9z
	 M242.8,155.8h17.5v17.9h-17.5V155.8z M264,147.8h25.3v25.9H264V147.8z M292.2,144.2h28.8v29.5h-28.8V144.2z M346,158.9h14.4v14.7
	H346V158.9z M327.2,158.9h14.4v14.7h-14.4V158.9z M363.5,147.8h25.3v25.9h-25.3V147.8z M243.6,193.1h15.8v16.2h-15.8V193.1z
	 M263.5,188.5h20.3v20.7h-20.3V188.5z M305.9,179.9h28.8v29.4h-28.8V179.9z M337.8,190.9h17.9v18.3h-17.9V190.9z M286.3,190.9h17.9
	v18.3h-17.9V190.9z M363.5,183.4h25.3v25.9h-25.3V183.4z M245.6,216.6h29.6v30.2h-29.6V216.6z M282.3,225.1h21.3v21.7h-21.3V225.1z
	 M306.7,220.9H332v25.9h-25.3V220.9z M335.1,220.9h25.3v25.9h-25.3V220.9z M363.5,220.9h25.3v25.9h-25.3V220.9z M245.6,256.9h25.3
	v25.9h-25.3V256.9z M278.2,262.9h19.4v19.9h-19.4V262.9z M306.7,256.9H332v25.9h-25.3V256.9z M335.1,256.9h25.3v25.9h-25.3V256.9z
	 M363.5,256.9h25.3v25.9h-25.3V256.9z M555.8,137c0,0.6,0,1.3-0.1,1.9c-0.1,0.6-0.2,1.3-0.3,1.9c-0.1,0.6-0.3,1.2-0.5,1.8
	c-0.2,0.6-0.4,1.2-0.6,1.8c-0.2,0.6-0.5,1.2-0.8,1.7c-0.3,0.6-0.6,1.1-1,1.6c-0.4,0.5-0.7,1-1.1,1.5c-0.4,0.5-0.8,1-1.3,1.4
	c-0.4,0.5-0.9,0.9-1.4,1.3c-0.5,0.4-1,0.8-1.5,1.1c-0.5,0.4-1.1,0.7-1.6,1c-0.6,0.3-1.1,0.6-1.7,0.8c-0.6,0.2-1.2,0.5-1.8,0.6
	c-0.6,0.2-1.2,0.3-1.8,0.5c-0.6,0.1-1.3,0.2-1.9,0.3c-0.6,0.1-1.3,0.1-1.9,0.1c-0.6,0-1.3,0-1.9-0.1c-0.6-0.1-1.3-0.2-1.9-0.3
	c-0.6-0.1-1.2-0.3-1.8-0.5c-0.6-0.2-1.2-0.4-1.8-0.6c-0.6-0.2-1.2-0.5-1.7-0.8c-0.6-0.3-1.1-0.6-1.6-1c-0.5-0.4-1-0.7-1.5-1.1
	c-0.5-0.4-1-0.8-1.4-1.3c-0.9-0.9-1.7-1.9-2.4-2.9c-0.3-0.5-0.6-1.1-0.9-1.6c-0.3-0.6-0.6-1.1-0.8-1.7c-0.2-0.6-0.5-1.2-0.6-1.8
	c-0.2-0.6-0.3-1.2-0.5-1.8c-0.1-0.6-0.2-1.3-0.3-1.9s-0.1-1.3-0.1-1.9c0-0.6,0-1.3,0.1-1.9c0.1-0.6,0.2-1.3,0.3-1.9
	c0.1-0.6,0.3-1.2,0.5-1.8c0.2-0.6,0.4-1.2,0.6-1.8c0.2-0.6,0.5-1.2,0.8-1.7c0.3-0.6,0.6-1.1,1-1.6c0.4-0.5,0.7-1,1.1-1.5
	c0.8-1,1.7-1.9,2.7-2.7c0.5-0.4,1-0.8,1.5-1.1c0.5-0.4,1.1-0.7,1.6-1c0.6-0.3,1.1-0.6,1.7-0.8c0.6-0.2,1.2-0.5,1.8-0.6
	c0.6-0.2,1.2-0.3,1.8-0.5c0.6-0.1,1.3-0.2,1.9-0.3c1.3-0.1,2.5-0.1,3.8,0c0.6,0.1,1.3,0.2,1.9,0.3c0.6,0.1,1.2,0.3,1.8,0.5
	c0.6,0.2,1.2,0.4,1.8,0.6c0.6,0.2,1.2,0.5,1.7,0.8c0.6,0.3,1.1,0.6,1.6,1c1.1,0.7,2,1.5,2.9,2.4c0.4,0.4,0.9,0.9,1.3,1.4
	c0.4,0.5,0.8,1,1.1,1.5c0.4,0.5,0.7,1.1,1,1.6c0.3,0.6,0.6,1.1,0.8,1.7c0.2,0.6,0.5,1.2,0.6,1.8c0.2,0.6,0.3,1.2,0.5,1.8
	c0.1,0.6,0.2,1.3,0.3,1.9C555.8,135.7,555.8,136.4,555.8,137z"/>
<path class="st4" d="M551.2,137c0,0.5,0,1-0.1,1.4c-0.1,0.5-0.1,1-0.2,1.4c-0.1,0.5-0.2,0.9-0.3,1.4c-0.3,0.9-0.6,1.8-1.1,2.7
	c-0.2,0.4-0.5,0.8-0.7,1.2c-0.3,0.4-0.6,0.8-0.9,1.2c-0.3,0.4-0.6,0.7-1,1.1c-0.3,0.3-0.7,0.7-1.1,1c-0.3,0.3-0.7,0.6-1.2,0.9
	c-0.4,0.3-0.8,0.5-1.2,0.7c-0.4,0.2-0.9,0.4-1.3,0.6c-0.4,0.2-0.9,0.3-1.4,0.5c-0.5,0.1-0.9,0.3-1.4,0.3c-0.5,0.1-0.9,0.2-1.4,0.2
	c-0.5,0.1-1,0.1-1.4,0.1s-1,0-1.4-0.1c-0.5-0.1-1-0.1-1.4-0.2s-0.9-0.2-1.4-0.3c-0.5-0.1-0.9-0.3-1.4-0.5s-0.9-0.4-1.3-0.6
	c-0.4-0.2-0.8-0.5-1.2-0.7c-0.4-0.3-0.8-0.6-1.2-0.9s-0.7-0.6-1.1-1c-0.3-0.3-0.7-0.7-1-1.1c-0.3-0.3-0.6-0.8-0.9-1.2
	c-0.3-0.4-0.5-0.8-0.7-1.2c-0.5-0.8-0.8-1.7-1.1-2.7c-0.1-0.5-0.3-0.9-0.4-1.4c-0.1-0.5-0.2-0.9-0.2-1.4c-0.1-0.5-0.1-1-0.1-1.4
	c0-0.5,0-1,0.1-1.4c0.1-0.5,0.1-1,0.2-1.4c0.1-0.5,0.2-0.9,0.4-1.4c0.1-0.5,0.3-0.9,0.5-1.4c0.2-0.4,0.4-0.9,0.6-1.3
	c0.2-0.4,0.5-0.8,0.7-1.2c0.5-0.8,1.2-1.5,1.8-2.2c0.3-0.3,0.7-0.7,1.1-1s0.7-0.6,1.2-0.9c0.4-0.3,0.8-0.5,1.2-0.7s0.9-0.4,1.3-0.6
	c0.4-0.2,0.9-0.3,1.4-0.5c0.5-0.1,0.9-0.3,1.4-0.4c0.5-0.1,0.9-0.2,1.4-0.2c0.5-0.1,1-0.1,1.4-0.1c0.5,0,1,0,1.4,0.1
	c0.5,0.1,1,0.1,1.4,0.2c0.5,0.1,0.9,0.2,1.4,0.4c0.5,0.1,0.9,0.3,1.4,0.5c0.4,0.2,0.9,0.4,1.3,0.6c0.4,0.2,0.8,0.5,1.2,0.7
	c0.4,0.2,0.8,0.6,1.2,0.9s0.7,0.6,1.1,1c0.3,0.3,0.7,0.7,1,1.1c0.3,0.3,0.6,0.8,0.9,1.2c0.3,0.4,0.5,0.8,0.7,1.2
	c0.2,0.4,0.4,0.9,0.6,1.3c0.2,0.4,0.3,0.9,0.5,1.4c0.1,0.5,0.3,0.9,0.3,1.4c0.1,0.5,0.2,0.9,0.2,1.4
	C551.2,136,551.2,136.5,551.2,137L551.2,137z"/>
<path class="st3" d="M540.8,146.5l-3.6-9.8c-0.1-0.2-0.2-0.4-0.5-0.6c-0.2-0.1-0.5-0.1-0.7-0.1l-10.5,2.4c-0.1,0-0.3,0.1-0.4,0.2
	c-0.1,0.1-0.2,0.2-0.3,0.3c-0.1,0.1-0.1,0.2-0.1,0.4c0,0.1,0,0.3,0,0.4c0,0.1,0.1,0.2,0.1,0.3c0.1,0.1,0.2,0.2,0.3,0.3
	c0.1,0.1,0.2,0.1,0.3,0.1c0.1,0,0.2,0,0.4,0l9.6-2.2l3.3,8.9c0.1,0.2,0.2,0.4,0.4,0.5c0.2,0.1,0.4,0.2,0.6,0.2c0.1,0,0.2,0,0.3-0.1
	c0.1,0,0.2-0.1,0.3-0.2c0.1-0.1,0.2-0.2,0.2-0.3c0.1-0.1,0.1-0.2,0.1-0.4C540.8,146.7,540.8,146.6,540.8,146.5L540.8,146.5z"/>
<path class="st3" d="M538.3,136.4c0,0.1,0,0.2,0,0.3c0,0.1-0.1,0.2-0.1,0.3c-0.1,0.1-0.1,0.2-0.2,0.2c-0.1,0.1-0.2,0.1-0.2,0.2
	c-0.1,0.1-0.2,0.1-0.3,0.2c-0.1,0.1-0.2,0.1-0.3,0.1c-0.1,0-0.3,0.1-0.4,0.1c-0.1,0-0.3,0-0.4,0c-0.1,0-0.3,0-0.4,0
	c-0.1,0-0.3,0-0.4-0.1c-0.1,0-0.2-0.1-0.3-0.1c-0.1,0-0.2-0.1-0.3-0.2c-0.1-0.1-0.2-0.2-0.3-0.2c-0.1-0.1-0.1-0.2-0.2-0.2
	c-0.1-0.1-0.1-0.2-0.1-0.3c0-0.1,0-0.2,0-0.3c0-0.1,0-0.2,0-0.3c0-0.1,0.1-0.2,0.1-0.3c0.1-0.2,0.3-0.3,0.4-0.4
	c0.1-0.1,0.2-0.1,0.3-0.2c0.1-0.1,0.2-0.1,0.3-0.1c0.1,0,0.2-0.1,0.4-0.1c0.1,0,0.3,0,0.4,0c0.1,0,0.3,0,0.4,0c0.1,0,0.3,0,0.4,0.1
	c0.1,0,0.2,0.1,0.3,0.1c0.1,0,0.2,0.1,0.3,0.2c0.2,0.1,0.3,0.3,0.4,0.4c0,0.1,0.1,0.2,0.1,0.3C538.3,136.2,538.3,136.3,538.3,136.4
	L538.3,136.4z"/>
<path class="st1" d="M482.4,16.2h2.2v98.5h-2.2V16.2z"/>
<path class="st3" d="M499.7,135.1c0-4.4-1.8-8.6-4.9-11.8c-3.1-3.1-7.4-4.9-11.8-4.9c-4.4,0-8.6,1.8-11.8,4.9
	c-3.1,3.1-4.9,7.4-4.9,11.8H499.7z"/>
<path class="st3" d="M489,118.5c0,4.9-2.8,8.9-6.1,8.9c-3.3,0-6.2-4-6.2-8.9c0-4.9,2.8-8.9,6.1-8.9S489,113.7,489,118.5L489,118.5z"
	/>
<path class="st1" d="M455.2,16.2h2.2v64h-2.2V16.2z"/>
<path class="st3" d="M472.5,100.5c0-4.4-1.8-8.6-4.9-11.8c-3.1-3.1-7.4-4.9-11.8-4.9c-4.4,0-8.6,1.8-11.8,4.9
	c-3.1,3.1-4.9,7.4-4.9,11.8H472.5z"/>
<path class="st3" d="M455.6,92.9c3.4,0,6.1-4,6.1-8.9c0-4.9-2.8-8.9-6.1-8.9c-3.4,0-6.1,4-6.1,8.9C449.4,89,452.2,92.9,455.6,92.9z"
	/>
<path class="st5" d="M109,21.3h125.1v307.9H109V21.3z"/>
<path class="st6" d="M128.1,180.7h42.8v42.8h-42.8V180.7z"/>
<path class="st7" d="M128,223.6h-15v-37.1l15-5.8V223.6z"/>
<path class="st8" d="M146,180.5h7.1v8H146V180.5z"/>
<path class="st8" d="M153,215.6h-7c0,0-0.1,0-0.1,0.1v7.9c0,0,0,0.1,0.1,0.1h7c0,0,0.1,0,0.1-0.1L153,215.6
	C153.1,215.6,153.1,215.6,153,215.6z"/>
<path class="st7" d="M155.7,186.5h12.6v6.7h-12.6V186.5z"/>
<path class="st6" d="M176.5,180.7h42.8v42.8h-42.8V180.7z"/>
<path class="st8" d="M171.2,182.7v40.8h5.2v-42.8L171.2,182.7z M194.4,180.5h7.1v8h-7.1V180.5z"/>
<path class="st8" d="M201.4,215.6h-7c0,0-0.1,0-0.1,0.1v7.9c0,0,0,0.1,0.1,0.1h7c0,0,0.1,0,0.1-0.1L201.4,215.6
	C201.5,215.6,201.5,215.6,201.4,215.6z"/>
<path class="st7" d="M204.2,186.5h12.6v6.7h-12.6V186.5z"/>
<path class="st7" d="M128,281.6h-15v-37.1l15-5.8V281.6z"/>
<path class="st6" d="M176.5,238.8h42.8v42.8h-42.8V238.8z"/>
<path class="st8" d="M201.4,273.6h-7c0,0-0.1,0-0.1,0.1v7.9c0,0,0,0.1,0.1,0.1h7c0,0,0.1,0,0.1-0.1L201.4,273.6
	C201.5,273.6,201.5,273.6,201.4,273.6z"/>
<path class="st7" d="M204.2,244.5h12.6v6.7h-12.6V244.5z"/>
<path class="st7" d="M128,277.9h-15v-37.1l15-5.8V277.9z"/>
<path class="st6" d="M176.5,235h42.8v42.8h-42.8V235z"/>
<path class="st8" d="M201.4,269.9h-7c0,0-0.1,0-0.1,0.1v7.9c0,0,0,0,0.1,0h7c0,0,0.1,0,0.1,0L201.4,269.9
	C201.5,269.9,201.5,269.9,201.4,269.9z"/>
<path class="st7" d="M204.2,240.8h12.6v6.7h-12.6V240.8z"/>
<path class="st6" d="M122.6,145.2H150v27.4h-27.4V145.2z"/>
<path class="st7" d="M122.6,172.6H113v-23.7l9.6-3.7V172.6L122.6,172.6z"/>
<path class="st8" d="M134.1,145h4.5v5.1h-4.5V145z"/>
<path class="st8" d="M138.6,167.5h-4.4c0,0-0.1,0-0.1,0.1v5c0,0,0,0.1,0.1,0.1h4.4c0,0,0.1,0,0.1-0.1L138.6,167.5
	C138.6,167.5,138.6,167.5,138.6,167.5z"/>
<path class="st7" d="M140.3,148.9h8.1v4.3h-8.1V148.9z"/>
<path class="st6" d="M153.6,145.2H181v27.4h-27.4V145.2z"/>
<path class="st8" d="M150.2,146.4v26.1h3.3v-27.4L150.2,146.4z M165,145h4.6v5.1H165V145z"/>
<path class="st8" d="M169.5,167.5h-4.4c0,0-0.1,0-0.1,0.1v5c0,0,0,0.1,0.1,0.1h4.4c0,0,0.1,0,0.1-0.1L169.5,167.5
	C169.6,167.5,169.5,167.5,169.5,167.5z"/>
<path class="st7" d="M171.3,148.9h8.1v4.3h-8.1V148.9z"/>
<path class="st6" d="M128.6,29.9H156v27.4h-27.4V29.9z"/>
<path class="st8" d="M125.2,31.2v26.1h3.3V29.9L125.2,31.2L125.2,31.2z M140,29.8h4.5v5.1H140V29.8z"/>
<path class="st8" d="M144.5,52.2h-4.4c0,0-0.1,0-0.1,0.1v5c0,0,0,0.1,0.1,0.1h4.4c0,0,0.1,0,0.1-0.1L144.5,52.2
	C144.6,52.3,144.6,52.2,144.5,52.2z"/>
<path class="st7" d="M146.3,33.6h8.1v4.3h-8.1V33.6z"/>
<path class="st3" d="M122.1,330.3c-0.9,0-1.7-1.1-1.7-2.5V23.6c0-1.3,0.8-2.5,1.7-2.5s1.7,1.1,1.7,2.5v304.2
	C123.8,329.2,123.1,330.3,122.1,330.3z M109,330.3c-0.9,0-1.7-1.1-1.7-2.5V23.6c0-1.3,0.8-2.5,1.7-2.5s1.7,1.1,1.7,2.5v304.2
	C110.8,329.2,110,330.3,109,330.3z M234.8,330.3c-0.9,0-1.7-1.1-1.7-2.5V23.6c0-1.3,0.8-2.5,1.7-2.5c0.9,0,1.7,1.1,1.7,2.5v304.2
	C236.6,329.2,235.8,330.3,234.8,330.3z"/>
<path class="st3" d="M234.1,228.4H110.9c-0.2,0-0.5,0-0.7-0.1c-0.2-0.1-0.4-0.2-0.6-0.4c-0.2-0.2-0.3-0.4-0.4-0.6
	c-0.1-0.2-0.2-0.5-0.2-0.7s0.1-0.5,0.2-0.7c0.1-0.2,0.2-0.4,0.4-0.6c0.2-0.2,0.4-0.3,0.6-0.4c0.2-0.1,0.5-0.1,0.7-0.1h123.2
	c0.2,0,0.5,0,0.7,0.1c0.2,0.1,0.4,0.2,0.6,0.4c0.2,0.2,0.3,0.4,0.4,0.6c0.1,0.2,0.2,0.5,0.2,0.7s-0.1,0.5-0.2,0.7
	c-0.1,0.2-0.2,0.4-0.4,0.6c-0.2,0.2-0.4,0.3-0.6,0.4C234.6,228.4,234.4,228.4,234.1,228.4L234.1,228.4z M234.1,175.3H110.9
	c-0.2,0-0.5,0-0.7-0.1s-0.4-0.2-0.6-0.4c-0.2-0.2-0.3-0.4-0.4-0.6c-0.1-0.2-0.2-0.5-0.2-0.7c0-0.2,0.1-0.5,0.2-0.7
	c0.1-0.2,0.2-0.4,0.4-0.6c0.2-0.2,0.4-0.3,0.6-0.4s0.5-0.1,0.7-0.1h123.2c0.5,0,0.9,0.2,1.3,0.5c0.4,0.3,0.6,0.8,0.6,1.3
	c0,0.2-0.1,0.5-0.2,0.7c-0.1,0.2-0.2,0.4-0.4,0.6c-0.2,0.2-0.4,0.3-0.6,0.4C234.6,175.3,234.4,175.3,234.1,175.3L234.1,175.3z
	 M234.1,281.4H110.9c-0.2,0-0.5,0-0.7-0.1c-0.2-0.1-0.4-0.2-0.6-0.4c-0.2-0.2-0.3-0.4-0.4-0.6s-0.2-0.5-0.2-0.7
	c0-0.2,0.1-0.5,0.2-0.7s0.2-0.4,0.4-0.6c0.2-0.2,0.4-0.3,0.6-0.4c0.2-0.1,0.5-0.1,0.7-0.1h123.2c0.2,0,0.5,0,0.7,0.1
	c0.2,0.1,0.4,0.2,0.6,0.4c0.2,0.2,0.3,0.4,0.4,0.6c0.1,0.2,0.2,0.5,0.2,0.7c0,0.2-0.1,0.5-0.2,0.7c-0.1,0.2-0.2,0.4-0.4,0.6
	c-0.2,0.2-0.4,0.3-0.6,0.4C234.6,281.4,234.4,281.5,234.1,281.4L234.1,281.4z M234.1,321.1H110.9c-0.2,0-0.5,0-0.7-0.1
	s-0.4-0.2-0.6-0.4c-0.2-0.2-0.3-0.4-0.4-0.6c-0.1-0.2-0.2-0.5-0.2-0.7c0-0.2,0.1-0.5,0.2-0.7s0.2-0.4,0.4-0.6
	c0.2-0.2,0.4-0.3,0.6-0.4c0.2-0.1,0.5-0.1,0.7-0.1h123.2c0.2,0,0.5,0,0.7,0.1c0.2,0.1,0.4,0.2,0.6,0.4s0.3,0.4,0.4,0.6
	c0.1,0.2,0.2,0.5,0.2,0.7c0,0.2-0.1,0.5-0.2,0.7c-0.1,0.2-0.2,0.4-0.4,0.6c-0.2,0.2-0.4,0.3-0.6,0.4
	C234.6,321.1,234.4,321.2,234.1,321.1L234.1,321.1z M234.1,77.8H110.9c-0.2,0-0.5,0-0.7-0.1c-0.2-0.1-0.4-0.2-0.6-0.4
	c-0.2-0.2-0.3-0.4-0.4-0.6s-0.1-0.5-0.1-0.7c0-0.2,0.1-0.5,0.1-0.7c0.1-0.2,0.2-0.4,0.4-0.6c0.2-0.2,0.4-0.3,0.6-0.4
	c0.2-0.1,0.5-0.1,0.7-0.1h123.2c0.2,0,0.5,0,0.7,0.1c0.2,0.1,0.4,0.2,0.6,0.4c0.2,0.2,0.3,0.4,0.4,0.6c0.1,0.2,0.1,0.5,0.1,0.7
	c0,0.2-0.1,0.5-0.1,0.7s-0.2,0.4-0.4,0.6c-0.2,0.2-0.4,0.3-0.6,0.4C234.6,77.8,234.4,77.9,234.1,77.8L234.1,77.8z M234.1,24.7H110.9
	c-0.2,0-0.5,0-0.7-0.1c-0.2-0.1-0.4-0.2-0.6-0.4c-0.2-0.2-0.3-0.4-0.4-0.6c-0.1-0.2-0.2-0.5-0.2-0.7c0-0.2,0.1-0.5,0.2-0.7
	s0.2-0.4,0.4-0.6c0.2-0.2,0.4-0.3,0.6-0.4c0.2-0.1,0.5-0.1,0.7-0.1h123.2c0.5,0,0.9,0.2,1.3,0.5c0.4,0.3,0.6,0.8,0.6,1.2
	c0,0.2-0.1,0.5-0.2,0.7c-0.1,0.2-0.2,0.4-0.4,0.6c-0.2,0.2-0.4,0.3-0.6,0.4C234.6,24.7,234.4,24.8,234.1,24.7L234.1,24.7z
	 M234.1,130.9H110.9c-0.2,0-0.5,0-0.7-0.1c-0.2-0.1-0.4-0.2-0.6-0.4c-0.2-0.2-0.3-0.4-0.4-0.6c-0.1-0.2-0.2-0.5-0.2-0.7
	s0.1-0.5,0.2-0.7c0.1-0.2,0.2-0.4,0.4-0.6c0.2-0.2,0.4-0.3,0.6-0.4c0.2-0.1,0.5-0.1,0.7-0.1h123.2c0.2,0,0.5,0,0.7,0.1
	c0.2,0.1,0.4,0.2,0.6,0.4s0.3,0.4,0.4,0.6c0.1,0.2,0.2,0.5,0.2,0.7s-0.1,0.5-0.2,0.7c-0.1,0.2-0.2,0.4-0.4,0.6
	c-0.2,0.2-0.4,0.3-0.6,0.4C234.6,130.9,234.4,130.9,234.1,130.9L234.1,130.9z"/>
<path class="st3" d="M234.1,231.3H110.9c-0.2,0-0.5,0-0.7-0.1s-0.4-0.2-0.6-0.4c-0.2-0.2-0.3-0.4-0.4-0.6c-0.1-0.2-0.2-0.5-0.2-0.7
	c0-0.2,0.1-0.5,0.2-0.7c0.1-0.2,0.2-0.4,0.4-0.6c0.2-0.2,0.4-0.3,0.6-0.4s0.5-0.1,0.7-0.1h123.2c0.2,0,0.5,0,0.7,0.1
	c0.2,0.1,0.4,0.2,0.6,0.4c0.2,0.2,0.3,0.4,0.4,0.6c0.1,0.2,0.2,0.5,0.2,0.7c0,0.2-0.1,0.5-0.2,0.7c-0.1,0.2-0.2,0.4-0.4,0.6
	s-0.4,0.3-0.6,0.4C234.6,231.3,234.4,231.3,234.1,231.3L234.1,231.3z M234.1,178.2H110.9c-0.2,0-0.5,0-0.7-0.1
	c-0.2-0.1-0.4-0.2-0.6-0.4c-0.2-0.2-0.3-0.4-0.4-0.6c-0.1-0.2-0.2-0.5-0.2-0.7s0.1-0.5,0.2-0.7c0.1-0.2,0.2-0.4,0.4-0.6
	c0.2-0.2,0.4-0.3,0.6-0.4c0.2-0.1,0.5-0.1,0.7-0.1h123.2c0.5,0,0.9,0.2,1.3,0.5c0.4,0.3,0.6,0.8,0.6,1.3c0,0.2-0.1,0.5-0.2,0.7
	c-0.1,0.2-0.2,0.4-0.4,0.6c-0.2,0.2-0.4,0.3-0.6,0.4C234.6,178.2,234.4,178.2,234.1,178.2L234.1,178.2z M234.1,284.3H110.9
	c-0.2,0-0.5,0-0.7-0.1s-0.4-0.2-0.6-0.4c-0.2-0.2-0.3-0.4-0.4-0.6s-0.2-0.5-0.2-0.7c0-0.2,0.1-0.5,0.2-0.7s0.2-0.4,0.4-0.6
	c0.2-0.2,0.4-0.3,0.6-0.4c0.2-0.1,0.5-0.1,0.7-0.1h123.2c0.2,0,0.5,0,0.7,0.1c0.2,0.1,0.4,0.2,0.6,0.4s0.3,0.4,0.4,0.6
	c0.1,0.2,0.2,0.5,0.2,0.7c0,0.2-0.1,0.5-0.2,0.7c-0.1,0.2-0.2,0.4-0.4,0.6c-0.2,0.2-0.4,0.3-0.6,0.4
	C234.6,284.3,234.4,284.3,234.1,284.3L234.1,284.3z M234.1,324H110.9c-0.2,0-0.5,0-0.7-0.1s-0.4-0.2-0.6-0.4
	c-0.2-0.2-0.3-0.4-0.4-0.6c-0.1-0.2-0.2-0.5-0.2-0.7s0.1-0.5,0.2-0.7c0.1-0.2,0.2-0.4,0.4-0.6c0.2-0.2,0.4-0.3,0.6-0.4
	c0.2-0.1,0.5-0.1,0.7-0.1h123.2c0.2,0,0.5,0,0.7,0.1c0.2,0.1,0.4,0.2,0.6,0.4s0.3,0.4,0.4,0.6c0.1,0.2,0.2,0.5,0.2,0.7
	s-0.1,0.5-0.2,0.7c-0.1,0.2-0.2,0.4-0.4,0.6c-0.2,0.2-0.4,0.3-0.6,0.4C234.6,324,234.4,324,234.1,324L234.1,324z M234.1,80.7H110.9
	c-0.2,0-0.5,0-0.7-0.1c-0.2-0.1-0.4-0.2-0.6-0.4c-0.2-0.2-0.3-0.4-0.4-0.6c-0.1-0.2-0.1-0.5-0.1-0.7c0-0.2,0.1-0.5,0.1-0.7
	c0.1-0.2,0.2-0.4,0.4-0.6c0.2-0.2,0.4-0.3,0.6-0.4c0.2-0.1,0.5-0.1,0.7-0.1h123.2c0.2,0,0.5,0,0.7,0.1c0.2,0.1,0.4,0.2,0.6,0.4
	c0.2,0.2,0.3,0.4,0.4,0.6c0.1,0.2,0.1,0.5,0.1,0.7c0,0.2-0.1,0.5-0.1,0.7c-0.1,0.2-0.2,0.4-0.4,0.6c-0.2,0.2-0.4,0.3-0.6,0.4
	C234.6,80.7,234.4,80.7,234.1,80.7L234.1,80.7z M234.1,27.6H110.9c-0.2,0-0.5,0-0.7-0.1c-0.2-0.1-0.4-0.2-0.6-0.4
	c-0.2-0.2-0.3-0.4-0.4-0.6c-0.1-0.2-0.2-0.5-0.2-0.7c0-0.2,0.1-0.5,0.2-0.7c0.1-0.2,0.2-0.4,0.4-0.6c0.2-0.2,0.4-0.3,0.6-0.4
	c0.2-0.1,0.5-0.1,0.7-0.1h123.2c0.5,0,0.9,0.2,1.3,0.5c0.4,0.3,0.6,0.8,0.6,1.2c0,0.2-0.1,0.5-0.2,0.7s-0.2,0.4-0.4,0.6
	c-0.2,0.2-0.4,0.3-0.6,0.4C234.6,27.6,234.4,27.6,234.1,27.6L234.1,27.6z M234.1,133.7H110.9c-0.2,0-0.5,0-0.7-0.1s-0.4-0.2-0.6-0.4
	c-0.2-0.2-0.3-0.4-0.4-0.6c-0.1-0.2-0.2-0.5-0.2-0.7c0-0.2,0.1-0.5,0.2-0.7c0.1-0.2,0.2-0.4,0.4-0.6c0.2-0.2,0.4-0.3,0.6-0.4
	c0.2-0.1,0.5-0.1,0.7-0.1h123.2c0.2,0,0.5,0,0.7,0.1c0.2,0.1,0.4,0.2,0.6,0.4s0.3,0.4,0.4,0.6c0.1,0.2,0.2,0.5,0.2,0.7
	c0,0.2-0.1,0.5-0.2,0.7c-0.1,0.2-0.2,0.4-0.4,0.6c-0.2,0.2-0.4,0.3-0.6,0.4C234.6,133.7,234.4,133.7,234.1,133.7L234.1,133.7z"/>
<path class="st3" d="M111.1,322.9l-4.1-1.4l12.9-39.1l-13.1-52.9l13.1-53.8L106.8,132l13.1-54.2l-13-54.3l4.2-1l13.2,55.3
	l-13.1,54.1l13.1,43.7l-13.1,53.9l13.1,53.1L111.1,322.9L111.1,322.9z M221.6,330.3c-0.9,0-1.7-1.1-1.7-2.5V23.6
	c0-1.3,0.8-2.5,1.7-2.5s1.7,1.1,1.7,2.5v304.2C223.3,329.2,222.6,330.3,221.6,330.3z"/>
<path class="st3" d="M223.7,322.9l-4.1-1.4l12.9-39.1l-13.1-52.9l13.1-53.8L219.4,132l13.1-54.2l-13-54.3l4.2-1l13.2,55.3
	l-13.1,54.1l13.1,43.7l-13.1,53.9l13.1,53.1L223.7,322.9L223.7,322.9z"/>
<path class="st6" d="M135.8,93.4h42.6c0.2,0,0.5,0.1,0.6,0.3c0.2,0.2,0.2,0.4,0.2,0.7v31.5c0,0.2-0.1,0.5-0.2,0.7
	c-0.2,0.2-0.4,0.3-0.6,0.3h-42.6c-0.2,0-0.5-0.1-0.6-0.3c-0.2-0.2-0.2-0.4-0.2-0.7V94.4c0-0.2,0.1-0.5,0.2-0.7
	C135.3,93.5,135.6,93.4,135.8,93.4"/>
<path class="st8" d="M162.1,117.9h13.8v5h-13.8V117.9z"/>
<path class="st6" d="M181.9,98h42.6c0.2,0,0.5,0.1,0.6,0.3c0.2,0.2,0.3,0.4,0.3,0.6v27.2c0,0.2-0.1,0.5-0.3,0.6
	c-0.2,0.2-0.4,0.3-0.6,0.3h-42.6c-0.2,0-0.5-0.1-0.6-0.3c-0.2-0.2-0.3-0.4-0.3-0.6V98.9c0-0.2,0.1-0.5,0.3-0.6
	C181.4,98.1,181.6,98,181.9,98"/>
<path class="st8" d="M181,101.6v-7.4c0-0.2,0.1-0.4,0.3-0.6c0.2-0.2,0.4-0.3,0.6-0.3h42.6c0.2,0,0.4,0.1,0.6,0.3
	c0.2,0.2,0.3,0.4,0.3,0.6v7.4H181z M196.3,112.3h25.6v10.6h-25.6V112.3z M153.9,93.4h6.3v33.5h-6.3V93.4z"/>
<path class="st7" d="M134.9,127.4h-9.6V96.5l9.6-3.7V127.4z"/>
<path class="st6" d="M181.9,290.5h42.6c0.2,0,0.5,0.1,0.6,0.3c0.2,0.2,0.3,0.4,0.3,0.6v27.2c0,0.1,0,0.2-0.1,0.3
	c0,0.1-0.1,0.2-0.2,0.3c-0.1,0.1-0.2,0.1-0.3,0.2c-0.1,0-0.2,0.1-0.3,0.1h-42.6c-0.1,0-0.2,0-0.3-0.1c-0.1,0-0.2-0.1-0.3-0.2
	c-0.1-0.1-0.1-0.2-0.2-0.3c0-0.1-0.1-0.2-0.1-0.3v-27.2c0-0.2,0.1-0.5,0.3-0.6C181.4,290.6,181.6,290.5,181.9,290.5"/>
<path class="st8" d="M181,294.2v-7.4c0-0.2,0.1-0.4,0.3-0.6c0.2-0.2,0.4-0.3,0.6-0.3h42.6c0.2,0,0.4,0.1,0.6,0.3
	c0.2,0.2,0.3,0.4,0.3,0.6v7.4L181,294.2z M196.3,304.9h25.6v10.6h-25.6V304.9z M153.9,285.9h6.3v33.5h-6.3V285.9z"/>
<path class="st7" d="M134.9,320h-9.6v-30.9l9.6-3.7V320z"/>
<path class="st6" d="M184.1,158.3h43.3v13.6h-43.3V158.3z"/>
<path class="st8" d="M209.6,166.3h12.9v3.9h-12.9V166.3z M202,158.3h5.9V172H202V158.3z"/>
<path class="st6" d="M184.1,142h43.3v13.6h-43.3V142z"/>
<path class="st8" d="M209.6,150h12.9v3.9h-12.9V150z M202,142h5.9v13.6H202V142z"/>
<path class="st6" d="M126.7,59.4h101.4V73H126.7V59.4z"/>
<path class="st8" d="M209.6,66.2h13.7v5.1h-13.7V66.2z M177.5,59.4h6.9V73h-6.9V59.4z"/>
<path class="st6" d="M159,33.6h33.8c0.2,0,0.4,0.1,0.5,0.2c0.1,0.1,0.2,0.3,0.2,0.5v21.6c0,0.1,0,0.2,0,0.3c0,0.1-0.1,0.2-0.1,0.2
	c-0.1,0.1-0.1,0.1-0.2,0.2c-0.1,0-0.2,0.1-0.3,0.1H159c-0.2,0-0.4-0.1-0.5-0.2c-0.1-0.1-0.2-0.3-0.2-0.5V34.3c0-0.2,0.1-0.4,0.2-0.5
	C158.7,33.6,158.8,33.6,159,33.6"/>
<path class="st8" d="M158.3,36.5v-5.9c0-0.2,0.1-0.4,0.2-0.5c0.1-0.1,0.3-0.2,0.5-0.2h33.8c0.2,0,0.4,0.1,0.5,0.2s0.2,0.3,0.2,0.5
	v5.9H158.3z M170.5,45h20.3v8.4h-20.3V45z"/>
<path class="st9" d="M62.2,297.3h47.4v48.6H62.2V297.3z"/>
<path class="st10" d="M133.4,289.2l-23.7,8.1v48.6l23.7-8.1V289.2z"/>
<path class="st11" d="M62.2,297.3l23.7-8.1h47.4l-23.7,8.1H62.2z"/>
<path class="st12" d="M116.9,294.8v13.5l7.1-2.4v-13.6L116.9,294.8z M116.9,329.8v13.5l7.1-2.4v-13.6L116.9,329.8z"/>
<path class="st10" d="M76.5,292.4l-1,0.3l-1.5,0.5l-5,1.6h47.8l7.1-2.4H76.5L76.5,292.4z"/>
<path class="st13" d="M69.9,257.9h35.2v36H69.9V257.9z"/>
<path class="st14" d="M122.7,251.9l-17.6,6v36l17.6-6V251.9z"/>
<path class="st15" d="M69.9,257.9l17.6-6h35.2l-17.6,6H69.9z"/>
<path class="st16" d="M91.7,260.2h11.9v5.3H91.7V260.2z"/>
<path class="st17" d="M84.5,287.2v7h6l0.1-7H84.5z M84.5,257.9v7h6l0.1-7H84.5z M99.1,251.9l-14.6,6h6.1l14.1-6H99.1z"/>
<path class="st9" d="M112.5,282.5h61.8v63.3h-61.8V282.5z"/>
<path class="st10" d="M205.3,271.9l-30.9,10.6v63.3l30.9-10.6V271.9z"/>
<path class="st11" d="M112.5,282.5l30.9-10.6h61.9l-30.9,10.6H112.5L112.5,282.5z"/>
<path class="st12" d="M183.8,279.3v17.6l9.3-3.1v-17.7L183.8,279.3z M183.8,324.9v17.6l9.3-3.1v-17.7L183.8,324.9z"/>
<path class="st10" d="M131.2,276.1l-1.3,0.4l-1.9,0.7l-6.5,2.1h62.3l9.3-3.2H131.2L131.2,276.1z"/>
<path class="st16" d="M150.7,286.5h21v9.3h-21V286.5z"/>
<path class="st18" d="M112,229.3h53v54.3h-53V229.3z"/>
<path class="st19" d="M191.5,220.3l-26.5,9v54.3l26.5-9V220.3z"/>
<path class="st20" d="M112,229.3l26.5-9h53l-26.5,9H112L112,229.3z"/>
<path class="st21" d="M173.1,226.6v15.1l8-2.6v-15.2L173.1,226.6z M173.1,265.6v15.1l8-2.6v-15.2L173.1,265.6z"/>
<path class="st19" d="M128,223.9l-1.1,0.4l-1.7,0.6l-5.5,1.8h53.4l7.9-2.7H128L128,223.9z"/>
<path class="st22" d="M321.8,163.1c-0.6-0.1-1.3,1-2.1,2.9c-0.4,0.9-0.9,2.1-1.4,3.4c-0.6,1.3-1.1,2.8-1.8,4.3
	c-0.7,1.6-1.6,3.2-2.5,4.7c-0.5,0.8-1.1,1.5-1.7,2.2c-0.6,0.7-1.2,1.4-1.9,2c-0.7,0.6-1.4,1.2-2.2,1.7c-0.8,0.5-1.6,0.9-2.4,1.3
	c-0.8,0.3-1.6,0.6-2.5,0.8c-0.2,0-0.4,0.1-0.6,0.1l-0.6,0.1c-0.4,0-0.8,0-1.3,0c-1.8,0-3.7-0.3-5.5-0.8c-0.9-0.3-1.8-0.6-2.7-0.9
	c-0.4-0.2-0.9-0.4-1.3-0.5c-0.4-0.2-0.9-0.4-1.3-0.6c-0.8-0.4-1.6-0.8-2.4-1.3c-0.8-0.4-1.5-0.9-2.3-1.4c-1.4-1-2.9-1.9-4.2-2.9
	c-1.2-0.9-2.5-1.7-3.8-2.5c-1-0.7-2.1-1.3-3.2-1.9c-0.8-0.4-1.7-0.7-2.7-0.8c-0.7-0.1-1.4,0-2,0.4c-0.6,0.4-1,1.1-1.1,1.8
	c-0.2,1-0.2,2,0,2.9c0.2,1.4,0.6,2.7,1.2,4c0.7,1.7,1.6,3.3,2.6,4.8c1.3,1.9,2.8,3.6,4.4,5.1c0.9,0.9,1.9,1.7,3,2.5
	c1.1,0.8,2.3,1.6,3.6,2.3c0.6,0.4,1.3,0.7,2,1c0.7,0.3,1.4,0.6,2.1,0.9c1.5,0.6,3,1,4.6,1.4c3.4,0.8,7,0.9,10.4,0.3
	c0.9-0.2,1.8-0.4,2.7-0.6l1.3-0.4c0.4-0.1,0.9-0.3,1.3-0.5c1.6-0.7,3.2-1.5,4.6-2.5c1.4-1,2.6-2.1,3.8-3.3c1-1.1,2-2.3,2.8-3.6
	c0.8-1.2,1.4-2.5,2-3.8c0.5-1.2,0.9-2.4,1.3-3.6c0.6-2.1,1-4.3,1.2-6.5c0.1-1.7,0.2-3.5,0.1-5.2c0-1.3-0.1-2.5-0.3-3.8
	C322.8,164.3,322.3,163.2,321.8,163.1L321.8,163.1z"/>
<path class="st6" d="M292.6,191c0.7,10.7,0.7,21.4,0,32c-10.2,3.4-21.1,4.2-31.7,2.6c-0.7-10.8-1.4-21.7-1.4-32.5
	c0-5.7,0.2-11.5,1.8-17c1.3-4.9,4.2-9.3,8.2-12.5c0.5-0.3,0.9-0.7,1.4-0.9c2.4,2,7.5,2.7,10.2,1.4c1.5,1,2.8,2.2,4,3.5
	c2.1,2.5,3.7,5.4,4.8,8.5C291.5,180.9,292.4,185.9,292.6,191L292.6,191z"/>
<path class="st23" d="M285.2,167.5c-2.7,0.7-5.5,0.7-8.2,0.1c-1.4-0.4-2.8-0.9-4.1-1.6c-1-0.6-2-1.2-2.9-2l-0.1-0.6v-0.3l0.2-0.9
	c0.5-3,1-6.1,1.4-9.1c0.4-2.8,0.8-5.6,1.2-8.4c3.2,1.6,6.2,3.4,9,5.5c0,1.9,0.2,3.8,0.3,5.7c0.1,1.6,0.3,3.2,0.6,4.8
	c0.1,0.9,0.3,1.8,0.4,2.6c0.2,0.9,0.3,1.6,0.5,2.5C284.1,166.3,284.7,166.9,285.2,167.5L285.2,167.5z"/>
<path class="st24" d="M282.5,160.6c-3.3-3-7.1-5.5-11.1-7.5c0.4-2.8,0.8-5.6,1.2-8.4c3.2,1.6,6.2,3.4,9,5.5c0,1.9,0.2,3.8,0.3,5.7
	C282.1,157.4,282.3,159,282.5,160.6z"/>
<path class="st25" d="M223.5,318c0,0,0,7.5,6.8,7.3l1.3,26.9l-18.6-32L223.5,318z"/>
<path class="st6" d="M226.6,337.1c0-0.2,0.1-0.3,0.2-0.4c0.1-0.1,0.3-0.1,0.4-0.1c1.5,0.1,3,0.5,4.3,1.2c0.1,0.1,0.3,0.2,0.3,0.4
	c0.1,0.2,0.1,0.3,0,0.5c0,0.1-0.1,0.1-0.1,0.2c-0.1,0-0.1,0.1-0.2,0.1c-0.1,0-0.3,0-0.4,0c-1.2-0.5-2.6-0.9-3.9-1.1
	c-0.1,0-0.2-0.1-0.3-0.1c-0.1-0.1-0.2-0.1-0.2-0.2C226.6,337.3,226.6,337.2,226.6,337.1L226.6,337.1z M226.4,333.7
	c0-0.1,0-0.1,0.1-0.2c0-0.1,0.1-0.1,0.1-0.2c0.1,0,0.1-0.1,0.2-0.1c0.1,0,0.2,0,0.2,0c1.5,0.1,3,0.6,4.3,1.2c0.1,0,0.1,0.1,0.2,0.1
	c0.1,0.1,0.1,0.1,0.1,0.2c0.1,0.2,0.1,0.3,0,0.5c0,0.1-0.1,0.1-0.1,0.2c-0.1,0-0.1,0.1-0.2,0.1c-0.1,0-0.1,0-0.2,0
	c-0.1,0-0.1,0-0.2-0.1c-1.2-0.6-2.6-0.9-3.9-1.1c-0.1,0-0.2-0.1-0.3-0.1c-0.1,0-0.2-0.1-0.2-0.2
	C226.4,333.9,226.3,333.8,226.4,333.7L226.4,333.7z M226.1,330.3c0-0.1,0-0.1,0.1-0.2c0-0.1,0.1-0.1,0.1-0.2
	c0.1-0.1,0.3-0.1,0.4-0.1c1.5,0.1,3,0.5,4.3,1.2c0.1,0.1,0.2,0.2,0.3,0.4c0.1,0.2,0.1,0.3,0,0.5c-0.1,0.1-0.2,0.2-0.3,0.3
	c-0.1,0-0.3,0-0.4,0c-1.2-0.5-2.6-0.9-3.9-1.1c-0.1,0-0.2-0.1-0.3-0.1c-0.1-0.1-0.2-0.1-0.2-0.2
	C226.1,330.6,226.1,330.4,226.1,330.3L226.1,330.3z M228.2,353c0.1,0.1,0.2,0.2,0.3,0.3c0.1,0.1,0.2,0.1,0.3,0.2c0.1,0,0.3,0,0.4,0
	c0.1,0,0.3-0.1,0.4-0.1l2-1.1l-18.6-32l-2,1.1c-0.1,0.1-0.2,0.1-0.3,0.2c-0.1,0.1-0.1,0.2-0.2,0.3c0,0.1,0,0.3,0,0.4
	c0,0.1,0.1,0.2,0.1,0.4L228.2,353z"/>
<path class="st25" d="M297.6,345.4c0,0,6.7,3.5,9.6-2.6l24.4,11.4l-36.9,1.6L297.6,345.4z"/>
<path class="st6" d="M316.6,351.5c-0.1,0.1-0.2,0.1-0.3,0.1s-0.2,0-0.3-0.1c-0.1,0-0.1-0.1-0.2-0.2c0-0.1-0.1-0.1-0.1-0.2
	c0-0.1,0-0.1,0-0.2c0-0.1,0-0.1,0.1-0.2c0.8-1.2,1.9-2.3,3.1-3.3c0.1-0.1,0.3-0.1,0.5-0.1c0.2,0,0.3,0.1,0.4,0.2
	c0,0.1,0.1,0.1,0.1,0.2c0,0.1,0,0.1,0,0.2c0,0.1,0,0.1-0.1,0.2c0,0.1-0.1,0.1-0.2,0.2c-1.1,0.8-2,1.8-2.7,3
	C316.7,351.4,316.7,351.5,316.6,351.5L316.6,351.5z M313.5,350.2c-0.1,0.1-0.2,0.1-0.3,0.1c-0.1,0-0.2,0-0.3-0.1
	c-0.1,0-0.1-0.1-0.2-0.2c0-0.1-0.1-0.1-0.1-0.2s0-0.1,0-0.2c0-0.1,0-0.1,0.1-0.2c0.8-1.2,1.9-2.3,3.1-3.3c0.1,0,0.1-0.1,0.2-0.1
	c0.1,0,0.2,0,0.2,0c0.1,0,0.2,0,0.2,0.1c0.1,0,0.1,0.1,0.2,0.2c0.1,0.1,0.1,0.3,0.1,0.4s-0.1,0.3-0.2,0.4c-1.1,0.8-2,1.8-2.8,3
	C313.7,350.1,313.6,350.2,313.5,350.2L313.5,350.2z M310.4,348.8c-0.1,0-0.2,0.1-0.4,0c-0.1,0-0.2-0.1-0.3-0.2
	c-0.1-0.1-0.1-0.2-0.1-0.3c0-0.1,0-0.2,0.1-0.3c0.8-1.2,1.9-2.3,3.1-3.3c0.1-0.1,0.3-0.1,0.5-0.1c0.2,0,0.3,0.1,0.4,0.2
	c0,0.1,0.1,0.1,0.1,0.2c0,0.1,0,0.1,0,0.2c0,0.1-0.1,0.3-0.2,0.4c-1.1,0.8-2,1.8-2.8,3C310.6,348.7,310.5,348.8,310.4,348.8
	L310.4,348.8z M331,357.4c0.3-0.1,0.5-0.4,0.6-0.7c0.1-0.1,0.1-0.3,0.1-0.5l-0.1-2l-37,1.6l0.1,2c0,0.2,0.1,0.3,0.1,0.5
	c0.1,0.1,0.2,0.3,0.3,0.4c0.2,0.2,0.5,0.3,0.9,0.3l34.5-1.5C330.7,357.5,330.9,357.4,331,357.4L331,357.4z"/>
<path class="st26" d="M260.2,231.8c0,0,8.5,50.1-42.3,85.8l13.7,14.9c0,0,56.9-39,51.1-89.3L260.2,231.8z"/>
<path class="st27" d="M258.2,261c0.8,1,1.6,2.1,2.3,3.1c1.9,2.8,3.6,5.8,5,8.9c2.5,5.2,4.5,10.6,6.1,16.1c7.7-13.3,13-29,11-46
	l-22.3-11.4C260.3,231.8,262.4,244.1,258.2,261L258.2,261z"/>
<path class="st28" d="M292.8,181.9c2.2,17.7,2.4,35.6,0.8,53.4c0,0,28,54.8,21.9,109.8l-21.4,5.3c0,0-4.9-72.3-33.8-108.9l-1.3-36.2
	l23-3.8l2-19.4L292.8,181.9z"/>
<path class="st26" d="M260.5,209.5c-0.2,0-0.4-0.2-0.6-0.7c-0.2-0.3-0.3-0.6-0.4-0.9c-0.1-0.4-0.3-0.8-0.4-1.3
	c-0.1-0.2-0.1-0.5-0.2-0.8c-0.1-0.3-0.1-0.6-0.2-0.9c-0.1-0.3-0.1-0.6-0.2-0.9c-0.1-0.3-0.1-0.7-0.2-1c-0.1-0.3-0.1-0.7-0.2-1.1
	l-0.2-1.2c-0.1-0.8-0.2-1.7-0.2-2.5c-0.1-2-0.1-4,0-5.9c0.1-2.3,0.3-4.5,0.7-6.8c0.4-2.5,0.9-4.9,1.6-7.3c0.7-2.7,1.8-5.3,3.2-7.7
	c0.8-1.3,1.8-2.4,3-3.4c1.1-1,2.5-1.8,3.9-2.3c0.7-0.3,1.5-0.4,2.2-0.5h2.2c1.4,0.1,2.8,0.5,4,1.1c1.2,0.6,2.2,1.3,3.2,2.1
	c0.2,0.2,0.4,0.4,0.7,0.6l0.6,0.6l0.6,0.7c0.2,0.2,0.4,0.5,0.5,0.7c0.6,0.9,1.2,1.8,1.6,2.8c0.4,0.9,0.7,1.8,1,2.8
	c0.4,1.6,0.7,3.2,0.9,4.8c0.1,1.2,0.2,2.4,0.1,3.7c0,2-0.2,3.1-0.4,3.1c-0.2,0-0.4-1.1-0.8-3c-0.2-1-0.4-2.2-0.7-3.5
	c-0.3-1.5-0.7-3-1.3-4.5c-0.6-1.7-1.5-3.2-2.7-4.6c-0.2-0.2-0.3-0.4-0.5-0.5l-0.5-0.5l-0.5-0.5c-0.2-0.2-0.4-0.3-0.6-0.4
	c-0.8-0.6-1.6-1.1-2.5-1.4c-0.9-0.4-1.9-0.6-2.9-0.6h-1.5c-0.5,0.1-1,0.2-1.4,0.4c-2,0.9-3.7,2.5-4.8,4.4c-1.2,2.1-2.1,4.4-2.7,6.7
	c-0.7,2.4-1.2,4.7-1.6,6.9c-0.4,2.2-0.7,4.3-0.9,6.4c-0.2,2-0.3,3.9-0.4,5.6v9.5c0,0.3,0,0.7-0.1,1
	C260.8,209.1,260.7,209.4,260.5,209.5L260.5,209.5z"/>
<path class="st9" d="M302.9,166.6h42.6v42.6h-42.6V166.6z"/>
<path class="st10" d="M366.8,159.5l-21.3,7.1v42.6l21.3-7.1V159.5z"/>
<path class="st11" d="M302.9,166.6l21.3-7.1h42.6l-21.3,7.1H302.9z"/>
<path class="st16" d="M329.2,169.3h14.5v6.3h-14.5V169.3z"/>
<path class="st19" d="M327.9,201.2l-0.1,8.2h-7.3v-8.2H327.9z M327.9,166.6l-0.1,8.2h-7.3v-8.2H327.9z M338.1,159.5h6.8l-17.1,7.1
	h-7.3L338.1,159.5L338.1,159.5z"/>
<path class="st23" d="M265,182.7v0.4c0,4.6,1.1,9.1,3.1,13.2c0.8,1.6,1.7,3,2.7,4.4c1.1,1.5,2.4,2.9,3.8,4.1
	c2.9,2.6,6.5,4.4,10.3,5.3c1.8,0.4,3.5,0.7,5.3,0.7c1.7,0.1,3.3-0.1,5-0.3c1.5-0.2,3-0.6,4.5-1c2.6-0.8,5.1-1.9,7.4-3.3
	c1.9-1.1,3.7-2.4,5.4-3.8c1.4-1.1,2.7-2.3,3.9-3.6l0.4-0.4c0.8,0.1,1.5,0,2.3-0.1s1.5-0.3,2.2-0.5c0.7-0.2,1.4-0.5,2.1-0.9
	c0.7-0.4,1.3-0.8,1.9-1.3c1.2-1,2.1-2.2,2.8-3.6c0.3-0.7,0.6-1.4,0.8-2.2c0.2-0.7,0.3-1.5,0.4-2.3c0-0.5,0-1.1,0-1.6
	c0-0.3-0.1-0.6-0.2-0.9s-0.3-0.5-0.6-0.7c-1.4-1.2-3,0-3.9,1.3c-0.9,1.3-1.5,2.4-2.8,2.8c-0.4,0.1-0.8,0.1-1.2,0.1
	c-0.4-0.1-0.8-0.2-1.1-0.5c-0.1-0.1-0.2-0.2-0.3-0.2c-0.1-0.2-0.3-0.3-0.5-0.4c-0.2-0.1-0.4-0.1-0.6-0.2c-0.2,0-0.4,0-0.6,0.1
	c-0.2,0.1-0.4,0.2-0.5,0.3c-0.1,0.1-0.2,0.2-0.3,0.4c-0.3,0.5-0.5,1.1-0.7,1.7c-0.4,1.2-0.6,2.5-0.7,3.8c-1.8,0.7-4.1,1.5-6.6,2.4
	c-1.8,0.6-3.6,1.1-5.4,1.5c-1.9,0.4-3.8,0.7-5.8,0.7c-1,0-2,0-3-0.1c-1-0.1-1.9-0.3-2.8-0.5c-0.9-0.2-1.7-0.5-2.5-0.9
	c-0.8-0.3-1.5-0.8-2.2-1.3c-0.6-0.5-1.2-1.1-1.8-1.7c-0.6-0.6-1.1-1.3-1.5-2c-0.9-1.5-1.7-3-2.2-4.7c-0.5-1.6-1-3.2-1.3-4.9
	c-0.2-1.3-0.4-2.5-0.6-3.8c-2.1,1.5-4.5,2.6-7,3.4C270.2,182.4,267.6,182.8,265,182.7L265,182.7z"/>
<path class="st28" d="M283.5,122.8c-0.3-1.1-0.9-2.2-1.7-3.1c-0.8-0.9-1.8-1.6-2.9-2.1c-2.2-0.9-4.7-1.1-7-0.5
	c-1.2,0.3-2.3,0.7-3.4,1.3c-1.1,0.6-2,1.4-2.8,2.3c-0.8,0.9-1.5,1.9-1.9,3.1c-0.5,1.1-0.7,2.3-0.8,3.6c-0.1,3.9,2,7.4,4.1,10.6
	C271.3,131.7,276.9,126.5,283.5,122.8z"/>
<path class="st27" d="M285.9,118.4c1-0.8,2.3-1.1,3.6-1c0.4,0.1,0.8,0.3,1.2,0.6c0.4,0.3,0.7,0.6,0.9,0.9c0.3,0.4,0.4,0.8,0.6,1.2
	c0.1,0.4,0.2,0.9,0.1,1.3c-0.1,0.9-0.4,1.7-0.8,2.5c-0.4,0.8-1,1.5-1.7,2.1c-0.5,0.5-1,0.9-1.6,1.4c-0.6,0.4-1.2,0.8-1.8,1.1
	c-1.3,0.6-2.6,1.1-4,1.4c-0.7,0.1-1.4,0.2-2.1,0.2c-1.4,0.1-2.8-0.1-4.2-0.4c-0.7-0.2-1.3-0.4-2-0.7c-0.7-0.3-2.4-0.9-2.8-1.5
	c-0.6-1.1,0.6-1.3,1.6-1.8C277.2,123.1,281.5,120.8,285.9,118.4L285.9,118.4z"/>
<path class="st29" d="M284.8,131.9c-0.3-0.1-0.6-0.1-0.9,0c-0.3,0.1-0.6,0.2-0.8,0.4c-0.2,0.3-0.3,0.5-0.4,0.8
	c-0.1,0.3,0,0.6,0.1,0.9c0.3,2.3,1.2,4.5,2.5,6.4c0.4-0.6,0.8-1.2,1.1-1.8c0.6-1.3,0.8-2.7,0.7-4.2c-0.1-0.7-0.2-1.4-0.5-2.1
	C286.1,132.5,285.4,131.9,284.8,131.9L284.8,131.9z M274.2,141.9c0.3-2.5,0.2-5.1-0.3-7.5c-0.5-2.7-1.6-5.3-3.2-7.6
	c-1.2,1.1-2.2,2.3-3,3.7c-0.6,1.6-1,3.3-1.2,5c-0.1,0.8-0.1,1.7,0,2.6c0.1,0.8,0.2,1.7,0.4,2.5c0.2,0.8,0.4,1.6,0.8,2.4
	c0.3,0.8,0.7,1.6,1.1,2.3c0.4,0.7,0.9,1.4,1.4,2.1c0.5,0.7,1.1,1.3,1.8,1.9C273.2,146.9,273.9,144.4,274.2,141.9L274.2,141.9z"/>
<path class="st23" d="M284.7,131.3c-0.6,3.1,0.8,6.1,2,8.9c1.2,2.9,2.3,6.1,1.1,9c-0.3,0.7-0.8,1.4-1.3,2c-0.5,0.6-1.2,1.1-1.9,1.4
	c-0.7,0.4-1.5,0.6-2.3,0.8c-0.8,0.1-1.6,0.2-2.4,0c-1.6-0.3-3.1-0.9-4.4-1.9c-1.3-1-2.3-2.2-3.1-3.7c-0.7-1.5-1.2-3-1.5-4.6
	c-0.3-1.6-0.3-3.2-0.1-4.8c0.4-3.2,1-6.4,2-9.4C276.8,127,281.4,128.4,284.7,131.3L284.7,131.3z"/>
<path class="st23" d="M271.8,139.4c-0.4-0.4-0.8-0.8-1.3-1.1c-0.2-0.1-0.5-0.2-0.8-0.3c-0.3,0-0.6,0-0.8,0.1
	c-0.4,0.1-0.7,0.3-0.9,0.6c-0.3,0.3-0.4,0.6-0.5,1c-0.1,0.3-0.2,0.7-0.2,1c0,0.4,0,0.7,0.2,1c0.1,0.3,0.3,0.7,0.4,1
	c0.2,0.3,0.4,0.6,0.7,0.8c0.3,0.2,0.6,0.4,0.9,0.5c0.3,0.1,0.7,0.2,1,0.3c0.4,0,0.7,0,1.1-0.1c0.3-0.1,0.7-0.2,1-0.4
	C272.1,142.5,271.9,141,271.8,139.4L271.8,139.4z"/>
<path class="st29" d="M287,133.7c-4.6,0.1-9.1-1-13-3.4c0.4,1.3,0.4,2.8,0,4.1c-0.3,1-0.7,1.9-1.3,2.7c-0.6,0.8-1.3,1.6-2.1,2.2
	c-1.8-2.6-2.7-5.8-2.3-9c0-0.4,0.1-0.7,0.2-1.1c0.6-0.9,1.3-1.7,2.1-2.4c1.2-1.1,2.7-2,4.2-2.6c1-0.4,2.1-0.6,3.2-0.8
	c2.2-0.3,4.4-0.1,6.5,0.6c1,0.4,2,0.8,3,1.4c0.3,0.3,0.6,0.6,0.9,0.9c0.7,0.8,1.3,1.7,1.7,2.6c0.1,0.2,0.1,0.4,0.2,0.7
	c0,0.2,0.1,0.5,0,0.7c0,0.2,0,0.5-0.1,0.7c-0.1,0.2-0.1,0.4-0.2,0.7c-0.1,0.2-0.2,0.4-0.4,0.6c-0.1,0.2-0.3,0.4-0.5,0.5
	c-0.2,0.2-0.4,0.3-0.6,0.4c-0.2,0.1-0.4,0.2-0.6,0.3C287.7,133.6,287.4,133.7,287,133.7L287,133.7z"/>
<path class="st30" d="M481.4,209.9c-0.1,0.5-1.2,0.7-3.1,0.7c-0.9,0-2.1,0-3.4-0.1c-1.3-0.1-2.8-0.2-4.4-0.4
	c-1.6-0.2-3.4-0.4-5.4-0.7c-1.9-0.3-4-0.7-6.1-1.2c-2.2-0.5-4.4-1.1-6.8-1.9c-2.4-0.8-4.8-1.7-7.1-2.8c-2.4-1.1-4.7-2.4-6.9-3.8
	c-2.1-1.4-4-2.9-5.9-4.5c-0.9-0.8-1.7-1.6-2.5-2.5c-0.4-0.4-0.8-0.8-1.1-1.3c-0.3-0.4-0.7-0.9-1-1.3c-0.3-0.4-0.6-0.9-0.9-1.3
	c-0.3-0.4-0.6-0.8-0.9-1.3c-0.5-0.9-1-1.7-1.4-2.5c-0.7-1.5-1.3-3.1-1.7-4.7c-0.2-0.7-0.3-1.4-0.4-2c-0.1-0.6-0.1-1.2-0.1-1.8
	c0-0.3,0-0.5,0.1-0.8c0.1-0.2,0.1-0.5,0.1-0.7c0.1-0.4,0.2-0.8,0.4-1.1c0.1-0.3,0.3-0.5,0.5-0.8c0.2-0.2,0.5-0.4,0.8-0.5
	c0.6-0.2,1.2-0.1,1.8,0.1c0.3,0.1,0.7,0.3,1,0.5c0.2,0.1,0.3,0.2,0.5,0.4c0.2,0.1,0.4,0.3,0.6,0.4c0.4,0.3,0.8,0.6,1.1,1
	c0.4,0.3,0.8,0.7,1.2,1.1c0.9,0.8,1.8,1.7,2.8,2.7c0.5,0.5,1.1,1,1.6,1.5l0.9,0.8c0.3,0.3,0.6,0.6,0.9,0.8l0.9,0.9
	c0.3,0.3,0.6,0.6,1,0.9c0.6,0.6,1.4,1.2,2.1,1.8c1.4,1.2,3,2.4,4.7,3.7c1.7,1.2,3.5,2.5,5.4,3.7c1.9,1.2,3.8,2.3,5.8,3.4
	c1.9,1.1,3.8,2.1,5.6,3s3.6,1.8,5.3,2.6l4.7,2.3c1.4,0.7,2.8,1.3,3.9,1.9c1.2,0.6,2.2,1.1,3,1.6
	C480.7,208.7,481.6,209.4,481.4,209.9L481.4,209.9z"/>
<path class="st29" d="M529.9,232.4c-1.4,1-2.8,2.1-4.3,3.1v-0.2l-45.3-23c-0.6-0.3-1-0.8-1.2-1.4c-0.2-0.6-0.2-1.3,0.1-1.8
	c0.3-0.6,0.8-1,1.4-1.2c0.6-0.2,1.3-0.2,1.8,0.1l47.5,24L529.9,232.4z M364.3,322.4c0,0,1.3,7.8,8.3,6.4l5.8,27.5l-24.7-29.8
	L364.3,322.4z"/>
<path class="st6" d="M375.1,357.6l-23.4-28.3c-0.1-0.1-0.2-0.2-0.2-0.4s-0.1-0.3,0-0.4c0-0.1,0.1-0.3,0.1-0.4
	c0.1-0.1,0.1-0.2,0.3-0.3l1.8-1.5l24.7,29.8l-1.8,1.5c-0.2,0.2-0.5,0.3-0.7,0.2C375.6,358,375.3,357.9,375.1,357.6L375.1,357.6z
	 M369.5,335.2c0.1,0.1,0.2,0.1,0.3,0.1c1.4-0.1,2.8,0.1,4.2,0.4c0.1,0,0.2,0,0.2,0c0.1,0,0.2,0,0.2-0.1c0.1,0,0.1-0.1,0.2-0.2
	c0.1-0.1,0.1-0.1,0.1-0.2c0-0.2,0-0.3-0.1-0.5c-0.1-0.1-0.2-0.3-0.4-0.3c-1.5-0.4-3.1-0.6-4.7-0.5c-0.1,0-0.2,0-0.2,0.1
	c-0.1,0-0.1,0.1-0.2,0.1c-0.1,0.1-0.1,0.1-0.1,0.2s0,0.2,0,0.2c0,0.1,0,0.2,0.1,0.3C369.3,335,369.4,335.1,369.5,335.2L369.5,335.2z
	 M370.3,338.6c0.1,0.1,0.2,0.1,0.3,0.1c1.4-0.1,2.8,0.1,4.2,0.4c0.1,0,0.2,0,0.2,0c0.1,0,0.2,0,0.2-0.1c0.1,0,0.1-0.1,0.2-0.2
	c0.1-0.1,0.1-0.1,0.1-0.2c0-0.2,0-0.3-0.1-0.5c-0.1-0.1-0.2-0.3-0.4-0.3c-1.5-0.4-3.1-0.6-4.7-0.5c-0.1,0-0.2,0-0.2,0.1
	c-0.1,0-0.1,0.1-0.2,0.1c-0.1,0.1-0.1,0.1-0.1,0.2c0,0.1,0,0.2,0,0.2c0,0.1,0.1,0.2,0.1,0.3C370.1,338.5,370.2,338.5,370.3,338.6z
	 M371.1,342c0.1,0.1,0.2,0.1,0.3,0.1c1.4-0.1,2.8,0.1,4.2,0.4c0.1,0,0.2,0,0.2,0c0.1,0,0.2,0,0.2-0.1c0.1,0,0.1-0.1,0.2-0.2
	c0-0.1,0.1-0.1,0.1-0.2c0-0.2,0-0.3-0.1-0.5c-0.1-0.1-0.2-0.3-0.4-0.3c-1.5-0.4-3.1-0.6-4.7-0.5c-0.1,0-0.2,0-0.2,0.1
	c-0.1,0-0.1,0.1-0.2,0.1c-0.1,0.1-0.1,0.1-0.1,0.2c0,0.1,0,0.2,0,0.2c0,0.1,0,0.2,0.1,0.3C371,341.9,371,342,371.1,342L371.1,342z"
	/>
<path class="st29" d="M443.2,344.5c0,0,6.7,4.1,10.2-2l24.6,13.7l-38.7-1L443.2,344.5z"/>
<path class="st6" d="M476.6,359.4l-36.2-0.9c-0.3,0-0.7-0.2-0.9-0.4c-0.2-0.2-0.4-0.6-0.4-0.9l0.1-2.1l38.7,1l-0.1,2.1
	c0,0.3-0.1,0.6-0.4,0.9C477.3,359.3,477,359.4,476.6,359.4L476.6,359.4z M456.2,348.9c0.1,0,0.2-0.1,0.3-0.2
	c0.9-1.1,1.9-2.1,3.1-2.9c0.1,0,0.1-0.1,0.2-0.2c0-0.1,0.1-0.1,0.1-0.2c0-0.1,0-0.2,0-0.2c0-0.1,0-0.2-0.1-0.2
	c-0.1-0.1-0.2-0.2-0.4-0.3c-0.2,0-0.3,0-0.5,0.1c-1.3,0.9-2.5,1.9-3.4,3.2c-0.1,0.1-0.1,0.1-0.1,0.2c0,0.1,0,0.2,0,0.2
	c0,0.1,0,0.2,0.1,0.2s0.1,0.1,0.2,0.2c0.1,0.1,0.2,0.1,0.3,0.1C456,349,456.1,349,456.2,348.9L456.2,348.9z M459.4,350.6
	c0.1,0,0.2-0.1,0.3-0.2c0.9-1.1,1.9-2.1,3.1-2.9c0.1,0,0.1-0.1,0.2-0.2c0-0.1,0.1-0.1,0.1-0.2c0-0.1,0-0.2,0-0.2
	c0-0.1,0-0.2-0.1-0.2c-0.1-0.1-0.2-0.2-0.4-0.3c-0.2,0-0.3,0-0.5,0.1c-1.3,0.9-2.5,1.9-3.4,3.2c-0.1,0.1-0.1,0.1-0.1,0.2
	c0,0.1,0,0.2,0,0.2c0,0.1,0,0.2,0.1,0.2s0.1,0.1,0.2,0.2c0.1,0.1,0.2,0.1,0.3,0.1C459.1,350.6,459.2,350.6,459.4,350.6L459.4,350.6z
	 M462.5,352.2c0.1,0,0.2-0.1,0.3-0.2c0.9-1.1,1.9-2.1,3.1-2.9c0.1,0,0.1-0.1,0.2-0.2c0-0.1,0.1-0.1,0.1-0.2c0-0.1,0-0.2,0-0.2
	c0-0.1,0-0.2-0.1-0.2c-0.1-0.1-0.2-0.2-0.4-0.3c-0.2,0-0.3,0-0.5,0.1c-1.3,0.9-2.5,1.9-3.4,3.2c-0.1,0.1-0.1,0.1-0.1,0.2
	c0,0.1,0,0.2,0,0.2c0,0.1,0,0.2,0.1,0.2c0,0.1,0.1,0.1,0.2,0.2c0.1,0.1,0.2,0.1,0.3,0.1C462.3,352.3,462.4,352.2,462.5,352.2
	L462.5,352.2z M432.9,186.3c1.3,11,1.4,21.9,1.3,33c-10.4,3.9-21.5,5.2-32.5,3.9c-1.1-11.1-2.3-22.3-2.7-33.4
	c-0.2-5.9-0.3-11.9,1.2-17.5c1.3-5.1,3.9-10,8-13.1c0.5-0.4,0.9-0.7,1.4-1c2.5,1.9,7.8,2.5,10.6,1c1.6,1,3,2.1,4.2,3.5
	c2.3,2.5,4,5.4,5.2,8.5C431.5,175.9,432.3,181.1,432.9,186.3L432.9,186.3z"/>
<path class="st31" d="M424.2,162.2c-2.8,0.8-5.7,1-8.5,0.4c-1.5-0.3-3-0.8-4.3-1.5c-1.1-0.6-2.1-1.2-3.1-2c0-0.2-0.1-0.4-0.1-0.7
	v-0.3l0.1-0.9c0.4-3.2,0.7-6.4,1.1-9.5c0.3-2.9,0.6-5.9,0.9-8.8c3.4,1.5,6.6,3.3,9.6,5.4c0.1,2,0.3,3.9,0.6,5.9
	c0.2,1.7,0.5,3.3,0.8,4.9c0.2,0.9,0.4,1.8,0.5,2.7c0.2,0.9,0.4,1.7,0.6,2.5C423,160.9,423.6,161.5,424.2,162.2L424.2,162.2z"/>
<path class="st32" d="M421.1,155.1c-3.5-0.9-7.5-1.7-11.8-7.4c0.3-2.9,0.6-5.9,0.9-8.8c3.4,1.5,6.6,3.3,9.6,5.4c0.1,2,0.3,4,0.6,5.9
	C420.5,151.8,420.8,153.4,421.1,155.1L421.1,155.1z"/>
<path class="st28" d="M420.3,120.4c-0.4-1.1-0.9-2-1.7-2.9c-0.8-0.8-1.7-1.5-2.8-1.9c-2.1-0.8-4.4-0.9-6.6-0.2
	c-2.3,0.6-4.3,1.9-5.8,3.7c-1.5,1.8-2.3,4-2.3,6.4c0,3.7,2.2,6.9,4.3,9.9C409.1,129.3,414.3,124.2,420.3,120.4L420.3,120.4z"/>
<path class="st27" d="M422.5,116.2c1-0.6,2.2-1.3,3.4-1.1c1.7,0.2,2.8,2,2.8,3.7c-0.2,1.7-0.9,3.3-2.2,4.4c-1.9,1.9-4.2,3.3-6.8,3.9
	c-2.6,0.6-5.3,0.4-7.9-0.5c-0.6-0.2-2.3-0.7-2.7-1.3c-0.6-1,0.5-1.3,1.4-1.8L422.5,116.2z"/>
<path class="st33" d="M410.5,145.8c-3.1-2.6-5.1-6.3-5.6-10.3c-0.3-2.4,0-4.9,0.8-7.2c0.2-0.4,0.5-0.9,0.7-1.3
	c0.5-0.8,1.2-1.6,1.9-2.3c1.6,2.1,2.7,4.5,3.3,7.1C412.9,136.4,412.5,141.4,410.5,145.8L410.5,145.8z M423.7,129.4
	c0.5,1.2,0.7,2.6,0.6,3.9c-0.2,1.3-0.7,2.6-1.5,3.7c-1.3-1.8-2.2-3.8-2.6-6c-0.1-0.3-0.1-0.6-0.1-0.9c0-0.3,0.1-0.6,0.3-0.8
	c0.2-0.2,0.5-0.3,0.7-0.4c0.3-0.1,0.6-0.1,0.8,0C422.5,129,423.1,129.6,423.7,129.4L423.7,129.4z"/>
<path class="st31" d="M421.9,128.4c-0.4,2.9,1,5.7,2.2,8.4c1.3,2.7,2.4,5.7,1.4,8.5c-1,2.9-4.3,4.6-7.3,4.3c-1.5-0.2-3-0.8-4.2-1.6
	c-1.3-0.9-2.3-2-3-3.4c-1.4-2.7-2.1-5.8-1.9-8.8c0.2-3,0.8-6.1,1.6-9C414.2,124.7,418.6,125.9,421.9,128.4L421.9,128.4z"/>
<path class="st31" d="M409.9,136.6c-0.4-0.4-0.8-0.7-1.3-1c-0.5-0.3-1-0.3-1.6-0.1c-0.3,0.1-0.6,0.4-0.8,0.6
	c-0.2,0.3-0.4,0.6-0.5,0.9c-0.2,0.7-0.2,1.3,0.1,2c0.2,0.6,0.6,1.2,1.2,1.6c0.5,0.4,1.2,0.6,1.9,0.7c0.7,0,1.3-0.1,1.9-0.5
	C410.3,139.5,410,138.1,409.9,136.6L409.9,136.6z"/>
<path class="st33" d="M424.1,130.6c-4.3,0.3-8.6-0.6-12.4-2.7c0.4,1.3,0.4,2.6,0.1,3.9c-0.4,1.9-1.5,3.5-3,4.7
	c-1.7-2.4-2.8-5.6-2.4-8.5c0-0.3,0.1-0.7,0.2-1c0.5-0.8,1.2-1.6,1.9-2.3c1.1-1.1,2.5-2,3.9-2.7c1.9-0.8,4-1.2,6.1-1
	c2.1,0.1,4.1,0.7,5.9,1.7c0.3,0.2,0.6,0.5,0.9,0.8c0.7,0.7,1.3,1.5,1.7,2.4c0.2,0.5,0.3,1,0.3,1.6c0,0.5-0.2,1.1-0.5,1.5
	c-0.3,0.5-0.7,0.9-1.1,1.1C425.1,130.4,424.6,130.5,424.1,130.6L424.1,130.6z"/>
<path class="st34" d="M401,232.5c0,0,10.7,51.2-40.2,89.9l14.7,14.8c0,0,57-42.4,49-93.8L401,232.5z"/>
<path class="st35" d="M400.2,262.1c4,10.7,9,21.2,13.3,31.9c8.3-14.6,13.9-32,11-50.6l-23.5-10.9
	C401.1,232.5,403.6,244.9,400.2,262.1z"/>
<path class="st28" d="M432.7,177c2.7,15.7,4.1,39,2.9,54.9c0,0,30.9,55.3,26.8,112.1l-21.7,6.3c0,0-7.8-74.1-39.1-110.7l-2.7-37.2
	l23.5-4.8l1.3-20L432.7,177z"/>
<path class="st34" d="M400.6,206.5c-0.2,0-0.4-0.2-0.7-0.7c-0.2-0.3-0.3-0.6-0.4-0.9c-0.2-0.4-0.3-0.8-0.5-1.3
	c-0.1-0.2-0.2-0.5-0.2-0.8c-0.1-0.3-0.2-0.6-0.2-0.9c-0.1-0.3-0.2-0.6-0.2-1c-0.1-0.3-0.1-0.7-0.2-1c-0.1-0.4-0.2-0.7-0.2-1.1
	c-0.1-0.4-0.1-0.8-0.2-1.2c-0.1-0.8-0.2-1.7-0.3-2.6c-0.2-1.9-0.3-3.9-0.3-6.1c0-2.3,0.2-4.7,0.4-7c0.3-2.6,0.8-5.1,1.4-7.6
	c0.6-2.8,1.7-5.6,3.1-8.1c0.8-1.3,1.8-2.6,2.9-3.6c1.1-1.1,2.5-1.9,3.9-2.5c0.7-0.3,1.5-0.5,2.2-0.6l0.6-0.1l0.6,0h1.1
	c1.4,0.1,2.9,0.4,4.2,1c1.2,0.5,2.3,1.2,3.3,2.1c0.2,0.2,0.5,0.4,0.7,0.6l0.7,0.6l0.6,0.7c0.2,0.2,0.4,0.5,0.6,0.7
	c0.7,0.9,1.3,1.8,1.8,2.9c0.4,0.9,0.8,1.8,1.1,2.8c0.5,1.6,0.9,3.3,1.1,5c0.2,1.2,0.3,2.5,0.3,3.8c0,2.1-0.1,3.2-0.3,3.2
	c-0.2,0-0.5-1.1-0.9-3.1c-0.2-1-0.5-2.2-0.8-3.6c-0.4-1.5-0.9-3-1.5-4.5c-0.7-1.7-1.7-3.2-2.9-4.6c-0.2-0.2-0.3-0.4-0.5-0.5
	c-0.2-0.2-0.4-0.3-0.5-0.5l-0.6-0.5c-0.2-0.2-0.4-0.3-0.6-0.4c-0.8-0.6-1.7-1.1-2.7-1.4c-1-0.4-2-0.5-3-0.5h-0.4c-0.1,0-0.3,0-0.4,0
	l-0.4,0l-0.4,0.1c-0.5,0.1-1,0.3-1.4,0.5c-2,1-3.7,2.7-4.8,4.7c-1.2,2.2-2,4.6-2.5,7c-0.6,2.5-1,4.9-1.3,7.2
	c-0.3,2.3-0.5,4.5-0.7,6.6c-0.1,2.1-0.2,4-0.2,5.8v3.7c0,0.4,0,0.7,0,1.1c0,0.4,0,0.7,0,1l0,1v0.9c0,0.3,0,0.5,0,0.8v2.4
	C400.9,206.2,400.7,206.5,400.6,206.5L400.6,206.5z"/>
<path class="st29" d="M500,342l-23.1-119.7l-21.3-10c-0.6-0.3-1-0.8-1.2-1.4c-0.2-0.6-0.2-1.3,0.1-1.8c0.3-0.6,0.8-1,1.4-1.2
	c0.6-0.2,1.3-0.2,1.8,0.1l23.6,11.1l0.2,1.2l22.4,115.9l100.9-25.5c0.6-0.2,1.3-0.1,1.8,0.3c0.5,0.3,0.9,0.9,1.1,1.5
	c0.2,0.6,0.1,1.3-0.3,1.8c-0.3,0.5-0.9,0.9-1.5,1.1L500,342z"/>
<path class="st29" d="M477,338.3l15-40.8l4.8,1.8l-15,40.8L477,338.3z"/>
<path class="st29" d="M492.3,285.4l42.3-10.2l1.2,5l-42.3,10.2L492.3,285.4z"/>
<path class="st29" d="M488.3,358.1c7.5,0,13.6-6.1,13.6-13.6c0-7.5-6.1-13.6-13.6-13.6s-13.6,6.1-13.6,13.6
	C474.7,352,480.8,358.1,488.3,358.1z"/>
<path class="st28" d="M488.3,353.1c4.8,0,8.6-3.9,8.6-8.6c0-4.8-3.9-8.6-8.6-8.6s-8.6,3.9-8.6,8.6
	C479.7,349.2,483.5,353.1,488.3,353.1z"/>
<path class="st36" d="M488.3,348.6c2.3,0,4.1-1.9,4.1-4.1s-1.9-4.1-4.1-4.1s-4.1,1.9-4.1,4.1S486,348.6,488.3,348.6z"/>
<path class="st31" d="M468.4,211.5c-0.3,0.3-0.6,0.5-0.9,0.8c-0.2,0.1-0.4,0.3-0.6,0.4c-0.2,0.2-0.4,0.3-0.7,0.4
	c-0.5,0.3-1,0.6-1.7,1c-0.6,0.4-1.3,0.7-2.1,1c-0.7,0.4-1.6,0.7-2.5,1c-0.9,0.3-1.8,0.6-2.9,0.9l-0.8,0.2l-0.8,0.2l-1.7,0.4
	c-0.6,0.1-1.2,0.2-1.8,0.3c-0.6,0.1-1.2,0.2-1.9,0.3l-1.9,0.2c-0.3,0-0.7,0.1-1,0.1h-1c-0.7,0-1.4,0-2.1,0l-2.2-0.1
	c-0.7,0-1.4-0.1-2.2-0.2c-0.8-0.1-1.5-0.2-2.3-0.3l-2.3-0.5l-2.3-0.6c-3.3-1-6.5-2.4-9.4-4.1c-3-1.8-5.7-3.9-8.2-6.4
	c-0.6-0.6-1.2-1.2-1.7-1.8c-0.6-0.6-1-1.3-1.6-1.9c-0.5-0.6-1-1.3-1.4-2c-0.4-0.7-0.9-1.3-1.3-2c-0.4-0.7-0.8-1.3-1.1-2
	c-0.4-0.7-0.6-1.3-1-2c-0.1-0.3-0.3-0.7-0.4-1c-0.1-0.3-0.3-0.7-0.4-1c-0.2-0.6-0.4-1.1-0.6-1.7c5.7-1.3,10.8-4.6,14.4-9.4
	c0.1,0.2,0.2,0.3,0.2,0.5c0.2,0.4,0.4,0.8,0.6,1.2c0.2,0.4,0.4,0.8,0.6,1.2c0.2,0.4,0.4,0.8,0.7,1.2l0.3,0.6l0.4,0.6
	c0.2,0.4,0.5,0.9,0.7,1.3c0.3,0.4,0.5,0.9,0.8,1.3c0.3,0.4,0.5,0.9,0.8,1.3c0.3,0.4,0.5,0.9,0.9,1.3c0.3,0.4,0.6,0.9,0.9,1.3
	c0.3,0.4,0.7,0.9,1,1.3c1.4,1.8,3,3.5,4.6,5.1c1.8,1.6,3.6,3,5.6,4.3l1.5,0.9l1.5,0.8c0.5,0.3,1,0.5,1.6,0.7c0.5,0.2,1,0.5,1.6,0.7
	l1.6,0.6c0.5,0.2,1,0.3,1.6,0.5l0.8,0.2c0.3,0.1,0.5,0.1,0.8,0.2l1.5,0.4c0.5,0.1,1,0.2,1.5,0.3c0.5,0.1,1,0.2,1.4,0.3l1.4,0.2
	c0.2,0,0.5,0.1,0.7,0.1l0.7,0.1c0.9,0.1,1.8,0.2,2.6,0.1c0.8,0,1.6,0.1,2.4,0c0.7-0.1,1.4,0,2.1-0.1c0.6,0,1.2-0.1,1.8-0.1l0.8-0.1
	l0.7-0.1c0.4,0,0.7,0,1.1,0c0.6,0,1,0.1,1.1,0.3C469,210.7,468.8,211,468.4,211.5L468.4,211.5z"/>
<path class="st31" d="M462.8,211.5c0.8-1.4,2-2.5,3.6-3c1.5-0.6,3.2-0.6,4.7,0c1.5,0.6,2.8,1.6,3.6,3c0.8,1.4,1,3,0.7,4.6
	C470.7,216.7,466.1,214.7,462.8,211.5z"/>
<path class="st30" d="M473.3,205.8c1.8-0.9,3.9-1.4,6-1.4c2.1,0,4.1,0.5,5.9,1.5c1,0.5,1.9,1.3,2.6,2.2c0.3,0.5,0.6,1,0.7,1.5
	c0.1,0.6,0.2,1.1,0.1,1.7c-2.8,0.3-5.6-0.1-8.3-1.1C477.7,209.3,475.3,207.8,473.3,205.8L473.3,205.8z"/>
<path class="st37" d="M494.2,244.1l2.8-1.6l73-20l23,91l-75.9,19.7L494.2,244.1z"/>
<path class="st38" d="M604.1,200L568,220l24.9,93.7l34.1-24.6L604.1,200z"/>
<path class="st39" d="M494.2,244.1l34.1-24.6l75.8-19.5L570,224.6L494.2,244.1z"/>
<path class="st7" d="M542.5,237.7l25.7-6.6l3.4,13.1l-25.7,6.6L542.5,237.7z"/>
<path class="st38" d="M553.1,213.1L525.6,236l13.1-3.4l26.6-22.7L553.1,213.1L553.1,213.1z"/>
<path class="st38" d="M525.6,236l4.4,17.2l13-3.3l-4.3-17.2L525.6,236z M544.2,308l4.4,17.2l13-3.3l-4.3-17.2L544.2,308L544.2,308z"
	/>
</svg>
