<svg version="1.1" xmlns="http://www.w3.org/2000/svg" xmlns:xlink="http://www.w3.org/1999/xlink" width="630" height="390" viewBox="0 0 630 390">
<style type="text/css">
	.st0{fill:#F8F8FF;}
	.st1{fill:#EAF1FC;}
	.st2{fill:#FFFFFF;}
	.st3{fill:#D6E0F0;}
	.st4{fill:#E9EDF4;}
	.st5{fill:#CDE4F7;}
	.st6{opacity:0.43;fill:#7FCDC7;}
	.st7{fill:#7FCDC7;}
	.st8{fill:#FFDA35;}
	.st9{fill:#FFEDA1;}
	.st10{fill:#BDDEF4;}
	.st11{fill:#132C45;}
	.st12{fill:#FCE57E;}
	.st13{fill:#F18419;}
	.st14{fill:#F2F3F5;}
	.st15{fill:#ADBF5B;}
	.st16{fill:#C8D540;}
	.st17{fill:#0682A0;}
	.st18{fill:#FCFBFC;}
	.st19{fill:#E08F73;}
	.st20{fill:#0B2B46;}
	.st21{fill:#F09976;}
	.st22{fill:#E8815F;}
	.st23{fill:#02819F;}
	.st24{fill:#05616B;}
	.st25{fill:#047487;}
	.st26{fill:#311649;}
	.st27{fill:#75AEE8;}
	.st28{fill:#CAD2EF;}
	.st29{fill:#B5E8E5;}
	.st30{opacity:0.25;fill:#CFCCCD;}
	.st31{fill:#52B82D;}
</style>
<path class="st0" d="M552.1,41.6c-56.8-33.9-115.9,9.7-176.6,11.7C327.8,54.9,281.9,18,238.9,7.5c-61.4-15.1-142-0.6-190,61
	c-9.5,12.1-24.1,42-24.1,42s-8,18.7-10.4,36.4c-2.4,17.6-1.1,40.6,0,51.8c1.1,11.2,1.8,27.1,7.3,49.4c5.5,22.3,22.8,80.3,22.8,80.3
	l64.2,2.7h132.4v-0.3c109.5,0.1,216.1,0.4,335.8,0.1C616.8,249.4,638.8,93.3,552.1,41.6z"/>
<path class="st1" d="M313.5,387.3c173.2,0,313.5-20.1,313.5-44.9c0-24.8-140.4-44.9-313.5-44.9S0,317.6,0,342.4
	C0,367.2,140.4,387.3,313.5,387.3z"/>
<path class="st2" d="M454.6,179H350V31.5C350,15.7,364.8,3,383,3H424c18.3,0,33,12.7,33,28.5v145.3C457.1,178,456,179,454.6,179z"/>
<path class="st3" d="M455,181H351.1c-1.7,0-3.1-1.2-3.1-2.7V30c0-15.4,14.5-28,32.3-28h45.3C443.4,2,458,14.5,458,30v148.3
	C458.1,179.7,456.6,181,455,181L455,181z M351.3,178.1h103.4V30.1c0-13.9-13.1-25.2-29.1-25.2h-45.3c-16,0-29.1,11.3-29.1,25.2
	V178.1L351.3,178.1z"/>
<path class="st3" d="M403.5,180c-0.8,0-1.5-0.6-1.5-1.4V3.4c0-0.8,0.7-1.4,1.5-1.4s1.5,0.6,1.5,1.4v175.2
	C405,179.4,404.3,180,403.5,180z"/>
<path class="st3" d="M456.4,132H348.9c-1.7-1.4-0.6-3.2,0.8-3.2h107.5C458.8,130.2,457.8,132,456.4,132z M456.4,70.2H348.9
	c-1.7-1.4-0.6-3.2,0.8-3.2h107.5C458.8,68.4,457.8,70.2,456.4,70.2z"/>
<path class="st4" d="M549.5,90.7c-5.5,2-2.9,9.6,0.6,13c3.8,3.7,9.7,5.7,13,1.7c1-1.2,0.1-2.7-1.4-2.6c-2.4,0.1-4.2-0.6-3.3-2.3
	c0.8-1.7,4.5,1.6,5.8,1.6c3,0.1,4.2-2.2,3.5-4.1c-0.6-1.5-4.7-2.1-3.7-3.3c1.5-1.8,3.5,1,5.1-0.3c2.4-1.9,1.9-5.7,0.9-7.1
	c-0.8-1.1-4.3-2.8-6.9-1.7c-2.4,1-1.7,6.4-2.8,6.4c-2.2,0.1-0.4-4.6-2.1-6c-1-0.8-4.1-0.3-4.8,1.7c-1,2.6,2.6,7.6,0,7.9
	c-2.4,0.3-1-2.5-1.7-4C551.4,91.3,550.6,90.3,549.5,90.7L549.5,90.7z"/>
<path class="st5" d="M532.3,133.9L532.3,133.9c-0.2-0.1-0.3-0.1-0.2-0.3c6-18.1,18.2-33.6,34.4-43.6c0.1-0.1,0.3-0.1,0.3,0.1
	c0.1,0.1,0,0.3-0.1,0.3c-16.1,10-28.3,25.4-34.2,43.4C532.5,133.9,532.4,133.9,532.3,133.9L532.3,133.9z"/>
<path class="st4" d="M534.3,75.2c-4,4.2,1.7,9.8,6.4,11.3c5.1,1.6,11.2,0.8,12.4-4.3c0.3-1.5-1.1-2.4-2.4-1.7
	c-2.1,1.1-3.9,1.4-3.9-0.6c0-1.9,4.7-0.6,6-1.2c2.7-1.3,2.7-3.8,1.2-5.2c-1.2-1.1-5.1,0.2-4.8-1.3c0.5-2.3,3.6-0.7,4.4-2.5
	c1.2-2.8-0.8-6-2.4-6.7c-1.2-0.6-5.1-0.6-6.9,1.6c-1.7,2,1.4,6.4,0.3,7.1c-1.9,1.1-2.4-3.9-4.6-4.4c-1.3-0.3-3.8,1.6-3.5,3.7
	c0.3,2.8,5.8,5.6,3.6,7.1c-2,1.4-2-1.8-3.4-2.8C536.3,74.9,535,74.4,534.3,75.2L534.3,75.2z"/>
<path class="st5" d="M538.2,121.5c-0.1,0-0.2-0.1-0.2-0.2c-2.8-18.8,1.2-38.2,11.1-54.4c0.1-0.1,0.2-0.1,0.3-0.1
	c0.1,0.1,0.1,0.2,0.1,0.3c-9.9,16.1-13.8,35.4-11,54.2C538.4,121.4,538.3,121.5,538.2,121.5L538.2,121.5z"/>
<path class="st4" d="M530,84.8c5,3,0.9,9.9-3.3,12.5c-4.5,2.8-10.7,3.7-13.1-0.9c-0.7-1.4,0.4-2.6,1.9-2.3c2.3,0.6,4.2,0.3,3.7-1.5
	c-0.5-1.8-4.7,0.6-6,0.4c-2.9-0.6-3.6-3-2.6-4.7c0.9-1.4,5-1.1,4.3-2.5c-1-2.1-3.7,0.3-4.9-1.2c-1.9-2.4-0.8-6,0.6-7.1
	c1-0.9,4.7-1.9,7.1-0.3c2.2,1.5,0.3,6.6,1.5,6.9c2.1,0.6,1.4-4.4,3.3-5.4c1.2-0.6,4,0.6,4.4,2.6c0.4,2.8-4.2,6.9-1.7,7.8
	c2.3,0.8,1.5-2.2,2.6-3.6C528,85,529.1,84.2,530,84.8L530,84.8z"/>
<path class="st5" d="M538.1,130.6c-0.1,0-0.2-0.1-0.2-0.2c-2.1-18.8-10.9-36.3-24.7-49.4c-0.1-0.1-0.1-0.2,0-0.3
	c0.1-0.1,0.2-0.1,0.3,0c13.8,13.1,22.6,30.8,24.8,49.7C538.4,130.4,538.3,130.6,538.1,130.6C538.2,130.6,538.1,130.6,538.1,130.6
	L538.1,130.6z"/>
<path class="st2" d="M528.4,139.4h17.9l2.7-24.4h-23.4L528.4,139.4z"/>
<path class="st4" d="M549.1,119.3h-24.2l-0.3-3.7c0-0.4,0.3-0.7,0.6-0.7h24.2c0.4,0,0.7,0.3,0.6,0.7l-0.3,3
	C549.7,119,549.4,119.3,549.1,119.3z"/>
<path class="st3" d="M561,139.6h-57.8v2.6H561V139.6z M30.6,217.8H109h77.5v113.7H30.6V217.8z"/>
<path class="st6" d="M79.6,208.7h40.5v5.3H79.6V208.7z"/>
<path class="st7" d="M78.5,202.3h44.8v6.4H78.5V202.3z"/>
<path class="st2" d="M79.2,196.3H119v4.5H79.2V196.3z"/>
<path class="st8" d="M77.3,191.8h42.8v4.5H77.3V191.8z"/>
<path class="st9" d="M78.5,187h40.2v4.7H78.5V187z"/>
<path class="st5" d="M71.6,183l5.3,29.9c0.3,1.4,1,2.7,2.1,3.6c1.1,0.9,2.5,1.4,3.9,1.4h46.4l8.3-34.9H71.6z M86.4,212.5
	c0,0.2,0,0.4-0.1,0.6c-0.1,0.2-0.2,0.3-0.3,0.5c-0.1,0.1-0.3,0.2-0.5,0.3c-0.2,0.1-0.4,0.1-0.6,0.1c-0.2,0-0.4,0-0.6-0.1
	c-0.2-0.1-0.3-0.2-0.5-0.3c-0.1-0.1-0.2-0.3-0.3-0.5c-0.1-0.2-0.1-0.4-0.1-0.6v-7.6c0-0.2,0-0.4,0.1-0.6c0.1-0.2,0.2-0.3,0.3-0.5
	c0.1-0.1,0.3-0.2,0.5-0.3c0.2-0.1,0.4-0.1,0.6-0.1c0.2,0,0.4,0,0.6,0.1c0.2,0.1,0.3,0.2,0.5,0.3c0.1,0.1,0.2,0.3,0.3,0.5
	c0.1,0.2,0.1,0.4,0.1,0.6V212.5z M86.4,198.5c0,0.2,0,0.4-0.1,0.6c-0.1,0.2-0.2,0.3-0.3,0.5c-0.1,0.1-0.3,0.2-0.5,0.3
	s-0.4,0.1-0.6,0.1c-0.2,0-0.4,0-0.6-0.1c-0.2-0.1-0.3-0.2-0.5-0.3c-0.1-0.1-0.2-0.3-0.3-0.5c-0.1-0.2-0.1-0.4-0.1-0.6v-7.6
	c0-0.2,0-0.4,0.1-0.6c0.1-0.2,0.2-0.3,0.3-0.5c0.1-0.1,0.3-0.2,0.5-0.3c0.2-0.1,0.4-0.1,0.6-0.1c0.2,0,0.4,0,0.6,0.1
	c0.2,0.1,0.3,0.2,0.5,0.3c0.1,0.1,0.2,0.3,0.3,0.5c0.1,0.2,0.1,0.4,0.1,0.6V198.5z M91.9,212.5c0,0.4-0.2,0.8-0.4,1
	c-0.3,0.3-0.6,0.4-1,0.4c-0.4,0-0.8-0.2-1-0.4s-0.4-0.6-0.4-1v-7.6c0-0.4,0.2-0.8,0.4-1c0.3-0.3,0.6-0.4,1-0.4c0.4,0,0.8,0.2,1,0.4
	c0.3,0.3,0.4,0.6,0.4,1V212.5z M91.9,198.5c0,0.4-0.2,0.8-0.4,1c-0.3,0.3-0.6,0.4-1,0.4c-0.4,0-0.8-0.2-1-0.4
	c-0.3-0.3-0.4-0.7-0.4-1v-7.6c0-0.4,0.2-0.8,0.4-1c0.3-0.3,0.6-0.4,1-0.4c0.4,0,0.8,0.2,1,0.4c0.3,0.3,0.4,0.6,0.4,1V198.5z
	 M97.6,212.5c0,0.4-0.2,0.8-0.4,1c-0.3,0.3-0.6,0.4-1,0.4c-0.4,0-0.8-0.2-1-0.4c-0.3-0.3-0.4-0.6-0.4-1v-7.6c0-0.4,0.2-0.8,0.4-1
	c0.3-0.3,0.6-0.4,1-0.4c0.4,0,0.8,0.2,1,0.4c0.3,0.3,0.4,0.6,0.4,1V212.5z M97.6,198.5c0,0.4-0.2,0.8-0.4,1c-0.3,0.3-0.6,0.4-1,0.4
	c-0.4,0-0.8-0.2-1-0.4c-0.3-0.3-0.4-0.7-0.4-1v-7.6c0-0.4,0.2-0.8,0.4-1c0.3-0.3,0.6-0.4,1-0.4c0.4,0,0.8,0.2,1,0.4
	c0.3,0.3,0.4,0.6,0.4,1V198.5z M106.6,212.5c0,0.4-0.2,0.8-0.4,1c-0.3,0.3-0.6,0.4-1,0.4c-0.4,0-0.8-0.2-1-0.4
	c-0.3-0.3-0.4-0.6-0.4-1v-7.6c0-0.4,0.2-0.8,0.4-1c0.3-0.3,0.6-0.4,1-0.4c0.4,0,0.8,0.2,1,0.4c0.3,0.3,0.4,0.6,0.4,1V212.5z
	 M106.6,198.5c0,0.4-0.2,0.8-0.4,1c-0.3,0.3-0.6,0.4-1,0.4c-0.4,0-0.8-0.2-1-0.4c-0.3-0.3-0.4-0.7-0.4-1v-7.6c0-0.4,0.2-0.8,0.4-1
	c0.3-0.3,0.6-0.4,1-0.4c0.4,0,0.8,0.2,1,0.4c0.3,0.3,0.4,0.6,0.4,1V198.5z M112.2,212.5c0,0.4-0.2,0.8-0.4,1c-0.3,0.3-0.6,0.4-1,0.4
	c-0.4,0-0.8-0.2-1-0.4c-0.3-0.3-0.4-0.6-0.4-1v-7.6c0-0.4,0.2-0.8,0.4-1c0.3-0.3,0.6-0.4,1-0.4c0.4,0,0.8,0.2,1,0.4
	c0.3,0.3,0.4,0.6,0.4,1V212.5z M112.2,198.5c0,0.4-0.2,0.8-0.4,1c-0.3,0.3-0.6,0.4-1,0.4c-0.4,0-0.8-0.2-1-0.4
	c-0.3-0.3-0.4-0.7-0.4-1v-7.6c0-0.4,0.2-0.8,0.4-1c0.3-0.3,0.6-0.4,1-0.4c0.4,0,0.8,0.2,1,0.4c0.3,0.3,0.4,0.6,0.4,1V198.5z
	 M117.8,212.5c0,0.4-0.2,0.8-0.4,1c-0.3,0.3-0.6,0.4-1,0.4c-0.4,0-0.8-0.2-1-0.4c-0.3-0.3-0.4-0.6-0.4-1v-7.6c0-0.4,0.2-0.8,0.4-1
	c0.3-0.3,0.6-0.4,1-0.4c0.4,0,0.8,0.2,1,0.4c0.3,0.3,0.4,0.6,0.4,1V212.5z M117.8,198.5c0,0.4-0.2,0.8-0.4,1c-0.3,0.3-0.6,0.4-1,0.4
	c-0.4,0-0.8-0.2-1-0.4c-0.3-0.3-0.4-0.7-0.4-1v-7.6c0-0.4,0.2-0.8,0.4-1c0.3-0.3,0.6-0.4,1-0.4c0.4,0,0.8,0.2,1,0.4
	c0.3,0.3,0.4,0.6,0.4,1V198.5z"/>
<path class="st9" d="M116.7,181.4H81c-0.8,0-1.6-0.3-2.2-0.9c-0.6-0.6-0.9-1.4-0.9-2.2s0.3-1.6,0.9-2.2c0.6-0.6,1.4-0.9,2.2-0.9
	h35.8c0.8,0,1.6,0.3,2.2,0.9s0.9,1.4,0.9,2.2s-0.3,1.6-0.9,2.2C118.4,181.1,117.6,181.4,116.7,181.4L116.7,181.4z"/>
<path class="st10" d="M133.5,185.3H72.8c-0.8,0-1.5-0.3-2-0.7c-0.5-0.5-0.8-1.1-0.8-1.7c0-0.6,0.3-1.3,0.8-1.7
	c0.5-0.5,1.3-0.7,2-0.7h60.7c0.8,0,1.5,0.3,2,0.7c0.5,0.5,0.8,1.1,0.8,1.7c0,0.6-0.3,1.3-0.8,1.7C135,185,134.3,185.3,133.5,185.3
	L133.5,185.3z"/>
<path class="st5" d="M113.4,175.2H84.3c-0.6,0-1.2-0.2-1.6-0.7c-0.4-0.4-0.7-1-0.7-1.6s0.2-1.2,0.7-1.6c0.4-0.4,1-0.7,1.6-0.7h29.2
	c0.6,0,1.2,0.2,1.6,0.7c0.4,0.4,0.7,1,0.7,1.6s-0.2,1.2-0.7,1.6C114.6,175,114,175.2,113.4,175.2z"/>
<path class="st11" d="M136.4,201l0-5.1l5.7,0l0,5.1L136.4,201z"/>
<path class="st12" d="M146.6,167.6h-14.4c0,8.1-6.8,21.8-18.6,28.3l25.8,0.1l25.8,0.1C153.2,189.4,146.6,175.7,146.6,167.6
	L146.6,167.6z"/>
<path class="st13" d="M145.1,209.8c-4.3-3.4-1.9-5.3,1.5-5.3c1.7,0,1.7-3.5,0-3.5h-14.8c-1.7,0-1.7,3.5,0,3.5c3.5,0,5.8,1.9,1.5,5.3
	c-4.4,3.4-7.8,6.9-7.8,11.7c0,4.8,2.6,9.2,8.4,9.3h10.5c5.8,0,8.4-4.3,8.4-9.2C152.8,216.8,149.5,213.2,145.1,209.8z"/>
<path class="st14" d="M94.5,231c1.3,0,2.4-1.1,2.4-2.4c0-1.3-1.1-2.4-2.4-2.4s-2.4,1.1-2.4,2.4C92.1,229.9,93.2,231,94.5,231z"/>
<path class="st14" d="M118,231c1.3,0,2.4-1.1,2.4-2.4c0-1.3-1.1-2.4-2.4-2.4c-1.3,0-2.4,1.1-2.4,2.4C115.6,229.9,116.7,231,118,231z
	"/>
<path class="st11" d="M153.7,237.6h0.6c1.9,0,3.4-1.5,3.4-3.4s-1.5-3.4-3.4-3.4l-27.8,0.1c-1.9,0-3.4,1.5-3.4,3.4
	c0,1.9,1.5,3.4,3.4,3.4h0.6l-11.1,110.9l2.6,0.3l1.8-18.1l19.1-0.1v17.9h2.6l-0.1-17.9l19.1-0.1l1.9,18.1l2.5-0.3L153.7,237.6z
	 M160.3,324.3l-18.4,0.1l-0.1-55.6h12.7L160.3,324.3L160.3,324.3z M154.1,266.1h-12.5l-0.1-28.5h9.6L154.1,266.1L154.1,266.1z
	 M139.3,328.1l-18.8,0.1l0.1-1.2l18.7-0.1V328.1z M139.3,324.3l-18.4,0.1l5.6-55.6h12.7L139.3,324.3z M139.2,266.2h-12.5l2.8-28.5
	h9.6L139.2,266.2z M141.9,328.1v-1.2l18.7-0.1l0.1,1.2L141.9,328.1z"/>
<path class="st15" d="M102.9,334.6c3.4-0.6,1.9-24-3.2-52.2c-5.2-28.2-12.1-50.6-15.5-50c-3.4,0.6-1.9,24,3.2,52.2
	C92.6,312.9,99.5,335.2,102.9,334.6z"/>
<path class="st15" d="M117.5,284.5c4.8-28.3,5.9-51.7,2.5-52.2c-3.4-0.6-10.1,21.9-14.9,50.1c-4.8,28.3-5.9,51.7-2.5,52.2
	C106,335.2,112.7,312.8,117.5,284.5z"/>
<path class="st16" d="M100.8,325.6c3.7,0,6.6-24.7,6.6-55.1c0-30.4-3-55.1-6.6-55.1c-3.7,0-6.6,24.7-6.6,55.1
	C94.1,301,97.1,325.6,100.8,325.6z"/>
<path class="st16" d="M103,334.7c2.9-1.1-2-21.6-11-45.8c-9-24.2-18.7-43-21.6-41.9c-2.9,1.1,2,21.6,11,45.8
	C90.3,317,100,335.8,103,334.7z"/>
<path class="st16" d="M123.7,292.5c8.7-24.3,13.3-44.9,10.4-46c-3-1.1-12.4,17.8-21.1,42.2c-8.7,24.3-13.3,44.9-10.4,46
	C105.6,335.8,115,316.9,123.7,292.5z"/>
<path class="st17" d="M108.2,350.9L97.8,351c-6.1,0-11.4-5-12-11.6l-2.6-27.8c-0.1-1.5,0.9-2.7,2.4-2.8h0.2l33.9-0.2
	c1.5,0,2.6,1.2,2.6,2.6v0.2l-2.2,27.9C119.5,345.8,114.2,350.8,108.2,350.9z"/>
<path class="st3" d="M133,131c14.4,0,26-11.4,26-25.5c0-14.1-11.6-25.5-26-25.5s-26,11.4-26,25.5C107,119.6,118.6,131,133,131z"/>
<path class="st18" d="M133.5,125c10.8,0,19.5-8.7,19.5-19.5c0-10.8-8.7-19.5-19.5-19.5S114,94.7,114,105.5
	C114,116.3,122.7,125,133.5,125z"/>
<path class="st3" d="M121.5,99.8l11,8.9c0.3,0.2,0.6,0.3,0.9,0.3c0.3,0,0.7-0.1,0.9-0.4l10.3-10.3c0.3-0.3,0.4-0.6,0.4-1
	c0-0.4-0.1-0.7-0.4-1c-0.2-0.3-0.6-0.4-0.9-0.4c-0.4,0-0.7,0.1-0.9,0.4l-9.5,9.4l-10-8.2c-0.2-0.2-0.5-0.3-0.8-0.3s-0.6,0-0.8,0.2
	c-0.1,0.1-0.3,0.2-0.3,0.3c-0.1,0.1-0.2,0.3-0.3,0.5s-0.1,0.4-0.1,0.5c0,0.2,0.1,0.4,0.2,0.5C121.2,99.5,121.4,99.7,121.5,99.8
	L121.5,99.8z"/>
<path class="st3" d="M133.5,110c1.4,0,2.5-1.1,2.5-2.5s-1.1-2.5-2.5-2.5s-2.5,1.1-2.5,2.5S132.1,110,133.5,110z"/>
<path class="st4" d="M531.3,196h5v28.3h-5V196z"/>
<path class="st3" d="M551.7,225.6h-35.9c0-1.4,0.6-2.7,1.5-3.7c1-1,2.3-1.5,3.7-1.5h25.5c1.4,0,2.7,0.6,3.7,1.5
	C551.2,222.9,551.7,224.3,551.7,225.6L551.7,225.6z"/>
<path class="st5" d="M551.9,200.6h-36.3c-0.4,0-0.9-0.1-1.2-0.3c-0.4-0.2-0.7-0.5-0.9-0.9c-0.2-0.4-0.4-0.8-0.4-1.2
	c0-0.4,0-0.9,0.2-1.2l11-24.5c0.2-0.5,0.5-0.8,0.9-1.1c0.4-0.3,0.9-0.4,1.4-0.4H541c0.5,0,1,0.1,1.4,0.4c0.4,0.3,0.7,0.7,0.9,1.1
	l10.9,24.5c0.2,0.4,0.2,0.8,0.2,1.2c0,0.4-0.2,0.8-0.4,1.2c-0.2,0.4-0.5,0.7-0.9,0.9C552.8,200.5,552.3,200.6,551.9,200.6
	L551.9,200.6z"/>
<path class="st4" d="M473,225.6h100.7v89.1H473V225.6z"/>
<path class="st3" d="M481.7,232.4h82.4v31.2h-82.4V232.4z M481.7,270.2h82.4v36.1h-82.4V270.2z M477.2,314.8h9v7.8h-9V314.8z
	 M559.6,314.8h9v7.8h-9V314.8z"/>
<path class="st18" d="M489.9,281.7c2.4,0,4.4-2,4.4-4.4s-2-4.4-4.4-4.4c-2.4,0-4.4,2-4.4,4.4S487.5,281.7,489.9,281.7z"/>
<path class="st4" d="M486.9,238.2l40.9,0l0,10.9l-40.9,0L486.9,238.2z"/>
<path class="st18" d="M495.4,249.5l45.1,0l0,14.2l-45.1,0L495.4,249.5z"/>
<path class="st1" d="M184,0h3v52.5h-3V0z"/>
<path class="st3" d="M205.9,75c0-9.5-9.2-17.1-20.5-17.1c-11.3,0-20.5,7.7-20.5,17.1H205.9L205.9,75z"/>
<path class="st3" d="M192.7,58c0,5-3.4,9.1-7.6,9.1c-4.1,0-7.6-4.1-7.6-9.1s3.4-9.1,7.6-9.1C189.2,48.9,192.7,53,192.7,58L192.7,58z
	"/>
<path class="st1" d="M231,2h3v63h-3V2z"/>
<path class="st3" d="M252.9,92c0-11.4-9.2-20.5-20.5-20.5c-11.3,0-20.5,9.2-20.5,20.5H252.9L252.9,92z"/>
<path class="st3" d="M239.7,71.6c0,6-3.4,10.9-7.6,10.9c-4.1,0-7.6-4.9-7.6-10.9c0-6,3.4-10.9,7.6-10.9
	C236.2,60.7,239.7,65.6,239.7,71.6L239.7,71.6z"/>
<path class="st19" d="M356.8,206.7c-0.8-0.5-1.9-1-3.1-1.7c-1.2-0.6-2.6-1.2-4.2-2l-5-2.4c-1.7-0.9-3.6-1.8-5.5-2.8
	c-1.9-1-3.9-2-6-3.1c-2-1.1-4.1-2.4-6-3.6c-1.9-1.2-3.9-2.6-5.6-3.9c-1.7-1.3-3.4-2.6-4.9-3.9c-0.7-0.7-1.5-1.2-2.1-1.9
	c-0.3-0.3-0.7-0.6-1-0.9c-0.3-0.3-0.6-0.6-1-0.9c-0.3-0.3-0.6-0.6-0.9-0.9c-0.3-0.3-0.6-0.6-0.9-0.8l-1.7-1.7c-1-1-2-2-2.9-2.8
	c-0.4-0.4-0.9-0.8-1.3-1.2c-0.4-0.3-0.8-0.7-1.2-1l-0.6-0.4c-0.2-0.1-0.3-0.3-0.6-0.3c-0.3-0.2-0.7-0.4-1-0.6
	c-0.6-0.3-1.2-0.3-1.9-0.1c-0.6,0.2-1.1,0.7-1.4,1.3c-0.2,0.4-0.3,0.8-0.4,1.2c-0.1,0.2-0.1,0.5-0.1,0.8c-0.1,0.3-0.1,0.6-0.1,0.8
	c0,0.6,0,1.2,0.1,1.9c0.1,0.7,0.2,1.4,0.4,2.1c0.4,1.7,1,3.3,1.8,4.9c0.4,0.9,1,1.7,1.5,2.6c0.3,0.4,0.6,0.9,0.9,1.3
	c0.3,0.4,0.6,0.9,1,1.3c0.3,0.4,0.7,0.9,1,1.3c0.3,0.4,0.8,0.9,1.2,1.3c0.8,0.9,1.7,1.7,2.6,2.6c1.9,1.7,4,3.3,6.2,4.7
	c2.3,1.5,4.7,2.8,7.2,3.9c2.4,1.1,4.9,2.1,7.5,2.9c2.4,0.8,4.8,1.5,7.1,2c2.3,0.6,4.4,1,6.4,1.3c2,0.3,3.9,0.6,5.6,0.8
	c1.7,0.1,3.3,0.3,4.6,0.4c1.4,0.1,2.6,0.1,3.5,0.1c1.9,0,3.1-0.2,3.3-0.7C359.3,208.4,358.6,207.7,356.8,206.7L356.8,206.7z"/>
<path class="st20" d="M385,218.5l-24.7-11.6c-1.2-0.5-2.6,0-3.2,1.2c-0.6,1.2-0.2,2.8,1,3.4l22.4,10.5v0.1c1.5-1,3-2.1,4.5-3.2
	L385,218.5L385,218.5z M225.3,331.3l25.9,31.3l-6.1-28.9c-7.3,1.5-8.7-6.6-8.7-6.6L225.3,331.3L225.3,331.3z"/>
<path class="st2" d="M247.8,364c0.3,0.5,1,0.5,1.5,0.1l1.9-1.6l-25.9-31.3l-1.9,1.6c-0.5,0.3-0.5,1-0.1,1.5L247.8,364L247.8,364z
	 M241.5,339.9C241.5,339.9,241.5,339.8,241.5,339.9c0-0.4,0.3-0.7,0.6-0.7c1.7-0.1,3.3,0.1,4.9,0.5c0.3,0.1,0.6,0.5,0.5,0.8v0.1
	c-0.1,0.3-0.5,0.5-0.8,0.4c-1.5-0.4-2.9-0.6-4.4-0.4c-0.1,0-0.2,0-0.3-0.1C241.7,340.3,241.5,340.1,241.5,339.9z M242.4,343.5
	C242.4,343.5,242.4,343.4,242.4,343.5c0-0.4,0.3-0.7,0.6-0.7c1.7-0.1,3.3,0.1,4.9,0.5c0.3,0.1,0.6,0.5,0.5,0.8v0.1
	c-0.1,0.3-0.5,0.5-0.8,0.4c-1.5-0.4-2.9-0.6-4.4-0.4c-0.1,0-0.2,0-0.3-0.1C242.5,343.9,242.4,343.7,242.4,343.5z M243.3,347.1
	c0-0.4,0.3-0.7,0.6-0.7c1.7-0.1,3.3,0.1,4.9,0.5c0.3,0.1,0.6,0.5,0.5,0.8v0.1c-0.1,0.3-0.5,0.5-0.8,0.4c-1.5-0.4-2.9-0.6-4.4-0.5
	c-0.1,0-0.2,0-0.3-0.1C243.4,347.6,243.3,347.3,243.3,347.1z"/>
<path class="st20" d="M315.1,361.3l40.6,1L329.9,348c-3.7,6.4-10.7,2.1-10.7,2.1L315.1,361.3z"/>
<path class="st2" d="M354.3,365.9c0.8,0,1.3-0.6,1.3-1.3l0.1-2.2l-40.7-1l-0.1,2.2c0,0.8,0.6,1.4,1.3,1.4L354.3,365.9z M332.2,354.7
	C332.2,354.7,332.2,354.7,332.2,354.7c-0.3-0.2-0.3-0.6-0.1-0.9c1-1.3,2.2-2.4,3.6-3.3c0.3-0.2,0.8-0.1,1,0.2
	c0.2,0.3,0.1,0.7-0.2,0.8c-1.2,0.8-2.4,1.9-3.3,3c-0.1,0.1-0.1,0.1-0.3,0.2C332.6,354.9,332.4,354.9,332.2,354.7L332.2,354.7z
	 M335.5,356.5c-0.3-0.2-0.3-0.6-0.1-0.9c1-1.3,2.2-2.4,3.6-3.3c0.3-0.2,0.8-0.1,1,0.2c0.2,0.3,0.1,0.7-0.2,0.8
	c-1.2,0.8-2.4,1.9-3.3,3c-0.1,0.1-0.1,0.1-0.3,0.2C336,356.7,335.7,356.6,335.5,356.5L335.5,356.5z M338.8,358.2
	C338.7,358.2,338.7,358.2,338.8,358.2c-0.3-0.2-0.3-0.6-0.1-0.9c1-1.3,2.2-2.4,3.6-3.3c0.3-0.2,0.8-0.1,1,0.2
	c0.2,0.3,0.1,0.7-0.2,0.8c-1.2,0.8-2.4,1.9-3.3,3c-0.1,0.1-0.1,0.1-0.3,0.2C339.2,358.4,339,358.3,338.8,358.2z M304.9,168.2
	c-1.2-3.3-3.1-6.3-5.5-8.9c-1.3-1.4-2.8-2.6-4.4-3.7c-2.9,1.5-8.4,1-11.1-1.1c-0.6,0.3-1,0.7-1.5,1.1c-4.2,3.3-7,8.4-8.4,13.8
	c-1.5,6-1.5,12.3-1.2,18.4c0.5,11.7,1.7,23.4,2.9,35.1c11.5,1.4,23.2-0.1,34.1-4.1c0.1-11.6-0.1-23.1-1.4-34.6
	C307.7,178.8,306.9,173.3,304.9,168.2L304.9,168.2z"/>
<path class="st21" d="M297.3,157c-0.2-0.9-0.4-1.7-0.6-2.7c-0.2-1-0.4-1.9-0.6-2.8c-0.3-1.7-0.6-3.5-0.8-5.2
	c-0.3-2.1-0.5-4.2-0.6-6.2c-3.2-2.2-6.6-4.1-10.1-5.7c-0.3,3.1-0.6,6.2-0.9,9.3c-0.3,3.3-0.7,6.7-1.2,10.1c-0.1,0.3-0.1,0.7-0.1,1
	v0.3c0,0.2,0.1,0.5,0.1,0.7c1,0.8,2.1,1.5,3.2,2.1c1.5,0.8,3,1.2,4.6,1.6c3,0.6,6,0.5,9-0.4C298.6,158.2,297.9,157.6,297.3,157
	L297.3,157z"/>
<path class="st22" d="M295.2,146.3c-0.3-2.1-0.5-4.2-0.6-6.2c-3.2-2.2-6.6-4.1-10.1-5.7c-0.3,3-0.6,6.2-0.9,9.3
	c4.6,6,8.7,6.9,12.4,7.8C295.7,149.7,295.4,147.9,295.2,146.3L295.2,146.3z"/>
<path class="st23" d="M279.6,130.7c-2.2-3.1-4.5-6.6-4.5-10.4c0-2.4,0.9-4.8,2.4-6.7c1.6-1.9,3.7-3.2,6-3.9c2.3-0.7,4.7-0.6,6.9,0.2
	c2.2,0.9,3.9,2.7,4.7,5C288.8,118.9,283.5,124.3,279.6,130.7z"/>
<path class="st24" d="M284.9,118.2c-0.9,0.6-2.1,0.8-1.5,1.9c0.3,0.6,2.1,1.1,2.8,1.4c5.4,2,11.5,0.6,15.5-3.5
	c1.3-1.2,2.1-2.8,2.3-4.6c0.1-1.7-1.2-3.6-2.9-3.8c-1.2-0.1-2.4,0.6-3.5,1.2C293.3,113.1,289,115.6,284.9,118.2z"/>
<path class="st20" d="M286.2,127c-0.6-2.7-1.8-5.2-3.5-7.5c-0.8,0.8-1.5,1.6-2,2.4c-0.3,0.4-0.6,0.9-0.8,1.3c-0.8,2.4-1.2,5-0.8,7.5
	c0.5,4.2,2.6,8.1,5.9,10.9C286.9,137,287.4,131.9,286.2,127z M296.9,124c-0.6-0.1-1.2,0.1-1.7,0.5c-0.3,0.5-0.4,1.2-0.2,1.7
	c0.4,2.3,1.3,4.4,2.7,6.3c1.7-2.3,2.1-5.3,1-8C298.1,124.6,297.5,124.1,296.9,124L296.9,124z"/>
<path class="st21" d="M285,121.7c-0.8,3.1-1.4,6.3-1.7,9.5s0.4,6.4,1.9,9.3c1.6,2.8,4.4,5,7.6,5.3c3.2,0.3,6.6-1.5,7.7-4.6
	c1-2.9-0.1-6.1-1.5-8.9c-1.3-2.8-2.8-5.7-2.4-8.8C293.4,120.7,288.8,119.6,285,121.7L285,121.7z"/>
<path class="st21" d="M285.1,136.5c-0.8,0.5-1.8,0.6-2.8,0.3c-1.9-0.5-3-2.5-2.5-4.3c0.1-0.8,0.7-1.4,1.4-1.7
	c0.6-0.1,1.2-0.1,1.7,0.1c0.5,0.3,1,0.6,1.4,1C284.3,133.5,284.6,135.1,285.1,136.5L285.1,136.5z"/>
<path class="st20" d="M300.3,125.4c1.8-0.8,2.6-2.9,1.8-4.6c-0.4-1-1-1.8-1.8-2.6c-0.3-0.3-0.6-0.6-1-0.8c-3.9-2.1-8.5-2.4-12.6-0.7
	c-1.5,0.7-2.9,1.6-4.1,2.8c-0.8,0.8-1.5,1.6-2,2.4c-0.1,0.3-0.1,0.7-0.2,1.1c-0.4,3,0.7,6.4,2.6,8.8c1.6-1.2,2.6-3,3.1-4.9
	c0.3-1.3,0.3-2.8-0.1-4.1c4,2.2,8.5,3.2,13.1,2.8C299.6,125.7,300,125.6,300.3,125.4L300.3,125.4z"/>
<path class="st25" d="M299.6,244c8.4,54-51.5,98.4-51.5,98.4L232.8,327c53.4-40.6,42.2-94.4,42.2-94.4L299.6,244z"/>
<path class="st24" d="M275,232.6l24.7,11.4c3,19.5-2.8,37.7-11.6,53.1c-4.5-11.2-9.8-22.2-14-33.4C277.7,245.6,275,232.6,275,232.6
	L275,232.6z"/>
<path class="st23" d="M298.8,175.2l-1.4,21l-24.7,5l2.9,39c32.8,38.3,41,116.1,41,116.1l22.8-6.6c4.3-59.6-28.1-117.6-28.1-117.6
	c1.2-16.8-0.1-41.1-3-57.6L298.8,175.2L298.8,175.2z"/>
<path class="st25" d="M274.7,204.4v-4.2c0-0.3-0.1-0.6-0.1-1s0.1-0.7,0-1.1c-0.1-0.4-0.1-0.8-0.1-1.2v-3.9c0-1.9,0-3.9,0.1-6.1
	c0.1-2.2,0.3-4.5,0.7-6.9c0.3-2.4,0.8-4.9,1.4-7.5c0.6-2.6,1.5-5.1,2.6-7.3c1.1-2.1,2.9-3.9,5-4.9c0.5-0.2,1-0.4,1.5-0.5l0.4-0.1
	l0.4-0.1l0.4-0.1h0.4c1,0,2.1,0.2,3.1,0.6c1,0.3,1.9,0.9,2.8,1.5c0.2,0.1,0.4,0.3,0.6,0.5l0.6,0.5l0.6,0.6c0.2,0.1,0.3,0.3,0.6,0.6
	c1.2,1.5,2.3,3,3,4.8c0.6,1.5,1.2,3.1,1.6,4.7c0.3,1.5,0.7,2.7,0.9,3.7c0.5,2.1,0.8,3.3,1,3.2c0.2-0.1,0.3-1.2,0.3-3.4
	c0-1.3-0.1-2.6-0.3-3.9c-0.2-1.7-0.6-3.5-1.1-5.2c-0.3-1-0.8-2-1.2-2.9c-0.5-1-1.1-2.1-1.9-3c-0.2-0.2-0.3-0.5-0.6-0.7l-0.6-0.7
	l-0.7-0.7c-0.2-0.2-0.5-0.4-0.8-0.6c-1-0.9-2.3-1.6-3.5-2.1c-1.4-0.6-2.8-1-4.4-1h-1.2l-0.6,0.1l-0.6,0.1c-0.8,0.1-1.6,0.3-2.4,0.7
	c-1.5,0.6-2.9,1.5-4.1,2.6c-1.2,1.1-2.2,2.4-3,3.8c-1.5,2.6-2.6,5.5-3.3,8.5c-1.2,5.1-1.9,10.2-1.9,15.4c0,2.3,0.1,4.4,0.3,6.4
	c0.1,1,0.2,1.9,0.3,2.8l0.2,1.2c0.1,0.4,0.1,0.8,0.2,1.2c0.1,0.4,0.1,0.8,0.2,1.1c0.1,0.3,0.1,0.7,0.3,1c0.1,0.3,0.1,0.6,0.3,0.9
	c0.1,0.3,0.2,0.6,0.3,0.8c0.1,0.6,0.3,1,0.5,1.4c0.1,0.3,0.3,0.6,0.5,1c0.3,0.5,0.5,0.8,0.7,0.7
	C274.6,205.4,274.8,205.1,274.7,204.4L274.7,204.4z"/>
<path class="st20" d="M504.7,311.9c0.1,0,0.2-0.1,0.3-0.1c1.3-0.5,0.6-1.4,0.1-2.7c-0.5-1.3-0.6-2.5-1.9-2L399.1,340l-30.7-120
	l-0.3-1.2l-25.4-10.1c-1.3-0.5-2.8,0.1-3.3,1.4c-0.5,1.3,0.1,2.8,1.4,3.3l23,9.1l31.6,123.9L504.7,311.9L504.7,311.9z"/>
<path class="st20" d="M372,346.2l15.5-42.9l5,1.8L377,348L372,346.2z"/>
<path class="st20" d="M370.7,288.2l44.4-10.6l1.2,5.2L372,293.4L370.7,288.2z"/>
<path class="st20" d="M382.8,364.4c7.9,0,14.3-6.4,14.3-14.3c0-7.9-6.4-14.3-14.3-14.3c-7.9,0-14.3,6.4-14.3,14.3
	C368.6,358,374.9,364.4,382.8,364.4z"/>
<path class="st23" d="M382.8,359.2c5,0,9.1-4.1,9.1-9.1s-4.1-9.1-9.1-9.1c-5,0-9.1,4.1-9.1,9.1S377.8,359.2,382.8,359.2z"/>
<path class="st26" d="M384.5,354.2c2.2-0.9,3.3-3.5,2.4-5.7c-0.9-2.2-3.5-3.3-5.7-2.4s-3.3,3.5-2.4,5.7
	C379.7,354.1,382.3,355.1,384.5,354.2z"/>
<path class="st21" d="M346.2,209.6c-0.1-0.2-0.5-0.3-1.2-0.3c-0.4,0-0.8,0-1.2,0.1l-0.7,0.1l-0.8,0.1c-0.6,0.1-1.2,0.1-1.9,0.1
	c-0.7,0.1-1.4,0-2.1,0.1s-1.6,0-2.5,0c-0.9,0-1.8-0.1-2.8-0.1l-0.7-0.1c-0.3,0-0.5-0.1-0.8-0.1l-1.5-0.2c-0.5-0.1-1-0.1-1.5-0.3
	c-0.5-0.1-1-0.2-1.6-0.3l-1.6-0.4l-0.8-0.2l-0.8-0.3c-0.6-0.2-1.1-0.3-1.7-0.6l-1.7-0.6c-0.6-0.1-1.1-0.4-1.7-0.7
	c-0.6-0.3-1.1-0.5-1.7-0.8l-1.6-0.8l-1.6-1c-2.1-1.3-4.1-2.8-5.9-4.5c-1.7-1.7-3.4-3.5-4.8-5.3c-0.3-0.5-0.8-0.9-1-1.4s-0.6-1-1-1.4
	c-0.3-0.4-0.6-0.9-0.9-1.4c-0.3-0.5-0.6-0.9-0.8-1.4c-0.2-0.5-0.6-0.9-0.8-1.4c-0.3-0.5-0.5-1-0.8-1.4l-0.3-0.7
	c-0.1-0.3-0.2-0.5-0.3-0.7c-0.2-0.4-0.5-0.9-0.7-1.3l-0.6-1.3l-0.6-1.2c-0.1-0.2-0.1-0.3-0.3-0.6c-3.7,5-9.1,8.4-15.1,9.8
	c0.2,0.6,0.4,1.2,0.6,1.8l0.4,1c0.1,0.3,0.3,0.7,0.5,1c0.3,0.7,0.6,1.4,1,2.1c0.4,0.7,0.8,1.4,1.2,2.1c0.4,0.7,0.8,1.4,1.3,2.1
	l1.5,2.1c0.5,0.7,1,1.4,1.7,2c0.6,0.6,1.2,1.3,1.8,1.9c5.1,5.2,11.5,9.1,18.6,11.1l2.4,0.7l2.4,0.5c0.8,0.1,1.6,0.3,2.4,0.3
	c0.8,0.1,1.5,0.2,2.4,0.2l2.3,0.1h3.3c0.3,0,0.7-0.1,1-0.1l2-0.2c0.7-0.1,1.3-0.2,1.9-0.3c0.6-0.1,1.2-0.1,1.9-0.3l1.7-0.4l0.8-0.2
	l0.8-0.3c1-0.3,2.1-0.6,3-1c1-0.3,1.8-0.7,2.6-1c0.8-0.3,1.5-0.7,2.1-1c0.6-0.3,1.2-0.7,1.7-1c0.2-0.1,0.5-0.3,0.7-0.5
	c0.2-0.2,0.4-0.3,0.6-0.5c0.3-0.3,0.6-0.5,0.9-0.8C346.1,210.1,346.3,209.8,346.2,209.6L346.2,209.6z"/>
<path class="st21" d="M352.8,215.5c0.6-3.1-0.8-6.2-3.5-7.6c-3.5-1.9-7.8-0.6-9.6,2.8C343.2,214,348.1,216.1,352.8,215.5z"/>
<path class="st19" d="M366.6,210.6c0.2-1.2-0.1-2.4-0.8-3.4c-0.7-1-1.6-1.7-2.7-2.3c-3.8-2.1-8.4-2.1-12.3-0.1
	C355,209,360.8,211,366.6,210.6L366.6,210.6z"/>
<path class="st27" d="M506.5,312c0.3,1-0.3,2.1-1.5,2.4l-103.9,26.7c-1,0.3-2.1-0.3-2.4-1.5l-33.4-130.4c-0.3-1,0.3-2.1,1.5-2.4
	l103.9-26.7c1-0.3,2.1,0.3,2.4,1.5L506.5,312L506.5,312z"/>
<path class="st28" d="M477.6,199.5l-4.6-17.9c-0.3-1-1.3-1.7-2.4-1.5l-103.9,26.7c-1,0.3-1.7,1.3-1.5,2.4l4.6,17.9L477.6,199.5z"/>
<path class="st2" d="M481.5,252.7c6.4,24.7-8.6,49.9-33.3,56.2c-24.7,6.3-49.9-8.6-56.2-33.3c-6.3-24.7,8.6-49.9,33.3-56.2
	C450,213,475.2,228,481.5,252.7z"/>
<path class="st29" d="M470.7,255.5c4.8,18.7-6.5,37.8-25.2,42.6c-18.7,4.8-37.8-6.5-42.6-25.2c-4.8-18.7,6.5-37.8,25.2-42.6
	C446.8,225.5,465.9,236.8,470.7,255.5z"/>
<path class="st6" d="M462.2,257.6c3.6,14.1-4.8,28.3-18.9,31.9c-14.1,3.6-28.3-4.8-31.9-18.9c-3.6-14.1,4.8-28.3,18.9-31.9
	C444.3,235.1,458.6,243.6,462.2,257.6z"/>
<path class="st30" d="M430.6,202.3c1,4.1-1.4,8.2-5.5,9.2c-4.1,1-8.2-1.4-9.2-5.5c-1-4.1,1.4-8.2,5.5-9.2
	C425.5,195.8,429.6,198.2,430.6,202.3z"/>
<path class="st2" d="M428.9,201.1c1,4.1-1.4,8.2-5.5,9.2c-4.1,1-8.2-1.4-9.2-5.5c-1-4.1,1.4-8.2,5.5-9.2
	C423.7,194.6,427.8,197,428.9,201.1z"/>
<path class="st31" d="M417.9,199.7c0.1,0.6-0.2,1.2-0.8,1.3c-0.6,0.1-1.2-0.2-1.3-0.8s0.2-1.2,0.8-1.3
	C417.2,198.8,417.7,199.2,417.9,199.7z"/>
<path class="st2" d="M370.5,210.4l32.5-8.3l1.5,6l-32.5,8.3L370.5,210.4z"/>
<path class="st8" d="M374.6,210.4l24.7-6.3l1,4.1l-24.7,6.3L374.6,210.4z"/>
<path class="st30" d="M445.5,203.1c0.4,1.5-0.6,3.1-2,3.4c-1.5,0.3-3-0.6-3.4-2c-0.4-1.5,0.6-3.1,2-3.4
	C443.6,200.6,445.1,201.5,445.5,203.1z M456.2,200.3c0.4,1.5-0.6,3.1-2,3.4c-1.5,0.3-3-0.6-3.4-2c-0.4-1.5,0.6-3.1,2-3.4
	C454.3,197.9,455.8,198.8,456.2,200.3z M466.8,197.6c0.4,1.5-0.6,3.1-2,3.4c-1.5,0.4-3-0.6-3.4-2c-0.4-1.5,0.6-3.1,2-3.4
	C464.9,195.2,466.5,196.1,466.8,197.6z"/>
<path class="st2" d="M444.6,202.6c0.4,1.5-0.6,3-2,3.4c-1.5,0.3-3-0.6-3.4-2c-0.4-1.5,0.6-3,2-3.4
	C442.8,200.1,444.3,201,444.6,202.6z M455.3,199.9c0.4,1.5-0.6,3-2,3.4c-1.5,0.3-3-0.6-3.4-2c-0.4-1.5,0.6-3,2-3.4
	C453.4,197.4,454.9,198.3,455.3,199.9z M465.9,197.1c0.4,1.5-0.6,3-2,3.4c-1.5,0.3-3-0.6-3.4-2c-0.4-1.5,0.6-3,2-3.4
	C464,194.7,465.5,195.6,465.9,197.1z M470.4,240.9c-1.4-0.1-2.8,0.1-4.2,0.5c-7.9,2-12.7,10-10.6,17.9c2,7.9,10,12.7,17.9,10.6
	c1.4-0.3,2.7-0.9,3.9-1.6L470.4,240.9L470.4,240.9z"/>
</svg>
