<svg version="1.1" xmlns="http://www.w3.org/2000/svg" xmlns:xlink="http://www.w3.org/1999/xlink" width="400" height="126" viewBox="0 0 400 126">
<style type="text/css">
	.st0{fill:#868AA2;}
	.st1{fill:#A2A5B8;}
	.st2{fill:#191F43;}
	.st3{fill:#1D2141;}
	.st4{fill:#2F435A;}
	.st5{fill:#448DCE;}
	.st6{fill:#2C6292;}
	.st7{fill:#2E435A;}
	.st8{fill:url(#SVGID_1_);}
	.st9{fill:url(#SVGID_2_);}
	.st10{fill:url(#SVGID_3_);}
	.st11{fill:url(#SVGID_4_);}
	.st12{fill:url(#SVGID_5_);}
	.st13{opacity:0.33;fill:#F2F2F5;}
	.st14{fill:#0F222C;}
	.st15{fill:#519BDD;}
	.st16{fill:#F19100;}
	.st17{fill:url(#SVGID_6_);}
	.st18{opacity:0.62;fill:none;stroke:#FFFFFF;stroke-width:3;stroke-linecap:round;stroke-miterlimit:10;}
</style>
<path class="st0" d="M175.4,7.5H172v49.6h3.4V7.5z"/>
<path class="st0" d="M206.5,7.8h-3.4v49.2h3.4V7.8z"/>
<path class="st0" d="M57.8,6.1h-3.4l12.2,50.2H70L57.8,6.1z"/>
<path class="st0" d="M82.5,7.9h-3.4v48.4h3.4V7.9z"/>
<path class="st0" d="M113.6,6.7h-3.4v49.6h3.4V6.7z"/>
<path class="st0" d="M144.7,7.1h-3.4v49.2h3.4V7.1z"/>
<path class="st1" d="M227.9,9.7V6.1H54.7v3.6H227.9z"/>
<path class="st1" d="M57.8,6.1h-3.4L42.1,56.3h3.4L57.8,6.1z"/>
<path class="st0" d="M227,6.1h3.4l14.2,50.2h-3.4L227,6.1z"/>
<path class="st1" d="M230.3,6.1h-3.4l-10.2,50.2h3.4L230.3,6.1z"/>
<path class="st1" d="M235.9,35.8l-1.4-3.6H48.4v3.6H235.9z"/>
<path class="st2" d="M254.6,78.9H30.5v19.4h224.1V78.9z"/>
<path class="st2" d="M65.1,88h-3v21.3h3V88z"/>
<path class="st0" d="M258.8,55.4v21.1c0,1.4-1.3,2.5-2.9,2.5h-21.8l9.9-23.6"/>
<path class="st1" d="M245.5,78.9H24.2c-2.9,0-5.2-2.7-5.2-6.1V61.3c0-3.3,2.3-6.1,5.2-6.1h221.3L245.5,78.9L245.5,78.9z"/>
<path class="st3" d="M80.3,105.8C80.3,91,91.5,79,105.2,79c13.7,0,24.9,12,24.9,26.8"/>
<path class="st4" d="M124.6,105.4c0,10.7-8.7,19.4-19.4,19.4c-10.7,0-19.4-8.7-19.4-19.4s8.7-19.5,19.4-19.5
	C115.9,85.8,124.6,94.7,124.6,105.4z"/>
<path class="st5" d="M105.2,115.9c6.1,0,11-4.9,11-11c0-6.1-4.9-11-11-11c-6.1,0-11,4.9-11,11C94.2,111,99.1,115.9,105.2,115.9z"/>
<path class="st6" d="M105.2,95.5c5.8,0,10.6,4.5,11,10.2c0-0.3,0-0.5,0-0.8c0-6.1-4.9-11-11-11c-6.1,0-11,4.9-11,11
	c0,0.3,0,0.5,0,0.8C94.6,100,99.4,95.5,105.2,95.5z"/>
<path class="st7" d="M227.3,78.9v13.6c0,3.2-4.5,5.9-10,5.9h-24.4c-5.5,0-10-2.6-10-5.9V78.9"/>
<linearGradient id="SVGID_1_" gradientUnits="userSpaceOnUse" x1="105.1534" y1="43.4955" x2="105.1534" y2="53.3572" gradientTransform="matrix(1 0 0 -1 0 128)">
	<stop  offset="7.689310e-07" style="stop-color:#898CA2"/>
	<stop  offset="1" style="stop-color:#B5B9D0"/>
</linearGradient>
<path class="st8" d="M119.7,78.9c-4.2-2.9-9.1-4.3-14.4-4.3c-5,0-10.2,1.4-14.7,4.2"/>
<path class="st0" d="M238,71.6H27.7c-2.1,0-3.8-1.9-3.8-4.3s1.7-4.3,3.8-4.3H238c2.1,0,3.8,1.9,3.8,4.3
	C241.8,69.7,240.1,71.6,238,71.6z"/>
<linearGradient id="SVGID_2_" gradientUnits="userSpaceOnUse" x1="316.119" y1="128" x2="316.119" y2="37.129" gradientTransform="matrix(1 0 0 -1 0 128)">
	<stop  offset="0" style="stop-color:#448DCE"/>
	<stop  offset="1" style="stop-color:#2C6292"/>
</linearGradient>
<path class="st9" d="M250.9,64.4c60.5,1.5,104.7,26.5,104.7,26.5l25.9-1.4l-1.2-20.8c-0.8-9.9-1.6-12.6-16.3-22.3
	c-6.3-4.1-17.9-9.6-24.9-17c-10.1-10.7-19.2-20.5-20.8-22.1c-1.5-1.5-7.8-7.3-18.1-7.3c-13.5,0-44.9,0-44.9,0c-2.5,0-4.5,2-4.5,4.5
	l0,6.6"/>
<linearGradient id="SVGID_3_" gradientUnits="userSpaceOnUse" x1="316.146" y1="71.4004" x2="316.146" y2="2.914" gradientTransform="matrix(1 0 0 -1 0 128)">
	<stop  offset="7.689310e-07" style="stop-color:#F9F9FA"/>
	<stop  offset="1" style="stop-color:#9396AB"/>
</linearGradient>
<path class="st10" d="M250.9,89.6c0,8,5.8,14.5,13,14.5l106.6,0c5.3,0,5.9-9.4,10.9-14.6l-28.3,1.4l-16.2-17.2l-10.1-9.3v-0.1
	l-76-18.6L250.9,89.6z"/>
<linearGradient id="SVGID_4_" gradientUnits="userSpaceOnUse" x1="316.1646" y1="-9.804" x2="316.1646" y2="46.1604" gradientTransform="matrix(1 0 0 -1 0 128)">
	<stop  offset="7.689310e-07" style="stop-color:#888BA1"/>
	<stop  offset="1" style="stop-color:#B4B7CE"/>
</linearGradient>
<path class="st11" d="M250.9,89c0,10.2,5.9,15.1,13.2,15.1h103.1c15.1,0,14.3,1.3,14.3-15.1H250.9z"/>
<linearGradient id="SVGID_5_" gradientUnits="userSpaceOnUse" x1="318.2685" y1="24.161" x2="318.2685" y2="28.1863" gradientTransform="matrix(1 0 0 -1 0 128)">
	<stop  offset="0" style="stop-color:#808FA9"/>
	<stop  offset="1" style="stop-color:#B4B7CE;stop-opacity:0"/>
</linearGradient>
<path class="st12" d="M380.8,101.3h-125c0,0,3.1,2.8,7.1,2.8c4,0,114,0,114,0C378.6,104.1,380.1,103,380.8,101.3z"/>
<path class="st13" d="M380.6,101.8H256.3l-1.1-0.9H381L380.6,101.8z"/>
<path class="st14" d="M379.6,64.4h-17c-1.4,0-2.4,1.4-1.8,2.8l1.9,4.7c0.9,2.3,3.2,3.8,5.6,3.8h11.1h1.4
	C380.8,75.5,380.6,67.8,379.6,64.4z"/>
<path class="st14" d="M266.4,8.3l52.9,0l35,32.3l-81.1,0c-6,0-10.9-4.9-10.9-10.9V12.4C262.3,10.1,264.1,8.3,266.4,8.3z"/>
<path class="st3" d="M320.7,46.9c1.1,0,2-0.9,2-2v-4.2h-6.2v2C316.5,45,318.4,46.9,320.7,46.9z"/>
<path class="st6" d="M316.5,41.4h6.2v-3.1h-6.2V41.4z"/>
<path class="st15" d="M316.5,38.9h6.2v-1.2c0-1.1-0.9-1.9-1.9-1.9h-2.4c-1.1,0-1.9,0.9-1.9,1.9L316.5,38.9L316.5,38.9z"/>
<path class="st3" d="M326.8,43c0,2.8-2.3,5.1-5.1,5.1c-2.8,0-5.1-2.3-5.1-5.1"/>
<path class="st16" d="M250.8,42.1c0,0,97.1,6.8,112.9,46.8h-10.6c0,0-8.5-28.9-102.3-37.9V42.1z"/>
<linearGradient id="SVGID_6_" gradientUnits="userSpaceOnUse" x1="327.9001" y1="56.9235" x2="327.9001" y2="11.789" gradientTransform="matrix(1 0 0 -1 0 128)">
	<stop  offset="7.689310e-07" style="stop-color:#F9F9FA"/>
	<stop  offset="1" style="stop-color:#9396AB"/>
</linearGradient>
<path class="st17" d="M352.1,86.7c-4-10.5-13.3-16.2-24.1-16.2c-9.7,0-20.7,5.3-24.7,15.2c-2.7,6.8-2,15.1,2,15.1
	c9.1,0,43.8,0.2,43.8,0.2S357.6,100.9,352.1,86.7z"/>
<path class="st18" d="M262.3,44.5v41.9c0,2.5,1.8,4.5,4,4.5h26.2c1.9,0,3.6-1.5,4-3.7L313,67.1c0.4-2.3,1.6-4.4,3.3-5.8
	c2.2-1.7,11.5-4.5,11.5-7.5v-5.4"/>
<path class="st3" d="M300.1,104.1c0-14.9,12.5-27,27.8-27s27.8,12.1,27.8,27"/>
<path class="st4" d="M349.5,103.7c0,11.7-9.5,21.2-21.2,21.2c-11.7,0-21.2-9.5-21.2-21.2c0-11.7,9.5-21.3,21.2-21.3
	C340,82.4,349.5,92,349.5,103.7z"/>
<path class="st5" d="M328.3,115.2c6.6,0,12-5.4,12-12c0-6.6-5.4-12-12-12c-6.6,0-12,5.4-12,12C316.3,109.8,321.7,115.2,328.3,115.2z
	"/>
<path class="st6" d="M328.3,92.9c6.3,0,11.5,4.9,12,11.1c0-0.3,0-0.6,0-0.9c0-6.6-5.4-12-12-12c-6.6,0-12,5.4-12,12
	c0,0.3,0,0.6,0,0.9C316.8,97.8,322,92.9,328.3,92.9z"/>
</svg>
