<svg version="1.1" xmlns="http://www.w3.org/2000/svg" xmlns:xlink="http://www.w3.org/1999/xlink" width="400" height="160" viewBox="0 0 400 160">
<style type="text/css">
	.st0{fill:#A2A5B8;}
	.st1{fill:#CACBD6;}
	.st2{fill:#191F43;}
	.st3{fill:#2E435A;}
	.st4{fill:url(#SVGID_1_);}
	.st5{fill:url(#SVGID_2_);}
	.st6{fill:#888CA4;}
	.st7{fill:#0F222C;}
	.st8{fill:url(#SVGID_3_);}
	.st9{fill:url(#SVGID_4_);}
	.st10{fill:#2C6292;}
	.st11{fill:#519BDD;}
	.st12{fill:#F19100;}
	.st13{fill:url(#SVGID_5_);}
	.st14{fill:#448DCE;}
	.st15{opacity:0.62;fill:none;stroke:#FFFFFF;stroke-width:2;stroke-linecap:round;stroke-miterlimit:10;}
	.st16{fill:url(#SVGID_6_);}
	.st17{fill:url(#SVGID_7_);}
	.st18{fill:url(#SVGID_8_);}
</style>
<path class="st0" d="M280.2,0l-8.5,132.1h18.7c1.4,0,1.4-38,1.4-44.2l-0.1-84c0-2.1-1.7-3.9-3.7-3.9H280.2z"/>
<path class="st1" d="M281.3,132h-231v-4.3H18.9c-2.1,0-3.9-1.7-3.9-3.9V3.9C15,1.7,16.7,0,18.9,0h262.5V132z"/>
<path class="st2" d="M364.3,127.7h-314v14.1h314V127.7z"/>
<path class="st2" d="M74.8,127.6h-2.9v20.7h2.9V127.6z"/>
<path class="st3" d="M189.2,146.6h-14c-3.2,0-5.7-2.6-5.7-5.7v-13.3h25.4v13.3C194.9,144.1,192.4,146.6,189.2,146.6z"/>
<path class="st3" d="M252.2,127.7V141c0,3.2-2.6,5.7-5.7,5.7h-41.7c-3.2,0-5.7-2.6-5.7-5.7v-13.3"/>
<path class="st3" d="M281.4,127.7V141c0,3.2-2.6,5.7-5.7,5.7h-14c-3.2,0-5.7-2.6-5.7-5.7v-13.3"/>
<linearGradient id="SVGID_1_" gradientUnits="userSpaceOnUse" x1="286.144" y1="70.4801" x2="384.997" y2="70.4801" gradientTransform="matrix(1 0 0 -1 0 162)">
	<stop  offset="7.689310e-07" style="stop-color:#448DCE"/>
	<stop  offset="1" style="stop-color:#2C6292"/>
</linearGradient>
<path class="st4" d="M295.8,41.5h47.7c6.8,0,13.4,1.6,19.4,4.6c13.6,6.8,22.1,20.2,22.1,32.4v42.1c0,0-1.9,0.8-2.5,3.1
	c-1.5,6-3.3,17.9-7.2,17.9h-76.7c-6.9,0-12.5-5.3-12.5-11.9V50.7C286.1,45.6,290.5,41.5,295.8,41.5z"/>
<linearGradient id="SVGID_2_" gradientUnits="userSpaceOnUse" x1="333.8102" y1="81.3217" x2="333.8102" y2="-95.728" gradientTransform="matrix(1 0 0 -1 0 162)">
	<stop  offset="7.689310e-07" style="stop-color:#F9F9FA"/>
	<stop  offset="1" style="stop-color:#9497AC"/>
</linearGradient>
<path class="st5" d="M298.7,141.7h76.7c3.9,0,4.6-8,6.1-14.1c0.6-2.2-20.2-4.5-20.2-4.5l-0.4-12.6l-74.7-12.9v32.2
	C286.1,136.4,291.8,141.7,298.7,141.7z"/>
<path class="st6" d="M385,135.6c0-6.5-2-7.2-2-7.2s2-0.7,2-3.9c-1.2,0-67.7,0-67.7,0l4.8,11.1C322.1,135.6,383.2,135.6,385,135.6z"
	/>
<path class="st7" d="M382.6,104h-18.1c1.9,7.8,8.8,13.1,16.8,13.1l3.7,0V104L382.6,104L382.6,104z"/>
<linearGradient id="SVGID_3_" gradientUnits="userSpaceOnUse" x1="334.0215" y1="8.448" x2="334.0215" y2="36.165" gradientTransform="matrix(1 0 0 -1 0 162)">
	<stop  offset="7.689310e-07" style="stop-color:#898CA2"/>
	<stop  offset="1" style="stop-color:#B5B9D0"/>
</linearGradient>
<path class="st8" d="M298.7,141.7h76.7c1.9,0,3-1.9,3.9-4.6h-90.5C291.1,139.9,294.7,141.7,298.7,141.7z"/>
<path class="st1" d="M286.1,117.2v12.6c0,2.8,1,5.3,2.7,7.3h90.5c0.9-2.8,1.4-6.4,2.2-9.5c0.6-2.2,3.5-3.2,3.5-3.2v-7.3H286.1
	L286.1,117.2z"/>
<path class="st6" d="M367,124.5h18c0,0-0.8,2.2-1.9,3.2s0.7,4.5,1.4,5.3c0.3,0.4,0.5,0.9,0.5,1.4v6.1c0,3.4-0.1,6.1-4.7,6.1h-4.4
	c-3.4,0-4.4-2.5-4.4-4.9h-10.2L367,124.5z"/>
<linearGradient id="SVGID_4_" gradientUnits="userSpaceOnUse" x1="350.758" y1="18.738" x2="350.758" y2="37.281" gradientTransform="matrix(1 0 0 -1 0 162)">
	<stop  offset="7.689310e-07" style="stop-color:#898CA2"/>
	<stop  offset="1" style="stop-color:#B5B9D0"/>
</linearGradient>
<path class="st9" d="M383,128.4C383,128.4,383,128.4,383,128.4l-66.5,0l2.4,7.2c0,0,64.2,0,66.1,0C385,129.1,383,128.4,383,128.4z"
	/>
<path class="st7" d="M313.7,55.6h61.8c6.8,7.2,9.5,15.3,9.5,23.2v8.4h-52.6c-10.3,0-18.7-7-18.7-15.7V55.6L313.7,55.6z"/>
<path class="st2" d="M375.2,91h0.6c1,0,1.8-0.8,1.8-1.8v-4.3h-6.1v2.4C371.5,89.3,373.2,91,375.2,91z"/>
<path class="st10" d="M371.5,84.9h6.1v-7.5h-6.1V84.9z"/>
<path class="st11" d="M371.5,77.4h6.1v-2.2c0-0.5-0.4-0.9-0.9-0.9h-4.3c-0.5,0-0.9,0.4-0.9,0.9L371.5,77.4L371.5,77.4z"/>
<path class="st2" d="M381.6,87.1c0,2.8-2.3,5.1-5.1,5.1c-2.8,0-5.1-2.3-5.1-5.1"/>
<path class="st12" d="M286.1,92.9c0,0,71,1.3,79.3,24.3h-9.3c0,0-12.3-13.1-70-14.8"/>
<linearGradient id="SVGID_5_" gradientUnits="userSpaceOnUse" x1="342.993" y1="57.395" x2="342.993" y2="12.021" gradientTransform="matrix(1 0 0 -1 0 162)">
	<stop  offset="7.689310e-07" style="stop-color:#F9F9FA"/>
	<stop  offset="1" style="stop-color:#9497AC"/>
</linearGradient>
<path class="st13" d="M367.4,120.3c-4-10.6-13.4-16.3-24.2-16.3c-9.8,0-20.8,5.3-24.8,15.3c-2.8,6.8-2,15.1,2.1,15.1
	c9.1,0,44.1,0.2,44.1,0.2S372.9,134.6,367.4,120.3z"/>
<path class="st2" d="M314.5,141.7c0-24.5,14.9-33.8,28.5-33.8c13.7,0,28.5,9.1,28.5,33.8"/>
<path class="st3" d="M343,158.1c11.7,0,21.3-9.5,21.3-21.3c0-11.7-9.5-21.3-21.3-21.3c-11.8,0-21.3,9.5-21.3,21.3
	C321.7,148.6,331.2,158.1,343,158.1z"/>
<path class="st14" d="M343,148.3c6.7,0,12.1-5.4,12.1-12.1c0-6.7-5.4-12.1-12.1-12.1c-6.7,0-12.1,5.4-12.1,12.1
	C330.9,142.9,336.3,148.3,343,148.3z"/>
<path class="st10" d="M343,125.9c6.4,0,11.6,4.9,12,11.2c0-0.3,0-0.6,0-0.9c0-6.7-5.4-12.1-12.1-12.1c-6.7,0-12.1,5.4-12.1,12.1
	c0,0.3,0,0.6,0,0.9C331.4,130.9,336.6,125.9,343,125.9z"/>
<path class="st15" d="M303.1,56.1v69.5c0,1.5,1.2,2.6,2.6,2.6h4.6c1.4,0,2.5-1,2.6-2.4c1.2-14.5,13-29,37.2-25
	c1.6,0.3,3.1-1,3.1-2.6v-6.9"/>
<linearGradient id="SVGID_6_" gradientUnits="userSpaceOnUse" x1="148.3716" y1="147.1172" x2="148.5026" y2="10.943" gradientTransform="matrix(1 0 0 -1 0 162)">
	<stop  offset="7.689310e-07" style="stop-color:#448DCE"/>
	<stop  offset="1" style="stop-color:#2C6292"/>
</linearGradient>
<path class="st16" d="M276.3,101.5l0.8-97H24.4c-2.6,0-4.7,2.1-4.7,4.6v92.3H276.3z"/>
<linearGradient id="SVGID_7_" gradientUnits="userSpaceOnUse" x1="148.0203" y1="63.4864" x2="148.0203" y2="-27.527" gradientTransform="matrix(1 0 0 -1 0 162)">
	<stop  offset="7.689310e-07" style="stop-color:#F9F9FA"/>
	<stop  offset="1" style="stop-color:#9396AB"/>
</linearGradient>
<path class="st17" d="M276.3,124c0,0,0-3,0-5.2V96.5l-256.6-13V120c0,2.1,1.7,3.9,3.9,3.9L276.3,124z"/>
<path class="st12" d="M19.6,87.3c0,0,144.6,5.5,256.6,9.3v-9.5c0,0-141.8-6.7-256.6-9.6V87.3z"/>
<linearGradient id="SVGID_8_" gradientUnits="userSpaceOnUse" x1="127.5767" y1="56.303" x2="127.5767" y2="16.465" gradientTransform="matrix(1 0 0 -1 0 162)">
	<stop  offset="7.689310e-07" style="stop-color:#F9F9FA"/>
	<stop  offset="1" style="stop-color:#9497AC"/>
</linearGradient>
<path class="st18" d="M151.9,120.4c-4-10.6-13.4-16.3-24.2-16.3c-9.8,0-20.8,5.3-24.8,15.3c-2.8,6.8-2,15.1,2.1,15.1
	c9.1,0,44.1,0.2,44.1,0.2S157.4,134.7,151.9,120.4z"/>
<path class="st2" d="M99.2,141.7c0-24.5,14.9-33.7,28.4-33.7c13.6,0,28.4,9.1,28.4,33.7"/>
<path class="st3" d="M127.6,158.1c11.7,0,21.3-9.5,21.3-21.3c0-11.7-9.5-21.3-21.3-21.3c-11.8,0-21.3,9.5-21.3,21.3
	C106.3,148.6,115.8,158.1,127.6,158.1z"/>
<path class="st14" d="M127.6,148.4c6.7,0,12.1-5.4,12.1-12.1c0-6.7-5.4-12.1-12.1-12.1c-6.7,0-12.1,5.4-12.1,12.1
	C115.5,143,120.9,148.4,127.6,148.4z"/>
<path class="st10" d="M127.6,126c6.4,0,11.6,4.9,12,11.2c0-0.3,0-0.6,0-0.9c0-6.7-5.4-12.1-12.1-12.1c-6.7,0-12.1,5.4-12.1,12.1
	c0,0.3,0,0.6,0,0.9C116,130.9,121.2,126,127.6,126z"/>
</svg>
