<svg version="1.1" xmlns="http://www.w3.org/2000/svg" xmlns:xlink="http://www.w3.org/1999/xlink" width="400" height="174" viewBox="0 0 400 174">
<style type="text/css">
	.st0{fill:#2C6292;}
	.st1{fill:#CACBD6;}
	.st2{fill:url(#SVGID_1_);}
	.st3{fill:url(#SVGID_2_);}
	.st4{fill:#F19100;}
	.st5{fill:#191F43;}
	.st6{fill:#8C8FAD;}
	.st7{fill:#C2C2C2;}
	.st8{fill:#1D2141;}
	.st9{fill:#2E435A;}
	.st10{fill:#448DCE;}
	.st11{fill:#1C4E7A;}
	.st12{fill:url(#SVGID_3_);}
	.st13{fill:#C47702;}
	.st14{fill:url(#SVGID_4_);}
	.st15{fill:url(#SVGID_5_);}
	.st16{fill:url(#SVGID_6_);}
	.st17{fill:url(#SVGID_7_);}
	.st18{fill:#2E6495;}
	.st19{fill:#0F222C;}
	.st20{fill:#519BDD;}
	.st21{opacity:0.62;fill:none;stroke:#FFFFFF;stroke-width:3;stroke-linecap:round;stroke-miterlimit:10;}
</style>
<path class="st0" d="M279.4,0h15.2c1.3,0,2.4,1.1,2.4,2.4v124.3c0,1.3-1,2.4-2.3,2.4l-12.9,3.3L279.4,0z"/>
<path class="st1" d="M298.1,104v22.5c0,1.3-1.1,2.4-2.5,5.7h-18.3l7.4-28.3"/>
<linearGradient id="SVGID_1_" gradientUnits="userSpaceOnUse" x1="144.07" y1="164.4114" x2="144.07" y2="-1.15" gradientTransform="matrix(1 0 0 -1 0 176)">
	<stop  offset="7.689310e-07" style="stop-color:#448DCE"/>
	<stop  offset="1" style="stop-color:#2C6292"/>
</linearGradient>
<path class="st2" d="M287.1,93.3l1-93.3H5.3C2.4,0,0,2.3,0,5.2v103.4l279.9-3.1L287.1,93.3z"/>
<linearGradient id="SVGID_2_" gradientUnits="userSpaceOnUse" x1="143.5665" y1="69.941" x2="143.5645" y2="44.802" gradientTransform="matrix(1 0 0 -1 0 176)">
	<stop  offset="7.689310e-07" style="stop-color:#F9F9FA"/>
	<stop  offset="1" style="stop-color:#DCDCDC"/>
</linearGradient>
<path class="st3" d="M4.5,132.4l282.6,3.6c0,0,0-2.2,0-4.8v-28.4L0,88.4v42.7C0,133.8,2,132.4,4.5,132.4z"/>
<path class="st4" d="M0,93.6c0,0,161.9,6.1,287.3,10.4l0.3-0.1V93.6l-0.3-0.2c0,0-158.8-7.4-287.3-10.8V93.6z"/>
<path class="st5" d="M365.8,132.3H19.3v17.8h346.4V132.3z"/>
<path class="st5" d="M74.2,132.3h-2.8v27.2h2.8V132.3z"/>
<path class="st6" d="M210.5,150.8H195c-1.4,0-2.5-1.1-2.5-2.5v-16H213v16C213,149.7,211.9,150.8,210.5,150.8z"/>
<path class="st6" d="M226.9,150.9h-9.4c-1.4,0-2.5-1.1-2.5-2.5v-16h14.4v16C229.4,149.8,228.3,150.9,226.9,150.9z"/>
<path class="st6" d="M243,150.8h-9.4c-1.4,0-2.5-1.1-2.5-2.5v-16h14.4v16C245.5,149.7,244.4,150.8,243,150.8z"/>
<path class="st6" d="M259.1,150.8h-9.4c-1.4,0-2.5-1.1-2.5-2.5v-16h14.4v16C261.6,149.7,260.5,150.8,259.1,150.8z"/>
<path class="st7" d="M140.5,125.4c-4.1-9.7-13.7-15.1-24.7-15.1c-10,0-21.3,4.9-25.4,14.1c-2.8,6.3-2,14,2.1,14
	c9.3,0,45.1,0.2,45.1,0.2S146.1,138.6,140.5,125.4z"/>
<path class="st8" d="M85.3,150.1c0-25.4,15.9-35,30.3-35c14.6,0,30.3,9.4,30.3,35"/>
<path class="st9" d="M115.8,170.5c13.2,0,23.8-10.7,23.8-23.8c0-13.2-10.7-23.8-23.8-23.8S92,133.5,92,146.6
	C92,159.8,102.7,170.5,115.8,170.5z"/>
<path class="st10" d="M115.8,159.5c7.5,0,13.5-6.1,13.5-13.5c0-7.5-6.1-13.5-13.5-13.5c-7.5,0-13.5,6.1-13.5,13.5
	C102.3,153.5,108.4,159.5,115.8,159.5z"/>
<path class="st0" d="M115.8,134.4c7.1,0,13,5.5,13.5,12.5c0-0.3,0-0.7,0-1c0-7.5-6.1-13.5-13.5-13.5c-7.5,0-13.5,6.1-13.5,13.5
	c0,0.3,0,0.7,0,1C102.8,140,108.7,134.4,115.8,134.4z"/>
<path class="st11" d="M345.8,26.9l-52.6,2.4c-0.2,0-0.4-0.2-0.4-0.4v-6.8c0-0.2,0.2-0.4,0.4-0.4l51.7,3.7L345.8,26.9z"/>
<linearGradient id="SVGID_3_" gradientUnits="userSpaceOnUse" x1="292.847" y1="90.3238" x2="398" y2="90.3238" gradientTransform="matrix(1 0 0 -1 0 176)">
	<stop  offset="7.689310e-07" style="stop-color:#448DCE"/>
	<stop  offset="1" style="stop-color:#2C6292"/>
</linearGradient>
<path class="st12" d="M293.2,26.9l90.4,11c0,0,14.4,61.8,14.4,65.5l-0.3,22.8l-8.3,18.2h-84.3l-12.2-50.9V27.3
	C292.8,27.1,293,26.9,293.2,26.9z"/>
<path class="st13" d="M287.3,104l6.2,0.2l0.1-10.7l-6.2-0.1V104z"/>
<linearGradient id="SVGID_4_" gradientUnits="userSpaceOnUse" x1="325.2165" y1="81.6751" x2="325.2165" y2="-11.15" gradientTransform="matrix(1 0 0 -1 0 176)">
	<stop  offset="7.689310e-07" style="stop-color:#F9F9FA"/>
	<stop  offset="1" style="stop-color:#9497AC"/>
</linearGradient>
<path class="st14" d="M357.6,126.2l-18.4-18.4L293,103l-0.1,1.3v21.7L357.6,126.2z"/>
<linearGradient id="SVGID_5_" gradientUnits="userSpaceOnUse" x1="292.847" y1="142.9126" x2="384.3405" y2="142.9126" gradientTransform="matrix(1 0 0 -1 0 176)">
	<stop  offset="7.689310e-07" style="stop-color:#448DCE"/>
	<stop  offset="1" style="stop-color:#2C6292"/>
</linearGradient>
<path class="st15" d="M383.5,39.2h-90.6V26.9h71.5c8.1,0,15.6,4.1,19.9,11C384.6,38.5,384.2,39.2,383.5,39.2z"/>
<linearGradient id="SVGID_6_" gradientUnits="userSpaceOnUse" x1="292.847" y1="160.8892" x2="345.317" y2="160.8892" gradientTransform="matrix(1 0 0 -1 0 176)">
	<stop  offset="7.689310e-07" style="stop-color:#448DCE"/>
	<stop  offset="1" style="stop-color:#2C6292"/>
</linearGradient>
<path class="st16" d="M292.8,26.1h52.5c0,0-7.8-17.2-52.5-22V26.1z"/>
<path class="st11" d="M384.2,40.4L292.8,40c0,0,0-0.2,0-0.4v-0.4h91L384.2,40.4z"/>
<path class="st5" d="M293.2,150.3h37.4v-32.9h-37.4c-0.2,0-0.4,0.2-0.4,0.4v32.1C292.8,150.1,293,150.3,293.2,150.3z"/>
<linearGradient id="SVGID_7_" gradientUnits="userSpaceOnUse" x1="374.579" y1="46.272" x2="374.579" y2="28.76" gradientTransform="matrix(1 0 0 -1 0 176)">
	<stop  offset="7.689310e-07" style="stop-color:#448DCE"/>
	<stop  offset="1" style="stop-color:#2C6292"/>
</linearGradient>
<path class="st17" d="M390,150.3h-35.9l-2.7-21h46.2v14.3C397.7,147.3,394.2,150.3,390,150.3z"/>
<path class="st5" d="M397.7,126.1h-47.6v3.1h47.6V126.1z"/>
<path class="st18" d="M387.5,140h-22.9v9.2h22.9V140z"/>
<path class="st18" d="M387.5,129.3h-22.9v9.2h22.9V129.3z"/>
<path class="st9" d="M387.5,147.1h-22.9v2.1h22.9V147.1z"/>
<path class="st9" d="M387.5,136.4h-22.9v2.1h22.9V136.4z"/>
<path class="st19" d="M384.6,42.1h-56c-6.7,0-6.7,0-6.7,4.6v23.1c0,2.7,1.8,5.1,4.4,5.7l67.3,5.9"/>
<path class="st5" d="M380.8,91.3c2.5,0,4.6-2,4.6-4.6V73.9h-4.6V91.3z"/>
<path class="st20" d="M380.8,65.4v9.1h4.6V70C385.4,67.5,383.3,65.4,380.8,65.4z"/>
<path class="st0" d="M385.4,73.9h-4.6v9.9h4.6V73.9z"/>
<path class="st5" d="M385.4,81.3c1.6,0,2.9,1.3,2.9,2.9s-1.3,2.9-2.9,2.9"/>
<path class="st0" d="M299.1,77.8l63.6,5.5c2.9,0.4,5,2.8,4.9,5.7c-0.1,2.9-2.4,5.2-5.3,5.4l-63.8,0.9"/>
<path class="st19" d="M334.6,87.2h-5c-1.7,0-3.1-1.4-3.1-3.1h5C333.2,84.1,334.6,85.5,334.6,87.2z"/>
<path class="st4" d="M292.9,93.5c0,0,57.2-1.1,67.4,32.6h-10.2c0,0-5.9-21.8-57.2-21.8"/>
<path class="st8" d="M302.9,150.3c0-23.9,14.5-32.9,27.7-32.9c13.3,0,27.7,8.9,27.7,32.9"/>
<path class="st9" d="M330.6,170.7c13.2,0,23.8-10.7,23.8-23.8c0-13.2-10.7-23.8-23.8-23.8c-13.2,0-23.8,10.7-23.8,23.8
	C306.8,160.1,317.5,170.7,330.6,170.7z"/>
<path class="st10" d="M330.6,159.8c7.5,0,13.5-6.1,13.5-13.5c0-7.5-6.1-13.5-13.5-13.5c-7.5,0-13.5,6.1-13.5,13.5
	C317.1,153.7,323.2,159.8,330.6,159.8z"/>
<path class="st0" d="M330.6,134.7c7.1,0,13,5.5,13.5,12.5c0-0.3,0-0.7,0-1c0-7.5-6.1-13.5-13.5-13.5c-7.5,0-13.5,6.1-13.5,13.5
	c0,0.3,0,0.7,0,1C317.6,140.2,323.5,134.7,330.6,134.7z"/>
<path class="st21" d="M319.1,80.1v22c0,4.7,3.8,8.6,8.6,8.6h8.4c2.3,0,9.9,0.3,12.2,2.6c2.9,2.9,7,7.2,7,7.2
	c1.6,1.7,3.8,2.6,6.1,2.6h20.4c2.8,0,5-2.3,5-5V96.2"/>
<path class="st19" d="M389.8,123.1v-19.8c1.7,0,3.1,1.4,3.1,3.1V120C392.8,121.7,391.5,123.1,389.8,123.1z"/>
</svg>
