<svg version="1.1" xmlns="http://www.w3.org/2000/svg" xmlns:xlink="http://www.w3.org/1999/xlink" width="400" height="102" viewBox="0 0 400 102">
<style type="text/css">
	.st0{fill:#191F43;}
	.st1{fill:#8C8FAD;}
	.st2{fill:#2C6292;}
	.st3{fill:#CACBD6;}
	.st4{fill:url(#SVGID_1_);}
	.st5{fill:url(#SVGID_2_);}
	.st6{fill:#C2C2C2;}
	.st7{fill:#C47702;}
	.st8{fill:#2E435A;}
	.st9{fill:#448DCE;}
	.st10{fill:#A2A5B8;}
	.st11{fill:#F19100;}
	.st12{fill:#1C4E7A;}
	.st13{fill:url(#SVGID_3_);}
	.st14{fill:url(#SVGID_4_);}
	.st15{fill:url(#SVGID_5_);}
	.st16{fill:url(#SVGID_6_);}
	.st17{fill:url(#SVGID_7_);}
	.st18{fill:#2E6495;}
	.st19{fill:#0F222C;}
	.st20{fill:#519BDD;}
	.st21{fill:#1D2141;}
	.st22{opacity:0.62;fill:none;stroke:#FFFFFF;stroke-width:3;stroke-linecap:round;stroke-miterlimit:10;}
</style>
<path class="st0" d="M16,74.9H218l-17.4,10.4c-3,1.8-6.5,2.8-10,2.8H19.1c-0.4,0-0.8-0.1-1.2-0.2c-0.4-0.2-0.7-0.4-1-0.7
	c-0.3-0.3-0.5-0.6-0.7-1C16.1,85.8,16,85.4,16,85V74.9z"/>
<path class="st1" d="M187.9,82.6H144c-0.8,0-1.5,0.7-1.5,1.5v0.5c0,0.8,0.7,1.5,1.5,1.5h43.9c0.8,0,1.5-0.7,1.5-1.5v-0.5
	C189.4,83.3,188.8,82.6,187.9,82.6z"/>
<path class="st1" d="M187.9,76.3H144c-0.8,0-1.5,0.7-1.5,1.5v0.5c0,0.8,0.7,1.5,1.5,1.5h43.9c0.8,0,1.5-0.7,1.5-1.5v-0.5
	C189.4,76.9,188.8,76.3,187.9,76.3z"/>
<path class="st0" d="M204.4,88.6V77.3h-3.8v11.3h-1.2V91h6.2v-2.3H204.4z"/>
<path class="st2" d="M319.9,0h8.6c0.4,0,0.7,0.1,0.9,0.4c0.3,0.3,0.4,0.6,0.4,0.9v70.2c0,0.3-0.1,0.7-0.4,0.9
	c-0.2,0.3-0.6,0.4-0.9,0.4l-7.3,1.9L319.9,0z"/>
<path class="st3" d="M329.8,61.9v10.3c0,0.3-0.1,0.7-0.2,1c-0.1,0.3-0.3,0.6-0.6,0.8s-0.5,0.4-0.8,0.6c-0.3,0.1-0.7,0.2-1,0.2h-9.1
	l4.4-12.7"/>
<linearGradient id="SVGID_1_" gradientUnits="userSpaceOnUse" x1="161.8035" y1="97.386" x2="161.8035" y2="3.824" gradientTransform="matrix(1 0 0 -1 0 104)">
	<stop  offset="0" style="stop-color:#448DCE"/>
	<stop  offset="1" style="stop-color:#2C6292"/>
</linearGradient>
<path class="st4" d="M323.6,61.4V0.1H4.6C2.1,0.1,0,1.4,0,3v58.4H323.6z"/>
<linearGradient id="SVGID_2_" gradientUnits="userSpaceOnUse" x1="161.8223" y1="39.5989" x2="161.7383" y2="29.2314" gradientTransform="matrix(1 0 0 -1 0 104)">
	<stop  offset="0" style="stop-color:#F9F9FA"/>
	<stop  offset="1" style="stop-color:#D5D5D5"/>
</linearGradient>
<path class="st5" d="M4.7,74.8l318.9,0.1V58.2L0,58.6v13.8C0,73.7,2.5,74.8,4.7,74.8z"/>
<path class="st6" d="M78.9,75.8c-2.2-5.7-7.2-8.8-13-8.8c-5.3,0-11.2,2.9-13.4,8.3c-1.5,3.7-1.1,8.2,1.1,8.2
	c4.9,0,23.8,0.1,23.8,0.1S81.8,83.5,78.9,75.8z"/>
<path class="st7" d="M323.4,62.1l6.3,0v-6.2h-6.3V62.1z"/>
<path class="st0" d="M47.7,88.1c0-13.3,8.8-18.4,16.7-18.4c8,0,16.7,4.9,16.7,18.4"/>
<path class="st6" d="M137.5,75.8c-2.2-5.7-7.2-8.8-13-8.8c-5.3,0-11.2,2.9-13.4,8.3c-1.5,3.7-1.1,8.2,1.1,8.2
	c4.9,0,23.8,0.1,23.8,0.1S140.4,83.5,137.5,75.8L137.5,75.8z"/>
<path class="st0" d="M107.5,88.1c0-13.3,8.8-18.4,16.9-18.4c8.1,0,16.9,4.9,16.9,18.4"/>
<path class="st6" d="M65.6,67h58.7v16.6H65.6V67z"/>
<path class="st0" d="M124.8,88.1H65.6l-1.3-18.4h60.2L124.8,88.1z"/>
<path class="st8" d="M124.2,99.4c7.4,0,13.5-6,13.5-13.5s-6-13.5-13.5-13.5c-7.4,0-13.5,6-13.5,13.5S116.8,99.4,124.2,99.4z"/>
<path class="st9" d="M124.2,93.2c4.2,0,7.7-3.4,7.7-7.7c0-4.2-3.4-7.7-7.7-7.7s-7.7,3.4-7.7,7.7C116.6,89.8,120,93.2,124.2,93.2z"/>
<path class="st2" d="M124.2,79c1.9,0,3.8,0.7,5.2,2c1.4,1.3,2.3,3.1,2.4,5c0-0.2,0-0.4,0-0.6c0-2-0.8-4-2.2-5.4
	c-1.4-1.4-3.4-2.2-5.4-2.2c-2,0-4,0.8-5.4,2.2s-2.2,3.4-2.2,5.4c0,0.2,0,0.4,0,0.6c0.1-1.9,1-3.7,2.4-5
	C120.4,79.8,122.3,79,124.2,79L124.2,79z"/>
<path class="st8" d="M94.7,99.4c7.4,0,13.5-6,13.5-13.5s-6-13.5-13.5-13.5c-7.4,0-13.5,6-13.5,13.5S87.2,99.4,94.7,99.4z"/>
<path class="st9" d="M94.7,93.2c4.2,0,7.7-3.4,7.7-7.7c0-4.2-3.4-7.7-7.7-7.7c-4.2,0-7.7,3.4-7.7,7.7C87,89.8,90.5,93.2,94.7,93.2z"
	/>
<path class="st2" d="M94.7,79c1.9,0,3.8,0.7,5.2,2c1.4,1.3,2.3,3.1,2.4,5c0-0.2,0-0.4,0-0.6c0-2-0.8-4-2.2-5.4
	c-1.4-1.4-3.4-2.2-5.4-2.2c-2,0-4,0.8-5.4,2.2c-1.4,1.4-2.2,3.4-2.2,5.4c0,0.2,0,0.4,0,0.6c0.1-1.9,1-3.7,2.4-5
	C90.9,79.8,92.7,79,94.7,79L94.7,79z"/>
<path class="st8" d="M65.6,99.4c7.4,0,13.5-6,13.5-13.5s-6-13.5-13.5-13.5s-13.5,6-13.5,13.5S58.2,99.4,65.6,99.4z"/>
<path class="st9" d="M65.6,93.2c4.2,0,7.7-3.4,7.7-7.7c0-4.2-3.4-7.7-7.7-7.7S58,81.3,58,85.6C58,89.8,61.4,93.2,65.6,93.2z"/>
<path class="st2" d="M65.6,79c1.9,0,3.8,0.7,5.2,2c1.4,1.3,2.3,3.1,2.4,5c0-0.2,0-0.4,0-0.6c0-2-0.8-4-2.2-5.4s-3.4-2.2-5.4-2.2
	c-2,0-4,0.8-5.4,2.2c-1.4,1.4-2.2,3.4-2.2,5.4c0,0.2,0,0.4,0,0.6c0.1-1.9,1-3.7,2.4-5C61.8,79.8,63.7,79,65.6,79L65.6,79z"/>
<path class="st10" d="M282.8,73.3c0.3,0,0.5-0.2,0.5-0.5c0-0.3-0.2-0.5-0.5-0.5c-0.3,0-0.5,0.2-0.5,0.5
	C282.3,73.1,282.5,73.3,282.8,73.3z"/>
<path class="st0" d="M233.1,78h1.6v15.4h-1.6V78z"/>
<path class="st0" d="M231.6,74.9h143.5v13.1H234c-1.3,0-2.4-1.4-2.4-3.1V74.9z"/>
<path class="st6" d="M264.2,75.8c-2.2-5.7-7.2-8.8-13-8.8c-5.3,0-11.2,2.9-13.4,8.3c-1.5,3.7-1.1,8.2,1.1,8.2
	c4.9,0,23.8,0.1,23.8,0.1S267.2,83.5,264.2,75.8z"/>
<path class="st0" d="M233.5,88.1c0-13.3,9.1-18.4,17.3-18.4c8.3,0,17.3,4.9,17.3,18.4"/>
<path class="st6" d="M297.5,75.8c-2.2-5.7-7.2-8.8-13-8.8c-5.3,0-11.2,2.9-13.4,8.3c-1.5,3.7-1.1,8.2,1.1,8.2
	c4.9,0,23.8,0.1,23.8,0.1S300.5,83.5,297.5,75.8z"/>
<path class="st0" d="M266.5,88.1c0-13.3,9.1-18.4,17.4-18.4c8.4,0,17.4,4.9,17.4,18.4"/>
<path class="st8" d="M284.3,99.4c7.4,0,13.5-6,13.5-13.5s-6-13.5-13.5-13.5s-13.5,6-13.5,13.5S276.8,99.4,284.3,99.4z"/>
<path class="st9" d="M284.3,93.2c4.2,0,7.6-3.4,7.6-7.7c0-4.2-3.4-7.7-7.6-7.7s-7.7,3.4-7.7,7.7C276.6,89.8,280,93.2,284.3,93.2z"/>
<path class="st2" d="M284.3,79c1.9,0,3.8,0.7,5.2,2c1.4,1.3,2.3,3.1,2.4,5c0-0.2,0-0.4,0-0.6c0-2-0.8-4-2.2-5.4
	c-1.4-1.4-3.4-2.2-5.4-2.2c-2,0-4,0.8-5.4,2.2s-2.2,3.4-2.2,5.4c0,0.2,0,0.4,0,0.6c0.1-1.9,1-3.7,2.4-5
	C280.5,79.8,282.3,79,284.3,79L284.3,79z"/>
<path class="st8" d="M251,99.1c7.4,0,13.5-6,13.5-13.5c0-7.4-6-13.5-13.5-13.5c-7.4,0-13.5,6-13.5,13.5
	C237.5,93.1,243.6,99.1,251,99.1z"/>
<path class="st9" d="M251,92.9c4.2,0,7.7-3.4,7.7-7.7c0-4.2-3.4-7.7-7.7-7.7c-4.2,0-7.7,3.4-7.7,7.7C243.4,89.5,246.8,92.9,251,92.9
	z"/>
<path class="st2" d="M251,78.6c1.9,0,3.8,0.7,5.2,2c1.4,1.3,2.3,3.1,2.4,5c0-0.2,0-0.4,0-0.6c0-2-0.8-4-2.2-5.4
	c-1.4-1.4-3.4-2.2-5.4-2.2c-2,0-4,0.8-5.4,2.2c-1.4,1.4-2.2,3.4-2.2,5.4c0,0.2,0,0.4,0,0.6c0.1-1.9,1-3.7,2.4-5
	C247.2,79.3,249.1,78.6,251,78.6L251,78.6z"/>
<path class="st0" d="M48.5,77.6h1.6V93h-1.6V77.6z"/>
<path class="st11" d="M0,55.8h323.6v6.2H0V55.8z"/>
<path class="st12" d="M366.9,13.8l-31.3,1.4c-0.1,0-0.2-0.1-0.2-0.2v-4c0-0.1,0.1-0.2,0.2-0.2l30.8,2.2L366.9,13.8z"/>
<linearGradient id="SVGID_3_" gradientUnits="userSpaceOnUse" x1="335.291" y1="55.1978" x2="398" y2="55.1978" gradientTransform="matrix(1 0 0 -1 0 104)">
	<stop  offset="7.689310e-07" style="stop-color:#448DCE"/>
	<stop  offset="1" style="stop-color:#2C6292"/>
</linearGradient>
<path class="st13" d="M335.5,13.8l53.9,6.5c0,0,8.6,36.9,8.6,39.1L397.8,73c0,0-2.7,10.9-5,10.9h-50.3c-4,0-7.3-3.1-7.3-6.9V14
	C335.3,13.9,335.4,13.8,335.5,13.8z"/>
<linearGradient id="SVGID_4_" gradientUnits="userSpaceOnUse" x1="354.595" y1="50.0402" x2="354.595" y2="-5.317" gradientTransform="matrix(1 0 0 -1 0 104)">
	<stop  offset="7.689310e-07" style="stop-color:#F9F9FA"/>
	<stop  offset="1" style="stop-color:#9497AC"/>
</linearGradient>
<path class="st14" d="M373.9,73l-11-11l-27.6-2.8v8.6L344,73H373.9z"/>
<linearGradient id="SVGID_5_" gradientUnits="userSpaceOnUse" x1="335.293" y1="86.5596" x2="389.855" y2="86.5596" gradientTransform="matrix(1 0 0 -1 0 104)">
	<stop  offset="7.689310e-07" style="stop-color:#448DCE"/>
	<stop  offset="1" style="stop-color:#2C6292"/>
</linearGradient>
<path class="st15" d="M389.3,21.1h-54v-7.3h42.6c4.8,0,9.3,2.5,11.9,6.5C390,20.7,389.7,21.1,389.3,21.1z"/>
<linearGradient id="SVGID_6_" gradientUnits="userSpaceOnUse" x1="335.291" y1="97.28" x2="366.582" y2="97.28" gradientTransform="matrix(1 0 0 -1 0 104)">
	<stop  offset="7.689310e-07" style="stop-color:#448DCE"/>
	<stop  offset="1" style="stop-color:#2C6292"/>
</linearGradient>
<path class="st16" d="M335.3,13.3h31.3c0,0-4.7-10.2-31.3-13.1V13.3z"/>
<path class="st12" d="M389.8,21.8l-54.5-0.2c0,0,0-0.1,0-0.2v-0.2h54.3L389.8,21.8z"/>
<path class="st0" d="M335.5,87.3h22.3V67.7h-22.3c-0.1,0-0.2,0.1-0.2,0.2v19.2C335.3,87.2,335.4,87.3,335.5,87.3z"/>
<linearGradient id="SVGID_7_" gradientUnits="userSpaceOnUse" x1="383.9975" y1="29.2508" x2="383.9975" y2="17.972" gradientTransform="matrix(1 0 0 -1 0 104)">
	<stop  offset="7.689310e-07" style="stop-color:#448DCE"/>
	<stop  offset="1" style="stop-color:#2C6292"/>
</linearGradient>
<path class="st17" d="M393.2,88h-21.4l-1.6-13.5h27.5v9.2C397.8,86,395.7,88,393.2,88z"/>
<path class="st0" d="M397.8,72.9h-28.4v1.9h28.4V72.9z"/>
<path class="st18" d="M391.7,81.2H378v5.5h13.7V81.2z"/>
<path class="st18" d="M391.7,74.8H378v5.5h13.7V74.8z"/>
<path class="st8" d="M391.7,85.4H378v1.2h13.7V85.4z"/>
<path class="st8" d="M391.7,79.1H378v1.2h13.7V79.1z"/>
<path class="st19" d="M390,22.8h-33.4c-4,0-4,0-4,2.7v13.8c0,1.6,1.1,3,2.6,3.4l40.1,3.5"/>
<path class="st0" d="M387.7,52.2c1.5,0,2.7-1.2,2.7-2.7v-7.7h-2.7V52.2z"/>
<path class="st20" d="M387.7,36.7V42h2.7v-2.5C390.5,37.9,389.2,36.7,387.7,36.7z"/>
<path class="st2" d="M390.5,41.8h-2.7v5.9h2.7V41.8z"/>
<path class="st0" d="M390.5,46.2c0.9,0,1.7,0.8,1.7,1.7s-0.8,1.7-1.7,1.7"/>
<path class="st2" d="M339,44.1l37.9,3.3c1.7,0.2,3,1.7,2.9,3.4c-0.1,1.7-1.4,3.1-3.1,3.2l-38,0.6"/>
<path class="st19" d="M360.2,49.7h-3c-1,0-1.8-0.8-1.8-1.8h3C359.3,47.9,360.2,48.7,360.2,49.7z"/>
<path class="st11" d="M335.3,55.2c0,0,33.6-2.2,39.7,17.9l-5.4,0c0,0-3.7-11.6-34.3-11.6"/>
<path class="st21" d="M341.4,88c0-14.8,8.7-20.4,16.5-20.4c7.9,0,16.5,5.5,16.5,20.4"/>
<path class="st8" d="M357.8,99.5c7.9,0,14.2-6.4,14.2-14.2s-6.4-14.2-14.2-14.2c-7.9,0-14.2,6.4-14.2,14.2S350,99.5,357.8,99.5z"/>
<path class="st9" d="M357.8,93c4.5,0,8.1-3.6,8.1-8.1c0-4.5-3.6-8.1-8.1-8.1c-4.5,0-8.1,3.6-8.1,8.1C349.8,89.4,353.4,93,357.8,93z"
	/>
<path class="st2" d="M357.8,78c4.3,0,7.7,3.3,8.1,7.5c0-0.2,0-0.4,0-0.6c0-4.5-3.6-8.1-8.1-8.1c-4.5,0-8.1,3.6-8.1,8.1
	c0,0.2,0,0.4,0,0.6C350.1,81.3,353.6,78,357.8,78z"/>
<path class="st22" d="M351,45.5v13.1c0,2.8,2.3,5.1,5.1,5.1h5c1.4,0,5.9,0.2,7.3,1.5c1.7,1.7,4.2,4.3,4.2,4.3c1,1,2.3,1.5,3.7,1.5
	h12.2c1.7,0,3-1.3,3-3v-13"/>
<path class="st19" d="M393.1,71.1V59.3c1,0,1.8,0.8,1.8,1.8v8.2C394.9,70.3,394.1,71.1,393.1,71.1z"/>
</svg>
