<svg version="1.1" xmlns="http://www.w3.org/2000/svg" xmlns:xlink="http://www.w3.org/1999/xlink" width="400" height="148" viewBox="0 0 400 148">
<style type="text/css">
	.st0{fill:#A2A5B8;}
	.st1{fill:#CACBD6;}
	.st2{fill:url(#SVGID_1_);}
	.st3{fill:url(#SVGID_2_);}
	.st4{fill:#F19100;}
	.st5{fill:#191F43;}
	.st6{fill:#8C8FAD;}
	.st7{fill:#C4C4C4;}
	.st8{fill:#2E435A;}
	.st9{fill:#448DCE;}
	.st10{fill:#2C6292;}
	.st11{fill:#1C4E7A;}
	.st12{fill:url(#SVGID_3_);}
	.st13{fill:url(#SVGID_4_);}
	.st14{fill:url(#SVGID_5_);}
	.st15{fill:url(#SVGID_6_);}
	.st16{fill:url(#SVGID_7_);}
	.st17{fill:#2E6495;}
	.st18{fill:#0F222C;}
	.st19{fill:#519BDD;}
	.st20{fill:url(#SVGID_8_);}
	.st21{opacity:0.62;fill:none;stroke:#FFFFFF;stroke-width:2;stroke-linecap:round;stroke-miterlimit:10;}
</style>
<path class="st0" d="M296.9,0h11.8c1.7,0,3.1,1.2,3.1,2.6l0.1,68c0,6.3,0,44.7-1.8,44.7h-24.2L296.9,0z"/>
<path class="st1" d="M302.6,118.6H32.4v-3.3H3.3c-1.8,0-3.3-1.2-3.3-2.8V2.8C0,1.2,1.5,0,3.3,0h296c1.8,0,3.3,1.2,3.3,2.8
	L302.6,118.6z"/>
<linearGradient id="SVGID_1_" gradientUnits="userSpaceOnUse" x1="151.16" y1="135.92" x2="151.16" y2="-1.256" gradientTransform="matrix(1 0 0 -1 0 150)">
	<stop  offset="7.689310e-07" style="stop-color:#448DCE"/>
	<stop  offset="1" style="stop-color:#2C6292"/>
</linearGradient>
<path class="st2" d="M296.4,94.4V8.8c0-2.4-2.3-4.3-5.1-4.3H11c-2.8,0-5.1,1.9-5.1,4.3v85.7H296.4z"/>
<linearGradient id="SVGID_2_" gradientUnits="userSpaceOnUse" x1="151.1585" y1="59.782" x2="151.1585" y2="-15.922" gradientTransform="matrix(1 0 0 -1 0 150)">
	<stop  offset="7.689310e-07" style="stop-color:#F9F9FA"/>
	<stop  offset="1" style="stop-color:#9396AB"/>
</linearGradient>
<path class="st3" d="M10.3,111.4H292c2.4,0,4.4-1.7,4.4-3.7V89.8L5.9,77.8v29.9C5.9,109.7,7.9,111.4,10.3,111.4z"/>
<path class="st4" d="M5.9,82.4c0,0,168.3,5,290.5,8.5v-8.7c0,0-165.2-6.1-290.5-8.8V82.4z"/>
<path class="st5" d="M357.1,114.8H16v14.9h341V114.8z"/>
<path class="st5" d="M62.5,115h-2.3v22.9h2.3V115z"/>
<path class="st6" d="M243,130.6h-13c-1.2,0-2.1-1-2.1-2.1V115h17.3v13.4C245.2,129.6,244.2,130.6,243,130.6z"/>
<path class="st6" d="M256.8,130.6h-7.9c-1.2,0-2.1-1-2.1-2.1V115h12.1v13.4C258.9,129.6,258,130.6,256.8,130.6z"/>
<path class="st6" d="M270.4,130.6h-7.9c-1.2,0-2.1-1-2.1-2.1V115h12.1v13.4C272.5,129.6,271.6,130.6,270.4,130.6z"/>
<path class="st6" d="M283.9,130.6H276c-1.2,0-2.1-1-2.1-2.1V115H286v13.4C286,129.6,285.1,130.6,283.9,130.6z"/>
<path class="st7" d="M184.5,110.2c-3.5-9.1-11.6-14.1-20.8-14.1c-8.4,0-17.9,4.6-21.4,13.2c-2.4,5.9-1.7,13,1.8,13
	c7.8,0,38,0.2,38,0.2S189.2,122.5,184.5,110.2z"/>
<path class="st5" d="M138.6,129.8c0-21.3,13-29.4,24.7-29.4c11.9,0,24.7,7.9,24.7,29.4"/>
<path class="st8" d="M163.3,147.1c11.1,0,20.1-9,20.1-20.1c0-11.1-9-20.1-20.1-20.1c-11.1,0-20.1,9-20.1,20.1
	C143.3,138.1,152.3,147.1,163.3,147.1z"/>
<path class="st9" d="M163.3,137.9c6.3,0,11.4-5.1,11.4-11.4c0-6.3-5.1-11.4-11.4-11.4c-6.3,0-11.4,5.1-11.4,11.4
	C152,132.8,157.1,137.9,163.3,137.9z"/>
<path class="st10" d="M163.3,116.7c6,0,10.9,4.7,11.4,10.6c0-0.3,0-0.6,0-0.8c0-6.3-5.1-11.4-11.4-11.4c-6.3,0-11.4,5.1-11.4,11.4
	c0,0.3,0,0.6,0,0.8C152.4,121.4,157.3,116.7,163.3,116.7z"/>
<path class="st7" d="M126.2,109.8c-3.5-9.1-11.6-14.1-20.8-14.1c-8.4,0-17.9,4.6-21.4,13.2c-2.4,5.9-1.7,13,1.8,13
	c7.8,0,38,0.2,38,0.2S131,122.1,126.2,109.8z"/>
<path class="st5" d="M80.4,129.4c0-21.3,13-29.4,24.7-29.4c11.9,0,24.7,7.9,24.7,29.4"/>
<path class="st8" d="M105.1,146.6c11.1,0,20.1-9,20.1-20.1c0-11.1-9-20.1-20.1-20.1c-11.1,0-20.1,9-20.1,20.1
	C85,137.7,94,146.6,105.1,146.6z"/>
<path class="st9" d="M105.1,137.4c6.3,0,11.4-5.1,11.4-11.4c0-6.3-5.1-11.4-11.4-11.4c-6.3,0-11.4,5.1-11.4,11.4
	C93.7,132.3,98.8,137.4,105.1,137.4z"/>
<path class="st10" d="M105.1,116.3c6,0,10.9,4.7,11.4,10.6c0-0.3,0-0.6,0-0.8c0-6.3-5.1-11.4-11.4-11.4c-6.3,0-11.4,5.1-11.4,11.4
	c0,0.3,0,0.6,0,0.8C94.2,121,99.1,116.3,105.1,116.3z"/>
<path class="st11" d="M354.1,25.2l-44.2,2c-0.2,0-0.3-0.2-0.3-0.3v-5.7c0-0.2,0.2-0.3,0.4-0.3l43.5,3.1L354.1,25.2z"/>
<linearGradient id="SVGID_3_" gradientUnits="userSpaceOnUse" x1="309.491" y1="75.3102" x2="398" y2="75.3102" gradientTransform="matrix(1 0 0 -1 0 150)">
	<stop  offset="7.689310e-07" style="stop-color:#448DCE"/>
	<stop  offset="1" style="stop-color:#2C6292"/>
</linearGradient>
<path class="st12" d="M309.8,25.2l76,9.2c0,0,12.1,52,12.1,55.2l-0.3,19.2c0,0-3.8,15.3-7,15.3h-70.9c-5.7,0-10.3-4.4-10.3-9.8V25.6
	C309.5,25.4,309.6,25.2,309.8,25.2z"/>
<linearGradient id="SVGID_4_" gradientUnits="userSpaceOnUse" x1="336.7375" y1="68.0293" x2="336.7375" y2="-10.103" gradientTransform="matrix(1 0 0 -1 0 150)">
	<stop  offset="7.689310e-07" style="stop-color:#F9F9FA"/>
	<stop  offset="1" style="stop-color:#9497AC"/>
</linearGradient>
<path class="st13" d="M364,108.8l-15.5-15.5l-39-3.9v19.1c0,0.2,0.2,0.3,0.3,0.3L364,108.8z"/>
<linearGradient id="SVGID_5_" gradientUnits="userSpaceOnUse" x1="309.494" y1="119.5752" x2="386.5034" y2="119.5752" gradientTransform="matrix(1 0 0 -1 0 150)">
	<stop  offset="7.689310e-07" style="stop-color:#448DCE"/>
	<stop  offset="1" style="stop-color:#2C6292"/>
</linearGradient>
<path class="st14" d="M385.8,35.6h-76.3V25.2h60.2c6.8,0,13.1,3.5,16.7,9.2C386.7,35,386.3,35.6,385.8,35.6z"/>
<linearGradient id="SVGID_6_" gradientUnits="userSpaceOnUse" x1="309.491" y1="134.704" x2="353.656" y2="134.704" gradientTransform="matrix(1 0 0 -1 0 150)">
	<stop  offset="7.689310e-07" style="stop-color:#448DCE"/>
	<stop  offset="1" style="stop-color:#2C6292"/>
</linearGradient>
<path class="st15" d="M309.5,24.5h44.2c0,0-6.6-14.4-44.2-18.5V24.5z"/>
<path class="st11" d="M386.4,36.6l-76.9-0.3c0,0,0-0.2,0-0.3v-0.3h76.6L386.4,36.6z"/>
<path class="st5" d="M309.8,129h31.5v-27.7h-31.5c-0.2,0-0.3,0.2-0.3,0.3v27C309.5,128.9,309.6,129,309.8,129z"/>
<linearGradient id="SVGID_7_" gradientUnits="userSpaceOnUse" x1="378.3885" y1="38.708" x2="378.3885" y2="22.994" gradientTransform="matrix(1 0 0 -1 0 150)">
	<stop  offset="7.689310e-07" style="stop-color:#448DCE"/>
	<stop  offset="1" style="stop-color:#2C6292"/>
</linearGradient>
<path class="st16" d="M391.3,129.7H361l-2-18.8h38.7v12.9C397.7,127,394.9,129.7,391.3,129.7z"/>
<path class="st5" d="M397.7,108.7h-40.1v2.6h40.1V108.7z"/>
<path class="st17" d="M389.1,120.5h-19.3v7.7h19.3V120.5z"/>
<path class="st17" d="M389.1,111.4h-19.3v7.7h19.3V111.4z"/>
<path class="st8" d="M389.1,126.4h-19.3v1.7h19.3V126.4z"/>
<path class="st8" d="M389.1,117.4h-19.3v1.7h19.3V117.4z"/>
<path class="st18" d="M386.7,38h-47.2c-5.6,0-5.6,0-5.6,3.8v19.4c0,2.3,1.5,4.3,3.7,4.8l56.6,4.9"/>
<path class="st5" d="M383.5,79.4c2.1,0,3.8-1.7,3.8-3.8V64.7h-3.8V79.4z"/>
<path class="st19" d="M383.5,57.6v7.1h3.8v-3.2C387.4,59.4,385.6,57.6,383.5,57.6z"/>
<path class="st10" d="M387.4,64.7h-3.8v8.3h3.8V64.7z"/>
<path class="st5" d="M387.4,71c1.3,0,2.4,1.1,2.4,2.4c0,1.3-1.1,2.4-2.4,2.4"/>
<linearGradient id="SVGID_8_" gradientUnits="userSpaceOnUse" x1="314.4944" y1="74.5647" x2="372.386" y2="72.5779" gradientTransform="matrix(1 0 0 -1 0 150)">
	<stop  offset="7.689310e-07" style="stop-color:#448DCE"/>
	<stop  offset="1" style="stop-color:#2C6292"/>
</linearGradient>
<path class="st20" d="M314.7,68.1l53.5,4.6c2.4,0.3,4.2,2.4,4.1,4.8c-0.1,2.4-2,4.4-4.4,4.5l-53.7,0.8"/>
<path class="st18" d="M344.6,76h-4.2c-1.4,0-2.6-1.2-2.6-2.6h4.2C343.4,73.4,344.6,74.6,344.6,76z"/>
<path class="st4" d="M309.5,82.2c0,0,48.2-1.8,56.8,26.5h-8.6c0,0-4.9-17.7-48.2-17.7"/>
<path class="st5" d="M317.9,129.7c0-20.8,12.3-28.4,23.4-28.4c11.2,0,23.2,7.4,23.2,28.4"/>
<path class="st8" d="M341.3,147.3c11.1,0,20.1-9,20.1-20.1c0-11.1-9-20.1-20.1-20.1s-20.1,9-20.1,20.1
	C321.2,138.3,330.2,147.3,341.3,147.3z"/>
<path class="st9" d="M341.3,138c6.3,0,11.4-5.1,11.4-11.4c0-6.3-5.1-11.4-11.4-11.4s-11.4,5.1-11.4,11.4
	C329.9,132.9,335,138,341.3,138z"/>
<path class="st10" d="M341.3,116.9c6,0,10.9,4.7,11.4,10.6c0-0.3,0-0.6,0-0.8c0-6.3-5.1-11.4-11.4-11.4c-6.3,0-11.4,5.1-11.4,11.4
	c0,0.3,0,0.6,0,0.8C330.4,121.6,335.3,116.9,341.3,116.9z"/>
<path class="st21" d="M331.6,70v18.5c0,4,3.2,7.2,7.2,7.2h7c1.9,0,8.3,0.3,10.2,2.2c2.4,2.4,5.9,6.1,5.9,6.1
	c1.4,1.4,3.2,2.2,5.2,2.2h17.2c2.3,0,4.2-1.9,4.2-4.2V83.5"/>
<path class="st18" d="M391.1,106.2V89.4c1.4,0,2.6,1.2,2.6,2.6v11.5C393.7,105,392.5,106.2,391.1,106.2z"/>
</svg>
