<svg version="1.1" xmlns="http://www.w3.org/2000/svg" xmlns:xlink="http://www.w3.org/1999/xlink" width="400" height="174" viewBox="0 0 400 174">
<style type="text/css">
	.st0{fill:#79B9F2;}
	.st1{fill:#1D4259;}
	.st2{fill:#FF524F;}
	.st3{fill:#FFDD00;}
	.st4{fill:#F7F7F6;}
	.st5{fill:none;stroke:#1C6CB3;stroke-width:2;stroke-linecap:round;stroke-miterlimit:10;}
	.st6{fill:#0F222C;}
	.st7{fill:#1C6CB3;}
	.st8{fill:none;stroke:#F7F7F6;stroke-width:2;stroke-linecap:round;stroke-miterlimit:10;}
</style>
<path class="st0" d="M359.7,108.3c-5.8-11.8-25.8-13.8-36.3-20.8c-10.5-7-52.7-50.4-72.9-52.4c-18.3-1.8-144.7-6.7-182.4-2.4
	c-6,0.7-11.1,5-13.4,11.3c-3.9,10.6-9.2,30.4-10.7,61c-1,15.1,1.3,18.7-2,29l17.6,14.7h59.9l166.2,5.2l56.3,1.8
	c0,0,19.5,0.9,21.4-3.5C365.4,147.8,365.5,120,359.7,108.3z"/>
<path class="st1" d="M63.2,112.1c-4.1-6.2-3.6-5.7-3.6-5.7l-15.7,0.5c-1.1,13.3-1.2,16.4-3.5,26.6c-2.7,11.6,12.2,16,30.4,21.6
	l3.1,0.3c-2.3-13.7,6.5-30.1,22.4-35.4C96.2,120.1,67.2,118.4,63.2,112.1z"/>
<path class="st2" d="M43.7,107.7l9.7-1V81.7c0-3.9-3.9-6.2-6.4-3.5c-0.5,0.6-0.9,1.3-1.1,2.2c-0.9,7.3-1.7,15.6-2.1,24.8
	C43.8,106,43.8,106.9,43.7,107.7z"/>
<path class="st1" d="M363.2,151.9c1.7-3,2.3-15.7-0.2-31c-1.4-8.8-3.1-11.9-3.1-11.9s-12.8-7.5-17.4,4.3
	c-4.6,11.8-18.3,6.3-18.5,6.3c9.5,5.1,19.3,12.9,19.3,24.8c0,0-0.9,8.3-2.1,12.4C341.3,156.6,360.1,157.4,363.2,151.9z"/>
<path class="st3" d="M353.9,116.4c-1,0.6-2.1,0.4-2.8-0.6c-1.3-1.6-4.3-4.6-10.2-5.4c-6.1-0.9-14.9-12.1-12.1-12.1s21.7,2.9,25.2,11
	C355.7,113.8,355,115.6,353.9,116.4z"/>
<path class="st4" d="M102.8,121.8c4,2.5,7.1,6.1,9,10.5h184.4c1.9-4.3,5-8,9-10.5H102.8z"/>
<path class="st5" d="M173,47.3v95.4"/>
<path class="st6" d="M232.1,40.9h8.2c9.1,0,17.9,3.3,25.5,9.6l26.6,22.1c2.8,2.4,1.5,8-1.9,8h-58.4c-1.9,0-3.4-1.9-3.4-4.4v-31
	C228.7,42.9,230.2,40.9,232.1,40.9z"/>
<path class="st6" d="M219.9,101.5h-10c-2.5,0-4.6-2.3-4.6-5.3h10C217.8,96.3,219.9,98.6,219.9,101.5z"/>
<path class="st6" d="M243.5,101.5h-10c-2.5,0-4.6-2.3-4.6-5.3h10C241.4,96.3,243.5,98.6,243.5,101.5z"/>
<path class="st5" d="M224.7,85.8v55.2"/>
<path class="st7" d="M338.5,160.3h-48.9c-4.2,0-7.6-3.3-7.6-7.4v-5c0-17.3,14.3-31.3,32.1-31.3c17.7,0,32.1,14,32.1,31.3v5
	C346.1,157,342.7,160.3,338.5,160.3z"/>
<path class="st6" d="M314,173.5c12.9,0,23.3-10.2,23.3-22.7S326.9,128,314,128c-12.9,0-23.3,10.2-23.3,22.7S301.1,173.5,314,173.5z"
	/>
<path class="st1" d="M314,161.4c6,0,10.9-4.8,10.9-10.6c0-5.9-4.9-10.6-10.9-10.6c-6,0-10.9,4.8-10.9,10.6
	C303.1,156.6,308,161.4,314,161.4z"/>
<path class="st6" d="M314,155.3c2.6,0,4.6-2,4.6-4.5s-2.1-4.5-4.6-4.5s-4.6,2-4.6,4.5S311.4,155.3,314,155.3z"/>
<path class="st8" d="M290.2,136c0,0,5.4-11.4,17.6-12.5"/>
<path class="st7" d="M124.5,160.3H75.6c-4.2,0-7.6-3.3-7.6-7.4v-5c0-17.3,14.3-31.3,32.1-31.3c17.7,0,32.1,14,32.1,31.3v5
	C132.1,157,128.7,160.3,124.5,160.3z"/>
<path class="st6" d="M100,173.5c12.9,0,23.3-10.2,23.3-22.7S112.9,128,100,128c-12.9,0-23.3,10.2-23.3,22.7S87.1,173.5,100,173.5z"
	/>
<path class="st1" d="M100,161.4c6,0,10.9-4.8,10.9-10.6c0-5.9-4.9-10.6-10.9-10.6c-6,0-10.9,4.8-10.9,10.6
	C89.1,156.6,94,161.4,100,161.4z"/>
<path class="st6" d="M100,155.3c2.6,0,4.7-2,4.7-4.5s-2.1-4.5-4.7-4.5c-2.6,0-4.7,2-4.7,4.5S97.4,155.3,100,155.3z"/>
<path class="st8" d="M76.2,136c0,0,5.4-11.4,17.6-12.5"/>
</svg>
