<svg version="1.1" xmlns="http://www.w3.org/2000/svg" xmlns:xlink="http://www.w3.org/1999/xlink" width="400" height="173" viewBox="0 0 400 173">
<style type="text/css">
	.st0{fill:#5098D9;}
	.st1{fill:#FF524F;}
	.st2{fill:#F7F7F6;}
	.st3{fill:#1D4259;}
	.st4{fill:#1C6CB3;}
	.st5{fill:#0F222C;}
	.st6{fill:none;stroke:#F7F7F6;stroke-width:2;stroke-linecap:round;stroke-miterlimit:10;}
	.st7{fill:none;stroke:#1C6CB3;stroke-width:2;stroke-linecap:round;stroke-miterlimit:10;}
	.st8{fill:none;stroke:#1D4259;stroke-width:2;stroke-linecap:round;stroke-miterlimit:10;}
	.st9{fill:#FFDD00;}
</style>
<path class="st0" d="M395.6,95.8c-4.2-7.4-42.2-22.7-47.4-24.4C343.1,69.7,295.9,0,273,0H20.7c-3.1,0-6,2.4-7.1,5.8
	C-1.6,52-0.1,113.2,0.2,138.2c0.1,3.8,2.1,9.3,4.8,11.2c9.2,6.6,14.5,6.5,14.5,6.5L379,156c11.1,0.2,16.2-4.8,19.3-6.9
	C401.6,146.9,399.8,103.3,395.6,95.8z"/>
<path class="st1" d="M1,76c4.5,0,9,4.3,9,9.6V122H0l0.5-23L1,76z"/>
<path class="st2" d="M105,122c4.6,3.4,8.3,8.2,10.4,14h213.2c2.1-5.8,5.8-10.7,10.4-14H105z"/>
<path class="st2" d="M101,122H7v14h79.2C89.4,130.2,94.5,125.4,101,122z"/>
<path class="st3" d="M15,155c0,0-4.9-15-5.4-33H0l0.5,18.2C0.5,152.9,15,155,15,155z"/>
<path class="st4" d="M381.3,158h-57.6c-3.7,0-6.7-3-6.7-6.6v-7.3c0-19.3,15.9-35.1,35.5-35.1s35.5,15.7,35.5,35.1v7.3
	C388,155,385,158,381.3,158z"/>
<path class="st5" d="M352,173c14.9,0,27-11.9,27-26.5S366.9,120,352,120s-27,11.9-27,26.5S337.1,173,352,173z"/>
<path class="st3" d="M352.5,159c6.9,0,12.5-5.6,12.5-12.5s-5.6-12.5-12.5-12.5s-12.5,5.6-12.5,12.5S345.6,159,352.5,159z"/>
<path class="st5" d="M352.5,152c3,0,5.5-2.5,5.5-5.5s-2.5-5.5-5.5-5.5c-3,0-5.5,2.5-5.5,5.5S349.5,152,352.5,152z"/>
<path class="st6" d="M326,131c0,0,5.8-12.9,19-14"/>
<path class="st4" d="M137.3,158H79.7c-3.7,0-6.7-3-6.7-6.6v-7.3c0-19.3,15.9-35.1,35.5-35.1c19.6,0,35.5,15.7,35.5,35.1v7.3
	C144,155,141,158,137.3,158z"/>
<path class="st5" d="M108,173c14.9,0,27-11.9,27-26.5S122.9,120,108,120c-14.9,0-27,11.9-27,26.5S93.1,173,108,173z"/>
<path class="st3" d="M108.5,159c6.9,0,12.5-5.6,12.5-12.5s-5.6-12.5-12.5-12.5S96,139.6,96,146.5S101.6,159,108.5,159z"/>
<path class="st5" d="M108.5,152c3,0,5.5-2.5,5.5-5.5s-2.5-5.5-5.5-5.5c-3,0-5.5,2.5-5.5,5.5S105.5,152,108.5,152z"/>
<path class="st6" d="M82,131c0,0,5.8-12.9,19-14"/>
<path class="st5" d="M319.9,74h-40.5c-7.9,0-14.4-7.7-14.4-17.2V32.2c0-6.8,4.6-12.2,10.3-12.2h6.3c5.8,0,11.4,2.9,15.3,8.1
	l27.6,33.8C327.9,66.6,325.2,74,319.9,74z"/>
<path class="st5" d="M256,94h-12.4c-3.1,0-5.6-3.5-5.6-8h12.4C253.5,86,256,89.5,256,94z"/>
<path class="st5" d="M288,94h-13.1c-3.3,0-5.9-3.5-5.9-8h13.1C285.4,86,288,89.5,288,94z"/>
<path class="st7" d="M261,71v77"/>
<path class="st7" d="M200,12v136"/>
<path class="st8" d="M276,36l20,27"/>
<path class="st8" d="M288,39l12,16"/>
<path class="st9" d="M379.6,91.2l11.7,5.9c0.7,0.4,1.3,1.1,1.5,2l1.1,5.3c0.5,2.2-1.3,4.2-3.2,3.5l-10.5-3.7
	c-0.8-0.3-1.4-0.9-1.7-1.8l-2.4-7.5C375.5,92.5,377.6,90.3,379.6,91.2z"/>
</svg>
