<svg version="1.1" xmlns="http://www.w3.org/2000/svg" xmlns:xlink="http://www.w3.org/1999/xlink" width="400" height="175" viewBox="0 0 400 175">
<style type="text/css">
	.st0{fill:#5DA4E3;}
	.st1{fill:#FF524F;}
	.st2{fill:#F7F7F6;}
	.st3{fill:#0F222C;}
	.st4{fill:none;stroke:#1D4259;stroke-width:2;stroke-linecap:round;stroke-miterlimit:10;}
	.st5{fill:none;stroke:#1C6CB3;stroke-width:2;stroke-linecap:round;stroke-miterlimit:10;}
	.st6{fill:#FFDD00;}
	.st7{fill:#1C6CB3;}
	.st8{fill:#1D4259;}
	.st9{fill:none;stroke:#F7F7F6;stroke-width:2;stroke-linecap:round;stroke-miterlimit:10;}
</style>
<path class="st0" d="M373.1,106.3c-4.1-6.4-43.9-26.4-47.9-28.9c-16.8-10.4-59-59-80.2-59c-11.8,0-159.2-0.5-204.8-0.3
	c-7.8,0.1-14.2,6.7-14.6,15C24,62,20.9,120.1,20,147c-0.2,5.5,3.9,10.1,9,10.2l89.6,1c0,0,239.4,0.1,239.4,0.1
	c10.7,0.1,16.4-3.8,19.7-7.3C381.1,147.5,377.2,112.7,373.1,106.3z"/>
<path class="st1" d="M22.1,97.5c5.3,0,9.5,4.7,9.5,10.3v20.9H20.7L22.1,97.5z"/>
<path class="st2" d="M96,129c4.7,2.9,8.4,7,10.5,12h201c2.2-5,5.9-9.1,10.5-12H96z"/>
<path class="st2" d="M79.8,128.8H20.7l-0.5,12.7h49.6C71.9,136.2,75.3,131.8,79.8,128.8z"/>
<path class="st3" d="M290.7,86h-43.3c-7.1,0-12.9-6.6-12.9-14.7V50c0-5.8,4.1-10.5,9.2-10.5h7.8c5.2,0,10.2,2.5,13.8,7l29.6,29.1
	C297.9,79.6,295.5,86,290.7,86z"/>
<path class="st4" d="M246.4,54.4l17.6,21.5"/>
<path class="st4" d="M257.5,57.1l10.5,12.8"/>
<path class="st3" d="M227.2,109.4H216c-2.8,0-5.1-2.5-5.1-5.5h11.3C225,103.9,227.2,106.4,227.2,109.4z"/>
<path class="st3" d="M255.3,109.4H244c-2.8,0-5.1-2.5-5.1-5.5h11.3C253,103.9,255.3,106.4,255.3,109.4z"/>
<path class="st5" d="M231.6,91.9v61"/>
<path class="st5" d="M177.7,31.9v120.6"/>
<path class="st6" d="M354.4,100.1l13.8,7.4c0.8,0.4,1.4,1.2,1.6,2.1l0.9,3.8c0.6,2.4-1.3,4.7-3.6,4.2l-11.8-2.5
	c-1-0.3-2-1.1-2.3-2.1l-3-8.8C349.2,101.4,351.9,98.7,354.4,100.1z"/>
<path class="st3" d="M280.2,38.3l-1.9-0.1c-2.4-0.1-3.5,3.3-1.6,5l38.7,32.7c7.8,6.5,17.2,10.3,27.1,10.8L280.2,38.3z"/>
<path class="st7" d="M104.8,160.5H53c-3.3,0-6-2.7-6-5.9v-6.5C47,131,61.3,117,78.9,117c17.6,0,31.9,14,31.9,31.1v6.5
	C110.8,157.9,108.1,160.5,104.8,160.5z"/>
<path class="st3" d="M78.8,173.7c13.3,0,24.1-10.5,24.1-23.6c0-13-10.8-23.6-24.1-23.6c-13.3,0-24.1,10.5-24.1,23.6
	C54.7,163.2,65.5,173.7,78.8,173.7z"/>
<path class="st8" d="M78.8,161.1c6.2,0,11.3-4.9,11.3-11s-5-11-11.3-11c-6.2,0-11.3,4.9-11.3,11S72.6,161.1,78.8,161.1z"/>
<path class="st3" d="M78.8,154.8c2.6,0,4.8-2.1,4.8-4.7s-2.1-4.7-4.8-4.7c-2.6,0-4.8,2.1-4.8,4.7S76.2,154.8,78.8,154.8z"/>
<path class="st9" d="M55.1,136.4c0,0,5.4-11.4,17.5-12.4"/>
<path class="st7" d="M346.9,160.9h-51.8c-3.3,0-6-2.7-6-5.9v-6.5c0-17.2,14.3-31.1,31.9-31.1c17.6,0,31.9,14,31.9,31.1v6.5
	C353,158.2,350.3,160.9,346.9,160.9z"/>
<path class="st3" d="M321.1,174c13.3,0,24.1-10.5,24.1-23.6c0-13-10.8-23.6-24.1-23.6c-13.3,0-24.1,10.5-24.1,23.6
	C296.9,163.5,307.7,174,321.1,174z"/>
<path class="st8" d="M321.1,161.5c6.2,0,11.3-4.9,11.3-11s-5-11-11.3-11c-6.2,0-11.3,4.9-11.3,11S314.9,161.5,321.1,161.5z"/>
<path class="st3" d="M321.1,155.1c2.6,0,4.8-2.1,4.8-4.7c0-2.6-2.1-4.7-4.8-4.7c-2.6,0-4.8,2.1-4.8,4.7
	C316.3,153.1,318.4,155.1,321.1,155.1z"/>
<path class="st9" d="M297.3,136.7c0,0,5.4-11.4,17.5-12.4"/>
</svg>
