<svg version="1.1" xmlns="http://www.w3.org/2000/svg" xmlns:xlink="http://www.w3.org/1999/xlink" width="400" height="102" viewBox="0 0 400 102">
<style type="text/css">
	.st0{fill:#191F43;}
	.st1{fill:#8C8FAD;}
	.st2{fill:#A2A5B8;}
	.st3{fill:#E1E3ED;}
	.st4{fill:#CACBD6;}
	.st5{fill:url(#SVGID_1_);}
	.st6{fill:#F19100;}
	.st7{fill:url(#SVGID_2_);}
	.st8{fill:url(#SVGID_3_);}
	.st9{fill:url(#SVGID_4_);}
	.st10{fill:url(#SVGID_5_);}
	.st11{fill:#2E435A;}
	.st12{fill:#448DCE;}
	.st13{fill:#2C6292;}
	.st14{fill:url(#SVGID_6_);}
	.st15{fill:url(#SVGID_7_);}
	.st16{fill:url(#SVGID_8_);}
	.st17{fill:url(#SVGID_9_);}
	.st18{fill:url(#SVGID_10_);}
	.st19{fill:url(#SVGID_11_);}
	.st20{fill:#1C4E7A;}
	.st21{fill:url(#SVGID_12_);}
	.st22{fill:#2E6495;}
	.st23{fill:#0F222C;}
	.st24{fill:#519BDD;}
	.st25{opacity:0.62;fill:none;stroke:#FFFFFF;stroke-width:3;stroke-linecap:round;stroke-miterlimit:10;}
</style>
<path class="st0" d="M15.8,75.1h204.1l-17.6,12c-3,2.1-6.5,3.2-10.1,3.2H18.9c-0.4,0-0.8-0.1-1.2-0.3c-0.4-0.2-0.7-0.4-1-0.8
	c-0.3-0.3-0.5-0.7-0.7-1.2c-0.2-0.4-0.2-0.9-0.2-1.4V75.1z"/>
<path class="st1" d="M189.6,84.7h-44.4c-0.8,0-1.5,0.7-1.5,1.5v0.5c0,0.8,0.7,1.5,1.5,1.5h44.4c0.8,0,1.5-0.7,1.5-1.5v-0.5
	C191.1,85.4,190.4,84.7,189.6,84.7z"/>
<path class="st1" d="M189.6,78.3h-44.4c-0.8,0-1.5,0.7-1.5,1.5v0.5c0,0.8,0.7,1.5,1.5,1.5h44.4c0.8,0,1.5-0.7,1.5-1.5v-0.5
	C191.1,79,190.4,78.3,189.6,78.3z"/>
<path class="st0" d="M206.3,90.8V79.3h-3.9v11.5h-1.2v2.4h6.2v-2.4H206.3z"/>
<path class="st2" d="M326.7,0l-5,76.9h7.7c2.2,0,4-1.5,4-3.3c0-8.2,0.1-28.9,0.1-31.3l-0.1-39.8c0-1.1-1-2.5-2.4-2.5H326.7z"/>
<path class="st3" d="M106.4,73h109.2c0.6,0,1.1-0.2,1.5-0.7c0.4-0.4,0.6-1,0.6-1.6V59H104.3v11.8c0,0.6,0.2,1.1,0.6,1.6
	C105.3,72.8,105.9,73,106.4,73L106.4,73z"/>
<path class="st4" d="M326.7,79.8h-90.2v-2.9H4.5C2,76.9,0,75.3,0,73.2V3c0-1.7,1.6-3,3.7-3h323.1V79.8z"/>
<linearGradient id="SVGID_1_" gradientUnits="userSpaceOnUse" x1="163.3149" y1="41.3305" x2="163.2629" y2="10.2783" gradientTransform="matrix(1 0 0 -1 0 104)">
	<stop  offset="0" style="stop-color:#F9F9FA"/>
	<stop  offset="1" style="stop-color:#9396AB"/>
</linearGradient>
<path class="st5" d="M7.3,73.2l315.4,0.1V56.5L3.9,56.8V70C3.9,71.4,5.1,73.2,7.3,73.2L7.3,73.2z"/>
<path class="st6" d="M3.9,53h318.8v6.9H3.9V53z"/>
<linearGradient id="SVGID_2_" gradientUnits="userSpaceOnUse" x1="163.3119" y1="99.9508" x2="163.3119" y2="50.9861" gradientTransform="matrix(1 0 0 -1 0 104)">
	<stop  offset="0" style="stop-color:#448DCE"/>
	<stop  offset="1" style="stop-color:#2C6292"/>
</linearGradient>
<path class="st7" d="M322.7,53H3.9V6.5C3.9,5.2,5.4,4,7.3,4l312.1,0c1.9,0,3.3,1.1,3.3,2.5V53z"/>
<path class="st2" d="M135.4,76.1c0.3,0,0.5-0.3,0.5-0.5c0-0.3-0.3-0.5-0.5-0.5c-0.3,0-0.5,0.3-0.5,0.5
	C134.9,75.9,135.1,76.1,135.4,76.1z"/>
<linearGradient id="SVGID_3_" gradientUnits="userSpaceOnUse" x1="66.0517" y1="34.7354" x2="66.0517" y2="9.9932" gradientTransform="matrix(1 0 0 -1 0 104)">
	<stop  offset="0" style="stop-color:#F9F9FA"/>
	<stop  offset="1" style="stop-color:#9497AC"/>
</linearGradient>
<path class="st8" d="M79.3,77.8c-2.2-5.8-7.3-8.9-13.2-8.9c-5.3,0-11.3,2.9-13.5,8.4c-1.5,3.7-1.1,8.3,1.1,8.3c5,0,24,0.1,24,0.1
	S82.3,85.6,79.3,77.8z"/>
<path class="st0" d="M50.3,90.3c0-13.5,8.2-18.6,15.7-18.6c7.5,0,15.7,5,15.7,18.6"/>
<linearGradient id="SVGID_4_" gradientUnits="userSpaceOnUse" x1="125.2713" y1="24645.5996" x2="125.2713" y2="27096.5996" gradientTransform="matrix(1 0 0 -1 0 104)">
	<stop  offset="0" style="stop-color:#F9F9FA"/>
	<stop  offset="1" style="stop-color:#9497AC"/>
</linearGradient>
<path class="st9" d="M138.6,77.8c-2.2-5.8-7.3-8.9-13.2-8.9c-5.3,0-11.3,2.9-13.5,8.4c-1.5,3.7-1.1,8.3,1.1,8.3c5,0,24,0.1,24,0.1
	S141.6,85.6,138.6,77.8L138.6,77.8z"/>
<path class="st0" d="M109.5,90.3c0-13.5,8.2-18.6,15.7-18.6c7.5,0,15.7,5,15.7,18.6"/>
<linearGradient id="SVGID_5_" gradientUnits="userSpaceOnUse" x1="95.6048" y1="-12167.2002" x2="95.6048" y2="-14635.0996" gradientTransform="matrix(1 0 0 -1 0 104)">
	<stop  offset="0" style="stop-color:#F9F9FA"/>
	<stop  offset="1" style="stop-color:#9497AC"/>
</linearGradient>
<path class="st10" d="M65.9,68.9h59.4v16.8H65.9V68.9z"/>
<path class="st0" d="M125.8,90.3H65.9V71.7l59.4,0L125.8,90.3z"/>
<path class="st11" d="M125.2,101.7c7.5,0,13.6-6.1,13.6-13.6s-6.1-13.6-13.6-13.6c-7.5,0-13.6,6.1-13.6,13.6
	S117.7,101.7,125.2,101.7z"/>
<path class="st12" d="M125.2,95.4c4.3,0,7.7-3.5,7.7-7.7c0-4.3-3.5-7.7-7.7-7.7c-4.3,0-7.7,3.5-7.7,7.7
	C117.4,91.9,120.9,95.4,125.2,95.4z"/>
<path class="st13" d="M125.2,81.1c2,0,3.8,0.7,5.3,2.1c1.4,1.3,2.3,3.1,2.4,5.1c0-0.2,0-0.4,0-0.6c0-2.1-0.8-4-2.3-5.5
	c-1.5-1.5-3.4-2.3-5.5-2.3c-2.1,0-4,0.8-5.5,2.3c-1.5,1.5-2.3,3.4-2.3,5.5c0,0.2,0,0.4,0,0.6c0.1-1.9,1-3.8,2.5-5.1
	C121.3,81.8,123.2,81.1,125.2,81.1L125.2,81.1z"/>
<path class="st11" d="M95.3,101.7c7.5,0,13.6-6.1,13.6-13.6s-6.1-13.6-13.6-13.6c-7.5,0-13.6,6.1-13.6,13.6S87.8,101.7,95.3,101.7z"
	/>
<path class="st12" d="M95.3,95.4c4.3,0,7.7-3.5,7.7-7.7c0-4.3-3.5-7.7-7.7-7.7c-4.3,0-7.7,3.5-7.7,7.7C87.6,91.9,91,95.4,95.3,95.4z
	"/>
<path class="st13" d="M95.3,81.1c2,0,3.8,0.7,5.3,2.1c1.4,1.3,2.3,3.1,2.4,5.1c0-0.2,0-0.4,0-0.6c0-2.1-0.8-4-2.3-5.5
	c-1.5-1.5-3.4-2.3-5.5-2.3c-2.1,0-4,0.8-5.5,2.3s-2.3,3.4-2.3,5.5c0,0.2,0,0.4,0,0.6c0.1-1.9,1-3.8,2.5-5.1
	C91.5,81.8,93.4,81.1,95.3,81.1L95.3,81.1z"/>
<path class="st11" d="M66,101.7c7.5,0,13.6-6.1,13.6-13.6S73.5,74.4,66,74.4c-7.5,0-13.6,6.1-13.6,13.6S58.4,101.7,66,101.7z"/>
<path class="st12" d="M66,95.4c4.3,0,7.7-3.5,7.7-7.7c0-4.3-3.5-7.7-7.7-7.7c-4.3,0-7.7,3.5-7.7,7.7C58.2,91.9,61.7,95.4,66,95.4z"
	/>
<path class="st13" d="M66,81.1c2,0,3.8,0.7,5.3,2.1c1.4,1.3,2.3,3.1,2.4,5.1c0-0.2,0-0.4,0-0.6c0-2.1-0.8-4-2.3-5.5S68,79.9,66,79.9
	c-2.1,0-4,0.8-5.5,2.3c-1.5,1.5-2.3,3.4-2.3,5.5c0,0.2,0,0.4,0,0.6c0.1-1.9,1-3.8,2.5-5.1C62.1,81.8,64,81.1,66,81.1L66,81.1z"/>
<path class="st0" d="M48.6,79.6h1.6v15.5h-1.6V79.6z"/>
<path class="st0" d="M236.5,76.9h145.1v13.3H238.9c-1.3,0-2.4-1.4-2.4-3.1V76.9z"/>
<path class="st0" d="M238,80h1.6v15.5H238V80z"/>
<path class="st1" d="M315.9,90.6h-5.3c-0.8,0-1.4-0.8-1.4-1.8V77.7h8.2v11.2C317.4,89.8,316.7,90.6,315.9,90.6z M325.1,90.6h-5.3
	c-0.8,0-1.4-0.8-1.4-1.8V77.7h8.2v11.2C326.6,89.8,325.9,90.6,325.1,90.6z M334.3,90.6h-5.3c-0.8,0-1.4-0.8-1.4-1.8V77.7h8.2v11.2
	C335.7,89.8,335.1,90.6,334.3,90.6z"/>
<path class="st1" d="M317.4,78.2v11.2h-8.2V78.2c0-1,0.6-1.8,1.4-1.8h5.3C316.7,76.4,317.4,77.2,317.4,78.2z M326.6,78.2v11.2h-8.2
	V78.2c0-1,0.6-1.8,1.4-1.8h5.3C325.9,76.4,326.6,77.2,326.6,78.2z M335.7,78.2v11.2h-8.2V78.2c0-1,0.6-1.8,1.4-1.8h5.3
	C335.1,76.4,335.7,77.2,335.7,78.2z"/>
<linearGradient id="SVGID_6_" gradientUnits="userSpaceOnUse" x1="256.138" y1="24645.5996" x2="256.138" y2="27096.5996" gradientTransform="matrix(1 0 0 -1 0 104)">
	<stop  offset="0" style="stop-color:#F9F9FA"/>
	<stop  offset="1" style="stop-color:#9497AC"/>
</linearGradient>
<path class="st14" d="M269.4,77.8c-2.2-5.8-7.3-8.9-13.2-8.9c-5.3,0-11.3,2.9-13.5,8.4c-1.5,3.7-1.1,8.3,1.1,8.3c5,0,24,0.1,24,0.1
	S272.4,85.6,269.4,77.8z"/>
<path class="st0" d="M238.3,90.3c0-13.5,9.2-18.6,17.5-18.6c8.4,0,17.5,5,17.5,18.6"/>
<linearGradient id="SVGID_7_" gradientUnits="userSpaceOnUse" x1="289.7693" y1="24645.5996" x2="289.7693" y2="27096.5996" gradientTransform="matrix(1 0 0 -1 0 104)">
	<stop  offset="0" style="stop-color:#F9F9FA"/>
	<stop  offset="1" style="stop-color:#9497AC"/>
</linearGradient>
<path class="st15" d="M303.1,77.8c-2.2-5.8-7.3-8.9-13.2-8.9c-5.3,0-11.3,2.9-13.5,8.4c-1.5,3.7-1.1,8.3,1.1,8.3c5,0,24,0.1,24,0.1
	S306.1,85.6,303.1,77.8z"/>
<path class="st0" d="M272.3,90.3c0-13.5,9.1-18.6,17.4-18.6c8.4,0,17.4,5,17.4,18.6"/>
<path class="st11" d="M289.7,101.7c7.5,0,13.6-6.1,13.6-13.6s-6.1-13.6-13.6-13.6s-13.6,6.1-13.6,13.6S282.2,101.7,289.7,101.7z"/>
<path class="st12" d="M289.7,95.4c4.3,0,7.7-3.5,7.7-7.7c0-4.3-3.5-7.7-7.7-7.7s-7.7,3.5-7.7,7.7C281.9,91.9,285.4,95.4,289.7,95.4z
	"/>
<path class="st13" d="M289.7,81.1c2,0,3.8,0.7,5.3,2.1c1.4,1.3,2.3,3.1,2.4,5.1c0-0.2,0-0.4,0-0.6c0-2.1-0.8-4-2.3-5.5
	c-1.5-1.5-3.4-2.3-5.5-2.3c-2.1,0-4,0.8-5.5,2.3c-1.5,1.5-2.3,3.4-2.3,5.5c0,0.2,0,0.4,0,0.6c0.1-1.9,1-3.8,2.5-5.1
	C285.8,81.8,287.7,81.1,289.7,81.1z"/>
<path class="st11" d="M256.1,101.4c7.5,0,13.6-6.1,13.6-13.6s-6.1-13.6-13.6-13.6c-7.5,0-13.6,6.1-13.6,13.6
	S248.5,101.4,256.1,101.4z"/>
<path class="st12" d="M256.1,95.1c4.3,0,7.7-3.5,7.7-7.7c0-4.3-3.5-7.7-7.7-7.7c-4.3,0-7.7,3.5-7.7,7.7
	C248.3,91.7,251.8,95.1,256.1,95.1z"/>
<path class="st13" d="M256.1,80.8c2,0,3.8,0.7,5.3,2.1c1.4,1.3,2.3,3.2,2.4,5.1c0-0.2,0-0.4,0-0.6c0-2-0.9-4-2.3-5.4
	c-1.4-1.4-3.4-2.2-5.4-2.2c-2,0-4,0.8-5.4,2.2c-1.4,1.4-2.3,3.4-2.3,5.4c0,0.2,0,0.4,0,0.6c0.1-1.9,1-3.8,2.4-5.1
	S254.1,80.8,256.1,80.8L256.1,80.8z M370.2,19.2l-30,1.3c0,0-0.1,0-0.1,0c0,0-0.1,0-0.1,0c0,0,0,0,0-0.1c0,0,0-0.1,0-0.1v-3.9
	c0,0,0-0.1,0-0.1c0,0,0-0.1,0.1-0.1c0,0,0,0,0.1,0c0,0,0.1,0,0.1,0l29.5,2.1L370.2,19.2z"/>
<linearGradient id="SVGID_8_" gradientUnits="userSpaceOnUse" x1="369.9731" y1="84.7654" x2="369.9452" y2="9.255" gradientTransform="matrix(1 0 0 -1 0 104)">
	<stop  offset="0" style="stop-color:#448DCE"/>
	<stop  offset="1" style="stop-color:#2C6292"/>
</linearGradient>
<path class="st16" d="M340.2,19.2l51.6,6.3c0,0,8.2,35.3,8.2,37.4l-0.2,13c0,0-2.6,10.4-4.8,10.4h-48.1c-3.9,0-7-3-7-6.6V19.5
	c0,0,0-0.1,0-0.1c0,0,0-0.1,0.1-0.1C340,19.3,340,19.3,340.2,19.2C340.1,19.2,340.1,19.2,340.2,19.2z"/>
<linearGradient id="SVGID_9_" gradientUnits="userSpaceOnUse" x1="358.4215" y1="18604.5996" x2="358.4215" y2="22759.8008" gradientTransform="matrix(1 0 0 -1 0 104)">
	<stop  offset="0" style="stop-color:#F9F9FA"/>
	<stop  offset="1" style="stop-color:#9497AC"/>
</linearGradient>
<path class="st17" d="M376.9,75.9l-10.5-10.5L342.2,59l-2.3,2.3v14.5c0,0,0,0.1,0,0.1c0,0,0,0.1,0,0.1c0,0,0,0,0.1,0
	c0,0,0.1,0,0.1,0L376.9,75.9z"/>
<linearGradient id="SVGID_10_" gradientUnits="userSpaceOnUse" x1="107898" y1="81.2588" x2="124087" y2="81.2588" gradientTransform="matrix(1 0 0 -1 0 104)">
	<stop  offset="0" style="stop-color:#448DCE"/>
	<stop  offset="1" style="stop-color:#2C6292"/>
</linearGradient>
<path class="st18" d="M391.7,26.3h-51.8v-7h40.8c2.3,0,4.5,0.6,6.5,1.7c2,1.1,3.7,2.7,4.9,4.6c0,0.1,0.1,0.2,0.1,0.3
	c0,0.1,0,0.2-0.1,0.3c0,0.1-0.1,0.1-0.2,0.2C391.9,26.2,391.8,26.3,391.7,26.3L391.7,26.3z"/>
<linearGradient id="SVGID_11_" gradientUnits="userSpaceOnUse" x1="62031.1016" y1="91.5277" x2="67356.2969" y2="91.5277" gradientTransform="matrix(1 0 0 -1 0 104)">
	<stop  offset="0" style="stop-color:#448DCE"/>
	<stop  offset="1" style="stop-color:#2C6292"/>
</linearGradient>
<path class="st19" d="M339.9,18.7h30c0,0-4.5-9.8-30-12.6V18.7z"/>
<path class="st20" d="M392.1,26.9l-52.2-0.2v-0.5h52L392.1,26.9z"/>
<path class="st0" d="M340.2,89.7h21.4V70.9h-21.4c0,0-0.1,0-0.1,0c0,0-0.1,0-0.1,0c0,0,0,0-0.1,0.1c0,0,0,0.1,0,0.1v18.4
	c0,0,0,0.1,0,0.1c0,0,0,0.1,0.1,0.1C340,89.6,340,89.6,340.2,89.7C340.1,89.7,340.1,89.7,340.2,89.7L340.2,89.7z"/>
<linearGradient id="SVGID_12_" gradientUnits="userSpaceOnUse" x1="386.6395" y1="26.6069" x2="386.6395" y2="15.6272" gradientTransform="matrix(1 0 0 -1 0 104)">
	<stop  offset="7.689310e-07" style="stop-color:#448DCE"/>
	<stop  offset="1" style="stop-color:#2C6292"/>
</linearGradient>
<path class="st21" d="M395.4,90.3H375l-1.5-13.2h26.3v9C399.8,88.4,397.8,90.3,395.4,90.3z"/>
<path class="st0" d="M372.6,75.9h27.2v1.8h-27.2V75.9z"/>
<path class="st22" d="M380.9,83.8H394v5.2h-13.1V83.8z M380.9,77.7H394v5.3h-13.1V77.7z"/>
<path class="st11" d="M380.9,87.9H394v1.2h-13.1V87.9z M380.9,81.8H394v1.2h-13.1V81.8z"/>
<path class="st23" d="M392.3,27.9h-32c-3.8,0-3.8,0-3.8,2.6v13.2c0,0.7,0.2,1.5,0.7,2.1c0.5,0.6,1.1,1,1.8,1.2l38.4,3.4"/>
<path class="st0" d="M390.2,56c0.7,0,1.4-0.3,1.8-0.8c0.5-0.5,0.8-1.2,0.8-1.8V46h-2.6V56z"/>
<path class="st24" d="M390.2,41.2V46h2.6v-2.2c0-0.7-0.3-1.4-0.8-1.8C391.5,41.5,390.9,41.2,390.2,41.2L390.2,41.2z"/>
<path class="st13" d="M390.2,46h2.6v5.7h-2.6V46z"/>
<path class="st0" d="M392.8,50.3c0.4,0,0.9,0.2,1.2,0.5c0.3,0.3,0.5,0.7,0.5,1.2c0,0.4-0.2,0.9-0.5,1.2c-0.3,0.3-0.7,0.5-1.2,0.5"/>
<path class="st12" d="M343.5,47.7l36.3,3.1c0.8,0.1,1.5,0.5,2,1.1c0.5,0.6,0.8,1.4,0.8,2.2c0,0.8-0.4,1.6-0.9,2.1
	c-0.6,0.6-1.3,0.9-2.1,0.9l-36.4,0.5"/>
<path class="st23" d="M363.8,53.1h-2.9c-0.5,0-0.9-0.2-1.3-0.5c-0.3-0.3-0.5-0.8-0.5-1.3h2.9c0.2,0,0.5,0,0.7,0.1
	c0.2,0.1,0.4,0.2,0.6,0.4c0.2,0.2,0.3,0.4,0.4,0.6C363.7,52.6,363.8,52.8,363.8,53.1L363.8,53.1z"/>
<path class="st6" d="M339.9,55.1c0,0,32.7,1.6,38.5,20.8h-5.8c0,0-3.4-14.7-32.7-14.7"/>
<path class="st0" d="M345.6,90.3c0-14.1,8.3-19.4,15.9-19.4c7.6,0,15.9,5.2,15.9,19.4"/>
<path class="st11" d="M361.5,101.4c7.5,0,13.6-6.1,13.6-13.6c0-7.5-6.1-13.6-13.6-13.6c-7.5,0-13.6,6.1-13.6,13.6
	C347.9,95.3,354,101.4,361.5,101.4z"/>
<path class="st12" d="M361.5,95.1c4.3,0,7.7-3.5,7.7-7.7c0-4.3-3.5-7.7-7.7-7.7c-4.3,0-7.7,3.5-7.7,7.7
	C353.8,91.7,357.2,95.1,361.5,95.1z"/>
<path class="st13" d="M361.5,80.8c2,0,3.8,0.7,5.3,2.1c1.4,1.3,2.3,3.2,2.4,5.1c0-0.2,0-0.4,0-0.6c0-2.1-0.8-4-2.3-5.5
	c-1.5-1.5-3.4-2.3-5.5-2.3c-2.1,0-4,0.8-5.5,2.3c-1.5,1.5-2.3,3.4-2.3,5.5c0,0.2,0,0.4,0,0.6c0.1-1.9,1-3.8,2.4-5.1
	C357.7,81.5,359.6,80.8,361.5,80.8L361.5,80.8z"/>
<path class="st25" d="M354.9,49.6v12.6c0,1.3,0.5,2.5,1.4,3.5c0.9,0.9,2.2,1.4,3.5,1.4h4.8c1.3,0,5.7,0.2,7,1.5c1.6,1.6,4,4.1,4,4.1
	c0.5,0.5,1,0.8,1.6,1.1c0.6,0.3,1.2,0.4,1.9,0.4h11.7c0.4,0,0.8-0.1,1.1-0.2c0.4-0.1,0.7-0.4,0.9-0.6c0.3-0.3,0.5-0.6,0.6-0.9
	c0.1-0.3,0.2-0.7,0.2-1.1V58.8"/>
<path class="st23" d="M395.3,74.1V62.8c0.2,0,0.5,0,0.7,0.1c0.2,0.1,0.4,0.2,0.6,0.4c0.2,0.2,0.3,0.4,0.4,0.6
	c0.1,0.2,0.1,0.4,0.1,0.7v7.8c0,0.5-0.2,0.9-0.5,1.2C396.2,74,395.8,74.1,395.3,74.1z"/>
</svg>
