<svg version="1.1" xmlns="http://www.w3.org/2000/svg" xmlns:xlink="http://www.w3.org/1999/xlink" width="400" height="180" viewBox="0 0 400 180">
<style type="text/css">
	.st0{fill:#191F43;}
	.st1{fill:#A2A5B8;}
	.st2{fill:#CACBD6;}
	.st3{fill:url(#SVGID_1_);}
	.st4{fill:url(#SVGID_2_);}
	.st5{fill:#F19100;}
	.st6{fill:#1D2141;}
	.st7{fill:#2F435A;}
	.st8{fill:#448DCE;}
	.st9{fill:#2C6292;}
	.st10{fill:#53AF4B;}
	.st11{fill:url(#SVGID_3_);}
	.st12{fill:url(#SVGID_4_);}
	.st13{fill:url(#SVGID_5_);}
	.st14{fill:url(#SVGID_6_);}
	.st15{opacity:0.33;fill:#F2F2F5;}
	.st16{fill:#0F222C;}
	.st17{fill:#519BDD;}
	.st18{fill:url(#SVGID_7_);}
	.st19{opacity:0.62;fill:none;stroke:#FFFFFF;stroke-width:3;stroke-linecap:round;stroke-miterlimit:10;}
</style>
<path class="st0" d="M279.5,129.8h-263v21.1h263V129.8z"/>
<path class="st1" d="M256,0h12.6c1.9,0,3.4,1.2,3.4,2.6l0.1,85c0,6.2,0,43.7-1.9,43.7h-25.9L256,0z"/>
<path class="st2" d="M262.2,131.3H6.9c-3.8,0-6.9-3.1-6.9-6.9V6.9C0,3.1,3.1,0,6.9,0h248.4c3.8,0,6.9,3.1,6.9,6.9V131.3z"/>
<linearGradient id="SVGID_1_" gradientUnits="userSpaceOnUse" x1="130.9293" y1="166.2427" x2="130.9293" y2="3.783" gradientTransform="matrix(1 0 0 -1 0 182)">
	<stop  offset="7.689310e-07" style="stop-color:#448DCE"/>
	<stop  offset="1" style="stop-color:#2C6292"/>
</linearGradient>
<path class="st3" d="M255.5,110.9V8.6c0-2.3-2.5-4.2-5.5-4.2H11.8c-3,0-5.5,1.9-5.5,4.2v102.3H255.5z"/>
<linearGradient id="SVGID_2_" gradientUnits="userSpaceOnUse" x1="130.9293" y1="75.209" x2="130.9293" y2="1.062" gradientTransform="matrix(1 0 0 -1 0 182)">
	<stop  offset="7.689310e-07" style="stop-color:#F9F9FA"/>
	<stop  offset="1" style="stop-color:#9396AB"/>
</linearGradient>
<path class="st4" d="M11,127.5h239.8c2.6,0,4.7-1.6,4.7-3.6v-22.5L6.3,94.6v29.3C6.3,125.9,8.4,127.5,11,127.5z"/>
<path class="st5" d="M6.3,94.6c0,0,115.5,2.3,249.2,9.2v-9.9c0,0-115-6.5-249.2-9.6V94.6z"/>
<path class="st6" d="M72.5,157.5c0-14.5,12.1-26.2,27-26.2s27,11.7,27,26.2"/>
<path class="st6" d="M68.4,140.8h-2.9v28h2.9V140.8z"/>
<path class="st7" d="M121.1,157.6c0,11.7-9.4,21.1-21.1,21.1c-11.7,0-21.1-9.4-21.1-21.1s9.4-21.2,21.1-21.2
	C111.6,136.4,121.1,145.9,121.1,157.6z"/>
<path class="st8" d="M100,169c6.6,0,12-5.4,12-12s-5.4-12-12-12c-6.6,0-12,5.4-12,12S93.4,169,100,169z"/>
<path class="st9" d="M100,146.8c6.3,0,11.5,4.9,12,11.1c0-0.3,0-0.6,0-0.9c0-6.6-5.4-12-12-12c-6.6,0-12,5.4-12,12
	c0,0.3,0,0.6,0,0.9C88.5,151.7,93.7,146.8,100,146.8z"/>
<path class="st10" d="M315.3,74.7l5.3,1C318.9,75.3,317.1,74.9,315.3,74.7z"/>
<path class="st10" d="M315.2,74.7C315.2,74.7,315.3,74.7,315.2,74.7L315.2,74.7z"/>
<linearGradient id="SVGID_3_" gradientUnits="userSpaceOnUse" x1="333.0605" y1="122.333" x2="333.0605" y2="56.758" gradientTransform="matrix(1 0 0 -1 0 182)">
	<stop  offset="0" style="stop-color:#448DCE"/>
	<stop  offset="1" style="stop-color:#2C6292"/>
</linearGradient>
<path class="st11" d="M268.2,118.7c60.1,1.5,104.1,26.3,104.1,26.3l25.7-1.4l-1.2-20.7c-0.8-9.8-1.5-12.5-16.2-22.1
	c-6.3-4.1-17.8-9.6-24.8-16.9c-10.1-10.6-19.1-20.4-20.7-22c-1.5-1.5-7.8-7.2-18-7.2c-13.4,0-44.6,0-44.6,0c-2.5,0-4.5,2-4.5,4.5
	l0,6.5"/>
<linearGradient id="SVGID_4_" gradientUnits="userSpaceOnUse" x1="333.0875" y1="71.049" x2="333.0875" y2="2.999" gradientTransform="matrix(1 0 0 -1 0 182)">
	<stop  offset="7.689310e-07" style="stop-color:#F9F9FA"/>
	<stop  offset="1" style="stop-color:#9396AB"/>
</linearGradient>
<path class="st12" d="M268.2,143.8c0,7.9,5.8,14.4,13,14.4l106,0c5.2,0,5.9-9.4,10.9-14.5l-28.2,1.4l-16.1-17.1l-10.1-9.2v-0.1
	l-75.5-18.5L268.2,143.8z"/>
<linearGradient id="SVGID_5_" gradientUnits="userSpaceOnUse" x1="333.1056" y1="-9.637" x2="333.1056" y2="45.97" gradientTransform="matrix(1 0 0 -1 0 182)">
	<stop  offset="7.689310e-07" style="stop-color:#888BA1"/>
	<stop  offset="1" style="stop-color:#B4B7CE"/>
</linearGradient>
<path class="st13" d="M268.2,143.1c0,10.1,5.9,15,13.1,15h102.4c15,0,14.2,1.3,14.2-15H268.2z"/>
<linearGradient id="SVGID_6_" gradientUnits="userSpaceOnUse" x1="335.196" y1="24.111" x2="335.196" y2="28.11" gradientTransform="matrix(1 0 0 -1 0 182)">
	<stop  offset="0" style="stop-color:#808FA9"/>
	<stop  offset="1" style="stop-color:#B4B7CE;stop-opacity:0"/>
</linearGradient>
<path class="st14" d="M397.3,155.4H273.1c0,0,3.1,2.8,7.1,2.8c4,0,113.3,0,113.3,0C395.1,158.1,396.6,157.1,397.3,155.4z"/>
<path class="st15" d="M397.1,155.8H273.7l-1.1-0.9h125L397.1,155.8z"/>
<path class="st16" d="M396.1,118.7h-16.9c-1.4,0-2.4,1.4-1.8,2.7l1.9,4.6c0.9,2.3,3.1,3.7,5.6,3.7h11.1h1.4
	C397.3,129.8,397.2,122.1,396.1,118.7z"/>
<path class="st16" d="M283.6,63l52.5,0L371,95.1l-80.5,0c-6,0-10.8-4.9-10.8-10.8V67C279.6,64.8,281.4,63,283.6,63z"/>
<path class="st6" d="M337.6,101.3c1.1,0,2-0.9,2-2v-4.2h-6.2v2C333.4,99.5,335.3,101.3,337.6,101.3z"/>
<path class="st9" d="M333.4,95.1h6.2v-3.1h-6.2V95.1z"/>
<path class="st17" d="M333.4,92.1h6.2v-1.2c0-1-0.9-1.9-1.9-1.9h-2.4c-1,0-1.9,0.9-1.9,1.9L333.4,92.1L333.4,92.1z"/>
<path class="st6" d="M343.7,97.4c0,2.8-2.3,5.1-5.1,5.1c-2.8,0-5.1-2.3-5.1-5.1"/>
<path class="st5" d="M268.2,96.6c0,0,96.5,6.8,112.2,46.5h-10.5c0,0-8.4-28.7-101.7-37.7V96.6z"/>
<linearGradient id="SVGID_7_" gradientUnits="userSpaceOnUse" x1="344.7661" y1="56.664" x2="344.7661" y2="11.818" gradientTransform="matrix(1 0 0 -1 0 182)">
	<stop  offset="7.689310e-07" style="stop-color:#F9F9FA"/>
	<stop  offset="1" style="stop-color:#9396AB"/>
</linearGradient>
<path class="st18" d="M368.9,140.9c-4-10.4-13.3-16.1-23.9-16.1c-9.7,0-20.5,5.3-24.5,15.1c-2.7,6.8-2,15,2,15
	c9,0,43.6,0.2,43.6,0.2S374.3,155,368.9,140.9z"/>
<path class="st19" d="M279.6,98.9v41.6c0,2.5,1.8,4.5,4,4.5h26.1c1.9,0,3.6-1.5,3.9-3.6l16.4-20c0.4-2.3,1.6-4.4,3.3-5.8
	c2.2-1.7,11.5-4.5,11.5-7.4v-5.4"/>
<path class="st6" d="M317.1,158.4c0-14.8,12.4-26.8,27.7-26.8c15.3,0,27.7,12,27.7,26.8"/>
<path class="st7" d="M366.2,157.8c0,11.6-9.4,21-21,21c-11.6,0-21-9.4-21-21s9.4-21.2,21-21.2C356.8,136.6,366.2,146.1,366.2,157.8z
	"/>
<path class="st8" d="M345.2,169.1c6.6,0,11.9-5.3,11.9-11.9s-5.3-11.9-11.9-11.9c-6.6,0-11.9,5.3-11.9,11.9S338.6,169.1,345.2,169.1
	z"/>
<path class="st9" d="M345.2,147c6.3,0,11.5,4.9,11.9,11.1c0-0.3,0-0.6,0-0.9c0-6.6-5.3-11.9-11.9-11.9c-6.6,0-11.9,5.3-11.9,11.9
	c0,0.3,0,0.6,0,0.9C333.7,151.9,338.9,147,345.2,147z"/>
</svg>
