<svg version="1.1" xmlns="http://www.w3.org/2000/svg" xmlns:xlink="http://www.w3.org/1999/xlink" width="400" height="162" viewBox="0 0 400 162">
<style type="text/css">
	.st0{fill:#2C6292;}
	.st1{fill:#CACBD6;}
	.st2{fill:url(#SVGID_1_);}
	.st3{fill:url(#SVGID_2_);}
	.st4{fill:#F19100;}
	.st5{fill:#191F43;}
	.st6{fill:#C2C2C2;}
	.st7{fill:#1D2141;}
	.st8{fill:#2E435A;}
	.st9{fill:#448DCE;}
	.st10{fill:url(#SVGID_3_);}
	.st11{fill:url(#SVGID_4_);}
	.st12{fill:#C47702;}
	.st13{fill:#888CA4;}
	.st14{fill:#0F222C;}
	.st15{fill:url(#SVGID_5_);}
	.st16{fill:url(#SVGID_6_);}
	.st17{fill:#519BDD;}
	
		.st18{opacity:0.62;fill:none;stroke:#FFFFFF;stroke-width:3;stroke-linecap:round;stroke-miterlimit:10;enable-background:new    ;}
</style>
<path class="st0" d="M265.7,0h14.7c1.3,0,2.3,1,2.3,2.3v120.2c0,1.3-1,2.3-2.2,2.3L268,128L265.7,0z"/>
<path class="st1" d="M283.8,100.6v21.8c0,1.3-1.1,2.3-2.4,5.5h-17.7l8-28.8"/>
<linearGradient id="SVGID_1_" gradientUnits="userSpaceOnUse" x1="146.933" y1="152.5671" x2="146.933" y2="-10.77" gradientTransform="matrix(1 0 0 -1 0 164)">
	<stop  offset="7.689310e-07" style="stop-color:#448DCE"/>
	<stop  offset="1" style="stop-color:#2C6292"/>
</linearGradient>
<path class="st2" d="M271.4,98.1l6.6-7.6L278.9,0H19.8C17.2,0,15,2.3,15,5.1v102L271.4,98.1z"/>
<linearGradient id="SVGID_2_" gradientUnits="userSpaceOnUse" x1="148.8695" y1="60.771" x2="148.8695" y2="-35.502" gradientTransform="matrix(1 0 0 -1 0 164)">
	<stop  offset="7.689310e-07" style="stop-color:#F9F9FA"/>
	<stop  offset="1" style="stop-color:#575757"/>
</linearGradient>
<path class="st3" d="M19.2,126.9l263.5,3.2c0,0,0-1.9,0-4.3V97.6L15,87.4v38.4C15,128.2,16.9,126.9,19.2,126.9z"/>
<path class="st4" d="M15,90.4c0,0,148.2,5.8,262.9,9.9V90.1c0,0-145.3-7.1-262.9-10.3V90.4z"/>
<path class="st5" d="M358.7,127.6H36.4v15.6h322.3V127.6z"/>
<path class="st5" d="M50.2,127.6h-3.1V150h3.1V127.6z"/>
<path class="st6" d="M128.6,120.3c-4.4-11.3-14.7-17.5-26.5-17.5c-10.7,0-22.8,5.7-27.2,16.4c-3,7.3-2.2,16.3,2.2,16.3
	c10,0,48.3,0.2,48.3,0.2S134.6,135.7,128.6,120.3z"/>
<path class="st7" d="M70.7,143.3c0-26.4,16.3-36.4,31.1-36.4c15,0,31.1,9.8,31.1,36.4"/>
<path class="st8" d="M102.1,161c12.7,0,23-10.3,23-23c0-12.7-10.3-23-23-23c-12.7,0-23,10.3-23,23C79.1,150.7,89.4,161,102.1,161z"
	/>
<path class="st9" d="M102.1,150.4c7.2,0,13.1-5.9,13.1-13.1c0-7.2-5.9-13.1-13.1-13.1c-7.2,0-13.1,5.9-13.1,13.1
	C89,144.5,94.9,150.4,102.1,150.4z"/>
<path class="st0" d="M102.1,126.2c6.9,0,12.6,5.3,13,12.1c0-0.3,0-0.6,0-1c0-7.2-5.9-13.1-13.1-13.1c-7.2,0-13.1,5.9-13.1,13.1
	c0,0.3,0,0.6,0,1C89.6,131.5,95.2,126.2,102.1,126.2z"/>
<path class="st8" d="M168.8,148.5h-15.1c-3.4,0-6.2-2.8-6.2-6.2V128H175v14.4C175,145.7,172.3,148.5,168.8,148.5z"/>
<path class="st8" d="M237.1,128v14.4c0,3.4-2.8,6.2-6.2,6.2h-45.2c-3.4,0-6.2-2.8-6.2-6.2V128"/>
<path class="st8" d="M268.7,128v14.4c0,3.4-2.8,6.2-6.2,6.2h-15.1c-3.4,0-6.2-2.8-6.2-6.2V128"/>
<linearGradient id="SVGID_3_" gradientUnits="userSpaceOnUse" x1="277.959" y1="87.599" x2="385" y2="87.599" gradientTransform="matrix(1 0 0 -1 0 164)">
	<stop  offset="7.689310e-07" style="stop-color:#448DCE"/>
	<stop  offset="1" style="stop-color:#2C6292"/>
</linearGradient>
<path class="st10" d="M288.4,34.7h51.7c7.3,0,14.5,1.7,21,4.9c14.7,7.4,23.9,21.9,23.9,35.1v41.9l-8.4,1.4l-85.5-1.4L278,94.8V44.7
	C278,39.2,282.7,34.7,288.4,34.7z"/>
<linearGradient id="SVGID_4_" gradientUnits="userSpaceOnUse" x1="329.5717" y1="86.8561" x2="329.5717" y2="-104.852" gradientTransform="matrix(1 0 0 -1 0 164)">
	<stop  offset="7.689310e-07" style="stop-color:#F9F9FA"/>
	<stop  offset="1" style="stop-color:#9497AC"/>
</linearGradient>
<path class="st11" d="M291.5,143.3h83.1c4.2,0,4.9-8.7,6.6-15.2c0.6-2.4-21.9-4.9-21.9-4.9l-0.5-13.6l-80.9-14v34.9
	C278,137.5,284,143.3,291.5,143.3z"/>
<path class="st12" d="M273.4,100.1l6.5,0.3L279,90.2l-5.6-0.3V100.1z"/>
<path class="st13" d="M385,136.6c0-7-2.1-7.8-2.1-7.8s2.1-0.8,2.1-4.2c-1.3,0-73.3,0-73.3,0l5.2,12C316.9,136.6,383,136.6,385,136.6
	z"/>
<path class="st14" d="M382.4,102.4h-19.6c2,8.4,9.5,14.2,18.2,14.2l4.1,0v-14.2L382.4,102.4L382.4,102.4z"/>
<linearGradient id="SVGID_5_" gradientUnits="userSpaceOnUse" x1="329.8" y1="7.949" x2="329.8" y2="37.96" gradientTransform="matrix(1 0 0 -1 0 164)">
	<stop  offset="7.689310e-07" style="stop-color:#898CA2"/>
	<stop  offset="1" style="stop-color:#B5B9D0"/>
</linearGradient>
<path class="st15" d="M291.5,143.3h83.1c2,0,3.3-2.1,4.2-5h-97.9C283.3,141.3,287.2,143.3,291.5,143.3z"/>
<path class="st1" d="M278,116.7v13.7c0,3,1.1,5.7,2.9,7.9h97.9c1-3,1.6-6.9,2.4-10.3c0.6-2.4,3.8-3.4,3.8-3.4v-7.9H278z"/>
<path class="st13" d="M365.5,124.6H385c0,0-0.9,2.4-2.1,3.5c-1.2,1.1,0.8,4.9,1.5,5.7c0.4,0.4,0.6,1,0.6,1.5v6.6
	c0,3.7-0.1,6.6-5.1,6.6h-4.8c-3.7,0-4.8-2.7-4.8-5.3h-11L365.5,124.6z"/>
<linearGradient id="SVGID_6_" gradientUnits="userSpaceOnUse" x1="347.923" y1="19.091" x2="347.923" y2="39.169" gradientTransform="matrix(1 0 0 -1 0 164)">
	<stop  offset="7.689310e-07" style="stop-color:#898CA2"/>
	<stop  offset="1" style="stop-color:#B5B9D0"/>
</linearGradient>
<path class="st16" d="M382.9,128.8C382.9,128.8,382.9,128.8,382.9,128.8l-72,0l2.6,7.8c0,0,69.5,0,71.5,0
	C385,129.6,382.9,128.8,382.9,128.8z"/>
<path class="st14" d="M307.8,50h66.9C382,57.8,385,66.5,385,75.1v9.1h-57c-11.2,0-20.3-7.6-20.3-17V50z"/>
<path class="st5" d="M374.4,88.3h0.6c1.1,0,2-0.9,2-2v-4.9h-6.6l0,2.8C370.4,86.5,372.2,88.3,374.4,88.3z"/>
<path class="st0" d="M370.4,81.7h6.6v-8.1h-6.6V81.7z"/>
<path class="st17" d="M370.4,73.9h6.6v-2.6c0-0.5-0.4-1-1-1h-4.7c-0.5,0-1,0.4-1,1v2.3V73.9z"/>
<path class="st5" d="M381.3,84.1c0,3-2.5,5.5-5.5,5.5c-3,0-5.5-2.5-5.5-5.5"/>
<path class="st4" d="M278,90.2c0,0,76.8,1.6,85.9,26.4h-10.1c0,0-13.2-14.4-75.7-16.2"/>
<path class="st6" d="M365.2,121.6c-4.4-11.4-14.5-17.7-26.2-17.7c-10.6,0-22.5,5.8-26.9,16.6c-3,7.4-2.2,16.4,2.2,16.4
	c9.9,0,47.7,0.2,47.7,0.2S371.1,137.2,365.2,121.6z"/>
<path class="st5" d="M308.7,143.3c0-26.6,16.2-36.6,30.8-36.6c14.8,0,30.8,9.9,30.8,36.6"/>
<path class="st8" d="M339.5,161c12.7,0,23-10.3,23-23c0-12.7-10.3-23-23-23c-12.7,0-23,10.3-23,23C316.5,150.7,326.8,161,339.5,161z
	"/>
<path class="st9" d="M339.5,150.4c7.2,0,13.1-5.9,13.1-13.1c0-7.2-5.9-13.1-13.1-13.1c-7.2,0-13.1,5.9-13.1,13.1
	C326.4,144.5,332.3,150.4,339.5,150.4z"/>
<path class="st0" d="M339.5,126.2c6.9,0,12.6,5.3,13,12.1c0-0.3,0-0.6,0-1c0-7.2-5.9-13.1-13.1-13.1c-7.2,0-13.1,5.9-13.1,13.1
	c0,0.3,0,0.6,0,1C327,131.5,332.6,126.2,339.5,126.2z"/>
<path class="st18" d="M296.3,50.6v75.3c0,1.6,1.3,2.8,2.8,2.8h4.9c1.5,0,2.7-1.1,2.8-2.6c1.3-15.7,14.1-31.3,40.3-27
	c1.7,0.3,3.3-1,3.3-2.8v-7.5"/>
</svg>
