<svg version="1.1" xmlns="http://www.w3.org/2000/svg" xmlns:xlink="http://www.w3.org/1999/xlink" width="400" height="174" viewBox="0 0 400 174">
<style type="text/css">
	.st0{fill:#A2A5B8;}
	.st1{fill:#CACBD6;}
	.st2{fill:url(#SVGID_1_);}
	.st3{fill:url(#SVGID_2_);}
	.st4{fill:#F19100;}
	.st5{fill:#191F43;}
	.st6{fill:#8C8FAD;}
	.st7{fill:#1C4E7A;}
	.st8{fill:url(#SVGID_3_);}
	.st9{fill:url(#SVGID_4_);}
	.st10{fill:url(#SVGID_5_);}
	.st11{fill:url(#SVGID_6_);}
	.st12{fill:url(#SVGID_7_);}
	.st13{fill:#2E6495;}
	.st14{fill:#2E435A;}
	.st15{fill:url(#SVGID_8_);}
	.st16{fill:#448DCE;}
	.st17{fill:#2C6292;}
	.st18{fill:#0F222C;}
	.st19{fill:#519BDD;}
	.st20{fill:url(#SVGID_9_);}
	.st21{opacity:0.62;fill:none;stroke:#FFFFFF;stroke-width:2;stroke-linecap:round;stroke-miterlimit:10;}
</style>
<path class="st0" d="M285.9,0h11.3c1.7,0,3,1.4,3,3l0.1,78c0,7.2,0,51.2-1.7,51.2h-23.3L285.9,0z"/>
<path class="st1" d="M291.4,136H31.2v-3.8h-28c-1.8,0-3.2-1.4-3.2-3.2V3.2C0,1.4,1.4,0,3.2,0h285c1.8,0,3.2,1.4,3.2,3.2L291.4,136z"
	/>
<linearGradient id="SVGID_1_" gradientUnits="userSpaceOnUse" x1="145.5464" y1="159.8534" x2="145.5464" y2="2.542" gradientTransform="matrix(1 0 0 -1 0 176)">
	<stop  offset="7.689310e-07" style="stop-color:#448DCE"/>
	<stop  offset="1" style="stop-color:#2C6292"/>
</linearGradient>
<path class="st2" d="M285.4,108.3V10.1c0-2.7-2.2-4.9-4.9-4.9H10.6c-2.7,0-4.9,2.2-4.9,4.9v98.2H285.4z"/>
<linearGradient id="SVGID_2_" gradientUnits="userSpaceOnUse" x1="145.5449" y1="72.54" x2="145.5449" y2="-14.276" gradientTransform="matrix(1 0 0 -1 0 176)">
	<stop  offset="7.689310e-07" style="stop-color:#F9F9FA"/>
	<stop  offset="1" style="stop-color:#9396AB"/>
</linearGradient>
<path class="st3" d="M9.9,127.7h271.2c2.3,0,4.2-1.9,4.2-4.2V103L5.7,89.2v34.3C5.7,125.8,7.6,127.7,9.9,127.7z"/>
<path class="st4" d="M5.7,94.5c0,0,162,5.7,279.7,9.8v-10c0,0-159.1-7-279.7-10.1V94.5z"/>
<path class="st5" d="M369.9,132.1H31v17.7h338.9V132.1z"/>
<path class="st5" d="M70.1,132.1h-2.8v27h2.8V132.1z"/>
<path class="st6" d="M215.4,151.4H200c-1.4,0-2.5-1.1-2.5-2.5v-16.7h20.5v16.7C217.9,150.2,216.8,151.4,215.4,151.4z"/>
<path class="st6" d="M231.7,151.4h-9.3c-1.4,0-2.5-1.1-2.5-2.5v-16.7h14.3v16.7C234.2,150.3,233.1,151.4,231.7,151.4z"/>
<path class="st6" d="M247.7,151.4h-9.3c-1.4,0-2.5-1.1-2.5-2.5v-16.7h14.3v16.7C250.3,150.2,249.1,151.4,247.7,151.4z"/>
<path class="st6" d="M263.7,151.4h-9.3c-1.4,0-2.5-1.1-2.5-2.5v-16.7h14.3v16.7C266.2,150.2,265.1,151.4,263.7,151.4z"/>
<path class="st7" d="M348.1,27.2l-52.3,2.4c-0.2,0-0.4-0.2-0.4-0.4v-6.7c0-0.2,0.2-0.4,0.4-0.4l51.4,3.7L348.1,27.2z"/>
<linearGradient id="SVGID_3_" gradientUnits="userSpaceOnUse" x1="295.383" y1="90.3897" x2="400" y2="90.3897" gradientTransform="matrix(1 0 0 -1 0 176)">
	<stop  offset="7.689310e-07" style="stop-color:#448DCE"/>
	<stop  offset="1" style="stop-color:#2C6292"/>
</linearGradient>
<path class="st8" d="M295.8,27.2l89.9,10.9c0,0,14.3,61.5,14.3,65.2l-0.3,22.7c0,0-4.5,18.1-8.3,18.1h-83.8
	c-6.7,0-12.2-5.2-12.2-11.6V27.6C295.4,27.3,295.6,27.2,295.8,27.2z"/>
<linearGradient id="SVGID_4_" gradientUnits="userSpaceOnUse" x1="327.5875" y1="81.784" x2="327.5875" y2="-10.568" gradientTransform="matrix(1 0 0 -1 0 176)">
	<stop  offset="7.689310e-07" style="stop-color:#F9F9FA"/>
	<stop  offset="1" style="stop-color:#9497AC"/>
</linearGradient>
<path class="st9" d="M359.8,125.9l-18.3-18.3l-46.1-4.6v22.6c0,0.2,0.2,0.4,0.4,0.4L359.8,125.9z"/>
<linearGradient id="SVGID_5_" gradientUnits="userSpaceOnUse" x1="295.383" y1="142.711" x2="386.4097" y2="142.711" gradientTransform="matrix(1 0 0 -1 0 176)">
	<stop  offset="7.689310e-07" style="stop-color:#448DCE"/>
	<stop  offset="1" style="stop-color:#2C6292"/>
</linearGradient>
<path class="st10" d="M385.5,39.4h-90.1V27.2h71.1c8,0,15.5,4.1,19.8,10.9C386.6,38.7,386.2,39.4,385.5,39.4z"/>
<linearGradient id="SVGID_6_" gradientUnits="userSpaceOnUse" x1="295.383" y1="160.5931" x2="347.586" y2="160.5931" gradientTransform="matrix(1 0 0 -1 0 176)">
	<stop  offset="7.689310e-07" style="stop-color:#448DCE"/>
	<stop  offset="1" style="stop-color:#2C6292"/>
</linearGradient>
<path class="st11" d="M295.4,26.3h52.2c0,0-7.8-17.1-52.2-21.9V26.3z"/>
<path class="st7" d="M386.2,40.6l-90.9-0.4c0,0,0-0.2,0-0.4v-0.4H386L386.2,40.6z"/>
<path class="st5" d="M295.8,149.9H333v-32.8h-37.2c-0.2,0-0.4,0.2-0.4,0.4v32C295.4,149.7,295.6,149.9,295.8,149.9z"/>
<linearGradient id="SVGID_7_" gradientUnits="userSpaceOnUse" x1="376.698" y1="46.561" x2="376.698" y2="29.139" gradientTransform="matrix(1 0 0 -1 0 176)">
	<stop  offset="7.689310e-07" style="stop-color:#448DCE"/>
	<stop  offset="1" style="stop-color:#2C6292"/>
</linearGradient>
<path class="st12" d="M392.1,149.9h-35.7l-2.7-20.9h45.9v14.3C399.7,146.9,396.3,149.9,392.1,149.9z"/>
<path class="st5" d="M399.7,125.8h-47.4v3.1h47.4V125.8z"/>
<path class="st13" d="M389.5,139.7h-22.8v9.1h22.8V139.7z"/>
<path class="st13" d="M389.5,129h-22.8v9.2h22.8V129z"/>
<path class="st14" d="M389.5,146.7h-22.8v2.1h22.8V146.7z"/>
<path class="st14" d="M389.5,136.1h-22.8v2.1h22.8V136.1z"/>
<linearGradient id="SVGID_8_" gradientUnits="userSpaceOnUse" x1="122.4806" y1="67.1462" x2="100.0166" y2="25.4892" gradientTransform="matrix(1 0 0 -1 0 176)">
	<stop  offset="7.689310e-07" style="stop-color:#F9F9FA"/>
	<stop  offset="1" style="stop-color:#9497AC"/>
</linearGradient>
<path class="st15" d="M134.4,126.5c-4.1-10.8-13.7-16.6-24.6-16.6c-10,0-21.1,5.4-25.2,15.6c-2.8,7-2,15.4,2.1,15.4
	c9.3,0,44.9,0.2,44.9,0.2S140,141.1,134.4,126.5z"/>
<path class="st5" d="M80.2,149.7c0-25.2,15.3-34.7,29.2-34.7c14,0,29.2,9.4,29.2,34.7"/>
<path class="st14" d="M109.5,170.1c13.1,0,23.7-10.6,23.7-23.7s-10.6-23.7-23.7-23.7s-23.7,10.6-23.7,23.7S96.4,170.1,109.5,170.1z"
	/>
<path class="st16" d="M109.5,159.2c7.4,0,13.5-6,13.5-13.5c0-7.4-6-13.5-13.5-13.5c-7.4,0-13.5,6-13.5,13.5
	C96,153.2,102,159.2,109.5,159.2z"/>
<path class="st17" d="M109.5,134.2c7.1,0,12.9,5.5,13.4,12.5c0-0.3,0-0.7,0-1c0-7.4-6-13.5-13.5-13.5c-7.4,0-13.5,6-13.5,13.5
	c0,0.3,0,0.7,0,1C96.5,139.7,102.4,134.2,109.5,134.2z"/>
<path class="st18" d="M386.7,42.3h-55.7c-6.6,0-6.6,0-6.6,4.5v23c0,2.7,1.8,5.1,4.3,5.7l66.9,5.8"/>
<path class="st5" d="M382.9,91.2c2.5,0,4.5-2,4.5-4.5V73.9h-4.5V91.2z"/>
<path class="st19" d="M382.9,65.5v8.4h4.5V70C387.4,67.5,385.4,65.5,382.9,65.5z"/>
<path class="st17" d="M387.4,73.9h-4.5v9.9h4.5V73.9z"/>
<path class="st5" d="M387.4,81.3c1.6,0,2.9,1.3,2.9,2.9c0,1.6-1.3,2.9-2.9,2.9"/>
<linearGradient id="SVGID_9_" gradientUnits="userSpaceOnUse" x1="301.2973" y1="89.5087" x2="369.7245" y2="87.1602" gradientTransform="matrix(1 0 0 -1 0 176)">
	<stop  offset="7.689310e-07" style="stop-color:#448DCE"/>
	<stop  offset="1" style="stop-color:#2C6292"/>
</linearGradient>
<path class="st20" d="M301.6,77.8l63.3,5.5c2.8,0.4,4.9,2.8,4.8,5.7c-0.1,2.9-2.4,5.2-5.2,5.3L301,95.2"/>
<path class="st18" d="M336.9,87.2h-5c-1.7,0-3.1-1.4-3.1-3.1h5C335.5,84.1,336.9,85.4,336.9,87.2z"/>
<path class="st4" d="M295.4,94.5c0,0,55.2-2,67.1,31.4h-10.2c0,0-5.8-21.6-56.9-21.6"/>
<path class="st5" d="M305.4,149.9c0-23.8,14.5-32.8,27.6-32.8c13.3,0,27.6,8.8,27.6,32.8"/>
<path class="st14" d="M333,170.2c13.1,0,23.7-10.6,23.7-23.7c0-13.1-10.6-23.7-23.7-23.7s-23.7,10.6-23.7,23.7
	C309.3,159.6,319.9,170.2,333,170.2z"/>
<path class="st16" d="M333,159.4c7.4,0,13.5-6,13.5-13.5c0-7.4-6-13.5-13.5-13.5c-7.4,0-13.5,6-13.5,13.5
	C319.5,153.3,325.5,159.4,333,159.4z"/>
<path class="st17" d="M333,134.4c7.1,0,12.9,5.5,13.4,12.5c0-0.3,0-0.7,0-1c0-7.4-6-13.5-13.5-13.5c-7.4,0-13.5,6-13.5,13.5
	c0,0.3,0,0.7,0,1C320.1,139.9,325.9,134.4,333,134.4z"/>
<path class="st21" d="M321.5,80.1V102c0,4.7,3.8,8.5,8.5,8.5h8.3c2.3,0,9.9,0.3,12.1,2.6c2.9,2.9,7,7.2,7,7.2
	c1.6,1.6,3.8,2.6,6.1,2.6h20.3c2.8,0,5-2.2,5-5V96"/>
<path class="st18" d="M391.8,122.8v-19.7c1.7,0,3.1,1.4,3.1,3.1v13.6C394.9,121.4,393.5,122.8,391.8,122.8z"/>
</svg>
