<svg version="1.1" xmlns="http://www.w3.org/2000/svg" xmlns:xlink="http://www.w3.org/1999/xlink" width="400" height="144" viewBox="0 0 400 144">
<style type="text/css">
	.st0{fill:#2C6292;}
	.st1{fill:url(#SVGID_1_);}
	.st2{fill:url(#SVGID_2_);}
	.st3{fill:#F19100;}
	.st4{fill:#191F43;}
	.st5{fill:#8C8FAD;}
	.st6{fill:#C2C2C2;}
	.st7{fill:#1D2141;}
	.st8{fill:#2E435A;}
	.st9{fill:#448DCE;}
	.st10{fill:#1C4E7A;}
	.st11{fill:url(#SVGID_3_);}
	.st12{fill:#CACBD6;}
	.st13{fill:url(#SVGID_4_);}
	.st14{fill:#C47702;}
	.st15{fill:url(#SVGID_5_);}
	.st16{fill:url(#SVGID_6_);}
	.st17{fill:url(#SVGID_7_);}
	.st18{fill:#2E6495;}
	.st19{fill:#0F222C;}
	.st20{fill:#519BDD;}
	.st21{opacity:0.62;fill:none;stroke:#FFFFFF;stroke-width:3;stroke-linecap:round;stroke-miterlimit:10;}
</style>
<path class="st0" d="M298.8,0h12.7c1.1,0,2,0.9,2,2v103.9c0,1.1-0.9,2-1.9,2l-10.8,2.8L298.8,0z"/>
<linearGradient id="SVGID_1_" gradientUnits="userSpaceOnUse" x1="153.085" y1="136.3134" x2="153.085" y2="-2.075" gradientTransform="matrix(1 0 0 -1 0 146)">
	<stop  offset="7.689310e-07" style="stop-color:#448DCE"/>
	<stop  offset="1" style="stop-color:#2C6292"/>
</linearGradient>
<path class="st1" d="M258.5,81.5l46.9-1.8L306.2,0H4.4C2,0,0,1.9,0,4.3v86.4L258.5,81.5z"/>
<linearGradient id="SVGID_2_" gradientUnits="userSpaceOnUse" x1="153.0004" y1="57.1815" x2="152.9994" y2="44.281" gradientTransform="matrix(1 0 0 -1 0 146)">
	<stop  offset="7.689310e-07" style="stop-color:#F9F9FA"/>
	<stop  offset="1" style="stop-color:#DCDCDC"/>
</linearGradient>
<path class="st2" d="M3.8,111l302.2,3c0,0,0-1.8,0-4.1l-0.1-24.1L0,74v35.9C0,112.2,1.7,111,3.8,111z"/>
<path class="st3" d="M0,78.3c0,0,200.7,5.1,305.4,8.7l0.6-0.5v-8l-0.6-0.4c0,0-198-6.2-305.4-9V78.3z"/>
<path class="st4" d="M371.1,110.6H16.2v14.9h354.9V110.6z"/>
<path class="st4" d="M62,110.6h-2.3v22.7H62V110.6z"/>
<path class="st5" d="M241.3,126.1h-13c-1.2,0-2.1-0.9-2.1-2.1v-13.3h17.2V124C243.4,125.1,242.4,126.1,241.3,126.1z"/>
<path class="st5" d="M255,126.1h-7.8c-1.2,0-2.1-0.9-2.1-2.1v-13.3h12.1V124C257.1,125.2,256.1,126.1,255,126.1z"/>
<path class="st5" d="M268.4,126.1h-7.8c-1.2,0-2.1-0.9-2.1-2.1v-13.3h12.1V124C270.5,125.1,269.6,126.1,268.4,126.1z"/>
<path class="st5" d="M281.9,126.1H274c-1.2,0-2.1-0.9-2.1-2.1v-13.3h12V124C284,125.1,283,126.1,281.9,126.1z"/>
<path class="st6" d="M182.9,105.9c-3.5-9-11.5-14-20.7-14c-8.4,0-17.8,4.5-21.2,13.1c-2.4,5.9-1.7,12.9,1.8,12.9
	c7.8,0,37.7,0.2,37.7,0.2S187.6,118.1,182.9,105.9z"/>
<path class="st7" d="M136.8,125.6c0-21.4,13.1-29.5,24.9-29.5c12,0,25.4,7.9,25.4,29.5"/>
<path class="st8" d="M162.1,142.5c11,0,19.9-8.9,19.9-19.9s-8.9-19.9-19.9-19.9s-19.9,8.9-19.9,19.9S151.1,142.5,162.1,142.5z"/>
<path class="st9" d="M162.1,133.3c6.3,0,11.3-5.1,11.3-11.3c0-6.3-5.1-11.3-11.3-11.3c-6.3,0-11.3,5.1-11.3,11.3
	C150.8,128.3,155.9,133.3,162.1,133.3z"/>
<path class="st0" d="M162.1,112.4c6,0,10.9,4.6,11.3,10.5c0-0.3,0-0.6,0-0.8c0-6.3-5.1-11.3-11.3-11.3c-6.3,0-11.3,5.1-11.3,11.3
	c0,0.3,0,0.6,0,0.8C151.3,117,156.2,112.4,162.1,112.4z"/>
<path class="st6" d="M125.2,105.9c-3.5-9-11.5-14-20.7-14c-8.4,0-17.8,4.5-21.2,13.1c-2.4,5.9-1.7,12.9,1.8,12.9
	c7.8,0,37.7,0.2,37.7,0.2S129.9,118.1,125.2,105.9z"/>
<path class="st7" d="M79.5,125.2c0-21.4,13.1-29.5,24.9-29.5c12,0,24.9,7.9,24.9,29.5"/>
<path class="st8" d="M104.3,142.1c11,0,19.9-8.9,19.9-19.9s-8.9-19.9-19.9-19.9c-11,0-19.9,8.9-19.9,19.9S93.3,142.1,104.3,142.1z"
	/>
<path class="st9" d="M104.3,132.9c6.3,0,11.3-5.1,11.3-11.3c0-6.3-5.1-11.3-11.3-11.3c-6.3,0-11.3,5.1-11.3,11.3
	C93,127.9,98,132.9,104.3,132.9z"/>
<path class="st0" d="M104.3,111.9c6,0,10.9,4.6,11.3,10.5c0-0.3,0-0.6,0-0.8c0-6.3-5.1-11.3-11.3-11.3c-6.3,0-11.3,5.1-11.3,11.3
	c0,0.3,0,0.6,0,0.8C93.4,116.6,98.3,111.9,104.3,111.9z"/>
<path class="st10" d="M354.4,21.6l-43.9,2c-0.2,0-0.3-0.1-0.3-0.3v-5.6c0-0.2,0.2-0.3,0.3-0.3l43.2,3.1L354.4,21.6z"/>
<linearGradient id="SVGID_3_" gradientUnits="userSpaceOnUse" x1="310.105" y1="75.2812" x2="398" y2="75.2812" gradientTransform="matrix(1 0 0 -1 0 146)">
	<stop  offset="7.689310e-07" style="stop-color:#448DCE"/>
	<stop  offset="1" style="stop-color:#2C6292"/>
</linearGradient>
<path class="st11" d="M310.4,21.6l75.5,9.2c0,0,12,51.7,12,54.8l-0.3,19l-7,15.2l-80.7-9.7V21.9C310.1,21.8,310.3,21.6,310.4,21.6z"
	/>
<path class="st12" d="M315.5,86.5l0.3,24.1h-10.5V87"/>
<linearGradient id="SVGID_4_" gradientUnits="userSpaceOnUse" x1="337.162" y1="68.0519" x2="337.162" y2="-9.538" gradientTransform="matrix(1 0 0 -1 0 146)">
	<stop  offset="7.689310e-07" style="stop-color:#F9F9FA"/>
	<stop  offset="1" style="stop-color:#9497AC"/>
</linearGradient>
<path class="st13" d="M364.2,104.6l-15.4-15.4l-38.7-3.9v19c0,0.2,0.1,0.3,0.3,0.3L364.2,104.6z"/>
<path class="st14" d="M305.4,87l5-0.1v-8.9h-5V87z"/>
<linearGradient id="SVGID_5_" gradientUnits="userSpaceOnUse" x1="310.107" y1="119.2391" x2="386.5831" y2="119.2391" gradientTransform="matrix(1 0 0 -1 0 146)">
	<stop  offset="7.689310e-07" style="stop-color:#448DCE"/>
	<stop  offset="1" style="stop-color:#2C6292"/>
</linearGradient>
<path class="st15" d="M385.8,31.9h-75.7V21.6h59.7c6.7,0,13,3.5,16.6,9.2C386.8,31.3,386.4,31.9,385.8,31.9z"/>
<linearGradient id="SVGID_6_" gradientUnits="userSpaceOnUse" x1="310.105" y1="134.2652" x2="353.964" y2="134.2652" gradientTransform="matrix(1 0 0 -1 0 146)">
	<stop  offset="7.689310e-07" style="stop-color:#448DCE"/>
	<stop  offset="1" style="stop-color:#2C6292"/>
</linearGradient>
<path class="st16" d="M310.1,20.9H354c0,0-6.6-14.3-43.9-18.4V20.9z"/>
<path class="st10" d="M386.4,32.9l-76.3-0.3c0,0,0-0.1,0-0.3v-0.3h76.1L386.4,32.9z"/>
<path class="st4" d="M310.1,124.7h31.6V97.2h-31.3c-0.2,0-0.3,0.1-0.3,0.3L310,111L310.1,124.7z"/>
<linearGradient id="SVGID_7_" gradientUnits="userSpaceOnUse" x1="378.374" y1="38.913" x2="378.374" y2="23.104" gradientTransform="matrix(1 0 0 -1 0 146)">
	<stop  offset="7.689310e-07" style="stop-color:#448DCE"/>
	<stop  offset="1" style="stop-color:#2C6292"/>
</linearGradient>
<path class="st17" d="M391.3,125.6h-30l-2.2-18.9h38.6v12.9C397.7,122.9,394.8,125.6,391.3,125.6z"/>
<path class="st4" d="M397.7,104.5h-39.8v2.6h39.8V104.5z"/>
<path class="st18" d="M389.2,116.2H370v7.7h19.2V116.2z"/>
<path class="st18" d="M389.2,107.2H370v7.7h19.2V107.2z"/>
<path class="st8" d="M389.2,122.1H370v1.7h19.2V122.1z"/>
<path class="st8" d="M389.2,113.1H370v1.7h19.2V113.1z"/>
<path class="st19" d="M386.8,34.3h-46.8c-5.6,0-5.6,0-5.6,3.8v19.3c0,2.3,1.5,4.2,3.6,4.8l56.2,4.9"/>
<path class="st4" d="M383.6,75.4c2.1,0,3.8-1.7,3.8-3.8V60.8h-3.8V75.4z"/>
<path class="st20" d="M383.6,53.8v7.4h3.8v-3.6C387.4,55.5,385.7,53.8,383.6,53.8z"/>
<path class="st0" d="M387.4,60.8h-3.8v8.3h3.8V60.8z"/>
<path class="st4" d="M387.4,67.1c1.3,0,2.4,1.1,2.4,2.4c0,1.3-1.1,2.4-2.4,2.4"/>
<path class="st0" d="M315.3,64.2l53.2,4.6c2.4,0.3,4.1,2.4,4.1,4.8c-0.1,2.4-2,4.4-4.4,4.5l-53.3,0.8"/>
<path class="st19" d="M345,72h-4.2c-1.4,0-2.6-1.2-2.6-2.6h4.2C343.8,69.4,345,70.6,345,72z"/>
<path class="st3" d="M310,78c0,0,47.9-1.6,56.5,26.5h-8.6c0,0-4.9-17.6-47.8-17.6"/>
<path class="st7" d="M318.6,125.6c0-20.7,12.1-28.5,23.2-28.5c11.1,0,23.2,7.7,23.2,28.5"/>
<path class="st8" d="M341.7,141.8c11,0,19.9-8.9,19.9-19.9s-8.9-19.9-19.9-19.9s-19.9,8.9-19.9,19.9S330.7,141.8,341.7,141.8z"/>
<path class="st9" d="M341.7,132.7c6.3,0,11.3-5.1,11.3-11.3c0-6.3-5.1-11.3-11.3-11.3c-6.3,0-11.3,5.1-11.3,11.3
	C330.4,127.6,335.4,132.7,341.7,132.7z"/>
<path class="st0" d="M341.7,111.7c6,0,10.9,4.6,11.3,10.5c0-0.3,0-0.6,0-0.8c0-6.3-5.1-11.3-11.3-11.3c-6.3,0-11.3,5.1-11.3,11.3
	c0,0.3,0,0.6,0,0.8C330.8,116.3,335.7,111.7,341.7,111.7z"/>
<path class="st21" d="M332.1,66.1v18.4c0,3.9,3.2,7.1,7.1,7.1h7c1.9,0,8.3,0.3,10.2,2.2c2.4,2.4,5.8,6,5.8,6
	c1.3,1.4,3.2,2.2,5.1,2.2h17.1c2.3,0,4.2-1.9,4.2-4.2V79.5"/>
<path class="st19" d="M391.1,102V85.4c1.4,0,2.6,1.2,2.6,2.6v11.4C393.7,100.8,392.5,102,391.1,102z"/>
</svg>
