<svg version="1.1" xmlns="http://www.w3.org/2000/svg" width="40" height="40" viewBox="0 0 40 40" fill="#C40000">
<path d="M19.1087 0.00926073C18.2017 0.074927 17.9359 0.0999427 17.4449 0.165609C12.0219 0.891065 7.15559 3.73347 3.94996 8.05807C2.14855 10.4846 0.863174 13.4521 0.312744 16.4477C0.084441 17.6954 0 18.6491 0 20.0031C0 21.135 0.028147 21.5822 0.1595 22.5578C0.744332 26.9543 2.75215 31.0475 5.83268 34.1307C8.94449 37.2451 13.0258 39.2527 17.4449 39.8405C18.4206 39.9719 18.8679 40 20 40C21.1321 40 21.5794 39.9719 22.5551 39.8405C27.9719 39.1182 32.8444 36.2695 36.05 31.9481C37.8514 29.5215 39.1368 26.5541 39.6873 23.5584C39.9156 22.3108 40 21.357 40 20.0031C40 18.8711 39.9719 18.424 39.8405 17.4483C39.2557 13.0518 37.2479 8.95863 34.1673 5.87544C30.8554 2.56086 26.4832 0.518956 21.7201 0.068673C21.2416 0.0217686 19.4746 -0.0188819 19.1087 0.00926073ZM21.2666 4.27444C23.2995 4.46206 25.104 4.96237 26.8991 5.83479C28.5848 6.65406 29.8421 7.54837 31.1525 8.85544C32.4097 10.1094 33.2885 11.332 34.1016 12.9674C35.2213 15.2219 35.7748 17.5421 35.7748 20.0031C35.7748 21.3602 35.6372 22.4671 35.3026 23.8023C34.9085 25.3783 34.2236 26.995 33.3604 28.3833C33.1728 28.6866 32.688 29.3902 32.5442 29.5716L32.4816 29.6498L21.423 18.5959C15.3432 12.5171 10.3675 7.53274 10.3675 7.52023C10.3675 7.49208 11.1118 6.96363 11.4934 6.72285C12.9289 5.81603 14.5927 5.10308 16.2002 4.70283C17.2541 4.44017 18.1517 4.30571 19.3589 4.23066C19.6622 4.2119 20.8944 4.24004 21.2666 4.27444ZM18.5833 21.4165C24.6599 27.4921 29.6325 32.4734 29.6325 32.4859C29.6325 32.514 28.8882 33.0425 28.5066 33.2833C26.7772 34.3746 24.76 35.1657 22.7991 35.5253C21.1978 35.8161 19.6122 35.8599 17.9984 35.6504C15.656 35.3502 13.2447 34.4434 11.2338 33.1113C10.3331 32.5172 9.67005 31.9731 8.84754 31.1507C7.59031 29.8968 6.71149 28.6741 5.89836 27.0387C4.77873 24.7842 4.22518 22.464 4.22518 20.0031C4.22518 18.646 4.36278 17.539 4.69742 16.2038C5.13526 14.4527 5.93589 12.6484 6.94292 11.1569C7.22127 10.741 7.49335 10.372 7.51837 10.372C7.52776 10.372 12.5098 15.3439 18.5833 21.4165Z" fill="#C40000"/>
</svg>
